<svg width="1536" height="331.99999999999994" viewBox="0 0 1536 331.99999999999994">
<path stroke-width="1" fill="none" stroke="black" stroke-dasharray="none" d="M50 197.99999999999997L719.3586951679998 197.99999999999997">
</path>
<rect stroke-width="0.3" fill="black" stroke="black" stroke-dasharray="none" x="719.3586951679998" y="177.49999999999997" width="1" height="41">
</rect>
<path stroke-width="0.3" fill="black" stroke="none" stroke-dasharray="none" d="M55 197.99999999999997M55 197.99999999999997L55 188.00639999999999L57.1888 188.00639999999999L59.4064 188.00639999999999L59.4064 197.99999999999997L59.4064 208.02239999999998L57.1888 208.02239999999998L55 208.02239999999998L55 197.99999999999997M63.870400000000004 198.02879999999996L63.870400000000004 188.00639999999999L66.1168 188.00639999999999L68.3632 188.00639999999999L68.3632 198.02879999999996L68.3632 208.02239999999998L66.1168 208.02239999999998L63.870400000000004 208.02239999999998L63.870400000000004 198.02879999999996">
</path>
<path stroke-width="0.3" fill="black" stroke="none" stroke-dasharray="none" d="M96 197.99999999999997M101.0112 179.65439999999998C101.04 179.62559999999996,101.4432 179.62559999999996,102.6816 179.62559999999996C103.056 179.62559999999996,103.4592 179.62559999999996,103.9776 179.62559999999996L106.8864 179.62559999999996L106.9728 179.71199999999996C107.1168 179.79839999999996,107.2032 179.94239999999996,107.2032 180.05759999999998C107.2032 180.23039999999997,107.1168 180.34559999999996,107.0016 180.46079999999998C106.9728 180.54719999999998,106.7136 180.77759999999998,106.5408 181.03679999999997L105.0144 182.79359999999997L103.056 185.01119999999997L102.0192 186.19199999999998L100.464 187.97759999999997L98.4192 190.31039999999996C98.0736 190.74239999999998,97.6992 191.08799999999997,97.6992 191.08799999999997C97.6992 191.08799999999997,97.6992 191.08799999999997,97.6992 191.08799999999997C97.6992 191.14559999999997,97.9584 191.14559999999997,100.3488 191.14559999999997L102.9696 191.14559999999997L102.9696 189.27359999999996C102.9696 187.37279999999998,102.9696 187.34399999999997,102.9984 187.31519999999998C103.056 187.22879999999998,103.3152 186.91199999999998,104.3232 185.73119999999997L104.7264 185.29919999999998L105.1296 184.86719999999997L105.7344 184.08959999999996L106.368 183.42719999999997L106.6848 183.02399999999997C106.8 182.85119999999998,106.9728 182.82239999999996,107.1168 182.82239999999996C107.28960000000001 182.82239999999996,107.4336 182.90879999999999,107.52 183.05279999999996C107.5488 183.13919999999996,107.5488 183.19679999999997,107.5488 185.32799999999997C107.5488 185.81759999999997,107.5488 186.42239999999998,107.5488 187.14239999999998L107.5488 191.14559999999997L108.2688 191.14559999999997C108.9312 191.14559999999997,108.96 191.14559999999997,109.0464 191.17439999999996C109.2768 191.26079999999996,109.392 191.49119999999996,109.392 191.75039999999998C109.392 191.89439999999996,109.3632 192.06719999999999,109.248 192.18239999999997C109.0752 192.32639999999998,109.0464 192.32639999999998,108.2688 192.32639999999998L107.5488 192.32639999999998L107.5488 192.81599999999997C107.5776 194.28479999999996,107.8656 194.86079999999998,108.9888 195.46559999999997C109.392 195.66719999999998,109.4784 195.72479999999996,109.4784 196.01279999999997C109.4784 196.21439999999998,109.4208 196.30079999999998,109.2768 196.41599999999997L109.1904 196.44479999999996L105.2448 196.44479999999996L101.328 196.44479999999996L101.2416 196.41599999999997C101.0688 196.30079999999998,101.04 196.21439999999998,101.04 196.01279999999997C101.04 195.72479999999996,101.0688 195.66719999999998,101.5008 195.46559999999997C102.624 194.86079999999998,102.912 194.28479999999996,102.912 192.81599999999997L102.912 192.32639999999998L99.6 192.32639999999998C98.9952 192.38399999999996,98.5056 192.38399999999996,98.1024 192.38399999999996C96.288 192.38399999999996,96.2592 192.32639999999998,96.2304 192.32639999999998C96.0576 192.26879999999997,96 192.09599999999998,96 191.89439999999996C96 191.89439999999996,96 191.89439999999996,96 191.89439999999996C96 191.69279999999998,96 191.69279999999998,96.576 191.0304C98.9952 188.09279999999998,100.6944 183.83039999999997,100.6944 180.43199999999996C100.6944 179.91359999999997,100.7808 179.74079999999998,101.0112 179.65439999999998M102.7392 198.02879999999996L102.768 198.02879999999996L102.6816 198.02879999999996L102.7392 198.02879999999996M102.7392 178.61759999999998L102.768 178.61759999999998L102.6816 178.61759999999998L102.7392 178.61759999999998">
</path>
<path stroke-width="0.3" fill="black" stroke="none" stroke-dasharray="none" d="M96 217.99999999999997M101.0112 199.65439999999998C101.04 199.62559999999996,101.4432 199.62559999999996,102.6816 199.62559999999996C103.056 199.62559999999996,103.4592 199.62559999999996,103.9776 199.62559999999996L106.8864 199.62559999999996L106.9728 199.71199999999996C107.1168 199.79839999999996,107.2032 199.94239999999996,107.2032 200.05759999999998C107.2032 200.23039999999997,107.1168 200.34559999999996,107.0016 200.46079999999998C106.9728 200.54719999999998,106.7136 200.77759999999998,106.5408 201.03679999999997L105.0144 202.79359999999997L103.056 205.01119999999997L102.0192 206.19199999999998L100.464 207.97759999999997L98.4192 210.31039999999996C98.0736 210.74239999999998,97.6992 211.08799999999997,97.6992 211.08799999999997C97.6992 211.08799999999997,97.6992 211.08799999999997,97.6992 211.08799999999997C97.6992 211.14559999999997,97.9584 211.14559999999997,100.3488 211.14559999999997L102.9696 211.14559999999997L102.9696 209.27359999999996C102.9696 207.37279999999998,102.9696 207.34399999999997,102.9984 207.31519999999998C103.056 207.22879999999998,103.3152 206.91199999999998,104.3232 205.73119999999997L104.7264 205.29919999999998L105.1296 204.86719999999997L105.7344 204.08959999999996L106.368 203.42719999999997L106.6848 203.02399999999997C106.8 202.85119999999998,106.9728 202.82239999999996,107.1168 202.82239999999996C107.28960000000001 202.82239999999996,107.4336 202.90879999999999,107.52 203.05279999999996C107.5488 203.13919999999996,107.5488 203.19679999999997,107.5488 205.32799999999997C107.5488 205.81759999999997,107.5488 206.42239999999998,107.5488 207.14239999999998L107.5488 211.14559999999997L108.2688 211.14559999999997C108.9312 211.14559999999997,108.96 211.14559999999997,109.0464 211.17439999999996C109.2768 211.26079999999996,109.392 211.49119999999996,109.392 211.75039999999998C109.392 211.89439999999996,109.3632 212.06719999999999,109.248 212.18239999999997C109.0752 212.32639999999998,109.0464 212.32639999999998,108.2688 212.32639999999998L107.5488 212.32639999999998L107.5488 212.81599999999997C107.5776 214.28479999999996,107.8656 214.86079999999998,108.9888 215.46559999999997C109.392 215.66719999999998,109.4784 215.72479999999996,109.4784 216.01279999999997C109.4784 216.21439999999998,109.4208 216.30079999999998,109.2768 216.41599999999997L109.1904 216.44479999999996L105.2448 216.44479999999996L101.328 216.44479999999996L101.2416 216.41599999999997C101.0688 216.30079999999998,101.04 216.21439999999998,101.04 216.01279999999997C101.04 215.72479999999996,101.0688 215.66719999999998,101.5008 215.46559999999997C102.624 214.86079999999998,102.912 214.28479999999996,102.912 212.81599999999997L102.912 212.32639999999998L99.6 212.32639999999998C98.9952 212.38399999999996,98.5056 212.38399999999996,98.1024 212.38399999999996C96.288 212.38399999999996,96.2592 212.32639999999998,96.2304 212.32639999999998C96.0576 212.26879999999997,96 212.09599999999998,96 211.89439999999996C96 211.89439999999996,96 211.89439999999996,96 211.89439999999996C96 211.69279999999998,96 211.69279999999998,96.576 211.0304C98.9952 208.09279999999998,100.6944 203.83039999999997,100.6944 200.43199999999996C100.6944 199.91359999999997,100.7808 199.74079999999998,101.0112 199.65439999999998M102.7392 218.02879999999996L102.768 218.02879999999996L102.6816 218.02879999999996L102.7392 218.02879999999996M102.7392 198.61759999999998L102.768 198.61759999999998L102.6816 198.61759999999998L102.7392 198.61759999999998">
</path>
<g class="vf-stavenote" id="vf-auto27273">
<g class="vf-note" pointer-events="bounding-box">
<g class="vf-notehead" pointer-events="bounding-box">
<path stroke-width="0.3" fill="#000000" stroke="none" stroke-dasharray="none" d="M147.3424768 197.99999999999997M154.69943679999997 192.77711999999997C154.81175679999998 192.77711999999997,154.9802368 192.77711999999997,155.0083168 192.77711999999997C155.0083168 192.77711999999997,155.03639679999998 192.77711999999997,155.03639679999998 192.77711999999997C155.03639679999998 192.77711999999997,155.2048768 192.77711999999997,155.3452768 192.77711999999997C157.8724768 192.91751999999997,159.36071679999998 194.57423999999997,159.36071679999998 196.65215999999998C159.36071679999998 197.66303999999997,159.0237568 198.81431999999998,158.18135679999997 199.90943999999996C156.58079679999997 202.07159999999996,153.96935679999999 203.25095999999996,151.69487679999997 203.25095999999996C149.92583679999998 203.25095999999996,148.40951679999998 202.54895999999997,147.6794368 201.11687999999998C147.4547968 200.55527999999998,147.3424768 200.02175999999997,147.3424768 199.43207999999998C147.3424768 196.37135999999998,150.76823679999998 192.97367999999997,154.69943679999997 192.77711999999997">
</path>
</g>
</g>
<g class="vf-modifiers">
<g class="vf-stavenote" id="vf-auto27283">
<g class="vf-note" pointer-events="bounding-box">
<g class="vf-stem" pointer-events="bounding-box">
<path stroke-width="1.5" fill="none" stroke="#000000" stroke-dasharray="none" d="M128.6604384 197.99999999999997L128.6604384 174.89999999999998">
</path>
</g>
<g class="vf-notehead" pointer-events="bounding-box">
<path stroke-width="0.3" fill="#000000" stroke="none" stroke-dasharray="none" d="M121.4784 197.99999999999997M126.3339936 194.55289919999998C126.4081248 194.55289919999998,126.5193216 194.55289919999998,126.5378544 194.55289919999998C126.5378544 194.55289919999998,126.55638719999999 194.55289919999998,126.55638719999999 194.55289919999998C126.55638719999999 194.55289919999998,126.66758399999999 194.55289919999998,126.76024799999999 194.55289919999998C128.4282 194.64556319999997,129.4104384 195.73899839999996,129.4104384 197.11042559999999C129.4104384 197.77760639999997,129.1880448 198.53745119999996,128.6320608 199.26023039999998C127.5756912 200.68725599999996,125.8521408 201.46563359999996,124.350984 201.46563359999996C123.1834176 201.46563359999996,122.1826464 201.00231359999998,121.7007936 200.05714079999998C121.55253119999999 199.68648479999996,121.4784 199.33436159999997,121.4784 198.94517279999997C121.4784 196.92509759999996,123.7394016 194.68262879999997,126.3339936 194.55289919999998">
</path>
</g>
<g class="vf-flag" pointer-events="bounding-box">
<path stroke-width="0.3" fill="#000000" stroke="none" stroke-dasharray="none" d="M128.6604384 172.89999999999998M128.2156512 175.88378079999998L128.2156512 172.992664L128.2897824 172.992664C128.4936432 172.992664,128.6233728 173.12239359999998,128.6604384 173.34478719999998C129.0496272 175.19806719999997,130.2171936 177.21814239999998,131.8295472 178.73783199999997C133.6272288 180.42431679999999,134.535336 182.74091679999998,134.535336 185.13164799999998C134.535336 187.39264959999997,133.7384256 189.74631519999997,132.126072 191.69225919999997C131.84808 192.06291519999996,131.8295472 192.06291519999996,131.6442192 192.06291519999996C131.4218256 192.06291519999996,131.2735632 191.89611999999997,131.2735632 191.67372639999996C131.2735632 191.50693119999997,131.29209600000002 191.4698656,131.477424 191.2660048C132.88591680000002 189.56098719999997,133.5901632 187.5038464,133.5901632 185.5393696C133.5901632 183.7972864,133.0341792 182.12933439999998,131.88514560000002 180.86910399999996C131.1808992 180.09072639999997,129.8836032 179.34941439999997,128.234184 178.77489759999997C128.234184 178.75636479999997,128.2156512 178.18184799999997,128.2156512 175.88378079999998">
</path>
</g>
</g>
<g class="vf-modifiers">
</g>
</g>
<path stroke-width="1" fill="none" stroke="#000000" stroke-dasharray="none" d="M122.4784 189.74999999999997L135.4784 180.74999999999997Z">
</path>
</g>
</g>
<g class="vf-stavenote" id="vf-auto27297">
<g class="vf-note" pointer-events="bounding-box">
<g class="vf-notehead" pointer-events="bounding-box">
<path stroke-width="0.3" fill="#000000" stroke="none" stroke-dasharray="none" d="M178.34655759999998 197.99999999999997M185.70351759999997 192.77711999999997C185.81583759999998 192.77711999999997,185.9843176 192.77711999999997,186.01239759999999 192.77711999999997C186.01239759999999 192.77711999999997,186.04047759999997 192.77711999999997,186.04047759999997 192.77711999999997C186.04047759999997 192.77711999999997,186.2089576 192.77711999999997,186.3493576 192.77711999999997C188.87655759999998 192.91751999999997,190.36479759999997 194.57423999999997,190.36479759999997 196.65215999999998C190.36479759999997 197.66303999999997,190.0278376 198.81431999999998,189.18543759999997 199.90943999999996C187.58487759999997 202.07159999999996,184.97343759999998 203.25095999999996,182.69895759999997 203.25095999999996C180.92991759999998 203.25095999999996,179.41359759999997 202.54895999999997,178.6835176 201.11687999999998C178.4588776 200.55527999999998,178.34655759999998 200.02175999999997,178.34655759999998 199.43207999999998C178.34655759999998 196.37135999999998,181.77231759999998 192.97367999999997,185.70351759999997 192.77711999999997">
</path>
</g>
</g>
<g class="vf-modifiers">
</g>
</g>
<g class="vf-stavenote" id="vf-auto27307">
<g class="vf-note" pointer-events="bounding-box">
<g class="vf-notehead" pointer-events="bounding-box">
<path stroke-width="0.3" fill="#000000" stroke="none" stroke-dasharray="none" d="M209.3506384 197.99999999999997M216.7075984 192.77711999999997C216.8199184 192.77711999999997,216.9883984 192.77711999999997,217.0164784 192.77711999999997C217.0164784 192.77711999999997,217.0445584 192.77711999999997,217.0445584 192.77711999999997C217.0445584 192.77711999999997,217.21303840000002 192.77711999999997,217.35343840000002 192.77711999999997C219.8806384 192.91751999999997,221.3688784 194.57423999999997,221.3688784 196.65215999999998C221.3688784 197.66303999999997,221.0319184 198.81431999999998,220.1895184 199.90943999999996C218.5889584 202.07159999999996,215.9775184 203.25095999999996,213.7030384 203.25095999999996C211.9339984 203.25095999999996,210.4176784 202.54895999999997,209.6875984 201.11687999999998C209.46295840000002 200.55527999999998,209.3506384 200.02175999999997,209.3506384 199.43207999999998C209.3506384 196.37135999999998,212.7763984 192.97367999999997,216.7075984 192.77711999999997">
</path>
</g>
</g>
<g class="vf-modifiers">
</g>
</g>
<g class="vf-stavenote" id="vf-auto27317">
<g class="vf-note" pointer-events="bounding-box">
<g class="vf-notehead" pointer-events="bounding-box">
<path stroke-width="0.3" fill="#000000" stroke="none" stroke-dasharray="none" d="M240.35471920000003 197.99999999999997M247.71167920000002 192.77711999999997C247.82399920000003 192.77711999999997,247.99247920000005 192.77711999999997,248.02055920000004 192.77711999999997C248.02055920000004 192.77711999999997,248.04863920000003 192.77711999999997,248.04863920000003 192.77711999999997C248.04863920000003 192.77711999999997,248.21711920000004 192.77711999999997,248.35751920000004 192.77711999999997C250.88471920000003 192.91751999999997,252.37295920000003 194.57423999999997,252.37295920000003 196.65215999999998C252.37295920000003 197.66303999999997,252.03599920000005 198.81431999999998,251.19359920000002 199.90943999999996C249.59303920000002 202.07159999999996,246.98159920000003 203.25095999999996,244.70711920000002 203.25095999999996C242.93807920000003 203.25095999999996,241.42175920000003 202.54895999999997,240.69167920000004 201.11687999999998C240.46703920000004 200.55527999999998,240.35471920000003 200.02175999999997,240.35471920000003 199.43207999999998C240.35471920000003 196.37135999999998,243.78047920000003 192.97367999999997,247.71167920000002 192.77711999999997">
</path>
</g>
</g>
<g class="vf-modifiers">
</g>
</g>
<g class="vf-stavenote" id="vf-auto27327">
<g class="vf-note" pointer-events="bounding-box">
<g class="vf-notehead" pointer-events="bounding-box">
<path stroke-width="0.3" fill="#000000" stroke="none" stroke-dasharray="none" d="M297.2228768 197.99999999999997M304.5798368 192.77711999999997C304.6921568 192.77711999999997,304.8606368 192.77711999999997,304.8887168 192.77711999999997C304.8887168 192.77711999999997,304.9167968 192.77711999999997,304.9167968 192.77711999999997C304.9167968 192.77711999999997,305.0852768 192.77711999999997,305.2256768 192.77711999999997C307.75287679999997 192.91751999999997,309.2411168 194.57423999999997,309.2411168 196.65215999999998C309.2411168 197.66303999999997,308.9041568 198.81431999999998,308.0617568 199.90943999999996C306.4611968 202.07159999999996,303.8497568 203.25095999999996,301.5752768 203.25095999999996C299.8062368 203.25095999999996,298.2899168 202.54895999999997,297.55983679999997 201.11687999999998C297.3351968 200.55527999999998,297.2228768 200.02175999999997,297.2228768 199.43207999999998C297.2228768 196.37135999999998,300.6486368 192.97367999999997,304.5798368 192.77711999999997">
</path>
</g>
</g>
<g class="vf-modifiers">
<g class="vf-stavenote" id="vf-auto27337">
<g class="vf-note" pointer-events="bounding-box">
<g class="vf-stem" pointer-events="bounding-box">
<path stroke-width="1.5" fill="none" stroke="#000000" stroke-dasharray="none" d="M278.54083840000004 197.99999999999997L278.54083840000004 174.89999999999998">
</path>
</g>
<g class="vf-notehead" pointer-events="bounding-box">
<path stroke-width="0.3" fill="#000000" stroke="none" stroke-dasharray="none" d="M271.35880000000003 197.99999999999997M276.21439360000005 194.55289919999998C276.2885248 194.55289919999998,276.3997216 194.55289919999998,276.4182544 194.55289919999998C276.4182544 194.55289919999998,276.4367872 194.55289919999998,276.4367872 194.55289919999998C276.4367872 194.55289919999998,276.54798400000004 194.55289919999998,276.64064800000006 194.55289919999998C278.3086 194.64556319999997,279.29083840000004 195.73899839999996,279.29083840000004 197.11042559999999C279.29083840000004 197.77760639999997,279.0684448 198.53745119999996,278.51246080000004 199.26023039999998C277.45609120000006 200.68725599999996,275.73254080000004 201.46563359999996,274.23138400000005 201.46563359999996C273.06381760000005 201.46563359999996,272.0630464 201.00231359999998,271.5811936 200.05714079999998C271.43293120000004 199.68648479999996,271.35880000000003 199.33436159999997,271.35880000000003 198.94517279999997C271.35880000000003 196.92509759999996,273.6198016 194.68262879999997,276.21439360000005 194.55289919999998">
</path>
</g>
<g class="vf-flag" pointer-events="bounding-box">
<path stroke-width="0.3" fill="#000000" stroke="none" stroke-dasharray="none" d="M278.54083840000004 172.89999999999998M278.09605120000003 175.88378079999998L278.09605120000003 172.992664L278.17018240000004 172.992664C278.3740432 172.992664,278.50377280000004 173.12239359999998,278.54083840000004 173.34478719999998C278.93002720000004 175.19806719999997,280.09759360000004 177.21814239999998,281.70994720000004 178.73783199999997C283.5076288 180.42431679999999,284.41573600000004 182.74091679999998,284.41573600000004 185.13164799999998C284.41573600000004 187.39264959999997,283.61882560000004 189.74631519999997,282.00647200000003 191.69225919999997C281.72848000000005 192.06291519999996,281.70994720000004 192.06291519999996,281.5246192 192.06291519999996C281.30222560000004 192.06291519999996,281.1539632 191.89611999999997,281.1539632 191.67372639999996C281.1539632 191.50693119999997,281.172496 191.4698656,281.35782400000005 191.2660048C282.7663168 189.56098719999997,283.4705632 187.5038464,283.4705632 185.5393696C283.4705632 183.7972864,282.91457920000005 182.12933439999998,281.76554560000005 180.86910399999996C281.06129920000006 180.09072639999997,279.76400320000005 179.34941439999997,278.11458400000004 178.77489759999997C278.11458400000004 178.75636479999997,278.09605120000003 178.18184799999997,278.09605120000003 175.88378079999998">
</path>
</g>
</g>
<g class="vf-modifiers">
</g>
</g>
<path stroke-width="1" fill="none" stroke="#000000" stroke-dasharray="none" d="M272.35880000000003 189.74999999999997L285.35880000000003 180.74999999999997Z">
</path>
</g>
</g>
<g class="vf-stavenote" id="vf-auto27351">
<g class="vf-note" pointer-events="bounding-box">
<g class="vf-notehead" pointer-events="bounding-box">
<path stroke-width="0.3" fill="#000000" stroke="none" stroke-dasharray="none" d="M328.2269576 197.99999999999997M335.5839176 192.77711999999997C335.6962376 192.77711999999997,335.8647176 192.77711999999997,335.8927976 192.77711999999997C335.8927976 192.77711999999997,335.9208776 192.77711999999997,335.9208776 192.77711999999997C335.9208776 192.77711999999997,336.08935759999997 192.77711999999997,336.22975759999997 192.77711999999997C338.75695759999996 192.91751999999997,340.2451976 194.57423999999997,340.2451976 196.65215999999998C340.2451976 197.66303999999997,339.9082376 198.81431999999998,339.0658376 199.90943999999996C337.4652776 202.07159999999996,334.8538376 203.25095999999996,332.5793576 203.25095999999996C330.8103176 203.25095999999996,329.2939976 202.54895999999997,328.56391759999997 201.11687999999998C328.3392776 200.55527999999998,328.2269576 200.02175999999997,328.2269576 199.43207999999998C328.2269576 196.37135999999998,331.6527176 192.97367999999997,335.5839176 192.77711999999997">
</path>
</g>
</g>
<g class="vf-modifiers">
</g>
</g>
<g class="vf-stavenote" id="vf-auto27361">
<g class="vf-note" pointer-events="bounding-box">
<g class="vf-notehead" pointer-events="bounding-box">
<path stroke-width="0.3" fill="#000000" stroke="none" stroke-dasharray="none" d="M359.2310384 197.99999999999997M366.5879984 192.77711999999997C366.7003184 192.77711999999997,366.8687984 192.77711999999997,366.8968784 192.77711999999997C366.8968784 192.77711999999997,366.9249584 192.77711999999997,366.9249584 192.77711999999997C366.9249584 192.77711999999997,367.09343839999997 192.77711999999997,367.23383839999997 192.77711999999997C369.76103839999996 192.91751999999997,371.2492784 194.57423999999997,371.2492784 196.65215999999998C371.2492784 197.66303999999997,370.9123184 198.81431999999998,370.0699184 199.90943999999996C368.4693584 202.07159999999996,365.8579184 203.25095999999996,363.5834384 203.25095999999996C361.8143984 203.25095999999996,360.2980784 202.54895999999997,359.56799839999996 201.11687999999998C359.3433584 200.55527999999998,359.2310384 200.02175999999997,359.2310384 199.43207999999998C359.2310384 196.37135999999998,362.6567984 192.97367999999997,366.5879984 192.77711999999997">
</path>
</g>
</g>
<g class="vf-modifiers">
</g>
</g>
<g class="vf-stavenote" id="vf-auto27371">
<g class="vf-note" pointer-events="bounding-box">
<g class="vf-notehead" pointer-events="bounding-box">
<path stroke-width="0.3" fill="#000000" stroke="none" stroke-dasharray="none" d="M390.2351192 197.99999999999997M397.5920792 192.77711999999997C397.7043992 192.77711999999997,397.8728792 192.77711999999997,397.9009592 192.77711999999997C397.9009592 192.77711999999997,397.9290392 192.77711999999997,397.9290392 192.77711999999997C397.9290392 192.77711999999997,398.09751919999997 192.77711999999997,398.23791919999996 192.77711999999997C400.76511919999996 192.91751999999997,402.2533592 194.57423999999997,402.2533592 196.65215999999998C402.2533592 197.66303999999997,401.9163992 198.81431999999998,401.0739992 199.90943999999996C399.4734392 202.07159999999996,396.8619992 203.25095999999996,394.5875192 203.25095999999996C392.8184792 203.25095999999996,391.3021592 202.54895999999997,390.57207919999996 201.11687999999998C390.3474392 200.55527999999998,390.2351192 200.02175999999997,390.2351192 199.43207999999998C390.2351192 196.37135999999998,393.6608792 192.97367999999997,397.5920792 192.77711999999997">
</path>
</g>
</g>
<g class="vf-modifiers">
</g>
</g>
<g class="vf-stavenote" id="vf-auto27381">
<g class="vf-note" pointer-events="bounding-box">
<g class="vf-notehead" pointer-events="bounding-box">
<path stroke-width="0.3" fill="#000000" stroke="none" stroke-dasharray="none" d="M447.1032768 197.99999999999997M454.4602368 192.77711999999997C454.57255680000003 192.77711999999997,454.7410368 192.77711999999997,454.7691168 192.77711999999997C454.7691168 192.77711999999997,454.7971968 192.77711999999997,454.7971968 192.77711999999997C454.7971968 192.77711999999997,454.9656768 192.77711999999997,455.1060768 192.77711999999997C457.6332768 192.91751999999997,459.1215168 194.57423999999997,459.1215168 196.65215999999998C459.1215168 197.66303999999997,458.7845568 198.81431999999998,457.9421568 199.90943999999996C456.3415968 202.07159999999996,453.73015680000003 203.25095999999996,451.4556768 203.25095999999996C449.68663680000003 203.25095999999996,448.1703168 202.54895999999997,447.4402368 201.11687999999998C447.2155968 200.55527999999998,447.1032768 200.02175999999997,447.1032768 199.43207999999998C447.1032768 196.37135999999998,450.52903680000003 192.97367999999997,454.4602368 192.77711999999997">
</path>
</g>
</g>
<g class="vf-modifiers">
<g class="vf-stavenote" id="vf-auto27391">
<g class="vf-note" pointer-events="bounding-box">
<g class="vf-stem" pointer-events="bounding-box">
<path stroke-width="1.5" fill="none" stroke="#000000" stroke-dasharray="none" d="M428.4212384 197.99999999999997L428.4212384 174.89999999999998">
</path>
</g>
<g class="vf-notehead" pointer-events="bounding-box">
<path stroke-width="0.3" fill="#000000" stroke="none" stroke-dasharray="none" d="M421.2392 197.99999999999997M426.0947936 194.55289919999998C426.16892479999996 194.55289919999998,426.2801216 194.55289919999998,426.2986544 194.55289919999998C426.2986544 194.55289919999998,426.3171872 194.55289919999998,426.3171872 194.55289919999998C426.3171872 194.55289919999998,426.428384 194.55289919999998,426.521048 194.55289919999998C428.18899999999996 194.64556319999997,429.1712384 195.73899839999996,429.1712384 197.11042559999999C429.1712384 197.77760639999997,428.94884479999996 198.53745119999996,428.3928608 199.26023039999998C427.33649119999995 200.68725599999996,425.6129408 201.46563359999996,424.111784 201.46563359999996C422.9442176 201.46563359999996,421.94344639999997 201.00231359999998,421.46159359999996 200.05714079999998C421.3133312 199.68648479999996,421.2392 199.33436159999997,421.2392 198.94517279999997C421.2392 196.92509759999996,423.50020159999997 194.68262879999997,426.0947936 194.55289919999998">
</path>
</g>
<g class="vf-flag" pointer-events="bounding-box">
<path stroke-width="0.3" fill="#000000" stroke="none" stroke-dasharray="none" d="M428.4212384 172.89999999999998M427.9764512 175.88378079999998L427.9764512 172.992664L428.0505824 172.992664C428.25444319999997 172.992664,428.3841728 173.12239359999998,428.4212384 173.34478719999998C428.8104272 175.19806719999997,429.9779936 177.21814239999998,431.5903472 178.73783199999997C433.3880288 180.42431679999999,434.296136 182.74091679999998,434.296136 185.13164799999998C434.296136 187.39264959999997,433.4992256 189.74631519999997,431.886872 191.69225919999997C431.60888 192.06291519999996,431.5903472 192.06291519999996,431.40501919999997 192.06291519999996C431.1826256 192.06291519999996,431.0343632 191.89611999999997,431.0343632 191.67372639999996C431.0343632 191.50693119999997,431.052896 191.4698656,431.238224 191.2660048C432.6467168 189.56098719999997,433.35096319999997 187.5038464,433.35096319999997 185.5393696C433.35096319999997 183.7972864,432.7949792 182.12933439999998,431.6459456 180.86910399999996C430.9416992 180.09072639999997,429.6444032 179.34941439999997,427.994984 178.77489759999997C427.994984 178.75636479999997,427.9764512 178.18184799999997,427.9764512 175.88378079999998">
</path>
</g>
</g>
<g class="vf-modifiers">
</g>
</g>
<path stroke-width="1" fill="none" stroke="#000000" stroke-dasharray="none" d="M422.2392 189.74999999999997L435.2392 180.74999999999997Z">
</path>
</g>
</g>
<g class="vf-stavenote" id="vf-auto27405">
<g class="vf-note" pointer-events="bounding-box">
<g class="vf-notehead" pointer-events="bounding-box">
<path stroke-width="0.3" fill="#000000" stroke="none" stroke-dasharray="none" d="M478.1073576 197.99999999999997M485.4643176 192.77711999999997C485.5766376 192.77711999999997,485.7451176 192.77711999999997,485.7731976 192.77711999999997C485.7731976 192.77711999999997,485.8012776 192.77711999999997,485.8012776 192.77711999999997C485.8012776 192.77711999999997,485.9697576 192.77711999999997,486.1101576 192.77711999999997C488.6373576 192.91751999999997,490.1255976 194.57423999999997,490.1255976 196.65215999999998C490.1255976 197.66303999999997,489.7886376 198.81431999999998,488.9462376 199.90943999999996C487.3456776 202.07159999999996,484.73423760000003 203.25095999999996,482.4597576 203.25095999999996C480.6907176 203.25095999999996,479.1743976 202.54895999999997,478.4443176 201.11687999999998C478.2196776 200.55527999999998,478.1073576 200.02175999999997,478.1073576 199.43207999999998C478.1073576 196.37135999999998,481.5331176 192.97367999999997,485.4643176 192.77711999999997">
</path>
</g>
</g>
<g class="vf-modifiers">
</g>
</g>
<g class="vf-stavenote" id="vf-auto27415">
<g class="vf-note" pointer-events="bounding-box">
<g class="vf-notehead" pointer-events="bounding-box">
<path stroke-width="0.3" fill="#000000" stroke="none" stroke-dasharray="none" d="M509.1114384 197.99999999999997M516.4683984 192.77711999999997C516.5807184 192.77711999999997,516.7491984 192.77711999999997,516.7772784 192.77711999999997C516.7772784 192.77711999999997,516.8053584 192.77711999999997,516.8053584 192.77711999999997C516.8053584 192.77711999999997,516.9738384 192.77711999999997,517.1142384 192.77711999999997C519.6414384 192.91751999999997,521.1296784 194.57423999999997,521.1296784 196.65215999999998C521.1296784 197.66303999999997,520.7927184 198.81431999999998,519.9503184 199.90943999999996C518.3497584 202.07159999999996,515.7383184 203.25095999999996,513.4638384 203.25095999999996C511.6947984 203.25095999999996,510.1784784 202.54895999999997,509.4483984 201.11687999999998C509.2237584 200.55527999999998,509.1114384 200.02175999999997,509.1114384 199.43207999999998C509.1114384 196.37135999999998,512.5371984 192.97367999999997,516.4683984 192.77711999999997">
</path>
</g>
</g>
<g class="vf-modifiers">
</g>
</g>
<g class="vf-stavenote" id="vf-auto27425">
<g class="vf-note" pointer-events="bounding-box">
<g class="vf-notehead" pointer-events="bounding-box">
<path stroke-width="0.3" fill="#000000" stroke="none" stroke-dasharray="none" d="M540.1155192 197.99999999999997M547.4724792 192.77711999999997C547.5847992 192.77711999999997,547.7532792 192.77711999999997,547.7813592 192.77711999999997C547.7813592 192.77711999999997,547.8094392 192.77711999999997,547.8094392 192.77711999999997C547.8094392 192.77711999999997,547.9779192 192.77711999999997,548.1183192 192.77711999999997C550.6455192 192.91751999999997,552.1337592 194.57423999999997,552.1337592 196.65215999999998C552.1337592 197.66303999999997,551.7967992 198.81431999999998,550.9543992 199.90943999999996C549.3538392 202.07159999999996,546.7423992 203.25095999999996,544.4679192 203.25095999999996C542.6988792 203.25095999999996,541.1825592 202.54895999999997,540.4524792 201.11687999999998C540.2278392 200.55527999999998,540.1155192 200.02175999999997,540.1155192 199.43207999999998C540.1155192 196.37135999999998,543.5412792 192.97367999999997,547.4724792 192.77711999999997">
</path>
</g>
</g>
<g class="vf-modifiers">
</g>
</g>
<g class="vf-stavenote" id="vf-auto27435">
<g class="vf-note" pointer-events="bounding-box">
<g class="vf-notehead" pointer-events="bounding-box">
<path stroke-width="0.3" fill="#000000" stroke="none" stroke-dasharray="none" d="M596.9836768 197.99999999999997M604.3406368 192.77711999999997C604.4529568 192.77711999999997,604.6214368 192.77711999999997,604.6495168 192.77711999999997C604.6495168 192.77711999999997,604.6775968000001 192.77711999999997,604.6775968000001 192.77711999999997C604.6775968000001 192.77711999999997,604.8460768 192.77711999999997,604.9864768 192.77711999999997C607.5136768 192.91751999999997,609.0019168 194.57423999999997,609.0019168 196.65215999999998C609.0019168 197.66303999999997,608.6649568 198.81431999999998,607.8225568 199.90943999999996C606.2219968 202.07159999999996,603.6105568 203.25095999999996,601.3360768 203.25095999999996C599.5670368 203.25095999999996,598.0507168 202.54895999999997,597.3206368 201.11687999999998C597.0959968 200.55527999999998,596.9836768 200.02175999999997,596.9836768 199.43207999999998C596.9836768 196.37135999999998,600.4094368 192.97367999999997,604.3406368 192.77711999999997">
</path>
</g>
</g>
<g class="vf-modifiers">
<g class="vf-stavenote" id="vf-auto27445">
<g class="vf-note" pointer-events="bounding-box">
<g class="vf-stem" pointer-events="bounding-box">
<path stroke-width="1.5" fill="none" stroke="#000000" stroke-dasharray="none" d="M578.3016384 197.99999999999997L578.3016384 174.89999999999998">
</path>
</g>
<g class="vf-notehead" pointer-events="bounding-box">
<path stroke-width="0.3" fill="#000000" stroke="none" stroke-dasharray="none" d="M571.1196 197.99999999999997M575.9751936 194.55289919999998C576.0493248 194.55289919999998,576.1605216 194.55289919999998,576.1790544 194.55289919999998C576.1790544 194.55289919999998,576.1975872 194.55289919999998,576.1975872 194.55289919999998C576.1975872 194.55289919999998,576.308784 194.55289919999998,576.401448 194.55289919999998C578.0694 194.64556319999997,579.0516384 195.73899839999996,579.0516384 197.11042559999999C579.0516384 197.77760639999997,578.8292448 198.53745119999996,578.2732608 199.26023039999998C577.2168912 200.68725599999996,575.4933407999999 201.46563359999996,573.992184 201.46563359999996C572.8246176 201.46563359999996,571.8238464 201.00231359999998,571.3419936 200.05714079999998C571.1937312 199.68648479999996,571.1196 199.33436159999997,571.1196 198.94517279999997C571.1196 196.92509759999996,573.3806016 194.68262879999997,575.9751936 194.55289919999998">
</path>
</g>
<g class="vf-flag" pointer-events="bounding-box">
<path stroke-width="0.3" fill="#000000" stroke="none" stroke-dasharray="none" d="M578.3016384 172.89999999999998M577.8568512 175.88378079999998L577.8568512 172.992664L577.9309824 172.992664C578.1348432 172.992664,578.2645728 173.12239359999998,578.3016384 173.34478719999998C578.6908272000001 175.19806719999997,579.8583936 177.21814239999998,581.4707472 178.73783199999997C583.2684288 180.42431679999999,584.176536 182.74091679999998,584.176536 185.13164799999998C584.176536 187.39264959999997,583.3796256 189.74631519999997,581.767272 191.69225919999997C581.48928 192.06291519999996,581.4707472 192.06291519999996,581.2854192 192.06291519999996C581.0630256 192.06291519999996,580.9147632 191.89611999999997,580.9147632 191.67372639999996C580.9147632 191.50693119999997,580.933296 191.4698656,581.118624 191.2660048C582.5271168 189.56098719999997,583.2313632 187.5038464,583.2313632 185.5393696C583.2313632 183.7972864,582.6753792 182.12933439999998,581.5263456 180.86910399999996C580.8220992 180.09072639999997,579.5248032 179.34941439999997,577.875384 178.77489759999997C577.875384 178.75636479999997,577.8568512 178.18184799999997,577.8568512 175.88378079999998">
</path>
</g>
</g>
<g class="vf-modifiers">
</g>
</g>
<path stroke-width="1" fill="none" stroke="#000000" stroke-dasharray="none" d="M572.1196 189.74999999999997L585.1196 180.74999999999997Z">
</path>
</g>
</g>
<g class="vf-stavenote" id="vf-auto27459">
<g class="vf-note" pointer-events="bounding-box">
<g class="vf-notehead" pointer-events="bounding-box">
<path stroke-width="0.3" fill="#000000" stroke="none" stroke-dasharray="none" d="M627.9877576 197.99999999999997M635.3447176 192.77711999999997C635.4570376 192.77711999999997,635.6255176 192.77711999999997,635.6535976 192.77711999999997C635.6535976 192.77711999999997,635.6816776000001 192.77711999999997,635.6816776000001 192.77711999999997C635.6816776000001 192.77711999999997,635.8501576 192.77711999999997,635.9905576 192.77711999999997C638.5177576 192.91751999999997,640.0059976 194.57423999999997,640.0059976 196.65215999999998C640.0059976 197.66303999999997,639.6690376 198.81431999999998,638.8266376 199.90943999999996C637.2260776 202.07159999999996,634.6146376 203.25095999999996,632.3401576 203.25095999999996C630.5711176 203.25095999999996,629.0547976 202.54895999999997,628.3247176 201.11687999999998C628.1000776 200.55527999999998,627.9877576 200.02175999999997,627.9877576 199.43207999999998C627.9877576 196.37135999999998,631.4135176 192.97367999999997,635.3447176 192.77711999999997">
</path>
</g>
</g>
<g class="vf-modifiers">
</g>
</g>
<g class="vf-stavenote" id="vf-auto27469">
<g class="vf-note" pointer-events="bounding-box">
<g class="vf-notehead" pointer-events="bounding-box">
<path stroke-width="0.3" fill="#000000" stroke="none" stroke-dasharray="none" d="M658.9918384 197.99999999999997M666.3487984 192.77711999999997C666.4611184 192.77711999999997,666.6295984 192.77711999999997,666.6576784 192.77711999999997C666.6576784 192.77711999999997,666.6857584 192.77711999999997,666.6857584 192.77711999999997C666.6857584 192.77711999999997,666.8542384 192.77711999999997,666.9946384 192.77711999999997C669.5218384 192.91751999999997,671.0100784 194.57423999999997,671.0100784 196.65215999999998C671.0100784 197.66303999999997,670.6731184 198.81431999999998,669.8307184 199.90943999999996C668.2301584 202.07159999999996,665.6187184 203.25095999999996,663.3442384 203.25095999999996C661.5751984 203.25095999999996,660.0588784 202.54895999999997,659.3287984 201.11687999999998C659.1041584 200.55527999999998,658.9918384 200.02175999999997,658.9918384 199.43207999999998C658.9918384 196.37135999999998,662.4175984 192.97367999999997,666.3487984 192.77711999999997">
</path>
</g>
</g>
<g class="vf-modifiers">
</g>
</g>
<g class="vf-stavenote" id="vf-auto27479">
<g class="vf-note" pointer-events="bounding-box">
<g class="vf-notehead" pointer-events="bounding-box">
<path stroke-width="0.3" fill="#000000" stroke="none" stroke-dasharray="none" d="M689.9959192 197.99999999999997M697.3528792 192.77711999999997C697.4651992 192.77711999999997,697.6336792 192.77711999999997,697.6617592 192.77711999999997C697.6617592 192.77711999999997,697.6898392 192.77711999999997,697.6898392 192.77711999999997C697.6898392 192.77711999999997,697.8583192 192.77711999999997,697.9987192 192.77711999999997C700.5259192 192.91751999999997,702.0141592 194.57423999999997,702.0141592 196.65215999999998C702.0141592 197.66303999999997,701.6771992 198.81431999999998,700.8347992 199.90943999999996C699.2342392 202.07159999999996,696.6227992 203.25095999999996,694.3483192 203.25095999999996C692.5792792 203.25095999999996,691.0629592 202.54895999999997,690.3328792 201.11687999999998C690.1082392 200.55527999999998,689.9959192 200.02175999999997,689.9959192 199.43207999999998C689.9959192 196.37135999999998,693.4216792 192.97367999999997,697.3528792 192.77711999999997">
</path>
</g>
</g>
<g class="vf-modifiers">
</g>
</g>
<path stroke-width="1.5" fill="none" stroke="#000000" stroke-dasharray="none" d="M158.61071679999998 197.99999999999997L158.61071679999998 163.74999999999997">
</path>
<path stroke-width="1.5" fill="none" stroke="#000000" stroke-dasharray="none" d="M189.61479759999997 197.99999999999997L189.61479759999997 163.74999999999997">
</path>
<path stroke-width="1.5" fill="none" stroke="#000000" stroke-dasharray="none" d="M220.6188784 197.99999999999997L220.6188784 163.74999999999997">
</path>
<path stroke-width="1.5" fill="none" stroke="#000000" stroke-dasharray="none" d="M251.62295920000003 197.99999999999997L251.62295920000003 163.74999999999997">
</path>
<path stroke-width="0.3" fill="#000000" stroke="none" stroke-dasharray="none" d="M157.86071679999998 162.99999999999997L157.86071679999998 167.99999999999997L251.87295920000003 167.99999999999997L251.87295920000003 162.99999999999997Z">
</path>
<path stroke-width="0.3" fill="#000000" stroke="none" stroke-dasharray="none" d="M157.86071679999998 170.49999999999997L157.86071679999998 175.49999999999997L251.87295920000003 175.49999999999997L251.87295920000003 170.49999999999997Z">
</path>
<path stroke-width="1.5" fill="none" stroke="#000000" stroke-dasharray="none" d="M308.4911168 197.99999999999997L308.4911168 163.74999999999997">
</path>
<path stroke-width="1.5" fill="none" stroke="#000000" stroke-dasharray="none" d="M339.4951976 197.99999999999997L339.4951976 163.74999999999997">
</path>
<path stroke-width="1.5" fill="none" stroke="#000000" stroke-dasharray="none" d="M370.4992784 197.99999999999997L370.4992784 163.74999999999997">
</path>
<path stroke-width="1.5" fill="none" stroke="#000000" stroke-dasharray="none" d="M401.5033592 197.99999999999997L401.5033592 163.74999999999997">
</path>
<path stroke-width="0.3" fill="#000000" stroke="none" stroke-dasharray="none" d="M307.7411168 162.99999999999997L307.7411168 167.99999999999997L401.7533592 167.99999999999997L401.7533592 162.99999999999997Z">
</path>
<path stroke-width="0.3" fill="#000000" stroke="none" stroke-dasharray="none" d="M307.7411168 170.49999999999997L307.7411168 175.49999999999997L401.7533592 175.49999999999997L401.7533592 170.49999999999997Z">
</path>
<path stroke-width="1.5" fill="none" stroke="#000000" stroke-dasharray="none" d="M458.3715168 197.99999999999997L458.3715168 163.74999999999997">
</path>
<path stroke-width="1.5" fill="none" stroke="#000000" stroke-dasharray="none" d="M489.3755976 197.99999999999997L489.3755976 163.74999999999997">
</path>
<path stroke-width="1.5" fill="none" stroke="#000000" stroke-dasharray="none" d="M520.3796784 197.99999999999997L520.3796784 163.74999999999997">
</path>
<path stroke-width="1.5" fill="none" stroke="#000000" stroke-dasharray="none" d="M551.3837592 197.99999999999997L551.3837592 163.74999999999997">
</path>
<path stroke-width="0.3" fill="#000000" stroke="none" stroke-dasharray="none" d="M457.6215168 162.99999999999997L457.6215168 167.99999999999997L551.6337592 167.99999999999997L551.6337592 162.99999999999997Z">
</path>
<path stroke-width="0.3" fill="#000000" stroke="none" stroke-dasharray="none" d="M457.6215168 170.49999999999997L457.6215168 175.49999999999997L551.6337592 175.49999999999997L551.6337592 170.49999999999997Z">
</path>
<path stroke-width="1.5" fill="none" stroke="#000000" stroke-dasharray="none" d="M608.2519168 197.99999999999997L608.2519168 163.74999999999997">
</path>
<path stroke-width="1.5" fill="none" stroke="#000000" stroke-dasharray="none" d="M639.2559976 197.99999999999997L639.2559976 163.74999999999997">
</path>
<path stroke-width="1.5" fill="none" stroke="#000000" stroke-dasharray="none" d="M670.2600784 197.99999999999997L670.2600784 163.74999999999997">
</path>
<path stroke-width="1.5" fill="none" stroke="#000000" stroke-dasharray="none" d="M701.2641592 197.99999999999997L701.2641592 163.74999999999997">
</path>
<path stroke-width="0.3" fill="#000000" stroke="none" stroke-dasharray="none" d="M607.5019168 162.99999999999997L607.5019168 167.99999999999997L701.5141592 167.99999999999997L701.5141592 162.99999999999997Z">
</path>
<path stroke-width="0.3" fill="#000000" stroke="none" stroke-dasharray="none" d="M607.5019168 170.49999999999997L607.5019168 175.49999999999997L701.5141592 175.49999999999997L701.5141592 170.49999999999997Z">
</path>
<path stroke-width="1" fill="none" stroke="black" stroke-dasharray="none" d="M719.3586951679998 197.99999999999997L1044.7438315519998 197.99999999999997">
</path>
<rect stroke-width="0.3" fill="black" stroke="black" stroke-dasharray="none" x="1039.7438315519998" y="177.49999999999997" width="1" height="41">
</rect>
<rect stroke-width="0.3" fill="black" stroke="black" stroke-dasharray="none" x="1042.7438315519998" y="177.49999999999997" width="3" height="41">
</rect>
<path stroke-width="0.3" fill="black" stroke="none" stroke-dasharray="none" d="M1038.7438315519998 193.49999999999997 A2 2 0 0 0 1034.7438315519998 193.49999999999997M1034.7438315519998 193.49999999999997 A2 2 0 0 0 1038.7438315519998 193.49999999999997">
</path>
<path stroke-width="0.3" fill="black" stroke="none" stroke-dasharray="none" d="M1038.7438315519998 203.49999999999997 A2 2 0 0 0 1034.7438315519998 203.49999999999997M1034.7438315519998 203.49999999999997 A2 2 0 0 0 1038.7438315519998 203.49999999999997">
</path>
<path stroke-width="0.3" fill="black" stroke="none" stroke-dasharray="none" d="M724.4882951679998 197.99999999999997M730.1618951679998 179.33759999999998C730.2770951679998 179.33759999999998,730.4786951679998 179.33759999999998,730.7090951679999 179.33759999999998C731.1698951679998 179.33759999999998,731.7746951679998 179.33759999999998,731.9186951679998 179.39519999999996C734.0786951679999 179.65439999999998,735.8066951679998 180.74879999999996,736.5554951679998 182.27519999999998C736.8146951679998 182.79359999999997,736.9298951679998 183.34079999999997,736.9298951679998 183.91679999999997C736.9298951679998 185.32799999999997,736.1522951679998 186.94079999999997,734.7410951679998 188.15039999999996C733.7618951679998 188.98559999999998,732.7826951679998 189.50399999999996,731.2562951679998 189.99359999999996C729.2690951679998 190.62719999999996,727.5698951679998 191.75039999999998,726.4754951679998 193.10399999999998C726.4754951679998 193.10399999999998,726.4754951679998 193.13279999999997,726.4754951679998 193.13279999999997C726.4754951679998 193.13279999999997,726.4754951679998 193.13279999999997,726.4754951679998 193.13279999999997C726.4754951679998 193.13279999999997,726.5618951679999 193.10399999999998,726.6194951679998 193.01759999999996C727.7138951679998 192.12479999999996,729.1826951679998 191.60639999999998,730.5074951679998 191.60639999999998C731.6018951679998 191.60639999999998,732.3794951679998 191.80799999999996,733.4162951679998 192.38399999999996C734.0498951679998 192.70079999999996,734.6258951679998 192.84479999999996,735.1730951679998 192.84479999999996C735.4034951679998 192.84479999999996,735.6338951679998 192.84479999999996,735.8930951679998 192.78719999999998C736.2674951679998 192.70079999999996,736.6706951679998 192.41279999999998,736.8146951679998 192.18239999999997C736.9010951679998 191.98079999999996,737.0450951679998 191.89439999999996,737.2178951679998 191.89439999999996C737.4482951679998 191.89439999999996,737.6786951679998 192.06719999999999,737.6786951679998 192.32639999999998C737.6786951679998 192.52799999999996,737.4194951679998 193.24799999999996,737.1890951679998 193.7376C736.2674951679998 195.58079999999998,734.6546951679998 196.73279999999997,733.0994951679999 196.73279999999997C732.9842951679998 196.73279999999997,732.8978951679998 196.73279999999997,732.7826951679998 196.70399999999998C732.3794951679998 196.70399999999998,732.2066951679998 196.58879999999996,731.6882951679999 196.24319999999997C730.5938951679998 195.52319999999997,729.2114951679998 195.14879999999997,728.0018951679998 195.14879999999997C727.4834951679998 195.14879999999997,727.0226951679998 195.20639999999997,726.5906951679998 195.37919999999997C726.0146951679998 195.58079999999998,725.4674951679998 195.92639999999997,725.2946951679999 196.18559999999997C725.2082951679998 196.38719999999998,725.0642951679998 196.44479999999996,724.8914951679998 196.44479999999996C724.7474951679998 196.44479999999996,724.6034951679998 196.38719999999998,724.5170951679999 196.21439999999998L724.4594951679998 196.128L724.4594951679998 195.72479999999996C724.4594951679998 195.37919999999997,724.4882951679998 195.26399999999998,724.4882951679998 195.14879999999997C724.5170951679999 195.06239999999997,724.5458951679998 194.88959999999997,724.5458951679998 194.74559999999997C725.0642951679998 192.32639999999998,726.8210951679998 190.16639999999998,729.2114951679998 189.10079999999996C731.1698951679998 188.17919999999998,732.4658951679999 186.53759999999997,732.6962951679998 184.46399999999997C732.7538951679998 184.29119999999998,732.7538951679998 184.14719999999997,732.7538951679998 183.97439999999997C732.7538951679998 182.13119999999998,731.3714951679998 180.86399999999998,729.4130951679998 180.86399999999998C729.2690951679998 180.86399999999998,729.0962951679998 180.86399999999998,728.9522951679999 180.86399999999998C728.6642951679999 180.89279999999997,728.5778951679998 180.89279999999997,728.5778951679998 180.95039999999997C728.5778951679998 180.95039999999997,728.5778951679998 180.97919999999996,728.6642951679999 181.03679999999997C729.3266951679998 181.41119999999998,729.6434951679998 182.13119999999998,729.6434951679998 182.82239999999996C729.6434951679998 183.71519999999998,729.1826951679998 184.55039999999997,728.2898951679998 184.89599999999996C728.0018951679998 184.98239999999998,727.7138951679998 185.01119999999997,727.4834951679998 185.01119999999997C726.2738951679999 185.01119999999997,725.2658951679998 183.97439999999997,725.2658951679998 182.73599999999996C725.2658951679998 182.50559999999996,725.2658951679998 182.27519999999998,725.3234951679998 182.01599999999996C725.7554951679998 180.69119999999998,727.8002951679998 179.59679999999997,730.1618951679998 179.33759999999998M731.0546951679999 198.02879999999996L731.1122951679998 198.02879999999996L731.0258951679998 198.02879999999996L731.0546951679999 198.02879999999996M731.0546951679999 178.61759999999998L731.1122951679998 178.61759999999998L731.0258951679998 178.61759999999998L731.0546951679999 178.61759999999998">
</path>
<path stroke-width="0.3" fill="black" stroke="none" stroke-dasharray="none" d="M724.3586951679998 217.99999999999997M729.3698951679999 199.65439999999998C729.3986951679998 199.62559999999996,729.8018951679999 199.62559999999996,731.0402951679998 199.62559999999996C731.4146951679999 199.62559999999996,731.8178951679998 199.62559999999996,732.3362951679999 199.62559999999996L735.2450951679998 199.62559999999996L735.3314951679998 199.71199999999996C735.4754951679998 199.79839999999996,735.5618951679999 199.94239999999996,735.5618951679999 200.05759999999998C735.5618951679999 200.23039999999997,735.4754951679998 200.34559999999996,735.3602951679999 200.46079999999998C735.3314951679998 200.54719999999998,735.0722951679999 200.77759999999998,734.8994951679998 201.03679999999997L733.3730951679998 202.79359999999997L731.4146951679999 205.01119999999997L730.3778951679998 206.19199999999998L728.8226951679999 207.97759999999997L726.7778951679999 210.31039999999996C726.4322951679999 210.74239999999998,726.0578951679998 211.08799999999997,726.0578951679998 211.08799999999997C726.0578951679998 211.08799999999997,726.0578951679998 211.08799999999997,726.0578951679998 211.08799999999997C726.0578951679998 211.14559999999997,726.3170951679998 211.14559999999997,728.7074951679998 211.14559999999997L731.3282951679998 211.14559999999997L731.3282951679998 209.27359999999996C731.3282951679998 207.37279999999998,731.3282951679998 207.34399999999997,731.3570951679998 207.31519999999998C731.4146951679999 207.22879999999998,731.6738951679998 206.91199999999998,732.6818951679999 205.73119999999997L733.0850951679998 205.29919999999998L733.4882951679998 204.86719999999997L734.0930951679999 204.08959999999996L734.7266951679999 203.42719999999997L735.0434951679998 203.02399999999997C735.1586951679998 202.85119999999998,735.3314951679998 202.82239999999996,735.4754951679998 202.82239999999996C735.6482951679998 202.82239999999996,735.7922951679998 202.90879999999999,735.8786951679998 203.05279999999996C735.9074951679999 203.13919999999996,735.9074951679999 203.19679999999997,735.9074951679999 205.32799999999997C735.9074951679999 205.81759999999997,735.9074951679999 206.42239999999998,735.9074951679999 207.14239999999998L735.9074951679999 211.14559999999997L736.6274951679998 211.14559999999997C737.2898951679998 211.14559999999997,737.3186951679999 211.14559999999997,737.4050951679998 211.17439999999996C737.6354951679998 211.26079999999996,737.7506951679999 211.49119999999996,737.7506951679999 211.75039999999998C737.7506951679999 211.89439999999996,737.7218951679998 212.06719999999999,737.6066951679999 212.18239999999997C737.4338951679998 212.32639999999998,737.4050951679998 212.32639999999998,736.6274951679998 212.32639999999998L735.9074951679999 212.32639999999998L735.9074951679999 212.81599999999997C735.9362951679998 214.28479999999996,736.2242951679998 214.86079999999998,737.3474951679998 215.46559999999997C737.7506951679999 215.66719999999998,737.8370951679998 215.72479999999996,737.8370951679998 216.01279999999997C737.8370951679998 216.21439999999998,737.7794951679998 216.30079999999998,737.6354951679998 216.41599999999997L737.5490951679998 216.44479999999996L733.6034951679999 216.44479999999996L729.6866951679998 216.44479999999996L729.6002951679998 216.41599999999997C729.4274951679998 216.30079999999998,729.3986951679998 216.21439999999998,729.3986951679998 216.01279999999997C729.3986951679998 215.72479999999996,729.4274951679998 215.66719999999998,729.8594951679999 215.46559999999997C730.9826951679999 214.86079999999998,731.2706951679999 214.28479999999996,731.2706951679999 212.81599999999997L731.2706951679999 212.32639999999998L727.9586951679998 212.32639999999998C727.3538951679998 212.38399999999996,726.8642951679998 212.38399999999996,726.4610951679998 212.38399999999996C724.6466951679998 212.38399999999996,724.6178951679998 212.32639999999998,724.5890951679999 212.32639999999998C724.4162951679998 212.26879999999997,724.3586951679998 212.09599999999998,724.3586951679998 211.89439999999996C724.3586951679998 211.89439999999996,724.3586951679998 211.89439999999996,724.3586951679998 211.89439999999996C724.3586951679998 211.69279999999998,724.3586951679998 211.69279999999998,724.9346951679998 211.0304C727.3538951679998 208.09279999999998,729.0530951679998 203.83039999999997,729.0530951679998 200.43199999999996C729.0530951679998 199.91359999999997,729.1394951679998 199.74079999999998,729.3698951679999 199.65439999999998M731.0978951679998 218.02879999999996L731.1266951679999 218.02879999999996L731.0402951679998 218.02879999999996L731.0978951679998 218.02879999999996M731.0978951679998 198.61759999999998L731.1266951679999 198.61759999999998L731.0402951679998 198.61759999999998L731.0978951679998 198.61759999999998">
</path>
<g class="vf-stavenote" id="vf-auto27494">
<g class="vf-note" pointer-events="bounding-box">
<g class="vf-notehead" pointer-events="bounding-box">
<path stroke-width="0.3" fill="#000000" stroke="none" stroke-dasharray="none" d="M775.7011719679998 197.99999999999997M783.0581319679998 192.77711999999997C783.1704519679998 192.77711999999997,783.3389319679998 192.77711999999997,783.3670119679998 192.77711999999997C783.3670119679998 192.77711999999997,783.3950919679999 192.77711999999997,783.3950919679999 192.77711999999997C783.3950919679999 192.77711999999997,783.5635719679998 192.77711999999997,783.7039719679998 192.77711999999997C786.2311719679998 192.91751999999997,787.7194119679998 194.57423999999997,787.7194119679998 196.65215999999998C787.7194119679998 197.66303999999997,787.3824519679998 198.81431999999998,786.5400519679998 199.90943999999996C784.9394919679999 202.07159999999996,782.3280519679998 203.25095999999996,780.0535719679998 203.25095999999996C778.2845319679998 203.25095999999996,776.7682119679998 202.54895999999997,776.0381319679998 201.11687999999998C775.8134919679998 200.55527999999998,775.7011719679998 200.02175999999997,775.7011719679998 199.43207999999998C775.7011719679998 196.37135999999998,779.1269319679998 192.97367999999997,783.0581319679998 192.77711999999997">
</path>
</g>
</g>
<g class="vf-modifiers">
<g class="vf-stavenote" id="vf-auto27504">
<g class="vf-note" pointer-events="bounding-box">
<g class="vf-stem" pointer-events="bounding-box">
<path stroke-width="1.5" fill="none" stroke="#000000" stroke-dasharray="none" d="M757.0191335679998 197.99999999999997L757.0191335679998 174.89999999999998">
</path>
</g>
<g class="vf-notehead" pointer-events="bounding-box">
<path stroke-width="0.3" fill="#000000" stroke="none" stroke-dasharray="none" d="M749.8370951679998 197.99999999999997M754.6926887679998 194.55289919999998C754.7668199679998 194.55289919999998,754.8780167679998 194.55289919999998,754.8965495679998 194.55289919999998C754.8965495679998 194.55289919999998,754.9150823679998 194.55289919999998,754.9150823679998 194.55289919999998C754.9150823679998 194.55289919999998,755.0262791679997 194.55289919999998,755.1189431679998 194.55289919999998C756.7868951679998 194.64556319999997,757.7691335679998 195.73899839999996,757.7691335679998 197.11042559999999C757.7691335679998 197.77760639999997,757.5467399679998 198.53745119999996,756.9907559679998 199.26023039999998C755.9343863679998 200.68725599999996,754.2108359679997 201.46563359999996,752.7096791679998 201.46563359999996C751.5421127679998 201.46563359999996,750.5413415679998 201.00231359999998,750.0594887679998 200.05714079999998C749.9112263679998 199.68648479999996,749.8370951679998 199.33436159999997,749.8370951679998 198.94517279999997C749.8370951679998 196.92509759999996,752.0980967679998 194.68262879999997,754.6926887679998 194.55289919999998">
</path>
</g>
<g class="vf-flag" pointer-events="bounding-box">
<path stroke-width="0.3" fill="#000000" stroke="none" stroke-dasharray="none" d="M757.0191335679998 172.89999999999998M756.5743463679999 175.88378079999998L756.5743463679999 172.992664L756.6484775679997 172.992664C756.8523383679998 172.992664,756.9820679679998 173.12239359999998,757.0191335679998 173.34478719999998C757.4083223679999 175.19806719999997,758.5758887679998 177.21814239999998,760.1882423679998 178.73783199999997C761.9859239679998 180.42431679999999,762.8940311679999 182.74091679999998,762.8940311679999 185.13164799999998C762.8940311679999 187.39264959999997,762.0971207679999 189.74631519999997,760.4847671679998 191.69225919999997C760.2067751679998 192.06291519999996,760.1882423679998 192.06291519999996,760.0029143679998 192.06291519999996C759.7805207679997 192.06291519999996,759.6322583679998 191.89611999999997,759.6322583679998 191.67372639999996C759.6322583679998 191.50693119999997,759.6507911679998 191.4698656,759.8361191679998 191.2660048C761.2446119679998 189.56098719999997,761.9488583679998 187.5038464,761.9488583679998 185.5393696C761.9488583679998 183.7972864,761.3928743679998 182.12933439999998,760.2438407679998 180.86910399999996C759.5395943679998 180.09072639999997,758.2422983679998 179.34941439999997,756.5928791679999 178.77489759999997C756.5928791679999 178.75636479999997,756.5743463679999 178.18184799999997,756.5743463679999 175.88378079999998">
</path>
</g>
</g>
<g class="vf-modifiers">
</g>
</g>
<path stroke-width="1" fill="none" stroke="#000000" stroke-dasharray="none" d="M750.8370951679998 189.74999999999997L763.8370951679998 180.74999999999997Z">
</path>
</g>
</g>
<g class="vf-stavenote" id="vf-auto27518">
<g class="vf-note" pointer-events="bounding-box">
<g class="vf-notehead" pointer-events="bounding-box">
<path stroke-width="0.3" fill="#000000" stroke="none" stroke-dasharray="none" d="M827.8904135679998 197.99999999999997M835.2473735679997 192.77711999999997C835.3596935679998 192.77711999999997,835.5281735679997 192.77711999999997,835.5562535679998 192.77711999999997C835.5562535679998 192.77711999999997,835.5843335679998 192.77711999999997,835.5843335679998 192.77711999999997C835.5843335679998 192.77711999999997,835.7528135679997 192.77711999999997,835.8932135679997 192.77711999999997C838.4204135679997 192.91751999999997,839.9086535679997 194.57423999999997,839.9086535679997 196.65215999999998C839.9086535679997 197.66303999999997,839.5716935679998 198.81431999999998,838.7292935679998 199.90943999999996C837.1287335679998 202.07159999999996,834.5172935679998 203.25095999999996,832.2428135679997 203.25095999999996C830.4737735679997 203.25095999999996,828.9574535679998 202.54895999999997,828.2273735679997 201.11687999999998C828.0027335679997 200.55527999999998,827.8904135679998 200.02175999999997,827.8904135679998 199.43207999999998C827.8904135679998 196.37135999999998,831.3161735679997 192.97367999999997,835.2473735679997 192.77711999999997">
</path>
</g>
</g>
<g class="vf-modifiers">
</g>
</g>
<g class="vf-stavenote" id="vf-auto27528">
<g class="vf-note" pointer-events="bounding-box">
<g class="vf-notehead" pointer-events="bounding-box">
<path stroke-width="0.3" fill="#000000" stroke="none" stroke-dasharray="none" d="M862.9941543679997 197.99999999999997M870.3511143679997 192.77711999999997C870.4634343679998 192.77711999999997,870.6319143679997 192.77711999999997,870.6599943679997 192.77711999999997C870.6599943679997 192.77711999999997,870.6880743679998 192.77711999999997,870.6880743679998 192.77711999999997C870.6880743679998 192.77711999999997,870.8565543679997 192.77711999999997,870.9969543679997 192.77711999999997C873.5241543679997 192.91751999999997,875.0123943679997 194.57423999999997,875.0123943679997 196.65215999999998C875.0123943679997 197.66303999999997,874.6754343679997 198.81431999999998,873.8330343679997 199.90943999999996C872.2324743679998 202.07159999999996,869.6210343679998 203.25095999999996,867.3465543679997 203.25095999999996C865.5775143679997 203.25095999999996,864.0611943679997 202.54895999999997,863.3311143679997 201.11687999999998C863.1064743679997 200.55527999999998,862.9941543679997 200.02175999999997,862.9941543679997 199.43207999999998C862.9941543679997 196.37135999999998,866.4199143679997 192.97367999999997,870.3511143679997 192.77711999999997">
</path>
</g>
</g>
<g class="vf-modifiers">
</g>
</g>
<g class="vf-stavenote" id="vf-auto27538">
<g class="vf-note" pointer-events="bounding-box">
<g class="vf-notehead" pointer-events="bounding-box">
<path stroke-width="0.3" fill="#000000" stroke="none" stroke-dasharray="none" d="M923.9619719679997 197.99999999999997M931.3189319679997 192.77711999999997C931.4312519679997 192.77711999999997,931.5997319679997 192.77711999999997,931.6278119679997 192.77711999999997C931.6278119679997 192.77711999999997,931.6558919679998 192.77711999999997,931.6558919679998 192.77711999999997C931.6558919679998 192.77711999999997,931.8243719679997 192.77711999999997,931.9647719679997 192.77711999999997C934.4919719679997 192.91751999999997,935.9802119679997 194.57423999999997,935.9802119679997 196.65215999999998C935.9802119679997 197.66303999999997,935.6432519679997 198.81431999999998,934.8008519679997 199.90943999999996C933.2002919679998 202.07159999999996,930.5888519679997 203.25095999999996,928.3143719679997 203.25095999999996C926.5453319679997 203.25095999999996,925.0290119679997 202.54895999999997,924.2989319679997 201.11687999999998C924.0742919679997 200.55527999999998,923.9619719679997 200.02175999999997,923.9619719679997 199.43207999999998C923.9619719679997 196.37135999999998,927.3877319679997 192.97367999999997,931.3189319679997 192.77711999999997">
</path>
</g>
</g>
<g class="vf-modifiers">
<g class="vf-stavenote" id="vf-auto27548">
<g class="vf-note" pointer-events="bounding-box">
<g class="vf-stem" pointer-events="bounding-box">
<path stroke-width="1.5" fill="none" stroke="#000000" stroke-dasharray="none" d="M905.2799335679998 197.99999999999997L905.2799335679998 174.89999999999998">
</path>
</g>
<g class="vf-notehead" pointer-events="bounding-box">
<path stroke-width="0.3" fill="#000000" stroke="none" stroke-dasharray="none" d="M898.0978951679998 197.99999999999997M902.9534887679998 194.55289919999998C903.0276199679998 194.55289919999998,903.1388167679999 194.55289919999998,903.1573495679999 194.55289919999998C903.1573495679999 194.55289919999998,903.1758823679999 194.55289919999998,903.1758823679999 194.55289919999998C903.1758823679999 194.55289919999998,903.2870791679998 194.55289919999998,903.3797431679998 194.55289919999998C905.0476951679998 194.64556319999997,906.0299335679998 195.73899839999996,906.0299335679998 197.11042559999999C906.0299335679998 197.77760639999997,905.8075399679998 198.53745119999996,905.2515559679998 199.26023039999998C904.1951863679998 200.68725599999996,902.4716359679998 201.46563359999996,900.9704791679998 201.46563359999996C899.8029127679998 201.46563359999996,898.8021415679998 201.00231359999998,898.3202887679998 200.05714079999998C898.1720263679998 199.68648479999996,898.0978951679998 199.33436159999997,898.0978951679998 198.94517279999997C898.0978951679998 196.92509759999996,900.3588967679998 194.68262879999997,902.9534887679998 194.55289919999998">
</path>
</g>
<g class="vf-flag" pointer-events="bounding-box">
<path stroke-width="0.3" fill="#000000" stroke="none" stroke-dasharray="none" d="M905.2799335679998 172.89999999999998M904.8351463679999 175.88378079999998L904.8351463679999 172.992664L904.9092775679998 172.992664C905.1131383679998 172.992664,905.2428679679998 173.12239359999998,905.2799335679998 173.34478719999998C905.6691223679999 175.19806719999997,906.8366887679998 177.21814239999998,908.4490423679998 178.73783199999997C910.2467239679999 180.42431679999999,911.1548311679999 182.74091679999998,911.1548311679999 185.13164799999998C911.1548311679999 187.39264959999997,910.3579207679999 189.74631519999997,908.7455671679999 191.69225919999997C908.4675751679998 192.06291519999996,908.4490423679998 192.06291519999996,908.2637143679998 192.06291519999996C908.0413207679998 192.06291519999996,907.8930583679999 191.89611999999997,907.8930583679999 191.67372639999996C907.8930583679999 191.50693119999997,907.9115911679999 191.4698656,908.0969191679998 191.2660048C909.5054119679999 189.56098719999997,910.2096583679999 187.5038464,910.2096583679999 185.5393696C910.2096583679999 183.7972864,909.6536743679998 182.12933439999998,908.5046407679998 180.86910399999996C907.8003943679998 180.09072639999997,906.5030983679998 179.34941439999997,904.8536791679999 178.77489759999997C904.8536791679999 178.75636479999997,904.8351463679999 178.18184799999997,904.8351463679999 175.88378079999998">
</path>
</g>
</g>
<g class="vf-modifiers">
</g>
</g>
<path stroke-width="1" fill="none" stroke="#000000" stroke-dasharray="none" d="M899.0978951679998 189.74999999999997L912.0978951679998 180.74999999999997Z">
</path>
</g>
</g>
<g class="vf-stavenote" id="vf-auto27562">
<g class="vf-note" pointer-events="bounding-box">
<g class="vf-notehead" pointer-events="bounding-box">
<path stroke-width="0.3" fill="#000000" stroke="none" stroke-dasharray="none" d="M976.1512135679998 197.99999999999997M983.5081735679997 192.77711999999997C983.6204935679998 192.77711999999997,983.7889735679997 192.77711999999997,983.8170535679998 192.77711999999997C983.8170535679998 192.77711999999997,983.8451335679998 192.77711999999997,983.8451335679998 192.77711999999997C983.8451335679998 192.77711999999997,984.0136135679998 192.77711999999997,984.1540135679998 192.77711999999997C986.6812135679997 192.91751999999997,988.1694535679998 194.57423999999997,988.1694535679998 196.65215999999998C988.1694535679998 197.66303999999997,987.8324935679998 198.81431999999998,986.9900935679998 199.90943999999996C985.3895335679998 202.07159999999996,982.7780935679998 203.25095999999996,980.5036135679998 203.25095999999996C978.7345735679997 203.25095999999996,977.2182535679998 202.54895999999997,976.4881735679998 201.11687999999998C976.2635335679997 200.55527999999998,976.1512135679998 200.02175999999997,976.1512135679998 199.43207999999998C976.1512135679998 196.37135999999998,979.5769735679997 192.97367999999997,983.5081735679997 192.77711999999997">
</path>
</g>
</g>
<g class="vf-modifiers">
</g>
</g>
<g class="vf-stavenote" id="vf-auto27572">
<g class="vf-note" pointer-events="bounding-box">
<g class="vf-notehead" pointer-events="bounding-box">
<path stroke-width="0.3" fill="#000000" stroke="none" stroke-dasharray="none" d="M1011.2549543679997 197.99999999999997M1018.6119143679997 192.77711999999997C1018.7242343679998 192.77711999999997,1018.8927143679997 192.77711999999997,1018.9207943679997 192.77711999999997C1018.9207943679997 192.77711999999997,1018.9488743679998 192.77711999999997,1018.9488743679998 192.77711999999997C1018.9488743679998 192.77711999999997,1019.1173543679997 192.77711999999997,1019.2577543679997 192.77711999999997C1021.7849543679997 192.91751999999997,1023.2731943679997 194.57423999999997,1023.2731943679997 196.65215999999998C1023.2731943679997 197.66303999999997,1022.9362343679998 198.81431999999998,1022.0938343679998 199.90943999999996C1020.4932743679998 202.07159999999996,1017.8818343679998 203.25095999999996,1015.6073543679997 203.25095999999996C1013.8383143679997 203.25095999999996,1012.3219943679998 202.54895999999997,1011.5919143679997 201.11687999999998C1011.3672743679997 200.55527999999998,1011.2549543679997 200.02175999999997,1011.2549543679997 199.43207999999998C1011.2549543679997 196.37135999999998,1014.6807143679997 192.97367999999997,1018.6119143679997 192.77711999999997">
</path>
</g>
</g>
<g class="vf-modifiers">
</g>
</g>
<path stroke-width="1.5" fill="none" stroke="#000000" stroke-dasharray="none" d="M786.9694119679998 197.99999999999997L786.9694119679998 163.74999999999997">
</path>
<path stroke-width="1.5" fill="none" stroke="#000000" stroke-dasharray="none" d="M839.1586535679997 197.99999999999997L839.1586535679997 163.74999999999997">
</path>
<path stroke-width="1.5" fill="none" stroke="#000000" stroke-dasharray="none" d="M874.2623943679997 197.99999999999997L874.2623943679997 163.74999999999997">
</path>
<path stroke-width="0.3" fill="#000000" stroke="none" stroke-dasharray="none" d="M786.2194119679998 162.99999999999997L786.2194119679998 167.99999999999997L874.5123943679997 167.99999999999997L874.5123943679997 162.99999999999997Z">
</path>
<path stroke-width="0.3" fill="#000000" stroke="none" stroke-dasharray="none" d="M838.4086535679997 170.49999999999997L838.4086535679997 175.49999999999997L874.5123943679997 175.49999999999997L874.5123943679997 170.49999999999997Z">
</path>
<path stroke-width="1.5" fill="none" stroke="#000000" stroke-dasharray="none" d="M935.2302119679997 197.99999999999997L935.2302119679997 163.74999999999997">
</path>
<path stroke-width="1.5" fill="none" stroke="#000000" stroke-dasharray="none" d="M987.4194535679998 197.99999999999997L987.4194535679998 163.74999999999997">
</path>
<path stroke-width="1.5" fill="none" stroke="#000000" stroke-dasharray="none" d="M1022.5231943679997 197.99999999999997L1022.5231943679997 163.74999999999997">
</path>
<path stroke-width="0.3" fill="#000000" stroke="none" stroke-dasharray="none" d="M934.4802119679997 162.99999999999997L934.4802119679997 167.99999999999997L1022.7731943679997 167.99999999999997L1022.7731943679997 162.99999999999997Z">
</path>
<path stroke-width="0.3" fill="#000000" stroke="none" stroke-dasharray="none" d="M986.6694535679998 170.49999999999997L986.6694535679998 175.49999999999997L1022.7731943679997 175.49999999999997L1022.7731943679997 170.49999999999997Z">
</path>
</svg>