<svg width="790" height="100" viewBox="50 135 790 100">
<path stroke-width="1" fill="none" stroke="black" stroke-dasharray="none" d="M50 197.99999999999997L391.1120447999999 197.99999999999997">
</path>
<rect stroke-width="0.3" fill="black" stroke="black" stroke-dasharray="none" x="391.1120447999999" y="177.49999999999997" width="1" height="41">
</rect>
<path stroke-width="0.3" fill="black" stroke="none" stroke-dasharray="none" d="M55 197.99999999999997M55 197.99999999999997L55 188.00639999999999L57.1888 188.00639999999999L59.4064 188.00639999999999L59.4064 197.99999999999997L59.4064 208.02239999999998L57.1888 208.02239999999998L55 208.02239999999998L55 197.99999999999997M63.870400000000004 198.02879999999996L63.870400000000004 188.00639999999999L66.1168 188.00639999999999L68.3632 188.00639999999999L68.3632 198.02879999999996L68.3632 208.02239999999998L66.1168 208.02239999999998L63.870400000000004 208.02239999999998L63.870400000000004 198.02879999999996">
</path>
<path stroke-width="0.3" fill="black" stroke="none" stroke-dasharray="none" d="M96 197.99999999999997M101.0112 179.65439999999998C101.04 179.62559999999996,101.4432 179.62559999999996,102.6816 179.62559999999996C103.056 179.62559999999996,103.4592 179.62559999999996,103.9776 179.62559999999996L106.8864 179.62559999999996L106.9728 179.71199999999996C107.1168 179.79839999999996,107.2032 179.94239999999996,107.2032 180.05759999999998C107.2032 180.23039999999997,107.1168 180.34559999999996,107.0016 180.46079999999998C106.9728 180.54719999999998,106.7136 180.77759999999998,106.5408 181.03679999999997L105.0144 182.79359999999997L103.056 185.01119999999997L102.0192 186.19199999999998L100.464 187.97759999999997L98.4192 190.31039999999996C98.0736 190.74239999999998,97.6992 191.08799999999997,97.6992 191.08799999999997C97.6992 191.08799999999997,97.6992 191.08799999999997,97.6992 191.08799999999997C97.6992 191.14559999999997,97.9584 191.14559999999997,100.3488 191.14559999999997L102.9696 191.14559999999997L102.9696 189.27359999999996C102.9696 187.37279999999998,102.9696 187.34399999999997,102.9984 187.31519999999998C103.056 187.22879999999998,103.3152 186.91199999999998,104.3232 185.73119999999997L104.7264 185.29919999999998L105.1296 184.86719999999997L105.7344 184.08959999999996L106.368 183.42719999999997L106.6848 183.02399999999997C106.8 182.85119999999998,106.9728 182.82239999999996,107.1168 182.82239999999996C107.28960000000001 182.82239999999996,107.4336 182.90879999999999,107.52 183.05279999999996C107.5488 183.13919999999996,107.5488 183.19679999999997,107.5488 185.32799999999997C107.5488 185.81759999999997,107.5488 186.42239999999998,107.5488 187.14239999999998L107.5488 191.14559999999997L108.2688 191.14559999999997C108.9312 191.14559999999997,108.96 191.14559999999997,109.0464 191.17439999999996C109.2768 191.26079999999996,109.392 191.49119999999996,109.392 191.75039999999998C109.392 191.89439999999996,109.3632 192.06719999999999,109.248 192.18239999999997C109.0752 192.32639999999998,109.0464 192.32639999999998,108.2688 192.32639999999998L107.5488 192.32639999999998L107.5488 192.81599999999997C107.5776 194.28479999999996,107.8656 194.86079999999998,108.9888 195.46559999999997C109.392 195.66719999999998,109.4784 195.72479999999996,109.4784 196.01279999999997C109.4784 196.21439999999998,109.4208 196.30079999999998,109.2768 196.41599999999997L109.1904 196.44479999999996L105.2448 196.44479999999996L101.328 196.44479999999996L101.2416 196.41599999999997C101.0688 196.30079999999998,101.04 196.21439999999998,101.04 196.01279999999997C101.04 195.72479999999996,101.0688 195.66719999999998,101.5008 195.46559999999997C102.624 194.86079999999998,102.912 194.28479999999996,102.912 192.81599999999997L102.912 192.32639999999998L99.6 192.32639999999998C98.9952 192.38399999999996,98.5056 192.38399999999996,98.1024 192.38399999999996C96.288 192.38399999999996,96.2592 192.32639999999998,96.2304 192.32639999999998C96.0576 192.26879999999997,96 192.09599999999998,96 191.89439999999996C96 191.89439999999996,96 191.89439999999996,96 191.89439999999996C96 191.69279999999998,96 191.69279999999998,96.576 191.0304C98.9952 188.09279999999998,100.6944 183.83039999999997,100.6944 180.43199999999996C100.6944 179.91359999999997,100.7808 179.74079999999998,101.0112 179.65439999999998M102.7392 198.02879999999996L102.768 198.02879999999996L102.6816 198.02879999999996L102.7392 198.02879999999996M102.7392 178.61759999999998L102.768 178.61759999999998L102.6816 178.61759999999998L102.7392 178.61759999999998">
</path>
<path stroke-width="0.3" fill="black" stroke="none" stroke-dasharray="none" d="M96 217.99999999999997M101.0112 199.65439999999998C101.04 199.62559999999996,101.4432 199.62559999999996,102.6816 199.62559999999996C103.056 199.62559999999996,103.4592 199.62559999999996,103.9776 199.62559999999996L106.8864 199.62559999999996L106.9728 199.71199999999996C107.1168 199.79839999999996,107.2032 199.94239999999996,107.2032 200.05759999999998C107.2032 200.23039999999997,107.1168 200.34559999999996,107.0016 200.46079999999998C106.9728 200.54719999999998,106.7136 200.77759999999998,106.5408 201.03679999999997L105.0144 202.79359999999997L103.056 205.01119999999997L102.0192 206.19199999999998L100.464 207.97759999999997L98.4192 210.31039999999996C98.0736 210.74239999999998,97.6992 211.08799999999997,97.6992 211.08799999999997C97.6992 211.08799999999997,97.6992 211.08799999999997,97.6992 211.08799999999997C97.6992 211.14559999999997,97.9584 211.14559999999997,100.3488 211.14559999999997L102.9696 211.14559999999997L102.9696 209.27359999999996C102.9696 207.37279999999998,102.9696 207.34399999999997,102.9984 207.31519999999998C103.056 207.22879999999998,103.3152 206.91199999999998,104.3232 205.73119999999997L104.7264 205.29919999999998L105.1296 204.86719999999997L105.7344 204.08959999999996L106.368 203.42719999999997L106.6848 203.02399999999997C106.8 202.85119999999998,106.9728 202.82239999999996,107.1168 202.82239999999996C107.28960000000001 202.82239999999996,107.4336 202.90879999999999,107.52 203.05279999999996C107.5488 203.13919999999996,107.5488 203.19679999999997,107.5488 205.32799999999997C107.5488 205.81759999999997,107.5488 206.42239999999998,107.5488 207.14239999999998L107.5488 211.14559999999997L108.2688 211.14559999999997C108.9312 211.14559999999997,108.96 211.14559999999997,109.0464 211.17439999999996C109.2768 211.26079999999996,109.392 211.49119999999996,109.392 211.75039999999998C109.392 211.89439999999996,109.3632 212.06719999999999,109.248 212.18239999999997C109.0752 212.32639999999998,109.0464 212.32639999999998,108.2688 212.32639999999998L107.5488 212.32639999999998L107.5488 212.81599999999997C107.5776 214.28479999999996,107.8656 214.86079999999998,108.9888 215.46559999999997C109.392 215.66719999999998,109.4784 215.72479999999996,109.4784 216.01279999999997C109.4784 216.21439999999998,109.4208 216.30079999999998,109.2768 216.41599999999997L109.1904 216.44479999999996L105.2448 216.44479999999996L101.328 216.44479999999996L101.2416 216.41599999999997C101.0688 216.30079999999998,101.04 216.21439999999998,101.04 216.01279999999997C101.04 215.72479999999996,101.0688 215.66719999999998,101.5008 215.46559999999997C102.624 214.86079999999998,102.912 214.28479999999996,102.912 212.81599999999997L102.912 212.32639999999998L99.6 212.32639999999998C98.9952 212.38399999999996,98.5056 212.38399999999996,98.1024 212.38399999999996C96.288 212.38399999999996,96.2592 212.32639999999998,96.2304 212.32639999999998C96.0576 212.26879999999997,96 212.09599999999998,96 211.89439999999996C96 211.89439999999996,96 211.89439999999996,96 211.89439999999996C96 211.69279999999998,96 211.69279999999998,96.576 211.0304C98.9952 208.09279999999998,100.6944 203.83039999999997,100.6944 200.43199999999996C100.6944 199.91359999999997,100.7808 199.74079999999998,101.0112 199.65439999999998M102.7392 218.02879999999996L102.768 218.02879999999996L102.6816 218.02879999999996L102.7392 218.02879999999996M102.7392 198.61759999999998L102.768 198.61759999999998L102.6816 198.61759999999998L102.7392 198.61759999999998">
</path>
<g class="vf-stavenote" id="vf-auto22545">
<g class="vf-note" pointer-events="bounding-box">
<g class="vf-notehead" pointer-events="bounding-box">
<path stroke-width="0.3" fill="#000000" stroke="none" stroke-dasharray="none" d="M121.4784 197.99999999999997M128.83535999999998 192.77711999999997C128.94768 192.77711999999997,129.11615999999998 192.77711999999997,129.14424 192.77711999999997C129.14424 192.77711999999997,129.17231999999998 192.77711999999997,129.17231999999998 192.77711999999997C129.17231999999998 192.77711999999997,129.3408 192.77711999999997,129.4812 192.77711999999997C132.0084 192.91751999999997,133.49663999999999 194.57423999999997,133.49663999999999 196.65215999999998C133.49663999999999 197.66303999999997,133.15967999999998 198.81431999999998,132.31727999999998 199.90943999999996C130.71671999999998 202.07159999999996,128.10528 203.25095999999996,125.8308 203.25095999999996C124.06175999999999 203.25095999999996,122.54544 202.54895999999997,121.81536 201.11687999999998C121.59071999999999 200.55527999999998,121.4784 200.02175999999997,121.4784 199.43207999999998C121.4784 196.37135999999998,124.90415999999999 192.97367999999997,128.83535999999998 192.77711999999997">
</path>
</g>
</g>
<g class="vf-modifiers">
</g>
</g>
<g class="vf-stavenote" id="vf-auto22555">
<g class="vf-note" pointer-events="bounding-box">
<g class="vf-notehead" pointer-events="bounding-box">
<path stroke-width="0.3" fill="#000000" stroke="none" stroke-dasharray="none" d="M155.4186 197.99999999999997M162.77555999999998 192.77711999999997C162.88788 192.77711999999997,163.05635999999998 192.77711999999997,163.08444 192.77711999999997C163.08444 192.77711999999997,163.11252 192.77711999999997,163.11252 192.77711999999997C163.11252 192.77711999999997,163.281 192.77711999999997,163.4214 192.77711999999997C165.9486 192.91751999999997,167.43684 194.57423999999997,167.43684 196.65215999999998C167.43684 197.66303999999997,167.09987999999998 198.81431999999998,166.25748 199.90943999999996C164.65691999999999 202.07159999999996,162.04548 203.25095999999996,159.771 203.25095999999996C158.00196 203.25095999999996,156.48564 202.54895999999997,155.75556 201.11687999999998C155.53092 200.55527999999998,155.4186 200.02175999999997,155.4186 199.43207999999998C155.4186 196.37135999999998,158.84436 192.97367999999997,162.77555999999998 192.77711999999997">
</path>
</g>
</g>
<g class="vf-modifiers">
</g>
</g>
<g class="vf-stavenote" id="vf-auto22565">
<g class="vf-note" pointer-events="bounding-box">
<g class="vf-notehead" pointer-events="bounding-box">
<path stroke-width="0.3" fill="#000000" stroke="none" stroke-dasharray="none" d="M189.3588 197.99999999999997M196.71576 192.77711999999997C196.82808 192.77711999999997,196.99656 192.77711999999997,197.02464 192.77711999999997C197.02464 192.77711999999997,197.05272 192.77711999999997,197.05272 192.77711999999997C197.05272 192.77711999999997,197.2212 192.77711999999997,197.3616 192.77711999999997C199.8888 192.91751999999997,201.37704 194.57423999999997,201.37704 196.65215999999998C201.37704 197.66303999999997,201.04008 198.81431999999998,200.19768 199.90943999999996C198.59712 202.07159999999996,195.98568 203.25095999999996,193.7112 203.25095999999996C191.94216 203.25095999999996,190.42584 202.54895999999997,189.69576 201.11687999999998C189.47112 200.55527999999998,189.3588 200.02175999999997,189.3588 199.43207999999998C189.3588 196.37135999999998,192.78456 192.97367999999997,196.71576 192.77711999999997">
</path>
</g>
</g>
<g class="vf-modifiers">
</g>
</g>
<g class="vf-stavenote" id="vf-auto22575">
<g class="vf-note" pointer-events="bounding-box">
<g class="vf-notehead" pointer-events="bounding-box">
<path stroke-width="0.3" fill="#000000" stroke="none" stroke-dasharray="none" d="M223.299 197.99999999999997M230.65596 192.77711999999997C230.76828 192.77711999999997,230.93676 192.77711999999997,230.96484 192.77711999999997C230.96484 192.77711999999997,230.99292 192.77711999999997,230.99292 192.77711999999997C230.99292 192.77711999999997,231.16140000000001 192.77711999999997,231.30180000000001 192.77711999999997C233.829 192.91751999999997,235.31724 194.57423999999997,235.31724 196.65215999999998C235.31724 197.66303999999997,234.98028 198.81431999999998,234.13788 199.90943999999996C232.53732 202.07159999999996,229.92588 203.25095999999996,227.6514 203.25095999999996C225.88236 203.25095999999996,224.36604 202.54895999999997,223.63596 201.11687999999998C223.41132000000002 200.55527999999998,223.299 200.02175999999997,223.299 199.43207999999998C223.299 196.37135999999998,226.72476 192.97367999999997,230.65596 192.77711999999997">
</path>
</g>
</g>
<g class="vf-modifiers">
</g>
</g>
<g class="vf-stavenote" id="vf-auto22585">
<g class="vf-note" pointer-events="bounding-box">
<g class="vf-notehead" pointer-events="bounding-box">
<path stroke-width="0.3" fill="#000000" stroke="none" stroke-dasharray="none" d="M257.2392 197.99999999999997M264.59616 192.77711999999997C264.70848 192.77711999999997,264.87696 192.77711999999997,264.90504 192.77711999999997C264.90504 192.77711999999997,264.93312 192.77711999999997,264.93312 192.77711999999997C264.93312 192.77711999999997,265.10159999999996 192.77711999999997,265.24199999999996 192.77711999999997C267.76919999999996 192.91751999999997,269.25744 194.57423999999997,269.25744 196.65215999999998C269.25744 197.66303999999997,268.92048 198.81431999999998,268.07808 199.90943999999996C266.47751999999997 202.07159999999996,263.86608 203.25095999999996,261.59159999999997 203.25095999999996C259.82256 203.25095999999996,258.30624 202.54895999999997,257.57615999999996 201.11687999999998C257.35152 200.55527999999998,257.2392 200.02175999999997,257.2392 199.43207999999998C257.2392 196.37135999999998,260.66496 192.97367999999997,264.59616 192.77711999999997">
</path>
</g>
</g>
<g class="vf-modifiers">
</g>
</g>
<g class="vf-stavenote" id="vf-auto22595">
<g class="vf-note" pointer-events="bounding-box">
<g class="vf-notehead" pointer-events="bounding-box">
<path stroke-width="0.3" fill="#000000" stroke="none" stroke-dasharray="none" d="M291.1794 197.99999999999997M298.53636 192.77711999999997C298.64868 192.77711999999997,298.81716 192.77711999999997,298.84524 192.77711999999997C298.84524 192.77711999999997,298.87332 192.77711999999997,298.87332 192.77711999999997C298.87332 192.77711999999997,299.04179999999997 192.77711999999997,299.18219999999997 192.77711999999997C301.70939999999996 192.91751999999997,303.19764 194.57423999999997,303.19764 196.65215999999998C303.19764 197.66303999999997,302.86068 198.81431999999998,302.01828 199.90943999999996C300.41772 202.07159999999996,297.80628 203.25095999999996,295.5318 203.25095999999996C293.76276 203.25095999999996,292.24644 202.54895999999997,291.51635999999996 201.11687999999998C291.29172 200.55527999999998,291.1794 200.02175999999997,291.1794 199.43207999999998C291.1794 196.37135999999998,294.60516 192.97367999999997,298.53636 192.77711999999997">
</path>
</g>
</g>
<g class="vf-modifiers">
</g>
</g>
<g class="vf-stavenote" id="vf-auto22605">
<g class="vf-note" pointer-events="bounding-box">
<g class="vf-notehead" pointer-events="bounding-box">
<path stroke-width="0.3" fill="#000000" stroke="none" stroke-dasharray="none" d="M325.1196 197.99999999999997M332.47656 192.77711999999997C332.58888 192.77711999999997,332.75736 192.77711999999997,332.78544 192.77711999999997C332.78544 192.77711999999997,332.81352 192.77711999999997,332.81352 192.77711999999997C332.81352 192.77711999999997,332.98199999999997 192.77711999999997,333.12239999999997 192.77711999999997C335.64959999999996 192.91751999999997,337.13784 194.57423999999997,337.13784 196.65215999999998C337.13784 197.66303999999997,336.80088 198.81431999999998,335.95848 199.90943999999996C334.35792 202.07159999999996,331.74648 203.25095999999996,329.472 203.25095999999996C327.70296 203.25095999999996,326.18664 202.54895999999997,325.45655999999997 201.11687999999998C325.23192 200.55527999999998,325.1196 200.02175999999997,325.1196 199.43207999999998C325.1196 196.37135999999998,328.54536 192.97367999999997,332.47656 192.77711999999997">
</path>
</g>
</g>
<g class="vf-modifiers">
</g>
</g>
<g class="vf-stavenote" id="vf-auto22615">
<g class="vf-note" pointer-events="bounding-box">
<g class="vf-notehead" pointer-events="bounding-box">
<path stroke-width="0.3" fill="#000000" stroke="none" stroke-dasharray="none" d="M359.0598 197.99999999999997M366.41676 192.77711999999997C366.52908 192.77711999999997,366.69756 192.77711999999997,366.72564 192.77711999999997C366.72564 192.77711999999997,366.75372 192.77711999999997,366.75372 192.77711999999997C366.75372 192.77711999999997,366.9222 192.77711999999997,367.0626 192.77711999999997C369.58979999999997 192.91751999999997,371.07804 194.57423999999997,371.07804 196.65215999999998C371.07804 197.66303999999997,370.74108 198.81431999999998,369.89868 199.90943999999996C368.29812 202.07159999999996,365.68668 203.25095999999996,363.4122 203.25095999999996C361.64316 203.25095999999996,360.12684 202.54895999999997,359.39676 201.11687999999998C359.17212 200.55527999999998,359.0598 200.02175999999997,359.0598 199.43207999999998C359.0598 196.37135999999998,362.48556 192.97367999999997,366.41676 192.77711999999997">
</path>
</g>
</g>
<g class="vf-modifiers">
</g>
</g>
<path stroke-width="1.5" fill="none" stroke="#000000" stroke-dasharray="none" d="M132.74663999999999 197.99999999999997L132.74663999999999 163.74999999999997">
</path>
<path stroke-width="1.5" fill="none" stroke="#000000" stroke-dasharray="none" d="M166.68684 197.99999999999997L166.68684 163.74999999999997">
</path>
<path stroke-width="1.5" fill="none" stroke="#000000" stroke-dasharray="none" d="M200.62704 197.99999999999997L200.62704 163.74999999999997">
</path>
<path stroke-width="1.5" fill="none" stroke="#000000" stroke-dasharray="none" d="M234.56724 197.99999999999997L234.56724 163.74999999999997">
</path>
<path stroke-width="0.3" fill="#000000" stroke="none" stroke-dasharray="none" d="M131.99663999999999 162.99999999999997L131.99663999999999 167.99999999999997L234.81724 167.99999999999997L234.81724 162.99999999999997Z">
</path>
<path stroke-width="1.5" fill="none" stroke="#000000" stroke-dasharray="none" d="M268.50744 197.99999999999997L268.50744 163.74999999999997">
</path>
<path stroke-width="1.5" fill="none" stroke="#000000" stroke-dasharray="none" d="M302.44764 197.99999999999997L302.44764 163.74999999999997">
</path>
<path stroke-width="1.5" fill="none" stroke="#000000" stroke-dasharray="none" d="M336.38784 197.99999999999997L336.38784 163.74999999999997">
</path>
<path stroke-width="1.5" fill="none" stroke="#000000" stroke-dasharray="none" d="M370.32804 197.99999999999997L370.32804 163.74999999999997">
</path>
<path stroke-width="0.3" fill="#000000" stroke="none" stroke-dasharray="none" d="M267.75744 162.99999999999997L267.75744 167.99999999999997L370.57804 167.99999999999997L370.57804 162.99999999999997Z">
</path>
<path stroke-width="1" fill="none" stroke="black" stroke-dasharray="none" d="M391.1120447999999 197.99999999999997L829.3370951679998 197.99999999999997">
</path>
<rect stroke-width="0.3" fill="black" stroke="black" stroke-dasharray="none" x="824.3370951679998" y="177.49999999999997" width="1" height="41">
</rect>
<rect stroke-width="0.3" fill="black" stroke="black" stroke-dasharray="none" x="827.3370951679998" y="177.49999999999997" width="3" height="41">
</rect>
<path stroke-width="0.3" fill="black" stroke="none" stroke-dasharray="none" d="M823.3370951679998 193.49999999999997 A2 2 0 0 0 819.3370951679998 193.49999999999997M819.3370951679998 193.49999999999997 A2 2 0 0 0 823.3370951679998 193.49999999999997">
</path>
<path stroke-width="0.3" fill="black" stroke="none" stroke-dasharray="none" d="M823.3370951679998 203.49999999999997 A2 2 0 0 0 819.3370951679998 203.49999999999997M819.3370951679998 203.49999999999997 A2 2 0 0 0 823.3370951679998 203.49999999999997">
</path>
<path stroke-width="0.3" fill="black" stroke="none" stroke-dasharray="none" d="M396.2416447999999 197.99999999999997M401.9152447999999 179.33759999999998C402.0304447999999 179.33759999999998,402.2320447999999 179.33759999999998,402.4624447999999 179.33759999999998C402.9232447999999 179.33759999999998,403.5280447999999 179.33759999999998,403.6720447999999 179.39519999999996C405.8320447999999 179.65439999999998,407.5600447999999 180.74879999999996,408.3088447999999 182.27519999999998C408.5680447999999 182.79359999999997,408.6832447999999 183.34079999999997,408.6832447999999 183.91679999999997C408.6832447999999 185.32799999999997,407.9056447999999 186.94079999999997,406.4944447999999 188.15039999999996C405.5152447999999 188.98559999999998,404.5360447999999 189.50399999999996,403.0096447999999 189.99359999999996C401.0224447999999 190.62719999999996,399.3232447999999 191.75039999999998,398.2288447999999 193.10399999999998C398.2288447999999 193.10399999999998,398.2288447999999 193.13279999999997,398.2288447999999 193.13279999999997C398.2288447999999 193.13279999999997,398.2288447999999 193.13279999999997,398.2288447999999 193.13279999999997C398.2288447999999 193.13279999999997,398.3152447999999 193.10399999999998,398.3728447999999 193.01759999999996C399.4672447999999 192.12479999999996,400.9360447999999 191.60639999999998,402.2608447999999 191.60639999999998C403.3552447999999 191.60639999999998,404.13284479999993 191.80799999999996,405.1696447999999 192.38399999999996C405.8032447999999 192.70079999999996,406.3792447999999 192.84479999999996,406.9264447999999 192.84479999999996C407.15684479999993 192.84479999999996,407.3872447999999 192.84479999999996,407.6464447999999 192.78719999999998C408.0208447999999 192.70079999999996,408.4240447999999 192.41279999999998,408.5680447999999 192.18239999999997C408.6544447999999 191.98079999999996,408.7984447999999 191.89439999999996,408.9712447999999 191.89439999999996C409.2016447999999 191.89439999999996,409.4320447999999 192.06719999999999,409.4320447999999 192.32639999999998C409.4320447999999 192.52799999999996,409.1728447999999 193.24799999999996,408.9424447999999 193.7376C408.0208447999999 195.58079999999998,406.4080447999999 196.73279999999997,404.8528447999999 196.73279999999997C404.7376447999999 196.73279999999997,404.6512447999999 196.73279999999997,404.5360447999999 196.70399999999998C404.13284479999993 196.70399999999998,403.9600447999999 196.58879999999996,403.4416447999999 196.24319999999997C402.3472447999999 195.52319999999997,400.9648447999999 195.14879999999997,399.7552447999999 195.14879999999997C399.2368447999999 195.14879999999997,398.7760447999999 195.20639999999997,398.3440447999999 195.37919999999997C397.7680447999999 195.58079999999998,397.2208447999999 195.92639999999997,397.0480447999999 196.18559999999997C396.96164479999993 196.38719999999998,396.8176447999999 196.44479999999996,396.64484479999993 196.44479999999996C396.5008447999999 196.44479999999996,396.3568447999999 196.38719999999998,396.2704447999999 196.21439999999998L396.2128447999999 196.128L396.2128447999999 195.72479999999996C396.2128447999999 195.37919999999997,396.2416447999999 195.26399999999998,396.2416447999999 195.14879999999997C396.2704447999999 195.06239999999997,396.2992447999999 194.88959999999997,396.2992447999999 194.74559999999997C396.8176447999999 192.32639999999998,398.5744447999999 190.16639999999998,400.9648447999999 189.10079999999996C402.9232447999999 188.17919999999998,404.2192447999999 186.53759999999997,404.44964479999993 184.46399999999997C404.5072447999999 184.29119999999998,404.5072447999999 184.14719999999997,404.5072447999999 183.97439999999997C404.5072447999999 182.13119999999998,403.1248447999999 180.86399999999998,401.1664447999999 180.86399999999998C401.0224447999999 180.86399999999998,400.8496447999999 180.86399999999998,400.7056447999999 180.86399999999998C400.4176447999999 180.89279999999997,400.3312447999999 180.89279999999997,400.3312447999999 180.95039999999997C400.3312447999999 180.95039999999997,400.3312447999999 180.97919999999996,400.4176447999999 181.03679999999997C401.0800447999999 181.41119999999998,401.3968447999999 182.13119999999998,401.3968447999999 182.82239999999996C401.3968447999999 183.71519999999998,400.9360447999999 184.55039999999997,400.0432447999999 184.89599999999996C399.7552447999999 184.98239999999998,399.4672447999999 185.01119999999997,399.2368447999999 185.01119999999997C398.0272447999999 185.01119999999997,397.0192447999999 183.97439999999997,397.0192447999999 182.73599999999996C397.0192447999999 182.50559999999996,397.0192447999999 182.27519999999998,397.0768447999999 182.01599999999996C397.5088447999999 180.69119999999998,399.5536447999999 179.59679999999997,401.9152447999999 179.33759999999998M402.8080447999999 198.02879999999996L402.8656447999999 198.02879999999996L402.7792447999999 198.02879999999996L402.8080447999999 198.02879999999996M402.8080447999999 178.61759999999998L402.8656447999999 178.61759999999998L402.7792447999999 178.61759999999998L402.8080447999999 178.61759999999998">
</path>
<path stroke-width="0.3" fill="black" stroke="none" stroke-dasharray="none" d="M396.1120447999999 217.99999999999997M401.1232447999999 199.65439999999998C401.15204479999994 199.62559999999996,401.5552447999999 199.62559999999996,402.7936447999999 199.62559999999996C403.1680447999999 199.62559999999996,403.57124479999993 199.62559999999996,404.0896447999999 199.62559999999996L406.9984447999999 199.62559999999996L407.0848447999999 199.71199999999996C407.22884479999993 199.79839999999996,407.3152447999999 199.94239999999996,407.3152447999999 200.05759999999998C407.3152447999999 200.23039999999997,407.22884479999993 200.34559999999996,407.1136447999999 200.46079999999998C407.0848447999999 200.54719999999998,406.8256447999999 200.77759999999998,406.6528447999999 201.03679999999997L405.12644479999994 202.79359999999997L403.1680447999999 205.01119999999997L402.13124479999993 206.19199999999998L400.5760447999999 207.97759999999997L398.5312447999999 210.31039999999996C398.1856447999999 210.74239999999998,397.81124479999994 211.08799999999997,397.81124479999994 211.08799999999997C397.81124479999994 211.08799999999997,397.81124479999994 211.08799999999997,397.81124479999994 211.08799999999997C397.81124479999994 211.14559999999997,398.0704447999999 211.14559999999997,400.4608447999999 211.14559999999997L403.08164479999994 211.14559999999997L403.08164479999994 209.27359999999996C403.08164479999994 207.37279999999998,403.08164479999994 207.34399999999997,403.1104447999999 207.31519999999998C403.1680447999999 207.22879999999998,403.4272447999999 206.91199999999998,404.4352447999999 205.73119999999997L404.83844479999993 205.29919999999998L405.2416447999999 204.86719999999997L405.8464447999999 204.08959999999996L406.4800447999999 203.42719999999997L406.7968447999999 203.02399999999997C406.91204479999993 202.85119999999998,407.0848447999999 202.82239999999996,407.22884479999993 202.82239999999996C407.40164479999993 202.82239999999996,407.54564479999993 202.90879999999999,407.6320447999999 203.05279999999996C407.66084479999995 203.13919999999996,407.66084479999995 203.19679999999997,407.66084479999995 205.32799999999997C407.66084479999995 205.81759999999997,407.66084479999995 206.42239999999998,407.66084479999995 207.14239999999998L407.66084479999995 211.14559999999997L408.3808447999999 211.14559999999997C409.0432447999999 211.14559999999997,409.0720447999999 211.14559999999997,409.1584447999999 211.17439999999996C409.3888447999999 211.26079999999996,409.5040447999999 211.49119999999996,409.5040447999999 211.75039999999998C409.5040447999999 211.89439999999996,409.4752447999999 212.06719999999999,409.3600447999999 212.18239999999997C409.1872447999999 212.32639999999998,409.1584447999999 212.32639999999998,408.3808447999999 212.32639999999998L407.66084479999995 212.32639999999998L407.66084479999995 212.81599999999997C407.68964479999994 214.28479999999996,407.9776447999999 214.86079999999998,409.10084479999995 215.46559999999997C409.5040447999999 215.66719999999998,409.59044479999994 215.72479999999996,409.59044479999994 216.01279999999997C409.59044479999994 216.21439999999998,409.5328447999999 216.30079999999998,409.3888447999999 216.41599999999997L409.30244479999993 216.44479999999996L405.3568447999999 216.44479999999996L401.4400447999999 216.44479999999996L401.3536447999999 216.41599999999997C401.18084479999993 216.30079999999998,401.15204479999994 216.21439999999998,401.15204479999994 216.01279999999997C401.15204479999994 215.72479999999996,401.18084479999993 215.66719999999998,401.61284479999995 215.46559999999997C402.73604479999995 214.86079999999998,403.0240447999999 214.28479999999996,403.0240447999999 212.81599999999997L403.0240447999999 212.32639999999998L399.71204479999994 212.32639999999998C399.10724479999993 212.38399999999996,398.61764479999994 212.38399999999996,398.2144447999999 212.38399999999996C396.40004479999993 212.38399999999996,396.37124479999994 212.32639999999998,396.3424447999999 212.32639999999998C396.1696447999999 212.26879999999997,396.1120447999999 212.09599999999998,396.1120447999999 211.89439999999996C396.1120447999999 211.89439999999996,396.1120447999999 211.89439999999996,396.1120447999999 211.89439999999996C396.1120447999999 211.69279999999998,396.1120447999999 211.69279999999998,396.68804479999994 211.0304C399.10724479999993 208.09279999999998,400.8064447999999 203.83039999999997,400.8064447999999 200.43199999999996C400.8064447999999 199.91359999999997,400.8928447999999 199.74079999999998,401.1232447999999 199.65439999999998M402.8512447999999 218.02879999999996L402.8800447999999 218.02879999999996L402.7936447999999 218.02879999999996L402.8512447999999 218.02879999999996M402.8512447999999 198.61759999999998L402.8800447999999 198.61759999999998L402.7936447999999 198.61759999999998L402.8512447999999 198.61759999999998">
</path>
<g class="vf-stavenote" id="vf-auto22628">
<g class="vf-note" pointer-events="bounding-box">
<g class="vf-notehead" pointer-events="bounding-box">
<path stroke-width="0.3" fill="#000000" stroke="none" stroke-dasharray="none" d="M447.45452159999996 197.99999999999997M454.8114816 192.77711999999997C454.9238016 192.77711999999997,455.0922816 192.77711999999997,455.12036159999997 192.77711999999997C455.12036159999997 192.77711999999997,455.14844159999996 192.77711999999997,455.14844159999996 192.77711999999997C455.14844159999996 192.77711999999997,455.31692159999994 192.77711999999997,455.45732159999994 192.77711999999997C457.9845216 192.91751999999997,459.47276159999996 194.57423999999997,459.47276159999996 196.65215999999998C459.47276159999996 197.66303999999997,459.1358016 198.81431999999998,458.2934016 199.90943999999996C456.69284159999995 202.07159999999996,454.08140159999994 203.25095999999996,451.80692159999995 203.25095999999996C450.0378816 203.25095999999996,448.5215616 202.54895999999997,447.79148159999994 201.11687999999998C447.5668416 200.55527999999998,447.45452159999996 200.02175999999997,447.45452159999996 199.43207999999998C447.45452159999996 196.37135999999998,450.8802816 192.97367999999997,454.8114816 192.77711999999997">
</path>
</g>
</g>
<g class="vf-modifiers">
<g class="vf-stavenote" id="vf-auto22638">
<g class="vf-note" pointer-events="bounding-box">
<g class="vf-stem" pointer-events="bounding-box">
<path stroke-width="1.5" fill="none" stroke="#000000" stroke-dasharray="none" d="M428.77248319999995 197.99999999999997L428.77248319999995 174.89999999999998">
</path>
</g>
<g class="vf-notehead" pointer-events="bounding-box">
<path stroke-width="0.3" fill="#000000" stroke="none" stroke-dasharray="none" d="M421.59044479999994 197.99999999999997M426.44603839999996 194.55289919999998C426.5201695999999 194.55289919999998,426.63136639999993 194.55289919999998,426.64989919999994 194.55289919999998C426.64989919999994 194.55289919999998,426.66843199999994 194.55289919999998,426.66843199999994 194.55289919999998C426.66843199999994 194.55289919999998,426.77962879999995 194.55289919999998,426.87229279999997 194.55289919999998C428.5402447999999 194.64556319999997,429.52248319999995 195.73899839999996,429.52248319999995 197.11042559999999C429.52248319999995 197.77760639999997,429.3000895999999 198.53745119999996,428.74410559999995 199.26023039999998C427.687736 200.68725599999996,425.96418559999995 201.46563359999996,424.46302879999996 201.46563359999996C423.29546239999996 201.46563359999996,422.29469119999993 201.00231359999998,421.8128383999999 200.05714079999998C421.66457599999995 199.68648479999996,421.59044479999994 199.33436159999997,421.59044479999994 198.94517279999997C421.59044479999994 196.92509759999996,423.85144639999993 194.68262879999997,426.44603839999996 194.55289919999998">
</path>
</g>
<g class="vf-flag" pointer-events="bounding-box">
<path stroke-width="0.3" fill="#000000" stroke="none" stroke-dasharray="none" d="M428.77248319999995 172.89999999999998M428.32769599999995 175.88378079999998L428.32769599999995 172.992664L428.40182719999996 172.992664C428.60568799999993 172.992664,428.73541759999995 173.12239359999998,428.77248319999995 173.34478719999998C429.16167199999995 175.19806719999997,430.32923839999995 177.21814239999998,431.94159199999996 178.73783199999997C433.73927359999993 180.42431679999999,434.64738079999995 182.74091679999998,434.64738079999995 185.13164799999998C434.64738079999995 187.39264959999997,433.85047039999995 189.74631519999997,432.23811679999994 191.69225919999997C431.96012479999996 192.06291519999996,431.94159199999996 192.06291519999996,431.75626399999993 192.06291519999996C431.53387039999996 192.06291519999996,431.38560799999993 191.89611999999997,431.38560799999993 191.67372639999996C431.38560799999993 191.50693119999997,431.40414079999994 191.4698656,431.58946879999996 191.2660048C432.99796159999994 189.56098719999997,433.7022079999999 187.5038464,433.7022079999999 185.5393696C433.7022079999999 183.7972864,433.14622399999996 182.12933439999998,431.99719039999997 180.86910399999996C431.292944 180.09072639999997,429.99564799999996 179.34941439999997,428.34622879999995 178.77489759999997C428.34622879999995 178.75636479999997,428.32769599999995 178.18184799999997,428.32769599999995 175.88378079999998">
</path>
</g>
</g>
<g class="vf-modifiers">
</g>
</g>
<path stroke-width="1" fill="none" stroke="#000000" stroke-dasharray="none" d="M422.59044479999994 189.74999999999997L435.59044479999994 180.74999999999997Z">
</path>
</g>
</g>
<g class="vf-stavenote" id="vf-auto22652">
<g class="vf-note" pointer-events="bounding-box">
<g class="vf-notehead" pointer-events="bounding-box">
<path stroke-width="0.3" fill="#000000" stroke="none" stroke-dasharray="none" d="M485.71268319999996 197.99999999999997M493.0696432 192.77711999999997C493.1819632 192.77711999999997,493.3504432 192.77711999999997,493.37852319999996 192.77711999999997C493.37852319999996 192.77711999999997,493.40660319999995 192.77711999999997,493.40660319999995 192.77711999999997C493.40660319999995 192.77711999999997,493.57508319999994 192.77711999999997,493.71548319999994 192.77711999999997C496.2426832 192.91751999999997,497.73092319999995 194.57423999999997,497.73092319999995 196.65215999999998C497.73092319999995 197.66303999999997,497.3939632 198.81431999999998,496.5515632 199.90943999999996C494.95100319999995 202.07159999999996,492.33956319999993 203.25095999999996,490.06508319999995 203.25095999999996C488.2960432 203.25095999999996,486.7797232 202.54895999999997,486.04964319999993 201.11687999999998C485.82500319999997 200.55527999999998,485.71268319999996 200.02175999999997,485.71268319999996 199.43207999999998C485.71268319999996 196.37135999999998,489.1384432 192.97367999999997,493.0696432 192.77711999999997">
</path>
</g>
</g>
<g class="vf-modifiers">
</g>
</g>
<g class="vf-stavenote" id="vf-auto22662">
<g class="vf-note" pointer-events="bounding-box">
<g class="vf-notehead" pointer-events="bounding-box">
<path stroke-width="0.3" fill="#000000" stroke="none" stroke-dasharray="none" d="M549.8349215999999 197.99999999999997M557.1918815999999 192.77711999999997C557.3042015999999 192.77711999999997,557.4726815999999 192.77711999999997,557.5007615999999 192.77711999999997C557.5007615999999 192.77711999999997,557.5288416 192.77711999999997,557.5288416 192.77711999999997C557.5288416 192.77711999999997,557.6973215999999 192.77711999999997,557.8377215999999 192.77711999999997C560.3649215999999 192.91751999999997,561.8531615999999 194.57423999999997,561.8531615999999 196.65215999999998C561.8531615999999 197.66303999999997,561.5162015999999 198.81431999999998,560.6738015999999 199.90943999999996C559.0732416 202.07159999999996,556.4618016 203.25095999999996,554.1873215999999 203.25095999999996C552.4182815999999 203.25095999999996,550.9019615999999 202.54895999999997,550.1718815999999 201.11687999999998C549.9472415999999 200.55527999999998,549.8349215999999 200.02175999999997,549.8349215999999 199.43207999999998C549.8349215999999 196.37135999999998,553.2606815999999 192.97367999999997,557.1918815999999 192.77711999999997">
</path>
</g>
</g>
<g class="vf-modifiers">
<g class="vf-stavenote" id="vf-auto22672">
<g class="vf-note" pointer-events="bounding-box">
<g class="vf-stem" pointer-events="bounding-box">
<path stroke-width="1.5" fill="none" stroke="#000000" stroke-dasharray="none" d="M531.1528831999999 197.99999999999997L531.1528831999999 174.89999999999998">
</path>
</g>
<g class="vf-notehead" pointer-events="bounding-box">
<path stroke-width="0.3" fill="#000000" stroke="none" stroke-dasharray="none" d="M523.9708447999999 197.99999999999997M528.8264383999999 194.55289919999998C528.9005695999999 194.55289919999998,529.0117663999999 194.55289919999998,529.0302992 194.55289919999998C529.0302992 194.55289919999998,529.048832 194.55289919999998,529.048832 194.55289919999998C529.048832 194.55289919999998,529.1600287999998 194.55289919999998,529.2526927999999 194.55289919999998C530.9206447999999 194.64556319999997,531.9028831999999 195.73899839999996,531.9028831999999 197.11042559999999C531.9028831999999 197.77760639999997,531.6804895999999 198.53745119999996,531.1245055999999 199.26023039999998C530.0681359999999 200.68725599999996,528.3445855999998 201.46563359999996,526.8434287999999 201.46563359999996C525.6758623999999 201.46563359999996,524.6750911999999 201.00231359999998,524.1932383999999 200.05714079999998C524.0449759999999 199.68648479999996,523.9708447999999 199.33436159999997,523.9708447999999 198.94517279999997C523.9708447999999 196.92509759999996,526.2318463999999 194.68262879999997,528.8264383999999 194.55289919999998">
</path>
</g>
<g class="vf-flag" pointer-events="bounding-box">
<path stroke-width="0.3" fill="#000000" stroke="none" stroke-dasharray="none" d="M531.1528831999999 172.89999999999998M530.708096 175.88378079999998L530.708096 172.992664L530.7822271999999 172.992664C530.9860879999999 172.992664,531.1158175999999 173.12239359999998,531.1528831999999 173.34478719999998C531.542072 175.19806719999997,532.7096383999999 177.21814239999998,534.3219919999999 178.73783199999997C536.1196735999999 180.42431679999999,537.0277808 182.74091679999998,537.0277808 185.13164799999998C537.0277808 187.39264959999997,536.2308704 189.74631519999997,534.6185168 191.69225919999997C534.3405247999999 192.06291519999996,534.3219919999999 192.06291519999996,534.1366639999999 192.06291519999996C533.9142703999999 192.06291519999996,533.7660079999999 191.89611999999997,533.7660079999999 191.67372639999996C533.7660079999999 191.50693119999997,533.7845408 191.4698656,533.9698687999999 191.2660048C535.3783616 189.56098719999997,536.0826079999999 187.5038464,536.0826079999999 185.5393696C536.0826079999999 183.7972864,535.5266239999999 182.12933439999998,534.3775903999999 180.86910399999996C533.6733439999999 180.09072639999997,532.3760479999999 179.34941439999997,530.7266288 178.77489759999997C530.7266288 178.75636479999997,530.708096 178.18184799999997,530.708096 175.88378079999998">
</path>
</g>
</g>
<g class="vf-modifiers">
</g>
</g>
<path stroke-width="1" fill="none" stroke="#000000" stroke-dasharray="none" d="M524.9708447999999 189.74999999999997L537.9708447999999 180.74999999999997Z">
</path>
</g>
</g>
<g class="vf-stavenote" id="vf-auto22686">
<g class="vf-note" pointer-events="bounding-box">
<g class="vf-notehead" pointer-events="bounding-box">
<path stroke-width="0.3" fill="#000000" stroke="none" stroke-dasharray="none" d="M588.0930831999999 197.99999999999997M595.4500431999999 192.77711999999997C595.5623631999999 192.77711999999997,595.7308431999999 192.77711999999997,595.7589231999999 192.77711999999997C595.7589231999999 192.77711999999997,595.7870032 192.77711999999997,595.7870032 192.77711999999997C595.7870032 192.77711999999997,595.9554831999999 192.77711999999997,596.0958831999999 192.77711999999997C598.6230831999999 192.91751999999997,600.1113231999999 194.57423999999997,600.1113231999999 196.65215999999998C600.1113231999999 197.66303999999997,599.7743631999999 198.81431999999998,598.9319631999999 199.90943999999996C597.3314032 202.07159999999996,594.7199631999999 203.25095999999996,592.4454831999999 203.25095999999996C590.6764431999999 203.25095999999996,589.1601231999999 202.54895999999997,588.4300431999999 201.11687999999998C588.2054031999999 200.55527999999998,588.0930831999999 200.02175999999997,588.0930831999999 199.43207999999998C588.0930831999999 196.37135999999998,591.5188431999999 192.97367999999997,595.4500431999999 192.77711999999997">
</path>
</g>
</g>
<g class="vf-modifiers">
</g>
</g>
<g class="vf-stavenote" id="vf-auto22696">
<g class="vf-note" pointer-events="bounding-box">
<g class="vf-notehead" pointer-events="bounding-box">
<path stroke-width="0.3" fill="#000000" stroke="none" stroke-dasharray="none" d="M652.2153215999999 197.99999999999997M659.5722815999999 192.77711999999997C659.6846016 192.77711999999997,659.8530815999999 192.77711999999997,659.8811615999999 192.77711999999997C659.8811615999999 192.77711999999997,659.9092416 192.77711999999997,659.9092416 192.77711999999997C659.9092416 192.77711999999997,660.0777215999999 192.77711999999997,660.2181215999999 192.77711999999997C662.7453215999999 192.91751999999997,664.2335615999999 194.57423999999997,664.2335615999999 196.65215999999998C664.2335615999999 197.66303999999997,663.8966015999999 198.81431999999998,663.0542015999999 199.90943999999996C661.4536416 202.07159999999996,658.8422016 203.25095999999996,656.5677215999999 203.25095999999996C654.7986815999999 203.25095999999996,653.2823616 202.54895999999997,652.5522815999999 201.11687999999998C652.3276415999999 200.55527999999998,652.2153215999999 200.02175999999997,652.2153215999999 199.43207999999998C652.2153215999999 196.37135999999998,655.6410815999999 192.97367999999997,659.5722815999999 192.77711999999997">
</path>
</g>
</g>
<g class="vf-modifiers">
<g class="vf-stavenote" id="vf-auto22706">
<g class="vf-note" pointer-events="bounding-box">
<g class="vf-stem" pointer-events="bounding-box">
<path stroke-width="1.5" fill="none" stroke="#000000" stroke-dasharray="none" d="M633.5332831999999 197.99999999999997L633.5332831999999 174.89999999999998">
</path>
</g>
<g class="vf-notehead" pointer-events="bounding-box">
<path stroke-width="0.3" fill="#000000" stroke="none" stroke-dasharray="none" d="M626.3512447999999 197.99999999999997M631.2068383999999 194.55289919999998C631.2809695999999 194.55289919999998,631.3921664 194.55289919999998,631.4106992 194.55289919999998C631.4106992 194.55289919999998,631.429232 194.55289919999998,631.429232 194.55289919999998C631.429232 194.55289919999998,631.5404287999999 194.55289919999998,631.6330927999999 194.55289919999998C633.3010447999999 194.64556319999997,634.2832831999999 195.73899839999996,634.2832831999999 197.11042559999999C634.2832831999999 197.77760639999997,634.0608895999999 198.53745119999996,633.5049055999999 199.26023039999998C632.4485359999999 200.68725599999996,630.7249855999999 201.46563359999996,629.2238287999999 201.46563359999996C628.0562623999999 201.46563359999996,627.0554911999999 201.00231359999998,626.5736383999999 200.05714079999998C626.4253759999999 199.68648479999996,626.3512447999999 199.33436159999997,626.3512447999999 198.94517279999997C626.3512447999999 196.92509759999996,628.6122463999999 194.68262879999997,631.2068383999999 194.55289919999998">
</path>
</g>
<g class="vf-flag" pointer-events="bounding-box">
<path stroke-width="0.3" fill="#000000" stroke="none" stroke-dasharray="none" d="M633.5332831999999 172.89999999999998M633.088496 175.88378079999998L633.088496 172.992664L633.1626271999999 172.992664C633.3664879999999 172.992664,633.4962175999999 173.12239359999998,633.5332831999999 173.34478719999998C633.922472 175.19806719999997,635.0900383999999 177.21814239999998,636.7023919999999 178.73783199999997C638.5000736 180.42431679999999,639.4081808 182.74091679999998,639.4081808 185.13164799999998C639.4081808 187.39264959999997,638.6112704 189.74631519999997,636.9989168 191.69225919999997C636.7209247999999 192.06291519999996,636.7023919999999 192.06291519999996,636.5170639999999 192.06291519999996C636.2946703999999 192.06291519999996,636.146408 191.89611999999997,636.146408 191.67372639999996C636.146408 191.50693119999997,636.1649408 191.4698656,636.3502687999999 191.2660048C637.7587616 189.56098719999997,638.463008 187.5038464,638.463008 185.5393696C638.463008 183.7972864,637.9070239999999 182.12933439999998,636.7579903999999 180.86910399999996C636.0537439999999 180.09072639999997,634.7564479999999 179.34941439999997,633.1070288 178.77489759999997C633.1070288 178.75636479999997,633.088496 178.18184799999997,633.088496 175.88378079999998">
</path>
</g>
</g>
<g class="vf-modifiers">
</g>
</g>
<path stroke-width="1" fill="none" stroke="#000000" stroke-dasharray="none" d="M627.3512447999999 189.74999999999997L640.3512447999999 180.74999999999997Z">
</path>
</g>
</g>
<g class="vf-stavenote" id="vf-auto22720">
<g class="vf-note" pointer-events="bounding-box">
<g class="vf-notehead" pointer-events="bounding-box">
<path stroke-width="0.3" fill="#000000" stroke="none" stroke-dasharray="none" d="M690.4734831999999 197.99999999999997M697.8304431999999 192.77711999999997C697.9427632 192.77711999999997,698.1112431999999 192.77711999999997,698.1393231999999 192.77711999999997C698.1393231999999 192.77711999999997,698.1674032 192.77711999999997,698.1674032 192.77711999999997C698.1674032 192.77711999999997,698.3358831999999 192.77711999999997,698.4762831999999 192.77711999999997C701.0034831999999 192.91751999999997,702.4917231999999 194.57423999999997,702.4917231999999 196.65215999999998C702.4917231999999 197.66303999999997,702.1547631999999 198.81431999999998,701.3123631999999 199.90943999999996C699.7118032 202.07159999999996,697.1003632 203.25095999999996,694.8258831999999 203.25095999999996C693.0568431999999 203.25095999999996,691.5405231999999 202.54895999999997,690.8104431999999 201.11687999999998C690.5858031999999 200.55527999999998,690.4734831999999 200.02175999999997,690.4734831999999 199.43207999999998C690.4734831999999 196.37135999999998,693.8992431999999 192.97367999999997,697.8304431999999 192.77711999999997">
</path>
</g>
</g>
<g class="vf-modifiers">
</g>
</g>
<g class="vf-stavenote" id="vf-auto22730">
<g class="vf-note" pointer-events="bounding-box">
<g class="vf-notehead" pointer-events="bounding-box">
<path stroke-width="0.3" fill="#000000" stroke="none" stroke-dasharray="none" d="M754.5957215999999 197.99999999999997M761.9526815999999 192.77711999999997C762.0650016 192.77711999999997,762.2334815999999 192.77711999999997,762.2615615999999 192.77711999999997C762.2615615999999 192.77711999999997,762.2896416 192.77711999999997,762.2896416 192.77711999999997C762.2896416 192.77711999999997,762.4581215999999 192.77711999999997,762.5985215999999 192.77711999999997C765.1257215999999 192.91751999999997,766.6139615999999 194.57423999999997,766.6139615999999 196.65215999999998C766.6139615999999 197.66303999999997,766.2770016 198.81431999999998,765.4346016 199.90943999999996C763.8340416 202.07159999999996,761.2226016 203.25095999999996,758.9481215999999 203.25095999999996C757.1790815999999 203.25095999999996,755.6627616 202.54895999999997,754.9326815999999 201.11687999999998C754.7080415999999 200.55527999999998,754.5957215999999 200.02175999999997,754.5957215999999 199.43207999999998C754.5957215999999 196.37135999999998,758.0214815999999 192.97367999999997,761.9526815999999 192.77711999999997">
</path>
</g>
</g>
<g class="vf-modifiers">
<g class="vf-stavenote" id="vf-auto22740">
<g class="vf-note" pointer-events="bounding-box">
<g class="vf-stem" pointer-events="bounding-box">
<path stroke-width="1.5" fill="none" stroke="#000000" stroke-dasharray="none" d="M735.9136831999999 197.99999999999997L735.9136831999999 174.89999999999998">
</path>
</g>
<g class="vf-notehead" pointer-events="bounding-box">
<path stroke-width="0.3" fill="#000000" stroke="none" stroke-dasharray="none" d="M728.7316447999999 197.99999999999997M733.5872383999999 194.55289919999998C733.6613696 194.55289919999998,733.7725664 194.55289919999998,733.7910992 194.55289919999998C733.7910992 194.55289919999998,733.809632 194.55289919999998,733.809632 194.55289919999998C733.809632 194.55289919999998,733.9208287999999 194.55289919999998,734.0134927999999 194.55289919999998C735.6814447999999 194.64556319999997,736.6636831999999 195.73899839999996,736.6636831999999 197.11042559999999C736.6636831999999 197.77760639999997,736.4412895999999 198.53745119999996,735.8853055999999 199.26023039999998C734.8289359999999 200.68725599999996,733.1053855999999 201.46563359999996,731.6042287999999 201.46563359999996C730.4366623999999 201.46563359999996,729.4358911999999 201.00231359999998,728.9540384 200.05714079999998C728.8057759999999 199.68648479999996,728.7316447999999 199.33436159999997,728.7316447999999 198.94517279999997C728.7316447999999 196.92509759999996,730.9926463999999 194.68262879999997,733.5872383999999 194.55289919999998">
</path>
</g>
<g class="vf-flag" pointer-events="bounding-box">
<path stroke-width="0.3" fill="#000000" stroke="none" stroke-dasharray="none" d="M735.9136831999999 172.89999999999998M735.468896 175.88378079999998L735.468896 172.992664L735.5430271999999 172.992664C735.7468879999999 172.992664,735.8766175999999 173.12239359999998,735.9136831999999 173.34478719999998C736.302872 175.19806719999997,737.4704383999999 177.21814239999998,739.0827919999999 178.73783199999997C740.8804736 180.42431679999999,741.7885808 182.74091679999998,741.7885808 185.13164799999998C741.7885808 187.39264959999997,740.9916704 189.74631519999997,739.3793168 191.69225919999997C739.1013247999999 192.06291519999996,739.0827919999999 192.06291519999996,738.8974639999999 192.06291519999996C738.6750703999999 192.06291519999996,738.526808 191.89611999999997,738.526808 191.67372639999996C738.526808 191.50693119999997,738.5453408 191.4698656,738.7306687999999 191.2660048C740.1391616 189.56098719999997,740.843408 187.5038464,740.843408 185.5393696C740.843408 183.7972864,740.2874239999999 182.12933439999998,739.1383903999999 180.86910399999996C738.434144 180.09072639999997,737.1368479999999 179.34941439999997,735.4874288 178.77489759999997C735.4874288 178.75636479999997,735.468896 178.18184799999997,735.468896 175.88378079999998">
</path>
</g>
</g>
<g class="vf-modifiers">
</g>
</g>
<path stroke-width="1" fill="none" stroke="#000000" stroke-dasharray="none" d="M729.7316447999999 189.74999999999997L742.7316447999999 180.74999999999997Z">
</path>
</g>
</g>
<g class="vf-stavenote" id="vf-auto22754">
<g class="vf-note" pointer-events="bounding-box">
<g class="vf-notehead" pointer-events="bounding-box">
<path stroke-width="0.3" fill="#000000" stroke="none" stroke-dasharray="none" d="M792.8538831999999 197.99999999999997M800.2108431999999 192.77711999999997C800.3231632 192.77711999999997,800.4916431999999 192.77711999999997,800.5197231999999 192.77711999999997C800.5197231999999 192.77711999999997,800.5478032 192.77711999999997,800.5478032 192.77711999999997C800.5478032 192.77711999999997,800.7162831999999 192.77711999999997,800.8566831999999 192.77711999999997C803.3838831999999 192.91751999999997,804.8721231999999 194.57423999999997,804.8721231999999 196.65215999999998C804.8721231999999 197.66303999999997,804.5351631999999 198.81431999999998,803.6927632 199.90943999999996C802.0922032 202.07159999999996,799.4807632 203.25095999999996,797.2062831999999 203.25095999999996C795.4372431999999 203.25095999999996,793.9209232 202.54895999999997,793.1908431999999 201.11687999999998C792.9662031999999 200.55527999999998,792.8538831999999 200.02175999999997,792.8538831999999 199.43207999999998C792.8538831999999 196.37135999999998,796.2796431999999 192.97367999999997,800.2108431999999 192.77711999999997">
</path>
</g>
</g>
<g class="vf-modifiers">
</g>
</g>
<path stroke-width="1.5" fill="none" stroke="#000000" stroke-dasharray="none" d="M458.72276159999996 197.99999999999997L458.72276159999996 163.74999999999997">
</path>
<path stroke-width="1.5" fill="none" stroke="#000000" stroke-dasharray="none" d="M496.98092319999995 197.99999999999997L496.98092319999995 163.74999999999997">
</path>
<path stroke-width="1.5" fill="none" stroke="#000000" stroke-dasharray="none" d="M561.1031615999999 197.99999999999997L561.1031615999999 163.74999999999997">
</path>
<path stroke-width="1.5" fill="none" stroke="#000000" stroke-dasharray="none" d="M599.3613231999999 197.99999999999997L599.3613231999999 163.74999999999997">
</path>
<path stroke-width="0.3" fill="#000000" stroke="none" stroke-dasharray="none" d="M457.97276159999996 162.99999999999997L457.97276159999996 167.99999999999997L599.6113231999999 167.99999999999997L599.6113231999999 162.99999999999997Z">
</path>
<path stroke-width="0.3" fill="#000000" stroke="none" stroke-dasharray="none" d="M457.97276159999996 170.49999999999997L457.97276159999996 175.49999999999997L599.6113231999999 175.49999999999997L599.6113231999999 170.49999999999997Z">
</path>
<path stroke-width="1.5" fill="none" stroke="#000000" stroke-dasharray="none" d="M663.4835615999999 197.99999999999997L663.4835615999999 163.74999999999997">
</path>
<path stroke-width="1.5" fill="none" stroke="#000000" stroke-dasharray="none" d="M701.7417231999999 197.99999999999997L701.7417231999999 163.74999999999997">
</path>
<path stroke-width="1.5" fill="none" stroke="#000000" stroke-dasharray="none" d="M765.8639615999999 197.99999999999997L765.8639615999999 163.74999999999997">
</path>
<path stroke-width="1.5" fill="none" stroke="#000000" stroke-dasharray="none" d="M804.1221231999999 197.99999999999997L804.1221231999999 163.74999999999997">
</path>
<path stroke-width="0.3" fill="#000000" stroke="none" stroke-dasharray="none" d="M662.7335615999999 162.99999999999997L662.7335615999999 167.99999999999997L804.3721231999999 167.99999999999997L804.3721231999999 162.99999999999997Z">
</path>
<path stroke-width="0.3" fill="#000000" stroke="none" stroke-dasharray="none" d="M662.7335615999999 170.49999999999997L662.7335615999999 175.49999999999997L804.3721231999999 175.49999999999997L804.3721231999999 170.49999999999997Z">
</path>
</svg>