<svg width="1536" height="331.99999999999994" viewBox="0 0 1536 331.99999999999994">
<path stroke-width="1" fill="none" stroke="black" stroke-dasharray="none" d="M50 197.99999999999997L668.0752839679999 197.99999999999997">
</path>
<rect stroke-width="0.3" fill="black" stroke="black" stroke-dasharray="none" x="668.0752839679999" y="177.49999999999997" width="1" height="41">
</rect>
<path stroke-width="0.3" fill="black" stroke="none" stroke-dasharray="none" d="M55 197.99999999999997M55 197.99999999999997L55 188.00639999999999L57.1888 188.00639999999999L59.4064 188.00639999999999L59.4064 197.99999999999997L59.4064 208.02239999999998L57.1888 208.02239999999998L55 208.02239999999998L55 197.99999999999997M63.870400000000004 198.02879999999996L63.870400000000004 188.00639999999999L66.1168 188.00639999999999L68.3632 188.00639999999999L68.3632 198.02879999999996L68.3632 208.02239999999998L66.1168 208.02239999999998L63.870400000000004 208.02239999999998L63.870400000000004 198.02879999999996">
</path>
<path stroke-width="0.3" fill="black" stroke="none" stroke-dasharray="none" d="M96 197.99999999999997M101.0112 179.65439999999998C101.04 179.62559999999996,101.4432 179.62559999999996,102.6816 179.62559999999996C103.056 179.62559999999996,103.4592 179.62559999999996,103.9776 179.62559999999996L106.8864 179.62559999999996L106.9728 179.71199999999996C107.1168 179.79839999999996,107.2032 179.94239999999996,107.2032 180.05759999999998C107.2032 180.23039999999997,107.1168 180.34559999999996,107.0016 180.46079999999998C106.9728 180.54719999999998,106.7136 180.77759999999998,106.5408 181.03679999999997L105.0144 182.79359999999997L103.056 185.01119999999997L102.0192 186.19199999999998L100.464 187.97759999999997L98.4192 190.31039999999996C98.0736 190.74239999999998,97.6992 191.08799999999997,97.6992 191.08799999999997C97.6992 191.08799999999997,97.6992 191.08799999999997,97.6992 191.08799999999997C97.6992 191.14559999999997,97.9584 191.14559999999997,100.3488 191.14559999999997L102.9696 191.14559999999997L102.9696 189.27359999999996C102.9696 187.37279999999998,102.9696 187.34399999999997,102.9984 187.31519999999998C103.056 187.22879999999998,103.3152 186.91199999999998,104.3232 185.73119999999997L104.7264 185.29919999999998L105.1296 184.86719999999997L105.7344 184.08959999999996L106.368 183.42719999999997L106.6848 183.02399999999997C106.8 182.85119999999998,106.9728 182.82239999999996,107.1168 182.82239999999996C107.28960000000001 182.82239999999996,107.4336 182.90879999999999,107.52 183.05279999999996C107.5488 183.13919999999996,107.5488 183.19679999999997,107.5488 185.32799999999997C107.5488 185.81759999999997,107.5488 186.42239999999998,107.5488 187.14239999999998L107.5488 191.14559999999997L108.2688 191.14559999999997C108.9312 191.14559999999997,108.96 191.14559999999997,109.0464 191.17439999999996C109.2768 191.26079999999996,109.392 191.49119999999996,109.392 191.75039999999998C109.392 191.89439999999996,109.3632 192.06719999999999,109.248 192.18239999999997C109.0752 192.32639999999998,109.0464 192.32639999999998,108.2688 192.32639999999998L107.5488 192.32639999999998L107.5488 192.81599999999997C107.5776 194.28479999999996,107.8656 194.86079999999998,108.9888 195.46559999999997C109.392 195.66719999999998,109.4784 195.72479999999996,109.4784 196.01279999999997C109.4784 196.21439999999998,109.4208 196.30079999999998,109.2768 196.41599999999997L109.1904 196.44479999999996L105.2448 196.44479999999996L101.328 196.44479999999996L101.2416 196.41599999999997C101.0688 196.30079999999998,101.04 196.21439999999998,101.04 196.01279999999997C101.04 195.72479999999996,101.0688 195.66719999999998,101.5008 195.46559999999997C102.624 194.86079999999998,102.912 194.28479999999996,102.912 192.81599999999997L102.912 192.32639999999998L99.6 192.32639999999998C98.9952 192.38399999999996,98.5056 192.38399999999996,98.1024 192.38399999999996C96.288 192.38399999999996,96.2592 192.32639999999998,96.2304 192.32639999999998C96.0576 192.26879999999997,96 192.09599999999998,96 191.89439999999996C96 191.89439999999996,96 191.89439999999996,96 191.89439999999996C96 191.69279999999998,96 191.69279999999998,96.576 191.0304C98.9952 188.09279999999998,100.6944 183.83039999999997,100.6944 180.43199999999996C100.6944 179.91359999999997,100.7808 179.74079999999998,101.0112 179.65439999999998M102.7392 198.02879999999996L102.768 198.02879999999996L102.6816 198.02879999999996L102.7392 198.02879999999996M102.7392 178.61759999999998L102.768 178.61759999999998L102.6816 178.61759999999998L102.7392 178.61759999999998">
</path>
<path stroke-width="0.3" fill="black" stroke="none" stroke-dasharray="none" d="M96 217.99999999999997M101.0112 199.65439999999998C101.04 199.62559999999996,101.4432 199.62559999999996,102.6816 199.62559999999996C103.056 199.62559999999996,103.4592 199.62559999999996,103.9776 199.62559999999996L106.8864 199.62559999999996L106.9728 199.71199999999996C107.1168 199.79839999999996,107.2032 199.94239999999996,107.2032 200.05759999999998C107.2032 200.23039999999997,107.1168 200.34559999999996,107.0016 200.46079999999998C106.9728 200.54719999999998,106.7136 200.77759999999998,106.5408 201.03679999999997L105.0144 202.79359999999997L103.056 205.01119999999997L102.0192 206.19199999999998L100.464 207.97759999999997L98.4192 210.31039999999996C98.0736 210.74239999999998,97.6992 211.08799999999997,97.6992 211.08799999999997C97.6992 211.08799999999997,97.6992 211.08799999999997,97.6992 211.08799999999997C97.6992 211.14559999999997,97.9584 211.14559999999997,100.3488 211.14559999999997L102.9696 211.14559999999997L102.9696 209.27359999999996C102.9696 207.37279999999998,102.9696 207.34399999999997,102.9984 207.31519999999998C103.056 207.22879999999998,103.3152 206.91199999999998,104.3232 205.73119999999997L104.7264 205.29919999999998L105.1296 204.86719999999997L105.7344 204.08959999999996L106.368 203.42719999999997L106.6848 203.02399999999997C106.8 202.85119999999998,106.9728 202.82239999999996,107.1168 202.82239999999996C107.28960000000001 202.82239999999996,107.4336 202.90879999999999,107.52 203.05279999999996C107.5488 203.13919999999996,107.5488 203.19679999999997,107.5488 205.32799999999997C107.5488 205.81759999999997,107.5488 206.42239999999998,107.5488 207.14239999999998L107.5488 211.14559999999997L108.2688 211.14559999999997C108.9312 211.14559999999997,108.96 211.14559999999997,109.0464 211.17439999999996C109.2768 211.26079999999996,109.392 211.49119999999996,109.392 211.75039999999998C109.392 211.89439999999996,109.3632 212.06719999999999,109.248 212.18239999999997C109.0752 212.32639999999998,109.0464 212.32639999999998,108.2688 212.32639999999998L107.5488 212.32639999999998L107.5488 212.81599999999997C107.5776 214.28479999999996,107.8656 214.86079999999998,108.9888 215.46559999999997C109.392 215.66719999999998,109.4784 215.72479999999996,109.4784 216.01279999999997C109.4784 216.21439999999998,109.4208 216.30079999999998,109.2768 216.41599999999997L109.1904 216.44479999999996L105.2448 216.44479999999996L101.328 216.44479999999996L101.2416 216.41599999999997C101.0688 216.30079999999998,101.04 216.21439999999998,101.04 216.01279999999997C101.04 215.72479999999996,101.0688 215.66719999999998,101.5008 215.46559999999997C102.624 214.86079999999998,102.912 214.28479999999996,102.912 212.81599999999997L102.912 212.32639999999998L99.6 212.32639999999998C98.9952 212.38399999999996,98.5056 212.38399999999996,98.1024 212.38399999999996C96.288 212.38399999999996,96.2592 212.32639999999998,96.2304 212.32639999999998C96.0576 212.26879999999997,96 212.09599999999998,96 211.89439999999996C96 211.89439999999996,96 211.89439999999996,96 211.89439999999996C96 211.69279999999998,96 211.69279999999998,96.576 211.0304C98.9952 208.09279999999998,100.6944 203.83039999999997,100.6944 200.43199999999996C100.6944 199.91359999999997,100.7808 199.74079999999998,101.0112 199.65439999999998M102.7392 218.02879999999996L102.768 218.02879999999996L102.6816 218.02879999999996L102.7392 218.02879999999996M102.7392 198.61759999999998L102.768 198.61759999999998L102.6816 198.61759999999998L102.7392 198.61759999999998">
</path>
<g class="vf-stavenote" id="vf-auto17063">
<g class="vf-note" pointer-events="bounding-box">
<g class="vf-notehead" pointer-events="bounding-box">
<path stroke-width="0.3" fill="#000000" stroke="none" stroke-dasharray="none" d="M147.3424768 197.99999999999997M154.69943679999997 192.77711999999997C154.81175679999998 192.77711999999997,154.9802368 192.77711999999997,155.0083168 192.77711999999997C155.0083168 192.77711999999997,155.03639679999998 192.77711999999997,155.03639679999998 192.77711999999997C155.03639679999998 192.77711999999997,155.2048768 192.77711999999997,155.3452768 192.77711999999997C157.8724768 192.91751999999997,159.36071679999998 194.57423999999997,159.36071679999998 196.65215999999998C159.36071679999998 197.66303999999997,159.0237568 198.81431999999998,158.18135679999997 199.90943999999996C156.58079679999997 202.07159999999996,153.96935679999999 203.25095999999996,151.69487679999997 203.25095999999996C149.92583679999998 203.25095999999996,148.40951679999998 202.54895999999997,147.6794368 201.11687999999998C147.4547968 200.55527999999998,147.3424768 200.02175999999997,147.3424768 199.43207999999998C147.3424768 196.37135999999998,150.76823679999998 192.97367999999997,154.69943679999997 192.77711999999997">
</path>
</g>
</g>
<g class="vf-modifiers">
<g class="vf-stavenote" id="vf-auto17073">
<g class="vf-note" pointer-events="bounding-box">
<g class="vf-stem" pointer-events="bounding-box">
<path stroke-width="1.5" fill="none" stroke="#000000" stroke-dasharray="none" d="M128.6604384 197.99999999999997L128.6604384 174.89999999999998">
</path>
</g>
<g class="vf-notehead" pointer-events="bounding-box">
<path stroke-width="0.3" fill="#000000" stroke="none" stroke-dasharray="none" d="M121.4784 197.99999999999997M126.3339936 194.55289919999998C126.4081248 194.55289919999998,126.5193216 194.55289919999998,126.5378544 194.55289919999998C126.5378544 194.55289919999998,126.55638719999999 194.55289919999998,126.55638719999999 194.55289919999998C126.55638719999999 194.55289919999998,126.66758399999999 194.55289919999998,126.76024799999999 194.55289919999998C128.4282 194.64556319999997,129.4104384 195.73899839999996,129.4104384 197.11042559999999C129.4104384 197.77760639999997,129.1880448 198.53745119999996,128.6320608 199.26023039999998C127.5756912 200.68725599999996,125.8521408 201.46563359999996,124.350984 201.46563359999996C123.1834176 201.46563359999996,122.1826464 201.00231359999998,121.7007936 200.05714079999998C121.55253119999999 199.68648479999996,121.4784 199.33436159999997,121.4784 198.94517279999997C121.4784 196.92509759999996,123.7394016 194.68262879999997,126.3339936 194.55289919999998">
</path>
</g>
<g class="vf-flag" pointer-events="bounding-box">
<path stroke-width="0.3" fill="#000000" stroke="none" stroke-dasharray="none" d="M128.6604384 172.89999999999998M128.2156512 175.88378079999998L128.2156512 172.992664L128.2897824 172.992664C128.4936432 172.992664,128.6233728 173.12239359999998,128.6604384 173.34478719999998C129.0496272 175.19806719999997,130.2171936 177.21814239999998,131.8295472 178.73783199999997C133.6272288 180.42431679999999,134.535336 182.74091679999998,134.535336 185.13164799999998C134.535336 187.39264959999997,133.7384256 189.74631519999997,132.126072 191.69225919999997C131.84808 192.06291519999996,131.8295472 192.06291519999996,131.6442192 192.06291519999996C131.4218256 192.06291519999996,131.2735632 191.89611999999997,131.2735632 191.67372639999996C131.2735632 191.50693119999997,131.29209600000002 191.4698656,131.477424 191.2660048C132.88591680000002 189.56098719999997,133.5901632 187.5038464,133.5901632 185.5393696C133.5901632 183.7972864,133.0341792 182.12933439999998,131.88514560000002 180.86910399999996C131.1808992 180.09072639999997,129.8836032 179.34941439999997,128.234184 178.77489759999997C128.234184 178.75636479999997,128.2156512 178.18184799999997,128.2156512 175.88378079999998">
</path>
</g>
</g>
<g class="vf-modifiers">
</g>
</g>
<path stroke-width="1" fill="none" stroke="#000000" stroke-dasharray="none" d="M122.4784 189.74999999999997L135.4784 180.74999999999997Z">
</path>
</g>
</g>
<g class="vf-stavenote" id="vf-auto17087">
<g class="vf-note" pointer-events="bounding-box">
<g class="vf-notehead" pointer-events="bounding-box">
<path stroke-width="0.3" fill="#000000" stroke="none" stroke-dasharray="none" d="M189.46195840000001 197.99999999999997M196.8189184 192.77711999999997C196.9312384 192.77711999999997,197.09971840000003 192.77711999999997,197.12779840000002 192.77711999999997C197.12779840000002 192.77711999999997,197.1558784 192.77711999999997,197.1558784 192.77711999999997C197.1558784 192.77711999999997,197.32435840000002 192.77711999999997,197.46475840000002 192.77711999999997C199.99195840000002 192.91751999999997,201.4801984 194.57423999999997,201.4801984 196.65215999999998C201.4801984 197.66303999999997,201.14323840000003 198.81431999999998,200.3008384 199.90943999999996C198.7002784 202.07159999999996,196.08883840000001 203.25095999999996,193.8143584 203.25095999999996C192.0453184 203.25095999999996,190.5289984 202.54895999999997,189.79891840000002 201.11687999999998C189.57427840000003 200.55527999999998,189.46195840000001 200.02175999999997,189.46195840000001 199.43207999999998C189.46195840000001 196.37135999999998,192.8877184 192.97367999999997,196.8189184 192.77711999999997">
</path>
</g>
</g>
<g class="vf-modifiers">
</g>
</g>
<g class="vf-stavenote" id="vf-auto17097">
<g class="vf-note" pointer-events="bounding-box">
<g class="vf-notehead" pointer-events="bounding-box">
<path stroke-width="0.3" fill="#000000" stroke="none" stroke-dasharray="none" d="M219.53081920000002 197.99999999999997M226.8877792 192.77711999999997C227.00009920000002 192.77711999999997,227.1685792 192.77711999999997,227.19665920000003 192.77711999999997C227.19665920000003 192.77711999999997,227.22473920000002 192.77711999999997,227.22473920000002 192.77711999999997C227.22473920000002 192.77711999999997,227.39321920000003 192.77711999999997,227.53361920000003 192.77711999999997C230.06081920000003 192.91751999999997,231.54905920000002 194.57423999999997,231.54905920000002 196.65215999999998C231.54905920000002 197.66303999999997,231.2120992 198.81431999999998,230.3696992 199.90943999999996C228.7691392 202.07159999999996,226.15769920000002 203.25095999999996,223.8832192 203.25095999999996C222.11417920000002 203.25095999999996,220.59785920000002 202.54895999999997,219.86777920000003 201.11687999999998C219.64313920000004 200.55527999999998,219.53081920000002 200.02175999999997,219.53081920000002 199.43207999999998C219.53081920000002 196.37135999999998,222.95657920000002 192.97367999999997,226.8877792 192.77711999999997">
</path>
</g>
</g>
<g class="vf-modifiers">
</g>
</g>
<g class="vf-stavenote" id="vf-auto17107">
<g class="vf-note" pointer-events="bounding-box">
<g class="vf-notehead" pointer-events="bounding-box">
<path stroke-width="0.3" fill="#000000" stroke="none" stroke-dasharray="none" d="M275.46375680000006 197.99999999999997M282.82071680000007 192.77711999999997C282.9330368000001 192.77711999999997,283.10151680000007 192.77711999999997,283.12959680000006 192.77711999999997C283.12959680000006 192.77711999999997,283.15767680000005 192.77711999999997,283.15767680000005 192.77711999999997C283.15767680000005 192.77711999999997,283.32615680000004 192.77711999999997,283.46655680000003 192.77711999999997C285.9937568 192.91751999999997,287.48199680000005 194.57423999999997,287.48199680000005 196.65215999999998C287.48199680000005 197.66303999999997,287.14503680000007 198.81431999999998,286.3026368000001 199.90943999999996C284.70207680000004 202.07159999999996,282.0906368000001 203.25095999999996,279.81615680000004 203.25095999999996C278.0471168000001 203.25095999999996,276.5307968000001 202.54895999999997,275.80071680000003 201.11687999999998C275.57607680000007 200.55527999999998,275.46375680000006 200.02175999999997,275.46375680000006 199.43207999999998C275.46375680000006 196.37135999999998,278.8895168000001 192.97367999999997,282.82071680000007 192.77711999999997">
</path>
</g>
</g>
<g class="vf-modifiers">
<g class="vf-stavenote" id="vf-auto17117">
<g class="vf-note" pointer-events="bounding-box">
<g class="vf-stem" pointer-events="bounding-box">
<path stroke-width="1.5" fill="none" stroke="#000000" stroke-dasharray="none" d="M256.78171840000005 197.99999999999997L256.78171840000005 174.89999999999998">
</path>
</g>
<g class="vf-notehead" pointer-events="bounding-box">
<path stroke-width="0.3" fill="#000000" stroke="none" stroke-dasharray="none" d="M249.59968000000003 197.99999999999997M254.45527360000003 194.55289919999998C254.52940480000004 194.55289919999998,254.64060160000002 194.55289919999998,254.65913440000003 194.55289919999998C254.65913440000003 194.55289919999998,254.67766720000003 194.55289919999998,254.67766720000003 194.55289919999998C254.67766720000003 194.55289919999998,254.78886400000005 194.55289919999998,254.88152800000003 194.55289919999998C256.54948 194.64556319999997,257.53171840000005 195.73899839999996,257.53171840000005 197.11042559999999C257.53171840000005 197.77760639999997,257.3093248 198.53745119999996,256.75334080000005 199.26023039999998C255.69697120000004 200.68725599999996,253.97342080000004 201.46563359999996,252.47226400000002 201.46563359999996C251.30469760000003 201.46563359999996,250.30392640000002 201.00231359999998,249.82207360000004 200.05714079999998C249.67381120000005 199.68648479999996,249.59968000000003 199.33436159999997,249.59968000000003 198.94517279999997C249.59968000000003 196.92509759999996,251.86068160000002 194.68262879999997,254.45527360000003 194.55289919999998">
</path>
</g>
<g class="vf-flag" pointer-events="bounding-box">
<path stroke-width="0.3" fill="#000000" stroke="none" stroke-dasharray="none" d="M256.78171840000005 172.89999999999998M256.33693120000004 175.88378079999998L256.33693120000004 172.992664L256.41106240000005 172.992664C256.6149232 172.992664,256.74465280000004 173.12239359999998,256.78171840000005 173.34478719999998C257.17090720000004 175.19806719999997,258.33847360000004 177.21814239999998,259.95082720000005 178.73783199999997C261.7485088 180.42431679999999,262.65661600000004 182.74091679999998,262.65661600000004 185.13164799999998C262.65661600000004 187.39264959999997,261.85970560000004 189.74631519999997,260.24735200000003 191.69225919999997C259.96936000000005 192.06291519999996,259.95082720000005 192.06291519999996,259.7654992 192.06291519999996C259.54310560000005 192.06291519999996,259.3948432 191.89611999999997,259.3948432 191.67372639999996C259.3948432 191.50693119999997,259.413376 191.4698656,259.59870400000005 191.2660048C261.00719680000003 189.56098719999997,261.7114432 187.5038464,261.7114432 185.5393696C261.7114432 183.7972864,261.15545920000005 182.12933439999998,260.00642560000006 180.86910399999996C259.30217920000007 180.09072639999997,258.00488320000005 179.34941439999997,256.35546400000004 178.77489759999997C256.35546400000004 178.75636479999997,256.33693120000004 178.18184799999997,256.33693120000004 175.88378079999998">
</path>
</g>
</g>
<g class="vf-modifiers">
</g>
</g>
<path stroke-width="1" fill="none" stroke="#000000" stroke-dasharray="none" d="M250.59968000000003 189.74999999999997L263.59968000000003 180.74999999999997Z">
</path>
</g>
</g>
<g class="vf-stavenote" id="vf-auto17131">
<g class="vf-note" pointer-events="bounding-box">
<g class="vf-notehead" pointer-events="bounding-box">
<path stroke-width="0.3" fill="#000000" stroke="none" stroke-dasharray="none" d="M317.5832384 197.99999999999997M324.94019840000004 192.77711999999997C325.05251840000005 192.77711999999997,325.22099840000004 192.77711999999997,325.24907840000003 192.77711999999997C325.24907840000003 192.77711999999997,325.2771584 192.77711999999997,325.2771584 192.77711999999997C325.2771584 192.77711999999997,325.4456384 192.77711999999997,325.5860384 192.77711999999997C328.1132384 192.91751999999997,329.6014784 194.57423999999997,329.6014784 196.65215999999998C329.6014784 197.66303999999997,329.26451840000004 198.81431999999998,328.42211840000004 199.90943999999996C326.8215584 202.07159999999996,324.21011840000006 203.25095999999996,321.9356384 203.25095999999996C320.16659840000005 203.25095999999996,318.65027840000005 202.54895999999997,317.9201984 201.11687999999998C317.69555840000004 200.55527999999998,317.5832384 200.02175999999997,317.5832384 199.43207999999998C317.5832384 196.37135999999998,321.00899840000005 192.97367999999997,324.94019840000004 192.77711999999997">
</path>
</g>
</g>
<g class="vf-modifiers">
</g>
</g>
<g class="vf-stavenote" id="vf-auto17141">
<g class="vf-note" pointer-events="bounding-box">
<g class="vf-notehead" pointer-events="bounding-box">
<path stroke-width="0.3" fill="#000000" stroke="none" stroke-dasharray="none" d="M347.65209920000007 197.99999999999997M355.0090592000001 192.77711999999997C355.1213792000001 192.77711999999997,355.2898592000001 192.77711999999997,355.31793920000007 192.77711999999997C355.31793920000007 192.77711999999997,355.34601920000006 192.77711999999997,355.34601920000006 192.77711999999997C355.34601920000006 192.77711999999997,355.51449920000005 192.77711999999997,355.65489920000005 192.77711999999997C358.18209920000004 192.91751999999997,359.67033920000006 194.57423999999997,359.67033920000006 196.65215999999998C359.67033920000006 197.66303999999997,359.3333792000001 198.81431999999998,358.4909792000001 199.90943999999996C356.89041920000005 202.07159999999996,354.2789792000001 203.25095999999996,352.00449920000005 203.25095999999996C350.2354592000001 203.25095999999996,348.7191392000001 202.54895999999997,347.98905920000004 201.11687999999998C347.7644192000001 200.55527999999998,347.65209920000007 200.02175999999997,347.65209920000007 199.43207999999998C347.65209920000007 196.37135999999998,351.0778592000001 192.97367999999997,355.0090592000001 192.77711999999997">
</path>
</g>
</g>
<g class="vf-modifiers">
</g>
</g>
<g class="vf-stavenote" id="vf-auto17151">
<g class="vf-note" pointer-events="bounding-box">
<g class="vf-notehead" pointer-events="bounding-box">
<path stroke-width="0.3" fill="#000000" stroke="none" stroke-dasharray="none" d="M403.5850368 197.99999999999997M410.9419968 192.77711999999997C411.05431680000004 192.77711999999997,411.2227968 192.77711999999997,411.2508768 192.77711999999997C411.2508768 192.77711999999997,411.2789568 192.77711999999997,411.2789568 192.77711999999997C411.2789568 192.77711999999997,411.4474368 192.77711999999997,411.5878368 192.77711999999997C414.1150368 192.91751999999997,415.6032768 194.57423999999997,415.6032768 196.65215999999998C415.6032768 197.66303999999997,415.2663168 198.81431999999998,414.42391680000003 199.90943999999996C412.8233568 202.07159999999996,410.21191680000004 203.25095999999996,407.9374368 203.25095999999996C406.16839680000004 203.25095999999996,404.65207680000003 202.54895999999997,403.9219968 201.11687999999998C403.6973568 200.55527999999998,403.5850368 200.02175999999997,403.5850368 199.43207999999998C403.5850368 196.37135999999998,407.01079680000004 192.97367999999997,410.9419968 192.77711999999997">
</path>
</g>
</g>
<g class="vf-modifiers">
<g class="vf-stavenote" id="vf-auto17161">
<g class="vf-note" pointer-events="bounding-box">
<g class="vf-stem" pointer-events="bounding-box">
<path stroke-width="1.5" fill="none" stroke="#000000" stroke-dasharray="none" d="M384.9029984 197.99999999999997L384.9029984 174.89999999999998">
</path>
</g>
<g class="vf-notehead" pointer-events="bounding-box">
<path stroke-width="0.3" fill="#000000" stroke="none" stroke-dasharray="none" d="M377.72096 197.99999999999997M382.5765536 194.55289919999998C382.65068479999996 194.55289919999998,382.7618816 194.55289919999998,382.7804144 194.55289919999998C382.7804144 194.55289919999998,382.7989472 194.55289919999998,382.7989472 194.55289919999998C382.7989472 194.55289919999998,382.910144 194.55289919999998,383.002808 194.55289919999998C384.67076 194.64556319999997,385.6529984 195.73899839999996,385.6529984 197.11042559999999C385.6529984 197.77760639999997,385.43060479999997 198.53745119999996,384.8746208 199.26023039999998C383.81825119999996 200.68725599999996,382.0947008 201.46563359999996,380.593544 201.46563359999996C379.4259776 201.46563359999996,378.4252064 201.00231359999998,377.94335359999997 200.05714079999998C377.7950912 199.68648479999996,377.72096 199.33436159999997,377.72096 198.94517279999997C377.72096 196.92509759999996,379.9819616 194.68262879999997,382.5765536 194.55289919999998">
</path>
</g>
<g class="vf-flag" pointer-events="bounding-box">
<path stroke-width="0.3" fill="#000000" stroke="none" stroke-dasharray="none" d="M384.9029984 172.89999999999998M384.4582112 175.88378079999998L384.4582112 172.992664L384.5323424 172.992664C384.7362032 172.992664,384.8659328 173.12239359999998,384.9029984 173.34478719999998C385.2921872 175.19806719999997,386.4597536 177.21814239999998,388.0721072 178.73783199999997C389.8697888 180.42431679999999,390.777896 182.74091679999998,390.777896 185.13164799999998C390.777896 187.39264959999997,389.9809856 189.74631519999997,388.368632 191.69225919999997C388.09064 192.06291519999996,388.0721072 192.06291519999996,387.8867792 192.06291519999996C387.6643856 192.06291519999996,387.5161232 191.89611999999997,387.5161232 191.67372639999996C387.5161232 191.50693119999997,387.534656 191.4698656,387.719984 191.2660048C389.1284768 189.56098719999997,389.8327232 187.5038464,389.8327232 185.5393696C389.8327232 183.7972864,389.2767392 182.12933439999998,388.1277056 180.86910399999996C387.4234592 180.09072639999997,386.1261632 179.34941439999997,384.476744 178.77489759999997C384.476744 178.75636479999997,384.4582112 178.18184799999997,384.4582112 175.88378079999998">
</path>
</g>
</g>
<g class="vf-modifiers">
</g>
</g>
<path stroke-width="1" fill="none" stroke="#000000" stroke-dasharray="none" d="M378.72096 189.74999999999997L391.72096 180.74999999999997Z">
</path>
</g>
</g>
<g class="vf-stavenote" id="vf-auto17175">
<g class="vf-note" pointer-events="bounding-box">
<g class="vf-notehead" pointer-events="bounding-box">
<path stroke-width="0.3" fill="#000000" stroke="none" stroke-dasharray="none" d="M433.65389760000005 197.99999999999997M441.01085760000007 192.77711999999997C441.1231776000001 192.77711999999997,441.29165760000006 192.77711999999997,441.31973760000005 192.77711999999997C441.31973760000005 192.77711999999997,441.34781760000004 192.77711999999997,441.34781760000004 192.77711999999997C441.34781760000004 192.77711999999997,441.51629760000003 192.77711999999997,441.65669760000003 192.77711999999997C444.1838976 192.91751999999997,445.67213760000004 194.57423999999997,445.67213760000004 196.65215999999998C445.67213760000004 197.66303999999997,445.33517760000007 198.81431999999998,444.49277760000007 199.90943999999996C442.89221760000004 202.07159999999996,440.2807776000001 203.25095999999996,438.00629760000004 203.25095999999996C436.2372576000001 203.25095999999996,434.72093760000007 202.54895999999997,433.9908576 201.11687999999998C433.76621760000006 200.55527999999998,433.65389760000005 200.02175999999997,433.65389760000005 199.43207999999998C433.65389760000005 196.37135999999998,437.0796576000001 192.97367999999997,441.01085760000007 192.77711999999997">
</path>
</g>
</g>
<g class="vf-modifiers">
</g>
</g>
<g class="vf-stavenote" id="vf-auto17185">
<g class="vf-note" pointer-events="bounding-box">
<g class="vf-notehead" pointer-events="bounding-box">
<path stroke-width="0.3" fill="#000000" stroke="none" stroke-dasharray="none" d="M463.7227584 197.99999999999997M471.0797184 192.77711999999997C471.1920384 192.77711999999997,471.3605184 192.77711999999997,471.3885984 192.77711999999997C471.3885984 192.77711999999997,471.41667839999997 192.77711999999997,471.41667839999997 192.77711999999997C471.41667839999997 192.77711999999997,471.58515839999995 192.77711999999997,471.72555839999995 192.77711999999997C474.25275839999995 192.91751999999997,475.74099839999997 194.57423999999997,475.74099839999997 196.65215999999998C475.74099839999997 197.66303999999997,475.4040384 198.81431999999998,474.5616384 199.90943999999996C472.96107839999996 202.07159999999996,470.3496384 203.25095999999996,468.07515839999996 203.25095999999996C466.3061184 203.25095999999996,464.7897984 202.54895999999997,464.05971839999995 201.11687999999998C463.8350784 200.55527999999998,463.7227584 200.02175999999997,463.7227584 199.43207999999998C463.7227584 196.37135999999998,467.1485184 192.97367999999997,471.0797184 192.77711999999997">
</path>
</g>
</g>
<g class="vf-modifiers">
</g>
</g>
<g class="vf-stavenote" id="vf-auto17195">
<g class="vf-note" pointer-events="bounding-box">
<g class="vf-notehead" pointer-events="bounding-box">
<path stroke-width="0.3" fill="#000000" stroke="none" stroke-dasharray="none" d="M493.7916192 197.99999999999997M501.14857920000003 192.77711999999997C501.26089920000004 192.77711999999997,501.4293792 192.77711999999997,501.4574592 192.77711999999997C501.4574592 192.77711999999997,501.4855392 192.77711999999997,501.4855392 192.77711999999997C501.4855392 192.77711999999997,501.6540192 192.77711999999997,501.7944192 192.77711999999997C504.3216192 192.91751999999997,505.8098592 194.57423999999997,505.8098592 196.65215999999998C505.8098592 197.66303999999997,505.47289920000003 198.81431999999998,504.63049920000003 199.90943999999996C503.0299392 202.07159999999996,500.41849920000004 203.25095999999996,498.1440192 203.25095999999996C496.37497920000004 203.25095999999996,494.85865920000003 202.54895999999997,494.1285792 201.11687999999998C493.9039392 200.55527999999998,493.7916192 200.02175999999997,493.7916192 199.43207999999998C493.7916192 196.37135999999998,497.21737920000004 192.97367999999997,501.14857920000003 192.77711999999997">
</path>
</g>
</g>
<g class="vf-modifiers">
</g>
</g>
<g class="vf-stavenote" id="vf-auto17205">
<g class="vf-note" pointer-events="bounding-box">
<g class="vf-notehead" pointer-events="bounding-box">
<path stroke-width="0.3" fill="#000000" stroke="none" stroke-dasharray="none" d="M549.7245568000001 197.99999999999997M557.0815168 192.77711999999997C557.1938368000001 192.77711999999997,557.3623168 192.77711999999997,557.3903968000001 192.77711999999997C557.3903968000001 192.77711999999997,557.4184768000001 192.77711999999997,557.4184768000001 192.77711999999997C557.4184768000001 192.77711999999997,557.5869568 192.77711999999997,557.7273568 192.77711999999997C560.2545568 192.91751999999997,561.7427968000001 194.57423999999997,561.7427968000001 196.65215999999998C561.7427968000001 197.66303999999997,561.4058368000001 198.81431999999998,560.5634368000001 199.90943999999996C558.9628768000001 202.07159999999996,556.3514368000001 203.25095999999996,554.0769568000001 203.25095999999996C552.3079168 203.25095999999996,550.7915968000001 202.54895999999997,550.0615168 201.11687999999998C549.8368768 200.55527999999998,549.7245568000001 200.02175999999997,549.7245568000001 199.43207999999998C549.7245568000001 196.37135999999998,553.1503168 192.97367999999997,557.0815168 192.77711999999997">
</path>
</g>
</g>
<g class="vf-modifiers">
<g class="vf-stavenote" id="vf-auto17215">
<g class="vf-note" pointer-events="bounding-box">
<g class="vf-stem" pointer-events="bounding-box">
<path stroke-width="1.5" fill="none" stroke="#000000" stroke-dasharray="none" d="M531.0425184000001 197.99999999999997L531.0425184000001 174.89999999999998">
</path>
</g>
<g class="vf-notehead" pointer-events="bounding-box">
<path stroke-width="0.3" fill="#000000" stroke="none" stroke-dasharray="none" d="M523.86048 197.99999999999997M528.7160736000001 194.55289919999998C528.7902048000001 194.55289919999998,528.9014016000001 194.55289919999998,528.9199344000001 194.55289919999998C528.9199344000001 194.55289919999998,528.9384672000001 194.55289919999998,528.9384672000001 194.55289919999998C528.9384672000001 194.55289919999998,529.049664 194.55289919999998,529.142328 194.55289919999998C530.81028 194.64556319999997,531.7925184000001 195.73899839999996,531.7925184000001 197.11042559999999C531.7925184000001 197.77760639999997,531.5701248 198.53745119999996,531.0141408000001 199.26023039999998C529.9577712 200.68725599999996,528.2342208 201.46563359999996,526.733064 201.46563359999996C525.5654976000001 201.46563359999996,524.5647264 201.00231359999998,524.0828736000001 200.05714079999998C523.9346112000001 199.68648479999996,523.86048 199.33436159999997,523.86048 198.94517279999997C523.86048 196.92509759999996,526.1214816 194.68262879999997,528.7160736000001 194.55289919999998">
</path>
</g>
<g class="vf-flag" pointer-events="bounding-box">
<path stroke-width="0.3" fill="#000000" stroke="none" stroke-dasharray="none" d="M531.0425184000001 172.89999999999998M530.5977312000001 175.88378079999998L530.5977312000001 172.992664L530.6718624 172.992664C530.8757232 172.992664,531.0054528000001 173.12239359999998,531.0425184000001 173.34478719999998C531.4317072000001 175.19806719999997,532.5992736000001 177.21814239999998,534.2116272000001 178.73783199999997C536.0093088000001 180.42431679999999,536.9174160000001 182.74091679999998,536.9174160000001 185.13164799999998C536.9174160000001 187.39264959999997,536.1205056000001 189.74631519999997,534.5081520000001 191.69225919999997C534.2301600000001 192.06291519999996,534.2116272000001 192.06291519999996,534.0262992 192.06291519999996C533.8039056 192.06291519999996,533.6556432000001 191.89611999999997,533.6556432000001 191.67372639999996C533.6556432000001 191.50693119999997,533.6741760000001 191.4698656,533.859504 191.2660048C535.2679968000001 189.56098719999997,535.9722432000001 187.5038464,535.9722432000001 185.5393696C535.9722432000001 183.7972864,535.4162592 182.12933439999998,534.2672256000001 180.86910399999996C533.5629792000001 180.09072639999997,532.2656832 179.34941439999997,530.6162640000001 178.77489759999997C530.6162640000001 178.75636479999997,530.5977312000001 178.18184799999997,530.5977312000001 175.88378079999998">
</path>
</g>
</g>
<g class="vf-modifiers">
</g>
</g>
<path stroke-width="1" fill="none" stroke="#000000" stroke-dasharray="none" d="M524.86048 189.74999999999997L537.86048 180.74999999999997Z">
</path>
</g>
</g>
<g class="vf-stavenote" id="vf-auto17229">
<g class="vf-note" pointer-events="bounding-box">
<g class="vf-notehead" pointer-events="bounding-box">
<path stroke-width="0.3" fill="#000000" stroke="none" stroke-dasharray="none" d="M579.7934176 197.99999999999997M587.1503776 192.77711999999997C587.2626976 192.77711999999997,587.4311776 192.77711999999997,587.4592576 192.77711999999997C587.4592576 192.77711999999997,587.4873376 192.77711999999997,587.4873376 192.77711999999997C587.4873376 192.77711999999997,587.6558176 192.77711999999997,587.7962176 192.77711999999997C590.3234176 192.91751999999997,591.8116576 194.57423999999997,591.8116576 196.65215999999998C591.8116576 197.66303999999997,591.4746976 198.81431999999998,590.6322976 199.90943999999996C589.0317376 202.07159999999996,586.4202976 203.25095999999996,584.1458176 203.25095999999996C582.3767776 203.25095999999996,580.8604576 202.54895999999997,580.1303776 201.11687999999998C579.9057376 200.55527999999998,579.7934176 200.02175999999997,579.7934176 199.43207999999998C579.7934176 196.37135999999998,583.2191776 192.97367999999997,587.1503776 192.77711999999997">
</path>
</g>
</g>
<g class="vf-modifiers">
</g>
</g>
<g class="vf-stavenote" id="vf-auto17239">
<g class="vf-note" pointer-events="bounding-box">
<g class="vf-notehead" pointer-events="bounding-box">
<path stroke-width="0.3" fill="#000000" stroke="none" stroke-dasharray="none" d="M609.8622784 197.99999999999997M617.2192384 192.77711999999997C617.3315584000001 192.77711999999997,617.5000384 192.77711999999997,617.5281184 192.77711999999997C617.5281184 192.77711999999997,617.5561984000001 192.77711999999997,617.5561984000001 192.77711999999997C617.5561984000001 192.77711999999997,617.7246784 192.77711999999997,617.8650784 192.77711999999997C620.3922784 192.91751999999997,621.8805184 194.57423999999997,621.8805184 196.65215999999998C621.8805184 197.66303999999997,621.5435584 198.81431999999998,620.7011584 199.90943999999996C619.1005984000001 202.07159999999996,616.4891584000001 203.25095999999996,614.2146784 203.25095999999996C612.4456384 203.25095999999996,610.9293184 202.54895999999997,610.1992384 201.11687999999998C609.9745984 200.55527999999998,609.8622784 200.02175999999997,609.8622784 199.43207999999998C609.8622784 196.37135999999998,613.2880384 192.97367999999997,617.2192384 192.77711999999997">
</path>
</g>
</g>
<g class="vf-modifiers">
</g>
</g>
<g class="vf-stavenote" id="vf-auto17249">
<g class="vf-note" pointer-events="bounding-box">
<g class="vf-notehead" pointer-events="bounding-box">
<path stroke-width="0.3" fill="#000000" stroke="none" stroke-dasharray="none" d="M639.9311392000001 197.99999999999997M647.2880992 192.77711999999997C647.4004192000001 192.77711999999997,647.5688992 192.77711999999997,647.5969792000001 192.77711999999997C647.5969792000001 192.77711999999997,647.6250592000001 192.77711999999997,647.6250592000001 192.77711999999997C647.6250592000001 192.77711999999997,647.7935392 192.77711999999997,647.9339392 192.77711999999997C650.4611392 192.91751999999997,651.9493792000001 194.57423999999997,651.9493792000001 196.65215999999998C651.9493792000001 197.66303999999997,651.6124192000001 198.81431999999998,650.7700192000001 199.90943999999996C649.1694592000001 202.07159999999996,646.5580192000001 203.25095999999996,644.2835392000001 203.25095999999996C642.5144992 203.25095999999996,640.9981792000001 202.54895999999997,640.2680992 201.11687999999998C640.0434592 200.55527999999998,639.9311392000001 200.02175999999997,639.9311392000001 199.43207999999998C639.9311392000001 196.37135999999998,643.3568992 192.97367999999997,647.2880992 192.77711999999997">
</path>
</g>
</g>
<g class="vf-modifiers">
</g>
</g>
<path stroke-width="1.5" fill="none" stroke="#000000" stroke-dasharray="none" d="M158.61071679999998 197.99999999999997L158.61071679999998 163.74999999999997">
</path>
<path stroke-width="1.5" fill="none" stroke="#000000" stroke-dasharray="none" d="M200.7301984 197.99999999999997L200.7301984 163.74999999999997">
</path>
<path stroke-width="1.5" fill="none" stroke="#000000" stroke-dasharray="none" d="M230.79905920000002 197.99999999999997L230.79905920000002 163.74999999999997">
</path>
<path stroke-width="0.3" fill="#000000" stroke="none" stroke-dasharray="none" d="M157.86071679999998 162.99999999999997L157.86071679999998 167.99999999999997L231.04905920000002 167.99999999999997L231.04905920000002 162.99999999999997Z">
</path>
<path stroke-width="0.3" fill="#000000" stroke="none" stroke-dasharray="none" d="M199.9801984 170.49999999999997L199.9801984 175.49999999999997L231.04905920000002 175.49999999999997L231.04905920000002 170.49999999999997Z">
</path>
<path stroke-width="1.5" fill="none" stroke="#000000" stroke-dasharray="none" d="M286.73199680000005 197.99999999999997L286.73199680000005 163.74999999999997">
</path>
<path stroke-width="1.5" fill="none" stroke="#000000" stroke-dasharray="none" d="M328.8514784 197.99999999999997L328.8514784 163.74999999999997">
</path>
<path stroke-width="1.5" fill="none" stroke="#000000" stroke-dasharray="none" d="M358.92033920000006 197.99999999999997L358.92033920000006 163.74999999999997">
</path>
<path stroke-width="0.3" fill="#000000" stroke="none" stroke-dasharray="none" d="M285.98199680000005 162.99999999999997L285.98199680000005 167.99999999999997L359.17033920000006 167.99999999999997L359.17033920000006 162.99999999999997Z">
</path>
<path stroke-width="0.3" fill="#000000" stroke="none" stroke-dasharray="none" d="M328.1014784 170.49999999999997L328.1014784 175.49999999999997L359.17033920000006 175.49999999999997L359.17033920000006 170.49999999999997Z">
</path>
<path stroke-width="1.5" fill="none" stroke="#000000" stroke-dasharray="none" d="M414.8532768 197.99999999999997L414.8532768 163.74999999999997">
</path>
<path stroke-width="1.5" fill="none" stroke="#000000" stroke-dasharray="none" d="M444.92213760000004 197.99999999999997L444.92213760000004 163.74999999999997">
</path>
<path stroke-width="1.5" fill="none" stroke="#000000" stroke-dasharray="none" d="M474.99099839999997 197.99999999999997L474.99099839999997 163.74999999999997">
</path>
<path stroke-width="1.5" fill="none" stroke="#000000" stroke-dasharray="none" d="M505.0598592 197.99999999999997L505.0598592 163.74999999999997">
</path>
<path stroke-width="0.3" fill="#000000" stroke="none" stroke-dasharray="none" d="M414.1032768 162.99999999999997L414.1032768 167.99999999999997L505.3098592 167.99999999999997L505.3098592 162.99999999999997Z">
</path>
<path stroke-width="0.3" fill="#000000" stroke="none" stroke-dasharray="none" d="M414.1032768 170.49999999999997L414.1032768 175.49999999999997L505.3098592 175.49999999999997L505.3098592 170.49999999999997Z">
</path>
<path stroke-width="1.5" fill="none" stroke="#000000" stroke-dasharray="none" d="M560.9927968000001 197.99999999999997L560.9927968000001 163.74999999999997">
</path>
<path stroke-width="1.5" fill="none" stroke="#000000" stroke-dasharray="none" d="M591.0616576 197.99999999999997L591.0616576 163.74999999999997">
</path>
<path stroke-width="1.5" fill="none" stroke="#000000" stroke-dasharray="none" d="M621.1305184 197.99999999999997L621.1305184 163.74999999999997">
</path>
<path stroke-width="1.5" fill="none" stroke="#000000" stroke-dasharray="none" d="M651.1993792000001 197.99999999999997L651.1993792000001 163.74999999999997">
</path>
<path stroke-width="0.3" fill="#000000" stroke="none" stroke-dasharray="none" d="M560.2427968000001 162.99999999999997L560.2427968000001 167.99999999999997L651.4493792000001 167.99999999999997L651.4493792000001 162.99999999999997Z">
</path>
<path stroke-width="0.3" fill="#000000" stroke="none" stroke-dasharray="none" d="M560.2427968000001 170.49999999999997L560.2427968000001 175.49999999999997L651.4493792000001 175.49999999999997L651.4493792000001 170.49999999999997Z">
</path>
<path stroke-width="1" fill="none" stroke="black" stroke-dasharray="none" d="M668.0752839679999 197.99999999999997L1044.7438315519998 197.99999999999997">
</path>
<rect stroke-width="0.3" fill="black" stroke="black" stroke-dasharray="none" x="1039.7438315519998" y="177.49999999999997" width="1" height="41">
</rect>
<rect stroke-width="0.3" fill="black" stroke="black" stroke-dasharray="none" x="1042.7438315519998" y="177.49999999999997" width="3" height="41">
</rect>
<path stroke-width="0.3" fill="black" stroke="none" stroke-dasharray="none" d="M1038.7438315519998 193.49999999999997 A2 2 0 0 0 1034.7438315519998 193.49999999999997M1034.7438315519998 193.49999999999997 A2 2 0 0 0 1038.7438315519998 193.49999999999997">
</path>
<path stroke-width="0.3" fill="black" stroke="none" stroke-dasharray="none" d="M1038.7438315519998 203.49999999999997 A2 2 0 0 0 1034.7438315519998 203.49999999999997M1034.7438315519998 203.49999999999997 A2 2 0 0 0 1038.7438315519998 203.49999999999997">
</path>
<path stroke-width="0.3" fill="black" stroke="none" stroke-dasharray="none" d="M673.2048839679999 197.99999999999997M678.8784839679998 179.33759999999998C678.9936839679999 179.33759999999998,679.1952839679999 179.33759999999998,679.4256839679999 179.33759999999998C679.8864839679999 179.33759999999998,680.4912839679998 179.33759999999998,680.6352839679998 179.39519999999996C682.7952839679999 179.65439999999998,684.5232839679999 180.74879999999996,685.2720839679998 182.27519999999998C685.5312839679999 182.79359999999997,685.6464839679999 183.34079999999997,685.6464839679999 183.91679999999997C685.6464839679999 185.32799999999997,684.8688839679999 186.94079999999997,683.4576839679999 188.15039999999996C682.4784839679999 188.98559999999998,681.4992839679999 189.50399999999996,679.9728839679999 189.99359999999996C677.9856839679999 190.62719999999996,676.2864839679999 191.75039999999998,675.1920839679999 193.10399999999998C675.1920839679999 193.10399999999998,675.1920839679999 193.13279999999997,675.1920839679999 193.13279999999997C675.1920839679999 193.13279999999997,675.1920839679999 193.13279999999997,675.1920839679999 193.13279999999997C675.1920839679999 193.13279999999997,675.2784839679999 193.10399999999998,675.3360839679999 193.01759999999996C676.4304839679999 192.12479999999996,677.8992839679998 191.60639999999998,679.2240839679998 191.60639999999998C680.3184839679999 191.60639999999998,681.0960839679999 191.80799999999996,682.1328839679999 192.38399999999996C682.7664839679999 192.70079999999996,683.3424839679999 192.84479999999996,683.8896839679999 192.84479999999996C684.1200839679999 192.84479999999996,684.3504839679998 192.84479999999996,684.6096839679999 192.78719999999998C684.9840839679998 192.70079999999996,685.3872839679999 192.41279999999998,685.5312839679999 192.18239999999997C685.6176839679998 191.98079999999996,685.7616839679998 191.89439999999996,685.9344839679999 191.89439999999996C686.1648839679999 191.89439999999996,686.3952839679998 192.06719999999999,686.3952839679998 192.32639999999998C686.3952839679998 192.52799999999996,686.1360839679999 193.24799999999996,685.9056839679998 193.7376C684.9840839679998 195.58079999999998,683.3712839679998 196.73279999999997,681.8160839679999 196.73279999999997C681.7008839679999 196.73279999999997,681.6144839679998 196.73279999999997,681.4992839679999 196.70399999999998C681.0960839679999 196.70399999999998,680.9232839679999 196.58879999999996,680.4048839679999 196.24319999999997C679.3104839679999 195.52319999999997,677.9280839679999 195.14879999999997,676.7184839679999 195.14879999999997C676.2000839679998 195.14879999999997,675.7392839679999 195.20639999999997,675.3072839679999 195.37919999999997C674.7312839679998 195.58079999999998,674.1840839679999 195.92639999999997,674.0112839679999 196.18559999999997C673.9248839679999 196.38719999999998,673.7808839679999 196.44479999999996,673.6080839679998 196.44479999999996C673.4640839679998 196.44479999999996,673.3200839679998 196.38719999999998,673.2336839679999 196.21439999999998L673.1760839679998 196.128L673.1760839679998 195.72479999999996C673.1760839679998 195.37919999999997,673.2048839679999 195.26399999999998,673.2048839679999 195.14879999999997C673.2336839679999 195.06239999999997,673.2624839679999 194.88959999999997,673.2624839679999 194.74559999999997C673.7808839679999 192.32639999999998,675.5376839679999 190.16639999999998,677.9280839679999 189.10079999999996C679.8864839679999 188.17919999999998,681.1824839679999 186.53759999999997,681.4128839679998 184.46399999999997C681.4704839679998 184.29119999999998,681.4704839679998 184.14719999999997,681.4704839679998 183.97439999999997C681.4704839679998 182.13119999999998,680.0880839679999 180.86399999999998,678.1296839679999 180.86399999999998C677.9856839679999 180.86399999999998,677.8128839679998 180.86399999999998,677.6688839679999 180.86399999999998C677.3808839679999 180.89279999999997,677.2944839679999 180.89279999999997,677.2944839679999 180.95039999999997C677.2944839679999 180.95039999999997,677.2944839679999 180.97919999999996,677.3808839679999 181.03679999999997C678.0432839679999 181.41119999999998,678.3600839679999 182.13119999999998,678.3600839679999 182.82239999999996C678.3600839679999 183.71519999999998,677.8992839679998 184.55039999999997,677.0064839679999 184.89599999999996C676.7184839679999 184.98239999999998,676.4304839679999 185.01119999999997,676.2000839679998 185.01119999999997C674.9904839679999 185.01119999999997,673.9824839679999 183.97439999999997,673.9824839679999 182.73599999999996C673.9824839679999 182.50559999999996,673.9824839679999 182.27519999999998,674.0400839679999 182.01599999999996C674.4720839679999 180.69119999999998,676.5168839679999 179.59679999999997,678.8784839679998 179.33759999999998M679.7712839679999 198.02879999999996L679.8288839679999 198.02879999999996L679.7424839679999 198.02879999999996L679.7712839679999 198.02879999999996M679.7712839679999 178.61759999999998L679.8288839679999 178.61759999999998L679.7424839679999 178.61759999999998L679.7712839679999 178.61759999999998">
</path>
<path stroke-width="0.3" fill="black" stroke="none" stroke-dasharray="none" d="M673.0752839679999 217.99999999999997M678.0864839679999 199.65439999999998C678.1152839679999 199.62559999999996,678.5184839679999 199.62559999999996,679.7568839679999 199.62559999999996C680.1312839679999 199.62559999999996,680.5344839679999 199.62559999999996,681.052883968 199.62559999999996L683.9616839679999 199.62559999999996L684.0480839679999 199.71199999999996C684.1920839679999 199.79839999999996,684.2784839679999 199.94239999999996,684.2784839679999 200.05759999999998C684.2784839679999 200.23039999999997,684.1920839679999 200.34559999999996,684.076883968 200.46079999999998C684.0480839679999 200.54719999999998,683.7888839679999 200.77759999999998,683.6160839679999 201.03679999999997L682.0896839679999 202.79359999999997L680.1312839679999 205.01119999999997L679.0944839679998 206.19199999999998L677.539283968 207.97759999999997L675.4944839679999 210.31039999999996C675.148883968 210.74239999999998,674.7744839679999 211.08799999999997,674.7744839679999 211.08799999999997C674.7744839679999 211.08799999999997,674.7744839679999 211.08799999999997,674.7744839679999 211.08799999999997C674.7744839679999 211.14559999999997,675.0336839679999 211.14559999999997,677.4240839679999 211.14559999999997L680.0448839679999 211.14559999999997L680.0448839679999 209.27359999999996C680.0448839679999 207.37279999999998,680.0448839679999 207.34399999999997,680.0736839679998 207.31519999999998C680.1312839679999 207.22879999999998,680.3904839679999 206.91199999999998,681.3984839679999 205.73119999999997L681.8016839679999 205.29919999999998L682.2048839679999 204.86719999999997L682.809683968 204.08959999999996L683.443283968 203.42719999999997L683.7600839679999 203.02399999999997C683.8752839679998 202.85119999999998,684.0480839679999 202.82239999999996,684.1920839679999 202.82239999999996C684.3648839679998 202.82239999999996,684.5088839679999 202.90879999999999,684.5952839679999 203.05279999999996C684.6240839679999 203.13919999999996,684.6240839679999 203.19679999999997,684.6240839679999 205.32799999999997C684.6240839679999 205.81759999999997,684.6240839679999 206.42239999999998,684.6240839679999 207.14239999999998L684.6240839679999 211.14559999999997L685.344083968 211.14559999999997C686.0064839679999 211.14559999999997,686.0352839679999 211.14559999999997,686.1216839679998 211.17439999999996C686.3520839679999 211.26079999999996,686.467283968 211.49119999999996,686.467283968 211.75039999999998C686.467283968 211.89439999999996,686.4384839679999 212.06719999999999,686.3232839679999 212.18239999999997C686.1504839679999 212.32639999999998,686.1216839679998 212.32639999999998,685.344083968 212.32639999999998L684.6240839679999 212.32639999999998L684.6240839679999 212.81599999999997C684.6528839679999 214.28479999999996,684.9408839679999 214.86079999999998,686.0640839679999 215.46559999999997C686.467283968 215.66719999999998,686.5536839679999 215.72479999999996,686.5536839679999 216.01279999999997C686.5536839679999 216.21439999999998,686.4960839679999 216.30079999999998,686.3520839679999 216.41599999999997L686.2656839679998 216.44479999999996L682.320083968 216.44479999999996L678.4032839679999 216.44479999999996L678.3168839679998 216.41599999999997C678.1440839679999 216.30079999999998,678.1152839679999 216.21439999999998,678.1152839679999 216.01279999999997C678.1152839679999 215.72479999999996,678.1440839679999 215.66719999999998,678.5760839679999 215.46559999999997C679.6992839679999 214.86079999999998,679.9872839679999 214.28479999999996,679.9872839679999 212.81599999999997L679.9872839679999 212.32639999999998L676.6752839679999 212.32639999999998C676.0704839679998 212.38399999999996,675.5808839679999 212.38399999999996,675.1776839679999 212.38399999999996C673.3632839679999 212.38399999999996,673.3344839679999 212.32639999999998,673.3056839679999 212.32639999999998C673.1328839679999 212.26879999999997,673.0752839679999 212.09599999999998,673.0752839679999 211.89439999999996C673.0752839679999 211.89439999999996,673.0752839679999 211.89439999999996,673.0752839679999 211.89439999999996C673.0752839679999 211.69279999999998,673.0752839679999 211.69279999999998,673.6512839679999 211.0304C676.0704839679998 208.09279999999998,677.7696839679999 203.83039999999997,677.7696839679999 200.43199999999996C677.7696839679999 199.91359999999997,677.8560839679999 199.74079999999998,678.0864839679999 199.65439999999998M679.8144839679999 218.02879999999996L679.8432839679999 218.02879999999996L679.7568839679999 218.02879999999996L679.8144839679999 218.02879999999996M679.8144839679999 198.61759999999998L679.8432839679999 198.61759999999998L679.7568839679999 198.61759999999998L679.8144839679999 198.61759999999998">
</path>
<g class="vf-stavenote" id="vf-auto17264">
<g class="vf-note" pointer-events="bounding-box">
<g class="vf-notehead" pointer-events="bounding-box">
<path stroke-width="0.3" fill="#000000" stroke="none" stroke-dasharray="none" d="M724.4177607679999 197.99999999999997M731.7747207679998 192.77711999999997C731.8870407679999 192.77711999999997,732.0555207679998 192.77711999999997,732.0836007679999 192.77711999999997C732.0836007679999 192.77711999999997,732.1116807679999 192.77711999999997,732.1116807679999 192.77711999999997C732.1116807679999 192.77711999999997,732.2801607679999 192.77711999999997,732.4205607679999 192.77711999999997C734.9477607679999 192.91751999999997,736.4360007679999 194.57423999999997,736.4360007679999 196.65215999999998C736.4360007679999 197.66303999999997,736.0990407679999 198.81431999999998,735.2566407679999 199.90943999999996C733.6560807679999 202.07159999999996,731.0446407679999 203.25095999999996,728.7701607679999 203.25095999999996C727.0011207679999 203.25095999999996,725.4848007679999 202.54895999999997,724.7547207679999 201.11687999999998C724.5300807679998 200.55527999999998,724.4177607679999 200.02175999999997,724.4177607679999 199.43207999999998C724.4177607679999 196.37135999999998,727.8435207679998 192.97367999999997,731.7747207679998 192.77711999999997">
</path>
</g>
</g>
<g class="vf-modifiers">
<g class="vf-stavenote" id="vf-auto17274">
<g class="vf-note" pointer-events="bounding-box">
<g class="vf-stem" pointer-events="bounding-box">
<path stroke-width="1.5" fill="none" stroke="#000000" stroke-dasharray="none" d="M705.7357223679999 197.99999999999997L705.7357223679999 174.89999999999998">
</path>
</g>
<g class="vf-notehead" pointer-events="bounding-box">
<path stroke-width="0.3" fill="#000000" stroke="none" stroke-dasharray="none" d="M698.5536839679999 197.99999999999997M703.4092775679999 194.55289919999998C703.4834087679999 194.55289919999998,703.5946055679999 194.55289919999998,703.6131383679999 194.55289919999998C703.6131383679999 194.55289919999998,703.6316711679999 194.55289919999998,703.6316711679999 194.55289919999998C703.6316711679999 194.55289919999998,703.7428679679998 194.55289919999998,703.8355319679998 194.55289919999998C705.5034839679998 194.64556319999997,706.4857223679999 195.73899839999996,706.4857223679999 197.11042559999999C706.4857223679999 197.77760639999997,706.2633287679998 198.53745119999996,705.7073447679999 199.26023039999998C704.6509751679998 200.68725599999996,702.9274247679998 201.46563359999996,701.4262679679998 201.46563359999996C700.2587015679999 201.46563359999996,699.2579303679998 201.00231359999998,698.7760775679999 200.05714079999998C698.6278151679999 199.68648479999996,698.5536839679999 199.33436159999997,698.5536839679999 198.94517279999997C698.5536839679999 196.92509759999996,700.8146855679998 194.68262879999997,703.4092775679999 194.55289919999998">
</path>
</g>
<g class="vf-flag" pointer-events="bounding-box">
<path stroke-width="0.3" fill="#000000" stroke="none" stroke-dasharray="none" d="M705.7357223679999 172.89999999999998M705.2909351679999 175.88378079999998L705.2909351679999 172.992664L705.3650663679998 172.992664C705.5689271679998 172.992664,705.6986567679999 173.12239359999998,705.7357223679999 173.34478719999998C706.1249111679999 175.19806719999997,707.2924775679999 177.21814239999998,708.9048311679999 178.73783199999997C710.7025127679999 180.42431679999999,711.6106199679999 182.74091679999998,711.6106199679999 185.13164799999998C711.6106199679999 187.39264959999997,710.8137095679999 189.74631519999997,709.2013559679999 191.69225919999997C708.9233639679999 192.06291519999996,708.9048311679999 192.06291519999996,708.7195031679998 192.06291519999996C708.4971095679998 192.06291519999996,708.3488471679999 191.89611999999997,708.3488471679999 191.67372639999996C708.3488471679999 191.50693119999997,708.3673799679999 191.4698656,708.5527079679998 191.2660048C709.9612007679999 189.56098719999997,710.6654471679999 187.5038464,710.6654471679999 185.5393696C710.6654471679999 183.7972864,710.1094631679998 182.12933439999998,708.9604295679999 180.86910399999996C708.2561831679999 180.09072639999997,706.9588871679998 179.34941439999997,705.3094679679999 178.77489759999997C705.3094679679999 178.75636479999997,705.2909351679999 178.18184799999997,705.2909351679999 175.88378079999998">
</path>
</g>
</g>
<g class="vf-modifiers">
</g>
</g>
<path stroke-width="1" fill="none" stroke="#000000" stroke-dasharray="none" d="M699.5536839679999 189.74999999999997L712.5536839679999 180.74999999999997Z">
</path>
</g>
</g>
<g class="vf-stavenote" id="vf-auto17288">
<g class="vf-note" pointer-events="bounding-box">
<g class="vf-notehead" pointer-events="bounding-box">
<path stroke-width="0.3" fill="#000000" stroke="none" stroke-dasharray="none" d="M761.3919415679999 197.99999999999997M768.7489015679998 192.77711999999997C768.8612215679999 192.77711999999997,769.0297015679998 192.77711999999997,769.0577815679999 192.77711999999997C769.0577815679999 192.77711999999997,769.0858615679999 192.77711999999997,769.0858615679999 192.77711999999997C769.0858615679999 192.77711999999997,769.2543415679999 192.77711999999997,769.3947415679999 192.77711999999997C771.9219415679999 192.91751999999997,773.4101815679999 194.57423999999997,773.4101815679999 196.65215999999998C773.4101815679999 197.66303999999997,773.0732215679999 198.81431999999998,772.2308215679999 199.90943999999996C770.6302615679999 202.07159999999996,768.0188215679999 203.25095999999996,765.7443415679999 203.25095999999996C763.9753015679998 203.25095999999996,762.4589815679999 202.54895999999997,761.7289015679999 201.11687999999998C761.5042615679998 200.55527999999998,761.3919415679999 200.02175999999997,761.3919415679999 199.43207999999998C761.3919415679999 196.37135999999998,764.8177015679998 192.97367999999997,768.7489015679998 192.77711999999997">
</path>
</g>
</g>
<g class="vf-modifiers">
</g>
</g>
<g class="vf-stavenote" id="vf-auto17298">
<g class="vf-note" pointer-events="bounding-box">
<g class="vf-notehead" pointer-events="bounding-box">
<path stroke-width="0.3" fill="#000000" stroke="none" stroke-dasharray="none" d="M798.3661223679999 197.99999999999997M805.7230823679998 192.77711999999997C805.8354023679999 192.77711999999997,806.0038823679998 192.77711999999997,806.0319623679999 192.77711999999997C806.0319623679999 192.77711999999997,806.0600423679999 192.77711999999997,806.0600423679999 192.77711999999997C806.0600423679999 192.77711999999997,806.2285223679999 192.77711999999997,806.3689223679999 192.77711999999997C808.8961223679999 192.91751999999997,810.3843623679999 194.57423999999997,810.3843623679999 196.65215999999998C810.3843623679999 197.66303999999997,810.0474023679999 198.81431999999998,809.2050023679999 199.90943999999996C807.6044423679999 202.07159999999996,804.9930023679999 203.25095999999996,802.7185223679999 203.25095999999996C800.9494823679998 203.25095999999996,799.4331623679999 202.54895999999997,798.7030823679999 201.11687999999998C798.4784423679998 200.55527999999998,798.3661223679999 200.02175999999997,798.3661223679999 199.43207999999998C798.3661223679999 196.37135999999998,801.7918823679998 192.97367999999997,805.7230823679998 192.77711999999997">
</path>
</g>
</g>
<g class="vf-modifiers">
</g>
</g>
<g class="vf-stavenote" id="vf-auto17308">
<g class="vf-note" pointer-events="bounding-box">
<g class="vf-notehead" pointer-events="bounding-box">
<path stroke-width="0.3" fill="#000000" stroke="none" stroke-dasharray="none" d="M835.3403031679999 197.99999999999997M842.6972631679998 192.77711999999997C842.8095831679999 192.77711999999997,842.9780631679998 192.77711999999997,843.0061431679999 192.77711999999997C843.0061431679999 192.77711999999997,843.0342231679999 192.77711999999997,843.0342231679999 192.77711999999997C843.0342231679999 192.77711999999997,843.2027031679999 192.77711999999997,843.3431031679999 192.77711999999997C845.8703031679999 192.91751999999997,847.3585431679999 194.57423999999997,847.3585431679999 196.65215999999998C847.3585431679999 197.66303999999997,847.0215831679999 198.81431999999998,846.1791831679999 199.90943999999996C844.5786231679999 202.07159999999996,841.9671831679999 203.25095999999996,839.6927031679999 203.25095999999996C837.9236631679998 203.25095999999996,836.4073431679999 202.54895999999997,835.6772631679999 201.11687999999998C835.4526231679998 200.55527999999998,835.3403031679999 200.02175999999997,835.3403031679999 199.43207999999998C835.3403031679999 196.37135999999998,838.7660631679998 192.97367999999997,842.6972631679998 192.77711999999997">
</path>
</g>
</g>
<g class="vf-modifiers">
</g>
</g>
<g class="vf-stavenote" id="vf-auto17318">
<g class="vf-note" pointer-events="bounding-box">
<g class="vf-notehead" pointer-events="bounding-box">
<path stroke-width="0.3" fill="#000000" stroke="none" stroke-dasharray="none" d="M898.1785607679999 197.99999999999997M905.5355207679999 192.77711999999997C905.6478407679999 192.77711999999997,905.8163207679999 192.77711999999997,905.8444007679999 192.77711999999997C905.8444007679999 192.77711999999997,905.872480768 192.77711999999997,905.872480768 192.77711999999997C905.872480768 192.77711999999997,906.0409607679999 192.77711999999997,906.1813607679999 192.77711999999997C908.7085607679999 192.91751999999997,910.1968007679999 194.57423999999997,910.1968007679999 196.65215999999998C910.1968007679999 197.66303999999997,909.8598407679999 198.81431999999998,909.0174407679999 199.90943999999996C907.4168807679999 202.07159999999996,904.8054407679999 203.25095999999996,902.5309607679999 203.25095999999996C900.7619207679999 203.25095999999996,899.2456007679999 202.54895999999997,898.5155207679999 201.11687999999998C898.2908807679999 200.55527999999998,898.1785607679999 200.02175999999997,898.1785607679999 199.43207999999998C898.1785607679999 196.37135999999998,901.6043207679999 192.97367999999997,905.5355207679999 192.77711999999997">
</path>
</g>
</g>
<g class="vf-modifiers">
<g class="vf-stavenote" id="vf-auto17328">
<g class="vf-note" pointer-events="bounding-box">
<g class="vf-stem" pointer-events="bounding-box">
<path stroke-width="1.5" fill="none" stroke="#000000" stroke-dasharray="none" d="M879.4965223679999 197.99999999999997L879.4965223679999 174.89999999999998">
</path>
</g>
<g class="vf-notehead" pointer-events="bounding-box">
<path stroke-width="0.3" fill="#000000" stroke="none" stroke-dasharray="none" d="M872.3144839679999 197.99999999999997M877.1700775679999 194.55289919999998C877.2442087679999 194.55289919999998,877.3554055679999 194.55289919999998,877.3739383679999 194.55289919999998C877.3739383679999 194.55289919999998,877.3924711679999 194.55289919999998,877.3924711679999 194.55289919999998C877.3924711679999 194.55289919999998,877.5036679679998 194.55289919999998,877.5963319679998 194.55289919999998C879.2642839679999 194.64556319999997,880.2465223679999 195.73899839999996,880.2465223679999 197.11042559999999C880.2465223679999 197.77760639999997,880.0241287679999 198.53745119999996,879.4681447679999 199.26023039999998C878.4117751679998 200.68725599999996,876.6882247679998 201.46563359999996,875.1870679679998 201.46563359999996C874.0195015679999 201.46563359999996,873.0187303679999 201.00231359999998,872.5368775679999 200.05714079999998C872.3886151679999 199.68648479999996,872.3144839679999 199.33436159999997,872.3144839679999 198.94517279999997C872.3144839679999 196.92509759999996,874.5754855679999 194.68262879999997,877.1700775679999 194.55289919999998">
</path>
</g>
<g class="vf-flag" pointer-events="bounding-box">
<path stroke-width="0.3" fill="#000000" stroke="none" stroke-dasharray="none" d="M879.4965223679999 172.89999999999998M879.0517351679999 175.88378079999998L879.0517351679999 172.992664L879.1258663679998 172.992664C879.3297271679999 172.992664,879.4594567679999 173.12239359999998,879.4965223679999 173.34478719999998C879.885711168 175.19806719999997,881.0532775679999 177.21814239999998,882.6656311679999 178.73783199999997C884.4633127679999 180.42431679999999,885.3714199679999 182.74091679999998,885.3714199679999 185.13164799999998C885.3714199679999 187.39264959999997,884.5745095679999 189.74631519999997,882.9621559679999 191.69225919999997C882.6841639679999 192.06291519999996,882.6656311679999 192.06291519999996,882.4803031679999 192.06291519999996C882.2579095679998 192.06291519999996,882.1096471679999 191.89611999999997,882.1096471679999 191.67372639999996C882.1096471679999 191.50693119999997,882.1281799679999 191.4698656,882.3135079679998 191.2660048C883.7220007679999 189.56098719999997,884.4262471679999 187.5038464,884.4262471679999 185.5393696C884.4262471679999 183.7972864,883.8702631679998 182.12933439999998,882.7212295679999 180.86910399999996C882.0169831679999 180.09072639999997,880.7196871679998 179.34941439999997,879.0702679679999 178.77489759999997C879.0702679679999 178.75636479999997,879.0517351679999 178.18184799999997,879.0517351679999 175.88378079999998">
</path>
</g>
</g>
<g class="vf-modifiers">
</g>
</g>
<path stroke-width="1" fill="none" stroke="#000000" stroke-dasharray="none" d="M873.3144839679999 189.74999999999997L886.3144839679999 180.74999999999997Z">
</path>
</g>
</g>
<g class="vf-stavenote" id="vf-auto17342">
<g class="vf-note" pointer-events="bounding-box">
<g class="vf-notehead" pointer-events="bounding-box">
<path stroke-width="0.3" fill="#000000" stroke="none" stroke-dasharray="none" d="M935.1527415679998 197.99999999999997M942.5097015679997 192.77711999999997C942.6220215679998 192.77711999999997,942.7905015679997 192.77711999999997,942.8185815679998 192.77711999999997C942.8185815679998 192.77711999999997,942.8466615679998 192.77711999999997,942.8466615679998 192.77711999999997C942.8466615679998 192.77711999999997,943.0151415679998 192.77711999999997,943.1555415679998 192.77711999999997C945.6827415679998 192.91751999999997,947.1709815679998 194.57423999999997,947.1709815679998 196.65215999999998C947.1709815679998 197.66303999999997,946.8340215679998 198.81431999999998,945.9916215679998 199.90943999999996C944.3910615679998 202.07159999999996,941.7796215679998 203.25095999999996,939.5051415679998 203.25095999999996C937.7361015679998 203.25095999999996,936.2197815679998 202.54895999999997,935.4897015679998 201.11687999999998C935.2650615679997 200.55527999999998,935.1527415679998 200.02175999999997,935.1527415679998 199.43207999999998C935.1527415679998 196.37135999999998,938.5785015679998 192.97367999999997,942.5097015679997 192.77711999999997">
</path>
</g>
</g>
<g class="vf-modifiers">
</g>
</g>
<g class="vf-stavenote" id="vf-auto17352">
<g class="vf-note" pointer-events="bounding-box">
<g class="vf-notehead" pointer-events="bounding-box">
<path stroke-width="0.3" fill="#000000" stroke="none" stroke-dasharray="none" d="M972.1269223679999 197.99999999999997M979.4838823679999 192.77711999999997C979.5962023679999 192.77711999999997,979.7646823679999 192.77711999999997,979.7927623679999 192.77711999999997C979.7927623679999 192.77711999999997,979.820842368 192.77711999999997,979.820842368 192.77711999999997C979.820842368 192.77711999999997,979.9893223679999 192.77711999999997,980.1297223679999 192.77711999999997C982.6569223679999 192.91751999999997,984.1451623679999 194.57423999999997,984.1451623679999 196.65215999999998C984.1451623679999 197.66303999999997,983.8082023679999 198.81431999999998,982.9658023679999 199.90943999999996C981.3652423679999 202.07159999999996,978.7538023679999 203.25095999999996,976.4793223679999 203.25095999999996C974.7102823679999 203.25095999999996,973.1939623679999 202.54895999999997,972.4638823679999 201.11687999999998C972.2392423679999 200.55527999999998,972.1269223679999 200.02175999999997,972.1269223679999 199.43207999999998C972.1269223679999 196.37135999999998,975.5526823679999 192.97367999999997,979.4838823679999 192.77711999999997">
</path>
</g>
</g>
<g class="vf-modifiers">
</g>
</g>
<g class="vf-stavenote" id="vf-auto17362">
<g class="vf-note" pointer-events="bounding-box">
<g class="vf-notehead" pointer-events="bounding-box">
<path stroke-width="0.3" fill="#000000" stroke="none" stroke-dasharray="none" d="M1009.1011031679998 197.99999999999997M1016.4580631679997 192.77711999999997C1016.5703831679998 192.77711999999997,1016.7388631679997 192.77711999999997,1016.7669431679998 192.77711999999997C1016.7669431679998 192.77711999999997,1016.7950231679998 192.77711999999997,1016.7950231679998 192.77711999999997C1016.7950231679998 192.77711999999997,1016.9635031679998 192.77711999999997,1017.1039031679998 192.77711999999997C1019.6311031679998 192.91751999999997,1021.1193431679998 194.57423999999997,1021.1193431679998 196.65215999999998C1021.1193431679998 197.66303999999997,1020.7823831679998 198.81431999999998,1019.9399831679998 199.90943999999996C1018.3394231679998 202.07159999999996,1015.7279831679998 203.25095999999996,1013.4535031679998 203.25095999999996C1011.6844631679998 203.25095999999996,1010.1681431679998 202.54895999999997,1009.4380631679998 201.11687999999998C1009.2134231679997 200.55527999999998,1009.1011031679998 200.02175999999997,1009.1011031679998 199.43207999999998C1009.1011031679998 196.37135999999998,1012.5268631679997 192.97367999999997,1016.4580631679997 192.77711999999997">
</path>
</g>
</g>
<g class="vf-modifiers">
</g>
</g>
<path stroke-width="1.5" fill="none" stroke="#000000" stroke-dasharray="none" d="M735.6860007679999 197.99999999999997L735.6860007679999 163.74999999999997">
</path>
<path stroke-width="1.5" fill="none" stroke="#000000" stroke-dasharray="none" d="M772.6601815679999 197.99999999999997L772.6601815679999 163.74999999999997">
</path>
<path stroke-width="1.5" fill="none" stroke="#000000" stroke-dasharray="none" d="M809.6343623679999 197.99999999999997L809.6343623679999 163.74999999999997">
</path>
<path stroke-width="1.5" fill="none" stroke="#000000" stroke-dasharray="none" d="M846.6085431679999 197.99999999999997L846.6085431679999 163.74999999999997">
</path>
<path stroke-width="0.3" fill="#000000" stroke="none" stroke-dasharray="none" d="M734.9360007679999 162.99999999999997L734.9360007679999 167.99999999999997L846.8585431679999 167.99999999999997L846.8585431679999 162.99999999999997Z">
</path>
<path stroke-width="0.3" fill="#000000" stroke="none" stroke-dasharray="none" d="M734.9360007679999 170.49999999999997L734.9360007679999 175.49999999999997L846.8585431679999 175.49999999999997L846.8585431679999 170.49999999999997Z">
</path>
<path stroke-width="1.5" fill="none" stroke="#000000" stroke-dasharray="none" d="M909.4468007679999 197.99999999999997L909.4468007679999 163.74999999999997">
</path>
<path stroke-width="1.5" fill="none" stroke="#000000" stroke-dasharray="none" d="M946.4209815679998 197.99999999999997L946.4209815679998 163.74999999999997">
</path>
<path stroke-width="1.5" fill="none" stroke="#000000" stroke-dasharray="none" d="M983.3951623679999 197.99999999999997L983.3951623679999 163.74999999999997">
</path>
<path stroke-width="1.5" fill="none" stroke="#000000" stroke-dasharray="none" d="M1020.3693431679998 197.99999999999997L1020.3693431679998 163.74999999999997">
</path>
<path stroke-width="0.3" fill="#000000" stroke="none" stroke-dasharray="none" d="M908.6968007679999 162.99999999999997L908.6968007679999 167.99999999999997L1020.6193431679998 167.99999999999997L1020.6193431679998 162.99999999999997Z">
</path>
<path stroke-width="0.3" fill="#000000" stroke="none" stroke-dasharray="none" d="M908.6968007679999 170.49999999999997L908.6968007679999 175.49999999999997L1020.6193431679998 175.49999999999997L1020.6193431679998 170.49999999999997Z">
</path>
</svg>