<svg width="670" height="100" viewBox="60 135 650 100">
<path stroke-width="1" fill="none" stroke="black" stroke-dasharray="none" d="M50 197.99999999999997L391.1120447999999 197.99999999999997">
</path>
<rect stroke-width="0.3" fill="black" stroke="black" stroke-dasharray="none" x="391.1120447999999" y="177.49999999999997" width="1" height="41">
</rect>
<path stroke-width="0.3" fill="black" stroke="none" stroke-dasharray="none" d="M55 197.99999999999997M55 197.99999999999997L55 188.00639999999999L57.1888 188.00639999999999L59.4064 188.00639999999999L59.4064 197.99999999999997L59.4064 208.02239999999998L57.1888 208.02239999999998L55 208.02239999999998L55 197.99999999999997M63.870400000000004 198.02879999999996L63.870400000000004 188.00639999999999L66.1168 188.00639999999999L68.3632 188.00639999999999L68.3632 198.02879999999996L68.3632 208.02239999999998L66.1168 208.02239999999998L63.870400000000004 208.02239999999998L63.870400000000004 198.02879999999996">
</path>
<path stroke-width="0.3" fill="black" stroke="none" stroke-dasharray="none" d="M96 197.99999999999997M101.0112 179.65439999999998C101.04 179.62559999999996,101.4432 179.62559999999996,102.6816 179.62559999999996C103.056 179.62559999999996,103.4592 179.62559999999996,103.9776 179.62559999999996L106.8864 179.62559999999996L106.9728 179.71199999999996C107.1168 179.79839999999996,107.2032 179.94239999999996,107.2032 180.05759999999998C107.2032 180.23039999999997,107.1168 180.34559999999996,107.0016 180.46079999999998C106.9728 180.54719999999998,106.7136 180.77759999999998,106.5408 181.03679999999997L105.0144 182.79359999999997L103.056 185.01119999999997L102.0192 186.19199999999998L100.464 187.97759999999997L98.4192 190.31039999999996C98.0736 190.74239999999998,97.6992 191.08799999999997,97.6992 191.08799999999997C97.6992 191.08799999999997,97.6992 191.08799999999997,97.6992 191.08799999999997C97.6992 191.14559999999997,97.9584 191.14559999999997,100.3488 191.14559999999997L102.9696 191.14559999999997L102.9696 189.27359999999996C102.9696 187.37279999999998,102.9696 187.34399999999997,102.9984 187.31519999999998C103.056 187.22879999999998,103.3152 186.91199999999998,104.3232 185.73119999999997L104.7264 185.29919999999998L105.1296 184.86719999999997L105.7344 184.08959999999996L106.368 183.42719999999997L106.6848 183.02399999999997C106.8 182.85119999999998,106.9728 182.82239999999996,107.1168 182.82239999999996C107.28960000000001 182.82239999999996,107.4336 182.90879999999999,107.52 183.05279999999996C107.5488 183.13919999999996,107.5488 183.19679999999997,107.5488 185.32799999999997C107.5488 185.81759999999997,107.5488 186.42239999999998,107.5488 187.14239999999998L107.5488 191.14559999999997L108.2688 191.14559999999997C108.9312 191.14559999999997,108.96 191.14559999999997,109.0464 191.17439999999996C109.2768 191.26079999999996,109.392 191.49119999999996,109.392 191.75039999999998C109.392 191.89439999999996,109.3632 192.06719999999999,109.248 192.18239999999997C109.0752 192.32639999999998,109.0464 192.32639999999998,108.2688 192.32639999999998L107.5488 192.32639999999998L107.5488 192.81599999999997C107.5776 194.28479999999996,107.8656 194.86079999999998,108.9888 195.46559999999997C109.392 195.66719999999998,109.4784 195.72479999999996,109.4784 196.01279999999997C109.4784 196.21439999999998,109.4208 196.30079999999998,109.2768 196.41599999999997L109.1904 196.44479999999996L105.2448 196.44479999999996L101.328 196.44479999999996L101.2416 196.41599999999997C101.0688 196.30079999999998,101.04 196.21439999999998,101.04 196.01279999999997C101.04 195.72479999999996,101.0688 195.66719999999998,101.5008 195.46559999999997C102.624 194.86079999999998,102.912 194.28479999999996,102.912 192.81599999999997L102.912 192.32639999999998L99.6 192.32639999999998C98.9952 192.38399999999996,98.5056 192.38399999999996,98.1024 192.38399999999996C96.288 192.38399999999996,96.2592 192.32639999999998,96.2304 192.32639999999998C96.0576 192.26879999999997,96 192.09599999999998,96 191.89439999999996C96 191.89439999999996,96 191.89439999999996,96 191.89439999999996C96 191.69279999999998,96 191.69279999999998,96.576 191.0304C98.9952 188.09279999999998,100.6944 183.83039999999997,100.6944 180.43199999999996C100.6944 179.91359999999997,100.7808 179.74079999999998,101.0112 179.65439999999998M102.7392 198.02879999999996L102.768 198.02879999999996L102.6816 198.02879999999996L102.7392 198.02879999999996M102.7392 178.61759999999998L102.768 178.61759999999998L102.6816 178.61759999999998L102.7392 178.61759999999998">
</path>
<path stroke-width="0.3" fill="black" stroke="none" stroke-dasharray="none" d="M96 217.99999999999997M101.0112 199.65439999999998C101.04 199.62559999999996,101.4432 199.62559999999996,102.6816 199.62559999999996C103.056 199.62559999999996,103.4592 199.62559999999996,103.9776 199.62559999999996L106.8864 199.62559999999996L106.9728 199.71199999999996C107.1168 199.79839999999996,107.2032 199.94239999999996,107.2032 200.05759999999998C107.2032 200.23039999999997,107.1168 200.34559999999996,107.0016 200.46079999999998C106.9728 200.54719999999998,106.7136 200.77759999999998,106.5408 201.03679999999997L105.0144 202.79359999999997L103.056 205.01119999999997L102.0192 206.19199999999998L100.464 207.97759999999997L98.4192 210.31039999999996C98.0736 210.74239999999998,97.6992 211.08799999999997,97.6992 211.08799999999997C97.6992 211.08799999999997,97.6992 211.08799999999997,97.6992 211.08799999999997C97.6992 211.14559999999997,97.9584 211.14559999999997,100.3488 211.14559999999997L102.9696 211.14559999999997L102.9696 209.27359999999996C102.9696 207.37279999999998,102.9696 207.34399999999997,102.9984 207.31519999999998C103.056 207.22879999999998,103.3152 206.91199999999998,104.3232 205.73119999999997L104.7264 205.29919999999998L105.1296 204.86719999999997L105.7344 204.08959999999996L106.368 203.42719999999997L106.6848 203.02399999999997C106.8 202.85119999999998,106.9728 202.82239999999996,107.1168 202.82239999999996C107.28960000000001 202.82239999999996,107.4336 202.90879999999999,107.52 203.05279999999996C107.5488 203.13919999999996,107.5488 203.19679999999997,107.5488 205.32799999999997C107.5488 205.81759999999997,107.5488 206.42239999999998,107.5488 207.14239999999998L107.5488 211.14559999999997L108.2688 211.14559999999997C108.9312 211.14559999999997,108.96 211.14559999999997,109.0464 211.17439999999996C109.2768 211.26079999999996,109.392 211.49119999999996,109.392 211.75039999999998C109.392 211.89439999999996,109.3632 212.06719999999999,109.248 212.18239999999997C109.0752 212.32639999999998,109.0464 212.32639999999998,108.2688 212.32639999999998L107.5488 212.32639999999998L107.5488 212.81599999999997C107.5776 214.28479999999996,107.8656 214.86079999999998,108.9888 215.46559999999997C109.392 215.66719999999998,109.4784 215.72479999999996,109.4784 216.01279999999997C109.4784 216.21439999999998,109.4208 216.30079999999998,109.2768 216.41599999999997L109.1904 216.44479999999996L105.2448 216.44479999999996L101.328 216.44479999999996L101.2416 216.41599999999997C101.0688 216.30079999999998,101.04 216.21439999999998,101.04 216.01279999999997C101.04 215.72479999999996,101.0688 215.66719999999998,101.5008 215.46559999999997C102.624 214.86079999999998,102.912 214.28479999999996,102.912 212.81599999999997L102.912 212.32639999999998L99.6 212.32639999999998C98.9952 212.38399999999996,98.5056 212.38399999999996,98.1024 212.38399999999996C96.288 212.38399999999996,96.2592 212.32639999999998,96.2304 212.32639999999998C96.0576 212.26879999999997,96 212.09599999999998,96 211.89439999999996C96 211.89439999999996,96 211.89439999999996,96 211.89439999999996C96 211.69279999999998,96 211.69279999999998,96.576 211.0304C98.9952 208.09279999999998,100.6944 203.83039999999997,100.6944 200.43199999999996C100.6944 199.91359999999997,100.7808 199.74079999999998,101.0112 199.65439999999998M102.7392 218.02879999999996L102.768 218.02879999999996L102.6816 218.02879999999996L102.7392 218.02879999999996M102.7392 198.61759999999998L102.768 198.61759999999998L102.6816 198.61759999999998L102.7392 198.61759999999998">
</path>
<g class="vf-stavenote" id="vf-auto20345">
<g class="vf-note" pointer-events="bounding-box">
<g class="vf-notehead" pointer-events="bounding-box">
<path stroke-width="0.3" fill="#000000" stroke="none" stroke-dasharray="none" d="M121.4784 197.99999999999997M128.83535999999998 192.77711999999997C128.94768 192.77711999999997,129.11615999999998 192.77711999999997,129.14424 192.77711999999997C129.14424 192.77711999999997,129.17231999999998 192.77711999999997,129.17231999999998 192.77711999999997C129.17231999999998 192.77711999999997,129.3408 192.77711999999997,129.4812 192.77711999999997C132.0084 192.91751999999997,133.49663999999999 194.57423999999997,133.49663999999999 196.65215999999998C133.49663999999999 197.66303999999997,133.15967999999998 198.81431999999998,132.31727999999998 199.90943999999996C130.71671999999998 202.07159999999996,128.10528 203.25095999999996,125.8308 203.25095999999996C124.06175999999999 203.25095999999996,122.54544 202.54895999999997,121.81536 201.11687999999998C121.59071999999999 200.55527999999998,121.4784 200.02175999999997,121.4784 199.43207999999998C121.4784 196.37135999999998,124.90415999999999 192.97367999999997,128.83535999999998 192.77711999999997">
</path>
</g>
</g>
<g class="vf-modifiers">
</g>
</g>
<g class="vf-stavenote" id="vf-auto20355">
<g class="vf-note" pointer-events="bounding-box">
<g class="vf-notehead" pointer-events="bounding-box">
<path stroke-width="0.3" fill="#000000" stroke="none" stroke-dasharray="none" d="M155.4186 197.99999999999997M162.77555999999998 192.77711999999997C162.88788 192.77711999999997,163.05635999999998 192.77711999999997,163.08444 192.77711999999997C163.08444 192.77711999999997,163.11252 192.77711999999997,163.11252 192.77711999999997C163.11252 192.77711999999997,163.281 192.77711999999997,163.4214 192.77711999999997C165.9486 192.91751999999997,167.43684 194.57423999999997,167.43684 196.65215999999998C167.43684 197.66303999999997,167.09987999999998 198.81431999999998,166.25748 199.90943999999996C164.65691999999999 202.07159999999996,162.04548 203.25095999999996,159.771 203.25095999999996C158.00196 203.25095999999996,156.48564 202.54895999999997,155.75556 201.11687999999998C155.53092 200.55527999999998,155.4186 200.02175999999997,155.4186 199.43207999999998C155.4186 196.37135999999998,158.84436 192.97367999999997,162.77555999999998 192.77711999999997">
</path>
</g>
</g>
<g class="vf-modifiers">
</g>
</g>
<g class="vf-stavenote" id="vf-auto20365">
<g class="vf-note" pointer-events="bounding-box">
<g class="vf-notehead" pointer-events="bounding-box">
<path stroke-width="0.3" fill="#000000" stroke="none" stroke-dasharray="none" d="M189.3588 197.99999999999997M196.71576 192.77711999999997C196.82808 192.77711999999997,196.99656 192.77711999999997,197.02464 192.77711999999997C197.02464 192.77711999999997,197.05272 192.77711999999997,197.05272 192.77711999999997C197.05272 192.77711999999997,197.2212 192.77711999999997,197.3616 192.77711999999997C199.8888 192.91751999999997,201.37704 194.57423999999997,201.37704 196.65215999999998C201.37704 197.66303999999997,201.04008 198.81431999999998,200.19768 199.90943999999996C198.59712 202.07159999999996,195.98568 203.25095999999996,193.7112 203.25095999999996C191.94216 203.25095999999996,190.42584 202.54895999999997,189.69576 201.11687999999998C189.47112 200.55527999999998,189.3588 200.02175999999997,189.3588 199.43207999999998C189.3588 196.37135999999998,192.78456 192.97367999999997,196.71576 192.77711999999997">
</path>
</g>
</g>
<g class="vf-modifiers">
</g>
</g>
<g class="vf-stavenote" id="vf-auto20375">
<g class="vf-note" pointer-events="bounding-box">
<g class="vf-notehead" pointer-events="bounding-box">
<path stroke-width="0.3" fill="#000000" stroke="none" stroke-dasharray="none" d="M223.299 197.99999999999997M230.65596 192.77711999999997C230.76828 192.77711999999997,230.93676 192.77711999999997,230.96484 192.77711999999997C230.96484 192.77711999999997,230.99292 192.77711999999997,230.99292 192.77711999999997C230.99292 192.77711999999997,231.16140000000001 192.77711999999997,231.30180000000001 192.77711999999997C233.829 192.91751999999997,235.31724 194.57423999999997,235.31724 196.65215999999998C235.31724 197.66303999999997,234.98028 198.81431999999998,234.13788 199.90943999999996C232.53732 202.07159999999996,229.92588 203.25095999999996,227.6514 203.25095999999996C225.88236 203.25095999999996,224.36604 202.54895999999997,223.63596 201.11687999999998C223.41132000000002 200.55527999999998,223.299 200.02175999999997,223.299 199.43207999999998C223.299 196.37135999999998,226.72476 192.97367999999997,230.65596 192.77711999999997">
</path>
</g>
</g>
<g class="vf-modifiers">
</g>
</g>
<g class="vf-stavenote" id="vf-auto20385">
<g class="vf-note" pointer-events="bounding-box">
<g class="vf-notehead" pointer-events="bounding-box">
<path stroke-width="0.3" fill="#000000" stroke="none" stroke-dasharray="none" d="M257.2392 197.99999999999997M264.59616 192.77711999999997C264.70848 192.77711999999997,264.87696 192.77711999999997,264.90504 192.77711999999997C264.90504 192.77711999999997,264.93312 192.77711999999997,264.93312 192.77711999999997C264.93312 192.77711999999997,265.10159999999996 192.77711999999997,265.24199999999996 192.77711999999997C267.76919999999996 192.91751999999997,269.25744 194.57423999999997,269.25744 196.65215999999998C269.25744 197.66303999999997,268.92048 198.81431999999998,268.07808 199.90943999999996C266.47751999999997 202.07159999999996,263.86608 203.25095999999996,261.59159999999997 203.25095999999996C259.82256 203.25095999999996,258.30624 202.54895999999997,257.57615999999996 201.11687999999998C257.35152 200.55527999999998,257.2392 200.02175999999997,257.2392 199.43207999999998C257.2392 196.37135999999998,260.66496 192.97367999999997,264.59616 192.77711999999997">
</path>
</g>
</g>
<g class="vf-modifiers">
</g>
</g>
<g class="vf-stavenote" id="vf-auto20395">
<g class="vf-note" pointer-events="bounding-box">
<g class="vf-notehead" pointer-events="bounding-box">
<path stroke-width="0.3" fill="#000000" stroke="none" stroke-dasharray="none" d="M291.1794 197.99999999999997M298.53636 192.77711999999997C298.64868 192.77711999999997,298.81716 192.77711999999997,298.84524 192.77711999999997C298.84524 192.77711999999997,298.87332 192.77711999999997,298.87332 192.77711999999997C298.87332 192.77711999999997,299.04179999999997 192.77711999999997,299.18219999999997 192.77711999999997C301.70939999999996 192.91751999999997,303.19764 194.57423999999997,303.19764 196.65215999999998C303.19764 197.66303999999997,302.86068 198.81431999999998,302.01828 199.90943999999996C300.41772 202.07159999999996,297.80628 203.25095999999996,295.5318 203.25095999999996C293.76276 203.25095999999996,292.24644 202.54895999999997,291.51635999999996 201.11687999999998C291.29172 200.55527999999998,291.1794 200.02175999999997,291.1794 199.43207999999998C291.1794 196.37135999999998,294.60516 192.97367999999997,298.53636 192.77711999999997">
</path>
</g>
</g>
<g class="vf-modifiers">
</g>
</g>
<g class="vf-stavenote" id="vf-auto20405">
<g class="vf-note" pointer-events="bounding-box">
<g class="vf-notehead" pointer-events="bounding-box">
<path stroke-width="0.3" fill="#000000" stroke="none" stroke-dasharray="none" d="M325.1196 197.99999999999997M332.47656 192.77711999999997C332.58888 192.77711999999997,332.75736 192.77711999999997,332.78544 192.77711999999997C332.78544 192.77711999999997,332.81352 192.77711999999997,332.81352 192.77711999999997C332.81352 192.77711999999997,332.98199999999997 192.77711999999997,333.12239999999997 192.77711999999997C335.64959999999996 192.91751999999997,337.13784 194.57423999999997,337.13784 196.65215999999998C337.13784 197.66303999999997,336.80088 198.81431999999998,335.95848 199.90943999999996C334.35792 202.07159999999996,331.74648 203.25095999999996,329.472 203.25095999999996C327.70296 203.25095999999996,326.18664 202.54895999999997,325.45655999999997 201.11687999999998C325.23192 200.55527999999998,325.1196 200.02175999999997,325.1196 199.43207999999998C325.1196 196.37135999999998,328.54536 192.97367999999997,332.47656 192.77711999999997">
</path>
</g>
</g>
<g class="vf-modifiers">
</g>
</g>
<g class="vf-stavenote" id="vf-auto20415">
<g class="vf-note" pointer-events="bounding-box">
<g class="vf-notehead" pointer-events="bounding-box">
<path stroke-width="0.3" fill="#000000" stroke="none" stroke-dasharray="none" d="M359.0598 197.99999999999997M366.41676 192.77711999999997C366.52908 192.77711999999997,366.69756 192.77711999999997,366.72564 192.77711999999997C366.72564 192.77711999999997,366.75372 192.77711999999997,366.75372 192.77711999999997C366.75372 192.77711999999997,366.9222 192.77711999999997,367.0626 192.77711999999997C369.58979999999997 192.91751999999997,371.07804 194.57423999999997,371.07804 196.65215999999998C371.07804 197.66303999999997,370.74108 198.81431999999998,369.89868 199.90943999999996C368.29812 202.07159999999996,365.68668 203.25095999999996,363.4122 203.25095999999996C361.64316 203.25095999999996,360.12684 202.54895999999997,359.39676 201.11687999999998C359.17212 200.55527999999998,359.0598 200.02175999999997,359.0598 199.43207999999998C359.0598 196.37135999999998,362.48556 192.97367999999997,366.41676 192.77711999999997">
</path>
</g>
</g>
<g class="vf-modifiers">
</g>
</g>
<path stroke-width="1.5" fill="none" stroke="#000000" stroke-dasharray="none" d="M132.74663999999999 197.99999999999997L132.74663999999999 163.74999999999997">
</path>
<path stroke-width="1.5" fill="none" stroke="#000000" stroke-dasharray="none" d="M166.68684 197.99999999999997L166.68684 163.74999999999997">
</path>
<path stroke-width="1.5" fill="none" stroke="#000000" stroke-dasharray="none" d="M200.62704 197.99999999999997L200.62704 163.74999999999997">
</path>
<path stroke-width="1.5" fill="none" stroke="#000000" stroke-dasharray="none" d="M234.56724 197.99999999999997L234.56724 163.74999999999997">
</path>
<path stroke-width="0.3" fill="#000000" stroke="none" stroke-dasharray="none" d="M131.99663999999999 162.99999999999997L131.99663999999999 167.99999999999997L234.81724 167.99999999999997L234.81724 162.99999999999997Z">
</path>
<path stroke-width="1.5" fill="none" stroke="#000000" stroke-dasharray="none" d="M268.50744 197.99999999999997L268.50744 163.74999999999997">
</path>
<path stroke-width="1.5" fill="none" stroke="#000000" stroke-dasharray="none" d="M302.44764 197.99999999999997L302.44764 163.74999999999997">
</path>
<path stroke-width="1.5" fill="none" stroke="#000000" stroke-dasharray="none" d="M336.38784 197.99999999999997L336.38784 163.74999999999997">
</path>
<path stroke-width="1.5" fill="none" stroke="#000000" stroke-dasharray="none" d="M370.32804 197.99999999999997L370.32804 163.74999999999997">
</path>
<path stroke-width="0.3" fill="#000000" stroke="none" stroke-dasharray="none" d="M267.75744 162.99999999999997L267.75744 167.99999999999997L370.57804 167.99999999999997L370.57804 162.99999999999997Z">
</path>
<path stroke-width="1" fill="none" stroke="black" stroke-dasharray="none" d="M391.1120447999999 197.99999999999997L716.4971811839998 197.99999999999997">
</path>
<rect stroke-width="0.3" fill="black" stroke="black" stroke-dasharray="none" x="711.4971811839998" y="177.49999999999997" width="1" height="41">
</rect>
<rect stroke-width="0.3" fill="black" stroke="black" stroke-dasharray="none" x="714.4971811839998" y="177.49999999999997" width="3" height="41">
</rect>
<path stroke-width="0.3" fill="black" stroke="none" stroke-dasharray="none" d="M710.4971811839998 193.49999999999997 A2 2 0 0 0 706.4971811839998 193.49999999999997M706.4971811839998 193.49999999999997 A2 2 0 0 0 710.4971811839998 193.49999999999997">
</path>
<path stroke-width="0.3" fill="black" stroke="none" stroke-dasharray="none" d="M710.4971811839998 203.49999999999997 A2 2 0 0 0 706.4971811839998 203.49999999999997M706.4971811839998 203.49999999999997 A2 2 0 0 0 710.4971811839998 203.49999999999997">
</path>
<path stroke-width="0.3" fill="black" stroke="none" stroke-dasharray="none" d="M396.2416447999999 197.99999999999997M401.9152447999999 179.33759999999998C402.0304447999999 179.33759999999998,402.2320447999999 179.33759999999998,402.4624447999999 179.33759999999998C402.9232447999999 179.33759999999998,403.5280447999999 179.33759999999998,403.6720447999999 179.39519999999996C405.8320447999999 179.65439999999998,407.5600447999999 180.74879999999996,408.3088447999999 182.27519999999998C408.5680447999999 182.79359999999997,408.6832447999999 183.34079999999997,408.6832447999999 183.91679999999997C408.6832447999999 185.32799999999997,407.9056447999999 186.94079999999997,406.4944447999999 188.15039999999996C405.5152447999999 188.98559999999998,404.5360447999999 189.50399999999996,403.0096447999999 189.99359999999996C401.0224447999999 190.62719999999996,399.3232447999999 191.75039999999998,398.2288447999999 193.10399999999998C398.2288447999999 193.10399999999998,398.2288447999999 193.13279999999997,398.2288447999999 193.13279999999997C398.2288447999999 193.13279999999997,398.2288447999999 193.13279999999997,398.2288447999999 193.13279999999997C398.2288447999999 193.13279999999997,398.3152447999999 193.10399999999998,398.3728447999999 193.01759999999996C399.4672447999999 192.12479999999996,400.9360447999999 191.60639999999998,402.2608447999999 191.60639999999998C403.3552447999999 191.60639999999998,404.13284479999993 191.80799999999996,405.1696447999999 192.38399999999996C405.8032447999999 192.70079999999996,406.3792447999999 192.84479999999996,406.9264447999999 192.84479999999996C407.15684479999993 192.84479999999996,407.3872447999999 192.84479999999996,407.6464447999999 192.78719999999998C408.0208447999999 192.70079999999996,408.4240447999999 192.41279999999998,408.5680447999999 192.18239999999997C408.6544447999999 191.98079999999996,408.7984447999999 191.89439999999996,408.9712447999999 191.89439999999996C409.2016447999999 191.89439999999996,409.4320447999999 192.06719999999999,409.4320447999999 192.32639999999998C409.4320447999999 192.52799999999996,409.1728447999999 193.24799999999996,408.9424447999999 193.7376C408.0208447999999 195.58079999999998,406.4080447999999 196.73279999999997,404.8528447999999 196.73279999999997C404.7376447999999 196.73279999999997,404.6512447999999 196.73279999999997,404.5360447999999 196.70399999999998C404.13284479999993 196.70399999999998,403.9600447999999 196.58879999999996,403.4416447999999 196.24319999999997C402.3472447999999 195.52319999999997,400.9648447999999 195.14879999999997,399.7552447999999 195.14879999999997C399.2368447999999 195.14879999999997,398.7760447999999 195.20639999999997,398.3440447999999 195.37919999999997C397.7680447999999 195.58079999999998,397.2208447999999 195.92639999999997,397.0480447999999 196.18559999999997C396.96164479999993 196.38719999999998,396.8176447999999 196.44479999999996,396.64484479999993 196.44479999999996C396.5008447999999 196.44479999999996,396.3568447999999 196.38719999999998,396.2704447999999 196.21439999999998L396.2128447999999 196.128L396.2128447999999 195.72479999999996C396.2128447999999 195.37919999999997,396.2416447999999 195.26399999999998,396.2416447999999 195.14879999999997C396.2704447999999 195.06239999999997,396.2992447999999 194.88959999999997,396.2992447999999 194.74559999999997C396.8176447999999 192.32639999999998,398.5744447999999 190.16639999999998,400.9648447999999 189.10079999999996C402.9232447999999 188.17919999999998,404.2192447999999 186.53759999999997,404.44964479999993 184.46399999999997C404.5072447999999 184.29119999999998,404.5072447999999 184.14719999999997,404.5072447999999 183.97439999999997C404.5072447999999 182.13119999999998,403.1248447999999 180.86399999999998,401.1664447999999 180.86399999999998C401.0224447999999 180.86399999999998,400.8496447999999 180.86399999999998,400.7056447999999 180.86399999999998C400.4176447999999 180.89279999999997,400.3312447999999 180.89279999999997,400.3312447999999 180.95039999999997C400.3312447999999 180.95039999999997,400.3312447999999 180.97919999999996,400.4176447999999 181.03679999999997C401.0800447999999 181.41119999999998,401.3968447999999 182.13119999999998,401.3968447999999 182.82239999999996C401.3968447999999 183.71519999999998,400.9360447999999 184.55039999999997,400.0432447999999 184.89599999999996C399.7552447999999 184.98239999999998,399.4672447999999 185.01119999999997,399.2368447999999 185.01119999999997C398.0272447999999 185.01119999999997,397.0192447999999 183.97439999999997,397.0192447999999 182.73599999999996C397.0192447999999 182.50559999999996,397.0192447999999 182.27519999999998,397.0768447999999 182.01599999999996C397.5088447999999 180.69119999999998,399.5536447999999 179.59679999999997,401.9152447999999 179.33759999999998M402.8080447999999 198.02879999999996L402.8656447999999 198.02879999999996L402.7792447999999 198.02879999999996L402.8080447999999 198.02879999999996M402.8080447999999 178.61759999999998L402.8656447999999 178.61759999999998L402.7792447999999 178.61759999999998L402.8080447999999 178.61759999999998">
</path>
<path stroke-width="0.3" fill="black" stroke="none" stroke-dasharray="none" d="M396.1120447999999 217.99999999999997M401.1232447999999 199.65439999999998C401.15204479999994 199.62559999999996,401.5552447999999 199.62559999999996,402.7936447999999 199.62559999999996C403.1680447999999 199.62559999999996,403.57124479999993 199.62559999999996,404.0896447999999 199.62559999999996L406.9984447999999 199.62559999999996L407.0848447999999 199.71199999999996C407.22884479999993 199.79839999999996,407.3152447999999 199.94239999999996,407.3152447999999 200.05759999999998C407.3152447999999 200.23039999999997,407.22884479999993 200.34559999999996,407.1136447999999 200.46079999999998C407.0848447999999 200.54719999999998,406.8256447999999 200.77759999999998,406.6528447999999 201.03679999999997L405.12644479999994 202.79359999999997L403.1680447999999 205.01119999999997L402.13124479999993 206.19199999999998L400.5760447999999 207.97759999999997L398.5312447999999 210.31039999999996C398.1856447999999 210.74239999999998,397.81124479999994 211.08799999999997,397.81124479999994 211.08799999999997C397.81124479999994 211.08799999999997,397.81124479999994 211.08799999999997,397.81124479999994 211.08799999999997C397.81124479999994 211.14559999999997,398.0704447999999 211.14559999999997,400.4608447999999 211.14559999999997L403.08164479999994 211.14559999999997L403.08164479999994 209.27359999999996C403.08164479999994 207.37279999999998,403.08164479999994 207.34399999999997,403.1104447999999 207.31519999999998C403.1680447999999 207.22879999999998,403.4272447999999 206.91199999999998,404.4352447999999 205.73119999999997L404.83844479999993 205.29919999999998L405.2416447999999 204.86719999999997L405.8464447999999 204.08959999999996L406.4800447999999 203.42719999999997L406.7968447999999 203.02399999999997C406.91204479999993 202.85119999999998,407.0848447999999 202.82239999999996,407.22884479999993 202.82239999999996C407.40164479999993 202.82239999999996,407.54564479999993 202.90879999999999,407.6320447999999 203.05279999999996C407.66084479999995 203.13919999999996,407.66084479999995 203.19679999999997,407.66084479999995 205.32799999999997C407.66084479999995 205.81759999999997,407.66084479999995 206.42239999999998,407.66084479999995 207.14239999999998L407.66084479999995 211.14559999999997L408.3808447999999 211.14559999999997C409.0432447999999 211.14559999999997,409.0720447999999 211.14559999999997,409.1584447999999 211.17439999999996C409.3888447999999 211.26079999999996,409.5040447999999 211.49119999999996,409.5040447999999 211.75039999999998C409.5040447999999 211.89439999999996,409.4752447999999 212.06719999999999,409.3600447999999 212.18239999999997C409.1872447999999 212.32639999999998,409.1584447999999 212.32639999999998,408.3808447999999 212.32639999999998L407.66084479999995 212.32639999999998L407.66084479999995 212.81599999999997C407.68964479999994 214.28479999999996,407.9776447999999 214.86079999999998,409.10084479999995 215.46559999999997C409.5040447999999 215.66719999999998,409.59044479999994 215.72479999999996,409.59044479999994 216.01279999999997C409.59044479999994 216.21439999999998,409.5328447999999 216.30079999999998,409.3888447999999 216.41599999999997L409.30244479999993 216.44479999999996L405.3568447999999 216.44479999999996L401.4400447999999 216.44479999999996L401.3536447999999 216.41599999999997C401.18084479999993 216.30079999999998,401.15204479999994 216.21439999999998,401.15204479999994 216.01279999999997C401.15204479999994 215.72479999999996,401.18084479999993 215.66719999999998,401.61284479999995 215.46559999999997C402.73604479999995 214.86079999999998,403.0240447999999 214.28479999999996,403.0240447999999 212.81599999999997L403.0240447999999 212.32639999999998L399.71204479999994 212.32639999999998C399.10724479999993 212.38399999999996,398.61764479999994 212.38399999999996,398.2144447999999 212.38399999999996C396.40004479999993 212.38399999999996,396.37124479999994 212.32639999999998,396.3424447999999 212.32639999999998C396.1696447999999 212.26879999999997,396.1120447999999 212.09599999999998,396.1120447999999 211.89439999999996C396.1120447999999 211.89439999999996,396.1120447999999 211.89439999999996,396.1120447999999 211.89439999999996C396.1120447999999 211.69279999999998,396.1120447999999 211.69279999999998,396.68804479999994 211.0304C399.10724479999993 208.09279999999998,400.8064447999999 203.83039999999997,400.8064447999999 200.43199999999996C400.8064447999999 199.91359999999997,400.8928447999999 199.74079999999998,401.1232447999999 199.65439999999998M402.8512447999999 218.02879999999996L402.8800447999999 218.02879999999996L402.7936447999999 218.02879999999996L402.8512447999999 218.02879999999996M402.8512447999999 198.61759999999998L402.8800447999999 198.61759999999998L402.7936447999999 198.61759999999998L402.8512447999999 198.61759999999998">
</path>
<g class="vf-stavenote" id="vf-auto20428">
<g class="vf-note" pointer-events="bounding-box">
<g class="vf-notehead" pointer-events="bounding-box">
<path stroke-width="0.3" fill="#000000" stroke="none" stroke-dasharray="none" d="M447.45452159999996 197.99999999999997M454.8114816 192.77711999999997C454.9238016 192.77711999999997,455.0922816 192.77711999999997,455.12036159999997 192.77711999999997C455.12036159999997 192.77711999999997,455.14844159999996 192.77711999999997,455.14844159999996 192.77711999999997C455.14844159999996 192.77711999999997,455.31692159999994 192.77711999999997,455.45732159999994 192.77711999999997C457.9845216 192.91751999999997,459.47276159999996 194.57423999999997,459.47276159999996 196.65215999999998C459.47276159999996 197.66303999999997,459.1358016 198.81431999999998,458.2934016 199.90943999999996C456.69284159999995 202.07159999999996,454.08140159999994 203.25095999999996,451.80692159999995 203.25095999999996C450.0378816 203.25095999999996,448.5215616 202.54895999999997,447.79148159999994 201.11687999999998C447.5668416 200.55527999999998,447.45452159999996 200.02175999999997,447.45452159999996 199.43207999999998C447.45452159999996 196.37135999999998,450.8802816 192.97367999999997,454.8114816 192.77711999999997">
</path>
</g>
</g>
<g class="vf-modifiers">
<g class="vf-stavenote" id="vf-auto20438">
<g class="vf-note" pointer-events="bounding-box">
<g class="vf-stem" pointer-events="bounding-box">
<path stroke-width="1.5" fill="none" stroke="#000000" stroke-dasharray="none" d="M428.77248319999995 197.99999999999997L428.77248319999995 174.89999999999998">
</path>
</g>
<g class="vf-notehead" pointer-events="bounding-box">
<path stroke-width="0.3" fill="#000000" stroke="none" stroke-dasharray="none" d="M421.59044479999994 197.99999999999997M426.44603839999996 194.55289919999998C426.5201695999999 194.55289919999998,426.63136639999993 194.55289919999998,426.64989919999994 194.55289919999998C426.64989919999994 194.55289919999998,426.66843199999994 194.55289919999998,426.66843199999994 194.55289919999998C426.66843199999994 194.55289919999998,426.77962879999995 194.55289919999998,426.87229279999997 194.55289919999998C428.5402447999999 194.64556319999997,429.52248319999995 195.73899839999996,429.52248319999995 197.11042559999999C429.52248319999995 197.77760639999997,429.3000895999999 198.53745119999996,428.74410559999995 199.26023039999998C427.687736 200.68725599999996,425.96418559999995 201.46563359999996,424.46302879999996 201.46563359999996C423.29546239999996 201.46563359999996,422.29469119999993 201.00231359999998,421.8128383999999 200.05714079999998C421.66457599999995 199.68648479999996,421.59044479999994 199.33436159999997,421.59044479999994 198.94517279999997C421.59044479999994 196.92509759999996,423.85144639999993 194.68262879999997,426.44603839999996 194.55289919999998">
</path>
</g>
<g class="vf-flag" pointer-events="bounding-box">
<path stroke-width="0.3" fill="#000000" stroke="none" stroke-dasharray="none" d="M428.77248319999995 172.89999999999998M428.32769599999995 175.88378079999998L428.32769599999995 172.992664L428.40182719999996 172.992664C428.60568799999993 172.992664,428.73541759999995 173.12239359999998,428.77248319999995 173.34478719999998C429.16167199999995 175.19806719999997,430.32923839999995 177.21814239999998,431.94159199999996 178.73783199999997C433.73927359999993 180.42431679999999,434.64738079999995 182.74091679999998,434.64738079999995 185.13164799999998C434.64738079999995 187.39264959999997,433.85047039999995 189.74631519999997,432.23811679999994 191.69225919999997C431.96012479999996 192.06291519999996,431.94159199999996 192.06291519999996,431.75626399999993 192.06291519999996C431.53387039999996 192.06291519999996,431.38560799999993 191.89611999999997,431.38560799999993 191.67372639999996C431.38560799999993 191.50693119999997,431.40414079999994 191.4698656,431.58946879999996 191.2660048C432.99796159999994 189.56098719999997,433.7022079999999 187.5038464,433.7022079999999 185.5393696C433.7022079999999 183.7972864,433.14622399999996 182.12933439999998,431.99719039999997 180.86910399999996C431.292944 180.09072639999997,429.99564799999996 179.34941439999997,428.34622879999995 178.77489759999997C428.34622879999995 178.75636479999997,428.32769599999995 178.18184799999997,428.32769599999995 175.88378079999998">
</path>
</g>
</g>
<g class="vf-modifiers">
</g>
</g>
<path stroke-width="1" fill="none" stroke="#000000" stroke-dasharray="none" d="M422.59044479999994 189.74999999999997L435.59044479999994 180.74999999999997Z">
</path>
</g>
</g>
<g class="vf-stavenote" id="vf-auto20452">
<g class="vf-note" pointer-events="bounding-box">
<g class="vf-notehead" pointer-events="bounding-box">
<path stroke-width="0.3" fill="#000000" stroke="none" stroke-dasharray="none" d="M499.64376319999997 197.99999999999997M507.0007232 192.77711999999997C507.1130432 192.77711999999997,507.2815232 192.77711999999997,507.30960319999997 192.77711999999997C507.30960319999997 192.77711999999997,507.33768319999996 192.77711999999997,507.33768319999996 192.77711999999997C507.33768319999996 192.77711999999997,507.50616319999995 192.77711999999997,507.64656319999995 192.77711999999997C510.17376319999994 192.91751999999997,511.66200319999996 194.57423999999997,511.66200319999996 196.65215999999998C511.66200319999996 197.66303999999997,511.3250432 198.81431999999998,510.4826432 199.90943999999996C508.88208319999995 202.07159999999996,506.2706432 203.25095999999996,503.99616319999996 203.25095999999996C502.2271232 203.25095999999996,500.7108032 202.54895999999997,499.98072319999994 201.11687999999998C499.7560832 200.55527999999998,499.64376319999997 200.02175999999997,499.64376319999997 199.43207999999998C499.64376319999997 196.37135999999998,503.0695232 192.97367999999997,507.0007232 192.77711999999997">
</path>
</g>
</g>
<g class="vf-modifiers">
</g>
</g>
<g class="vf-stavenote" id="vf-auto20462">
<g class="vf-note" pointer-events="bounding-box">
<g class="vf-notehead" pointer-events="bounding-box">
<path stroke-width="0.3" fill="#000000" stroke="none" stroke-dasharray="none" d="M534.7475039999999 197.99999999999997M542.1044639999999 192.77711999999997C542.216784 192.77711999999997,542.3852639999999 192.77711999999997,542.4133439999999 192.77711999999997C542.4133439999999 192.77711999999997,542.441424 192.77711999999997,542.441424 192.77711999999997C542.441424 192.77711999999997,542.6099039999999 192.77711999999997,542.7503039999999 192.77711999999997C545.2775039999999 192.91751999999997,546.7657439999999 194.57423999999997,546.7657439999999 196.65215999999998C546.7657439999999 197.66303999999997,546.428784 198.81431999999998,545.586384 199.90943999999996C543.985824 202.07159999999996,541.374384 203.25095999999996,539.0999039999999 203.25095999999996C537.3308639999999 203.25095999999996,535.814544 202.54895999999997,535.0844639999999 201.11687999999998C534.8598239999999 200.55527999999998,534.7475039999999 200.02175999999997,534.7475039999999 199.43207999999998C534.7475039999999 196.37135999999998,538.1732639999999 192.97367999999997,542.1044639999999 192.77711999999997">
</path>
</g>
</g>
<g class="vf-modifiers">
</g>
</g>
<g class="vf-stavenote" id="vf-auto20472">
<g class="vf-note" pointer-events="bounding-box">
<g class="vf-notehead" pointer-events="bounding-box">
<path stroke-width="0.3" fill="#000000" stroke="none" stroke-dasharray="none" d="M595.7153215999999 197.99999999999997M603.0722815999999 192.77711999999997C603.1846016 192.77711999999997,603.3530815999999 192.77711999999997,603.3811615999999 192.77711999999997C603.3811615999999 192.77711999999997,603.4092416 192.77711999999997,603.4092416 192.77711999999997C603.4092416 192.77711999999997,603.5777215999999 192.77711999999997,603.7181215999999 192.77711999999997C606.2453215999999 192.91751999999997,607.7335615999999 194.57423999999997,607.7335615999999 196.65215999999998C607.7335615999999 197.66303999999997,607.3966015999999 198.81431999999998,606.5542015999999 199.90943999999996C604.9536416 202.07159999999996,602.3422016 203.25095999999996,600.0677215999999 203.25095999999996C598.2986815999999 203.25095999999996,596.7823616 202.54895999999997,596.0522815999999 201.11687999999998C595.8276415999999 200.55527999999998,595.7153215999999 200.02175999999997,595.7153215999999 199.43207999999998C595.7153215999999 196.37135999999998,599.1410815999999 192.97367999999997,603.0722815999999 192.77711999999997">
</path>
</g>
</g>
<g class="vf-modifiers">
<g class="vf-stavenote" id="vf-auto20482">
<g class="vf-note" pointer-events="bounding-box">
<g class="vf-stem" pointer-events="bounding-box">
<path stroke-width="1.5" fill="none" stroke="#000000" stroke-dasharray="none" d="M577.0332831999999 197.99999999999997L577.0332831999999 174.89999999999998">
</path>
</g>
<g class="vf-notehead" pointer-events="bounding-box">
<path stroke-width="0.3" fill="#000000" stroke="none" stroke-dasharray="none" d="M569.8512447999999 197.99999999999997M574.7068383999999 194.55289919999998C574.7809695999999 194.55289919999998,574.8921664 194.55289919999998,574.9106992 194.55289919999998C574.9106992 194.55289919999998,574.929232 194.55289919999998,574.929232 194.55289919999998C574.929232 194.55289919999998,575.0404287999999 194.55289919999998,575.1330927999999 194.55289919999998C576.8010447999999 194.64556319999997,577.7832831999999 195.73899839999996,577.7832831999999 197.11042559999999C577.7832831999999 197.77760639999997,577.5608895999999 198.53745119999996,577.0049055999999 199.26023039999998C575.9485359999999 200.68725599999996,574.2249855999999 201.46563359999996,572.7238287999999 201.46563359999996C571.5562623999999 201.46563359999996,570.5554911999999 201.00231359999998,570.0736383999999 200.05714079999998C569.9253759999999 199.68648479999996,569.8512447999999 199.33436159999997,569.8512447999999 198.94517279999997C569.8512447999999 196.92509759999996,572.1122463999999 194.68262879999997,574.7068383999999 194.55289919999998">
</path>
</g>
<g class="vf-flag" pointer-events="bounding-box">
<path stroke-width="0.3" fill="#000000" stroke="none" stroke-dasharray="none" d="M577.0332831999999 172.89999999999998M576.588496 175.88378079999998L576.588496 172.992664L576.6626271999999 172.992664C576.8664879999999 172.992664,576.9962175999999 173.12239359999998,577.0332831999999 173.34478719999998C577.422472 175.19806719999997,578.5900383999999 177.21814239999998,580.2023919999999 178.73783199999997C582.0000736 180.42431679999999,582.9081808 182.74091679999998,582.9081808 185.13164799999998C582.9081808 187.39264959999997,582.1112704 189.74631519999997,580.4989168 191.69225919999997C580.2209247999999 192.06291519999996,580.2023919999999 192.06291519999996,580.0170639999999 192.06291519999996C579.7946703999999 192.06291519999996,579.646408 191.89611999999997,579.646408 191.67372639999996C579.646408 191.50693119999997,579.6649408 191.4698656,579.8502687999999 191.2660048C581.2587616 189.56098719999997,581.963008 187.5038464,581.963008 185.5393696C581.963008 183.7972864,581.4070239999999 182.12933439999998,580.2579903999999 180.86910399999996C579.5537439999999 180.09072639999997,578.2564479999999 179.34941439999997,576.6070288 178.77489759999997C576.6070288 178.75636479999997,576.588496 178.18184799999997,576.588496 175.88378079999998">
</path>
</g>
</g>
<g class="vf-modifiers">
</g>
</g>
<path stroke-width="1" fill="none" stroke="#000000" stroke-dasharray="none" d="M570.8512447999999 189.74999999999997L583.8512447999999 180.74999999999997Z">
</path>
</g>
</g>
<g class="vf-stavenote" id="vf-auto20496">
<g class="vf-note" pointer-events="bounding-box">
<g class="vf-notehead" pointer-events="bounding-box">
<path stroke-width="0.3" fill="#000000" stroke="none" stroke-dasharray="none" d="M647.9045632 197.99999999999997M655.2615231999999 192.77711999999997C655.3738432 192.77711999999997,655.5423231999999 192.77711999999997,655.5704032 192.77711999999997C655.5704032 192.77711999999997,655.5984832 192.77711999999997,655.5984832 192.77711999999997C655.5984832 192.77711999999997,655.7669632 192.77711999999997,655.9073632 192.77711999999997C658.4345632 192.91751999999997,659.9228032 194.57423999999997,659.9228032 196.65215999999998C659.9228032 197.66303999999997,659.5858432 198.81431999999998,658.7434432 199.90943999999996C657.1428832 202.07159999999996,654.5314432 203.25095999999996,652.2569632 203.25095999999996C650.4879232 203.25095999999996,648.9716032 202.54895999999997,648.2415232 201.11687999999998C648.0168831999999 200.55527999999998,647.9045632 200.02175999999997,647.9045632 199.43207999999998C647.9045632 196.37135999999998,651.3303232 192.97367999999997,655.2615231999999 192.77711999999997">
</path>
</g>
</g>
<g class="vf-modifiers">
</g>
</g>
<g class="vf-stavenote" id="vf-auto20506">
<g class="vf-note" pointer-events="bounding-box">
<g class="vf-notehead" pointer-events="bounding-box">
<path stroke-width="0.3" fill="#000000" stroke="none" stroke-dasharray="none" d="M683.008304 197.99999999999997M690.3652639999999 192.77711999999997C690.477584 192.77711999999997,690.6460639999999 192.77711999999997,690.674144 192.77711999999997C690.674144 192.77711999999997,690.702224 192.77711999999997,690.702224 192.77711999999997C690.702224 192.77711999999997,690.8707039999999 192.77711999999997,691.0111039999999 192.77711999999997C693.5383039999999 192.91751999999997,695.026544 194.57423999999997,695.026544 196.65215999999998C695.026544 197.66303999999997,694.689584 198.81431999999998,693.847184 199.90943999999996C692.246624 202.07159999999996,689.635184 203.25095999999996,687.3607039999999 203.25095999999996C685.5916639999999 203.25095999999996,684.075344 202.54895999999997,683.3452639999999 201.11687999999998C683.1206239999999 200.55527999999998,683.008304 200.02175999999997,683.008304 199.43207999999998C683.008304 196.37135999999998,686.4340639999999 192.97367999999997,690.3652639999999 192.77711999999997">
</path>
</g>
</g>
<g class="vf-modifiers">
</g>
</g>
<path stroke-width="1.5" fill="none" stroke="#000000" stroke-dasharray="none" d="M458.72276159999996 197.99999999999997L458.72276159999996 163.74999999999997">
</path>
<path stroke-width="1.5" fill="none" stroke="#000000" stroke-dasharray="none" d="M510.91200319999996 197.99999999999997L510.91200319999996 163.74999999999997">
</path>
<path stroke-width="1.5" fill="none" stroke="#000000" stroke-dasharray="none" d="M546.0157439999999 197.99999999999997L546.0157439999999 163.74999999999997">
</path>
<path stroke-width="0.3" fill="#000000" stroke="none" stroke-dasharray="none" d="M457.97276159999996 162.99999999999997L457.97276159999996 167.99999999999997L546.2657439999999 167.99999999999997L546.2657439999999 162.99999999999997Z">
</path>
<path stroke-width="0.3" fill="#000000" stroke="none" stroke-dasharray="none" d="M510.16200319999996 170.49999999999997L510.16200319999996 175.49999999999997L546.2657439999999 175.49999999999997L546.2657439999999 170.49999999999997Z">
</path>
<path stroke-width="1.5" fill="none" stroke="#000000" stroke-dasharray="none" d="M606.9835615999999 197.99999999999997L606.9835615999999 163.74999999999997">
</path>
<path stroke-width="1.5" fill="none" stroke="#000000" stroke-dasharray="none" d="M659.1728032 197.99999999999997L659.1728032 163.74999999999997">
</path>
<path stroke-width="1.5" fill="none" stroke="#000000" stroke-dasharray="none" d="M694.276544 197.99999999999997L694.276544 163.74999999999997">
</path>
<path stroke-width="0.3" fill="#000000" stroke="none" stroke-dasharray="none" d="M606.2335615999999 162.99999999999997L606.2335615999999 167.99999999999997L694.526544 167.99999999999997L694.526544 162.99999999999997Z">
</path>
<path stroke-width="0.3" fill="#000000" stroke="none" stroke-dasharray="none" d="M658.4228032 170.49999999999997L658.4228032 175.49999999999997L694.526544 175.49999999999997L694.526544 170.49999999999997Z">
</path>
</svg>