<svg width="1536" height="331.99999999999994" viewBox="0 0 1536 331.99999999999994">
<path stroke-width="1" fill="none" stroke="black" stroke-dasharray="none" d="M50 197.99999999999997L842.4717007359999 197.99999999999997">
</path>
<rect stroke-width="0.3" fill="black" stroke="black" stroke-dasharray="none" x="842.4717007359999" y="177.49999999999997" width="1" height="41">
</rect>
<path stroke-width="0.3" fill="black" stroke="none" stroke-dasharray="none" d="M55 197.99999999999997M55 197.99999999999997L55 188.00639999999999L57.1888 188.00639999999999L59.4064 188.00639999999999L59.4064 197.99999999999997L59.4064 208.02239999999998L57.1888 208.02239999999998L55 208.02239999999998L55 197.99999999999997M63.870400000000004 198.02879999999996L63.870400000000004 188.00639999999999L66.1168 188.00639999999999L68.3632 188.00639999999999L68.3632 198.02879999999996L68.3632 208.02239999999998L66.1168 208.02239999999998L63.870400000000004 208.02239999999998L63.870400000000004 198.02879999999996">
</path>
<path stroke-width="0.3" fill="black" stroke="none" stroke-dasharray="none" d="M96 197.99999999999997M101.0112 179.65439999999998C101.04 179.62559999999996,101.4432 179.62559999999996,102.6816 179.62559999999996C103.056 179.62559999999996,103.4592 179.62559999999996,103.9776 179.62559999999996L106.8864 179.62559999999996L106.9728 179.71199999999996C107.1168 179.79839999999996,107.2032 179.94239999999996,107.2032 180.05759999999998C107.2032 180.23039999999997,107.1168 180.34559999999996,107.0016 180.46079999999998C106.9728 180.54719999999998,106.7136 180.77759999999998,106.5408 181.03679999999997L105.0144 182.79359999999997L103.056 185.01119999999997L102.0192 186.19199999999998L100.464 187.97759999999997L98.4192 190.31039999999996C98.0736 190.74239999999998,97.6992 191.08799999999997,97.6992 191.08799999999997C97.6992 191.08799999999997,97.6992 191.08799999999997,97.6992 191.08799999999997C97.6992 191.14559999999997,97.9584 191.14559999999997,100.3488 191.14559999999997L102.9696 191.14559999999997L102.9696 189.27359999999996C102.9696 187.37279999999998,102.9696 187.34399999999997,102.9984 187.31519999999998C103.056 187.22879999999998,103.3152 186.91199999999998,104.3232 185.73119999999997L104.7264 185.29919999999998L105.1296 184.86719999999997L105.7344 184.08959999999996L106.368 183.42719999999997L106.6848 183.02399999999997C106.8 182.85119999999998,106.9728 182.82239999999996,107.1168 182.82239999999996C107.28960000000001 182.82239999999996,107.4336 182.90879999999999,107.52 183.05279999999996C107.5488 183.13919999999996,107.5488 183.19679999999997,107.5488 185.32799999999997C107.5488 185.81759999999997,107.5488 186.42239999999998,107.5488 187.14239999999998L107.5488 191.14559999999997L108.2688 191.14559999999997C108.9312 191.14559999999997,108.96 191.14559999999997,109.0464 191.17439999999996C109.2768 191.26079999999996,109.392 191.49119999999996,109.392 191.75039999999998C109.392 191.89439999999996,109.3632 192.06719999999999,109.248 192.18239999999997C109.0752 192.32639999999998,109.0464 192.32639999999998,108.2688 192.32639999999998L107.5488 192.32639999999998L107.5488 192.81599999999997C107.5776 194.28479999999996,107.8656 194.86079999999998,108.9888 195.46559999999997C109.392 195.66719999999998,109.4784 195.72479999999996,109.4784 196.01279999999997C109.4784 196.21439999999998,109.4208 196.30079999999998,109.2768 196.41599999999997L109.1904 196.44479999999996L105.2448 196.44479999999996L101.328 196.44479999999996L101.2416 196.41599999999997C101.0688 196.30079999999998,101.04 196.21439999999998,101.04 196.01279999999997C101.04 195.72479999999996,101.0688 195.66719999999998,101.5008 195.46559999999997C102.624 194.86079999999998,102.912 194.28479999999996,102.912 192.81599999999997L102.912 192.32639999999998L99.6 192.32639999999998C98.9952 192.38399999999996,98.5056 192.38399999999996,98.1024 192.38399999999996C96.288 192.38399999999996,96.2592 192.32639999999998,96.2304 192.32639999999998C96.0576 192.26879999999997,96 192.09599999999998,96 191.89439999999996C96 191.89439999999996,96 191.89439999999996,96 191.89439999999996C96 191.69279999999998,96 191.69279999999998,96.576 191.0304C98.9952 188.09279999999998,100.6944 183.83039999999997,100.6944 180.43199999999996C100.6944 179.91359999999997,100.7808 179.74079999999998,101.0112 179.65439999999998M102.7392 198.02879999999996L102.768 198.02879999999996L102.6816 198.02879999999996L102.7392 198.02879999999996M102.7392 178.61759999999998L102.768 178.61759999999998L102.6816 178.61759999999998L102.7392 178.61759999999998">
</path>
<path stroke-width="0.3" fill="black" stroke="none" stroke-dasharray="none" d="M96 217.99999999999997M101.0112 199.65439999999998C101.04 199.62559999999996,101.4432 199.62559999999996,102.6816 199.62559999999996C103.056 199.62559999999996,103.4592 199.62559999999996,103.9776 199.62559999999996L106.8864 199.62559999999996L106.9728 199.71199999999996C107.1168 199.79839999999996,107.2032 199.94239999999996,107.2032 200.05759999999998C107.2032 200.23039999999997,107.1168 200.34559999999996,107.0016 200.46079999999998C106.9728 200.54719999999998,106.7136 200.77759999999998,106.5408 201.03679999999997L105.0144 202.79359999999997L103.056 205.01119999999997L102.0192 206.19199999999998L100.464 207.97759999999997L98.4192 210.31039999999996C98.0736 210.74239999999998,97.6992 211.08799999999997,97.6992 211.08799999999997C97.6992 211.08799999999997,97.6992 211.08799999999997,97.6992 211.08799999999997C97.6992 211.14559999999997,97.9584 211.14559999999997,100.3488 211.14559999999997L102.9696 211.14559999999997L102.9696 209.27359999999996C102.9696 207.37279999999998,102.9696 207.34399999999997,102.9984 207.31519999999998C103.056 207.22879999999998,103.3152 206.91199999999998,104.3232 205.73119999999997L104.7264 205.29919999999998L105.1296 204.86719999999997L105.7344 204.08959999999996L106.368 203.42719999999997L106.6848 203.02399999999997C106.8 202.85119999999998,106.9728 202.82239999999996,107.1168 202.82239999999996C107.28960000000001 202.82239999999996,107.4336 202.90879999999999,107.52 203.05279999999996C107.5488 203.13919999999996,107.5488 203.19679999999997,107.5488 205.32799999999997C107.5488 205.81759999999997,107.5488 206.42239999999998,107.5488 207.14239999999998L107.5488 211.14559999999997L108.2688 211.14559999999997C108.9312 211.14559999999997,108.96 211.14559999999997,109.0464 211.17439999999996C109.2768 211.26079999999996,109.392 211.49119999999996,109.392 211.75039999999998C109.392 211.89439999999996,109.3632 212.06719999999999,109.248 212.18239999999997C109.0752 212.32639999999998,109.0464 212.32639999999998,108.2688 212.32639999999998L107.5488 212.32639999999998L107.5488 212.81599999999997C107.5776 214.28479999999996,107.8656 214.86079999999998,108.9888 215.46559999999997C109.392 215.66719999999998,109.4784 215.72479999999996,109.4784 216.01279999999997C109.4784 216.21439999999998,109.4208 216.30079999999998,109.2768 216.41599999999997L109.1904 216.44479999999996L105.2448 216.44479999999996L101.328 216.44479999999996L101.2416 216.41599999999997C101.0688 216.30079999999998,101.04 216.21439999999998,101.04 216.01279999999997C101.04 215.72479999999996,101.0688 215.66719999999998,101.5008 215.46559999999997C102.624 214.86079999999998,102.912 214.28479999999996,102.912 212.81599999999997L102.912 212.32639999999998L99.6 212.32639999999998C98.9952 212.38399999999996,98.5056 212.38399999999996,98.1024 212.38399999999996C96.288 212.38399999999996,96.2592 212.32639999999998,96.2304 212.32639999999998C96.0576 212.26879999999997,96 212.09599999999998,96 211.89439999999996C96 211.89439999999996,96 211.89439999999996,96 211.89439999999996C96 211.69279999999998,96 211.69279999999998,96.576 211.0304C98.9952 208.09279999999998,100.6944 203.83039999999997,100.6944 200.43199999999996C100.6944 199.91359999999997,100.7808 199.74079999999998,101.0112 199.65439999999998M102.7392 218.02879999999996L102.768 218.02879999999996L102.6816 218.02879999999996L102.7392 218.02879999999996M102.7392 198.61759999999998L102.768 198.61759999999998L102.6816 198.61759999999998L102.7392 198.61759999999998">
</path>
<g class="vf-stavenote" id="vf-auto47360">
<g class="vf-note" pointer-events="bounding-box">
<g class="vf-notehead" pointer-events="bounding-box">
<path stroke-width="0.3" fill="#000000" stroke="none" stroke-dasharray="none" d="M147.3424768 197.99999999999997M154.69943679999997 192.77711999999997C154.81175679999998 192.77711999999997,154.9802368 192.77711999999997,155.0083168 192.77711999999997C155.0083168 192.77711999999997,155.03639679999998 192.77711999999997,155.03639679999998 192.77711999999997C155.03639679999998 192.77711999999997,155.2048768 192.77711999999997,155.3452768 192.77711999999997C157.8724768 192.91751999999997,159.36071679999998 194.57423999999997,159.36071679999998 196.65215999999998C159.36071679999998 197.66303999999997,159.0237568 198.81431999999998,158.18135679999997 199.90943999999996C156.58079679999997 202.07159999999996,153.96935679999999 203.25095999999996,151.69487679999997 203.25095999999996C149.92583679999998 203.25095999999996,148.40951679999998 202.54895999999997,147.6794368 201.11687999999998C147.4547968 200.55527999999998,147.3424768 200.02175999999997,147.3424768 199.43207999999998C147.3424768 196.37135999999998,150.76823679999998 192.97367999999997,154.69943679999997 192.77711999999997">
</path>
</g>
</g>
<g class="vf-modifiers">
<g class="vf-stavenote" id="vf-auto47370">
<g class="vf-note" pointer-events="bounding-box">
<g class="vf-stem" pointer-events="bounding-box">
<path stroke-width="1.5" fill="none" stroke="#000000" stroke-dasharray="none" d="M128.6604384 197.99999999999997L128.6604384 174.89999999999998">
</path>
</g>
<g class="vf-notehead" pointer-events="bounding-box">
<path stroke-width="0.3" fill="#000000" stroke="none" stroke-dasharray="none" d="M121.4784 197.99999999999997M126.3339936 194.55289919999998C126.4081248 194.55289919999998,126.5193216 194.55289919999998,126.5378544 194.55289919999998C126.5378544 194.55289919999998,126.55638719999999 194.55289919999998,126.55638719999999 194.55289919999998C126.55638719999999 194.55289919999998,126.66758399999999 194.55289919999998,126.76024799999999 194.55289919999998C128.4282 194.64556319999997,129.4104384 195.73899839999996,129.4104384 197.11042559999999C129.4104384 197.77760639999997,129.1880448 198.53745119999996,128.6320608 199.26023039999998C127.5756912 200.68725599999996,125.8521408 201.46563359999996,124.350984 201.46563359999996C123.1834176 201.46563359999996,122.1826464 201.00231359999998,121.7007936 200.05714079999998C121.55253119999999 199.68648479999996,121.4784 199.33436159999997,121.4784 198.94517279999997C121.4784 196.92509759999996,123.7394016 194.68262879999997,126.3339936 194.55289919999998">
</path>
</g>
<g class="vf-flag" pointer-events="bounding-box">
<path stroke-width="0.3" fill="#000000" stroke="none" stroke-dasharray="none" d="M128.6604384 172.89999999999998M128.2156512 175.88378079999998L128.2156512 172.992664L128.2897824 172.992664C128.4936432 172.992664,128.6233728 173.12239359999998,128.6604384 173.34478719999998C129.0496272 175.19806719999997,130.2171936 177.21814239999998,131.8295472 178.73783199999997C133.6272288 180.42431679999999,134.535336 182.74091679999998,134.535336 185.13164799999998C134.535336 187.39264959999997,133.7384256 189.74631519999997,132.126072 191.69225919999997C131.84808 192.06291519999996,131.8295472 192.06291519999996,131.6442192 192.06291519999996C131.4218256 192.06291519999996,131.2735632 191.89611999999997,131.2735632 191.67372639999996C131.2735632 191.50693119999997,131.29209600000002 191.4698656,131.477424 191.2660048C132.88591680000002 189.56098719999997,133.5901632 187.5038464,133.5901632 185.5393696C133.5901632 183.7972864,133.0341792 182.12933439999998,131.88514560000002 180.86910399999996C131.1808992 180.09072639999997,129.8836032 179.34941439999997,128.234184 178.77489759999997C128.234184 178.75636479999997,128.2156512 178.18184799999997,128.2156512 175.88378079999998">
</path>
</g>
</g>
<g class="vf-modifiers">
</g>
</g>
<path stroke-width="1" fill="none" stroke="#000000" stroke-dasharray="none" d="M122.4784 189.74999999999997L135.4784 180.74999999999997Z">
</path>
</g>
</g>
<g class="vf-stavenote" id="vf-auto47384">
<g class="vf-note" pointer-events="bounding-box">
<g class="vf-notehead" pointer-events="bounding-box">
<path stroke-width="0.3" fill="#000000" stroke="none" stroke-dasharray="none" d="M179.5680384 197.99999999999997M186.9249984 192.77711999999997C187.0373184 192.77711999999997,187.2057984 192.77711999999997,187.2338784 192.77711999999997C187.2338784 192.77711999999997,187.2619584 192.77711999999997,187.2619584 192.77711999999997C187.2619584 192.77711999999997,187.4304384 192.77711999999997,187.5708384 192.77711999999997C190.0980384 192.91751999999997,191.5862784 194.57423999999997,191.5862784 196.65215999999998C191.5862784 197.66303999999997,191.2493184 198.81431999999998,190.4069184 199.90943999999996C188.8063584 202.07159999999996,186.1949184 203.25095999999996,183.9204384 203.25095999999996C182.1513984 203.25095999999996,180.6350784 202.54895999999997,179.9049984 201.11687999999998C179.68035840000002 200.55527999999998,179.5680384 200.02175999999997,179.5680384 199.43207999999998C179.5680384 196.37135999999998,182.9937984 192.97367999999997,186.9249984 192.77711999999997">
</path>
</g>
</g>
<g class="vf-modifiers">
</g>
</g>
<g class="vf-stavenote" id="vf-auto47394">
<g class="vf-note" pointer-events="bounding-box">
<g class="vf-notehead" pointer-events="bounding-box">
<path stroke-width="0.3" fill="#000000" stroke="none" stroke-dasharray="none" d="M237.6576768 197.99999999999997M245.01463679999998 192.77711999999997C245.1269568 192.77711999999997,245.2954368 192.77711999999997,245.3235168 192.77711999999997C245.3235168 192.77711999999997,245.35159679999998 192.77711999999997,245.35159679999998 192.77711999999997C245.35159679999998 192.77711999999997,245.5200768 192.77711999999997,245.6604768 192.77711999999997C248.1876768 192.91751999999997,249.67591679999998 194.57423999999997,249.67591679999998 196.65215999999998C249.67591679999998 197.66303999999997,249.3389568 198.81431999999998,248.49655679999998 199.90943999999996C246.89599679999998 202.07159999999996,244.2845568 203.25095999999996,242.01007679999998 203.25095999999996C240.2410368 203.25095999999996,238.72471679999998 202.54895999999997,237.9946368 201.11687999999998C237.7699968 200.55527999999998,237.6576768 200.02175999999997,237.6576768 199.43207999999998C237.6576768 196.37135999999998,241.0834368 192.97367999999997,245.01463679999998 192.77711999999997">
</path>
</g>
</g>
<g class="vf-modifiers">
<g class="vf-stavenote" id="vf-auto47404">
<g class="vf-note" pointer-events="bounding-box">
<g class="vf-stem" pointer-events="bounding-box">
<path stroke-width="1.5" fill="none" stroke="#000000" stroke-dasharray="none" d="M218.9756384 197.99999999999997L218.9756384 174.89999999999998">
</path>
</g>
<g class="vf-notehead" pointer-events="bounding-box">
<path stroke-width="0.3" fill="#000000" stroke="none" stroke-dasharray="none" d="M211.7936 197.99999999999997M216.6491936 194.55289919999998C216.7233248 194.55289919999998,216.8345216 194.55289919999998,216.8530544 194.55289919999998C216.8530544 194.55289919999998,216.8715872 194.55289919999998,216.8715872 194.55289919999998C216.8715872 194.55289919999998,216.982784 194.55289919999998,217.075448 194.55289919999998C218.7434 194.64556319999997,219.7256384 195.73899839999996,219.7256384 197.11042559999999C219.7256384 197.77760639999997,219.5032448 198.53745119999996,218.9472608 199.26023039999998C217.8908912 200.68725599999996,216.1673408 201.46563359999996,214.666184 201.46563359999996C213.4986176 201.46563359999996,212.4978464 201.00231359999998,212.0159936 200.05714079999998C211.8677312 199.68648479999996,211.7936 199.33436159999997,211.7936 198.94517279999997C211.7936 196.92509759999996,214.0546016 194.68262879999997,216.6491936 194.55289919999998">
</path>
</g>
<g class="vf-flag" pointer-events="bounding-box">
<path stroke-width="0.3" fill="#000000" stroke="none" stroke-dasharray="none" d="M218.9756384 172.89999999999998M218.5308512 175.88378079999998L218.5308512 172.992664L218.6049824 172.992664C218.8088432 172.992664,218.9385728 173.12239359999998,218.9756384 173.34478719999998C219.3648272 175.19806719999997,220.5323936 177.21814239999998,222.1447472 178.73783199999997C223.94242880000002 180.42431679999999,224.850536 182.74091679999998,224.850536 185.13164799999998C224.850536 187.39264959999997,224.0536256 189.74631519999997,222.441272 191.69225919999997C222.16328000000001 192.06291519999996,222.1447472 192.06291519999996,221.9594192 192.06291519999996C221.7370256 192.06291519999996,221.58876320000002 191.89611999999997,221.58876320000002 191.67372639999996C221.58876320000002 191.50693119999997,221.60729600000002 191.4698656,221.79262400000002 191.2660048C223.20111680000002 189.56098719999997,223.9053632 187.5038464,223.9053632 185.5393696C223.9053632 183.7972864,223.34937920000002 182.12933439999998,222.20034560000002 180.86910399999996C221.4960992 180.09072639999997,220.19880320000001 179.34941439999997,218.549384 178.77489759999997C218.549384 178.75636479999997,218.5308512 178.18184799999997,218.5308512 175.88378079999998">
</path>
</g>
</g>
<g class="vf-modifiers">
</g>
</g>
<path stroke-width="1" fill="none" stroke="#000000" stroke-dasharray="none" d="M212.7936 189.74999999999997L225.7936 180.74999999999997Z">
</path>
</g>
</g>
<g class="vf-stavenote" id="vf-auto47418">
<g class="vf-note" pointer-events="bounding-box">
<g class="vf-notehead" pointer-events="bounding-box">
<path stroke-width="0.3" fill="#000000" stroke="none" stroke-dasharray="none" d="M269.8832384 197.99999999999997M277.2401984 192.77711999999997C277.3525184 192.77711999999997,277.5209984 192.77711999999997,277.5490784 192.77711999999997C277.5490784 192.77711999999997,277.5771584 192.77711999999997,277.5771584 192.77711999999997C277.5771584 192.77711999999997,277.74563839999996 192.77711999999997,277.88603839999996 192.77711999999997C280.41323839999995 192.91751999999997,281.9014784 194.57423999999997,281.9014784 196.65215999999998C281.9014784 197.66303999999997,281.5645184 198.81431999999998,280.7221184 199.90943999999996C279.12155839999997 202.07159999999996,276.5101184 203.25095999999996,274.23563839999997 203.25095999999996C272.4665984 203.25095999999996,270.9502784 202.54895999999997,270.22019839999996 201.11687999999998C269.9955584 200.55527999999998,269.8832384 200.02175999999997,269.8832384 199.43207999999998C269.8832384 196.37135999999998,273.3089984 192.97367999999997,277.2401984 192.77711999999997">
</path>
</g>
</g>
<g class="vf-modifiers">
</g>
</g>
<g class="vf-stavenote" id="vf-auto47428">
<g class="vf-note" pointer-events="bounding-box">
<g class="vf-notehead" pointer-events="bounding-box">
<path stroke-width="0.3" fill="#000000" stroke="none" stroke-dasharray="none" d="M327.9728768 197.99999999999997M335.3298368 192.77711999999997C335.4421568 192.77711999999997,335.6106368 192.77711999999997,335.6387168 192.77711999999997C335.6387168 192.77711999999997,335.6667968 192.77711999999997,335.6667968 192.77711999999997C335.6667968 192.77711999999997,335.8352768 192.77711999999997,335.9756768 192.77711999999997C338.50287679999997 192.91751999999997,339.9911168 194.57423999999997,339.9911168 196.65215999999998C339.9911168 197.66303999999997,339.6541568 198.81431999999998,338.8117568 199.90943999999996C337.2111968 202.07159999999996,334.5997568 203.25095999999996,332.3252768 203.25095999999996C330.5562368 203.25095999999996,329.0399168 202.54895999999997,328.30983679999997 201.11687999999998C328.0851968 200.55527999999998,327.9728768 200.02175999999997,327.9728768 199.43207999999998C327.9728768 196.37135999999998,331.3986368 192.97367999999997,335.3298368 192.77711999999997">
</path>
</g>
</g>
<g class="vf-modifiers">
<g class="vf-stavenote" id="vf-auto47438">
<g class="vf-note" pointer-events="bounding-box">
<g class="vf-stem" pointer-events="bounding-box">
<path stroke-width="1.5" fill="none" stroke="#000000" stroke-dasharray="none" d="M309.2908384 197.99999999999997L309.2908384 174.89999999999998">
</path>
</g>
<g class="vf-notehead" pointer-events="bounding-box">
<path stroke-width="0.3" fill="#000000" stroke="none" stroke-dasharray="none" d="M302.1088 197.99999999999997M306.9643936 194.55289919999998C307.03852479999995 194.55289919999998,307.14972159999996 194.55289919999998,307.16825439999997 194.55289919999998C307.16825439999997 194.55289919999998,307.18678719999997 194.55289919999998,307.18678719999997 194.55289919999998C307.18678719999997 194.55289919999998,307.297984 194.55289919999998,307.390648 194.55289919999998C309.05859999999996 194.64556319999997,310.0408384 195.73899839999996,310.0408384 197.11042559999999C310.0408384 197.77760639999997,309.81844479999995 198.53745119999996,309.2624608 199.26023039999998C308.20609119999995 200.68725599999996,306.4825408 201.46563359999996,304.981384 201.46563359999996C303.8138176 201.46563359999996,302.81304639999996 201.00231359999998,302.33119359999995 200.05714079999998C302.1829312 199.68648479999996,302.1088 199.33436159999997,302.1088 198.94517279999997C302.1088 196.92509759999996,304.36980159999996 194.68262879999997,306.9643936 194.55289919999998">
</path>
</g>
<g class="vf-flag" pointer-events="bounding-box">
<path stroke-width="0.3" fill="#000000" stroke="none" stroke-dasharray="none" d="M309.2908384 172.89999999999998M308.8460512 175.88378079999998L308.8460512 172.992664L308.9201824 172.992664C309.12404319999996 172.992664,309.2537728 173.12239359999998,309.2908384 173.34478719999998C309.6800272 175.19806719999997,310.8475936 177.21814239999998,312.4599472 178.73783199999997C314.25762879999996 180.42431679999999,315.165736 182.74091679999998,315.165736 185.13164799999998C315.165736 187.39264959999997,314.3688256 189.74631519999997,312.756472 191.69225919999997C312.47848 192.06291519999996,312.4599472 192.06291519999996,312.27461919999996 192.06291519999996C312.0522256 192.06291519999996,311.90396319999996 191.89611999999997,311.90396319999996 191.67372639999996C311.90396319999996 191.50693119999997,311.92249599999997 191.4698656,312.107824 191.2660048C313.51631679999997 189.56098719999997,314.22056319999996 187.5038464,314.22056319999996 185.5393696C314.22056319999996 183.7972864,313.6645792 182.12933439999998,312.5155456 180.86910399999996C311.8112992 180.09072639999997,310.5140032 179.34941439999997,308.864584 178.77489759999997C308.864584 178.75636479999997,308.8460512 178.18184799999997,308.8460512 175.88378079999998">
</path>
</g>
</g>
<g class="vf-modifiers">
</g>
</g>
<path stroke-width="1" fill="none" stroke="#000000" stroke-dasharray="none" d="M303.1088 189.74999999999997L316.1088 180.74999999999997Z">
</path>
</g>
</g>
<g class="vf-stavenote" id="vf-auto47452">
<g class="vf-note" pointer-events="bounding-box">
<g class="vf-notehead" pointer-events="bounding-box">
<path stroke-width="0.3" fill="#000000" stroke="none" stroke-dasharray="none" d="M360.1984384 197.99999999999997M367.5553984 192.77711999999997C367.6677184 192.77711999999997,367.8361984 192.77711999999997,367.8642784 192.77711999999997C367.8642784 192.77711999999997,367.8923584 192.77711999999997,367.8923584 192.77711999999997C367.8923584 192.77711999999997,368.06083839999997 192.77711999999997,368.20123839999997 192.77711999999997C370.72843839999996 192.91751999999997,372.2166784 194.57423999999997,372.2166784 196.65215999999998C372.2166784 197.66303999999997,371.8797184 198.81431999999998,371.0373184 199.90943999999996C369.4367584 202.07159999999996,366.8253184 203.25095999999996,364.5508384 203.25095999999996C362.7817984 203.25095999999996,361.2654784 202.54895999999997,360.53539839999996 201.11687999999998C360.3107584 200.55527999999998,360.1984384 200.02175999999997,360.1984384 199.43207999999998C360.1984384 196.37135999999998,363.6241984 192.97367999999997,367.5553984 192.77711999999997">
</path>
</g>
</g>
<g class="vf-modifiers">
</g>
</g>
<g class="vf-stavenote" id="vf-auto47462">
<g class="vf-note" pointer-events="bounding-box">
<g class="vf-notehead" pointer-events="bounding-box">
<path stroke-width="0.3" fill="#000000" stroke="none" stroke-dasharray="none" d="M418.2880768 197.99999999999997M425.6450368 192.77711999999997C425.7573568 192.77711999999997,425.9258368 192.77711999999997,425.9539168 192.77711999999997C425.9539168 192.77711999999997,425.9819968 192.77711999999997,425.9819968 192.77711999999997C425.9819968 192.77711999999997,426.1504768 192.77711999999997,426.2908768 192.77711999999997C428.8180768 192.91751999999997,430.3063168 194.57423999999997,430.3063168 196.65215999999998C430.3063168 197.66303999999997,429.9693568 198.81431999999998,429.1269568 199.90943999999996C427.5263968 202.07159999999996,424.9149568 203.25095999999996,422.6404768 203.25095999999996C420.8714368 203.25095999999996,419.3551168 202.54895999999997,418.6250368 201.11687999999998C418.4003968 200.55527999999998,418.2880768 200.02175999999997,418.2880768 199.43207999999998C418.2880768 196.37135999999998,421.7138368 192.97367999999997,425.6450368 192.77711999999997">
</path>
</g>
</g>
<g class="vf-modifiers">
<g class="vf-stavenote" id="vf-auto47472">
<g class="vf-note" pointer-events="bounding-box">
<g class="vf-stem" pointer-events="bounding-box">
<path stroke-width="1.5" fill="none" stroke="#000000" stroke-dasharray="none" d="M399.6060384 197.99999999999997L399.6060384 174.89999999999998">
</path>
</g>
<g class="vf-notehead" pointer-events="bounding-box">
<path stroke-width="0.3" fill="#000000" stroke="none" stroke-dasharray="none" d="M392.424 197.99999999999997M397.2795936 194.55289919999998C397.35372479999995 194.55289919999998,397.46492159999997 194.55289919999998,397.48345439999997 194.55289919999998C397.48345439999997 194.55289919999998,397.5019872 194.55289919999998,397.5019872 194.55289919999998C397.5019872 194.55289919999998,397.613184 194.55289919999998,397.705848 194.55289919999998C399.37379999999996 194.64556319999997,400.3560384 195.73899839999996,400.3560384 197.11042559999999C400.3560384 197.77760639999997,400.13364479999996 198.53745119999996,399.5776608 199.26023039999998C398.52129119999995 200.68725599999996,396.7977408 201.46563359999996,395.296584 201.46563359999996C394.1290176 201.46563359999996,393.12824639999997 201.00231359999998,392.64639359999995 200.05714079999998C392.4981312 199.68648479999996,392.424 199.33436159999997,392.424 198.94517279999997C392.424 196.92509759999996,394.68500159999996 194.68262879999997,397.2795936 194.55289919999998">
</path>
</g>
<g class="vf-flag" pointer-events="bounding-box">
<path stroke-width="0.3" fill="#000000" stroke="none" stroke-dasharray="none" d="M399.6060384 172.89999999999998M399.1612512 175.88378079999998L399.1612512 172.992664L399.2353824 172.992664C399.43924319999996 172.992664,399.5689728 173.12239359999998,399.6060384 173.34478719999998C399.9952272 175.19806719999997,401.1627936 177.21814239999998,402.7751472 178.73783199999997C404.57282879999997 180.42431679999999,405.480936 182.74091679999998,405.480936 185.13164799999998C405.480936 187.39264959999997,404.6840256 189.74631519999997,403.071672 191.69225919999997C402.79368 192.06291519999996,402.7751472 192.06291519999996,402.58981919999997 192.06291519999996C402.3674256 192.06291519999996,402.21916319999997 191.89611999999997,402.21916319999997 191.67372639999996C402.21916319999997 191.50693119999997,402.23769599999997 191.4698656,402.423024 191.2660048C403.8315168 189.56098719999997,404.53576319999996 187.5038464,404.53576319999996 185.5393696C404.53576319999996 183.7972864,403.9797792 182.12933439999998,402.8307456 180.86910399999996C402.1264992 180.09072639999997,400.8292032 179.34941439999997,399.179784 178.77489759999997C399.179784 178.75636479999997,399.1612512 178.18184799999997,399.1612512 175.88378079999998">
</path>
</g>
</g>
<g class="vf-modifiers">
</g>
</g>
<path stroke-width="1" fill="none" stroke="#000000" stroke-dasharray="none" d="M393.424 189.74999999999997L406.424 180.74999999999997Z">
</path>
</g>
</g>
<g class="vf-stavenote" id="vf-auto47486">
<g class="vf-note" pointer-events="bounding-box">
<g class="vf-notehead" pointer-events="bounding-box">
<path stroke-width="0.3" fill="#000000" stroke="none" stroke-dasharray="none" d="M450.5136384 197.99999999999997M457.8705984 192.77711999999997C457.9829184 192.77711999999997,458.1513984 192.77711999999997,458.1794784 192.77711999999997C458.1794784 192.77711999999997,458.2075584 192.77711999999997,458.2075584 192.77711999999997C458.2075584 192.77711999999997,458.37603839999997 192.77711999999997,458.51643839999997 192.77711999999997C461.04363839999996 192.91751999999997,462.5318784 194.57423999999997,462.5318784 196.65215999999998C462.5318784 197.66303999999997,462.1949184 198.81431999999998,461.3525184 199.90943999999996C459.7519584 202.07159999999996,457.1405184 203.25095999999996,454.8660384 203.25095999999996C453.0969984 203.25095999999996,451.5806784 202.54895999999997,450.85059839999997 201.11687999999998C450.6259584 200.55527999999998,450.5136384 200.02175999999997,450.5136384 199.43207999999998C450.5136384 196.37135999999998,453.9393984 192.97367999999997,457.8705984 192.77711999999997">
</path>
</g>
</g>
<g class="vf-modifiers">
</g>
</g>
<g class="vf-stavenote" id="vf-auto47496">
<g class="vf-note" pointer-events="bounding-box">
<g class="vf-notehead" pointer-events="bounding-box">
<path stroke-width="0.3" fill="#000000" stroke="none" stroke-dasharray="none" d="M508.6032767999999 197.99999999999997M515.9602367999998 192.77711999999997C516.0725567999999 192.77711999999997,516.2410367999998 192.77711999999997,516.2691167999999 192.77711999999997C516.2691167999999 192.77711999999997,516.2971967999999 192.77711999999997,516.2971967999999 192.77711999999997C516.2971967999999 192.77711999999997,516.4656767999999 192.77711999999997,516.6060767999999 192.77711999999997C519.1332767999999 192.91751999999997,520.6215167999999 194.57423999999997,520.6215167999999 196.65215999999998C520.6215167999999 197.66303999999997,520.2845567999999 198.81431999999998,519.4421567999999 199.90943999999996C517.8415967999999 202.07159999999996,515.2301567999999 203.25095999999996,512.9556767999999 203.25095999999996C511.1866367999999 203.25095999999996,509.6703167999999 202.54895999999997,508.94023679999987 201.11687999999998C508.7155967999999 200.55527999999998,508.6032767999999 200.02175999999997,508.6032767999999 199.43207999999998C508.6032767999999 196.37135999999998,512.0290367999999 192.97367999999997,515.9602367999998 192.77711999999997">
</path>
</g>
</g>
<g class="vf-modifiers">
<g class="vf-stavenote" id="vf-auto47506">
<g class="vf-note" pointer-events="bounding-box">
<g class="vf-stem" pointer-events="bounding-box">
<path stroke-width="1.5" fill="none" stroke="#000000" stroke-dasharray="none" d="M489.9212383999999 197.99999999999997L489.9212383999999 174.89999999999998">
</path>
</g>
<g class="vf-notehead" pointer-events="bounding-box">
<path stroke-width="0.3" fill="#000000" stroke="none" stroke-dasharray="none" d="M482.73919999999987 197.99999999999997M487.5947935999999 194.55289919999998C487.66892479999984 194.55289919999998,487.78012159999986 194.55289919999998,487.79865439999986 194.55289919999998C487.79865439999986 194.55289919999998,487.81718719999986 194.55289919999998,487.81718719999986 194.55289919999998C487.81718719999986 194.55289919999998,487.9283839999999 194.55289919999998,488.0210479999999 194.55289919999998C489.68899999999985 194.64556319999997,490.6712383999999 195.73899839999996,490.6712383999999 197.11042559999999C490.6712383999999 197.77760639999997,490.44884479999985 198.53745119999996,489.8928607999999 199.26023039999998C488.83649119999984 200.68725599999996,487.1129407999999 201.46563359999996,485.6117839999999 201.46563359999996C484.4442175999999 201.46563359999996,483.44344639999986 201.00231359999998,482.96159359999984 200.05714079999998C482.8133311999999 199.68648479999996,482.73919999999987 199.33436159999997,482.73919999999987 198.94517279999997C482.73919999999987 196.92509759999996,485.00020159999985 194.68262879999997,487.5947935999999 194.55289919999998">
</path>
</g>
<g class="vf-flag" pointer-events="bounding-box">
<path stroke-width="0.3" fill="#000000" stroke="none" stroke-dasharray="none" d="M489.9212383999999 172.89999999999998M489.4764511999999 175.88378079999998L489.4764511999999 172.992664L489.5505823999999 172.992664C489.75444319999986 172.992664,489.8841727999999 173.12239359999998,489.9212383999999 173.34478719999998C490.3104271999999 175.19806719999997,491.4779935999999 177.21814239999998,493.0903471999999 178.73783199999997C494.88802879999986 180.42431679999999,495.7961359999999 182.74091679999998,495.7961359999999 185.13164799999998C495.7961359999999 187.39264959999997,494.9992255999999 189.74631519999997,493.38687199999987 191.69225919999997C493.1088799999999 192.06291519999996,493.0903471999999 192.06291519999996,492.90501919999986 192.06291519999996C492.6826255999999 192.06291519999996,492.53436319999986 191.89611999999997,492.53436319999986 191.67372639999996C492.53436319999986 191.50693119999997,492.55289599999986 191.4698656,492.7382239999999 191.2660048C494.14671679999987 189.56098719999997,494.85096319999985 187.5038464,494.85096319999985 185.5393696C494.85096319999985 183.7972864,494.2949791999999 182.12933439999998,493.1459455999999 180.86910399999996C492.4416991999999 180.09072639999997,491.1444031999999 179.34941439999997,489.4949839999999 178.77489759999997C489.4949839999999 178.75636479999997,489.4764511999999 178.18184799999997,489.4764511999999 175.88378079999998">
</path>
</g>
</g>
<g class="vf-modifiers">
</g>
</g>
<path stroke-width="1" fill="none" stroke="#000000" stroke-dasharray="none" d="M483.73919999999987 189.74999999999997L496.73919999999987 180.74999999999997Z">
</path>
</g>
</g>
<g class="vf-stavenote" id="vf-auto47520">
<g class="vf-note" pointer-events="bounding-box">
<g class="vf-notehead" pointer-events="bounding-box">
<path stroke-width="0.3" fill="#000000" stroke="none" stroke-dasharray="none" d="M540.8288383999999 197.99999999999997M548.1857983999998 192.77711999999997C548.2981183999999 192.77711999999997,548.4665983999998 192.77711999999997,548.4946783999999 192.77711999999997C548.4946783999999 192.77711999999997,548.5227583999999 192.77711999999997,548.5227583999999 192.77711999999997C548.5227583999999 192.77711999999997,548.6912383999999 192.77711999999997,548.8316383999999 192.77711999999997C551.3588383999999 192.91751999999997,552.8470783999999 194.57423999999997,552.8470783999999 196.65215999999998C552.8470783999999 197.66303999999997,552.5101183999999 198.81431999999998,551.6677183999999 199.90943999999996C550.0671583999999 202.07159999999996,547.4557183999999 203.25095999999996,545.1812383999999 203.25095999999996C543.4121983999999 203.25095999999996,541.8958783999999 202.54895999999997,541.1657983999999 201.11687999999998C540.9411583999998 200.55527999999998,540.8288383999999 200.02175999999997,540.8288383999999 199.43207999999998C540.8288383999999 196.37135999999998,544.2545983999998 192.97367999999997,548.1857983999998 192.77711999999997">
</path>
</g>
</g>
<g class="vf-modifiers">
</g>
</g>
<g class="vf-stavenote" id="vf-auto47530">
<g class="vf-note" pointer-events="bounding-box">
<g class="vf-notehead" pointer-events="bounding-box">
<path stroke-width="0.3" fill="#000000" stroke="none" stroke-dasharray="none" d="M598.9184767999999 197.99999999999997M606.2754367999999 192.77711999999997C606.3877567999999 192.77711999999997,606.5562367999999 192.77711999999997,606.5843167999999 192.77711999999997C606.5843167999999 192.77711999999997,606.6123967999999 192.77711999999997,606.6123967999999 192.77711999999997C606.6123967999999 192.77711999999997,606.7808767999999 192.77711999999997,606.9212767999999 192.77711999999997C609.4484767999999 192.91751999999997,610.9367167999999 194.57423999999997,610.9367167999999 196.65215999999998C610.9367167999999 197.66303999999997,610.5997567999999 198.81431999999998,609.7573567999999 199.90943999999996C608.1567967999999 202.07159999999996,605.5453567999999 203.25095999999996,603.2708767999999 203.25095999999996C601.5018367999999 203.25095999999996,599.9855167999999 202.54895999999997,599.2554367999999 201.11687999999998C599.0307967999998 200.55527999999998,598.9184767999999 200.02175999999997,598.9184767999999 199.43207999999998C598.9184767999999 196.37135999999998,602.3442367999999 192.97367999999997,606.2754367999999 192.77711999999997">
</path>
</g>
</g>
<g class="vf-modifiers">
<g class="vf-stavenote" id="vf-auto47540">
<g class="vf-note" pointer-events="bounding-box">
<g class="vf-stem" pointer-events="bounding-box">
<path stroke-width="1.5" fill="none" stroke="#000000" stroke-dasharray="none" d="M580.2364383999999 197.99999999999997L580.2364383999999 174.89999999999998">
</path>
</g>
<g class="vf-notehead" pointer-events="bounding-box">
<path stroke-width="0.3" fill="#000000" stroke="none" stroke-dasharray="none" d="M573.0543999999999 197.99999999999997M577.9099935999999 194.55289919999998C577.9841247999999 194.55289919999998,578.0953215999999 194.55289919999998,578.1138543999999 194.55289919999998C578.1138543999999 194.55289919999998,578.1323871999999 194.55289919999998,578.1323871999999 194.55289919999998C578.1323871999999 194.55289919999998,578.2435839999998 194.55289919999998,578.3362479999998 194.55289919999998C580.0041999999999 194.64556319999997,580.9864383999999 195.73899839999996,580.9864383999999 197.11042559999999C580.9864383999999 197.77760639999997,580.7640447999999 198.53745119999996,580.2080607999999 199.26023039999998C579.1516911999998 200.68725599999996,577.4281407999998 201.46563359999996,575.9269839999998 201.46563359999996C574.7594175999999 201.46563359999996,573.7586463999999 201.00231359999998,573.2767935999999 200.05714079999998C573.1285311999999 199.68648479999996,573.0543999999999 199.33436159999997,573.0543999999999 198.94517279999997C573.0543999999999 196.92509759999996,575.3154015999999 194.68262879999997,577.9099935999999 194.55289919999998">
</path>
</g>
<g class="vf-flag" pointer-events="bounding-box">
<path stroke-width="0.3" fill="#000000" stroke="none" stroke-dasharray="none" d="M580.2364383999999 172.89999999999998M579.7916511999999 175.88378079999998L579.7916511999999 172.992664L579.8657823999998 172.992664C580.0696431999999 172.992664,580.1993727999999 173.12239359999998,580.2364383999999 173.34478719999998C580.6256271999999 175.19806719999997,581.7931935999999 177.21814239999998,583.4055471999999 178.73783199999997C585.2032287999999 180.42431679999999,586.1113359999999 182.74091679999998,586.1113359999999 185.13164799999998C586.1113359999999 187.39264959999997,585.3144255999999 189.74631519999997,583.7020719999999 191.69225919999997C583.4240799999999 192.06291519999996,583.4055471999999 192.06291519999996,583.2202191999999 192.06291519999996C582.9978255999998 192.06291519999996,582.8495631999999 191.89611999999997,582.8495631999999 191.67372639999996C582.8495631999999 191.50693119999997,582.8680959999999 191.4698656,583.0534239999998 191.2660048C584.4619167999999 189.56098719999997,585.1661631999999 187.5038464,585.1661631999999 185.5393696C585.1661631999999 183.7972864,584.6101791999998 182.12933439999998,583.4611455999999 180.86910399999996C582.7568991999999 180.09072639999997,581.4596031999998 179.34941439999997,579.8101839999999 178.77489759999997C579.8101839999999 178.75636479999997,579.7916511999999 178.18184799999997,579.7916511999999 175.88378079999998">
</path>
</g>
</g>
<g class="vf-modifiers">
</g>
</g>
<path stroke-width="1" fill="none" stroke="#000000" stroke-dasharray="none" d="M574.0543999999999 189.74999999999997L587.0543999999999 180.74999999999997Z">
</path>
</g>
</g>
<g class="vf-stavenote" id="vf-auto47554">
<g class="vf-note" pointer-events="bounding-box">
<g class="vf-notehead" pointer-events="bounding-box">
<path stroke-width="0.3" fill="#000000" stroke="none" stroke-dasharray="none" d="M631.1440383999999 197.99999999999997M638.5009983999998 192.77711999999997C638.6133183999999 192.77711999999997,638.7817983999998 192.77711999999997,638.8098783999999 192.77711999999997C638.8098783999999 192.77711999999997,638.8379583999999 192.77711999999997,638.8379583999999 192.77711999999997C638.8379583999999 192.77711999999997,639.0064383999999 192.77711999999997,639.1468383999999 192.77711999999997C641.6740383999999 192.91751999999997,643.1622783999999 194.57423999999997,643.1622783999999 196.65215999999998C643.1622783999999 197.66303999999997,642.8253183999999 198.81431999999998,641.9829183999999 199.90943999999996C640.3823583999999 202.07159999999996,637.7709183999999 203.25095999999996,635.4964383999999 203.25095999999996C633.7273983999999 203.25095999999996,632.2110783999999 202.54895999999997,631.4809983999999 201.11687999999998C631.2563583999998 200.55527999999998,631.1440383999999 200.02175999999997,631.1440383999999 199.43207999999998C631.1440383999999 196.37135999999998,634.5697983999999 192.97367999999997,638.5009983999998 192.77711999999997">
</path>
</g>
</g>
<g class="vf-modifiers">
</g>
</g>
<g class="vf-stavenote" id="vf-auto47564">
<g class="vf-note" pointer-events="bounding-box">
<g class="vf-notehead" pointer-events="bounding-box">
<path stroke-width="0.3" fill="#000000" stroke="none" stroke-dasharray="none" d="M689.2336767999999 197.99999999999997M696.5906367999999 192.77711999999997C696.7029567999999 192.77711999999997,696.8714367999999 192.77711999999997,696.8995167999999 192.77711999999997C696.8995167999999 192.77711999999997,696.9275968 192.77711999999997,696.9275968 192.77711999999997C696.9275968 192.77711999999997,697.0960767999999 192.77711999999997,697.2364767999999 192.77711999999997C699.7636767999999 192.91751999999997,701.2519167999999 194.57423999999997,701.2519167999999 196.65215999999998C701.2519167999999 197.66303999999997,700.9149567999999 198.81431999999998,700.0725567999999 199.90943999999996C698.4719967999999 202.07159999999996,695.8605567999999 203.25095999999996,693.5860767999999 203.25095999999996C691.8170367999999 203.25095999999996,690.3007167999999 202.54895999999997,689.5706367999999 201.11687999999998C689.3459967999999 200.55527999999998,689.2336767999999 200.02175999999997,689.2336767999999 199.43207999999998C689.2336767999999 196.37135999999998,692.6594367999999 192.97367999999997,696.5906367999999 192.77711999999997">
</path>
</g>
</g>
<g class="vf-modifiers">
<g class="vf-stavenote" id="vf-auto47574">
<g class="vf-note" pointer-events="bounding-box">
<g class="vf-stem" pointer-events="bounding-box">
<path stroke-width="1.5" fill="none" stroke="#000000" stroke-dasharray="none" d="M670.5516383999999 197.99999999999997L670.5516383999999 174.89999999999998">
</path>
</g>
<g class="vf-notehead" pointer-events="bounding-box">
<path stroke-width="0.3" fill="#000000" stroke="none" stroke-dasharray="none" d="M663.3695999999999 197.99999999999997M668.2251935999999 194.55289919999998C668.2993247999999 194.55289919999998,668.4105215999999 194.55289919999998,668.4290543999999 194.55289919999998C668.4290543999999 194.55289919999998,668.4475871999999 194.55289919999998,668.4475871999999 194.55289919999998C668.4475871999999 194.55289919999998,668.5587839999998 194.55289919999998,668.6514479999998 194.55289919999998C670.3193999999999 194.64556319999997,671.3016383999999 195.73899839999996,671.3016383999999 197.11042559999999C671.3016383999999 197.77760639999997,671.0792447999999 198.53745119999996,670.5232607999999 199.26023039999998C669.4668911999998 200.68725599999996,667.7433407999998 201.46563359999996,666.2421839999998 201.46563359999996C665.0746175999999 201.46563359999996,664.0738463999999 201.00231359999998,663.5919935999999 200.05714079999998C663.4437311999999 199.68648479999996,663.3695999999999 199.33436159999997,663.3695999999999 198.94517279999997C663.3695999999999 196.92509759999996,665.6306015999999 194.68262879999997,668.2251935999999 194.55289919999998">
</path>
</g>
<g class="vf-flag" pointer-events="bounding-box">
<path stroke-width="0.3" fill="#000000" stroke="none" stroke-dasharray="none" d="M670.5516383999999 172.89999999999998M670.1068511999999 175.88378079999998L670.1068511999999 172.992664L670.1809823999998 172.992664C670.3848431999999 172.992664,670.5145727999999 173.12239359999998,670.5516383999999 173.34478719999998C670.9408272 175.19806719999997,672.1083935999999 177.21814239999998,673.7207471999999 178.73783199999997C675.5184287999999 180.42431679999999,676.4265359999999 182.74091679999998,676.4265359999999 185.13164799999998C676.4265359999999 187.39264959999997,675.6296255999999 189.74631519999997,674.0172719999999 191.69225919999997C673.7392799999999 192.06291519999996,673.7207471999999 192.06291519999996,673.5354191999999 192.06291519999996C673.3130255999998 192.06291519999996,673.1647631999999 191.89611999999997,673.1647631999999 191.67372639999996C673.1647631999999 191.50693119999997,673.1832959999999 191.4698656,673.3686239999998 191.2660048C674.7771167999999 189.56098719999997,675.4813631999999 187.5038464,675.4813631999999 185.5393696C675.4813631999999 183.7972864,674.9253791999998 182.12933439999998,673.7763455999999 180.86910399999996C673.0720991999999 180.09072639999997,671.7748031999998 179.34941439999997,670.1253839999999 178.77489759999997C670.1253839999999 178.75636479999997,670.1068511999999 178.18184799999997,670.1068511999999 175.88378079999998">
</path>
</g>
</g>
<g class="vf-modifiers">
</g>
</g>
<path stroke-width="1" fill="none" stroke="#000000" stroke-dasharray="none" d="M664.3695999999999 189.74999999999997L677.3695999999999 180.74999999999997Z">
</path>
</g>
</g>
<g class="vf-stavenote" id="vf-auto47588">
<g class="vf-note" pointer-events="bounding-box">
<g class="vf-notehead" pointer-events="bounding-box">
<path stroke-width="0.3" fill="#000000" stroke="none" stroke-dasharray="none" d="M721.4592383999999 197.99999999999997M728.8161983999998 192.77711999999997C728.9285183999999 192.77711999999997,729.0969983999998 192.77711999999997,729.1250783999999 192.77711999999997C729.1250783999999 192.77711999999997,729.1531583999999 192.77711999999997,729.1531583999999 192.77711999999997C729.1531583999999 192.77711999999997,729.3216383999999 192.77711999999997,729.4620383999999 192.77711999999997C731.9892383999999 192.91751999999997,733.4774783999999 194.57423999999997,733.4774783999999 196.65215999999998C733.4774783999999 197.66303999999997,733.1405183999999 198.81431999999998,732.2981183999999 199.90943999999996C730.6975583999999 202.07159999999996,728.0861183999999 203.25095999999996,725.8116383999999 203.25095999999996C724.0425983999999 203.25095999999996,722.5262783999999 202.54895999999997,721.7961983999999 201.11687999999998C721.5715583999998 200.55527999999998,721.4592383999999 200.02175999999997,721.4592383999999 199.43207999999998C721.4592383999999 196.37135999999998,724.8849983999999 192.97367999999997,728.8161983999998 192.77711999999997">
</path>
</g>
</g>
<g class="vf-modifiers">
</g>
</g>
<g class="vf-stavenote" id="vf-auto47598">
<g class="vf-note" pointer-events="bounding-box">
<g class="vf-notehead" pointer-events="bounding-box">
<path stroke-width="0.3" fill="#000000" stroke="none" stroke-dasharray="none" d="M779.5488767999999 197.99999999999997M786.9058367999999 192.77711999999997C787.0181567999999 192.77711999999997,787.1866367999999 192.77711999999997,787.2147167999999 192.77711999999997C787.2147167999999 192.77711999999997,787.2427968 192.77711999999997,787.2427968 192.77711999999997C787.2427968 192.77711999999997,787.4112767999999 192.77711999999997,787.5516767999999 192.77711999999997C790.0788767999999 192.91751999999997,791.5671167999999 194.57423999999997,791.5671167999999 196.65215999999998C791.5671167999999 197.66303999999997,791.2301567999999 198.81431999999998,790.3877567999999 199.90943999999996C788.7871968 202.07159999999996,786.1757567999999 203.25095999999996,783.9012767999999 203.25095999999996C782.1322367999999 203.25095999999996,780.6159167999999 202.54895999999997,779.8858367999999 201.11687999999998C779.6611967999999 200.55527999999998,779.5488767999999 200.02175999999997,779.5488767999999 199.43207999999998C779.5488767999999 196.37135999999998,782.9746367999999 192.97367999999997,786.9058367999999 192.77711999999997">
</path>
</g>
</g>
<g class="vf-modifiers">
<g class="vf-stavenote" id="vf-auto47608">
<g class="vf-note" pointer-events="bounding-box">
<g class="vf-stem" pointer-events="bounding-box">
<path stroke-width="1.5" fill="none" stroke="#000000" stroke-dasharray="none" d="M760.8668383999999 197.99999999999997L760.8668383999999 174.89999999999998">
</path>
</g>
<g class="vf-notehead" pointer-events="bounding-box">
<path stroke-width="0.3" fill="#000000" stroke="none" stroke-dasharray="none" d="M753.6847999999999 197.99999999999997M758.5403935999999 194.55289919999998C758.6145247999999 194.55289919999998,758.7257215999999 194.55289919999998,758.7442543999999 194.55289919999998C758.7442543999999 194.55289919999998,758.7627871999999 194.55289919999998,758.7627871999999 194.55289919999998C758.7627871999999 194.55289919999998,758.8739839999998 194.55289919999998,758.9666479999999 194.55289919999998C760.6345999999999 194.64556319999997,761.6168383999999 195.73899839999996,761.6168383999999 197.11042559999999C761.6168383999999 197.77760639999997,761.3944447999999 198.53745119999996,760.8384607999999 199.26023039999998C759.7820911999999 200.68725599999996,758.0585407999998 201.46563359999996,756.5573839999998 201.46563359999996C755.3898175999999 201.46563359999996,754.3890463999999 201.00231359999998,753.9071935999999 200.05714079999998C753.7589311999999 199.68648479999996,753.6847999999999 199.33436159999997,753.6847999999999 198.94517279999997C753.6847999999999 196.92509759999996,755.9458015999999 194.68262879999997,758.5403935999999 194.55289919999998">
</path>
</g>
<g class="vf-flag" pointer-events="bounding-box">
<path stroke-width="0.3" fill="#000000" stroke="none" stroke-dasharray="none" d="M760.8668383999999 172.89999999999998M760.4220511999999 175.88378079999998L760.4220511999999 172.992664L760.4961823999998 172.992664C760.7000431999999 172.992664,760.8297727999999 173.12239359999998,760.8668383999999 173.34478719999998C761.2560272 175.19806719999997,762.4235935999999 177.21814239999998,764.0359471999999 178.73783199999997C765.8336287999999 180.42431679999999,766.741736 182.74091679999998,766.741736 185.13164799999998C766.741736 187.39264959999997,765.9448256 189.74631519999997,764.3324719999999 191.69225919999997C764.0544799999999 192.06291519999996,764.0359471999999 192.06291519999996,763.8506191999999 192.06291519999996C763.6282255999998 192.06291519999996,763.4799631999999 191.89611999999997,763.4799631999999 191.67372639999996C763.4799631999999 191.50693119999997,763.4984959999999 191.4698656,763.6838239999998 191.2660048C765.0923167999999 189.56098719999997,765.7965631999999 187.5038464,765.7965631999999 185.5393696C765.7965631999999 183.7972864,765.2405791999998 182.12933439999998,764.0915455999999 180.86910399999996C763.3872991999999 180.09072639999997,762.0900031999998 179.34941439999997,760.440584 178.77489759999997C760.440584 178.75636479999997,760.4220511999999 178.18184799999997,760.4220511999999 175.88378079999998">
</path>
</g>
</g>
<g class="vf-modifiers">
</g>
</g>
<path stroke-width="1" fill="none" stroke="#000000" stroke-dasharray="none" d="M754.6847999999999 189.74999999999997L767.6847999999999 180.74999999999997Z">
</path>
</g>
</g>
<g class="vf-stavenote" id="vf-auto47622">
<g class="vf-note" pointer-events="bounding-box">
<g class="vf-notehead" pointer-events="bounding-box">
<path stroke-width="0.3" fill="#000000" stroke="none" stroke-dasharray="none" d="M811.7744383999999 197.99999999999997M819.1313983999999 192.77711999999997C819.2437183999999 192.77711999999997,819.4121983999999 192.77711999999997,819.4402783999999 192.77711999999997C819.4402783999999 192.77711999999997,819.4683583999999 192.77711999999997,819.4683583999999 192.77711999999997C819.4683583999999 192.77711999999997,819.6368383999999 192.77711999999997,819.7772383999999 192.77711999999997C822.3044383999999 192.91751999999997,823.7926783999999 194.57423999999997,823.7926783999999 196.65215999999998C823.7926783999999 197.66303999999997,823.4557183999999 198.81431999999998,822.6133183999999 199.90943999999996C821.0127583999999 202.07159999999996,818.4013183999999 203.25095999999996,816.1268383999999 203.25095999999996C814.3577983999999 203.25095999999996,812.8414783999999 202.54895999999997,812.1113983999999 201.11687999999998C811.8867583999998 200.55527999999998,811.7744383999999 200.02175999999997,811.7744383999999 199.43207999999998C811.7744383999999 196.37135999999998,815.2001983999999 192.97367999999997,819.1313983999999 192.77711999999997">
</path>
</g>
</g>
<g class="vf-modifiers">
</g>
</g>
<path stroke-width="1.5" fill="none" stroke="#000000" stroke-dasharray="none" d="M158.61071679999998 197.99999999999997L158.61071679999998 163.74999999999997">
</path>
<path stroke-width="1.5" fill="none" stroke="#000000" stroke-dasharray="none" d="M190.8362784 197.99999999999997L190.8362784 163.74999999999997">
</path>
<path stroke-width="1.5" fill="none" stroke="#000000" stroke-dasharray="none" d="M248.92591679999998 197.99999999999997L248.92591679999998 163.74999999999997">
</path>
<path stroke-width="1.5" fill="none" stroke="#000000" stroke-dasharray="none" d="M281.1514784 197.99999999999997L281.1514784 163.74999999999997">
</path>
<path stroke-width="0.3" fill="#000000" stroke="none" stroke-dasharray="none" d="M157.86071679999998 162.99999999999997L157.86071679999998 167.99999999999997L281.4014784 167.99999999999997L281.4014784 162.99999999999997Z">
</path>
<path stroke-width="0.3" fill="#000000" stroke="none" stroke-dasharray="none" d="M157.86071679999998 170.49999999999997L157.86071679999998 175.49999999999997L281.4014784 175.49999999999997L281.4014784 170.49999999999997Z">
</path>
<path stroke-width="1.5" fill="none" stroke="#000000" stroke-dasharray="none" d="M339.2411168 197.99999999999997L339.2411168 163.74999999999997">
</path>
<path stroke-width="1.5" fill="none" stroke="#000000" stroke-dasharray="none" d="M371.4666784 197.99999999999997L371.4666784 163.74999999999997">
</path>
<path stroke-width="1.5" fill="none" stroke="#000000" stroke-dasharray="none" d="M429.5563168 197.99999999999997L429.5563168 163.74999999999997">
</path>
<path stroke-width="1.5" fill="none" stroke="#000000" stroke-dasharray="none" d="M461.7818784 197.99999999999997L461.7818784 163.74999999999997">
</path>
<path stroke-width="0.3" fill="#000000" stroke="none" stroke-dasharray="none" d="M338.4911168 162.99999999999997L338.4911168 167.99999999999997L462.0318784 167.99999999999997L462.0318784 162.99999999999997Z">
</path>
<path stroke-width="0.3" fill="#000000" stroke="none" stroke-dasharray="none" d="M338.4911168 170.49999999999997L338.4911168 175.49999999999997L462.0318784 175.49999999999997L462.0318784 170.49999999999997Z">
</path>
<path stroke-width="1.5" fill="none" stroke="#000000" stroke-dasharray="none" d="M519.8715167999999 197.99999999999997L519.8715167999999 163.74999999999997">
</path>
<path stroke-width="1.5" fill="none" stroke="#000000" stroke-dasharray="none" d="M552.0970783999999 197.99999999999997L552.0970783999999 163.74999999999997">
</path>
<path stroke-width="1.5" fill="none" stroke="#000000" stroke-dasharray="none" d="M610.1867167999999 197.99999999999997L610.1867167999999 163.74999999999997">
</path>
<path stroke-width="1.5" fill="none" stroke="#000000" stroke-dasharray="none" d="M642.4122783999999 197.99999999999997L642.4122783999999 163.74999999999997">
</path>
<path stroke-width="0.3" fill="#000000" stroke="none" stroke-dasharray="none" d="M519.1215167999999 162.99999999999997L519.1215167999999 167.99999999999997L642.6622783999999 167.99999999999997L642.6622783999999 162.99999999999997Z">
</path>
<path stroke-width="0.3" fill="#000000" stroke="none" stroke-dasharray="none" d="M519.1215167999999 170.49999999999997L519.1215167999999 175.49999999999997L642.6622783999999 175.49999999999997L642.6622783999999 170.49999999999997Z">
</path>
<path stroke-width="1.5" fill="none" stroke="#000000" stroke-dasharray="none" d="M700.5019167999999 197.99999999999997L700.5019167999999 163.74999999999997">
</path>
<path stroke-width="1.5" fill="none" stroke="#000000" stroke-dasharray="none" d="M732.7274783999999 197.99999999999997L732.7274783999999 163.74999999999997">
</path>
<path stroke-width="1.5" fill="none" stroke="#000000" stroke-dasharray="none" d="M790.8171167999999 197.99999999999997L790.8171167999999 163.74999999999997">
</path>
<path stroke-width="1.5" fill="none" stroke="#000000" stroke-dasharray="none" d="M823.0426783999999 197.99999999999997L823.0426783999999 163.74999999999997">
</path>
<path stroke-width="0.3" fill="#000000" stroke="none" stroke-dasharray="none" d="M699.7519167999999 162.99999999999997L699.7519167999999 167.99999999999997L823.2926783999999 167.99999999999997L823.2926783999999 162.99999999999997Z">
</path>
<path stroke-width="0.3" fill="#000000" stroke="none" stroke-dasharray="none" d="M699.7519167999999 170.49999999999997L699.7519167999999 175.49999999999997L823.2926783999999 175.49999999999997L823.2926783999999 170.49999999999997Z">
</path>
<path stroke-width="1" fill="none" stroke="black" stroke-dasharray="none" d="M842.4717007359999 197.99999999999997L1280.6967511039998 197.99999999999997">
</path>
<rect stroke-width="0.3" fill="black" stroke="black" stroke-dasharray="none" x="1275.6967511039998" y="177.49999999999997" width="1" height="41">
</rect>
<rect stroke-width="0.3" fill="black" stroke="black" stroke-dasharray="none" x="1278.6967511039998" y="177.49999999999997" width="3" height="41">
</rect>
<path stroke-width="0.3" fill="black" stroke="none" stroke-dasharray="none" d="M1274.6967511039998 193.49999999999997 A2 2 0 0 0 1270.6967511039998 193.49999999999997M1270.6967511039998 193.49999999999997 A2 2 0 0 0 1274.6967511039998 193.49999999999997">
</path>
<path stroke-width="0.3" fill="black" stroke="none" stroke-dasharray="none" d="M1274.6967511039998 203.49999999999997 A2 2 0 0 0 1270.6967511039998 203.49999999999997M1270.6967511039998 203.49999999999997 A2 2 0 0 0 1274.6967511039998 203.49999999999997">
</path>
<path stroke-width="0.3" fill="black" stroke="none" stroke-dasharray="none" d="M847.6013007359999 197.99999999999997M853.2749007359998 179.33759999999998C853.3901007359999 179.33759999999998,853.5917007359999 179.33759999999998,853.8221007359999 179.33759999999998C854.2829007359999 179.33759999999998,854.8877007359998 179.33759999999998,855.0317007359998 179.39519999999996C857.1917007359999 179.65439999999998,858.9197007359999 180.74879999999996,859.6685007359998 182.27519999999998C859.9277007359999 182.79359999999997,860.0429007359999 183.34079999999997,860.0429007359999 183.91679999999997C860.0429007359999 185.32799999999997,859.2653007359999 186.94079999999997,857.8541007359999 188.15039999999996C856.8749007359999 188.98559999999998,855.8957007359999 189.50399999999996,854.3693007359999 189.99359999999996C852.3821007359999 190.62719999999996,850.6829007359999 191.75039999999998,849.5885007359999 193.10399999999998C849.5885007359999 193.10399999999998,849.5885007359999 193.13279999999997,849.5885007359999 193.13279999999997C849.5885007359999 193.13279999999997,849.5885007359999 193.13279999999997,849.5885007359999 193.13279999999997C849.5885007359999 193.13279999999997,849.6749007359999 193.10399999999998,849.7325007359999 193.01759999999996C850.8269007359999 192.12479999999996,852.2957007359998 191.60639999999998,853.6205007359998 191.60639999999998C854.7149007359999 191.60639999999998,855.4925007359999 191.80799999999996,856.5293007359999 192.38399999999996C857.1629007359999 192.70079999999996,857.7389007359999 192.84479999999996,858.2861007359999 192.84479999999996C858.5165007359999 192.84479999999996,858.7469007359998 192.84479999999996,859.0061007359999 192.78719999999998C859.3805007359998 192.70079999999996,859.7837007359999 192.41279999999998,859.9277007359999 192.18239999999997C860.0141007359998 191.98079999999996,860.1581007359998 191.89439999999996,860.3309007359999 191.89439999999996C860.5613007359999 191.89439999999996,860.7917007359998 192.06719999999999,860.7917007359998 192.32639999999998C860.7917007359998 192.52799999999996,860.5325007359999 193.24799999999996,860.3021007359998 193.7376C859.3805007359998 195.58079999999998,857.7677007359998 196.73279999999997,856.2125007359999 196.73279999999997C856.0973007359999 196.73279999999997,856.0109007359998 196.73279999999997,855.8957007359999 196.70399999999998C855.4925007359999 196.70399999999998,855.3197007359998 196.58879999999996,854.8013007359999 196.24319999999997C853.7069007359999 195.52319999999997,852.3245007359999 195.14879999999997,851.1149007359999 195.14879999999997C850.5965007359998 195.14879999999997,850.1357007359999 195.20639999999997,849.7037007359999 195.37919999999997C849.1277007359998 195.58079999999998,848.5805007359999 195.92639999999997,848.4077007359999 196.18559999999997C848.3213007359999 196.38719999999998,848.1773007359999 196.44479999999996,848.0045007359998 196.44479999999996C847.8605007359998 196.44479999999996,847.7165007359998 196.38719999999998,847.6301007359999 196.21439999999998L847.5725007359998 196.128L847.5725007359998 195.72479999999996C847.5725007359998 195.37919999999997,847.6013007359999 195.26399999999998,847.6013007359999 195.14879999999997C847.6301007359999 195.06239999999997,847.6589007359999 194.88959999999997,847.6589007359999 194.74559999999997C848.1773007359999 192.32639999999998,849.9341007359999 190.16639999999998,852.3245007359999 189.10079999999996C854.2829007359999 188.17919999999998,855.5789007359999 186.53759999999997,855.8093007359998 184.46399999999997C855.8669007359998 184.29119999999998,855.8669007359998 184.14719999999997,855.8669007359998 183.97439999999997C855.8669007359998 182.13119999999998,854.4845007359999 180.86399999999998,852.5261007359999 180.86399999999998C852.3821007359999 180.86399999999998,852.2093007359998 180.86399999999998,852.0653007359999 180.86399999999998C851.7773007359999 180.89279999999997,851.6909007359999 180.89279999999997,851.6909007359999 180.95039999999997C851.6909007359999 180.95039999999997,851.6909007359999 180.97919999999996,851.7773007359999 181.03679999999997C852.4397007359998 181.41119999999998,852.7565007359999 182.13119999999998,852.7565007359999 182.82239999999996C852.7565007359999 183.71519999999998,852.2957007359998 184.55039999999997,851.4029007359999 184.89599999999996C851.1149007359999 184.98239999999998,850.8269007359999 185.01119999999997,850.5965007359998 185.01119999999997C849.3869007359999 185.01119999999997,848.3789007359999 183.97439999999997,848.3789007359999 182.73599999999996C848.3789007359999 182.50559999999996,848.3789007359999 182.27519999999998,848.4365007359999 182.01599999999996C848.8685007359999 180.69119999999998,850.9133007359999 179.59679999999997,853.2749007359998 179.33759999999998M854.1677007359999 198.02879999999996L854.2253007359999 198.02879999999996L854.1389007359999 198.02879999999996L854.1677007359999 198.02879999999996M854.1677007359999 178.61759999999998L854.2253007359999 178.61759999999998L854.1389007359999 178.61759999999998L854.1677007359999 178.61759999999998">
</path>
<path stroke-width="0.3" fill="black" stroke="none" stroke-dasharray="none" d="M847.4717007359999 217.99999999999997M852.4829007359999 199.65439999999998C852.5117007359999 199.62559999999996,852.9149007359999 199.62559999999996,854.1533007359999 199.62559999999996C854.5277007359999 199.62559999999996,854.9309007359999 199.62559999999996,855.4493007359999 199.62559999999996L858.3581007359999 199.62559999999996L858.4445007359999 199.71199999999996C858.5885007359999 199.79839999999996,858.6749007359999 199.94239999999996,858.6749007359999 200.05759999999998C858.6749007359999 200.23039999999997,858.5885007359999 200.34559999999996,858.4733007359999 200.46079999999998C858.4445007359999 200.54719999999998,858.1853007359999 200.77759999999998,858.0125007359999 201.03679999999997L856.4861007359999 202.79359999999997L854.5277007359999 205.01119999999997L853.4909007359998 206.19199999999998L851.935700736 207.97759999999997L849.8909007359999 210.31039999999996C849.545300736 210.74239999999998,849.1709007359999 211.08799999999997,849.1709007359999 211.08799999999997C849.1709007359999 211.08799999999997,849.1709007359999 211.08799999999997,849.1709007359999 211.08799999999997C849.1709007359999 211.14559999999997,849.4301007359999 211.14559999999997,851.8205007359999 211.14559999999997L854.4413007359999 211.14559999999997L854.4413007359999 209.27359999999996C854.4413007359999 207.37279999999998,854.4413007359999 207.34399999999997,854.4701007359998 207.31519999999998C854.5277007359999 207.22879999999998,854.7869007359999 206.91199999999998,855.7949007359999 205.73119999999997L856.1981007359999 205.29919999999998L856.6013007359999 204.86719999999997L857.2061007359999 204.08959999999996L857.8397007359999 203.42719999999997L858.1565007359999 203.02399999999997C858.2717007359998 202.85119999999998,858.4445007359999 202.82239999999996,858.5885007359999 202.82239999999996C858.7613007359998 202.82239999999996,858.9053007359998 202.90879999999999,858.9917007359999 203.05279999999996C859.0205007359999 203.13919999999996,859.0205007359999 203.19679999999997,859.0205007359999 205.32799999999997C859.0205007359999 205.81759999999997,859.0205007359999 206.42239999999998,859.0205007359999 207.14239999999998L859.0205007359999 211.14559999999997L859.7405007359998 211.14559999999997C860.4029007359999 211.14559999999997,860.4317007359999 211.14559999999997,860.5181007359998 211.17439999999996C860.7485007359999 211.26079999999996,860.8637007359999 211.49119999999996,860.8637007359999 211.75039999999998C860.8637007359999 211.89439999999996,860.8349007359999 212.06719999999999,860.7197007359999 212.18239999999997C860.5469007359999 212.32639999999998,860.5181007359998 212.32639999999998,859.7405007359998 212.32639999999998L859.0205007359999 212.32639999999998L859.0205007359999 212.81599999999997C859.0493007359999 214.28479999999996,859.3373007359999 214.86079999999998,860.4605007359999 215.46559999999997C860.8637007359999 215.66719999999998,860.9501007359999 215.72479999999996,860.9501007359999 216.01279999999997C860.9501007359999 216.21439999999998,860.8925007359999 216.30079999999998,860.7485007359999 216.41599999999997L860.6621007359998 216.44479999999996L856.716500736 216.44479999999996L852.7997007359999 216.44479999999996L852.7133007359998 216.41599999999997C852.5405007359999 216.30079999999998,852.5117007359999 216.21439999999998,852.5117007359999 216.01279999999997C852.5117007359999 215.72479999999996,852.5405007359999 215.66719999999998,852.9725007359999 215.46559999999997C854.0957007359999 214.86079999999998,854.3837007359999 214.28479999999996,854.3837007359999 212.81599999999997L854.3837007359999 212.32639999999998L851.0717007359999 212.32639999999998C850.4669007359998 212.38399999999996,849.9773007359998 212.38399999999996,849.5741007359999 212.38399999999996C847.7597007359999 212.38399999999996,847.7309007359999 212.32639999999998,847.7021007359999 212.32639999999998C847.5293007359999 212.26879999999997,847.4717007359999 212.09599999999998,847.4717007359999 211.89439999999996C847.4717007359999 211.89439999999996,847.4717007359999 211.89439999999996,847.4717007359999 211.89439999999996C847.4717007359999 211.69279999999998,847.4717007359999 211.69279999999998,848.0477007359999 211.0304C850.4669007359998 208.09279999999998,852.1661007359999 203.83039999999997,852.1661007359999 200.43199999999996C852.1661007359999 199.91359999999997,852.2525007359999 199.74079999999998,852.4829007359999 199.65439999999998M854.2109007359999 218.02879999999996L854.2397007359999 218.02879999999996L854.1533007359999 218.02879999999996L854.2109007359999 218.02879999999996M854.2109007359999 198.61759999999998L854.2397007359999 198.61759999999998L854.1533007359999 198.61759999999998L854.2109007359999 198.61759999999998">
</path>
<g class="vf-stavenote" id="vf-auto47637">
<g class="vf-note" pointer-events="bounding-box">
<g class="vf-notehead" pointer-events="bounding-box">
<path stroke-width="0.3" fill="#000000" stroke="none" stroke-dasharray="none" d="M898.8141775359999 197.99999999999997M906.1711375359998 192.77711999999997C906.2834575359999 192.77711999999997,906.4519375359998 192.77711999999997,906.4800175359999 192.77711999999997C906.4800175359999 192.77711999999997,906.5080975359999 192.77711999999997,906.5080975359999 192.77711999999997C906.5080975359999 192.77711999999997,906.6765775359999 192.77711999999997,906.8169775359999 192.77711999999997C909.3441775359998 192.91751999999997,910.8324175359999 194.57423999999997,910.8324175359999 196.65215999999998C910.8324175359999 197.66303999999997,910.4954575359999 198.81431999999998,909.6530575359999 199.90943999999996C908.0524975359999 202.07159999999996,905.4410575359999 203.25095999999996,903.1665775359999 203.25095999999996C901.3975375359998 203.25095999999996,899.8812175359999 202.54895999999997,899.1511375359999 201.11687999999998C898.9264975359998 200.55527999999998,898.8141775359999 200.02175999999997,898.8141775359999 199.43207999999998C898.8141775359999 196.37135999999998,902.2399375359998 192.97367999999997,906.1711375359998 192.77711999999997">
</path>
</g>
</g>
<g class="vf-modifiers">
<g class="vf-stavenote" id="vf-auto47647">
<g class="vf-note" pointer-events="bounding-box">
<g class="vf-stem" pointer-events="bounding-box">
<path stroke-width="1.5" fill="none" stroke="#000000" stroke-dasharray="none" d="M880.1321391359999 197.99999999999997L880.1321391359999 174.89999999999998">
</path>
</g>
<g class="vf-notehead" pointer-events="bounding-box">
<path stroke-width="0.3" fill="#000000" stroke="none" stroke-dasharray="none" d="M872.9501007359999 197.99999999999997M877.8056943359999 194.55289919999998C877.8798255359999 194.55289919999998,877.9910223359999 194.55289919999998,878.0095551359999 194.55289919999998C878.0095551359999 194.55289919999998,878.0280879359999 194.55289919999998,878.0280879359999 194.55289919999998C878.0280879359999 194.55289919999998,878.1392847359998 194.55289919999998,878.2319487359998 194.55289919999998C879.8999007359998 194.64556319999997,880.8821391359999 195.73899839999996,880.8821391359999 197.11042559999999C880.8821391359999 197.77760639999997,880.6597455359998 198.53745119999996,880.1037615359999 199.26023039999998C879.0473919359998 200.68725599999996,877.3238415359998 201.46563359999996,875.8226847359998 201.46563359999996C874.6551183359999 201.46563359999996,873.6543471359998 201.00231359999998,873.1724943359999 200.05714079999998C873.0242319359999 199.68648479999996,872.9501007359999 199.33436159999997,872.9501007359999 198.94517279999997C872.9501007359999 196.92509759999996,875.2111023359998 194.68262879999997,877.8056943359999 194.55289919999998">
</path>
</g>
<g class="vf-flag" pointer-events="bounding-box">
<path stroke-width="0.3" fill="#000000" stroke="none" stroke-dasharray="none" d="M880.1321391359999 172.89999999999998M879.6873519359999 175.88378079999998L879.6873519359999 172.992664L879.7614831359998 172.992664C879.9653439359998 172.992664,880.0950735359999 173.12239359999998,880.1321391359999 173.34478719999998C880.5213279359999 175.19806719999997,881.6888943359999 177.21814239999998,883.3012479359999 178.73783199999997C885.0989295359999 180.42431679999999,886.0070367359999 182.74091679999998,886.0070367359999 185.13164799999998C886.0070367359999 187.39264959999997,885.2101263359999 189.74631519999997,883.5977727359999 191.69225919999997C883.3197807359999 192.06291519999996,883.3012479359999 192.06291519999996,883.1159199359998 192.06291519999996C882.8935263359998 192.06291519999996,882.7452639359999 191.89611999999997,882.7452639359999 191.67372639999996C882.7452639359999 191.50693119999997,882.7637967359999 191.4698656,882.9491247359998 191.2660048C884.3576175359999 189.56098719999997,885.0618639359999 187.5038464,885.0618639359999 185.5393696C885.0618639359999 183.7972864,884.5058799359998 182.12933439999998,883.3568463359999 180.86910399999996C882.6525999359999 180.09072639999997,881.3553039359998 179.34941439999997,879.7058847359999 178.77489759999997C879.7058847359999 178.75636479999997,879.6873519359999 178.18184799999997,879.6873519359999 175.88378079999998">
</path>
</g>
</g>
<g class="vf-modifiers">
</g>
</g>
<path stroke-width="1" fill="none" stroke="#000000" stroke-dasharray="none" d="M873.9501007359999 189.74999999999997L886.9501007359999 180.74999999999997Z">
</path>
</g>
</g>
<g class="vf-stavenote" id="vf-auto47661">
<g class="vf-note" pointer-events="bounding-box">
<g class="vf-notehead" pointer-events="bounding-box">
<path stroke-width="0.3" fill="#000000" stroke="none" stroke-dasharray="none" d="M937.0723391359999 197.99999999999997M944.4292991359998 192.77711999999997C944.5416191359999 192.77711999999997,944.7100991359998 192.77711999999997,944.7381791359999 192.77711999999997C944.7381791359999 192.77711999999997,944.7662591359999 192.77711999999997,944.7662591359999 192.77711999999997C944.7662591359999 192.77711999999997,944.9347391359998 192.77711999999997,945.0751391359998 192.77711999999997C947.6023391359998 192.91751999999997,949.0905791359999 194.57423999999997,949.0905791359999 196.65215999999998C949.0905791359999 197.66303999999997,948.7536191359999 198.81431999999998,947.9112191359999 199.90943999999996C946.3106591359999 202.07159999999996,943.6992191359999 203.25095999999996,941.4247391359999 203.25095999999996C939.6556991359998 203.25095999999996,938.1393791359999 202.54895999999997,937.4092991359998 201.11687999999998C937.1846591359998 200.55527999999998,937.0723391359999 200.02175999999997,937.0723391359999 199.43207999999998C937.0723391359999 196.37135999999998,940.4980991359998 192.97367999999997,944.4292991359998 192.77711999999997">
</path>
</g>
</g>
<g class="vf-modifiers">
</g>
</g>
<g class="vf-stavenote" id="vf-auto47671">
<g class="vf-note" pointer-events="bounding-box">
<g class="vf-notehead" pointer-events="bounding-box">
<path stroke-width="0.3" fill="#000000" stroke="none" stroke-dasharray="none" d="M1001.1945775359999 197.99999999999997M1008.5515375359998 192.77711999999997C1008.6638575359999 192.77711999999997,1008.8323375359998 192.77711999999997,1008.8604175359999 192.77711999999997C1008.8604175359999 192.77711999999997,1008.8884975359999 192.77711999999997,1008.8884975359999 192.77711999999997C1008.8884975359999 192.77711999999997,1009.0569775359999 192.77711999999997,1009.1973775359999 192.77711999999997C1011.7245775359999 192.91751999999997,1013.2128175359999 194.57423999999997,1013.2128175359999 196.65215999999998C1013.2128175359999 197.66303999999997,1012.8758575359999 198.81431999999998,1012.0334575359999 199.90943999999996C1010.4328975359999 202.07159999999996,1007.8214575359999 203.25095999999996,1005.5469775359999 203.25095999999996C1003.7779375359999 203.25095999999996,1002.2616175359999 202.54895999999997,1001.5315375359999 201.11687999999998C1001.3068975359998 200.55527999999998,1001.1945775359999 200.02175999999997,1001.1945775359999 199.43207999999998C1001.1945775359999 196.37135999999998,1004.6203375359999 192.97367999999997,1008.5515375359998 192.77711999999997">
</path>
</g>
</g>
<g class="vf-modifiers">
<g class="vf-stavenote" id="vf-auto47681">
<g class="vf-note" pointer-events="bounding-box">
<g class="vf-stem" pointer-events="bounding-box">
<path stroke-width="1.5" fill="none" stroke="#000000" stroke-dasharray="none" d="M982.5125391359999 197.99999999999997L982.5125391359999 174.89999999999998">
</path>
</g>
<g class="vf-notehead" pointer-events="bounding-box">
<path stroke-width="0.3" fill="#000000" stroke="none" stroke-dasharray="none" d="M975.3305007359999 197.99999999999997M980.1860943359999 194.55289919999998C980.2602255359999 194.55289919999998,980.3714223359999 194.55289919999998,980.3899551359999 194.55289919999998C980.3899551359999 194.55289919999998,980.4084879359999 194.55289919999998,980.4084879359999 194.55289919999998C980.4084879359999 194.55289919999998,980.5196847359998 194.55289919999998,980.6123487359998 194.55289919999998C982.2803007359998 194.64556319999997,983.2625391359999 195.73899839999996,983.2625391359999 197.11042559999999C983.2625391359999 197.77760639999997,983.0401455359998 198.53745119999996,982.4841615359999 199.26023039999998C981.4277919359998 200.68725599999996,979.7042415359998 201.46563359999996,978.2030847359998 201.46563359999996C977.0355183359999 201.46563359999996,976.0347471359999 201.00231359999998,975.5528943359999 200.05714079999998C975.4046319359999 199.68648479999996,975.3305007359999 199.33436159999997,975.3305007359999 198.94517279999997C975.3305007359999 196.92509759999996,977.5915023359998 194.68262879999997,980.1860943359999 194.55289919999998">
</path>
</g>
<g class="vf-flag" pointer-events="bounding-box">
<path stroke-width="0.3" fill="#000000" stroke="none" stroke-dasharray="none" d="M982.5125391359999 172.89999999999998M982.0677519359999 175.88378079999998L982.0677519359999 172.992664L982.1418831359998 172.992664C982.3457439359998 172.992664,982.4754735359999 173.12239359999998,982.5125391359999 173.34478719999998C982.9017279359999 175.19806719999997,984.0692943359999 177.21814239999998,985.6816479359999 178.73783199999997C987.4793295359999 180.42431679999999,988.3874367359999 182.74091679999998,988.3874367359999 185.13164799999998C988.3874367359999 187.39264959999997,987.5905263359999 189.74631519999997,985.9781727359999 191.69225919999997C985.7001807359999 192.06291519999996,985.6816479359999 192.06291519999996,985.4963199359998 192.06291519999996C985.2739263359998 192.06291519999996,985.1256639359999 191.89611999999997,985.1256639359999 191.67372639999996C985.1256639359999 191.50693119999997,985.1441967359999 191.4698656,985.3295247359998 191.2660048C986.7380175359999 189.56098719999997,987.4422639359999 187.5038464,987.4422639359999 185.5393696C987.4422639359999 183.7972864,986.8862799359998 182.12933439999998,985.7372463359999 180.86910399999996C985.0329999359999 180.09072639999997,983.7357039359998 179.34941439999997,982.0862847359999 178.77489759999997C982.0862847359999 178.75636479999997,982.0677519359999 178.18184799999997,982.0677519359999 175.88378079999998">
</path>
</g>
</g>
<g class="vf-modifiers">
</g>
</g>
<path stroke-width="1" fill="none" stroke="#000000" stroke-dasharray="none" d="M976.3305007359999 189.74999999999997L989.3305007359999 180.74999999999997Z">
</path>
</g>
</g>
<g class="vf-stavenote" id="vf-auto47695">
<g class="vf-note" pointer-events="bounding-box">
<g class="vf-notehead" pointer-events="bounding-box">
<path stroke-width="0.3" fill="#000000" stroke="none" stroke-dasharray="none" d="M1039.4527391359998 197.99999999999997M1046.8096991359998 192.77711999999997C1046.9220191359998 192.77711999999997,1047.0904991359998 192.77711999999997,1047.1185791359997 192.77711999999997C1047.1185791359997 192.77711999999997,1047.1466591359997 192.77711999999997,1047.1466591359997 192.77711999999997C1047.1466591359997 192.77711999999997,1047.3151391359997 192.77711999999997,1047.4555391359997 192.77711999999997C1049.9827391359997 192.91751999999997,1051.4709791359999 194.57423999999997,1051.4709791359999 196.65215999999998C1051.4709791359999 197.66303999999997,1051.1340191359998 198.81431999999998,1050.2916191359998 199.90943999999996C1048.6910591359997 202.07159999999996,1046.0796191359998 203.25095999999996,1043.8051391359998 203.25095999999996C1042.0360991359998 203.25095999999996,1040.5197791359997 202.54895999999997,1039.7896991359999 201.11687999999998C1039.5650591359997 200.55527999999998,1039.4527391359998 200.02175999999997,1039.4527391359998 199.43207999999998C1039.4527391359998 196.37135999999998,1042.8784991359998 192.97367999999997,1046.8096991359998 192.77711999999997">
</path>
</g>
</g>
<g class="vf-modifiers">
</g>
</g>
<g class="vf-stavenote" id="vf-auto47705">
<g class="vf-note" pointer-events="bounding-box">
<g class="vf-notehead" pointer-events="bounding-box">
<path stroke-width="0.3" fill="#000000" stroke="none" stroke-dasharray="none" d="M1103.5749775359998 197.99999999999997M1110.9319375359999 192.77711999999997C1111.0442575359998 192.77711999999997,1111.2127375359998 192.77711999999997,1111.2408175359997 192.77711999999997C1111.2408175359997 192.77711999999997,1111.2688975359997 192.77711999999997,1111.2688975359997 192.77711999999997C1111.2688975359997 192.77711999999997,1111.4373775359998 192.77711999999997,1111.5777775359998 192.77711999999997C1114.1049775359998 192.91751999999997,1115.5932175359999 194.57423999999997,1115.5932175359999 196.65215999999998C1115.5932175359999 197.66303999999997,1115.2562575359998 198.81431999999998,1114.4138575359998 199.90943999999996C1112.8132975359997 202.07159999999996,1110.2018575359998 203.25095999999996,1107.9273775359998 203.25095999999996C1106.1583375359999 203.25095999999996,1104.6420175359997 202.54895999999997,1103.9119375359999 201.11687999999998C1103.6872975359997 200.55527999999998,1103.5749775359998 200.02175999999997,1103.5749775359998 199.43207999999998C1103.5749775359998 196.37135999999998,1107.0007375359999 192.97367999999997,1110.9319375359999 192.77711999999997">
</path>
</g>
</g>
<g class="vf-modifiers">
<g class="vf-stavenote" id="vf-auto47715">
<g class="vf-note" pointer-events="bounding-box">
<g class="vf-stem" pointer-events="bounding-box">
<path stroke-width="1.5" fill="none" stroke="#000000" stroke-dasharray="none" d="M1084.8929391359998 197.99999999999997L1084.8929391359998 174.89999999999998">
</path>
</g>
<g class="vf-notehead" pointer-events="bounding-box">
<path stroke-width="0.3" fill="#000000" stroke="none" stroke-dasharray="none" d="M1077.7109007359998 197.99999999999997M1082.5664943359998 194.55289919999998C1082.6406255359998 194.55289919999998,1082.7518223359998 194.55289919999998,1082.7703551359998 194.55289919999998C1082.7703551359998 194.55289919999998,1082.7888879359998 194.55289919999998,1082.7888879359998 194.55289919999998C1082.7888879359998 194.55289919999998,1082.9000847359998 194.55289919999998,1082.9927487359998 194.55289919999998C1084.6607007359999 194.64556319999997,1085.6429391359998 195.73899839999996,1085.6429391359998 197.11042559999999C1085.6429391359998 197.77760639999997,1085.4205455359997 198.53745119999996,1084.8645615359997 199.26023039999998C1083.8081919359997 200.68725599999996,1082.0846415359997 201.46563359999996,1080.5834847359997 201.46563359999996C1079.4159183359998 201.46563359999996,1078.4151471359999 201.00231359999998,1077.9332943359998 200.05714079999998C1077.7850319359998 199.68648479999996,1077.7109007359998 199.33436159999997,1077.7109007359998 198.94517279999997C1077.7109007359998 196.92509759999996,1079.9719023359999 194.68262879999997,1082.5664943359998 194.55289919999998">
</path>
</g>
<g class="vf-flag" pointer-events="bounding-box">
<path stroke-width="0.3" fill="#000000" stroke="none" stroke-dasharray="none" d="M1084.8929391359998 172.89999999999998M1084.4481519359997 175.88378079999998L1084.4481519359997 172.992664L1084.5222831359997 172.992664C1084.7261439359997 172.992664,1084.8558735359998 173.12239359999998,1084.8929391359998 173.34478719999998C1085.2821279359998 175.19806719999997,1086.4496943359998 177.21814239999998,1088.0620479359998 178.73783199999997C1089.8597295359998 180.42431679999999,1090.7678367359997 182.74091679999998,1090.7678367359997 185.13164799999998C1090.7678367359997 187.39264959999997,1089.9709263359998 189.74631519999997,1088.3585727359998 191.69225919999997C1088.0805807359998 192.06291519999996,1088.0620479359998 192.06291519999996,1087.8767199359997 192.06291519999996C1087.6543263359997 192.06291519999996,1087.5060639359997 191.89611999999997,1087.5060639359997 191.67372639999996C1087.5060639359997 191.50693119999997,1087.5245967359997 191.4698656,1087.7099247359997 191.2660048C1089.1184175359997 189.56098719999997,1089.8226639359998 187.5038464,1089.8226639359998 185.5393696C1089.8226639359998 183.7972864,1089.2666799359997 182.12933439999998,1088.1176463359998 180.86910399999996C1087.4133999359997 180.09072639999997,1086.1161039359997 179.34941439999997,1084.4666847359997 178.77489759999997C1084.4666847359997 178.75636479999997,1084.4481519359997 178.18184799999997,1084.4481519359997 175.88378079999998">
</path>
</g>
</g>
<g class="vf-modifiers">
</g>
</g>
<path stroke-width="1" fill="none" stroke="#000000" stroke-dasharray="none" d="M1078.7109007359998 189.74999999999997L1091.7109007359998 180.74999999999997Z">
</path>
</g>
</g>
<g class="vf-stavenote" id="vf-auto47729">
<g class="vf-note" pointer-events="bounding-box">
<g class="vf-notehead" pointer-events="bounding-box">
<path stroke-width="0.3" fill="#000000" stroke="none" stroke-dasharray="none" d="M1141.8331391359998 197.99999999999997M1149.1900991359998 192.77711999999997C1149.3024191359998 192.77711999999997,1149.4708991359998 192.77711999999997,1149.4989791359997 192.77711999999997C1149.4989791359997 192.77711999999997,1149.5270591359997 192.77711999999997,1149.5270591359997 192.77711999999997C1149.5270591359997 192.77711999999997,1149.6955391359998 192.77711999999997,1149.8359391359998 192.77711999999997C1152.3631391359997 192.91751999999997,1153.8513791359999 194.57423999999997,1153.8513791359999 196.65215999999998C1153.8513791359999 197.66303999999997,1153.5144191359998 198.81431999999998,1152.6720191359998 199.90943999999996C1151.0714591359997 202.07159999999996,1148.4600191359998 203.25095999999996,1146.1855391359998 203.25095999999996C1144.4164991359999 203.25095999999996,1142.9001791359997 202.54895999999997,1142.1700991359999 201.11687999999998C1141.9454591359997 200.55527999999998,1141.8331391359998 200.02175999999997,1141.8331391359998 199.43207999999998C1141.8331391359998 196.37135999999998,1145.2588991359999 192.97367999999997,1149.1900991359998 192.77711999999997">
</path>
</g>
</g>
<g class="vf-modifiers">
</g>
</g>
<g class="vf-stavenote" id="vf-auto47739">
<g class="vf-note" pointer-events="bounding-box">
<g class="vf-notehead" pointer-events="bounding-box">
<path stroke-width="0.3" fill="#000000" stroke="none" stroke-dasharray="none" d="M1205.9553775359998 197.99999999999997M1213.3123375359999 192.77711999999997C1213.4246575359998 192.77711999999997,1213.5931375359999 192.77711999999997,1213.6212175359997 192.77711999999997C1213.6212175359997 192.77711999999997,1213.6492975359997 192.77711999999997,1213.6492975359997 192.77711999999997C1213.6492975359997 192.77711999999997,1213.8177775359998 192.77711999999997,1213.9581775359998 192.77711999999997C1216.4853775359998 192.91751999999997,1217.973617536 194.57423999999997,1217.973617536 196.65215999999998C1217.973617536 197.66303999999997,1217.6366575359998 198.81431999999998,1216.7942575359998 199.90943999999996C1215.1936975359997 202.07159999999996,1212.5822575359998 203.25095999999996,1210.3077775359998 203.25095999999996C1208.5387375359999 203.25095999999996,1207.0224175359997 202.54895999999997,1206.2923375359999 201.11687999999998C1206.0676975359997 200.55527999999998,1205.9553775359998 200.02175999999997,1205.9553775359998 199.43207999999998C1205.9553775359998 196.37135999999998,1209.3811375359999 192.97367999999997,1213.3123375359999 192.77711999999997">
</path>
</g>
</g>
<g class="vf-modifiers">
<g class="vf-stavenote" id="vf-auto47749">
<g class="vf-note" pointer-events="bounding-box">
<g class="vf-stem" pointer-events="bounding-box">
<path stroke-width="1.5" fill="none" stroke="#000000" stroke-dasharray="none" d="M1187.2733391359998 197.99999999999997L1187.2733391359998 174.89999999999998">
</path>
</g>
<g class="vf-notehead" pointer-events="bounding-box">
<path stroke-width="0.3" fill="#000000" stroke="none" stroke-dasharray="none" d="M1180.0913007359998 197.99999999999997M1184.9468943359998 194.55289919999998C1185.0210255359998 194.55289919999998,1185.1322223359998 194.55289919999998,1185.1507551359998 194.55289919999998C1185.1507551359998 194.55289919999998,1185.1692879359998 194.55289919999998,1185.1692879359998 194.55289919999998C1185.1692879359998 194.55289919999998,1185.2804847359998 194.55289919999998,1185.3731487359998 194.55289919999998C1187.0411007359999 194.64556319999997,1188.0233391359998 195.73899839999996,1188.0233391359998 197.11042559999999C1188.0233391359998 197.77760639999997,1187.8009455359997 198.53745119999996,1187.2449615359997 199.26023039999998C1186.1885919359997 200.68725599999996,1184.4650415359997 201.46563359999996,1182.9638847359997 201.46563359999996C1181.7963183359998 201.46563359999996,1180.7955471359999 201.00231359999998,1180.3136943359998 200.05714079999998C1180.1654319359998 199.68648479999996,1180.0913007359998 199.33436159999997,1180.0913007359998 198.94517279999997C1180.0913007359998 196.92509759999996,1182.3523023359999 194.68262879999997,1184.9468943359998 194.55289919999998">
</path>
</g>
<g class="vf-flag" pointer-events="bounding-box">
<path stroke-width="0.3" fill="#000000" stroke="none" stroke-dasharray="none" d="M1187.2733391359998 172.89999999999998M1186.8285519359997 175.88378079999998L1186.8285519359997 172.992664L1186.9026831359997 172.992664C1187.1065439359998 172.992664,1187.2362735359998 173.12239359999998,1187.2733391359998 173.34478719999998C1187.6625279359998 175.19806719999997,1188.8300943359998 177.21814239999998,1190.4424479359998 178.73783199999997C1192.2401295359998 180.42431679999999,1193.1482367359997 182.74091679999998,1193.1482367359997 185.13164799999998C1193.1482367359997 187.39264959999997,1192.3513263359998 189.74631519999997,1190.7389727359998 191.69225919999997C1190.4609807359998 192.06291519999996,1190.4424479359998 192.06291519999996,1190.2571199359998 192.06291519999996C1190.0347263359997 192.06291519999996,1189.8864639359997 191.89611999999997,1189.8864639359997 191.67372639999996C1189.8864639359997 191.50693119999997,1189.9049967359997 191.4698656,1190.0903247359997 191.2660048C1191.4988175359997 189.56098719999997,1192.2030639359998 187.5038464,1192.2030639359998 185.5393696C1192.2030639359998 183.7972864,1191.6470799359997 182.12933439999998,1190.4980463359998 180.86910399999996C1189.7937999359997 180.09072639999997,1188.4965039359997 179.34941439999997,1186.8470847359997 178.77489759999997C1186.8470847359997 178.75636479999997,1186.8285519359997 178.18184799999997,1186.8285519359997 175.88378079999998">
</path>
</g>
</g>
<g class="vf-modifiers">
</g>
</g>
<path stroke-width="1" fill="none" stroke="#000000" stroke-dasharray="none" d="M1181.0913007359998 189.74999999999997L1194.0913007359998 180.74999999999997Z">
</path>
</g>
</g>
<g class="vf-stavenote" id="vf-auto47763">
<g class="vf-note" pointer-events="bounding-box">
<g class="vf-notehead" pointer-events="bounding-box">
<path stroke-width="0.3" fill="#000000" stroke="none" stroke-dasharray="none" d="M1244.2135391359998 197.99999999999997M1251.5704991359999 192.77711999999997C1251.6828191359998 192.77711999999997,1251.8512991359999 192.77711999999997,1251.8793791359997 192.77711999999997C1251.8793791359997 192.77711999999997,1251.9074591359997 192.77711999999997,1251.9074591359997 192.77711999999997C1251.9074591359997 192.77711999999997,1252.0759391359998 192.77711999999997,1252.2163391359998 192.77711999999997C1254.7435391359998 192.91751999999997,1256.231779136 194.57423999999997,1256.231779136 196.65215999999998C1256.231779136 197.66303999999997,1255.8948191359998 198.81431999999998,1255.0524191359998 199.90943999999996C1253.4518591359997 202.07159999999996,1250.8404191359998 203.25095999999996,1248.5659391359998 203.25095999999996C1246.7968991359999 203.25095999999996,1245.2805791359997 202.54895999999997,1244.5504991359999 201.11687999999998C1244.3258591359997 200.55527999999998,1244.2135391359998 200.02175999999997,1244.2135391359998 199.43207999999998C1244.2135391359998 196.37135999999998,1247.6392991359999 192.97367999999997,1251.5704991359999 192.77711999999997">
</path>
</g>
</g>
<g class="vf-modifiers">
</g>
</g>
<path stroke-width="1.5" fill="none" stroke="#000000" stroke-dasharray="none" d="M910.0824175359999 197.99999999999997L910.0824175359999 163.74999999999997">
</path>
<path stroke-width="1.5" fill="none" stroke="#000000" stroke-dasharray="none" d="M948.3405791359999 197.99999999999997L948.3405791359999 163.74999999999997">
</path>
<path stroke-width="1.5" fill="none" stroke="#000000" stroke-dasharray="none" d="M1012.4628175359999 197.99999999999997L1012.4628175359999 163.74999999999997">
</path>
<path stroke-width="1.5" fill="none" stroke="#000000" stroke-dasharray="none" d="M1050.7209791359999 197.99999999999997L1050.7209791359999 163.74999999999997">
</path>
<path stroke-width="0.3" fill="#000000" stroke="none" stroke-dasharray="none" d="M909.3324175359999 162.99999999999997L909.3324175359999 167.99999999999997L1050.9709791359999 167.99999999999997L1050.9709791359999 162.99999999999997Z">
</path>
<path stroke-width="0.3" fill="#000000" stroke="none" stroke-dasharray="none" d="M909.3324175359999 170.49999999999997L909.3324175359999 175.49999999999997L1050.9709791359999 175.49999999999997L1050.9709791359999 170.49999999999997Z">
</path>
<path stroke-width="1.5" fill="none" stroke="#000000" stroke-dasharray="none" d="M1114.8432175359999 197.99999999999997L1114.8432175359999 163.74999999999997">
</path>
<path stroke-width="1.5" fill="none" stroke="#000000" stroke-dasharray="none" d="M1153.1013791359999 197.99999999999997L1153.1013791359999 163.74999999999997">
</path>
<path stroke-width="1.5" fill="none" stroke="#000000" stroke-dasharray="none" d="M1217.223617536 197.99999999999997L1217.223617536 163.74999999999997">
</path>
<path stroke-width="1.5" fill="none" stroke="#000000" stroke-dasharray="none" d="M1255.481779136 197.99999999999997L1255.481779136 163.74999999999997">
</path>
<path stroke-width="0.3" fill="#000000" stroke="none" stroke-dasharray="none" d="M1114.0932175359999 162.99999999999997L1114.0932175359999 167.99999999999997L1255.731779136 167.99999999999997L1255.731779136 162.99999999999997Z">
</path>
<path stroke-width="0.3" fill="#000000" stroke="none" stroke-dasharray="none" d="M1114.0932175359999 170.49999999999997L1114.0932175359999 175.49999999999997L1255.731779136 175.49999999999997L1255.731779136 170.49999999999997Z">
</path>
</svg>