<svg width="1536" height="331.99999999999994" viewBox="0 0 1536 331.99999999999994">
<path stroke-width="1" fill="none" stroke="black" stroke-dasharray="none" d="M50 197.99999999999997L780.915197952 197.99999999999997">
</path>
<rect stroke-width="0.3" fill="black" stroke="black" stroke-dasharray="none" x="780.915197952" y="177.49999999999997" width="1" height="41">
</rect>
<path stroke-width="0.3" fill="black" stroke="none" stroke-dasharray="none" d="M55 197.99999999999997M55 197.99999999999997L55 188.00639999999999L57.1888 188.00639999999999L59.4064 188.00639999999999L59.4064 197.99999999999997L59.4064 208.02239999999998L57.1888 208.02239999999998L55 208.02239999999998L55 197.99999999999997M63.870400000000004 198.02879999999996L63.870400000000004 188.00639999999999L66.1168 188.00639999999999L68.3632 188.00639999999999L68.3632 198.02879999999996L68.3632 208.02239999999998L66.1168 208.02239999999998L63.870400000000004 208.02239999999998L63.870400000000004 198.02879999999996">
</path>
<path stroke-width="0.3" fill="black" stroke="none" stroke-dasharray="none" d="M96 197.99999999999997M101.0112 179.65439999999998C101.04 179.62559999999996,101.4432 179.62559999999996,102.6816 179.62559999999996C103.056 179.62559999999996,103.4592 179.62559999999996,103.9776 179.62559999999996L106.8864 179.62559999999996L106.9728 179.71199999999996C107.1168 179.79839999999996,107.2032 179.94239999999996,107.2032 180.05759999999998C107.2032 180.23039999999997,107.1168 180.34559999999996,107.0016 180.46079999999998C106.9728 180.54719999999998,106.7136 180.77759999999998,106.5408 181.03679999999997L105.0144 182.79359999999997L103.056 185.01119999999997L102.0192 186.19199999999998L100.464 187.97759999999997L98.4192 190.31039999999996C98.0736 190.74239999999998,97.6992 191.08799999999997,97.6992 191.08799999999997C97.6992 191.08799999999997,97.6992 191.08799999999997,97.6992 191.08799999999997C97.6992 191.14559999999997,97.9584 191.14559999999997,100.3488 191.14559999999997L102.9696 191.14559999999997L102.9696 189.27359999999996C102.9696 187.37279999999998,102.9696 187.34399999999997,102.9984 187.31519999999998C103.056 187.22879999999998,103.3152 186.91199999999998,104.3232 185.73119999999997L104.7264 185.29919999999998L105.1296 184.86719999999997L105.7344 184.08959999999996L106.368 183.42719999999997L106.6848 183.02399999999997C106.8 182.85119999999998,106.9728 182.82239999999996,107.1168 182.82239999999996C107.28960000000001 182.82239999999996,107.4336 182.90879999999999,107.52 183.05279999999996C107.5488 183.13919999999996,107.5488 183.19679999999997,107.5488 185.32799999999997C107.5488 185.81759999999997,107.5488 186.42239999999998,107.5488 187.14239999999998L107.5488 191.14559999999997L108.2688 191.14559999999997C108.9312 191.14559999999997,108.96 191.14559999999997,109.0464 191.17439999999996C109.2768 191.26079999999996,109.392 191.49119999999996,109.392 191.75039999999998C109.392 191.89439999999996,109.3632 192.06719999999999,109.248 192.18239999999997C109.0752 192.32639999999998,109.0464 192.32639999999998,108.2688 192.32639999999998L107.5488 192.32639999999998L107.5488 192.81599999999997C107.5776 194.28479999999996,107.8656 194.86079999999998,108.9888 195.46559999999997C109.392 195.66719999999998,109.4784 195.72479999999996,109.4784 196.01279999999997C109.4784 196.21439999999998,109.4208 196.30079999999998,109.2768 196.41599999999997L109.1904 196.44479999999996L105.2448 196.44479999999996L101.328 196.44479999999996L101.2416 196.41599999999997C101.0688 196.30079999999998,101.04 196.21439999999998,101.04 196.01279999999997C101.04 195.72479999999996,101.0688 195.66719999999998,101.5008 195.46559999999997C102.624 194.86079999999998,102.912 194.28479999999996,102.912 192.81599999999997L102.912 192.32639999999998L99.6 192.32639999999998C98.9952 192.38399999999996,98.5056 192.38399999999996,98.1024 192.38399999999996C96.288 192.38399999999996,96.2592 192.32639999999998,96.2304 192.32639999999998C96.0576 192.26879999999997,96 192.09599999999998,96 191.89439999999996C96 191.89439999999996,96 191.89439999999996,96 191.89439999999996C96 191.69279999999998,96 191.69279999999998,96.576 191.0304C98.9952 188.09279999999998,100.6944 183.83039999999997,100.6944 180.43199999999996C100.6944 179.91359999999997,100.7808 179.74079999999998,101.0112 179.65439999999998M102.7392 198.02879999999996L102.768 198.02879999999996L102.6816 198.02879999999996L102.7392 198.02879999999996M102.7392 178.61759999999998L102.768 178.61759999999998L102.6816 178.61759999999998L102.7392 178.61759999999998">
</path>
<path stroke-width="0.3" fill="black" stroke="none" stroke-dasharray="none" d="M96 217.99999999999997M101.0112 199.65439999999998C101.04 199.62559999999996,101.4432 199.62559999999996,102.6816 199.62559999999996C103.056 199.62559999999996,103.4592 199.62559999999996,103.9776 199.62559999999996L106.8864 199.62559999999996L106.9728 199.71199999999996C107.1168 199.79839999999996,107.2032 199.94239999999996,107.2032 200.05759999999998C107.2032 200.23039999999997,107.1168 200.34559999999996,107.0016 200.46079999999998C106.9728 200.54719999999998,106.7136 200.77759999999998,106.5408 201.03679999999997L105.0144 202.79359999999997L103.056 205.01119999999997L102.0192 206.19199999999998L100.464 207.97759999999997L98.4192 210.31039999999996C98.0736 210.74239999999998,97.6992 211.08799999999997,97.6992 211.08799999999997C97.6992 211.08799999999997,97.6992 211.08799999999997,97.6992 211.08799999999997C97.6992 211.14559999999997,97.9584 211.14559999999997,100.3488 211.14559999999997L102.9696 211.14559999999997L102.9696 209.27359999999996C102.9696 207.37279999999998,102.9696 207.34399999999997,102.9984 207.31519999999998C103.056 207.22879999999998,103.3152 206.91199999999998,104.3232 205.73119999999997L104.7264 205.29919999999998L105.1296 204.86719999999997L105.7344 204.08959999999996L106.368 203.42719999999997L106.6848 203.02399999999997C106.8 202.85119999999998,106.9728 202.82239999999996,107.1168 202.82239999999996C107.28960000000001 202.82239999999996,107.4336 202.90879999999999,107.52 203.05279999999996C107.5488 203.13919999999996,107.5488 203.19679999999997,107.5488 205.32799999999997C107.5488 205.81759999999997,107.5488 206.42239999999998,107.5488 207.14239999999998L107.5488 211.14559999999997L108.2688 211.14559999999997C108.9312 211.14559999999997,108.96 211.14559999999997,109.0464 211.17439999999996C109.2768 211.26079999999996,109.392 211.49119999999996,109.392 211.75039999999998C109.392 211.89439999999996,109.3632 212.06719999999999,109.248 212.18239999999997C109.0752 212.32639999999998,109.0464 212.32639999999998,108.2688 212.32639999999998L107.5488 212.32639999999998L107.5488 212.81599999999997C107.5776 214.28479999999996,107.8656 214.86079999999998,108.9888 215.46559999999997C109.392 215.66719999999998,109.4784 215.72479999999996,109.4784 216.01279999999997C109.4784 216.21439999999998,109.4208 216.30079999999998,109.2768 216.41599999999997L109.1904 216.44479999999996L105.2448 216.44479999999996L101.328 216.44479999999996L101.2416 216.41599999999997C101.0688 216.30079999999998,101.04 216.21439999999998,101.04 216.01279999999997C101.04 215.72479999999996,101.0688 215.66719999999998,101.5008 215.46559999999997C102.624 214.86079999999998,102.912 214.28479999999996,102.912 212.81599999999997L102.912 212.32639999999998L99.6 212.32639999999998C98.9952 212.38399999999996,98.5056 212.38399999999996,98.1024 212.38399999999996C96.288 212.38399999999996,96.2592 212.32639999999998,96.2304 212.32639999999998C96.0576 212.26879999999997,96 212.09599999999998,96 211.89439999999996C96 211.89439999999996,96 211.89439999999996,96 211.89439999999996C96 211.69279999999998,96 211.69279999999998,96.576 211.0304C98.9952 208.09279999999998,100.6944 203.83039999999997,100.6944 200.43199999999996C100.6944 199.91359999999997,100.7808 199.74079999999998,101.0112 199.65439999999998M102.7392 218.02879999999996L102.768 218.02879999999996L102.6816 218.02879999999996L102.7392 218.02879999999996M102.7392 198.61759999999998L102.768 198.61759999999998L102.6816 198.61759999999998L102.7392 198.61759999999998">
</path>
<g class="vf-stavenote" id="vf-auto32638">
<g class="vf-note" pointer-events="bounding-box">
<g class="vf-notehead" pointer-events="bounding-box">
<path stroke-width="0.3" fill="#000000" stroke="none" stroke-dasharray="none" d="M147.3424768 197.99999999999997M154.69943679999997 192.77711999999997C154.81175679999998 192.77711999999997,154.9802368 192.77711999999997,155.0083168 192.77711999999997C155.0083168 192.77711999999997,155.03639679999998 192.77711999999997,155.03639679999998 192.77711999999997C155.03639679999998 192.77711999999997,155.2048768 192.77711999999997,155.3452768 192.77711999999997C157.8724768 192.91751999999997,159.36071679999998 194.57423999999997,159.36071679999998 196.65215999999998C159.36071679999998 197.66303999999997,159.0237568 198.81431999999998,158.18135679999997 199.90943999999996C156.58079679999997 202.07159999999996,153.96935679999999 203.25095999999996,151.69487679999997 203.25095999999996C149.92583679999998 203.25095999999996,148.40951679999998 202.54895999999997,147.6794368 201.11687999999998C147.4547968 200.55527999999998,147.3424768 200.02175999999997,147.3424768 199.43207999999998C147.3424768 196.37135999999998,150.76823679999998 192.97367999999997,154.69943679999997 192.77711999999997">
</path>
</g>
</g>
<g class="vf-modifiers">
<g class="vf-stavenote" id="vf-auto32648">
<g class="vf-note" pointer-events="bounding-box">
<g class="vf-stem" pointer-events="bounding-box">
<path stroke-width="1.5" fill="none" stroke="#000000" stroke-dasharray="none" d="M128.6604384 197.99999999999997L128.6604384 174.89999999999998">
</path>
</g>
<g class="vf-notehead" pointer-events="bounding-box">
<path stroke-width="0.3" fill="#000000" stroke="none" stroke-dasharray="none" d="M121.4784 197.99999999999997M126.3339936 194.55289919999998C126.4081248 194.55289919999998,126.5193216 194.55289919999998,126.5378544 194.55289919999998C126.5378544 194.55289919999998,126.55638719999999 194.55289919999998,126.55638719999999 194.55289919999998C126.55638719999999 194.55289919999998,126.66758399999999 194.55289919999998,126.76024799999999 194.55289919999998C128.4282 194.64556319999997,129.4104384 195.73899839999996,129.4104384 197.11042559999999C129.4104384 197.77760639999997,129.1880448 198.53745119999996,128.6320608 199.26023039999998C127.5756912 200.68725599999996,125.8521408 201.46563359999996,124.350984 201.46563359999996C123.1834176 201.46563359999996,122.1826464 201.00231359999998,121.7007936 200.05714079999998C121.55253119999999 199.68648479999996,121.4784 199.33436159999997,121.4784 198.94517279999997C121.4784 196.92509759999996,123.7394016 194.68262879999997,126.3339936 194.55289919999998">
</path>
</g>
<g class="vf-flag" pointer-events="bounding-box">
<path stroke-width="0.3" fill="#000000" stroke="none" stroke-dasharray="none" d="M128.6604384 172.89999999999998M128.2156512 175.88378079999998L128.2156512 172.992664L128.2897824 172.992664C128.4936432 172.992664,128.6233728 173.12239359999998,128.6604384 173.34478719999998C129.0496272 175.19806719999997,130.2171936 177.21814239999998,131.8295472 178.73783199999997C133.6272288 180.42431679999999,134.535336 182.74091679999998,134.535336 185.13164799999998C134.535336 187.39264959999997,133.7384256 189.74631519999997,132.126072 191.69225919999997C131.84808 192.06291519999996,131.8295472 192.06291519999996,131.6442192 192.06291519999996C131.4218256 192.06291519999996,131.2735632 191.89611999999997,131.2735632 191.67372639999996C131.2735632 191.50693119999997,131.29209600000002 191.4698656,131.477424 191.2660048C132.88591680000002 189.56098719999997,133.5901632 187.5038464,133.5901632 185.5393696C133.5901632 183.7972864,133.0341792 182.12933439999998,131.88514560000002 180.86910399999996C131.1808992 180.09072639999997,129.8836032 179.34941439999997,128.234184 178.77489759999997C128.234184 178.75636479999997,128.2156512 178.18184799999997,128.2156512 175.88378079999998">
</path>
</g>
</g>
<g class="vf-modifiers">
</g>
</g>
<path stroke-width="1" fill="none" stroke="#000000" stroke-dasharray="none" d="M122.4784 189.74999999999997L135.4784 180.74999999999997Z">
</path>
</g>
</g>
<g class="vf-stavenote" id="vf-auto32662">
<g class="vf-note" pointer-events="bounding-box">
<g class="vf-notehead" pointer-events="bounding-box">
<path stroke-width="0.3" fill="#000000" stroke="none" stroke-dasharray="none" d="M178.92604799999998 197.99999999999997M186.28300799999997 192.77711999999997C186.39532799999998 192.77711999999997,186.563808 192.77711999999997,186.59188799999998 192.77711999999997C186.59188799999998 192.77711999999997,186.61996799999997 192.77711999999997,186.61996799999997 192.77711999999997C186.61996799999997 192.77711999999997,186.788448 192.77711999999997,186.928848 192.77711999999997C189.45604799999998 192.91751999999997,190.94428799999997 194.57423999999997,190.94428799999997 196.65215999999998C190.94428799999997 197.66303999999997,190.607328 198.81431999999998,189.76492799999997 199.90943999999996C188.16436799999997 202.07159999999996,185.55292799999998 203.25095999999996,183.27844799999997 203.25095999999996C181.50940799999998 203.25095999999996,179.99308799999997 202.54895999999997,179.26300799999999 201.11687999999998C179.038368 200.55527999999998,178.92604799999998 200.02175999999997,178.92604799999998 199.43207999999998C178.92604799999998 196.37135999999998,182.35180799999998 192.97367999999997,186.28300799999997 192.77711999999997">
</path>
</g>
</g>
<g class="vf-modifiers">
</g>
</g>
<g class="vf-stavenote" id="vf-auto32672">
<g class="vf-note" pointer-events="bounding-box">
<g class="vf-notehead" pointer-events="bounding-box">
<path stroke-width="0.3" fill="#000000" stroke="none" stroke-dasharray="none" d="M210.5096192 197.99999999999997M217.8665792 192.77711999999997C217.9788992 192.77711999999997,218.1473792 192.77711999999997,218.1754592 192.77711999999997C218.1754592 192.77711999999997,218.2035392 192.77711999999997,218.2035392 192.77711999999997C218.2035392 192.77711999999997,218.3720192 192.77711999999997,218.5124192 192.77711999999997C221.0396192 192.91751999999997,222.5278592 194.57423999999997,222.5278592 196.65215999999998C222.5278592 197.66303999999997,222.1908992 198.81431999999998,221.3484992 199.90943999999996C219.7479392 202.07159999999996,217.1364992 203.25095999999996,214.8620192 203.25095999999996C213.0929792 203.25095999999996,211.5766592 202.54895999999997,210.8465792 201.11687999999998C210.6219392 200.55527999999998,210.5096192 200.02175999999997,210.5096192 199.43207999999998C210.5096192 196.37135999999998,213.9353792 192.97367999999997,217.8665792 192.77711999999997">
</path>
</g>
</g>
<g class="vf-modifiers">
</g>
</g>
<g class="vf-stavenote" id="vf-auto32682">
<g class="vf-note" pointer-events="bounding-box">
<g class="vf-notehead" pointer-events="bounding-box">
<path stroke-width="0.3" fill="#000000" stroke="none" stroke-dasharray="none" d="M242.09319040000003 197.99999999999997M249.4501504 192.77711999999997C249.56247040000002 192.77711999999997,249.73095040000004 192.77711999999997,249.75903040000003 192.77711999999997C249.75903040000003 192.77711999999997,249.78711040000002 192.77711999999997,249.78711040000002 192.77711999999997C249.78711040000002 192.77711999999997,249.95559040000003 192.77711999999997,250.09599040000003 192.77711999999997C252.62319040000003 192.91751999999997,254.11143040000002 194.57423999999997,254.11143040000002 196.65215999999998C254.11143040000002 197.66303999999997,253.77447040000004 198.81431999999998,252.93207040000001 199.90943999999996C251.3315104 202.07159999999996,248.72007040000003 203.25095999999996,246.44559040000001 203.25095999999996C244.67655040000002 203.25095999999996,243.16023040000002 202.54895999999997,242.43015040000003 201.11687999999998C242.20551040000004 200.55527999999998,242.09319040000003 200.02175999999997,242.09319040000003 199.43207999999998C242.09319040000003 196.37135999999998,245.51895040000002 192.97367999999997,249.4501504 192.77711999999997">
</path>
</g>
</g>
<g class="vf-modifiers">
</g>
</g>
<g class="vf-stavenote" id="vf-auto32692">
<g class="vf-note" pointer-events="bounding-box">
<g class="vf-notehead" pointer-events="bounding-box">
<path stroke-width="0.3" fill="#000000" stroke="none" stroke-dasharray="none" d="M299.5408384 197.99999999999997M306.8977984 192.77711999999997C307.0101184 192.77711999999997,307.1785984 192.77711999999997,307.2066784 192.77711999999997C307.2066784 192.77711999999997,307.2347584 192.77711999999997,307.2347584 192.77711999999997C307.2347584 192.77711999999997,307.40323839999996 192.77711999999997,307.54363839999996 192.77711999999997C310.07083839999996 192.91751999999997,311.5590784 194.57423999999997,311.5590784 196.65215999999998C311.5590784 197.66303999999997,311.2221184 198.81431999999998,310.3797184 199.90943999999996C308.7791584 202.07159999999996,306.1677184 203.25095999999996,303.8932384 203.25095999999996C302.1241984 203.25095999999996,300.6078784 202.54895999999997,299.87779839999996 201.11687999999998C299.6531584 200.55527999999998,299.5408384 200.02175999999997,299.5408384 199.43207999999998C299.5408384 196.37135999999998,302.9665984 192.97367999999997,306.8977984 192.77711999999997">
</path>
</g>
</g>
<g class="vf-modifiers">
<g class="vf-stavenote" id="vf-auto32702">
<g class="vf-note" pointer-events="bounding-box">
<g class="vf-stem" pointer-events="bounding-box">
<path stroke-width="1.5" fill="none" stroke="#000000" stroke-dasharray="none" d="M280.85880000000003 197.99999999999997L280.85880000000003 174.89999999999998">
</path>
</g>
<g class="vf-notehead" pointer-events="bounding-box">
<path stroke-width="0.3" fill="#000000" stroke="none" stroke-dasharray="none" d="M273.6767616 197.99999999999997M278.53235520000004 194.55289919999998C278.6064864 194.55289919999998,278.7176832 194.55289919999998,278.736216 194.55289919999998C278.736216 194.55289919999998,278.7547488 194.55289919999998,278.7547488 194.55289919999998C278.7547488 194.55289919999998,278.86594560000003 194.55289919999998,278.95860960000005 194.55289919999998C280.6265616 194.64556319999997,281.60880000000003 195.73899839999996,281.60880000000003 197.11042559999999C281.60880000000003 197.77760639999997,281.3864064 198.53745119999996,280.83042240000003 199.26023039999998C279.77405280000005 200.68725599999996,278.0505024 201.46563359999996,276.54934560000004 201.46563359999996C275.38177920000004 201.46563359999996,274.381008 201.00231359999998,273.8991552 200.05714079999998C273.75089280000003 199.68648479999996,273.6767616 199.33436159999997,273.6767616 198.94517279999997C273.6767616 196.92509759999996,275.9377632 194.68262879999997,278.53235520000004 194.55289919999998">
</path>
</g>
<g class="vf-flag" pointer-events="bounding-box">
<path stroke-width="0.3" fill="#000000" stroke="none" stroke-dasharray="none" d="M280.85880000000003 172.89999999999998M280.4140128 175.88378079999998L280.4140128 172.992664L280.48814400000003 172.992664C280.6920048 172.992664,280.8217344 173.12239359999998,280.85880000000003 173.34478719999998C281.24798880000003 175.19806719999997,282.41555520000003 177.21814239999998,284.02790880000003 178.73783199999997C285.8255904 180.42431679999999,286.7336976 182.74091679999998,286.7336976 185.13164799999998C286.7336976 187.39264959999997,285.9367872 189.74631519999997,284.3244336 191.69225919999997C284.04644160000004 192.06291519999996,284.02790880000003 192.06291519999996,283.8425808 192.06291519999996C283.62018720000003 192.06291519999996,283.4719248 191.89611999999997,283.4719248 191.67372639999996C283.4719248 191.50693119999997,283.4904576 191.4698656,283.67578560000004 191.2660048C285.0842784 189.56098719999997,285.7885248 187.5038464,285.7885248 185.5393696C285.7885248 183.7972864,285.23254080000004 182.12933439999998,284.08350720000004 180.86910399999996C283.37926080000005 180.09072639999997,282.08196480000004 179.34941439999997,280.4325456 178.77489759999997C280.4325456 178.75636479999997,280.4140128 178.18184799999997,280.4140128 175.88378079999998">
</path>
</g>
</g>
<g class="vf-modifiers">
</g>
</g>
<path stroke-width="1" fill="none" stroke="#000000" stroke-dasharray="none" d="M274.6767616 189.74999999999997L287.6767616 180.74999999999997Z">
</path>
</g>
</g>
<g class="vf-stavenote" id="vf-auto32716">
<g class="vf-note" pointer-events="bounding-box">
<g class="vf-notehead" pointer-events="bounding-box">
<path stroke-width="0.3" fill="#000000" stroke="none" stroke-dasharray="none" d="M331.12440960000004 197.99999999999997M338.48136960000005 192.77711999999997C338.59368960000006 192.77711999999997,338.76216960000005 192.77711999999997,338.79024960000004 192.77711999999997C338.79024960000004 192.77711999999997,338.8183296 192.77711999999997,338.8183296 192.77711999999997C338.8183296 192.77711999999997,338.9868096 192.77711999999997,339.1272096 192.77711999999997C341.6544096 192.91751999999997,343.1426496 194.57423999999997,343.1426496 196.65215999999998C343.1426496 197.66303999999997,342.80568960000005 198.81431999999998,341.96328960000005 199.90943999999996C340.3627296 202.07159999999996,337.75128960000006 203.25095999999996,335.4768096 203.25095999999996C333.70776960000006 203.25095999999996,332.19144960000006 202.54895999999997,331.4613696 201.11687999999998C331.23672960000005 200.55527999999998,331.12440960000004 200.02175999999997,331.12440960000004 199.43207999999998C331.12440960000004 196.37135999999998,334.55016960000006 192.97367999999997,338.48136960000005 192.77711999999997">
</path>
</g>
</g>
<g class="vf-modifiers">
</g>
</g>
<g class="vf-stavenote" id="vf-auto32726">
<g class="vf-note" pointer-events="bounding-box">
<g class="vf-notehead" pointer-events="bounding-box">
<path stroke-width="0.3" fill="#000000" stroke="none" stroke-dasharray="none" d="M362.7079808 197.99999999999997M370.0649408 192.77711999999997C370.1772608 192.77711999999997,370.3457408 192.77711999999997,370.3738208 192.77711999999997C370.3738208 192.77711999999997,370.40190079999996 192.77711999999997,370.40190079999996 192.77711999999997C370.40190079999996 192.77711999999997,370.57038079999995 192.77711999999997,370.71078079999995 192.77711999999997C373.23798079999995 192.91751999999997,374.72622079999996 194.57423999999997,374.72622079999996 196.65215999999998C374.72622079999996 197.66303999999997,374.3892608 198.81431999999998,373.5468608 199.90943999999996C371.94630079999996 202.07159999999996,369.3348608 203.25095999999996,367.06038079999996 203.25095999999996C365.2913408 203.25095999999996,363.7750208 202.54895999999997,363.04494079999995 201.11687999999998C362.8203008 200.55527999999998,362.7079808 200.02175999999997,362.7079808 199.43207999999998C362.7079808 196.37135999999998,366.1337408 192.97367999999997,370.0649408 192.77711999999997">
</path>
</g>
</g>
<g class="vf-modifiers">
</g>
</g>
<g class="vf-stavenote" id="vf-auto32736">
<g class="vf-note" pointer-events="bounding-box">
<g class="vf-notehead" pointer-events="bounding-box">
<path stroke-width="0.3" fill="#000000" stroke="none" stroke-dasharray="none" d="M394.291552 197.99999999999997M401.64851200000004 192.77711999999997C401.76083200000005 192.77711999999997,401.92931200000004 192.77711999999997,401.957392 192.77711999999997C401.957392 192.77711999999997,401.985472 192.77711999999997,401.985472 192.77711999999997C401.985472 192.77711999999997,402.153952 192.77711999999997,402.294352 192.77711999999997C404.821552 192.91751999999997,406.309792 194.57423999999997,406.309792 196.65215999999998C406.309792 197.66303999999997,405.97283200000004 198.81431999999998,405.13043200000004 199.90943999999996C403.529872 202.07159999999996,400.91843200000005 203.25095999999996,398.643952 203.25095999999996C396.87491200000005 203.25095999999996,395.35859200000004 202.54895999999997,394.628512 201.11687999999998C394.40387200000004 200.55527999999998,394.291552 200.02175999999997,394.291552 199.43207999999998C394.291552 196.37135999999998,397.71731200000005 192.97367999999997,401.64851200000004 192.77711999999997">
</path>
</g>
</g>
<g class="vf-modifiers">
</g>
</g>
<g class="vf-stavenote" id="vf-auto32746">
<g class="vf-note" pointer-events="bounding-box">
<g class="vf-notehead" pointer-events="bounding-box">
<path stroke-width="0.3" fill="#000000" stroke="none" stroke-dasharray="none" d="M451.7392 197.99999999999997M459.09616 192.77711999999997C459.20848 192.77711999999997,459.37696 192.77711999999997,459.40504 192.77711999999997C459.40504 192.77711999999997,459.43312 192.77711999999997,459.43312 192.77711999999997C459.43312 192.77711999999997,459.60159999999996 192.77711999999997,459.74199999999996 192.77711999999997C462.26919999999996 192.91751999999997,463.75744 194.57423999999997,463.75744 196.65215999999998C463.75744 197.66303999999997,463.42048 198.81431999999998,462.57808 199.90943999999996C460.97751999999997 202.07159999999996,458.36608 203.25095999999996,456.09159999999997 203.25095999999996C454.32256 203.25095999999996,452.80624 202.54895999999997,452.07615999999996 201.11687999999998C451.85152 200.55527999999998,451.7392 200.02175999999997,451.7392 199.43207999999998C451.7392 196.37135999999998,455.16496 192.97367999999997,459.09616 192.77711999999997">
</path>
</g>
</g>
<g class="vf-modifiers">
<g class="vf-stavenote" id="vf-auto32756">
<g class="vf-note" pointer-events="bounding-box">
<g class="vf-stem" pointer-events="bounding-box">
<path stroke-width="1.5" fill="none" stroke="#000000" stroke-dasharray="none" d="M433.0571616 197.99999999999997L433.0571616 174.89999999999998">
</path>
</g>
<g class="vf-notehead" pointer-events="bounding-box">
<path stroke-width="0.3" fill="#000000" stroke="none" stroke-dasharray="none" d="M425.87512319999996 197.99999999999997M430.7307168 194.55289919999998C430.80484799999994 194.55289919999998,430.91604479999995 194.55289919999998,430.93457759999995 194.55289919999998C430.93457759999995 194.55289919999998,430.95311039999996 194.55289919999998,430.95311039999996 194.55289919999998C430.95311039999996 194.55289919999998,431.0643072 194.55289919999998,431.1569712 194.55289919999998C432.82492319999994 194.64556319999997,433.8071616 195.73899839999996,433.8071616 197.11042559999999C433.8071616 197.77760639999997,433.58476799999994 198.53745119999996,433.028784 199.26023039999998C431.97241439999993 200.68725599999996,430.24886399999997 201.46563359999996,428.7477072 201.46563359999996C427.5801408 201.46563359999996,426.57936959999995 201.00231359999998,426.09751679999994 200.05714079999998C425.9492544 199.68648479999996,425.87512319999996 199.33436159999997,425.87512319999996 198.94517279999997C425.87512319999996 196.92509759999996,428.13612479999995 194.68262879999997,430.7307168 194.55289919999998">
</path>
</g>
<g class="vf-flag" pointer-events="bounding-box">
<path stroke-width="0.3" fill="#000000" stroke="none" stroke-dasharray="none" d="M433.0571616 172.89999999999998M432.61237439999996 175.88378079999998L432.61237439999996 172.992664L432.6865056 172.992664C432.89036639999995 172.992664,433.02009599999997 173.12239359999998,433.0571616 173.34478719999998C433.4463504 175.19806719999997,434.61391679999997 177.21814239999998,436.2262704 178.73783199999997C438.02395199999995 180.42431679999999,438.93205919999997 182.74091679999998,438.93205919999997 185.13164799999998C438.93205919999997 187.39264959999997,438.13514879999997 189.74631519999997,436.52279519999996 191.69225919999997C436.2448032 192.06291519999996,436.2262704 192.06291519999996,436.04094239999995 192.06291519999996C435.8185488 192.06291519999996,435.67028639999995 191.89611999999997,435.67028639999995 191.67372639999996C435.67028639999995 191.50693119999997,435.68881919999995 191.4698656,435.8741472 191.2660048C437.28263999999996 189.56098719999997,437.98688639999995 187.5038464,437.98688639999995 185.5393696C437.98688639999995 183.7972864,437.4309024 182.12933439999998,436.2818688 180.86910399999996C435.5776224 180.09072639999997,434.2803264 179.34941439999997,432.63090719999997 178.77489759999997C432.63090719999997 178.75636479999997,432.61237439999996 178.18184799999997,432.61237439999996 175.88378079999998">
</path>
</g>
</g>
<g class="vf-modifiers">
</g>
</g>
<path stroke-width="1" fill="none" stroke="#000000" stroke-dasharray="none" d="M426.87512319999996 189.74999999999997L439.87512319999996 180.74999999999997Z">
</path>
</g>
</g>
<g class="vf-stavenote" id="vf-auto32770">
<g class="vf-note" pointer-events="bounding-box">
<g class="vf-notehead" pointer-events="bounding-box">
<path stroke-width="0.3" fill="#000000" stroke="none" stroke-dasharray="none" d="M483.3227711999999 197.99999999999997M490.67973119999994 192.77711999999997C490.79205119999995 192.77711999999997,490.96053119999993 192.77711999999997,490.9886111999999 192.77711999999997C490.9886111999999 192.77711999999997,491.0166911999999 192.77711999999997,491.0166911999999 192.77711999999997C491.0166911999999 192.77711999999997,491.1851711999999 192.77711999999997,491.3255711999999 192.77711999999997C493.8527711999999 192.91751999999997,495.3410111999999 194.57423999999997,495.3410111999999 196.65215999999998C495.3410111999999 197.66303999999997,495.00405119999994 198.81431999999998,494.16165119999994 199.90943999999996C492.5610911999999 202.07159999999996,489.94965119999995 203.25095999999996,487.6751711999999 203.25095999999996C485.90613119999995 203.25095999999996,484.38981119999994 202.54895999999997,483.6597311999999 201.11687999999998C483.43509119999993 200.55527999999998,483.3227711999999 200.02175999999997,483.3227711999999 199.43207999999998C483.3227711999999 196.37135999999998,486.74853119999995 192.97367999999997,490.67973119999994 192.77711999999997">
</path>
</g>
</g>
<g class="vf-modifiers">
</g>
</g>
<g class="vf-stavenote" id="vf-auto32780">
<g class="vf-note" pointer-events="bounding-box">
<g class="vf-notehead" pointer-events="bounding-box">
<path stroke-width="0.3" fill="#000000" stroke="none" stroke-dasharray="none" d="M540.7704192 197.99999999999997M548.1273792 192.77711999999997C548.2396992 192.77711999999997,548.4081792 192.77711999999997,548.4362592 192.77711999999997C548.4362592 192.77711999999997,548.4643392 192.77711999999997,548.4643392 192.77711999999997C548.4643392 192.77711999999997,548.6328192 192.77711999999997,548.7732192 192.77711999999997C551.3004192 192.91751999999997,552.7886592 194.57423999999997,552.7886592 196.65215999999998C552.7886592 197.66303999999997,552.4516992 198.81431999999998,551.6092992 199.90943999999996C550.0087392 202.07159999999996,547.3972992 203.25095999999996,545.1228192 203.25095999999996C543.3537792 203.25095999999996,541.8374592 202.54895999999997,541.1073792 201.11687999999998C540.8827392 200.55527999999998,540.7704192 200.02175999999997,540.7704192 199.43207999999998C540.7704192 196.37135999999998,544.1961792 192.97367999999997,548.1273792 192.77711999999997">
</path>
</g>
</g>
<g class="vf-modifiers">
<g class="vf-stavenote" id="vf-auto32790">
<g class="vf-note" pointer-events="bounding-box">
<g class="vf-stem" pointer-events="bounding-box">
<path stroke-width="1.5" fill="none" stroke="#000000" stroke-dasharray="none" d="M522.0883808 197.99999999999997L522.0883808 174.89999999999998">
</path>
</g>
<g class="vf-notehead" pointer-events="bounding-box">
<path stroke-width="0.3" fill="#000000" stroke="none" stroke-dasharray="none" d="M514.9063424 197.99999999999997M519.761936 194.55289919999998C519.8360672 194.55289919999998,519.947264 194.55289919999998,519.9657968 194.55289919999998C519.9657968 194.55289919999998,519.9843296 194.55289919999998,519.9843296 194.55289919999998C519.9843296 194.55289919999998,520.0955263999999 194.55289919999998,520.1881903999999 194.55289919999998C521.8561424 194.64556319999997,522.8383808 195.73899839999996,522.8383808 197.11042559999999C522.8383808 197.77760639999997,522.6159872 198.53745119999996,522.0600032 199.26023039999998C521.0036336 200.68725599999996,519.2800831999999 201.46563359999996,517.7789263999999 201.46563359999996C516.61136 201.46563359999996,515.6105888 201.00231359999998,515.128736 200.05714079999998C514.9804736 199.68648479999996,514.9063424 199.33436159999997,514.9063424 198.94517279999997C514.9063424 196.92509759999996,517.167344 194.68262879999997,519.761936 194.55289919999998">
</path>
</g>
<g class="vf-flag" pointer-events="bounding-box">
<path stroke-width="0.3" fill="#000000" stroke="none" stroke-dasharray="none" d="M522.0883808 172.89999999999998M521.6435936 175.88378079999998L521.6435936 172.992664L521.7177247999999 172.992664C521.9215856 172.992664,522.0513152 173.12239359999998,522.0883808 173.34478719999998C522.4775696 175.19806719999997,523.645136 177.21814239999998,525.2574896 178.73783199999997C527.0551712 180.42431679999999,527.9632784 182.74091679999998,527.9632784 185.13164799999998C527.9632784 187.39264959999997,527.166368 189.74631519999997,525.5540144 191.69225919999997C525.2760224 192.06291519999996,525.2574896 192.06291519999996,525.0721616 192.06291519999996C524.8497679999999 192.06291519999996,524.7015056 191.89611999999997,524.7015056 191.67372639999996C524.7015056 191.50693119999997,524.7200384 191.4698656,524.9053663999999 191.2660048C526.3138592 189.56098719999997,527.0181056 187.5038464,527.0181056 185.5393696C527.0181056 183.7972864,526.4621215999999 182.12933439999998,525.313088 180.86910399999996C524.6088416 180.09072639999997,523.3115455999999 179.34941439999997,521.6621264 178.77489759999997C521.6621264 178.75636479999997,521.6435936 178.18184799999997,521.6435936 175.88378079999998">
</path>
</g>
</g>
<g class="vf-modifiers">
</g>
</g>
<path stroke-width="1" fill="none" stroke="#000000" stroke-dasharray="none" d="M515.9063424 189.74999999999997L528.9063424 180.74999999999997Z">
</path>
</g>
</g>
<g class="vf-stavenote" id="vf-auto32804">
<g class="vf-note" pointer-events="bounding-box">
<g class="vf-notehead" pointer-events="bounding-box">
<path stroke-width="0.3" fill="#000000" stroke="none" stroke-dasharray="none" d="M572.3539903999999 197.99999999999997M579.7109503999999 192.77711999999997C579.8232704 192.77711999999997,579.9917503999999 192.77711999999997,580.0198303999999 192.77711999999997C580.0198303999999 192.77711999999997,580.0479104 192.77711999999997,580.0479104 192.77711999999997C580.0479104 192.77711999999997,580.2163903999999 192.77711999999997,580.3567903999999 192.77711999999997C582.8839903999999 192.91751999999997,584.3722303999999 194.57423999999997,584.3722303999999 196.65215999999998C584.3722303999999 197.66303999999997,584.0352704 198.81431999999998,583.1928704 199.90943999999996C581.5923104 202.07159999999996,578.9808704 203.25095999999996,576.7063903999999 203.25095999999996C574.9373503999999 203.25095999999996,573.4210304 202.54895999999997,572.6909503999999 201.11687999999998C572.4663103999999 200.55527999999998,572.3539903999999 200.02175999999997,572.3539903999999 199.43207999999998C572.3539903999999 196.37135999999998,575.7797503999999 192.97367999999997,579.7109503999999 192.77711999999997">
</path>
</g>
</g>
<g class="vf-modifiers">
</g>
</g>
<g class="vf-stavenote" id="vf-auto32814">
<g class="vf-note" pointer-events="bounding-box">
<g class="vf-notehead" pointer-events="bounding-box">
<path stroke-width="0.3" fill="#000000" stroke="none" stroke-dasharray="none" d="M629.8016384 197.99999999999997M637.1585984 192.77711999999997C637.2709184 192.77711999999997,637.4393984 192.77711999999997,637.4674784 192.77711999999997C637.4674784 192.77711999999997,637.4955584 192.77711999999997,637.4955584 192.77711999999997C637.4955584 192.77711999999997,637.6640384 192.77711999999997,637.8044384 192.77711999999997C640.3316384 192.91751999999997,641.8198784 194.57423999999997,641.8198784 196.65215999999998C641.8198784 197.66303999999997,641.4829184 198.81431999999998,640.6405184 199.90943999999996C639.0399584 202.07159999999996,636.4285184 203.25095999999996,634.1540384 203.25095999999996C632.3849984 203.25095999999996,630.8686784 202.54895999999997,630.1385984 201.11687999999998C629.9139584 200.55527999999998,629.8016384 200.02175999999997,629.8016384 199.43207999999998C629.8016384 196.37135999999998,633.2273984 192.97367999999997,637.1585984 192.77711999999997">
</path>
</g>
</g>
<g class="vf-modifiers">
<g class="vf-stavenote" id="vf-auto32824">
<g class="vf-note" pointer-events="bounding-box">
<g class="vf-stem" pointer-events="bounding-box">
<path stroke-width="1.5" fill="none" stroke="#000000" stroke-dasharray="none" d="M611.1196 197.99999999999997L611.1196 174.89999999999998">
</path>
</g>
<g class="vf-notehead" pointer-events="bounding-box">
<path stroke-width="0.3" fill="#000000" stroke="none" stroke-dasharray="none" d="M603.9375616 197.99999999999997M608.7931552 194.55289919999998C608.8672864 194.55289919999998,608.9784832 194.55289919999998,608.997016 194.55289919999998C608.997016 194.55289919999998,609.0155488 194.55289919999998,609.0155488 194.55289919999998C609.0155488 194.55289919999998,609.1267455999999 194.55289919999998,609.2194096 194.55289919999998C610.8873616 194.64556319999997,611.8696 195.73899839999996,611.8696 197.11042559999999C611.8696 197.77760639999997,611.6472064 198.53745119999996,611.0912224 199.26023039999998C610.0348528 200.68725599999996,608.3113023999999 201.46563359999996,606.8101455999999 201.46563359999996C605.6425792 201.46563359999996,604.641808 201.00231359999998,604.1599552 200.05714079999998C604.0116928 199.68648479999996,603.9375616 199.33436159999997,603.9375616 198.94517279999997C603.9375616 196.92509759999996,606.1985632 194.68262879999997,608.7931552 194.55289919999998">
</path>
</g>
<g class="vf-flag" pointer-events="bounding-box">
<path stroke-width="0.3" fill="#000000" stroke="none" stroke-dasharray="none" d="M611.1196 172.89999999999998M610.6748128 175.88378079999998L610.6748128 172.992664L610.7489439999999 172.992664C610.9528048 172.992664,611.0825344 173.12239359999998,611.1196 173.34478719999998C611.5087888 175.19806719999997,612.6763552 177.21814239999998,614.2887088 178.73783199999997C616.0863904 180.42431679999999,616.9944976 182.74091679999998,616.9944976 185.13164799999998C616.9944976 187.39264959999997,616.1975872 189.74631519999997,614.5852336 191.69225919999997C614.3072416 192.06291519999996,614.2887088 192.06291519999996,614.1033808 192.06291519999996C613.8809871999999 192.06291519999996,613.7327248 191.89611999999997,613.7327248 191.67372639999996C613.7327248 191.50693119999997,613.7512576 191.4698656,613.9365856 191.2660048C615.3450784 189.56098719999997,616.0493248 187.5038464,616.0493248 185.5393696C616.0493248 183.7972864,615.4933407999999 182.12933439999998,614.3443072 180.86910399999996C613.6400608 180.09072639999997,612.3427647999999 179.34941439999997,610.6933456 178.77489759999997C610.6933456 178.75636479999997,610.6748128 178.18184799999997,610.6748128 175.88378079999998">
</path>
</g>
</g>
<g class="vf-modifiers">
</g>
</g>
<path stroke-width="1" fill="none" stroke="#000000" stroke-dasharray="none" d="M604.9375616 189.74999999999997L617.9375616 180.74999999999997Z">
</path>
</g>
</g>
<g class="vf-stavenote" id="vf-auto32838">
<g class="vf-note" pointer-events="bounding-box">
<g class="vf-notehead" pointer-events="bounding-box">
<path stroke-width="0.3" fill="#000000" stroke="none" stroke-dasharray="none" d="M661.3852095999999 197.99999999999997M668.7421695999999 192.77711999999997C668.8544896 192.77711999999997,669.0229695999999 192.77711999999997,669.0510495999999 192.77711999999997C669.0510495999999 192.77711999999997,669.0791296 192.77711999999997,669.0791296 192.77711999999997C669.0791296 192.77711999999997,669.2476095999999 192.77711999999997,669.3880095999999 192.77711999999997C671.9152095999999 192.91751999999997,673.4034495999999 194.57423999999997,673.4034495999999 196.65215999999998C673.4034495999999 197.66303999999997,673.0664896 198.81431999999998,672.2240896 199.90943999999996C670.6235296 202.07159999999996,668.0120896 203.25095999999996,665.7376095999999 203.25095999999996C663.9685695999999 203.25095999999996,662.4522496 202.54895999999997,661.7221695999999 201.11687999999998C661.4975295999999 200.55527999999998,661.3852095999999 200.02175999999997,661.3852095999999 199.43207999999998C661.3852095999999 196.37135999999998,664.8109695999999 192.97367999999997,668.7421695999999 192.77711999999997">
</path>
</g>
</g>
<g class="vf-modifiers">
</g>
</g>
<g class="vf-stavenote" id="vf-auto32848">
<g class="vf-note" pointer-events="bounding-box">
<g class="vf-notehead" pointer-events="bounding-box">
<path stroke-width="0.3" fill="#000000" stroke="none" stroke-dasharray="none" d="M718.8328576 197.99999999999997M726.1898176 192.77711999999997C726.3021376 192.77711999999997,726.4706176 192.77711999999997,726.4986976 192.77711999999997C726.4986976 192.77711999999997,726.5267776000001 192.77711999999997,726.5267776000001 192.77711999999997C726.5267776000001 192.77711999999997,726.6952576 192.77711999999997,726.8356576 192.77711999999997C729.3628576 192.91751999999997,730.8510976 194.57423999999997,730.8510976 196.65215999999998C730.8510976 197.66303999999997,730.5141376 198.81431999999998,729.6717376 199.90943999999996C728.0711776 202.07159999999996,725.4597376 203.25095999999996,723.1852576 203.25095999999996C721.4162176 203.25095999999996,719.8998976 202.54895999999997,719.1698176 201.11687999999998C718.9451776 200.55527999999998,718.8328576 200.02175999999997,718.8328576 199.43207999999998C718.8328576 196.37135999999998,722.2586176 192.97367999999997,726.1898176 192.77711999999997">
</path>
</g>
</g>
<g class="vf-modifiers">
<g class="vf-stavenote" id="vf-auto32858">
<g class="vf-note" pointer-events="bounding-box">
<g class="vf-stem" pointer-events="bounding-box">
<path stroke-width="1.5" fill="none" stroke="#000000" stroke-dasharray="none" d="M700.1508192 197.99999999999997L700.1508192 174.89999999999998">
</path>
</g>
<g class="vf-notehead" pointer-events="bounding-box">
<path stroke-width="0.3" fill="#000000" stroke="none" stroke-dasharray="none" d="M692.9687808 197.99999999999997M697.8243744 194.55289919999998C697.8985056 194.55289919999998,698.0097024 194.55289919999998,698.0282352 194.55289919999998C698.0282352 194.55289919999998,698.046768 194.55289919999998,698.046768 194.55289919999998C698.046768 194.55289919999998,698.1579648 194.55289919999998,698.2506288 194.55289919999998C699.9185808 194.64556319999997,700.9008192 195.73899839999996,700.9008192 197.11042559999999C700.9008192 197.77760639999997,700.6784256 198.53745119999996,700.1224416 199.26023039999998C699.066072 200.68725599999996,697.3425215999999 201.46563359999996,695.8413648 201.46563359999996C694.6737984 201.46563359999996,693.6730272 201.00231359999998,693.1911744 200.05714079999998C693.042912 199.68648479999996,692.9687808 199.33436159999997,692.9687808 198.94517279999997C692.9687808 196.92509759999996,695.2297824 194.68262879999997,697.8243744 194.55289919999998">
</path>
</g>
<g class="vf-flag" pointer-events="bounding-box">
<path stroke-width="0.3" fill="#000000" stroke="none" stroke-dasharray="none" d="M700.1508192 172.89999999999998M699.706032 175.88378079999998L699.706032 172.992664L699.7801632 172.992664C699.984024 172.992664,700.1137536 173.12239359999998,700.1508192 173.34478719999998C700.5400080000001 175.19806719999997,701.7075744 177.21814239999998,703.319928 178.73783199999997C705.1176096 180.42431679999999,706.0257168 182.74091679999998,706.0257168 185.13164799999998C706.0257168 187.39264959999997,705.2288064 189.74631519999997,703.6164528 191.69225919999997C703.3384608 192.06291519999996,703.319928 192.06291519999996,703.1346 192.06291519999996C702.9122064 192.06291519999996,702.763944 191.89611999999997,702.763944 191.67372639999996C702.763944 191.50693119999997,702.7824768 191.4698656,702.9678048 191.2660048C704.3762976 189.56098719999997,705.080544 187.5038464,705.080544 185.5393696C705.080544 183.7972864,704.52456 182.12933439999998,703.3755264 180.86910399999996C702.67128 180.09072639999997,701.373984 179.34941439999997,699.7245648 178.77489759999997C699.7245648 178.75636479999997,699.706032 178.18184799999997,699.706032 175.88378079999998">
</path>
</g>
</g>
<g class="vf-modifiers">
</g>
</g>
<path stroke-width="1" fill="none" stroke="#000000" stroke-dasharray="none" d="M693.9687808 189.74999999999997L706.9687808 180.74999999999997Z">
</path>
</g>
</g>
<g class="vf-stavenote" id="vf-auto32872">
<g class="vf-note" pointer-events="bounding-box">
<g class="vf-notehead" pointer-events="bounding-box">
<path stroke-width="0.3" fill="#000000" stroke="none" stroke-dasharray="none" d="M750.4164288 197.99999999999997M757.7733887999999 192.77711999999997C757.8857088 192.77711999999997,758.0541887999999 192.77711999999997,758.0822688 192.77711999999997C758.0822688 192.77711999999997,758.1103488 192.77711999999997,758.1103488 192.77711999999997C758.1103488 192.77711999999997,758.2788287999999 192.77711999999997,758.4192287999999 192.77711999999997C760.9464287999999 192.91751999999997,762.4346687999999 194.57423999999997,762.4346687999999 196.65215999999998C762.4346687999999 197.66303999999997,762.0977088 198.81431999999998,761.2553088 199.90943999999996C759.6547488 202.07159999999996,757.0433088 203.25095999999996,754.7688287999999 203.25095999999996C752.9997887999999 203.25095999999996,751.4834688 202.54895999999997,750.7533887999999 201.11687999999998C750.5287487999999 200.55527999999998,750.4164288 200.02175999999997,750.4164288 199.43207999999998C750.4164288 196.37135999999998,753.8421887999999 192.97367999999997,757.7733887999999 192.77711999999997">
</path>
</g>
</g>
<g class="vf-modifiers">
</g>
</g>
<path stroke-width="1.5" fill="none" stroke="#000000" stroke-dasharray="none" d="M158.61071679999998 197.99999999999997L158.61071679999998 163.74999999999997">
</path>
<path stroke-width="1.5" fill="none" stroke="#000000" stroke-dasharray="none" d="M190.19428799999997 197.99999999999997L190.19428799999997 163.74999999999997">
</path>
<path stroke-width="1.5" fill="none" stroke="#000000" stroke-dasharray="none" d="M221.7778592 197.99999999999997L221.7778592 163.74999999999997">
</path>
<path stroke-width="1.5" fill="none" stroke="#000000" stroke-dasharray="none" d="M253.36143040000002 197.99999999999997L253.36143040000002 163.74999999999997">
</path>
<path stroke-width="0.3" fill="#000000" stroke="none" stroke-dasharray="none" d="M157.86071679999998 162.99999999999997L157.86071679999998 167.99999999999997L253.61143040000002 167.99999999999997L253.61143040000002 162.99999999999997Z">
</path>
<path stroke-width="0.3" fill="#000000" stroke="none" stroke-dasharray="none" d="M157.86071679999998 170.49999999999997L157.86071679999998 175.49999999999997L253.61143040000002 175.49999999999997L253.61143040000002 170.49999999999997Z">
</path>
<path stroke-width="1.5" fill="none" stroke="#000000" stroke-dasharray="none" d="M310.8090784 197.99999999999997L310.8090784 163.74999999999997">
</path>
<path stroke-width="1.5" fill="none" stroke="#000000" stroke-dasharray="none" d="M342.3926496 197.99999999999997L342.3926496 163.74999999999997">
</path>
<path stroke-width="1.5" fill="none" stroke="#000000" stroke-dasharray="none" d="M373.97622079999996 197.99999999999997L373.97622079999996 163.74999999999997">
</path>
<path stroke-width="1.5" fill="none" stroke="#000000" stroke-dasharray="none" d="M405.559792 197.99999999999997L405.559792 163.74999999999997">
</path>
<path stroke-width="0.3" fill="#000000" stroke="none" stroke-dasharray="none" d="M310.0590784 162.99999999999997L310.0590784 167.99999999999997L405.809792 167.99999999999997L405.809792 162.99999999999997Z">
</path>
<path stroke-width="0.3" fill="#000000" stroke="none" stroke-dasharray="none" d="M310.0590784 170.49999999999997L310.0590784 175.49999999999997L405.809792 175.49999999999997L405.809792 170.49999999999997Z">
</path>
<path stroke-width="1.5" fill="none" stroke="#000000" stroke-dasharray="none" d="M463.00744 197.99999999999997L463.00744 163.74999999999997">
</path>
<path stroke-width="1.5" fill="none" stroke="#000000" stroke-dasharray="none" d="M494.5910111999999 197.99999999999997L494.5910111999999 163.74999999999997">
</path>
<path stroke-width="1.5" fill="none" stroke="#000000" stroke-dasharray="none" d="M552.0386592 197.99999999999997L552.0386592 163.74999999999997">
</path>
<path stroke-width="1.5" fill="none" stroke="#000000" stroke-dasharray="none" d="M583.6222303999999 197.99999999999997L583.6222303999999 163.74999999999997">
</path>
<path stroke-width="0.3" fill="#000000" stroke="none" stroke-dasharray="none" d="M462.25744 162.99999999999997L462.25744 167.99999999999997L583.8722303999999 167.99999999999997L583.8722303999999 162.99999999999997Z">
</path>
<path stroke-width="0.3" fill="#000000" stroke="none" stroke-dasharray="none" d="M462.25744 170.49999999999997L462.25744 175.49999999999997L583.8722303999999 175.49999999999997L583.8722303999999 170.49999999999997Z">
</path>
<path stroke-width="1.5" fill="none" stroke="#000000" stroke-dasharray="none" d="M641.0698784 197.99999999999997L641.0698784 163.74999999999997">
</path>
<path stroke-width="1.5" fill="none" stroke="#000000" stroke-dasharray="none" d="M672.6534495999999 197.99999999999997L672.6534495999999 163.74999999999997">
</path>
<path stroke-width="1.5" fill="none" stroke="#000000" stroke-dasharray="none" d="M730.1010976 197.99999999999997L730.1010976 163.74999999999997">
</path>
<path stroke-width="1.5" fill="none" stroke="#000000" stroke-dasharray="none" d="M761.6846687999999 197.99999999999997L761.6846687999999 163.74999999999997">
</path>
<path stroke-width="0.3" fill="#000000" stroke="none" stroke-dasharray="none" d="M640.3198784 162.99999999999997L640.3198784 167.99999999999997L761.9346687999999 167.99999999999997L761.9346687999999 162.99999999999997Z">
</path>
<path stroke-width="0.3" fill="#000000" stroke="none" stroke-dasharray="none" d="M640.3198784 170.49999999999997L640.3198784 175.49999999999997L761.9346687999999 175.49999999999997L761.9346687999999 170.49999999999997Z">
</path>
<path stroke-width="1" fill="none" stroke="black" stroke-dasharray="none" d="M780.915197952 197.99999999999997L1106.3003343359999 197.99999999999997">
</path>
<rect stroke-width="0.3" fill="black" stroke="black" stroke-dasharray="none" x="1101.3003343359999" y="177.49999999999997" width="1" height="41">
</rect>
<rect stroke-width="0.3" fill="black" stroke="black" stroke-dasharray="none" x="1104.3003343359999" y="177.49999999999997" width="3" height="41">
</rect>
<path stroke-width="0.3" fill="black" stroke="none" stroke-dasharray="none" d="M1100.3003343359999 193.49999999999997 A2 2 0 0 0 1096.3003343359999 193.49999999999997M1096.3003343359999 193.49999999999997 A2 2 0 0 0 1100.3003343359999 193.49999999999997">
</path>
<path stroke-width="0.3" fill="black" stroke="none" stroke-dasharray="none" d="M1100.3003343359999 203.49999999999997 A2 2 0 0 0 1096.3003343359999 203.49999999999997M1096.3003343359999 203.49999999999997 A2 2 0 0 0 1100.3003343359999 203.49999999999997">
</path>
<path stroke-width="0.3" fill="black" stroke="none" stroke-dasharray="none" d="M786.044797952 197.99999999999997M791.7183979519999 179.33759999999998C791.833597952 179.33759999999998,792.035197952 179.33759999999998,792.265597952 179.33759999999998C792.726397952 179.33759999999998,793.3311979519999 179.33759999999998,793.4751979519999 179.39519999999996C795.635197952 179.65439999999998,797.363197952 180.74879999999996,798.1119979519999 182.27519999999998C798.371197952 182.79359999999997,798.486397952 183.34079999999997,798.486397952 183.91679999999997C798.486397952 185.32799999999997,797.7087979519999 186.94079999999997,796.2975979519999 188.15039999999996C795.3183979519999 188.98559999999998,794.339197952 189.50399999999996,792.812797952 189.99359999999996C790.825597952 190.62719999999996,789.1263979519999 191.75039999999998,788.031997952 193.10399999999998C788.031997952 193.10399999999998,788.031997952 193.13279999999997,788.031997952 193.13279999999997C788.031997952 193.13279999999997,788.031997952 193.13279999999997,788.031997952 193.13279999999997C788.031997952 193.13279999999997,788.118397952 193.10399999999998,788.175997952 193.01759999999996C789.2703979519999 192.12479999999996,790.7391979519999 191.60639999999998,792.0639979519999 191.60639999999998C793.158397952 191.60639999999998,793.935997952 191.80799999999996,794.972797952 192.38399999999996C795.606397952 192.70079999999996,796.182397952 192.84479999999996,796.729597952 192.84479999999996C796.959997952 192.84479999999996,797.1903979519999 192.84479999999996,797.449597952 192.78719999999998C797.8239979519999 192.70079999999996,798.227197952 192.41279999999998,798.371197952 192.18239999999997C798.4575979519999 191.98079999999996,798.6015979519999 191.89439999999996,798.774397952 191.89439999999996C799.004797952 191.89439999999996,799.2351979519999 192.06719999999999,799.2351979519999 192.32639999999998C799.2351979519999 192.52799999999996,798.975997952 193.24799999999996,798.7455979519999 193.7376C797.8239979519999 195.58079999999998,796.2111979519999 196.73279999999997,794.655997952 196.73279999999997C794.5407979519999 196.73279999999997,794.4543979519999 196.73279999999997,794.339197952 196.70399999999998C793.935997952 196.70399999999998,793.7631979519999 196.58879999999996,793.244797952 196.24319999999997C792.1503979519999 195.52319999999997,790.767997952 195.14879999999997,789.558397952 195.14879999999997C789.0399979519999 195.14879999999997,788.579197952 195.20639999999997,788.1471979519999 195.37919999999997C787.5711979519999 195.58079999999998,787.023997952 195.92639999999997,786.851197952 196.18559999999997C786.764797952 196.38719999999998,786.620797952 196.44479999999996,786.4479979519999 196.44479999999996C786.3039979519999 196.44479999999996,786.1599979519999 196.38719999999998,786.073597952 196.21439999999998L786.0159979519999 196.128L786.0159979519999 195.72479999999996C786.0159979519999 195.37919999999997,786.044797952 195.26399999999998,786.044797952 195.14879999999997C786.073597952 195.06239999999997,786.1023979519999 194.88959999999997,786.1023979519999 194.74559999999997C786.620797952 192.32639999999998,788.377597952 190.16639999999998,790.767997952 189.10079999999996C792.726397952 188.17919999999998,794.022397952 186.53759999999997,794.2527979519999 184.46399999999997C794.3103979519999 184.29119999999998,794.3103979519999 184.14719999999997,794.3103979519999 183.97439999999997C794.3103979519999 182.13119999999998,792.9279979519999 180.86399999999998,790.969597952 180.86399999999998C790.825597952 180.86399999999998,790.6527979519999 180.86399999999998,790.508797952 180.86399999999998C790.220797952 180.89279999999997,790.134397952 180.89279999999997,790.134397952 180.95039999999997C790.134397952 180.95039999999997,790.134397952 180.97919999999996,790.220797952 181.03679999999997C790.8831979519999 181.41119999999998,791.199997952 182.13119999999998,791.199997952 182.82239999999996C791.199997952 183.71519999999998,790.7391979519999 184.55039999999997,789.846397952 184.89599999999996C789.558397952 184.98239999999998,789.2703979519999 185.01119999999997,789.0399979519999 185.01119999999997C787.830397952 185.01119999999997,786.822397952 183.97439999999997,786.822397952 182.73599999999996C786.822397952 182.50559999999996,786.822397952 182.27519999999998,786.8799979519999 182.01599999999996C787.311997952 180.69119999999998,789.356797952 179.59679999999997,791.7183979519999 179.33759999999998M792.611197952 198.02879999999996L792.668797952 198.02879999999996L792.582397952 198.02879999999996L792.611197952 198.02879999999996M792.611197952 178.61759999999998L792.668797952 178.61759999999998L792.582397952 178.61759999999998L792.611197952 178.61759999999998">
</path>
<path stroke-width="0.3" fill="black" stroke="none" stroke-dasharray="none" d="M785.915197952 217.99999999999997M790.926397952 199.65439999999998C790.9551979519999 199.62559999999996,791.358397952 199.62559999999996,792.596797952 199.62559999999996C792.971197952 199.62559999999996,793.374397952 199.62559999999996,793.892797952 199.62559999999996L796.801597952 199.62559999999996L796.887997952 199.71199999999996C797.031997952 199.79839999999996,797.118397952 199.94239999999996,797.118397952 200.05759999999998C797.118397952 200.23039999999997,797.031997952 200.34559999999996,796.916797952 200.46079999999998C796.887997952 200.54719999999998,796.628797952 200.77759999999998,796.455997952 201.03679999999997L794.929597952 202.79359999999997L792.971197952 205.01119999999997L791.9343979519999 206.19199999999998L790.379197952 207.97759999999997L788.334397952 210.31039999999996C787.988797952 210.74239999999998,787.614397952 211.08799999999997,787.614397952 211.08799999999997C787.614397952 211.08799999999997,787.614397952 211.08799999999997,787.614397952 211.08799999999997C787.614397952 211.14559999999997,787.873597952 211.14559999999997,790.263997952 211.14559999999997L792.884797952 211.14559999999997L792.884797952 209.27359999999996C792.884797952 207.37279999999998,792.884797952 207.34399999999997,792.9135979519999 207.31519999999998C792.971197952 207.22879999999998,793.230397952 206.91199999999998,794.238397952 205.73119999999997L794.641597952 205.29919999999998L795.044797952 204.86719999999997L795.649597952 204.08959999999996L796.283197952 203.42719999999997L796.599997952 203.02399999999997C796.7151979519999 202.85119999999998,796.887997952 202.82239999999996,797.031997952 202.82239999999996C797.2047979519999 202.82239999999996,797.3487979519999 202.90879999999999,797.435197952 203.05279999999996C797.463997952 203.13919999999996,797.463997952 203.19679999999997,797.463997952 205.32799999999997C797.463997952 205.81759999999997,797.463997952 206.42239999999998,797.463997952 207.14239999999998L797.463997952 211.14559999999997L798.183997952 211.14559999999997C798.846397952 211.14559999999997,798.875197952 211.14559999999997,798.9615979519999 211.17439999999996C799.191997952 211.26079999999996,799.307197952 211.49119999999996,799.307197952 211.75039999999998C799.307197952 211.89439999999996,799.278397952 212.06719999999999,799.163197952 212.18239999999997C798.990397952 212.32639999999998,798.9615979519999 212.32639999999998,798.183997952 212.32639999999998L797.463997952 212.32639999999998L797.463997952 212.81599999999997C797.4927979519999 214.28479999999996,797.780797952 214.86079999999998,798.9039979519999 215.46559999999997C799.307197952 215.66719999999998,799.3935979519999 215.72479999999996,799.3935979519999 216.01279999999997C799.3935979519999 216.21439999999998,799.335997952 216.30079999999998,799.191997952 216.41599999999997L799.1055979519999 216.44479999999996L795.159997952 216.44479999999996L791.243197952 216.44479999999996L791.1567979519999 216.41599999999997C790.983997952 216.30079999999998,790.9551979519999 216.21439999999998,790.9551979519999 216.01279999999997C790.9551979519999 215.72479999999996,790.983997952 215.66719999999998,791.415997952 215.46559999999997C792.539197952 214.86079999999998,792.827197952 214.28479999999996,792.827197952 212.81599999999997L792.827197952 212.32639999999998L789.515197952 212.32639999999998C788.9103979519999 212.38399999999996,788.4207979519999 212.38399999999996,788.017597952 212.38399999999996C786.203197952 212.38399999999996,786.1743979519999 212.32639999999998,786.145597952 212.32639999999998C785.972797952 212.26879999999997,785.915197952 212.09599999999998,785.915197952 211.89439999999996C785.915197952 211.89439999999996,785.915197952 211.89439999999996,785.915197952 211.89439999999996C785.915197952 211.69279999999998,785.915197952 211.69279999999998,786.491197952 211.0304C788.9103979519999 208.09279999999998,790.609597952 203.83039999999997,790.609597952 200.43199999999996C790.609597952 199.91359999999997,790.695997952 199.74079999999998,790.926397952 199.65439999999998M792.654397952 218.02879999999996L792.683197952 218.02879999999996L792.596797952 218.02879999999996L792.654397952 218.02879999999996M792.654397952 198.61759999999998L792.683197952 198.61759999999998L792.596797952 198.61759999999998L792.654397952 198.61759999999998">
</path>
<g class="vf-stavenote" id="vf-auto32887">
<g class="vf-note" pointer-events="bounding-box">
<g class="vf-notehead" pointer-events="bounding-box">
<path stroke-width="0.3" fill="#000000" stroke="none" stroke-dasharray="none" d="M837.257674752 197.99999999999997M844.6146347519999 192.77711999999997C844.726954752 192.77711999999997,844.8954347519999 192.77711999999997,844.923514752 192.77711999999997C844.923514752 192.77711999999997,844.951594752 192.77711999999997,844.951594752 192.77711999999997C844.951594752 192.77711999999997,845.1200747519999 192.77711999999997,845.2604747519999 192.77711999999997C847.7876747519999 192.91751999999997,849.275914752 194.57423999999997,849.275914752 196.65215999999998C849.275914752 197.66303999999997,848.938954752 198.81431999999998,848.096554752 199.90943999999996C846.495994752 202.07159999999996,843.884554752 203.25095999999996,841.610074752 203.25095999999996C839.8410347519999 203.25095999999996,838.324714752 202.54895999999997,837.5946347519999 201.11687999999998C837.3699947519999 200.55527999999998,837.257674752 200.02175999999997,837.257674752 199.43207999999998C837.257674752 196.37135999999998,840.6834347519999 192.97367999999997,844.6146347519999 192.77711999999997">
</path>
</g>
</g>
<g class="vf-modifiers">
<g class="vf-stavenote" id="vf-auto32897">
<g class="vf-note" pointer-events="bounding-box">
<g class="vf-stem" pointer-events="bounding-box">
<path stroke-width="1.5" fill="none" stroke="#000000" stroke-dasharray="none" d="M818.575636352 197.99999999999997L818.575636352 174.89999999999998">
</path>
</g>
<g class="vf-notehead" pointer-events="bounding-box">
<path stroke-width="0.3" fill="#000000" stroke="none" stroke-dasharray="none" d="M811.3935979519999 197.99999999999997M816.249191552 194.55289919999998C816.323322752 194.55289919999998,816.434519552 194.55289919999998,816.453052352 194.55289919999998C816.453052352 194.55289919999998,816.471585152 194.55289919999998,816.471585152 194.55289919999998C816.471585152 194.55289919999998,816.5827819519999 194.55289919999998,816.6754459519999 194.55289919999998C818.3433979519999 194.64556319999997,819.325636352 195.73899839999996,819.325636352 197.11042559999999C819.325636352 197.77760639999997,819.1032427519999 198.53745119999996,818.547258752 199.26023039999998C817.4908891519999 200.68725599999996,815.7673387519999 201.46563359999996,814.2661819519999 201.46563359999996C813.098615552 201.46563359999996,812.0978443519999 201.00231359999998,811.615991552 200.05714079999998C811.467729152 199.68648479999996,811.3935979519999 199.33436159999997,811.3935979519999 198.94517279999997C811.3935979519999 196.92509759999996,813.6545995519999 194.68262879999997,816.249191552 194.55289919999998">
</path>
</g>
<g class="vf-flag" pointer-events="bounding-box">
<path stroke-width="0.3" fill="#000000" stroke="none" stroke-dasharray="none" d="M818.575636352 172.89999999999998M818.130849152 175.88378079999998L818.130849152 172.992664L818.2049803519999 172.992664C818.4088411519999 172.992664,818.5385707519999 173.12239359999998,818.575636352 173.34478719999998C818.964825152 175.19806719999997,820.132391552 177.21814239999998,821.744745152 178.73783199999997C823.542426752 180.42431679999999,824.450533952 182.74091679999998,824.450533952 185.13164799999998C824.450533952 187.39264959999997,823.653623552 189.74631519999997,822.041269952 191.69225919999997C821.763277952 192.06291519999996,821.744745152 192.06291519999996,821.5594171519999 192.06291519999996C821.3370235519999 192.06291519999996,821.188761152 191.89611999999997,821.188761152 191.67372639999996C821.188761152 191.50693119999997,821.207293952 191.4698656,821.3926219519999 191.2660048C822.801114752 189.56098719999997,823.505361152 187.5038464,823.505361152 185.5393696C823.505361152 183.7972864,822.9493771519999 182.12933439999998,821.800343552 180.86910399999996C821.096097152 180.09072639999997,819.7988011519999 179.34941439999997,818.149381952 178.77489759999997C818.149381952 178.75636479999997,818.130849152 178.18184799999997,818.130849152 175.88378079999998">
</path>
</g>
</g>
<g class="vf-modifiers">
</g>
</g>
<path stroke-width="1" fill="none" stroke="#000000" stroke-dasharray="none" d="M812.3935979519999 189.74999999999997L825.3935979519999 180.74999999999997Z">
</path>
</g>
</g>
<g class="vf-stavenote" id="vf-auto32911">
<g class="vf-note" pointer-events="bounding-box">
<g class="vf-notehead" pointer-events="bounding-box">
<path stroke-width="0.3" fill="#000000" stroke="none" stroke-dasharray="none" d="M889.4469163519999 197.99999999999997M896.8038763519999 192.77711999999997C896.9161963519999 192.77711999999997,897.0846763519999 192.77711999999997,897.1127563519999 192.77711999999997C897.1127563519999 192.77711999999997,897.140836352 192.77711999999997,897.140836352 192.77711999999997C897.140836352 192.77711999999997,897.3093163519999 192.77711999999997,897.4497163519999 192.77711999999997C899.9769163519999 192.91751999999997,901.4651563519999 194.57423999999997,901.4651563519999 196.65215999999998C901.4651563519999 197.66303999999997,901.1281963519999 198.81431999999998,900.2857963519999 199.90943999999996C898.685236352 202.07159999999996,896.0737963519999 203.25095999999996,893.7993163519999 203.25095999999996C892.0302763519999 203.25095999999996,890.5139563519999 202.54895999999997,889.7838763519999 201.11687999999998C889.5592363519999 200.55527999999998,889.4469163519999 200.02175999999997,889.4469163519999 199.43207999999998C889.4469163519999 196.37135999999998,892.8726763519999 192.97367999999997,896.8038763519999 192.77711999999997">
</path>
</g>
</g>
<g class="vf-modifiers">
</g>
</g>
<g class="vf-stavenote" id="vf-auto32921">
<g class="vf-note" pointer-events="bounding-box">
<g class="vf-notehead" pointer-events="bounding-box">
<path stroke-width="0.3" fill="#000000" stroke="none" stroke-dasharray="none" d="M924.550657152 197.99999999999997M931.907617152 192.77711999999997C932.019937152 192.77711999999997,932.1884171519999 192.77711999999997,932.216497152 192.77711999999997C932.216497152 192.77711999999997,932.244577152 192.77711999999997,932.244577152 192.77711999999997C932.244577152 192.77711999999997,932.413057152 192.77711999999997,932.553457152 192.77711999999997C935.080657152 192.91751999999997,936.568897152 194.57423999999997,936.568897152 196.65215999999998C936.568897152 197.66303999999997,936.231937152 198.81431999999998,935.389537152 199.90943999999996C933.788977152 202.07159999999996,931.177537152 203.25095999999996,928.903057152 203.25095999999996C927.134017152 203.25095999999996,925.617697152 202.54895999999997,924.887617152 201.11687999999998C924.6629771519999 200.55527999999998,924.550657152 200.02175999999997,924.550657152 199.43207999999998C924.550657152 196.37135999999998,927.976417152 192.97367999999997,931.907617152 192.77711999999997">
</path>
</g>
</g>
<g class="vf-modifiers">
</g>
</g>
<g class="vf-stavenote" id="vf-auto32931">
<g class="vf-note" pointer-events="bounding-box">
<g class="vf-notehead" pointer-events="bounding-box">
<path stroke-width="0.3" fill="#000000" stroke="none" stroke-dasharray="none" d="M985.518474752 197.99999999999997M992.8754347519999 192.77711999999997C992.987754752 192.77711999999997,993.1562347519999 192.77711999999997,993.184314752 192.77711999999997C993.184314752 192.77711999999997,993.212394752 192.77711999999997,993.212394752 192.77711999999997C993.212394752 192.77711999999997,993.380874752 192.77711999999997,993.521274752 192.77711999999997C996.048474752 192.91751999999997,997.536714752 194.57423999999997,997.536714752 196.65215999999998C997.536714752 197.66303999999997,997.199754752 198.81431999999998,996.357354752 199.90943999999996C994.756794752 202.07159999999996,992.145354752 203.25095999999996,989.870874752 203.25095999999996C988.101834752 203.25095999999996,986.585514752 202.54895999999997,985.855434752 201.11687999999998C985.6307947519999 200.55527999999998,985.518474752 200.02175999999997,985.518474752 199.43207999999998C985.518474752 196.37135999999998,988.9442347519999 192.97367999999997,992.8754347519999 192.77711999999997">
</path>
</g>
</g>
<g class="vf-modifiers">
<g class="vf-stavenote" id="vf-auto32941">
<g class="vf-note" pointer-events="bounding-box">
<g class="vf-stem" pointer-events="bounding-box">
<path stroke-width="1.5" fill="none" stroke="#000000" stroke-dasharray="none" d="M966.836436352 197.99999999999997L966.836436352 174.89999999999998">
</path>
</g>
<g class="vf-notehead" pointer-events="bounding-box">
<path stroke-width="0.3" fill="#000000" stroke="none" stroke-dasharray="none" d="M959.654397952 197.99999999999997M964.509991552 194.55289919999998C964.584122752 194.55289919999998,964.695319552 194.55289919999998,964.713852352 194.55289919999998C964.713852352 194.55289919999998,964.732385152 194.55289919999998,964.732385152 194.55289919999998C964.732385152 194.55289919999998,964.8435819519999 194.55289919999998,964.9362459519999 194.55289919999998C966.6041979519999 194.64556319999997,967.586436352 195.73899839999996,967.586436352 197.11042559999999C967.586436352 197.77760639999997,967.3640427519999 198.53745119999996,966.808058752 199.26023039999998C965.7516891519999 200.68725599999996,964.0281387519999 201.46563359999996,962.5269819519999 201.46563359999996C961.359415552 201.46563359999996,960.3586443519999 201.00231359999998,959.876791552 200.05714079999998C959.728529152 199.68648479999996,959.654397952 199.33436159999997,959.654397952 198.94517279999997C959.654397952 196.92509759999996,961.9153995519999 194.68262879999997,964.509991552 194.55289919999998">
</path>
</g>
<g class="vf-flag" pointer-events="bounding-box">
<path stroke-width="0.3" fill="#000000" stroke="none" stroke-dasharray="none" d="M966.836436352 172.89999999999998M966.391649152 175.88378079999998L966.391649152 172.992664L966.4657803519999 172.992664C966.6696411519999 172.992664,966.799370752 173.12239359999998,966.836436352 173.34478719999998C967.225625152 175.19806719999997,968.393191552 177.21814239999998,970.005545152 178.73783199999997C971.803226752 180.42431679999999,972.711333952 182.74091679999998,972.711333952 185.13164799999998C972.711333952 187.39264959999997,971.914423552 189.74631519999997,970.302069952 191.69225919999997C970.024077952 192.06291519999996,970.005545152 192.06291519999996,969.8202171519999 192.06291519999996C969.5978235519999 192.06291519999996,969.449561152 191.89611999999997,969.449561152 191.67372639999996C969.449561152 191.50693119999997,969.468093952 191.4698656,969.6534219519999 191.2660048C971.061914752 189.56098719999997,971.766161152 187.5038464,971.766161152 185.5393696C971.766161152 183.7972864,971.2101771519999 182.12933439999998,970.061143552 180.86910399999996C969.356897152 180.09072639999997,968.0596011519999 179.34941439999997,966.410181952 178.77489759999997C966.410181952 178.75636479999997,966.391649152 178.18184799999997,966.391649152 175.88378079999998">
</path>
</g>
</g>
<g class="vf-modifiers">
</g>
</g>
<path stroke-width="1" fill="none" stroke="#000000" stroke-dasharray="none" d="M960.654397952 189.74999999999997L973.654397952 180.74999999999997Z">
</path>
</g>
</g>
<g class="vf-stavenote" id="vf-auto32955">
<g class="vf-note" pointer-events="bounding-box">
<g class="vf-notehead" pointer-events="bounding-box">
<path stroke-width="0.3" fill="#000000" stroke="none" stroke-dasharray="none" d="M1037.7077163519998 197.99999999999997M1045.0646763519999 192.77711999999997C1045.1769963519998 192.77711999999997,1045.3454763519999 192.77711999999997,1045.3735563519997 192.77711999999997C1045.3735563519997 192.77711999999997,1045.4016363519997 192.77711999999997,1045.4016363519997 192.77711999999997C1045.4016363519997 192.77711999999997,1045.5701163519998 192.77711999999997,1045.7105163519998 192.77711999999997C1048.2377163519998 192.91751999999997,1049.725956352 194.57423999999997,1049.725956352 196.65215999999998C1049.725956352 197.66303999999997,1049.3889963519998 198.81431999999998,1048.5465963519998 199.90943999999996C1046.9460363519997 202.07159999999996,1044.3345963519998 203.25095999999996,1042.0601163519998 203.25095999999996C1040.291076352 203.25095999999996,1038.7747563519997 202.54895999999997,1038.044676352 201.11687999999998C1037.8200363519998 200.55527999999998,1037.7077163519998 200.02175999999997,1037.7077163519998 199.43207999999998C1037.7077163519998 196.37135999999998,1041.133476352 192.97367999999997,1045.0646763519999 192.77711999999997">
</path>
</g>
</g>
<g class="vf-modifiers">
</g>
</g>
<g class="vf-stavenote" id="vf-auto32965">
<g class="vf-note" pointer-events="bounding-box">
<g class="vf-notehead" pointer-events="bounding-box">
<path stroke-width="0.3" fill="#000000" stroke="none" stroke-dasharray="none" d="M1072.811457152 197.99999999999997M1080.168417152 192.77711999999997C1080.280737152 192.77711999999997,1080.449217152 192.77711999999997,1080.477297152 192.77711999999997C1080.477297152 192.77711999999997,1080.505377152 192.77711999999997,1080.505377152 192.77711999999997C1080.505377152 192.77711999999997,1080.673857152 192.77711999999997,1080.814257152 192.77711999999997C1083.341457152 192.91751999999997,1084.829697152 194.57423999999997,1084.829697152 196.65215999999998C1084.829697152 197.66303999999997,1084.492737152 198.81431999999998,1083.650337152 199.90943999999996C1082.049777152 202.07159999999996,1079.438337152 203.25095999999996,1077.163857152 203.25095999999996C1075.394817152 203.25095999999996,1073.878497152 202.54895999999997,1073.148417152 201.11687999999998C1072.923777152 200.55527999999998,1072.811457152 200.02175999999997,1072.811457152 199.43207999999998C1072.811457152 196.37135999999998,1076.237217152 192.97367999999997,1080.168417152 192.77711999999997">
</path>
</g>
</g>
<g class="vf-modifiers">
</g>
</g>
<path stroke-width="1.5" fill="none" stroke="#000000" stroke-dasharray="none" d="M848.525914752 197.99999999999997L848.525914752 163.74999999999997">
</path>
<path stroke-width="1.5" fill="none" stroke="#000000" stroke-dasharray="none" d="M900.7151563519999 197.99999999999997L900.7151563519999 163.74999999999997">
</path>
<path stroke-width="1.5" fill="none" stroke="#000000" stroke-dasharray="none" d="M935.818897152 197.99999999999997L935.818897152 163.74999999999997">
</path>
<path stroke-width="0.3" fill="#000000" stroke="none" stroke-dasharray="none" d="M847.775914752 162.99999999999997L847.775914752 167.99999999999997L936.068897152 167.99999999999997L936.068897152 162.99999999999997Z">
</path>
<path stroke-width="0.3" fill="#000000" stroke="none" stroke-dasharray="none" d="M899.9651563519999 170.49999999999997L899.9651563519999 175.49999999999997L936.068897152 175.49999999999997L936.068897152 170.49999999999997Z">
</path>
<path stroke-width="1.5" fill="none" stroke="#000000" stroke-dasharray="none" d="M996.786714752 197.99999999999997L996.786714752 163.74999999999997">
</path>
<path stroke-width="1.5" fill="none" stroke="#000000" stroke-dasharray="none" d="M1048.975956352 197.99999999999997L1048.975956352 163.74999999999997">
</path>
<path stroke-width="1.5" fill="none" stroke="#000000" stroke-dasharray="none" d="M1084.079697152 197.99999999999997L1084.079697152 163.74999999999997">
</path>
<path stroke-width="0.3" fill="#000000" stroke="none" stroke-dasharray="none" d="M996.036714752 162.99999999999997L996.036714752 167.99999999999997L1084.329697152 167.99999999999997L1084.329697152 162.99999999999997Z">
</path>
<path stroke-width="0.3" fill="#000000" stroke="none" stroke-dasharray="none" d="M1048.225956352 170.49999999999997L1048.225956352 175.49999999999997L1084.329697152 175.49999999999997L1084.329697152 170.49999999999997Z">
</path>
</svg>