<svg width="1536" height="331.99999999999994" viewBox="0 0 1536 331.99999999999994">
<path stroke-width="1" fill="none" stroke="black" stroke-dasharray="none" d="M50 197.99999999999997L729.6317867519999 197.99999999999997">
</path>
<rect stroke-width="0.3" fill="black" stroke="black" stroke-dasharray="none" x="729.6317867519999" y="177.49999999999997" width="1" height="41">
</rect>
<path stroke-width="0.3" fill="black" stroke="none" stroke-dasharray="none" d="M55 197.99999999999997M55 197.99999999999997L55 188.00639999999999L57.1888 188.00639999999999L59.4064 188.00639999999999L59.4064 197.99999999999997L59.4064 208.02239999999998L57.1888 208.02239999999998L55 208.02239999999998L55 197.99999999999997M63.870400000000004 198.02879999999996L63.870400000000004 188.00639999999999L66.1168 188.00639999999999L68.3632 188.00639999999999L68.3632 198.02879999999996L68.3632 208.02239999999998L66.1168 208.02239999999998L63.870400000000004 208.02239999999998L63.870400000000004 198.02879999999996">
</path>
<path stroke-width="0.3" fill="black" stroke="none" stroke-dasharray="none" d="M96 197.99999999999997M101.0112 179.65439999999998C101.04 179.62559999999996,101.4432 179.62559999999996,102.6816 179.62559999999996C103.056 179.62559999999996,103.4592 179.62559999999996,103.9776 179.62559999999996L106.8864 179.62559999999996L106.9728 179.71199999999996C107.1168 179.79839999999996,107.2032 179.94239999999996,107.2032 180.05759999999998C107.2032 180.23039999999997,107.1168 180.34559999999996,107.0016 180.46079999999998C106.9728 180.54719999999998,106.7136 180.77759999999998,106.5408 181.03679999999997L105.0144 182.79359999999997L103.056 185.01119999999997L102.0192 186.19199999999998L100.464 187.97759999999997L98.4192 190.31039999999996C98.0736 190.74239999999998,97.6992 191.08799999999997,97.6992 191.08799999999997C97.6992 191.08799999999997,97.6992 191.08799999999997,97.6992 191.08799999999997C97.6992 191.14559999999997,97.9584 191.14559999999997,100.3488 191.14559999999997L102.9696 191.14559999999997L102.9696 189.27359999999996C102.9696 187.37279999999998,102.9696 187.34399999999997,102.9984 187.31519999999998C103.056 187.22879999999998,103.3152 186.91199999999998,104.3232 185.73119999999997L104.7264 185.29919999999998L105.1296 184.86719999999997L105.7344 184.08959999999996L106.368 183.42719999999997L106.6848 183.02399999999997C106.8 182.85119999999998,106.9728 182.82239999999996,107.1168 182.82239999999996C107.28960000000001 182.82239999999996,107.4336 182.90879999999999,107.52 183.05279999999996C107.5488 183.13919999999996,107.5488 183.19679999999997,107.5488 185.32799999999997C107.5488 185.81759999999997,107.5488 186.42239999999998,107.5488 187.14239999999998L107.5488 191.14559999999997L108.2688 191.14559999999997C108.9312 191.14559999999997,108.96 191.14559999999997,109.0464 191.17439999999996C109.2768 191.26079999999996,109.392 191.49119999999996,109.392 191.75039999999998C109.392 191.89439999999996,109.3632 192.06719999999999,109.248 192.18239999999997C109.0752 192.32639999999998,109.0464 192.32639999999998,108.2688 192.32639999999998L107.5488 192.32639999999998L107.5488 192.81599999999997C107.5776 194.28479999999996,107.8656 194.86079999999998,108.9888 195.46559999999997C109.392 195.66719999999998,109.4784 195.72479999999996,109.4784 196.01279999999997C109.4784 196.21439999999998,109.4208 196.30079999999998,109.2768 196.41599999999997L109.1904 196.44479999999996L105.2448 196.44479999999996L101.328 196.44479999999996L101.2416 196.41599999999997C101.0688 196.30079999999998,101.04 196.21439999999998,101.04 196.01279999999997C101.04 195.72479999999996,101.0688 195.66719999999998,101.5008 195.46559999999997C102.624 194.86079999999998,102.912 194.28479999999996,102.912 192.81599999999997L102.912 192.32639999999998L99.6 192.32639999999998C98.9952 192.38399999999996,98.5056 192.38399999999996,98.1024 192.38399999999996C96.288 192.38399999999996,96.2592 192.32639999999998,96.2304 192.32639999999998C96.0576 192.26879999999997,96 192.09599999999998,96 191.89439999999996C96 191.89439999999996,96 191.89439999999996,96 191.89439999999996C96 191.69279999999998,96 191.69279999999998,96.576 191.0304C98.9952 188.09279999999998,100.6944 183.83039999999997,100.6944 180.43199999999996C100.6944 179.91359999999997,100.7808 179.74079999999998,101.0112 179.65439999999998M102.7392 198.02879999999996L102.768 198.02879999999996L102.6816 198.02879999999996L102.7392 198.02879999999996M102.7392 178.61759999999998L102.768 178.61759999999998L102.6816 178.61759999999998L102.7392 178.61759999999998">
</path>
<path stroke-width="0.3" fill="black" stroke="none" stroke-dasharray="none" d="M96 217.99999999999997M101.0112 199.65439999999998C101.04 199.62559999999996,101.4432 199.62559999999996,102.6816 199.62559999999996C103.056 199.62559999999996,103.4592 199.62559999999996,103.9776 199.62559999999996L106.8864 199.62559999999996L106.9728 199.71199999999996C107.1168 199.79839999999996,107.2032 199.94239999999996,107.2032 200.05759999999998C107.2032 200.23039999999997,107.1168 200.34559999999996,107.0016 200.46079999999998C106.9728 200.54719999999998,106.7136 200.77759999999998,106.5408 201.03679999999997L105.0144 202.79359999999997L103.056 205.01119999999997L102.0192 206.19199999999998L100.464 207.97759999999997L98.4192 210.31039999999996C98.0736 210.74239999999998,97.6992 211.08799999999997,97.6992 211.08799999999997C97.6992 211.08799999999997,97.6992 211.08799999999997,97.6992 211.08799999999997C97.6992 211.14559999999997,97.9584 211.14559999999997,100.3488 211.14559999999997L102.9696 211.14559999999997L102.9696 209.27359999999996C102.9696 207.37279999999998,102.9696 207.34399999999997,102.9984 207.31519999999998C103.056 207.22879999999998,103.3152 206.91199999999998,104.3232 205.73119999999997L104.7264 205.29919999999998L105.1296 204.86719999999997L105.7344 204.08959999999996L106.368 203.42719999999997L106.6848 203.02399999999997C106.8 202.85119999999998,106.9728 202.82239999999996,107.1168 202.82239999999996C107.28960000000001 202.82239999999996,107.4336 202.90879999999999,107.52 203.05279999999996C107.5488 203.13919999999996,107.5488 203.19679999999997,107.5488 205.32799999999997C107.5488 205.81759999999997,107.5488 206.42239999999998,107.5488 207.14239999999998L107.5488 211.14559999999997L108.2688 211.14559999999997C108.9312 211.14559999999997,108.96 211.14559999999997,109.0464 211.17439999999996C109.2768 211.26079999999996,109.392 211.49119999999996,109.392 211.75039999999998C109.392 211.89439999999996,109.3632 212.06719999999999,109.248 212.18239999999997C109.0752 212.32639999999998,109.0464 212.32639999999998,108.2688 212.32639999999998L107.5488 212.32639999999998L107.5488 212.81599999999997C107.5776 214.28479999999996,107.8656 214.86079999999998,108.9888 215.46559999999997C109.392 215.66719999999998,109.4784 215.72479999999996,109.4784 216.01279999999997C109.4784 216.21439999999998,109.4208 216.30079999999998,109.2768 216.41599999999997L109.1904 216.44479999999996L105.2448 216.44479999999996L101.328 216.44479999999996L101.2416 216.41599999999997C101.0688 216.30079999999998,101.04 216.21439999999998,101.04 216.01279999999997C101.04 215.72479999999996,101.0688 215.66719999999998,101.5008 215.46559999999997C102.624 214.86079999999998,102.912 214.28479999999996,102.912 212.81599999999997L102.912 212.32639999999998L99.6 212.32639999999998C98.9952 212.38399999999996,98.5056 212.38399999999996,98.1024 212.38399999999996C96.288 212.38399999999996,96.2592 212.32639999999998,96.2304 212.32639999999998C96.0576 212.26879999999997,96 212.09599999999998,96 211.89439999999996C96 211.89439999999996,96 211.89439999999996,96 211.89439999999996C96 211.69279999999998,96 211.69279999999998,96.576 211.0304C98.9952 208.09279999999998,100.6944 203.83039999999997,100.6944 200.43199999999996C100.6944 199.91359999999997,100.7808 199.74079999999998,101.0112 199.65439999999998M102.7392 218.02879999999996L102.768 218.02879999999996L102.6816 218.02879999999996L102.7392 218.02879999999996M102.7392 198.61759999999998L102.768 198.61759999999998L102.6816 198.61759999999998L102.7392 198.61759999999998">
</path>
<g class="vf-stavenote" id="vf-auto25504">
<g class="vf-note" pointer-events="bounding-box">
<g class="vf-notehead" pointer-events="bounding-box">
<path stroke-width="0.3" fill="#000000" stroke="none" stroke-dasharray="none" d="M147.3424768 197.99999999999997M154.69943679999997 192.77711999999997C154.81175679999998 192.77711999999997,154.9802368 192.77711999999997,155.0083168 192.77711999999997C155.0083168 192.77711999999997,155.03639679999998 192.77711999999997,155.03639679999998 192.77711999999997C155.03639679999998 192.77711999999997,155.2048768 192.77711999999997,155.3452768 192.77711999999997C157.8724768 192.91751999999997,159.36071679999998 194.57423999999997,159.36071679999998 196.65215999999998C159.36071679999998 197.66303999999997,159.0237568 198.81431999999998,158.18135679999997 199.90943999999996C156.58079679999997 202.07159999999996,153.96935679999999 203.25095999999996,151.69487679999997 203.25095999999996C149.92583679999998 203.25095999999996,148.40951679999998 202.54895999999997,147.6794368 201.11687999999998C147.4547968 200.55527999999998,147.3424768 200.02175999999997,147.3424768 199.43207999999998C147.3424768 196.37135999999998,150.76823679999998 192.97367999999997,154.69943679999997 192.77711999999997">
</path>
</g>
</g>
<g class="vf-modifiers">
<g class="vf-stavenote" id="vf-auto25514">
<g class="vf-note" pointer-events="bounding-box">
<g class="vf-stem" pointer-events="bounding-box">
<path stroke-width="1.5" fill="none" stroke="#000000" stroke-dasharray="none" d="M128.6604384 197.99999999999997L128.6604384 174.89999999999998">
</path>
</g>
<g class="vf-notehead" pointer-events="bounding-box">
<path stroke-width="0.3" fill="#000000" stroke="none" stroke-dasharray="none" d="M121.4784 197.99999999999997M126.3339936 194.55289919999998C126.4081248 194.55289919999998,126.5193216 194.55289919999998,126.5378544 194.55289919999998C126.5378544 194.55289919999998,126.55638719999999 194.55289919999998,126.55638719999999 194.55289919999998C126.55638719999999 194.55289919999998,126.66758399999999 194.55289919999998,126.76024799999999 194.55289919999998C128.4282 194.64556319999997,129.4104384 195.73899839999996,129.4104384 197.11042559999999C129.4104384 197.77760639999997,129.1880448 198.53745119999996,128.6320608 199.26023039999998C127.5756912 200.68725599999996,125.8521408 201.46563359999996,124.350984 201.46563359999996C123.1834176 201.46563359999996,122.1826464 201.00231359999998,121.7007936 200.05714079999998C121.55253119999999 199.68648479999996,121.4784 199.33436159999997,121.4784 198.94517279999997C121.4784 196.92509759999996,123.7394016 194.68262879999997,126.3339936 194.55289919999998">
</path>
</g>
<g class="vf-flag" pointer-events="bounding-box">
<path stroke-width="0.3" fill="#000000" stroke="none" stroke-dasharray="none" d="M128.6604384 172.89999999999998M128.2156512 175.88378079999998L128.2156512 172.992664L128.2897824 172.992664C128.4936432 172.992664,128.6233728 173.12239359999998,128.6604384 173.34478719999998C129.0496272 175.19806719999997,130.2171936 177.21814239999998,131.8295472 178.73783199999997C133.6272288 180.42431679999999,134.535336 182.74091679999998,134.535336 185.13164799999998C134.535336 187.39264959999997,133.7384256 189.74631519999997,132.126072 191.69225919999997C131.84808 192.06291519999996,131.8295472 192.06291519999996,131.6442192 192.06291519999996C131.4218256 192.06291519999996,131.2735632 191.89611999999997,131.2735632 191.67372639999996C131.2735632 191.50693119999997,131.29209600000002 191.4698656,131.477424 191.2660048C132.88591680000002 189.56098719999997,133.5901632 187.5038464,133.5901632 185.5393696C133.5901632 183.7972864,133.0341792 182.12933439999998,131.88514560000002 180.86910399999996C131.1808992 180.09072639999997,129.8836032 179.34941439999997,128.234184 178.77489759999997C128.234184 178.75636479999997,128.2156512 178.18184799999997,128.2156512 175.88378079999998">
</path>
</g>
</g>
<g class="vf-modifiers">
</g>
</g>
<path stroke-width="1" fill="none" stroke="#000000" stroke-dasharray="none" d="M122.4784 189.74999999999997L135.4784 180.74999999999997Z">
</path>
</g>
</g>
<g class="vf-stavenote" id="vf-auto25528">
<g class="vf-note" pointer-events="bounding-box">
<g class="vf-notehead" pointer-events="bounding-box">
<path stroke-width="0.3" fill="#000000" stroke="none" stroke-dasharray="none" d="M190.6209392 197.99999999999997M197.9778992 192.77711999999997C198.0902192 192.77711999999997,198.25869920000002 192.77711999999997,198.2867792 192.77711999999997C198.2867792 192.77711999999997,198.3148592 192.77711999999997,198.3148592 192.77711999999997C198.3148592 192.77711999999997,198.48333920000002 192.77711999999997,198.62373920000002 192.77711999999997C201.1509392 192.91751999999997,202.6391792 194.57423999999997,202.6391792 196.65215999999998C202.6391792 197.66303999999997,202.30221920000002 198.81431999999998,201.4598192 199.90943999999996C199.8592592 202.07159999999996,197.2478192 203.25095999999996,194.9733392 203.25095999999996C193.2042992 203.25095999999996,191.6879792 202.54895999999997,190.9578992 201.11687999999998C190.73325920000002 200.55527999999998,190.6209392 200.02175999999997,190.6209392 199.43207999999998C190.6209392 196.37135999999998,194.0466992 192.97367999999997,197.9778992 192.77711999999997">
</path>
</g>
</g>
<g class="vf-modifiers">
</g>
</g>
<g class="vf-stavenote" id="vf-auto25538">
<g class="vf-note" pointer-events="bounding-box">
<g class="vf-notehead" pointer-events="bounding-box">
<path stroke-width="0.3" fill="#000000" stroke="none" stroke-dasharray="none" d="M221.26929040000002 197.99999999999997M228.6262504 192.77711999999997C228.73857040000001 192.77711999999997,228.9070504 192.77711999999997,228.93513040000002 192.77711999999997C228.93513040000002 192.77711999999997,228.9632104 192.77711999999997,228.9632104 192.77711999999997C228.9632104 192.77711999999997,229.13169040000002 192.77711999999997,229.27209040000002 192.77711999999997C231.79929040000002 192.91751999999997,233.2875304 194.57423999999997,233.2875304 196.65215999999998C233.2875304 197.66303999999997,232.9505704 198.81431999999998,232.1081704 199.90943999999996C230.5076104 202.07159999999996,227.89617040000002 203.25095999999996,225.6216904 203.25095999999996C223.85265040000002 203.25095999999996,222.3363304 202.54895999999997,221.60625040000002 201.11687999999998C221.38161040000003 200.55527999999998,221.26929040000002 200.02175999999997,221.26929040000002 199.43207999999998C221.26929040000002 196.37135999999998,224.6950504 192.97367999999997,228.6262504 192.77711999999997">
</path>
</g>
</g>
<g class="vf-modifiers">
</g>
</g>
<g class="vf-stavenote" id="vf-auto25548">
<g class="vf-note" pointer-events="bounding-box">
<g class="vf-notehead" pointer-events="bounding-box">
<path stroke-width="0.3" fill="#000000" stroke="none" stroke-dasharray="none" d="M277.78171840000005 197.99999999999997M285.13867840000006 192.77711999999997C285.25099840000007 192.77711999999997,285.41947840000006 192.77711999999997,285.44755840000005 192.77711999999997C285.44755840000005 192.77711999999997,285.47563840000004 192.77711999999997,285.47563840000004 192.77711999999997C285.47563840000004 192.77711999999997,285.6441184 192.77711999999997,285.7845184 192.77711999999997C288.3117184 192.91751999999997,289.79995840000004 194.57423999999997,289.79995840000004 196.65215999999998C289.79995840000004 197.66303999999997,289.46299840000006 198.81431999999998,288.62059840000006 199.90943999999996C287.02003840000003 202.07159999999996,284.4085984000001 203.25095999999996,282.13411840000003 203.25095999999996C280.3650784000001 203.25095999999996,278.84875840000007 202.54895999999997,278.1186784 201.11687999999998C277.89403840000006 200.55527999999998,277.78171840000005 200.02175999999997,277.78171840000005 199.43207999999998C277.78171840000005 196.37135999999998,281.20747840000007 192.97367999999997,285.13867840000006 192.77711999999997">
</path>
</g>
</g>
<g class="vf-modifiers">
<g class="vf-stavenote" id="vf-auto25558">
<g class="vf-note" pointer-events="bounding-box">
<g class="vf-stem" pointer-events="bounding-box">
<path stroke-width="1.5" fill="none" stroke="#000000" stroke-dasharray="none" d="M259.09968000000003 197.99999999999997L259.09968000000003 174.89999999999998">
</path>
</g>
<g class="vf-notehead" pointer-events="bounding-box">
<path stroke-width="0.3" fill="#000000" stroke="none" stroke-dasharray="none" d="M251.91764160000002 197.99999999999997M256.77323520000004 194.55289919999998C256.8473664 194.55289919999998,256.9585632 194.55289919999998,256.977096 194.55289919999998C256.977096 194.55289919999998,256.9956288 194.55289919999998,256.9956288 194.55289919999998C256.9956288 194.55289919999998,257.10682560000004 194.55289919999998,257.19948960000005 194.55289919999998C258.8674416 194.64556319999997,259.84968000000003 195.73899839999996,259.84968000000003 197.11042559999999C259.84968000000003 197.77760639999997,259.6272864 198.53745119999996,259.07130240000004 199.26023039999998C258.0149328 200.68725599999996,256.29138240000003 201.46563359999996,254.7902256 201.46563359999996C253.62265920000002 201.46563359999996,252.621888 201.00231359999998,252.14003520000003 200.05714079999998C251.99177280000004 199.68648479999996,251.91764160000002 199.33436159999997,251.91764160000002 198.94517279999997C251.91764160000002 196.92509759999996,254.1786432 194.68262879999997,256.77323520000004 194.55289919999998">
</path>
</g>
<g class="vf-flag" pointer-events="bounding-box">
<path stroke-width="0.3" fill="#000000" stroke="none" stroke-dasharray="none" d="M259.09968000000003 172.89999999999998M258.6548928 175.88378079999998L258.6548928 172.992664L258.72902400000004 172.992664C258.9328848 172.992664,259.06261440000003 173.12239359999998,259.09968000000003 173.34478719999998C259.48886880000003 175.19806719999997,260.65643520000003 177.21814239999998,262.26878880000004 178.73783199999997C264.0664704 180.42431679999999,264.97457760000003 182.74091679999998,264.97457760000003 185.13164799999998C264.97457760000003 187.39264959999997,264.17766720000003 189.74631519999997,262.5653136 191.69225919999997C262.28732160000004 192.06291519999996,262.26878880000004 192.06291519999996,262.0834608 192.06291519999996C261.86106720000004 192.06291519999996,261.7128048 191.89611999999997,261.7128048 191.67372639999996C261.7128048 191.50693119999997,261.7313376 191.4698656,261.91666560000004 191.2660048C263.3251584 189.56098719999997,264.0294048 187.5038464,264.0294048 185.5393696C264.0294048 183.7972864,263.47342080000004 182.12933439999998,262.32438720000005 180.86910399999996C261.62014080000006 180.09072639999997,260.32284480000004 179.34941439999997,258.67342560000003 178.77489759999997C258.67342560000003 178.75636479999997,258.6548928 178.18184799999997,258.6548928 175.88378079999998">
</path>
</g>
</g>
<g class="vf-modifiers">
</g>
</g>
<path stroke-width="1" fill="none" stroke="#000000" stroke-dasharray="none" d="M252.91764160000002 189.74999999999997L265.9176416 180.74999999999997Z">
</path>
</g>
</g>
<g class="vf-stavenote" id="vf-auto25572">
<g class="vf-note" pointer-events="bounding-box">
<g class="vf-notehead" pointer-events="bounding-box">
<path stroke-width="0.3" fill="#000000" stroke="none" stroke-dasharray="none" d="M321.0601808 197.99999999999997M328.4171408 192.77711999999997C328.52946080000004 192.77711999999997,328.6979408 192.77711999999997,328.7260208 192.77711999999997C328.7260208 192.77711999999997,328.7541008 192.77711999999997,328.7541008 192.77711999999997C328.7541008 192.77711999999997,328.9225808 192.77711999999997,329.0629808 192.77711999999997C331.5901808 192.91751999999997,333.0784208 194.57423999999997,333.0784208 196.65215999999998C333.0784208 197.66303999999997,332.7414608 198.81431999999998,331.89906080000003 199.90943999999996C330.2985008 202.07159999999996,327.68706080000004 203.25095999999996,325.4125808 203.25095999999996C323.64354080000004 203.25095999999996,322.12722080000003 202.54895999999997,321.3971408 201.11687999999998C321.1725008 200.55527999999998,321.0601808 200.02175999999997,321.0601808 199.43207999999998C321.0601808 196.37135999999998,324.48594080000004 192.97367999999997,328.4171408 192.77711999999997">
</path>
</g>
</g>
<g class="vf-modifiers">
</g>
</g>
<g class="vf-stavenote" id="vf-auto25582">
<g class="vf-note" pointer-events="bounding-box">
<g class="vf-notehead" pointer-events="bounding-box">
<path stroke-width="0.3" fill="#000000" stroke="none" stroke-dasharray="none" d="M351.708532 197.99999999999997M359.065492 192.77711999999997C359.177812 192.77711999999997,359.346292 192.77711999999997,359.374372 192.77711999999997C359.374372 192.77711999999997,359.402452 192.77711999999997,359.402452 192.77711999999997C359.402452 192.77711999999997,359.57093199999997 192.77711999999997,359.71133199999997 192.77711999999997C362.23853199999996 192.91751999999997,363.726772 194.57423999999997,363.726772 196.65215999999998C363.726772 197.66303999999997,363.389812 198.81431999999998,362.547412 199.90943999999996C360.946852 202.07159999999996,358.335412 203.25095999999996,356.060932 203.25095999999996C354.291892 203.25095999999996,352.775572 202.54895999999997,352.04549199999997 201.11687999999998C351.820852 200.55527999999998,351.708532 200.02175999999997,351.708532 199.43207999999998C351.708532 196.37135999999998,355.134292 192.97367999999997,359.065492 192.77711999999997">
</path>
</g>
</g>
<g class="vf-modifiers">
</g>
</g>
<g class="vf-stavenote" id="vf-auto25592">
<g class="vf-note" pointer-events="bounding-box">
<g class="vf-notehead" pointer-events="bounding-box">
<path stroke-width="0.3" fill="#000000" stroke="none" stroke-dasharray="none" d="M408.22096 197.99999999999997M415.57792 192.77711999999997C415.69024 192.77711999999997,415.85872 192.77711999999997,415.8868 192.77711999999997C415.8868 192.77711999999997,415.91488 192.77711999999997,415.91488 192.77711999999997C415.91488 192.77711999999997,416.08335999999997 192.77711999999997,416.22375999999997 192.77711999999997C418.75095999999996 192.91751999999997,420.2392 194.57423999999997,420.2392 196.65215999999998C420.2392 197.66303999999997,419.90224 198.81431999999998,419.05984 199.90943999999996C417.45928 202.07159999999996,414.84784 203.25095999999996,412.57336 203.25095999999996C410.80432 203.25095999999996,409.288 202.54895999999997,408.55791999999997 201.11687999999998C408.33328 200.55527999999998,408.22096 200.02175999999997,408.22096 199.43207999999998C408.22096 196.37135999999998,411.64672 192.97367999999997,415.57792 192.77711999999997">
</path>
</g>
</g>
<g class="vf-modifiers">
<g class="vf-stavenote" id="vf-auto25602">
<g class="vf-note" pointer-events="bounding-box">
<g class="vf-stem" pointer-events="bounding-box">
<path stroke-width="1.5" fill="none" stroke="#000000" stroke-dasharray="none" d="M389.5389216 197.99999999999997L389.5389216 174.89999999999998">
</path>
</g>
<g class="vf-notehead" pointer-events="bounding-box">
<path stroke-width="0.3" fill="#000000" stroke="none" stroke-dasharray="none" d="M382.35688319999997 197.99999999999997M387.2124768 194.55289919999998C387.28660799999994 194.55289919999998,387.39780479999996 194.55289919999998,387.41633759999996 194.55289919999998C387.41633759999996 194.55289919999998,387.43487039999997 194.55289919999998,387.43487039999997 194.55289919999998C387.43487039999997 194.55289919999998,387.5460672 194.55289919999998,387.6387312 194.55289919999998C389.30668319999995 194.64556319999997,390.2889216 195.73899839999996,390.2889216 197.11042559999999C390.2889216 197.77760639999997,390.06652799999995 198.53745119999996,389.510544 199.26023039999998C388.45417439999994 200.68725599999996,386.730624 201.46563359999996,385.2294672 201.46563359999996C384.0619008 201.46563359999996,383.06112959999996 201.00231359999998,382.57927679999995 200.05714079999998C382.4310144 199.68648479999996,382.35688319999997 199.33436159999997,382.35688319999997 198.94517279999997C382.35688319999997 196.92509759999996,384.61788479999996 194.68262879999997,387.2124768 194.55289919999998">
</path>
</g>
<g class="vf-flag" pointer-events="bounding-box">
<path stroke-width="0.3" fill="#000000" stroke="none" stroke-dasharray="none" d="M389.5389216 172.89999999999998M389.0941344 175.88378079999998L389.0941344 172.992664L389.1682656 172.992664C389.37212639999996 172.992664,389.501856 173.12239359999998,389.5389216 173.34478719999998C389.9281104 175.19806719999997,391.0956768 177.21814239999998,392.7080304 178.73783199999997C394.50571199999996 180.42431679999999,395.4138192 182.74091679999998,395.4138192 185.13164799999998C395.4138192 187.39264959999997,394.6169088 189.74631519999997,393.00455519999997 191.69225919999997C392.7265632 192.06291519999996,392.7080304 192.06291519999996,392.52270239999996 192.06291519999996C392.3003088 192.06291519999996,392.15204639999996 191.89611999999997,392.15204639999996 191.67372639999996C392.15204639999996 191.50693119999997,392.17057919999996 191.4698656,392.3559072 191.2660048C393.76439999999997 189.56098719999997,394.46864639999995 187.5038464,394.46864639999995 185.5393696C394.46864639999995 183.7972864,393.9126624 182.12933439999998,392.7636288 180.86910399999996C392.0593824 180.09072639999997,390.7620864 179.34941439999997,389.1126672 178.77489759999997C389.1126672 178.75636479999997,389.0941344 178.18184799999997,389.0941344 175.88378079999998">
</path>
</g>
</g>
<g class="vf-modifiers">
</g>
</g>
<path stroke-width="1" fill="none" stroke="#000000" stroke-dasharray="none" d="M383.35688319999997 189.74999999999997L396.35688319999997 180.74999999999997Z">
</path>
</g>
</g>
<g class="vf-stavenote" id="vf-auto25616">
<g class="vf-note" pointer-events="bounding-box">
<g class="vf-notehead" pointer-events="bounding-box">
<path stroke-width="0.3" fill="#000000" stroke="none" stroke-dasharray="none" d="M438.86931119999997 197.99999999999997M446.2262712 192.77711999999997C446.3385912 192.77711999999997,446.5070712 192.77711999999997,446.5351512 192.77711999999997C446.5351512 192.77711999999997,446.56323119999996 192.77711999999997,446.56323119999996 192.77711999999997C446.56323119999996 192.77711999999997,446.73171119999995 192.77711999999997,446.87211119999995 192.77711999999997C449.39931119999994 192.91751999999997,450.88755119999996 194.57423999999997,450.88755119999996 196.65215999999998C450.88755119999996 197.66303999999997,450.5505912 198.81431999999998,449.7081912 199.90943999999996C448.10763119999996 202.07159999999996,445.4961912 203.25095999999996,443.22171119999996 203.25095999999996C441.4526712 203.25095999999996,439.9363512 202.54895999999997,439.20627119999995 201.11687999999998C438.9816312 200.55527999999998,438.86931119999997 200.02175999999997,438.86931119999997 199.43207999999998C438.86931119999997 196.37135999999998,442.2950712 192.97367999999997,446.2262712 192.77711999999997">
</path>
</g>
</g>
<g class="vf-modifiers">
</g>
</g>
<g class="vf-stavenote" id="vf-auto25626">
<g class="vf-note" pointer-events="bounding-box">
<g class="vf-notehead" pointer-events="bounding-box">
<path stroke-width="0.3" fill="#000000" stroke="none" stroke-dasharray="none" d="M495.38173919999997 197.99999999999997M502.7386992 192.77711999999997C502.8510192 192.77711999999997,503.0194992 192.77711999999997,503.0475792 192.77711999999997C503.0475792 192.77711999999997,503.07565919999996 192.77711999999997,503.07565919999996 192.77711999999997C503.07565919999996 192.77711999999997,503.24413919999995 192.77711999999997,503.38453919999995 192.77711999999997C505.91173919999994 192.91751999999997,507.39997919999996 194.57423999999997,507.39997919999996 196.65215999999998C507.39997919999996 197.66303999999997,507.0630192 198.81431999999998,506.2206192 199.90943999999996C504.62005919999996 202.07159999999996,502.0086192 203.25095999999996,499.73413919999996 203.25095999999996C497.9650992 203.25095999999996,496.4487792 202.54895999999997,495.71869919999995 201.11687999999998C495.4940592 200.55527999999998,495.38173919999997 200.02175999999997,495.38173919999997 199.43207999999998C495.38173919999997 196.37135999999998,498.8074992 192.97367999999997,502.7386992 192.77711999999997">
</path>
</g>
</g>
<g class="vf-modifiers">
<g class="vf-stavenote" id="vf-auto25636">
<g class="vf-note" pointer-events="bounding-box">
<g class="vf-stem" pointer-events="bounding-box">
<path stroke-width="1.5" fill="none" stroke="#000000" stroke-dasharray="none" d="M476.69970079999996 197.99999999999997L476.69970079999996 174.89999999999998">
</path>
</g>
<g class="vf-notehead" pointer-events="bounding-box">
<path stroke-width="0.3" fill="#000000" stroke="none" stroke-dasharray="none" d="M469.51766239999995 197.99999999999997M474.37325599999997 194.55289919999998C474.4473871999999 194.55289919999998,474.55858399999994 194.55289919999998,474.57711679999994 194.55289919999998C474.57711679999994 194.55289919999998,474.59564959999994 194.55289919999998,474.59564959999994 194.55289919999998C474.59564959999994 194.55289919999998,474.70684639999996 194.55289919999998,474.7995104 194.55289919999998C476.46746239999993 194.64556319999997,477.44970079999996 195.73899839999996,477.44970079999996 197.11042559999999C477.44970079999996 197.77760639999997,477.2273071999999 198.53745119999996,476.67132319999996 199.26023039999998C475.6149535999999 200.68725599999996,473.89140319999996 201.46563359999996,472.39024639999997 201.46563359999996C471.22267999999997 201.46563359999996,470.22190879999994 201.00231359999998,469.7400559999999 200.05714079999998C469.59179359999996 199.68648479999996,469.51766239999995 199.33436159999997,469.51766239999995 198.94517279999997C469.51766239999995 196.92509759999996,471.77866399999994 194.68262879999997,474.37325599999997 194.55289919999998">
</path>
</g>
<g class="vf-flag" pointer-events="bounding-box">
<path stroke-width="0.3" fill="#000000" stroke="none" stroke-dasharray="none" d="M476.69970079999996 172.89999999999998M476.25491359999995 175.88378079999998L476.25491359999995 172.992664L476.32904479999996 172.992664C476.53290559999994 172.992664,476.66263519999995 173.12239359999998,476.69970079999996 173.34478719999998C477.08888959999996 175.19806719999997,478.25645599999996 177.21814239999998,479.86880959999996 178.73783199999997C481.66649119999994 180.42431679999999,482.57459839999996 182.74091679999998,482.57459839999996 185.13164799999998C482.57459839999996 187.39264959999997,481.77768799999996 189.74631519999997,480.16533439999995 191.69225919999997C479.88734239999997 192.06291519999996,479.86880959999996 192.06291519999996,479.68348159999994 192.06291519999996C479.46108799999996 192.06291519999996,479.31282559999994 191.89611999999997,479.31282559999994 191.67372639999996C479.31282559999994 191.50693119999997,479.33135839999994 191.4698656,479.51668639999997 191.2660048C480.92517919999995 189.56098719999997,481.62942559999993 187.5038464,481.62942559999993 185.5393696C481.62942559999993 183.7972864,481.07344159999997 182.12933439999998,479.92440799999997 180.86910399999996C479.2201616 180.09072639999997,477.92286559999997 179.34941439999997,476.27344639999995 178.77489759999997C476.27344639999995 178.75636479999997,476.25491359999995 178.18184799999997,476.25491359999995 175.88378079999998">
</path>
</g>
</g>
<g class="vf-modifiers">
</g>
</g>
<path stroke-width="1" fill="none" stroke="#000000" stroke-dasharray="none" d="M470.51766239999995 189.74999999999997L483.51766239999995 180.74999999999997Z">
</path>
</g>
</g>
<g class="vf-stavenote" id="vf-auto25650">
<g class="vf-note" pointer-events="bounding-box">
<g class="vf-notehead" pointer-events="bounding-box">
<path stroke-width="0.3" fill="#000000" stroke="none" stroke-dasharray="none" d="M526.0300904 197.99999999999997M533.3870503999999 192.77711999999997C533.4993704 192.77711999999997,533.6678503999999 192.77711999999997,533.6959304 192.77711999999997C533.6959304 192.77711999999997,533.7240104 192.77711999999997,533.7240104 192.77711999999997C533.7240104 192.77711999999997,533.8924903999999 192.77711999999997,534.0328903999999 192.77711999999997C536.5600903999999 192.91751999999997,538.0483303999999 194.57423999999997,538.0483303999999 196.65215999999998C538.0483303999999 197.66303999999997,537.7113704 198.81431999999998,536.8689704 199.90943999999996C535.2684104 202.07159999999996,532.6569704 203.25095999999996,530.3824903999999 203.25095999999996C528.6134503999999 203.25095999999996,527.0971304 202.54895999999997,526.3670503999999 201.11687999999998C526.1424103999999 200.55527999999998,526.0300904 200.02175999999997,526.0300904 199.43207999999998C526.0300904 196.37135999999998,529.4558503999999 192.97367999999997,533.3870503999999 192.77711999999997">
</path>
</g>
</g>
<g class="vf-modifiers">
</g>
</g>
<g class="vf-stavenote" id="vf-auto25660">
<g class="vf-note" pointer-events="bounding-box">
<g class="vf-notehead" pointer-events="bounding-box">
<path stroke-width="0.3" fill="#000000" stroke="none" stroke-dasharray="none" d="M582.5425184000001 197.99999999999997M589.8994784 192.77711999999997C590.0117984000001 192.77711999999997,590.1802784 192.77711999999997,590.2083584000001 192.77711999999997C590.2083584000001 192.77711999999997,590.2364384000001 192.77711999999997,590.2364384000001 192.77711999999997C590.2364384000001 192.77711999999997,590.4049184 192.77711999999997,590.5453184 192.77711999999997C593.0725184 192.91751999999997,594.5607584 194.57423999999997,594.5607584 196.65215999999998C594.5607584 197.66303999999997,594.2237984000001 198.81431999999998,593.3813984000001 199.90943999999996C591.7808384000001 202.07159999999996,589.1693984000001 203.25095999999996,586.8949184 203.25095999999996C585.1258784 203.25095999999996,583.6095584000001 202.54895999999997,582.8794784 201.11687999999998C582.6548384 200.55527999999998,582.5425184000001 200.02175999999997,582.5425184000001 199.43207999999998C582.5425184000001 196.37135999999998,585.9682784 192.97367999999997,589.8994784 192.77711999999997">
</path>
</g>
</g>
<g class="vf-modifiers">
<g class="vf-stavenote" id="vf-auto25670">
<g class="vf-note" pointer-events="bounding-box">
<g class="vf-stem" pointer-events="bounding-box">
<path stroke-width="1.5" fill="none" stroke="#000000" stroke-dasharray="none" d="M563.86048 197.99999999999997L563.86048 174.89999999999998">
</path>
</g>
<g class="vf-notehead" pointer-events="bounding-box">
<path stroke-width="0.3" fill="#000000" stroke="none" stroke-dasharray="none" d="M556.6784416 197.99999999999997M561.5340352000001 194.55289919999998C561.6081664000001 194.55289919999998,561.7193632000001 194.55289919999998,561.7378960000001 194.55289919999998C561.7378960000001 194.55289919999998,561.7564288000001 194.55289919999998,561.7564288000001 194.55289919999998C561.7564288000001 194.55289919999998,561.8676256 194.55289919999998,561.9602896 194.55289919999998C563.6282416 194.64556319999997,564.61048 195.73899839999996,564.61048 197.11042559999999C564.61048 197.77760639999997,564.3880864 198.53745119999996,563.8321024 199.26023039999998C562.7757328 200.68725599999996,561.0521824 201.46563359999996,559.5510256 201.46563359999996C558.3834592000001 201.46563359999996,557.382688 201.00231359999998,556.9008352000001 200.05714079999998C556.7525728 199.68648479999996,556.6784416 199.33436159999997,556.6784416 198.94517279999997C556.6784416 196.92509759999996,558.9394432 194.68262879999997,561.5340352000001 194.55289919999998">
</path>
</g>
<g class="vf-flag" pointer-events="bounding-box">
<path stroke-width="0.3" fill="#000000" stroke="none" stroke-dasharray="none" d="M563.86048 172.89999999999998M563.4156928000001 175.88378079999998L563.4156928000001 172.992664L563.489824 172.992664C563.6936848 172.992664,563.8234144 173.12239359999998,563.86048 173.34478719999998C564.2496688000001 175.19806719999997,565.4172352 177.21814239999998,567.0295888 178.73783199999997C568.8272704000001 180.42431679999999,569.7353776000001 182.74091679999998,569.7353776000001 185.13164799999998C569.7353776000001 187.39264959999997,568.9384672000001 189.74631519999997,567.3261136000001 191.69225919999997C567.0481216000001 192.06291519999996,567.0295888 192.06291519999996,566.8442608 192.06291519999996C566.6218672 192.06291519999996,566.4736048000001 191.89611999999997,566.4736048000001 191.67372639999996C566.4736048000001 191.50693119999997,566.4921376000001 191.4698656,566.6774656 191.2660048C568.0859584000001 189.56098719999997,568.7902048000001 187.5038464,568.7902048000001 185.5393696C568.7902048000001 183.7972864,568.2342208 182.12933439999998,567.0851872000001 180.86910399999996C566.3809408000001 180.09072639999997,565.0836448 179.34941439999997,563.4342256000001 178.77489759999997C563.4342256000001 178.75636479999997,563.4156928000001 178.18184799999997,563.4156928000001 175.88378079999998">
</path>
</g>
</g>
<g class="vf-modifiers">
</g>
</g>
<path stroke-width="1" fill="none" stroke="#000000" stroke-dasharray="none" d="M557.6784416 189.74999999999997L570.6784416 180.74999999999997Z">
</path>
</g>
</g>
<g class="vf-stavenote" id="vf-auto25684">
<g class="vf-note" pointer-events="bounding-box">
<g class="vf-notehead" pointer-events="bounding-box">
<path stroke-width="0.3" fill="#000000" stroke="none" stroke-dasharray="none" d="M613.1908696 197.99999999999997M620.5478296 192.77711999999997C620.6601496000001 192.77711999999997,620.8286296 192.77711999999997,620.8567096 192.77711999999997C620.8567096 192.77711999999997,620.8847896000001 192.77711999999997,620.8847896000001 192.77711999999997C620.8847896000001 192.77711999999997,621.0532696 192.77711999999997,621.1936696 192.77711999999997C623.7208696 192.91751999999997,625.2091096 194.57423999999997,625.2091096 196.65215999999998C625.2091096 197.66303999999997,624.8721496000001 198.81431999999998,624.0297496000001 199.90943999999996C622.4291896000001 202.07159999999996,619.8177496000001 203.25095999999996,617.5432696 203.25095999999996C615.7742296 203.25095999999996,614.2579096000001 202.54895999999997,613.5278296 201.11687999999998C613.3031896 200.55527999999998,613.1908696 200.02175999999997,613.1908696 199.43207999999998C613.1908696 196.37135999999998,616.6166296 192.97367999999997,620.5478296 192.77711999999997">
</path>
</g>
</g>
<g class="vf-modifiers">
</g>
</g>
<g class="vf-stavenote" id="vf-auto25694">
<g class="vf-note" pointer-events="bounding-box">
<g class="vf-notehead" pointer-events="bounding-box">
<path stroke-width="0.3" fill="#000000" stroke="none" stroke-dasharray="none" d="M669.7032976 197.99999999999997M677.0602576 192.77711999999997C677.1725776000001 192.77711999999997,677.3410576 192.77711999999997,677.3691376 192.77711999999997C677.3691376 192.77711999999997,677.3972176000001 192.77711999999997,677.3972176000001 192.77711999999997C677.3972176000001 192.77711999999997,677.5656976 192.77711999999997,677.7060976 192.77711999999997C680.2332976 192.91751999999997,681.7215376 194.57423999999997,681.7215376 196.65215999999998C681.7215376 197.66303999999997,681.3845776000001 198.81431999999998,680.5421776000001 199.90943999999996C678.9416176000001 202.07159999999996,676.3301776000001 203.25095999999996,674.0556976 203.25095999999996C672.2866576 203.25095999999996,670.7703376000001 202.54895999999997,670.0402576 201.11687999999998C669.8156176 200.55527999999998,669.7032976 200.02175999999997,669.7032976 199.43207999999998C669.7032976 196.37135999999998,673.1290576 192.97367999999997,677.0602576 192.77711999999997">
</path>
</g>
</g>
<g class="vf-modifiers">
<g class="vf-stavenote" id="vf-auto25704">
<g class="vf-note" pointer-events="bounding-box">
<g class="vf-stem" pointer-events="bounding-box">
<path stroke-width="1.5" fill="none" stroke="#000000" stroke-dasharray="none" d="M651.0212592 197.99999999999997L651.0212592 174.89999999999998">
</path>
</g>
<g class="vf-notehead" pointer-events="bounding-box">
<path stroke-width="0.3" fill="#000000" stroke="none" stroke-dasharray="none" d="M643.8392208 197.99999999999997M648.6948144 194.55289919999998C648.7689456 194.55289919999998,648.8801424000001 194.55289919999998,648.8986752000001 194.55289919999998C648.8986752000001 194.55289919999998,648.9172080000001 194.55289919999998,648.9172080000001 194.55289919999998C648.9172080000001 194.55289919999998,649.0284048 194.55289919999998,649.1210688 194.55289919999998C650.7890208 194.64556319999997,651.7712592 195.73899839999996,651.7712592 197.11042559999999C651.7712592 197.77760639999997,651.5488656 198.53745119999996,650.9928816 199.26023039999998C649.936512 200.68725599999996,648.2129616 201.46563359999996,646.7118048 201.46563359999996C645.5442384 201.46563359999996,644.5434672 201.00231359999998,644.0616144 200.05714079999998C643.913352 199.68648479999996,643.8392208 199.33436159999997,643.8392208 198.94517279999997C643.8392208 196.92509759999996,646.1002224 194.68262879999997,648.6948144 194.55289919999998">
</path>
</g>
<g class="vf-flag" pointer-events="bounding-box">
<path stroke-width="0.3" fill="#000000" stroke="none" stroke-dasharray="none" d="M651.0212592 172.89999999999998M650.5764720000001 175.88378079999998L650.5764720000001 172.992664L650.6506032 172.992664C650.854464 172.992664,650.9841936 173.12239359999998,651.0212592 173.34478719999998C651.4104480000001 175.19806719999997,652.5780144 177.21814239999998,654.190368 178.73783199999997C655.9880496000001 180.42431679999999,656.8961568000001 182.74091679999998,656.8961568000001 185.13164799999998C656.8961568000001 187.39264959999997,656.0992464000001 189.74631519999997,654.4868928000001 191.69225919999997C654.2089008 192.06291519999996,654.190368 192.06291519999996,654.00504 192.06291519999996C653.7826464 192.06291519999996,653.6343840000001 191.89611999999997,653.6343840000001 191.67372639999996C653.6343840000001 191.50693119999997,653.6529168000001 191.4698656,653.8382448 191.2660048C655.2467376000001 189.56098719999997,655.9509840000001 187.5038464,655.9509840000001 185.5393696C655.9509840000001 183.7972864,655.395 182.12933439999998,654.2459664 180.86910399999996C653.54172 180.09072639999997,652.244424 179.34941439999997,650.5950048000001 178.77489759999997C650.5950048000001 178.75636479999997,650.5764720000001 178.18184799999997,650.5764720000001 175.88378079999998">
</path>
</g>
</g>
<g class="vf-modifiers">
</g>
</g>
<path stroke-width="1" fill="none" stroke="#000000" stroke-dasharray="none" d="M644.8392208 189.74999999999997L657.8392208 180.74999999999997Z">
</path>
</g>
</g>
<g class="vf-stavenote" id="vf-auto25718">
<g class="vf-note" pointer-events="bounding-box">
<g class="vf-notehead" pointer-events="bounding-box">
<path stroke-width="0.3" fill="#000000" stroke="none" stroke-dasharray="none" d="M700.3516488 197.99999999999997M707.7086088 192.77711999999997C707.8209288 192.77711999999997,707.9894088 192.77711999999997,708.0174888 192.77711999999997C708.0174888 192.77711999999997,708.0455688000001 192.77711999999997,708.0455688000001 192.77711999999997C708.0455688000001 192.77711999999997,708.2140488 192.77711999999997,708.3544488 192.77711999999997C710.8816488 192.91751999999997,712.3698888 194.57423999999997,712.3698888 196.65215999999998C712.3698888 197.66303999999997,712.0329288 198.81431999999998,711.1905288 199.90943999999996C709.5899688000001 202.07159999999996,706.9785288 203.25095999999996,704.7040488 203.25095999999996C702.9350088 203.25095999999996,701.4186888 202.54895999999997,700.6886088 201.11687999999998C700.4639688 200.55527999999998,700.3516488 200.02175999999997,700.3516488 199.43207999999998C700.3516488 196.37135999999998,703.7774088 192.97367999999997,707.7086088 192.77711999999997">
</path>
</g>
</g>
<g class="vf-modifiers">
</g>
</g>
<path stroke-width="1.5" fill="none" stroke="#000000" stroke-dasharray="none" d="M158.61071679999998 197.99999999999997L158.61071679999998 163.74999999999997">
</path>
<path stroke-width="1.5" fill="none" stroke="#000000" stroke-dasharray="none" d="M201.8891792 197.99999999999997L201.8891792 163.74999999999997">
</path>
<path stroke-width="1.5" fill="none" stroke="#000000" stroke-dasharray="none" d="M232.5375304 197.99999999999997L232.5375304 163.74999999999997">
</path>
<path stroke-width="0.3" fill="#000000" stroke="none" stroke-dasharray="none" d="M157.86071679999998 162.99999999999997L157.86071679999998 167.99999999999997L232.7875304 167.99999999999997L232.7875304 162.99999999999997Z">
</path>
<path stroke-width="0.3" fill="#000000" stroke="none" stroke-dasharray="none" d="M201.1391792 170.49999999999997L201.1391792 175.49999999999997L232.7875304 175.49999999999997L232.7875304 170.49999999999997Z">
</path>
<path stroke-width="1.5" fill="none" stroke="#000000" stroke-dasharray="none" d="M289.04995840000004 197.99999999999997L289.04995840000004 163.74999999999997">
</path>
<path stroke-width="1.5" fill="none" stroke="#000000" stroke-dasharray="none" d="M332.3284208 197.99999999999997L332.3284208 163.74999999999997">
</path>
<path stroke-width="1.5" fill="none" stroke="#000000" stroke-dasharray="none" d="M362.976772 197.99999999999997L362.976772 163.74999999999997">
</path>
<path stroke-width="0.3" fill="#000000" stroke="none" stroke-dasharray="none" d="M288.29995840000004 162.99999999999997L288.29995840000004 167.99999999999997L363.226772 167.99999999999997L363.226772 162.99999999999997Z">
</path>
<path stroke-width="0.3" fill="#000000" stroke="none" stroke-dasharray="none" d="M331.5784208 170.49999999999997L331.5784208 175.49999999999997L363.226772 175.49999999999997L363.226772 170.49999999999997Z">
</path>
<path stroke-width="1.5" fill="none" stroke="#000000" stroke-dasharray="none" d="M419.4892 197.99999999999997L419.4892 163.74999999999997">
</path>
<path stroke-width="1.5" fill="none" stroke="#000000" stroke-dasharray="none" d="M450.13755119999996 197.99999999999997L450.13755119999996 163.74999999999997">
</path>
<path stroke-width="1.5" fill="none" stroke="#000000" stroke-dasharray="none" d="M506.64997919999996 197.99999999999997L506.64997919999996 163.74999999999997">
</path>
<path stroke-width="1.5" fill="none" stroke="#000000" stroke-dasharray="none" d="M537.2983303999999 197.99999999999997L537.2983303999999 163.74999999999997">
</path>
<path stroke-width="0.3" fill="#000000" stroke="none" stroke-dasharray="none" d="M418.7392 162.99999999999997L418.7392 167.99999999999997L537.5483303999999 167.99999999999997L537.5483303999999 162.99999999999997Z">
</path>
<path stroke-width="0.3" fill="#000000" stroke="none" stroke-dasharray="none" d="M418.7392 170.49999999999997L418.7392 175.49999999999997L537.5483303999999 175.49999999999997L537.5483303999999 170.49999999999997Z">
</path>
<path stroke-width="1.5" fill="none" stroke="#000000" stroke-dasharray="none" d="M593.8107584 197.99999999999997L593.8107584 163.74999999999997">
</path>
<path stroke-width="1.5" fill="none" stroke="#000000" stroke-dasharray="none" d="M624.4591096 197.99999999999997L624.4591096 163.74999999999997">
</path>
<path stroke-width="1.5" fill="none" stroke="#000000" stroke-dasharray="none" d="M680.9715376 197.99999999999997L680.9715376 163.74999999999997">
</path>
<path stroke-width="1.5" fill="none" stroke="#000000" stroke-dasharray="none" d="M711.6198888 197.99999999999997L711.6198888 163.74999999999997">
</path>
<path stroke-width="0.3" fill="#000000" stroke="none" stroke-dasharray="none" d="M593.0607584 162.99999999999997L593.0607584 167.99999999999997L711.8698888 167.99999999999997L711.8698888 162.99999999999997Z">
</path>
<path stroke-width="0.3" fill="#000000" stroke="none" stroke-dasharray="none" d="M593.0607584 170.49999999999997L593.0607584 175.49999999999997L711.8698888 175.49999999999997L711.8698888 170.49999999999997Z">
</path>
<path stroke-width="1" fill="none" stroke="black" stroke-dasharray="none" d="M729.6317867519999 197.99999999999997L1167.85683712 197.99999999999997">
</path>
<rect stroke-width="0.3" fill="black" stroke="black" stroke-dasharray="none" x="1162.85683712" y="177.49999999999997" width="1" height="41">
</rect>
<rect stroke-width="0.3" fill="black" stroke="black" stroke-dasharray="none" x="1165.85683712" y="177.49999999999997" width="3" height="41">
</rect>
<path stroke-width="0.3" fill="black" stroke="none" stroke-dasharray="none" d="M1161.85683712 193.49999999999997 A2 2 0 0 0 1157.85683712 193.49999999999997M1157.85683712 193.49999999999997 A2 2 0 0 0 1161.85683712 193.49999999999997">
</path>
<path stroke-width="0.3" fill="black" stroke="none" stroke-dasharray="none" d="M1161.85683712 203.49999999999997 A2 2 0 0 0 1157.85683712 203.49999999999997M1157.85683712 203.49999999999997 A2 2 0 0 0 1161.85683712 203.49999999999997">
</path>
<path stroke-width="0.3" fill="black" stroke="none" stroke-dasharray="none" d="M734.7613867519999 197.99999999999997M740.4349867519999 179.33759999999998C740.550186752 179.33759999999998,740.7517867519999 179.33759999999998,740.982186752 179.33759999999998C741.4429867519999 179.33759999999998,742.0477867519999 179.33759999999998,742.1917867519999 179.39519999999996C744.351786752 179.65439999999998,746.0797867519999 180.74879999999996,746.8285867519999 182.27519999999998C747.0877867519999 182.79359999999997,747.2029867519999 183.34079999999997,747.2029867519999 183.91679999999997C747.2029867519999 185.32799999999997,746.4253867519999 186.94079999999997,745.0141867519999 188.15039999999996C744.0349867519999 188.98559999999998,743.0557867519999 189.50399999999996,741.5293867519999 189.99359999999996C739.5421867519999 190.62719999999996,737.8429867519999 191.75039999999998,736.7485867519999 193.10399999999998C736.7485867519999 193.10399999999998,736.7485867519999 193.13279999999997,736.7485867519999 193.13279999999997C736.7485867519999 193.13279999999997,736.7485867519999 193.13279999999997,736.7485867519999 193.13279999999997C736.7485867519999 193.13279999999997,736.834986752 193.10399999999998,736.8925867519999 193.01759999999996C737.9869867519999 192.12479999999996,739.4557867519999 191.60639999999998,740.7805867519999 191.60639999999998C741.8749867519999 191.60639999999998,742.6525867519999 191.80799999999996,743.6893867519999 192.38399999999996C744.3229867519999 192.70079999999996,744.8989867519999 192.84479999999996,745.4461867519999 192.84479999999996C745.6765867519999 192.84479999999996,745.9069867519999 192.84479999999996,746.1661867519999 192.78719999999998C746.5405867519999 192.70079999999996,746.9437867519999 192.41279999999998,747.0877867519999 192.18239999999997C747.1741867519999 191.98079999999996,747.3181867519999 191.89439999999996,747.4909867519999 191.89439999999996C747.721386752 191.89439999999996,747.9517867519999 192.06719999999999,747.9517867519999 192.32639999999998C747.9517867519999 192.52799999999996,747.6925867519999 193.24799999999996,747.4621867519999 193.7376C746.5405867519999 195.58079999999998,744.9277867519999 196.73279999999997,743.372586752 196.73279999999997C743.2573867519999 196.73279999999997,743.1709867519999 196.73279999999997,743.0557867519999 196.70399999999998C742.6525867519999 196.70399999999998,742.4797867519999 196.58879999999996,741.961386752 196.24319999999997C740.8669867519999 195.52319999999997,739.4845867519999 195.14879999999997,738.2749867519999 195.14879999999997C737.7565867519999 195.14879999999997,737.2957867519999 195.20639999999997,736.8637867519999 195.37919999999997C736.2877867519999 195.58079999999998,735.7405867519999 195.92639999999997,735.567786752 196.18559999999997C735.4813867519999 196.38719999999998,735.3373867519999 196.44479999999996,735.1645867519999 196.44479999999996C735.0205867519999 196.44479999999996,734.8765867519999 196.38719999999998,734.790186752 196.21439999999998L734.7325867519999 196.128L734.7325867519999 195.72479999999996C734.7325867519999 195.37919999999997,734.7613867519999 195.26399999999998,734.7613867519999 195.14879999999997C734.790186752 195.06239999999997,734.8189867519999 194.88959999999997,734.8189867519999 194.74559999999997C735.3373867519999 192.32639999999998,737.0941867519999 190.16639999999998,739.4845867519999 189.10079999999996C741.4429867519999 188.17919999999998,742.738986752 186.53759999999997,742.9693867519999 184.46399999999997C743.0269867519999 184.29119999999998,743.0269867519999 184.14719999999997,743.0269867519999 183.97439999999997C743.0269867519999 182.13119999999998,741.6445867519999 180.86399999999998,739.6861867519999 180.86399999999998C739.5421867519999 180.86399999999998,739.3693867519999 180.86399999999998,739.225386752 180.86399999999998C738.937386752 180.89279999999997,738.8509867519999 180.89279999999997,738.8509867519999 180.95039999999997C738.8509867519999 180.95039999999997,738.8509867519999 180.97919999999996,738.937386752 181.03679999999997C739.5997867519999 181.41119999999998,739.916586752 182.13119999999998,739.916586752 182.82239999999996C739.916586752 183.71519999999998,739.4557867519999 184.55039999999997,738.5629867519999 184.89599999999996C738.2749867519999 184.98239999999998,737.9869867519999 185.01119999999997,737.7565867519999 185.01119999999997C736.546986752 185.01119999999997,735.5389867519999 183.97439999999997,735.5389867519999 182.73599999999996C735.5389867519999 182.50559999999996,735.5389867519999 182.27519999999998,735.5965867519999 182.01599999999996C736.0285867519999 180.69119999999998,738.0733867519999 179.59679999999997,740.4349867519999 179.33759999999998M741.327786752 198.02879999999996L741.3853867519999 198.02879999999996L741.2989867519999 198.02879999999996L741.327786752 198.02879999999996M741.327786752 178.61759999999998L741.3853867519999 178.61759999999998L741.2989867519999 178.61759999999998L741.327786752 178.61759999999998">
</path>
<path stroke-width="0.3" fill="black" stroke="none" stroke-dasharray="none" d="M734.6317867519999 217.99999999999997M739.642986752 199.65439999999998C739.6717867519999 199.62559999999996,740.074986752 199.62559999999996,741.3133867519999 199.62559999999996C741.687786752 199.62559999999996,742.0909867519999 199.62559999999996,742.609386752 199.62559999999996L745.5181867519999 199.62559999999996L745.6045867519999 199.71199999999996C745.7485867519999 199.79839999999996,745.834986752 199.94239999999996,745.834986752 200.05759999999998C745.834986752 200.23039999999997,745.7485867519999 200.34559999999996,745.633386752 200.46079999999998C745.6045867519999 200.54719999999998,745.345386752 200.77759999999998,745.1725867519999 201.03679999999997L743.646186752 202.79359999999997L741.687786752 205.01119999999997L740.6509867519999 206.19199999999998L739.095786752 207.97759999999997L737.050986752 210.31039999999996C736.705386752 210.74239999999998,736.330986752 211.08799999999997,736.330986752 211.08799999999997C736.330986752 211.08799999999997,736.330986752 211.08799999999997,736.330986752 211.08799999999997C736.330986752 211.14559999999997,736.5901867519999 211.14559999999997,738.9805867519999 211.14559999999997L741.6013867519999 211.14559999999997L741.6013867519999 209.27359999999996C741.6013867519999 207.37279999999998,741.6013867519999 207.34399999999997,741.6301867519999 207.31519999999998C741.687786752 207.22879999999998,741.9469867519999 206.91199999999998,742.954986752 205.73119999999997L743.3581867519999 205.29919999999998L743.7613867519999 204.86719999999997L744.366186752 204.08959999999996L744.999786752 203.42719999999997L745.3165867519999 203.02399999999997C745.4317867519999 202.85119999999998,745.6045867519999 202.82239999999996,745.7485867519999 202.82239999999996C745.9213867519999 202.82239999999996,746.0653867519999 202.90879999999999,746.1517867519999 203.05279999999996C746.180586752 203.13919999999996,746.180586752 203.19679999999997,746.180586752 205.32799999999997C746.180586752 205.81759999999997,746.180586752 206.42239999999998,746.180586752 207.14239999999998L746.180586752 211.14559999999997L746.900586752 211.14559999999997C747.5629867519999 211.14559999999997,747.591786752 211.14559999999997,747.6781867519999 211.17439999999996C747.9085867519999 211.26079999999996,748.023786752 211.49119999999996,748.023786752 211.75039999999998C748.023786752 211.89439999999996,747.9949867519999 212.06719999999999,747.879786752 212.18239999999997C747.7069867519999 212.32639999999998,747.6781867519999 212.32639999999998,746.900586752 212.32639999999998L746.180586752 212.32639999999998L746.180586752 212.81599999999997C746.2093867519999 214.28479999999996,746.4973867519999 214.86079999999998,747.6205867519999 215.46559999999997C748.023786752 215.66719999999998,748.1101867519999 215.72479999999996,748.1101867519999 216.01279999999997C748.1101867519999 216.21439999999998,748.0525867519999 216.30079999999998,747.9085867519999 216.41599999999997L747.8221867519999 216.44479999999996L743.876586752 216.44479999999996L739.9597867519999 216.44479999999996L739.8733867519999 216.41599999999997C739.7005867519999 216.30079999999998,739.6717867519999 216.21439999999998,739.6717867519999 216.01279999999997C739.6717867519999 215.72479999999996,739.7005867519999 215.66719999999998,740.132586752 215.46559999999997C741.255786752 214.86079999999998,741.543786752 214.28479999999996,741.543786752 212.81599999999997L741.543786752 212.32639999999998L738.231786752 212.32639999999998C737.6269867519999 212.38399999999996,737.1373867519999 212.38399999999996,736.7341867519999 212.38399999999996C734.9197867519999 212.38399999999996,734.8909867519999 212.32639999999998,734.862186752 212.32639999999998C734.6893867519999 212.26879999999997,734.6317867519999 212.09599999999998,734.6317867519999 211.89439999999996C734.6317867519999 211.89439999999996,734.6317867519999 211.89439999999996,734.6317867519999 211.89439999999996C734.6317867519999 211.69279999999998,734.6317867519999 211.69279999999998,735.207786752 211.0304C737.6269867519999 208.09279999999998,739.3261867519999 203.83039999999997,739.3261867519999 200.43199999999996C739.3261867519999 199.91359999999997,739.4125867519999 199.74079999999998,739.642986752 199.65439999999998M741.3709867519999 218.02879999999996L741.399786752 218.02879999999996L741.3133867519999 218.02879999999996L741.3709867519999 218.02879999999996M741.3709867519999 198.61759999999998L741.399786752 198.61759999999998L741.3133867519999 198.61759999999998L741.3709867519999 198.61759999999998">
</path>
<g class="vf-stavenote" id="vf-auto25733">
<g class="vf-note" pointer-events="bounding-box">
<g class="vf-notehead" pointer-events="bounding-box">
<path stroke-width="0.3" fill="#000000" stroke="none" stroke-dasharray="none" d="M785.9742635519999 197.99999999999997M793.3312235519999 192.77711999999997C793.4435435519999 192.77711999999997,793.6120235519999 192.77711999999997,793.6401035519999 192.77711999999997C793.6401035519999 192.77711999999997,793.668183552 192.77711999999997,793.668183552 192.77711999999997C793.668183552 192.77711999999997,793.8366635519999 192.77711999999997,793.9770635519999 192.77711999999997C796.5042635519999 192.91751999999997,797.9925035519999 194.57423999999997,797.9925035519999 196.65215999999998C797.9925035519999 197.66303999999997,797.6555435519999 198.81431999999998,796.8131435519999 199.90943999999996C795.212583552 202.07159999999996,792.6011435519999 203.25095999999996,790.3266635519999 203.25095999999996C788.5576235519999 203.25095999999996,787.0413035519999 202.54895999999997,786.3112235519999 201.11687999999998C786.0865835519999 200.55527999999998,785.9742635519999 200.02175999999997,785.9742635519999 199.43207999999998C785.9742635519999 196.37135999999998,789.4000235519999 192.97367999999997,793.3312235519999 192.77711999999997">
</path>
</g>
</g>
<g class="vf-modifiers">
<g class="vf-stavenote" id="vf-auto25743">
<g class="vf-note" pointer-events="bounding-box">
<g class="vf-stem" pointer-events="bounding-box">
<path stroke-width="1.5" fill="none" stroke="#000000" stroke-dasharray="none" d="M767.2922251519999 197.99999999999997L767.2922251519999 174.89999999999998">
</path>
</g>
<g class="vf-notehead" pointer-events="bounding-box">
<path stroke-width="0.3" fill="#000000" stroke="none" stroke-dasharray="none" d="M760.1101867519999 197.99999999999997M764.9657803519999 194.55289919999998C765.0399115519999 194.55289919999998,765.1511083519999 194.55289919999998,765.1696411519999 194.55289919999998C765.1696411519999 194.55289919999998,765.1881739519999 194.55289919999998,765.1881739519999 194.55289919999998C765.1881739519999 194.55289919999998,765.2993707519998 194.55289919999998,765.3920347519999 194.55289919999998C767.0599867519999 194.64556319999997,768.0422251519999 195.73899839999996,768.0422251519999 197.11042559999999C768.0422251519999 197.77760639999997,767.8198315519999 198.53745119999996,767.2638475519999 199.26023039999998C766.2074779519999 200.68725599999996,764.4839275519998 201.46563359999996,762.9827707519999 201.46563359999996C761.8152043519999 201.46563359999996,760.8144331519999 201.00231359999998,760.3325803519999 200.05714079999998C760.1843179519999 199.68648479999996,760.1101867519999 199.33436159999997,760.1101867519999 198.94517279999997C760.1101867519999 196.92509759999996,762.3711883519999 194.68262879999997,764.9657803519999 194.55289919999998">
</path>
</g>
<g class="vf-flag" pointer-events="bounding-box">
<path stroke-width="0.3" fill="#000000" stroke="none" stroke-dasharray="none" d="M767.2922251519999 172.89999999999998M766.847437952 175.88378079999998L766.847437952 172.992664L766.9215691519998 172.992664C767.1254299519999 172.992664,767.2551595519999 173.12239359999998,767.2922251519999 173.34478719999998C767.681413952 175.19806719999997,768.8489803519999 177.21814239999998,770.4613339519999 178.73783199999997C772.2590155519999 180.42431679999999,773.167122752 182.74091679999998,773.167122752 185.13164799999998C773.167122752 187.39264959999997,772.370212352 189.74631519999997,770.757858752 191.69225919999997C770.4798667519999 192.06291519999996,770.4613339519999 192.06291519999996,770.2760059519999 192.06291519999996C770.0536123519998 192.06291519999996,769.9053499519999 191.89611999999997,769.9053499519999 191.67372639999996C769.9053499519999 191.50693119999997,769.9238827519999 191.4698656,770.1092107519999 191.2660048C771.517703552 189.56098719999997,772.2219499519999 187.5038464,772.2219499519999 185.5393696C772.2219499519999 183.7972864,771.6659659519999 182.12933439999998,770.5169323519999 180.86910399999996C769.8126859519999 180.09072639999997,768.5153899519999 179.34941439999997,766.865970752 178.77489759999997C766.865970752 178.75636479999997,766.847437952 178.18184799999997,766.847437952 175.88378079999998">
</path>
</g>
</g>
<g class="vf-modifiers">
</g>
</g>
<path stroke-width="1" fill="none" stroke="#000000" stroke-dasharray="none" d="M761.1101867519999 189.74999999999997L774.1101867519999 180.74999999999997Z">
</path>
</g>
</g>
<g class="vf-stavenote" id="vf-auto25757">
<g class="vf-note" pointer-events="bounding-box">
<g class="vf-notehead" pointer-events="bounding-box">
<path stroke-width="0.3" fill="#000000" stroke="none" stroke-dasharray="none" d="M824.2324251519999 197.99999999999997M831.5893851519999 192.77711999999997C831.7017051519999 192.77711999999997,831.8701851519999 192.77711999999997,831.8982651519999 192.77711999999997C831.8982651519999 192.77711999999997,831.926345152 192.77711999999997,831.926345152 192.77711999999997C831.926345152 192.77711999999997,832.0948251519999 192.77711999999997,832.2352251519999 192.77711999999997C834.7624251519999 192.91751999999997,836.2506651519999 194.57423999999997,836.2506651519999 196.65215999999998C836.2506651519999 197.66303999999997,835.9137051519999 198.81431999999998,835.0713051519999 199.90943999999996C833.470745152 202.07159999999996,830.8593051519999 203.25095999999996,828.5848251519999 203.25095999999996C826.8157851519999 203.25095999999996,825.2994651519999 202.54895999999997,824.5693851519999 201.11687999999998C824.3447451519999 200.55527999999998,824.2324251519999 200.02175999999997,824.2324251519999 199.43207999999998C824.2324251519999 196.37135999999998,827.6581851519999 192.97367999999997,831.5893851519999 192.77711999999997">
</path>
</g>
</g>
<g class="vf-modifiers">
</g>
</g>
<g class="vf-stavenote" id="vf-auto25767">
<g class="vf-note" pointer-events="bounding-box">
<g class="vf-notehead" pointer-events="bounding-box">
<path stroke-width="0.3" fill="#000000" stroke="none" stroke-dasharray="none" d="M888.3546635519999 197.99999999999997M895.7116235519999 192.77711999999997C895.823943552 192.77711999999997,895.9924235519999 192.77711999999997,896.0205035519999 192.77711999999997C896.0205035519999 192.77711999999997,896.048583552 192.77711999999997,896.048583552 192.77711999999997C896.048583552 192.77711999999997,896.2170635519999 192.77711999999997,896.3574635519999 192.77711999999997C898.8846635519999 192.91751999999997,900.3729035519999 194.57423999999997,900.3729035519999 196.65215999999998C900.3729035519999 197.66303999999997,900.0359435519999 198.81431999999998,899.1935435519999 199.90943999999996C897.592983552 202.07159999999996,894.981543552 203.25095999999996,892.7070635519999 203.25095999999996C890.9380235519999 203.25095999999996,889.4217035519999 202.54895999999997,888.6916235519999 201.11687999999998C888.4669835519999 200.55527999999998,888.3546635519999 200.02175999999997,888.3546635519999 199.43207999999998C888.3546635519999 196.37135999999998,891.7804235519999 192.97367999999997,895.7116235519999 192.77711999999997">
</path>
</g>
</g>
<g class="vf-modifiers">
<g class="vf-stavenote" id="vf-auto25777">
<g class="vf-note" pointer-events="bounding-box">
<g class="vf-stem" pointer-events="bounding-box">
<path stroke-width="1.5" fill="none" stroke="#000000" stroke-dasharray="none" d="M869.6726251519999 197.99999999999997L869.6726251519999 174.89999999999998">
</path>
</g>
<g class="vf-notehead" pointer-events="bounding-box">
<path stroke-width="0.3" fill="#000000" stroke="none" stroke-dasharray="none" d="M862.4905867519999 197.99999999999997M867.3461803519999 194.55289919999998C867.4203115519999 194.55289919999998,867.531508352 194.55289919999998,867.550041152 194.55289919999998C867.550041152 194.55289919999998,867.568573952 194.55289919999998,867.568573952 194.55289919999998C867.568573952 194.55289919999998,867.6797707519999 194.55289919999998,867.7724347519999 194.55289919999998C869.4403867519999 194.64556319999997,870.4226251519999 195.73899839999996,870.4226251519999 197.11042559999999C870.4226251519999 197.77760639999997,870.2002315519999 198.53745119999996,869.6442475519999 199.26023039999998C868.5878779519999 200.68725599999996,866.8643275519998 201.46563359999996,865.3631707519999 201.46563359999996C864.1956043519999 201.46563359999996,863.1948331519999 201.00231359999998,862.7129803519999 200.05714079999998C862.5647179519999 199.68648479999996,862.4905867519999 199.33436159999997,862.4905867519999 198.94517279999997C862.4905867519999 196.92509759999996,864.7515883519999 194.68262879999997,867.3461803519999 194.55289919999998">
</path>
</g>
<g class="vf-flag" pointer-events="bounding-box">
<path stroke-width="0.3" fill="#000000" stroke="none" stroke-dasharray="none" d="M869.6726251519999 172.89999999999998M869.227837952 175.88378079999998L869.227837952 172.992664L869.3019691519999 172.992664C869.5058299519999 172.992664,869.6355595519999 173.12239359999998,869.6726251519999 173.34478719999998C870.061813952 175.19806719999997,871.2293803519999 177.21814239999998,872.8417339519999 178.73783199999997C874.639415552 180.42431679999999,875.547522752 182.74091679999998,875.547522752 185.13164799999998C875.547522752 187.39264959999997,874.750612352 189.74631519999997,873.138258752 191.69225919999997C872.8602667519999 192.06291519999996,872.8417339519999 192.06291519999996,872.6564059519999 192.06291519999996C872.4340123519999 192.06291519999996,872.285749952 191.89611999999997,872.285749952 191.67372639999996C872.285749952 191.50693119999997,872.304282752 191.4698656,872.4896107519999 191.2660048C873.898103552 189.56098719999997,874.6023499519999 187.5038464,874.6023499519999 185.5393696C874.6023499519999 183.7972864,874.0463659519999 182.12933439999998,872.8973323519999 180.86910399999996C872.1930859519999 180.09072639999997,870.8957899519999 179.34941439999997,869.246370752 178.77489759999997C869.246370752 178.75636479999997,869.227837952 178.18184799999997,869.227837952 175.88378079999998">
</path>
</g>
</g>
<g class="vf-modifiers">
</g>
</g>
<path stroke-width="1" fill="none" stroke="#000000" stroke-dasharray="none" d="M863.4905867519999 189.74999999999997L876.4905867519999 180.74999999999997Z">
</path>
</g>
</g>
<g class="vf-stavenote" id="vf-auto25791">
<g class="vf-note" pointer-events="bounding-box">
<g class="vf-notehead" pointer-events="bounding-box">
<path stroke-width="0.3" fill="#000000" stroke="none" stroke-dasharray="none" d="M926.6128251519999 197.99999999999997M933.9697851519999 192.77711999999997C934.0821051519999 192.77711999999997,934.2505851519999 192.77711999999997,934.2786651519999 192.77711999999997C934.2786651519999 192.77711999999997,934.306745152 192.77711999999997,934.306745152 192.77711999999997C934.306745152 192.77711999999997,934.4752251519999 192.77711999999997,934.6156251519999 192.77711999999997C937.1428251519999 192.91751999999997,938.6310651519999 194.57423999999997,938.6310651519999 196.65215999999998C938.6310651519999 197.66303999999997,938.2941051519999 198.81431999999998,937.4517051519999 199.90943999999996C935.851145152 202.07159999999996,933.2397051519999 203.25095999999996,930.9652251519999 203.25095999999996C929.1961851519999 203.25095999999996,927.6798651519999 202.54895999999997,926.9497851519999 201.11687999999998C926.7251451519999 200.55527999999998,926.6128251519999 200.02175999999997,926.6128251519999 199.43207999999998C926.6128251519999 196.37135999999998,930.0385851519999 192.97367999999997,933.9697851519999 192.77711999999997">
</path>
</g>
</g>
<g class="vf-modifiers">
</g>
</g>
<g class="vf-stavenote" id="vf-auto25801">
<g class="vf-note" pointer-events="bounding-box">
<g class="vf-notehead" pointer-events="bounding-box">
<path stroke-width="0.3" fill="#000000" stroke="none" stroke-dasharray="none" d="M990.7350635519999 197.99999999999997M998.0920235519999 192.77711999999997C998.204343552 192.77711999999997,998.3728235519999 192.77711999999997,998.4009035519999 192.77711999999997C998.4009035519999 192.77711999999997,998.428983552 192.77711999999997,998.428983552 192.77711999999997C998.428983552 192.77711999999997,998.5974635519999 192.77711999999997,998.7378635519999 192.77711999999997C1001.2650635519999 192.91751999999997,1002.7533035519999 194.57423999999997,1002.7533035519999 196.65215999999998C1002.7533035519999 197.66303999999997,1002.416343552 198.81431999999998,1001.573943552 199.90943999999996C999.973383552 202.07159999999996,997.361943552 203.25095999999996,995.0874635519999 203.25095999999996C993.3184235519999 203.25095999999996,991.802103552 202.54895999999997,991.0720235519999 201.11687999999998C990.8473835519999 200.55527999999998,990.7350635519999 200.02175999999997,990.7350635519999 199.43207999999998C990.7350635519999 196.37135999999998,994.1608235519999 192.97367999999997,998.0920235519999 192.77711999999997">
</path>
</g>
</g>
<g class="vf-modifiers">
<g class="vf-stavenote" id="vf-auto25811">
<g class="vf-note" pointer-events="bounding-box">
<g class="vf-stem" pointer-events="bounding-box">
<path stroke-width="1.5" fill="none" stroke="#000000" stroke-dasharray="none" d="M972.0530251519999 197.99999999999997L972.0530251519999 174.89999999999998">
</path>
</g>
<g class="vf-notehead" pointer-events="bounding-box">
<path stroke-width="0.3" fill="#000000" stroke="none" stroke-dasharray="none" d="M964.8709867519999 197.99999999999997M969.7265803519999 194.55289919999998C969.8007115519999 194.55289919999998,969.911908352 194.55289919999998,969.930441152 194.55289919999998C969.930441152 194.55289919999998,969.948973952 194.55289919999998,969.948973952 194.55289919999998C969.948973952 194.55289919999998,970.0601707519999 194.55289919999998,970.1528347519999 194.55289919999998C971.8207867519999 194.64556319999997,972.8030251519999 195.73899839999996,972.8030251519999 197.11042559999999C972.8030251519999 197.77760639999997,972.5806315519999 198.53745119999996,972.0246475519999 199.26023039999998C970.9682779519999 200.68725599999996,969.2447275519999 201.46563359999996,967.7435707519999 201.46563359999996C966.5760043519999 201.46563359999996,965.5752331519999 201.00231359999998,965.0933803519999 200.05714079999998C964.9451179519999 199.68648479999996,964.8709867519999 199.33436159999997,964.8709867519999 198.94517279999997C964.8709867519999 196.92509759999996,967.1319883519999 194.68262879999997,969.7265803519999 194.55289919999998">
</path>
</g>
<g class="vf-flag" pointer-events="bounding-box">
<path stroke-width="0.3" fill="#000000" stroke="none" stroke-dasharray="none" d="M972.0530251519999 172.89999999999998M971.608237952 175.88378079999998L971.608237952 172.992664L971.6823691519999 172.992664C971.8862299519999 172.992664,972.0159595519999 173.12239359999998,972.0530251519999 173.34478719999998C972.442213952 175.19806719999997,973.6097803519999 177.21814239999998,975.2221339519999 178.73783199999997C977.019815552 180.42431679999999,977.927922752 182.74091679999998,977.927922752 185.13164799999998C977.927922752 187.39264959999997,977.131012352 189.74631519999997,975.518658752 191.69225919999997C975.2406667519999 192.06291519999996,975.2221339519999 192.06291519999996,975.0368059519999 192.06291519999996C974.8144123519999 192.06291519999996,974.666149952 191.89611999999997,974.666149952 191.67372639999996C974.666149952 191.50693119999997,974.684682752 191.4698656,974.8700107519999 191.2660048C976.278503552 189.56098719999997,976.982749952 187.5038464,976.982749952 185.5393696C976.982749952 183.7972864,976.4267659519999 182.12933439999998,975.2777323519999 180.86910399999996C974.5734859519999 180.09072639999997,973.2761899519999 179.34941439999997,971.626770752 178.77489759999997C971.626770752 178.75636479999997,971.608237952 178.18184799999997,971.608237952 175.88378079999998">
</path>
</g>
</g>
<g class="vf-modifiers">
</g>
</g>
<path stroke-width="1" fill="none" stroke="#000000" stroke-dasharray="none" d="M965.8709867519999 189.74999999999997L978.8709867519999 180.74999999999997Z">
</path>
</g>
</g>
<g class="vf-stavenote" id="vf-auto25825">
<g class="vf-note" pointer-events="bounding-box">
<g class="vf-notehead" pointer-events="bounding-box">
<path stroke-width="0.3" fill="#000000" stroke="none" stroke-dasharray="none" d="M1028.993225152 197.99999999999997M1036.350185152 192.77711999999997C1036.462505152 192.77711999999997,1036.630985152 192.77711999999997,1036.6590651519998 192.77711999999997C1036.6590651519998 192.77711999999997,1036.6871451519999 192.77711999999997,1036.6871451519999 192.77711999999997C1036.6871451519999 192.77711999999997,1036.855625152 192.77711999999997,1036.996025152 192.77711999999997C1039.523225152 192.91751999999997,1041.011465152 194.57423999999997,1041.011465152 196.65215999999998C1041.011465152 197.66303999999997,1040.674505152 198.81431999999998,1039.832105152 199.90943999999996C1038.2315451519999 202.07159999999996,1035.620105152 203.25095999999996,1033.345625152 203.25095999999996C1031.576585152 203.25095999999996,1030.0602651519998 202.54895999999997,1029.330185152 201.11687999999998C1029.1055451519999 200.55527999999998,1028.993225152 200.02175999999997,1028.993225152 199.43207999999998C1028.993225152 196.37135999999998,1032.418985152 192.97367999999997,1036.350185152 192.77711999999997">
</path>
</g>
</g>
<g class="vf-modifiers">
</g>
</g>
<g class="vf-stavenote" id="vf-auto25835">
<g class="vf-note" pointer-events="bounding-box">
<g class="vf-notehead" pointer-events="bounding-box">
<path stroke-width="0.3" fill="#000000" stroke="none" stroke-dasharray="none" d="M1093.115463552 197.99999999999997M1100.472423552 192.77711999999997C1100.584743552 192.77711999999997,1100.753223552 192.77711999999997,1100.7813035519998 192.77711999999997C1100.7813035519998 192.77711999999997,1100.8093835519999 192.77711999999997,1100.8093835519999 192.77711999999997C1100.8093835519999 192.77711999999997,1100.977863552 192.77711999999997,1101.118263552 192.77711999999997C1103.645463552 192.91751999999997,1105.133703552 194.57423999999997,1105.133703552 196.65215999999998C1105.133703552 197.66303999999997,1104.796743552 198.81431999999998,1103.954343552 199.90943999999996C1102.3537835519999 202.07159999999996,1099.742343552 203.25095999999996,1097.467863552 203.25095999999996C1095.698823552 203.25095999999996,1094.1825035519998 202.54895999999997,1093.452423552 201.11687999999998C1093.227783552 200.55527999999998,1093.115463552 200.02175999999997,1093.115463552 199.43207999999998C1093.115463552 196.37135999999998,1096.541223552 192.97367999999997,1100.472423552 192.77711999999997">
</path>
</g>
</g>
<g class="vf-modifiers">
<g class="vf-stavenote" id="vf-auto25845">
<g class="vf-note" pointer-events="bounding-box">
<g class="vf-stem" pointer-events="bounding-box">
<path stroke-width="1.5" fill="none" stroke="#000000" stroke-dasharray="none" d="M1074.433425152 197.99999999999997L1074.433425152 174.89999999999998">
</path>
</g>
<g class="vf-notehead" pointer-events="bounding-box">
<path stroke-width="0.3" fill="#000000" stroke="none" stroke-dasharray="none" d="M1067.251386752 197.99999999999997M1072.106980352 194.55289919999998C1072.181111552 194.55289919999998,1072.292308352 194.55289919999998,1072.310841152 194.55289919999998C1072.310841152 194.55289919999998,1072.329373952 194.55289919999998,1072.329373952 194.55289919999998C1072.329373952 194.55289919999998,1072.440570752 194.55289919999998,1072.533234752 194.55289919999998C1074.201186752 194.64556319999997,1075.183425152 195.73899839999996,1075.183425152 197.11042559999999C1075.183425152 197.77760639999997,1074.961031552 198.53745119999996,1074.4050475519998 199.26023039999998C1073.348677952 200.68725599999996,1071.6251275519999 201.46563359999996,1070.1239707519999 201.46563359999996C1068.956404352 201.46563359999996,1067.955633152 201.00231359999998,1067.473780352 200.05714079999998C1067.325517952 199.68648479999996,1067.251386752 199.33436159999997,1067.251386752 198.94517279999997C1067.251386752 196.92509759999996,1069.512388352 194.68262879999997,1072.106980352 194.55289919999998">
</path>
</g>
<g class="vf-flag" pointer-events="bounding-box">
<path stroke-width="0.3" fill="#000000" stroke="none" stroke-dasharray="none" d="M1074.433425152 172.89999999999998M1073.9886379519999 175.88378079999998L1073.9886379519999 172.992664L1074.0627691519999 172.992664C1074.266629952 172.992664,1074.396359552 173.12239359999998,1074.433425152 173.34478719999998C1074.822613952 175.19806719999997,1075.990180352 177.21814239999998,1077.602533952 178.73783199999997C1079.400215552 180.42431679999999,1080.3083227519999 182.74091679999998,1080.3083227519999 185.13164799999998C1080.3083227519999 187.39264959999997,1079.511412352 189.74631519999997,1077.899058752 191.69225919999997C1077.621066752 192.06291519999996,1077.602533952 192.06291519999996,1077.417205952 192.06291519999996C1077.1948123519999 192.06291519999996,1077.0465499519999 191.89611999999997,1077.0465499519999 191.67372639999996C1077.0465499519999 191.50693119999997,1077.0650827519999 191.4698656,1077.2504107519999 191.2660048C1078.6589035519999 189.56098719999997,1079.363149952 187.5038464,1079.363149952 185.5393696C1079.363149952 183.7972864,1078.8071659519999 182.12933439999998,1077.658132352 180.86910399999996C1076.9538859519998 180.09072639999997,1075.6565899519999 179.34941439999997,1074.0071707519999 178.77489759999997C1074.0071707519999 178.75636479999997,1073.9886379519999 178.18184799999997,1073.9886379519999 175.88378079999998">
</path>
</g>
</g>
<g class="vf-modifiers">
</g>
</g>
<path stroke-width="1" fill="none" stroke="#000000" stroke-dasharray="none" d="M1068.251386752 189.74999999999997L1081.251386752 180.74999999999997Z">
</path>
</g>
</g>
<g class="vf-stavenote" id="vf-auto25859">
<g class="vf-note" pointer-events="bounding-box">
<g class="vf-notehead" pointer-events="bounding-box">
<path stroke-width="0.3" fill="#000000" stroke="none" stroke-dasharray="none" d="M1131.373625152 197.99999999999997M1138.730585152 192.77711999999997C1138.842905152 192.77711999999997,1139.011385152 192.77711999999997,1139.0394651519998 192.77711999999997C1139.0394651519998 192.77711999999997,1139.0675451519999 192.77711999999997,1139.0675451519999 192.77711999999997C1139.0675451519999 192.77711999999997,1139.236025152 192.77711999999997,1139.376425152 192.77711999999997C1141.903625152 192.91751999999997,1143.391865152 194.57423999999997,1143.391865152 196.65215999999998C1143.391865152 197.66303999999997,1143.054905152 198.81431999999998,1142.212505152 199.90943999999996C1140.6119451519999 202.07159999999996,1138.000505152 203.25095999999996,1135.726025152 203.25095999999996C1133.956985152 203.25095999999996,1132.4406651519998 202.54895999999997,1131.710585152 201.11687999999998C1131.4859451519999 200.55527999999998,1131.373625152 200.02175999999997,1131.373625152 199.43207999999998C1131.373625152 196.37135999999998,1134.799385152 192.97367999999997,1138.730585152 192.77711999999997">
</path>
</g>
</g>
<g class="vf-modifiers">
</g>
</g>
<path stroke-width="1.5" fill="none" stroke="#000000" stroke-dasharray="none" d="M797.2425035519999 197.99999999999997L797.2425035519999 163.74999999999997">
</path>
<path stroke-width="1.5" fill="none" stroke="#000000" stroke-dasharray="none" d="M835.5006651519999 197.99999999999997L835.5006651519999 163.74999999999997">
</path>
<path stroke-width="1.5" fill="none" stroke="#000000" stroke-dasharray="none" d="M899.6229035519999 197.99999999999997L899.6229035519999 163.74999999999997">
</path>
<path stroke-width="1.5" fill="none" stroke="#000000" stroke-dasharray="none" d="M937.8810651519999 197.99999999999997L937.8810651519999 163.74999999999997">
</path>
<path stroke-width="0.3" fill="#000000" stroke="none" stroke-dasharray="none" d="M796.4925035519999 162.99999999999997L796.4925035519999 167.99999999999997L938.1310651519999 167.99999999999997L938.1310651519999 162.99999999999997Z">
</path>
<path stroke-width="0.3" fill="#000000" stroke="none" stroke-dasharray="none" d="M796.4925035519999 170.49999999999997L796.4925035519999 175.49999999999997L938.1310651519999 175.49999999999997L938.1310651519999 170.49999999999997Z">
</path>
<path stroke-width="1.5" fill="none" stroke="#000000" stroke-dasharray="none" d="M1002.0033035519999 197.99999999999997L1002.0033035519999 163.74999999999997">
</path>
<path stroke-width="1.5" fill="none" stroke="#000000" stroke-dasharray="none" d="M1040.261465152 197.99999999999997L1040.261465152 163.74999999999997">
</path>
<path stroke-width="1.5" fill="none" stroke="#000000" stroke-dasharray="none" d="M1104.383703552 197.99999999999997L1104.383703552 163.74999999999997">
</path>
<path stroke-width="1.5" fill="none" stroke="#000000" stroke-dasharray="none" d="M1142.641865152 197.99999999999997L1142.641865152 163.74999999999997">
</path>
<path stroke-width="0.3" fill="#000000" stroke="none" stroke-dasharray="none" d="M1001.2533035519999 162.99999999999997L1001.2533035519999 167.99999999999997L1142.891865152 167.99999999999997L1142.891865152 162.99999999999997Z">
</path>
<path stroke-width="0.3" fill="#000000" stroke="none" stroke-dasharray="none" d="M1001.2533035519999 170.49999999999997L1001.2533035519999 175.49999999999997L1142.891865152 175.49999999999997L1142.891865152 170.49999999999997Z">
</path>
</svg>