<svg width="1536" height="331.99999999999994" viewBox="0 0 1536 331.99999999999994">
<path stroke-width="1" fill="none" stroke="black" stroke-dasharray="none" d="M50 197.99999999999997L616.791872768 197.99999999999997">
</path>
<rect stroke-width="0.3" fill="black" stroke="black" stroke-dasharray="none" x="616.791872768" y="177.49999999999997" width="1" height="41">
</rect>
<path stroke-width="0.3" fill="black" stroke="none" stroke-dasharray="none" d="M55 197.99999999999997M55 197.99999999999997L55 188.00639999999999L57.1888 188.00639999999999L59.4064 188.00639999999999L59.4064 197.99999999999997L59.4064 208.02239999999998L57.1888 208.02239999999998L55 208.02239999999998L55 197.99999999999997M63.870400000000004 198.02879999999996L63.870400000000004 188.00639999999999L66.1168 188.00639999999999L68.3632 188.00639999999999L68.3632 198.02879999999996L68.3632 208.02239999999998L66.1168 208.02239999999998L63.870400000000004 208.02239999999998L63.870400000000004 198.02879999999996">
</path>
<path stroke-width="0.3" fill="black" stroke="none" stroke-dasharray="none" d="M96 197.99999999999997M101.0112 179.65439999999998C101.04 179.62559999999996,101.4432 179.62559999999996,102.6816 179.62559999999996C103.056 179.62559999999996,103.4592 179.62559999999996,103.9776 179.62559999999996L106.8864 179.62559999999996L106.9728 179.71199999999996C107.1168 179.79839999999996,107.2032 179.94239999999996,107.2032 180.05759999999998C107.2032 180.23039999999997,107.1168 180.34559999999996,107.0016 180.46079999999998C106.9728 180.54719999999998,106.7136 180.77759999999998,106.5408 181.03679999999997L105.0144 182.79359999999997L103.056 185.01119999999997L102.0192 186.19199999999998L100.464 187.97759999999997L98.4192 190.31039999999996C98.0736 190.74239999999998,97.6992 191.08799999999997,97.6992 191.08799999999997C97.6992 191.08799999999997,97.6992 191.08799999999997,97.6992 191.08799999999997C97.6992 191.14559999999997,97.9584 191.14559999999997,100.3488 191.14559999999997L102.9696 191.14559999999997L102.9696 189.27359999999996C102.9696 187.37279999999998,102.9696 187.34399999999997,102.9984 187.31519999999998C103.056 187.22879999999998,103.3152 186.91199999999998,104.3232 185.73119999999997L104.7264 185.29919999999998L105.1296 184.86719999999997L105.7344 184.08959999999996L106.368 183.42719999999997L106.6848 183.02399999999997C106.8 182.85119999999998,106.9728 182.82239999999996,107.1168 182.82239999999996C107.28960000000001 182.82239999999996,107.4336 182.90879999999999,107.52 183.05279999999996C107.5488 183.13919999999996,107.5488 183.19679999999997,107.5488 185.32799999999997C107.5488 185.81759999999997,107.5488 186.42239999999998,107.5488 187.14239999999998L107.5488 191.14559999999997L108.2688 191.14559999999997C108.9312 191.14559999999997,108.96 191.14559999999997,109.0464 191.17439999999996C109.2768 191.26079999999996,109.392 191.49119999999996,109.392 191.75039999999998C109.392 191.89439999999996,109.3632 192.06719999999999,109.248 192.18239999999997C109.0752 192.32639999999998,109.0464 192.32639999999998,108.2688 192.32639999999998L107.5488 192.32639999999998L107.5488 192.81599999999997C107.5776 194.28479999999996,107.8656 194.86079999999998,108.9888 195.46559999999997C109.392 195.66719999999998,109.4784 195.72479999999996,109.4784 196.01279999999997C109.4784 196.21439999999998,109.4208 196.30079999999998,109.2768 196.41599999999997L109.1904 196.44479999999996L105.2448 196.44479999999996L101.328 196.44479999999996L101.2416 196.41599999999997C101.0688 196.30079999999998,101.04 196.21439999999998,101.04 196.01279999999997C101.04 195.72479999999996,101.0688 195.66719999999998,101.5008 195.46559999999997C102.624 194.86079999999998,102.912 194.28479999999996,102.912 192.81599999999997L102.912 192.32639999999998L99.6 192.32639999999998C98.9952 192.38399999999996,98.5056 192.38399999999996,98.1024 192.38399999999996C96.288 192.38399999999996,96.2592 192.32639999999998,96.2304 192.32639999999998C96.0576 192.26879999999997,96 192.09599999999998,96 191.89439999999996C96 191.89439999999996,96 191.89439999999996,96 191.89439999999996C96 191.69279999999998,96 191.69279999999998,96.576 191.0304C98.9952 188.09279999999998,100.6944 183.83039999999997,100.6944 180.43199999999996C100.6944 179.91359999999997,100.7808 179.74079999999998,101.0112 179.65439999999998M102.7392 198.02879999999996L102.768 198.02879999999996L102.6816 198.02879999999996L102.7392 198.02879999999996M102.7392 178.61759999999998L102.768 178.61759999999998L102.6816 178.61759999999998L102.7392 178.61759999999998">
</path>
<path stroke-width="0.3" fill="black" stroke="none" stroke-dasharray="none" d="M96 217.99999999999997M101.0112 199.65439999999998C101.04 199.62559999999996,101.4432 199.62559999999996,102.6816 199.62559999999996C103.056 199.62559999999996,103.4592 199.62559999999996,103.9776 199.62559999999996L106.8864 199.62559999999996L106.9728 199.71199999999996C107.1168 199.79839999999996,107.2032 199.94239999999996,107.2032 200.05759999999998C107.2032 200.23039999999997,107.1168 200.34559999999996,107.0016 200.46079999999998C106.9728 200.54719999999998,106.7136 200.77759999999998,106.5408 201.03679999999997L105.0144 202.79359999999997L103.056 205.01119999999997L102.0192 206.19199999999998L100.464 207.97759999999997L98.4192 210.31039999999996C98.0736 210.74239999999998,97.6992 211.08799999999997,97.6992 211.08799999999997C97.6992 211.08799999999997,97.6992 211.08799999999997,97.6992 211.08799999999997C97.6992 211.14559999999997,97.9584 211.14559999999997,100.3488 211.14559999999997L102.9696 211.14559999999997L102.9696 209.27359999999996C102.9696 207.37279999999998,102.9696 207.34399999999997,102.9984 207.31519999999998C103.056 207.22879999999998,103.3152 206.91199999999998,104.3232 205.73119999999997L104.7264 205.29919999999998L105.1296 204.86719999999997L105.7344 204.08959999999996L106.368 203.42719999999997L106.6848 203.02399999999997C106.8 202.85119999999998,106.9728 202.82239999999996,107.1168 202.82239999999996C107.28960000000001 202.82239999999996,107.4336 202.90879999999999,107.52 203.05279999999996C107.5488 203.13919999999996,107.5488 203.19679999999997,107.5488 205.32799999999997C107.5488 205.81759999999997,107.5488 206.42239999999998,107.5488 207.14239999999998L107.5488 211.14559999999997L108.2688 211.14559999999997C108.9312 211.14559999999997,108.96 211.14559999999997,109.0464 211.17439999999996C109.2768 211.26079999999996,109.392 211.49119999999996,109.392 211.75039999999998C109.392 211.89439999999996,109.3632 212.06719999999999,109.248 212.18239999999997C109.0752 212.32639999999998,109.0464 212.32639999999998,108.2688 212.32639999999998L107.5488 212.32639999999998L107.5488 212.81599999999997C107.5776 214.28479999999996,107.8656 214.86079999999998,108.9888 215.46559999999997C109.392 215.66719999999998,109.4784 215.72479999999996,109.4784 216.01279999999997C109.4784 216.21439999999998,109.4208 216.30079999999998,109.2768 216.41599999999997L109.1904 216.44479999999996L105.2448 216.44479999999996L101.328 216.44479999999996L101.2416 216.41599999999997C101.0688 216.30079999999998,101.04 216.21439999999998,101.04 216.01279999999997C101.04 215.72479999999996,101.0688 215.66719999999998,101.5008 215.46559999999997C102.624 214.86079999999998,102.912 214.28479999999996,102.912 212.81599999999997L102.912 212.32639999999998L99.6 212.32639999999998C98.9952 212.38399999999996,98.5056 212.38399999999996,98.1024 212.38399999999996C96.288 212.38399999999996,96.2592 212.32639999999998,96.2304 212.32639999999998C96.0576 212.26879999999997,96 212.09599999999998,96 211.89439999999996C96 211.89439999999996,96 211.89439999999996,96 211.89439999999996C96 211.69279999999998,96 211.69279999999998,96.576 211.0304C98.9952 208.09279999999998,100.6944 203.83039999999997,100.6944 200.43199999999996C100.6944 199.91359999999997,100.7808 199.74079999999998,101.0112 199.65439999999998M102.7392 218.02879999999996L102.768 218.02879999999996L102.6816 218.02879999999996L102.7392 218.02879999999996M102.7392 198.61759999999998L102.768 198.61759999999998L102.6816 198.61759999999998L102.7392 198.61759999999998">
</path>
<g class="vf-stavenote" id="vf-auto26648">
<g class="vf-note" pointer-events="bounding-box">
<g class="vf-notehead" pointer-events="bounding-box">
<path stroke-width="0.3" fill="#000000" stroke="none" stroke-dasharray="none" d="M147.3424768 197.99999999999997M154.69943679999997 192.77711999999997C154.81175679999998 192.77711999999997,154.9802368 192.77711999999997,155.0083168 192.77711999999997C155.0083168 192.77711999999997,155.03639679999998 192.77711999999997,155.03639679999998 192.77711999999997C155.03639679999998 192.77711999999997,155.2048768 192.77711999999997,155.3452768 192.77711999999997C157.8724768 192.91751999999997,159.36071679999998 194.57423999999997,159.36071679999998 196.65215999999998C159.36071679999998 197.66303999999997,159.0237568 198.81431999999998,158.18135679999997 199.90943999999996C156.58079679999997 202.07159999999996,153.96935679999999 203.25095999999996,151.69487679999997 203.25095999999996C149.92583679999998 203.25095999999996,148.40951679999998 202.54895999999997,147.6794368 201.11687999999998C147.4547968 200.55527999999998,147.3424768 200.02175999999997,147.3424768 199.43207999999998C147.3424768 196.37135999999998,150.76823679999998 192.97367999999997,154.69943679999997 192.77711999999997">
</path>
</g>
</g>
<g class="vf-modifiers">
<g class="vf-stavenote" id="vf-auto26658">
<g class="vf-note" pointer-events="bounding-box">
<g class="vf-stem" pointer-events="bounding-box">
<path stroke-width="1.5" fill="none" stroke="#000000" stroke-dasharray="none" d="M128.6604384 197.99999999999997L128.6604384 174.89999999999998">
</path>
</g>
<g class="vf-notehead" pointer-events="bounding-box">
<path stroke-width="0.3" fill="#000000" stroke="none" stroke-dasharray="none" d="M121.4784 197.99999999999997M126.3339936 194.55289919999998C126.4081248 194.55289919999998,126.5193216 194.55289919999998,126.5378544 194.55289919999998C126.5378544 194.55289919999998,126.55638719999999 194.55289919999998,126.55638719999999 194.55289919999998C126.55638719999999 194.55289919999998,126.66758399999999 194.55289919999998,126.76024799999999 194.55289919999998C128.4282 194.64556319999997,129.4104384 195.73899839999996,129.4104384 197.11042559999999C129.4104384 197.77760639999997,129.1880448 198.53745119999996,128.6320608 199.26023039999998C127.5756912 200.68725599999996,125.8521408 201.46563359999996,124.350984 201.46563359999996C123.1834176 201.46563359999996,122.1826464 201.00231359999998,121.7007936 200.05714079999998C121.55253119999999 199.68648479999996,121.4784 199.33436159999997,121.4784 198.94517279999997C121.4784 196.92509759999996,123.7394016 194.68262879999997,126.3339936 194.55289919999998">
</path>
</g>
<g class="vf-flag" pointer-events="bounding-box">
<path stroke-width="0.3" fill="#000000" stroke="none" stroke-dasharray="none" d="M128.6604384 172.89999999999998M128.2156512 175.88378079999998L128.2156512 172.992664L128.2897824 172.992664C128.4936432 172.992664,128.6233728 173.12239359999998,128.6604384 173.34478719999998C129.0496272 175.19806719999997,130.2171936 177.21814239999998,131.8295472 178.73783199999997C133.6272288 180.42431679999999,134.535336 182.74091679999998,134.535336 185.13164799999998C134.535336 187.39264959999997,133.7384256 189.74631519999997,132.126072 191.69225919999997C131.84808 192.06291519999996,131.8295472 192.06291519999996,131.6442192 192.06291519999996C131.4218256 192.06291519999996,131.2735632 191.89611999999997,131.2735632 191.67372639999996C131.2735632 191.50693119999997,131.29209600000002 191.4698656,131.477424 191.2660048C132.88591680000002 189.56098719999997,133.5901632 187.5038464,133.5901632 185.5393696C133.5901632 183.7972864,133.0341792 182.12933439999998,131.88514560000002 180.86910399999996C131.1808992 180.09072639999997,129.8836032 179.34941439999997,128.234184 178.77489759999997C128.234184 178.75636479999997,128.2156512 178.18184799999997,128.2156512 175.88378079999998">
</path>
</g>
</g>
<g class="vf-modifiers">
</g>
</g>
<path stroke-width="1" fill="none" stroke="#000000" stroke-dasharray="none" d="M122.4784 189.74999999999997L135.4784 180.74999999999997Z">
</path>
</g>
</g>
<g class="vf-stavenote" id="vf-auto26672">
<g class="vf-note" pointer-events="bounding-box">
<g class="vf-notehead" pointer-events="bounding-box">
<path stroke-width="0.3" fill="#000000" stroke="none" stroke-dasharray="none" d="M187.46651839999998 197.99999999999997M194.82347839999997 192.77711999999997C194.93579839999998 192.77711999999997,195.1042784 192.77711999999997,195.1323584 192.77711999999997C195.1323584 192.77711999999997,195.16043839999998 192.77711999999997,195.16043839999998 192.77711999999997C195.16043839999998 192.77711999999997,195.3289184 192.77711999999997,195.4693184 192.77711999999997C197.99651839999999 192.91751999999997,199.48475839999998 194.57423999999997,199.48475839999998 196.65215999999998C199.48475839999998 197.66303999999997,199.1477984 198.81431999999998,198.30539839999997 199.90943999999996C196.70483839999997 202.07159999999996,194.09339839999998 203.25095999999996,191.81891839999997 203.25095999999996C190.04987839999998 203.25095999999996,188.53355839999998 202.54895999999997,187.8034784 201.11687999999998C187.5788384 200.55527999999998,187.46651839999998 200.02175999999997,187.46651839999998 199.43207999999998C187.46651839999998 196.37135999999998,190.89227839999998 192.97367999999997,194.82347839999997 192.77711999999997">
</path>
</g>
</g>
<g class="vf-modifiers">
</g>
</g>
<g class="vf-stavenote" id="vf-auto26682">
<g class="vf-note" pointer-events="bounding-box">
<g class="vf-notehead" pointer-events="bounding-box">
<path stroke-width="0.3" fill="#000000" stroke="none" stroke-dasharray="none" d="M216.5376592 197.99999999999997M223.8946192 192.77711999999997C224.0069392 192.77711999999997,224.17541920000002 192.77711999999997,224.2034992 192.77711999999997C224.2034992 192.77711999999997,224.2315792 192.77711999999997,224.2315792 192.77711999999997C224.2315792 192.77711999999997,224.40005920000002 192.77711999999997,224.54045920000002 192.77711999999997C227.0676592 192.91751999999997,228.5558992 194.57423999999997,228.5558992 196.65215999999998C228.5558992 197.66303999999997,228.21893920000002 198.81431999999998,227.3765392 199.90943999999996C225.7759792 202.07159999999996,223.1645392 203.25095999999996,220.8900592 203.25095999999996C219.1210192 203.25095999999996,217.6046992 202.54895999999997,216.8746192 201.11687999999998C216.64997920000002 200.55527999999998,216.5376592 200.02175999999997,216.5376592 199.43207999999998C216.5376592 196.37135999999998,219.9634192 192.97367999999997,223.8946192 192.77711999999997">
</path>
</g>
</g>
<g class="vf-modifiers">
</g>
</g>
<g class="vf-stavenote" id="vf-auto26692">
<g class="vf-note" pointer-events="bounding-box">
<g class="vf-notehead" pointer-events="bounding-box">
<path stroke-width="0.3" fill="#000000" stroke="none" stroke-dasharray="none" d="M271.4728768 197.99999999999997M278.8298368 192.77711999999997C278.9421568 192.77711999999997,279.1106368 192.77711999999997,279.1387168 192.77711999999997C279.1387168 192.77711999999997,279.1667968 192.77711999999997,279.1667968 192.77711999999997C279.1667968 192.77711999999997,279.3352768 192.77711999999997,279.4756768 192.77711999999997C282.00287679999997 192.91751999999997,283.4911168 194.57423999999997,283.4911168 196.65215999999998C283.4911168 197.66303999999997,283.1541568 198.81431999999998,282.3117568 199.90943999999996C280.7111968 202.07159999999996,278.0997568 203.25095999999996,275.8252768 203.25095999999996C274.0562368 203.25095999999996,272.5399168 202.54895999999997,271.80983679999997 201.11687999999998C271.5851968 200.55527999999998,271.4728768 200.02175999999997,271.4728768 199.43207999999998C271.4728768 196.37135999999998,274.8986368 192.97367999999997,278.8298368 192.77711999999997">
</path>
</g>
</g>
<g class="vf-modifiers">
<g class="vf-stavenote" id="vf-auto26702">
<g class="vf-note" pointer-events="bounding-box">
<g class="vf-stem" pointer-events="bounding-box">
<path stroke-width="1.5" fill="none" stroke="#000000" stroke-dasharray="none" d="M252.7908384 197.99999999999997L252.7908384 174.89999999999998">
</path>
</g>
<g class="vf-notehead" pointer-events="bounding-box">
<path stroke-width="0.3" fill="#000000" stroke="none" stroke-dasharray="none" d="M245.6088 197.99999999999997M250.4643936 194.55289919999998C250.5385248 194.55289919999998,250.6497216 194.55289919999998,250.6682544 194.55289919999998C250.6682544 194.55289919999998,250.6867872 194.55289919999998,250.6867872 194.55289919999998C250.6867872 194.55289919999998,250.797984 194.55289919999998,250.890648 194.55289919999998C252.5586 194.64556319999997,253.5408384 195.73899839999996,253.5408384 197.11042559999999C253.5408384 197.77760639999997,253.3184448 198.53745119999996,252.7624608 199.26023039999998C251.7060912 200.68725599999996,249.9825408 201.46563359999996,248.481384 201.46563359999996C247.3138176 201.46563359999996,246.3130464 201.00231359999998,245.8311936 200.05714079999998C245.6829312 199.68648479999996,245.6088 199.33436159999997,245.6088 198.94517279999997C245.6088 196.92509759999996,247.86980160000002 194.68262879999997,250.4643936 194.55289919999998">
</path>
</g>
<g class="vf-flag" pointer-events="bounding-box">
<path stroke-width="0.3" fill="#000000" stroke="none" stroke-dasharray="none" d="M252.7908384 172.89999999999998M252.3460512 175.88378079999998L252.3460512 172.992664L252.42018240000002 172.992664C252.62404320000002 172.992664,252.7537728 173.12239359999998,252.7908384 173.34478719999998C253.1800272 175.19806719999997,254.3475936 177.21814239999998,255.95994720000002 178.73783199999997C257.7576288 180.42431679999999,258.66573600000004 182.74091679999998,258.66573600000004 185.13164799999998C258.66573600000004 187.39264959999997,257.86882560000004 189.74631519999997,256.25647200000003 191.69225919999997C255.97848000000002 192.06291519999996,255.95994720000002 192.06291519999996,255.77461920000002 192.06291519999996C255.5522256 192.06291519999996,255.40396320000002 191.89611999999997,255.40396320000002 191.67372639999996C255.40396320000002 191.50693119999997,255.42249600000002 191.4698656,255.60782400000002 191.2660048C257.0163168 189.56098719999997,257.7205632 187.5038464,257.7205632 185.5393696C257.7205632 183.7972864,257.1645792 182.12933439999998,256.0155456 180.86910399999996C255.3112992 180.09072639999997,254.01400320000002 179.34941439999997,252.364584 178.77489759999997C252.364584 178.75636479999997,252.3460512 178.18184799999997,252.3460512 175.88378079999998">
</path>
</g>
</g>
<g class="vf-modifiers">
</g>
</g>
<path stroke-width="1" fill="none" stroke="#000000" stroke-dasharray="none" d="M246.6088 189.74999999999997L259.6088 180.74999999999997Z">
</path>
</g>
</g>
<g class="vf-stavenote" id="vf-auto26716">
<g class="vf-note" pointer-events="bounding-box">
<g class="vf-notehead" pointer-events="bounding-box">
<path stroke-width="0.3" fill="#000000" stroke="none" stroke-dasharray="none" d="M311.5969184 197.99999999999997M318.9538784 192.77711999999997C319.0661984 192.77711999999997,319.2346784 192.77711999999997,319.2627584 192.77711999999997C319.2627584 192.77711999999997,319.2908384 192.77711999999997,319.2908384 192.77711999999997C319.2908384 192.77711999999997,319.4593184 192.77711999999997,319.5997184 192.77711999999997C322.1269184 192.91751999999997,323.6151584 194.57423999999997,323.6151584 196.65215999999998C323.6151584 197.66303999999997,323.2781984 198.81431999999998,322.4357984 199.90943999999996C320.8352384 202.07159999999996,318.22379839999996 203.25095999999996,315.9493184 203.25095999999996C314.1802784 203.25095999999996,312.6639584 202.54895999999997,311.93387839999997 201.11687999999998C311.7092384 200.55527999999998,311.5969184 200.02175999999997,311.5969184 199.43207999999998C311.5969184 196.37135999999998,315.0226784 192.97367999999997,318.9538784 192.77711999999997">
</path>
</g>
</g>
<g class="vf-modifiers">
</g>
</g>
<g class="vf-stavenote" id="vf-auto26726">
<g class="vf-note" pointer-events="bounding-box">
<g class="vf-notehead" pointer-events="bounding-box">
<path stroke-width="0.3" fill="#000000" stroke="none" stroke-dasharray="none" d="M340.6680592 197.99999999999997M348.02501920000003 192.77711999999997C348.13733920000004 192.77711999999997,348.30581920000003 192.77711999999997,348.3338992 192.77711999999997C348.3338992 192.77711999999997,348.3619792 192.77711999999997,348.3619792 192.77711999999997C348.3619792 192.77711999999997,348.5304592 192.77711999999997,348.6708592 192.77711999999997C351.1980592 192.91751999999997,352.6862992 194.57423999999997,352.6862992 196.65215999999998C352.6862992 197.66303999999997,352.34933920000003 198.81431999999998,351.50693920000003 199.90943999999996C349.9063792 202.07159999999996,347.29493920000004 203.25095999999996,345.0204592 203.25095999999996C343.25141920000004 203.25095999999996,341.73509920000004 202.54895999999997,341.0050192 201.11687999999998C340.7803792 200.55527999999998,340.6680592 200.02175999999997,340.6680592 199.43207999999998C340.6680592 196.37135999999998,344.09381920000004 192.97367999999997,348.02501920000003 192.77711999999997">
</path>
</g>
</g>
<g class="vf-modifiers">
</g>
</g>
<g class="vf-stavenote" id="vf-auto26736">
<g class="vf-note" pointer-events="bounding-box">
<g class="vf-notehead" pointer-events="bounding-box">
<path stroke-width="0.3" fill="#000000" stroke="none" stroke-dasharray="none" d="M395.6032768 197.99999999999997M402.9602368 192.77711999999997C403.07255680000003 192.77711999999997,403.2410368 192.77711999999997,403.2691168 192.77711999999997C403.2691168 192.77711999999997,403.2971968 192.77711999999997,403.2971968 192.77711999999997C403.2971968 192.77711999999997,403.4656768 192.77711999999997,403.6060768 192.77711999999997C406.1332768 192.91751999999997,407.6215168 194.57423999999997,407.6215168 196.65215999999998C407.6215168 197.66303999999997,407.2845568 198.81431999999998,406.4421568 199.90943999999996C404.8415968 202.07159999999996,402.23015680000003 203.25095999999996,399.9556768 203.25095999999996C398.18663680000003 203.25095999999996,396.6703168 202.54895999999997,395.9402368 201.11687999999998C395.7155968 200.55527999999998,395.6032768 200.02175999999997,395.6032768 199.43207999999998C395.6032768 196.37135999999998,399.02903680000003 192.97367999999997,402.9602368 192.77711999999997">
</path>
</g>
</g>
<g class="vf-modifiers">
<g class="vf-stavenote" id="vf-auto26746">
<g class="vf-note" pointer-events="bounding-box">
<g class="vf-stem" pointer-events="bounding-box">
<path stroke-width="1.5" fill="none" stroke="#000000" stroke-dasharray="none" d="M376.9212384 197.99999999999997L376.9212384 174.89999999999998">
</path>
</g>
<g class="vf-notehead" pointer-events="bounding-box">
<path stroke-width="0.3" fill="#000000" stroke="none" stroke-dasharray="none" d="M369.7392 197.99999999999997M374.5947936 194.55289919999998C374.66892479999996 194.55289919999998,374.7801216 194.55289919999998,374.7986544 194.55289919999998C374.7986544 194.55289919999998,374.8171872 194.55289919999998,374.8171872 194.55289919999998C374.8171872 194.55289919999998,374.928384 194.55289919999998,375.021048 194.55289919999998C376.68899999999996 194.64556319999997,377.6712384 195.73899839999996,377.6712384 197.11042559999999C377.6712384 197.77760639999997,377.44884479999996 198.53745119999996,376.8928608 199.26023039999998C375.83649119999995 200.68725599999996,374.1129408 201.46563359999996,372.611784 201.46563359999996C371.4442176 201.46563359999996,370.44344639999997 201.00231359999998,369.96159359999996 200.05714079999998C369.8133312 199.68648479999996,369.7392 199.33436159999997,369.7392 198.94517279999997C369.7392 196.92509759999996,372.00020159999997 194.68262879999997,374.5947936 194.55289919999998">
</path>
</g>
<g class="vf-flag" pointer-events="bounding-box">
<path stroke-width="0.3" fill="#000000" stroke="none" stroke-dasharray="none" d="M376.9212384 172.89999999999998M376.4764512 175.88378079999998L376.4764512 172.992664L376.5505824 172.992664C376.75444319999997 172.992664,376.8841728 173.12239359999998,376.9212384 173.34478719999998C377.3104272 175.19806719999997,378.4779936 177.21814239999998,380.0903472 178.73783199999997C381.8880288 180.42431679999999,382.796136 182.74091679999998,382.796136 185.13164799999998C382.796136 187.39264959999997,381.9992256 189.74631519999997,380.386872 191.69225919999997C380.10888 192.06291519999996,380.0903472 192.06291519999996,379.90501919999997 192.06291519999996C379.6826256 192.06291519999996,379.5343632 191.89611999999997,379.5343632 191.67372639999996C379.5343632 191.50693119999997,379.552896 191.4698656,379.738224 191.2660048C381.1467168 189.56098719999997,381.85096319999997 187.5038464,381.85096319999997 185.5393696C381.85096319999997 183.7972864,381.2949792 182.12933439999998,380.1459456 180.86910399999996C379.4416992 180.09072639999997,378.1444032 179.34941439999997,376.494984 178.77489759999997C376.494984 178.75636479999997,376.4764512 178.18184799999997,376.4764512 175.88378079999998">
</path>
</g>
</g>
<g class="vf-modifiers">
</g>
</g>
<path stroke-width="1" fill="none" stroke="#000000" stroke-dasharray="none" d="M370.7392 189.74999999999997L383.7392 180.74999999999997Z">
</path>
</g>
</g>
<g class="vf-stavenote" id="vf-auto26760">
<g class="vf-note" pointer-events="bounding-box">
<g class="vf-notehead" pointer-events="bounding-box">
<path stroke-width="0.3" fill="#000000" stroke="none" stroke-dasharray="none" d="M435.72731839999994 197.99999999999997M443.08427839999996 192.77711999999997C443.19659839999997 192.77711999999997,443.36507839999996 192.77711999999997,443.39315839999995 192.77711999999997C443.39315839999995 192.77711999999997,443.42123839999994 192.77711999999997,443.42123839999994 192.77711999999997C443.42123839999994 192.77711999999997,443.5897183999999 192.77711999999997,443.7301183999999 192.77711999999997C446.2573183999999 192.91751999999997,447.74555839999994 194.57423999999997,447.74555839999994 196.65215999999998C447.74555839999994 197.66303999999997,447.40859839999996 198.81431999999998,446.56619839999996 199.90943999999996C444.96563839999993 202.07159999999996,442.3541984 203.25095999999996,440.07971839999993 203.25095999999996C438.3106784 203.25095999999996,436.79435839999996 202.54895999999997,436.0642783999999 201.11687999999998C435.83963839999996 200.55527999999998,435.72731839999994 200.02175999999997,435.72731839999994 199.43207999999998C435.72731839999994 196.37135999999998,439.15307839999997 192.97367999999997,443.08427839999996 192.77711999999997">
</path>
</g>
</g>
<g class="vf-modifiers">
</g>
</g>
<g class="vf-stavenote" id="vf-auto26770">
<g class="vf-note" pointer-events="bounding-box">
<g class="vf-notehead" pointer-events="bounding-box">
<path stroke-width="0.3" fill="#000000" stroke="none" stroke-dasharray="none" d="M464.7984591999999 197.99999999999997M472.1554191999999 192.77711999999997C472.26773919999994 192.77711999999997,472.4362191999999 192.77711999999997,472.4642991999999 192.77711999999997C472.4642991999999 192.77711999999997,472.4923791999999 192.77711999999997,472.4923791999999 192.77711999999997C472.4923791999999 192.77711999999997,472.6608591999999 192.77711999999997,472.8012591999999 192.77711999999997C475.3284591999999 192.91751999999997,476.8166991999999 194.57423999999997,476.8166991999999 196.65215999999998C476.8166991999999 197.66303999999997,476.4797391999999 198.81431999999998,475.63733919999993 199.90943999999996C474.0367791999999 202.07159999999996,471.42533919999994 203.25095999999996,469.1508591999999 203.25095999999996C467.38181919999994 203.25095999999996,465.86549919999993 202.54895999999997,465.1354191999999 201.11687999999998C464.9107791999999 200.55527999999998,464.7984591999999 200.02175999999997,464.7984591999999 199.43207999999998C464.7984591999999 196.37135999999998,468.22421919999994 192.97367999999997,472.1554191999999 192.77711999999997">
</path>
</g>
</g>
<g class="vf-modifiers">
</g>
</g>
<g class="vf-stavenote" id="vf-auto26780">
<g class="vf-note" pointer-events="bounding-box">
<g class="vf-notehead" pointer-events="bounding-box">
<path stroke-width="0.3" fill="#000000" stroke="none" stroke-dasharray="none" d="M519.7336768 197.99999999999997M527.0906368 192.77711999999997C527.2029568 192.77711999999997,527.3714368 192.77711999999997,527.3995168 192.77711999999997C527.3995168 192.77711999999997,527.4275968000001 192.77711999999997,527.4275968000001 192.77711999999997C527.4275968000001 192.77711999999997,527.5960768 192.77711999999997,527.7364768 192.77711999999997C530.2636768 192.91751999999997,531.7519168 194.57423999999997,531.7519168 196.65215999999998C531.7519168 197.66303999999997,531.4149568 198.81431999999998,530.5725568 199.90943999999996C528.9719968 202.07159999999996,526.3605568 203.25095999999996,524.0860768 203.25095999999996C522.3170368 203.25095999999996,520.8007168 202.54895999999997,520.0706368 201.11687999999998C519.8459968 200.55527999999998,519.7336768 200.02175999999997,519.7336768 199.43207999999998C519.7336768 196.37135999999998,523.1594368 192.97367999999997,527.0906368 192.77711999999997">
</path>
</g>
</g>
<g class="vf-modifiers">
<g class="vf-stavenote" id="vf-auto26790">
<g class="vf-note" pointer-events="bounding-box">
<g class="vf-stem" pointer-events="bounding-box">
<path stroke-width="1.5" fill="none" stroke="#000000" stroke-dasharray="none" d="M501.0516384 197.99999999999997L501.0516384 174.89999999999998">
</path>
</g>
<g class="vf-notehead" pointer-events="bounding-box">
<path stroke-width="0.3" fill="#000000" stroke="none" stroke-dasharray="none" d="M493.8696 197.99999999999997M498.7251936 194.55289919999998C498.79932479999997 194.55289919999998,498.9105216 194.55289919999998,498.9290544 194.55289919999998C498.9290544 194.55289919999998,498.9475872 194.55289919999998,498.9475872 194.55289919999998C498.9475872 194.55289919999998,499.058784 194.55289919999998,499.151448 194.55289919999998C500.8194 194.64556319999997,501.8016384 195.73899839999996,501.8016384 197.11042559999999C501.8016384 197.77760639999997,501.57924479999997 198.53745119999996,501.0232608 199.26023039999998C499.96689119999996 200.68725599999996,498.2433408 201.46563359999996,496.742184 201.46563359999996C495.5746176 201.46563359999996,494.5738464 201.00231359999998,494.09199359999997 200.05714079999998C493.9437312 199.68648479999996,493.8696 199.33436159999997,493.8696 198.94517279999997C493.8696 196.92509759999996,496.1306016 194.68262879999997,498.7251936 194.55289919999998">
</path>
</g>
<g class="vf-flag" pointer-events="bounding-box">
<path stroke-width="0.3" fill="#000000" stroke="none" stroke-dasharray="none" d="M501.0516384 172.89999999999998M500.6068512 175.88378079999998L500.6068512 172.992664L500.6809824 172.992664C500.8848432 172.992664,501.0145728 173.12239359999998,501.0516384 173.34478719999998C501.4408272 175.19806719999997,502.6083936 177.21814239999998,504.2207472 178.73783199999997C506.0184288 180.42431679999999,506.926536 182.74091679999998,506.926536 185.13164799999998C506.926536 187.39264959999997,506.1296256 189.74631519999997,504.517272 191.69225919999997C504.23928 192.06291519999996,504.2207472 192.06291519999996,504.0354192 192.06291519999996C503.8130256 192.06291519999996,503.6647632 191.89611999999997,503.6647632 191.67372639999996C503.6647632 191.50693119999997,503.683296 191.4698656,503.868624 191.2660048C505.2771168 189.56098719999997,505.9813632 187.5038464,505.9813632 185.5393696C505.9813632 183.7972864,505.4253792 182.12933439999998,504.2763456 180.86910399999996C503.5720992 180.09072639999997,502.2748032 179.34941439999997,500.625384 178.77489759999997C500.625384 178.75636479999997,500.6068512 178.18184799999997,500.6068512 175.88378079999998">
</path>
</g>
</g>
<g class="vf-modifiers">
</g>
</g>
<path stroke-width="1" fill="none" stroke="#000000" stroke-dasharray="none" d="M494.8696 189.74999999999997L507.8696 180.74999999999997Z">
</path>
</g>
</g>
<g class="vf-stavenote" id="vf-auto26804">
<g class="vf-note" pointer-events="bounding-box">
<g class="vf-notehead" pointer-events="bounding-box">
<path stroke-width="0.3" fill="#000000" stroke="none" stroke-dasharray="none" d="M559.8577184 197.99999999999997M567.2146783999999 192.77711999999997C567.3269984 192.77711999999997,567.4954783999999 192.77711999999997,567.5235584 192.77711999999997C567.5235584 192.77711999999997,567.5516384 192.77711999999997,567.5516384 192.77711999999997C567.5516384 192.77711999999997,567.7201183999999 192.77711999999997,567.8605183999999 192.77711999999997C570.3877183999999 192.91751999999997,571.8759584 194.57423999999997,571.8759584 196.65215999999998C571.8759584 197.66303999999997,571.5389984 198.81431999999998,570.6965984 199.90943999999996C569.0960384 202.07159999999996,566.4845984 203.25095999999996,564.2101183999999 203.25095999999996C562.4410783999999 203.25095999999996,560.9247584 202.54895999999997,560.1946783999999 201.11687999999998C559.9700383999999 200.55527999999998,559.8577184 200.02175999999997,559.8577184 199.43207999999998C559.8577184 196.37135999999998,563.2834783999999 192.97367999999997,567.2146783999999 192.77711999999997">
</path>
</g>
</g>
<g class="vf-modifiers">
</g>
</g>
<g class="vf-stavenote" id="vf-auto26814">
<g class="vf-note" pointer-events="bounding-box">
<g class="vf-notehead" pointer-events="bounding-box">
<path stroke-width="0.3" fill="#000000" stroke="none" stroke-dasharray="none" d="M588.9288591999999 197.99999999999997M596.2858191999999 192.77711999999997C596.3981392 192.77711999999997,596.5666191999999 192.77711999999997,596.5946991999999 192.77711999999997C596.5946991999999 192.77711999999997,596.6227792 192.77711999999997,596.6227792 192.77711999999997C596.6227792 192.77711999999997,596.7912591999999 192.77711999999997,596.9316591999999 192.77711999999997C599.4588591999999 192.91751999999997,600.9470991999999 194.57423999999997,600.9470991999999 196.65215999999998C600.9470991999999 197.66303999999997,600.6101391999999 198.81431999999998,599.7677391999999 199.90943999999996C598.1671792 202.07159999999996,595.5557392 203.25095999999996,593.2812591999999 203.25095999999996C591.5122191999999 203.25095999999996,589.9958991999999 202.54895999999997,589.2658191999999 201.11687999999998C589.0411791999999 200.55527999999998,588.9288591999999 200.02175999999997,588.9288591999999 199.43207999999998C588.9288591999999 196.37135999999998,592.3546191999999 192.97367999999997,596.2858191999999 192.77711999999997">
</path>
</g>
</g>
<g class="vf-modifiers">
</g>
</g>
<path stroke-width="1.5" fill="none" stroke="#000000" stroke-dasharray="none" d="M158.61071679999998 197.99999999999997L158.61071679999998 163.74999999999997">
</path>
<path stroke-width="1.5" fill="none" stroke="#000000" stroke-dasharray="none" d="M198.73475839999998 197.99999999999997L198.73475839999998 163.74999999999997">
</path>
<path stroke-width="1.5" fill="none" stroke="#000000" stroke-dasharray="none" d="M227.8058992 197.99999999999997L227.8058992 163.74999999999997">
</path>
<path stroke-width="0.3" fill="#000000" stroke="none" stroke-dasharray="none" d="M157.86071679999998 162.99999999999997L157.86071679999998 167.99999999999997L228.0558992 167.99999999999997L228.0558992 162.99999999999997Z">
</path>
<path stroke-width="0.3" fill="#000000" stroke="none" stroke-dasharray="none" d="M197.98475839999998 170.49999999999997L197.98475839999998 175.49999999999997L228.0558992 175.49999999999997L228.0558992 170.49999999999997Z">
</path>
<path stroke-width="1.5" fill="none" stroke="#000000" stroke-dasharray="none" d="M282.7411168 197.99999999999997L282.7411168 163.74999999999997">
</path>
<path stroke-width="1.5" fill="none" stroke="#000000" stroke-dasharray="none" d="M322.8651584 197.99999999999997L322.8651584 163.74999999999997">
</path>
<path stroke-width="1.5" fill="none" stroke="#000000" stroke-dasharray="none" d="M351.9362992 197.99999999999997L351.9362992 163.74999999999997">
</path>
<path stroke-width="0.3" fill="#000000" stroke="none" stroke-dasharray="none" d="M281.9911168 162.99999999999997L281.9911168 167.99999999999997L352.1862992 167.99999999999997L352.1862992 162.99999999999997Z">
</path>
<path stroke-width="0.3" fill="#000000" stroke="none" stroke-dasharray="none" d="M322.1151584 170.49999999999997L322.1151584 175.49999999999997L352.1862992 175.49999999999997L352.1862992 170.49999999999997Z">
</path>
<path stroke-width="1.5" fill="none" stroke="#000000" stroke-dasharray="none" d="M406.8715168 197.99999999999997L406.8715168 163.74999999999997">
</path>
<path stroke-width="1.5" fill="none" stroke="#000000" stroke-dasharray="none" d="M446.99555839999994 197.99999999999997L446.99555839999994 163.74999999999997">
</path>
<path stroke-width="1.5" fill="none" stroke="#000000" stroke-dasharray="none" d="M476.0666991999999 197.99999999999997L476.0666991999999 163.74999999999997">
</path>
<path stroke-width="0.3" fill="#000000" stroke="none" stroke-dasharray="none" d="M406.1215168 162.99999999999997L406.1215168 167.99999999999997L476.3166991999999 167.99999999999997L476.3166991999999 162.99999999999997Z">
</path>
<path stroke-width="0.3" fill="#000000" stroke="none" stroke-dasharray="none" d="M446.24555839999994 170.49999999999997L446.24555839999994 175.49999999999997L476.3166991999999 175.49999999999997L476.3166991999999 170.49999999999997Z">
</path>
<path stroke-width="1.5" fill="none" stroke="#000000" stroke-dasharray="none" d="M531.0019168 197.99999999999997L531.0019168 163.74999999999997">
</path>
<path stroke-width="1.5" fill="none" stroke="#000000" stroke-dasharray="none" d="M571.1259584 197.99999999999997L571.1259584 163.74999999999997">
</path>
<path stroke-width="1.5" fill="none" stroke="#000000" stroke-dasharray="none" d="M600.1970991999999 197.99999999999997L600.1970991999999 163.74999999999997">
</path>
<path stroke-width="0.3" fill="#000000" stroke="none" stroke-dasharray="none" d="M530.2519168 162.99999999999997L530.2519168 167.99999999999997L600.4470991999999 167.99999999999997L600.4470991999999 162.99999999999997Z">
</path>
<path stroke-width="0.3" fill="#000000" stroke="none" stroke-dasharray="none" d="M570.3759584 170.49999999999997L570.3759584 175.49999999999997L600.4470991999999 175.49999999999997L600.4470991999999 170.49999999999997Z">
</path>
<path stroke-width="1" fill="none" stroke="black" stroke-dasharray="none" d="M616.791872768 197.99999999999997L1055.0169231359998 197.99999999999997">
</path>
<rect stroke-width="0.3" fill="black" stroke="black" stroke-dasharray="none" x="1050.0169231359998" y="177.49999999999997" width="1" height="41">
</rect>
<rect stroke-width="0.3" fill="black" stroke="black" stroke-dasharray="none" x="1053.0169231359998" y="177.49999999999997" width="3" height="41">
</rect>
<path stroke-width="0.3" fill="black" stroke="none" stroke-dasharray="none" d="M1049.0169231359998 193.49999999999997 A2 2 0 0 0 1045.0169231359998 193.49999999999997M1045.0169231359998 193.49999999999997 A2 2 0 0 0 1049.0169231359998 193.49999999999997">
</path>
<path stroke-width="0.3" fill="black" stroke="none" stroke-dasharray="none" d="M1049.0169231359998 203.49999999999997 A2 2 0 0 0 1045.0169231359998 203.49999999999997M1045.0169231359998 203.49999999999997 A2 2 0 0 0 1049.0169231359998 203.49999999999997">
</path>
<path stroke-width="0.3" fill="black" stroke="none" stroke-dasharray="none" d="M621.921472768 197.99999999999997M627.5950727679999 179.33759999999998C627.710272768 179.33759999999998,627.911872768 179.33759999999998,628.142272768 179.33759999999998C628.603072768 179.33759999999998,629.2078727679999 179.33759999999998,629.3518727679999 179.39519999999996C631.511872768 179.65439999999998,633.2398727679999 180.74879999999996,633.9886727679999 182.27519999999998C634.247872768 182.79359999999997,634.3630727679999 183.34079999999997,634.3630727679999 183.91679999999997C634.3630727679999 185.32799999999997,633.5854727679999 186.94079999999997,632.1742727679999 188.15039999999996C631.1950727679999 188.98559999999998,630.2158727679999 189.50399999999996,628.689472768 189.99359999999996C626.702272768 190.62719999999996,625.0030727679999 191.75039999999998,623.908672768 193.10399999999998C623.908672768 193.10399999999998,623.908672768 193.13279999999997,623.908672768 193.13279999999997C623.908672768 193.13279999999997,623.908672768 193.13279999999997,623.908672768 193.13279999999997C623.908672768 193.13279999999997,623.995072768 193.10399999999998,624.052672768 193.01759999999996C625.1470727679999 192.12479999999996,626.6158727679999 191.60639999999998,627.9406727679999 191.60639999999998C629.035072768 191.60639999999998,629.812672768 191.80799999999996,630.8494727679999 192.38399999999996C631.4830727679999 192.70079999999996,632.059072768 192.84479999999996,632.6062727679999 192.84479999999996C632.836672768 192.84479999999996,633.0670727679999 192.84479999999996,633.326272768 192.78719999999998C633.7006727679999 192.70079999999996,634.103872768 192.41279999999998,634.247872768 192.18239999999997C634.3342727679999 191.98079999999996,634.4782727679999 191.89439999999996,634.651072768 191.89439999999996C634.881472768 191.89439999999996,635.1118727679999 192.06719999999999,635.1118727679999 192.32639999999998C635.1118727679999 192.52799999999996,634.8526727679999 193.24799999999996,634.6222727679999 193.7376C633.7006727679999 195.58079999999998,632.0878727679999 196.73279999999997,630.532672768 196.73279999999997C630.4174727679999 196.73279999999997,630.3310727679999 196.73279999999997,630.2158727679999 196.70399999999998C629.812672768 196.70399999999998,629.6398727679999 196.58879999999996,629.121472768 196.24319999999997C628.0270727679999 195.52319999999997,626.644672768 195.14879999999997,625.4350727679999 195.14879999999997C624.9166727679999 195.14879999999997,624.455872768 195.20639999999997,624.0238727679999 195.37919999999997C623.4478727679999 195.58079999999998,622.9006727679999 195.92639999999997,622.727872768 196.18559999999997C622.641472768 196.38719999999998,622.497472768 196.44479999999996,622.3246727679999 196.44479999999996C622.1806727679999 196.44479999999996,622.0366727679999 196.38719999999998,621.950272768 196.21439999999998L621.8926727679999 196.128L621.8926727679999 195.72479999999996C621.8926727679999 195.37919999999997,621.921472768 195.26399999999998,621.921472768 195.14879999999997C621.950272768 195.06239999999997,621.9790727679999 194.88959999999997,621.9790727679999 194.74559999999997C622.497472768 192.32639999999998,624.254272768 190.16639999999998,626.644672768 189.10079999999996C628.603072768 188.17919999999998,629.899072768 186.53759999999997,630.1294727679999 184.46399999999997C630.1870727679999 184.29119999999998,630.1870727679999 184.14719999999997,630.1870727679999 183.97439999999997C630.1870727679999 182.13119999999998,628.8046727679999 180.86399999999998,626.846272768 180.86399999999998C626.702272768 180.86399999999998,626.5294727679999 180.86399999999998,626.385472768 180.86399999999998C626.097472768 180.89279999999997,626.011072768 180.89279999999997,626.011072768 180.95039999999997C626.011072768 180.95039999999997,626.011072768 180.97919999999996,626.097472768 181.03679999999997C626.7598727679999 181.41119999999998,627.076672768 182.13119999999998,627.076672768 182.82239999999996C627.076672768 183.71519999999998,626.6158727679999 184.55039999999997,625.723072768 184.89599999999996C625.4350727679999 184.98239999999998,625.1470727679999 185.01119999999997,624.9166727679999 185.01119999999997C623.707072768 185.01119999999997,622.699072768 183.97439999999997,622.699072768 182.73599999999996C622.699072768 182.50559999999996,622.699072768 182.27519999999998,622.7566727679999 182.01599999999996C623.188672768 180.69119999999998,625.233472768 179.59679999999997,627.5950727679999 179.33759999999998M628.487872768 198.02879999999996L628.545472768 198.02879999999996L628.4590727679999 198.02879999999996L628.487872768 198.02879999999996M628.487872768 178.61759999999998L628.545472768 178.61759999999998L628.4590727679999 178.61759999999998L628.487872768 178.61759999999998">
</path>
<path stroke-width="0.3" fill="black" stroke="none" stroke-dasharray="none" d="M621.791872768 217.99999999999997M626.803072768 199.65439999999998C626.8318727679999 199.62559999999996,627.235072768 199.62559999999996,628.473472768 199.62559999999996C628.847872768 199.62559999999996,629.251072768 199.62559999999996,629.769472768 199.62559999999996L632.6782727679999 199.62559999999996L632.764672768 199.71199999999996C632.908672768 199.79839999999996,632.995072768 199.94239999999996,632.995072768 200.05759999999998C632.995072768 200.23039999999997,632.908672768 200.34559999999996,632.793472768 200.46079999999998C632.764672768 200.54719999999998,632.505472768 200.77759999999998,632.332672768 201.03679999999997L630.806272768 202.79359999999997L628.847872768 205.01119999999997L627.8110727679999 206.19199999999998L626.255872768 207.97759999999997L624.211072768 210.31039999999996C623.865472768 210.74239999999998,623.491072768 211.08799999999997,623.491072768 211.08799999999997C623.491072768 211.08799999999997,623.491072768 211.08799999999997,623.491072768 211.08799999999997C623.491072768 211.14559999999997,623.750272768 211.14559999999997,626.140672768 211.14559999999997L628.761472768 211.14559999999997L628.761472768 209.27359999999996C628.761472768 207.37279999999998,628.761472768 207.34399999999997,628.7902727679999 207.31519999999998C628.847872768 207.22879999999998,629.107072768 206.91199999999998,630.115072768 205.73119999999997L630.518272768 205.29919999999998L630.921472768 204.86719999999997L631.526272768 204.08959999999996L632.159872768 203.42719999999997L632.476672768 203.02399999999997C632.5918727679999 202.85119999999998,632.764672768 202.82239999999996,632.908672768 202.82239999999996C633.0814727679999 202.82239999999996,633.2254727679999 202.90879999999999,633.311872768 203.05279999999996C633.340672768 203.13919999999996,633.340672768 203.19679999999997,633.340672768 205.32799999999997C633.340672768 205.81759999999997,633.340672768 206.42239999999998,633.340672768 207.14239999999998L633.340672768 211.14559999999997L634.0606727679999 211.14559999999997C634.723072768 211.14559999999997,634.751872768 211.14559999999997,634.8382727679999 211.17439999999996C635.0686727679999 211.26079999999996,635.183872768 211.49119999999996,635.183872768 211.75039999999998C635.183872768 211.89439999999996,635.155072768 212.06719999999999,635.039872768 212.18239999999997C634.867072768 212.32639999999998,634.8382727679999 212.32639999999998,634.0606727679999 212.32639999999998L633.340672768 212.32639999999998L633.340672768 212.81599999999997C633.3694727679999 214.28479999999996,633.6574727679999 214.86079999999998,634.7806727679999 215.46559999999997C635.183872768 215.66719999999998,635.2702727679999 215.72479999999996,635.2702727679999 216.01279999999997C635.2702727679999 216.21439999999998,635.212672768 216.30079999999998,635.0686727679999 216.41599999999997L634.9822727679999 216.44479999999996L631.036672768 216.44479999999996L627.1198727679999 216.44479999999996L627.0334727679999 216.41599999999997C626.860672768 216.30079999999998,626.8318727679999 216.21439999999998,626.8318727679999 216.01279999999997C626.8318727679999 215.72479999999996,626.860672768 215.66719999999998,627.292672768 215.46559999999997C628.415872768 214.86079999999998,628.703872768 214.28479999999996,628.703872768 212.81599999999997L628.703872768 212.32639999999998L625.391872768 212.32639999999998C624.7870727679999 212.38399999999996,624.2974727679999 212.38399999999996,623.894272768 212.38399999999996C622.079872768 212.38399999999996,622.0510727679999 212.32639999999998,622.022272768 212.32639999999998C621.8494727679999 212.26879999999997,621.791872768 212.09599999999998,621.791872768 211.89439999999996C621.791872768 211.89439999999996,621.791872768 211.89439999999996,621.791872768 211.89439999999996C621.791872768 211.69279999999998,621.791872768 211.69279999999998,622.367872768 211.0304C624.7870727679999 208.09279999999998,626.4862727679999 203.83039999999997,626.4862727679999 200.43199999999996C626.4862727679999 199.91359999999997,626.572672768 199.74079999999998,626.803072768 199.65439999999998M628.531072768 218.02879999999996L628.559872768 218.02879999999996L628.473472768 218.02879999999996L628.531072768 218.02879999999996M628.531072768 198.61759999999998L628.559872768 198.61759999999998L628.473472768 198.61759999999998L628.531072768 198.61759999999998">
</path>
<g class="vf-stavenote" id="vf-auto26829">
<g class="vf-note" pointer-events="bounding-box">
<g class="vf-notehead" pointer-events="bounding-box">
<path stroke-width="0.3" fill="#000000" stroke="none" stroke-dasharray="none" d="M673.134349568 197.99999999999997M680.4913095679999 192.77711999999997C680.603629568 192.77711999999997,680.7721095679999 192.77711999999997,680.800189568 192.77711999999997C680.800189568 192.77711999999997,680.828269568 192.77711999999997,680.828269568 192.77711999999997C680.828269568 192.77711999999997,680.9967495679999 192.77711999999997,681.1371495679999 192.77711999999997C683.6643495679999 192.91751999999997,685.1525895679999 194.57423999999997,685.1525895679999 196.65215999999998C685.1525895679999 197.66303999999997,684.815629568 198.81431999999998,683.973229568 199.90943999999996C682.372669568 202.07159999999996,679.761229568 203.25095999999996,677.4867495679999 203.25095999999996C675.7177095679999 203.25095999999996,674.201389568 202.54895999999997,673.4713095679999 201.11687999999998C673.2466695679999 200.55527999999998,673.134349568 200.02175999999997,673.134349568 199.43207999999998C673.134349568 196.37135999999998,676.5601095679999 192.97367999999997,680.4913095679999 192.77711999999997">
</path>
</g>
</g>
<g class="vf-modifiers">
<g class="vf-stavenote" id="vf-auto26839">
<g class="vf-note" pointer-events="bounding-box">
<g class="vf-stem" pointer-events="bounding-box">
<path stroke-width="1.5" fill="none" stroke="#000000" stroke-dasharray="none" d="M654.4523111679999 197.99999999999997L654.4523111679999 174.89999999999998">
</path>
</g>
<g class="vf-notehead" pointer-events="bounding-box">
<path stroke-width="0.3" fill="#000000" stroke="none" stroke-dasharray="none" d="M647.2702727679999 197.99999999999997M652.125866368 194.55289919999998C652.199997568 194.55289919999998,652.311194368 194.55289919999998,652.329727168 194.55289919999998C652.329727168 194.55289919999998,652.348259968 194.55289919999998,652.348259968 194.55289919999998C652.348259968 194.55289919999998,652.4594567679999 194.55289919999998,652.5521207679999 194.55289919999998C654.2200727679999 194.64556319999997,655.2023111679999 195.73899839999996,655.2023111679999 197.11042559999999C655.2023111679999 197.77760639999997,654.9799175679999 198.53745119999996,654.4239335679999 199.26023039999998C653.3675639679999 200.68725599999996,651.6440135679999 201.46563359999996,650.1428567679999 201.46563359999996C648.975290368 201.46563359999996,647.9745191679999 201.00231359999998,647.492666368 200.05714079999998C647.3444039679999 199.68648479999996,647.2702727679999 199.33436159999997,647.2702727679999 198.94517279999997C647.2702727679999 196.92509759999996,649.5312743679999 194.68262879999997,652.125866368 194.55289919999998">
</path>
</g>
<g class="vf-flag" pointer-events="bounding-box">
<path stroke-width="0.3" fill="#000000" stroke="none" stroke-dasharray="none" d="M654.4523111679999 172.89999999999998M654.007523968 175.88378079999998L654.007523968 172.992664L654.0816551679999 172.992664C654.2855159679999 172.992664,654.4152455679999 173.12239359999998,654.4523111679999 173.34478719999998C654.841499968 175.19806719999997,656.0090663679999 177.21814239999998,657.6214199679999 178.73783199999997C659.419101568 180.42431679999999,660.327208768 182.74091679999998,660.327208768 185.13164799999998C660.327208768 187.39264959999997,659.530298368 189.74631519999997,657.917944768 191.69225919999997C657.639952768 192.06291519999996,657.6214199679999 192.06291519999996,657.4360919679999 192.06291519999996C657.2136983679999 192.06291519999996,657.065435968 191.89611999999997,657.065435968 191.67372639999996C657.065435968 191.50693119999997,657.083968768 191.4698656,657.2692967679999 191.2660048C658.677789568 189.56098719999997,659.382035968 187.5038464,659.382035968 185.5393696C659.382035968 183.7972864,658.8260519679999 182.12933439999998,657.677018368 180.86910399999996C656.972771968 180.09072639999997,655.6754759679999 179.34941439999997,654.026056768 178.77489759999997C654.026056768 178.75636479999997,654.007523968 178.18184799999997,654.007523968 175.88378079999998">
</path>
</g>
</g>
<g class="vf-modifiers">
</g>
</g>
<path stroke-width="1" fill="none" stroke="#000000" stroke-dasharray="none" d="M648.2702727679999 189.74999999999997L661.2702727679999 180.74999999999997Z">
</path>
</g>
</g>
<g class="vf-stavenote" id="vf-auto26853">
<g class="vf-note" pointer-events="bounding-box">
<g class="vf-notehead" pointer-events="bounding-box">
<path stroke-width="0.3" fill="#000000" stroke="none" stroke-dasharray="none" d="M711.3925111679999 197.99999999999997M718.7494711679999 192.77711999999997C718.861791168 192.77711999999997,719.0302711679999 192.77711999999997,719.058351168 192.77711999999997C719.058351168 192.77711999999997,719.086431168 192.77711999999997,719.086431168 192.77711999999997C719.086431168 192.77711999999997,719.2549111679999 192.77711999999997,719.3953111679999 192.77711999999997C721.9225111679999 192.91751999999997,723.4107511679999 194.57423999999997,723.4107511679999 196.65215999999998C723.4107511679999 197.66303999999997,723.073791168 198.81431999999998,722.231391168 199.90943999999996C720.630831168 202.07159999999996,718.019391168 203.25095999999996,715.7449111679999 203.25095999999996C713.9758711679999 203.25095999999996,712.459551168 202.54895999999997,711.7294711679999 201.11687999999998C711.5048311679999 200.55527999999998,711.3925111679999 200.02175999999997,711.3925111679999 199.43207999999998C711.3925111679999 196.37135999999998,714.8182711679999 192.97367999999997,718.7494711679999 192.77711999999997">
</path>
</g>
</g>
<g class="vf-modifiers">
</g>
</g>
<g class="vf-stavenote" id="vf-auto26863">
<g class="vf-note" pointer-events="bounding-box">
<g class="vf-notehead" pointer-events="bounding-box">
<path stroke-width="0.3" fill="#000000" stroke="none" stroke-dasharray="none" d="M775.514749568 197.99999999999997M782.8717095679999 192.77711999999997C782.984029568 192.77711999999997,783.1525095679999 192.77711999999997,783.180589568 192.77711999999997C783.180589568 192.77711999999997,783.208669568 192.77711999999997,783.208669568 192.77711999999997C783.208669568 192.77711999999997,783.3771495679999 192.77711999999997,783.5175495679999 192.77711999999997C786.0447495679999 192.91751999999997,787.532989568 194.57423999999997,787.532989568 196.65215999999998C787.532989568 197.66303999999997,787.196029568 198.81431999999998,786.353629568 199.90943999999996C784.753069568 202.07159999999996,782.141629568 203.25095999999996,779.867149568 203.25095999999996C778.0981095679999 203.25095999999996,776.581789568 202.54895999999997,775.8517095679999 201.11687999999998C775.6270695679999 200.55527999999998,775.514749568 200.02175999999997,775.514749568 199.43207999999998C775.514749568 196.37135999999998,778.9405095679999 192.97367999999997,782.8717095679999 192.77711999999997">
</path>
</g>
</g>
<g class="vf-modifiers">
<g class="vf-stavenote" id="vf-auto26873">
<g class="vf-note" pointer-events="bounding-box">
<g class="vf-stem" pointer-events="bounding-box">
<path stroke-width="1.5" fill="none" stroke="#000000" stroke-dasharray="none" d="M756.832711168 197.99999999999997L756.832711168 174.89999999999998">
</path>
</g>
<g class="vf-notehead" pointer-events="bounding-box">
<path stroke-width="0.3" fill="#000000" stroke="none" stroke-dasharray="none" d="M749.6506727679999 197.99999999999997M754.506266368 194.55289919999998C754.580397568 194.55289919999998,754.691594368 194.55289919999998,754.710127168 194.55289919999998C754.710127168 194.55289919999998,754.728659968 194.55289919999998,754.728659968 194.55289919999998C754.728659968 194.55289919999998,754.8398567679999 194.55289919999998,754.9325207679999 194.55289919999998C756.6004727679999 194.64556319999997,757.582711168 195.73899839999996,757.582711168 197.11042559999999C757.582711168 197.77760639999997,757.3603175679999 198.53745119999996,756.804333568 199.26023039999998C755.7479639679999 200.68725599999996,754.0244135679999 201.46563359999996,752.5232567679999 201.46563359999996C751.355690368 201.46563359999996,750.3549191679999 201.00231359999998,749.873066368 200.05714079999998C749.724803968 199.68648479999996,749.6506727679999 199.33436159999997,749.6506727679999 198.94517279999997C749.6506727679999 196.92509759999996,751.9116743679999 194.68262879999997,754.506266368 194.55289919999998">
</path>
</g>
<g class="vf-flag" pointer-events="bounding-box">
<path stroke-width="0.3" fill="#000000" stroke="none" stroke-dasharray="none" d="M756.832711168 172.89999999999998M756.387923968 175.88378079999998L756.387923968 172.992664L756.4620551679999 172.992664C756.6659159679999 172.992664,756.7956455679999 173.12239359999998,756.832711168 173.34478719999998C757.221899968 175.19806719999997,758.389466368 177.21814239999998,760.001819968 178.73783199999997C761.799501568 180.42431679999999,762.707608768 182.74091679999998,762.707608768 185.13164799999998C762.707608768 187.39264959999997,761.910698368 189.74631519999997,760.298344768 191.69225919999997C760.020352768 192.06291519999996,760.001819968 192.06291519999996,759.8164919679999 192.06291519999996C759.5940983679999 192.06291519999996,759.445835968 191.89611999999997,759.445835968 191.67372639999996C759.445835968 191.50693119999997,759.464368768 191.4698656,759.6496967679999 191.2660048C761.058189568 189.56098719999997,761.762435968 187.5038464,761.762435968 185.5393696C761.762435968 183.7972864,761.2064519679999 182.12933439999998,760.057418368 180.86910399999996C759.353171968 180.09072639999997,758.0558759679999 179.34941439999997,756.406456768 178.77489759999997C756.406456768 178.75636479999997,756.387923968 178.18184799999997,756.387923968 175.88378079999998">
</path>
</g>
</g>
<g class="vf-modifiers">
</g>
</g>
<path stroke-width="1" fill="none" stroke="#000000" stroke-dasharray="none" d="M750.6506727679999 189.74999999999997L763.6506727679999 180.74999999999997Z">
</path>
</g>
</g>
<g class="vf-stavenote" id="vf-auto26887">
<g class="vf-note" pointer-events="bounding-box">
<g class="vf-notehead" pointer-events="bounding-box">
<path stroke-width="0.3" fill="#000000" stroke="none" stroke-dasharray="none" d="M813.772911168 197.99999999999997M821.1298711679999 192.77711999999997C821.242191168 192.77711999999997,821.4106711679999 192.77711999999997,821.438751168 192.77711999999997C821.438751168 192.77711999999997,821.466831168 192.77711999999997,821.466831168 192.77711999999997C821.466831168 192.77711999999997,821.6353111679999 192.77711999999997,821.7757111679999 192.77711999999997C824.3029111679999 192.91751999999997,825.7911511679999 194.57423999999997,825.7911511679999 196.65215999999998C825.7911511679999 197.66303999999997,825.454191168 198.81431999999998,824.611791168 199.90943999999996C823.011231168 202.07159999999996,820.399791168 203.25095999999996,818.1253111679999 203.25095999999996C816.3562711679999 203.25095999999996,814.839951168 202.54895999999997,814.1098711679999 201.11687999999998C813.8852311679999 200.55527999999998,813.772911168 200.02175999999997,813.772911168 199.43207999999998C813.772911168 196.37135999999998,817.1986711679999 192.97367999999997,821.1298711679999 192.77711999999997">
</path>
</g>
</g>
<g class="vf-modifiers">
</g>
</g>
<g class="vf-stavenote" id="vf-auto26897">
<g class="vf-note" pointer-events="bounding-box">
<g class="vf-notehead" pointer-events="bounding-box">
<path stroke-width="0.3" fill="#000000" stroke="none" stroke-dasharray="none" d="M877.8951495679999 197.99999999999997M885.2521095679998 192.77711999999997C885.3644295679999 192.77711999999997,885.5329095679998 192.77711999999997,885.5609895679999 192.77711999999997C885.5609895679999 192.77711999999997,885.5890695679999 192.77711999999997,885.5890695679999 192.77711999999997C885.5890695679999 192.77711999999997,885.7575495679998 192.77711999999997,885.8979495679998 192.77711999999997C888.4251495679998 192.91751999999997,889.9133895679998 194.57423999999997,889.9133895679998 196.65215999999998C889.9133895679998 197.66303999999997,889.5764295679999 198.81431999999998,888.7340295679999 199.90943999999996C887.1334695679999 202.07159999999996,884.5220295679999 203.25095999999996,882.2475495679998 203.25095999999996C880.4785095679998 203.25095999999996,878.9621895679999 202.54895999999997,878.2321095679998 201.11687999999998C878.0074695679998 200.55527999999998,877.8951495679999 200.02175999999997,877.8951495679999 199.43207999999998C877.8951495679999 196.37135999999998,881.3209095679998 192.97367999999997,885.2521095679998 192.77711999999997">
</path>
</g>
</g>
<g class="vf-modifiers">
<g class="vf-stavenote" id="vf-auto26907">
<g class="vf-note" pointer-events="bounding-box">
<g class="vf-stem" pointer-events="bounding-box">
<path stroke-width="1.5" fill="none" stroke="#000000" stroke-dasharray="none" d="M859.213111168 197.99999999999997L859.213111168 174.89999999999998">
</path>
</g>
<g class="vf-notehead" pointer-events="bounding-box">
<path stroke-width="0.3" fill="#000000" stroke="none" stroke-dasharray="none" d="M852.031072768 197.99999999999997M856.886666368 194.55289919999998C856.960797568 194.55289919999998,857.071994368 194.55289919999998,857.090527168 194.55289919999998C857.090527168 194.55289919999998,857.109059968 194.55289919999998,857.109059968 194.55289919999998C857.109059968 194.55289919999998,857.2202567679999 194.55289919999998,857.3129207679999 194.55289919999998C858.9808727679999 194.64556319999997,859.963111168 195.73899839999996,859.963111168 197.11042559999999C859.963111168 197.77760639999997,859.7407175679999 198.53745119999996,859.184733568 199.26023039999998C858.1283639679999 200.68725599999996,856.4048135679999 201.46563359999996,854.9036567679999 201.46563359999996C853.736090368 201.46563359999996,852.7353191679999 201.00231359999998,852.253466368 200.05714079999998C852.105203968 199.68648479999996,852.031072768 199.33436159999997,852.031072768 198.94517279999997C852.031072768 196.92509759999996,854.2920743679999 194.68262879999997,856.886666368 194.55289919999998">
</path>
</g>
<g class="vf-flag" pointer-events="bounding-box">
<path stroke-width="0.3" fill="#000000" stroke="none" stroke-dasharray="none" d="M859.213111168 172.89999999999998M858.768323968 175.88378079999998L858.768323968 172.992664L858.8424551679999 172.992664C859.0463159679999 172.992664,859.176045568 173.12239359999998,859.213111168 173.34478719999998C859.602299968 175.19806719999997,860.769866368 177.21814239999998,862.382219968 178.73783199999997C864.179901568 180.42431679999999,865.088008768 182.74091679999998,865.088008768 185.13164799999998C865.088008768 187.39264959999997,864.291098368 189.74631519999997,862.678744768 191.69225919999997C862.400752768 192.06291519999996,862.382219968 192.06291519999996,862.1968919679999 192.06291519999996C861.9744983679999 192.06291519999996,861.826235968 191.89611999999997,861.826235968 191.67372639999996C861.826235968 191.50693119999997,861.844768768 191.4698656,862.0300967679999 191.2660048C863.438589568 189.56098719999997,864.142835968 187.5038464,864.142835968 185.5393696C864.142835968 183.7972864,863.5868519679999 182.12933439999998,862.437818368 180.86910399999996C861.733571968 180.09072639999997,860.4362759679999 179.34941439999997,858.786856768 178.77489759999997C858.786856768 178.75636479999997,858.768323968 178.18184799999997,858.768323968 175.88378079999998">
</path>
</g>
</g>
<g class="vf-modifiers">
</g>
</g>
<path stroke-width="1" fill="none" stroke="#000000" stroke-dasharray="none" d="M853.031072768 189.74999999999997L866.031072768 180.74999999999997Z">
</path>
</g>
</g>
<g class="vf-stavenote" id="vf-auto26921">
<g class="vf-note" pointer-events="bounding-box">
<g class="vf-notehead" pointer-events="bounding-box">
<path stroke-width="0.3" fill="#000000" stroke="none" stroke-dasharray="none" d="M916.1533111679998 197.99999999999997M923.5102711679998 192.77711999999997C923.6225911679999 192.77711999999997,923.7910711679998 192.77711999999997,923.8191511679998 192.77711999999997C923.8191511679998 192.77711999999997,923.8472311679999 192.77711999999997,923.8472311679999 192.77711999999997C923.8472311679999 192.77711999999997,924.0157111679998 192.77711999999997,924.1561111679998 192.77711999999997C926.6833111679998 192.91751999999997,928.1715511679998 194.57423999999997,928.1715511679998 196.65215999999998C928.1715511679998 197.66303999999997,927.8345911679999 198.81431999999998,926.9921911679999 199.90943999999996C925.3916311679999 202.07159999999996,922.7801911679999 203.25095999999996,920.5057111679998 203.25095999999996C918.7366711679998 203.25095999999996,917.2203511679999 202.54895999999997,916.4902711679998 201.11687999999998C916.2656311679998 200.55527999999998,916.1533111679998 200.02175999999997,916.1533111679998 199.43207999999998C916.1533111679998 196.37135999999998,919.5790711679998 192.97367999999997,923.5102711679998 192.77711999999997">
</path>
</g>
</g>
<g class="vf-modifiers">
</g>
</g>
<g class="vf-stavenote" id="vf-auto26931">
<g class="vf-note" pointer-events="bounding-box">
<g class="vf-notehead" pointer-events="bounding-box">
<path stroke-width="0.3" fill="#000000" stroke="none" stroke-dasharray="none" d="M980.2755495679999 197.99999999999997M987.6325095679998 192.77711999999997C987.7448295679999 192.77711999999997,987.9133095679998 192.77711999999997,987.9413895679999 192.77711999999997C987.9413895679999 192.77711999999997,987.9694695679999 192.77711999999997,987.9694695679999 192.77711999999997C987.9694695679999 192.77711999999997,988.1379495679998 192.77711999999997,988.2783495679998 192.77711999999997C990.8055495679998 192.91751999999997,992.2937895679999 194.57423999999997,992.2937895679999 196.65215999999998C992.2937895679999 197.66303999999997,991.9568295679999 198.81431999999998,991.1144295679999 199.90943999999996C989.5138695679999 202.07159999999996,986.9024295679999 203.25095999999996,984.6279495679998 203.25095999999996C982.8589095679998 203.25095999999996,981.3425895679999 202.54895999999997,980.6125095679998 201.11687999999998C980.3878695679998 200.55527999999998,980.2755495679999 200.02175999999997,980.2755495679999 199.43207999999998C980.2755495679999 196.37135999999998,983.7013095679998 192.97367999999997,987.6325095679998 192.77711999999997">
</path>
</g>
</g>
<g class="vf-modifiers">
<g class="vf-stavenote" id="vf-auto26941">
<g class="vf-note" pointer-events="bounding-box">
<g class="vf-stem" pointer-events="bounding-box">
<path stroke-width="1.5" fill="none" stroke="#000000" stroke-dasharray="none" d="M961.5935111679998 197.99999999999997L961.5935111679998 174.89999999999998">
</path>
</g>
<g class="vf-notehead" pointer-events="bounding-box">
<path stroke-width="0.3" fill="#000000" stroke="none" stroke-dasharray="none" d="M954.4114727679998 197.99999999999997M959.2670663679999 194.55289919999998C959.3411975679999 194.55289919999998,959.4523943679999 194.55289919999998,959.4709271679999 194.55289919999998C959.4709271679999 194.55289919999998,959.4894599679999 194.55289919999998,959.4894599679999 194.55289919999998C959.4894599679999 194.55289919999998,959.6006567679998 194.55289919999998,959.6933207679998 194.55289919999998C961.3612727679998 194.64556319999997,962.3435111679998 195.73899839999996,962.3435111679998 197.11042559999999C962.3435111679998 197.77760639999997,962.1211175679998 198.53745119999996,961.5651335679999 199.26023039999998C960.5087639679998 200.68725599999996,958.7852135679998 201.46563359999996,957.2840567679998 201.46563359999996C956.1164903679999 201.46563359999996,955.1157191679998 201.00231359999998,954.6338663679999 200.05714079999998C954.4856039679999 199.68648479999996,954.4114727679998 199.33436159999997,954.4114727679998 198.94517279999997C954.4114727679998 196.92509759999996,956.6724743679998 194.68262879999997,959.2670663679999 194.55289919999998">
</path>
</g>
<g class="vf-flag" pointer-events="bounding-box">
<path stroke-width="0.3" fill="#000000" stroke="none" stroke-dasharray="none" d="M961.5935111679998 172.89999999999998M961.1487239679999 175.88378079999998L961.1487239679999 172.992664L961.2228551679998 172.992664C961.4267159679998 172.992664,961.5564455679998 173.12239359999998,961.5935111679998 173.34478719999998C961.9826999679999 175.19806719999997,963.1502663679998 177.21814239999998,964.7626199679999 178.73783199999997C966.5603015679999 180.42431679999999,967.4684087679999 182.74091679999998,967.4684087679999 185.13164799999998C967.4684087679999 187.39264959999997,966.6714983679999 189.74631519999997,965.0591447679999 191.69225919999997C964.7811527679999 192.06291519999996,964.7626199679999 192.06291519999996,964.5772919679998 192.06291519999996C964.3548983679998 192.06291519999996,964.2066359679999 191.89611999999997,964.2066359679999 191.67372639999996C964.2066359679999 191.50693119999997,964.2251687679999 191.4698656,964.4104967679998 191.2660048C965.8189895679999 189.56098719999997,966.5232359679999 187.5038464,966.5232359679999 185.5393696C966.5232359679999 183.7972864,965.9672519679998 182.12933439999998,964.8182183679999 180.86910399999996C964.1139719679999 180.09072639999997,962.8166759679998 179.34941439999997,961.1672567679999 178.77489759999997C961.1672567679999 178.75636479999997,961.1487239679999 178.18184799999997,961.1487239679999 175.88378079999998">
</path>
</g>
</g>
<g class="vf-modifiers">
</g>
</g>
<path stroke-width="1" fill="none" stroke="#000000" stroke-dasharray="none" d="M955.4114727679998 189.74999999999997L968.4114727679998 180.74999999999997Z">
</path>
</g>
</g>
<g class="vf-stavenote" id="vf-auto26955">
<g class="vf-note" pointer-events="bounding-box">
<g class="vf-notehead" pointer-events="bounding-box">
<path stroke-width="0.3" fill="#000000" stroke="none" stroke-dasharray="none" d="M1018.5337111679999 197.99999999999997M1025.890671168 192.77711999999997C1026.0029911679999 192.77711999999997,1026.171471168 192.77711999999997,1026.1995511679997 192.77711999999997C1026.1995511679997 192.77711999999997,1026.2276311679998 192.77711999999997,1026.2276311679998 192.77711999999997C1026.2276311679998 192.77711999999997,1026.3961111679998 192.77711999999997,1026.5365111679998 192.77711999999997C1029.0637111679998 192.91751999999997,1030.551951168 194.57423999999997,1030.551951168 196.65215999999998C1030.551951168 197.66303999999997,1030.2149911679999 198.81431999999998,1029.3725911679999 199.90943999999996C1027.7720311679998 202.07159999999996,1025.1605911679999 203.25095999999996,1022.8861111679998 203.25095999999996C1021.1170711679998 203.25095999999996,1019.6007511679999 202.54895999999997,1018.8706711679998 201.11687999999998C1018.6460311679998 200.55527999999998,1018.5337111679999 200.02175999999997,1018.5337111679999 199.43207999999998C1018.5337111679999 196.37135999999998,1021.9594711679998 192.97367999999997,1025.890671168 192.77711999999997">
</path>
</g>
</g>
<g class="vf-modifiers">
</g>
</g>
<path stroke-width="1.5" fill="none" stroke="#000000" stroke-dasharray="none" d="M684.4025895679999 197.99999999999997L684.4025895679999 163.74999999999997">
</path>
<path stroke-width="1.5" fill="none" stroke="#000000" stroke-dasharray="none" d="M722.6607511679999 197.99999999999997L722.6607511679999 163.74999999999997">
</path>
<path stroke-width="1.5" fill="none" stroke="#000000" stroke-dasharray="none" d="M786.782989568 197.99999999999997L786.782989568 163.74999999999997">
</path>
<path stroke-width="1.5" fill="none" stroke="#000000" stroke-dasharray="none" d="M825.0411511679999 197.99999999999997L825.0411511679999 163.74999999999997">
</path>
<path stroke-width="0.3" fill="#000000" stroke="none" stroke-dasharray="none" d="M683.6525895679999 162.99999999999997L683.6525895679999 167.99999999999997L825.2911511679999 167.99999999999997L825.2911511679999 162.99999999999997Z">
</path>
<path stroke-width="0.3" fill="#000000" stroke="none" stroke-dasharray="none" d="M683.6525895679999 170.49999999999997L683.6525895679999 175.49999999999997L825.2911511679999 175.49999999999997L825.2911511679999 170.49999999999997Z">
</path>
<path stroke-width="1.5" fill="none" stroke="#000000" stroke-dasharray="none" d="M889.1633895679998 197.99999999999997L889.1633895679998 163.74999999999997">
</path>
<path stroke-width="1.5" fill="none" stroke="#000000" stroke-dasharray="none" d="M927.4215511679998 197.99999999999997L927.4215511679998 163.74999999999997">
</path>
<path stroke-width="1.5" fill="none" stroke="#000000" stroke-dasharray="none" d="M991.5437895679999 197.99999999999997L991.5437895679999 163.74999999999997">
</path>
<path stroke-width="1.5" fill="none" stroke="#000000" stroke-dasharray="none" d="M1029.801951168 197.99999999999997L1029.801951168 163.74999999999997">
</path>
<path stroke-width="0.3" fill="#000000" stroke="none" stroke-dasharray="none" d="M888.4133895679998 162.99999999999997L888.4133895679998 167.99999999999997L1030.051951168 167.99999999999997L1030.051951168 162.99999999999997Z">
</path>
<path stroke-width="0.3" fill="#000000" stroke="none" stroke-dasharray="none" d="M888.4133895679998 170.49999999999997L888.4133895679998 175.49999999999997L1030.051951168 175.49999999999997L1030.051951168 170.49999999999997Z">
</path>
</svg>