<svg width="1536" height="331.99999999999994" viewBox="0 0 1536 331.99999999999994">
<path stroke-width="1" fill="none" stroke="black" stroke-dasharray="none" d="M50 197.99999999999997L780.9151979519999 197.99999999999997">
</path>
<rect stroke-width="0.3" fill="black" stroke="black" stroke-dasharray="none" x="780.9151979519999" y="177.49999999999997" width="1" height="41">
</rect>
<path stroke-width="0.3" fill="black" stroke="none" stroke-dasharray="none" d="M55 197.99999999999997M55 197.99999999999997L55 188.00639999999999L57.1888 188.00639999999999L59.4064 188.00639999999999L59.4064 197.99999999999997L59.4064 208.02239999999998L57.1888 208.02239999999998L55 208.02239999999998L55 197.99999999999997M63.870400000000004 198.02879999999996L63.870400000000004 188.00639999999999L66.1168 188.00639999999999L68.3632 188.00639999999999L68.3632 198.02879999999996L68.3632 208.02239999999998L66.1168 208.02239999999998L63.870400000000004 208.02239999999998L63.870400000000004 198.02879999999996">
</path>
<path stroke-width="0.3" fill="black" stroke="none" stroke-dasharray="none" d="M96 197.99999999999997M101.0112 179.65439999999998C101.04 179.62559999999996,101.4432 179.62559999999996,102.6816 179.62559999999996C103.056 179.62559999999996,103.4592 179.62559999999996,103.9776 179.62559999999996L106.8864 179.62559999999996L106.9728 179.71199999999996C107.1168 179.79839999999996,107.2032 179.94239999999996,107.2032 180.05759999999998C107.2032 180.23039999999997,107.1168 180.34559999999996,107.0016 180.46079999999998C106.9728 180.54719999999998,106.7136 180.77759999999998,106.5408 181.03679999999997L105.0144 182.79359999999997L103.056 185.01119999999997L102.0192 186.19199999999998L100.464 187.97759999999997L98.4192 190.31039999999996C98.0736 190.74239999999998,97.6992 191.08799999999997,97.6992 191.08799999999997C97.6992 191.08799999999997,97.6992 191.08799999999997,97.6992 191.08799999999997C97.6992 191.14559999999997,97.9584 191.14559999999997,100.3488 191.14559999999997L102.9696 191.14559999999997L102.9696 189.27359999999996C102.9696 187.37279999999998,102.9696 187.34399999999997,102.9984 187.31519999999998C103.056 187.22879999999998,103.3152 186.91199999999998,104.3232 185.73119999999997L104.7264 185.29919999999998L105.1296 184.86719999999997L105.7344 184.08959999999996L106.368 183.42719999999997L106.6848 183.02399999999997C106.8 182.85119999999998,106.9728 182.82239999999996,107.1168 182.82239999999996C107.28960000000001 182.82239999999996,107.4336 182.90879999999999,107.52 183.05279999999996C107.5488 183.13919999999996,107.5488 183.19679999999997,107.5488 185.32799999999997C107.5488 185.81759999999997,107.5488 186.42239999999998,107.5488 187.14239999999998L107.5488 191.14559999999997L108.2688 191.14559999999997C108.9312 191.14559999999997,108.96 191.14559999999997,109.0464 191.17439999999996C109.2768 191.26079999999996,109.392 191.49119999999996,109.392 191.75039999999998C109.392 191.89439999999996,109.3632 192.06719999999999,109.248 192.18239999999997C109.0752 192.32639999999998,109.0464 192.32639999999998,108.2688 192.32639999999998L107.5488 192.32639999999998L107.5488 192.81599999999997C107.5776 194.28479999999996,107.8656 194.86079999999998,108.9888 195.46559999999997C109.392 195.66719999999998,109.4784 195.72479999999996,109.4784 196.01279999999997C109.4784 196.21439999999998,109.4208 196.30079999999998,109.2768 196.41599999999997L109.1904 196.44479999999996L105.2448 196.44479999999996L101.328 196.44479999999996L101.2416 196.41599999999997C101.0688 196.30079999999998,101.04 196.21439999999998,101.04 196.01279999999997C101.04 195.72479999999996,101.0688 195.66719999999998,101.5008 195.46559999999997C102.624 194.86079999999998,102.912 194.28479999999996,102.912 192.81599999999997L102.912 192.32639999999998L99.6 192.32639999999998C98.9952 192.38399999999996,98.5056 192.38399999999996,98.1024 192.38399999999996C96.288 192.38399999999996,96.2592 192.32639999999998,96.2304 192.32639999999998C96.0576 192.26879999999997,96 192.09599999999998,96 191.89439999999996C96 191.89439999999996,96 191.89439999999996,96 191.89439999999996C96 191.69279999999998,96 191.69279999999998,96.576 191.0304C98.9952 188.09279999999998,100.6944 183.83039999999997,100.6944 180.43199999999996C100.6944 179.91359999999997,100.7808 179.74079999999998,101.0112 179.65439999999998M102.7392 198.02879999999996L102.768 198.02879999999996L102.6816 198.02879999999996L102.7392 198.02879999999996M102.7392 178.61759999999998L102.768 178.61759999999998L102.6816 178.61759999999998L102.7392 178.61759999999998">
</path>
<path stroke-width="0.3" fill="black" stroke="none" stroke-dasharray="none" d="M96 217.99999999999997M101.0112 199.65439999999998C101.04 199.62559999999996,101.4432 199.62559999999996,102.6816 199.62559999999996C103.056 199.62559999999996,103.4592 199.62559999999996,103.9776 199.62559999999996L106.8864 199.62559999999996L106.9728 199.71199999999996C107.1168 199.79839999999996,107.2032 199.94239999999996,107.2032 200.05759999999998C107.2032 200.23039999999997,107.1168 200.34559999999996,107.0016 200.46079999999998C106.9728 200.54719999999998,106.7136 200.77759999999998,106.5408 201.03679999999997L105.0144 202.79359999999997L103.056 205.01119999999997L102.0192 206.19199999999998L100.464 207.97759999999997L98.4192 210.31039999999996C98.0736 210.74239999999998,97.6992 211.08799999999997,97.6992 211.08799999999997C97.6992 211.08799999999997,97.6992 211.08799999999997,97.6992 211.08799999999997C97.6992 211.14559999999997,97.9584 211.14559999999997,100.3488 211.14559999999997L102.9696 211.14559999999997L102.9696 209.27359999999996C102.9696 207.37279999999998,102.9696 207.34399999999997,102.9984 207.31519999999998C103.056 207.22879999999998,103.3152 206.91199999999998,104.3232 205.73119999999997L104.7264 205.29919999999998L105.1296 204.86719999999997L105.7344 204.08959999999996L106.368 203.42719999999997L106.6848 203.02399999999997C106.8 202.85119999999998,106.9728 202.82239999999996,107.1168 202.82239999999996C107.28960000000001 202.82239999999996,107.4336 202.90879999999999,107.52 203.05279999999996C107.5488 203.13919999999996,107.5488 203.19679999999997,107.5488 205.32799999999997C107.5488 205.81759999999997,107.5488 206.42239999999998,107.5488 207.14239999999998L107.5488 211.14559999999997L108.2688 211.14559999999997C108.9312 211.14559999999997,108.96 211.14559999999997,109.0464 211.17439999999996C109.2768 211.26079999999996,109.392 211.49119999999996,109.392 211.75039999999998C109.392 211.89439999999996,109.3632 212.06719999999999,109.248 212.18239999999997C109.0752 212.32639999999998,109.0464 212.32639999999998,108.2688 212.32639999999998L107.5488 212.32639999999998L107.5488 212.81599999999997C107.5776 214.28479999999996,107.8656 214.86079999999998,108.9888 215.46559999999997C109.392 215.66719999999998,109.4784 215.72479999999996,109.4784 216.01279999999997C109.4784 216.21439999999998,109.4208 216.30079999999998,109.2768 216.41599999999997L109.1904 216.44479999999996L105.2448 216.44479999999996L101.328 216.44479999999996L101.2416 216.41599999999997C101.0688 216.30079999999998,101.04 216.21439999999998,101.04 216.01279999999997C101.04 215.72479999999996,101.0688 215.66719999999998,101.5008 215.46559999999997C102.624 214.86079999999998,102.912 214.28479999999996,102.912 212.81599999999997L102.912 212.32639999999998L99.6 212.32639999999998C98.9952 212.38399999999996,98.5056 212.38399999999996,98.1024 212.38399999999996C96.288 212.38399999999996,96.2592 212.32639999999998,96.2304 212.32639999999998C96.0576 212.26879999999997,96 212.09599999999998,96 211.89439999999996C96 211.89439999999996,96 211.89439999999996,96 211.89439999999996C96 211.69279999999998,96 211.69279999999998,96.576 211.0304C98.9952 208.09279999999998,100.6944 203.83039999999997,100.6944 200.43199999999996C100.6944 199.91359999999997,100.7808 199.74079999999998,101.0112 199.65439999999998M102.7392 218.02879999999996L102.768 218.02879999999996L102.6816 218.02879999999996L102.7392 218.02879999999996M102.7392 198.61759999999998L102.768 198.61759999999998L102.6816 198.61759999999998L102.7392 198.61759999999998">
</path>
<g class="vf-stavenote" id="vf-auto38153">
<g class="vf-note" pointer-events="bounding-box">
<g class="vf-notehead" pointer-events="bounding-box">
<path stroke-width="0.3" fill="#000000" stroke="none" stroke-dasharray="none" d="M147.3424768 197.99999999999997M154.69943679999997 192.77711999999997C154.81175679999998 192.77711999999997,154.9802368 192.77711999999997,155.0083168 192.77711999999997C155.0083168 192.77711999999997,155.03639679999998 192.77711999999997,155.03639679999998 192.77711999999997C155.03639679999998 192.77711999999997,155.2048768 192.77711999999997,155.3452768 192.77711999999997C157.8724768 192.91751999999997,159.36071679999998 194.57423999999997,159.36071679999998 196.65215999999998C159.36071679999998 197.66303999999997,159.0237568 198.81431999999998,158.18135679999997 199.90943999999996C156.58079679999997 202.07159999999996,153.96935679999999 203.25095999999996,151.69487679999997 203.25095999999996C149.92583679999998 203.25095999999996,148.40951679999998 202.54895999999997,147.6794368 201.11687999999998C147.4547968 200.55527999999998,147.3424768 200.02175999999997,147.3424768 199.43207999999998C147.3424768 196.37135999999998,150.76823679999998 192.97367999999997,154.69943679999997 192.77711999999997">
</path>
</g>
</g>
<g class="vf-modifiers">
<g class="vf-stavenote" id="vf-auto38163">
<g class="vf-note" pointer-events="bounding-box">
<g class="vf-stem" pointer-events="bounding-box">
<path stroke-width="1.5" fill="none" stroke="#000000" stroke-dasharray="none" d="M128.6604384 197.99999999999997L128.6604384 174.89999999999998">
</path>
</g>
<g class="vf-notehead" pointer-events="bounding-box">
<path stroke-width="0.3" fill="#000000" stroke="none" stroke-dasharray="none" d="M121.4784 197.99999999999997M126.3339936 194.55289919999998C126.4081248 194.55289919999998,126.5193216 194.55289919999998,126.5378544 194.55289919999998C126.5378544 194.55289919999998,126.55638719999999 194.55289919999998,126.55638719999999 194.55289919999998C126.55638719999999 194.55289919999998,126.66758399999999 194.55289919999998,126.76024799999999 194.55289919999998C128.4282 194.64556319999997,129.4104384 195.73899839999996,129.4104384 197.11042559999999C129.4104384 197.77760639999997,129.1880448 198.53745119999996,128.6320608 199.26023039999998C127.5756912 200.68725599999996,125.8521408 201.46563359999996,124.350984 201.46563359999996C123.1834176 201.46563359999996,122.1826464 201.00231359999998,121.7007936 200.05714079999998C121.55253119999999 199.68648479999996,121.4784 199.33436159999997,121.4784 198.94517279999997C121.4784 196.92509759999996,123.7394016 194.68262879999997,126.3339936 194.55289919999998">
</path>
</g>
<g class="vf-flag" pointer-events="bounding-box">
<path stroke-width="0.3" fill="#000000" stroke="none" stroke-dasharray="none" d="M128.6604384 172.89999999999998M128.2156512 175.88378079999998L128.2156512 172.992664L128.2897824 172.992664C128.4936432 172.992664,128.6233728 173.12239359999998,128.6604384 173.34478719999998C129.0496272 175.19806719999997,130.2171936 177.21814239999998,131.8295472 178.73783199999997C133.6272288 180.42431679999999,134.535336 182.74091679999998,134.535336 185.13164799999998C134.535336 187.39264959999997,133.7384256 189.74631519999997,132.126072 191.69225919999997C131.84808 192.06291519999996,131.8295472 192.06291519999996,131.6442192 192.06291519999996C131.4218256 192.06291519999996,131.2735632 191.89611999999997,131.2735632 191.67372639999996C131.2735632 191.50693119999997,131.29209600000002 191.4698656,131.477424 191.2660048C132.88591680000002 189.56098719999997,133.5901632 187.5038464,133.5901632 185.5393696C133.5901632 183.7972864,133.0341792 182.12933439999998,131.88514560000002 180.86910399999996C131.1808992 180.09072639999997,129.8836032 179.34941439999997,128.234184 178.77489759999997C128.234184 178.75636479999997,128.2156512 178.18184799999997,128.2156512 175.88378079999998">
</path>
</g>
</g>
<g class="vf-modifiers">
</g>
</g>
<path stroke-width="1" fill="none" stroke="#000000" stroke-dasharray="none" d="M122.4784 189.74999999999997L135.4784 180.74999999999997Z">
</path>
</g>
</g>
<g class="vf-stavenote" id="vf-auto38177">
<g class="vf-note" pointer-events="bounding-box">
<g class="vf-notehead" pointer-events="bounding-box">
<path stroke-width="0.3" fill="#000000" stroke="none" stroke-dasharray="none" d="M178.926048 197.99999999999997M186.283008 192.77711999999997C186.395328 192.77711999999997,186.563808 192.77711999999997,186.591888 192.77711999999997C186.591888 192.77711999999997,186.619968 192.77711999999997,186.619968 192.77711999999997C186.619968 192.77711999999997,186.78844800000002 192.77711999999997,186.92884800000002 192.77711999999997C189.456048 192.91751999999997,190.944288 194.57423999999997,190.944288 196.65215999999998C190.944288 197.66303999999997,190.607328 198.81431999999998,189.764928 199.90943999999996C188.164368 202.07159999999996,185.552928 203.25095999999996,183.278448 203.25095999999996C181.509408 203.25095999999996,179.993088 202.54895999999997,179.263008 201.11687999999998C179.03836800000002 200.55527999999998,178.926048 200.02175999999997,178.926048 199.43207999999998C178.926048 196.37135999999998,182.351808 192.97367999999997,186.283008 192.77711999999997">
</path>
</g>
</g>
<g class="vf-modifiers">
</g>
</g>
<g class="vf-stavenote" id="vf-auto38187">
<g class="vf-note" pointer-events="bounding-box">
<g class="vf-notehead" pointer-events="bounding-box">
<path stroke-width="0.3" fill="#000000" stroke="none" stroke-dasharray="none" d="M236.373696 197.99999999999997M243.73065599999998 192.77711999999997C243.842976 192.77711999999997,244.011456 192.77711999999997,244.039536 192.77711999999997C244.039536 192.77711999999997,244.067616 192.77711999999997,244.067616 192.77711999999997C244.067616 192.77711999999997,244.236096 192.77711999999997,244.376496 192.77711999999997C246.903696 192.91751999999997,248.391936 194.57423999999997,248.391936 196.65215999999998C248.391936 197.66303999999997,248.054976 198.81431999999998,247.21257599999998 199.90943999999996C245.61201599999998 202.07159999999996,243.000576 203.25095999999996,240.72609599999998 203.25095999999996C238.957056 203.25095999999996,237.440736 202.54895999999997,236.710656 201.11687999999998C236.486016 200.55527999999998,236.373696 200.02175999999997,236.373696 199.43207999999998C236.373696 196.37135999999998,239.799456 192.97367999999997,243.73065599999998 192.77711999999997">
</path>
</g>
</g>
<g class="vf-modifiers">
<g class="vf-stavenote" id="vf-auto38197">
<g class="vf-note" pointer-events="bounding-box">
<g class="vf-stem" pointer-events="bounding-box">
<path stroke-width="1.5" fill="none" stroke="#000000" stroke-dasharray="none" d="M217.6916576 197.99999999999997L217.6916576 174.89999999999998">
</path>
</g>
<g class="vf-notehead" pointer-events="bounding-box">
<path stroke-width="0.3" fill="#000000" stroke="none" stroke-dasharray="none" d="M210.5096192 197.99999999999997M215.3652128 194.55289919999998C215.439344 194.55289919999998,215.5505408 194.55289919999998,215.5690736 194.55289919999998C215.5690736 194.55289919999998,215.5876064 194.55289919999998,215.5876064 194.55289919999998C215.5876064 194.55289919999998,215.69880320000001 194.55289919999998,215.7914672 194.55289919999998C217.4594192 194.64556319999997,218.4416576 195.73899839999996,218.4416576 197.11042559999999C218.4416576 197.77760639999997,218.219264 198.53745119999996,217.66328000000001 199.26023039999998C216.6069104 200.68725599999996,214.88336 201.46563359999996,213.3822032 201.46563359999996C212.2146368 201.46563359999996,211.2138656 201.00231359999998,210.7320128 200.05714079999998C210.5837504 199.68648479999996,210.5096192 199.33436159999997,210.5096192 198.94517279999997C210.5096192 196.92509759999996,212.77062080000002 194.68262879999997,215.3652128 194.55289919999998">
</path>
</g>
<g class="vf-flag" pointer-events="bounding-box">
<path stroke-width="0.3" fill="#000000" stroke="none" stroke-dasharray="none" d="M217.6916576 172.89999999999998M217.2468704 175.88378079999998L217.2468704 172.992664L217.32100160000002 172.992664C217.52486240000002 172.992664,217.654592 173.12239359999998,217.6916576 173.34478719999998C218.0808464 175.19806719999997,219.2484128 177.21814239999998,220.86076640000002 178.73783199999997C222.65844800000002 180.42431679999999,223.5665552 182.74091679999998,223.5665552 185.13164799999998C223.5665552 187.39264959999997,222.7696448 189.74631519999997,221.1572912 191.69225919999997C220.87929920000002 192.06291519999996,220.86076640000002 192.06291519999996,220.67543840000002 192.06291519999996C220.45304480000001 192.06291519999996,220.30478240000002 191.89611999999997,220.30478240000002 191.67372639999996C220.30478240000002 191.50693119999997,220.32331520000002 191.4698656,220.50864320000002 191.2660048C221.91713600000003 189.56098719999997,222.62138240000002 187.5038464,222.62138240000002 185.5393696C222.62138240000002 183.7972864,222.06539840000002 182.12933439999998,220.91636480000003 180.86910399999996C220.2121184 180.09072639999997,218.91482240000002 179.34941439999997,217.2654032 178.77489759999997C217.2654032 178.75636479999997,217.2468704 178.18184799999997,217.2468704 175.88378079999998">
</path>
</g>
</g>
<g class="vf-modifiers">
</g>
</g>
<path stroke-width="1" fill="none" stroke="#000000" stroke-dasharray="none" d="M211.5096192 189.74999999999997L224.5096192 180.74999999999997Z">
</path>
</g>
</g>
<g class="vf-stavenote" id="vf-auto38211">
<g class="vf-note" pointer-events="bounding-box">
<g class="vf-notehead" pointer-events="bounding-box">
<path stroke-width="0.3" fill="#000000" stroke="none" stroke-dasharray="none" d="M267.95726720000005 197.99999999999997M275.31422720000006 192.77711999999997C275.4265472000001 192.77711999999997,275.59502720000006 192.77711999999997,275.62310720000005 192.77711999999997C275.62310720000005 192.77711999999997,275.65118720000004 192.77711999999997,275.65118720000004 192.77711999999997C275.65118720000004 192.77711999999997,275.8196672 192.77711999999997,275.9600672 192.77711999999997C278.4872672 192.91751999999997,279.97550720000004 194.57423999999997,279.97550720000004 196.65215999999998C279.97550720000004 197.66303999999997,279.63854720000006 198.81431999999998,278.79614720000006 199.90943999999996C277.19558720000003 202.07159999999996,274.5841472000001 203.25095999999996,272.30966720000004 203.25095999999996C270.5406272000001 203.25095999999996,269.02430720000007 202.54895999999997,268.2942272 201.11687999999998C268.06958720000006 200.55527999999998,267.95726720000005 200.02175999999997,267.95726720000005 199.43207999999998C267.95726720000005 196.37135999999998,271.3830272000001 192.97367999999997,275.31422720000006 192.77711999999997">
</path>
</g>
</g>
<g class="vf-modifiers">
</g>
</g>
<g class="vf-stavenote" id="vf-auto38221">
<g class="vf-note" pointer-events="bounding-box">
<g class="vf-notehead" pointer-events="bounding-box">
<path stroke-width="0.3" fill="#000000" stroke="none" stroke-dasharray="none" d="M325.4049152 197.99999999999997M332.7618752 192.77711999999997C332.87419520000003 192.77711999999997,333.0426752 192.77711999999997,333.0707552 192.77711999999997C333.0707552 192.77711999999997,333.0988352 192.77711999999997,333.0988352 192.77711999999997C333.0988352 192.77711999999997,333.2673152 192.77711999999997,333.4077152 192.77711999999997C335.9349152 192.91751999999997,337.4231552 194.57423999999997,337.4231552 196.65215999999998C337.4231552 197.66303999999997,337.0861952 198.81431999999998,336.2437952 199.90943999999996C334.6432352 202.07159999999996,332.03179520000003 203.25095999999996,329.7573152 203.25095999999996C327.98827520000003 203.25095999999996,326.4719552 202.54895999999997,325.7418752 201.11687999999998C325.5172352 200.55527999999998,325.4049152 200.02175999999997,325.4049152 199.43207999999998C325.4049152 196.37135999999998,328.83067520000003 192.97367999999997,332.7618752 192.77711999999997">
</path>
</g>
</g>
<g class="vf-modifiers">
<g class="vf-stavenote" id="vf-auto38231">
<g class="vf-note" pointer-events="bounding-box">
<g class="vf-stem" pointer-events="bounding-box">
<path stroke-width="1.5" fill="none" stroke="#000000" stroke-dasharray="none" d="M306.7228768 197.99999999999997L306.7228768 174.89999999999998">
</path>
</g>
<g class="vf-notehead" pointer-events="bounding-box">
<path stroke-width="0.3" fill="#000000" stroke="none" stroke-dasharray="none" d="M299.5408384 197.99999999999997M304.396432 194.55289919999998C304.47056319999996 194.55289919999998,304.58176 194.55289919999998,304.6002928 194.55289919999998C304.6002928 194.55289919999998,304.6188256 194.55289919999998,304.6188256 194.55289919999998C304.6188256 194.55289919999998,304.7300224 194.55289919999998,304.8226864 194.55289919999998C306.49063839999997 194.64556319999997,307.4728768 195.73899839999996,307.4728768 197.11042559999999C307.4728768 197.77760639999997,307.25048319999996 198.53745119999996,306.6944992 199.26023039999998C305.63812959999996 200.68725599999996,303.9145792 201.46563359999996,302.4134224 201.46563359999996C301.245856 201.46563359999996,300.2450848 201.00231359999998,299.76323199999996 200.05714079999998C299.6149696 199.68648479999996,299.5408384 199.33436159999997,299.5408384 198.94517279999997C299.5408384 196.92509759999996,301.80183999999997 194.68262879999997,304.396432 194.55289919999998">
</path>
</g>
<g class="vf-flag" pointer-events="bounding-box">
<path stroke-width="0.3" fill="#000000" stroke="none" stroke-dasharray="none" d="M306.7228768 172.89999999999998M306.2780896 175.88378079999998L306.2780896 172.992664L306.3522208 172.992664C306.55608159999997 172.992664,306.6858112 173.12239359999998,306.7228768 173.34478719999998C307.1120656 175.19806719999997,308.279632 177.21814239999998,309.8919856 178.73783199999997C311.6896672 180.42431679999999,312.5977744 182.74091679999998,312.5977744 185.13164799999998C312.5977744 187.39264959999997,311.800864 189.74631519999997,310.1885104 191.69225919999997C309.9105184 192.06291519999996,309.8919856 192.06291519999996,309.70665759999997 192.06291519999996C309.484264 192.06291519999996,309.3360016 191.89611999999997,309.3360016 191.67372639999996C309.3360016 191.50693119999997,309.3545344 191.4698656,309.5398624 191.2660048C310.9483552 189.56098719999997,311.65260159999997 187.5038464,311.65260159999997 185.5393696C311.65260159999997 183.7972864,311.0966176 182.12933439999998,309.947584 180.86910399999996C309.2433376 180.09072639999997,307.9460416 179.34941439999997,306.2966224 178.77489759999997C306.2966224 178.75636479999997,306.2780896 178.18184799999997,306.2780896 175.88378079999998">
</path>
</g>
</g>
<g class="vf-modifiers">
</g>
</g>
<path stroke-width="1" fill="none" stroke="#000000" stroke-dasharray="none" d="M300.5408384 189.74999999999997L313.5408384 180.74999999999997Z">
</path>
</g>
</g>
<g class="vf-stavenote" id="vf-auto38245">
<g class="vf-note" pointer-events="bounding-box">
<g class="vf-notehead" pointer-events="bounding-box">
<path stroke-width="0.3" fill="#000000" stroke="none" stroke-dasharray="none" d="M356.9884864 197.99999999999997M364.3454464 192.77711999999997C364.4577664 192.77711999999997,364.6262464 192.77711999999997,364.6543264 192.77711999999997C364.6543264 192.77711999999997,364.6824064 192.77711999999997,364.6824064 192.77711999999997C364.6824064 192.77711999999997,364.8508864 192.77711999999997,364.9912864 192.77711999999997C367.51848640000003 192.91751999999997,369.0067264 194.57423999999997,369.0067264 196.65215999999998C369.0067264 197.66303999999997,368.6697664 198.81431999999998,367.8273664 199.90943999999996C366.2268064 202.07159999999996,363.61536639999997 203.25095999999996,361.3408864 203.25095999999996C359.5718464 203.25095999999996,358.0555264 202.54895999999997,357.3254464 201.11687999999998C357.1008064 200.55527999999998,356.9884864 200.02175999999997,356.9884864 199.43207999999998C356.9884864 196.37135999999998,360.4142464 192.97367999999997,364.3454464 192.77711999999997">
</path>
</g>
</g>
<g class="vf-modifiers">
</g>
</g>
<g class="vf-stavenote" id="vf-auto38255">
<g class="vf-note" pointer-events="bounding-box">
<g class="vf-notehead" pointer-events="bounding-box">
<path stroke-width="0.3" fill="#000000" stroke="none" stroke-dasharray="none" d="M414.4361344 197.99999999999997M421.79309440000003 192.77711999999997C421.90541440000004 192.77711999999997,422.07389440000003 192.77711999999997,422.1019744 192.77711999999997C422.1019744 192.77711999999997,422.1300544 192.77711999999997,422.1300544 192.77711999999997C422.1300544 192.77711999999997,422.2985344 192.77711999999997,422.4389344 192.77711999999997C424.9661344 192.91751999999997,426.4543744 194.57423999999997,426.4543744 196.65215999999998C426.4543744 197.66303999999997,426.11741440000003 198.81431999999998,425.27501440000003 199.90943999999996C423.6744544 202.07159999999996,421.06301440000004 203.25095999999996,418.7885344 203.25095999999996C417.01949440000004 203.25095999999996,415.50317440000003 202.54895999999997,414.7730944 201.11687999999998C414.5484544 200.55527999999998,414.4361344 200.02175999999997,414.4361344 199.43207999999998C414.4361344 196.37135999999998,417.86189440000004 192.97367999999997,421.79309440000003 192.77711999999997">
</path>
</g>
</g>
<g class="vf-modifiers">
<g class="vf-stavenote" id="vf-auto38265">
<g class="vf-note" pointer-events="bounding-box">
<g class="vf-stem" pointer-events="bounding-box">
<path stroke-width="1.5" fill="none" stroke="#000000" stroke-dasharray="none" d="M395.754096 197.99999999999997L395.754096 174.89999999999998">
</path>
</g>
<g class="vf-notehead" pointer-events="bounding-box">
<path stroke-width="0.3" fill="#000000" stroke="none" stroke-dasharray="none" d="M388.5720576 197.99999999999997M393.4276512 194.55289919999998C393.50178239999997 194.55289919999998,393.6129792 194.55289919999998,393.631512 194.55289919999998C393.631512 194.55289919999998,393.6500448 194.55289919999998,393.6500448 194.55289919999998C393.6500448 194.55289919999998,393.7612416 194.55289919999998,393.8539056 194.55289919999998C395.5218576 194.64556319999997,396.504096 195.73899839999996,396.504096 197.11042559999999C396.504096 197.77760639999997,396.2817024 198.53745119999996,395.7257184 199.26023039999998C394.66934879999997 200.68725599999996,392.9457984 201.46563359999996,391.4446416 201.46563359999996C390.2770752 201.46563359999996,389.276304 201.00231359999998,388.79445119999997 200.05714079999998C388.6461888 199.68648479999996,388.5720576 199.33436159999997,388.5720576 198.94517279999997C388.5720576 196.92509759999996,390.8330592 194.68262879999997,393.4276512 194.55289919999998">
</path>
</g>
<g class="vf-flag" pointer-events="bounding-box">
<path stroke-width="0.3" fill="#000000" stroke="none" stroke-dasharray="none" d="M395.754096 172.89999999999998M395.3093088 175.88378079999998L395.3093088 172.992664L395.38344 172.992664C395.5873008 172.992664,395.7170304 173.12239359999998,395.754096 173.34478719999998C396.1432848 175.19806719999997,397.3108512 177.21814239999998,398.9232048 178.73783199999997C400.7208864 180.42431679999999,401.6289936 182.74091679999998,401.6289936 185.13164799999998C401.6289936 187.39264959999997,400.8320832 189.74631519999997,399.2197296 191.69225919999997C398.9417376 192.06291519999996,398.9232048 192.06291519999996,398.7378768 192.06291519999996C398.5154832 192.06291519999996,398.3672208 191.89611999999997,398.3672208 191.67372639999996C398.3672208 191.50693119999997,398.3857536 191.4698656,398.5710816 191.2660048C399.9795744 189.56098719999997,400.6838208 187.5038464,400.6838208 185.5393696C400.6838208 183.7972864,400.1278368 182.12933439999998,398.9788032 180.86910399999996C398.2745568 180.09072639999997,396.9772608 179.34941439999997,395.3278416 178.77489759999997C395.3278416 178.75636479999997,395.3093088 178.18184799999997,395.3093088 175.88378079999998">
</path>
</g>
</g>
<g class="vf-modifiers">
</g>
</g>
<path stroke-width="1" fill="none" stroke="#000000" stroke-dasharray="none" d="M389.5720576 189.74999999999997L402.5720576 180.74999999999997Z">
</path>
</g>
</g>
<g class="vf-stavenote" id="vf-auto38279">
<g class="vf-note" pointer-events="bounding-box">
<g class="vf-notehead" pointer-events="bounding-box">
<path stroke-width="0.3" fill="#000000" stroke="none" stroke-dasharray="none" d="M446.01970559999995 197.99999999999997M453.37666559999997 192.77711999999997C453.4889856 192.77711999999997,453.65746559999997 192.77711999999997,453.68554559999995 192.77711999999997C453.68554559999995 192.77711999999997,453.71362559999994 192.77711999999997,453.71362559999994 192.77711999999997C453.71362559999994 192.77711999999997,453.88210559999993 192.77711999999997,454.02250559999993 192.77711999999997C456.5497055999999 192.91751999999997,458.03794559999994 194.57423999999997,458.03794559999994 196.65215999999998C458.03794559999994 197.66303999999997,457.70098559999997 198.81431999999998,456.85858559999997 199.90943999999996C455.25802559999994 202.07159999999996,452.6465856 203.25095999999996,450.37210559999994 203.25095999999996C448.6030656 203.25095999999996,447.0867456 202.54895999999997,446.3566655999999 201.11687999999998C446.13202559999996 200.55527999999998,446.01970559999995 200.02175999999997,446.01970559999995 199.43207999999998C446.01970559999995 196.37135999999998,449.4454656 192.97367999999997,453.37666559999997 192.77711999999997">
</path>
</g>
</g>
<g class="vf-modifiers">
</g>
</g>
<g class="vf-stavenote" id="vf-auto38289">
<g class="vf-note" pointer-events="bounding-box">
<g class="vf-notehead" pointer-events="bounding-box">
<path stroke-width="0.3" fill="#000000" stroke="none" stroke-dasharray="none" d="M503.4673535999999 197.99999999999997M510.8243135999999 192.77711999999997C510.93663359999994 192.77711999999997,511.1051135999999 192.77711999999997,511.1331935999999 192.77711999999997C511.1331935999999 192.77711999999997,511.1612735999999 192.77711999999997,511.1612735999999 192.77711999999997C511.1612735999999 192.77711999999997,511.3297535999999 192.77711999999997,511.4701535999999 192.77711999999997C513.9973535999999 192.91751999999997,515.4855935999999 194.57423999999997,515.4855935999999 196.65215999999998C515.4855935999999 197.66303999999997,515.1486335999999 198.81431999999998,514.3062335999999 199.90943999999996C512.7056736 202.07159999999996,510.09423359999994 203.25095999999996,507.8197535999999 203.25095999999996C506.05071359999994 203.25095999999996,504.53439359999993 202.54895999999997,503.8043135999999 201.11687999999998C503.5796735999999 200.55527999999998,503.4673535999999 200.02175999999997,503.4673535999999 199.43207999999998C503.4673535999999 196.37135999999998,506.89311359999994 192.97367999999997,510.8243135999999 192.77711999999997">
</path>
</g>
</g>
<g class="vf-modifiers">
<g class="vf-stavenote" id="vf-auto38299">
<g class="vf-note" pointer-events="bounding-box">
<g class="vf-stem" pointer-events="bounding-box">
<path stroke-width="1.5" fill="none" stroke="#000000" stroke-dasharray="none" d="M484.7853151999999 197.99999999999997L484.7853151999999 174.89999999999998">
</path>
</g>
<g class="vf-notehead" pointer-events="bounding-box">
<path stroke-width="0.3" fill="#000000" stroke="none" stroke-dasharray="none" d="M477.6032767999999 197.99999999999997M482.4588703999999 194.55289919999998C482.53300159999986 194.55289919999998,482.6441983999999 194.55289919999998,482.6627311999999 194.55289919999998C482.6627311999999 194.55289919999998,482.6812639999999 194.55289919999998,482.6812639999999 194.55289919999998C482.6812639999999 194.55289919999998,482.7924607999999 194.55289919999998,482.8851247999999 194.55289919999998C484.5530767999999 194.64556319999997,485.5353151999999 195.73899839999996,485.5353151999999 197.11042559999999C485.5353151999999 197.77760639999997,485.31292159999987 198.53745119999996,484.7569375999999 199.26023039999998C483.70056799999986 200.68725599999996,481.9770175999999 201.46563359999996,480.4758607999999 201.46563359999996C479.3082943999999 201.46563359999996,478.3075231999999 201.00231359999998,477.82567039999986 200.05714079999998C477.6774079999999 199.68648479999996,477.6032767999999 199.33436159999997,477.6032767999999 198.94517279999997C477.6032767999999 196.92509759999996,479.8642783999999 194.68262879999997,482.4588703999999 194.55289919999998">
</path>
</g>
<g class="vf-flag" pointer-events="bounding-box">
<path stroke-width="0.3" fill="#000000" stroke="none" stroke-dasharray="none" d="M484.7853151999999 172.89999999999998M484.3405279999999 175.88378079999998L484.3405279999999 172.992664L484.4146591999999 172.992664C484.6185199999999 172.992664,484.7482495999999 173.12239359999998,484.7853151999999 173.34478719999998C485.1745039999999 175.19806719999997,486.3420703999999 177.21814239999998,487.9544239999999 178.73783199999997C489.7521055999999 180.42431679999999,490.6602127999999 182.74091679999998,490.6602127999999 185.13164799999998C490.6602127999999 187.39264959999997,489.8633023999999 189.74631519999997,488.2509487999999 191.69225919999997C487.9729567999999 192.06291519999996,487.9544239999999 192.06291519999996,487.7690959999999 192.06291519999996C487.5467023999999 192.06291519999996,487.3984399999999 191.89611999999997,487.3984399999999 191.67372639999996C487.3984399999999 191.50693119999997,487.4169727999999 191.4698656,487.6023007999999 191.2660048C489.0107935999999 189.56098719999997,489.7150399999999 187.5038464,489.7150399999999 185.5393696C489.7150399999999 183.7972864,489.1590559999999 182.12933439999998,488.0100223999999 180.86910399999996C487.3057759999999 180.09072639999997,486.0084799999999 179.34941439999997,484.3590607999999 178.77489759999997C484.3590607999999 178.75636479999997,484.3405279999999 178.18184799999997,484.3405279999999 175.88378079999998">
</path>
</g>
</g>
<g class="vf-modifiers">
</g>
</g>
<path stroke-width="1" fill="none" stroke="#000000" stroke-dasharray="none" d="M478.6032767999999 189.74999999999997L491.6032767999999 180.74999999999997Z">
</path>
</g>
</g>
<g class="vf-stavenote" id="vf-auto38313">
<g class="vf-note" pointer-events="bounding-box">
<g class="vf-notehead" pointer-events="bounding-box">
<path stroke-width="0.3" fill="#000000" stroke="none" stroke-dasharray="none" d="M535.0509248 197.99999999999997M542.4078847999999 192.77711999999997C542.5202048 192.77711999999997,542.6886847999999 192.77711999999997,542.7167648 192.77711999999997C542.7167648 192.77711999999997,542.7448448 192.77711999999997,542.7448448 192.77711999999997C542.7448448 192.77711999999997,542.9133247999999 192.77711999999997,543.0537247999999 192.77711999999997C545.5809247999999 192.91751999999997,547.0691648 194.57423999999997,547.0691648 196.65215999999998C547.0691648 197.66303999999997,546.7322048 198.81431999999998,545.8898048 199.90943999999996C544.2892448 202.07159999999996,541.6778048 203.25095999999996,539.4033248 203.25095999999996C537.6342847999999 203.25095999999996,536.1179648 202.54895999999997,535.3878847999999 201.11687999999998C535.1632447999999 200.55527999999998,535.0509248 200.02175999999997,535.0509248 199.43207999999998C535.0509248 196.37135999999998,538.4766847999999 192.97367999999997,542.4078847999999 192.77711999999997">
</path>
</g>
</g>
<g class="vf-modifiers">
</g>
</g>
<g class="vf-stavenote" id="vf-auto38323">
<g class="vf-note" pointer-events="bounding-box">
<g class="vf-notehead" pointer-events="bounding-box">
<path stroke-width="0.3" fill="#000000" stroke="none" stroke-dasharray="none" d="M566.6344959999999 197.99999999999997M573.9914559999999 192.77711999999997C574.1037759999999 192.77711999999997,574.2722559999999 192.77711999999997,574.3003359999999 192.77711999999997C574.3003359999999 192.77711999999997,574.328416 192.77711999999997,574.328416 192.77711999999997C574.328416 192.77711999999997,574.4968959999999 192.77711999999997,574.6372959999999 192.77711999999997C577.1644959999999 192.91751999999997,578.6527359999999 194.57423999999997,578.6527359999999 196.65215999999998C578.6527359999999 197.66303999999997,578.3157759999999 198.81431999999998,577.4733759999999 199.90943999999996C575.872816 202.07159999999996,573.2613759999999 203.25095999999996,570.9868959999999 203.25095999999996C569.2178559999999 203.25095999999996,567.7015359999999 202.54895999999997,566.9714559999999 201.11687999999998C566.7468159999999 200.55527999999998,566.6344959999999 200.02175999999997,566.6344959999999 199.43207999999998C566.6344959999999 196.37135999999998,570.0602559999999 192.97367999999997,573.9914559999999 192.77711999999997">
</path>
</g>
</g>
<g class="vf-modifiers">
</g>
</g>
<g class="vf-stavenote" id="vf-auto38333">
<g class="vf-note" pointer-events="bounding-box">
<g class="vf-notehead" pointer-events="bounding-box">
<path stroke-width="0.3" fill="#000000" stroke="none" stroke-dasharray="none" d="M598.2180672 197.99999999999997M605.5750271999999 192.77711999999997C605.6873472 192.77711999999997,605.8558271999999 192.77711999999997,605.8839072 192.77711999999997C605.8839072 192.77711999999997,605.9119872 192.77711999999997,605.9119872 192.77711999999997C605.9119872 192.77711999999997,606.0804671999999 192.77711999999997,606.2208671999999 192.77711999999997C608.7480671999999 192.91751999999997,610.2363071999999 194.57423999999997,610.2363071999999 196.65215999999998C610.2363071999999 197.66303999999997,609.8993472 198.81431999999998,609.0569472 199.90943999999996C607.4563872 202.07159999999996,604.8449472 203.25095999999996,602.5704671999999 203.25095999999996C600.8014271999999 203.25095999999996,599.2851072 202.54895999999997,598.5550271999999 201.11687999999998C598.3303871999999 200.55527999999998,598.2180672 200.02175999999997,598.2180672 199.43207999999998C598.2180672 196.37135999999998,601.6438271999999 192.97367999999997,605.5750271999999 192.77711999999997">
</path>
</g>
</g>
<g class="vf-modifiers">
</g>
</g>
<g class="vf-stavenote" id="vf-auto38343">
<g class="vf-note" pointer-events="bounding-box">
<g class="vf-notehead" pointer-events="bounding-box">
<path stroke-width="0.3" fill="#000000" stroke="none" stroke-dasharray="none" d="M655.6657151999999 197.99999999999997M663.0226751999999 192.77711999999997C663.1349951999999 192.77711999999997,663.3034751999999 192.77711999999997,663.3315551999999 192.77711999999997C663.3315551999999 192.77711999999997,663.3596352 192.77711999999997,663.3596352 192.77711999999997C663.3596352 192.77711999999997,663.5281151999999 192.77711999999997,663.6685151999999 192.77711999999997C666.1957151999999 192.91751999999997,667.6839551999999 194.57423999999997,667.6839551999999 196.65215999999998C667.6839551999999 197.66303999999997,667.3469951999999 198.81431999999998,666.5045951999999 199.90943999999996C664.9040352 202.07159999999996,662.2925951999999 203.25095999999996,660.0181151999999 203.25095999999996C658.2490751999999 203.25095999999996,656.7327551999999 202.54895999999997,656.0026751999999 201.11687999999998C655.7780351999999 200.55527999999998,655.6657151999999 200.02175999999997,655.6657151999999 199.43207999999998C655.6657151999999 196.37135999999998,659.0914751999999 192.97367999999997,663.0226751999999 192.77711999999997">
</path>
</g>
</g>
<g class="vf-modifiers">
<g class="vf-stavenote" id="vf-auto38353">
<g class="vf-note" pointer-events="bounding-box">
<g class="vf-stem" pointer-events="bounding-box">
<path stroke-width="1.5" fill="none" stroke="#000000" stroke-dasharray="none" d="M636.9836767999999 197.99999999999997L636.9836767999999 174.89999999999998">
</path>
</g>
<g class="vf-notehead" pointer-events="bounding-box">
<path stroke-width="0.3" fill="#000000" stroke="none" stroke-dasharray="none" d="M629.8016383999999 197.99999999999997M634.6572319999999 194.55289919999998C634.7313631999999 194.55289919999998,634.8425599999999 194.55289919999998,634.8610927999999 194.55289919999998C634.8610927999999 194.55289919999998,634.8796255999999 194.55289919999998,634.8796255999999 194.55289919999998C634.8796255999999 194.55289919999998,634.9908223999998 194.55289919999998,635.0834863999999 194.55289919999998C636.7514383999999 194.64556319999997,637.7336767999999 195.73899839999996,637.7336767999999 197.11042559999999C637.7336767999999 197.77760639999997,637.5112831999999 198.53745119999996,636.9552991999999 199.26023039999998C635.8989295999999 200.68725599999996,634.1753791999998 201.46563359999996,632.6742223999998 201.46563359999996C631.5066559999999 201.46563359999996,630.5058847999999 201.00231359999998,630.0240319999999 200.05714079999998C629.8757695999999 199.68648479999996,629.8016383999999 199.33436159999997,629.8016383999999 198.94517279999997C629.8016383999999 196.92509759999996,632.0626399999999 194.68262879999997,634.6572319999999 194.55289919999998">
</path>
</g>
<g class="vf-flag" pointer-events="bounding-box">
<path stroke-width="0.3" fill="#000000" stroke="none" stroke-dasharray="none" d="M636.9836767999999 172.89999999999998M636.5388896 175.88378079999998L636.5388896 172.992664L636.6130207999998 172.992664C636.8168815999999 172.992664,636.9466111999999 173.12239359999998,636.9836767999999 173.34478719999998C637.3728656 175.19806719999997,638.5404319999999 177.21814239999998,640.1527855999999 178.73783199999997C641.9504671999999 180.42431679999999,642.8585744 182.74091679999998,642.8585744 185.13164799999998C642.8585744 187.39264959999997,642.061664 189.74631519999997,640.4493104 191.69225919999997C640.1713183999999 192.06291519999996,640.1527855999999 192.06291519999996,639.9674575999999 192.06291519999996C639.7450639999998 192.06291519999996,639.5968015999999 191.89611999999997,639.5968015999999 191.67372639999996C639.5968015999999 191.50693119999997,639.6153343999999 191.4698656,639.8006623999999 191.2660048C641.2091551999999 189.56098719999997,641.9134015999999 187.5038464,641.9134015999999 185.5393696C641.9134015999999 183.7972864,641.3574175999998 182.12933439999998,640.2083839999999 180.86910399999996C639.5041375999999 180.09072639999997,638.2068415999998 179.34941439999997,636.5574224 178.77489759999997C636.5574224 178.75636479999997,636.5388896 178.18184799999997,636.5388896 175.88378079999998">
</path>
</g>
</g>
<g class="vf-modifiers">
</g>
</g>
<path stroke-width="1" fill="none" stroke="#000000" stroke-dasharray="none" d="M630.8016383999999 189.74999999999997L643.8016383999999 180.74999999999997Z">
</path>
</g>
</g>
<g class="vf-stavenote" id="vf-auto38367">
<g class="vf-note" pointer-events="bounding-box">
<g class="vf-notehead" pointer-events="bounding-box">
<path stroke-width="0.3" fill="#000000" stroke="none" stroke-dasharray="none" d="M687.2492864 197.99999999999997M694.6062463999999 192.77711999999997C694.7185664 192.77711999999997,694.8870463999999 192.77711999999997,694.9151264 192.77711999999997C694.9151264 192.77711999999997,694.9432064 192.77711999999997,694.9432064 192.77711999999997C694.9432064 192.77711999999997,695.1116863999999 192.77711999999997,695.2520863999999 192.77711999999997C697.7792863999999 192.91751999999997,699.2675264 194.57423999999997,699.2675264 196.65215999999998C699.2675264 197.66303999999997,698.9305664 198.81431999999998,698.0881664 199.90943999999996C696.4876064 202.07159999999996,693.8761664 203.25095999999996,691.6016864 203.25095999999996C689.8326463999999 203.25095999999996,688.3163264 202.54895999999997,687.5862463999999 201.11687999999998C687.3616063999999 200.55527999999998,687.2492864 200.02175999999997,687.2492864 199.43207999999998C687.2492864 196.37135999999998,690.6750463999999 192.97367999999997,694.6062463999999 192.77711999999997">
</path>
</g>
</g>
<g class="vf-modifiers">
</g>
</g>
<g class="vf-stavenote" id="vf-auto38377">
<g class="vf-note" pointer-events="bounding-box">
<g class="vf-notehead" pointer-events="bounding-box">
<path stroke-width="0.3" fill="#000000" stroke="none" stroke-dasharray="none" d="M718.8328575999999 197.99999999999997M726.1898175999999 192.77711999999997C726.3021375999999 192.77711999999997,726.4706175999999 192.77711999999997,726.4986975999999 192.77711999999997C726.4986975999999 192.77711999999997,726.5267776 192.77711999999997,726.5267776 192.77711999999997C726.5267776 192.77711999999997,726.6952575999999 192.77711999999997,726.8356575999999 192.77711999999997C729.3628575999999 192.91751999999997,730.8510975999999 194.57423999999997,730.8510975999999 196.65215999999998C730.8510975999999 197.66303999999997,730.5141375999999 198.81431999999998,729.6717375999999 199.90943999999996C728.0711775999999 202.07159999999996,725.4597375999999 203.25095999999996,723.1852575999999 203.25095999999996C721.4162175999999 203.25095999999996,719.8998975999999 202.54895999999997,719.1698175999999 201.11687999999998C718.9451775999999 200.55527999999998,718.8328575999999 200.02175999999997,718.8328575999999 199.43207999999998C718.8328575999999 196.37135999999998,722.2586175999999 192.97367999999997,726.1898175999999 192.77711999999997">
</path>
</g>
</g>
<g class="vf-modifiers">
</g>
</g>
<g class="vf-stavenote" id="vf-auto38387">
<g class="vf-note" pointer-events="bounding-box">
<g class="vf-notehead" pointer-events="bounding-box">
<path stroke-width="0.3" fill="#000000" stroke="none" stroke-dasharray="none" d="M750.4164288 197.99999999999997M757.7733887999999 192.77711999999997C757.8857088 192.77711999999997,758.0541887999999 192.77711999999997,758.0822688 192.77711999999997C758.0822688 192.77711999999997,758.1103488 192.77711999999997,758.1103488 192.77711999999997C758.1103488 192.77711999999997,758.2788287999999 192.77711999999997,758.4192287999999 192.77711999999997C760.9464287999999 192.91751999999997,762.4346687999999 194.57423999999997,762.4346687999999 196.65215999999998C762.4346687999999 197.66303999999997,762.0977088 198.81431999999998,761.2553088 199.90943999999996C759.6547488 202.07159999999996,757.0433088 203.25095999999996,754.7688287999999 203.25095999999996C752.9997887999999 203.25095999999996,751.4834688 202.54895999999997,750.7533887999999 201.11687999999998C750.5287487999999 200.55527999999998,750.4164288 200.02175999999997,750.4164288 199.43207999999998C750.4164288 196.37135999999998,753.8421887999999 192.97367999999997,757.7733887999999 192.77711999999997">
</path>
</g>
</g>
<g class="vf-modifiers">
</g>
</g>
<path stroke-width="1.5" fill="none" stroke="#000000" stroke-dasharray="none" d="M158.61071679999998 197.99999999999997L158.61071679999998 163.74999999999997">
</path>
<path stroke-width="1.5" fill="none" stroke="#000000" stroke-dasharray="none" d="M190.194288 197.99999999999997L190.194288 163.74999999999997">
</path>
<path stroke-width="1.5" fill="none" stroke="#000000" stroke-dasharray="none" d="M247.641936 197.99999999999997L247.641936 163.74999999999997">
</path>
<path stroke-width="1.5" fill="none" stroke="#000000" stroke-dasharray="none" d="M279.22550720000004 197.99999999999997L279.22550720000004 163.74999999999997">
</path>
<path stroke-width="0.3" fill="#000000" stroke="none" stroke-dasharray="none" d="M157.86071679999998 162.99999999999997L157.86071679999998 167.99999999999997L279.47550720000004 167.99999999999997L279.47550720000004 162.99999999999997Z">
</path>
<path stroke-width="0.3" fill="#000000" stroke="none" stroke-dasharray="none" d="M157.86071679999998 170.49999999999997L157.86071679999998 175.49999999999997L279.47550720000004 175.49999999999997L279.47550720000004 170.49999999999997Z">
</path>
<path stroke-width="1.5" fill="none" stroke="#000000" stroke-dasharray="none" d="M336.6731552 197.99999999999997L336.6731552 163.74999999999997">
</path>
<path stroke-width="1.5" fill="none" stroke="#000000" stroke-dasharray="none" d="M368.2567264 197.99999999999997L368.2567264 163.74999999999997">
</path>
<path stroke-width="1.5" fill="none" stroke="#000000" stroke-dasharray="none" d="M425.7043744 197.99999999999997L425.7043744 163.74999999999997">
</path>
<path stroke-width="1.5" fill="none" stroke="#000000" stroke-dasharray="none" d="M457.28794559999994 197.99999999999997L457.28794559999994 163.74999999999997">
</path>
<path stroke-width="0.3" fill="#000000" stroke="none" stroke-dasharray="none" d="M335.9231552 162.99999999999997L335.9231552 167.99999999999997L457.53794559999994 167.99999999999997L457.53794559999994 162.99999999999997Z">
</path>
<path stroke-width="0.3" fill="#000000" stroke="none" stroke-dasharray="none" d="M335.9231552 170.49999999999997L335.9231552 175.49999999999997L457.53794559999994 175.49999999999997L457.53794559999994 170.49999999999997Z">
</path>
<path stroke-width="1.5" fill="none" stroke="#000000" stroke-dasharray="none" d="M514.7355935999999 197.99999999999997L514.7355935999999 163.74999999999997">
</path>
<path stroke-width="1.5" fill="none" stroke="#000000" stroke-dasharray="none" d="M546.3191648 197.99999999999997L546.3191648 163.74999999999997">
</path>
<path stroke-width="1.5" fill="none" stroke="#000000" stroke-dasharray="none" d="M577.9027359999999 197.99999999999997L577.9027359999999 163.74999999999997">
</path>
<path stroke-width="1.5" fill="none" stroke="#000000" stroke-dasharray="none" d="M609.4863071999999 197.99999999999997L609.4863071999999 163.74999999999997">
</path>
<path stroke-width="0.3" fill="#000000" stroke="none" stroke-dasharray="none" d="M513.9855935999999 162.99999999999997L513.9855935999999 167.99999999999997L609.7363071999999 167.99999999999997L609.7363071999999 162.99999999999997Z">
</path>
<path stroke-width="0.3" fill="#000000" stroke="none" stroke-dasharray="none" d="M513.9855935999999 170.49999999999997L513.9855935999999 175.49999999999997L609.7363071999999 175.49999999999997L609.7363071999999 170.49999999999997Z">
</path>
<path stroke-width="1.5" fill="none" stroke="#000000" stroke-dasharray="none" d="M666.9339551999999 197.99999999999997L666.9339551999999 163.74999999999997">
</path>
<path stroke-width="1.5" fill="none" stroke="#000000" stroke-dasharray="none" d="M698.5175264 197.99999999999997L698.5175264 163.74999999999997">
</path>
<path stroke-width="1.5" fill="none" stroke="#000000" stroke-dasharray="none" d="M730.1010975999999 197.99999999999997L730.1010975999999 163.74999999999997">
</path>
<path stroke-width="1.5" fill="none" stroke="#000000" stroke-dasharray="none" d="M761.6846687999999 197.99999999999997L761.6846687999999 163.74999999999997">
</path>
<path stroke-width="0.3" fill="#000000" stroke="none" stroke-dasharray="none" d="M666.1839551999999 162.99999999999997L666.1839551999999 167.99999999999997L761.9346687999999 167.99999999999997L761.9346687999999 162.99999999999997Z">
</path>
<path stroke-width="0.3" fill="#000000" stroke="none" stroke-dasharray="none" d="M666.1839551999999 170.49999999999997L666.1839551999999 175.49999999999997L761.9346687999999 175.49999999999997L761.9346687999999 170.49999999999997Z">
</path>
<path stroke-width="1" fill="none" stroke="black" stroke-dasharray="none" d="M780.9151979519999 197.99999999999997L1106.3003343359999 197.99999999999997">
</path>
<rect stroke-width="0.3" fill="black" stroke="black" stroke-dasharray="none" x="1101.3003343359999" y="177.49999999999997" width="1" height="41">
</rect>
<rect stroke-width="0.3" fill="black" stroke="black" stroke-dasharray="none" x="1104.3003343359999" y="177.49999999999997" width="3" height="41">
</rect>
<path stroke-width="0.3" fill="black" stroke="none" stroke-dasharray="none" d="M1100.3003343359999 193.49999999999997 A2 2 0 0 0 1096.3003343359999 193.49999999999997M1096.3003343359999 193.49999999999997 A2 2 0 0 0 1100.3003343359999 193.49999999999997">
</path>
<path stroke-width="0.3" fill="black" stroke="none" stroke-dasharray="none" d="M1100.3003343359999 203.49999999999997 A2 2 0 0 0 1096.3003343359999 203.49999999999997M1096.3003343359999 203.49999999999997 A2 2 0 0 0 1100.3003343359999 203.49999999999997">
</path>
<path stroke-width="0.3" fill="black" stroke="none" stroke-dasharray="none" d="M786.0447979519998 197.99999999999997M791.7183979519998 179.33759999999998C791.8335979519999 179.33759999999998,792.0351979519999 179.33759999999998,792.2655979519999 179.33759999999998C792.7263979519998 179.33759999999998,793.3311979519998 179.33759999999998,793.4751979519998 179.39519999999996C795.6351979519999 179.65439999999998,797.3631979519998 180.74879999999996,798.1119979519998 182.27519999999998C798.3711979519999 182.79359999999997,798.4863979519998 183.34079999999997,798.4863979519998 183.91679999999997C798.4863979519998 185.32799999999997,797.7087979519998 186.94079999999997,796.2975979519998 188.15039999999996C795.3183979519998 188.98559999999998,794.3391979519998 189.50399999999996,792.8127979519999 189.99359999999996C790.8255979519998 190.62719999999996,789.1263979519998 191.75039999999998,788.0319979519999 193.10399999999998C788.0319979519999 193.10399999999998,788.0319979519999 193.13279999999997,788.0319979519999 193.13279999999997C788.0319979519999 193.13279999999997,788.0319979519999 193.13279999999997,788.0319979519999 193.13279999999997C788.0319979519999 193.13279999999997,788.1183979519999 193.10399999999998,788.1759979519999 193.01759999999996C789.2703979519998 192.12479999999996,790.7391979519998 191.60639999999998,792.0639979519998 191.60639999999998C793.1583979519999 191.60639999999998,793.9359979519999 191.80799999999996,794.9727979519998 192.38399999999996C795.6063979519998 192.70079999999996,796.1823979519999 192.84479999999996,796.7295979519998 192.84479999999996C796.9599979519999 192.84479999999996,797.1903979519998 192.84479999999996,797.4495979519999 192.78719999999998C797.8239979519998 192.70079999999996,798.2271979519999 192.41279999999998,798.3711979519999 192.18239999999997C798.4575979519998 191.98079999999996,798.6015979519998 191.89439999999996,798.7743979519998 191.89439999999996C799.0047979519999 191.89439999999996,799.2351979519998 192.06719999999999,799.2351979519998 192.32639999999998C799.2351979519998 192.52799999999996,798.9759979519998 193.24799999999996,798.7455979519998 193.7376C797.8239979519998 195.58079999999998,796.2111979519998 196.73279999999997,794.6559979519999 196.73279999999997C794.5407979519998 196.73279999999997,794.4543979519998 196.73279999999997,794.3391979519998 196.70399999999998C793.9359979519999 196.70399999999998,793.7631979519998 196.58879999999996,793.2447979519999 196.24319999999997C792.1503979519998 195.52319999999997,790.7679979519999 195.14879999999997,789.5583979519998 195.14879999999997C789.0399979519998 195.14879999999997,788.5791979519998 195.20639999999997,788.1471979519998 195.37919999999997C787.5711979519998 195.58079999999998,787.0239979519998 195.92639999999997,786.8511979519999 196.18559999999997C786.7647979519999 196.38719999999998,786.6207979519999 196.44479999999996,786.4479979519998 196.44479999999996C786.3039979519998 196.44479999999996,786.1599979519998 196.38719999999998,786.0735979519999 196.21439999999998L786.0159979519998 196.128L786.0159979519998 195.72479999999996C786.0159979519998 195.37919999999997,786.0447979519998 195.26399999999998,786.0447979519998 195.14879999999997C786.0735979519999 195.06239999999997,786.1023979519998 194.88959999999997,786.1023979519998 194.74559999999997C786.6207979519999 192.32639999999998,788.3775979519999 190.16639999999998,790.7679979519999 189.10079999999996C792.7263979519998 188.17919999999998,794.0223979519999 186.53759999999997,794.2527979519998 184.46399999999997C794.3103979519998 184.29119999999998,794.3103979519998 184.14719999999997,794.3103979519998 183.97439999999997C794.3103979519998 182.13119999999998,792.9279979519998 180.86399999999998,790.9695979519998 180.86399999999998C790.8255979519998 180.86399999999998,790.6527979519998 180.86399999999998,790.5087979519999 180.86399999999998C790.2207979519999 180.89279999999997,790.1343979519999 180.89279999999997,790.1343979519999 180.95039999999997C790.1343979519999 180.95039999999997,790.1343979519999 180.97919999999996,790.2207979519999 181.03679999999997C790.8831979519998 181.41119999999998,791.1999979519999 182.13119999999998,791.1999979519999 182.82239999999996C791.1999979519999 183.71519999999998,790.7391979519998 184.55039999999997,789.8463979519998 184.89599999999996C789.5583979519998 184.98239999999998,789.2703979519998 185.01119999999997,789.0399979519998 185.01119999999997C787.8303979519999 185.01119999999997,786.8223979519998 183.97439999999997,786.8223979519998 182.73599999999996C786.8223979519998 182.50559999999996,786.8223979519998 182.27519999999998,786.8799979519998 182.01599999999996C787.3119979519998 180.69119999999998,789.3567979519999 179.59679999999997,791.7183979519998 179.33759999999998M792.6111979519999 198.02879999999996L792.6687979519999 198.02879999999996L792.5823979519998 198.02879999999996L792.6111979519999 198.02879999999996M792.6111979519999 178.61759999999998L792.6687979519999 178.61759999999998L792.5823979519998 178.61759999999998L792.6111979519999 178.61759999999998">
</path>
<path stroke-width="0.3" fill="black" stroke="none" stroke-dasharray="none" d="M785.9151979519999 217.99999999999997M790.9263979519999 199.65439999999998C790.9551979519998 199.62559999999996,791.3583979519999 199.62559999999996,792.5967979519999 199.62559999999996C792.9711979519999 199.62559999999996,793.3743979519999 199.62559999999996,793.8927979519999 199.62559999999996L796.8015979519998 199.62559999999996L796.8879979519999 199.71199999999996C797.0319979519999 199.79839999999996,797.1183979519999 199.94239999999996,797.1183979519999 200.05759999999998C797.1183979519999 200.23039999999997,797.0319979519999 200.34559999999996,796.9167979519999 200.46079999999998C796.8879979519999 200.54719999999998,796.6287979519999 200.77759999999998,796.4559979519998 201.03679999999997L794.9295979519999 202.79359999999997L792.9711979519999 205.01119999999997L791.9343979519998 206.19199999999998L790.3791979519999 207.97759999999997L788.3343979519999 210.31039999999996C787.9887979519999 210.74239999999998,787.6143979519999 211.08799999999997,787.6143979519999 211.08799999999997C787.6143979519999 211.08799999999997,787.6143979519999 211.08799999999997,787.6143979519999 211.08799999999997C787.6143979519999 211.14559999999997,787.8735979519998 211.14559999999997,790.2639979519998 211.14559999999997L792.8847979519999 211.14559999999997L792.8847979519999 209.27359999999996C792.8847979519999 207.37279999999998,792.8847979519999 207.34399999999997,792.9135979519998 207.31519999999998C792.9711979519999 207.22879999999998,793.2303979519999 206.91199999999998,794.2383979519999 205.73119999999997L794.6415979519999 205.29919999999998L795.0447979519998 204.86719999999997L795.6495979519999 204.08959999999996L796.2831979519999 203.42719999999997L796.5999979519999 203.02399999999997C796.7151979519998 202.85119999999998,796.8879979519999 202.82239999999996,797.0319979519999 202.82239999999996C797.2047979519998 202.82239999999996,797.3487979519998 202.90879999999999,797.4351979519998 203.05279999999996C797.4639979519999 203.13919999999996,797.4639979519999 203.19679999999997,797.4639979519999 205.32799999999997C797.4639979519999 205.81759999999997,797.4639979519999 206.42239999999998,797.4639979519999 207.14239999999998L797.4639979519999 211.14559999999997L798.1839979519998 211.14559999999997C798.8463979519998 211.14559999999997,798.8751979519999 211.14559999999997,798.9615979519998 211.17439999999996C799.1919979519998 211.26079999999996,799.3071979519999 211.49119999999996,799.3071979519999 211.75039999999998C799.3071979519999 211.89439999999996,799.2783979519999 212.06719999999999,799.1631979519999 212.18239999999997C798.9903979519999 212.32639999999998,798.9615979519998 212.32639999999998,798.1839979519998 212.32639999999998L797.4639979519999 212.32639999999998L797.4639979519999 212.81599999999997C797.4927979519998 214.28479999999996,797.7807979519998 214.86079999999998,798.9039979519998 215.46559999999997C799.3071979519999 215.66719999999998,799.3935979519998 215.72479999999996,799.3935979519998 216.01279999999997C799.3935979519998 216.21439999999998,799.3359979519998 216.30079999999998,799.1919979519998 216.41599999999997L799.1055979519998 216.44479999999996L795.1599979519999 216.44479999999996L791.2431979519998 216.44479999999996L791.1567979519998 216.41599999999997C790.9839979519999 216.30079999999998,790.9551979519998 216.21439999999998,790.9551979519998 216.01279999999997C790.9551979519998 215.72479999999996,790.9839979519999 215.66719999999998,791.4159979519999 215.46559999999997C792.5391979519999 214.86079999999998,792.8271979519999 214.28479999999996,792.8271979519999 212.81599999999997L792.8271979519999 212.32639999999998L789.5151979519999 212.32639999999998C788.9103979519998 212.38399999999996,788.4207979519998 212.38399999999996,788.0175979519998 212.38399999999996C786.2031979519999 212.38399999999996,786.1743979519998 212.32639999999998,786.1455979519999 212.32639999999998C785.9727979519998 212.26879999999997,785.9151979519999 212.09599999999998,785.9151979519999 211.89439999999996C785.9151979519999 211.89439999999996,785.9151979519999 211.89439999999996,785.9151979519999 211.89439999999996C785.9151979519999 211.69279999999998,785.9151979519999 211.69279999999998,786.4911979519999 211.0304C788.9103979519998 208.09279999999998,790.6095979519998 203.83039999999997,790.6095979519998 200.43199999999996C790.6095979519998 199.91359999999997,790.6959979519999 199.74079999999998,790.9263979519999 199.65439999999998M792.6543979519998 218.02879999999996L792.6831979519999 218.02879999999996L792.5967979519999 218.02879999999996L792.6543979519998 218.02879999999996M792.6543979519998 198.61759999999998L792.6831979519999 198.61759999999998L792.5967979519999 198.61759999999998L792.6543979519998 198.61759999999998">
</path>
<g class="vf-stavenote" id="vf-auto38402">
<g class="vf-note" pointer-events="bounding-box">
<g class="vf-notehead" pointer-events="bounding-box">
<path stroke-width="0.3" fill="#000000" stroke="none" stroke-dasharray="none" d="M837.2576747519998 197.99999999999997M844.6146347519998 192.77711999999997C844.7269547519999 192.77711999999997,844.8954347519998 192.77711999999997,844.9235147519998 192.77711999999997C844.9235147519998 192.77711999999997,844.9515947519999 192.77711999999997,844.9515947519999 192.77711999999997C844.9515947519999 192.77711999999997,845.1200747519998 192.77711999999997,845.2604747519998 192.77711999999997C847.7876747519998 192.91751999999997,849.2759147519998 194.57423999999997,849.2759147519998 196.65215999999998C849.2759147519998 197.66303999999997,848.9389547519999 198.81431999999998,848.0965547519999 199.90943999999996C846.4959947519999 202.07159999999996,843.8845547519999 203.25095999999996,841.6100747519998 203.25095999999996C839.8410347519998 203.25095999999996,838.3247147519999 202.54895999999997,837.5946347519998 201.11687999999998C837.3699947519998 200.55527999999998,837.2576747519998 200.02175999999997,837.2576747519998 199.43207999999998C837.2576747519998 196.37135999999998,840.6834347519998 192.97367999999997,844.6146347519998 192.77711999999997">
</path>
</g>
</g>
<g class="vf-modifiers">
<g class="vf-stavenote" id="vf-auto38412">
<g class="vf-note" pointer-events="bounding-box">
<g class="vf-stem" pointer-events="bounding-box">
<path stroke-width="1.5" fill="none" stroke="#000000" stroke-dasharray="none" d="M818.5756363519998 197.99999999999997L818.5756363519998 174.89999999999998">
</path>
</g>
<g class="vf-notehead" pointer-events="bounding-box">
<path stroke-width="0.3" fill="#000000" stroke="none" stroke-dasharray="none" d="M811.3935979519998 197.99999999999997M816.2491915519998 194.55289919999998C816.3233227519999 194.55289919999998,816.4345195519999 194.55289919999998,816.4530523519999 194.55289919999998C816.4530523519999 194.55289919999998,816.4715851519999 194.55289919999998,816.4715851519999 194.55289919999998C816.4715851519999 194.55289919999998,816.5827819519998 194.55289919999998,816.6754459519998 194.55289919999998C818.3433979519998 194.64556319999997,819.3256363519998 195.73899839999996,819.3256363519998 197.11042559999999C819.3256363519998 197.77760639999997,819.1032427519998 198.53745119999996,818.5472587519998 199.26023039999998C817.4908891519998 200.68725599999996,815.7673387519998 201.46563359999996,814.2661819519998 201.46563359999996C813.0986155519998 201.46563359999996,812.0978443519998 201.00231359999998,811.6159915519999 200.05714079999998C811.4677291519998 199.68648479999996,811.3935979519998 199.33436159999997,811.3935979519998 198.94517279999997C811.3935979519998 196.92509759999996,813.6545995519998 194.68262879999997,816.2491915519998 194.55289919999998">
</path>
</g>
<g class="vf-flag" pointer-events="bounding-box">
<path stroke-width="0.3" fill="#000000" stroke="none" stroke-dasharray="none" d="M818.5756363519998 172.89999999999998M818.1308491519999 175.88378079999998L818.1308491519999 172.992664L818.2049803519998 172.992664C818.4088411519998 172.992664,818.5385707519998 173.12239359999998,818.5756363519998 173.34478719999998C818.9648251519999 175.19806719999997,820.1323915519998 177.21814239999998,821.7447451519998 178.73783199999997C823.5424267519999 180.42431679999999,824.4505339519999 182.74091679999998,824.4505339519999 185.13164799999998C824.4505339519999 187.39264959999997,823.6536235519999 189.74631519999997,822.0412699519999 191.69225919999997C821.7632779519998 192.06291519999996,821.7447451519998 192.06291519999996,821.5594171519998 192.06291519999996C821.3370235519998 192.06291519999996,821.1887611519999 191.89611999999997,821.1887611519999 191.67372639999996C821.1887611519999 191.50693119999997,821.2072939519999 191.4698656,821.3926219519998 191.2660048C822.8011147519999 189.56098719999997,823.5053611519999 187.5038464,823.5053611519999 185.5393696C823.5053611519999 183.7972864,822.9493771519998 182.12933439999998,821.8003435519998 180.86910399999996C821.0960971519999 180.09072639999997,819.7988011519998 179.34941439999997,818.1493819519999 178.77489759999997C818.1493819519999 178.75636479999997,818.1308491519999 178.18184799999997,818.1308491519999 175.88378079999998">
</path>
</g>
</g>
<g class="vf-modifiers">
</g>
</g>
<path stroke-width="1" fill="none" stroke="#000000" stroke-dasharray="none" d="M812.3935979519998 189.74999999999997L825.3935979519998 180.74999999999997Z">
</path>
</g>
</g>
<g class="vf-stavenote" id="vf-auto38426">
<g class="vf-note" pointer-events="bounding-box">
<g class="vf-notehead" pointer-events="bounding-box">
<path stroke-width="0.3" fill="#000000" stroke="none" stroke-dasharray="none" d="M889.4469163519998 197.99999999999997M896.8038763519997 192.77711999999997C896.9161963519998 192.77711999999997,897.0846763519997 192.77711999999997,897.1127563519998 192.77711999999997C897.1127563519998 192.77711999999997,897.1408363519998 192.77711999999997,897.1408363519998 192.77711999999997C897.1408363519998 192.77711999999997,897.3093163519998 192.77711999999997,897.4497163519998 192.77711999999997C899.9769163519998 192.91751999999997,901.4651563519998 194.57423999999997,901.4651563519998 196.65215999999998C901.4651563519998 197.66303999999997,901.1281963519998 198.81431999999998,900.2857963519998 199.90943999999996C898.6852363519998 202.07159999999996,896.0737963519998 203.25095999999996,893.7993163519998 203.25095999999996C892.0302763519998 203.25095999999996,890.5139563519998 202.54895999999997,889.7838763519998 201.11687999999998C889.5592363519997 200.55527999999998,889.4469163519998 200.02175999999997,889.4469163519998 199.43207999999998C889.4469163519998 196.37135999999998,892.8726763519998 192.97367999999997,896.8038763519997 192.77711999999997">
</path>
</g>
</g>
<g class="vf-modifiers">
</g>
</g>
<g class="vf-stavenote" id="vf-auto38436">
<g class="vf-note" pointer-events="bounding-box">
<g class="vf-notehead" pointer-events="bounding-box">
<path stroke-width="0.3" fill="#000000" stroke="none" stroke-dasharray="none" d="M924.5506571519998 197.99999999999997M931.9076171519997 192.77711999999997C932.0199371519998 192.77711999999997,932.1884171519997 192.77711999999997,932.2164971519998 192.77711999999997C932.2164971519998 192.77711999999997,932.2445771519998 192.77711999999997,932.2445771519998 192.77711999999997C932.2445771519998 192.77711999999997,932.4130571519997 192.77711999999997,932.5534571519997 192.77711999999997C935.0806571519997 192.91751999999997,936.5688971519997 194.57423999999997,936.5688971519997 196.65215999999998C936.5688971519997 197.66303999999997,936.2319371519998 198.81431999999998,935.3895371519998 199.90943999999996C933.7889771519998 202.07159999999996,931.1775371519998 203.25095999999996,928.9030571519997 203.25095999999996C927.1340171519997 203.25095999999996,925.6176971519998 202.54895999999997,924.8876171519997 201.11687999999998C924.6629771519997 200.55527999999998,924.5506571519998 200.02175999999997,924.5506571519998 199.43207999999998C924.5506571519998 196.37135999999998,927.9764171519997 192.97367999999997,931.9076171519997 192.77711999999997">
</path>
</g>
</g>
<g class="vf-modifiers">
</g>
</g>
<g class="vf-stavenote" id="vf-auto38446">
<g class="vf-note" pointer-events="bounding-box">
<g class="vf-notehead" pointer-events="bounding-box">
<path stroke-width="0.3" fill="#000000" stroke="none" stroke-dasharray="none" d="M985.5184747519997 197.99999999999997M992.8754347519997 192.77711999999997C992.9877547519998 192.77711999999997,993.1562347519997 192.77711999999997,993.1843147519998 192.77711999999997C993.1843147519998 192.77711999999997,993.2123947519998 192.77711999999997,993.2123947519998 192.77711999999997C993.2123947519998 192.77711999999997,993.3808747519997 192.77711999999997,993.5212747519997 192.77711999999997C996.0484747519997 192.91751999999997,997.5367147519997 194.57423999999997,997.5367147519997 196.65215999999998C997.5367147519997 197.66303999999997,997.1997547519998 198.81431999999998,996.3573547519998 199.90943999999996C994.7567947519998 202.07159999999996,992.1453547519998 203.25095999999996,989.8708747519997 203.25095999999996C988.1018347519997 203.25095999999996,986.5855147519998 202.54895999999997,985.8554347519997 201.11687999999998C985.6307947519997 200.55527999999998,985.5184747519997 200.02175999999997,985.5184747519997 199.43207999999998C985.5184747519997 196.37135999999998,988.9442347519997 192.97367999999997,992.8754347519997 192.77711999999997">
</path>
</g>
</g>
<g class="vf-modifiers">
<g class="vf-stavenote" id="vf-auto38456">
<g class="vf-note" pointer-events="bounding-box">
<g class="vf-stem" pointer-events="bounding-box">
<path stroke-width="1.5" fill="none" stroke="#000000" stroke-dasharray="none" d="M966.8364363519999 197.99999999999997L966.8364363519999 174.89999999999998">
</path>
</g>
<g class="vf-notehead" pointer-events="bounding-box">
<path stroke-width="0.3" fill="#000000" stroke="none" stroke-dasharray="none" d="M959.6543979519998 197.99999999999997M964.5099915519999 194.55289919999998C964.5841227519999 194.55289919999998,964.6953195519999 194.55289919999998,964.7138523519999 194.55289919999998C964.7138523519999 194.55289919999998,964.7323851519999 194.55289919999998,964.7323851519999 194.55289919999998C964.7323851519999 194.55289919999998,964.8435819519998 194.55289919999998,964.9362459519998 194.55289919999998C966.6041979519998 194.64556319999997,967.5864363519999 195.73899839999996,967.5864363519999 197.11042559999999C967.5864363519999 197.77760639999997,967.3640427519998 198.53745119999996,966.8080587519999 199.26023039999998C965.7516891519998 200.68725599999996,964.0281387519998 201.46563359999996,962.5269819519998 201.46563359999996C961.3594155519999 201.46563359999996,960.3586443519998 201.00231359999998,959.8767915519999 200.05714079999998C959.7285291519999 199.68648479999996,959.6543979519998 199.33436159999997,959.6543979519998 198.94517279999997C959.6543979519998 196.92509759999996,961.9153995519998 194.68262879999997,964.5099915519999 194.55289919999998">
</path>
</g>
<g class="vf-flag" pointer-events="bounding-box">
<path stroke-width="0.3" fill="#000000" stroke="none" stroke-dasharray="none" d="M966.8364363519999 172.89999999999998M966.3916491519999 175.88378079999998L966.3916491519999 172.992664L966.4657803519998 172.992664C966.6696411519998 172.992664,966.7993707519998 173.12239359999998,966.8364363519999 173.34478719999998C967.2256251519999 175.19806719999997,968.3931915519998 177.21814239999998,970.0055451519999 178.73783199999997C971.8032267519999 180.42431679999999,972.7113339519999 182.74091679999998,972.7113339519999 185.13164799999998C972.7113339519999 187.39264959999997,971.9144235519999 189.74631519999997,970.3020699519999 191.69225919999997C970.0240779519999 192.06291519999996,970.0055451519999 192.06291519999996,969.8202171519998 192.06291519999996C969.5978235519998 192.06291519999996,969.4495611519999 191.89611999999997,969.4495611519999 191.67372639999996C969.4495611519999 191.50693119999997,969.4680939519999 191.4698656,969.6534219519998 191.2660048C971.0619147519999 189.56098719999997,971.7661611519999 187.5038464,971.7661611519999 185.5393696C971.7661611519999 183.7972864,971.2101771519998 182.12933439999998,970.0611435519999 180.86910399999996C969.3568971519999 180.09072639999997,968.0596011519998 179.34941439999997,966.4101819519999 178.77489759999997C966.4101819519999 178.75636479999997,966.3916491519999 178.18184799999997,966.3916491519999 175.88378079999998">
</path>
</g>
</g>
<g class="vf-modifiers">
</g>
</g>
<path stroke-width="1" fill="none" stroke="#000000" stroke-dasharray="none" d="M960.6543979519998 189.74999999999997L973.6543979519998 180.74999999999997Z">
</path>
</g>
</g>
<g class="vf-stavenote" id="vf-auto38470">
<g class="vf-note" pointer-events="bounding-box">
<g class="vf-notehead" pointer-events="bounding-box">
<path stroke-width="0.3" fill="#000000" stroke="none" stroke-dasharray="none" d="M1037.7077163519998 197.99999999999997M1045.0646763519999 192.77711999999997C1045.1769963519998 192.77711999999997,1045.3454763519999 192.77711999999997,1045.3735563519997 192.77711999999997C1045.3735563519997 192.77711999999997,1045.4016363519997 192.77711999999997,1045.4016363519997 192.77711999999997C1045.4016363519997 192.77711999999997,1045.5701163519998 192.77711999999997,1045.7105163519998 192.77711999999997C1048.2377163519998 192.91751999999997,1049.725956352 194.57423999999997,1049.725956352 196.65215999999998C1049.725956352 197.66303999999997,1049.3889963519998 198.81431999999998,1048.5465963519998 199.90943999999996C1046.9460363519997 202.07159999999996,1044.3345963519998 203.25095999999996,1042.0601163519998 203.25095999999996C1040.291076352 203.25095999999996,1038.7747563519997 202.54895999999997,1038.044676352 201.11687999999998C1037.8200363519998 200.55527999999998,1037.7077163519998 200.02175999999997,1037.7077163519998 199.43207999999998C1037.7077163519998 196.37135999999998,1041.133476352 192.97367999999997,1045.0646763519999 192.77711999999997">
</path>
</g>
</g>
<g class="vf-modifiers">
</g>
</g>
<g class="vf-stavenote" id="vf-auto38480">
<g class="vf-note" pointer-events="bounding-box">
<g class="vf-notehead" pointer-events="bounding-box">
<path stroke-width="0.3" fill="#000000" stroke="none" stroke-dasharray="none" d="M1072.8114571519998 197.99999999999997M1080.1684171519998 192.77711999999997C1080.2807371519998 192.77711999999997,1080.4492171519998 192.77711999999997,1080.4772971519997 192.77711999999997C1080.4772971519997 192.77711999999997,1080.5053771519997 192.77711999999997,1080.5053771519997 192.77711999999997C1080.5053771519997 192.77711999999997,1080.6738571519998 192.77711999999997,1080.8142571519998 192.77711999999997C1083.3414571519997 192.91751999999997,1084.8296971519999 194.57423999999997,1084.8296971519999 196.65215999999998C1084.8296971519999 197.66303999999997,1084.4927371519998 198.81431999999998,1083.6503371519998 199.90943999999996C1082.0497771519997 202.07159999999996,1079.4383371519998 203.25095999999996,1077.1638571519998 203.25095999999996C1075.3948171519999 203.25095999999996,1073.8784971519997 202.54895999999997,1073.1484171519999 201.11687999999998C1072.9237771519997 200.55527999999998,1072.8114571519998 200.02175999999997,1072.8114571519998 199.43207999999998C1072.8114571519998 196.37135999999998,1076.2372171519999 192.97367999999997,1080.1684171519998 192.77711999999997">
</path>
</g>
</g>
<g class="vf-modifiers">
</g>
</g>
<path stroke-width="1.5" fill="none" stroke="#000000" stroke-dasharray="none" d="M848.5259147519998 197.99999999999997L848.5259147519998 163.74999999999997">
</path>
<path stroke-width="1.5" fill="none" stroke="#000000" stroke-dasharray="none" d="M900.7151563519998 197.99999999999997L900.7151563519998 163.74999999999997">
</path>
<path stroke-width="1.5" fill="none" stroke="#000000" stroke-dasharray="none" d="M935.8188971519997 197.99999999999997L935.8188971519997 163.74999999999997">
</path>
<path stroke-width="0.3" fill="#000000" stroke="none" stroke-dasharray="none" d="M847.7759147519998 162.99999999999997L847.7759147519998 167.99999999999997L936.0688971519997 167.99999999999997L936.0688971519997 162.99999999999997Z">
</path>
<path stroke-width="0.3" fill="#000000" stroke="none" stroke-dasharray="none" d="M899.9651563519998 170.49999999999997L899.9651563519998 175.49999999999997L936.0688971519997 175.49999999999997L936.0688971519997 170.49999999999997Z">
</path>
<path stroke-width="1.5" fill="none" stroke="#000000" stroke-dasharray="none" d="M996.7867147519997 197.99999999999997L996.7867147519997 163.74999999999997">
</path>
<path stroke-width="1.5" fill="none" stroke="#000000" stroke-dasharray="none" d="M1048.975956352 197.99999999999997L1048.975956352 163.74999999999997">
</path>
<path stroke-width="1.5" fill="none" stroke="#000000" stroke-dasharray="none" d="M1084.0796971519999 197.99999999999997L1084.0796971519999 163.74999999999997">
</path>
<path stroke-width="0.3" fill="#000000" stroke="none" stroke-dasharray="none" d="M996.0367147519997 162.99999999999997L996.0367147519997 167.99999999999997L1084.3296971519999 167.99999999999997L1084.3296971519999 162.99999999999997Z">
</path>
<path stroke-width="0.3" fill="#000000" stroke="none" stroke-dasharray="none" d="M1048.225956352 170.49999999999997L1048.225956352 175.49999999999997L1084.3296971519999 175.49999999999997L1084.3296971519999 170.49999999999997Z">
</path>
</svg>