<svg width="750" height="100" viewBox="95 135 661 100">
<path stroke-width="1" fill="none" stroke="black" stroke-dasharray="none" d="M50 197.99999999999997L452.66854758399984 197.99999999999997"></path>
<rect stroke-width="0.3" fill="black" stroke="black" stroke-dasharray="none" x="452.66854758399984" y="177.49999999999997" width="1" height="41">
</rect>
<path stroke-width="0.3" fill="black" stroke="none" stroke-dasharray="none" d="M55 197.99999999999997M55 197.99999999999997L55 188.00639999999999L57.1888 188.00639999999999L59.4064 188.00639999999999L59.4064 197.99999999999997L59.4064 208.02239999999998L57.1888 208.02239999999998L55 208.02239999999998L55 197.99999999999997M63.870400000000004 198.02879999999996L63.870400000000004 188.00639999999999L66.1168 188.00639999999999L68.3632 188.00639999999999L68.3632 198.02879999999996L68.3632 208.02239999999998L66.1168 208.02239999999998L63.870400000000004 208.02239999999998L63.870400000000004 198.02879999999996">
</path>
<path stroke-width="0.3" fill="black" stroke="none" stroke-dasharray="none" d="M96 197.99999999999997M101.0112 179.65439999999998C101.04 179.62559999999996,101.4432 179.62559999999996,102.6816 179.62559999999996C103.056 179.62559999999996,103.4592 179.62559999999996,103.9776 179.62559999999996L106.8864 179.62559999999996L106.9728 179.71199999999996C107.1168 179.79839999999996,107.2032 179.94239999999996,107.2032 180.05759999999998C107.2032 180.23039999999997,107.1168 180.34559999999996,107.0016 180.46079999999998C106.9728 180.54719999999998,106.7136 180.77759999999998,106.5408 181.03679999999997L105.0144 182.79359999999997L103.056 185.01119999999997L102.0192 186.19199999999998L100.464 187.97759999999997L98.4192 190.31039999999996C98.0736 190.74239999999998,97.6992 191.08799999999997,97.6992 191.08799999999997C97.6992 191.08799999999997,97.6992 191.08799999999997,97.6992 191.08799999999997C97.6992 191.14559999999997,97.9584 191.14559999999997,100.3488 191.14559999999997L102.9696 191.14559999999997L102.9696 189.27359999999996C102.9696 187.37279999999998,102.9696 187.34399999999997,102.9984 187.31519999999998C103.056 187.22879999999998,103.3152 186.91199999999998,104.3232 185.73119999999997L104.7264 185.29919999999998L105.1296 184.86719999999997L105.7344 184.08959999999996L106.368 183.42719999999997L106.6848 183.02399999999997C106.8 182.85119999999998,106.9728 182.82239999999996,107.1168 182.82239999999996C107.28960000000001 182.82239999999996,107.4336 182.90879999999999,107.52 183.05279999999996C107.5488 183.13919999999996,107.5488 183.19679999999997,107.5488 185.32799999999997C107.5488 185.81759999999997,107.5488 186.42239999999998,107.5488 187.14239999999998L107.5488 191.14559999999997L108.2688 191.14559999999997C108.9312 191.14559999999997,108.96 191.14559999999997,109.0464 191.17439999999996C109.2768 191.26079999999996,109.392 191.49119999999996,109.392 191.75039999999998C109.392 191.89439999999996,109.3632 192.06719999999999,109.248 192.18239999999997C109.0752 192.32639999999998,109.0464 192.32639999999998,108.2688 192.32639999999998L107.5488 192.32639999999998L107.5488 192.81599999999997C107.5776 194.28479999999996,107.8656 194.86079999999998,108.9888 195.46559999999997C109.392 195.66719999999998,109.4784 195.72479999999996,109.4784 196.01279999999997C109.4784 196.21439999999998,109.4208 196.30079999999998,109.2768 196.41599999999997L109.1904 196.44479999999996L105.2448 196.44479999999996L101.328 196.44479999999996L101.2416 196.41599999999997C101.0688 196.30079999999998,101.04 196.21439999999998,101.04 196.01279999999997C101.04 195.72479999999996,101.0688 195.66719999999998,101.5008 195.46559999999997C102.624 194.86079999999998,102.912 194.28479999999996,102.912 192.81599999999997L102.912 192.32639999999998L99.6 192.32639999999998C98.9952 192.38399999999996,98.5056 192.38399999999996,98.1024 192.38399999999996C96.288 192.38399999999996,96.2592 192.32639999999998,96.2304 192.32639999999998C96.0576 192.26879999999997,96 192.09599999999998,96 191.89439999999996C96 191.89439999999996,96 191.89439999999996,96 191.89439999999996C96 191.69279999999998,96 191.69279999999998,96.576 191.0304C98.9952 188.09279999999998,100.6944 183.83039999999997,100.6944 180.43199999999996C100.6944 179.91359999999997,100.7808 179.74079999999998,101.0112 179.65439999999998M102.7392 198.02879999999996L102.768 198.02879999999996L102.6816 198.02879999999996L102.7392 198.02879999999996M102.7392 178.61759999999998L102.768 178.61759999999998L102.6816 178.61759999999998L102.7392 178.61759999999998">
</path>
<path stroke-width="0.3" fill="black" stroke="none" stroke-dasharray="none" d="M96 217.99999999999997M101.0112 199.65439999999998C101.04 199.62559999999996,101.4432 199.62559999999996,102.6816 199.62559999999996C103.056 199.62559999999996,103.4592 199.62559999999996,103.9776 199.62559999999996L106.8864 199.62559999999996L106.9728 199.71199999999996C107.1168 199.79839999999996,107.2032 199.94239999999996,107.2032 200.05759999999998C107.2032 200.23039999999997,107.1168 200.34559999999996,107.0016 200.46079999999998C106.9728 200.54719999999998,106.7136 200.77759999999998,106.5408 201.03679999999997L105.0144 202.79359999999997L103.056 205.01119999999997L102.0192 206.19199999999998L100.464 207.97759999999997L98.4192 210.31039999999996C98.0736 210.74239999999998,97.6992 211.08799999999997,97.6992 211.08799999999997C97.6992 211.08799999999997,97.6992 211.08799999999997,97.6992 211.08799999999997C97.6992 211.14559999999997,97.9584 211.14559999999997,100.3488 211.14559999999997L102.9696 211.14559999999997L102.9696 209.27359999999996C102.9696 207.37279999999998,102.9696 207.34399999999997,102.9984 207.31519999999998C103.056 207.22879999999998,103.3152 206.91199999999998,104.3232 205.73119999999997L104.7264 205.29919999999998L105.1296 204.86719999999997L105.7344 204.08959999999996L106.368 203.42719999999997L106.6848 203.02399999999997C106.8 202.85119999999998,106.9728 202.82239999999996,107.1168 202.82239999999996C107.28960000000001 202.82239999999996,107.4336 202.90879999999999,107.52 203.05279999999996C107.5488 203.13919999999996,107.5488 203.19679999999997,107.5488 205.32799999999997C107.5488 205.81759999999997,107.5488 206.42239999999998,107.5488 207.14239999999998L107.5488 211.14559999999997L108.2688 211.14559999999997C108.9312 211.14559999999997,108.96 211.14559999999997,109.0464 211.17439999999996C109.2768 211.26079999999996,109.392 211.49119999999996,109.392 211.75039999999998C109.392 211.89439999999996,109.3632 212.06719999999999,109.248 212.18239999999997C109.0752 212.32639999999998,109.0464 212.32639999999998,108.2688 212.32639999999998L107.5488 212.32639999999998L107.5488 212.81599999999997C107.5776 214.28479999999996,107.8656 214.86079999999998,108.9888 215.46559999999997C109.392 215.66719999999998,109.4784 215.72479999999996,109.4784 216.01279999999997C109.4784 216.21439999999998,109.4208 216.30079999999998,109.2768 216.41599999999997L109.1904 216.44479999999996L105.2448 216.44479999999996L101.328 216.44479999999996L101.2416 216.41599999999997C101.0688 216.30079999999998,101.04 216.21439999999998,101.04 216.01279999999997C101.04 215.72479999999996,101.0688 215.66719999999998,101.5008 215.46559999999997C102.624 214.86079999999998,102.912 214.28479999999996,102.912 212.81599999999997L102.912 212.32639999999998L99.6 212.32639999999998C98.9952 212.38399999999996,98.5056 212.38399999999996,98.1024 212.38399999999996C96.288 212.38399999999996,96.2592 212.32639999999998,96.2304 212.32639999999998C96.0576 212.26879999999997,96 212.09599999999998,96 211.89439999999996C96 211.89439999999996,96 211.89439999999996,96 211.89439999999996C96 211.69279999999998,96 211.69279999999998,96.576 211.0304C98.9952 208.09279999999998,100.6944 203.83039999999997,100.6944 200.43199999999996C100.6944 199.91359999999997,100.7808 199.74079999999998,101.0112 199.65439999999998M102.7392 218.02879999999996L102.768 218.02879999999996L102.6816 218.02879999999996L102.7392 218.02879999999996M102.7392 198.61759999999998L102.768 198.61759999999998L102.6816 198.61759999999998L102.7392 198.61759999999998">
</path>
<g class="vf-stavenote" id="vf-auto21995">
<g class="vf-note" pointer-events="bounding-box">
<g class="vf-notehead" pointer-events="bounding-box">
<path stroke-width="0.3" fill="#000000" stroke="none" stroke-dasharray="none" d="M147.3424768 197.99999999999997M154.69943679999997 192.77711999999997C154.81175679999998 192.77711999999997,154.9802368 192.77711999999997,155.0083168 192.77711999999997C155.0083168 192.77711999999997,155.03639679999998 192.77711999999997,155.03639679999998 192.77711999999997C155.03639679999998 192.77711999999997,155.2048768 192.77711999999997,155.3452768 192.77711999999997C157.8724768 192.91751999999997,159.36071679999998 194.57423999999997,159.36071679999998 196.65215999999998C159.36071679999998 197.66303999999997,159.0237568 198.81431999999998,158.18135679999997 199.90943999999996C156.58079679999997 202.07159999999996,153.96935679999999 203.25095999999996,151.69487679999997 203.25095999999996C149.92583679999998 203.25095999999996,148.40951679999998 202.54895999999997,147.6794368 201.11687999999998C147.4547968 200.55527999999998,147.3424768 200.02175999999997,147.3424768 199.43207999999998C147.3424768 196.37135999999998,150.76823679999998 192.97367999999997,154.69943679999997 192.77711999999997">
</path>
</g>
</g>
<g class="vf-modifiers">
<g class="vf-stavenote" id="vf-auto22005">
<g class="vf-note" pointer-events="bounding-box">
<g class="vf-stem" pointer-events="bounding-box">
<path stroke-width="1.5" fill="none" stroke="#000000" stroke-dasharray="none" d="M128.6604384 197.99999999999997L128.6604384 174.89999999999998">
</path>
</g>
<g class="vf-notehead" pointer-events="bounding-box">
<path stroke-width="0.3" fill="#000000" stroke="none" stroke-dasharray="none" d="M121.4784 197.99999999999997M126.3339936 194.55289919999998C126.4081248 194.55289919999998,126.5193216 194.55289919999998,126.5378544 194.55289919999998C126.5378544 194.55289919999998,126.55638719999999 194.55289919999998,126.55638719999999 194.55289919999998C126.55638719999999 194.55289919999998,126.66758399999999 194.55289919999998,126.76024799999999 194.55289919999998C128.4282 194.64556319999997,129.4104384 195.73899839999996,129.4104384 197.11042559999999C129.4104384 197.77760639999997,129.1880448 198.53745119999996,128.6320608 199.26023039999998C127.5756912 200.68725599999996,125.8521408 201.46563359999996,124.350984 201.46563359999996C123.1834176 201.46563359999996,122.1826464 201.00231359999998,121.7007936 200.05714079999998C121.55253119999999 199.68648479999996,121.4784 199.33436159999997,121.4784 198.94517279999997C121.4784 196.92509759999996,123.7394016 194.68262879999997,126.3339936 194.55289919999998">
</path>
</g>
<g class="vf-flag" pointer-events="bounding-box">
<path stroke-width="0.3" fill="#000000" stroke="none" stroke-dasharray="none" d="M128.6604384 172.89999999999998M128.2156512 175.88378079999998L128.2156512 172.992664L128.2897824 172.992664C128.4936432 172.992664,128.6233728 173.12239359999998,128.6604384 173.34478719999998C129.0496272 175.19806719999997,130.2171936 177.21814239999998,131.8295472 178.73783199999997C133.6272288 180.42431679999999,134.535336 182.74091679999998,134.535336 185.13164799999998C134.535336 187.39264959999997,133.7384256 189.74631519999997,132.126072 191.69225919999997C131.84808 192.06291519999996,131.8295472 192.06291519999996,131.6442192 192.06291519999996C131.4218256 192.06291519999996,131.2735632 191.89611999999997,131.2735632 191.67372639999996C131.2735632 191.50693119999997,131.29209600000002 191.4698656,131.477424 191.2660048C132.88591680000002 189.56098719999997,133.5901632 187.5038464,133.5901632 185.5393696C133.5901632 183.7972864,133.0341792 182.12933439999998,131.88514560000002 180.86910399999996C131.1808992 180.09072639999997,129.8836032 179.34941439999997,128.234184 178.77489759999997C128.234184 178.75636479999997,128.2156512 178.18184799999997,128.2156512 175.88378079999998">
</path>
</g>
</g>
<g class="vf-modifiers">
</g>
</g>
<path stroke-width="1" fill="none" stroke="#000000" stroke-dasharray="none" d="M122.4784 189.74999999999997L135.4784 180.74999999999997Z">
</path>
</g>
</g>
<g class="vf-stavenote" id="vf-auto22019">
<g class="vf-note" pointer-events="bounding-box">
<g class="vf-notehead" pointer-events="bounding-box">
<path stroke-width="0.3" fill="#000000" stroke="none" stroke-dasharray="none" d="M182.44165759999998 197.99999999999997M189.79861759999997 192.77711999999997C189.91093759999998 192.77711999999997,190.0794176 192.77711999999997,190.1074976 192.77711999999997C190.1074976 192.77711999999997,190.13557759999998 192.77711999999997,190.13557759999998 192.77711999999997C190.13557759999998 192.77711999999997,190.3040576 192.77711999999997,190.4444576 192.77711999999997C192.9716576 192.91751999999997,194.45989759999998 194.57423999999997,194.45989759999998 196.65215999999998C194.45989759999998 197.66303999999997,194.1229376 198.81431999999998,193.28053759999997 199.90943999999996C191.67997759999997 202.07159999999996,189.06853759999998 203.25095999999996,186.79405759999997 203.25095999999996C185.02501759999998 203.25095999999996,183.50869759999998 202.54895999999997,182.7786176 201.11687999999998C182.5539776 200.55527999999998,182.44165759999998 200.02175999999997,182.44165759999998 199.43207999999998C182.44165759999998 196.37135999999998,185.86741759999998 192.97367999999997,189.79861759999997 192.77711999999997">
</path>
</g>
</g>
<g class="vf-modifiers">
</g>
</g>
<g class="vf-stavenote" id="vf-auto22029">
<g class="vf-note" pointer-events="bounding-box">
<g class="vf-notehead" pointer-events="bounding-box">
<path stroke-width="0.3" fill="#000000" stroke="none" stroke-dasharray="none" d="M217.54083839999998 197.99999999999997M224.89779839999997 192.77711999999997C225.01011839999998 192.77711999999997,225.1785984 192.77711999999997,225.2066784 192.77711999999997C225.2066784 192.77711999999997,225.23475839999998 192.77711999999997,225.23475839999998 192.77711999999997C225.23475839999998 192.77711999999997,225.4032384 192.77711999999997,225.5436384 192.77711999999997C228.07083839999999 192.91751999999997,229.55907839999998 194.57423999999997,229.55907839999998 196.65215999999998C229.55907839999998 197.66303999999997,229.2221184 198.81431999999998,228.37971839999997 199.90943999999996C226.77915839999997 202.07159999999996,224.16771839999998 203.25095999999996,221.89323839999997 203.25095999999996C220.12419839999998 203.25095999999996,218.60787839999998 202.54895999999997,217.8777984 201.11687999999998C217.6531584 200.55527999999998,217.54083839999998 200.02175999999997,217.54083839999998 199.43207999999998C217.54083839999998 196.37135999999998,220.96659839999998 192.97367999999997,224.89779839999997 192.77711999999997">
</path>
</g>
</g>
<g class="vf-modifiers">
</g>
</g>
<g class="vf-stavenote" id="vf-auto22039">
<g class="vf-note" pointer-events="bounding-box">
<g class="vf-notehead" pointer-events="bounding-box">
<path stroke-width="0.3" fill="#000000" stroke="none" stroke-dasharray="none" d="M252.6400192 197.99999999999997M259.9969792 192.77711999999997C260.1092992 192.77711999999997,260.2777792 192.77711999999997,260.3058592 192.77711999999997C260.3058592 192.77711999999997,260.33393920000003 192.77711999999997,260.33393920000003 192.77711999999997C260.33393920000003 192.77711999999997,260.5024192 192.77711999999997,260.6428192 192.77711999999997C263.1700192 192.91751999999997,264.65825920000003 194.57423999999997,264.65825920000003 196.65215999999998C264.65825920000003 197.66303999999997,264.3212992 198.81431999999998,263.4788992 199.90943999999996C261.8783392 202.07159999999996,259.2668992 203.25095999999996,256.99241920000003 203.25095999999996C255.2233792 203.25095999999996,253.7070592 202.54895999999997,252.97697920000002 201.11687999999998C252.75233920000002 200.55527999999998,252.6400192 200.02175999999997,252.6400192 199.43207999999998C252.6400192 196.37135999999998,256.0657792 192.97367999999997,259.9969792 192.77711999999997">
</path>
</g>
</g>
<g class="vf-modifiers">
</g>
</g>
<g class="vf-stavenote" id="vf-auto22049">
<g class="vf-note" pointer-events="bounding-box">
<g class="vf-notehead" pointer-events="bounding-box">
<path stroke-width="0.3" fill="#000000" stroke="none" stroke-dasharray="none" d="M313.6032768 197.99999999999997M320.9602368 192.77711999999997C321.07255680000003 192.77711999999997,321.2410368 192.77711999999997,321.2691168 192.77711999999997C321.2691168 192.77711999999997,321.2971968 192.77711999999997,321.2971968 192.77711999999997C321.2971968 192.77711999999997,321.4656768 192.77711999999997,321.6060768 192.77711999999997C324.1332768 192.91751999999997,325.6215168 194.57423999999997,325.6215168 196.65215999999998C325.6215168 197.66303999999997,325.2845568 198.81431999999998,324.4421568 199.90943999999996C322.8415968 202.07159999999996,320.23015680000003 203.25095999999996,317.9556768 203.25095999999996C316.18663680000003 203.25095999999996,314.6703168 202.54895999999997,313.9402368 201.11687999999998C313.7155968 200.55527999999998,313.6032768 200.02175999999997,313.6032768 199.43207999999998C313.6032768 196.37135999999998,317.02903680000003 192.97367999999997,320.9602368 192.77711999999997">
</path>
</g>
</g>
<g class="vf-modifiers">
<g class="vf-stavenote" id="vf-auto22059">
<g class="vf-note" pointer-events="bounding-box">
<g class="vf-stem" pointer-events="bounding-box">
<path stroke-width="1.5" fill="none" stroke="#000000" stroke-dasharray="none" d="M294.9212384 197.99999999999997L294.9212384 174.89999999999998">
</path>
</g>
<g class="vf-notehead" pointer-events="bounding-box">
<path stroke-width="0.3" fill="#000000" stroke="none" stroke-dasharray="none" d="M287.7392 197.99999999999997M292.5947936 194.55289919999998C292.66892479999996 194.55289919999998,292.7801216 194.55289919999998,292.7986544 194.55289919999998C292.7986544 194.55289919999998,292.8171872 194.55289919999998,292.8171872 194.55289919999998C292.8171872 194.55289919999998,292.928384 194.55289919999998,293.021048 194.55289919999998C294.68899999999996 194.64556319999997,295.6712384 195.73899839999996,295.6712384 197.11042559999999C295.6712384 197.77760639999997,295.44884479999996 198.53745119999996,294.8928608 199.26023039999998C293.83649119999995 200.68725599999996,292.1129408 201.46563359999996,290.611784 201.46563359999996C289.4442176 201.46563359999996,288.44344639999997 201.00231359999998,287.96159359999996 200.05714079999998C287.8133312 199.68648479999996,287.7392 199.33436159999997,287.7392 198.94517279999997C287.7392 196.92509759999996,290.00020159999997 194.68262879999997,292.5947936 194.55289919999998">
</path>
</g>
<g class="vf-flag" pointer-events="bounding-box">
<path stroke-width="0.3" fill="#000000" stroke="none" stroke-dasharray="none" d="M294.9212384 172.89999999999998M294.4764512 175.88378079999998L294.4764512 172.992664L294.5505824 172.992664C294.75444319999997 172.992664,294.8841728 173.12239359999998,294.9212384 173.34478719999998C295.3104272 175.19806719999997,296.4779936 177.21814239999998,298.0903472 178.73783199999997C299.8880288 180.42431679999999,300.796136 182.74091679999998,300.796136 185.13164799999998C300.796136 187.39264959999997,299.9992256 189.74631519999997,298.386872 191.69225919999997C298.10888 192.06291519999996,298.0903472 192.06291519999996,297.90501919999997 192.06291519999996C297.6826256 192.06291519999996,297.5343632 191.89611999999997,297.5343632 191.67372639999996C297.5343632 191.50693119999997,297.552896 191.4698656,297.738224 191.2660048C299.1467168 189.56098719999997,299.85096319999997 187.5038464,299.85096319999997 185.5393696C299.85096319999997 183.7972864,299.2949792 182.12933439999998,298.1459456 180.86910399999996C297.4416992 180.09072639999997,296.1444032 179.34941439999997,294.494984 178.77489759999997C294.494984 178.75636479999997,294.4764512 178.18184799999997,294.4764512 175.88378079999998">
</path>
</g>
</g>
<g class="vf-modifiers">
</g>
</g>
<path stroke-width="1" fill="none" stroke="#000000" stroke-dasharray="none" d="M288.7392 189.74999999999997L301.7392 180.74999999999997Z">
</path>
</g>
</g>
<g class="vf-stavenote" id="vf-auto22073">
<g class="vf-note" pointer-events="bounding-box">
<g class="vf-notehead" pointer-events="bounding-box">
<path stroke-width="0.3" fill="#000000" stroke="none" stroke-dasharray="none" d="M348.7024576 197.99999999999997M356.0594176 192.77711999999997C356.17173760000003 192.77711999999997,356.3402176 192.77711999999997,356.3682976 192.77711999999997C356.3682976 192.77711999999997,356.3963776 192.77711999999997,356.3963776 192.77711999999997C356.3963776 192.77711999999997,356.5648576 192.77711999999997,356.7052576 192.77711999999997C359.2324576 192.91751999999997,360.7206976 194.57423999999997,360.7206976 196.65215999999998C360.7206976 197.66303999999997,360.3837376 198.81431999999998,359.5413376 199.90943999999996C357.9407776 202.07159999999996,355.32933760000003 203.25095999999996,353.0548576 203.25095999999996C351.28581760000003 203.25095999999996,349.7694976 202.54895999999997,349.0394176 201.11687999999998C348.8147776 200.55527999999998,348.7024576 200.02175999999997,348.7024576 199.43207999999998C348.7024576 196.37135999999998,352.1282176 192.97367999999997,356.0594176 192.77711999999997">
</path>
</g>
</g>
<g class="vf-modifiers">
</g>
</g>
<g class="vf-stavenote" id="vf-auto22083">
<g class="vf-note" pointer-events="bounding-box">
<g class="vf-notehead" pointer-events="bounding-box">
<path stroke-width="0.3" fill="#000000" stroke="none" stroke-dasharray="none" d="M383.8016384 197.99999999999997M391.1585984 192.77711999999997C391.2709184 192.77711999999997,391.4393984 192.77711999999997,391.4674784 192.77711999999997C391.4674784 192.77711999999997,391.4955584 192.77711999999997,391.4955584 192.77711999999997C391.4955584 192.77711999999997,391.6640384 192.77711999999997,391.8044384 192.77711999999997C394.3316384 192.91751999999997,395.8198784 194.57423999999997,395.8198784 196.65215999999998C395.8198784 197.66303999999997,395.4829184 198.81431999999998,394.6405184 199.90943999999996C393.0399584 202.07159999999996,390.42851840000003 203.25095999999996,388.1540384 203.25095999999996C386.38499840000003 203.25095999999996,384.8686784 202.54895999999997,384.1385984 201.11687999999998C383.9139584 200.55527999999998,383.8016384 200.02175999999997,383.8016384 199.43207999999998C383.8016384 196.37135999999998,387.2273984 192.97367999999997,391.1585984 192.77711999999997">
</path>
</g>
</g>
<g class="vf-modifiers">
</g>
</g>
<g class="vf-stavenote" id="vf-auto22093">
<g class="vf-note" pointer-events="bounding-box">
<g class="vf-notehead" pointer-events="bounding-box">
<path stroke-width="0.3" fill="#000000" stroke="none" stroke-dasharray="none" d="M418.9008192 197.99999999999997M426.2577792 192.77711999999997C426.3700992 192.77711999999997,426.5385792 192.77711999999997,426.5666592 192.77711999999997C426.5666592 192.77711999999997,426.5947392 192.77711999999997,426.5947392 192.77711999999997C426.5947392 192.77711999999997,426.7632192 192.77711999999997,426.9036192 192.77711999999997C429.4308192 192.91751999999997,430.9190592 194.57423999999997,430.9190592 196.65215999999998C430.9190592 197.66303999999997,430.5820992 198.81431999999998,429.7396992 199.90943999999996C428.1391392 202.07159999999996,425.52769920000003 203.25095999999996,423.2532192 203.25095999999996C421.4841792 203.25095999999996,419.9678592 202.54895999999997,419.2377792 201.11687999999998C419.0131392 200.55527999999998,418.9008192 200.02175999999997,418.9008192 199.43207999999998C418.9008192 196.37135999999998,422.3265792 192.97367999999997,426.2577792 192.77711999999997">
</path>
</g>
</g>
<g class="vf-modifiers">
</g>
</g>
<path stroke-width="1.5" fill="none" stroke="#000000" stroke-dasharray="none" d="M158.61071679999998 197.99999999999997L158.61071679999998 163.74999999999997">
</path>
<path stroke-width="1.5" fill="none" stroke="#000000" stroke-dasharray="none" d="M193.70989759999998 197.99999999999997L193.70989759999998 163.74999999999997">
</path>
<path stroke-width="0.3" fill="#000000" stroke="none" stroke-dasharray="none" d="M157.86071679999998 162.99999999999997L157.86071679999998 167.99999999999997L193.95989759999998 167.99999999999997L193.95989759999998 162.99999999999997Z">
</path>
<path stroke-width="1.5" fill="none" stroke="#000000" stroke-dasharray="none" d="M228.80907839999998 197.99999999999997L228.80907839999998 163.74999999999997">
</path>
<path stroke-width="1.5" fill="none" stroke="#000000" stroke-dasharray="none" d="M263.90825920000003 197.99999999999997L263.90825920000003 163.74999999999997">
</path>
<path stroke-width="0.3" fill="#000000" stroke="none" stroke-dasharray="none" d="M228.05907839999998 162.99999999999997L228.05907839999998 167.99999999999997L264.15825920000003 167.99999999999997L264.15825920000003 162.99999999999997Z">
</path>
<path stroke-width="1.5" fill="none" stroke="#000000" stroke-dasharray="none" d="M324.8715168 197.99999999999997L324.8715168 163.74999999999997">
</path>
<path stroke-width="1.5" fill="none" stroke="#000000" stroke-dasharray="none" d="M359.9706976 197.99999999999997L359.9706976 163.74999999999997">
</path>
<path stroke-width="0.3" fill="#000000" stroke="none" stroke-dasharray="none" d="M324.1215168 162.99999999999997L324.1215168 167.99999999999997L360.2206976 167.99999999999997L360.2206976 162.99999999999997Z">
</path>
<path stroke-width="1.5" fill="none" stroke="#000000" stroke-dasharray="none" d="M395.0698784 197.99999999999997L395.0698784 163.74999999999997">
</path>
<path stroke-width="1.5" fill="none" stroke="#000000" stroke-dasharray="none" d="M430.1690592 197.99999999999997L430.1690592 163.74999999999997">
</path>
<path stroke-width="0.3" fill="#000000" stroke="none" stroke-dasharray="none" d="M394.3198784 162.99999999999997L394.3198784 167.99999999999997L430.4190592 167.99999999999997L430.4190592 162.99999999999997Z">
</path>
<path stroke-width="1" fill="none" stroke="black" stroke-dasharray="none" d="M452.66854758399984 197.99999999999997L783.3586951679997 197.99999999999997">
</path>
<rect stroke-width="0.3" fill="black" stroke="black" stroke-dasharray="none" x="778.3586951679997" y="177.49999999999997" width="1" height="41">
</rect>
<rect stroke-width="0.3" fill="black" stroke="black" stroke-dasharray="none" x="781.3586951679997" y="177.49999999999997" width="3" height="41">
</rect>
<path stroke-width="0.3" fill="black" stroke="none" stroke-dasharray="none" d="M777.3586951679997 193.49999999999997 A2 2 0 0 0 773.3586951679997 193.49999999999997M773.3586951679997 193.49999999999997 A2 2 0 0 0 777.3586951679997 193.49999999999997">
</path>
<path stroke-width="0.3" fill="black" stroke="none" stroke-dasharray="none" d="M777.3586951679997 203.49999999999997 A2 2 0 0 0 773.3586951679997 203.49999999999997M773.3586951679997 203.49999999999997 A2 2 0 0 0 777.3586951679997 203.49999999999997">
</path>
<g class="vf-stavenote" id="vf-auto22108">
<g class="vf-note" pointer-events="bounding-box">
<g class="vf-notehead" pointer-events="bounding-box">
<path stroke-width="0.3" fill="#000000" stroke="none" stroke-dasharray="none" d="M495.53262438399986 197.99999999999997M502.8895843839999 192.77711999999997C503.0019043839999 192.77711999999997,503.1703843839999 192.77711999999997,503.19846438399986 192.77711999999997C503.19846438399986 192.77711999999997,503.22654438399985 192.77711999999997,503.22654438399985 192.77711999999997C503.22654438399985 192.77711999999997,503.39502438399984 192.77711999999997,503.53542438399984 192.77711999999997C506.06262438399983 192.91751999999997,507.55086438399985 194.57423999999997,507.55086438399985 196.65215999999998C507.55086438399985 197.66303999999997,507.2139043839999 198.81431999999998,506.3715043839999 199.90943999999996C504.77094438399985 202.07159999999996,502.1595043839999 203.25095999999996,499.88502438399985 203.25095999999996C498.1159843839999 203.25095999999996,496.5996643839999 202.54895999999997,495.86958438399984 201.11687999999998C495.64494438399987 200.55527999999998,495.53262438399986 200.02175999999997,495.53262438399986 199.43207999999998C495.53262438399986 196.37135999999998,498.9583843839999 192.97367999999997,502.8895843839999 192.77711999999997">
</path>
</g>
</g>
<g class="vf-modifiers">
<g class="vf-stavenote" id="vf-auto22118">
<g class="vf-note" pointer-events="bounding-box">
<g class="vf-stem" pointer-events="bounding-box">
<path stroke-width="1.5" fill="none" stroke="#000000" stroke-dasharray="none" d="M476.85058598399985 197.99999999999997L476.85058598399985 174.89999999999998">
</path>
</g>
<g class="vf-notehead" pointer-events="bounding-box">
<path stroke-width="0.3" fill="#000000" stroke="none" stroke-dasharray="none" d="M469.66854758399984 197.99999999999997M474.52414118399986 194.55289919999998C474.5982723839998 194.55289919999998,474.70946918399983 194.55289919999998,474.72800198399983 194.55289919999998C474.72800198399983 194.55289919999998,474.74653478399983 194.55289919999998,474.74653478399983 194.55289919999998C474.74653478399983 194.55289919999998,474.85773158399985 194.55289919999998,474.95039558399986 194.55289919999998C476.6183475839998 194.64556319999997,477.60058598399985 195.73899839999996,477.60058598399985 197.11042559999999C477.60058598399985 197.77760639999997,477.3781923839998 198.53745119999996,476.82220838399985 199.26023039999998C475.7658387839998 200.68725599999996,474.04228838399985 201.46563359999996,472.54113158399986 201.46563359999996C471.37356518399986 201.46563359999996,470.3727939839998 201.00231359999998,469.8909411839998 200.05714079999998C469.74267878399985 199.68648479999996,469.66854758399984 199.33436159999997,469.66854758399984 198.94517279999997C469.66854758399984 196.92509759999996,471.9295491839998 194.68262879999997,474.52414118399986 194.55289919999998">
</path>
</g>
<g class="vf-flag" pointer-events="bounding-box">
<path stroke-width="0.3" fill="#000000" stroke="none" stroke-dasharray="none" d="M476.85058598399985 172.89999999999998M476.40579878399984 175.88378079999998L476.40579878399984 172.992664L476.47992998399985 172.992664C476.6837907839998 172.992664,476.81352038399984 173.12239359999998,476.85058598399985 173.34478719999998C477.23977478399985 175.19806719999997,478.40734118399985 177.21814239999998,480.01969478399985 178.73783199999997C481.81737638399983 180.42431679999999,482.72548358399985 182.74091679999998,482.72548358399985 185.13164799999998C482.72548358399985 187.39264959999997,481.92857318399984 189.74631519999997,480.31621958399984 191.69225919999997C480.03822758399986 192.06291519999996,480.01969478399985 192.06291519999996,479.8343667839998 192.06291519999996C479.61197318399985 192.06291519999996,479.46371078399983 191.89611999999997,479.46371078399983 191.67372639999996C479.46371078399983 191.50693119999997,479.48224358399983 191.4698656,479.66757158399986 191.2660048C481.07606438399984 189.56098719999997,481.7803107839998 187.5038464,481.7803107839998 185.5393696C481.7803107839998 183.7972864,481.22432678399986 182.12933439999998,480.07529318399986 180.86910399999996C479.3710467839999 180.09072639999997,478.07375078399986 179.34941439999997,476.42433158399984 178.77489759999997C476.42433158399984 178.75636479999997,476.40579878399984 178.18184799999997,476.40579878399984 175.88378079999998">
</path>
</g>
</g>
<g class="vf-modifiers">
</g>
</g>
<path stroke-width="1" fill="none" stroke="#000000" stroke-dasharray="none" d="M470.66854758399984 189.74999999999997L483.66854758399984 180.74999999999997Z">
</path>
</g>
</g>
<g class="vf-stavenote" id="vf-auto22132">
<g class="vf-note" pointer-events="bounding-box">
<g class="vf-notehead" pointer-events="bounding-box">
<path stroke-width="0.3" fill="#000000" stroke="none" stroke-dasharray="none" d="M528.4416051839999 197.99999999999997M535.7985651839998 192.77711999999997C535.9108851839999 192.77711999999997,536.0793651839998 192.77711999999997,536.1074451839999 192.77711999999997C536.1074451839999 192.77711999999997,536.1355251839999 192.77711999999997,536.1355251839999 192.77711999999997C536.1355251839999 192.77711999999997,536.3040051839998 192.77711999999997,536.4444051839998 192.77711999999997C538.9716051839998 192.91751999999997,540.4598451839998 194.57423999999997,540.4598451839998 196.65215999999998C540.4598451839998 197.66303999999997,540.1228851839999 198.81431999999998,539.2804851839999 199.90943999999996C537.6799251839999 202.07159999999996,535.0684851839999 203.25095999999996,532.7940051839998 203.25095999999996C531.0249651839998 203.25095999999996,529.5086451839999 202.54895999999997,528.7785651839998 201.11687999999998C528.5539251839998 200.55527999999998,528.4416051839999 200.02175999999997,528.4416051839999 199.43207999999998C528.4416051839999 196.37135999999998,531.8673651839998 192.97367999999997,535.7985651839998 192.77711999999997">
</path>
</g>
</g>
<g class="vf-modifiers">
</g>
</g>
<g class="vf-stavenote" id="vf-auto22142">
<g class="vf-note" pointer-events="bounding-box">
<g class="vf-notehead" pointer-events="bounding-box">
<path stroke-width="0.3" fill="#000000" stroke="none" stroke-dasharray="none" d="M561.3505859839998 197.99999999999997M568.7075459839998 192.77711999999997C568.8198659839999 192.77711999999997,568.9883459839998 192.77711999999997,569.0164259839999 192.77711999999997C569.0164259839999 192.77711999999997,569.0445059839999 192.77711999999997,569.0445059839999 192.77711999999997C569.0445059839999 192.77711999999997,569.2129859839998 192.77711999999997,569.3533859839998 192.77711999999997C571.8805859839998 192.91751999999997,573.3688259839998 194.57423999999997,573.3688259839998 196.65215999999998C573.3688259839998 197.66303999999997,573.0318659839999 198.81431999999998,572.1894659839999 199.90943999999996C570.5889059839999 202.07159999999996,567.9774659839999 203.25095999999996,565.7029859839998 203.25095999999996C563.9339459839998 203.25095999999996,562.4176259839999 202.54895999999997,561.6875459839998 201.11687999999998C561.4629059839998 200.55527999999998,561.3505859839998 200.02175999999997,561.3505859839998 199.43207999999998C561.3505859839998 196.37135999999998,564.7763459839998 192.97367999999997,568.7075459839998 192.77711999999997">
</path>
</g>
</g>
<g class="vf-modifiers">
</g>
</g>
<g class="vf-stavenote" id="vf-auto22152">
<g class="vf-note" pointer-events="bounding-box">
<g class="vf-notehead" pointer-events="bounding-box">
<path stroke-width="0.3" fill="#000000" stroke="none" stroke-dasharray="none" d="M594.2595667839998 197.99999999999997M601.6165267839998 192.77711999999997C601.7288467839999 192.77711999999997,601.8973267839998 192.77711999999997,601.9254067839998 192.77711999999997C601.9254067839998 192.77711999999997,601.9534867839999 192.77711999999997,601.9534867839999 192.77711999999997C601.9534867839999 192.77711999999997,602.1219667839998 192.77711999999997,602.2623667839998 192.77711999999997C604.7895667839998 192.91751999999997,606.2778067839998 194.57423999999997,606.2778067839998 196.65215999999998C606.2778067839998 197.66303999999997,605.9408467839999 198.81431999999998,605.0984467839999 199.90943999999996C603.4978867839999 202.07159999999996,600.8864467839999 203.25095999999996,598.6119667839998 203.25095999999996C596.8429267839998 203.25095999999996,595.3266067839999 202.54895999999997,594.5965267839998 201.11687999999998C594.3718867839998 200.55527999999998,594.2595667839998 200.02175999999997,594.2595667839998 199.43207999999998C594.2595667839998 196.37135999999998,597.6853267839998 192.97367999999997,601.6165267839998 192.77711999999997">
</path>
</g>
</g>
<g class="vf-modifiers">
</g>
</g>
<g class="vf-stavenote" id="vf-auto22162">
<g class="vf-note" pointer-events="bounding-box">
<g class="vf-notehead" pointer-events="bounding-box">
<path stroke-width="0.3" fill="#000000" stroke="none" stroke-dasharray="none" d="M653.0326243839999 197.99999999999997M660.3895843839998 192.77711999999997C660.5019043839999 192.77711999999997,660.6703843839998 192.77711999999997,660.6984643839999 192.77711999999997C660.6984643839999 192.77711999999997,660.7265443839999 192.77711999999997,660.7265443839999 192.77711999999997C660.7265443839999 192.77711999999997,660.8950243839998 192.77711999999997,661.0354243839998 192.77711999999997C663.5626243839998 192.91751999999997,665.0508643839999 194.57423999999997,665.0508643839999 196.65215999999998C665.0508643839999 197.66303999999997,664.7139043839999 198.81431999999998,663.8715043839999 199.90943999999996C662.2709443839999 202.07159999999996,659.6595043839999 203.25095999999996,657.3850243839998 203.25095999999996C655.6159843839998 203.25095999999996,654.0996643839999 202.54895999999997,653.3695843839998 201.11687999999998C653.1449443839998 200.55527999999998,653.0326243839999 200.02175999999997,653.0326243839999 199.43207999999998C653.0326243839999 196.37135999999998,656.4583843839998 192.97367999999997,660.3895843839998 192.77711999999997">
</path>
</g>
</g>
<g class="vf-modifiers">
<g class="vf-stavenote" id="vf-auto22172">
<g class="vf-note" pointer-events="bounding-box">
<g class="vf-stem" pointer-events="bounding-box">
<path stroke-width="1.5" fill="none" stroke="#000000" stroke-dasharray="none" d="M634.3505859839998 197.99999999999997L634.3505859839998 174.89999999999998">
</path>
</g>
<g class="vf-notehead" pointer-events="bounding-box">
<path stroke-width="0.3" fill="#000000" stroke="none" stroke-dasharray="none" d="M627.1685475839998 197.99999999999997M632.0241411839999 194.55289919999998C632.0982723839999 194.55289919999998,632.2094691839999 194.55289919999998,632.2280019839999 194.55289919999998C632.2280019839999 194.55289919999998,632.2465347839999 194.55289919999998,632.2465347839999 194.55289919999998C632.2465347839999 194.55289919999998,632.3577315839998 194.55289919999998,632.4503955839998 194.55289919999998C634.1183475839998 194.64556319999997,635.1005859839998 195.73899839999996,635.1005859839998 197.11042559999999C635.1005859839998 197.77760639999997,634.8781923839998 198.53745119999996,634.3222083839999 199.26023039999998C633.2658387839998 200.68725599999996,631.5422883839998 201.46563359999996,630.0411315839998 201.46563359999996C628.8735651839999 201.46563359999996,627.8727939839998 201.00231359999998,627.3909411839999 200.05714079999998C627.2426787839998 199.68648479999996,627.1685475839998 199.33436159999997,627.1685475839998 198.94517279999997C627.1685475839998 196.92509759999996,629.4295491839998 194.68262879999997,632.0241411839999 194.55289919999998">
</path>
</g>
<g class="vf-flag" pointer-events="bounding-box">
<path stroke-width="0.3" fill="#000000" stroke="none" stroke-dasharray="none" d="M634.3505859839998 172.89999999999998M633.9057987839999 175.88378079999998L633.9057987839999 172.992664L633.9799299839998 172.992664C634.1837907839998 172.992664,634.3135203839998 173.12239359999998,634.3505859839998 173.34478719999998C634.7397747839999 175.19806719999997,635.9073411839998 177.21814239999998,637.5196947839999 178.73783199999997C639.3173763839999 180.42431679999999,640.2254835839999 182.74091679999998,640.2254835839999 185.13164799999998C640.2254835839999 187.39264959999997,639.4285731839999 189.74631519999997,637.8162195839999 191.69225919999997C637.5382275839999 192.06291519999996,637.5196947839999 192.06291519999996,637.3343667839998 192.06291519999996C637.1119731839998 192.06291519999996,636.9637107839999 191.89611999999997,636.9637107839999 191.67372639999996C636.9637107839999 191.50693119999997,636.9822435839999 191.4698656,637.1675715839998 191.2660048C638.5760643839999 189.56098719999997,639.2803107839999 187.5038464,639.2803107839999 185.5393696C639.2803107839999 183.7972864,638.7243267839998 182.12933439999998,637.5752931839999 180.86910399999996C636.8710467839999 180.09072639999997,635.5737507839998 179.34941439999997,633.9243315839999 178.77489759999997C633.9243315839999 178.75636479999997,633.9057987839999 178.18184799999997,633.9057987839999 175.88378079999998">
</path>
</g>
</g>
<g class="vf-modifiers">
</g>
</g>
<path stroke-width="1" fill="none" stroke="#000000" stroke-dasharray="none" d="M628.1685475839998 189.74999999999997L641.1685475839998 180.74999999999997Z">
</path>
</g>
</g>
<g class="vf-stavenote" id="vf-auto22186">
<g class="vf-note" pointer-events="bounding-box">
<g class="vf-notehead" pointer-events="bounding-box">
<path stroke-width="0.3" fill="#000000" stroke="none" stroke-dasharray="none" d="M685.9416051839999 197.99999999999997M693.2985651839998 192.77711999999997C693.4108851839999 192.77711999999997,693.5793651839998 192.77711999999997,693.6074451839999 192.77711999999997C693.6074451839999 192.77711999999997,693.6355251839999 192.77711999999997,693.6355251839999 192.77711999999997C693.6355251839999 192.77711999999997,693.8040051839998 192.77711999999997,693.9444051839998 192.77711999999997C696.4716051839998 192.91751999999997,697.9598451839998 194.57423999999997,697.9598451839998 196.65215999999998C697.9598451839998 197.66303999999997,697.6228851839999 198.81431999999998,696.7804851839999 199.90943999999996C695.1799251839999 202.07159999999996,692.5684851839999 203.25095999999996,690.2940051839998 203.25095999999996C688.5249651839998 203.25095999999996,687.0086451839999 202.54895999999997,686.2785651839998 201.11687999999998C686.0539251839998 200.55527999999998,685.9416051839999 200.02175999999997,685.9416051839999 199.43207999999998C685.9416051839999 196.37135999999998,689.3673651839998 192.97367999999997,693.2985651839998 192.77711999999997">
</path>
</g>
</g>
<g class="vf-modifiers">
</g>
</g>
<g class="vf-stavenote" id="vf-auto22196">
<g class="vf-note" pointer-events="bounding-box">
<g class="vf-notehead" pointer-events="bounding-box">
<path stroke-width="0.3" fill="#000000" stroke="none" stroke-dasharray="none" d="M718.8505859839998 197.99999999999997M726.2075459839998 192.77711999999997C726.3198659839999 192.77711999999997,726.4883459839998 192.77711999999997,726.5164259839999 192.77711999999997C726.5164259839999 192.77711999999997,726.5445059839999 192.77711999999997,726.5445059839999 192.77711999999997C726.5445059839999 192.77711999999997,726.7129859839998 192.77711999999997,726.8533859839998 192.77711999999997C729.3805859839998 192.91751999999997,730.8688259839998 194.57423999999997,730.8688259839998 196.65215999999998C730.8688259839998 197.66303999999997,730.5318659839999 198.81431999999998,729.6894659839999 199.90943999999996C728.0889059839999 202.07159999999996,725.4774659839999 203.25095999999996,723.2029859839998 203.25095999999996C721.4339459839998 203.25095999999996,719.9176259839999 202.54895999999997,719.1875459839998 201.11687999999998C718.9629059839998 200.55527999999998,718.8505859839998 200.02175999999997,718.8505859839998 199.43207999999998C718.8505859839998 196.37135999999998,722.2763459839998 192.97367999999997,726.2075459839998 192.77711999999997">
</path>
</g>
</g>
<g class="vf-modifiers">
</g>
</g>
<g class="vf-stavenote" id="vf-auto22206">
<g class="vf-note" pointer-events="bounding-box">
<g class="vf-notehead" pointer-events="bounding-box">
<path stroke-width="0.3" fill="#000000" stroke="none" stroke-dasharray="none" d="M751.7595667839998 197.99999999999997M759.1165267839998 192.77711999999997C759.2288467839999 192.77711999999997,759.3973267839998 192.77711999999997,759.4254067839998 192.77711999999997C759.4254067839998 192.77711999999997,759.4534867839999 192.77711999999997,759.4534867839999 192.77711999999997C759.4534867839999 192.77711999999997,759.6219667839998 192.77711999999997,759.7623667839998 192.77711999999997C762.2895667839998 192.91751999999997,763.7778067839998 194.57423999999997,763.7778067839998 196.65215999999998C763.7778067839998 197.66303999999997,763.4408467839999 198.81431999999998,762.5984467839999 199.90943999999996C760.9978867839999 202.07159999999996,758.3864467839999 203.25095999999996,756.1119667839998 203.25095999999996C754.3429267839998 203.25095999999996,752.8266067839999 202.54895999999997,752.0965267839998 201.11687999999998C751.8718867839998 200.55527999999998,751.7595667839998 200.02175999999997,751.7595667839998 199.43207999999998C751.7595667839998 196.37135999999998,755.1853267839998 192.97367999999997,759.1165267839998 192.77711999999997">
</path>
</g>
</g>
<g class="vf-modifiers">
</g>
</g>
<path stroke-width="1.5" fill="none" stroke="#000000" stroke-dasharray="none" d="M506.80086438399985 197.99999999999997L506.80086438399985 163.74999999999997">
</path>
<path stroke-width="1.5" fill="none" stroke="#000000" stroke-dasharray="none" d="M539.7098451839998 197.99999999999997L539.7098451839998 163.74999999999997">
</path>
<path stroke-width="0.3" fill="#000000" stroke="none" stroke-dasharray="none" d="M506.05086438399985 162.99999999999997L506.05086438399985 167.99999999999997L539.9598451839998 167.99999999999997L539.9598451839998 162.99999999999997Z">
</path>
<path stroke-width="1.5" fill="none" stroke="#000000" stroke-dasharray="none" d="M572.6188259839998 197.99999999999997L572.6188259839998 163.74999999999997">
</path>
<path stroke-width="1.5" fill="none" stroke="#000000" stroke-dasharray="none" d="M605.5278067839998 197.99999999999997L605.5278067839998 163.74999999999997">
</path>
<path stroke-width="0.3" fill="#000000" stroke="none" stroke-dasharray="none" d="M571.8688259839998 162.99999999999997L571.8688259839998 167.99999999999997L605.7778067839998 167.99999999999997L605.7778067839998 162.99999999999997Z">
</path>
<path stroke-width="1.5" fill="none" stroke="#000000" stroke-dasharray="none" d="M664.3008643839999 197.99999999999997L664.3008643839999 163.74999999999997">
</path>
<path stroke-width="1.5" fill="none" stroke="#000000" stroke-dasharray="none" d="M697.2098451839998 197.99999999999997L697.2098451839998 163.74999999999997">
</path>
<path stroke-width="0.3" fill="#000000" stroke="none" stroke-dasharray="none" d="M663.5508643839999 162.99999999999997L663.5508643839999 167.99999999999997L697.4598451839998 167.99999999999997L697.4598451839998 162.99999999999997Z">
</path>
<path stroke-width="1.5" fill="none" stroke="#000000" stroke-dasharray="none" d="M730.1188259839998 197.99999999999997L730.1188259839998 163.74999999999997">
</path>
<path stroke-width="1.5" fill="none" stroke="#000000" stroke-dasharray="none" d="M763.0278067839998 197.99999999999997L763.0278067839998 163.74999999999997">
</path>
<path stroke-width="0.3" fill="#000000" stroke="none" stroke-dasharray="none" d="M729.3688259839998 162.99999999999997L729.3688259839998 167.99999999999997L763.2778067839998 167.99999999999997L763.2778067839998 162.99999999999997Z">
</path>
</svg>