<svg width="600" height="100" viewBox="50 135 650 100">
<path stroke-width="1" fill="none" stroke="black" stroke-dasharray="none" d="M50 197.99999999999997L391.1120447999999 197.99999999999997"></path>
<rect stroke-width="0.3" fill="black" stroke="black" stroke-dasharray="none" x="391.1120447999999" y="177.49999999999997" width="1" height="41"></rect><path stroke-width="0.3" fill="black" stroke="none" stroke-dasharray="none" d="M55 197.99999999999997M55 197.99999999999997L55 188.00639999999999L57.1888 188.00639999999999L59.4064 188.00639999999999L59.4064 197.99999999999997L59.4064 208.02239999999998L57.1888 208.02239999999998L55 208.02239999999998L55 197.99999999999997M63.870400000000004 198.02879999999996L63.870400000000004 188.00639999999999L66.1168 188.00639999999999L68.3632 188.00639999999999L68.3632 198.02879999999996L68.3632 208.02239999999998L66.1168 208.02239999999998L63.870400000000004 208.02239999999998L63.870400000000004 198.02879999999996"></path>
<path stroke-width="0.3" fill="black" stroke="none" stroke-dasharray="none" d="M96 197.99999999999997M101.0112 179.65439999999998C101.04 179.62559999999996,101.4432 179.62559999999996,102.6816 179.62559999999996C103.056 179.62559999999996,103.4592 179.62559999999996,103.9776 179.62559999999996L106.8864 179.62559999999996L106.9728 179.71199999999996C107.1168 179.79839999999996,107.2032 179.94239999999996,107.2032 180.05759999999998C107.2032 180.23039999999997,107.1168 180.34559999999996,107.0016 180.46079999999998C106.9728 180.54719999999998,106.7136 180.77759999999998,106.5408 181.03679999999997L105.0144 182.79359999999997L103.056 185.01119999999997L102.0192 186.19199999999998L100.464 187.97759999999997L98.4192 190.31039999999996C98.0736 190.74239999999998,97.6992 191.08799999999997,97.6992 191.08799999999997C97.6992 191.08799999999997,97.6992 191.08799999999997,97.6992 191.08799999999997C97.6992 191.14559999999997,97.9584 191.14559999999997,100.3488 191.14559999999997L102.9696 191.14559999999997L102.9696 189.27359999999996C102.9696 187.37279999999998,102.9696 187.34399999999997,102.9984 187.31519999999998C103.056 187.22879999999998,103.3152 186.91199999999998,104.3232 185.73119999999997L104.7264 185.29919999999998L105.1296 184.86719999999997L105.7344 184.08959999999996L106.368 183.42719999999997L106.6848 183.02399999999997C106.8 182.85119999999998,106.9728 182.82239999999996,107.1168 182.82239999999996C107.28960000000001 182.82239999999996,107.4336 182.90879999999999,107.52 183.05279999999996C107.5488 183.13919999999996,107.5488 183.19679999999997,107.5488 185.32799999999997C107.5488 185.81759999999997,107.5488 186.42239999999998,107.5488 187.14239999999998L107.5488 191.14559999999997L108.2688 191.14559999999997C108.9312 191.14559999999997,108.96 191.14559999999997,109.0464 191.17439999999996C109.2768 191.26079999999996,109.392 191.49119999999996,109.392 191.75039999999998C109.392 191.89439999999996,109.3632 192.06719999999999,109.248 192.18239999999997C109.0752 192.32639999999998,109.0464 192.32639999999998,108.2688 192.32639999999998L107.5488 192.32639999999998L107.5488 192.81599999999997C107.5776 194.28479999999996,107.8656 194.86079999999998,108.9888 195.46559999999997C109.392 195.66719999999998,109.4784 195.72479999999996,109.4784 196.01279999999997C109.4784 196.21439999999998,109.4208 196.30079999999998,109.2768 196.41599999999997L109.1904 196.44479999999996L105.2448 196.44479999999996L101.328 196.44479999999996L101.2416 196.41599999999997C101.0688 196.30079999999998,101.04 196.21439999999998,101.04 196.01279999999997C101.04 195.72479999999996,101.0688 195.66719999999998,101.5008 195.46559999999997C102.624 194.86079999999998,102.912 194.28479999999996,102.912 192.81599999999997L102.912 192.32639999999998L99.6 192.32639999999998C98.9952 192.38399999999996,98.5056 192.38399999999996,98.1024 192.38399999999996C96.288 192.38399999999996,96.2592 192.32639999999998,96.2304 192.32639999999998C96.0576 192.26879999999997,96 192.09599999999998,96 191.89439999999996C96 191.89439999999996,96 191.89439999999996,96 191.89439999999996C96 191.69279999999998,96 191.69279999999998,96.576 191.0304C98.9952 188.09279999999998,100.6944 183.83039999999997,100.6944 180.43199999999996C100.6944 179.91359999999997,100.7808 179.74079999999998,101.0112 179.65439999999998M102.7392 198.02879999999996L102.768 198.02879999999996L102.6816 198.02879999999996L102.7392 198.02879999999996M102.7392 178.61759999999998L102.768 178.61759999999998L102.6816 178.61759999999998L102.7392 178.61759999999998"></path>
<path stroke-width="0.3" fill="black" stroke="none" stroke-dasharray="none" d="M96 217.99999999999997M101.0112 199.65439999999998C101.04 199.62559999999996,101.4432 199.62559999999996,102.6816 199.62559999999996C103.056 199.62559999999996,103.4592 199.62559999999996,103.9776 199.62559999999996L106.8864 199.62559999999996L106.9728 199.71199999999996C107.1168 199.79839999999996,107.2032 199.94239999999996,107.2032 200.05759999999998C107.2032 200.23039999999997,107.1168 200.34559999999996,107.0016 200.46079999999998C106.9728 200.54719999999998,106.7136 200.77759999999998,106.5408 201.03679999999997L105.0144 202.79359999999997L103.056 205.01119999999997L102.0192 206.19199999999998L100.464 207.97759999999997L98.4192 210.31039999999996C98.0736 210.74239999999998,97.6992 211.08799999999997,97.6992 211.08799999999997C97.6992 211.08799999999997,97.6992 211.08799999999997,97.6992 211.08799999999997C97.6992 211.14559999999997,97.9584 211.14559999999997,100.3488 211.14559999999997L102.9696 211.14559999999997L102.9696 209.27359999999996C102.9696 207.37279999999998,102.9696 207.34399999999997,102.9984 207.31519999999998C103.056 207.22879999999998,103.3152 206.91199999999998,104.3232 205.73119999999997L104.7264 205.29919999999998L105.1296 204.86719999999997L105.7344 204.08959999999996L106.368 203.42719999999997L106.6848 203.02399999999997C106.8 202.85119999999998,106.9728 202.82239999999996,107.1168 202.82239999999996C107.28960000000001 202.82239999999996,107.4336 202.90879999999999,107.52 203.05279999999996C107.5488 203.13919999999996,107.5488 203.19679999999997,107.5488 205.32799999999997C107.5488 205.81759999999997,107.5488 206.42239999999998,107.5488 207.14239999999998L107.5488 211.14559999999997L108.2688 211.14559999999997C108.9312 211.14559999999997,108.96 211.14559999999997,109.0464 211.17439999999996C109.2768 211.26079999999996,109.392 211.49119999999996,109.392 211.75039999999998C109.392 211.89439999999996,109.3632 212.06719999999999,109.248 212.18239999999997C109.0752 212.32639999999998,109.0464 212.32639999999998,108.2688 212.32639999999998L107.5488 212.32639999999998L107.5488 212.81599999999997C107.5776 214.28479999999996,107.8656 214.86079999999998,108.9888 215.46559999999997C109.392 215.66719999999998,109.4784 215.72479999999996,109.4784 216.01279999999997C109.4784 216.21439999999998,109.4208 216.30079999999998,109.2768 216.41599999999997L109.1904 216.44479999999996L105.2448 216.44479999999996L101.328 216.44479999999996L101.2416 216.41599999999997C101.0688 216.30079999999998,101.04 216.21439999999998,101.04 216.01279999999997C101.04 215.72479999999996,101.0688 215.66719999999998,101.5008 215.46559999999997C102.624 214.86079999999998,102.912 214.28479999999996,102.912 212.81599999999997L102.912 212.32639999999998L99.6 212.32639999999998C98.9952 212.38399999999996,98.5056 212.38399999999996,98.1024 212.38399999999996C96.288 212.38399999999996,96.2592 212.32639999999998,96.2304 212.32639999999998C96.0576 212.26879999999997,96 212.09599999999998,96 211.89439999999996C96 211.89439999999996,96 211.89439999999996,96 211.89439999999996C96 211.69279999999998,96 211.69279999999998,96.576 211.0304C98.9952 208.09279999999998,100.6944 203.83039999999997,100.6944 200.43199999999996C100.6944 199.91359999999997,100.7808 199.74079999999998,101.0112 199.65439999999998M102.7392 218.02879999999996L102.768 218.02879999999996L102.6816 218.02879999999996L102.7392 218.02879999999996M102.7392 198.61759999999998L102.768 198.61759999999998L102.6816 198.61759999999998L102.7392 198.61759999999998"></path>
<g class="vf-stavenote" id="vf-auto20876"><g class="vf-note" pointer-events="bounding-box"><g class="vf-notehead" pointer-events="bounding-box"><path stroke-width="0.3" fill="#000000" stroke="none" stroke-dasharray="none" d="M121.4784 197.99999999999997M128.83535999999998 192.77711999999997C128.94768 192.77711999999997,129.11615999999998 192.77711999999997,129.14424 192.77711999999997C129.14424 192.77711999999997,129.17231999999998 192.77711999999997,129.17231999999998 192.77711999999997C129.17231999999998 192.77711999999997,129.3408 192.77711999999997,129.4812 192.77711999999997C132.0084 192.91751999999997,133.49663999999999 194.57423999999997,133.49663999999999 196.65215999999998C133.49663999999999 197.66303999999997,133.15967999999998 198.81431999999998,132.31727999999998 199.90943999999996C130.71671999999998 202.07159999999996,128.10528 203.25095999999996,125.8308 203.25095999999996C124.06175999999999 203.25095999999996,122.54544 202.54895999999997,121.81536 201.11687999999998C121.59071999999999 200.55527999999998,121.4784 200.02175999999997,121.4784 199.43207999999998C121.4784 196.37135999999998,124.90415999999999 192.97367999999997,128.83535999999998 192.77711999999997"></path>
</g></g><g class="vf-modifiers"></g></g><g class="vf-stavenote" id="vf-auto20886"><g class="vf-note" pointer-events="bounding-box"><g class="vf-notehead" pointer-events="bounding-box"><path stroke-width="0.3" fill="#000000" stroke="none" stroke-dasharray="none" d="M155.4186 197.99999999999997M162.77555999999998 192.77711999999997C162.88788 192.77711999999997,163.05635999999998 192.77711999999997,163.08444 192.77711999999997C163.08444 192.77711999999997,163.11252 192.77711999999997,163.11252 192.77711999999997C163.11252 192.77711999999997,163.281 192.77711999999997,163.4214 192.77711999999997C165.9486 192.91751999999997,167.43684 194.57423999999997,167.43684 196.65215999999998C167.43684 197.66303999999997,167.09987999999998 198.81431999999998,166.25748 199.90943999999996C164.65691999999999 202.07159999999996,162.04548 203.25095999999996,159.771 203.25095999999996C158.00196 203.25095999999996,156.48564 202.54895999999997,155.75556 201.11687999999998C155.53092 200.55527999999998,155.4186 200.02175999999997,155.4186 199.43207999999998C155.4186 196.37135999999998,158.84436 192.97367999999997,162.77555999999998 192.77711999999997"></path>
</g></g><g class="vf-modifiers"></g></g><g class="vf-stavenote" id="vf-auto20896"><g class="vf-note" pointer-events="bounding-box"><g class="vf-notehead" pointer-events="bounding-box"><path stroke-width="0.3" fill="#000000" stroke="none" stroke-dasharray="none" d="M189.3588 197.99999999999997M196.71576 192.77711999999997C196.82808 192.77711999999997,196.99656 192.77711999999997,197.02464 192.77711999999997C197.02464 192.77711999999997,197.05272 192.77711999999997,197.05272 192.77711999999997C197.05272 192.77711999999997,197.2212 192.77711999999997,197.3616 192.77711999999997C199.8888 192.91751999999997,201.37704 194.57423999999997,201.37704 196.65215999999998C201.37704 197.66303999999997,201.04008 198.81431999999998,200.19768 199.90943999999996C198.59712 202.07159999999996,195.98568 203.25095999999996,193.7112 203.25095999999996C191.94216 203.25095999999996,190.42584 202.54895999999997,189.69576 201.11687999999998C189.47112 200.55527999999998,189.3588 200.02175999999997,189.3588 199.43207999999998C189.3588 196.37135999999998,192.78456 192.97367999999997,196.71576 192.77711999999997"></path>
</g></g><g class="vf-modifiers"></g></g><g class="vf-stavenote" id="vf-auto20906"><g class="vf-note" pointer-events="bounding-box"><g class="vf-notehead" pointer-events="bounding-box"><path stroke-width="0.3" fill="#000000" stroke="none" stroke-dasharray="none" d="M223.299 197.99999999999997M230.65596 192.77711999999997C230.76828 192.77711999999997,230.93676 192.77711999999997,230.96484 192.77711999999997C230.96484 192.77711999999997,230.99292 192.77711999999997,230.99292 192.77711999999997C230.99292 192.77711999999997,231.16140000000001 192.77711999999997,231.30180000000001 192.77711999999997C233.829 192.91751999999997,235.31724 194.57423999999997,235.31724 196.65215999999998C235.31724 197.66303999999997,234.98028 198.81431999999998,234.13788 199.90943999999996C232.53732 202.07159999999996,229.92588 203.25095999999996,227.6514 203.25095999999996C225.88236 203.25095999999996,224.36604 202.54895999999997,223.63596 201.11687999999998C223.41132000000002 200.55527999999998,223.299 200.02175999999997,223.299 199.43207999999998C223.299 196.37135999999998,226.72476 192.97367999999997,230.65596 192.77711999999997"></path>
</g></g><g class="vf-modifiers"></g></g><g class="vf-stavenote" id="vf-auto20916"><g class="vf-note" pointer-events="bounding-box"><g class="vf-notehead" pointer-events="bounding-box"><path stroke-width="0.3" fill="#000000" stroke="none" stroke-dasharray="none" d="M257.2392 197.99999999999997M264.59616 192.77711999999997C264.70848 192.77711999999997,264.87696 192.77711999999997,264.90504 192.77711999999997C264.90504 192.77711999999997,264.93312 192.77711999999997,264.93312 192.77711999999997C264.93312 192.77711999999997,265.10159999999996 192.77711999999997,265.24199999999996 192.77711999999997C267.76919999999996 192.91751999999997,269.25744 194.57423999999997,269.25744 196.65215999999998C269.25744 197.66303999999997,268.92048 198.81431999999998,268.07808 199.90943999999996C266.47751999999997 202.07159999999996,263.86608 203.25095999999996,261.59159999999997 203.25095999999996C259.82256 203.25095999999996,258.30624 202.54895999999997,257.57615999999996 201.11687999999998C257.35152 200.55527999999998,257.2392 200.02175999999997,257.2392 199.43207999999998C257.2392 196.37135999999998,260.66496 192.97367999999997,264.59616 192.77711999999997"></path>
</g></g><g class="vf-modifiers"></g></g><g class="vf-stavenote" id="vf-auto20926"><g class="vf-note" pointer-events="bounding-box"><g class="vf-notehead" pointer-events="bounding-box"><path stroke-width="0.3" fill="#000000" stroke="none" stroke-dasharray="none" d="M291.1794 197.99999999999997M298.53636 192.77711999999997C298.64868 192.77711999999997,298.81716 192.77711999999997,298.84524 192.77711999999997C298.84524 192.77711999999997,298.87332 192.77711999999997,298.87332 192.77711999999997C298.87332 192.77711999999997,299.04179999999997 192.77711999999997,299.18219999999997 192.77711999999997C301.70939999999996 192.91751999999997,303.19764 194.57423999999997,303.19764 196.65215999999998C303.19764 197.66303999999997,302.86068 198.81431999999998,302.01828 199.90943999999996C300.41772 202.07159999999996,297.80628 203.25095999999996,295.5318 203.25095999999996C293.76276 203.25095999999996,292.24644 202.54895999999997,291.51635999999996 201.11687999999998C291.29172 200.55527999999998,291.1794 200.02175999999997,291.1794 199.43207999999998C291.1794 196.37135999999998,294.60516 192.97367999999997,298.53636 192.77711999999997"></path>
</g></g><g class="vf-modifiers"></g></g><g class="vf-stavenote" id="vf-auto20936"><g class="vf-note" pointer-events="bounding-box"><g class="vf-notehead" pointer-events="bounding-box"><path stroke-width="0.3" fill="#000000" stroke="none" stroke-dasharray="none" d="M325.1196 197.99999999999997M332.47656 192.77711999999997C332.58888 192.77711999999997,332.75736 192.77711999999997,332.78544 192.77711999999997C332.78544 192.77711999999997,332.81352 192.77711999999997,332.81352 192.77711999999997C332.81352 192.77711999999997,332.98199999999997 192.77711999999997,333.12239999999997 192.77711999999997C335.64959999999996 192.91751999999997,337.13784 194.57423999999997,337.13784 196.65215999999998C337.13784 197.66303999999997,336.80088 198.81431999999998,335.95848 199.90943999999996C334.35792 202.07159999999996,331.74648 203.25095999999996,329.472 203.25095999999996C327.70296 203.25095999999996,326.18664 202.54895999999997,325.45655999999997 201.11687999999998C325.23192 200.55527999999998,325.1196 200.02175999999997,325.1196 199.43207999999998C325.1196 196.37135999999998,328.54536 192.97367999999997,332.47656 192.77711999999997"></path>
</g></g><g class="vf-modifiers"></g></g><g class="vf-stavenote" id="vf-auto20946"><g class="vf-note" pointer-events="bounding-box"><g class="vf-notehead" pointer-events="bounding-box"><path stroke-width="0.3" fill="#000000" stroke="none" stroke-dasharray="none" d="M359.0598 197.99999999999997M366.41676 192.77711999999997C366.52908 192.77711999999997,366.69756 192.77711999999997,366.72564 192.77711999999997C366.72564 192.77711999999997,366.75372 192.77711999999997,366.75372 192.77711999999997C366.75372 192.77711999999997,366.9222 192.77711999999997,367.0626 192.77711999999997C369.58979999999997 192.91751999999997,371.07804 194.57423999999997,371.07804 196.65215999999998C371.07804 197.66303999999997,370.74108 198.81431999999998,369.89868 199.90943999999996C368.29812 202.07159999999996,365.68668 203.25095999999996,363.4122 203.25095999999996C361.64316 203.25095999999996,360.12684 202.54895999999997,359.39676 201.11687999999998C359.17212 200.55527999999998,359.0598 200.02175999999997,359.0598 199.43207999999998C359.0598 196.37135999999998,362.48556 192.97367999999997,366.41676 192.77711999999997"></path>
</g></g><g class="vf-modifiers"></g></g><path stroke-width="1.5" fill="none" stroke="#000000" stroke-dasharray="none" d="M132.74663999999999 197.99999999999997L132.74663999999999 163.74999999999997"></path>
<path stroke-width="1.5" fill="none" stroke="#000000" stroke-dasharray="none" d="M166.68684 197.99999999999997L166.68684 163.74999999999997"></path>
<path stroke-width="1.5" fill="none" stroke="#000000" stroke-dasharray="none" d="M200.62704 197.99999999999997L200.62704 163.74999999999997"></path>
<path stroke-width="1.5" fill="none" stroke="#000000" stroke-dasharray="none" d="M234.56724 197.99999999999997L234.56724 163.74999999999997"></path>
<path stroke-width="0.3" fill="#000000" stroke="none" stroke-dasharray="none" d="M131.99663999999999 162.99999999999997L131.99663999999999 167.99999999999997L234.81724 167.99999999999997L234.81724 162.99999999999997Z"></path>
<path stroke-width="1.5" fill="none" stroke="#000000" stroke-dasharray="none" d="M268.50744 197.99999999999997L268.50744 163.74999999999997"></path>
<path stroke-width="1.5" fill="none" stroke="#000000" stroke-dasharray="none" d="M302.44764 197.99999999999997L302.44764 163.74999999999997"></path>
<path stroke-width="1.5" fill="none" stroke="#000000" stroke-dasharray="none" d="M336.38784 197.99999999999997L336.38784 163.74999999999997"></path>
<path stroke-width="1.5" fill="none" stroke="#000000" stroke-dasharray="none" d="M370.32804 197.99999999999997L370.32804 163.74999999999997"></path>
<path stroke-width="0.3" fill="#000000" stroke="none" stroke-dasharray="none" d="M267.75744 162.99999999999997L267.75744 167.99999999999997L370.57804 167.99999999999997L370.57804 162.99999999999997Z"></path>
<path stroke-width="1" fill="none" stroke="black" stroke-dasharray="none" d="M391.1120447999999 197.99999999999997L660.2456895999999 197.99999999999997"></path>
<rect stroke-width="0.3" fill="black" stroke="black" stroke-dasharray="none" x="655.2456895999999" y="177.49999999999997" width="1" height="41"></rect><rect stroke-width="0.3" fill="black" stroke="black" stroke-dasharray="none" x="658.2456895999999" y="177.49999999999997" width="3" height="41"></rect><path stroke-width="0.3" fill="black" stroke="none" stroke-dasharray="none" d="M654.2456895999999 193.49999999999997 A2 2 0 0 0 650.2456895999999 193.49999999999997M650.2456895999999 193.49999999999997 A2 2 0 0 0 654.2456895999999 193.49999999999997"></path>
<path stroke-width="0.3" fill="black" stroke="none" stroke-dasharray="none" d="M654.2456895999999 203.49999999999997 A2 2 0 0 0 650.2456895999999 203.49999999999997M650.2456895999999 203.49999999999997 A2 2 0 0 0 654.2456895999999 203.49999999999997"></path>
<g class="vf-stavenote" id="vf-auto20959"><g class="vf-note" pointer-events="bounding-box"><g class="vf-notehead" pointer-events="bounding-box"><path stroke-width="0.3" fill="#000000" stroke="none" stroke-dasharray="none" d="M408.1120447999999 197.99999999999997M415.46900479999994 192.77711999999997C415.58132479999995 192.77711999999997,415.74980479999994 192.77711999999997,415.7778847999999 192.77711999999997C415.7778847999999 192.77711999999997,415.8059647999999 192.77711999999997,415.8059647999999 192.77711999999997C415.8059647999999 192.77711999999997,415.9744447999999 192.77711999999997,416.1148447999999 192.77711999999997C418.6420447999999 192.91751999999997,420.1302847999999 194.57423999999997,420.1302847999999 196.65215999999998C420.1302847999999 197.66303999999997,419.79332479999994 198.81431999999998,418.95092479999994 199.90943999999996C417.3503647999999 202.07159999999996,414.73892479999995 203.25095999999996,412.4644447999999 203.25095999999996C410.69540479999995 203.25095999999996,409.17908479999994 202.54895999999997,408.4490047999999 201.11687999999998C408.22436479999993 200.55527999999998,408.1120447999999 200.02175999999997,408.1120447999999 199.43207999999998C408.1120447999999 196.37135999999998,411.53780479999995 192.97367999999997,415.46900479999994 192.77711999999997"></path>
</g></g><g class="vf-modifiers"></g></g><g class="vf-stavenote" id="vf-auto20969"><g class="vf-note" pointer-events="bounding-box"><g class="vf-notehead" pointer-events="bounding-box"><path stroke-width="0.3" fill="#000000" stroke="none" stroke-dasharray="none" d="M439.8620447999999 197.99999999999997M447.21900479999994 192.77711999999997C447.33132479999995 192.77711999999997,447.49980479999994 192.77711999999997,447.5278847999999 192.77711999999997C447.5278847999999 192.77711999999997,447.5559647999999 192.77711999999997,447.5559647999999 192.77711999999997C447.5559647999999 192.77711999999997,447.7244447999999 192.77711999999997,447.8648447999999 192.77711999999997C450.3920447999999 192.91751999999997,451.8802847999999 194.57423999999997,451.8802847999999 196.65215999999998C451.8802847999999 197.66303999999997,451.54332479999994 198.81431999999998,450.70092479999994 199.90943999999996C449.1003647999999 202.07159999999996,446.48892479999995 203.25095999999996,444.2144447999999 203.25095999999996C442.44540479999995 203.25095999999996,440.92908479999994 202.54895999999997,440.1990047999999 201.11687999999998C439.97436479999993 200.55527999999998,439.8620447999999 200.02175999999997,439.8620447999999 199.43207999999998C439.8620447999999 196.37135999999998,443.28780479999995 192.97367999999997,447.21900479999994 192.77711999999997"></path>
</g></g><g class="vf-modifiers"></g></g><g class="vf-stavenote" id="vf-auto20979"><g class="vf-note" pointer-events="bounding-box"><g class="vf-notehead" pointer-events="bounding-box"><path stroke-width="0.3" fill="#000000" stroke="none" stroke-dasharray="none" d="M471.6120447999999 197.99999999999997M478.96900479999994 192.77711999999997C479.08132479999995 192.77711999999997,479.24980479999994 192.77711999999997,479.2778847999999 192.77711999999997C479.2778847999999 192.77711999999997,479.3059647999999 192.77711999999997,479.3059647999999 192.77711999999997C479.3059647999999 192.77711999999997,479.4744447999999 192.77711999999997,479.6148447999999 192.77711999999997C482.1420447999999 192.91751999999997,483.6302847999999 194.57423999999997,483.6302847999999 196.65215999999998C483.6302847999999 197.66303999999997,483.29332479999994 198.81431999999998,482.45092479999994 199.90943999999996C480.8503647999999 202.07159999999996,478.23892479999995 203.25095999999996,475.9644447999999 203.25095999999996C474.19540479999995 203.25095999999996,472.67908479999994 202.54895999999997,471.9490047999999 201.11687999999998C471.72436479999993 200.55527999999998,471.6120447999999 200.02175999999997,471.6120447999999 199.43207999999998C471.6120447999999 196.37135999999998,475.03780479999995 192.97367999999997,478.96900479999994 192.77711999999997"></path>
</g></g><g class="vf-modifiers"></g></g><g class="vf-stavenote" id="vf-auto20989"><g class="vf-note" pointer-events="bounding-box"><g class="vf-notehead" pointer-events="bounding-box"><path stroke-width="0.3" fill="#000000" stroke="none" stroke-dasharray="none" d="M503.3620447999999 197.99999999999997M510.71900479999994 192.77711999999997C510.83132479999995 192.77711999999997,510.99980479999994 192.77711999999997,511.0278847999999 192.77711999999997C511.0278847999999 192.77711999999997,511.0559647999999 192.77711999999997,511.0559647999999 192.77711999999997C511.0559647999999 192.77711999999997,511.2244447999999 192.77711999999997,511.3648447999999 192.77711999999997C513.8920447999999 192.91751999999997,515.3802847999999 194.57423999999997,515.3802847999999 196.65215999999998C515.3802847999999 197.66303999999997,515.0433247999999 198.81431999999998,514.2009247999999 199.90943999999996C512.6003648 202.07159999999996,509.98892479999995 203.25095999999996,507.7144447999999 203.25095999999996C505.94540479999995 203.25095999999996,504.42908479999994 202.54895999999997,503.6990047999999 201.11687999999998C503.47436479999993 200.55527999999998,503.3620447999999 200.02175999999997,503.3620447999999 199.43207999999998C503.3620447999999 196.37135999999998,506.78780479999995 192.97367999999997,510.71900479999994 192.77711999999997"></path>
</g></g><g class="vf-modifiers"></g></g><g class="vf-stavenote" id="vf-auto20999"><g class="vf-note" pointer-events="bounding-box"><g class="vf-notehead" pointer-events="bounding-box"><path stroke-width="0.3" fill="#000000" stroke="none" stroke-dasharray="none" d="M535.1120447999999 197.99999999999997M542.4690047999999 192.77711999999997C542.5813248 192.77711999999997,542.7498047999999 192.77711999999997,542.7778847999999 192.77711999999997C542.7778847999999 192.77711999999997,542.8059648 192.77711999999997,542.8059648 192.77711999999997C542.8059648 192.77711999999997,542.9744447999999 192.77711999999997,543.1148447999999 192.77711999999997C545.6420447999999 192.91751999999997,547.1302847999999 194.57423999999997,547.1302847999999 196.65215999999998C547.1302847999999 197.66303999999997,546.7933247999999 198.81431999999998,545.9509247999999 199.90943999999996C544.3503648 202.07159999999996,541.7389248 203.25095999999996,539.4644447999999 203.25095999999996C537.6954047999999 203.25095999999996,536.1790847999999 202.54895999999997,535.4490047999999 201.11687999999998C535.2243647999999 200.55527999999998,535.1120447999999 200.02175999999997,535.1120447999999 199.43207999999998C535.1120447999999 196.37135999999998,538.5378047999999 192.97367999999997,542.4690047999999 192.77711999999997"></path>
</g></g><g class="vf-modifiers"></g></g><g class="vf-stavenote" id="vf-auto21009"><g class="vf-note" pointer-events="bounding-box"><g class="vf-notehead" pointer-events="bounding-box"><path stroke-width="0.3" fill="#000000" stroke="none" stroke-dasharray="none" d="M566.8620447999999 197.99999999999997M574.2190047999999 192.77711999999997C574.3313248 192.77711999999997,574.4998047999999 192.77711999999997,574.5278847999999 192.77711999999997C574.5278847999999 192.77711999999997,574.5559648 192.77711999999997,574.5559648 192.77711999999997C574.5559648 192.77711999999997,574.7244447999999 192.77711999999997,574.8648447999999 192.77711999999997C577.3920447999999 192.91751999999997,578.8802847999999 194.57423999999997,578.8802847999999 196.65215999999998C578.8802847999999 197.66303999999997,578.5433247999999 198.81431999999998,577.7009247999999 199.90943999999996C576.1003648 202.07159999999996,573.4889248 203.25095999999996,571.2144447999999 203.25095999999996C569.4454047999999 203.25095999999996,567.9290847999999 202.54895999999997,567.1990047999999 201.11687999999998C566.9743647999999 200.55527999999998,566.8620447999999 200.02175999999997,566.8620447999999 199.43207999999998C566.8620447999999 196.37135999999998,570.2878047999999 192.97367999999997,574.2190047999999 192.77711999999997"></path>
</g></g><g class="vf-modifiers"></g></g><g class="vf-stavenote" id="vf-auto21019"><g class="vf-note" pointer-events="bounding-box"><g class="vf-notehead" pointer-events="bounding-box"><path stroke-width="0.3" fill="#000000" stroke="none" stroke-dasharray="none" d="M598.6120447999999 197.99999999999997M605.9690047999999 192.77711999999997C606.0813248 192.77711999999997,606.2498047999999 192.77711999999997,606.2778847999999 192.77711999999997C606.2778847999999 192.77711999999997,606.3059648 192.77711999999997,606.3059648 192.77711999999997C606.3059648 192.77711999999997,606.4744447999999 192.77711999999997,606.6148447999999 192.77711999999997C609.1420447999999 192.91751999999997,610.6302847999999 194.57423999999997,610.6302847999999 196.65215999999998C610.6302847999999 197.66303999999997,610.2933247999999 198.81431999999998,609.4509247999999 199.90943999999996C607.8503648 202.07159999999996,605.2389248 203.25095999999996,602.9644447999999 203.25095999999996C601.1954047999999 203.25095999999996,599.6790847999999 202.54895999999997,598.9490047999999 201.11687999999998C598.7243647999999 200.55527999999998,598.6120447999999 200.02175999999997,598.6120447999999 199.43207999999998C598.6120447999999 196.37135999999998,602.0378047999999 192.97367999999997,605.9690047999999 192.77711999999997"></path>
</g></g><g class="vf-modifiers"></g></g><g class="vf-stavenote" id="vf-auto21029"><g class="vf-note" pointer-events="bounding-box"><g class="vf-notehead" pointer-events="bounding-box"><path stroke-width="0.3" fill="#000000" stroke="none" stroke-dasharray="none" d="M630.3620447999999 197.99999999999997M637.7190047999999 192.77711999999997C637.8313248 192.77711999999997,637.9998047999999 192.77711999999997,638.0278847999999 192.77711999999997C638.0278847999999 192.77711999999997,638.0559648 192.77711999999997,638.0559648 192.77711999999997C638.0559648 192.77711999999997,638.2244447999999 192.77711999999997,638.3648447999999 192.77711999999997C640.8920447999999 192.91751999999997,642.3802847999999 194.57423999999997,642.3802847999999 196.65215999999998C642.3802847999999 197.66303999999997,642.0433247999999 198.81431999999998,641.2009247999999 199.90943999999996C639.6003648 202.07159999999996,636.9889248 203.25095999999996,634.7144447999999 203.25095999999996C632.9454047999999 203.25095999999996,631.4290847999999 202.54895999999997,630.6990047999999 201.11687999999998C630.4743647999999 200.55527999999998,630.3620447999999 200.02175999999997,630.3620447999999 199.43207999999998C630.3620447999999 196.37135999999998,633.7878047999999 192.97367999999997,637.7190047999999 192.77711999999997"></path>
</g></g><g class="vf-modifiers"></g></g><path stroke-width="1.5" fill="none" stroke="#000000" stroke-dasharray="none" d="M419.3802847999999 197.99999999999997L419.3802847999999 163.74999999999997"></path>
<path stroke-width="1.5" fill="none" stroke="#000000" stroke-dasharray="none" d="M451.1302847999999 197.99999999999997L451.1302847999999 163.74999999999997"></path>
<path stroke-width="1.5" fill="none" stroke="#000000" stroke-dasharray="none" d="M482.8802847999999 197.99999999999997L482.8802847999999 163.74999999999997"></path>
<path stroke-width="1.5" fill="none" stroke="#000000" stroke-dasharray="none" d="M514.6302847999999 197.99999999999997L514.6302847999999 163.74999999999997"></path>
<path stroke-width="0.3" fill="#000000" stroke="none" stroke-dasharray="none" d="M418.6302847999999 162.99999999999997L418.6302847999999 167.99999999999997L514.8802847999999 167.99999999999997L514.8802847999999 162.99999999999997Z"></path>
<path stroke-width="1.5" fill="none" stroke="#000000" stroke-dasharray="none" d="M546.3802847999999 197.99999999999997L546.3802847999999 163.74999999999997"></path>
<path stroke-width="1.5" fill="none" stroke="#000000" stroke-dasharray="none" d="M578.1302847999999 197.99999999999997L578.1302847999999 163.74999999999997"></path>
<path stroke-width="1.5" fill="none" stroke="#000000" stroke-dasharray="none" d="M609.8802847999999 197.99999999999997L609.8802847999999 163.74999999999997"></path>
<path stroke-width="1.5" fill="none" stroke="#000000" stroke-dasharray="none" d="M641.6302847999999 197.99999999999997L641.6302847999999 163.74999999999997"></path>
<path stroke-width="0.3" fill="#000000" stroke="none" stroke-dasharray="none" d="M545.6302847999999 162.99999999999997L545.6302847999999 167.99999999999997L641.8802847999999 167.99999999999997L641.8802847999999 162.99999999999997Z"></path>
</svg>