<svg width="750" height="100" viewBox="50 135 800 100">
<path stroke-width="1" fill="none" stroke="black" stroke-dasharray="none" d="M50 197.99999999999997L452.66854758399984 197.99999999999997">
</path>
<rect stroke-width="0.3" fill="black" stroke="black" stroke-dasharray="none" x="452.66854758399984" y="177.49999999999997" width="1" height="41">
</rect>
<path stroke-width="0.3" fill="black" stroke="none" stroke-dasharray="none" d="M55 197.99999999999997M55 197.99999999999997L55 188.00639999999999L57.1888 188.00639999999999L59.4064 188.00639999999999L59.4064 197.99999999999997L59.4064 208.02239999999998L57.1888 208.02239999999998L55 208.02239999999998L55 197.99999999999997M63.870400000000004 198.02879999999996L63.870400000000004 188.00639999999999L66.1168 188.00639999999999L68.3632 188.00639999999999L68.3632 198.02879999999996L68.3632 208.02239999999998L66.1168 208.02239999999998L63.870400000000004 208.02239999999998L63.870400000000004 198.02879999999996">
</path>
<path stroke-width="0.3" fill="black" stroke="none" stroke-dasharray="none" d="M96.1296 197.99999999999997M101.80319999999999 179.33759999999998C101.91839999999999 179.33759999999998,102.11999999999999 179.33759999999998,102.3504 179.33759999999998C102.8112 179.33759999999998,103.416 179.33759999999998,103.56 179.39519999999996C105.72 179.65439999999998,107.448 180.74879999999996,108.1968 182.27519999999998C108.45599999999999 182.79359999999997,108.57119999999999 183.34079999999997,108.57119999999999 183.91679999999997C108.57119999999999 185.32799999999997,107.7936 186.94079999999997,106.38239999999999 188.15039999999996C105.4032 188.98559999999998,104.42399999999999 189.50399999999996,102.8976 189.99359999999996C100.9104 190.62719999999996,99.21119999999999 191.75039999999998,98.1168 193.10399999999998C98.1168 193.10399999999998,98.1168 193.13279999999997,98.1168 193.13279999999997C98.1168 193.13279999999997,98.1168 193.13279999999997,98.1168 193.13279999999997C98.1168 193.13279999999997,98.2032 193.10399999999998,98.26079999999999 193.01759999999996C99.3552 192.12479999999996,100.824 191.60639999999998,102.1488 191.60639999999998C103.2432 191.60639999999998,104.0208 191.80799999999996,105.0576 192.38399999999996C105.6912 192.70079999999996,106.2672 192.84479999999996,106.81439999999999 192.84479999999996C107.0448 192.84479999999996,107.2752 192.84479999999996,107.53439999999999 192.78719999999998C107.9088 192.70079999999996,108.312 192.41279999999998,108.45599999999999 192.18239999999997C108.5424 191.98079999999996,108.68639999999999 191.89439999999996,108.8592 191.89439999999996C109.08959999999999 191.89439999999996,109.32 192.06719999999999,109.32 192.32639999999998C109.32 192.52799999999996,109.0608 193.24799999999996,108.8304 193.7376C107.9088 195.58079999999998,106.29599999999999 196.73279999999997,104.7408 196.73279999999997C104.62559999999999 196.73279999999997,104.5392 196.73279999999997,104.42399999999999 196.70399999999998C104.0208 196.70399999999998,103.848 196.58879999999996,103.3296 196.24319999999997C102.23519999999999 195.52319999999997,100.8528 195.14879999999997,99.6432 195.14879999999997C99.1248 195.14879999999997,98.664 195.20639999999997,98.232 195.37919999999997C97.65599999999999 195.58079999999998,97.1088 195.92639999999997,96.93599999999999 196.18559999999997C96.8496 196.38719999999998,96.70559999999999 196.44479999999996,96.5328 196.44479999999996C96.3888 196.44479999999996,96.2448 196.38719999999998,96.1584 196.21439999999998L96.10079999999999 196.128L96.10079999999999 195.72479999999996C96.10079999999999 195.37919999999997,96.1296 195.26399999999998,96.1296 195.14879999999997C96.1584 195.06239999999997,96.18719999999999 194.88959999999997,96.18719999999999 194.74559999999997C96.70559999999999 192.32639999999998,98.4624 190.16639999999998,100.8528 189.10079999999996C102.8112 188.17919999999998,104.10719999999999 186.53759999999997,104.3376 184.46399999999997C104.39519999999999 184.29119999999998,104.39519999999999 184.14719999999997,104.39519999999999 183.97439999999997C104.39519999999999 182.13119999999998,103.0128 180.86399999999998,101.0544 180.86399999999998C100.9104 180.86399999999998,100.7376 180.86399999999998,100.5936 180.86399999999998C100.3056 180.89279999999997,100.2192 180.89279999999997,100.2192 180.95039999999997C100.2192 180.95039999999997,100.2192 180.97919999999996,100.3056 181.03679999999997C100.96799999999999 181.41119999999998,101.28479999999999 182.13119999999998,101.28479999999999 182.82239999999996C101.28479999999999 183.71519999999998,100.824 184.55039999999997,99.93119999999999 184.89599999999996C99.6432 184.98239999999998,99.3552 185.01119999999997,99.1248 185.01119999999997C97.9152 185.01119999999997,96.9072 183.97439999999997,96.9072 182.73599999999996C96.9072 182.50559999999996,96.9072 182.27519999999998,96.9648 182.01599999999996C97.3968 180.69119999999998,99.4416 179.59679999999997,101.80319999999999 179.33759999999998M102.696 198.02879999999996L102.75359999999999 198.02879999999996L102.6672 198.02879999999996L102.696 198.02879999999996M102.696 178.61759999999998L102.75359999999999 178.61759999999998L102.6672 178.61759999999998L102.696 178.61759999999998">
</path>
<path stroke-width="0.3" fill="black" stroke="none" stroke-dasharray="none" d="M96 217.99999999999997M101.0112 199.65439999999998C101.04 199.62559999999996,101.4432 199.62559999999996,102.6816 199.62559999999996C103.056 199.62559999999996,103.4592 199.62559999999996,103.9776 199.62559999999996L106.8864 199.62559999999996L106.9728 199.71199999999996C107.1168 199.79839999999996,107.2032 199.94239999999996,107.2032 200.05759999999998C107.2032 200.23039999999997,107.1168 200.34559999999996,107.0016 200.46079999999998C106.9728 200.54719999999998,106.7136 200.77759999999998,106.5408 201.03679999999997L105.0144 202.79359999999997L103.056 205.01119999999997L102.0192 206.19199999999998L100.464 207.97759999999997L98.4192 210.31039999999996C98.0736 210.74239999999998,97.6992 211.08799999999997,97.6992 211.08799999999997C97.6992 211.08799999999997,97.6992 211.08799999999997,97.6992 211.08799999999997C97.6992 211.14559999999997,97.9584 211.14559999999997,100.3488 211.14559999999997L102.9696 211.14559999999997L102.9696 209.27359999999996C102.9696 207.37279999999998,102.9696 207.34399999999997,102.9984 207.31519999999998C103.056 207.22879999999998,103.3152 206.91199999999998,104.3232 205.73119999999997L104.7264 205.29919999999998L105.1296 204.86719999999997L105.7344 204.08959999999996L106.368 203.42719999999997L106.6848 203.02399999999997C106.8 202.85119999999998,106.9728 202.82239999999996,107.1168 202.82239999999996C107.28960000000001 202.82239999999996,107.4336 202.90879999999999,107.52 203.05279999999996C107.5488 203.13919999999996,107.5488 203.19679999999997,107.5488 205.32799999999997C107.5488 205.81759999999997,107.5488 206.42239999999998,107.5488 207.14239999999998L107.5488 211.14559999999997L108.2688 211.14559999999997C108.9312 211.14559999999997,108.96 211.14559999999997,109.0464 211.17439999999996C109.2768 211.26079999999996,109.392 211.49119999999996,109.392 211.75039999999998C109.392 211.89439999999996,109.3632 212.06719999999999,109.248 212.18239999999997C109.0752 212.32639999999998,109.0464 212.32639999999998,108.2688 212.32639999999998L107.5488 212.32639999999998L107.5488 212.81599999999997C107.5776 214.28479999999996,107.8656 214.86079999999998,108.9888 215.46559999999997C109.392 215.66719999999998,109.4784 215.72479999999996,109.4784 216.01279999999997C109.4784 216.21439999999998,109.4208 216.30079999999998,109.2768 216.41599999999997L109.1904 216.44479999999996L105.2448 216.44479999999996L101.328 216.44479999999996L101.2416 216.41599999999997C101.0688 216.30079999999998,101.04 216.21439999999998,101.04 216.01279999999997C101.04 215.72479999999996,101.0688 215.66719999999998,101.5008 215.46559999999997C102.624 214.86079999999998,102.912 214.28479999999996,102.912 212.81599999999997L102.912 212.32639999999998L99.6 212.32639999999998C98.9952 212.38399999999996,98.5056 212.38399999999996,98.1024 212.38399999999996C96.288 212.38399999999996,96.2592 212.32639999999998,96.2304 212.32639999999998C96.0576 212.26879999999997,96 212.09599999999998,96 211.89439999999996C96 211.89439999999996,96 211.89439999999996,96 211.89439999999996C96 211.69279999999998,96 211.69279999999998,96.576 211.0304C98.9952 208.09279999999998,100.6944 203.83039999999997,100.6944 200.43199999999996C100.6944 199.91359999999997,100.7808 199.74079999999998,101.0112 199.65439999999998M102.7392 218.02879999999996L102.768 218.02879999999996L102.6816 218.02879999999996L102.7392 218.02879999999996M102.7392 198.61759999999998L102.768 198.61759999999998L102.6816 198.61759999999998L102.7392 198.61759999999998">
</path>
<g class="vf-stavenote" id="vf-auto17807">
<g class="vf-note" pointer-events="bounding-box">
<g class="vf-notehead" pointer-events="bounding-box">
<path stroke-width="0.3" fill="#000000" stroke="none" stroke-dasharray="none" d="M147.3424768 197.99999999999997M154.69943679999997 192.77711999999997C154.81175679999998 192.77711999999997,154.9802368 192.77711999999997,155.0083168 192.77711999999997C155.0083168 192.77711999999997,155.03639679999998 192.77711999999997,155.03639679999998 192.77711999999997C155.03639679999998 192.77711999999997,155.2048768 192.77711999999997,155.3452768 192.77711999999997C157.8724768 192.91751999999997,159.36071679999998 194.57423999999997,159.36071679999998 196.65215999999998C159.36071679999998 197.66303999999997,159.0237568 198.81431999999998,158.18135679999997 199.90943999999996C156.58079679999997 202.07159999999996,153.96935679999999 203.25095999999996,151.69487679999997 203.25095999999996C149.92583679999998 203.25095999999996,148.40951679999998 202.54895999999997,147.6794368 201.11687999999998C147.4547968 200.55527999999998,147.3424768 200.02175999999997,147.3424768 199.43207999999998C147.3424768 196.37135999999998,150.76823679999998 192.97367999999997,154.69943679999997 192.77711999999997">
</path>
</g>
</g>
<g class="vf-modifiers">
<g class="vf-stavenote" id="vf-auto17817">
<g class="vf-note" pointer-events="bounding-box">
<g class="vf-stem" pointer-events="bounding-box">
<path stroke-width="1.5" fill="none" stroke="#000000" stroke-dasharray="none" d="M128.6604384 197.99999999999997L128.6604384 174.89999999999998">
</path>
</g>
<g class="vf-notehead" pointer-events="bounding-box">
<path stroke-width="0.3" fill="#000000" stroke="none" stroke-dasharray="none" d="M121.4784 197.99999999999997M126.3339936 194.55289919999998C126.4081248 194.55289919999998,126.5193216 194.55289919999998,126.5378544 194.55289919999998C126.5378544 194.55289919999998,126.55638719999999 194.55289919999998,126.55638719999999 194.55289919999998C126.55638719999999 194.55289919999998,126.66758399999999 194.55289919999998,126.76024799999999 194.55289919999998C128.4282 194.64556319999997,129.4104384 195.73899839999996,129.4104384 197.11042559999999C129.4104384 197.77760639999997,129.1880448 198.53745119999996,128.6320608 199.26023039999998C127.5756912 200.68725599999996,125.8521408 201.46563359999996,124.350984 201.46563359999996C123.1834176 201.46563359999996,122.1826464 201.00231359999998,121.7007936 200.05714079999998C121.55253119999999 199.68648479999996,121.4784 199.33436159999997,121.4784 198.94517279999997C121.4784 196.92509759999996,123.7394016 194.68262879999997,126.3339936 194.55289919999998">
</path>
</g>
<g class="vf-flag" pointer-events="bounding-box">
<path stroke-width="0.3" fill="#000000" stroke="none" stroke-dasharray="none" d="M128.6604384 172.89999999999998M128.2156512 175.88378079999998L128.2156512 172.992664L128.2897824 172.992664C128.4936432 172.992664,128.6233728 173.12239359999998,128.6604384 173.34478719999998C129.0496272 175.19806719999997,130.2171936 177.21814239999998,131.8295472 178.73783199999997C133.6272288 180.42431679999999,134.535336 182.74091679999998,134.535336 185.13164799999998C134.535336 187.39264959999997,133.7384256 189.74631519999997,132.126072 191.69225919999997C131.84808 192.06291519999996,131.8295472 192.06291519999996,131.6442192 192.06291519999996C131.4218256 192.06291519999996,131.2735632 191.89611999999997,131.2735632 191.67372639999996C131.2735632 191.50693119999997,131.29209600000002 191.4698656,131.477424 191.2660048C132.88591680000002 189.56098719999997,133.5901632 187.5038464,133.5901632 185.5393696C133.5901632 183.7972864,133.0341792 182.12933439999998,131.88514560000002 180.86910399999996C131.1808992 180.09072639999997,129.8836032 179.34941439999997,128.234184 178.77489759999997C128.234184 178.75636479999997,128.2156512 178.18184799999997,128.2156512 175.88378079999998">
</path>
</g>
</g>
<g class="vf-modifiers">
</g>
</g>
<path stroke-width="1" fill="none" stroke="#000000" stroke-dasharray="none" d="M122.4784 189.74999999999997L135.4784 180.74999999999997Z">
</path>
</g>
</g>
<g class="vf-stavenote" id="vf-auto17831">
<g class="vf-note" pointer-events="bounding-box">
<g class="vf-notehead" pointer-events="bounding-box">
<path stroke-width="0.3" fill="#000000" stroke="none" stroke-dasharray="none" d="M182.44165759999998 197.99999999999997M189.79861759999997 192.77711999999997C189.91093759999998 192.77711999999997,190.0794176 192.77711999999997,190.1074976 192.77711999999997C190.1074976 192.77711999999997,190.13557759999998 192.77711999999997,190.13557759999998 192.77711999999997C190.13557759999998 192.77711999999997,190.3040576 192.77711999999997,190.4444576 192.77711999999997C192.9716576 192.91751999999997,194.45989759999998 194.57423999999997,194.45989759999998 196.65215999999998C194.45989759999998 197.66303999999997,194.1229376 198.81431999999998,193.28053759999997 199.90943999999996C191.67997759999997 202.07159999999996,189.06853759999998 203.25095999999996,186.79405759999997 203.25095999999996C185.02501759999998 203.25095999999996,183.50869759999998 202.54895999999997,182.7786176 201.11687999999998C182.5539776 200.55527999999998,182.44165759999998 200.02175999999997,182.44165759999998 199.43207999999998C182.44165759999998 196.37135999999998,185.86741759999998 192.97367999999997,189.79861759999997 192.77711999999997">
</path>
</g>
</g>
<g class="vf-modifiers">
</g>
</g>
<g class="vf-stavenote" id="vf-auto17841">
<g class="vf-note" pointer-events="bounding-box">
<g class="vf-notehead" pointer-events="bounding-box">
<path stroke-width="0.3" fill="#000000" stroke="none" stroke-dasharray="none" d="M217.54083839999998 197.99999999999997M224.89779839999997 192.77711999999997C225.01011839999998 192.77711999999997,225.1785984 192.77711999999997,225.2066784 192.77711999999997C225.2066784 192.77711999999997,225.23475839999998 192.77711999999997,225.23475839999998 192.77711999999997C225.23475839999998 192.77711999999997,225.4032384 192.77711999999997,225.5436384 192.77711999999997C228.07083839999999 192.91751999999997,229.55907839999998 194.57423999999997,229.55907839999998 196.65215999999998C229.55907839999998 197.66303999999997,229.2221184 198.81431999999998,228.37971839999997 199.90943999999996C226.77915839999997 202.07159999999996,224.16771839999998 203.25095999999996,221.89323839999997 203.25095999999996C220.12419839999998 203.25095999999996,218.60787839999998 202.54895999999997,217.8777984 201.11687999999998C217.6531584 200.55527999999998,217.54083839999998 200.02175999999997,217.54083839999998 199.43207999999998C217.54083839999998 196.37135999999998,220.96659839999998 192.97367999999997,224.89779839999997 192.77711999999997">
</path>
</g>
</g>
<g class="vf-modifiers">
</g>
</g>
<g class="vf-stavenote" id="vf-auto17851">
<g class="vf-note" pointer-events="bounding-box">
<g class="vf-notehead" pointer-events="bounding-box">
<path stroke-width="0.3" fill="#000000" stroke="none" stroke-dasharray="none" d="M252.6400192 197.99999999999997M259.9969792 192.77711999999997C260.1092992 192.77711999999997,260.2777792 192.77711999999997,260.3058592 192.77711999999997C260.3058592 192.77711999999997,260.33393920000003 192.77711999999997,260.33393920000003 192.77711999999997C260.33393920000003 192.77711999999997,260.5024192 192.77711999999997,260.6428192 192.77711999999997C263.1700192 192.91751999999997,264.65825920000003 194.57423999999997,264.65825920000003 196.65215999999998C264.65825920000003 197.66303999999997,264.3212992 198.81431999999998,263.4788992 199.90943999999996C261.8783392 202.07159999999996,259.2668992 203.25095999999996,256.99241920000003 203.25095999999996C255.2233792 203.25095999999996,253.7070592 202.54895999999997,252.97697920000002 201.11687999999998C252.75233920000002 200.55527999999998,252.6400192 200.02175999999997,252.6400192 199.43207999999998C252.6400192 196.37135999999998,256.0657792 192.97367999999997,259.9969792 192.77711999999997">
</path>
</g>
</g>
<g class="vf-modifiers">
</g>
</g>
<g class="vf-stavenote" id="vf-auto17861">
<g class="vf-note" pointer-events="bounding-box">
<g class="vf-notehead" pointer-events="bounding-box">
<path stroke-width="0.3" fill="#000000" stroke="none" stroke-dasharray="none" d="M313.6032768 197.99999999999997M320.9602368 192.77711999999997C321.07255680000003 192.77711999999997,321.2410368 192.77711999999997,321.2691168 192.77711999999997C321.2691168 192.77711999999997,321.2971968 192.77711999999997,321.2971968 192.77711999999997C321.2971968 192.77711999999997,321.4656768 192.77711999999997,321.6060768 192.77711999999997C324.1332768 192.91751999999997,325.6215168 194.57423999999997,325.6215168 196.65215999999998C325.6215168 197.66303999999997,325.2845568 198.81431999999998,324.4421568 199.90943999999996C322.8415968 202.07159999999996,320.23015680000003 203.25095999999996,317.9556768 203.25095999999996C316.18663680000003 203.25095999999996,314.6703168 202.54895999999997,313.9402368 201.11687999999998C313.7155968 200.55527999999998,313.6032768 200.02175999999997,313.6032768 199.43207999999998C313.6032768 196.37135999999998,317.02903680000003 192.97367999999997,320.9602368 192.77711999999997">
</path>
</g>
</g>
<g class="vf-modifiers">
<g class="vf-stavenote" id="vf-auto17871">
<g class="vf-note" pointer-events="bounding-box">
<g class="vf-stem" pointer-events="bounding-box">
<path stroke-width="1.5" fill="none" stroke="#000000" stroke-dasharray="none" d="M294.9212384 197.99999999999997L294.9212384 174.89999999999998">
</path>
</g>
<g class="vf-notehead" pointer-events="bounding-box">
<path stroke-width="0.3" fill="#000000" stroke="none" stroke-dasharray="none" d="M287.7392 197.99999999999997M292.5947936 194.55289919999998C292.66892479999996 194.55289919999998,292.7801216 194.55289919999998,292.7986544 194.55289919999998C292.7986544 194.55289919999998,292.8171872 194.55289919999998,292.8171872 194.55289919999998C292.8171872 194.55289919999998,292.928384 194.55289919999998,293.021048 194.55289919999998C294.68899999999996 194.64556319999997,295.6712384 195.73899839999996,295.6712384 197.11042559999999C295.6712384 197.77760639999997,295.44884479999996 198.53745119999996,294.8928608 199.26023039999998C293.83649119999995 200.68725599999996,292.1129408 201.46563359999996,290.611784 201.46563359999996C289.4442176 201.46563359999996,288.44344639999997 201.00231359999998,287.96159359999996 200.05714079999998C287.8133312 199.68648479999996,287.7392 199.33436159999997,287.7392 198.94517279999997C287.7392 196.92509759999996,290.00020159999997 194.68262879999997,292.5947936 194.55289919999998">
</path>
</g>
<g class="vf-flag" pointer-events="bounding-box">
<path stroke-width="0.3" fill="#000000" stroke="none" stroke-dasharray="none" d="M294.9212384 172.89999999999998M294.4764512 175.88378079999998L294.4764512 172.992664L294.5505824 172.992664C294.75444319999997 172.992664,294.8841728 173.12239359999998,294.9212384 173.34478719999998C295.3104272 175.19806719999997,296.4779936 177.21814239999998,298.0903472 178.73783199999997C299.8880288 180.42431679999999,300.796136 182.74091679999998,300.796136 185.13164799999998C300.796136 187.39264959999997,299.9992256 189.74631519999997,298.386872 191.69225919999997C298.10888 192.06291519999996,298.0903472 192.06291519999996,297.90501919999997 192.06291519999996C297.6826256 192.06291519999996,297.5343632 191.89611999999997,297.5343632 191.67372639999996C297.5343632 191.50693119999997,297.552896 191.4698656,297.738224 191.2660048C299.1467168 189.56098719999997,299.85096319999997 187.5038464,299.85096319999997 185.5393696C299.85096319999997 183.7972864,299.2949792 182.12933439999998,298.1459456 180.86910399999996C297.4416992 180.09072639999997,296.1444032 179.34941439999997,294.494984 178.77489759999997C294.494984 178.75636479999997,294.4764512 178.18184799999997,294.4764512 175.88378079999998">
</path>
</g>
</g>
<g class="vf-modifiers">
</g>
</g>
<path stroke-width="1" fill="none" stroke="#000000" stroke-dasharray="none" d="M288.7392 189.74999999999997L301.7392 180.74999999999997Z">
</path>
</g>
</g>
<g class="vf-stavenote" id="vf-auto17885">
<g class="vf-note" pointer-events="bounding-box">
<g class="vf-notehead" pointer-events="bounding-box">
<path stroke-width="0.3" fill="#000000" stroke="none" stroke-dasharray="none" d="M348.7024576 197.99999999999997M356.0594176 192.77711999999997C356.17173760000003 192.77711999999997,356.3402176 192.77711999999997,356.3682976 192.77711999999997C356.3682976 192.77711999999997,356.3963776 192.77711999999997,356.3963776 192.77711999999997C356.3963776 192.77711999999997,356.5648576 192.77711999999997,356.7052576 192.77711999999997C359.2324576 192.91751999999997,360.7206976 194.57423999999997,360.7206976 196.65215999999998C360.7206976 197.66303999999997,360.3837376 198.81431999999998,359.5413376 199.90943999999996C357.9407776 202.07159999999996,355.32933760000003 203.25095999999996,353.0548576 203.25095999999996C351.28581760000003 203.25095999999996,349.7694976 202.54895999999997,349.0394176 201.11687999999998C348.8147776 200.55527999999998,348.7024576 200.02175999999997,348.7024576 199.43207999999998C348.7024576 196.37135999999998,352.1282176 192.97367999999997,356.0594176 192.77711999999997">
</path>
</g>
</g>
<g class="vf-modifiers">
</g>
</g>
<g class="vf-stavenote" id="vf-auto17895">
<g class="vf-note" pointer-events="bounding-box">
<g class="vf-notehead" pointer-events="bounding-box">
<path stroke-width="0.3" fill="#000000" stroke="none" stroke-dasharray="none" d="M383.8016384 197.99999999999997M391.1585984 192.77711999999997C391.2709184 192.77711999999997,391.4393984 192.77711999999997,391.4674784 192.77711999999997C391.4674784 192.77711999999997,391.4955584 192.77711999999997,391.4955584 192.77711999999997C391.4955584 192.77711999999997,391.6640384 192.77711999999997,391.8044384 192.77711999999997C394.3316384 192.91751999999997,395.8198784 194.57423999999997,395.8198784 196.65215999999998C395.8198784 197.66303999999997,395.4829184 198.81431999999998,394.6405184 199.90943999999996C393.0399584 202.07159999999996,390.42851840000003 203.25095999999996,388.1540384 203.25095999999996C386.38499840000003 203.25095999999996,384.8686784 202.54895999999997,384.1385984 201.11687999999998C383.9139584 200.55527999999998,383.8016384 200.02175999999997,383.8016384 199.43207999999998C383.8016384 196.37135999999998,387.2273984 192.97367999999997,391.1585984 192.77711999999997">
</path>
</g>
</g>
<g class="vf-modifiers">
</g>
</g>
<g class="vf-stavenote" id="vf-auto17905">
<g class="vf-note" pointer-events="bounding-box">
<g class="vf-notehead" pointer-events="bounding-box">
<path stroke-width="0.3" fill="#000000" stroke="none" stroke-dasharray="none" d="M418.9008192 197.99999999999997M426.2577792 192.77711999999997C426.3700992 192.77711999999997,426.5385792 192.77711999999997,426.5666592 192.77711999999997C426.5666592 192.77711999999997,426.5947392 192.77711999999997,426.5947392 192.77711999999997C426.5947392 192.77711999999997,426.7632192 192.77711999999997,426.9036192 192.77711999999997C429.4308192 192.91751999999997,430.9190592 194.57423999999997,430.9190592 196.65215999999998C430.9190592 197.66303999999997,430.5820992 198.81431999999998,429.7396992 199.90943999999996C428.1391392 202.07159999999996,425.52769920000003 203.25095999999996,423.2532192 203.25095999999996C421.4841792 203.25095999999996,419.9678592 202.54895999999997,419.2377792 201.11687999999998C419.0131392 200.55527999999998,418.9008192 200.02175999999997,418.9008192 199.43207999999998C418.9008192 196.37135999999998,422.3265792 192.97367999999997,426.2577792 192.77711999999997">
</path>
</g>
</g>
<g class="vf-modifiers">
</g>
</g>
<path stroke-width="1.5" fill="none" stroke="#000000" stroke-dasharray="none" d="M158.61071679999998 197.99999999999997L158.61071679999998 163.74999999999997">
</path>
<path stroke-width="1.5" fill="none" stroke="#000000" stroke-dasharray="none" d="M193.70989759999998 197.99999999999997L193.70989759999998 163.74999999999997">
</path>
<path stroke-width="1.5" fill="none" stroke="#000000" stroke-dasharray="none" d="M228.80907839999998 197.99999999999997L228.80907839999998 163.74999999999997">
</path>
<path stroke-width="1.5" fill="none" stroke="#000000" stroke-dasharray="none" d="M263.90825920000003 197.99999999999997L263.90825920000003 163.74999999999997">
</path>
<path stroke-width="0.3" fill="#000000" stroke="none" stroke-dasharray="none" d="M157.86071679999998 162.99999999999997L157.86071679999998 167.99999999999997L264.15825920000003 167.99999999999997L264.15825920000003 162.99999999999997Z">
</path>
<path stroke-width="0.3" fill="#000000" stroke="none" stroke-dasharray="none" d="M157.86071679999998 170.49999999999997L157.86071679999998 175.49999999999997L264.15825920000003 175.49999999999997L264.15825920000003 170.49999999999997Z">
</path>
<path stroke-width="1.5" fill="none" stroke="#000000" stroke-dasharray="none" d="M324.8715168 197.99999999999997L324.8715168 163.74999999999997">
</path>
<path stroke-width="1.5" fill="none" stroke="#000000" stroke-dasharray="none" d="M359.9706976 197.99999999999997L359.9706976 163.74999999999997">
</path>
<path stroke-width="1.5" fill="none" stroke="#000000" stroke-dasharray="none" d="M395.0698784 197.99999999999997L395.0698784 163.74999999999997">
</path>
<path stroke-width="1.5" fill="none" stroke="#000000" stroke-dasharray="none" d="M430.1690592 197.99999999999997L430.1690592 163.74999999999997">
</path>
<path stroke-width="0.3" fill="#000000" stroke="none" stroke-dasharray="none" d="M324.1215168 162.99999999999997L324.1215168 167.99999999999997L430.4190592 167.99999999999997L430.4190592 162.99999999999997Z">
</path>
<path stroke-width="0.3" fill="#000000" stroke="none" stroke-dasharray="none" d="M324.1215168 170.49999999999997L324.1215168 175.49999999999997L430.4190592 175.49999999999997L430.4190592 170.49999999999997Z">
</path>
<path stroke-width="1" fill="none" stroke="black" stroke-dasharray="none" d="M452.66854758399984 197.99999999999997L844.9151979519997 197.99999999999997">
</path>
<rect stroke-width="0.3" fill="black" stroke="black" stroke-dasharray="none" x="839.9151979519997" y="177.49999999999997" width="1" height="41">
</rect>
<rect stroke-width="0.3" fill="black" stroke="black" stroke-dasharray="none" x="842.9151979519997" y="177.49999999999997" width="3" height="41">
</rect>
<path stroke-width="0.3" fill="black" stroke="none" stroke-dasharray="none" d="M838.9151979519997 193.49999999999997 A2 2 0 0 0 834.9151979519997 193.49999999999997M834.9151979519997 193.49999999999997 A2 2 0 0 0 838.9151979519997 193.49999999999997">
</path>
<path stroke-width="0.3" fill="black" stroke="none" stroke-dasharray="none" d="M838.9151979519997 203.49999999999997 A2 2 0 0 0 834.9151979519997 203.49999999999997M834.9151979519997 203.49999999999997 A2 2 0 0 0 838.9151979519997 203.49999999999997">
</path>
<g class="vf-stavenote" id="vf-auto17918">
<g class="vf-note" pointer-events="bounding-box">
<g class="vf-notehead" pointer-events="bounding-box">
<path stroke-width="0.3" fill="#000000" stroke="none" stroke-dasharray="none" d="M495.53262438399986 197.99999999999997M502.8895843839999 192.77711999999997C503.0019043839999 192.77711999999997,503.1703843839999 192.77711999999997,503.19846438399986 192.77711999999997C503.19846438399986 192.77711999999997,503.22654438399985 192.77711999999997,503.22654438399985 192.77711999999997C503.22654438399985 192.77711999999997,503.39502438399984 192.77711999999997,503.53542438399984 192.77711999999997C506.06262438399983 192.91751999999997,507.55086438399985 194.57423999999997,507.55086438399985 196.65215999999998C507.55086438399985 197.66303999999997,507.2139043839999 198.81431999999998,506.3715043839999 199.90943999999996C504.77094438399985 202.07159999999996,502.1595043839999 203.25095999999996,499.88502438399985 203.25095999999996C498.1159843839999 203.25095999999996,496.5996643839999 202.54895999999997,495.86958438399984 201.11687999999998C495.64494438399987 200.55527999999998,495.53262438399986 200.02175999999997,495.53262438399986 199.43207999999998C495.53262438399986 196.37135999999998,498.9583843839999 192.97367999999997,502.8895843839999 192.77711999999997">
</path>
</g>
</g>
<g class="vf-modifiers">
<g class="vf-stavenote" id="vf-auto17928">
<g class="vf-note" pointer-events="bounding-box">
<g class="vf-stem" pointer-events="bounding-box">
<path stroke-width="1.5" fill="none" stroke="#000000" stroke-dasharray="none" d="M476.85058598399985 197.99999999999997L476.85058598399985 174.89999999999998">
</path>
</g>
<g class="vf-notehead" pointer-events="bounding-box">
<path stroke-width="0.3" fill="#000000" stroke="none" stroke-dasharray="none" d="M469.66854758399984 197.99999999999997M474.52414118399986 194.55289919999998C474.5982723839998 194.55289919999998,474.70946918399983 194.55289919999998,474.72800198399983 194.55289919999998C474.72800198399983 194.55289919999998,474.74653478399983 194.55289919999998,474.74653478399983 194.55289919999998C474.74653478399983 194.55289919999998,474.85773158399985 194.55289919999998,474.95039558399986 194.55289919999998C476.6183475839998 194.64556319999997,477.60058598399985 195.73899839999996,477.60058598399985 197.11042559999999C477.60058598399985 197.77760639999997,477.3781923839998 198.53745119999996,476.82220838399985 199.26023039999998C475.7658387839998 200.68725599999996,474.04228838399985 201.46563359999996,472.54113158399986 201.46563359999996C471.37356518399986 201.46563359999996,470.3727939839998 201.00231359999998,469.8909411839998 200.05714079999998C469.74267878399985 199.68648479999996,469.66854758399984 199.33436159999997,469.66854758399984 198.94517279999997C469.66854758399984 196.92509759999996,471.9295491839998 194.68262879999997,474.52414118399986 194.55289919999998">
</path>
</g>
<g class="vf-flag" pointer-events="bounding-box">
<path stroke-width="0.3" fill="#000000" stroke="none" stroke-dasharray="none" d="M476.85058598399985 172.89999999999998M476.40579878399984 175.88378079999998L476.40579878399984 172.992664L476.47992998399985 172.992664C476.6837907839998 172.992664,476.81352038399984 173.12239359999998,476.85058598399985 173.34478719999998C477.23977478399985 175.19806719999997,478.40734118399985 177.21814239999998,480.01969478399985 178.73783199999997C481.81737638399983 180.42431679999999,482.72548358399985 182.74091679999998,482.72548358399985 185.13164799999998C482.72548358399985 187.39264959999997,481.92857318399984 189.74631519999997,480.31621958399984 191.69225919999997C480.03822758399986 192.06291519999996,480.01969478399985 192.06291519999996,479.8343667839998 192.06291519999996C479.61197318399985 192.06291519999996,479.46371078399983 191.89611999999997,479.46371078399983 191.67372639999996C479.46371078399983 191.50693119999997,479.48224358399983 191.4698656,479.66757158399986 191.2660048C481.07606438399984 189.56098719999997,481.7803107839998 187.5038464,481.7803107839998 185.5393696C481.7803107839998 183.7972864,481.22432678399986 182.12933439999998,480.07529318399986 180.86910399999996C479.3710467839999 180.09072639999997,478.07375078399986 179.34941439999997,476.42433158399984 178.77489759999997C476.42433158399984 178.75636479999997,476.40579878399984 178.18184799999997,476.40579878399984 175.88378079999998">
</path>
</g>
</g>
<g class="vf-modifiers">
</g>
</g>
<path stroke-width="1" fill="none" stroke="#000000" stroke-dasharray="none" d="M470.66854758399984 189.74999999999997L483.66854758399984 180.74999999999997Z">
</path>
</g>
</g>
<g class="vf-stavenote" id="vf-auto17942">
<g class="vf-note" pointer-events="bounding-box">
<g class="vf-notehead" pointer-events="bounding-box">
<path stroke-width="0.3" fill="#000000" stroke="none" stroke-dasharray="none" d="M529.7255859839998 197.99999999999997M537.0825459839998 192.77711999999997C537.1948659839999 192.77711999999997,537.3633459839998 192.77711999999997,537.3914259839999 192.77711999999997C537.3914259839999 192.77711999999997,537.4195059839999 192.77711999999997,537.4195059839999 192.77711999999997C537.4195059839999 192.77711999999997,537.5879859839998 192.77711999999997,537.7283859839998 192.77711999999997C540.2555859839998 192.91751999999997,541.7438259839998 194.57423999999997,541.7438259839998 196.65215999999998C541.7438259839998 197.66303999999997,541.4068659839999 198.81431999999998,540.5644659839999 199.90943999999996C538.9639059839999 202.07159999999996,536.3524659839999 203.25095999999996,534.0779859839998 203.25095999999996C532.3089459839998 203.25095999999996,530.7926259839999 202.54895999999997,530.0625459839998 201.11687999999998C529.8379059839998 200.55527999999998,529.7255859839998 200.02175999999997,529.7255859839998 199.43207999999998C529.7255859839998 196.37135999999998,533.1513459839998 192.97367999999997,537.0825459839998 192.77711999999997">
</path>
</g>
</g>
<g class="vf-modifiers">
</g>
</g>
<g class="vf-stavenote" id="vf-auto17952">
<g class="vf-note" pointer-events="bounding-box">
<g class="vf-notehead" pointer-events="bounding-box">
<path stroke-width="0.3" fill="#000000" stroke="none" stroke-dasharray="none" d="M589.7826243839999 197.99999999999997M597.1395843839998 192.77711999999997C597.2519043839999 192.77711999999997,597.4203843839998 192.77711999999997,597.4484643839999 192.77711999999997C597.4484643839999 192.77711999999997,597.4765443839999 192.77711999999997,597.4765443839999 192.77711999999997C597.4765443839999 192.77711999999997,597.6450243839998 192.77711999999997,597.7854243839998 192.77711999999997C600.3126243839998 192.91751999999997,601.8008643839999 194.57423999999997,601.8008643839999 196.65215999999998C601.8008643839999 197.66303999999997,601.4639043839999 198.81431999999998,600.6215043839999 199.90943999999996C599.0209443839999 202.07159999999996,596.4095043839999 203.25095999999996,594.1350243839998 203.25095999999996C592.3659843839998 203.25095999999996,590.8496643839999 202.54895999999997,590.1195843839998 201.11687999999998C589.8949443839998 200.55527999999998,589.7826243839999 200.02175999999997,589.7826243839999 199.43207999999998C589.7826243839999 196.37135999999998,593.2083843839998 192.97367999999997,597.1395843839998 192.77711999999997">
</path>
</g>
</g>
<g class="vf-modifiers">
<g class="vf-stavenote" id="vf-auto17962">
<g class="vf-note" pointer-events="bounding-box">
<g class="vf-stem" pointer-events="bounding-box">
<path stroke-width="1.5" fill="none" stroke="#000000" stroke-dasharray="none" d="M571.1005859839998 197.99999999999997L571.1005859839998 174.89999999999998">
</path>
</g>
<g class="vf-notehead" pointer-events="bounding-box">
<path stroke-width="0.3" fill="#000000" stroke="none" stroke-dasharray="none" d="M563.9185475839998 197.99999999999997M568.7741411839999 194.55289919999998C568.8482723839999 194.55289919999998,568.9594691839999 194.55289919999998,568.9780019839999 194.55289919999998C568.9780019839999 194.55289919999998,568.9965347839999 194.55289919999998,568.9965347839999 194.55289919999998C568.9965347839999 194.55289919999998,569.1077315839998 194.55289919999998,569.2003955839998 194.55289919999998C570.8683475839998 194.64556319999997,571.8505859839998 195.73899839999996,571.8505859839998 197.11042559999999C571.8505859839998 197.77760639999997,571.6281923839998 198.53745119999996,571.0722083839999 199.26023039999998C570.0158387839998 200.68725599999996,568.2922883839998 201.46563359999996,566.7911315839998 201.46563359999996C565.6235651839999 201.46563359999996,564.6227939839998 201.00231359999998,564.1409411839999 200.05714079999998C563.9926787839998 199.68648479999996,563.9185475839998 199.33436159999997,563.9185475839998 198.94517279999997C563.9185475839998 196.92509759999996,566.1795491839998 194.68262879999997,568.7741411839999 194.55289919999998">
</path>
</g>
<g class="vf-flag" pointer-events="bounding-box">
<path stroke-width="0.3" fill="#000000" stroke="none" stroke-dasharray="none" d="M571.1005859839998 172.89999999999998M570.6557987839999 175.88378079999998L570.6557987839999 172.992664L570.7299299839998 172.992664C570.9337907839998 172.992664,571.0635203839998 173.12239359999998,571.1005859839998 173.34478719999998C571.4897747839999 175.19806719999997,572.6573411839998 177.21814239999998,574.2696947839999 178.73783199999997C576.0673763839999 180.42431679999999,576.9754835839999 182.74091679999998,576.9754835839999 185.13164799999998C576.9754835839999 187.39264959999997,576.1785731839999 189.74631519999997,574.5662195839999 191.69225919999997C574.2882275839999 192.06291519999996,574.2696947839999 192.06291519999996,574.0843667839998 192.06291519999996C573.8619731839998 192.06291519999996,573.7137107839999 191.89611999999997,573.7137107839999 191.67372639999996C573.7137107839999 191.50693119999997,573.7322435839999 191.4698656,573.9175715839998 191.2660048C575.3260643839999 189.56098719999997,576.0303107839999 187.5038464,576.0303107839999 185.5393696C576.0303107839999 183.7972864,575.4743267839998 182.12933439999998,574.3252931839999 180.86910399999996C573.6210467839999 180.09072639999997,572.3237507839998 179.34941439999997,570.6743315839999 178.77489759999997C570.6743315839999 178.75636479999997,570.6557987839999 178.18184799999997,570.6557987839999 175.88378079999998">
</path>
</g>
</g>
<g class="vf-modifiers">
</g>
</g>
<path stroke-width="1" fill="none" stroke="#000000" stroke-dasharray="none" d="M564.9185475839998 189.74999999999997L577.9185475839998 180.74999999999997Z">
</path>
</g>
</g>
<g class="vf-stavenote" id="vf-auto17976">
<g class="vf-note" pointer-events="bounding-box">
<g class="vf-notehead" pointer-events="bounding-box">
<path stroke-width="0.3" fill="#000000" stroke="none" stroke-dasharray="none" d="M623.9755859839998 197.99999999999997M631.3325459839998 192.77711999999997C631.4448659839999 192.77711999999997,631.6133459839998 192.77711999999997,631.6414259839999 192.77711999999997C631.6414259839999 192.77711999999997,631.6695059839999 192.77711999999997,631.6695059839999 192.77711999999997C631.6695059839999 192.77711999999997,631.8379859839998 192.77711999999997,631.9783859839998 192.77711999999997C634.5055859839998 192.91751999999997,635.9938259839998 194.57423999999997,635.9938259839998 196.65215999999998C635.9938259839998 197.66303999999997,635.6568659839999 198.81431999999998,634.8144659839999 199.90943999999996C633.2139059839999 202.07159999999996,630.6024659839999 203.25095999999996,628.3279859839998 203.25095999999996C626.5589459839998 203.25095999999996,625.0426259839999 202.54895999999997,624.3125459839998 201.11687999999998C624.0879059839998 200.55527999999998,623.9755859839998 200.02175999999997,623.9755859839998 199.43207999999998C623.9755859839998 196.37135999999998,627.4013459839998 192.97367999999997,631.3325459839998 192.77711999999997">
</path>
</g>
</g>
<g class="vf-modifiers">
</g>
</g>
<g class="vf-stavenote" id="vf-auto17986">
<g class="vf-note" pointer-events="bounding-box">
<g class="vf-notehead" pointer-events="bounding-box">
<path stroke-width="0.3" fill="#000000" stroke="none" stroke-dasharray="none" d="M684.0326243839999 197.99999999999997M691.3895843839998 192.77711999999997C691.5019043839999 192.77711999999997,691.6703843839998 192.77711999999997,691.6984643839999 192.77711999999997C691.6984643839999 192.77711999999997,691.7265443839999 192.77711999999997,691.7265443839999 192.77711999999997C691.7265443839999 192.77711999999997,691.8950243839998 192.77711999999997,692.0354243839998 192.77711999999997C694.5626243839998 192.91751999999997,696.0508643839999 194.57423999999997,696.0508643839999 196.65215999999998C696.0508643839999 197.66303999999997,695.7139043839999 198.81431999999998,694.8715043839999 199.90943999999996C693.2709443839999 202.07159999999996,690.6595043839999 203.25095999999996,688.3850243839998 203.25095999999996C686.6159843839998 203.25095999999996,685.0996643839999 202.54895999999997,684.3695843839998 201.11687999999998C684.1449443839998 200.55527999999998,684.0326243839999 200.02175999999997,684.0326243839999 199.43207999999998C684.0326243839999 196.37135999999998,687.4583843839998 192.97367999999997,691.3895843839998 192.77711999999997">
</path>
</g>
</g>
<g class="vf-modifiers">
<g class="vf-stavenote" id="vf-auto17996">
<g class="vf-note" pointer-events="bounding-box">
<g class="vf-stem" pointer-events="bounding-box">
<path stroke-width="1.5" fill="none" stroke="#000000" stroke-dasharray="none" d="M665.3505859839998 197.99999999999997L665.3505859839998 174.89999999999998">
</path>
</g>
<g class="vf-notehead" pointer-events="bounding-box">
<path stroke-width="0.3" fill="#000000" stroke="none" stroke-dasharray="none" d="M658.1685475839998 197.99999999999997M663.0241411839999 194.55289919999998C663.0982723839999 194.55289919999998,663.2094691839999 194.55289919999998,663.2280019839999 194.55289919999998C663.2280019839999 194.55289919999998,663.2465347839999 194.55289919999998,663.2465347839999 194.55289919999998C663.2465347839999 194.55289919999998,663.3577315839998 194.55289919999998,663.4503955839998 194.55289919999998C665.1183475839998 194.64556319999997,666.1005859839998 195.73899839999996,666.1005859839998 197.11042559999999C666.1005859839998 197.77760639999997,665.8781923839998 198.53745119999996,665.3222083839999 199.26023039999998C664.2658387839998 200.68725599999996,662.5422883839998 201.46563359999996,661.0411315839998 201.46563359999996C659.8735651839999 201.46563359999996,658.8727939839998 201.00231359999998,658.3909411839999 200.05714079999998C658.2426787839998 199.68648479999996,658.1685475839998 199.33436159999997,658.1685475839998 198.94517279999997C658.1685475839998 196.92509759999996,660.4295491839998 194.68262879999997,663.0241411839999 194.55289919999998">
</path>
</g>
<g class="vf-flag" pointer-events="bounding-box">
<path stroke-width="0.3" fill="#000000" stroke="none" stroke-dasharray="none" d="M665.3505859839998 172.89999999999998M664.9057987839999 175.88378079999998L664.9057987839999 172.992664L664.9799299839998 172.992664C665.1837907839998 172.992664,665.3135203839998 173.12239359999998,665.3505859839998 173.34478719999998C665.7397747839999 175.19806719999997,666.9073411839998 177.21814239999998,668.5196947839999 178.73783199999997C670.3173763839999 180.42431679999999,671.2254835839999 182.74091679999998,671.2254835839999 185.13164799999998C671.2254835839999 187.39264959999997,670.4285731839999 189.74631519999997,668.8162195839999 191.69225919999997C668.5382275839999 192.06291519999996,668.5196947839999 192.06291519999996,668.3343667839998 192.06291519999996C668.1119731839998 192.06291519999996,667.9637107839999 191.89611999999997,667.9637107839999 191.67372639999996C667.9637107839999 191.50693119999997,667.9822435839999 191.4698656,668.1675715839998 191.2660048C669.5760643839999 189.56098719999997,670.2803107839999 187.5038464,670.2803107839999 185.5393696C670.2803107839999 183.7972864,669.7243267839998 182.12933439999998,668.5752931839999 180.86910399999996C667.8710467839999 180.09072639999997,666.5737507839998 179.34941439999997,664.9243315839999 178.77489759999997C664.9243315839999 178.75636479999997,664.9057987839999 178.18184799999997,664.9057987839999 175.88378079999998">
</path>
</g>
</g>
<g class="vf-modifiers">
</g>
</g>
<path stroke-width="1" fill="none" stroke="#000000" stroke-dasharray="none" d="M659.1685475839998 189.74999999999997L672.1685475839998 180.74999999999997Z">
</path>
</g>
</g>
<g class="vf-stavenote" id="vf-auto18010">
<g class="vf-note" pointer-events="bounding-box">
<g class="vf-notehead" pointer-events="bounding-box">
<path stroke-width="0.3" fill="#000000" stroke="none" stroke-dasharray="none" d="M718.2255859839998 197.99999999999997M725.5825459839998 192.77711999999997C725.6948659839999 192.77711999999997,725.8633459839998 192.77711999999997,725.8914259839999 192.77711999999997C725.8914259839999 192.77711999999997,725.9195059839999 192.77711999999997,725.9195059839999 192.77711999999997C725.9195059839999 192.77711999999997,726.0879859839998 192.77711999999997,726.2283859839998 192.77711999999997C728.7555859839998 192.91751999999997,730.2438259839998 194.57423999999997,730.2438259839998 196.65215999999998C730.2438259839998 197.66303999999997,729.9068659839999 198.81431999999998,729.0644659839999 199.90943999999996C727.4639059839999 202.07159999999996,724.8524659839999 203.25095999999996,722.5779859839998 203.25095999999996C720.8089459839998 203.25095999999996,719.2926259839999 202.54895999999997,718.5625459839998 201.11687999999998C718.3379059839998 200.55527999999998,718.2255859839998 200.02175999999997,718.2255859839998 199.43207999999998C718.2255859839998 196.37135999999998,721.6513459839998 192.97367999999997,725.5825459839998 192.77711999999997">
</path>
</g>
</g>
<g class="vf-modifiers">
</g>
</g>
<g class="vf-stavenote" id="vf-auto18020">
<g class="vf-note" pointer-events="bounding-box">
<g class="vf-notehead" pointer-events="bounding-box">
<path stroke-width="0.3" fill="#000000" stroke="none" stroke-dasharray="none" d="M778.2826243839999 197.99999999999997M785.6395843839998 192.77711999999997C785.7519043839999 192.77711999999997,785.9203843839998 192.77711999999997,785.9484643839999 192.77711999999997C785.9484643839999 192.77711999999997,785.9765443839999 192.77711999999997,785.9765443839999 192.77711999999997C785.9765443839999 192.77711999999997,786.1450243839998 192.77711999999997,786.2854243839998 192.77711999999997C788.8126243839998 192.91751999999997,790.3008643839999 194.57423999999997,790.3008643839999 196.65215999999998C790.3008643839999 197.66303999999997,789.9639043839999 198.81431999999998,789.1215043839999 199.90943999999996C787.5209443839999 202.07159999999996,784.9095043839999 203.25095999999996,782.6350243839998 203.25095999999996C780.8659843839998 203.25095999999996,779.3496643839999 202.54895999999997,778.6195843839998 201.11687999999998C778.3949443839998 200.55527999999998,778.2826243839999 200.02175999999997,778.2826243839999 199.43207999999998C778.2826243839999 196.37135999999998,781.7083843839998 192.97367999999997,785.6395843839998 192.77711999999997">
</path>
</g>
</g>
<g class="vf-modifiers">
<g class="vf-stavenote" id="vf-auto18030">
<g class="vf-note" pointer-events="bounding-box">
<g class="vf-stem" pointer-events="bounding-box">
<path stroke-width="1.5" fill="none" stroke="#000000" stroke-dasharray="none" d="M759.6005859839998 197.99999999999997L759.6005859839998 174.89999999999998">
</path>
</g>
<g class="vf-notehead" pointer-events="bounding-box">
<path stroke-width="0.3" fill="#000000" stroke="none" stroke-dasharray="none" d="M752.4185475839998 197.99999999999997M757.2741411839999 194.55289919999998C757.3482723839999 194.55289919999998,757.4594691839999 194.55289919999998,757.4780019839999 194.55289919999998C757.4780019839999 194.55289919999998,757.4965347839999 194.55289919999998,757.4965347839999 194.55289919999998C757.4965347839999 194.55289919999998,757.6077315839998 194.55289919999998,757.7003955839998 194.55289919999998C759.3683475839998 194.64556319999997,760.3505859839998 195.73899839999996,760.3505859839998 197.11042559999999C760.3505859839998 197.77760639999997,760.1281923839998 198.53745119999996,759.5722083839999 199.26023039999998C758.5158387839998 200.68725599999996,756.7922883839998 201.46563359999996,755.2911315839998 201.46563359999996C754.1235651839999 201.46563359999996,753.1227939839998 201.00231359999998,752.6409411839999 200.05714079999998C752.4926787839998 199.68648479999996,752.4185475839998 199.33436159999997,752.4185475839998 198.94517279999997C752.4185475839998 196.92509759999996,754.6795491839998 194.68262879999997,757.2741411839999 194.55289919999998">
</path>
</g>
<g class="vf-flag" pointer-events="bounding-box">
<path stroke-width="0.3" fill="#000000" stroke="none" stroke-dasharray="none" d="M759.6005859839998 172.89999999999998M759.1557987839999 175.88378079999998L759.1557987839999 172.992664L759.2299299839998 172.992664C759.4337907839998 172.992664,759.5635203839998 173.12239359999998,759.6005859839998 173.34478719999998C759.9897747839999 175.19806719999997,761.1573411839998 177.21814239999998,762.7696947839999 178.73783199999997C764.5673763839999 180.42431679999999,765.4754835839999 182.74091679999998,765.4754835839999 185.13164799999998C765.4754835839999 187.39264959999997,764.6785731839999 189.74631519999997,763.0662195839999 191.69225919999997C762.7882275839999 192.06291519999996,762.7696947839999 192.06291519999996,762.5843667839998 192.06291519999996C762.3619731839998 192.06291519999996,762.2137107839999 191.89611999999997,762.2137107839999 191.67372639999996C762.2137107839999 191.50693119999997,762.2322435839999 191.4698656,762.4175715839998 191.2660048C763.8260643839999 189.56098719999997,764.5303107839999 187.5038464,764.5303107839999 185.5393696C764.5303107839999 183.7972864,763.9743267839998 182.12933439999998,762.8252931839999 180.86910399999996C762.1210467839999 180.09072639999997,760.8237507839998 179.34941439999997,759.1743315839999 178.77489759999997C759.1743315839999 178.75636479999997,759.1557987839999 178.18184799999997,759.1557987839999 175.88378079999998">
</path>
</g>
</g>
<g class="vf-modifiers">
</g>
</g>
<path stroke-width="1" fill="none" stroke="#000000" stroke-dasharray="none" d="M753.4185475839998 189.74999999999997L766.4185475839998 180.74999999999997Z">
</path>
</g>
</g>
<g class="vf-stavenote" id="vf-auto18044">
<g class="vf-note" pointer-events="bounding-box">
<g class="vf-notehead" pointer-events="bounding-box">
<path stroke-width="0.3" fill="#000000" stroke="none" stroke-dasharray="none" d="M812.4755859839998 197.99999999999997M819.8325459839998 192.77711999999997C819.9448659839999 192.77711999999997,820.1133459839998 192.77711999999997,820.1414259839999 192.77711999999997C820.1414259839999 192.77711999999997,820.1695059839999 192.77711999999997,820.1695059839999 192.77711999999997C820.1695059839999 192.77711999999997,820.3379859839998 192.77711999999997,820.4783859839998 192.77711999999997C823.0055859839998 192.91751999999997,824.4938259839998 194.57423999999997,824.4938259839998 196.65215999999998C824.4938259839998 197.66303999999997,824.1568659839999 198.81431999999998,823.3144659839999 199.90943999999996C821.7139059839999 202.07159999999996,819.1024659839999 203.25095999999996,816.8279859839998 203.25095999999996C815.0589459839998 203.25095999999996,813.5426259839999 202.54895999999997,812.8125459839998 201.11687999999998C812.5879059839998 200.55527999999998,812.4755859839998 200.02175999999997,812.4755859839998 199.43207999999998C812.4755859839998 196.37135999999998,815.9013459839998 192.97367999999997,819.8325459839998 192.77711999999997">
</path>
</g>
</g>
<g class="vf-modifiers">
</g>
</g>
<path stroke-width="1.5" fill="none" stroke="#000000" stroke-dasharray="none" d="M506.80086438399985 197.99999999999997L506.80086438399985 163.74999999999997">
</path>
<path stroke-width="1.5" fill="none" stroke="#000000" stroke-dasharray="none" d="M540.9938259839998 197.99999999999997L540.9938259839998 163.74999999999997">
</path>
<path stroke-width="1.5" fill="none" stroke="#000000" stroke-dasharray="none" d="M601.0508643839999 197.99999999999997L601.0508643839999 163.74999999999997">
</path>
<path stroke-width="1.5" fill="none" stroke="#000000" stroke-dasharray="none" d="M635.2438259839998 197.99999999999997L635.2438259839998 163.74999999999997">
</path>
<path stroke-width="0.3" fill="#000000" stroke="none" stroke-dasharray="none" d="M506.05086438399985 162.99999999999997L506.05086438399985 167.99999999999997L635.4938259839998 167.99999999999997L635.4938259839998 162.99999999999997Z">
</path>
<path stroke-width="0.3" fill="#000000" stroke="none" stroke-dasharray="none" d="M506.05086438399985 170.49999999999997L506.05086438399985 175.49999999999997L635.4938259839998 175.49999999999997L635.4938259839998 170.49999999999997Z">
</path>
<path stroke-width="1.5" fill="none" stroke="#000000" stroke-dasharray="none" d="M695.3008643839999 197.99999999999997L695.3008643839999 163.74999999999997">
</path>
<path stroke-width="1.5" fill="none" stroke="#000000" stroke-dasharray="none" d="M729.4938259839998 197.99999999999997L729.4938259839998 163.74999999999997">
</path>
<path stroke-width="1.5" fill="none" stroke="#000000" stroke-dasharray="none" d="M789.5508643839999 197.99999999999997L789.5508643839999 163.74999999999997">
</path>
<path stroke-width="1.5" fill="none" stroke="#000000" stroke-dasharray="none" d="M823.7438259839998 197.99999999999997L823.7438259839998 163.74999999999997">
</path>
<path stroke-width="0.3" fill="#000000" stroke="none" stroke-dasharray="none" d="M694.5508643839999 162.99999999999997L694.5508643839999 167.99999999999997L823.9938259839998 167.99999999999997L823.9938259839998 162.99999999999997Z">
</path>
<path stroke-width="0.3" fill="#000000" stroke="none" stroke-dasharray="none" d="M694.5508643839999 170.49999999999997L694.5508643839999 175.49999999999997L823.9938259839998 175.49999999999997L823.9938259839998 170.49999999999997Z">
</path>
</svg>