<svg width="740" height="100" viewBox="100 135 650 100">
<path stroke-width="1" fill="none" stroke="black" stroke-dasharray="none" d="M50 197.99999999999997L401.385136384 197.99999999999997">
</path>
<rect stroke-width="0.3" fill="black" stroke="black" stroke-dasharray="none" x="401.385136384" y="177.49999999999997" width="1" height="41">
</rect>
<path stroke-width="0.3" fill="black" stroke="none" stroke-dasharray="none" d="M55 197.99999999999997M55 197.99999999999997L55 188.00639999999999L57.1888 188.00639999999999L59.4064 188.00639999999999L59.4064 197.99999999999997L59.4064 208.02239999999998L57.1888 208.02239999999998L55 208.02239999999998L55 197.99999999999997M63.870400000000004 198.02879999999996L63.870400000000004 188.00639999999999L66.1168 188.00639999999999L68.3632 188.00639999999999L68.3632 198.02879999999996L68.3632 208.02239999999998L66.1168 208.02239999999998L63.870400000000004 208.02239999999998L63.870400000000004 198.02879999999996">
</path>
<path stroke-width="0.3" fill="black" stroke="none" stroke-dasharray="none" d="M96.1296 197.99999999999997M101.80319999999999 179.33759999999998C101.91839999999999 179.33759999999998,102.11999999999999 179.33759999999998,102.3504 179.33759999999998C102.8112 179.33759999999998,103.416 179.33759999999998,103.56 179.39519999999996C105.72 179.65439999999998,107.448 180.74879999999996,108.1968 182.27519999999998C108.45599999999999 182.79359999999997,108.57119999999999 183.34079999999997,108.57119999999999 183.91679999999997C108.57119999999999 185.32799999999997,107.7936 186.94079999999997,106.38239999999999 188.15039999999996C105.4032 188.98559999999998,104.42399999999999 189.50399999999996,102.8976 189.99359999999996C100.9104 190.62719999999996,99.21119999999999 191.75039999999998,98.1168 193.10399999999998C98.1168 193.10399999999998,98.1168 193.13279999999997,98.1168 193.13279999999997C98.1168 193.13279999999997,98.1168 193.13279999999997,98.1168 193.13279999999997C98.1168 193.13279999999997,98.2032 193.10399999999998,98.26079999999999 193.01759999999996C99.3552 192.12479999999996,100.824 191.60639999999998,102.1488 191.60639999999998C103.2432 191.60639999999998,104.0208 191.80799999999996,105.0576 192.38399999999996C105.6912 192.70079999999996,106.2672 192.84479999999996,106.81439999999999 192.84479999999996C107.0448 192.84479999999996,107.2752 192.84479999999996,107.53439999999999 192.78719999999998C107.9088 192.70079999999996,108.312 192.41279999999998,108.45599999999999 192.18239999999997C108.5424 191.98079999999996,108.68639999999999 191.89439999999996,108.8592 191.89439999999996C109.08959999999999 191.89439999999996,109.32 192.06719999999999,109.32 192.32639999999998C109.32 192.52799999999996,109.0608 193.24799999999996,108.8304 193.7376C107.9088 195.58079999999998,106.29599999999999 196.73279999999997,104.7408 196.73279999999997C104.62559999999999 196.73279999999997,104.5392 196.73279999999997,104.42399999999999 196.70399999999998C104.0208 196.70399999999998,103.848 196.58879999999996,103.3296 196.24319999999997C102.23519999999999 195.52319999999997,100.8528 195.14879999999997,99.6432 195.14879999999997C99.1248 195.14879999999997,98.664 195.20639999999997,98.232 195.37919999999997C97.65599999999999 195.58079999999998,97.1088 195.92639999999997,96.93599999999999 196.18559999999997C96.8496 196.38719999999998,96.70559999999999 196.44479999999996,96.5328 196.44479999999996C96.3888 196.44479999999996,96.2448 196.38719999999998,96.1584 196.21439999999998L96.10079999999999 196.128L96.10079999999999 195.72479999999996C96.10079999999999 195.37919999999997,96.1296 195.26399999999998,96.1296 195.14879999999997C96.1584 195.06239999999997,96.18719999999999 194.88959999999997,96.18719999999999 194.74559999999997C96.70559999999999 192.32639999999998,98.4624 190.16639999999998,100.8528 189.10079999999996C102.8112 188.17919999999998,104.10719999999999 186.53759999999997,104.3376 184.46399999999997C104.39519999999999 184.29119999999998,104.39519999999999 184.14719999999997,104.39519999999999 183.97439999999997C104.39519999999999 182.13119999999998,103.0128 180.86399999999998,101.0544 180.86399999999998C100.9104 180.86399999999998,100.7376 180.86399999999998,100.5936 180.86399999999998C100.3056 180.89279999999997,100.2192 180.89279999999997,100.2192 180.95039999999997C100.2192 180.95039999999997,100.2192 180.97919999999996,100.3056 181.03679999999997C100.96799999999999 181.41119999999998,101.28479999999999 182.13119999999998,101.28479999999999 182.82239999999996C101.28479999999999 183.71519999999998,100.824 184.55039999999997,99.93119999999999 184.89599999999996C99.6432 184.98239999999998,99.3552 185.01119999999997,99.1248 185.01119999999997C97.9152 185.01119999999997,96.9072 183.97439999999997,96.9072 182.73599999999996C96.9072 182.50559999999996,96.9072 182.27519999999998,96.9648 182.01599999999996C97.3968 180.69119999999998,99.4416 179.59679999999997,101.80319999999999 179.33759999999998M102.696 198.02879999999996L102.75359999999999 198.02879999999996L102.6672 198.02879999999996L102.696 198.02879999999996M102.696 178.61759999999998L102.75359999999999 178.61759999999998L102.6672 178.61759999999998L102.696 178.61759999999998">
</path>
<path stroke-width="0.3" fill="black" stroke="none" stroke-dasharray="none" d="M96 217.99999999999997M101.0112 199.65439999999998C101.04 199.62559999999996,101.4432 199.62559999999996,102.6816 199.62559999999996C103.056 199.62559999999996,103.4592 199.62559999999996,103.9776 199.62559999999996L106.8864 199.62559999999996L106.9728 199.71199999999996C107.1168 199.79839999999996,107.2032 199.94239999999996,107.2032 200.05759999999998C107.2032 200.23039999999997,107.1168 200.34559999999996,107.0016 200.46079999999998C106.9728 200.54719999999998,106.7136 200.77759999999998,106.5408 201.03679999999997L105.0144 202.79359999999997L103.056 205.01119999999997L102.0192 206.19199999999998L100.464 207.97759999999997L98.4192 210.31039999999996C98.0736 210.74239999999998,97.6992 211.08799999999997,97.6992 211.08799999999997C97.6992 211.08799999999997,97.6992 211.08799999999997,97.6992 211.08799999999997C97.6992 211.14559999999997,97.9584 211.14559999999997,100.3488 211.14559999999997L102.9696 211.14559999999997L102.9696 209.27359999999996C102.9696 207.37279999999998,102.9696 207.34399999999997,102.9984 207.31519999999998C103.056 207.22879999999998,103.3152 206.91199999999998,104.3232 205.73119999999997L104.7264 205.29919999999998L105.1296 204.86719999999997L105.7344 204.08959999999996L106.368 203.42719999999997L106.6848 203.02399999999997C106.8 202.85119999999998,106.9728 202.82239999999996,107.1168 202.82239999999996C107.28960000000001 202.82239999999996,107.4336 202.90879999999999,107.52 203.05279999999996C107.5488 203.13919999999996,107.5488 203.19679999999997,107.5488 205.32799999999997C107.5488 205.81759999999997,107.5488 206.42239999999998,107.5488 207.14239999999998L107.5488 211.14559999999997L108.2688 211.14559999999997C108.9312 211.14559999999997,108.96 211.14559999999997,109.0464 211.17439999999996C109.2768 211.26079999999996,109.392 211.49119999999996,109.392 211.75039999999998C109.392 211.89439999999996,109.3632 212.06719999999999,109.248 212.18239999999997C109.0752 212.32639999999998,109.0464 212.32639999999998,108.2688 212.32639999999998L107.5488 212.32639999999998L107.5488 212.81599999999997C107.5776 214.28479999999996,107.8656 214.86079999999998,108.9888 215.46559999999997C109.392 215.66719999999998,109.4784 215.72479999999996,109.4784 216.01279999999997C109.4784 216.21439999999998,109.4208 216.30079999999998,109.2768 216.41599999999997L109.1904 216.44479999999996L105.2448 216.44479999999996L101.328 216.44479999999996L101.2416 216.41599999999997C101.0688 216.30079999999998,101.04 216.21439999999998,101.04 216.01279999999997C101.04 215.72479999999996,101.0688 215.66719999999998,101.5008 215.46559999999997C102.624 214.86079999999998,102.912 214.28479999999996,102.912 212.81599999999997L102.912 212.32639999999998L99.6 212.32639999999998C98.9952 212.38399999999996,98.5056 212.38399999999996,98.1024 212.38399999999996C96.288 212.38399999999996,96.2592 212.32639999999998,96.2304 212.32639999999998C96.0576 212.26879999999997,96 212.09599999999998,96 211.89439999999996C96 211.89439999999996,96 211.89439999999996,96 211.89439999999996C96 211.69279999999998,96 211.69279999999998,96.576 211.0304C98.9952 208.09279999999998,100.6944 203.83039999999997,100.6944 200.43199999999996C100.6944 199.91359999999997,100.7808 199.74079999999998,101.0112 199.65439999999998M102.7392 218.02879999999996L102.768 218.02879999999996L102.6816 218.02879999999996L102.7392 218.02879999999996M102.7392 198.61759999999998L102.768 198.61759999999998L102.6816 198.61759999999998L102.7392 198.61759999999998">
</path>
<g class="vf-stavenote" id="vf-auto9498">
<g class="vf-note" pointer-events="bounding-box">
<g class="vf-notehead" pointer-events="bounding-box">
<path stroke-width="0.3" fill="#000000" stroke="none" stroke-dasharray="none" d="M147.3424768 197.99999999999997M154.69943679999997 192.77711999999997C154.81175679999998 192.77711999999997,154.9802368 192.77711999999997,155.0083168 192.77711999999997C155.0083168 192.77711999999997,155.03639679999998 192.77711999999997,155.03639679999998 192.77711999999997C155.03639679999998 192.77711999999997,155.2048768 192.77711999999997,155.3452768 192.77711999999997C157.8724768 192.91751999999997,159.36071679999998 194.57423999999997,159.36071679999998 196.65215999999998C159.36071679999998 197.66303999999997,159.0237568 198.81431999999998,158.18135679999997 199.90943999999996C156.58079679999997 202.07159999999996,153.96935679999999 203.25095999999996,151.69487679999997 203.25095999999996C149.92583679999998 203.25095999999996,148.40951679999998 202.54895999999997,147.6794368 201.11687999999998C147.4547968 200.55527999999998,147.3424768 200.02175999999997,147.3424768 199.43207999999998C147.3424768 196.37135999999998,150.76823679999998 192.97367999999997,154.69943679999997 192.77711999999997">
</path>
</g>
</g>
<g class="vf-modifiers">
<g class="vf-stavenote" id="vf-auto9508">
<g class="vf-note" pointer-events="bounding-box">
<g class="vf-stem" pointer-events="bounding-box">
<path stroke-width="1.5" fill="none" stroke="#000000" stroke-dasharray="none" d="M128.6604384 197.99999999999997L128.6604384 174.89999999999998">
</path>
</g>
<g class="vf-notehead" pointer-events="bounding-box">
<path stroke-width="0.3" fill="#000000" stroke="none" stroke-dasharray="none" d="M121.4784 197.99999999999997M126.3339936 194.55289919999998C126.4081248 194.55289919999998,126.5193216 194.55289919999998,126.5378544 194.55289919999998C126.5378544 194.55289919999998,126.55638719999999 194.55289919999998,126.55638719999999 194.55289919999998C126.55638719999999 194.55289919999998,126.66758399999999 194.55289919999998,126.76024799999999 194.55289919999998C128.4282 194.64556319999997,129.4104384 195.73899839999996,129.4104384 197.11042559999999C129.4104384 197.77760639999997,129.1880448 198.53745119999996,128.6320608 199.26023039999998C127.5756912 200.68725599999996,125.8521408 201.46563359999996,124.350984 201.46563359999996C123.1834176 201.46563359999996,122.1826464 201.00231359999998,121.7007936 200.05714079999998C121.55253119999999 199.68648479999996,121.4784 199.33436159999997,121.4784 198.94517279999997C121.4784 196.92509759999996,123.7394016 194.68262879999997,126.3339936 194.55289919999998">
</path>
</g>
<g class="vf-flag" pointer-events="bounding-box">
<path stroke-width="0.3" fill="#000000" stroke="none" stroke-dasharray="none" d="M128.6604384 172.89999999999998M128.2156512 175.88378079999998L128.2156512 172.992664L128.2897824 172.992664C128.4936432 172.992664,128.6233728 173.12239359999998,128.6604384 173.34478719999998C129.0496272 175.19806719999997,130.2171936 177.21814239999998,131.8295472 178.73783199999997C133.6272288 180.42431679999999,134.535336 182.74091679999998,134.535336 185.13164799999998C134.535336 187.39264959999997,133.7384256 189.74631519999997,132.126072 191.69225919999997C131.84808 192.06291519999996,131.8295472 192.06291519999996,131.6442192 192.06291519999996C131.4218256 192.06291519999996,131.2735632 191.89611999999997,131.2735632 191.67372639999996C131.2735632 191.50693119999997,131.29209600000002 191.4698656,131.477424 191.2660048C132.88591680000002 189.56098719999997,133.5901632 187.5038464,133.5901632 185.5393696C133.5901632 183.7972864,133.0341792 182.12933439999998,131.88514560000002 180.86910399999996C131.1808992 180.09072639999997,129.8836032 179.34941439999997,128.234184 178.77489759999997C128.234184 178.75636479999997,128.2156512 178.18184799999997,128.2156512 175.88378079999998">
</path>
</g>
</g>
<g class="vf-modifiers">
</g>
</g>
<path stroke-width="1" fill="none" stroke="#000000" stroke-dasharray="none" d="M122.4784 189.74999999999997L135.4784 180.74999999999997Z">
</path>
</g>
</g>
<g class="vf-stavenote" id="vf-auto9522">
<g class="vf-note" pointer-events="bounding-box">
<g class="vf-notehead" pointer-events="bounding-box">
<path stroke-width="0.3" fill="#000000" stroke="none" stroke-dasharray="none" d="M195.7817184 197.99999999999997M203.13867839999997 192.77711999999997C203.2509984 192.77711999999997,203.4194784 192.77711999999997,203.4475584 192.77711999999997C203.4475584 192.77711999999997,203.47563839999998 192.77711999999997,203.47563839999998 192.77711999999997C203.47563839999998 192.77711999999997,203.6441184 192.77711999999997,203.7845184 192.77711999999997C206.3117184 192.91751999999997,207.79995839999998 194.57423999999997,207.79995839999998 196.65215999999998C207.79995839999998 197.66303999999997,207.4629984 198.81431999999998,206.62059839999998 199.90943999999996C205.02003839999998 202.07159999999996,202.4085984 203.25095999999996,200.13411839999998 203.25095999999996C198.3650784 203.25095999999996,196.84875839999998 202.54895999999997,196.1186784 201.11687999999998C195.8940384 200.55527999999998,195.7817184 200.02175999999997,195.7817184 199.43207999999998C195.7817184 196.37135999999998,199.20747839999999 192.97367999999997,203.13867839999997 192.77711999999997">
</path>
</g>
</g>
<g class="vf-modifiers">
</g>
</g>
<g class="vf-stavenote" id="vf-auto9532">
<g class="vf-note" pointer-events="bounding-box">
<g class="vf-notehead" pointer-events="bounding-box">
<path stroke-width="0.3" fill="#000000" stroke="none" stroke-dasharray="none" d="M229.01045919999999 197.99999999999997M236.36741919999997 192.77711999999997C236.47973919999998 192.77711999999997,236.64821919999997 192.77711999999997,236.6762992 192.77711999999997C236.6762992 192.77711999999997,236.70437919999998 192.77711999999997,236.70437919999998 192.77711999999997C236.70437919999998 192.77711999999997,236.8728592 192.77711999999997,237.0132592 192.77711999999997C239.5404592 192.91751999999997,241.02869919999998 194.57423999999997,241.02869919999998 196.65215999999998C241.02869919999998 197.66303999999997,240.69173919999997 198.81431999999998,239.84933919999997 199.90943999999996C238.24877919999997 202.07159999999996,235.63733919999999 203.25095999999996,233.36285919999997 203.25095999999996C231.59381919999998 203.25095999999996,230.07749919999998 202.54895999999997,229.3474192 201.11687999999998C229.1227792 200.55527999999998,229.01045919999999 200.02175999999997,229.01045919999999 199.43207999999998C229.01045919999999 196.37135999999998,232.43621919999998 192.97367999999997,236.36741919999997 192.77711999999997">
</path>
</g>
</g>
<g class="vf-modifiers">
</g>
</g>
<g class="vf-stavenote" id="vf-auto9542">
<g class="vf-note" pointer-events="bounding-box">
<g class="vf-notehead" pointer-events="bounding-box">
<path stroke-width="0.3" fill="#000000" stroke="none" stroke-dasharray="none" d="M288.1032768 197.99999999999997M295.4602368 192.77711999999997C295.57255680000003 192.77711999999997,295.7410368 192.77711999999997,295.7691168 192.77711999999997C295.7691168 192.77711999999997,295.7971968 192.77711999999997,295.7971968 192.77711999999997C295.7971968 192.77711999999997,295.9656768 192.77711999999997,296.1060768 192.77711999999997C298.6332768 192.91751999999997,300.1215168 194.57423999999997,300.1215168 196.65215999999998C300.1215168 197.66303999999997,299.7845568 198.81431999999998,298.9421568 199.90943999999996C297.3415968 202.07159999999996,294.73015680000003 203.25095999999996,292.4556768 203.25095999999996C290.68663680000003 203.25095999999996,289.1703168 202.54895999999997,288.4402368 201.11687999999998C288.2155968 200.55527999999998,288.1032768 200.02175999999997,288.1032768 199.43207999999998C288.1032768 196.37135999999998,291.52903680000003 192.97367999999997,295.4602368 192.77711999999997">
</path>
</g>
</g>
<g class="vf-modifiers">
<g class="vf-stavenote" id="vf-auto9552">
<g class="vf-note" pointer-events="bounding-box">
<g class="vf-stem" pointer-events="bounding-box">
<path stroke-width="1.5" fill="none" stroke="#000000" stroke-dasharray="none" d="M269.4212384 197.99999999999997L269.4212384 174.89999999999998">
</path>
</g>
<g class="vf-notehead" pointer-events="bounding-box">
<path stroke-width="0.3" fill="#000000" stroke="none" stroke-dasharray="none" d="M262.2392 197.99999999999997M267.0947936 194.55289919999998C267.16892479999996 194.55289919999998,267.2801216 194.55289919999998,267.2986544 194.55289919999998C267.2986544 194.55289919999998,267.3171872 194.55289919999998,267.3171872 194.55289919999998C267.3171872 194.55289919999998,267.428384 194.55289919999998,267.521048 194.55289919999998C269.18899999999996 194.64556319999997,270.1712384 195.73899839999996,270.1712384 197.11042559999999C270.1712384 197.77760639999997,269.94884479999996 198.53745119999996,269.3928608 199.26023039999998C268.33649119999995 200.68725599999996,266.6129408 201.46563359999996,265.111784 201.46563359999996C263.9442176 201.46563359999996,262.94344639999997 201.00231359999998,262.46159359999996 200.05714079999998C262.3133312 199.68648479999996,262.2392 199.33436159999997,262.2392 198.94517279999997C262.2392 196.92509759999996,264.50020159999997 194.68262879999997,267.0947936 194.55289919999998">
</path>
</g>
<g class="vf-flag" pointer-events="bounding-box">
<path stroke-width="0.3" fill="#000000" stroke="none" stroke-dasharray="none" d="M269.4212384 172.89999999999998M268.9764512 175.88378079999998L268.9764512 172.992664L269.0505824 172.992664C269.25444319999997 172.992664,269.3841728 173.12239359999998,269.4212384 173.34478719999998C269.8104272 175.19806719999997,270.9779936 177.21814239999998,272.5903472 178.73783199999997C274.3880288 180.42431679999999,275.296136 182.74091679999998,275.296136 185.13164799999998C275.296136 187.39264959999997,274.4992256 189.74631519999997,272.886872 191.69225919999997C272.60888 192.06291519999996,272.5903472 192.06291519999996,272.40501919999997 192.06291519999996C272.1826256 192.06291519999996,272.0343632 191.89611999999997,272.0343632 191.67372639999996C272.0343632 191.50693119999997,272.052896 191.4698656,272.238224 191.2660048C273.6467168 189.56098719999997,274.35096319999997 187.5038464,274.35096319999997 185.5393696C274.35096319999997 183.7972864,273.7949792 182.12933439999998,272.6459456 180.86910399999996C271.9416992 180.09072639999997,270.6444032 179.34941439999997,268.994984 178.77489759999997C268.994984 178.75636479999997,268.9764512 178.18184799999997,268.9764512 175.88378079999998">
</path>
</g>
</g>
<g class="vf-modifiers">
</g>
</g>
<path stroke-width="1" fill="none" stroke="#000000" stroke-dasharray="none" d="M263.2392 189.74999999999997L276.2392 180.74999999999997Z">
</path>
</g>
</g>
<g class="vf-stavenote" id="vf-auto9566">
<g class="vf-note" pointer-events="bounding-box">
<g class="vf-notehead" pointer-events="bounding-box">
<path stroke-width="0.3" fill="#000000" stroke="none" stroke-dasharray="none" d="M336.54251839999995 197.99999999999997M343.89947839999996 192.77711999999997C344.0117984 192.77711999999997,344.18027839999996 192.77711999999997,344.20835839999995 192.77711999999997C344.20835839999995 192.77711999999997,344.23643839999994 192.77711999999997,344.23643839999994 192.77711999999997C344.23643839999994 192.77711999999997,344.40491839999993 192.77711999999997,344.5453183999999 192.77711999999997C347.0725183999999 192.91751999999997,348.56075839999994 194.57423999999997,348.56075839999994 196.65215999999998C348.56075839999994 197.66303999999997,348.22379839999996 198.81431999999998,347.38139839999997 199.90943999999996C345.78083839999994 202.07159999999996,343.1693984 203.25095999999996,340.89491839999994 203.25095999999996C339.1258784 203.25095999999996,337.60955839999997 202.54895999999997,336.8794783999999 201.11687999999998C336.65483839999996 200.55527999999998,336.54251839999995 200.02175999999997,336.54251839999995 199.43207999999998C336.54251839999995 196.37135999999998,339.9682784 192.97367999999997,343.89947839999996 192.77711999999997">
</path>
</g>
</g>
<g class="vf-modifiers">
</g>
</g>
<g class="vf-stavenote" id="vf-auto9576">
<g class="vf-note" pointer-events="bounding-box">
<g class="vf-notehead" pointer-events="bounding-box">
<path stroke-width="0.3" fill="#000000" stroke="none" stroke-dasharray="none" d="M369.7712592 197.99999999999997M377.1282192 192.77711999999997C377.2405392 192.77711999999997,377.4090192 192.77711999999997,377.4370992 192.77711999999997C377.4370992 192.77711999999997,377.46517919999997 192.77711999999997,377.46517919999997 192.77711999999997C377.46517919999997 192.77711999999997,377.63365919999995 192.77711999999997,377.77405919999995 192.77711999999997C380.3012592 192.91751999999997,381.78949919999997 194.57423999999997,381.78949919999997 196.65215999999998C381.78949919999997 197.66303999999997,381.4525392 198.81431999999998,380.6101392 199.90943999999996C379.00957919999996 202.07159999999996,376.39813919999995 203.25095999999996,374.12365919999996 203.25095999999996C372.3546192 203.25095999999996,370.8382992 202.54895999999997,370.10821919999995 201.11687999999998C369.8835792 200.55527999999998,369.7712592 200.02175999999997,369.7712592 199.43207999999998C369.7712592 196.37135999999998,373.1970192 192.97367999999997,377.1282192 192.77711999999997">
</path>
</g>
</g>
<g class="vf-modifiers">
</g>
</g>
<path stroke-width="1.5" fill="none" stroke="#000000" stroke-dasharray="none" d="M158.61071679999998 197.99999999999997L158.61071679999998 163.74999999999997">
</path>
<path stroke-width="1.5" fill="none" stroke="#000000" stroke-dasharray="none" d="M207.04995839999998 197.99999999999997L207.04995839999998 163.74999999999997">
</path>
<path stroke-width="1.5" fill="none" stroke="#000000" stroke-dasharray="none" d="M240.27869919999998 197.99999999999997L240.27869919999998 163.74999999999997">
</path>
<path stroke-width="0.3" fill="#000000" stroke="none" stroke-dasharray="none" d="M157.86071679999998 162.99999999999997L157.86071679999998 167.99999999999997L240.52869919999998 167.99999999999997L240.52869919999998 162.99999999999997Z">
</path>
<path stroke-width="0.3" fill="#000000" stroke="none" stroke-dasharray="none" d="M206.29995839999998 170.49999999999997L206.29995839999998 175.49999999999997L240.52869919999998 175.49999999999997L240.52869919999998 170.49999999999997Z">
</path>
<path stroke-width="1.5" fill="none" stroke="#000000" stroke-dasharray="none" d="M299.3715168 197.99999999999997L299.3715168 163.74999999999997">
</path>
<path stroke-width="1.5" fill="none" stroke="#000000" stroke-dasharray="none" d="M347.81075839999994 197.99999999999997L347.81075839999994 163.74999999999997">
</path>
<path stroke-width="1.5" fill="none" stroke="#000000" stroke-dasharray="none" d="M381.03949919999997 197.99999999999997L381.03949919999997 163.74999999999997">
</path>
<path stroke-width="0.3" fill="#000000" stroke="none" stroke-dasharray="none" d="M298.6215168 162.99999999999997L298.6215168 167.99999999999997L381.28949919999997 167.99999999999997L381.28949919999997 162.99999999999997Z">
</path>
<path stroke-width="0.3" fill="#000000" stroke="none" stroke-dasharray="none" d="M347.06075839999994 170.49999999999997L347.06075839999994 175.49999999999997L381.28949919999997 175.49999999999997L381.28949919999997 170.49999999999997Z">
</path>
<path stroke-width="1" fill="none" stroke="black" stroke-dasharray="none" d="M401.385136384 197.99999999999997L793.6317867519999 197.99999999999997">
</path>
<rect stroke-width="0.3" fill="black" stroke="black" stroke-dasharray="none" x="788.6317867519999" y="177.49999999999997" width="1" height="41">
</rect>
<rect stroke-width="0.3" fill="black" stroke="black" stroke-dasharray="none" x="791.6317867519999" y="177.49999999999997" width="3" height="41">
</rect>
<path stroke-width="0.3" fill="black" stroke="none" stroke-dasharray="none" d="M787.6317867519999 193.49999999999997 A2 2 0 0 0 783.6317867519999 193.49999999999997M783.6317867519999 193.49999999999997 A2 2 0 0 0 787.6317867519999 193.49999999999997">
</path>
<path stroke-width="0.3" fill="black" stroke="none" stroke-dasharray="none" d="M787.6317867519999 203.49999999999997 A2 2 0 0 0 783.6317867519999 203.49999999999997M783.6317867519999 203.49999999999997 A2 2 0 0 0 787.6317867519999 203.49999999999997">
</path>
<g class="vf-stavenote" id="vf-auto9589">
<g class="vf-note" pointer-events="bounding-box">
<g class="vf-notehead" pointer-events="bounding-box">
<path stroke-width="0.3" fill="#000000" stroke="none" stroke-dasharray="none" d="M444.24921318400004 197.99999999999997M451.60617318400006 192.77711999999997C451.71849318400007 192.77711999999997,451.88697318400006 192.77711999999997,451.91505318400004 192.77711999999997C451.91505318400004 192.77711999999997,451.94313318400003 192.77711999999997,451.94313318400003 192.77711999999997C451.94313318400003 192.77711999999997,452.111613184 192.77711999999997,452.252013184 192.77711999999997C454.779213184 192.91751999999997,456.26745318400003 194.57423999999997,456.26745318400003 196.65215999999998C456.26745318400003 197.66303999999997,455.93049318400006 198.81431999999998,455.08809318400006 199.90943999999996C453.48753318400003 202.07159999999996,450.87609318400007 203.25095999999996,448.60161318400003 203.25095999999996C446.83257318400007 203.25095999999996,445.31625318400006 202.54895999999997,444.586173184 201.11687999999998C444.36153318400005 200.55527999999998,444.24921318400004 200.02175999999997,444.24921318400004 199.43207999999998C444.24921318400004 196.37135999999998,447.67497318400007 192.97367999999997,451.60617318400006 192.77711999999997">
</path>
</g>
</g>
<g class="vf-modifiers">
<g class="vf-stavenote" id="vf-auto9599">
<g class="vf-note" pointer-events="bounding-box">
<g class="vf-stem" pointer-events="bounding-box">
<path stroke-width="1.5" fill="none" stroke="#000000" stroke-dasharray="none" d="M425.56717478400003 197.99999999999997L425.56717478400003 174.89999999999998">
</path>
</g>
<g class="vf-notehead" pointer-events="bounding-box">
<path stroke-width="0.3" fill="#000000" stroke="none" stroke-dasharray="none" d="M418.385136384 197.99999999999997M423.24072998400004 194.55289919999998C423.314861184 194.55289919999998,423.426057984 194.55289919999998,423.444590784 194.55289919999998C423.444590784 194.55289919999998,423.463123584 194.55289919999998,423.463123584 194.55289919999998C423.463123584 194.55289919999998,423.57432038400003 194.55289919999998,423.66698438400005 194.55289919999998C425.334936384 194.64556319999997,426.31717478400003 195.73899839999996,426.31717478400003 197.11042559999999C426.31717478400003 197.77760639999997,426.094781184 198.53745119999996,425.53879718400003 199.26023039999998C424.482427584 200.68725599999996,422.758877184 201.46563359999996,421.25772038400004 201.46563359999996C420.09015398400004 201.46563359999996,419.089382784 201.00231359999998,418.607529984 200.05714079999998C418.45926758400003 199.68648479999996,418.385136384 199.33436159999997,418.385136384 198.94517279999997C418.385136384 196.92509759999996,420.646137984 194.68262879999997,423.24072998400004 194.55289919999998">
</path>
</g>
<g class="vf-flag" pointer-events="bounding-box">
<path stroke-width="0.3" fill="#000000" stroke="none" stroke-dasharray="none" d="M425.56717478400003 172.89999999999998M425.122387584 175.88378079999998L425.122387584 172.992664L425.19651878400003 172.992664C425.400379584 172.992664,425.530109184 173.12239359999998,425.56717478400003 173.34478719999998C425.95636358400003 175.19806719999997,427.12392998400003 177.21814239999998,428.73628358400003 178.73783199999997C430.533965184 180.42431679999999,431.442072384 182.74091679999998,431.442072384 185.13164799999998C431.442072384 187.39264959999997,430.645161984 189.74631519999997,429.032808384 191.69225919999997C428.75481638400004 192.06291519999996,428.73628358400003 192.06291519999996,428.550955584 192.06291519999996C428.32856198400003 192.06291519999996,428.180299584 191.89611999999997,428.180299584 191.67372639999996C428.180299584 191.50693119999997,428.198832384 191.4698656,428.38416038400004 191.2660048C429.792653184 189.56098719999997,430.496899584 187.5038464,430.496899584 185.5393696C430.496899584 183.7972864,429.94091558400004 182.12933439999998,428.79188198400004 180.86910399999996C428.08763558400005 180.09072639999997,426.79033958400004 179.34941439999997,425.140920384 178.77489759999997C425.140920384 178.75636479999997,425.122387584 178.18184799999997,425.122387584 175.88378079999998">
</path>
</g>
</g>
<g class="vf-modifiers">
</g>
</g>
<path stroke-width="1" fill="none" stroke="#000000" stroke-dasharray="none" d="M419.385136384 189.74999999999997L432.385136384 180.74999999999997Z">
</path>
</g>
</g>
<g class="vf-stavenote" id="vf-auto9613">
<g class="vf-note" pointer-events="bounding-box">
<g class="vf-notehead" pointer-events="bounding-box">
<path stroke-width="0.3" fill="#000000" stroke="none" stroke-dasharray="none" d="M478.44217478400003 197.99999999999997M485.79913478400005 192.77711999999997C485.91145478400006 192.77711999999997,486.07993478400005 192.77711999999997,486.10801478400003 192.77711999999997C486.10801478400003 192.77711999999997,486.136094784 192.77711999999997,486.136094784 192.77711999999997C486.136094784 192.77711999999997,486.304574784 192.77711999999997,486.444974784 192.77711999999997C488.972174784 192.91751999999997,490.460414784 194.57423999999997,490.460414784 196.65215999999998C490.460414784 197.66303999999997,490.12345478400005 198.81431999999998,489.28105478400005 199.90943999999996C487.680494784 202.07159999999996,485.06905478400006 203.25095999999996,482.794574784 203.25095999999996C481.02553478400006 203.25095999999996,479.50921478400005 202.54895999999997,478.779134784 201.11687999999998C478.55449478400004 200.55527999999998,478.44217478400003 200.02175999999997,478.44217478400003 199.43207999999998C478.44217478400003 196.37135999999998,481.86793478400006 192.97367999999997,485.79913478400005 192.77711999999997">
</path>
</g>
</g>
<g class="vf-modifiers">
</g>
</g>
<g class="vf-stavenote" id="vf-auto9623">
<g class="vf-note" pointer-events="bounding-box">
<g class="vf-notehead" pointer-events="bounding-box">
<path stroke-width="0.3" fill="#000000" stroke="none" stroke-dasharray="none" d="M538.499213184 197.99999999999997M545.856173184 192.77711999999997C545.9684931840001 192.77711999999997,546.136973184 192.77711999999997,546.165053184 192.77711999999997C546.165053184 192.77711999999997,546.1931331840001 192.77711999999997,546.1931331840001 192.77711999999997C546.1931331840001 192.77711999999997,546.361613184 192.77711999999997,546.502013184 192.77711999999997C549.029213184 192.91751999999997,550.517453184 194.57423999999997,550.517453184 196.65215999999998C550.517453184 197.66303999999997,550.180493184 198.81431999999998,549.3380931840001 199.90943999999996C547.7375331840001 202.07159999999996,545.1260931840001 203.25095999999996,542.851613184 203.25095999999996C541.082573184 203.25095999999996,539.5662531840001 202.54895999999997,538.836173184 201.11687999999998C538.611533184 200.55527999999998,538.499213184 200.02175999999997,538.499213184 199.43207999999998C538.499213184 196.37135999999998,541.924973184 192.97367999999997,545.856173184 192.77711999999997">
</path>
</g>
</g>
<g class="vf-modifiers">
<g class="vf-stavenote" id="vf-auto9633">
<g class="vf-note" pointer-events="bounding-box">
<g class="vf-stem" pointer-events="bounding-box">
<path stroke-width="1.5" fill="none" stroke="#000000" stroke-dasharray="none" d="M519.817174784 197.99999999999997L519.817174784 174.89999999999998">
</path>
</g>
<g class="vf-notehead" pointer-events="bounding-box">
<path stroke-width="0.3" fill="#000000" stroke="none" stroke-dasharray="none" d="M512.635136384 197.99999999999997M517.490729984 194.55289919999998C517.564861184 194.55289919999998,517.6760579840001 194.55289919999998,517.6945907840001 194.55289919999998C517.6945907840001 194.55289919999998,517.7131235840001 194.55289919999998,517.7131235840001 194.55289919999998C517.7131235840001 194.55289919999998,517.824320384 194.55289919999998,517.916984384 194.55289919999998C519.584936384 194.64556319999997,520.567174784 195.73899839999996,520.567174784 197.11042559999999C520.567174784 197.77760639999997,520.344781184 198.53745119999996,519.788797184 199.26023039999998C518.732427584 200.68725599999996,517.008877184 201.46563359999996,515.507720384 201.46563359999996C514.340153984 201.46563359999996,513.339382784 201.00231359999998,512.857529984 200.05714079999998C512.709267584 199.68648479999996,512.635136384 199.33436159999997,512.635136384 198.94517279999997C512.635136384 196.92509759999996,514.896137984 194.68262879999997,517.490729984 194.55289919999998">
</path>
</g>
<g class="vf-flag" pointer-events="bounding-box">
<path stroke-width="0.3" fill="#000000" stroke="none" stroke-dasharray="none" d="M519.817174784 172.89999999999998M519.3723875840001 175.88378079999998L519.3723875840001 172.992664L519.446518784 172.992664C519.650379584 172.992664,519.780109184 173.12239359999998,519.817174784 173.34478719999998C520.2063635840001 175.19806719999997,521.373929984 177.21814239999998,522.986283584 178.73783199999997C524.7839651840001 180.42431679999999,525.6920723840001 182.74091679999998,525.6920723840001 185.13164799999998C525.6920723840001 187.39264959999997,524.8951619840001 189.74631519999997,523.2828083840001 191.69225919999997C523.004816384 192.06291519999996,522.986283584 192.06291519999996,522.800955584 192.06291519999996C522.578561984 192.06291519999996,522.4302995840001 191.89611999999997,522.4302995840001 191.67372639999996C522.4302995840001 191.50693119999997,522.4488323840001 191.4698656,522.634160384 191.2660048C524.0426531840001 189.56098719999997,524.7468995840001 187.5038464,524.7468995840001 185.5393696C524.7468995840001 183.7972864,524.190915584 182.12933439999998,523.041881984 180.86910399999996C522.337635584 180.09072639999997,521.040339584 179.34941439999997,519.3909203840001 178.77489759999997C519.3909203840001 178.75636479999997,519.3723875840001 178.18184799999997,519.3723875840001 175.88378079999998">
</path>
</g>
</g>
<g class="vf-modifiers">
</g>
</g>
<path stroke-width="1" fill="none" stroke="#000000" stroke-dasharray="none" d="M513.635136384 189.74999999999997L526.635136384 180.74999999999997Z">
</path>
</g>
</g>
<g class="vf-stavenote" id="vf-auto9647">
<g class="vf-note" pointer-events="bounding-box">
<g class="vf-notehead" pointer-events="bounding-box">
<path stroke-width="0.3" fill="#000000" stroke="none" stroke-dasharray="none" d="M572.692174784 197.99999999999997M580.049134784 192.77711999999997C580.1614547840001 192.77711999999997,580.329934784 192.77711999999997,580.358014784 192.77711999999997C580.358014784 192.77711999999997,580.3860947840001 192.77711999999997,580.3860947840001 192.77711999999997C580.3860947840001 192.77711999999997,580.554574784 192.77711999999997,580.694974784 192.77711999999997C583.222174784 192.91751999999997,584.710414784 194.57423999999997,584.710414784 196.65215999999998C584.710414784 197.66303999999997,584.373454784 198.81431999999998,583.531054784 199.90943999999996C581.9304947840001 202.07159999999996,579.3190547840001 203.25095999999996,577.044574784 203.25095999999996C575.275534784 203.25095999999996,573.759214784 202.54895999999997,573.029134784 201.11687999999998C572.804494784 200.55527999999998,572.692174784 200.02175999999997,572.692174784 199.43207999999998C572.692174784 196.37135999999998,576.117934784 192.97367999999997,580.049134784 192.77711999999997">
</path>
</g>
</g>
<g class="vf-modifiers">
</g>
</g>
<g class="vf-stavenote" id="vf-auto9657">
<g class="vf-note" pointer-events="bounding-box">
<g class="vf-notehead" pointer-events="bounding-box">
<path stroke-width="0.3" fill="#000000" stroke="none" stroke-dasharray="none" d="M632.749213184 197.99999999999997M640.106173184 192.77711999999997C640.2184931840001 192.77711999999997,640.386973184 192.77711999999997,640.415053184 192.77711999999997C640.415053184 192.77711999999997,640.4431331840001 192.77711999999997,640.4431331840001 192.77711999999997C640.4431331840001 192.77711999999997,640.611613184 192.77711999999997,640.752013184 192.77711999999997C643.279213184 192.91751999999997,644.767453184 194.57423999999997,644.767453184 196.65215999999998C644.767453184 197.66303999999997,644.430493184 198.81431999999998,643.5880931840001 199.90943999999996C641.9875331840001 202.07159999999996,639.3760931840001 203.25095999999996,637.101613184 203.25095999999996C635.332573184 203.25095999999996,633.8162531840001 202.54895999999997,633.086173184 201.11687999999998C632.861533184 200.55527999999998,632.749213184 200.02175999999997,632.749213184 199.43207999999998C632.749213184 196.37135999999998,636.174973184 192.97367999999997,640.106173184 192.77711999999997">
</path>
</g>
</g>
<g class="vf-modifiers">
<g class="vf-stavenote" id="vf-auto9667">
<g class="vf-note" pointer-events="bounding-box">
<g class="vf-stem" pointer-events="bounding-box">
<path stroke-width="1.5" fill="none" stroke="#000000" stroke-dasharray="none" d="M614.067174784 197.99999999999997L614.067174784 174.89999999999998">
</path>
</g>
<g class="vf-notehead" pointer-events="bounding-box">
<path stroke-width="0.3" fill="#000000" stroke="none" stroke-dasharray="none" d="M606.885136384 197.99999999999997M611.740729984 194.55289919999998C611.814861184 194.55289919999998,611.9260579840001 194.55289919999998,611.9445907840001 194.55289919999998C611.9445907840001 194.55289919999998,611.9631235840001 194.55289919999998,611.9631235840001 194.55289919999998C611.9631235840001 194.55289919999998,612.074320384 194.55289919999998,612.166984384 194.55289919999998C613.834936384 194.64556319999997,614.817174784 195.73899839999996,614.817174784 197.11042559999999C614.817174784 197.77760639999997,614.594781184 198.53745119999996,614.038797184 199.26023039999998C612.982427584 200.68725599999996,611.258877184 201.46563359999996,609.757720384 201.46563359999996C608.590153984 201.46563359999996,607.589382784 201.00231359999998,607.107529984 200.05714079999998C606.959267584 199.68648479999996,606.885136384 199.33436159999997,606.885136384 198.94517279999997C606.885136384 196.92509759999996,609.146137984 194.68262879999997,611.740729984 194.55289919999998">
</path>
</g>
<g class="vf-flag" pointer-events="bounding-box">
<path stroke-width="0.3" fill="#000000" stroke="none" stroke-dasharray="none" d="M614.067174784 172.89999999999998M613.6223875840001 175.88378079999998L613.6223875840001 172.992664L613.696518784 172.992664C613.900379584 172.992664,614.030109184 173.12239359999998,614.067174784 173.34478719999998C614.4563635840001 175.19806719999997,615.623929984 177.21814239999998,617.236283584 178.73783199999997C619.0339651840001 180.42431679999999,619.9420723840001 182.74091679999998,619.9420723840001 185.13164799999998C619.9420723840001 187.39264959999997,619.1451619840001 189.74631519999997,617.5328083840001 191.69225919999997C617.254816384 192.06291519999996,617.236283584 192.06291519999996,617.050955584 192.06291519999996C616.828561984 192.06291519999996,616.6802995840001 191.89611999999997,616.6802995840001 191.67372639999996C616.6802995840001 191.50693119999997,616.6988323840001 191.4698656,616.884160384 191.2660048C618.2926531840001 189.56098719999997,618.9968995840001 187.5038464,618.9968995840001 185.5393696C618.9968995840001 183.7972864,618.440915584 182.12933439999998,617.291881984 180.86910399999996C616.587635584 180.09072639999997,615.290339584 179.34941439999997,613.6409203840001 178.77489759999997C613.6409203840001 178.75636479999997,613.6223875840001 178.18184799999997,613.6223875840001 175.88378079999998">
</path>
</g>
</g>
<g class="vf-modifiers">
</g>
</g>
<path stroke-width="1" fill="none" stroke="#000000" stroke-dasharray="none" d="M607.885136384 189.74999999999997L620.885136384 180.74999999999997Z">
</path>
</g>
</g>
<g class="vf-stavenote" id="vf-auto9681">
<g class="vf-note" pointer-events="bounding-box">
<g class="vf-notehead" pointer-events="bounding-box">
<path stroke-width="0.3" fill="#000000" stroke="none" stroke-dasharray="none" d="M666.942174784 197.99999999999997M674.299134784 192.77711999999997C674.4114547840001 192.77711999999997,674.579934784 192.77711999999997,674.608014784 192.77711999999997C674.608014784 192.77711999999997,674.6360947840001 192.77711999999997,674.6360947840001 192.77711999999997C674.6360947840001 192.77711999999997,674.804574784 192.77711999999997,674.944974784 192.77711999999997C677.472174784 192.91751999999997,678.960414784 194.57423999999997,678.960414784 196.65215999999998C678.960414784 197.66303999999997,678.623454784 198.81431999999998,677.781054784 199.90943999999996C676.1804947840001 202.07159999999996,673.5690547840001 203.25095999999996,671.294574784 203.25095999999996C669.525534784 203.25095999999996,668.009214784 202.54895999999997,667.279134784 201.11687999999998C667.054494784 200.55527999999998,666.942174784 200.02175999999997,666.942174784 199.43207999999998C666.942174784 196.37135999999998,670.367934784 192.97367999999997,674.299134784 192.77711999999997">
</path>
</g>
</g>
<g class="vf-modifiers">
</g>
</g>
<g class="vf-stavenote" id="vf-auto9691">
<g class="vf-note" pointer-events="bounding-box">
<g class="vf-notehead" pointer-events="bounding-box">
<path stroke-width="0.3" fill="#000000" stroke="none" stroke-dasharray="none" d="M726.999213184 197.99999999999997M734.356173184 192.77711999999997C734.4684931840001 192.77711999999997,734.636973184 192.77711999999997,734.665053184 192.77711999999997C734.665053184 192.77711999999997,734.6931331840001 192.77711999999997,734.6931331840001 192.77711999999997C734.6931331840001 192.77711999999997,734.861613184 192.77711999999997,735.002013184 192.77711999999997C737.529213184 192.91751999999997,739.017453184 194.57423999999997,739.017453184 196.65215999999998C739.017453184 197.66303999999997,738.680493184 198.81431999999998,737.8380931840001 199.90943999999996C736.2375331840001 202.07159999999996,733.6260931840001 203.25095999999996,731.351613184 203.25095999999996C729.582573184 203.25095999999996,728.0662531840001 202.54895999999997,727.336173184 201.11687999999998C727.111533184 200.55527999999998,726.999213184 200.02175999999997,726.999213184 199.43207999999998C726.999213184 196.37135999999998,730.424973184 192.97367999999997,734.356173184 192.77711999999997">
</path>
</g>
</g>
<g class="vf-modifiers">
<g class="vf-stavenote" id="vf-auto9701">
<g class="vf-note" pointer-events="bounding-box">
<g class="vf-stem" pointer-events="bounding-box">
<path stroke-width="1.5" fill="none" stroke="#000000" stroke-dasharray="none" d="M708.317174784 197.99999999999997L708.317174784 174.89999999999998">
</path>
</g>
<g class="vf-notehead" pointer-events="bounding-box">
<path stroke-width="0.3" fill="#000000" stroke="none" stroke-dasharray="none" d="M701.135136384 197.99999999999997M705.990729984 194.55289919999998C706.064861184 194.55289919999998,706.1760579840001 194.55289919999998,706.1945907840001 194.55289919999998C706.1945907840001 194.55289919999998,706.2131235840001 194.55289919999998,706.2131235840001 194.55289919999998C706.2131235840001 194.55289919999998,706.324320384 194.55289919999998,706.416984384 194.55289919999998C708.084936384 194.64556319999997,709.067174784 195.73899839999996,709.067174784 197.11042559999999C709.067174784 197.77760639999997,708.844781184 198.53745119999996,708.288797184 199.26023039999998C707.232427584 200.68725599999996,705.508877184 201.46563359999996,704.007720384 201.46563359999996C702.840153984 201.46563359999996,701.839382784 201.00231359999998,701.357529984 200.05714079999998C701.209267584 199.68648479999996,701.135136384 199.33436159999997,701.135136384 198.94517279999997C701.135136384 196.92509759999996,703.396137984 194.68262879999997,705.990729984 194.55289919999998">
</path>
</g>
<g class="vf-flag" pointer-events="bounding-box">
<path stroke-width="0.3" fill="#000000" stroke="none" stroke-dasharray="none" d="M708.317174784 172.89999999999998M707.8723875840001 175.88378079999998L707.8723875840001 172.992664L707.946518784 172.992664C708.150379584 172.992664,708.280109184 173.12239359999998,708.317174784 173.34478719999998C708.7063635840001 175.19806719999997,709.873929984 177.21814239999998,711.486283584 178.73783199999997C713.2839651840001 180.42431679999999,714.1920723840001 182.74091679999998,714.1920723840001 185.13164799999998C714.1920723840001 187.39264959999997,713.3951619840001 189.74631519999997,711.7828083840001 191.69225919999997C711.504816384 192.06291519999996,711.486283584 192.06291519999996,711.300955584 192.06291519999996C711.078561984 192.06291519999996,710.9302995840001 191.89611999999997,710.9302995840001 191.67372639999996C710.9302995840001 191.50693119999997,710.9488323840001 191.4698656,711.134160384 191.2660048C712.5426531840001 189.56098719999997,713.2468995840001 187.5038464,713.2468995840001 185.5393696C713.2468995840001 183.7972864,712.690915584 182.12933439999998,711.541881984 180.86910399999996C710.837635584 180.09072639999997,709.540339584 179.34941439999997,707.8909203840001 178.77489759999997C707.8909203840001 178.75636479999997,707.8723875840001 178.18184799999997,707.8723875840001 175.88378079999998">
</path>
</g>
</g>
<g class="vf-modifiers">
</g>
</g>
<path stroke-width="1" fill="none" stroke="#000000" stroke-dasharray="none" d="M702.135136384 189.74999999999997L715.135136384 180.74999999999997Z">
</path>
</g>
</g>
<g class="vf-stavenote" id="vf-auto9715">
<g class="vf-note" pointer-events="bounding-box">
<g class="vf-notehead" pointer-events="bounding-box">
<path stroke-width="0.3" fill="#000000" stroke="none" stroke-dasharray="none" d="M761.192174784 197.99999999999997M768.549134784 192.77711999999997C768.6614547840001 192.77711999999997,768.829934784 192.77711999999997,768.858014784 192.77711999999997C768.858014784 192.77711999999997,768.8860947840001 192.77711999999997,768.8860947840001 192.77711999999997C768.8860947840001 192.77711999999997,769.054574784 192.77711999999997,769.194974784 192.77711999999997C771.722174784 192.91751999999997,773.210414784 194.57423999999997,773.210414784 196.65215999999998C773.210414784 197.66303999999997,772.873454784 198.81431999999998,772.031054784 199.90943999999996C770.4304947840001 202.07159999999996,767.8190547840001 203.25095999999996,765.544574784 203.25095999999996C763.775534784 203.25095999999996,762.259214784 202.54895999999997,761.529134784 201.11687999999998C761.304494784 200.55527999999998,761.192174784 200.02175999999997,761.192174784 199.43207999999998C761.192174784 196.37135999999998,764.617934784 192.97367999999997,768.549134784 192.77711999999997">
</path>
</g>
</g>
<g class="vf-modifiers">
</g>
</g>
<path stroke-width="1.5" fill="none" stroke="#000000" stroke-dasharray="none" d="M455.51745318400003 197.99999999999997L455.51745318400003 163.74999999999997">
</path>
<path stroke-width="1.5" fill="none" stroke="#000000" stroke-dasharray="none" d="M489.710414784 197.99999999999997L489.710414784 163.74999999999997">
</path>
<path stroke-width="1.5" fill="none" stroke="#000000" stroke-dasharray="none" d="M549.767453184 197.99999999999997L549.767453184 163.74999999999997">
</path>
<path stroke-width="1.5" fill="none" stroke="#000000" stroke-dasharray="none" d="M583.960414784 197.99999999999997L583.960414784 163.74999999999997">
</path>
<path stroke-width="0.3" fill="#000000" stroke="none" stroke-dasharray="none" d="M454.76745318400003 162.99999999999997L454.76745318400003 167.99999999999997L584.210414784 167.99999999999997L584.210414784 162.99999999999997Z">
</path>
<path stroke-width="0.3" fill="#000000" stroke="none" stroke-dasharray="none" d="M454.76745318400003 170.49999999999997L454.76745318400003 175.49999999999997L584.210414784 175.49999999999997L584.210414784 170.49999999999997Z">
</path>
<path stroke-width="1.5" fill="none" stroke="#000000" stroke-dasharray="none" d="M644.017453184 197.99999999999997L644.017453184 163.74999999999997">
</path>
<path stroke-width="1.5" fill="none" stroke="#000000" stroke-dasharray="none" d="M678.210414784 197.99999999999997L678.210414784 163.74999999999997">
</path>
<path stroke-width="1.5" fill="none" stroke="#000000" stroke-dasharray="none" d="M738.267453184 197.99999999999997L738.267453184 163.74999999999997">
</path>
<path stroke-width="1.5" fill="none" stroke="#000000" stroke-dasharray="none" d="M772.460414784 197.99999999999997L772.460414784 163.74999999999997">
</path>
<path stroke-width="0.3" fill="#000000" stroke="none" stroke-dasharray="none" d="M643.267453184 162.99999999999997L643.267453184 167.99999999999997L772.710414784 167.99999999999997L772.710414784 162.99999999999997Z">
</path>
<path stroke-width="0.3" fill="#000000" stroke="none" stroke-dasharray="none" d="M643.267453184 170.49999999999997L643.267453184 175.49999999999997L772.710414784 175.49999999999997L772.710414784 170.49999999999997Z">
</path>
<text stroke-width="0.3" fill="#000000" stroke="none" stroke-dasharray="none" font-family="Times New Roman" font-size="40px" font-weight="normal" font-style="normal" x="643" y="82">Untitled Score</text>
</svg>