<svg width="650" height="100" viewBox="50 135 650 100">
<path stroke-width="1" fill="none" stroke="black" stroke-dasharray="none" d="M50 197.99999999999997L401.385136384 197.99999999999997"></path>
<rect stroke-width="0.3" fill="black" stroke="black" stroke-dasharray="none" x="401.385136384" y="177.49999999999997" width="1" height="41"></rect>
<path stroke-width="0.3" fill="black" stroke="none" stroke-dasharray="none" d="M55 197.99999999999997M55 197.99999999999997L55 188.00639999999999L57.1888 188.00639999999999L59.4064 188.00639999999999L59.4064 197.99999999999997L59.4064 208.02239999999998L57.1888 208.02239999999998L55 208.02239999999998L55 197.99999999999997M63.870400000000004 198.02879999999996L63.870400000000004 188.00639999999999L66.1168 188.00639999999999L68.3632 188.00639999999999L68.3632 198.02879999999996L68.3632 208.02239999999998L66.1168 208.02239999999998L63.870400000000004 208.02239999999998L63.870400000000004 198.02879999999996"></path>
<path stroke-width="0.3" fill="black" stroke="none" stroke-dasharray="none" d="M96.1296 197.99999999999997M101.80319999999999 179.33759999999998C101.91839999999999 179.33759999999998,102.11999999999999 179.33759999999998,102.3504 179.33759999999998C102.8112 179.33759999999998,103.416 179.33759999999998,103.56 179.39519999999996C105.72 179.65439999999998,107.448 180.74879999999996,108.1968 182.27519999999998C108.45599999999999 182.79359999999997,108.57119999999999 183.34079999999997,108.57119999999999 183.91679999999997C108.57119999999999 185.32799999999997,107.7936 186.94079999999997,106.38239999999999 188.15039999999996C105.4032 188.98559999999998,104.42399999999999 189.50399999999996,102.8976 189.99359999999996C100.9104 190.62719999999996,99.21119999999999 191.75039999999998,98.1168 193.10399999999998C98.1168 193.10399999999998,98.1168 193.13279999999997,98.1168 193.13279999999997C98.1168 193.13279999999997,98.1168 193.13279999999997,98.1168 193.13279999999997C98.1168 193.13279999999997,98.2032 193.10399999999998,98.26079999999999 193.01759999999996C99.3552 192.12479999999996,100.824 191.60639999999998,102.1488 191.60639999999998C103.2432 191.60639999999998,104.0208 191.80799999999996,105.0576 192.38399999999996C105.6912 192.70079999999996,106.2672 192.84479999999996,106.81439999999999 192.84479999999996C107.0448 192.84479999999996,107.2752 192.84479999999996,107.53439999999999 192.78719999999998C107.9088 192.70079999999996,108.312 192.41279999999998,108.45599999999999 192.18239999999997C108.5424 191.98079999999996,108.68639999999999 191.89439999999996,108.8592 191.89439999999996C109.08959999999999 191.89439999999996,109.32 192.06719999999999,109.32 192.32639999999998C109.32 192.52799999999996,109.0608 193.24799999999996,108.8304 193.7376C107.9088 195.58079999999998,106.29599999999999 196.73279999999997,104.7408 196.73279999999997C104.62559999999999 196.73279999999997,104.5392 196.73279999999997,104.42399999999999 196.70399999999998C104.0208 196.70399999999998,103.848 196.58879999999996,103.3296 196.24319999999997C102.23519999999999 195.52319999999997,100.8528 195.14879999999997,99.6432 195.14879999999997C99.1248 195.14879999999997,98.664 195.20639999999997,98.232 195.37919999999997C97.65599999999999 195.58079999999998,97.1088 195.92639999999997,96.93599999999999 196.18559999999997C96.8496 196.38719999999998,96.70559999999999 196.44479999999996,96.5328 196.44479999999996C96.3888 196.44479999999996,96.2448 196.38719999999998,96.1584 196.21439999999998L96.10079999999999 196.128L96.10079999999999 195.72479999999996C96.10079999999999 195.37919999999997,96.1296 195.26399999999998,96.1296 195.14879999999997C96.1584 195.06239999999997,96.18719999999999 194.88959999999997,96.18719999999999 194.74559999999997C96.70559999999999 192.32639999999998,98.4624 190.16639999999998,100.8528 189.10079999999996C102.8112 188.17919999999998,104.10719999999999 186.53759999999997,104.3376 184.46399999999997C104.39519999999999 184.29119999999998,104.39519999999999 184.14719999999997,104.39519999999999 183.97439999999997C104.39519999999999 182.13119999999998,103.0128 180.86399999999998,101.0544 180.86399999999998C100.9104 180.86399999999998,100.7376 180.86399999999998,100.5936 180.86399999999998C100.3056 180.89279999999997,100.2192 180.89279999999997,100.2192 180.95039999999997C100.2192 180.95039999999997,100.2192 180.97919999999996,100.3056 181.03679999999997C100.96799999999999 181.41119999999998,101.28479999999999 182.13119999999998,101.28479999999999 182.82239999999996C101.28479999999999 183.71519999999998,100.824 184.55039999999997,99.93119999999999 184.89599999999996C99.6432 184.98239999999998,99.3552 185.01119999999997,99.1248 185.01119999999997C97.9152 185.01119999999997,96.9072 183.97439999999997,96.9072 182.73599999999996C96.9072 182.50559999999996,96.9072 182.27519999999998,96.9648 182.01599999999996C97.3968 180.69119999999998,99.4416 179.59679999999997,101.80319999999999 179.33759999999998M102.696 198.02879999999996L102.75359999999999 198.02879999999996L102.6672 198.02879999999996L102.696 198.02879999999996M102.696 178.61759999999998L102.75359999999999 178.61759999999998L102.6672 178.61759999999998L102.696 178.61759999999998"></path>
<path stroke-width="0.3" fill="black" stroke="none" stroke-dasharray="none" d="M96 217.99999999999997M101.0112 199.65439999999998C101.04 199.62559999999996,101.4432 199.62559999999996,102.6816 199.62559999999996C103.056 199.62559999999996,103.4592 199.62559999999996,103.9776 199.62559999999996L106.8864 199.62559999999996L106.9728 199.71199999999996C107.1168 199.79839999999996,107.2032 199.94239999999996,107.2032 200.05759999999998C107.2032 200.23039999999997,107.1168 200.34559999999996,107.0016 200.46079999999998C106.9728 200.54719999999998,106.7136 200.77759999999998,106.5408 201.03679999999997L105.0144 202.79359999999997L103.056 205.01119999999997L102.0192 206.19199999999998L100.464 207.97759999999997L98.4192 210.31039999999996C98.0736 210.74239999999998,97.6992 211.08799999999997,97.6992 211.08799999999997C97.6992 211.08799999999997,97.6992 211.08799999999997,97.6992 211.08799999999997C97.6992 211.14559999999997,97.9584 211.14559999999997,100.3488 211.14559999999997L102.9696 211.14559999999997L102.9696 209.27359999999996C102.9696 207.37279999999998,102.9696 207.34399999999997,102.9984 207.31519999999998C103.056 207.22879999999998,103.3152 206.91199999999998,104.3232 205.73119999999997L104.7264 205.29919999999998L105.1296 204.86719999999997L105.7344 204.08959999999996L106.368 203.42719999999997L106.6848 203.02399999999997C106.8 202.85119999999998,106.9728 202.82239999999996,107.1168 202.82239999999996C107.28960000000001 202.82239999999996,107.4336 202.90879999999999,107.52 203.05279999999996C107.5488 203.13919999999996,107.5488 203.19679999999997,107.5488 205.32799999999997C107.5488 205.81759999999997,107.5488 206.42239999999998,107.5488 207.14239999999998L107.5488 211.14559999999997L108.2688 211.14559999999997C108.9312 211.14559999999997,108.96 211.14559999999997,109.0464 211.17439999999996C109.2768 211.26079999999996,109.392 211.49119999999996,109.392 211.75039999999998C109.392 211.89439999999996,109.3632 212.06719999999999,109.248 212.18239999999997C109.0752 212.32639999999998,109.0464 212.32639999999998,108.2688 212.32639999999998L107.5488 212.32639999999998L107.5488 212.81599999999997C107.5776 214.28479999999996,107.8656 214.86079999999998,108.9888 215.46559999999997C109.392 215.66719999999998,109.4784 215.72479999999996,109.4784 216.01279999999997C109.4784 216.21439999999998,109.4208 216.30079999999998,109.2768 216.41599999999997L109.1904 216.44479999999996L105.2448 216.44479999999996L101.328 216.44479999999996L101.2416 216.41599999999997C101.0688 216.30079999999998,101.04 216.21439999999998,101.04 216.01279999999997C101.04 215.72479999999996,101.0688 215.66719999999998,101.5008 215.46559999999997C102.624 214.86079999999998,102.912 214.28479999999996,102.912 212.81599999999997L102.912 212.32639999999998L99.6 212.32639999999998C98.9952 212.38399999999996,98.5056 212.38399999999996,98.1024 212.38399999999996C96.288 212.38399999999996,96.2592 212.32639999999998,96.2304 212.32639999999998C96.0576 212.26879999999997,96 212.09599999999998,96 211.89439999999996C96 211.89439999999996,96 211.89439999999996,96 211.89439999999996C96 211.69279999999998,96 211.69279999999998,96.576 211.0304C98.9952 208.09279999999998,100.6944 203.83039999999997,100.6944 200.43199999999996C100.6944 199.91359999999997,100.7808 199.74079999999998,101.0112 199.65439999999998M102.7392 218.02879999999996L102.768 218.02879999999996L102.6816 218.02879999999996L102.7392 218.02879999999996M102.7392 198.61759999999998L102.768 198.61759999999998L102.6816 198.61759999999998L102.7392 198.61759999999998"></path>
<g class="vf-stavenote" id="vf-auto15451">
<g class="vf-note" pointer-events="bounding-box">
<g class="vf-notehead" pointer-events="bounding-box">
<path stroke-width="0.3" fill="#000000" stroke="none" stroke-dasharray="none" d="M147.3424768 197.99999999999997M154.69943679999997 192.77711999999997C154.81175679999998 192.77711999999997,154.9802368 192.77711999999997,155.0083168 192.77711999999997C155.0083168 192.77711999999997,155.03639679999998 192.77711999999997,155.03639679999998 192.77711999999997C155.03639679999998 192.77711999999997,155.2048768 192.77711999999997,155.3452768 192.77711999999997C157.8724768 192.91751999999997,159.36071679999998 194.57423999999997,159.36071679999998 196.65215999999998C159.36071679999998 197.66303999999997,159.0237568 198.81431999999998,158.18135679999997 199.90943999999996C156.58079679999997 202.07159999999996,153.96935679999999 203.25095999999996,151.69487679999997 203.25095999999996C149.92583679999998 203.25095999999996,148.40951679999998 202.54895999999997,147.6794368 201.11687999999998C147.4547968 200.55527999999998,147.3424768 200.02175999999997,147.3424768 199.43207999999998C147.3424768 196.37135999999998,150.76823679999998 192.97367999999997,154.69943679999997 192.77711999999997"></path>
</g>
</g>
<g class="vf-modifiers">
<g class="vf-stavenote" id="vf-auto15461">
<g class="vf-note" pointer-events="bounding-box">
<g class="vf-stem" pointer-events="bounding-box">
<path stroke-width="1.5" fill="none" stroke="#000000" stroke-dasharray="none" d="M128.6604384 197.99999999999997L128.6604384 174.89999999999998"></path>
</g>
<g class="vf-notehead" pointer-events="bounding-box">
<path stroke-width="0.3" fill="#000000" stroke="none" stroke-dasharray="none" d="M121.4784 197.99999999999997M126.3339936 194.55289919999998C126.4081248 194.55289919999998,126.5193216 194.55289919999998,126.5378544 194.55289919999998C126.5378544 194.55289919999998,126.55638719999999 194.55289919999998,126.55638719999999 194.55289919999998C126.55638719999999 194.55289919999998,126.66758399999999 194.55289919999998,126.76024799999999 194.55289919999998C128.4282 194.64556319999997,129.4104384 195.73899839999996,129.4104384 197.11042559999999C129.4104384 197.77760639999997,129.1880448 198.53745119999996,128.6320608 199.26023039999998C127.5756912 200.68725599999996,125.8521408 201.46563359999996,124.350984 201.46563359999996C123.1834176 201.46563359999996,122.1826464 201.00231359999998,121.7007936 200.05714079999998C121.55253119999999 199.68648479999996,121.4784 199.33436159999997,121.4784 198.94517279999997C121.4784 196.92509759999996,123.7394016 194.68262879999997,126.3339936 194.55289919999998"></path>
</g>
<g class="vf-flag" pointer-events="bounding-box">
<path stroke-width="0.3" fill="#000000" stroke="none" stroke-dasharray="none" d="M128.6604384 172.89999999999998M128.2156512 175.88378079999998L128.2156512 172.992664L128.2897824 172.992664C128.4936432 172.992664,128.6233728 173.12239359999998,128.6604384 173.34478719999998C129.0496272 175.19806719999997,130.2171936 177.21814239999998,131.8295472 178.73783199999997C133.6272288 180.42431679999999,134.535336 182.74091679999998,134.535336 185.13164799999998C134.535336 187.39264959999997,133.7384256 189.74631519999997,132.126072 191.69225919999997C131.84808 192.06291519999996,131.8295472 192.06291519999996,131.6442192 192.06291519999996C131.4218256 192.06291519999996,131.2735632 191.89611999999997,131.2735632 191.67372639999996C131.2735632 191.50693119999997,131.29209600000002 191.4698656,131.477424 191.2660048C132.88591680000002 189.56098719999997,133.5901632 187.5038464,133.5901632 185.5393696C133.5901632 183.7972864,133.0341792 182.12933439999998,131.88514560000002 180.86910399999996C131.1808992 180.09072639999997,129.8836032 179.34941439999997,128.234184 178.77489759999997C128.234184 178.75636479999997,128.2156512 178.18184799999997,128.2156512 175.88378079999998"></path>
</g>
</g>
<g class="vf-modifiers">
</g>
</g>
<path stroke-width="1" fill="none" stroke="#000000" stroke-dasharray="none" d="M122.4784 189.74999999999997L135.4784 180.74999999999997Z"></path>
</g>
</g>
<g class="vf-stavenote" id="vf-auto15475">
<g class="vf-note" pointer-events="bounding-box">
<g class="vf-notehead" pointer-events="bounding-box">
<path stroke-width="0.3" fill="#000000" stroke="none" stroke-dasharray="none" d="M195.7817184 197.99999999999997M203.13867839999997 192.77711999999997C203.2509984 192.77711999999997,203.4194784 192.77711999999997,203.4475584 192.77711999999997C203.4475584 192.77711999999997,203.47563839999998 192.77711999999997,203.47563839999998 192.77711999999997C203.47563839999998 192.77711999999997,203.6441184 192.77711999999997,203.7845184 192.77711999999997C206.3117184 192.91751999999997,207.79995839999998 194.57423999999997,207.79995839999998 196.65215999999998C207.79995839999998 197.66303999999997,207.4629984 198.81431999999998,206.62059839999998 199.90943999999996C205.02003839999998 202.07159999999996,202.4085984 203.25095999999996,200.13411839999998 203.25095999999996C198.3650784 203.25095999999996,196.84875839999998 202.54895999999997,196.1186784 201.11687999999998C195.8940384 200.55527999999998,195.7817184 200.02175999999997,195.7817184 199.43207999999998C195.7817184 196.37135999999998,199.20747839999999 192.97367999999997,203.13867839999997 192.77711999999997"></path>
</g>
</g>
<g class="vf-modifiers">
</g>
</g>
<g class="vf-stavenote" id="vf-auto15485">
<g class="vf-note" pointer-events="bounding-box">
<g class="vf-notehead" pointer-events="bounding-box">
<path stroke-width="0.3" fill="#000000" stroke="none" stroke-dasharray="none" d="M229.01045919999999 197.99999999999997M236.36741919999997 192.77711999999997C236.47973919999998 192.77711999999997,236.64821919999997 192.77711999999997,236.6762992 192.77711999999997C236.6762992 192.77711999999997,236.70437919999998 192.77711999999997,236.70437919999998 192.77711999999997C236.70437919999998 192.77711999999997,236.8728592 192.77711999999997,237.0132592 192.77711999999997C239.5404592 192.91751999999997,241.02869919999998 194.57423999999997,241.02869919999998 196.65215999999998C241.02869919999998 197.66303999999997,240.69173919999997 198.81431999999998,239.84933919999997 199.90943999999996C238.24877919999997 202.07159999999996,235.63733919999999 203.25095999999996,233.36285919999997 203.25095999999996C231.59381919999998 203.25095999999996,230.07749919999998 202.54895999999997,229.3474192 201.11687999999998C229.1227792 200.55527999999998,229.01045919999999 200.02175999999997,229.01045919999999 199.43207999999998C229.01045919999999 196.37135999999998,232.43621919999998 192.97367999999997,236.36741919999997 192.77711999999997"></path>
</g>
</g>
<g class="vf-modifiers">
</g>
</g>
<g class="vf-stavenote" id="vf-auto15495">
<g class="vf-note" pointer-events="bounding-box">
<g class="vf-notehead" pointer-events="bounding-box">
<path stroke-width="0.3" fill="#000000" stroke="none" stroke-dasharray="none" d="M288.1032768 197.99999999999997M295.4602368 192.77711999999997C295.57255680000003 192.77711999999997,295.7410368 192.77711999999997,295.7691168 192.77711999999997C295.7691168 192.77711999999997,295.7971968 192.77711999999997,295.7971968 192.77711999999997C295.7971968 192.77711999999997,295.9656768 192.77711999999997,296.1060768 192.77711999999997C298.6332768 192.91751999999997,300.1215168 194.57423999999997,300.1215168 196.65215999999998C300.1215168 197.66303999999997,299.7845568 198.81431999999998,298.9421568 199.90943999999996C297.3415968 202.07159999999996,294.73015680000003 203.25095999999996,292.4556768 203.25095999999996C290.68663680000003 203.25095999999996,289.1703168 202.54895999999997,288.4402368 201.11687999999998C288.2155968 200.55527999999998,288.1032768 200.02175999999997,288.1032768 199.43207999999998C288.1032768 196.37135999999998,291.52903680000003 192.97367999999997,295.4602368 192.77711999999997"></path>
</g>
</g>
<g class="vf-modifiers">
<g class="vf-stavenote" id="vf-auto15505">
<g class="vf-note" pointer-events="bounding-box">
<g class="vf-stem" pointer-events="bounding-box">
<path stroke-width="1.5" fill="none" stroke="#000000" stroke-dasharray="none" d="M269.4212384 197.99999999999997L269.4212384 174.89999999999998"></path>
</g>
<g class="vf-notehead" pointer-events="bounding-box">
<path stroke-width="0.3" fill="#000000" stroke="none" stroke-dasharray="none" d="M262.2392 197.99999999999997M267.0947936 194.55289919999998C267.16892479999996 194.55289919999998,267.2801216 194.55289919999998,267.2986544 194.55289919999998C267.2986544 194.55289919999998,267.3171872 194.55289919999998,267.3171872 194.55289919999998C267.3171872 194.55289919999998,267.428384 194.55289919999998,267.521048 194.55289919999998C269.18899999999996 194.64556319999997,270.1712384 195.73899839999996,270.1712384 197.11042559999999C270.1712384 197.77760639999997,269.94884479999996 198.53745119999996,269.3928608 199.26023039999998C268.33649119999995 200.68725599999996,266.6129408 201.46563359999996,265.111784 201.46563359999996C263.9442176 201.46563359999996,262.94344639999997 201.00231359999998,262.46159359999996 200.05714079999998C262.3133312 199.68648479999996,262.2392 199.33436159999997,262.2392 198.94517279999997C262.2392 196.92509759999996,264.50020159999997 194.68262879999997,267.0947936 194.55289919999998"></path>
</g>
<g class="vf-flag" pointer-events="bounding-box">
<path stroke-width="0.3" fill="#000000" stroke="none" stroke-dasharray="none" d="M269.4212384 172.89999999999998M268.9764512 175.88378079999998L268.9764512 172.992664L269.0505824 172.992664C269.25444319999997 172.992664,269.3841728 173.12239359999998,269.4212384 173.34478719999998C269.8104272 175.19806719999997,270.9779936 177.21814239999998,272.5903472 178.73783199999997C274.3880288 180.42431679999999,275.296136 182.74091679999998,275.296136 185.13164799999998C275.296136 187.39264959999997,274.4992256 189.74631519999997,272.886872 191.69225919999997C272.60888 192.06291519999996,272.5903472 192.06291519999996,272.40501919999997 192.06291519999996C272.1826256 192.06291519999996,272.0343632 191.89611999999997,272.0343632 191.67372639999996C272.0343632 191.50693119999997,272.052896 191.4698656,272.238224 191.2660048C273.6467168 189.56098719999997,274.35096319999997 187.5038464,274.35096319999997 185.5393696C274.35096319999997 183.7972864,273.7949792 182.12933439999998,272.6459456 180.86910399999996C271.9416992 180.09072639999997,270.6444032 179.34941439999997,268.994984 178.77489759999997C268.994984 178.75636479999997,268.9764512 178.18184799999997,268.9764512 175.88378079999998"></path>
</g>
</g>
<g class="vf-modifiers">
</g>
</g>
<path stroke-width="1" fill="none" stroke="#000000" stroke-dasharray="none" d="M263.2392 189.74999999999997L276.2392 180.74999999999997Z"></path>
</g>
</g>
<g class="vf-stavenote" id="vf-auto15519">
<g class="vf-note" pointer-events="bounding-box">
<g class="vf-notehead" pointer-events="bounding-box">
<path stroke-width="0.3" fill="#000000" stroke="none" stroke-dasharray="none" d="M336.54251839999995 197.99999999999997M343.89947839999996 192.77711999999997C344.0117984 192.77711999999997,344.18027839999996 192.77711999999997,344.20835839999995 192.77711999999997C344.20835839999995 192.77711999999997,344.23643839999994 192.77711999999997,344.23643839999994 192.77711999999997C344.23643839999994 192.77711999999997,344.40491839999993 192.77711999999997,344.5453183999999 192.77711999999997C347.0725183999999 192.91751999999997,348.56075839999994 194.57423999999997,348.56075839999994 196.65215999999998C348.56075839999994 197.66303999999997,348.22379839999996 198.81431999999998,347.38139839999997 199.90943999999996C345.78083839999994 202.07159999999996,343.1693984 203.25095999999996,340.89491839999994 203.25095999999996C339.1258784 203.25095999999996,337.60955839999997 202.54895999999997,336.8794783999999 201.11687999999998C336.65483839999996 200.55527999999998,336.54251839999995 200.02175999999997,336.54251839999995 199.43207999999998C336.54251839999995 196.37135999999998,339.9682784 192.97367999999997,343.89947839999996 192.77711999999997"></path>
</g>
</g>
<g class="vf-modifiers">
</g>
</g>
<g class="vf-stavenote" id="vf-auto15529">
<g class="vf-note" pointer-events="bounding-box">
<g class="vf-notehead" pointer-events="bounding-box">
<path stroke-width="0.3" fill="#000000" stroke="none" stroke-dasharray="none" d="M369.7712592 197.99999999999997M377.1282192 192.77711999999997C377.2405392 192.77711999999997,377.4090192 192.77711999999997,377.4370992 192.77711999999997C377.4370992 192.77711999999997,377.46517919999997 192.77711999999997,377.46517919999997 192.77711999999997C377.46517919999997 192.77711999999997,377.63365919999995 192.77711999999997,377.77405919999995 192.77711999999997C380.3012592 192.91751999999997,381.78949919999997 194.57423999999997,381.78949919999997 196.65215999999998C381.78949919999997 197.66303999999997,381.4525392 198.81431999999998,380.6101392 199.90943999999996C379.00957919999996 202.07159999999996,376.39813919999995 203.25095999999996,374.12365919999996 203.25095999999996C372.3546192 203.25095999999996,370.8382992 202.54895999999997,370.10821919999995 201.11687999999998C369.8835792 200.55527999999998,369.7712592 200.02175999999997,369.7712592 199.43207999999998C369.7712592 196.37135999999998,373.1970192 192.97367999999997,377.1282192 192.77711999999997"></path>
</g>
</g>
<g class="vf-modifiers">
</g>
</g>
<path stroke-width="1.5" fill="none" stroke="#000000" stroke-dasharray="none" d="M158.61071679999998 197.99999999999997L158.61071679999998 163.74999999999997"></path>
<path stroke-width="1.5" fill="none" stroke="#000000" stroke-dasharray="none" d="M207.04995839999998 197.99999999999997L207.04995839999998 163.74999999999997"></path>
<path stroke-width="1.5" fill="none" stroke="#000000" stroke-dasharray="none" d="M240.27869919999998 197.99999999999997L240.27869919999998 163.74999999999997"></path>
<path stroke-width="0.3" fill="#000000" stroke="none" stroke-dasharray="none" d="M157.86071679999998 162.99999999999997L157.86071679999998 167.99999999999997L240.52869919999998 167.99999999999997L240.52869919999998 162.99999999999997Z"></path>
<path stroke-width="0.3" fill="#000000" stroke="none" stroke-dasharray="none" d="M206.29995839999998 170.49999999999997L206.29995839999998 175.49999999999997L240.52869919999998 175.49999999999997L240.52869919999998 170.49999999999997Z"></path>
<path stroke-width="1.5" fill="none" stroke="#000000" stroke-dasharray="none" d="M299.3715168 197.99999999999997L299.3715168 163.74999999999997"></path>
<path stroke-width="1.5" fill="none" stroke="#000000" stroke-dasharray="none" d="M347.81075839999994 197.99999999999997L347.81075839999994 163.74999999999997"></path>
<path stroke-width="1.5" fill="none" stroke="#000000" stroke-dasharray="none" d="M381.03949919999997 197.99999999999997L381.03949919999997 163.74999999999997"></path>
<path stroke-width="0.3" fill="#000000" stroke="none" stroke-dasharray="none" d="M298.6215168 162.99999999999997L298.6215168 167.99999999999997L381.28949919999997 167.99999999999997L381.28949919999997 162.99999999999997Z"></path>
<path stroke-width="0.3" fill="#000000" stroke="none" stroke-dasharray="none" d="M347.06075839999994 170.49999999999997L347.06075839999994 175.49999999999997L381.28949919999997 175.49999999999997L381.28949919999997 170.49999999999997Z"></path>
<path stroke-width="1" fill="none" stroke="black" stroke-dasharray="none" d="M401.385136384 197.99999999999997L680.791872768 197.99999999999997"></path><rect stroke-width="0.3" fill="black" stroke="black" stroke-dasharray="none" x="675.791872768" y="177.49999999999997" width="1" height="41"></rect><rect stroke-width="0.3" fill="black" stroke="black" stroke-dasharray="none" x="678.791872768" y="177.49999999999997" width="3" height="41"></rect><path stroke-width="0.3" fill="black" stroke="none" stroke-dasharray="none" d="M674.791872768 193.49999999999997 A2 2 0 0 0 670.791872768 193.49999999999997M670.791872768 193.49999999999997 A2 2 0 0 0 674.791872768 193.49999999999997"></path>
<path stroke-width="0.3" fill="black" stroke="none" stroke-dasharray="none" d="M674.791872768 203.49999999999997 A2 2 0 0 0 670.791872768 203.49999999999997M670.791872768 203.49999999999997 A2 2 0 0 0 674.791872768 203.49999999999997"></path><g class="vf-stavenote" id="vf-auto15542"><g class="vf-note" pointer-events="bounding-box"><g class="vf-notehead" pointer-events="bounding-box"><path stroke-width="0.3" fill="#000000" stroke="none" stroke-dasharray="none" d="M444.24921318400004 197.99999999999997M451.60617318400006 192.77711999999997C451.71849318400007 192.77711999999997,451.88697318400006 192.77711999999997,451.91505318400004 192.77711999999997C451.91505318400004 192.77711999999997,451.94313318400003 192.77711999999997,451.94313318400003 192.77711999999997C451.94313318400003 192.77711999999997,452.111613184 192.77711999999997,452.252013184 192.77711999999997C454.779213184 192.91751999999997,456.26745318400003 194.57423999999997,456.26745318400003 196.65215999999998C456.26745318400003 197.66303999999997,455.93049318400006 198.81431999999998,455.08809318400006 199.90943999999996C453.48753318400003 202.07159999999996,450.87609318400007 203.25095999999996,448.60161318400003 203.25095999999996C446.83257318400007 203.25095999999996,445.31625318400006 202.54895999999997,444.586173184 201.11687999999998C444.36153318400005 200.55527999999998,444.24921318400004 200.02175999999997,444.24921318400004 199.43207999999998C444.24921318400004 196.37135999999998,447.67497318400007 192.97367999999997,451.60617318400006 192.77711999999997"></path></g></g><g class="vf-modifiers"><g class="vf-stavenote" id="vf-auto15552"><g class="vf-note" pointer-events="bounding-box"><g class="vf-stem" pointer-events="bounding-box"><path stroke-width="1.5" fill="none" stroke="#000000" stroke-dasharray="none" d="M425.56717478400003 197.99999999999997L425.56717478400003 174.89999999999998"></path></g><g class="vf-notehead" pointer-events="bounding-box"><path stroke-width="0.3" fill="#000000" stroke="none" stroke-dasharray="none" d="M418.385136384 197.99999999999997M423.24072998400004 194.55289919999998C423.314861184 194.55289919999998,423.426057984 194.55289919999998,423.444590784 194.55289919999998C423.444590784 194.55289919999998,423.463123584 194.55289919999998,423.463123584 194.55289919999998C423.463123584 194.55289919999998,423.57432038400003 194.55289919999998,423.66698438400005 194.55289919999998C425.334936384 194.64556319999997,426.31717478400003 195.73899839999996,426.31717478400003 197.11042559999999C426.31717478400003 197.77760639999997,426.094781184 198.53745119999996,425.53879718400003 199.26023039999998C424.482427584 200.68725599999996,422.758877184 201.46563359999996,421.25772038400004 201.46563359999996C420.09015398400004 201.46563359999996,419.089382784 201.00231359999998,418.607529984 200.05714079999998C418.45926758400003 199.68648479999996,418.385136384 199.33436159999997,418.385136384 198.94517279999997C418.385136384 196.92509759999996,420.646137984 194.68262879999997,423.24072998400004 194.55289919999998"></path></g><g class="vf-flag" pointer-events="bounding-box"><path stroke-width="0.3" fill="#000000" stroke="none" stroke-dasharray="none" d="M425.56717478400003 172.89999999999998M425.122387584 175.88378079999998L425.122387584 172.992664L425.19651878400003 172.992664C425.400379584 172.992664,425.530109184 173.12239359999998,425.56717478400003 173.34478719999998C425.95636358400003 175.19806719999997,427.12392998400003 177.21814239999998,428.73628358400003 178.73783199999997C430.533965184 180.42431679999999,431.442072384 182.74091679999998,431.442072384 185.13164799999998C431.442072384 187.39264959999997,430.645161984 189.74631519999997,429.032808384 191.69225919999997C428.75481638400004 192.06291519999996,428.73628358400003 192.06291519999996,428.550955584 192.06291519999996C428.32856198400003 192.06291519999996,428.180299584 191.89611999999997,428.180299584 191.67372639999996C428.180299584 191.50693119999997,428.198832384 191.4698656,428.38416038400004 191.2660048C429.792653184 189.56098719999997,430.496899584 187.5038464,430.496899584 185.5393696C430.496899584 183.7972864,429.94091558400004 182.12933439999998,428.79188198400004 180.86910399999996C428.08763558400005 180.09072639999997,426.79033958400004 179.34941439999997,425.140920384 178.77489759999997C425.140920384 178.75636479999997,425.122387584 178.18184799999997,425.122387584 175.88378079999998"></path></g></g><g class="vf-modifiers"></g></g><path stroke-width="1" fill="none" stroke="#000000" stroke-dasharray="none" d="M419.385136384 189.74999999999997L432.385136384 180.74999999999997Z"></path></g></g><g class="vf-stavenote" id="vf-auto15566"><g class="vf-note" pointer-events="bounding-box"><g class="vf-notehead" pointer-events="bounding-box"><path stroke-width="0.3" fill="#000000" stroke="none" stroke-dasharray="none" d="M488.30805478400003 197.99999999999997M495.66501478400005 192.77711999999997C495.77733478400006 192.77711999999997,495.94581478400005 192.77711999999997,495.97389478400004 192.77711999999997C495.97389478400004 192.77711999999997,496.001974784 192.77711999999997,496.001974784 192.77711999999997C496.001974784 192.77711999999997,496.170454784 192.77711999999997,496.310854784 192.77711999999997C498.83805478400006 192.91751999999997,500.326294784 194.57423999999997,500.326294784 196.65215999999998C500.326294784 197.66303999999997,499.98933478400005 198.81431999999998,499.14693478400005 199.90943999999996C497.546374784 202.07159999999996,494.934934784 203.25095999999996,492.660454784 203.25095999999996C490.89141478400006 203.25095999999996,489.37509478400005 202.54895999999997,488.645014784 201.11687999999998C488.42037478400005 200.55527999999998,488.30805478400003 200.02175999999997,488.30805478400003 199.43207999999998C488.30805478400003 196.37135999999998,491.73381478400006 192.97367999999997,495.66501478400005 192.77711999999997"></path></g></g><g class="vf-modifiers"></g></g><g class="vf-stavenote" id="vf-auto15576"><g class="vf-note" pointer-events="bounding-box"><g class="vf-notehead" pointer-events="bounding-box"><path stroke-width="0.3" fill="#000000" stroke="none" stroke-dasharray="none" d="M519.346595584 197.99999999999997M526.703555584 192.77711999999997C526.8158755840001 192.77711999999997,526.984355584 192.77711999999997,527.0124355840001 192.77711999999997C527.0124355840001 192.77711999999997,527.0405155840001 192.77711999999997,527.0405155840001 192.77711999999997C527.0405155840001 192.77711999999997,527.208995584 192.77711999999997,527.349395584 192.77711999999997C529.876595584 192.91751999999997,531.364835584 194.57423999999997,531.364835584 196.65215999999998C531.364835584 197.66303999999997,531.0278755840001 198.81431999999998,530.1854755840001 199.90943999999996C528.5849155840001 202.07159999999996,525.9734755840001 203.25095999999996,523.698995584 203.25095999999996C521.929955584 203.25095999999996,520.4136355840001 202.54895999999997,519.683555584 201.11687999999998C519.458915584 200.55527999999998,519.346595584 200.02175999999997,519.346595584 199.43207999999998C519.346595584 196.37135999999998,522.772355584 192.97367999999997,526.703555584 192.77711999999997"></path></g></g><g class="vf-modifiers"></g></g><g class="vf-stavenote" id="vf-auto15586"><g class="vf-note" pointer-events="bounding-box"><g class="vf-notehead" pointer-events="bounding-box"><path stroke-width="0.3" fill="#000000" stroke="none" stroke-dasharray="none" d="M576.249213184 197.99999999999997M583.606173184 192.77711999999997C583.7184931840001 192.77711999999997,583.886973184 192.77711999999997,583.915053184 192.77711999999997C583.915053184 192.77711999999997,583.9431331840001 192.77711999999997,583.9431331840001 192.77711999999997C583.9431331840001 192.77711999999997,584.111613184 192.77711999999997,584.252013184 192.77711999999997C586.779213184 192.91751999999997,588.267453184 194.57423999999997,588.267453184 196.65215999999998C588.267453184 197.66303999999997,587.930493184 198.81431999999998,587.0880931840001 199.90943999999996C585.4875331840001 202.07159999999996,582.8760931840001 203.25095999999996,580.601613184 203.25095999999996C578.832573184 203.25095999999996,577.3162531840001 202.54895999999997,576.586173184 201.11687999999998C576.361533184 200.55527999999998,576.249213184 200.02175999999997,576.249213184 199.43207999999998C576.249213184 196.37135999999998,579.674973184 192.97367999999997,583.606173184 192.77711999999997"></path></g></g><g class="vf-modifiers"><g class="vf-stavenote" id="vf-auto15596"><g class="vf-note" pointer-events="bounding-box"><g class="vf-stem" pointer-events="bounding-box"><path stroke-width="1.5" fill="none" stroke="#000000" stroke-dasharray="none" d="M557.567174784 197.99999999999997L557.567174784 174.89999999999998"></path></g><g class="vf-notehead" pointer-events="bounding-box"><path stroke-width="0.3" fill="#000000" stroke="none" stroke-dasharray="none" d="M550.385136384 197.99999999999997M555.240729984 194.55289919999998C555.314861184 194.55289919999998,555.4260579840001 194.55289919999998,555.4445907840001 194.55289919999998C555.4445907840001 194.55289919999998,555.4631235840001 194.55289919999998,555.4631235840001 194.55289919999998C555.4631235840001 194.55289919999998,555.574320384 194.55289919999998,555.666984384 194.55289919999998C557.334936384 194.64556319999997,558.317174784 195.73899839999996,558.317174784 197.11042559999999C558.317174784 197.77760639999997,558.094781184 198.53745119999996,557.538797184 199.26023039999998C556.482427584 200.68725599999996,554.758877184 201.46563359999996,553.257720384 201.46563359999996C552.090153984 201.46563359999996,551.089382784 201.00231359999998,550.607529984 200.05714079999998C550.459267584 199.68648479999996,550.385136384 199.33436159999997,550.385136384 198.94517279999997C550.385136384 196.92509759999996,552.646137984 194.68262879999997,555.240729984 194.55289919999998"></path></g><g class="vf-flag" pointer-events="bounding-box"><path stroke-width="0.3" fill="#000000" stroke="none" stroke-dasharray="none" d="M557.567174784 172.89999999999998M557.1223875840001 175.88378079999998L557.1223875840001 172.992664L557.196518784 172.992664C557.400379584 172.992664,557.530109184 173.12239359999998,557.567174784 173.34478719999998C557.9563635840001 175.19806719999997,559.123929984 177.21814239999998,560.736283584 178.73783199999997C562.5339651840001 180.42431679999999,563.4420723840001 182.74091679999998,563.4420723840001 185.13164799999998C563.4420723840001 187.39264959999997,562.6451619840001 189.74631519999997,561.0328083840001 191.69225919999997C560.754816384 192.06291519999996,560.736283584 192.06291519999996,560.550955584 192.06291519999996C560.328561984 192.06291519999996,560.1802995840001 191.89611999999997,560.1802995840001 191.67372639999996C560.1802995840001 191.50693119999997,560.1988323840001 191.4698656,560.384160384 191.2660048C561.7926531840001 189.56098719999997,562.4968995840001 187.5038464,562.4968995840001 185.5393696C562.4968995840001 183.7972864,561.940915584 182.12933439999998,560.791881984 180.86910399999996C560.087635584 180.09072639999997,558.790339584 179.34941439999997,557.1409203840001 178.77489759999997C557.1409203840001 178.75636479999997,557.1223875840001 178.18184799999997,557.1223875840001 175.88378079999998"></path></g></g><g class="vf-modifiers"></g></g><path stroke-width="1" fill="none" stroke="#000000" stroke-dasharray="none" d="M551.385136384 189.74999999999997L564.385136384 180.74999999999997Z"></path></g></g><g class="vf-stavenote" id="vf-auto15610"><g class="vf-note" pointer-events="bounding-box"><g class="vf-notehead" pointer-events="bounding-box"><path stroke-width="0.3" fill="#000000" stroke="none" stroke-dasharray="none" d="M620.308054784 197.99999999999997M627.6650147839999 192.77711999999997C627.777334784 192.77711999999997,627.9458147839999 192.77711999999997,627.973894784 192.77711999999997C627.973894784 192.77711999999997,628.001974784 192.77711999999997,628.001974784 192.77711999999997C628.001974784 192.77711999999997,628.170454784 192.77711999999997,628.310854784 192.77711999999997C630.838054784 192.91751999999997,632.326294784 194.57423999999997,632.326294784 196.65215999999998C632.326294784 197.66303999999997,631.989334784 198.81431999999998,631.146934784 199.90943999999996C629.546374784 202.07159999999996,626.934934784 203.25095999999996,624.660454784 203.25095999999996C622.891414784 203.25095999999996,621.375094784 202.54895999999997,620.645014784 201.11687999999998C620.4203747839999 200.55527999999998,620.308054784 200.02175999999997,620.308054784 199.43207999999998C620.308054784 196.37135999999998,623.733814784 192.97367999999997,627.6650147839999 192.77711999999997"></path></g></g><g class="vf-modifiers"></g></g><g class="vf-stavenote" id="vf-auto15620"><g class="vf-note" pointer-events="bounding-box"><g class="vf-notehead" pointer-events="bounding-box"><path stroke-width="0.3" fill="#000000" stroke="none" stroke-dasharray="none" d="M651.346595584 197.99999999999997M658.703555584 192.77711999999997C658.8158755840001 192.77711999999997,658.984355584 192.77711999999997,659.0124355840001 192.77711999999997C659.0124355840001 192.77711999999997,659.0405155840001 192.77711999999997,659.0405155840001 192.77711999999997C659.0405155840001 192.77711999999997,659.208995584 192.77711999999997,659.349395584 192.77711999999997C661.876595584 192.91751999999997,663.364835584 194.57423999999997,663.364835584 196.65215999999998C663.364835584 197.66303999999997,663.0278755840001 198.81431999999998,662.1854755840001 199.90943999999996C660.5849155840001 202.07159999999996,657.9734755840001 203.25095999999996,655.698995584 203.25095999999996C653.929955584 203.25095999999996,652.4136355840001 202.54895999999997,651.683555584 201.11687999999998C651.458915584 200.55527999999998,651.346595584 200.02175999999997,651.346595584 199.43207999999998C651.346595584 196.37135999999998,654.772355584 192.97367999999997,658.703555584 192.77711999999997"></path></g></g><g class="vf-modifiers"></g></g><path stroke-width="1.5" fill="none" stroke="#000000" stroke-dasharray="none" d="M455.51745318400003 197.99999999999997L455.51745318400003 163.74999999999997"></path>
<path stroke-width="1.5" fill="none" stroke="#000000" stroke-dasharray="none" d="M499.576294784 197.99999999999997L499.576294784 163.74999999999997"></path>
<path stroke-width="1.5" fill="none" stroke="#000000" stroke-dasharray="none" d="M530.614835584 197.99999999999997L530.614835584 163.74999999999997"></path>
<path stroke-width="0.3" fill="#000000" stroke="none" stroke-dasharray="none" d="M454.76745318400003 162.99999999999997L454.76745318400003 167.99999999999997L530.864835584 167.99999999999997L530.864835584 162.99999999999997Z"></path>
<path stroke-width="0.3" fill="#000000" stroke="none" stroke-dasharray="none" d="M498.826294784 170.49999999999997L498.826294784 175.49999999999997L530.864835584 175.49999999999997L530.864835584 170.49999999999997Z"></path>
<path stroke-width="1.5" fill="none" stroke="#000000" stroke-dasharray="none" d="M587.517453184 197.99999999999997L587.517453184 163.74999999999997"></path>
<path stroke-width="1.5" fill="none" stroke="#000000" stroke-dasharray="none" d="M631.576294784 197.99999999999997L631.576294784 163.74999999999997"></path>
<path stroke-width="1.5" fill="none" stroke="#000000" stroke-dasharray="none" d="M662.614835584 197.99999999999997L662.614835584 163.74999999999997"></path>
<path stroke-width="0.3" fill="#000000" stroke="none" stroke-dasharray="none" d="M586.767453184 162.99999999999997L586.767453184 167.99999999999997L662.864835584 167.99999999999997L662.864835584 162.99999999999997Z"></path>
<path stroke-width="0.3" fill="#000000" stroke="none" stroke-dasharray="none" d="M630.826294784 170.49999999999997L630.826294784 175.49999999999997L662.864835584 175.49999999999997L662.864835584 170.49999999999997Z"></path>
</svg>