<svg width="900" height="100" viewBox="175 135 650 100">
<path stroke-width="1" fill="none" stroke="black" stroke-dasharray="none" d="M50 197.99999999999997L514.2250503679999 197.99999999999997"></path>
<rect stroke-width="0.3" fill="black" stroke="black" stroke-dasharray="none" x="514.2250503679999" y="177.49999999999997" width="1" height="41"></rect>
<path stroke-width="0.3" fill="black" stroke="none" stroke-dasharray="none" d="M55 197.99999999999997M55 197.99999999999997L55 188.00639999999999L57.1888 188.00639999999999L59.4064 188.00639999999999L59.4064 197.99999999999997L59.4064 208.02239999999998L57.1888 208.02239999999998L55 208.02239999999998L55 197.99999999999997M63.870400000000004 198.02879999999996L63.870400000000004 188.00639999999999L66.1168 188.00639999999999L68.3632 188.00639999999999L68.3632 198.02879999999996L68.3632 208.02239999999998L66.1168 208.02239999999998L63.870400000000004 208.02239999999998L63.870400000000004 198.02879999999996"></path>
<path stroke-width="0.3" fill="black" stroke="none" stroke-dasharray="none" d="M96.1296 197.99999999999997M101.80319999999999 179.33759999999998C101.91839999999999 179.33759999999998,102.11999999999999 179.33759999999998,102.3504 179.33759999999998C102.8112 179.33759999999998,103.416 179.33759999999998,103.56 179.39519999999996C105.72 179.65439999999998,107.448 180.74879999999996,108.1968 182.27519999999998C108.45599999999999 182.79359999999997,108.57119999999999 183.34079999999997,108.57119999999999 183.91679999999997C108.57119999999999 185.32799999999997,107.7936 186.94079999999997,106.38239999999999 188.15039999999996C105.4032 188.98559999999998,104.42399999999999 189.50399999999996,102.8976 189.99359999999996C100.9104 190.62719999999996,99.21119999999999 191.75039999999998,98.1168 193.10399999999998C98.1168 193.10399999999998,98.1168 193.13279999999997,98.1168 193.13279999999997C98.1168 193.13279999999997,98.1168 193.13279999999997,98.1168 193.13279999999997C98.1168 193.13279999999997,98.2032 193.10399999999998,98.26079999999999 193.01759999999996C99.3552 192.12479999999996,100.824 191.60639999999998,102.1488 191.60639999999998C103.2432 191.60639999999998,104.0208 191.80799999999996,105.0576 192.38399999999996C105.6912 192.70079999999996,106.2672 192.84479999999996,106.81439999999999 192.84479999999996C107.0448 192.84479999999996,107.2752 192.84479999999996,107.53439999999999 192.78719999999998C107.9088 192.70079999999996,108.312 192.41279999999998,108.45599999999999 192.18239999999997C108.5424 191.98079999999996,108.68639999999999 191.89439999999996,108.8592 191.89439999999996C109.08959999999999 191.89439999999996,109.32 192.06719999999999,109.32 192.32639999999998C109.32 192.52799999999996,109.0608 193.24799999999996,108.8304 193.7376C107.9088 195.58079999999998,106.29599999999999 196.73279999999997,104.7408 196.73279999999997C104.62559999999999 196.73279999999997,104.5392 196.73279999999997,104.42399999999999 196.70399999999998C104.0208 196.70399999999998,103.848 196.58879999999996,103.3296 196.24319999999997C102.23519999999999 195.52319999999997,100.8528 195.14879999999997,99.6432 195.14879999999997C99.1248 195.14879999999997,98.664 195.20639999999997,98.232 195.37919999999997C97.65599999999999 195.58079999999998,97.1088 195.92639999999997,96.93599999999999 196.18559999999997C96.8496 196.38719999999998,96.70559999999999 196.44479999999996,96.5328 196.44479999999996C96.3888 196.44479999999996,96.2448 196.38719999999998,96.1584 196.21439999999998L96.10079999999999 196.128L96.10079999999999 195.72479999999996C96.10079999999999 195.37919999999997,96.1296 195.26399999999998,96.1296 195.14879999999997C96.1584 195.06239999999997,96.18719999999999 194.88959999999997,96.18719999999999 194.74559999999997C96.70559999999999 192.32639999999998,98.4624 190.16639999999998,100.8528 189.10079999999996C102.8112 188.17919999999998,104.10719999999999 186.53759999999997,104.3376 184.46399999999997C104.39519999999999 184.29119999999998,104.39519999999999 184.14719999999997,104.39519999999999 183.97439999999997C104.39519999999999 182.13119999999998,103.0128 180.86399999999998,101.0544 180.86399999999998C100.9104 180.86399999999998,100.7376 180.86399999999998,100.5936 180.86399999999998C100.3056 180.89279999999997,100.2192 180.89279999999997,100.2192 180.95039999999997C100.2192 180.95039999999997,100.2192 180.97919999999996,100.3056 181.03679999999997C100.96799999999999 181.41119999999998,101.28479999999999 182.13119999999998,101.28479999999999 182.82239999999996C101.28479999999999 183.71519999999998,100.824 184.55039999999997,99.93119999999999 184.89599999999996C99.6432 184.98239999999998,99.3552 185.01119999999997,99.1248 185.01119999999997C97.9152 185.01119999999997,96.9072 183.97439999999997,96.9072 182.73599999999996C96.9072 182.50559999999996,96.9072 182.27519999999998,96.9648 182.01599999999996C97.3968 180.69119999999998,99.4416 179.59679999999997,101.80319999999999 179.33759999999998M102.696 198.02879999999996L102.75359999999999 198.02879999999996L102.6672 198.02879999999996L102.696 198.02879999999996M102.696 178.61759999999998L102.75359999999999 178.61759999999998L102.6672 178.61759999999998L102.696 178.61759999999998"></path>
<path stroke-width="0.3" fill="black" stroke="none" stroke-dasharray="none" d="M96 217.99999999999997M101.0112 199.65439999999998C101.04 199.62559999999996,101.4432 199.62559999999996,102.6816 199.62559999999996C103.056 199.62559999999996,103.4592 199.62559999999996,103.9776 199.62559999999996L106.8864 199.62559999999996L106.9728 199.71199999999996C107.1168 199.79839999999996,107.2032 199.94239999999996,107.2032 200.05759999999998C107.2032 200.23039999999997,107.1168 200.34559999999996,107.0016 200.46079999999998C106.9728 200.54719999999998,106.7136 200.77759999999998,106.5408 201.03679999999997L105.0144 202.79359999999997L103.056 205.01119999999997L102.0192 206.19199999999998L100.464 207.97759999999997L98.4192 210.31039999999996C98.0736 210.74239999999998,97.6992 211.08799999999997,97.6992 211.08799999999997C97.6992 211.08799999999997,97.6992 211.08799999999997,97.6992 211.08799999999997C97.6992 211.14559999999997,97.9584 211.14559999999997,100.3488 211.14559999999997L102.9696 211.14559999999997L102.9696 209.27359999999996C102.9696 207.37279999999998,102.9696 207.34399999999997,102.9984 207.31519999999998C103.056 207.22879999999998,103.3152 206.91199999999998,104.3232 205.73119999999997L104.7264 205.29919999999998L105.1296 204.86719999999997L105.7344 204.08959999999996L106.368 203.42719999999997L106.6848 203.02399999999997C106.8 202.85119999999998,106.9728 202.82239999999996,107.1168 202.82239999999996C107.28960000000001 202.82239999999996,107.4336 202.90879999999999,107.52 203.05279999999996C107.5488 203.13919999999996,107.5488 203.19679999999997,107.5488 205.32799999999997C107.5488 205.81759999999997,107.5488 206.42239999999998,107.5488 207.14239999999998L107.5488 211.14559999999997L108.2688 211.14559999999997C108.9312 211.14559999999997,108.96 211.14559999999997,109.0464 211.17439999999996C109.2768 211.26079999999996,109.392 211.49119999999996,109.392 211.75039999999998C109.392 211.89439999999996,109.3632 212.06719999999999,109.248 212.18239999999997C109.0752 212.32639999999998,109.0464 212.32639999999998,108.2688 212.32639999999998L107.5488 212.32639999999998L107.5488 212.81599999999997C107.5776 214.28479999999996,107.8656 214.86079999999998,108.9888 215.46559999999997C109.392 215.66719999999998,109.4784 215.72479999999996,109.4784 216.01279999999997C109.4784 216.21439999999998,109.4208 216.30079999999998,109.2768 216.41599999999997L109.1904 216.44479999999996L105.2448 216.44479999999996L101.328 216.44479999999996L101.2416 216.41599999999997C101.0688 216.30079999999998,101.04 216.21439999999998,101.04 216.01279999999997C101.04 215.72479999999996,101.0688 215.66719999999998,101.5008 215.46559999999997C102.624 214.86079999999998,102.912 214.28479999999996,102.912 212.81599999999997L102.912 212.32639999999998L99.6 212.32639999999998C98.9952 212.38399999999996,98.5056 212.38399999999996,98.1024 212.38399999999996C96.288 212.38399999999996,96.2592 212.32639999999998,96.2304 212.32639999999998C96.0576 212.26879999999997,96 212.09599999999998,96 211.89439999999996C96 211.89439999999996,96 211.89439999999996,96 211.89439999999996C96 211.69279999999998,96 211.69279999999998,96.576 211.0304C98.9952 208.09279999999998,100.6944 203.83039999999997,100.6944 200.43199999999996C100.6944 199.91359999999997,100.7808 199.74079999999998,101.0112 199.65439999999998M102.7392 218.02879999999996L102.768 218.02879999999996L102.6816 218.02879999999996L102.7392 218.02879999999996M102.7392 198.61759999999998L102.768 198.61759999999998L102.6816 198.61759999999998L102.7392 198.61759999999998"></path>
<g class="vf-stavenote" id="vf-auto19557">
<g class="vf-note" pointer-events="bounding-box">
<g class="vf-notehead" pointer-events="bounding-box"><path stroke-width="0.3" fill="#000000" stroke="none" stroke-dasharray="none" d="M147.3424768 197.99999999999997M154.69943679999997 192.77711999999997C154.81175679999998 192.77711999999997,154.9802368 192.77711999999997,155.0083168 192.77711999999997C155.0083168 192.77711999999997,155.03639679999998 192.77711999999997,155.03639679999998 192.77711999999997C155.03639679999998 192.77711999999997,155.2048768 192.77711999999997,155.3452768 192.77711999999997C157.8724768 192.91751999999997,159.36071679999998 194.57423999999997,159.36071679999998 196.65215999999998C159.36071679999998 197.66303999999997,159.0237568 198.81431999999998,158.18135679999997 199.90943999999996C156.58079679999997 202.07159999999996,153.96935679999999 203.25095999999996,151.69487679999997 203.25095999999996C149.92583679999998 203.25095999999996,148.40951679999998 202.54895999999997,147.6794368 201.11687999999998C147.4547968 200.55527999999998,147.3424768 200.02175999999997,147.3424768 199.43207999999998C147.3424768 196.37135999999998,150.76823679999998 192.97367999999997,154.69943679999997 192.77711999999997"></path></g></g>
<g class="vf-modifiers">
<g class="vf-stavenote" id="vf-auto19567">
<g class="vf-note" pointer-events="bounding-box">
<g class="vf-stem" pointer-events="bounding-box"><path stroke-width="1.5" fill="none" stroke="#000000" stroke-dasharray="none" d="M128.6604384 197.99999999999997L128.6604384 174.89999999999998"></path></g>
<g class="vf-notehead" pointer-events="bounding-box"><path stroke-width="0.3" fill="#000000" stroke="none" stroke-dasharray="none" d="M121.4784 197.99999999999997M126.3339936 194.55289919999998C126.4081248 194.55289919999998,126.5193216 194.55289919999998,126.5378544 194.55289919999998C126.5378544 194.55289919999998,126.55638719999999 194.55289919999998,126.55638719999999 194.55289919999998C126.55638719999999 194.55289919999998,126.66758399999999 194.55289919999998,126.76024799999999 194.55289919999998C128.4282 194.64556319999997,129.4104384 195.73899839999996,129.4104384 197.11042559999999C129.4104384 197.77760639999997,129.1880448 198.53745119999996,128.6320608 199.26023039999998C127.5756912 200.68725599999996,125.8521408 201.46563359999996,124.350984 201.46563359999996C123.1834176 201.46563359999996,122.1826464 201.00231359999998,121.7007936 200.05714079999998C121.55253119999999 199.68648479999996,121.4784 199.33436159999997,121.4784 198.94517279999997C121.4784 196.92509759999996,123.7394016 194.68262879999997,126.3339936 194.55289919999998"></path></g>
<g class="vf-flag" pointer-events="bounding-box"><path stroke-width="0.3" fill="#000000" stroke="none" stroke-dasharray="none" d="M128.6604384 172.89999999999998M128.2156512 175.88378079999998L128.2156512 172.992664L128.2897824 172.992664C128.4936432 172.992664,128.6233728 173.12239359999998,128.6604384 173.34478719999998C129.0496272 175.19806719999997,130.2171936 177.21814239999998,131.8295472 178.73783199999997C133.6272288 180.42431679999999,134.535336 182.74091679999998,134.535336 185.13164799999998C134.535336 187.39264959999997,133.7384256 189.74631519999997,132.126072 191.69225919999997C131.84808 192.06291519999996,131.8295472 192.06291519999996,131.6442192 192.06291519999996C131.4218256 192.06291519999996,131.2735632 191.89611999999997,131.2735632 191.67372639999996C131.2735632 191.50693119999997,131.29209600000002 191.4698656,131.477424 191.2660048C132.88591680000002 189.56098719999997,133.5901632 187.5038464,133.5901632 185.5393696C133.5901632 183.7972864,133.0341792 182.12933439999998,131.88514560000002 180.86910399999996C131.1808992 180.09072639999997,129.8836032 179.34941439999997,128.234184 178.77489759999997C128.234184 178.75636479999997,128.2156512 178.18184799999997,128.2156512 175.88378079999998"></path></g></g>
<g class="vf-modifiers"></g></g><path stroke-width="1" fill="none" stroke="#000000" stroke-dasharray="none" d="M122.4784 189.74999999999997L135.4784 180.74999999999997Z"></path></g></g>
<g class="vf-stavenote" id="vf-auto19581">
<g class="vf-note" pointer-events="bounding-box">
<g class="vf-notehead" pointer-events="bounding-box"><path stroke-width="0.3" fill="#000000" stroke="none" stroke-dasharray="none" d="M183.72563839999998 197.99999999999997M191.08259839999997 192.77711999999997C191.19491839999998 192.77711999999997,191.3633984 192.77711999999997,191.39147839999998 192.77711999999997C191.39147839999998 192.77711999999997,191.41955839999997 192.77711999999997,191.41955839999997 192.77711999999997C191.41955839999997 192.77711999999997,191.5880384 192.77711999999997,191.7284384 192.77711999999997C194.25563839999998 192.91751999999997,195.74387839999997 194.57423999999997,195.74387839999997 196.65215999999998C195.74387839999997 197.66303999999997,195.4069184 198.81431999999998,194.56451839999997 199.90943999999996C192.96395839999997 202.07159999999996,190.35251839999998 203.25095999999996,188.07803839999997 203.25095999999996C186.30899839999998 203.25095999999996,184.79267839999997 202.54895999999997,184.06259839999998 201.11687999999998C183.8379584 200.55527999999998,183.72563839999998 200.02175999999997,183.72563839999998 199.43207999999998C183.72563839999998 196.37135999999998,187.15139839999998 192.97367999999997,191.08259839999997 192.77711999999997"></path></g></g>
<g class="vf-modifiers"></g></g>
<g class="vf-stavenote" id="vf-auto19591">
<g class="vf-note" pointer-events="bounding-box">
<g class="vf-notehead" pointer-events="bounding-box"><path stroke-width="0.3" fill="#000000" stroke="none" stroke-dasharray="none" d="M245.9728768 197.99999999999997M253.32983679999998 192.77711999999997C253.4421568 192.77711999999997,253.6106368 192.77711999999997,253.6387168 192.77711999999997C253.6387168 192.77711999999997,253.6667968 192.77711999999997,253.6667968 192.77711999999997C253.6667968 192.77711999999997,253.8352768 192.77711999999997,253.9756768 192.77711999999997C256.50287679999997 192.91751999999997,257.9911168 194.57423999999997,257.9911168 196.65215999999998C257.9911168 197.66303999999997,257.6541568 198.81431999999998,256.8117568 199.90943999999996C255.21119679999998 202.07159999999996,252.5997568 203.25095999999996,250.32527679999998 203.25095999999996C248.5562368 203.25095999999996,247.0399168 202.54895999999997,246.3098368 201.11687999999998C246.0851968 200.55527999999998,245.9728768 200.02175999999997,245.9728768 199.43207999999998C245.9728768 196.37135999999998,249.3986368 192.97367999999997,253.32983679999998 192.77711999999997"></path></g></g>
<g class="vf-modifiers">
<g class="vf-stavenote" id="vf-auto19601">
<g class="vf-note" pointer-events="bounding-box">
<g class="vf-stem" pointer-events="bounding-box"><path stroke-width="1.5" fill="none" stroke="#000000" stroke-dasharray="none" d="M227.2908384 197.99999999999997L227.2908384 174.89999999999998"></path></g>
<g class="vf-notehead" pointer-events="bounding-box"><path stroke-width="0.3" fill="#000000" stroke="none" stroke-dasharray="none" d="M220.1088 197.99999999999997M224.9643936 194.55289919999998C225.0385248 194.55289919999998,225.1497216 194.55289919999998,225.1682544 194.55289919999998C225.1682544 194.55289919999998,225.1867872 194.55289919999998,225.1867872 194.55289919999998C225.1867872 194.55289919999998,225.297984 194.55289919999998,225.390648 194.55289919999998C227.0586 194.64556319999997,228.0408384 195.73899839999996,228.0408384 197.11042559999999C228.0408384 197.77760639999997,227.8184448 198.53745119999996,227.2624608 199.26023039999998C226.2060912 200.68725599999996,224.4825408 201.46563359999996,222.981384 201.46563359999996C221.8138176 201.46563359999996,220.8130464 201.00231359999998,220.3311936 200.05714079999998C220.1829312 199.68648479999996,220.1088 199.33436159999997,220.1088 198.94517279999997C220.1088 196.92509759999996,222.36980160000002 194.68262879999997,224.9643936 194.55289919999998"></path></g>
<g class="vf-flag" pointer-events="bounding-box"><path stroke-width="0.3" fill="#000000" stroke="none" stroke-dasharray="none" d="M227.2908384 172.89999999999998M226.8460512 175.88378079999998L226.8460512 172.992664L226.92018240000002 172.992664C227.12404320000002 172.992664,227.2537728 173.12239359999998,227.2908384 173.34478719999998C227.6800272 175.19806719999997,228.8475936 177.21814239999998,230.45994720000002 178.73783199999997C232.25762880000002 180.42431679999999,233.165736 182.74091679999998,233.165736 185.13164799999998C233.165736 187.39264959999997,232.3688256 189.74631519999997,230.756472 191.69225919999997C230.47848000000002 192.06291519999996,230.45994720000002 192.06291519999996,230.27461920000002 192.06291519999996C230.0522256 192.06291519999996,229.90396320000002 191.89611999999997,229.90396320000002 191.67372639999996C229.90396320000002 191.50693119999997,229.92249600000002 191.4698656,230.10782400000002 191.2660048C231.51631680000003 189.56098719999997,232.22056320000002 187.5038464,232.22056320000002 185.5393696C232.22056320000002 183.7972864,231.66457920000002 182.12933439999998,230.51554560000002 180.86910399999996C229.8112992 180.09072639999997,228.51400320000002 179.34941439999997,226.864584 178.77489759999997C226.864584 178.75636479999997,226.8460512 178.18184799999997,226.8460512 175.88378079999998"></path></g></g>
<g class="vf-modifiers"></g></g><path stroke-width="1" fill="none" stroke="#000000" stroke-dasharray="none" d="M221.1088 189.74999999999997L234.1088 180.74999999999997Z"></path></g></g>
<g class="vf-stavenote" id="vf-auto19615">
<g class="vf-note" pointer-events="bounding-box">
<g class="vf-notehead" pointer-events="bounding-box"><path stroke-width="0.3" fill="#000000" stroke="none" stroke-dasharray="none" d="M282.3560384 197.99999999999997M289.7129984 192.77711999999997C289.8253184 192.77711999999997,289.9937984 192.77711999999997,290.0218784 192.77711999999997C290.0218784 192.77711999999997,290.0499584 192.77711999999997,290.0499584 192.77711999999997C290.0499584 192.77711999999997,290.21843839999997 192.77711999999997,290.35883839999997 192.77711999999997C292.88603839999996 192.91751999999997,294.3742784 194.57423999999997,294.3742784 196.65215999999998C294.3742784 197.66303999999997,294.0373184 198.81431999999998,293.1949184 199.90943999999996C291.5943584 202.07159999999996,288.9829184 203.25095999999996,286.7084384 203.25095999999996C284.9393984 203.25095999999996,283.4230784 202.54895999999997,282.69299839999996 201.11687999999998C282.4683584 200.55527999999998,282.3560384 200.02175999999997,282.3560384 199.43207999999998C282.3560384 196.37135999999998,285.7817984 192.97367999999997,289.7129984 192.77711999999997"></path></g></g>
<g class="vf-modifiers"></g></g>
<g class="vf-stavenote" id="vf-auto19625">
<g class="vf-note" pointer-events="bounding-box">
<g class="vf-notehead" pointer-events="bounding-box"><path stroke-width="0.3" fill="#000000" stroke="none" stroke-dasharray="none" d="M344.6032768 197.99999999999997M351.9602368 192.77711999999997C352.07255680000003 192.77711999999997,352.2410368 192.77711999999997,352.2691168 192.77711999999997C352.2691168 192.77711999999997,352.2971968 192.77711999999997,352.2971968 192.77711999999997C352.2971968 192.77711999999997,352.4656768 192.77711999999997,352.6060768 192.77711999999997C355.1332768 192.91751999999997,356.6215168 194.57423999999997,356.6215168 196.65215999999998C356.6215168 197.66303999999997,356.2845568 198.81431999999998,355.4421568 199.90943999999996C353.8415968 202.07159999999996,351.23015680000003 203.25095999999996,348.9556768 203.25095999999996C347.18663680000003 203.25095999999996,345.6703168 202.54895999999997,344.9402368 201.11687999999998C344.7155968 200.55527999999998,344.6032768 200.02175999999997,344.6032768 199.43207999999998C344.6032768 196.37135999999998,348.02903680000003 192.97367999999997,351.9602368 192.77711999999997"></path></g></g>
<g class="vf-modifiers">
<g class="vf-stavenote" id="vf-auto19635">
<g class="vf-note" pointer-events="bounding-box">
<g class="vf-stem" pointer-events="bounding-box"><path stroke-width="1.5" fill="none" stroke="#000000" stroke-dasharray="none" d="M325.9212384 197.99999999999997L325.9212384 174.89999999999998"></path></g>
<g class="vf-notehead" pointer-events="bounding-box"><path stroke-width="0.3" fill="#000000" stroke="none" stroke-dasharray="none" d="M318.7392 197.99999999999997M323.5947936 194.55289919999998C323.66892479999996 194.55289919999998,323.7801216 194.55289919999998,323.7986544 194.55289919999998C323.7986544 194.55289919999998,323.8171872 194.55289919999998,323.8171872 194.55289919999998C323.8171872 194.55289919999998,323.928384 194.55289919999998,324.021048 194.55289919999998C325.68899999999996 194.64556319999997,326.6712384 195.73899839999996,326.6712384 197.11042559999999C326.6712384 197.77760639999997,326.44884479999996 198.53745119999996,325.8928608 199.26023039999998C324.83649119999995 200.68725599999996,323.1129408 201.46563359999996,321.611784 201.46563359999996C320.4442176 201.46563359999996,319.44344639999997 201.00231359999998,318.96159359999996 200.05714079999998C318.8133312 199.68648479999996,318.7392 199.33436159999997,318.7392 198.94517279999997C318.7392 196.92509759999996,321.00020159999997 194.68262879999997,323.5947936 194.55289919999998"></path></g>
<g class="vf-flag" pointer-events="bounding-box"><path stroke-width="0.3" fill="#000000" stroke="none" stroke-dasharray="none" d="M325.9212384 172.89999999999998M325.4764512 175.88378079999998L325.4764512 172.992664L325.5505824 172.992664C325.75444319999997 172.992664,325.8841728 173.12239359999998,325.9212384 173.34478719999998C326.3104272 175.19806719999997,327.4779936 177.21814239999998,329.0903472 178.73783199999997C330.8880288 180.42431679999999,331.796136 182.74091679999998,331.796136 185.13164799999998C331.796136 187.39264959999997,330.9992256 189.74631519999997,329.386872 191.69225919999997C329.10888 192.06291519999996,329.0903472 192.06291519999996,328.90501919999997 192.06291519999996C328.6826256 192.06291519999996,328.5343632 191.89611999999997,328.5343632 191.67372639999996C328.5343632 191.50693119999997,328.552896 191.4698656,328.738224 191.2660048C330.1467168 189.56098719999997,330.85096319999997 187.5038464,330.85096319999997 185.5393696C330.85096319999997 183.7972864,330.2949792 182.12933439999998,329.1459456 180.86910399999996C328.4416992 180.09072639999997,327.1444032 179.34941439999997,325.494984 178.77489759999997C325.494984 178.75636479999997,325.4764512 178.18184799999997,325.4764512 175.88378079999998"></path></g></g>
<g class="vf-modifiers"></g></g><path stroke-width="1" fill="none" stroke="#000000" stroke-dasharray="none" d="M319.7392 189.74999999999997L332.7392 180.74999999999997Z"></path></g></g>
<g class="vf-stavenote" id="vf-auto19649">
<g class="vf-note" pointer-events="bounding-box">
<g class="vf-notehead" pointer-events="bounding-box"><path stroke-width="0.3" fill="#000000" stroke="none" stroke-dasharray="none" d="M380.9864384 197.99999999999997M388.3433984 192.77711999999997C388.4557184 192.77711999999997,388.6241984 192.77711999999997,388.6522784 192.77711999999997C388.6522784 192.77711999999997,388.6803584 192.77711999999997,388.6803584 192.77711999999997C388.6803584 192.77711999999997,388.8488384 192.77711999999997,388.9892384 192.77711999999997C391.51643839999997 192.91751999999997,393.0046784 194.57423999999997,393.0046784 196.65215999999998C393.0046784 197.66303999999997,392.6677184 198.81431999999998,391.8253184 199.90943999999996C390.2247584 202.07159999999996,387.6133184 203.25095999999996,385.3388384 203.25095999999996C383.5697984 203.25095999999996,382.0534784 202.54895999999997,381.3233984 201.11687999999998C381.0987584 200.55527999999998,380.9864384 200.02175999999997,380.9864384 199.43207999999998C380.9864384 196.37135999999998,384.4121984 192.97367999999997,388.3433984 192.77711999999997"></path></g></g>
<g class="vf-modifiers"></g></g>
<g class="vf-stavenote" id="vf-auto19659">
<g class="vf-note" pointer-events="bounding-box">
<g class="vf-notehead" pointer-events="bounding-box"><path stroke-width="0.3" fill="#000000" stroke="none" stroke-dasharray="none" d="M443.2336768 197.99999999999997M450.5906368 192.77711999999997C450.70295680000004 192.77711999999997,450.8714368 192.77711999999997,450.8995168 192.77711999999997C450.8995168 192.77711999999997,450.9275968 192.77711999999997,450.9275968 192.77711999999997C450.9275968 192.77711999999997,451.0960768 192.77711999999997,451.2364768 192.77711999999997C453.7636768 192.91751999999997,455.2519168 194.57423999999997,455.2519168 196.65215999999998C455.2519168 197.66303999999997,454.9149568 198.81431999999998,454.07255680000003 199.90943999999996C452.4719968 202.07159999999996,449.86055680000004 203.25095999999996,447.5860768 203.25095999999996C445.81703680000004 203.25095999999996,444.30071680000003 202.54895999999997,443.5706368 201.11687999999998C443.3459968 200.55527999999998,443.2336768 200.02175999999997,443.2336768 199.43207999999998C443.2336768 196.37135999999998,446.65943680000004 192.97367999999997,450.5906368 192.77711999999997"></path></g></g>
<g class="vf-modifiers">
<g class="vf-stavenote" id="vf-auto19669">
<g class="vf-note" pointer-events="bounding-box">
<g class="vf-stem" pointer-events="bounding-box"><path stroke-width="1.5" fill="none" stroke="#000000" stroke-dasharray="none" d="M424.5516384 197.99999999999997L424.5516384 174.89999999999998"></path></g>
<g class="vf-notehead" pointer-events="bounding-box"><path stroke-width="0.3" fill="#000000" stroke="none" stroke-dasharray="none" d="M417.3696 197.99999999999997M422.2251936 194.55289919999998C422.29932479999997 194.55289919999998,422.4105216 194.55289919999998,422.4290544 194.55289919999998C422.4290544 194.55289919999998,422.4475872 194.55289919999998,422.4475872 194.55289919999998C422.4475872 194.55289919999998,422.558784 194.55289919999998,422.651448 194.55289919999998C424.3194 194.64556319999997,425.3016384 195.73899839999996,425.3016384 197.11042559999999C425.3016384 197.77760639999997,425.07924479999997 198.53745119999996,424.5232608 199.26023039999998C423.46689119999996 200.68725599999996,421.7433408 201.46563359999996,420.242184 201.46563359999996C419.0746176 201.46563359999996,418.0738464 201.00231359999998,417.59199359999997 200.05714079999998C417.4437312 199.68648479999996,417.3696 199.33436159999997,417.3696 198.94517279999997C417.3696 196.92509759999996,419.6306016 194.68262879999997,422.2251936 194.55289919999998"></path></g>
<g class="vf-flag" pointer-events="bounding-box"><path stroke-width="0.3" fill="#000000" stroke="none" stroke-dasharray="none" d="M424.5516384 172.89999999999998M424.1068512 175.88378079999998L424.1068512 172.992664L424.1809824 172.992664C424.3848432 172.992664,424.5145728 173.12239359999998,424.5516384 173.34478719999998C424.9408272 175.19806719999997,426.1083936 177.21814239999998,427.7207472 178.73783199999997C429.5184288 180.42431679999999,430.426536 182.74091679999998,430.426536 185.13164799999998C430.426536 187.39264959999997,429.6296256 189.74631519999997,428.017272 191.69225919999997C427.73928 192.06291519999996,427.7207472 192.06291519999996,427.5354192 192.06291519999996C427.3130256 192.06291519999996,427.1647632 191.89611999999997,427.1647632 191.67372639999996C427.1647632 191.50693119999997,427.183296 191.4698656,427.368624 191.2660048C428.7771168 189.56098719999997,429.4813632 187.5038464,429.4813632 185.5393696C429.4813632 183.7972864,428.9253792 182.12933439999998,427.7763456 180.86910399999996C427.0720992 180.09072639999997,425.7748032 179.34941439999997,424.125384 178.77489759999997C424.125384 178.75636479999997,424.1068512 178.18184799999997,424.1068512 175.88378079999998"></path></g></g>
<g class="vf-modifiers"></g></g><path stroke-width="1" fill="none" stroke="#000000" stroke-dasharray="none" d="M418.3696 189.74999999999997L431.3696 180.74999999999997Z"></path></g></g>
<g class="vf-stavenote" id="vf-auto19683">
<g class="vf-note" pointer-events="bounding-box">
<g class="vf-notehead" pointer-events="bounding-box"><path stroke-width="0.3" fill="#000000" stroke="none" stroke-dasharray="none" d="M479.6168384 197.99999999999997M486.9737984 192.77711999999997C487.08611840000003 192.77711999999997,487.2545984 192.77711999999997,487.2826784 192.77711999999997C487.2826784 192.77711999999997,487.3107584 192.77711999999997,487.3107584 192.77711999999997C487.3107584 192.77711999999997,487.4792384 192.77711999999997,487.6196384 192.77711999999997C490.1468384 192.91751999999997,491.6350784 194.57423999999997,491.6350784 196.65215999999998C491.6350784 197.66303999999997,491.2981184 198.81431999999998,490.4557184 199.90943999999996C488.8551584 202.07159999999996,486.24371840000003 203.25095999999996,483.9692384 203.25095999999996C482.20019840000003 203.25095999999996,480.6838784 202.54895999999997,479.9537984 201.11687999999998C479.7291584 200.55527999999998,479.6168384 200.02175999999997,479.6168384 199.43207999999998C479.6168384 196.37135999999998,483.04259840000003 192.97367999999997,486.9737984 192.77711999999997"></path></g></g>
<g class="vf-modifiers"></g></g><path stroke-width="1.5" fill="none" stroke="#000000" stroke-dasharray="none" d="M158.61071679999998 197.99999999999997L158.61071679999998 163.74999999999997"></path>
<path stroke-width="1.5" fill="none" stroke="#000000" stroke-dasharray="none" d="M194.99387839999997 197.99999999999997L194.99387839999997 163.74999999999997"></path>
<path stroke-width="1.5" fill="none" stroke="#000000" stroke-dasharray="none" d="M257.2411168 197.99999999999997L257.2411168 163.74999999999997"></path>
<path stroke-width="1.5" fill="none" stroke="#000000" stroke-dasharray="none" d="M293.6242784 197.99999999999997L293.6242784 163.74999999999997"></path>
<path stroke-width="0.3" fill="#000000" stroke="none" stroke-dasharray="none" d="M157.86071679999998 162.99999999999997L157.86071679999998 167.99999999999997L293.8742784 167.99999999999997L293.8742784 162.99999999999997Z"></path>
<path stroke-width="0.3" fill="#000000" stroke="none" stroke-dasharray="none" d="M157.86071679999998 170.49999999999997L157.86071679999998 175.49999999999997L293.8742784 175.49999999999997L293.8742784 170.49999999999997Z"></path>
<path stroke-width="1.5" fill="none" stroke="#000000" stroke-dasharray="none" d="M355.8715168 197.99999999999997L355.8715168 163.74999999999997"></path>
<path stroke-width="1.5" fill="none" stroke="#000000" stroke-dasharray="none" d="M392.2546784 197.99999999999997L392.2546784 163.74999999999997"></path>
<path stroke-width="1.5" fill="none" stroke="#000000" stroke-dasharray="none" d="M454.5019168 197.99999999999997L454.5019168 163.74999999999997"></path>
<path stroke-width="1.5" fill="none" stroke="#000000" stroke-dasharray="none" d="M490.8850784 197.99999999999997L490.8850784 163.74999999999997"></path>
<path stroke-width="0.3" fill="#000000" stroke="none" stroke-dasharray="none" d="M355.1215168 162.99999999999997L355.1215168 167.99999999999997L491.1350784 167.99999999999997L491.1350784 162.99999999999997Z"></path>
<path stroke-width="0.3" fill="#000000" stroke="none" stroke-dasharray="none" d="M355.1215168 170.49999999999997L355.1215168 175.49999999999997L491.1350784 175.49999999999997L491.1350784 170.49999999999997Z"></path>
<path stroke-width="1" fill="none" stroke="black" stroke-dasharray="none" d="M514.2250503679999 197.99999999999997L906.4717007359998 197.99999999999997"></path><rect stroke-width="0.3" fill="black" stroke="black" stroke-dasharray="none" x="901.4717007359998" y="177.49999999999997" width="1" height="41"></rect><rect stroke-width="0.3" fill="black" stroke="black" stroke-dasharray="none" x="904.4717007359998" y="177.49999999999997" width="3" height="41"></rect><path stroke-width="0.3" fill="black" stroke="none" stroke-dasharray="none" d="M900.4717007359998 193.49999999999997 A2 2 0 0 0 896.4717007359998 193.49999999999997M896.4717007359998 193.49999999999997 A2 2 0 0 0 900.4717007359998 193.49999999999997"></path>
<path stroke-width="0.3" fill="black" stroke="none" stroke-dasharray="none" d="M900.4717007359998 203.49999999999997 A2 2 0 0 0 896.4717007359998 203.49999999999997M896.4717007359998 203.49999999999997 A2 2 0 0 0 900.4717007359998 203.49999999999997"></path>
<g class="vf-stavenote" id="vf-auto19696">
<g class="vf-note" pointer-events="bounding-box">
<g class="vf-notehead" pointer-events="bounding-box"><path stroke-width="0.3" fill="#000000" stroke="none" stroke-dasharray="none" d="M557.0891271679999 197.99999999999997M564.4460871679998 192.77711999999997C564.5584071679999 192.77711999999997,564.7268871679998 192.77711999999997,564.7549671679999 192.77711999999997C564.7549671679999 192.77711999999997,564.7830471679999 192.77711999999997,564.7830471679999 192.77711999999997C564.7830471679999 192.77711999999997,564.9515271679999 192.77711999999997,565.0919271679999 192.77711999999997C567.6191271679999 192.91751999999997,569.1073671679999 194.57423999999997,569.1073671679999 196.65215999999998C569.1073671679999 197.66303999999997,568.7704071679999 198.81431999999998,567.9280071679999 199.90943999999996C566.3274471679999 202.07159999999996,563.7160071679999 203.25095999999996,561.4415271679999 203.25095999999996C559.6724871679999 203.25095999999996,558.1561671679999 202.54895999999997,557.4260871679999 201.11687999999998C557.2014471679998 200.55527999999998,557.0891271679999 200.02175999999997,557.0891271679999 199.43207999999998C557.0891271679999 196.37135999999998,560.5148871679999 192.97367999999997,564.4460871679998 192.77711999999997"></path></g></g>
<g class="vf-modifiers">
<g class="vf-stavenote" id="vf-auto19706">
<g class="vf-note" pointer-events="bounding-box">
<g class="vf-stem" pointer-events="bounding-box"><path stroke-width="1.5" fill="none" stroke="#000000" stroke-dasharray="none" d="M538.4070887679999 197.99999999999997L538.4070887679999 174.89999999999998"></path></g>
<g class="vf-notehead" pointer-events="bounding-box"><path stroke-width="0.3" fill="#000000" stroke="none" stroke-dasharray="none" d="M531.2250503679999 197.99999999999997M536.0806439679999 194.55289919999998C536.1547751679999 194.55289919999998,536.2659719679999 194.55289919999998,536.2845047679999 194.55289919999998C536.2845047679999 194.55289919999998,536.3030375679999 194.55289919999998,536.3030375679999 194.55289919999998C536.3030375679999 194.55289919999998,536.4142343679998 194.55289919999998,536.5068983679998 194.55289919999998C538.1748503679999 194.64556319999997,539.1570887679999 195.73899839999996,539.1570887679999 197.11042559999999C539.1570887679999 197.77760639999997,538.9346951679998 198.53745119999996,538.3787111679999 199.26023039999998C537.3223415679998 200.68725599999996,535.5987911679998 201.46563359999996,534.0976343679998 201.46563359999996C532.9300679679999 201.46563359999996,531.9292967679999 201.00231359999998,531.4474439679999 200.05714079999998C531.2991815679999 199.68648479999996,531.2250503679999 199.33436159999997,531.2250503679999 198.94517279999997C531.2250503679999 196.92509759999996,533.4860519679999 194.68262879999997,536.0806439679999 194.55289919999998"></path></g>
<g class="vf-flag" pointer-events="bounding-box"><path stroke-width="0.3" fill="#000000" stroke="none" stroke-dasharray="none" d="M538.4070887679999 172.89999999999998M537.9623015679999 175.88378079999998L537.9623015679999 172.992664L538.0364327679998 172.992664C538.2402935679999 172.992664,538.3700231679999 173.12239359999998,538.4070887679999 173.34478719999998C538.7962775679999 175.19806719999997,539.9638439679999 177.21814239999998,541.5761975679999 178.73783199999997C543.3738791679999 180.42431679999999,544.2819863679999 182.74091679999998,544.2819863679999 185.13164799999998C544.2819863679999 187.39264959999997,543.4850759679999 189.74631519999997,541.8727223679999 191.69225919999997C541.5947303679999 192.06291519999996,541.5761975679999 192.06291519999996,541.3908695679999 192.06291519999996C541.1684759679998 192.06291519999996,541.0202135679999 191.89611999999997,541.0202135679999 191.67372639999996C541.0202135679999 191.50693119999997,541.0387463679999 191.4698656,541.2240743679998 191.2660048C542.6325671679999 189.56098719999997,543.3368135679999 187.5038464,543.3368135679999 185.5393696C543.3368135679999 183.7972864,542.7808295679998 182.12933439999998,541.6317959679999 180.86910399999996C540.9275495679999 180.09072639999997,539.6302535679998 179.34941439999997,537.9808343679999 178.77489759999997C537.9808343679999 178.75636479999997,537.9623015679999 178.18184799999997,537.9623015679999 175.88378079999998"></path></g></g>
<g class="vf-modifiers"></g></g><path stroke-width="1" fill="none" stroke="#000000" stroke-dasharray="none" d="M532.2250503679999 189.74999999999997L545.2250503679999 180.74999999999997Z"></path></g></g>
<g class="vf-stavenote" id="vf-auto19720">
<g class="vf-note" pointer-events="bounding-box">
<g class="vf-notehead" pointer-events="bounding-box"><path stroke-width="0.3" fill="#000000" stroke="none" stroke-dasharray="none" d="M591.2820887679999 197.99999999999997M598.6390487679998 192.77711999999997C598.7513687679999 192.77711999999997,598.9198487679998 192.77711999999997,598.9479287679999 192.77711999999997C598.9479287679999 192.77711999999997,598.9760087679999 192.77711999999997,598.9760087679999 192.77711999999997C598.9760087679999 192.77711999999997,599.1444887679999 192.77711999999997,599.2848887679999 192.77711999999997C601.8120887679999 192.91751999999997,603.3003287679999 194.57423999999997,603.3003287679999 196.65215999999998C603.3003287679999 197.66303999999997,602.9633687679999 198.81431999999998,602.1209687679999 199.90943999999996C600.5204087679999 202.07159999999996,597.9089687679999 203.25095999999996,595.6344887679999 203.25095999999996C593.8654487679999 203.25095999999996,592.3491287679999 202.54895999999997,591.6190487679999 201.11687999999998C591.3944087679998 200.55527999999998,591.2820887679999 200.02175999999997,591.2820887679999 199.43207999999998C591.2820887679999 196.37135999999998,594.7078487679998 192.97367999999997,598.6390487679998 192.77711999999997"></path></g></g>
<g class="vf-modifiers"></g></g>
<g class="vf-stavenote" id="vf-auto19730">
<g class="vf-note" pointer-events="bounding-box">
<g class="vf-notehead" pointer-events="bounding-box"><path stroke-width="0.3" fill="#000000" stroke="none" stroke-dasharray="none" d="M651.3391271679999 197.99999999999997M658.6960871679998 192.77711999999997C658.8084071679999 192.77711999999997,658.9768871679998 192.77711999999997,659.0049671679999 192.77711999999997C659.0049671679999 192.77711999999997,659.0330471679999 192.77711999999997,659.0330471679999 192.77711999999997C659.0330471679999 192.77711999999997,659.2015271679999 192.77711999999997,659.3419271679999 192.77711999999997C661.8691271679999 192.91751999999997,663.3573671679999 194.57423999999997,663.3573671679999 196.65215999999998C663.3573671679999 197.66303999999997,663.0204071679999 198.81431999999998,662.1780071679999 199.90943999999996C660.5774471679999 202.07159999999996,657.9660071679999 203.25095999999996,655.6915271679999 203.25095999999996C653.9224871679999 203.25095999999996,652.4061671679999 202.54895999999997,651.6760871679999 201.11687999999998C651.4514471679998 200.55527999999998,651.3391271679999 200.02175999999997,651.3391271679999 199.43207999999998C651.3391271679999 196.37135999999998,654.7648871679999 192.97367999999997,658.6960871679998 192.77711999999997"></path></g></g>
<g class="vf-modifiers">
<g class="vf-stavenote" id="vf-auto19740">
<g class="vf-note" pointer-events="bounding-box">
<g class="vf-stem" pointer-events="bounding-box"><path stroke-width="1.5" fill="none" stroke="#000000" stroke-dasharray="none" d="M632.6570887679999 197.99999999999997L632.6570887679999 174.89999999999998"></path></g>
<g class="vf-notehead" pointer-events="bounding-box"><path stroke-width="0.3" fill="#000000" stroke="none" stroke-dasharray="none" d="M625.4750503679999 197.99999999999997M630.3306439679999 194.55289919999998C630.4047751679999 194.55289919999998,630.5159719679999 194.55289919999998,630.5345047679999 194.55289919999998C630.5345047679999 194.55289919999998,630.5530375679999 194.55289919999998,630.5530375679999 194.55289919999998C630.5530375679999 194.55289919999998,630.6642343679998 194.55289919999998,630.7568983679998 194.55289919999998C632.4248503679999 194.64556319999997,633.4070887679999 195.73899839999996,633.4070887679999 197.11042559999999C633.4070887679999 197.77760639999997,633.1846951679998 198.53745119999996,632.6287111679999 199.26023039999998C631.5723415679998 200.68725599999996,629.8487911679998 201.46563359999996,628.3476343679998 201.46563359999996C627.1800679679999 201.46563359999996,626.1792967679999 201.00231359999998,625.6974439679999 200.05714079999998C625.5491815679999 199.68648479999996,625.4750503679999 199.33436159999997,625.4750503679999 198.94517279999997C625.4750503679999 196.92509759999996,627.7360519679999 194.68262879999997,630.3306439679999 194.55289919999998"></path></g>
<g class="vf-flag" pointer-events="bounding-box"><path stroke-width="0.3" fill="#000000" stroke="none" stroke-dasharray="none" d="M632.6570887679999 172.89999999999998M632.2123015679999 175.88378079999998L632.2123015679999 172.992664L632.2864327679998 172.992664C632.4902935679999 172.992664,632.6200231679999 173.12239359999998,632.6570887679999 173.34478719999998C633.0462775679999 175.19806719999997,634.2138439679999 177.21814239999998,635.8261975679999 178.73783199999997C637.6238791679999 180.42431679999999,638.5319863679999 182.74091679999998,638.5319863679999 185.13164799999998C638.5319863679999 187.39264959999997,637.7350759679999 189.74631519999997,636.1227223679999 191.69225919999997C635.8447303679999 192.06291519999996,635.8261975679999 192.06291519999996,635.6408695679999 192.06291519999996C635.4184759679998 192.06291519999996,635.2702135679999 191.89611999999997,635.2702135679999 191.67372639999996C635.2702135679999 191.50693119999997,635.2887463679999 191.4698656,635.4740743679998 191.2660048C636.8825671679999 189.56098719999997,637.5868135679999 187.5038464,637.5868135679999 185.5393696C637.5868135679999 183.7972864,637.0308295679998 182.12933439999998,635.8817959679999 180.86910399999996C635.1775495679999 180.09072639999997,633.8802535679998 179.34941439999997,632.2308343679999 178.77489759999997C632.2308343679999 178.75636479999997,632.2123015679999 178.18184799999997,632.2123015679999 175.88378079999998"></path></g></g>
<g class="vf-modifiers"></g></g><path stroke-width="1" fill="none" stroke="#000000" stroke-dasharray="none" d="M626.4750503679999 189.74999999999997L639.4750503679999 180.74999999999997Z"></path></g></g>
<g class="vf-stavenote" id="vf-auto19754">
<g class="vf-note" pointer-events="bounding-box">
<g class="vf-notehead" pointer-events="bounding-box"><path stroke-width="0.3" fill="#000000" stroke="none" stroke-dasharray="none" d="M685.5320887679999 197.99999999999997M692.8890487679998 192.77711999999997C693.0013687679999 192.77711999999997,693.1698487679998 192.77711999999997,693.1979287679999 192.77711999999997C693.1979287679999 192.77711999999997,693.2260087679999 192.77711999999997,693.2260087679999 192.77711999999997C693.2260087679999 192.77711999999997,693.3944887679999 192.77711999999997,693.5348887679999 192.77711999999997C696.0620887679999 192.91751999999997,697.5503287679999 194.57423999999997,697.5503287679999 196.65215999999998C697.5503287679999 197.66303999999997,697.2133687679999 198.81431999999998,696.3709687679999 199.90943999999996C694.7704087679999 202.07159999999996,692.1589687679999 203.25095999999996,689.8844887679999 203.25095999999996C688.1154487679999 203.25095999999996,686.5991287679999 202.54895999999997,685.8690487679999 201.11687999999998C685.6444087679998 200.55527999999998,685.5320887679999 200.02175999999997,685.5320887679999 199.43207999999998C685.5320887679999 196.37135999999998,688.9578487679998 192.97367999999997,692.8890487679998 192.77711999999997"></path></g></g>
<g class="vf-modifiers"></g></g>
<g class="vf-stavenote" id="vf-auto19764">
<g class="vf-note" pointer-events="bounding-box">
<g class="vf-notehead" pointer-events="bounding-box"><path stroke-width="0.3" fill="#000000" stroke="none" stroke-dasharray="none" d="M745.5891271679999 197.99999999999997M752.9460871679998 192.77711999999997C753.0584071679999 192.77711999999997,753.2268871679998 192.77711999999997,753.2549671679999 192.77711999999997C753.2549671679999 192.77711999999997,753.2830471679999 192.77711999999997,753.2830471679999 192.77711999999997C753.2830471679999 192.77711999999997,753.4515271679999 192.77711999999997,753.5919271679999 192.77711999999997C756.1191271679999 192.91751999999997,757.6073671679999 194.57423999999997,757.6073671679999 196.65215999999998C757.6073671679999 197.66303999999997,757.2704071679999 198.81431999999998,756.4280071679999 199.90943999999996C754.8274471679999 202.07159999999996,752.2160071679999 203.25095999999996,749.9415271679999 203.25095999999996C748.1724871679999 203.25095999999996,746.6561671679999 202.54895999999997,745.9260871679999 201.11687999999998C745.7014471679998 200.55527999999998,745.5891271679999 200.02175999999997,745.5891271679999 199.43207999999998C745.5891271679999 196.37135999999998,749.0148871679999 192.97367999999997,752.9460871679998 192.77711999999997"></path></g></g>
<g class="vf-modifiers">
<g class="vf-stavenote" id="vf-auto19774">
<g class="vf-note" pointer-events="bounding-box">
<g class="vf-stem" pointer-events="bounding-box"><path stroke-width="1.5" fill="none" stroke="#000000" stroke-dasharray="none" d="M726.9070887679999 197.99999999999997L726.9070887679999 174.89999999999998"></path></g>
<g class="vf-notehead" pointer-events="bounding-box"><path stroke-width="0.3" fill="#000000" stroke="none" stroke-dasharray="none" d="M719.7250503679999 197.99999999999997M724.5806439679999 194.55289919999998C724.6547751679999 194.55289919999998,724.7659719679999 194.55289919999998,724.7845047679999 194.55289919999998C724.7845047679999 194.55289919999998,724.8030375679999 194.55289919999998,724.8030375679999 194.55289919999998C724.8030375679999 194.55289919999998,724.9142343679998 194.55289919999998,725.0068983679998 194.55289919999998C726.6748503679999 194.64556319999997,727.6570887679999 195.73899839999996,727.6570887679999 197.11042559999999C727.6570887679999 197.77760639999997,727.4346951679998 198.53745119999996,726.8787111679999 199.26023039999998C725.8223415679998 200.68725599999996,724.0987911679998 201.46563359999996,722.5976343679998 201.46563359999996C721.4300679679999 201.46563359999996,720.4292967679999 201.00231359999998,719.9474439679999 200.05714079999998C719.7991815679999 199.68648479999996,719.7250503679999 199.33436159999997,719.7250503679999 198.94517279999997C719.7250503679999 196.92509759999996,721.9860519679999 194.68262879999997,724.5806439679999 194.55289919999998"></path></g>
<g class="vf-flag" pointer-events="bounding-box"><path stroke-width="0.3" fill="#000000" stroke="none" stroke-dasharray="none" d="M726.9070887679999 172.89999999999998M726.4623015679999 175.88378079999998L726.4623015679999 172.992664L726.5364327679998 172.992664C726.7402935679999 172.992664,726.8700231679999 173.12239359999998,726.9070887679999 173.34478719999998C727.2962775679999 175.19806719999997,728.4638439679999 177.21814239999998,730.0761975679999 178.73783199999997C731.8738791679999 180.42431679999999,732.7819863679999 182.74091679999998,732.7819863679999 185.13164799999998C732.7819863679999 187.39264959999997,731.9850759679999 189.74631519999997,730.3727223679999 191.69225919999997C730.0947303679999 192.06291519999996,730.0761975679999 192.06291519999996,729.8908695679999 192.06291519999996C729.6684759679998 192.06291519999996,729.5202135679999 191.89611999999997,729.5202135679999 191.67372639999996C729.5202135679999 191.50693119999997,729.5387463679999 191.4698656,729.7240743679998 191.2660048C731.1325671679999 189.56098719999997,731.8368135679999 187.5038464,731.8368135679999 185.5393696C731.8368135679999 183.7972864,731.2808295679998 182.12933439999998,730.1317959679999 180.86910399999996C729.4275495679999 180.09072639999997,728.1302535679998 179.34941439999997,726.4808343679999 178.77489759999997C726.4808343679999 178.75636479999997,726.4623015679999 178.18184799999997,726.4623015679999 175.88378079999998"></path></g></g>
<g class="vf-modifiers"></g></g><path stroke-width="1" fill="none" stroke="#000000" stroke-dasharray="none" d="M720.7250503679999 189.74999999999997L733.7250503679999 180.74999999999997Z"></path></g></g>
<g class="vf-stavenote" id="vf-auto19788">
<g class="vf-note" pointer-events="bounding-box">
<g class="vf-notehead" pointer-events="bounding-box"><path stroke-width="0.3" fill="#000000" stroke="none" stroke-dasharray="none" d="M779.7820887679999 197.99999999999997M787.1390487679998 192.77711999999997C787.2513687679999 192.77711999999997,787.4198487679998 192.77711999999997,787.4479287679999 192.77711999999997C787.4479287679999 192.77711999999997,787.4760087679999 192.77711999999997,787.4760087679999 192.77711999999997C787.4760087679999 192.77711999999997,787.6444887679999 192.77711999999997,787.7848887679999 192.77711999999997C790.3120887679999 192.91751999999997,791.8003287679999 194.57423999999997,791.8003287679999 196.65215999999998C791.8003287679999 197.66303999999997,791.4633687679999 198.81431999999998,790.6209687679999 199.90943999999996C789.0204087679999 202.07159999999996,786.4089687679999 203.25095999999996,784.1344887679999 203.25095999999996C782.3654487679999 203.25095999999996,780.8491287679999 202.54895999999997,780.1190487679999 201.11687999999998C779.8944087679998 200.55527999999998,779.7820887679999 200.02175999999997,779.7820887679999 199.43207999999998C779.7820887679999 196.37135999999998,783.2078487679998 192.97367999999997,787.1390487679998 192.77711999999997"></path></g></g>
<g class="vf-modifiers"></g></g>
<g class="vf-stavenote" id="vf-auto19798">
<g class="vf-note" pointer-events="bounding-box">
<g class="vf-notehead" pointer-events="bounding-box"><path stroke-width="0.3" fill="#000000" stroke="none" stroke-dasharray="none" d="M839.8391271679999 197.99999999999997M847.1960871679998 192.77711999999997C847.3084071679999 192.77711999999997,847.4768871679998 192.77711999999997,847.5049671679999 192.77711999999997C847.5049671679999 192.77711999999997,847.5330471679999 192.77711999999997,847.5330471679999 192.77711999999997C847.5330471679999 192.77711999999997,847.7015271679999 192.77711999999997,847.8419271679999 192.77711999999997C850.3691271679999 192.91751999999997,851.8573671679999 194.57423999999997,851.8573671679999 196.65215999999998C851.8573671679999 197.66303999999997,851.5204071679999 198.81431999999998,850.6780071679999 199.90943999999996C849.0774471679999 202.07159999999996,846.4660071679999 203.25095999999996,844.1915271679999 203.25095999999996C842.4224871679999 203.25095999999996,840.9061671679999 202.54895999999997,840.1760871679999 201.11687999999998C839.9514471679998 200.55527999999998,839.8391271679999 200.02175999999997,839.8391271679999 199.43207999999998C839.8391271679999 196.37135999999998,843.2648871679999 192.97367999999997,847.1960871679998 192.77711999999997"></path></g></g>
<g class="vf-modifiers">
<g class="vf-stavenote" id="vf-auto19808">
<g class="vf-note" pointer-events="bounding-box">
<g class="vf-stem" pointer-events="bounding-box"><path stroke-width="1.5" fill="none" stroke="#000000" stroke-dasharray="none" d="M821.1570887679999 197.99999999999997L821.1570887679999 174.89999999999998"></path></g>
<g class="vf-notehead" pointer-events="bounding-box"><path stroke-width="0.3" fill="#000000" stroke="none" stroke-dasharray="none" d="M813.9750503679999 197.99999999999997M818.8306439679999 194.55289919999998C818.9047751679999 194.55289919999998,819.0159719679999 194.55289919999998,819.0345047679999 194.55289919999998C819.0345047679999 194.55289919999998,819.0530375679999 194.55289919999998,819.0530375679999 194.55289919999998C819.0530375679999 194.55289919999998,819.1642343679998 194.55289919999998,819.2568983679998 194.55289919999998C820.9248503679999 194.64556319999997,821.9070887679999 195.73899839999996,821.9070887679999 197.11042559999999C821.9070887679999 197.77760639999997,821.6846951679998 198.53745119999996,821.1287111679999 199.26023039999998C820.0723415679998 200.68725599999996,818.3487911679998 201.46563359999996,816.8476343679998 201.46563359999996C815.6800679679999 201.46563359999996,814.6792967679999 201.00231359999998,814.1974439679999 200.05714079999998C814.0491815679999 199.68648479999996,813.9750503679999 199.33436159999997,813.9750503679999 198.94517279999997C813.9750503679999 196.92509759999996,816.2360519679999 194.68262879999997,818.8306439679999 194.55289919999998"></path></g>
<g class="vf-flag" pointer-events="bounding-box"><path stroke-width="0.3" fill="#000000" stroke="none" stroke-dasharray="none" d="M821.1570887679999 172.89999999999998M820.7123015679999 175.88378079999998L820.7123015679999 172.992664L820.7864327679998 172.992664C820.9902935679999 172.992664,821.1200231679999 173.12239359999998,821.1570887679999 173.34478719999998C821.5462775679999 175.19806719999997,822.7138439679999 177.21814239999998,824.3261975679999 178.73783199999997C826.1238791679999 180.42431679999999,827.0319863679999 182.74091679999998,827.0319863679999 185.13164799999998C827.0319863679999 187.39264959999997,826.2350759679999 189.74631519999997,824.6227223679999 191.69225919999997C824.3447303679999 192.06291519999996,824.3261975679999 192.06291519999996,824.1408695679999 192.06291519999996C823.9184759679998 192.06291519999996,823.7702135679999 191.89611999999997,823.7702135679999 191.67372639999996C823.7702135679999 191.50693119999997,823.7887463679999 191.4698656,823.9740743679998 191.2660048C825.3825671679999 189.56098719999997,826.0868135679999 187.5038464,826.0868135679999 185.5393696C826.0868135679999 183.7972864,825.5308295679998 182.12933439999998,824.3817959679999 180.86910399999996C823.6775495679999 180.09072639999997,822.3802535679998 179.34941439999997,820.7308343679999 178.77489759999997C820.7308343679999 178.75636479999997,820.7123015679999 178.18184799999997,820.7123015679999 175.88378079999998"></path></g></g>
<g class="vf-modifiers"></g></g><path stroke-width="1" fill="none" stroke="#000000" stroke-dasharray="none" d="M814.9750503679999 189.74999999999997L827.9750503679999 180.74999999999997Z"></path></g></g>
<g class="vf-stavenote" id="vf-auto19822">
<g class="vf-note" pointer-events="bounding-box">
<g class="vf-notehead" pointer-events="bounding-box"><path stroke-width="0.3" fill="#000000" stroke="none" stroke-dasharray="none" d="M874.0320887679999 197.99999999999997M881.3890487679998 192.77711999999997C881.5013687679999 192.77711999999997,881.6698487679998 192.77711999999997,881.6979287679999 192.77711999999997C881.6979287679999 192.77711999999997,881.7260087679999 192.77711999999997,881.7260087679999 192.77711999999997C881.7260087679999 192.77711999999997,881.8944887679999 192.77711999999997,882.0348887679999 192.77711999999997C884.5620887679999 192.91751999999997,886.0503287679999 194.57423999999997,886.0503287679999 196.65215999999998C886.0503287679999 197.66303999999997,885.7133687679999 198.81431999999998,884.8709687679999 199.90943999999996C883.2704087679999 202.07159999999996,880.6589687679999 203.25095999999996,878.3844887679999 203.25095999999996C876.6154487679999 203.25095999999996,875.0991287679999 202.54895999999997,874.3690487679999 201.11687999999998C874.1444087679998 200.55527999999998,874.0320887679999 200.02175999999997,874.0320887679999 199.43207999999998C874.0320887679999 196.37135999999998,877.4578487679998 192.97367999999997,881.3890487679998 192.77711999999997"></path></g></g>
<g class="vf-modifiers"></g></g><path stroke-width="1.5" fill="none" stroke="#000000" stroke-dasharray="none" d="M568.3573671679999 197.99999999999997L568.3573671679999 163.74999999999997"></path>
<path stroke-width="1.5" fill="none" stroke="#000000" stroke-dasharray="none" d="M602.5503287679999 197.99999999999997L602.5503287679999 163.74999999999997"></path>
<path stroke-width="1.5" fill="none" stroke="#000000" stroke-dasharray="none" d="M662.6073671679999 197.99999999999997L662.6073671679999 163.74999999999997"></path>
<path stroke-width="1.5" fill="none" stroke="#000000" stroke-dasharray="none" d="M696.8003287679999 197.99999999999997L696.8003287679999 163.74999999999997"></path>
<path stroke-width="0.3" fill="#000000" stroke="none" stroke-dasharray="none" d="M567.6073671679999 162.99999999999997L567.6073671679999 167.99999999999997L697.0503287679999 167.99999999999997L697.0503287679999 162.99999999999997Z"></path>
<path stroke-width="0.3" fill="#000000" stroke="none" stroke-dasharray="none" d="M567.6073671679999 170.49999999999997L567.6073671679999 175.49999999999997L697.0503287679999 175.49999999999997L697.0503287679999 170.49999999999997Z"></path>
<path stroke-width="1.5" fill="none" stroke="#000000" stroke-dasharray="none" d="M756.8573671679999 197.99999999999997L756.8573671679999 163.74999999999997"></path>
<path stroke-width="1.5" fill="none" stroke="#000000" stroke-dasharray="none" d="M791.0503287679999 197.99999999999997L791.0503287679999 163.74999999999997"></path>
<path stroke-width="1.5" fill="none" stroke="#000000" stroke-dasharray="none" d="M851.1073671679999 197.99999999999997L851.1073671679999 163.74999999999997"></path>
<path stroke-width="1.5" fill="none" stroke="#000000" stroke-dasharray="none" d="M885.3003287679999 197.99999999999997L885.3003287679999 163.74999999999997"></path>
<path stroke-width="0.3" fill="#000000" stroke="none" stroke-dasharray="none" d="M756.1073671679999 162.99999999999997L756.1073671679999 167.99999999999997L885.5503287679999 167.99999999999997L885.5503287679999 162.99999999999997Z"></path>
<path stroke-width="0.3" fill="#000000" stroke="none" stroke-dasharray="none" d="M756.1073671679999 170.49999999999997L756.1073671679999 175.49999999999997L885.5503287679999 175.49999999999997L885.5503287679999 170.49999999999997Z"></path><text stroke-width="0.3" fill="#000000" stroke="none" stroke-dasharray="none" font-family="Times New Roman" font-size="40px" font-weight="normal" font-style="normal" x="643" y="82">Untitled Score</text></svg>