<svg width="1536" height="331.99999999999994" viewBox="0 0 1536 331.99999999999994">
<path stroke-width="1" fill="none" stroke="black" stroke-dasharray="none" d="M50 197.99999999999997L391.1120447999999 197.99999999999997">
</path>
<rect stroke-width="0.3" fill="black" stroke="black" stroke-dasharray="none" x="391.1120447999999" y="177.49999999999997" width="1" height="41">
</rect>
<path stroke-width="0.3" fill="black" stroke="none" stroke-dasharray="none" d="M55 197.99999999999997M55 197.99999999999997L55 188.00639999999999L57.1888 188.00639999999999L59.4064 188.00639999999999L59.4064 197.99999999999997L59.4064 208.02239999999998L57.1888 208.02239999999998L55 208.02239999999998L55 197.99999999999997M63.870400000000004 198.02879999999996L63.870400000000004 188.00639999999999L66.1168 188.00639999999999L68.3632 188.00639999999999L68.3632 198.02879999999996L68.3632 208.02239999999998L66.1168 208.02239999999998L63.870400000000004 208.02239999999998L63.870400000000004 198.02879999999996">
</path>
<path stroke-width="0.3" fill="black" stroke="none" stroke-dasharray="none" d="M96 197.99999999999997M101.0112 179.65439999999998C101.04 179.62559999999996,101.4432 179.62559999999996,102.6816 179.62559999999996C103.056 179.62559999999996,103.4592 179.62559999999996,103.9776 179.62559999999996L106.8864 179.62559999999996L106.9728 179.71199999999996C107.1168 179.79839999999996,107.2032 179.94239999999996,107.2032 180.05759999999998C107.2032 180.23039999999997,107.1168 180.34559999999996,107.0016 180.46079999999998C106.9728 180.54719999999998,106.7136 180.77759999999998,106.5408 181.03679999999997L105.0144 182.79359999999997L103.056 185.01119999999997L102.0192 186.19199999999998L100.464 187.97759999999997L98.4192 190.31039999999996C98.0736 190.74239999999998,97.6992 191.08799999999997,97.6992 191.08799999999997C97.6992 191.08799999999997,97.6992 191.08799999999997,97.6992 191.08799999999997C97.6992 191.14559999999997,97.9584 191.14559999999997,100.3488 191.14559999999997L102.9696 191.14559999999997L102.9696 189.27359999999996C102.9696 187.37279999999998,102.9696 187.34399999999997,102.9984 187.31519999999998C103.056 187.22879999999998,103.3152 186.91199999999998,104.3232 185.73119999999997L104.7264 185.29919999999998L105.1296 184.86719999999997L105.7344 184.08959999999996L106.368 183.42719999999997L106.6848 183.02399999999997C106.8 182.85119999999998,106.9728 182.82239999999996,107.1168 182.82239999999996C107.28960000000001 182.82239999999996,107.4336 182.90879999999999,107.52 183.05279999999996C107.5488 183.13919999999996,107.5488 183.19679999999997,107.5488 185.32799999999997C107.5488 185.81759999999997,107.5488 186.42239999999998,107.5488 187.14239999999998L107.5488 191.14559999999997L108.2688 191.14559999999997C108.9312 191.14559999999997,108.96 191.14559999999997,109.0464 191.17439999999996C109.2768 191.26079999999996,109.392 191.49119999999996,109.392 191.75039999999998C109.392 191.89439999999996,109.3632 192.06719999999999,109.248 192.18239999999997C109.0752 192.32639999999998,109.0464 192.32639999999998,108.2688 192.32639999999998L107.5488 192.32639999999998L107.5488 192.81599999999997C107.5776 194.28479999999996,107.8656 194.86079999999998,108.9888 195.46559999999997C109.392 195.66719999999998,109.4784 195.72479999999996,109.4784 196.01279999999997C109.4784 196.21439999999998,109.4208 196.30079999999998,109.2768 196.41599999999997L109.1904 196.44479999999996L105.2448 196.44479999999996L101.328 196.44479999999996L101.2416 196.41599999999997C101.0688 196.30079999999998,101.04 196.21439999999998,101.04 196.01279999999997C101.04 195.72479999999996,101.0688 195.66719999999998,101.5008 195.46559999999997C102.624 194.86079999999998,102.912 194.28479999999996,102.912 192.81599999999997L102.912 192.32639999999998L99.6 192.32639999999998C98.9952 192.38399999999996,98.5056 192.38399999999996,98.1024 192.38399999999996C96.288 192.38399999999996,96.2592 192.32639999999998,96.2304 192.32639999999998C96.0576 192.26879999999997,96 192.09599999999998,96 191.89439999999996C96 191.89439999999996,96 191.89439999999996,96 191.89439999999996C96 191.69279999999998,96 191.69279999999998,96.576 191.0304C98.9952 188.09279999999998,100.6944 183.83039999999997,100.6944 180.43199999999996C100.6944 179.91359999999997,100.7808 179.74079999999998,101.0112 179.65439999999998M102.7392 198.02879999999996L102.768 198.02879999999996L102.6816 198.02879999999996L102.7392 198.02879999999996M102.7392 178.61759999999998L102.768 178.61759999999998L102.6816 178.61759999999998L102.7392 178.61759999999998">
</path>
<path stroke-width="0.3" fill="black" stroke="none" stroke-dasharray="none" d="M96 217.99999999999997M101.0112 199.65439999999998C101.04 199.62559999999996,101.4432 199.62559999999996,102.6816 199.62559999999996C103.056 199.62559999999996,103.4592 199.62559999999996,103.9776 199.62559999999996L106.8864 199.62559999999996L106.9728 199.71199999999996C107.1168 199.79839999999996,107.2032 199.94239999999996,107.2032 200.05759999999998C107.2032 200.23039999999997,107.1168 200.34559999999996,107.0016 200.46079999999998C106.9728 200.54719999999998,106.7136 200.77759999999998,106.5408 201.03679999999997L105.0144 202.79359999999997L103.056 205.01119999999997L102.0192 206.19199999999998L100.464 207.97759999999997L98.4192 210.31039999999996C98.0736 210.74239999999998,97.6992 211.08799999999997,97.6992 211.08799999999997C97.6992 211.08799999999997,97.6992 211.08799999999997,97.6992 211.08799999999997C97.6992 211.14559999999997,97.9584 211.14559999999997,100.3488 211.14559999999997L102.9696 211.14559999999997L102.9696 209.27359999999996C102.9696 207.37279999999998,102.9696 207.34399999999997,102.9984 207.31519999999998C103.056 207.22879999999998,103.3152 206.91199999999998,104.3232 205.73119999999997L104.7264 205.29919999999998L105.1296 204.86719999999997L105.7344 204.08959999999996L106.368 203.42719999999997L106.6848 203.02399999999997C106.8 202.85119999999998,106.9728 202.82239999999996,107.1168 202.82239999999996C107.28960000000001 202.82239999999996,107.4336 202.90879999999999,107.52 203.05279999999996C107.5488 203.13919999999996,107.5488 203.19679999999997,107.5488 205.32799999999997C107.5488 205.81759999999997,107.5488 206.42239999999998,107.5488 207.14239999999998L107.5488 211.14559999999997L108.2688 211.14559999999997C108.9312 211.14559999999997,108.96 211.14559999999997,109.0464 211.17439999999996C109.2768 211.26079999999996,109.392 211.49119999999996,109.392 211.75039999999998C109.392 211.89439999999996,109.3632 212.06719999999999,109.248 212.18239999999997C109.0752 212.32639999999998,109.0464 212.32639999999998,108.2688 212.32639999999998L107.5488 212.32639999999998L107.5488 212.81599999999997C107.5776 214.28479999999996,107.8656 214.86079999999998,108.9888 215.46559999999997C109.392 215.66719999999998,109.4784 215.72479999999996,109.4784 216.01279999999997C109.4784 216.21439999999998,109.4208 216.30079999999998,109.2768 216.41599999999997L109.1904 216.44479999999996L105.2448 216.44479999999996L101.328 216.44479999999996L101.2416 216.41599999999997C101.0688 216.30079999999998,101.04 216.21439999999998,101.04 216.01279999999997C101.04 215.72479999999996,101.0688 215.66719999999998,101.5008 215.46559999999997C102.624 214.86079999999998,102.912 214.28479999999996,102.912 212.81599999999997L102.912 212.32639999999998L99.6 212.32639999999998C98.9952 212.38399999999996,98.5056 212.38399999999996,98.1024 212.38399999999996C96.288 212.38399999999996,96.2592 212.32639999999998,96.2304 212.32639999999998C96.0576 212.26879999999997,96 212.09599999999998,96 211.89439999999996C96 211.89439999999996,96 211.89439999999996,96 211.89439999999996C96 211.69279999999998,96 211.69279999999998,96.576 211.0304C98.9952 208.09279999999998,100.6944 203.83039999999997,100.6944 200.43199999999996C100.6944 199.91359999999997,100.7808 199.74079999999998,101.0112 199.65439999999998M102.7392 218.02879999999996L102.768 218.02879999999996L102.6816 218.02879999999996L102.7392 218.02879999999996M102.7392 198.61759999999998L102.768 198.61759999999998L102.6816 198.61759999999998L102.7392 198.61759999999998">
</path>
<g class="vf-stavenote" id="vf-auto15992">
<g class="vf-note" pointer-events="bounding-box">
<g class="vf-notehead" pointer-events="bounding-box">
<path stroke-width="0.3" fill="#000000" stroke="none" stroke-dasharray="none" d="M121.4784 197.99999999999997M128.83535999999998 192.77711999999997C128.94768 192.77711999999997,129.11615999999998 192.77711999999997,129.14424 192.77711999999997C129.14424 192.77711999999997,129.17231999999998 192.77711999999997,129.17231999999998 192.77711999999997C129.17231999999998 192.77711999999997,129.3408 192.77711999999997,129.4812 192.77711999999997C132.0084 192.91751999999997,133.49663999999999 194.57423999999997,133.49663999999999 196.65215999999998C133.49663999999999 197.66303999999997,133.15967999999998 198.81431999999998,132.31727999999998 199.90943999999996C130.71671999999998 202.07159999999996,128.10528 203.25095999999996,125.8308 203.25095999999996C124.06175999999999 203.25095999999996,122.54544 202.54895999999997,121.81536 201.11687999999998C121.59071999999999 200.55527999999998,121.4784 200.02175999999997,121.4784 199.43207999999998C121.4784 196.37135999999998,124.90415999999999 192.97367999999997,128.83535999999998 192.77711999999997">
</path>
</g>
</g>
<g class="vf-modifiers">
</g>
</g>
<g class="vf-stavenote" id="vf-auto16002">
<g class="vf-note" pointer-events="bounding-box">
<g class="vf-notehead" pointer-events="bounding-box">
<path stroke-width="0.3" fill="#000000" stroke="none" stroke-dasharray="none" d="M155.4186 197.99999999999997M162.77555999999998 192.77711999999997C162.88788 192.77711999999997,163.05635999999998 192.77711999999997,163.08444 192.77711999999997C163.08444 192.77711999999997,163.11252 192.77711999999997,163.11252 192.77711999999997C163.11252 192.77711999999997,163.281 192.77711999999997,163.4214 192.77711999999997C165.9486 192.91751999999997,167.43684 194.57423999999997,167.43684 196.65215999999998C167.43684 197.66303999999997,167.09987999999998 198.81431999999998,166.25748 199.90943999999996C164.65691999999999 202.07159999999996,162.04548 203.25095999999996,159.771 203.25095999999996C158.00196 203.25095999999996,156.48564 202.54895999999997,155.75556 201.11687999999998C155.53092 200.55527999999998,155.4186 200.02175999999997,155.4186 199.43207999999998C155.4186 196.37135999999998,158.84436 192.97367999999997,162.77555999999998 192.77711999999997">
</path>
</g>
</g>
<g class="vf-modifiers">
</g>
</g>
<g class="vf-stavenote" id="vf-auto16012">
<g class="vf-note" pointer-events="bounding-box">
<g class="vf-notehead" pointer-events="bounding-box">
<path stroke-width="0.3" fill="#000000" stroke="none" stroke-dasharray="none" d="M189.3588 197.99999999999997M196.71576 192.77711999999997C196.82808 192.77711999999997,196.99656 192.77711999999997,197.02464 192.77711999999997C197.02464 192.77711999999997,197.05272 192.77711999999997,197.05272 192.77711999999997C197.05272 192.77711999999997,197.2212 192.77711999999997,197.3616 192.77711999999997C199.8888 192.91751999999997,201.37704 194.57423999999997,201.37704 196.65215999999998C201.37704 197.66303999999997,201.04008 198.81431999999998,200.19768 199.90943999999996C198.59712 202.07159999999996,195.98568 203.25095999999996,193.7112 203.25095999999996C191.94216 203.25095999999996,190.42584 202.54895999999997,189.69576 201.11687999999998C189.47112 200.55527999999998,189.3588 200.02175999999997,189.3588 199.43207999999998C189.3588 196.37135999999998,192.78456 192.97367999999997,196.71576 192.77711999999997">
</path>
</g>
</g>
<g class="vf-modifiers">
</g>
</g>
<g class="vf-stavenote" id="vf-auto16022">
<g class="vf-note" pointer-events="bounding-box">
<g class="vf-notehead" pointer-events="bounding-box">
<path stroke-width="0.3" fill="#000000" stroke="none" stroke-dasharray="none" d="M223.299 197.99999999999997M230.65596 192.77711999999997C230.76828 192.77711999999997,230.93676 192.77711999999997,230.96484 192.77711999999997C230.96484 192.77711999999997,230.99292 192.77711999999997,230.99292 192.77711999999997C230.99292 192.77711999999997,231.16140000000001 192.77711999999997,231.30180000000001 192.77711999999997C233.829 192.91751999999997,235.31724 194.57423999999997,235.31724 196.65215999999998C235.31724 197.66303999999997,234.98028 198.81431999999998,234.13788 199.90943999999996C232.53732 202.07159999999996,229.92588 203.25095999999996,227.6514 203.25095999999996C225.88236 203.25095999999996,224.36604 202.54895999999997,223.63596 201.11687999999998C223.41132000000002 200.55527999999998,223.299 200.02175999999997,223.299 199.43207999999998C223.299 196.37135999999998,226.72476 192.97367999999997,230.65596 192.77711999999997">
</path>
</g>
</g>
<g class="vf-modifiers">
</g>
</g>
<g class="vf-stavenote" id="vf-auto16032">
<g class="vf-note" pointer-events="bounding-box">
<g class="vf-notehead" pointer-events="bounding-box">
<path stroke-width="0.3" fill="#000000" stroke="none" stroke-dasharray="none" d="M257.2392 197.99999999999997M264.59616 192.77711999999997C264.70848 192.77711999999997,264.87696 192.77711999999997,264.90504 192.77711999999997C264.90504 192.77711999999997,264.93312 192.77711999999997,264.93312 192.77711999999997C264.93312 192.77711999999997,265.10159999999996 192.77711999999997,265.24199999999996 192.77711999999997C267.76919999999996 192.91751999999997,269.25744 194.57423999999997,269.25744 196.65215999999998C269.25744 197.66303999999997,268.92048 198.81431999999998,268.07808 199.90943999999996C266.47751999999997 202.07159999999996,263.86608 203.25095999999996,261.59159999999997 203.25095999999996C259.82256 203.25095999999996,258.30624 202.54895999999997,257.57615999999996 201.11687999999998C257.35152 200.55527999999998,257.2392 200.02175999999997,257.2392 199.43207999999998C257.2392 196.37135999999998,260.66496 192.97367999999997,264.59616 192.77711999999997">
</path>
</g>
</g>
<g class="vf-modifiers">
</g>
</g>
<g class="vf-stavenote" id="vf-auto16042">
<g class="vf-note" pointer-events="bounding-box">
<g class="vf-notehead" pointer-events="bounding-box">
<path stroke-width="0.3" fill="#000000" stroke="none" stroke-dasharray="none" d="M291.1794 197.99999999999997M298.53636 192.77711999999997C298.64868 192.77711999999997,298.81716 192.77711999999997,298.84524 192.77711999999997C298.84524 192.77711999999997,298.87332 192.77711999999997,298.87332 192.77711999999997C298.87332 192.77711999999997,299.04179999999997 192.77711999999997,299.18219999999997 192.77711999999997C301.70939999999996 192.91751999999997,303.19764 194.57423999999997,303.19764 196.65215999999998C303.19764 197.66303999999997,302.86068 198.81431999999998,302.01828 199.90943999999996C300.41772 202.07159999999996,297.80628 203.25095999999996,295.5318 203.25095999999996C293.76276 203.25095999999996,292.24644 202.54895999999997,291.51635999999996 201.11687999999998C291.29172 200.55527999999998,291.1794 200.02175999999997,291.1794 199.43207999999998C291.1794 196.37135999999998,294.60516 192.97367999999997,298.53636 192.77711999999997">
</path>
</g>
</g>
<g class="vf-modifiers">
</g>
</g>
<g class="vf-stavenote" id="vf-auto16052">
<g class="vf-note" pointer-events="bounding-box">
<g class="vf-notehead" pointer-events="bounding-box">
<path stroke-width="0.3" fill="#000000" stroke="none" stroke-dasharray="none" d="M325.1196 197.99999999999997M332.47656 192.77711999999997C332.58888 192.77711999999997,332.75736 192.77711999999997,332.78544 192.77711999999997C332.78544 192.77711999999997,332.81352 192.77711999999997,332.81352 192.77711999999997C332.81352 192.77711999999997,332.98199999999997 192.77711999999997,333.12239999999997 192.77711999999997C335.64959999999996 192.91751999999997,337.13784 194.57423999999997,337.13784 196.65215999999998C337.13784 197.66303999999997,336.80088 198.81431999999998,335.95848 199.90943999999996C334.35792 202.07159999999996,331.74648 203.25095999999996,329.472 203.25095999999996C327.70296 203.25095999999996,326.18664 202.54895999999997,325.45655999999997 201.11687999999998C325.23192 200.55527999999998,325.1196 200.02175999999997,325.1196 199.43207999999998C325.1196 196.37135999999998,328.54536 192.97367999999997,332.47656 192.77711999999997">
</path>
</g>
</g>
<g class="vf-modifiers">
</g>
</g>
<g class="vf-stavenote" id="vf-auto16062">
<g class="vf-note" pointer-events="bounding-box">
<g class="vf-notehead" pointer-events="bounding-box">
<path stroke-width="0.3" fill="#000000" stroke="none" stroke-dasharray="none" d="M359.0598 197.99999999999997M366.41676 192.77711999999997C366.52908 192.77711999999997,366.69756 192.77711999999997,366.72564 192.77711999999997C366.72564 192.77711999999997,366.75372 192.77711999999997,366.75372 192.77711999999997C366.75372 192.77711999999997,366.9222 192.77711999999997,367.0626 192.77711999999997C369.58979999999997 192.91751999999997,371.07804 194.57423999999997,371.07804 196.65215999999998C371.07804 197.66303999999997,370.74108 198.81431999999998,369.89868 199.90943999999996C368.29812 202.07159999999996,365.68668 203.25095999999996,363.4122 203.25095999999996C361.64316 203.25095999999996,360.12684 202.54895999999997,359.39676 201.11687999999998C359.17212 200.55527999999998,359.0598 200.02175999999997,359.0598 199.43207999999998C359.0598 196.37135999999998,362.48556 192.97367999999997,366.41676 192.77711999999997">
</path>
</g>
</g>
<g class="vf-modifiers">
</g>
</g>
<path stroke-width="1.5" fill="none" stroke="#000000" stroke-dasharray="none" d="M132.74663999999999 197.99999999999997L132.74663999999999 163.74999999999997">
</path>
<path stroke-width="1.5" fill="none" stroke="#000000" stroke-dasharray="none" d="M166.68684 197.99999999999997L166.68684 163.74999999999997">
</path>
<path stroke-width="1.5" fill="none" stroke="#000000" stroke-dasharray="none" d="M200.62704 197.99999999999997L200.62704 163.74999999999997">
</path>
<path stroke-width="1.5" fill="none" stroke="#000000" stroke-dasharray="none" d="M234.56724 197.99999999999997L234.56724 163.74999999999997">
</path>
<path stroke-width="0.3" fill="#000000" stroke="none" stroke-dasharray="none" d="M131.99663999999999 162.99999999999997L131.99663999999999 167.99999999999997L234.81724 167.99999999999997L234.81724 162.99999999999997Z">
</path>
<path stroke-width="1.5" fill="none" stroke="#000000" stroke-dasharray="none" d="M268.50744 197.99999999999997L268.50744 163.74999999999997">
</path>
<path stroke-width="1.5" fill="none" stroke="#000000" stroke-dasharray="none" d="M302.44764 197.99999999999997L302.44764 163.74999999999997">
</path>
<path stroke-width="1.5" fill="none" stroke="#000000" stroke-dasharray="none" d="M336.38784 197.99999999999997L336.38784 163.74999999999997">
</path>
<path stroke-width="1.5" fill="none" stroke="#000000" stroke-dasharray="none" d="M370.32804 197.99999999999997L370.32804 163.74999999999997">
</path>
<path stroke-width="0.3" fill="#000000" stroke="none" stroke-dasharray="none" d="M267.75744 162.99999999999997L267.75744 167.99999999999997L370.57804 167.99999999999997L370.57804 162.99999999999997Z">
</path>
<path stroke-width="1" fill="none" stroke="black" stroke-dasharray="none" d="M391.1120447999999 197.99999999999997L1050.048842752 197.99999999999997">
</path>
<rect stroke-width="0.3" fill="black" stroke="black" stroke-dasharray="none" x="1045.048842752" y="177.49999999999997" width="1" height="41">
</rect>
<rect stroke-width="0.3" fill="black" stroke="black" stroke-dasharray="none" x="1048.048842752" y="177.49999999999997" width="3" height="41">
</rect>
<path stroke-width="0.3" fill="black" stroke="none" stroke-dasharray="none" d="M1044.048842752 193.49999999999997 A2 2 0 0 0 1040.048842752 193.49999999999997M1040.048842752 193.49999999999997 A2 2 0 0 0 1044.048842752 193.49999999999997">
</path>
<path stroke-width="0.3" fill="black" stroke="none" stroke-dasharray="none" d="M1044.048842752 203.49999999999997 A2 2 0 0 0 1040.048842752 203.49999999999997M1040.048842752 203.49999999999997 A2 2 0 0 0 1044.048842752 203.49999999999997">
</path>
<g class="vf-stavenote" id="vf-auto16075">
<g class="vf-note" pointer-events="bounding-box">
<g class="vf-notehead" pointer-events="bounding-box">
<path stroke-width="0.3" fill="#000000" stroke="none" stroke-dasharray="none" d="M433.97612159999994 197.99999999999997M441.33308159999996 192.77711999999997C441.44540159999997 192.77711999999997,441.61388159999996 192.77711999999997,441.64196159999995 192.77711999999997C441.64196159999995 192.77711999999997,441.67004159999993 192.77711999999997,441.67004159999993 192.77711999999997C441.67004159999993 192.77711999999997,441.8385215999999 192.77711999999997,441.9789215999999 192.77711999999997C444.5061215999999 192.91751999999997,445.99436159999993 194.57423999999997,445.99436159999993 196.65215999999998C445.99436159999993 197.66303999999997,445.65740159999996 198.81431999999998,444.81500159999996 199.90943999999996C443.21444159999993 202.07159999999996,440.60300159999997 203.25095999999996,438.32852159999993 203.25095999999996C436.55948159999997 203.25095999999996,435.04316159999996 202.54895999999997,434.3130815999999 201.11687999999998C434.08844159999995 200.55527999999998,433.97612159999994 200.02175999999997,433.97612159999994 199.43207999999998C433.97612159999994 196.37135999999998,437.40188159999997 192.97367999999997,441.33308159999996 192.77711999999997">
</path>
</g>
</g>
<g class="vf-modifiers">
<g class="vf-stavenote" id="vf-auto16085">
<g class="vf-note" pointer-events="bounding-box">
<g class="vf-stem" pointer-events="bounding-box">
<path stroke-width="1.5" fill="none" stroke="#000000" stroke-dasharray="none" d="M415.29408319999993 197.99999999999997L415.29408319999993 174.89999999999998">
</path>
</g>
<g class="vf-notehead" pointer-events="bounding-box">
<path stroke-width="0.3" fill="#000000" stroke="none" stroke-dasharray="none" d="M408.1120447999999 197.99999999999997M412.96763839999994 194.55289919999998C413.0417695999999 194.55289919999998,413.1529663999999 194.55289919999998,413.1714991999999 194.55289919999998C413.1714991999999 194.55289919999998,413.1900319999999 194.55289919999998,413.1900319999999 194.55289919999998C413.1900319999999 194.55289919999998,413.30122879999993 194.55289919999998,413.39389279999995 194.55289919999998C415.0618447999999 194.64556319999997,416.04408319999993 195.73899839999996,416.04408319999993 197.11042559999999C416.04408319999993 197.77760639999997,415.8216895999999 198.53745119999996,415.26570559999993 199.26023039999998C414.2093359999999 200.68725599999996,412.48578559999993 201.46563359999996,410.98462879999994 201.46563359999996C409.81706239999994 201.46563359999996,408.8162911999999 201.00231359999998,408.3344383999999 200.05714079999998C408.18617599999993 199.68648479999996,408.1120447999999 199.33436159999997,408.1120447999999 198.94517279999997C408.1120447999999 196.92509759999996,410.3730463999999 194.68262879999997,412.96763839999994 194.55289919999998">
</path>
</g>
<g class="vf-flag" pointer-events="bounding-box">
<path stroke-width="0.3" fill="#000000" stroke="none" stroke-dasharray="none" d="M415.29408319999993 172.89999999999998M414.8492959999999 175.88378079999998L414.8492959999999 172.992664L414.92342719999994 172.992664C415.1272879999999 172.992664,415.2570175999999 173.12239359999998,415.29408319999993 173.34478719999998C415.68327199999993 175.19806719999997,416.85083839999993 177.21814239999998,418.46319199999994 178.73783199999997C420.2608735999999 180.42431679999999,421.16898079999993 182.74091679999998,421.16898079999993 185.13164799999998C421.16898079999993 187.39264959999997,420.3720703999999 189.74631519999997,418.7597167999999 191.69225919999997C418.48172479999994 192.06291519999996,418.46319199999994 192.06291519999996,418.2778639999999 192.06291519999996C418.05547039999993 192.06291519999996,417.9072079999999 191.89611999999997,417.9072079999999 191.67372639999996C417.9072079999999 191.50693119999997,417.9257407999999 191.4698656,418.11106879999994 191.2660048C419.5195615999999 189.56098719999997,420.2238079999999 187.5038464,420.2238079999999 185.5393696C420.2238079999999 183.7972864,419.66782399999994 182.12933439999998,418.51879039999994 180.86910399999996C417.81454399999996 180.09072639999997,416.51724799999994 179.34941439999997,414.8678287999999 178.77489759999997C414.8678287999999 178.75636479999997,414.8492959999999 178.18184799999997,414.8492959999999 175.88378079999998">
</path>
</g>
</g>
<g class="vf-modifiers">
</g>
</g>
<path stroke-width="1" fill="none" stroke="#000000" stroke-dasharray="none" d="M409.1120447999999 189.74999999999997L422.1120447999999 180.74999999999997Z">
</path>
</g>
</g>
<g class="vf-stavenote" id="vf-auto16099">
<g class="vf-note" pointer-events="bounding-box">
<g class="vf-notehead" pointer-events="bounding-box">
<path stroke-width="0.3" fill="#000000" stroke="none" stroke-dasharray="none" d="M464.46459279999993 197.99999999999997M471.82155279999995 192.77711999999997C471.93387279999996 192.77711999999997,472.10235279999995 192.77711999999997,472.13043279999994 192.77711999999997C472.13043279999994 192.77711999999997,472.1585127999999 192.77711999999997,472.1585127999999 192.77711999999997C472.1585127999999 192.77711999999997,472.3269927999999 192.77711999999997,472.4673927999999 192.77711999999997C474.99459279999996 192.91751999999997,476.4828327999999 194.57423999999997,476.4828327999999 196.65215999999998C476.4828327999999 197.66303999999997,476.14587279999995 198.81431999999998,475.30347279999995 199.90943999999996C473.7029127999999 202.07159999999996,471.0914727999999 203.25095999999996,468.8169927999999 203.25095999999996C467.04795279999996 203.25095999999996,465.53163279999995 202.54895999999997,464.8015527999999 201.11687999999998C464.57691279999995 200.55527999999998,464.46459279999993 200.02175999999997,464.46459279999993 199.43207999999998C464.46459279999993 196.37135999999998,467.89035279999996 192.97367999999997,471.82155279999995 192.77711999999997">
</path>
</g>
</g>
<g class="vf-modifiers">
</g>
</g>
<g class="vf-stavenote" id="vf-auto16109">
<g class="vf-note" pointer-events="bounding-box">
<g class="vf-notehead" pointer-events="bounding-box">
<path stroke-width="0.3" fill="#000000" stroke="none" stroke-dasharray="none" d="M520.8171408 197.99999999999997M528.1741007999999 192.77711999999997C528.2864208 192.77711999999997,528.4549007999999 192.77711999999997,528.4829808 192.77711999999997C528.4829808 192.77711999999997,528.5110608 192.77711999999997,528.5110608 192.77711999999997C528.5110608 192.77711999999997,528.6795407999999 192.77711999999997,528.8199407999999 192.77711999999997C531.3471407999999 192.91751999999997,532.8353807999999 194.57423999999997,532.8353807999999 196.65215999999998C532.8353807999999 197.66303999999997,532.4984208 198.81431999999998,531.6560208 199.90943999999996C530.0554608 202.07159999999996,527.4440208 203.25095999999996,525.1695407999999 203.25095999999996C523.4005007999999 203.25095999999996,521.8841808 202.54895999999997,521.1541007999999 201.11687999999998C520.9294607999999 200.55527999999998,520.8171408 200.02175999999997,520.8171408 199.43207999999998C520.8171408 196.37135999999998,524.2429007999999 192.97367999999997,528.1741007999999 192.77711999999997">
</path>
</g>
</g>
<g class="vf-modifiers">
<g class="vf-stavenote" id="vf-auto16119">
<g class="vf-note" pointer-events="bounding-box">
<g class="vf-stem" pointer-events="bounding-box">
<path stroke-width="1.5" fill="none" stroke="#000000" stroke-dasharray="none" d="M502.13510239999994 197.99999999999997L502.13510239999994 174.89999999999998">
</path>
</g>
<g class="vf-notehead" pointer-events="bounding-box">
<path stroke-width="0.3" fill="#000000" stroke="none" stroke-dasharray="none" d="M494.9530639999999 197.99999999999997M499.80865759999995 194.55289919999998C499.8827887999999 194.55289919999998,499.9939855999999 194.55289919999998,500.0125183999999 194.55289919999998C500.0125183999999 194.55289919999998,500.0310511999999 194.55289919999998,500.0310511999999 194.55289919999998C500.0310511999999 194.55289919999998,500.14224799999994 194.55289919999998,500.23491199999995 194.55289919999998C501.9028639999999 194.64556319999997,502.88510239999994 195.73899839999996,502.88510239999994 197.11042559999999C502.88510239999994 197.77760639999997,502.6627087999999 198.53745119999996,502.10672479999994 199.26023039999998C501.0503551999999 200.68725599999996,499.32680479999993 201.46563359999996,497.82564799999994 201.46563359999996C496.65808159999995 201.46563359999996,495.6573103999999 201.00231359999998,495.1754575999999 200.05714079999998C495.02719519999994 199.68648479999996,494.9530639999999 199.33436159999997,494.9530639999999 198.94517279999997C494.9530639999999 196.92509759999996,497.2140655999999 194.68262879999997,499.80865759999995 194.55289919999998">
</path>
</g>
<g class="vf-flag" pointer-events="bounding-box">
<path stroke-width="0.3" fill="#000000" stroke="none" stroke-dasharray="none" d="M502.13510239999994 172.89999999999998M501.69031519999993 175.88378079999998L501.69031519999993 172.992664L501.76444639999994 172.992664C501.9683071999999 172.992664,502.09803679999993 173.12239359999998,502.13510239999994 173.34478719999998C502.52429119999994 175.19806719999997,503.69185759999993 177.21814239999998,505.30421119999994 178.73783199999997C507.1018927999999 180.42431679999999,508.00999999999993 182.74091679999998,508.00999999999993 185.13164799999998C508.00999999999993 187.39264959999997,507.21308959999993 189.74631519999997,505.6007359999999 191.69225919999997C505.32274399999994 192.06291519999996,505.30421119999994 192.06291519999996,505.1188831999999 192.06291519999996C504.89648959999994 192.06291519999996,504.7482271999999 191.89611999999997,504.7482271999999 191.67372639999996C504.7482271999999 191.50693119999997,504.7667599999999 191.4698656,504.95208799999995 191.2660048C506.3605807999999 189.56098719999997,507.0648271999999 187.5038464,507.0648271999999 185.5393696C507.0648271999999 183.7972864,506.50884319999994 182.12933439999998,505.35980959999995 180.86910399999996C504.65556319999996 180.09072639999997,503.35826719999994 179.34941439999997,501.70884799999993 178.77489759999997C501.70884799999993 178.75636479999997,501.69031519999993 178.18184799999997,501.69031519999993 175.88378079999998">
</path>
</g>
</g>
<g class="vf-modifiers">
</g>
</g>
<path stroke-width="1" fill="none" stroke="#000000" stroke-dasharray="none" d="M495.9530639999999 189.74999999999997L508.9530639999999 180.74999999999997Z">
</path>
</g>
</g>
<g class="vf-stavenote" id="vf-auto16133">
<g class="vf-note" pointer-events="bounding-box">
<g class="vf-notehead" pointer-events="bounding-box">
<path stroke-width="0.3" fill="#000000" stroke="none" stroke-dasharray="none" d="M551.3056119999999 197.99999999999997M558.6625719999998 192.77711999999997C558.7748919999999 192.77711999999997,558.9433719999998 192.77711999999997,558.9714519999999 192.77711999999997C558.9714519999999 192.77711999999997,558.9995319999999 192.77711999999997,558.9995319999999 192.77711999999997C558.9995319999999 192.77711999999997,559.1680119999999 192.77711999999997,559.3084119999999 192.77711999999997C561.8356119999999 192.91751999999997,563.3238519999999 194.57423999999997,563.3238519999999 196.65215999999998C563.3238519999999 197.66303999999997,562.9868919999999 198.81431999999998,562.1444919999999 199.90943999999996C560.5439319999999 202.07159999999996,557.9324919999999 203.25095999999996,555.6580119999999 203.25095999999996C553.8889719999999 203.25095999999996,552.3726519999999 202.54895999999997,551.6425719999999 201.11687999999998C551.4179319999998 200.55527999999998,551.3056119999999 200.02175999999997,551.3056119999999 199.43207999999998C551.3056119999999 196.37135999999998,554.7313719999999 192.97367999999997,558.6625719999998 192.77711999999997">
</path>
</g>
</g>
<g class="vf-modifiers">
</g>
</g>
<g class="vf-stavenote" id="vf-auto16143">
<g class="vf-note" pointer-events="bounding-box">
<g class="vf-notehead" pointer-events="bounding-box">
<path stroke-width="0.3" fill="#000000" stroke="none" stroke-dasharray="none" d="M607.65816 197.99999999999997M615.0151199999999 192.77711999999997C615.12744 192.77711999999997,615.2959199999999 192.77711999999997,615.324 192.77711999999997C615.324 192.77711999999997,615.35208 192.77711999999997,615.35208 192.77711999999997C615.35208 192.77711999999997,615.5205599999999 192.77711999999997,615.6609599999999 192.77711999999997C618.1881599999999 192.91751999999997,619.6764 194.57423999999997,619.6764 196.65215999999998C619.6764 197.66303999999997,619.33944 198.81431999999998,618.49704 199.90943999999996C616.89648 202.07159999999996,614.28504 203.25095999999996,612.0105599999999 203.25095999999996C610.2415199999999 203.25095999999996,608.7252 202.54895999999997,607.9951199999999 201.11687999999998C607.7704799999999 200.55527999999998,607.65816 200.02175999999997,607.65816 199.43207999999998C607.65816 196.37135999999998,611.0839199999999 192.97367999999997,615.0151199999999 192.77711999999997">
</path>
</g>
</g>
<g class="vf-modifiers">
<g class="vf-stavenote" id="vf-auto16153">
<g class="vf-note" pointer-events="bounding-box">
<g class="vf-stem" pointer-events="bounding-box">
<path stroke-width="1.5" fill="none" stroke="#000000" stroke-dasharray="none" d="M588.9761215999999 197.99999999999997L588.9761215999999 174.89999999999998">
</path>
</g>
<g class="vf-notehead" pointer-events="bounding-box">
<path stroke-width="0.3" fill="#000000" stroke="none" stroke-dasharray="none" d="M581.7940831999999 197.99999999999997M586.6496768 194.55289919999998C586.723808 194.55289919999998,586.8350048 194.55289919999998,586.8535376 194.55289919999998C586.8535376 194.55289919999998,586.8720704 194.55289919999998,586.8720704 194.55289919999998C586.8720704 194.55289919999998,586.9832671999999 194.55289919999998,587.0759311999999 194.55289919999998C588.7438831999999 194.64556319999997,589.7261215999999 195.73899839999996,589.7261215999999 197.11042559999999C589.7261215999999 197.77760639999997,589.5037279999999 198.53745119999996,588.947744 199.26023039999998C587.8913743999999 200.68725599999996,586.1678239999999 201.46563359999996,584.6666671999999 201.46563359999996C583.4991008 201.46563359999996,582.4983295999999 201.00231359999998,582.0164768 200.05714079999998C581.8682143999999 199.68648479999996,581.7940831999999 199.33436159999997,581.7940831999999 198.94517279999997C581.7940831999999 196.92509759999996,584.0550847999999 194.68262879999997,586.6496768 194.55289919999998">
</path>
</g>
<g class="vf-flag" pointer-events="bounding-box">
<path stroke-width="0.3" fill="#000000" stroke="none" stroke-dasharray="none" d="M588.9761215999999 172.89999999999998M588.5313344 175.88378079999998L588.5313344 172.992664L588.6054655999999 172.992664C588.8093263999999 172.992664,588.9390559999999 173.12239359999998,588.9761215999999 173.34478719999998C589.3653104 175.19806719999997,590.5328767999999 177.21814239999998,592.1452304 178.73783199999997C593.942912 180.42431679999999,594.8510192 182.74091679999998,594.8510192 185.13164799999998C594.8510192 187.39264959999997,594.0541088 189.74631519999997,592.4417552 191.69225919999997C592.1637632 192.06291519999996,592.1452304 192.06291519999996,591.9599023999999 192.06291519999996C591.7375087999999 192.06291519999996,591.5892464 191.89611999999997,591.5892464 191.67372639999996C591.5892464 191.50693119999997,591.6077792 191.4698656,591.7931071999999 191.2660048C593.2016 189.56098719999997,593.9058464 187.5038464,593.9058464 185.5393696C593.9058464 183.7972864,593.3498623999999 182.12933439999998,592.2008288 180.86910399999996C591.4965824 180.09072639999997,590.1992863999999 179.34941439999997,588.5498672 178.77489759999997C588.5498672 178.75636479999997,588.5313344 178.18184799999997,588.5313344 175.88378079999998">
</path>
</g>
</g>
<g class="vf-modifiers">
</g>
</g>
<path stroke-width="1" fill="none" stroke="#000000" stroke-dasharray="none" d="M582.7940831999999 189.74999999999997L595.7940831999999 180.74999999999997Z">
</path>
</g>
</g>
<g class="vf-stavenote" id="vf-auto16167">
<g class="vf-note" pointer-events="bounding-box">
<g class="vf-notehead" pointer-events="bounding-box">
<path stroke-width="0.3" fill="#000000" stroke="none" stroke-dasharray="none" d="M638.1466311999999 197.99999999999997M645.5035911999998 192.77711999999997C645.6159111999999 192.77711999999997,645.7843911999998 192.77711999999997,645.8124711999999 192.77711999999997C645.8124711999999 192.77711999999997,645.8405511999999 192.77711999999997,645.8405511999999 192.77711999999997C645.8405511999999 192.77711999999997,646.0090311999999 192.77711999999997,646.1494311999999 192.77711999999997C648.6766311999999 192.91751999999997,650.1648711999999 194.57423999999997,650.1648711999999 196.65215999999998C650.1648711999999 197.66303999999997,649.8279111999999 198.81431999999998,648.9855111999999 199.90943999999996C647.3849511999999 202.07159999999996,644.7735111999999 203.25095999999996,642.4990311999999 203.25095999999996C640.7299911999999 203.25095999999996,639.2136711999999 202.54895999999997,638.4835911999999 201.11687999999998C638.2589511999998 200.55527999999998,638.1466311999999 200.02175999999997,638.1466311999999 199.43207999999998C638.1466311999999 196.37135999999998,641.5723911999999 192.97367999999997,645.5035911999998 192.77711999999997">
</path>
</g>
</g>
<g class="vf-modifiers">
</g>
</g>
<g class="vf-stavenote" id="vf-auto16177">
<g class="vf-note" pointer-events="bounding-box">
<g class="vf-notehead" pointer-events="bounding-box">
<path stroke-width="0.3" fill="#000000" stroke="none" stroke-dasharray="none" d="M694.4991791999998 197.99999999999997M701.8561391999998 192.77711999999997C701.9684591999999 192.77711999999997,702.1369391999998 192.77711999999997,702.1650191999998 192.77711999999997C702.1650191999998 192.77711999999997,702.1930991999999 192.77711999999997,702.1930991999999 192.77711999999997C702.1930991999999 192.77711999999997,702.3615791999998 192.77711999999997,702.5019791999998 192.77711999999997C705.0291791999998 192.91751999999997,706.5174191999998 194.57423999999997,706.5174191999998 196.65215999999998C706.5174191999998 197.66303999999997,706.1804591999999 198.81431999999998,705.3380591999999 199.90943999999996C703.7374991999999 202.07159999999996,701.1260591999999 203.25095999999996,698.8515791999998 203.25095999999996C697.0825391999998 203.25095999999996,695.5662191999999 202.54895999999997,694.8361391999998 201.11687999999998C694.6114991999998 200.55527999999998,694.4991791999998 200.02175999999997,694.4991791999998 199.43207999999998C694.4991791999998 196.37135999999998,697.9249391999998 192.97367999999997,701.8561391999998 192.77711999999997">
</path>
</g>
</g>
<g class="vf-modifiers">
<g class="vf-stavenote" id="vf-auto16187">
<g class="vf-note" pointer-events="bounding-box">
<g class="vf-stem" pointer-events="bounding-box">
<path stroke-width="1.5" fill="none" stroke="#000000" stroke-dasharray="none" d="M675.8171407999998 197.99999999999997L675.8171407999998 174.89999999999998">
</path>
</g>
<g class="vf-notehead" pointer-events="bounding-box">
<path stroke-width="0.3" fill="#000000" stroke="none" stroke-dasharray="none" d="M668.6351023999998 197.99999999999997M673.4906959999998 194.55289919999998C673.5648271999999 194.55289919999998,673.6760239999999 194.55289919999998,673.6945567999999 194.55289919999998C673.6945567999999 194.55289919999998,673.7130895999999 194.55289919999998,673.7130895999999 194.55289919999998C673.7130895999999 194.55289919999998,673.8242863999998 194.55289919999998,673.9169503999998 194.55289919999998C675.5849023999998 194.64556319999997,676.5671407999998 195.73899839999996,676.5671407999998 197.11042559999999C676.5671407999998 197.77760639999997,676.3447471999998 198.53745119999996,675.7887631999998 199.26023039999998C674.7323935999998 200.68725599999996,673.0088431999998 201.46563359999996,671.5076863999998 201.46563359999996C670.3401199999998 201.46563359999996,669.3393487999998 201.00231359999998,668.8574959999999 200.05714079999998C668.7092335999998 199.68648479999996,668.6351023999998 199.33436159999997,668.6351023999998 198.94517279999997C668.6351023999998 196.92509759999996,670.8961039999998 194.68262879999997,673.4906959999998 194.55289919999998">
</path>
</g>
<g class="vf-flag" pointer-events="bounding-box">
<path stroke-width="0.3" fill="#000000" stroke="none" stroke-dasharray="none" d="M675.8171407999998 172.89999999999998M675.3723535999999 175.88378079999998L675.3723535999999 172.992664L675.4464847999998 172.992664C675.6503455999998 172.992664,675.7800751999998 173.12239359999998,675.8171407999998 173.34478719999998C676.2063295999999 175.19806719999997,677.3738959999998 177.21814239999998,678.9862495999998 178.73783199999997C680.7839311999999 180.42431679999999,681.6920383999999 182.74091679999998,681.6920383999999 185.13164799999998C681.6920383999999 187.39264959999997,680.8951279999999 189.74631519999997,679.2827743999999 191.69225919999997C679.0047823999998 192.06291519999996,678.9862495999998 192.06291519999996,678.8009215999998 192.06291519999996C678.5785279999998 192.06291519999996,678.4302655999999 191.89611999999997,678.4302655999999 191.67372639999996C678.4302655999999 191.50693119999997,678.4487983999999 191.4698656,678.6341263999998 191.2660048C680.0426191999999 189.56098719999997,680.7468655999999 187.5038464,680.7468655999999 185.5393696C680.7468655999999 183.7972864,680.1908815999998 182.12933439999998,679.0418479999998 180.86910399999996C678.3376015999999 180.09072639999997,677.0403055999998 179.34941439999997,675.3908863999999 178.77489759999997C675.3908863999999 178.75636479999997,675.3723535999999 178.18184799999997,675.3723535999999 175.88378079999998">
</path>
</g>
</g>
<g class="vf-modifiers">
</g>
</g>
<path stroke-width="1" fill="none" stroke="#000000" stroke-dasharray="none" d="M669.6351023999998 189.74999999999997L682.6351023999998 180.74999999999997Z">
</path>
</g>
</g>
<g class="vf-stavenote" id="vf-auto16201">
<g class="vf-note" pointer-events="bounding-box">
<g class="vf-notehead" pointer-events="bounding-box">
<path stroke-width="0.3" fill="#000000" stroke="none" stroke-dasharray="none" d="M724.9876503999999 197.99999999999997M732.3446103999999 192.77711999999997C732.4569303999999 192.77711999999997,732.6254103999999 192.77711999999997,732.6534903999999 192.77711999999997C732.6534903999999 192.77711999999997,732.6815703999999 192.77711999999997,732.6815703999999 192.77711999999997C732.6815703999999 192.77711999999997,732.8500503999999 192.77711999999997,732.9904503999999 192.77711999999997C735.5176503999999 192.91751999999997,737.0058903999999 194.57423999999997,737.0058903999999 196.65215999999998C737.0058903999999 197.66303999999997,736.6689303999999 198.81431999999998,735.8265303999999 199.90943999999996C734.2259703999999 202.07159999999996,731.6145303999999 203.25095999999996,729.3400503999999 203.25095999999996C727.5710103999999 203.25095999999996,726.0546903999999 202.54895999999997,725.3246103999999 201.11687999999998C725.0999703999998 200.55527999999998,724.9876503999999 200.02175999999997,724.9876503999999 199.43207999999998C724.9876503999999 196.37135999999998,728.4134103999999 192.97367999999997,732.3446103999999 192.77711999999997">
</path>
</g>
</g>
<g class="vf-modifiers">
</g>
</g>
<g class="vf-stavenote" id="vf-auto16211">
<g class="vf-note" pointer-events="bounding-box">
<g class="vf-notehead" pointer-events="bounding-box">
<path stroke-width="0.3" fill="#000000" stroke="none" stroke-dasharray="none" d="M781.3401984 197.99999999999997M788.6971583999999 192.77711999999997C788.8094784 192.77711999999997,788.9779583999999 192.77711999999997,789.0060384 192.77711999999997C789.0060384 192.77711999999997,789.0341184 192.77711999999997,789.0341184 192.77711999999997C789.0341184 192.77711999999997,789.2025983999999 192.77711999999997,789.3429983999999 192.77711999999997C791.8701983999999 192.91751999999997,793.3584384 194.57423999999997,793.3584384 196.65215999999998C793.3584384 197.66303999999997,793.0214784 198.81431999999998,792.1790784 199.90943999999996C790.5785184 202.07159999999996,787.9670784 203.25095999999996,785.6925984 203.25095999999996C783.9235583999999 203.25095999999996,782.4072384 202.54895999999997,781.6771583999999 201.11687999999998C781.4525183999999 200.55527999999998,781.3401984 200.02175999999997,781.3401984 199.43207999999998C781.3401984 196.37135999999998,784.7659583999999 192.97367999999997,788.6971583999999 192.77711999999997">
</path>
</g>
</g>
<g class="vf-modifiers">
<g class="vf-stavenote" id="vf-auto16221">
<g class="vf-note" pointer-events="bounding-box">
<g class="vf-stem" pointer-events="bounding-box">
<path stroke-width="1.5" fill="none" stroke="#000000" stroke-dasharray="none" d="M762.65816 197.99999999999997L762.65816 174.89999999999998">
</path>
</g>
<g class="vf-notehead" pointer-events="bounding-box">
<path stroke-width="0.3" fill="#000000" stroke="none" stroke-dasharray="none" d="M755.4761215999999 197.99999999999997M760.3317152 194.55289919999998C760.4058464 194.55289919999998,760.5170432 194.55289919999998,760.535576 194.55289919999998C760.535576 194.55289919999998,760.5541088 194.55289919999998,760.5541088 194.55289919999998C760.5541088 194.55289919999998,760.6653055999999 194.55289919999998,760.7579695999999 194.55289919999998C762.4259215999999 194.64556319999997,763.40816 195.73899839999996,763.40816 197.11042559999999C763.40816 197.77760639999997,763.1857663999999 198.53745119999996,762.6297824 199.26023039999998C761.5734127999999 200.68725599999996,759.8498623999999 201.46563359999996,758.3487055999999 201.46563359999996C757.1811392 201.46563359999996,756.1803679999999 201.00231359999998,755.6985152 200.05714079999998C755.5502528 199.68648479999996,755.4761215999999 199.33436159999997,755.4761215999999 198.94517279999997C755.4761215999999 196.92509759999996,757.7371231999999 194.68262879999997,760.3317152 194.55289919999998">
</path>
</g>
<g class="vf-flag" pointer-events="bounding-box">
<path stroke-width="0.3" fill="#000000" stroke="none" stroke-dasharray="none" d="M762.65816 172.89999999999998M762.2133728 175.88378079999998L762.2133728 172.992664L762.2875039999999 172.992664C762.4913647999999 172.992664,762.6210944 173.12239359999998,762.65816 173.34478719999998C763.0473488 175.19806719999997,764.2149152 177.21814239999998,765.8272688 178.73783199999997C767.6249504 180.42431679999999,768.5330576 182.74091679999998,768.5330576 185.13164799999998C768.5330576 187.39264959999997,767.7361472 189.74631519999997,766.1237936 191.69225919999997C765.8458016 192.06291519999996,765.8272688 192.06291519999996,765.6419407999999 192.06291519999996C765.4195471999999 192.06291519999996,765.2712848 191.89611999999997,765.2712848 191.67372639999996C765.2712848 191.50693119999997,765.2898176 191.4698656,765.4751455999999 191.2660048C766.8836384 189.56098719999997,767.5878848 187.5038464,767.5878848 185.5393696C767.5878848 183.7972864,767.0319007999999 182.12933439999998,765.8828672 180.86910399999996C765.1786208 180.09072639999997,763.8813247999999 179.34941439999997,762.2319056 178.77489759999997C762.2319056 178.75636479999997,762.2133728 178.18184799999997,762.2133728 175.88378079999998">
</path>
</g>
</g>
<g class="vf-modifiers">
</g>
</g>
<path stroke-width="1" fill="none" stroke="#000000" stroke-dasharray="none" d="M756.4761215999999 189.74999999999997L769.4761215999999 180.74999999999997Z">
</path>
</g>
</g>
<g class="vf-stavenote" id="vf-auto16235">
<g class="vf-note" pointer-events="bounding-box">
<g class="vf-notehead" pointer-events="bounding-box">
<path stroke-width="0.3" fill="#000000" stroke="none" stroke-dasharray="none" d="M811.8286695999999 197.99999999999997M819.1856295999999 192.77711999999997C819.2979495999999 192.77711999999997,819.4664295999999 192.77711999999997,819.4945095999999 192.77711999999997C819.4945095999999 192.77711999999997,819.5225896 192.77711999999997,819.5225896 192.77711999999997C819.5225896 192.77711999999997,819.6910695999999 192.77711999999997,819.8314695999999 192.77711999999997C822.3586695999999 192.91751999999997,823.8469095999999 194.57423999999997,823.8469095999999 196.65215999999998C823.8469095999999 197.66303999999997,823.5099495999999 198.81431999999998,822.6675495999999 199.90943999999996C821.0669895999999 202.07159999999996,818.4555495999999 203.25095999999996,816.1810695999999 203.25095999999996C814.4120295999999 203.25095999999996,812.8957095999999 202.54895999999997,812.1656295999999 201.11687999999998C811.9409895999999 200.55527999999998,811.8286695999999 200.02175999999997,811.8286695999999 199.43207999999998C811.8286695999999 196.37135999999998,815.2544295999999 192.97367999999997,819.1856295999999 192.77711999999997">
</path>
</g>
</g>
<g class="vf-modifiers">
</g>
</g>
<g class="vf-stavenote" id="vf-auto16245">
<g class="vf-note" pointer-events="bounding-box">
<g class="vf-notehead" pointer-events="bounding-box">
<path stroke-width="0.3" fill="#000000" stroke="none" stroke-dasharray="none" d="M842.3171407999998 197.99999999999997M849.6741007999998 192.77711999999997C849.7864207999999 192.77711999999997,849.9549007999998 192.77711999999997,849.9829807999998 192.77711999999997C849.9829807999998 192.77711999999997,850.0110607999999 192.77711999999997,850.0110607999999 192.77711999999997C850.0110607999999 192.77711999999997,850.1795407999998 192.77711999999997,850.3199407999998 192.77711999999997C852.8471407999998 192.91751999999997,854.3353807999998 194.57423999999997,854.3353807999998 196.65215999999998C854.3353807999998 197.66303999999997,853.9984207999998 198.81431999999998,853.1560207999999 199.90943999999996C851.5554607999999 202.07159999999996,848.9440207999999 203.25095999999996,846.6695407999998 203.25095999999996C844.9005007999998 203.25095999999996,843.3841807999999 202.54895999999997,842.6541007999998 201.11687999999998C842.4294607999998 200.55527999999998,842.3171407999998 200.02175999999997,842.3171407999998 199.43207999999998C842.3171407999998 196.37135999999998,845.7429007999998 192.97367999999997,849.6741007999998 192.77711999999997">
</path>
</g>
</g>
<g class="vf-modifiers">
</g>
</g>
<g class="vf-stavenote" id="vf-auto16255">
<g class="vf-note" pointer-events="bounding-box">
<g class="vf-notehead" pointer-events="bounding-box">
<path stroke-width="0.3" fill="#000000" stroke="none" stroke-dasharray="none" d="M872.8056119999999 197.99999999999997M880.1625719999998 192.77711999999997C880.2748919999999 192.77711999999997,880.4433719999998 192.77711999999997,880.4714519999999 192.77711999999997C880.4714519999999 192.77711999999997,880.4995319999999 192.77711999999997,880.4995319999999 192.77711999999997C880.4995319999999 192.77711999999997,880.6680119999999 192.77711999999997,880.8084119999999 192.77711999999997C883.3356119999999 192.91751999999997,884.8238519999999 194.57423999999997,884.8238519999999 196.65215999999998C884.8238519999999 197.66303999999997,884.4868919999999 198.81431999999998,883.6444919999999 199.90943999999996C882.0439319999999 202.07159999999996,879.4324919999999 203.25095999999996,877.1580119999999 203.25095999999996C875.3889719999999 203.25095999999996,873.8726519999999 202.54895999999997,873.1425719999999 201.11687999999998C872.9179319999998 200.55527999999998,872.8056119999999 200.02175999999997,872.8056119999999 199.43207999999998C872.8056119999999 196.37135999999998,876.2313719999999 192.97367999999997,880.1625719999998 192.77711999999997">
</path>
</g>
</g>
<g class="vf-modifiers">
</g>
</g>
<g class="vf-stavenote" id="vf-auto16265">
<g class="vf-note" pointer-events="bounding-box">
<g class="vf-notehead" pointer-events="bounding-box">
<path stroke-width="0.3" fill="#000000" stroke="none" stroke-dasharray="none" d="M929.15816 197.99999999999997M936.5151199999999 192.77711999999997C936.62744 192.77711999999997,936.7959199999999 192.77711999999997,936.824 192.77711999999997C936.824 192.77711999999997,936.85208 192.77711999999997,936.85208 192.77711999999997C936.85208 192.77711999999997,937.0205599999999 192.77711999999997,937.1609599999999 192.77711999999997C939.6881599999999 192.91751999999997,941.1764 194.57423999999997,941.1764 196.65215999999998C941.1764 197.66303999999997,940.83944 198.81431999999998,939.99704 199.90943999999996C938.39648 202.07159999999996,935.78504 203.25095999999996,933.5105599999999 203.25095999999996C931.7415199999999 203.25095999999996,930.2252 202.54895999999997,929.4951199999999 201.11687999999998C929.2704799999999 200.55527999999998,929.15816 200.02175999999997,929.15816 199.43207999999998C929.15816 196.37135999999998,932.5839199999999 192.97367999999997,936.5151199999999 192.77711999999997">
</path>
</g>
</g>
<g class="vf-modifiers">
<g class="vf-stavenote" id="vf-auto16275">
<g class="vf-note" pointer-events="bounding-box">
<g class="vf-stem" pointer-events="bounding-box">
<path stroke-width="1.5" fill="none" stroke="#000000" stroke-dasharray="none" d="M910.4761215999999 197.99999999999997L910.4761215999999 174.89999999999998">
</path>
</g>
<g class="vf-notehead" pointer-events="bounding-box">
<path stroke-width="0.3" fill="#000000" stroke="none" stroke-dasharray="none" d="M903.2940831999999 197.99999999999997M908.1496768 194.55289919999998C908.223808 194.55289919999998,908.3350048 194.55289919999998,908.3535376 194.55289919999998C908.3535376 194.55289919999998,908.3720704 194.55289919999998,908.3720704 194.55289919999998C908.3720704 194.55289919999998,908.4832671999999 194.55289919999998,908.5759311999999 194.55289919999998C910.2438831999999 194.64556319999997,911.2261215999999 195.73899839999996,911.2261215999999 197.11042559999999C911.2261215999999 197.77760639999997,911.0037279999999 198.53745119999996,910.447744 199.26023039999998C909.3913743999999 200.68725599999996,907.6678239999999 201.46563359999996,906.1666671999999 201.46563359999996C904.9991008 201.46563359999996,903.9983295999999 201.00231359999998,903.5164768 200.05714079999998C903.3682143999999 199.68648479999996,903.2940831999999 199.33436159999997,903.2940831999999 198.94517279999997C903.2940831999999 196.92509759999996,905.5550847999999 194.68262879999997,908.1496768 194.55289919999998">
</path>
</g>
<g class="vf-flag" pointer-events="bounding-box">
<path stroke-width="0.3" fill="#000000" stroke="none" stroke-dasharray="none" d="M910.4761215999999 172.89999999999998M910.0313344 175.88378079999998L910.0313344 172.992664L910.1054655999999 172.992664C910.3093263999999 172.992664,910.4390559999999 173.12239359999998,910.4761215999999 173.34478719999998C910.8653104 175.19806719999997,912.0328767999999 177.21814239999998,913.6452304 178.73783199999997C915.442912 180.42431679999999,916.3510192 182.74091679999998,916.3510192 185.13164799999998C916.3510192 187.39264959999997,915.5541088 189.74631519999997,913.9417552 191.69225919999997C913.6637632 192.06291519999996,913.6452304 192.06291519999996,913.4599023999999 192.06291519999996C913.2375087999999 192.06291519999996,913.0892464 191.89611999999997,913.0892464 191.67372639999996C913.0892464 191.50693119999997,913.1077792 191.4698656,913.2931071999999 191.2660048C914.7016 189.56098719999997,915.4058464 187.5038464,915.4058464 185.5393696C915.4058464 183.7972864,914.8498623999999 182.12933439999998,913.7008288 180.86910399999996C912.9965824 180.09072639999997,911.6992863999999 179.34941439999997,910.0498672 178.77489759999997C910.0498672 178.75636479999997,910.0313344 178.18184799999997,910.0313344 175.88378079999998">
</path>
</g>
</g>
<g class="vf-modifiers">
</g>
</g>
<path stroke-width="1" fill="none" stroke="#000000" stroke-dasharray="none" d="M904.2940831999999 189.74999999999997L917.2940831999999 180.74999999999997Z">
</path>
</g>
</g>
<g class="vf-stavenote" id="vf-auto16289">
<g class="vf-note" pointer-events="bounding-box">
<g class="vf-notehead" pointer-events="bounding-box">
<path stroke-width="0.3" fill="#000000" stroke="none" stroke-dasharray="none" d="M959.6466311999999 197.99999999999997M967.0035911999998 192.77711999999997C967.1159111999999 192.77711999999997,967.2843911999998 192.77711999999997,967.3124711999999 192.77711999999997C967.3124711999999 192.77711999999997,967.3405511999999 192.77711999999997,967.3405511999999 192.77711999999997C967.3405511999999 192.77711999999997,967.5090311999999 192.77711999999997,967.6494311999999 192.77711999999997C970.1766311999999 192.91751999999997,971.6648711999999 194.57423999999997,971.6648711999999 196.65215999999998C971.6648711999999 197.66303999999997,971.3279111999999 198.81431999999998,970.4855111999999 199.90943999999996C968.8849511999999 202.07159999999996,966.2735111999999 203.25095999999996,963.9990311999999 203.25095999999996C962.2299911999999 203.25095999999996,960.7136711999999 202.54895999999997,959.9835911999999 201.11687999999998C959.7589511999998 200.55527999999998,959.6466311999999 200.02175999999997,959.6466311999999 199.43207999999998C959.6466311999999 196.37135999999998,963.0723911999999 192.97367999999997,967.0035911999998 192.77711999999997">
</path>
</g>
</g>
<g class="vf-modifiers">
</g>
</g>
<g class="vf-stavenote" id="vf-auto16299">
<g class="vf-note" pointer-events="bounding-box">
<g class="vf-notehead" pointer-events="bounding-box">
<path stroke-width="0.3" fill="#000000" stroke="none" stroke-dasharray="none" d="M990.1351023999998 197.99999999999997M997.4920623999998 192.77711999999997C997.6043823999998 192.77711999999997,997.7728623999998 192.77711999999997,997.8009423999998 192.77711999999997C997.8009423999998 192.77711999999997,997.8290223999999 192.77711999999997,997.8290223999999 192.77711999999997C997.8290223999999 192.77711999999997,997.9975023999998 192.77711999999997,998.1379023999998 192.77711999999997C1000.6651023999998 192.91751999999997,1002.1533423999998 194.57423999999997,1002.1533423999998 196.65215999999998C1002.1533423999998 197.66303999999997,1001.8163823999998 198.81431999999998,1000.9739823999998 199.90943999999996C999.3734223999999 202.07159999999996,996.7619823999999 203.25095999999996,994.4875023999998 203.25095999999996C992.7184623999998 203.25095999999996,991.2021423999998 202.54895999999997,990.4720623999998 201.11687999999998C990.2474223999998 200.55527999999998,990.1351023999998 200.02175999999997,990.1351023999998 199.43207999999998C990.1351023999998 196.37135999999998,993.5608623999998 192.97367999999997,997.4920623999998 192.77711999999997">
</path>
</g>
</g>
<g class="vf-modifiers">
</g>
</g>
<g class="vf-stavenote" id="vf-auto16309">
<g class="vf-note" pointer-events="bounding-box">
<g class="vf-notehead" pointer-events="bounding-box">
<path stroke-width="0.3" fill="#000000" stroke="none" stroke-dasharray="none" d="M1020.6235735999999 197.99999999999997M1027.9805336 192.77711999999997C1028.0928536 192.77711999999997,1028.2613336 192.77711999999997,1028.2894135999998 192.77711999999997C1028.2894135999998 192.77711999999997,1028.3174935999998 192.77711999999997,1028.3174935999998 192.77711999999997C1028.3174935999998 192.77711999999997,1028.4859735999999 192.77711999999997,1028.6263735999999 192.77711999999997C1031.1535735999998 192.91751999999997,1032.6418136 194.57423999999997,1032.6418136 196.65215999999998C1032.6418136 197.66303999999997,1032.3048536 198.81431999999998,1031.4624536 199.90943999999996C1029.8618935999998 202.07159999999996,1027.2504536 203.25095999999996,1024.9759735999999 203.25095999999996C1023.2069335999998 203.25095999999996,1021.6906135999999 202.54895999999997,1020.9605335999998 201.11687999999998C1020.7358935999998 200.55527999999998,1020.6235735999999 200.02175999999997,1020.6235735999999 199.43207999999998C1020.6235735999999 196.37135999999998,1024.0493336 192.97367999999997,1027.9805336 192.77711999999997">
</path>
</g>
</g>
<g class="vf-modifiers">
</g>
</g>
<path stroke-width="1.5" fill="none" stroke="#000000" stroke-dasharray="none" d="M445.24436159999993 197.99999999999997L445.24436159999993 163.74999999999997">
</path>
<path stroke-width="1.5" fill="none" stroke="#000000" stroke-dasharray="none" d="M475.7328327999999 197.99999999999997L475.7328327999999 163.74999999999997">
</path>
<path stroke-width="1.5" fill="none" stroke="#000000" stroke-dasharray="none" d="M532.0853807999999 197.99999999999997L532.0853807999999 163.74999999999997">
</path>
<path stroke-width="1.5" fill="none" stroke="#000000" stroke-dasharray="none" d="M562.5738519999999 197.99999999999997L562.5738519999999 163.74999999999997">
</path>
<path stroke-width="0.3" fill="#000000" stroke="none" stroke-dasharray="none" d="M444.49436159999993 162.99999999999997L444.49436159999993 167.99999999999997L562.8238519999999 167.99999999999997L562.8238519999999 162.99999999999997Z">
</path>
<path stroke-width="0.3" fill="#000000" stroke="none" stroke-dasharray="none" d="M444.49436159999993 170.49999999999997L444.49436159999993 175.49999999999997L562.8238519999999 175.49999999999997L562.8238519999999 170.49999999999997Z">
</path>
<path stroke-width="1.5" fill="none" stroke="#000000" stroke-dasharray="none" d="M618.9264 197.99999999999997L618.9264 163.74999999999997">
</path>
<path stroke-width="1.5" fill="none" stroke="#000000" stroke-dasharray="none" d="M649.4148711999999 197.99999999999997L649.4148711999999 163.74999999999997">
</path>
<path stroke-width="1.5" fill="none" stroke="#000000" stroke-dasharray="none" d="M705.7674191999998 197.99999999999997L705.7674191999998 163.74999999999997">
</path>
<path stroke-width="1.5" fill="none" stroke="#000000" stroke-dasharray="none" d="M736.2558903999999 197.99999999999997L736.2558903999999 163.74999999999997">
</path>
<path stroke-width="0.3" fill="#000000" stroke="none" stroke-dasharray="none" d="M618.1764 162.99999999999997L618.1764 167.99999999999997L736.5058903999999 167.99999999999997L736.5058903999999 162.99999999999997Z">
</path>
<path stroke-width="0.3" fill="#000000" stroke="none" stroke-dasharray="none" d="M618.1764 170.49999999999997L618.1764 175.49999999999997L736.5058903999999 175.49999999999997L736.5058903999999 170.49999999999997Z">
</path>
<path stroke-width="1.5" fill="none" stroke="#000000" stroke-dasharray="none" d="M792.6084384 197.99999999999997L792.6084384 163.74999999999997">
</path>
<path stroke-width="1.5" fill="none" stroke="#000000" stroke-dasharray="none" d="M823.0969095999999 197.99999999999997L823.0969095999999 163.74999999999997">
</path>
<path stroke-width="1.5" fill="none" stroke="#000000" stroke-dasharray="none" d="M853.5853807999998 197.99999999999997L853.5853807999998 163.74999999999997">
</path>
<path stroke-width="1.5" fill="none" stroke="#000000" stroke-dasharray="none" d="M884.0738519999999 197.99999999999997L884.0738519999999 163.74999999999997">
</path>
<path stroke-width="0.3" fill="#000000" stroke="none" stroke-dasharray="none" d="M791.8584384 162.99999999999997L791.8584384 167.99999999999997L884.3238519999999 167.99999999999997L884.3238519999999 162.99999999999997Z">
</path>
<path stroke-width="0.3" fill="#000000" stroke="none" stroke-dasharray="none" d="M791.8584384 170.49999999999997L791.8584384 175.49999999999997L884.3238519999999 175.49999999999997L884.3238519999999 170.49999999999997Z">
</path>
<path stroke-width="1.5" fill="none" stroke="#000000" stroke-dasharray="none" d="M940.4264 197.99999999999997L940.4264 163.74999999999997">
</path>
<path stroke-width="1.5" fill="none" stroke="#000000" stroke-dasharray="none" d="M970.9148711999999 197.99999999999997L970.9148711999999 163.74999999999997">
</path>
<path stroke-width="1.5" fill="none" stroke="#000000" stroke-dasharray="none" d="M1001.4033423999998 197.99999999999997L1001.4033423999998 163.74999999999997">
</path>
<path stroke-width="1.5" fill="none" stroke="#000000" stroke-dasharray="none" d="M1031.8918136 197.99999999999997L1031.8918136 163.74999999999997">
</path>
<path stroke-width="0.3" fill="#000000" stroke="none" stroke-dasharray="none" d="M939.6764 162.99999999999997L939.6764 167.99999999999997L1032.1418136 167.99999999999997L1032.1418136 162.99999999999997Z">
</path>
<path stroke-width="0.3" fill="#000000" stroke="none" stroke-dasharray="none" d="M939.6764 170.49999999999997L939.6764 175.49999999999997L1032.1418136 175.49999999999997L1032.1418136 170.49999999999997Z">
</path>
</svg>