<svg width="1536" height="331.99999999999994" viewBox="0 0 1536 331.99999999999994">
<path stroke-width="1" fill="none" stroke="black" stroke-dasharray="none" d="M50 197.99999999999997L391.1120447999999 197.99999999999997">
</path>
<rect stroke-width="0.3" fill="black" stroke="black" stroke-dasharray="none" x="391.1120447999999" y="177.49999999999997" width="1" height="41">
</rect>
<path stroke-width="0.3" fill="black" stroke="none" stroke-dasharray="none" d="M55 197.99999999999997M55 197.99999999999997L55 188.00639999999999L57.1888 188.00639999999999L59.4064 188.00639999999999L59.4064 197.99999999999997L59.4064 208.02239999999998L57.1888 208.02239999999998L55 208.02239999999998L55 197.99999999999997M63.870400000000004 198.02879999999996L63.870400000000004 188.00639999999999L66.1168 188.00639999999999L68.3632 188.00639999999999L68.3632 198.02879999999996L68.3632 208.02239999999998L66.1168 208.02239999999998L63.870400000000004 208.02239999999998L63.870400000000004 198.02879999999996">
</path>
<path stroke-width="0.3" fill="black" stroke="none" stroke-dasharray="none" d="M96 197.99999999999997M101.0112 179.65439999999998C101.04 179.62559999999996,101.4432 179.62559999999996,102.6816 179.62559999999996C103.056 179.62559999999996,103.4592 179.62559999999996,103.9776 179.62559999999996L106.8864 179.62559999999996L106.9728 179.71199999999996C107.1168 179.79839999999996,107.2032 179.94239999999996,107.2032 180.05759999999998C107.2032 180.23039999999997,107.1168 180.34559999999996,107.0016 180.46079999999998C106.9728 180.54719999999998,106.7136 180.77759999999998,106.5408 181.03679999999997L105.0144 182.79359999999997L103.056 185.01119999999997L102.0192 186.19199999999998L100.464 187.97759999999997L98.4192 190.31039999999996C98.0736 190.74239999999998,97.6992 191.08799999999997,97.6992 191.08799999999997C97.6992 191.08799999999997,97.6992 191.08799999999997,97.6992 191.08799999999997C97.6992 191.14559999999997,97.9584 191.14559999999997,100.3488 191.14559999999997L102.9696 191.14559999999997L102.9696 189.27359999999996C102.9696 187.37279999999998,102.9696 187.34399999999997,102.9984 187.31519999999998C103.056 187.22879999999998,103.3152 186.91199999999998,104.3232 185.73119999999997L104.7264 185.29919999999998L105.1296 184.86719999999997L105.7344 184.08959999999996L106.368 183.42719999999997L106.6848 183.02399999999997C106.8 182.85119999999998,106.9728 182.82239999999996,107.1168 182.82239999999996C107.28960000000001 182.82239999999996,107.4336 182.90879999999999,107.52 183.05279999999996C107.5488 183.13919999999996,107.5488 183.19679999999997,107.5488 185.32799999999997C107.5488 185.81759999999997,107.5488 186.42239999999998,107.5488 187.14239999999998L107.5488 191.14559999999997L108.2688 191.14559999999997C108.9312 191.14559999999997,108.96 191.14559999999997,109.0464 191.17439999999996C109.2768 191.26079999999996,109.392 191.49119999999996,109.392 191.75039999999998C109.392 191.89439999999996,109.3632 192.06719999999999,109.248 192.18239999999997C109.0752 192.32639999999998,109.0464 192.32639999999998,108.2688 192.32639999999998L107.5488 192.32639999999998L107.5488 192.81599999999997C107.5776 194.28479999999996,107.8656 194.86079999999998,108.9888 195.46559999999997C109.392 195.66719999999998,109.4784 195.72479999999996,109.4784 196.01279999999997C109.4784 196.21439999999998,109.4208 196.30079999999998,109.2768 196.41599999999997L109.1904 196.44479999999996L105.2448 196.44479999999996L101.328 196.44479999999996L101.2416 196.41599999999997C101.0688 196.30079999999998,101.04 196.21439999999998,101.04 196.01279999999997C101.04 195.72479999999996,101.0688 195.66719999999998,101.5008 195.46559999999997C102.624 194.86079999999998,102.912 194.28479999999996,102.912 192.81599999999997L102.912 192.32639999999998L99.6 192.32639999999998C98.9952 192.38399999999996,98.5056 192.38399999999996,98.1024 192.38399999999996C96.288 192.38399999999996,96.2592 192.32639999999998,96.2304 192.32639999999998C96.0576 192.26879999999997,96 192.09599999999998,96 191.89439999999996C96 191.89439999999996,96 191.89439999999996,96 191.89439999999996C96 191.69279999999998,96 191.69279999999998,96.576 191.0304C98.9952 188.09279999999998,100.6944 183.83039999999997,100.6944 180.43199999999996C100.6944 179.91359999999997,100.7808 179.74079999999998,101.0112 179.65439999999998M102.7392 198.02879999999996L102.768 198.02879999999996L102.6816 198.02879999999996L102.7392 198.02879999999996M102.7392 178.61759999999998L102.768 178.61759999999998L102.6816 178.61759999999998L102.7392 178.61759999999998">
</path>
<path stroke-width="0.3" fill="black" stroke="none" stroke-dasharray="none" d="M96 217.99999999999997M101.0112 199.65439999999998C101.04 199.62559999999996,101.4432 199.62559999999996,102.6816 199.62559999999996C103.056 199.62559999999996,103.4592 199.62559999999996,103.9776 199.62559999999996L106.8864 199.62559999999996L106.9728 199.71199999999996C107.1168 199.79839999999996,107.2032 199.94239999999996,107.2032 200.05759999999998C107.2032 200.23039999999997,107.1168 200.34559999999996,107.0016 200.46079999999998C106.9728 200.54719999999998,106.7136 200.77759999999998,106.5408 201.03679999999997L105.0144 202.79359999999997L103.056 205.01119999999997L102.0192 206.19199999999998L100.464 207.97759999999997L98.4192 210.31039999999996C98.0736 210.74239999999998,97.6992 211.08799999999997,97.6992 211.08799999999997C97.6992 211.08799999999997,97.6992 211.08799999999997,97.6992 211.08799999999997C97.6992 211.14559999999997,97.9584 211.14559999999997,100.3488 211.14559999999997L102.9696 211.14559999999997L102.9696 209.27359999999996C102.9696 207.37279999999998,102.9696 207.34399999999997,102.9984 207.31519999999998C103.056 207.22879999999998,103.3152 206.91199999999998,104.3232 205.73119999999997L104.7264 205.29919999999998L105.1296 204.86719999999997L105.7344 204.08959999999996L106.368 203.42719999999997L106.6848 203.02399999999997C106.8 202.85119999999998,106.9728 202.82239999999996,107.1168 202.82239999999996C107.28960000000001 202.82239999999996,107.4336 202.90879999999999,107.52 203.05279999999996C107.5488 203.13919999999996,107.5488 203.19679999999997,107.5488 205.32799999999997C107.5488 205.81759999999997,107.5488 206.42239999999998,107.5488 207.14239999999998L107.5488 211.14559999999997L108.2688 211.14559999999997C108.9312 211.14559999999997,108.96 211.14559999999997,109.0464 211.17439999999996C109.2768 211.26079999999996,109.392 211.49119999999996,109.392 211.75039999999998C109.392 211.89439999999996,109.3632 212.06719999999999,109.248 212.18239999999997C109.0752 212.32639999999998,109.0464 212.32639999999998,108.2688 212.32639999999998L107.5488 212.32639999999998L107.5488 212.81599999999997C107.5776 214.28479999999996,107.8656 214.86079999999998,108.9888 215.46559999999997C109.392 215.66719999999998,109.4784 215.72479999999996,109.4784 216.01279999999997C109.4784 216.21439999999998,109.4208 216.30079999999998,109.2768 216.41599999999997L109.1904 216.44479999999996L105.2448 216.44479999999996L101.328 216.44479999999996L101.2416 216.41599999999997C101.0688 216.30079999999998,101.04 216.21439999999998,101.04 216.01279999999997C101.04 215.72479999999996,101.0688 215.66719999999998,101.5008 215.46559999999997C102.624 214.86079999999998,102.912 214.28479999999996,102.912 212.81599999999997L102.912 212.32639999999998L99.6 212.32639999999998C98.9952 212.38399999999996,98.5056 212.38399999999996,98.1024 212.38399999999996C96.288 212.38399999999996,96.2592 212.32639999999998,96.2304 212.32639999999998C96.0576 212.26879999999997,96 212.09599999999998,96 211.89439999999996C96 211.89439999999996,96 211.89439999999996,96 211.89439999999996C96 211.69279999999998,96 211.69279999999998,96.576 211.0304C98.9952 208.09279999999998,100.6944 203.83039999999997,100.6944 200.43199999999996C100.6944 199.91359999999997,100.7808 199.74079999999998,101.0112 199.65439999999998M102.7392 218.02879999999996L102.768 218.02879999999996L102.6816 218.02879999999996L102.7392 218.02879999999996M102.7392 198.61759999999998L102.768 198.61759999999998L102.6816 198.61759999999998L102.7392 198.61759999999998">
</path>
<g class="vf-stavenote" id="vf-auto14381">
<g class="vf-note" pointer-events="bounding-box">
<g class="vf-notehead" pointer-events="bounding-box">
<path stroke-width="0.3" fill="#000000" stroke="none" stroke-dasharray="none" d="M121.4784 197.99999999999997M128.83535999999998 192.77711999999997C128.94768 192.77711999999997,129.11615999999998 192.77711999999997,129.14424 192.77711999999997C129.14424 192.77711999999997,129.17231999999998 192.77711999999997,129.17231999999998 192.77711999999997C129.17231999999998 192.77711999999997,129.3408 192.77711999999997,129.4812 192.77711999999997C132.0084 192.91751999999997,133.49663999999999 194.57423999999997,133.49663999999999 196.65215999999998C133.49663999999999 197.66303999999997,133.15967999999998 198.81431999999998,132.31727999999998 199.90943999999996C130.71671999999998 202.07159999999996,128.10528 203.25095999999996,125.8308 203.25095999999996C124.06175999999999 203.25095999999996,122.54544 202.54895999999997,121.81536 201.11687999999998C121.59071999999999 200.55527999999998,121.4784 200.02175999999997,121.4784 199.43207999999998C121.4784 196.37135999999998,124.90415999999999 192.97367999999997,128.83535999999998 192.77711999999997">
</path>
</g>
</g>
<g class="vf-modifiers">
</g>
</g>
<g class="vf-stavenote" id="vf-auto14391">
<g class="vf-note" pointer-events="bounding-box">
<g class="vf-notehead" pointer-events="bounding-box">
<path stroke-width="0.3" fill="#000000" stroke="none" stroke-dasharray="none" d="M155.4186 197.99999999999997M162.77555999999998 192.77711999999997C162.88788 192.77711999999997,163.05635999999998 192.77711999999997,163.08444 192.77711999999997C163.08444 192.77711999999997,163.11252 192.77711999999997,163.11252 192.77711999999997C163.11252 192.77711999999997,163.281 192.77711999999997,163.4214 192.77711999999997C165.9486 192.91751999999997,167.43684 194.57423999999997,167.43684 196.65215999999998C167.43684 197.66303999999997,167.09987999999998 198.81431999999998,166.25748 199.90943999999996C164.65691999999999 202.07159999999996,162.04548 203.25095999999996,159.771 203.25095999999996C158.00196 203.25095999999996,156.48564 202.54895999999997,155.75556 201.11687999999998C155.53092 200.55527999999998,155.4186 200.02175999999997,155.4186 199.43207999999998C155.4186 196.37135999999998,158.84436 192.97367999999997,162.77555999999998 192.77711999999997">
</path>
</g>
</g>
<g class="vf-modifiers">
</g>
</g>
<g class="vf-stavenote" id="vf-auto14401">
<g class="vf-note" pointer-events="bounding-box">
<g class="vf-notehead" pointer-events="bounding-box">
<path stroke-width="0.3" fill="#000000" stroke="none" stroke-dasharray="none" d="M189.3588 197.99999999999997M196.71576 192.77711999999997C196.82808 192.77711999999997,196.99656 192.77711999999997,197.02464 192.77711999999997C197.02464 192.77711999999997,197.05272 192.77711999999997,197.05272 192.77711999999997C197.05272 192.77711999999997,197.2212 192.77711999999997,197.3616 192.77711999999997C199.8888 192.91751999999997,201.37704 194.57423999999997,201.37704 196.65215999999998C201.37704 197.66303999999997,201.04008 198.81431999999998,200.19768 199.90943999999996C198.59712 202.07159999999996,195.98568 203.25095999999996,193.7112 203.25095999999996C191.94216 203.25095999999996,190.42584 202.54895999999997,189.69576 201.11687999999998C189.47112 200.55527999999998,189.3588 200.02175999999997,189.3588 199.43207999999998C189.3588 196.37135999999998,192.78456 192.97367999999997,196.71576 192.77711999999997">
</path>
</g>
</g>
<g class="vf-modifiers">
</g>
</g>
<g class="vf-stavenote" id="vf-auto14411">
<g class="vf-note" pointer-events="bounding-box">
<g class="vf-notehead" pointer-events="bounding-box">
<path stroke-width="0.3" fill="#000000" stroke="none" stroke-dasharray="none" d="M223.299 197.99999999999997M230.65596 192.77711999999997C230.76828 192.77711999999997,230.93676 192.77711999999997,230.96484 192.77711999999997C230.96484 192.77711999999997,230.99292 192.77711999999997,230.99292 192.77711999999997C230.99292 192.77711999999997,231.16140000000001 192.77711999999997,231.30180000000001 192.77711999999997C233.829 192.91751999999997,235.31724 194.57423999999997,235.31724 196.65215999999998C235.31724 197.66303999999997,234.98028 198.81431999999998,234.13788 199.90943999999996C232.53732 202.07159999999996,229.92588 203.25095999999996,227.6514 203.25095999999996C225.88236 203.25095999999996,224.36604 202.54895999999997,223.63596 201.11687999999998C223.41132000000002 200.55527999999998,223.299 200.02175999999997,223.299 199.43207999999998C223.299 196.37135999999998,226.72476 192.97367999999997,230.65596 192.77711999999997">
</path>
</g>
</g>
<g class="vf-modifiers">
</g>
</g>
<g class="vf-stavenote" id="vf-auto14421">
<g class="vf-note" pointer-events="bounding-box">
<g class="vf-notehead" pointer-events="bounding-box">
<path stroke-width="0.3" fill="#000000" stroke="none" stroke-dasharray="none" d="M257.2392 197.99999999999997M264.59616 192.77711999999997C264.70848 192.77711999999997,264.87696 192.77711999999997,264.90504 192.77711999999997C264.90504 192.77711999999997,264.93312 192.77711999999997,264.93312 192.77711999999997C264.93312 192.77711999999997,265.10159999999996 192.77711999999997,265.24199999999996 192.77711999999997C267.76919999999996 192.91751999999997,269.25744 194.57423999999997,269.25744 196.65215999999998C269.25744 197.66303999999997,268.92048 198.81431999999998,268.07808 199.90943999999996C266.47751999999997 202.07159999999996,263.86608 203.25095999999996,261.59159999999997 203.25095999999996C259.82256 203.25095999999996,258.30624 202.54895999999997,257.57615999999996 201.11687999999998C257.35152 200.55527999999998,257.2392 200.02175999999997,257.2392 199.43207999999998C257.2392 196.37135999999998,260.66496 192.97367999999997,264.59616 192.77711999999997">
</path>
</g>
</g>
<g class="vf-modifiers">
</g>
</g>
<g class="vf-stavenote" id="vf-auto14431">
<g class="vf-note" pointer-events="bounding-box">
<g class="vf-notehead" pointer-events="bounding-box">
<path stroke-width="0.3" fill="#000000" stroke="none" stroke-dasharray="none" d="M291.1794 197.99999999999997M298.53636 192.77711999999997C298.64868 192.77711999999997,298.81716 192.77711999999997,298.84524 192.77711999999997C298.84524 192.77711999999997,298.87332 192.77711999999997,298.87332 192.77711999999997C298.87332 192.77711999999997,299.04179999999997 192.77711999999997,299.18219999999997 192.77711999999997C301.70939999999996 192.91751999999997,303.19764 194.57423999999997,303.19764 196.65215999999998C303.19764 197.66303999999997,302.86068 198.81431999999998,302.01828 199.90943999999996C300.41772 202.07159999999996,297.80628 203.25095999999996,295.5318 203.25095999999996C293.76276 203.25095999999996,292.24644 202.54895999999997,291.51635999999996 201.11687999999998C291.29172 200.55527999999998,291.1794 200.02175999999997,291.1794 199.43207999999998C291.1794 196.37135999999998,294.60516 192.97367999999997,298.53636 192.77711999999997">
</path>
</g>
</g>
<g class="vf-modifiers">
</g>
</g>
<g class="vf-stavenote" id="vf-auto14441">
<g class="vf-note" pointer-events="bounding-box">
<g class="vf-notehead" pointer-events="bounding-box">
<path stroke-width="0.3" fill="#000000" stroke="none" stroke-dasharray="none" d="M325.1196 197.99999999999997M332.47656 192.77711999999997C332.58888 192.77711999999997,332.75736 192.77711999999997,332.78544 192.77711999999997C332.78544 192.77711999999997,332.81352 192.77711999999997,332.81352 192.77711999999997C332.81352 192.77711999999997,332.98199999999997 192.77711999999997,333.12239999999997 192.77711999999997C335.64959999999996 192.91751999999997,337.13784 194.57423999999997,337.13784 196.65215999999998C337.13784 197.66303999999997,336.80088 198.81431999999998,335.95848 199.90943999999996C334.35792 202.07159999999996,331.74648 203.25095999999996,329.472 203.25095999999996C327.70296 203.25095999999996,326.18664 202.54895999999997,325.45655999999997 201.11687999999998C325.23192 200.55527999999998,325.1196 200.02175999999997,325.1196 199.43207999999998C325.1196 196.37135999999998,328.54536 192.97367999999997,332.47656 192.77711999999997">
</path>
</g>
</g>
<g class="vf-modifiers">
</g>
</g>
<g class="vf-stavenote" id="vf-auto14451">
<g class="vf-note" pointer-events="bounding-box">
<g class="vf-notehead" pointer-events="bounding-box">
<path stroke-width="0.3" fill="#000000" stroke="none" stroke-dasharray="none" d="M359.0598 197.99999999999997M366.41676 192.77711999999997C366.52908 192.77711999999997,366.69756 192.77711999999997,366.72564 192.77711999999997C366.72564 192.77711999999997,366.75372 192.77711999999997,366.75372 192.77711999999997C366.75372 192.77711999999997,366.9222 192.77711999999997,367.0626 192.77711999999997C369.58979999999997 192.91751999999997,371.07804 194.57423999999997,371.07804 196.65215999999998C371.07804 197.66303999999997,370.74108 198.81431999999998,369.89868 199.90943999999996C368.29812 202.07159999999996,365.68668 203.25095999999996,363.4122 203.25095999999996C361.64316 203.25095999999996,360.12684 202.54895999999997,359.39676 201.11687999999998C359.17212 200.55527999999998,359.0598 200.02175999999997,359.0598 199.43207999999998C359.0598 196.37135999999998,362.48556 192.97367999999997,366.41676 192.77711999999997">
</path>
</g>
</g>
<g class="vf-modifiers">
</g>
</g>
<path stroke-width="1.5" fill="none" stroke="#000000" stroke-dasharray="none" d="M132.74663999999999 197.99999999999997L132.74663999999999 163.74999999999997">
</path>
<path stroke-width="1.5" fill="none" stroke="#000000" stroke-dasharray="none" d="M166.68684 197.99999999999997L166.68684 163.74999999999997">
</path>
<path stroke-width="1.5" fill="none" stroke="#000000" stroke-dasharray="none" d="M200.62704 197.99999999999997L200.62704 163.74999999999997">
</path>
<path stroke-width="1.5" fill="none" stroke="#000000" stroke-dasharray="none" d="M234.56724 197.99999999999997L234.56724 163.74999999999997">
</path>
<path stroke-width="0.3" fill="#000000" stroke="none" stroke-dasharray="none" d="M131.99663999999999 162.99999999999997L131.99663999999999 167.99999999999997L234.81724 167.99999999999997L234.81724 162.99999999999997Z">
</path>
<path stroke-width="1.5" fill="none" stroke="#000000" stroke-dasharray="none" d="M268.50744 197.99999999999997L268.50744 163.74999999999997">
</path>
<path stroke-width="1.5" fill="none" stroke="#000000" stroke-dasharray="none" d="M302.44764 197.99999999999997L302.44764 163.74999999999997">
</path>
<path stroke-width="1.5" fill="none" stroke="#000000" stroke-dasharray="none" d="M336.38784 197.99999999999997L336.38784 163.74999999999997">
</path>
<path stroke-width="1.5" fill="none" stroke="#000000" stroke-dasharray="none" d="M370.32804 197.99999999999997L370.32804 163.74999999999997">
</path>
<path stroke-width="0.3" fill="#000000" stroke="none" stroke-dasharray="none" d="M267.75744 162.99999999999997L267.75744 167.99999999999997L370.57804 167.99999999999997L370.57804 162.99999999999997Z">
</path>
<path stroke-width="1" fill="none" stroke="black" stroke-dasharray="none" d="M391.1120447999999 197.99999999999997L937.208928768 197.99999999999997">
</path>
<rect stroke-width="0.3" fill="black" stroke="black" stroke-dasharray="none" x="932.208928768" y="177.49999999999997" width="1" height="41">
</rect>
<rect stroke-width="0.3" fill="black" stroke="black" stroke-dasharray="none" x="935.208928768" y="177.49999999999997" width="3" height="41">
</rect>
<path stroke-width="0.3" fill="black" stroke="none" stroke-dasharray="none" d="M931.208928768 193.49999999999997 A2 2 0 0 0 927.208928768 193.49999999999997M927.208928768 193.49999999999997 A2 2 0 0 0 931.208928768 193.49999999999997">
</path>
<path stroke-width="0.3" fill="black" stroke="none" stroke-dasharray="none" d="M931.208928768 203.49999999999997 A2 2 0 0 0 927.208928768 203.49999999999997M927.208928768 203.49999999999997 A2 2 0 0 0 931.208928768 203.49999999999997">
</path>
<g class="vf-stavenote" id="vf-auto14464">
<g class="vf-note" pointer-events="bounding-box">
<g class="vf-notehead" pointer-events="bounding-box">
<path stroke-width="0.3" fill="#000000" stroke="none" stroke-dasharray="none" d="M433.97612159999994 197.99999999999997M441.33308159999996 192.77711999999997C441.44540159999997 192.77711999999997,441.61388159999996 192.77711999999997,441.64196159999995 192.77711999999997C441.64196159999995 192.77711999999997,441.67004159999993 192.77711999999997,441.67004159999993 192.77711999999997C441.67004159999993 192.77711999999997,441.8385215999999 192.77711999999997,441.9789215999999 192.77711999999997C444.5061215999999 192.91751999999997,445.99436159999993 194.57423999999997,445.99436159999993 196.65215999999998C445.99436159999993 197.66303999999997,445.65740159999996 198.81431999999998,444.81500159999996 199.90943999999996C443.21444159999993 202.07159999999996,440.60300159999997 203.25095999999996,438.32852159999993 203.25095999999996C436.55948159999997 203.25095999999996,435.04316159999996 202.54895999999997,434.3130815999999 201.11687999999998C434.08844159999995 200.55527999999998,433.97612159999994 200.02175999999997,433.97612159999994 199.43207999999998C433.97612159999994 196.37135999999998,437.40188159999997 192.97367999999997,441.33308159999996 192.77711999999997">
</path>
</g>
</g>
<g class="vf-modifiers">
<g class="vf-stavenote" id="vf-auto14474">
<g class="vf-note" pointer-events="bounding-box">
<g class="vf-stem" pointer-events="bounding-box">
<path stroke-width="1.5" fill="none" stroke="#000000" stroke-dasharray="none" d="M415.29408319999993 197.99999999999997L415.29408319999993 174.89999999999998">
</path>
</g>
<g class="vf-notehead" pointer-events="bounding-box">
<path stroke-width="0.3" fill="#000000" stroke="none" stroke-dasharray="none" d="M408.1120447999999 197.99999999999997M412.96763839999994 194.55289919999998C413.0417695999999 194.55289919999998,413.1529663999999 194.55289919999998,413.1714991999999 194.55289919999998C413.1714991999999 194.55289919999998,413.1900319999999 194.55289919999998,413.1900319999999 194.55289919999998C413.1900319999999 194.55289919999998,413.30122879999993 194.55289919999998,413.39389279999995 194.55289919999998C415.0618447999999 194.64556319999997,416.04408319999993 195.73899839999996,416.04408319999993 197.11042559999999C416.04408319999993 197.77760639999997,415.8216895999999 198.53745119999996,415.26570559999993 199.26023039999998C414.2093359999999 200.68725599999996,412.48578559999993 201.46563359999996,410.98462879999994 201.46563359999996C409.81706239999994 201.46563359999996,408.8162911999999 201.00231359999998,408.3344383999999 200.05714079999998C408.18617599999993 199.68648479999996,408.1120447999999 199.33436159999997,408.1120447999999 198.94517279999997C408.1120447999999 196.92509759999996,410.3730463999999 194.68262879999997,412.96763839999994 194.55289919999998">
</path>
</g>
<g class="vf-flag" pointer-events="bounding-box">
<path stroke-width="0.3" fill="#000000" stroke="none" stroke-dasharray="none" d="M415.29408319999993 172.89999999999998M414.8492959999999 175.88378079999998L414.8492959999999 172.992664L414.92342719999994 172.992664C415.1272879999999 172.992664,415.2570175999999 173.12239359999998,415.29408319999993 173.34478719999998C415.68327199999993 175.19806719999997,416.85083839999993 177.21814239999998,418.46319199999994 178.73783199999997C420.2608735999999 180.42431679999999,421.16898079999993 182.74091679999998,421.16898079999993 185.13164799999998C421.16898079999993 187.39264959999997,420.3720703999999 189.74631519999997,418.7597167999999 191.69225919999997C418.48172479999994 192.06291519999996,418.46319199999994 192.06291519999996,418.2778639999999 192.06291519999996C418.05547039999993 192.06291519999996,417.9072079999999 191.89611999999997,417.9072079999999 191.67372639999996C417.9072079999999 191.50693119999997,417.9257407999999 191.4698656,418.11106879999994 191.2660048C419.5195615999999 189.56098719999997,420.2238079999999 187.5038464,420.2238079999999 185.5393696C420.2238079999999 183.7972864,419.66782399999994 182.12933439999998,418.51879039999994 180.86910399999996C417.81454399999996 180.09072639999997,416.51724799999994 179.34941439999997,414.8678287999999 178.77489759999997C414.8678287999999 178.75636479999997,414.8492959999999 178.18184799999997,414.8492959999999 175.88378079999998">
</path>
</g>
</g>
<g class="vf-modifiers">
</g>
</g>
<path stroke-width="1" fill="none" stroke="#000000" stroke-dasharray="none" d="M409.1120447999999 189.74999999999997L422.1120447999999 180.74999999999997Z">
</path>
</g>
</g>
<g class="vf-stavenote" id="vf-auto14488">
<g class="vf-note" pointer-events="bounding-box">
<g class="vf-notehead" pointer-events="bounding-box">
<path stroke-width="0.3" fill="#000000" stroke="none" stroke-dasharray="none" d="M473.9054031999999 197.99999999999997M481.2623631999999 192.77711999999997C481.37468319999994 192.77711999999997,481.5431631999999 192.77711999999997,481.5712431999999 192.77711999999997C481.5712431999999 192.77711999999997,481.5993231999999 192.77711999999997,481.5993231999999 192.77711999999997C481.5993231999999 192.77711999999997,481.7678031999999 192.77711999999997,481.9082031999999 192.77711999999997C484.4354031999999 192.91751999999997,485.9236431999999 194.57423999999997,485.9236431999999 196.65215999999998C485.9236431999999 197.66303999999997,485.5866831999999 198.81431999999998,484.7442831999999 199.90943999999996C483.1437231999999 202.07159999999996,480.53228319999994 203.25095999999996,478.2578031999999 203.25095999999996C476.48876319999994 203.25095999999996,474.97244319999993 202.54895999999997,474.2423631999999 201.11687999999998C474.0177231999999 200.55527999999998,473.9054031999999 200.02175999999997,473.9054031999999 199.43207999999998C473.9054031999999 196.37135999999998,477.33116319999993 192.97367999999997,481.2623631999999 192.77711999999997">
</path>
</g>
</g>
<g class="vf-modifiers">
</g>
</g>
<g class="vf-stavenote" id="vf-auto14498">
<g class="vf-note" pointer-events="bounding-box">
<g class="vf-notehead" pointer-events="bounding-box">
<path stroke-width="0.3" fill="#000000" stroke="none" stroke-dasharray="none" d="M502.87916399999995 197.99999999999997M510.23612399999996 192.77711999999997C510.348444 192.77711999999997,510.51692399999996 192.77711999999997,510.54500399999995 192.77711999999997C510.54500399999995 192.77711999999997,510.57308399999994 192.77711999999997,510.57308399999994 192.77711999999997C510.57308399999994 192.77711999999997,510.7415639999999 192.77711999999997,510.8819639999999 192.77711999999997C513.4091639999999 192.91751999999997,514.8974039999999 194.57423999999997,514.8974039999999 196.65215999999998C514.8974039999999 197.66303999999997,514.560444 198.81431999999998,513.718044 199.90943999999996C512.117484 202.07159999999996,509.506044 203.25095999999996,507.23156399999993 203.25095999999996C505.462524 203.25095999999996,503.94620399999997 202.54895999999997,503.2161239999999 201.11687999999998C502.99148399999996 200.55527999999998,502.87916399999995 200.02175999999997,502.87916399999995 199.43207999999998C502.87916399999995 196.37135999999998,506.30492399999997 192.97367999999997,510.23612399999996 192.77711999999997">
</path>
</g>
</g>
<g class="vf-modifiers">
</g>
</g>
<g class="vf-stavenote" id="vf-auto14508">
<g class="vf-note" pointer-events="bounding-box">
<g class="vf-notehead" pointer-events="bounding-box">
<path stroke-width="0.3" fill="#000000" stroke="none" stroke-dasharray="none" d="M557.7170016 197.99999999999997M565.0739616 192.77711999999997C565.1862816 192.77711999999997,565.3547616 192.77711999999997,565.3828416 192.77711999999997C565.3828416 192.77711999999997,565.4109216 192.77711999999997,565.4109216 192.77711999999997C565.4109216 192.77711999999997,565.5794016 192.77711999999997,565.7198016 192.77711999999997C568.2470016 192.91751999999997,569.7352416 194.57423999999997,569.7352416 196.65215999999998C569.7352416 197.66303999999997,569.3982816 198.81431999999998,568.5558816 199.90943999999996C566.9553216 202.07159999999996,564.3438816 203.25095999999996,562.0694016 203.25095999999996C560.3003616 203.25095999999996,558.7840416 202.54895999999997,558.0539616 201.11687999999998C557.8293216 200.55527999999998,557.7170016 200.02175999999997,557.7170016 199.43207999999998C557.7170016 196.37135999999998,561.1427616 192.97367999999997,565.0739616 192.77711999999997">
</path>
</g>
</g>
<g class="vf-modifiers">
<g class="vf-stavenote" id="vf-auto14518">
<g class="vf-note" pointer-events="bounding-box">
<g class="vf-stem" pointer-events="bounding-box">
<path stroke-width="1.5" fill="none" stroke="#000000" stroke-dasharray="none" d="M539.0349632 197.99999999999997L539.0349632 174.89999999999998">
</path>
</g>
<g class="vf-notehead" pointer-events="bounding-box">
<path stroke-width="0.3" fill="#000000" stroke="none" stroke-dasharray="none" d="M531.8529248 197.99999999999997M536.7085184 194.55289919999998C536.7826496 194.55289919999998,536.8938464 194.55289919999998,536.9123792 194.55289919999998C536.9123792 194.55289919999998,536.930912 194.55289919999998,536.930912 194.55289919999998C536.930912 194.55289919999998,537.0421087999999 194.55289919999998,537.1347728 194.55289919999998C538.8027248 194.64556319999997,539.7849632 195.73899839999996,539.7849632 197.11042559999999C539.7849632 197.77760639999997,539.5625696 198.53745119999996,539.0065856 199.26023039999998C537.950216 200.68725599999996,536.2266655999999 201.46563359999996,534.7255088 201.46563359999996C533.5579424 201.46563359999996,532.5571712 201.00231359999998,532.0753184 200.05714079999998C531.927056 199.68648479999996,531.8529248 199.33436159999997,531.8529248 198.94517279999997C531.8529248 196.92509759999996,534.1139264 194.68262879999997,536.7085184 194.55289919999998">
</path>
</g>
<g class="vf-flag" pointer-events="bounding-box">
<path stroke-width="0.3" fill="#000000" stroke="none" stroke-dasharray="none" d="M539.0349632 172.89999999999998M538.590176 175.88378079999998L538.590176 172.992664L538.6643071999999 172.992664C538.868168 172.992664,538.9978976 173.12239359999998,539.0349632 173.34478719999998C539.424152 175.19806719999997,540.5917184 177.21814239999998,542.204072 178.73783199999997C544.0017536 180.42431679999999,544.9098608 182.74091679999998,544.9098608 185.13164799999998C544.9098608 187.39264959999997,544.1129504 189.74631519999997,542.5005968 191.69225919999997C542.2226048 192.06291519999996,542.204072 192.06291519999996,542.018744 192.06291519999996C541.7963503999999 192.06291519999996,541.648088 191.89611999999997,541.648088 191.67372639999996C541.648088 191.50693119999997,541.6666208 191.4698656,541.8519488 191.2660048C543.2604416 189.56098719999997,543.964688 187.5038464,543.964688 185.5393696C543.964688 183.7972864,543.408704 182.12933439999998,542.2596704 180.86910399999996C541.555424 180.09072639999997,540.2581279999999 179.34941439999997,538.6087088 178.77489759999997C538.6087088 178.75636479999997,538.590176 178.18184799999997,538.590176 175.88378079999998">
</path>
</g>
</g>
<g class="vf-modifiers">
</g>
</g>
<path stroke-width="1" fill="none" stroke="#000000" stroke-dasharray="none" d="M532.8529248 189.74999999999997L545.8529248 180.74999999999997Z">
</path>
</g>
</g>
<g class="vf-stavenote" id="vf-auto14532">
<g class="vf-note" pointer-events="bounding-box">
<g class="vf-notehead" pointer-events="bounding-box">
<path stroke-width="0.3" fill="#000000" stroke="none" stroke-dasharray="none" d="M597.6462832 197.99999999999997M605.0032431999999 192.77711999999997C605.1155632 192.77711999999997,605.2840431999999 192.77711999999997,605.3121232 192.77711999999997C605.3121232 192.77711999999997,605.3402032 192.77711999999997,605.3402032 192.77711999999997C605.3402032 192.77711999999997,605.5086832 192.77711999999997,605.6490832 192.77711999999997C608.1762832 192.91751999999997,609.6645232 194.57423999999997,609.6645232 196.65215999999998C609.6645232 197.66303999999997,609.3275632 198.81431999999998,608.4851632 199.90943999999996C606.8846032 202.07159999999996,604.2731632 203.25095999999996,601.9986832 203.25095999999996C600.2296431999999 203.25095999999996,598.7133232 202.54895999999997,597.9832432 201.11687999999998C597.7586031999999 200.55527999999998,597.6462832 200.02175999999997,597.6462832 199.43207999999998C597.6462832 196.37135999999998,601.0720431999999 192.97367999999997,605.0032431999999 192.77711999999997">
</path>
</g>
</g>
<g class="vf-modifiers">
</g>
</g>
<g class="vf-stavenote" id="vf-auto14542">
<g class="vf-note" pointer-events="bounding-box">
<g class="vf-notehead" pointer-events="bounding-box">
<path stroke-width="0.3" fill="#000000" stroke="none" stroke-dasharray="none" d="M626.620044 197.99999999999997M633.977004 192.77711999999997C634.089324 192.77711999999997,634.257804 192.77711999999997,634.285884 192.77711999999997C634.285884 192.77711999999997,634.313964 192.77711999999997,634.313964 192.77711999999997C634.313964 192.77711999999997,634.482444 192.77711999999997,634.622844 192.77711999999997C637.150044 192.91751999999997,638.638284 194.57423999999997,638.638284 196.65215999999998C638.638284 197.66303999999997,638.301324 198.81431999999998,637.458924 199.90943999999996C635.858364 202.07159999999996,633.246924 203.25095999999996,630.972444 203.25095999999996C629.203404 203.25095999999996,627.687084 202.54895999999997,626.957004 201.11687999999998C626.732364 200.55527999999998,626.620044 200.02175999999997,626.620044 199.43207999999998C626.620044 196.37135999999998,630.045804 192.97367999999997,633.977004 192.77711999999997">
</path>
</g>
</g>
<g class="vf-modifiers">
</g>
</g>
<g class="vf-stavenote" id="vf-auto14552">
<g class="vf-note" pointer-events="bounding-box">
<g class="vf-notehead" pointer-events="bounding-box">
<path stroke-width="0.3" fill="#000000" stroke="none" stroke-dasharray="none" d="M681.4578816 197.99999999999997M688.8148415999999 192.77711999999997C688.9271616 192.77711999999997,689.0956415999999 192.77711999999997,689.1237216 192.77711999999997C689.1237216 192.77711999999997,689.1518016 192.77711999999997,689.1518016 192.77711999999997C689.1518016 192.77711999999997,689.3202815999999 192.77711999999997,689.4606815999999 192.77711999999997C691.9878815999999 192.91751999999997,693.4761215999999 194.57423999999997,693.4761215999999 196.65215999999998C693.4761215999999 197.66303999999997,693.1391616 198.81431999999998,692.2967616 199.90943999999996C690.6962016 202.07159999999996,688.0847616 203.25095999999996,685.8102815999999 203.25095999999996C684.0412415999999 203.25095999999996,682.5249216 202.54895999999997,681.7948415999999 201.11687999999998C681.5702015999999 200.55527999999998,681.4578816 200.02175999999997,681.4578816 199.43207999999998C681.4578816 196.37135999999998,684.8836415999999 192.97367999999997,688.8148415999999 192.77711999999997">
</path>
</g>
</g>
<g class="vf-modifiers">
<g class="vf-stavenote" id="vf-auto14562">
<g class="vf-note" pointer-events="bounding-box">
<g class="vf-stem" pointer-events="bounding-box">
<path stroke-width="1.5" fill="none" stroke="#000000" stroke-dasharray="none" d="M662.7758431999999 197.99999999999997L662.7758431999999 174.89999999999998">
</path>
</g>
<g class="vf-notehead" pointer-events="bounding-box">
<path stroke-width="0.3" fill="#000000" stroke="none" stroke-dasharray="none" d="M655.5938047999999 197.99999999999997M660.4493984 194.55289919999998C660.5235296 194.55289919999998,660.6347264 194.55289919999998,660.6532592 194.55289919999998C660.6532592 194.55289919999998,660.671792 194.55289919999998,660.671792 194.55289919999998C660.671792 194.55289919999998,660.7829887999999 194.55289919999998,660.8756527999999 194.55289919999998C662.5436047999999 194.64556319999997,663.5258431999999 195.73899839999996,663.5258431999999 197.11042559999999C663.5258431999999 197.77760639999997,663.3034495999999 198.53745119999996,662.7474655999999 199.26023039999998C661.6910959999999 200.68725599999996,659.9675455999999 201.46563359999996,658.4663887999999 201.46563359999996C657.2988224 201.46563359999996,656.2980511999999 201.00231359999998,655.8161984 200.05714079999998C655.6679359999999 199.68648479999996,655.5938047999999 199.33436159999997,655.5938047999999 198.94517279999997C655.5938047999999 196.92509759999996,657.8548063999999 194.68262879999997,660.4493984 194.55289919999998">
</path>
</g>
<g class="vf-flag" pointer-events="bounding-box">
<path stroke-width="0.3" fill="#000000" stroke="none" stroke-dasharray="none" d="M662.7758431999999 172.89999999999998M662.331056 175.88378079999998L662.331056 172.992664L662.4051871999999 172.992664C662.6090479999999 172.992664,662.7387775999999 173.12239359999998,662.7758431999999 173.34478719999998C663.165032 175.19806719999997,664.3325983999999 177.21814239999998,665.944952 178.73783199999997C667.7426336 180.42431679999999,668.6507408 182.74091679999998,668.6507408 185.13164799999998C668.6507408 187.39264959999997,667.8538304 189.74631519999997,666.2414768 191.69225919999997C665.9634848 192.06291519999996,665.944952 192.06291519999996,665.7596239999999 192.06291519999996C665.5372303999999 192.06291519999996,665.388968 191.89611999999997,665.388968 191.67372639999996C665.388968 191.50693119999997,665.4075008 191.4698656,665.5928287999999 191.2660048C667.0013216 189.56098719999997,667.705568 187.5038464,667.705568 185.5393696C667.705568 183.7972864,667.1495839999999 182.12933439999998,666.0005504 180.86910399999996C665.296304 180.09072639999997,663.9990079999999 179.34941439999997,662.3495888 178.77489759999997C662.3495888 178.75636479999997,662.331056 178.18184799999997,662.331056 175.88378079999998">
</path>
</g>
</g>
<g class="vf-modifiers">
</g>
</g>
<path stroke-width="1" fill="none" stroke="#000000" stroke-dasharray="none" d="M656.5938047999999 189.74999999999997L669.5938047999999 180.74999999999997Z">
</path>
</g>
</g>
<g class="vf-stavenote" id="vf-auto14576">
<g class="vf-note" pointer-events="bounding-box">
<g class="vf-notehead" pointer-events="bounding-box">
<path stroke-width="0.3" fill="#000000" stroke="none" stroke-dasharray="none" d="M710.4316423999999 197.99999999999997M717.7886023999998 192.77711999999997C717.9009223999999 192.77711999999997,718.0694023999998 192.77711999999997,718.0974823999999 192.77711999999997C718.0974823999999 192.77711999999997,718.1255623999999 192.77711999999997,718.1255623999999 192.77711999999997C718.1255623999999 192.77711999999997,718.2940423999999 192.77711999999997,718.4344423999999 192.77711999999997C720.9616423999998 192.91751999999997,722.4498823999999 194.57423999999997,722.4498823999999 196.65215999999998C722.4498823999999 197.66303999999997,722.1129223999999 198.81431999999998,721.2705223999999 199.90943999999996C719.6699623999999 202.07159999999996,717.0585223999999 203.25095999999996,714.7840423999999 203.25095999999996C713.0150023999998 203.25095999999996,711.4986823999999 202.54895999999997,710.7686023999998 201.11687999999998C710.5439623999998 200.55527999999998,710.4316423999999 200.02175999999997,710.4316423999999 199.43207999999998C710.4316423999999 196.37135999999998,713.8574023999998 192.97367999999997,717.7886023999998 192.77711999999997">
</path>
</g>
</g>
<g class="vf-modifiers">
</g>
</g>
<g class="vf-stavenote" id="vf-auto14586">
<g class="vf-note" pointer-events="bounding-box">
<g class="vf-notehead" pointer-events="bounding-box">
<path stroke-width="0.3" fill="#000000" stroke="none" stroke-dasharray="none" d="M739.4054031999999 197.99999999999997M746.7623631999999 192.77711999999997C746.8746831999999 192.77711999999997,747.0431631999999 192.77711999999997,747.0712431999999 192.77711999999997C747.0712431999999 192.77711999999997,747.0993232 192.77711999999997,747.0993232 192.77711999999997C747.0993232 192.77711999999997,747.2678031999999 192.77711999999997,747.4082031999999 192.77711999999997C749.9354031999999 192.91751999999997,751.4236431999999 194.57423999999997,751.4236431999999 196.65215999999998C751.4236431999999 197.66303999999997,751.0866831999999 198.81431999999998,750.2442831999999 199.90943999999996C748.6437232 202.07159999999996,746.0322831999999 203.25095999999996,743.7578031999999 203.25095999999996C741.9887631999999 203.25095999999996,740.4724431999999 202.54895999999997,739.7423631999999 201.11687999999998C739.5177231999999 200.55527999999998,739.4054031999999 200.02175999999997,739.4054031999999 199.43207999999998C739.4054031999999 196.37135999999998,742.8311631999999 192.97367999999997,746.7623631999999 192.77711999999997">
</path>
</g>
</g>
<g class="vf-modifiers">
</g>
</g>
<g class="vf-stavenote" id="vf-auto14596">
<g class="vf-note" pointer-events="bounding-box">
<g class="vf-notehead" pointer-events="bounding-box">
<path stroke-width="0.3" fill="#000000" stroke="none" stroke-dasharray="none" d="M768.379164 197.99999999999997M775.7361239999999 192.77711999999997C775.848444 192.77711999999997,776.0169239999999 192.77711999999997,776.045004 192.77711999999997C776.045004 192.77711999999997,776.073084 192.77711999999997,776.073084 192.77711999999997C776.073084 192.77711999999997,776.2415639999999 192.77711999999997,776.3819639999999 192.77711999999997C778.9091639999999 192.91751999999997,780.3974039999999 194.57423999999997,780.3974039999999 196.65215999999998C780.3974039999999 197.66303999999997,780.060444 198.81431999999998,779.218044 199.90943999999996C777.617484 202.07159999999996,775.006044 203.25095999999996,772.7315639999999 203.25095999999996C770.9625239999999 203.25095999999996,769.446204 202.54895999999997,768.7161239999999 201.11687999999998C768.4914839999999 200.55527999999998,768.379164 200.02175999999997,768.379164 199.43207999999998C768.379164 196.37135999999998,771.8049239999999 192.97367999999997,775.7361239999999 192.77711999999997">
</path>
</g>
</g>
<g class="vf-modifiers">
</g>
</g>
<g class="vf-stavenote" id="vf-auto14606">
<g class="vf-note" pointer-events="bounding-box">
<g class="vf-notehead" pointer-events="bounding-box">
<path stroke-width="0.3" fill="#000000" stroke="none" stroke-dasharray="none" d="M823.2170015999999 197.99999999999997M830.5739615999998 192.77711999999997C830.6862815999999 192.77711999999997,830.8547615999998 192.77711999999997,830.8828415999999 192.77711999999997C830.8828415999999 192.77711999999997,830.9109215999999 192.77711999999997,830.9109215999999 192.77711999999997C830.9109215999999 192.77711999999997,831.0794015999999 192.77711999999997,831.2198015999999 192.77711999999997C833.7470015999999 192.91751999999997,835.2352415999999 194.57423999999997,835.2352415999999 196.65215999999998C835.2352415999999 197.66303999999997,834.8982815999999 198.81431999999998,834.0558815999999 199.90943999999996C832.4553215999999 202.07159999999996,829.8438815999999 203.25095999999996,827.5694015999999 203.25095999999996C825.8003615999999 203.25095999999996,824.2840415999999 202.54895999999997,823.5539615999999 201.11687999999998C823.3293215999998 200.55527999999998,823.2170015999999 200.02175999999997,823.2170015999999 199.43207999999998C823.2170015999999 196.37135999999998,826.6427615999999 192.97367999999997,830.5739615999998 192.77711999999997">
</path>
</g>
</g>
<g class="vf-modifiers">
<g class="vf-stavenote" id="vf-auto14616">
<g class="vf-note" pointer-events="bounding-box">
<g class="vf-stem" pointer-events="bounding-box">
<path stroke-width="1.5" fill="none" stroke="#000000" stroke-dasharray="none" d="M804.5349631999999 197.99999999999997L804.5349631999999 174.89999999999998">
</path>
</g>
<g class="vf-notehead" pointer-events="bounding-box">
<path stroke-width="0.3" fill="#000000" stroke="none" stroke-dasharray="none" d="M797.3529247999999 197.99999999999997M802.2085183999999 194.55289919999998C802.2826495999999 194.55289919999998,802.3938463999999 194.55289919999998,802.4123791999999 194.55289919999998C802.4123791999999 194.55289919999998,802.4309119999999 194.55289919999998,802.4309119999999 194.55289919999998C802.4309119999999 194.55289919999998,802.5421087999998 194.55289919999998,802.6347727999998 194.55289919999998C804.3027247999999 194.64556319999997,805.2849631999999 195.73899839999996,805.2849631999999 197.11042559999999C805.2849631999999 197.77760639999997,805.0625695999998 198.53745119999996,804.5065855999999 199.26023039999998C803.4502159999998 200.68725599999996,801.7266655999998 201.46563359999996,800.2255087999998 201.46563359999996C799.0579423999999 201.46563359999996,798.0571711999999 201.00231359999998,797.5753183999999 200.05714079999998C797.4270559999999 199.68648479999996,797.3529247999999 199.33436159999997,797.3529247999999 198.94517279999997C797.3529247999999 196.92509759999996,799.6139263999999 194.68262879999997,802.2085183999999 194.55289919999998">
</path>
</g>
<g class="vf-flag" pointer-events="bounding-box">
<path stroke-width="0.3" fill="#000000" stroke="none" stroke-dasharray="none" d="M804.5349631999999 172.89999999999998M804.0901759999999 175.88378079999998L804.0901759999999 172.992664L804.1643071999998 172.992664C804.3681679999999 172.992664,804.4978975999999 173.12239359999998,804.5349631999999 173.34478719999998C804.9241519999999 175.19806719999997,806.0917183999999 177.21814239999998,807.7040719999999 178.73783199999997C809.5017535999999 180.42431679999999,810.4098607999999 182.74091679999998,810.4098607999999 185.13164799999998C810.4098607999999 187.39264959999997,809.6129503999999 189.74631519999997,808.0005967999999 191.69225919999997C807.7226047999999 192.06291519999996,807.7040719999999 192.06291519999996,807.5187439999999 192.06291519999996C807.2963503999998 192.06291519999996,807.1480879999999 191.89611999999997,807.1480879999999 191.67372639999996C807.1480879999999 191.50693119999997,807.1666207999999 191.4698656,807.3519487999998 191.2660048C808.7604415999999 189.56098719999997,809.4646879999999 187.5038464,809.4646879999999 185.5393696C809.4646879999999 183.7972864,808.9087039999998 182.12933439999998,807.7596703999999 180.86910399999996C807.0554239999999 180.09072639999997,805.7581279999998 179.34941439999997,804.1087087999999 178.77489759999997C804.1087087999999 178.75636479999997,804.0901759999999 178.18184799999997,804.0901759999999 175.88378079999998">
</path>
</g>
</g>
<g class="vf-modifiers">
</g>
</g>
<path stroke-width="1" fill="none" stroke="#000000" stroke-dasharray="none" d="M798.3529247999999 189.74999999999997L811.3529247999999 180.74999999999997Z">
</path>
</g>
</g>
<g class="vf-stavenote" id="vf-auto14630">
<g class="vf-note" pointer-events="bounding-box">
<g class="vf-notehead" pointer-events="bounding-box">
<path stroke-width="0.3" fill="#000000" stroke="none" stroke-dasharray="none" d="M852.1907623999999 197.99999999999997M859.5477223999999 192.77711999999997C859.6600424 192.77711999999997,859.8285223999999 192.77711999999997,859.8566023999999 192.77711999999997C859.8566023999999 192.77711999999997,859.8846824 192.77711999999997,859.8846824 192.77711999999997C859.8846824 192.77711999999997,860.0531623999999 192.77711999999997,860.1935623999999 192.77711999999997C862.7207623999999 192.91751999999997,864.2090023999999 194.57423999999997,864.2090023999999 196.65215999999998C864.2090023999999 197.66303999999997,863.8720423999999 198.81431999999998,863.0296424 199.90943999999996C861.4290824 202.07159999999996,858.8176424 203.25095999999996,856.5431623999999 203.25095999999996C854.7741223999999 203.25095999999996,853.2578024 202.54895999999997,852.5277223999999 201.11687999999998C852.3030823999999 200.55527999999998,852.1907623999999 200.02175999999997,852.1907623999999 199.43207999999998C852.1907623999999 196.37135999999998,855.6165223999999 192.97367999999997,859.5477223999999 192.77711999999997">
</path>
</g>
</g>
<g class="vf-modifiers">
</g>
</g>
<g class="vf-stavenote" id="vf-auto14640">
<g class="vf-note" pointer-events="bounding-box">
<g class="vf-notehead" pointer-events="bounding-box">
<path stroke-width="0.3" fill="#000000" stroke="none" stroke-dasharray="none" d="M881.1645232 197.99999999999997M888.5214831999999 192.77711999999997C888.6338032 192.77711999999997,888.8022831999999 192.77711999999997,888.8303632 192.77711999999997C888.8303632 192.77711999999997,888.8584432 192.77711999999997,888.8584432 192.77711999999997C888.8584432 192.77711999999997,889.0269231999999 192.77711999999997,889.1673231999999 192.77711999999997C891.6945231999999 192.91751999999997,893.1827632 194.57423999999997,893.1827632 196.65215999999998C893.1827632 197.66303999999997,892.8458032 198.81431999999998,892.0034032 199.90943999999996C890.4028432 202.07159999999996,887.7914032 203.25095999999996,885.5169232 203.25095999999996C883.7478831999999 203.25095999999996,882.2315632 202.54895999999997,881.5014831999999 201.11687999999998C881.2768431999999 200.55527999999998,881.1645232 200.02175999999997,881.1645232 199.43207999999998C881.1645232 196.37135999999998,884.5902831999999 192.97367999999997,888.5214831999999 192.77711999999997">
</path>
</g>
</g>
<g class="vf-modifiers">
</g>
</g>
<g class="vf-stavenote" id="vf-auto14650">
<g class="vf-note" pointer-events="bounding-box">
<g class="vf-notehead" pointer-events="bounding-box">
<path stroke-width="0.3" fill="#000000" stroke="none" stroke-dasharray="none" d="M910.1382839999999 197.99999999999997M917.4952439999998 192.77711999999997C917.6075639999999 192.77711999999997,917.7760439999998 192.77711999999997,917.8041239999999 192.77711999999997C917.8041239999999 192.77711999999997,917.8322039999999 192.77711999999997,917.8322039999999 192.77711999999997C917.8322039999999 192.77711999999997,918.0006839999999 192.77711999999997,918.1410839999999 192.77711999999997C920.6682839999999 192.91751999999997,922.1565239999999 194.57423999999997,922.1565239999999 196.65215999999998C922.1565239999999 197.66303999999997,921.8195639999999 198.81431999999998,920.9771639999999 199.90943999999996C919.3766039999999 202.07159999999996,916.7651639999999 203.25095999999996,914.4906839999999 203.25095999999996C912.7216439999999 203.25095999999996,911.2053239999999 202.54895999999997,910.4752439999999 201.11687999999998C910.2506039999998 200.55527999999998,910.1382839999999 200.02175999999997,910.1382839999999 199.43207999999998C910.1382839999999 196.37135999999998,913.5640439999999 192.97367999999997,917.4952439999998 192.77711999999997">
</path>
</g>
</g>
<g class="vf-modifiers">
</g>
</g>
<path stroke-width="1.5" fill="none" stroke="#000000" stroke-dasharray="none" d="M445.24436159999993 197.99999999999997L445.24436159999993 163.74999999999997">
</path>
<path stroke-width="1.5" fill="none" stroke="#000000" stroke-dasharray="none" d="M485.1736431999999 197.99999999999997L485.1736431999999 163.74999999999997">
</path>
<path stroke-width="1.5" fill="none" stroke="#000000" stroke-dasharray="none" d="M514.1474039999999 197.99999999999997L514.1474039999999 163.74999999999997">
</path>
<path stroke-width="0.3" fill="#000000" stroke="none" stroke-dasharray="none" d="M444.49436159999993 162.99999999999997L444.49436159999993 167.99999999999997L514.3974039999999 167.99999999999997L514.3974039999999 162.99999999999997Z">
</path>
<path stroke-width="0.3" fill="#000000" stroke="none" stroke-dasharray="none" d="M484.4236431999999 170.49999999999997L484.4236431999999 175.49999999999997L514.3974039999999 175.49999999999997L514.3974039999999 170.49999999999997Z">
</path>
<path stroke-width="1.5" fill="none" stroke="#000000" stroke-dasharray="none" d="M568.9852416 197.99999999999997L568.9852416 163.74999999999997">
</path>
<path stroke-width="1.5" fill="none" stroke="#000000" stroke-dasharray="none" d="M608.9145232 197.99999999999997L608.9145232 163.74999999999997">
</path>
<path stroke-width="1.5" fill="none" stroke="#000000" stroke-dasharray="none" d="M637.888284 197.99999999999997L637.888284 163.74999999999997">
</path>
<path stroke-width="0.3" fill="#000000" stroke="none" stroke-dasharray="none" d="M568.2352416 162.99999999999997L568.2352416 167.99999999999997L638.138284 167.99999999999997L638.138284 162.99999999999997Z">
</path>
<path stroke-width="0.3" fill="#000000" stroke="none" stroke-dasharray="none" d="M608.1645232 170.49999999999997L608.1645232 175.49999999999997L638.138284 175.49999999999997L638.138284 170.49999999999997Z">
</path>
<path stroke-width="1.5" fill="none" stroke="#000000" stroke-dasharray="none" d="M692.7261215999999 197.99999999999997L692.7261215999999 163.74999999999997">
</path>
<path stroke-width="1.5" fill="none" stroke="#000000" stroke-dasharray="none" d="M721.6998823999999 197.99999999999997L721.6998823999999 163.74999999999997">
</path>
<path stroke-width="1.5" fill="none" stroke="#000000" stroke-dasharray="none" d="M750.6736431999999 197.99999999999997L750.6736431999999 163.74999999999997">
</path>
<path stroke-width="1.5" fill="none" stroke="#000000" stroke-dasharray="none" d="M779.6474039999999 197.99999999999997L779.6474039999999 163.74999999999997">
</path>
<path stroke-width="0.3" fill="#000000" stroke="none" stroke-dasharray="none" d="M691.9761215999999 162.99999999999997L691.9761215999999 167.99999999999997L779.8974039999999 167.99999999999997L779.8974039999999 162.99999999999997Z">
</path>
<path stroke-width="0.3" fill="#000000" stroke="none" stroke-dasharray="none" d="M691.9761215999999 170.49999999999997L691.9761215999999 175.49999999999997L779.8974039999999 175.49999999999997L779.8974039999999 170.49999999999997Z">
</path>
<path stroke-width="1.5" fill="none" stroke="#000000" stroke-dasharray="none" d="M834.4852415999999 197.99999999999997L834.4852415999999 163.74999999999997">
</path>
<path stroke-width="1.5" fill="none" stroke="#000000" stroke-dasharray="none" d="M863.4590023999999 197.99999999999997L863.4590023999999 163.74999999999997">
</path>
<path stroke-width="1.5" fill="none" stroke="#000000" stroke-dasharray="none" d="M892.4327632 197.99999999999997L892.4327632 163.74999999999997">
</path>
<path stroke-width="1.5" fill="none" stroke="#000000" stroke-dasharray="none" d="M921.4065239999999 197.99999999999997L921.4065239999999 163.74999999999997">
</path>
<path stroke-width="0.3" fill="#000000" stroke="none" stroke-dasharray="none" d="M833.7352415999999 162.99999999999997L833.7352415999999 167.99999999999997L921.6565239999999 167.99999999999997L921.6565239999999 162.99999999999997Z">
</path>
<path stroke-width="0.3" fill="#000000" stroke="none" stroke-dasharray="none" d="M833.7352415999999 170.49999999999997L833.7352415999999 175.49999999999997L921.6565239999999 175.49999999999997L921.6565239999999 170.49999999999997Z">
</path>
</svg>