<svg width="1536" height="331.99999999999994" viewBox="0 0 1536 331.99999999999994">
<path stroke-width="1" fill="none" stroke="black" stroke-dasharray="none" d="M50 197.99999999999997L391.1120447999999 197.99999999999997">
</path>
<rect stroke-width="0.3" fill="black" stroke="black" stroke-dasharray="none" x="391.1120447999999" y="177.49999999999997" width="1" height="41">
</rect>
<path stroke-width="0.3" fill="black" stroke="none" stroke-dasharray="none" d="M55 197.99999999999997M55 197.99999999999997L55 188.00639999999999L57.1888 188.00639999999999L59.4064 188.00639999999999L59.4064 197.99999999999997L59.4064 208.02239999999998L57.1888 208.02239999999998L55 208.02239999999998L55 197.99999999999997M63.870400000000004 198.02879999999996L63.870400000000004 188.00639999999999L66.1168 188.00639999999999L68.3632 188.00639999999999L68.3632 198.02879999999996L68.3632 208.02239999999998L66.1168 208.02239999999998L63.870400000000004 208.02239999999998L63.870400000000004 198.02879999999996">
</path>
<path stroke-width="0.3" fill="black" stroke="none" stroke-dasharray="none" d="M96 197.99999999999997M101.0112 179.65439999999998C101.04 179.62559999999996,101.4432 179.62559999999996,102.6816 179.62559999999996C103.056 179.62559999999996,103.4592 179.62559999999996,103.9776 179.62559999999996L106.8864 179.62559999999996L106.9728 179.71199999999996C107.1168 179.79839999999996,107.2032 179.94239999999996,107.2032 180.05759999999998C107.2032 180.23039999999997,107.1168 180.34559999999996,107.0016 180.46079999999998C106.9728 180.54719999999998,106.7136 180.77759999999998,106.5408 181.03679999999997L105.0144 182.79359999999997L103.056 185.01119999999997L102.0192 186.19199999999998L100.464 187.97759999999997L98.4192 190.31039999999996C98.0736 190.74239999999998,97.6992 191.08799999999997,97.6992 191.08799999999997C97.6992 191.08799999999997,97.6992 191.08799999999997,97.6992 191.08799999999997C97.6992 191.14559999999997,97.9584 191.14559999999997,100.3488 191.14559999999997L102.9696 191.14559999999997L102.9696 189.27359999999996C102.9696 187.37279999999998,102.9696 187.34399999999997,102.9984 187.31519999999998C103.056 187.22879999999998,103.3152 186.91199999999998,104.3232 185.73119999999997L104.7264 185.29919999999998L105.1296 184.86719999999997L105.7344 184.08959999999996L106.368 183.42719999999997L106.6848 183.02399999999997C106.8 182.85119999999998,106.9728 182.82239999999996,107.1168 182.82239999999996C107.28960000000001 182.82239999999996,107.4336 182.90879999999999,107.52 183.05279999999996C107.5488 183.13919999999996,107.5488 183.19679999999997,107.5488 185.32799999999997C107.5488 185.81759999999997,107.5488 186.42239999999998,107.5488 187.14239999999998L107.5488 191.14559999999997L108.2688 191.14559999999997C108.9312 191.14559999999997,108.96 191.14559999999997,109.0464 191.17439999999996C109.2768 191.26079999999996,109.392 191.49119999999996,109.392 191.75039999999998C109.392 191.89439999999996,109.3632 192.06719999999999,109.248 192.18239999999997C109.0752 192.32639999999998,109.0464 192.32639999999998,108.2688 192.32639999999998L107.5488 192.32639999999998L107.5488 192.81599999999997C107.5776 194.28479999999996,107.8656 194.86079999999998,108.9888 195.46559999999997C109.392 195.66719999999998,109.4784 195.72479999999996,109.4784 196.01279999999997C109.4784 196.21439999999998,109.4208 196.30079999999998,109.2768 196.41599999999997L109.1904 196.44479999999996L105.2448 196.44479999999996L101.328 196.44479999999996L101.2416 196.41599999999997C101.0688 196.30079999999998,101.04 196.21439999999998,101.04 196.01279999999997C101.04 195.72479999999996,101.0688 195.66719999999998,101.5008 195.46559999999997C102.624 194.86079999999998,102.912 194.28479999999996,102.912 192.81599999999997L102.912 192.32639999999998L99.6 192.32639999999998C98.9952 192.38399999999996,98.5056 192.38399999999996,98.1024 192.38399999999996C96.288 192.38399999999996,96.2592 192.32639999999998,96.2304 192.32639999999998C96.0576 192.26879999999997,96 192.09599999999998,96 191.89439999999996C96 191.89439999999996,96 191.89439999999996,96 191.89439999999996C96 191.69279999999998,96 191.69279999999998,96.576 191.0304C98.9952 188.09279999999998,100.6944 183.83039999999997,100.6944 180.43199999999996C100.6944 179.91359999999997,100.7808 179.74079999999998,101.0112 179.65439999999998M102.7392 198.02879999999996L102.768 198.02879999999996L102.6816 198.02879999999996L102.7392 198.02879999999996M102.7392 178.61759999999998L102.768 178.61759999999998L102.6816 178.61759999999998L102.7392 178.61759999999998">
</path>
<path stroke-width="0.3" fill="black" stroke="none" stroke-dasharray="none" d="M96 217.99999999999997M101.0112 199.65439999999998C101.04 199.62559999999996,101.4432 199.62559999999996,102.6816 199.62559999999996C103.056 199.62559999999996,103.4592 199.62559999999996,103.9776 199.62559999999996L106.8864 199.62559999999996L106.9728 199.71199999999996C107.1168 199.79839999999996,107.2032 199.94239999999996,107.2032 200.05759999999998C107.2032 200.23039999999997,107.1168 200.34559999999996,107.0016 200.46079999999998C106.9728 200.54719999999998,106.7136 200.77759999999998,106.5408 201.03679999999997L105.0144 202.79359999999997L103.056 205.01119999999997L102.0192 206.19199999999998L100.464 207.97759999999997L98.4192 210.31039999999996C98.0736 210.74239999999998,97.6992 211.08799999999997,97.6992 211.08799999999997C97.6992 211.08799999999997,97.6992 211.08799999999997,97.6992 211.08799999999997C97.6992 211.14559999999997,97.9584 211.14559999999997,100.3488 211.14559999999997L102.9696 211.14559999999997L102.9696 209.27359999999996C102.9696 207.37279999999998,102.9696 207.34399999999997,102.9984 207.31519999999998C103.056 207.22879999999998,103.3152 206.91199999999998,104.3232 205.73119999999997L104.7264 205.29919999999998L105.1296 204.86719999999997L105.7344 204.08959999999996L106.368 203.42719999999997L106.6848 203.02399999999997C106.8 202.85119999999998,106.9728 202.82239999999996,107.1168 202.82239999999996C107.28960000000001 202.82239999999996,107.4336 202.90879999999999,107.52 203.05279999999996C107.5488 203.13919999999996,107.5488 203.19679999999997,107.5488 205.32799999999997C107.5488 205.81759999999997,107.5488 206.42239999999998,107.5488 207.14239999999998L107.5488 211.14559999999997L108.2688 211.14559999999997C108.9312 211.14559999999997,108.96 211.14559999999997,109.0464 211.17439999999996C109.2768 211.26079999999996,109.392 211.49119999999996,109.392 211.75039999999998C109.392 211.89439999999996,109.3632 212.06719999999999,109.248 212.18239999999997C109.0752 212.32639999999998,109.0464 212.32639999999998,108.2688 212.32639999999998L107.5488 212.32639999999998L107.5488 212.81599999999997C107.5776 214.28479999999996,107.8656 214.86079999999998,108.9888 215.46559999999997C109.392 215.66719999999998,109.4784 215.72479999999996,109.4784 216.01279999999997C109.4784 216.21439999999998,109.4208 216.30079999999998,109.2768 216.41599999999997L109.1904 216.44479999999996L105.2448 216.44479999999996L101.328 216.44479999999996L101.2416 216.41599999999997C101.0688 216.30079999999998,101.04 216.21439999999998,101.04 216.01279999999997C101.04 215.72479999999996,101.0688 215.66719999999998,101.5008 215.46559999999997C102.624 214.86079999999998,102.912 214.28479999999996,102.912 212.81599999999997L102.912 212.32639999999998L99.6 212.32639999999998C98.9952 212.38399999999996,98.5056 212.38399999999996,98.1024 212.38399999999996C96.288 212.38399999999996,96.2592 212.32639999999998,96.2304 212.32639999999998C96.0576 212.26879999999997,96 212.09599999999998,96 211.89439999999996C96 211.89439999999996,96 211.89439999999996,96 211.89439999999996C96 211.69279999999998,96 211.69279999999998,96.576 211.0304C98.9952 208.09279999999998,100.6944 203.83039999999997,100.6944 200.43199999999996C100.6944 199.91359999999997,100.7808 199.74079999999998,101.0112 199.65439999999998M102.7392 218.02879999999996L102.768 218.02879999999996L102.6816 218.02879999999996L102.7392 218.02879999999996M102.7392 198.61759999999998L102.768 198.61759999999998L102.6816 198.61759999999998L102.7392 198.61759999999998">
</path>
<g class="vf-stavenote" id="vf-auto12720">
<g class="vf-note" pointer-events="bounding-box">
<g class="vf-notehead" pointer-events="bounding-box">
<path stroke-width="0.3" fill="#000000" stroke="none" stroke-dasharray="none" d="M121.4784 197.99999999999997M128.83535999999998 192.77711999999997C128.94768 192.77711999999997,129.11615999999998 192.77711999999997,129.14424 192.77711999999997C129.14424 192.77711999999997,129.17231999999998 192.77711999999997,129.17231999999998 192.77711999999997C129.17231999999998 192.77711999999997,129.3408 192.77711999999997,129.4812 192.77711999999997C132.0084 192.91751999999997,133.49663999999999 194.57423999999997,133.49663999999999 196.65215999999998C133.49663999999999 197.66303999999997,133.15967999999998 198.81431999999998,132.31727999999998 199.90943999999996C130.71671999999998 202.07159999999996,128.10528 203.25095999999996,125.8308 203.25095999999996C124.06175999999999 203.25095999999996,122.54544 202.54895999999997,121.81536 201.11687999999998C121.59071999999999 200.55527999999998,121.4784 200.02175999999997,121.4784 199.43207999999998C121.4784 196.37135999999998,124.90415999999999 192.97367999999997,128.83535999999998 192.77711999999997">
</path>
</g>
</g>
<g class="vf-modifiers">
</g>
</g>
<g class="vf-stavenote" id="vf-auto12730">
<g class="vf-note" pointer-events="bounding-box">
<g class="vf-notehead" pointer-events="bounding-box">
<path stroke-width="0.3" fill="#000000" stroke="none" stroke-dasharray="none" d="M155.4186 197.99999999999997M162.77555999999998 192.77711999999997C162.88788 192.77711999999997,163.05635999999998 192.77711999999997,163.08444 192.77711999999997C163.08444 192.77711999999997,163.11252 192.77711999999997,163.11252 192.77711999999997C163.11252 192.77711999999997,163.281 192.77711999999997,163.4214 192.77711999999997C165.9486 192.91751999999997,167.43684 194.57423999999997,167.43684 196.65215999999998C167.43684 197.66303999999997,167.09987999999998 198.81431999999998,166.25748 199.90943999999996C164.65691999999999 202.07159999999996,162.04548 203.25095999999996,159.771 203.25095999999996C158.00196 203.25095999999996,156.48564 202.54895999999997,155.75556 201.11687999999998C155.53092 200.55527999999998,155.4186 200.02175999999997,155.4186 199.43207999999998C155.4186 196.37135999999998,158.84436 192.97367999999997,162.77555999999998 192.77711999999997">
</path>
</g>
</g>
<g class="vf-modifiers">
</g>
</g>
<g class="vf-stavenote" id="vf-auto12740">
<g class="vf-note" pointer-events="bounding-box">
<g class="vf-notehead" pointer-events="bounding-box">
<path stroke-width="0.3" fill="#000000" stroke="none" stroke-dasharray="none" d="M189.3588 197.99999999999997M196.71576 192.77711999999997C196.82808 192.77711999999997,196.99656 192.77711999999997,197.02464 192.77711999999997C197.02464 192.77711999999997,197.05272 192.77711999999997,197.05272 192.77711999999997C197.05272 192.77711999999997,197.2212 192.77711999999997,197.3616 192.77711999999997C199.8888 192.91751999999997,201.37704 194.57423999999997,201.37704 196.65215999999998C201.37704 197.66303999999997,201.04008 198.81431999999998,200.19768 199.90943999999996C198.59712 202.07159999999996,195.98568 203.25095999999996,193.7112 203.25095999999996C191.94216 203.25095999999996,190.42584 202.54895999999997,189.69576 201.11687999999998C189.47112 200.55527999999998,189.3588 200.02175999999997,189.3588 199.43207999999998C189.3588 196.37135999999998,192.78456 192.97367999999997,196.71576 192.77711999999997">
</path>
</g>
</g>
<g class="vf-modifiers">
</g>
</g>
<g class="vf-stavenote" id="vf-auto12750">
<g class="vf-note" pointer-events="bounding-box">
<g class="vf-notehead" pointer-events="bounding-box">
<path stroke-width="0.3" fill="#000000" stroke="none" stroke-dasharray="none" d="M223.299 197.99999999999997M230.65596 192.77711999999997C230.76828 192.77711999999997,230.93676 192.77711999999997,230.96484 192.77711999999997C230.96484 192.77711999999997,230.99292 192.77711999999997,230.99292 192.77711999999997C230.99292 192.77711999999997,231.16140000000001 192.77711999999997,231.30180000000001 192.77711999999997C233.829 192.91751999999997,235.31724 194.57423999999997,235.31724 196.65215999999998C235.31724 197.66303999999997,234.98028 198.81431999999998,234.13788 199.90943999999996C232.53732 202.07159999999996,229.92588 203.25095999999996,227.6514 203.25095999999996C225.88236 203.25095999999996,224.36604 202.54895999999997,223.63596 201.11687999999998C223.41132000000002 200.55527999999998,223.299 200.02175999999997,223.299 199.43207999999998C223.299 196.37135999999998,226.72476 192.97367999999997,230.65596 192.77711999999997">
</path>
</g>
</g>
<g class="vf-modifiers">
</g>
</g>
<g class="vf-stavenote" id="vf-auto12760">
<g class="vf-note" pointer-events="bounding-box">
<g class="vf-notehead" pointer-events="bounding-box">
<path stroke-width="0.3" fill="#000000" stroke="none" stroke-dasharray="none" d="M257.2392 197.99999999999997M264.59616 192.77711999999997C264.70848 192.77711999999997,264.87696 192.77711999999997,264.90504 192.77711999999997C264.90504 192.77711999999997,264.93312 192.77711999999997,264.93312 192.77711999999997C264.93312 192.77711999999997,265.10159999999996 192.77711999999997,265.24199999999996 192.77711999999997C267.76919999999996 192.91751999999997,269.25744 194.57423999999997,269.25744 196.65215999999998C269.25744 197.66303999999997,268.92048 198.81431999999998,268.07808 199.90943999999996C266.47751999999997 202.07159999999996,263.86608 203.25095999999996,261.59159999999997 203.25095999999996C259.82256 203.25095999999996,258.30624 202.54895999999997,257.57615999999996 201.11687999999998C257.35152 200.55527999999998,257.2392 200.02175999999997,257.2392 199.43207999999998C257.2392 196.37135999999998,260.66496 192.97367999999997,264.59616 192.77711999999997">
</path>
</g>
</g>
<g class="vf-modifiers">
</g>
</g>
<g class="vf-stavenote" id="vf-auto12770">
<g class="vf-note" pointer-events="bounding-box">
<g class="vf-notehead" pointer-events="bounding-box">
<path stroke-width="0.3" fill="#000000" stroke="none" stroke-dasharray="none" d="M291.1794 197.99999999999997M298.53636 192.77711999999997C298.64868 192.77711999999997,298.81716 192.77711999999997,298.84524 192.77711999999997C298.84524 192.77711999999997,298.87332 192.77711999999997,298.87332 192.77711999999997C298.87332 192.77711999999997,299.04179999999997 192.77711999999997,299.18219999999997 192.77711999999997C301.70939999999996 192.91751999999997,303.19764 194.57423999999997,303.19764 196.65215999999998C303.19764 197.66303999999997,302.86068 198.81431999999998,302.01828 199.90943999999996C300.41772 202.07159999999996,297.80628 203.25095999999996,295.5318 203.25095999999996C293.76276 203.25095999999996,292.24644 202.54895999999997,291.51635999999996 201.11687999999998C291.29172 200.55527999999998,291.1794 200.02175999999997,291.1794 199.43207999999998C291.1794 196.37135999999998,294.60516 192.97367999999997,298.53636 192.77711999999997">
</path>
</g>
</g>
<g class="vf-modifiers">
</g>
</g>
<g class="vf-stavenote" id="vf-auto12780">
<g class="vf-note" pointer-events="bounding-box">
<g class="vf-notehead" pointer-events="bounding-box">
<path stroke-width="0.3" fill="#000000" stroke="none" stroke-dasharray="none" d="M325.1196 197.99999999999997M332.47656 192.77711999999997C332.58888 192.77711999999997,332.75736 192.77711999999997,332.78544 192.77711999999997C332.78544 192.77711999999997,332.81352 192.77711999999997,332.81352 192.77711999999997C332.81352 192.77711999999997,332.98199999999997 192.77711999999997,333.12239999999997 192.77711999999997C335.64959999999996 192.91751999999997,337.13784 194.57423999999997,337.13784 196.65215999999998C337.13784 197.66303999999997,336.80088 198.81431999999998,335.95848 199.90943999999996C334.35792 202.07159999999996,331.74648 203.25095999999996,329.472 203.25095999999996C327.70296 203.25095999999996,326.18664 202.54895999999997,325.45655999999997 201.11687999999998C325.23192 200.55527999999998,325.1196 200.02175999999997,325.1196 199.43207999999998C325.1196 196.37135999999998,328.54536 192.97367999999997,332.47656 192.77711999999997">
</path>
</g>
</g>
<g class="vf-modifiers">
</g>
</g>
<g class="vf-stavenote" id="vf-auto12790">
<g class="vf-note" pointer-events="bounding-box">
<g class="vf-notehead" pointer-events="bounding-box">
<path stroke-width="0.3" fill="#000000" stroke="none" stroke-dasharray="none" d="M359.0598 197.99999999999997M366.41676 192.77711999999997C366.52908 192.77711999999997,366.69756 192.77711999999997,366.72564 192.77711999999997C366.72564 192.77711999999997,366.75372 192.77711999999997,366.75372 192.77711999999997C366.75372 192.77711999999997,366.9222 192.77711999999997,367.0626 192.77711999999997C369.58979999999997 192.91751999999997,371.07804 194.57423999999997,371.07804 196.65215999999998C371.07804 197.66303999999997,370.74108 198.81431999999998,369.89868 199.90943999999996C368.29812 202.07159999999996,365.68668 203.25095999999996,363.4122 203.25095999999996C361.64316 203.25095999999996,360.12684 202.54895999999997,359.39676 201.11687999999998C359.17212 200.55527999999998,359.0598 200.02175999999997,359.0598 199.43207999999998C359.0598 196.37135999999998,362.48556 192.97367999999997,366.41676 192.77711999999997">
</path>
</g>
</g>
<g class="vf-modifiers">
</g>
</g>
<path stroke-width="1.5" fill="none" stroke="#000000" stroke-dasharray="none" d="M132.74663999999999 197.99999999999997L132.74663999999999 163.74999999999997">
</path>
<path stroke-width="1.5" fill="none" stroke="#000000" stroke-dasharray="none" d="M166.68684 197.99999999999997L166.68684 163.74999999999997">
</path>
<path stroke-width="1.5" fill="none" stroke="#000000" stroke-dasharray="none" d="M200.62704 197.99999999999997L200.62704 163.74999999999997">
</path>
<path stroke-width="1.5" fill="none" stroke="#000000" stroke-dasharray="none" d="M234.56724 197.99999999999997L234.56724 163.74999999999997">
</path>
<path stroke-width="0.3" fill="#000000" stroke="none" stroke-dasharray="none" d="M131.99663999999999 162.99999999999997L131.99663999999999 167.99999999999997L234.81724 167.99999999999997L234.81724 162.99999999999997Z">
</path>
<path stroke-width="1.5" fill="none" stroke="#000000" stroke-dasharray="none" d="M268.50744 197.99999999999997L268.50744 163.74999999999997">
</path>
<path stroke-width="1.5" fill="none" stroke="#000000" stroke-dasharray="none" d="M302.44764 197.99999999999997L302.44764 163.74999999999997">
</path>
<path stroke-width="1.5" fill="none" stroke="#000000" stroke-dasharray="none" d="M336.38784 197.99999999999997L336.38784 163.74999999999997">
</path>
<path stroke-width="1.5" fill="none" stroke="#000000" stroke-dasharray="none" d="M370.32804 197.99999999999997L370.32804 163.74999999999997">
</path>
<path stroke-width="0.3" fill="#000000" stroke="none" stroke-dasharray="none" d="M267.75744 162.99999999999997L267.75744 167.99999999999997L370.57804 167.99999999999997L370.57804 162.99999999999997Z">
</path>
<path stroke-width="1" fill="none" stroke="black" stroke-dasharray="none" d="M391.1120447999999 197.99999999999997L998.765431552 197.99999999999997">
</path>
<rect stroke-width="0.3" fill="black" stroke="black" stroke-dasharray="none" x="993.765431552" y="177.49999999999997" width="1" height="41">
</rect>
<rect stroke-width="0.3" fill="black" stroke="black" stroke-dasharray="none" x="996.765431552" y="177.49999999999997" width="3" height="41">
</rect>
<path stroke-width="0.3" fill="black" stroke="none" stroke-dasharray="none" d="M992.765431552 193.49999999999997 A2 2 0 0 0 988.765431552 193.49999999999997M988.765431552 193.49999999999997 A2 2 0 0 0 992.765431552 193.49999999999997">
</path>
<path stroke-width="0.3" fill="black" stroke="none" stroke-dasharray="none" d="M992.765431552 203.49999999999997 A2 2 0 0 0 988.765431552 203.49999999999997M988.765431552 203.49999999999997 A2 2 0 0 0 992.765431552 203.49999999999997">
</path>
<g class="vf-stavenote" id="vf-auto12803">
<g class="vf-note" pointer-events="bounding-box">
<g class="vf-notehead" pointer-events="bounding-box">
<path stroke-width="0.3" fill="#000000" stroke="none" stroke-dasharray="none" d="M433.97612159999994 197.99999999999997M441.33308159999996 192.77711999999997C441.44540159999997 192.77711999999997,441.61388159999996 192.77711999999997,441.64196159999995 192.77711999999997C441.64196159999995 192.77711999999997,441.67004159999993 192.77711999999997,441.67004159999993 192.77711999999997C441.67004159999993 192.77711999999997,441.8385215999999 192.77711999999997,441.9789215999999 192.77711999999997C444.5061215999999 192.91751999999997,445.99436159999993 194.57423999999997,445.99436159999993 196.65215999999998C445.99436159999993 197.66303999999997,445.65740159999996 198.81431999999998,444.81500159999996 199.90943999999996C443.21444159999993 202.07159999999996,440.60300159999997 203.25095999999996,438.32852159999993 203.25095999999996C436.55948159999997 203.25095999999996,435.04316159999996 202.54895999999997,434.3130815999999 201.11687999999998C434.08844159999995 200.55527999999998,433.97612159999994 200.02175999999997,433.97612159999994 199.43207999999998C433.97612159999994 196.37135999999998,437.40188159999997 192.97367999999997,441.33308159999996 192.77711999999997">
</path>
</g>
</g>
<g class="vf-modifiers">
<g class="vf-stavenote" id="vf-auto12813">
<g class="vf-note" pointer-events="bounding-box">
<g class="vf-stem" pointer-events="bounding-box">
<path stroke-width="1.5" fill="none" stroke="#000000" stroke-dasharray="none" d="M415.29408319999993 197.99999999999997L415.29408319999993 174.89999999999998">
</path>
</g>
<g class="vf-notehead" pointer-events="bounding-box">
<path stroke-width="0.3" fill="#000000" stroke="none" stroke-dasharray="none" d="M408.1120447999999 197.99999999999997M412.96763839999994 194.55289919999998C413.0417695999999 194.55289919999998,413.1529663999999 194.55289919999998,413.1714991999999 194.55289919999998C413.1714991999999 194.55289919999998,413.1900319999999 194.55289919999998,413.1900319999999 194.55289919999998C413.1900319999999 194.55289919999998,413.30122879999993 194.55289919999998,413.39389279999995 194.55289919999998C415.0618447999999 194.64556319999997,416.04408319999993 195.73899839999996,416.04408319999993 197.11042559999999C416.04408319999993 197.77760639999997,415.8216895999999 198.53745119999996,415.26570559999993 199.26023039999998C414.2093359999999 200.68725599999996,412.48578559999993 201.46563359999996,410.98462879999994 201.46563359999996C409.81706239999994 201.46563359999996,408.8162911999999 201.00231359999998,408.3344383999999 200.05714079999998C408.18617599999993 199.68648479999996,408.1120447999999 199.33436159999997,408.1120447999999 198.94517279999997C408.1120447999999 196.92509759999996,410.3730463999999 194.68262879999997,412.96763839999994 194.55289919999998">
</path>
</g>
<g class="vf-flag" pointer-events="bounding-box">
<path stroke-width="0.3" fill="#000000" stroke="none" stroke-dasharray="none" d="M415.29408319999993 172.89999999999998M414.8492959999999 175.88378079999998L414.8492959999999 172.992664L414.92342719999994 172.992664C415.1272879999999 172.992664,415.2570175999999 173.12239359999998,415.29408319999993 173.34478719999998C415.68327199999993 175.19806719999997,416.85083839999993 177.21814239999998,418.46319199999994 178.73783199999997C420.2608735999999 180.42431679999999,421.16898079999993 182.74091679999998,421.16898079999993 185.13164799999998C421.16898079999993 187.39264959999997,420.3720703999999 189.74631519999997,418.7597167999999 191.69225919999997C418.48172479999994 192.06291519999996,418.46319199999994 192.06291519999996,418.2778639999999 192.06291519999996C418.05547039999993 192.06291519999996,417.9072079999999 191.89611999999997,417.9072079999999 191.67372639999996C417.9072079999999 191.50693119999997,417.9257407999999 191.4698656,418.11106879999994 191.2660048C419.5195615999999 189.56098719999997,420.2238079999999 187.5038464,420.2238079999999 185.5393696C420.2238079999999 183.7972864,419.66782399999994 182.12933439999998,418.51879039999994 180.86910399999996C417.81454399999996 180.09072639999997,416.51724799999994 179.34941439999997,414.8678287999999 178.77489759999997C414.8678287999999 178.75636479999997,414.8492959999999 178.18184799999997,414.8492959999999 175.88378079999998">
</path>
</g>
</g>
<g class="vf-modifiers">
</g>
</g>
<path stroke-width="1" fill="none" stroke="#000000" stroke-dasharray="none" d="M409.1120447999999 189.74999999999997L422.1120447999999 180.74999999999997Z">
</path>
</g>
</g>
<g class="vf-stavenote" id="vf-auto12827">
<g class="vf-note" pointer-events="bounding-box">
<g class="vf-notehead" pointer-events="bounding-box">
<path stroke-width="0.3" fill="#000000" stroke="none" stroke-dasharray="none" d="M475.0643839999999 197.99999999999997M482.4213439999999 192.77711999999997C482.53366399999993 192.77711999999997,482.7021439999999 192.77711999999997,482.7302239999999 192.77711999999997C482.7302239999999 192.77711999999997,482.7583039999999 192.77711999999997,482.7583039999999 192.77711999999997C482.7583039999999 192.77711999999997,482.9267839999999 192.77711999999997,483.0671839999999 192.77711999999997C485.5943839999999 192.91751999999997,487.0826239999999 194.57423999999997,487.0826239999999 196.65215999999998C487.0826239999999 197.66303999999997,486.7456639999999 198.81431999999998,485.9032639999999 199.90943999999996C484.3027039999999 202.07159999999996,481.69126399999993 203.25095999999996,479.4167839999999 203.25095999999996C477.64774399999993 203.25095999999996,476.1314239999999 202.54895999999997,475.4013439999999 201.11687999999998C475.1767039999999 200.55527999999998,475.0643839999999 200.02175999999997,475.0643839999999 199.43207999999998C475.0643839999999 196.37135999999998,478.49014399999993 192.97367999999997,482.4213439999999 192.77711999999997">
</path>
</g>
</g>
<g class="vf-modifiers">
</g>
</g>
<g class="vf-stavenote" id="vf-auto12837">
<g class="vf-note" pointer-events="bounding-box">
<g class="vf-notehead" pointer-events="bounding-box">
<path stroke-width="0.3" fill="#000000" stroke="none" stroke-dasharray="none" d="M504.61763519999994 197.99999999999997M511.97459519999995 192.77711999999997C512.0869151999999 192.77711999999997,512.2553952 192.77711999999997,512.2834751999999 192.77711999999997C512.2834751999999 192.77711999999997,512.3115551999999 192.77711999999997,512.3115551999999 192.77711999999997C512.3115551999999 192.77711999999997,512.4800352 192.77711999999997,512.6204352 192.77711999999997C515.1476352 192.91751999999997,516.6358752 194.57423999999997,516.6358752 196.65215999999998C516.6358752 197.66303999999997,516.2989151999999 198.81431999999998,515.4565151999999 199.90943999999996C513.8559551999999 202.07159999999996,511.2445151999999 203.25095999999996,508.9700351999999 203.25095999999996C507.20099519999997 203.25095999999996,505.68467519999996 202.54895999999997,504.9545951999999 201.11687999999998C504.72995519999995 200.55527999999998,504.61763519999994 200.02175999999997,504.61763519999994 199.43207999999998C504.61763519999994 196.37135999999998,508.04339519999996 192.97367999999997,511.97459519999995 192.77711999999997">
</path>
</g>
</g>
<g class="vf-modifiers">
</g>
</g>
<g class="vf-stavenote" id="vf-auto12847">
<g class="vf-note" pointer-events="bounding-box">
<g class="vf-notehead" pointer-events="bounding-box">
<path stroke-width="0.3" fill="#000000" stroke="none" stroke-dasharray="none" d="M560.0349632 197.99999999999997M567.3919232 192.77711999999997C567.5042432 192.77711999999997,567.6727232 192.77711999999997,567.7008032 192.77711999999997C567.7008032 192.77711999999997,567.7288832 192.77711999999997,567.7288832 192.77711999999997C567.7288832 192.77711999999997,567.8973632 192.77711999999997,568.0377632 192.77711999999997C570.5649632 192.91751999999997,572.0532032 194.57423999999997,572.0532032 196.65215999999998C572.0532032 197.66303999999997,571.7162432 198.81431999999998,570.8738432 199.90943999999996C569.2732832 202.07159999999996,566.6618432 203.25095999999996,564.3873632 203.25095999999996C562.6183232 203.25095999999996,561.1020032 202.54895999999997,560.3719232 201.11687999999998C560.1472832 200.55527999999998,560.0349632 200.02175999999997,560.0349632 199.43207999999998C560.0349632 196.37135999999998,563.4607232 192.97367999999997,567.3919232 192.77711999999997">
</path>
</g>
</g>
<g class="vf-modifiers">
<g class="vf-stavenote" id="vf-auto12857">
<g class="vf-note" pointer-events="bounding-box">
<g class="vf-stem" pointer-events="bounding-box">
<path stroke-width="1.5" fill="none" stroke="#000000" stroke-dasharray="none" d="M541.3529248 197.99999999999997L541.3529248 174.89999999999998">
</path>
</g>
<g class="vf-notehead" pointer-events="bounding-box">
<path stroke-width="0.3" fill="#000000" stroke="none" stroke-dasharray="none" d="M534.1708864 197.99999999999997M539.02648 194.55289919999998C539.1006112 194.55289919999998,539.211808 194.55289919999998,539.2303408 194.55289919999998C539.2303408 194.55289919999998,539.2488736 194.55289919999998,539.2488736 194.55289919999998C539.2488736 194.55289919999998,539.3600703999999 194.55289919999998,539.4527343999999 194.55289919999998C541.1206864 194.64556319999997,542.1029248 195.73899839999996,542.1029248 197.11042559999999C542.1029248 197.77760639999997,541.8805312 198.53745119999996,541.3245472 199.26023039999998C540.2681776 200.68725599999996,538.5446271999999 201.46563359999996,537.0434703999999 201.46563359999996C535.875904 201.46563359999996,534.8751328 201.00231359999998,534.39328 200.05714079999998C534.2450176 199.68648479999996,534.1708864 199.33436159999997,534.1708864 198.94517279999997C534.1708864 196.92509759999996,536.431888 194.68262879999997,539.02648 194.55289919999998">
</path>
</g>
<g class="vf-flag" pointer-events="bounding-box">
<path stroke-width="0.3" fill="#000000" stroke="none" stroke-dasharray="none" d="M541.3529248 172.89999999999998M540.9081376 175.88378079999998L540.9081376 172.992664L540.9822687999999 172.992664C541.1861296 172.992664,541.3158592 173.12239359999998,541.3529248 173.34478719999998C541.7421136 175.19806719999997,542.90968 177.21814239999998,544.5220336 178.73783199999997C546.3197152 180.42431679999999,547.2278224 182.74091679999998,547.2278224 185.13164799999998C547.2278224 187.39264959999997,546.430912 189.74631519999997,544.8185584 191.69225919999997C544.5405664 192.06291519999996,544.5220336 192.06291519999996,544.3367056 192.06291519999996C544.1143119999999 192.06291519999996,543.9660496 191.89611999999997,543.9660496 191.67372639999996C543.9660496 191.50693119999997,543.9845824 191.4698656,544.1699103999999 191.2660048C545.5784032 189.56098719999997,546.2826496 187.5038464,546.2826496 185.5393696C546.2826496 183.7972864,545.7266655999999 182.12933439999998,544.577632 180.86910399999996C543.8733856 180.09072639999997,542.5760895999999 179.34941439999997,540.9266704 178.77489759999997C540.9266704 178.75636479999997,540.9081376 178.18184799999997,540.9081376 175.88378079999998">
</path>
</g>
</g>
<g class="vf-modifiers">
</g>
</g>
<path stroke-width="1" fill="none" stroke="#000000" stroke-dasharray="none" d="M535.1708864 189.74999999999997L548.1708864 180.74999999999997Z">
</path>
</g>
</g>
<g class="vf-stavenote" id="vf-auto12871">
<g class="vf-note" pointer-events="bounding-box">
<g class="vf-notehead" pointer-events="bounding-box">
<path stroke-width="0.3" fill="#000000" stroke="none" stroke-dasharray="none" d="M601.1232256 197.99999999999997M608.4801855999999 192.77711999999997C608.5925056 192.77711999999997,608.7609855999999 192.77711999999997,608.7890656 192.77711999999997C608.7890656 192.77711999999997,608.8171456 192.77711999999997,608.8171456 192.77711999999997C608.8171456 192.77711999999997,608.9856255999999 192.77711999999997,609.1260255999999 192.77711999999997C611.6532255999999 192.91751999999997,613.1414656 194.57423999999997,613.1414656 196.65215999999998C613.1414656 197.66303999999997,612.8045056 198.81431999999998,611.9621056 199.90943999999996C610.3615456 202.07159999999996,607.7501056 203.25095999999996,605.4756256 203.25095999999996C603.7065855999999 203.25095999999996,602.1902656 202.54895999999997,601.4601855999999 201.11687999999998C601.2355455999999 200.55527999999998,601.1232256 200.02175999999997,601.1232256 199.43207999999998C601.1232256 196.37135999999998,604.5489855999999 192.97367999999997,608.4801855999999 192.77711999999997">
</path>
</g>
</g>
<g class="vf-modifiers">
</g>
</g>
<g class="vf-stavenote" id="vf-auto12881">
<g class="vf-note" pointer-events="bounding-box">
<g class="vf-notehead" pointer-events="bounding-box">
<path stroke-width="0.3" fill="#000000" stroke="none" stroke-dasharray="none" d="M630.6764767999999 197.99999999999997M638.0334367999999 192.77711999999997C638.1457568 192.77711999999997,638.3142367999999 192.77711999999997,638.3423167999999 192.77711999999997C638.3423167999999 192.77711999999997,638.3703968 192.77711999999997,638.3703968 192.77711999999997C638.3703968 192.77711999999997,638.5388767999999 192.77711999999997,638.6792767999999 192.77711999999997C641.2064767999999 192.91751999999997,642.6947167999999 194.57423999999997,642.6947167999999 196.65215999999998C642.6947167999999 197.66303999999997,642.3577568 198.81431999999998,641.5153568 199.90943999999996C639.9147968 202.07159999999996,637.3033568 203.25095999999996,635.0288767999999 203.25095999999996C633.2598367999999 203.25095999999996,631.7435168 202.54895999999997,631.0134367999999 201.11687999999998C630.7887967999999 200.55527999999998,630.6764767999999 200.02175999999997,630.6764767999999 199.43207999999998C630.6764767999999 196.37135999999998,634.1022367999999 192.97367999999997,638.0334367999999 192.77711999999997">
</path>
</g>
</g>
<g class="vf-modifiers">
</g>
</g>
<g class="vf-stavenote" id="vf-auto12891">
<g class="vf-note" pointer-events="bounding-box">
<g class="vf-notehead" pointer-events="bounding-box">
<path stroke-width="0.3" fill="#000000" stroke="none" stroke-dasharray="none" d="M686.0938047999999 197.99999999999997M693.4507647999999 192.77711999999997C693.5630848 192.77711999999997,693.7315647999999 192.77711999999997,693.7596447999999 192.77711999999997C693.7596447999999 192.77711999999997,693.7877248 192.77711999999997,693.7877248 192.77711999999997C693.7877248 192.77711999999997,693.9562047999999 192.77711999999997,694.0966047999999 192.77711999999997C696.6238047999999 192.91751999999997,698.1120447999999 194.57423999999997,698.1120447999999 196.65215999999998C698.1120447999999 197.66303999999997,697.7750848 198.81431999999998,696.9326848 199.90943999999996C695.3321248 202.07159999999996,692.7206848 203.25095999999996,690.4462047999999 203.25095999999996C688.6771647999999 203.25095999999996,687.1608448 202.54895999999997,686.4307647999999 201.11687999999998C686.2061247999999 200.55527999999998,686.0938047999999 200.02175999999997,686.0938047999999 199.43207999999998C686.0938047999999 196.37135999999998,689.5195647999999 192.97367999999997,693.4507647999999 192.77711999999997">
</path>
</g>
</g>
<g class="vf-modifiers">
<g class="vf-stavenote" id="vf-auto12901">
<g class="vf-note" pointer-events="bounding-box">
<g class="vf-stem" pointer-events="bounding-box">
<path stroke-width="1.5" fill="none" stroke="#000000" stroke-dasharray="none" d="M667.4117663999999 197.99999999999997L667.4117663999999 174.89999999999998">
</path>
</g>
<g class="vf-notehead" pointer-events="bounding-box">
<path stroke-width="0.3" fill="#000000" stroke="none" stroke-dasharray="none" d="M660.2297279999999 197.99999999999997M665.0853215999999 194.55289919999998C665.1594527999999 194.55289919999998,665.2706496 194.55289919999998,665.2891824 194.55289919999998C665.2891824 194.55289919999998,665.3077152 194.55289919999998,665.3077152 194.55289919999998C665.3077152 194.55289919999998,665.4189119999999 194.55289919999998,665.5115759999999 194.55289919999998C667.1795279999999 194.64556319999997,668.1617663999999 195.73899839999996,668.1617663999999 197.11042559999999C668.1617663999999 197.77760639999997,667.9393727999999 198.53745119999996,667.3833887999999 199.26023039999998C666.3270191999999 200.68725599999996,664.6034687999999 201.46563359999996,663.1023119999999 201.46563359999996C661.9347455999999 201.46563359999996,660.9339743999999 201.00231359999998,660.4521215999999 200.05714079999998C660.3038591999999 199.68648479999996,660.2297279999999 199.33436159999997,660.2297279999999 198.94517279999997C660.2297279999999 196.92509759999996,662.4907295999999 194.68262879999997,665.0853215999999 194.55289919999998">
</path>
</g>
<g class="vf-flag" pointer-events="bounding-box">
<path stroke-width="0.3" fill="#000000" stroke="none" stroke-dasharray="none" d="M667.4117663999999 172.89999999999998M666.9669792 175.88378079999998L666.9669792 172.992664L667.0411103999999 172.992664C667.2449711999999 172.992664,667.3747007999999 173.12239359999998,667.4117663999999 173.34478719999998C667.8009552 175.19806719999997,668.9685215999999 177.21814239999998,670.5808751999999 178.73783199999997C672.3785568 180.42431679999999,673.286664 182.74091679999998,673.286664 185.13164799999998C673.286664 187.39264959999997,672.4897536 189.74631519999997,670.8774 191.69225919999997C670.5994079999999 192.06291519999996,670.5808751999999 192.06291519999996,670.3955471999999 192.06291519999996C670.1731535999999 192.06291519999996,670.0248912 191.89611999999997,670.0248912 191.67372639999996C670.0248912 191.50693119999997,670.043424 191.4698656,670.2287519999999 191.2660048C671.6372448 189.56098719999997,672.3414912 187.5038464,672.3414912 185.5393696C672.3414912 183.7972864,671.7855071999999 182.12933439999998,670.6364735999999 180.86910399999996C669.9322271999999 180.09072639999997,668.6349311999999 179.34941439999997,666.985512 178.77489759999997C666.985512 178.75636479999997,666.9669792 178.18184799999997,666.9669792 175.88378079999998">
</path>
</g>
</g>
<g class="vf-modifiers">
</g>
</g>
<path stroke-width="1" fill="none" stroke="#000000" stroke-dasharray="none" d="M661.2297279999999 189.74999999999997L674.2297279999999 180.74999999999997Z">
</path>
</g>
</g>
<g class="vf-stavenote" id="vf-auto12915">
<g class="vf-note" pointer-events="bounding-box">
<g class="vf-notehead" pointer-events="bounding-box">
<path stroke-width="0.3" fill="#000000" stroke="none" stroke-dasharray="none" d="M715.6470559999999 197.99999999999997M723.0040159999999 192.77711999999997C723.1163359999999 192.77711999999997,723.2848159999999 192.77711999999997,723.3128959999999 192.77711999999997C723.3128959999999 192.77711999999997,723.340976 192.77711999999997,723.340976 192.77711999999997C723.340976 192.77711999999997,723.5094559999999 192.77711999999997,723.6498559999999 192.77711999999997C726.1770559999999 192.91751999999997,727.6652959999999 194.57423999999997,727.6652959999999 196.65215999999998C727.6652959999999 197.66303999999997,727.3283359999999 198.81431999999998,726.4859359999999 199.90943999999996C724.885376 202.07159999999996,722.2739359999999 203.25095999999996,719.9994559999999 203.25095999999996C718.2304159999999 203.25095999999996,716.7140959999999 202.54895999999997,715.9840159999999 201.11687999999998C715.7593759999999 200.55527999999998,715.6470559999999 200.02175999999997,715.6470559999999 199.43207999999998C715.6470559999999 196.37135999999998,719.0728159999999 192.97367999999997,723.0040159999999 192.77711999999997">
</path>
</g>
</g>
<g class="vf-modifiers">
</g>
</g>
<g class="vf-stavenote" id="vf-auto12925">
<g class="vf-note" pointer-events="bounding-box">
<g class="vf-notehead" pointer-events="bounding-box">
<path stroke-width="0.3" fill="#000000" stroke="none" stroke-dasharray="none" d="M771.0643839999999 197.99999999999997M778.4213439999999 192.77711999999997C778.5336639999999 192.77711999999997,778.7021439999999 192.77711999999997,778.7302239999999 192.77711999999997C778.7302239999999 192.77711999999997,778.758304 192.77711999999997,778.758304 192.77711999999997C778.758304 192.77711999999997,778.9267839999999 192.77711999999997,779.0671839999999 192.77711999999997C781.5943839999999 192.91751999999997,783.0826239999999 194.57423999999997,783.0826239999999 196.65215999999998C783.0826239999999 197.66303999999997,782.7456639999999 198.81431999999998,781.9032639999999 199.90943999999996C780.302704 202.07159999999996,777.6912639999999 203.25095999999996,775.4167839999999 203.25095999999996C773.6477439999999 203.25095999999996,772.1314239999999 202.54895999999997,771.4013439999999 201.11687999999998C771.1767039999999 200.55527999999998,771.0643839999999 200.02175999999997,771.0643839999999 199.43207999999998C771.0643839999999 196.37135999999998,774.4901439999999 192.97367999999997,778.4213439999999 192.77711999999997">
</path>
</g>
</g>
<g class="vf-modifiers">
<g class="vf-stavenote" id="vf-auto12935">
<g class="vf-note" pointer-events="bounding-box">
<g class="vf-stem" pointer-events="bounding-box">
<path stroke-width="1.5" fill="none" stroke="#000000" stroke-dasharray="none" d="M752.3823455999999 197.99999999999997L752.3823455999999 174.89999999999998">
</path>
</g>
<g class="vf-notehead" pointer-events="bounding-box">
<path stroke-width="0.3" fill="#000000" stroke="none" stroke-dasharray="none" d="M745.2003071999999 197.99999999999997M750.0559007999999 194.55289919999998C750.1300319999999 194.55289919999998,750.2412287999999 194.55289919999998,750.2597615999999 194.55289919999998C750.2597615999999 194.55289919999998,750.2782943999999 194.55289919999998,750.2782943999999 194.55289919999998C750.2782943999999 194.55289919999998,750.3894911999998 194.55289919999998,750.4821551999999 194.55289919999998C752.1501071999999 194.64556319999997,753.1323455999999 195.73899839999996,753.1323455999999 197.11042559999999C753.1323455999999 197.77760639999997,752.9099519999999 198.53745119999996,752.3539679999999 199.26023039999998C751.2975983999999 200.68725599999996,749.5740479999998 201.46563359999996,748.0728911999998 201.46563359999996C746.9053247999999 201.46563359999996,745.9045535999999 201.00231359999998,745.4227007999999 200.05714079999998C745.2744383999999 199.68648479999996,745.2003071999999 199.33436159999997,745.2003071999999 198.94517279999997C745.2003071999999 196.92509759999996,747.4613087999999 194.68262879999997,750.0559007999999 194.55289919999998">
</path>
</g>
<g class="vf-flag" pointer-events="bounding-box">
<path stroke-width="0.3" fill="#000000" stroke="none" stroke-dasharray="none" d="M752.3823455999999 172.89999999999998M751.9375584 175.88378079999998L751.9375584 172.992664L752.0116895999998 172.992664C752.2155503999999 172.992664,752.3452799999999 173.12239359999998,752.3823455999999 173.34478719999998C752.7715344 175.19806719999997,753.9391007999999 177.21814239999998,755.5514543999999 178.73783199999997C757.3491359999999 180.42431679999999,758.2572432 182.74091679999998,758.2572432 185.13164799999998C758.2572432 187.39264959999997,757.4603328 189.74631519999997,755.8479791999999 191.69225919999997C755.5699871999999 192.06291519999996,755.5514543999999 192.06291519999996,755.3661263999999 192.06291519999996C755.1437327999998 192.06291519999996,754.9954703999999 191.89611999999997,754.9954703999999 191.67372639999996C754.9954703999999 191.50693119999997,755.0140031999999 191.4698656,755.1993311999998 191.2660048C756.6078239999999 189.56098719999997,757.3120703999999 187.5038464,757.3120703999999 185.5393696C757.3120703999999 183.7972864,756.7560863999998 182.12933439999998,755.6070527999999 180.86910399999996C754.9028063999999 180.09072639999997,753.6055103999998 179.34941439999997,751.9560912 178.77489759999997C751.9560912 178.75636479999997,751.9375584 178.18184799999997,751.9375584 175.88378079999998">
</path>
</g>
</g>
<g class="vf-modifiers">
</g>
</g>
<path stroke-width="1" fill="none" stroke="#000000" stroke-dasharray="none" d="M746.2003071999999 189.74999999999997L759.2003071999999 180.74999999999997Z">
</path>
</g>
</g>
<g class="vf-stavenote" id="vf-auto12949">
<g class="vf-note" pointer-events="bounding-box">
<g class="vf-notehead" pointer-events="bounding-box">
<path stroke-width="0.3" fill="#000000" stroke="none" stroke-dasharray="none" d="M800.6176351999999 197.99999999999997M807.9745951999998 192.77711999999997C808.0869151999999 192.77711999999997,808.2553951999998 192.77711999999997,808.2834751999999 192.77711999999997C808.2834751999999 192.77711999999997,808.3115551999999 192.77711999999997,808.3115551999999 192.77711999999997C808.3115551999999 192.77711999999997,808.4800351999999 192.77711999999997,808.6204351999999 192.77711999999997C811.1476351999999 192.91751999999997,812.6358751999999 194.57423999999997,812.6358751999999 196.65215999999998C812.6358751999999 197.66303999999997,812.2989151999999 198.81431999999998,811.4565151999999 199.90943999999996C809.8559551999999 202.07159999999996,807.2445151999999 203.25095999999996,804.9700351999999 203.25095999999996C803.2009951999999 203.25095999999996,801.6846751999999 202.54895999999997,800.9545951999999 201.11687999999998C800.7299551999998 200.55527999999998,800.6176351999999 200.02175999999997,800.6176351999999 199.43207999999998C800.6176351999999 196.37135999999998,804.0433951999998 192.97367999999997,807.9745951999998 192.77711999999997">
</path>
</g>
</g>
<g class="vf-modifiers">
</g>
</g>
<g class="vf-stavenote" id="vf-auto12959">
<g class="vf-note" pointer-events="bounding-box">
<g class="vf-notehead" pointer-events="bounding-box">
<path stroke-width="0.3" fill="#000000" stroke="none" stroke-dasharray="none" d="M856.0349631999999 197.99999999999997M863.3919231999998 192.77711999999997C863.5042431999999 192.77711999999997,863.6727231999998 192.77711999999997,863.7008031999999 192.77711999999997C863.7008031999999 192.77711999999997,863.7288831999999 192.77711999999997,863.7288831999999 192.77711999999997C863.7288831999999 192.77711999999997,863.8973631999999 192.77711999999997,864.0377631999999 192.77711999999997C866.5649631999999 192.91751999999997,868.0532031999999 194.57423999999997,868.0532031999999 196.65215999999998C868.0532031999999 197.66303999999997,867.7162431999999 198.81431999999998,866.8738431999999 199.90943999999996C865.2732831999999 202.07159999999996,862.6618431999999 203.25095999999996,860.3873631999999 203.25095999999996C858.6183231999998 203.25095999999996,857.1020031999999 202.54895999999997,856.3719231999999 201.11687999999998C856.1472831999998 200.55527999999998,856.0349631999999 200.02175999999997,856.0349631999999 199.43207999999998C856.0349631999999 196.37135999999998,859.4607231999998 192.97367999999997,863.3919231999998 192.77711999999997">
</path>
</g>
</g>
<g class="vf-modifiers">
<g class="vf-stavenote" id="vf-auto12969">
<g class="vf-note" pointer-events="bounding-box">
<g class="vf-stem" pointer-events="bounding-box">
<path stroke-width="1.5" fill="none" stroke="#000000" stroke-dasharray="none" d="M837.3529247999999 197.99999999999997L837.3529247999999 174.89999999999998">
</path>
</g>
<g class="vf-notehead" pointer-events="bounding-box">
<path stroke-width="0.3" fill="#000000" stroke="none" stroke-dasharray="none" d="M830.1708863999999 197.99999999999997M835.0264799999999 194.55289919999998C835.1006111999999 194.55289919999998,835.2118079999999 194.55289919999998,835.2303407999999 194.55289919999998C835.2303407999999 194.55289919999998,835.2488735999999 194.55289919999998,835.2488735999999 194.55289919999998C835.2488735999999 194.55289919999998,835.3600703999998 194.55289919999998,835.4527343999998 194.55289919999998C837.1206863999998 194.64556319999997,838.1029247999999 195.73899839999996,838.1029247999999 197.11042559999999C838.1029247999999 197.77760639999997,837.8805311999998 198.53745119999996,837.3245471999999 199.26023039999998C836.2681775999998 200.68725599999996,834.5446271999998 201.46563359999996,833.0434703999998 201.46563359999996C831.8759039999999 201.46563359999996,830.8751327999998 201.00231359999998,830.3932799999999 200.05714079999998C830.2450175999999 199.68648479999996,830.1708863999999 199.33436159999997,830.1708863999999 198.94517279999997C830.1708863999999 196.92509759999996,832.4318879999998 194.68262879999997,835.0264799999999 194.55289919999998">
</path>
</g>
<g class="vf-flag" pointer-events="bounding-box">
<path stroke-width="0.3" fill="#000000" stroke="none" stroke-dasharray="none" d="M837.3529247999999 172.89999999999998M836.9081375999999 175.88378079999998L836.9081375999999 172.992664L836.9822687999998 172.992664C837.1861295999998 172.992664,837.3158591999999 173.12239359999998,837.3529247999999 173.34478719999998C837.7421135999999 175.19806719999997,838.9096799999999 177.21814239999998,840.5220335999999 178.73783199999997C842.3197151999999 180.42431679999999,843.2278223999999 182.74091679999998,843.2278223999999 185.13164799999998C843.2278223999999 187.39264959999997,842.4309119999999 189.74631519999997,840.8185583999999 191.69225919999997C840.5405663999999 192.06291519999996,840.5220335999999 192.06291519999996,840.3367055999998 192.06291519999996C840.1143119999998 192.06291519999996,839.9660495999999 191.89611999999997,839.9660495999999 191.67372639999996C839.9660495999999 191.50693119999997,839.9845823999999 191.4698656,840.1699103999998 191.2660048C841.5784031999999 189.56098719999997,842.2826495999999 187.5038464,842.2826495999999 185.5393696C842.2826495999999 183.7972864,841.7266655999998 182.12933439999998,840.5776319999999 180.86910399999996C839.8733855999999 180.09072639999997,838.5760895999998 179.34941439999997,836.9266703999999 178.77489759999997C836.9266703999999 178.75636479999997,836.9081375999999 178.18184799999997,836.9081375999999 175.88378079999998">
</path>
</g>
</g>
<g class="vf-modifiers">
</g>
</g>
<path stroke-width="1" fill="none" stroke="#000000" stroke-dasharray="none" d="M831.1708863999999 189.74999999999997L844.1708863999999 180.74999999999997Z">
</path>
</g>
</g>
<g class="vf-stavenote" id="vf-auto12983">
<g class="vf-note" pointer-events="bounding-box">
<g class="vf-notehead" pointer-events="bounding-box">
<path stroke-width="0.3" fill="#000000" stroke="none" stroke-dasharray="none" d="M885.5882144 197.99999999999997M892.9451743999999 192.77711999999997C893.0574944 192.77711999999997,893.2259743999999 192.77711999999997,893.2540544 192.77711999999997C893.2540544 192.77711999999997,893.2821344 192.77711999999997,893.2821344 192.77711999999997C893.2821344 192.77711999999997,893.4506144 192.77711999999997,893.5910144 192.77711999999997C896.1182143999999 192.91751999999997,897.6064544 194.57423999999997,897.6064544 196.65215999999998C897.6064544 197.66303999999997,897.2694944 198.81431999999998,896.4270944 199.90943999999996C894.8265344 202.07159999999996,892.2150944 203.25095999999996,889.9406144 203.25095999999996C888.1715743999999 203.25095999999996,886.6552544 202.54895999999997,885.9251744 201.11687999999998C885.7005343999999 200.55527999999998,885.5882144 200.02175999999997,885.5882144 199.43207999999998C885.5882144 196.37135999999998,889.0139743999999 192.97367999999997,892.9451743999999 192.77711999999997">
</path>
</g>
</g>
<g class="vf-modifiers">
</g>
</g>
<g class="vf-stavenote" id="vf-auto12993">
<g class="vf-note" pointer-events="bounding-box">
<g class="vf-notehead" pointer-events="bounding-box">
<path stroke-width="0.3" fill="#000000" stroke="none" stroke-dasharray="none" d="M941.0055424 197.99999999999997M948.3625023999999 192.77711999999997C948.4748224 192.77711999999997,948.6433023999999 192.77711999999997,948.6713824 192.77711999999997C948.6713824 192.77711999999997,948.6994624 192.77711999999997,948.6994624 192.77711999999997C948.6994624 192.77711999999997,948.8679424 192.77711999999997,949.0083424 192.77711999999997C951.5355423999999 192.91751999999997,953.0237824 194.57423999999997,953.0237824 196.65215999999998C953.0237824 197.66303999999997,952.6868224 198.81431999999998,951.8444224 199.90943999999996C950.2438624 202.07159999999996,947.6324224 203.25095999999996,945.3579424 203.25095999999996C943.5889023999999 203.25095999999996,942.0725824 202.54895999999997,941.3425024 201.11687999999998C941.1178623999999 200.55527999999998,941.0055424 200.02175999999997,941.0055424 199.43207999999998C941.0055424 196.37135999999998,944.4313023999999 192.97367999999997,948.3625023999999 192.77711999999997">
</path>
</g>
</g>
<g class="vf-modifiers">
<g class="vf-stavenote" id="vf-auto13003">
<g class="vf-note" pointer-events="bounding-box">
<g class="vf-stem" pointer-events="bounding-box">
<path stroke-width="1.5" fill="none" stroke="#000000" stroke-dasharray="none" d="M922.323504 197.99999999999997L922.323504 174.89999999999998">
</path>
</g>
<g class="vf-notehead" pointer-events="bounding-box">
<path stroke-width="0.3" fill="#000000" stroke="none" stroke-dasharray="none" d="M915.1414656 197.99999999999997M919.9970592 194.55289919999998C920.0711904 194.55289919999998,920.1823872 194.55289919999998,920.20092 194.55289919999998C920.20092 194.55289919999998,920.2194528 194.55289919999998,920.2194528 194.55289919999998C920.2194528 194.55289919999998,920.3306495999999 194.55289919999998,920.4233135999999 194.55289919999998C922.0912655999999 194.64556319999997,923.073504 195.73899839999996,923.073504 197.11042559999999C923.073504 197.77760639999997,922.8511103999999 198.53745119999996,922.2951264 199.26023039999998C921.2387567999999 200.68725599999996,919.5152063999999 201.46563359999996,918.0140495999999 201.46563359999996C916.8464832 201.46563359999996,915.8457119999999 201.00231359999998,915.3638592 200.05714079999998C915.2155968 199.68648479999996,915.1414656 199.33436159999997,915.1414656 198.94517279999997C915.1414656 196.92509759999996,917.4024671999999 194.68262879999997,919.9970592 194.55289919999998">
</path>
</g>
<g class="vf-flag" pointer-events="bounding-box">
<path stroke-width="0.3" fill="#000000" stroke="none" stroke-dasharray="none" d="M922.323504 172.89999999999998M921.8787168 175.88378079999998L921.8787168 172.992664L921.9528479999999 172.992664C922.1567087999999 172.992664,922.2864384 173.12239359999998,922.323504 173.34478719999998C922.7126928 175.19806719999997,923.8802592 177.21814239999998,925.4926128 178.73783199999997C927.2902944 180.42431679999999,928.1984016 182.74091679999998,928.1984016 185.13164799999998C928.1984016 187.39264959999997,927.4014912 189.74631519999997,925.7891376 191.69225919999997C925.5111456 192.06291519999996,925.4926128 192.06291519999996,925.3072847999999 192.06291519999996C925.0848911999999 192.06291519999996,924.9366288 191.89611999999997,924.9366288 191.67372639999996C924.9366288 191.50693119999997,924.9551616 191.4698656,925.1404895999999 191.2660048C926.5489824 189.56098719999997,927.2532288 187.5038464,927.2532288 185.5393696C927.2532288 183.7972864,926.6972447999999 182.12933439999998,925.5482112 180.86910399999996C924.8439648 180.09072639999997,923.5466687999999 179.34941439999997,921.8972496 178.77489759999997C921.8972496 178.75636479999997,921.8787168 178.18184799999997,921.8787168 175.88378079999998">
</path>
</g>
</g>
<g class="vf-modifiers">
</g>
</g>
<path stroke-width="1" fill="none" stroke="#000000" stroke-dasharray="none" d="M916.1414656 189.74999999999997L929.1414656 180.74999999999997Z">
</path>
</g>
</g>
<g class="vf-stavenote" id="vf-auto13017">
<g class="vf-note" pointer-events="bounding-box">
<g class="vf-notehead" pointer-events="bounding-box">
<path stroke-width="0.3" fill="#000000" stroke="none" stroke-dasharray="none" d="M970.5587936 197.99999999999997M977.9157535999999 192.77711999999997C978.0280736 192.77711999999997,978.1965535999999 192.77711999999997,978.2246336 192.77711999999997C978.2246336 192.77711999999997,978.2527136 192.77711999999997,978.2527136 192.77711999999997C978.2527136 192.77711999999997,978.4211935999999 192.77711999999997,978.5615935999999 192.77711999999997C981.0887935999999 192.91751999999997,982.5770335999999 194.57423999999997,982.5770335999999 196.65215999999998C982.5770335999999 197.66303999999997,982.2400736 198.81431999999998,981.3976736 199.90943999999996C979.7971136 202.07159999999996,977.1856736 203.25095999999996,974.9111935999999 203.25095999999996C973.1421535999999 203.25095999999996,971.6258336 202.54895999999997,970.8957535999999 201.11687999999998C970.6711135999999 200.55527999999998,970.5587936 200.02175999999997,970.5587936 199.43207999999998C970.5587936 196.37135999999998,973.9845535999999 192.97367999999997,977.9157535999999 192.77711999999997">
</path>
</g>
</g>
<g class="vf-modifiers">
</g>
</g>
<path stroke-width="1.5" fill="none" stroke="#000000" stroke-dasharray="none" d="M445.24436159999993 197.99999999999997L445.24436159999993 163.74999999999997">
</path>
<path stroke-width="1.5" fill="none" stroke="#000000" stroke-dasharray="none" d="M486.3326239999999 197.99999999999997L486.3326239999999 163.74999999999997">
</path>
<path stroke-width="1.5" fill="none" stroke="#000000" stroke-dasharray="none" d="M515.8858752 197.99999999999997L515.8858752 163.74999999999997">
</path>
<path stroke-width="0.3" fill="#000000" stroke="none" stroke-dasharray="none" d="M444.49436159999993 162.99999999999997L444.49436159999993 167.99999999999997L516.1358752 167.99999999999997L516.1358752 162.99999999999997Z">
</path>
<path stroke-width="0.3" fill="#000000" stroke="none" stroke-dasharray="none" d="M485.5826239999999 170.49999999999997L485.5826239999999 175.49999999999997L516.1358752 175.49999999999997L516.1358752 170.49999999999997Z">
</path>
<path stroke-width="1.5" fill="none" stroke="#000000" stroke-dasharray="none" d="M571.3032032 197.99999999999997L571.3032032 163.74999999999997">
</path>
<path stroke-width="1.5" fill="none" stroke="#000000" stroke-dasharray="none" d="M612.3914656 197.99999999999997L612.3914656 163.74999999999997">
</path>
<path stroke-width="1.5" fill="none" stroke="#000000" stroke-dasharray="none" d="M641.9447167999999 197.99999999999997L641.9447167999999 163.74999999999997">
</path>
<path stroke-width="0.3" fill="#000000" stroke="none" stroke-dasharray="none" d="M570.5532032 162.99999999999997L570.5532032 167.99999999999997L642.1947167999999 167.99999999999997L642.1947167999999 162.99999999999997Z">
</path>
<path stroke-width="0.3" fill="#000000" stroke="none" stroke-dasharray="none" d="M611.6414656 170.49999999999997L611.6414656 175.49999999999997L642.1947167999999 175.49999999999997L642.1947167999999 170.49999999999997Z">
</path>
<path stroke-width="1.5" fill="none" stroke="#000000" stroke-dasharray="none" d="M697.3620447999999 197.99999999999997L697.3620447999999 163.74999999999997">
</path>
<path stroke-width="1.5" fill="none" stroke="#000000" stroke-dasharray="none" d="M726.9152959999999 197.99999999999997L726.9152959999999 163.74999999999997">
</path>
<path stroke-width="1.5" fill="none" stroke="#000000" stroke-dasharray="none" d="M782.3326239999999 197.99999999999997L782.3326239999999 163.74999999999997">
</path>
<path stroke-width="1.5" fill="none" stroke="#000000" stroke-dasharray="none" d="M811.8858751999999 197.99999999999997L811.8858751999999 163.74999999999997">
</path>
<path stroke-width="0.3" fill="#000000" stroke="none" stroke-dasharray="none" d="M696.6120447999999 162.99999999999997L696.6120447999999 167.99999999999997L812.1358751999999 167.99999999999997L812.1358751999999 162.99999999999997Z">
</path>
<path stroke-width="0.3" fill="#000000" stroke="none" stroke-dasharray="none" d="M696.6120447999999 170.49999999999997L696.6120447999999 175.49999999999997L812.1358751999999 175.49999999999997L812.1358751999999 170.49999999999997Z">
</path>
<path stroke-width="1.5" fill="none" stroke="#000000" stroke-dasharray="none" d="M867.3032031999999 197.99999999999997L867.3032031999999 163.74999999999997">
</path>
<path stroke-width="1.5" fill="none" stroke="#000000" stroke-dasharray="none" d="M896.8564544 197.99999999999997L896.8564544 163.74999999999997">
</path>
<path stroke-width="1.5" fill="none" stroke="#000000" stroke-dasharray="none" d="M952.2737824 197.99999999999997L952.2737824 163.74999999999997">
</path>
<path stroke-width="1.5" fill="none" stroke="#000000" stroke-dasharray="none" d="M981.8270335999999 197.99999999999997L981.8270335999999 163.74999999999997">
</path>
<path stroke-width="0.3" fill="#000000" stroke="none" stroke-dasharray="none" d="M866.5532031999999 162.99999999999997L866.5532031999999 167.99999999999997L982.0770335999999 167.99999999999997L982.0770335999999 162.99999999999997Z">
</path>
<path stroke-width="0.3" fill="#000000" stroke="none" stroke-dasharray="none" d="M866.5532031999999 170.49999999999997L866.5532031999999 175.49999999999997L982.0770335999999 175.49999999999997L982.0770335999999 170.49999999999997Z">
</path>
</svg>