<svg width="850" height="100" viewBox="150 135 650 100">
<path stroke-width="1" fill="none" stroke="black" stroke-dasharray="none" d="M50 197.99999999999997L391.1120447999999 197.99999999999997">
</path>
<rect stroke-width="0.3" fill="black" stroke="black" stroke-dasharray="none" x="391.1120447999999" y="177.49999999999997" width="1" height="41">
</rect>
<path stroke-width="0.3" fill="black" stroke="none" stroke-dasharray="none" d="M55 197.99999999999997M55 197.99999999999997L55 188.00639999999999L57.1888 188.00639999999999L59.4064 188.00639999999999L59.4064 197.99999999999997L59.4064 208.02239999999998L57.1888 208.02239999999998L55 208.02239999999998L55 197.99999999999997M63.870400000000004 198.02879999999996L63.870400000000004 188.00639999999999L66.1168 188.00639999999999L68.3632 188.00639999999999L68.3632 198.02879999999996L68.3632 208.02239999999998L66.1168 208.02239999999998L63.870400000000004 208.02239999999998L63.870400000000004 198.02879999999996">
</path>
<path stroke-width="0.3" fill="black" stroke="none" stroke-dasharray="none" d="M96 197.99999999999997M101.0112 179.65439999999998C101.04 179.62559999999996,101.4432 179.62559999999996,102.6816 179.62559999999996C103.056 179.62559999999996,103.4592 179.62559999999996,103.9776 179.62559999999996L106.8864 179.62559999999996L106.9728 179.71199999999996C107.1168 179.79839999999996,107.2032 179.94239999999996,107.2032 180.05759999999998C107.2032 180.23039999999997,107.1168 180.34559999999996,107.0016 180.46079999999998C106.9728 180.54719999999998,106.7136 180.77759999999998,106.5408 181.03679999999997L105.0144 182.79359999999997L103.056 185.01119999999997L102.0192 186.19199999999998L100.464 187.97759999999997L98.4192 190.31039999999996C98.0736 190.74239999999998,97.6992 191.08799999999997,97.6992 191.08799999999997C97.6992 191.08799999999997,97.6992 191.08799999999997,97.6992 191.08799999999997C97.6992 191.14559999999997,97.9584 191.14559999999997,100.3488 191.14559999999997L102.9696 191.14559999999997L102.9696 189.27359999999996C102.9696 187.37279999999998,102.9696 187.34399999999997,102.9984 187.31519999999998C103.056 187.22879999999998,103.3152 186.91199999999998,104.3232 185.73119999999997L104.7264 185.29919999999998L105.1296 184.86719999999997L105.7344 184.08959999999996L106.368 183.42719999999997L106.6848 183.02399999999997C106.8 182.85119999999998,106.9728 182.82239999999996,107.1168 182.82239999999996C107.28960000000001 182.82239999999996,107.4336 182.90879999999999,107.52 183.05279999999996C107.5488 183.13919999999996,107.5488 183.19679999999997,107.5488 185.32799999999997C107.5488 185.81759999999997,107.5488 186.42239999999998,107.5488 187.14239999999998L107.5488 191.14559999999997L108.2688 191.14559999999997C108.9312 191.14559999999997,108.96 191.14559999999997,109.0464 191.17439999999996C109.2768 191.26079999999996,109.392 191.49119999999996,109.392 191.75039999999998C109.392 191.89439999999996,109.3632 192.06719999999999,109.248 192.18239999999997C109.0752 192.32639999999998,109.0464 192.32639999999998,108.2688 192.32639999999998L107.5488 192.32639999999998L107.5488 192.81599999999997C107.5776 194.28479999999996,107.8656 194.86079999999998,108.9888 195.46559999999997C109.392 195.66719999999998,109.4784 195.72479999999996,109.4784 196.01279999999997C109.4784 196.21439999999998,109.4208 196.30079999999998,109.2768 196.41599999999997L109.1904 196.44479999999996L105.2448 196.44479999999996L101.328 196.44479999999996L101.2416 196.41599999999997C101.0688 196.30079999999998,101.04 196.21439999999998,101.04 196.01279999999997C101.04 195.72479999999996,101.0688 195.66719999999998,101.5008 195.46559999999997C102.624 194.86079999999998,102.912 194.28479999999996,102.912 192.81599999999997L102.912 192.32639999999998L99.6 192.32639999999998C98.9952 192.38399999999996,98.5056 192.38399999999996,98.1024 192.38399999999996C96.288 192.38399999999996,96.2592 192.32639999999998,96.2304 192.32639999999998C96.0576 192.26879999999997,96 192.09599999999998,96 191.89439999999996C96 191.89439999999996,96 191.89439999999996,96 191.89439999999996C96 191.69279999999998,96 191.69279999999998,96.576 191.0304C98.9952 188.09279999999998,100.6944 183.83039999999997,100.6944 180.43199999999996C100.6944 179.91359999999997,100.7808 179.74079999999998,101.0112 179.65439999999998M102.7392 198.02879999999996L102.768 198.02879999999996L102.6816 198.02879999999996L102.7392 198.02879999999996M102.7392 178.61759999999998L102.768 178.61759999999998L102.6816 178.61759999999998L102.7392 178.61759999999998">
</path>
<path stroke-width="0.3" fill="black" stroke="none" stroke-dasharray="none" d="M96 217.99999999999997M101.0112 199.65439999999998C101.04 199.62559999999996,101.4432 199.62559999999996,102.6816 199.62559999999996C103.056 199.62559999999996,103.4592 199.62559999999996,103.9776 199.62559999999996L106.8864 199.62559999999996L106.9728 199.71199999999996C107.1168 199.79839999999996,107.2032 199.94239999999996,107.2032 200.05759999999998C107.2032 200.23039999999997,107.1168 200.34559999999996,107.0016 200.46079999999998C106.9728 200.54719999999998,106.7136 200.77759999999998,106.5408 201.03679999999997L105.0144 202.79359999999997L103.056 205.01119999999997L102.0192 206.19199999999998L100.464 207.97759999999997L98.4192 210.31039999999996C98.0736 210.74239999999998,97.6992 211.08799999999997,97.6992 211.08799999999997C97.6992 211.08799999999997,97.6992 211.08799999999997,97.6992 211.08799999999997C97.6992 211.14559999999997,97.9584 211.14559999999997,100.3488 211.14559999999997L102.9696 211.14559999999997L102.9696 209.27359999999996C102.9696 207.37279999999998,102.9696 207.34399999999997,102.9984 207.31519999999998C103.056 207.22879999999998,103.3152 206.91199999999998,104.3232 205.73119999999997L104.7264 205.29919999999998L105.1296 204.86719999999997L105.7344 204.08959999999996L106.368 203.42719999999997L106.6848 203.02399999999997C106.8 202.85119999999998,106.9728 202.82239999999996,107.1168 202.82239999999996C107.28960000000001 202.82239999999996,107.4336 202.90879999999999,107.52 203.05279999999996C107.5488 203.13919999999996,107.5488 203.19679999999997,107.5488 205.32799999999997C107.5488 205.81759999999997,107.5488 206.42239999999998,107.5488 207.14239999999998L107.5488 211.14559999999997L108.2688 211.14559999999997C108.9312 211.14559999999997,108.96 211.14559999999997,109.0464 211.17439999999996C109.2768 211.26079999999996,109.392 211.49119999999996,109.392 211.75039999999998C109.392 211.89439999999996,109.3632 212.06719999999999,109.248 212.18239999999997C109.0752 212.32639999999998,109.0464 212.32639999999998,108.2688 212.32639999999998L107.5488 212.32639999999998L107.5488 212.81599999999997C107.5776 214.28479999999996,107.8656 214.86079999999998,108.9888 215.46559999999997C109.392 215.66719999999998,109.4784 215.72479999999996,109.4784 216.01279999999997C109.4784 216.21439999999998,109.4208 216.30079999999998,109.2768 216.41599999999997L109.1904 216.44479999999996L105.2448 216.44479999999996L101.328 216.44479999999996L101.2416 216.41599999999997C101.0688 216.30079999999998,101.04 216.21439999999998,101.04 216.01279999999997C101.04 215.72479999999996,101.0688 215.66719999999998,101.5008 215.46559999999997C102.624 214.86079999999998,102.912 214.28479999999996,102.912 212.81599999999997L102.912 212.32639999999998L99.6 212.32639999999998C98.9952 212.38399999999996,98.5056 212.38399999999996,98.1024 212.38399999999996C96.288 212.38399999999996,96.2592 212.32639999999998,96.2304 212.32639999999998C96.0576 212.26879999999997,96 212.09599999999998,96 211.89439999999996C96 211.89439999999996,96 211.89439999999996,96 211.89439999999996C96 211.69279999999998,96 211.69279999999998,96.576 211.0304C98.9952 208.09279999999998,100.6944 203.83039999999997,100.6944 200.43199999999996C100.6944 199.91359999999997,100.7808 199.74079999999998,101.0112 199.65439999999998M102.7392 218.02879999999996L102.768 218.02879999999996L102.6816 218.02879999999996L102.7392 218.02879999999996M102.7392 198.61759999999998L102.768 198.61759999999998L102.6816 198.61759999999998L102.7392 198.61759999999998">
</path>
<g class="vf-stavenote" id="vf-auto9498">
<g class="vf-note" pointer-events="bounding-box">
<g class="vf-notehead" pointer-events="bounding-box">
<path stroke-width="0.3" fill="#000000" stroke="none" stroke-dasharray="none" d="M121.4784 197.99999999999997M128.83535999999998 192.77711999999997C128.94768 192.77711999999997,129.11615999999998 192.77711999999997,129.14424 192.77711999999997C129.14424 192.77711999999997,129.17231999999998 192.77711999999997,129.17231999999998 192.77711999999997C129.17231999999998 192.77711999999997,129.3408 192.77711999999997,129.4812 192.77711999999997C132.0084 192.91751999999997,133.49663999999999 194.57423999999997,133.49663999999999 196.65215999999998C133.49663999999999 197.66303999999997,133.15967999999998 198.81431999999998,132.31727999999998 199.90943999999996C130.71671999999998 202.07159999999996,128.10528 203.25095999999996,125.8308 203.25095999999996C124.06175999999999 203.25095999999996,122.54544 202.54895999999997,121.81536 201.11687999999998C121.59071999999999 200.55527999999998,121.4784 200.02175999999997,121.4784 199.43207999999998C121.4784 196.37135999999998,124.90415999999999 192.97367999999997,128.83535999999998 192.77711999999997">
</path>
</g>
</g>
<g class="vf-modifiers">
</g>
</g>
<g class="vf-stavenote" id="vf-auto9508">
<g class="vf-note" pointer-events="bounding-box">
<g class="vf-notehead" pointer-events="bounding-box">
<path stroke-width="0.3" fill="#000000" stroke="none" stroke-dasharray="none" d="M155.4186 197.99999999999997M162.77555999999998 192.77711999999997C162.88788 192.77711999999997,163.05635999999998 192.77711999999997,163.08444 192.77711999999997C163.08444 192.77711999999997,163.11252 192.77711999999997,163.11252 192.77711999999997C163.11252 192.77711999999997,163.281 192.77711999999997,163.4214 192.77711999999997C165.9486 192.91751999999997,167.43684 194.57423999999997,167.43684 196.65215999999998C167.43684 197.66303999999997,167.09987999999998 198.81431999999998,166.25748 199.90943999999996C164.65691999999999 202.07159999999996,162.04548 203.25095999999996,159.771 203.25095999999996C158.00196 203.25095999999996,156.48564 202.54895999999997,155.75556 201.11687999999998C155.53092 200.55527999999998,155.4186 200.02175999999997,155.4186 199.43207999999998C155.4186 196.37135999999998,158.84436 192.97367999999997,162.77555999999998 192.77711999999997">
</path>
</g>
</g>
<g class="vf-modifiers">
</g>
</g>
<g class="vf-stavenote" id="vf-auto9518">
<g class="vf-note" pointer-events="bounding-box">
<g class="vf-notehead" pointer-events="bounding-box">
<path stroke-width="0.3" fill="#000000" stroke="none" stroke-dasharray="none" d="M189.3588 197.99999999999997M196.71576 192.77711999999997C196.82808 192.77711999999997,196.99656 192.77711999999997,197.02464 192.77711999999997C197.02464 192.77711999999997,197.05272 192.77711999999997,197.05272 192.77711999999997C197.05272 192.77711999999997,197.2212 192.77711999999997,197.3616 192.77711999999997C199.8888 192.91751999999997,201.37704 194.57423999999997,201.37704 196.65215999999998C201.37704 197.66303999999997,201.04008 198.81431999999998,200.19768 199.90943999999996C198.59712 202.07159999999996,195.98568 203.25095999999996,193.7112 203.25095999999996C191.94216 203.25095999999996,190.42584 202.54895999999997,189.69576 201.11687999999998C189.47112 200.55527999999998,189.3588 200.02175999999997,189.3588 199.43207999999998C189.3588 196.37135999999998,192.78456 192.97367999999997,196.71576 192.77711999999997">
</path>
</g>
</g>
<g class="vf-modifiers">
</g>
</g>
<g class="vf-stavenote" id="vf-auto9528">
<g class="vf-note" pointer-events="bounding-box">
<g class="vf-notehead" pointer-events="bounding-box">
<path stroke-width="0.3" fill="#000000" stroke="none" stroke-dasharray="none" d="M223.299 197.99999999999997M230.65596 192.77711999999997C230.76828 192.77711999999997,230.93676 192.77711999999997,230.96484 192.77711999999997C230.96484 192.77711999999997,230.99292 192.77711999999997,230.99292 192.77711999999997C230.99292 192.77711999999997,231.16140000000001 192.77711999999997,231.30180000000001 192.77711999999997C233.829 192.91751999999997,235.31724 194.57423999999997,235.31724 196.65215999999998C235.31724 197.66303999999997,234.98028 198.81431999999998,234.13788 199.90943999999996C232.53732 202.07159999999996,229.92588 203.25095999999996,227.6514 203.25095999999996C225.88236 203.25095999999996,224.36604 202.54895999999997,223.63596 201.11687999999998C223.41132000000002 200.55527999999998,223.299 200.02175999999997,223.299 199.43207999999998C223.299 196.37135999999998,226.72476 192.97367999999997,230.65596 192.77711999999997">
</path>
</g>
</g>
<g class="vf-modifiers">
</g>
</g>
<g class="vf-stavenote" id="vf-auto9538">
<g class="vf-note" pointer-events="bounding-box">
<g class="vf-notehead" pointer-events="bounding-box">
<path stroke-width="0.3" fill="#000000" stroke="none" stroke-dasharray="none" d="M257.2392 197.99999999999997M264.59616 192.77711999999997C264.70848 192.77711999999997,264.87696 192.77711999999997,264.90504 192.77711999999997C264.90504 192.77711999999997,264.93312 192.77711999999997,264.93312 192.77711999999997C264.93312 192.77711999999997,265.10159999999996 192.77711999999997,265.24199999999996 192.77711999999997C267.76919999999996 192.91751999999997,269.25744 194.57423999999997,269.25744 196.65215999999998C269.25744 197.66303999999997,268.92048 198.81431999999998,268.07808 199.90943999999996C266.47751999999997 202.07159999999996,263.86608 203.25095999999996,261.59159999999997 203.25095999999996C259.82256 203.25095999999996,258.30624 202.54895999999997,257.57615999999996 201.11687999999998C257.35152 200.55527999999998,257.2392 200.02175999999997,257.2392 199.43207999999998C257.2392 196.37135999999998,260.66496 192.97367999999997,264.59616 192.77711999999997">
</path>
</g>
</g>
<g class="vf-modifiers">
</g>
</g>
<g class="vf-stavenote" id="vf-auto9548">
<g class="vf-note" pointer-events="bounding-box">
<g class="vf-notehead" pointer-events="bounding-box">
<path stroke-width="0.3" fill="#000000" stroke="none" stroke-dasharray="none" d="M291.1794 197.99999999999997M298.53636 192.77711999999997C298.64868 192.77711999999997,298.81716 192.77711999999997,298.84524 192.77711999999997C298.84524 192.77711999999997,298.87332 192.77711999999997,298.87332 192.77711999999997C298.87332 192.77711999999997,299.04179999999997 192.77711999999997,299.18219999999997 192.77711999999997C301.70939999999996 192.91751999999997,303.19764 194.57423999999997,303.19764 196.65215999999998C303.19764 197.66303999999997,302.86068 198.81431999999998,302.01828 199.90943999999996C300.41772 202.07159999999996,297.80628 203.25095999999996,295.5318 203.25095999999996C293.76276 203.25095999999996,292.24644 202.54895999999997,291.51635999999996 201.11687999999998C291.29172 200.55527999999998,291.1794 200.02175999999997,291.1794 199.43207999999998C291.1794 196.37135999999998,294.60516 192.97367999999997,298.53636 192.77711999999997">
</path>
</g>
</g>
<g class="vf-modifiers">
</g>
</g>
<g class="vf-stavenote" id="vf-auto9558">
<g class="vf-note" pointer-events="bounding-box">
<g class="vf-notehead" pointer-events="bounding-box">
<path stroke-width="0.3" fill="#000000" stroke="none" stroke-dasharray="none" d="M325.1196 197.99999999999997M332.47656 192.77711999999997C332.58888 192.77711999999997,332.75736 192.77711999999997,332.78544 192.77711999999997C332.78544 192.77711999999997,332.81352 192.77711999999997,332.81352 192.77711999999997C332.81352 192.77711999999997,332.98199999999997 192.77711999999997,333.12239999999997 192.77711999999997C335.64959999999996 192.91751999999997,337.13784 194.57423999999997,337.13784 196.65215999999998C337.13784 197.66303999999997,336.80088 198.81431999999998,335.95848 199.90943999999996C334.35792 202.07159999999996,331.74648 203.25095999999996,329.472 203.25095999999996C327.70296 203.25095999999996,326.18664 202.54895999999997,325.45655999999997 201.11687999999998C325.23192 200.55527999999998,325.1196 200.02175999999997,325.1196 199.43207999999998C325.1196 196.37135999999998,328.54536 192.97367999999997,332.47656 192.77711999999997">
</path>
</g>
</g>
<g class="vf-modifiers">
</g>
</g>
<g class="vf-stavenote" id="vf-auto9568">
<g class="vf-note" pointer-events="bounding-box">
<g class="vf-notehead" pointer-events="bounding-box">
<path stroke-width="0.3" fill="#000000" stroke="none" stroke-dasharray="none" d="M359.0598 197.99999999999997M366.41676 192.77711999999997C366.52908 192.77711999999997,366.69756 192.77711999999997,366.72564 192.77711999999997C366.72564 192.77711999999997,366.75372 192.77711999999997,366.75372 192.77711999999997C366.75372 192.77711999999997,366.9222 192.77711999999997,367.0626 192.77711999999997C369.58979999999997 192.91751999999997,371.07804 194.57423999999997,371.07804 196.65215999999998C371.07804 197.66303999999997,370.74108 198.81431999999998,369.89868 199.90943999999996C368.29812 202.07159999999996,365.68668 203.25095999999996,363.4122 203.25095999999996C361.64316 203.25095999999996,360.12684 202.54895999999997,359.39676 201.11687999999998C359.17212 200.55527999999998,359.0598 200.02175999999997,359.0598 199.43207999999998C359.0598 196.37135999999998,362.48556 192.97367999999997,366.41676 192.77711999999997">
</path>
</g>
</g>
<g class="vf-modifiers">
</g>
</g>
<path stroke-width="1.5" fill="none" stroke="#000000" stroke-dasharray="none" d="M132.74663999999999 197.99999999999997L132.74663999999999 163.74999999999997">
</path>
<path stroke-width="1.5" fill="none" stroke="#000000" stroke-dasharray="none" d="M166.68684 197.99999999999997L166.68684 163.74999999999997">
</path>
<path stroke-width="1.5" fill="none" stroke="#000000" stroke-dasharray="none" d="M200.62704 197.99999999999997L200.62704 163.74999999999997">
</path>
<path stroke-width="1.5" fill="none" stroke="#000000" stroke-dasharray="none" d="M234.56724 197.99999999999997L234.56724 163.74999999999997">
</path>
<path stroke-width="0.3" fill="#000000" stroke="none" stroke-dasharray="none" d="M131.99663999999999 162.99999999999997L131.99663999999999 167.99999999999997L234.81724 167.99999999999997L234.81724 162.99999999999997Z">
</path>
<path stroke-width="1.5" fill="none" stroke="#000000" stroke-dasharray="none" d="M268.50744 197.99999999999997L268.50744 163.74999999999997">
</path>
<path stroke-width="1.5" fill="none" stroke="#000000" stroke-dasharray="none" d="M302.44764 197.99999999999997L302.44764 163.74999999999997">
</path>
<path stroke-width="1.5" fill="none" stroke="#000000" stroke-dasharray="none" d="M336.38784 197.99999999999997L336.38784 163.74999999999997">
</path>
<path stroke-width="1.5" fill="none" stroke="#000000" stroke-dasharray="none" d="M370.32804 197.99999999999997L370.32804 163.74999999999997">
</path>
<path stroke-width="0.3" fill="#000000" stroke="none" stroke-dasharray="none" d="M267.75744 162.99999999999997L267.75744 167.99999999999997L370.57804 167.99999999999997L370.57804 162.99999999999997Z">
</path>
<path stroke-width="1" fill="none" stroke="black" stroke-dasharray="none" d="M391.1120447999999 197.99999999999997L885.9255175679999 197.99999999999997">
</path>
<rect stroke-width="0.3" fill="black" stroke="black" stroke-dasharray="none" x="880.9255175679999" y="177.49999999999997" width="1" height="41">
</rect>
<rect stroke-width="0.3" fill="black" stroke="black" stroke-dasharray="none" x="883.9255175679999" y="177.49999999999997" width="3" height="41">
</rect>
<path stroke-width="0.3" fill="black" stroke="none" stroke-dasharray="none" d="M879.9255175679999 193.49999999999997 A2 2 0 0 0 875.9255175679999 193.49999999999997M875.9255175679999 193.49999999999997 A2 2 0 0 0 879.9255175679999 193.49999999999997">
</path>
<path stroke-width="0.3" fill="black" stroke="none" stroke-dasharray="none" d="M879.9255175679999 203.49999999999997 A2 2 0 0 0 875.9255175679999 203.49999999999997M875.9255175679999 203.49999999999997 A2 2 0 0 0 879.9255175679999 203.49999999999997">
</path>
<g class="vf-stavenote" id="vf-auto9581">
<g class="vf-note" pointer-events="bounding-box">
<g class="vf-notehead" pointer-events="bounding-box">
<path stroke-width="0.3" fill="#000000" stroke="none" stroke-dasharray="none" d="M433.97612159999994 197.99999999999997M441.33308159999996 192.77711999999997C441.44540159999997 192.77711999999997,441.61388159999996 192.77711999999997,441.64196159999995 192.77711999999997C441.64196159999995 192.77711999999997,441.67004159999993 192.77711999999997,441.67004159999993 192.77711999999997C441.67004159999993 192.77711999999997,441.8385215999999 192.77711999999997,441.9789215999999 192.77711999999997C444.5061215999999 192.91751999999997,445.99436159999993 194.57423999999997,445.99436159999993 196.65215999999998C445.99436159999993 197.66303999999997,445.65740159999996 198.81431999999998,444.81500159999996 199.90943999999996C443.21444159999993 202.07159999999996,440.60300159999997 203.25095999999996,438.32852159999993 203.25095999999996C436.55948159999997 203.25095999999996,435.04316159999996 202.54895999999997,434.3130815999999 201.11687999999998C434.08844159999995 200.55527999999998,433.97612159999994 200.02175999999997,433.97612159999994 199.43207999999998C433.97612159999994 196.37135999999998,437.40188159999997 192.97367999999997,441.33308159999996 192.77711999999997">
</path>
</g>
</g>
<g class="vf-modifiers">
<g class="vf-stavenote" id="vf-auto9591">
<g class="vf-note" pointer-events="bounding-box">
<g class="vf-stem" pointer-events="bounding-box">
<path stroke-width="1.5" fill="none" stroke="#000000" stroke-dasharray="none" d="M415.29408319999993 197.99999999999997L415.29408319999993 174.89999999999998">
</path>
</g>
<g class="vf-notehead" pointer-events="bounding-box">
<path stroke-width="0.3" fill="#000000" stroke="none" stroke-dasharray="none" d="M408.1120447999999 197.99999999999997M412.96763839999994 194.55289919999998C413.0417695999999 194.55289919999998,413.1529663999999 194.55289919999998,413.1714991999999 194.55289919999998C413.1714991999999 194.55289919999998,413.1900319999999 194.55289919999998,413.1900319999999 194.55289919999998C413.1900319999999 194.55289919999998,413.30122879999993 194.55289919999998,413.39389279999995 194.55289919999998C415.0618447999999 194.64556319999997,416.04408319999993 195.73899839999996,416.04408319999993 197.11042559999999C416.04408319999993 197.77760639999997,415.8216895999999 198.53745119999996,415.26570559999993 199.26023039999998C414.2093359999999 200.68725599999996,412.48578559999993 201.46563359999996,410.98462879999994 201.46563359999996C409.81706239999994 201.46563359999996,408.8162911999999 201.00231359999998,408.3344383999999 200.05714079999998C408.18617599999993 199.68648479999996,408.1120447999999 199.33436159999997,408.1120447999999 198.94517279999997C408.1120447999999 196.92509759999996,410.3730463999999 194.68262879999997,412.96763839999994 194.55289919999998">
</path>
</g>
<g class="vf-flag" pointer-events="bounding-box">
<path stroke-width="0.3" fill="#000000" stroke="none" stroke-dasharray="none" d="M415.29408319999993 172.89999999999998M414.8492959999999 175.88378079999998L414.8492959999999 172.992664L414.92342719999994 172.992664C415.1272879999999 172.992664,415.2570175999999 173.12239359999998,415.29408319999993 173.34478719999998C415.68327199999993 175.19806719999997,416.85083839999993 177.21814239999998,418.46319199999994 178.73783199999997C420.2608735999999 180.42431679999999,421.16898079999993 182.74091679999998,421.16898079999993 185.13164799999998C421.16898079999993 187.39264959999997,420.3720703999999 189.74631519999997,418.7597167999999 191.69225919999997C418.48172479999994 192.06291519999996,418.46319199999994 192.06291519999996,418.2778639999999 192.06291519999996C418.05547039999993 192.06291519999996,417.9072079999999 191.89611999999997,417.9072079999999 191.67372639999996C417.9072079999999 191.50693119999997,417.9257407999999 191.4698656,418.11106879999994 191.2660048C419.5195615999999 189.56098719999997,420.2238079999999 187.5038464,420.2238079999999 185.5393696C420.2238079999999 183.7972864,419.66782399999994 182.12933439999998,418.51879039999994 180.86910399999996C417.81454399999996 180.09072639999997,416.51724799999994 179.34941439999997,414.8678287999999 178.77489759999997C414.8678287999999 178.75636479999997,414.8492959999999 178.18184799999997,414.8492959999999 175.88378079999998">
</path>
</g>
</g>
<g class="vf-modifiers">
</g>
</g>
<path stroke-width="1" fill="none" stroke="#000000" stroke-dasharray="none" d="M409.1120447999999 189.74999999999997L422.1120447999999 180.74999999999997Z">
</path>
</g>
</g>
<g class="vf-stavenote" id="vf-auto9605">
<g class="vf-note" pointer-events="bounding-box">
<g class="vf-notehead" pointer-events="bounding-box">
<path stroke-width="0.3" fill="#000000" stroke="none" stroke-dasharray="none" d="M471.90996319999994 197.99999999999997M479.26692319999995 192.77711999999997C479.37924319999996 192.77711999999997,479.54772319999995 192.77711999999997,479.57580319999994 192.77711999999997C479.57580319999994 192.77711999999997,479.6038831999999 192.77711999999997,479.6038831999999 192.77711999999997C479.6038831999999 192.77711999999997,479.7723631999999 192.77711999999997,479.9127631999999 192.77711999999997C482.43996319999997 192.91751999999997,483.9282031999999 194.57423999999997,483.9282031999999 196.65215999999998C483.9282031999999 197.66303999999997,483.59124319999995 198.81431999999998,482.74884319999995 199.90943999999996C481.1482831999999 202.07159999999996,478.5368431999999 203.25095999999996,476.2623631999999 203.25095999999996C474.49332319999996 203.25095999999996,472.97700319999996 202.54895999999997,472.2469231999999 201.11687999999998C472.02228319999995 200.55527999999998,471.90996319999994 200.02175999999997,471.90996319999994 199.43207999999998C471.90996319999994 196.37135999999998,475.33572319999996 192.97367999999997,479.26692319999995 192.77711999999997">
</path>
</g>
</g>
<g class="vf-modifiers">
</g>
</g>
<g class="vf-stavenote" id="vf-auto9615">
<g class="vf-note" pointer-events="bounding-box">
<g class="vf-notehead" pointer-events="bounding-box">
<path stroke-width="0.3" fill="#000000" stroke="none" stroke-dasharray="none" d="M499.88600399999996 197.99999999999997M507.242964 192.77711999999997C507.355284 192.77711999999997,507.52376399999997 192.77711999999997,507.55184399999996 192.77711999999997C507.55184399999996 192.77711999999997,507.57992399999995 192.77711999999997,507.57992399999995 192.77711999999997C507.57992399999995 192.77711999999997,507.74840399999994 192.77711999999997,507.88880399999994 192.77711999999997C510.41600399999993 192.91751999999997,511.90424399999995 194.57423999999997,511.90424399999995 196.65215999999998C511.90424399999995 197.66303999999997,511.567284 198.81431999999998,510.724884 199.90943999999996C509.12432399999994 202.07159999999996,506.512884 203.25095999999996,504.23840399999995 203.25095999999996C502.469364 203.25095999999996,500.953044 202.54895999999997,500.22296399999993 201.11687999999998C499.99832399999997 200.55527999999998,499.88600399999996 200.02175999999997,499.88600399999996 199.43207999999998C499.88600399999996 196.37135999999998,503.311764 192.97367999999997,507.242964 192.77711999999997">
</path>
</g>
</g>
<g class="vf-modifiers">
</g>
</g>
<g class="vf-stavenote" id="vf-auto9625">
<g class="vf-note" pointer-events="bounding-box">
<g class="vf-notehead" pointer-events="bounding-box">
<path stroke-width="0.3" fill="#000000" stroke="none" stroke-dasharray="none" d="M553.7261215999999 197.99999999999997M561.0830815999999 192.77711999999997C561.1954016 192.77711999999997,561.3638815999999 192.77711999999997,561.3919616 192.77711999999997C561.3919616 192.77711999999997,561.4200416 192.77711999999997,561.4200416 192.77711999999997C561.4200416 192.77711999999997,561.5885215999999 192.77711999999997,561.7289215999999 192.77711999999997C564.2561215999999 192.91751999999997,565.7443615999999 194.57423999999997,565.7443615999999 196.65215999999998C565.7443615999999 197.66303999999997,565.4074016 198.81431999999998,564.5650016 199.90943999999996C562.9644416 202.07159999999996,560.3530016 203.25095999999996,558.0785215999999 203.25095999999996C556.3094815999999 203.25095999999996,554.7931616 202.54895999999997,554.0630815999999 201.11687999999998C553.8384415999999 200.55527999999998,553.7261215999999 200.02175999999997,553.7261215999999 199.43207999999998C553.7261215999999 196.37135999999998,557.1518815999999 192.97367999999997,561.0830815999999 192.77711999999997">
</path>
</g>
</g>
<g class="vf-modifiers">
<g class="vf-stavenote" id="vf-auto9635">
<g class="vf-note" pointer-events="bounding-box">
<g class="vf-stem" pointer-events="bounding-box">
<path stroke-width="1.5" fill="none" stroke="#000000" stroke-dasharray="none" d="M535.0440831999999 197.99999999999997L535.0440831999999 174.89999999999998">
</path>
</g>
<g class="vf-notehead" pointer-events="bounding-box">
<path stroke-width="0.3" fill="#000000" stroke="none" stroke-dasharray="none" d="M527.8620447999999 197.99999999999997M532.7176383999999 194.55289919999998C532.7917696 194.55289919999998,532.9029664 194.55289919999998,532.9214992 194.55289919999998C532.9214992 194.55289919999998,532.940032 194.55289919999998,532.940032 194.55289919999998C532.940032 194.55289919999998,533.0512287999999 194.55289919999998,533.1438927999999 194.55289919999998C534.8118447999999 194.64556319999997,535.7940831999999 195.73899839999996,535.7940831999999 197.11042559999999C535.7940831999999 197.77760639999997,535.5716895999999 198.53745119999996,535.0157055999999 199.26023039999998C533.9593359999999 200.68725599999996,532.2357855999999 201.46563359999996,530.7346287999999 201.46563359999996C529.5670623999999 201.46563359999996,528.5662911999999 201.00231359999998,528.0844384 200.05714079999998C527.9361759999999 199.68648479999996,527.8620447999999 199.33436159999997,527.8620447999999 198.94517279999997C527.8620447999999 196.92509759999996,530.1230463999999 194.68262879999997,532.7176383999999 194.55289919999998">
</path>
</g>
<g class="vf-flag" pointer-events="bounding-box">
<path stroke-width="0.3" fill="#000000" stroke="none" stroke-dasharray="none" d="M535.0440831999999 172.89999999999998M534.599296 175.88378079999998L534.599296 172.992664L534.6734271999999 172.992664C534.8772879999999 172.992664,535.0070175999999 173.12239359999998,535.0440831999999 173.34478719999998C535.433272 175.19806719999997,536.6008383999999 177.21814239999998,538.2131919999999 178.73783199999997C540.0108736 180.42431679999999,540.9189808 182.74091679999998,540.9189808 185.13164799999998C540.9189808 187.39264959999997,540.1220704 189.74631519999997,538.5097168 191.69225919999997C538.2317247999999 192.06291519999996,538.2131919999999 192.06291519999996,538.0278639999999 192.06291519999996C537.8054703999999 192.06291519999996,537.657208 191.89611999999997,537.657208 191.67372639999996C537.657208 191.50693119999997,537.6757408 191.4698656,537.8610687999999 191.2660048C539.2695616 189.56098719999997,539.973808 187.5038464,539.973808 185.5393696C539.973808 183.7972864,539.4178239999999 182.12933439999998,538.2687904 180.86910399999996C537.564544 180.09072639999997,536.2672479999999 179.34941439999997,534.6178288 178.77489759999997C534.6178288 178.75636479999997,534.599296 178.18184799999997,534.599296 175.88378079999998">
</path>
</g>
</g>
<g class="vf-modifiers">
</g>
</g>
<path stroke-width="1" fill="none" stroke="#000000" stroke-dasharray="none" d="M528.8620447999999 189.74999999999997L541.8620447999999 180.74999999999997Z">
</path>
</g>
</g>
<g class="vf-stavenote" id="vf-auto9649">
<g class="vf-note" pointer-events="bounding-box">
<g class="vf-notehead" pointer-events="bounding-box">
<path stroke-width="0.3" fill="#000000" stroke="none" stroke-dasharray="none" d="M591.6599632 197.99999999999997M599.0169232 192.77711999999997C599.1292432 192.77711999999997,599.2977232 192.77711999999997,599.3258032 192.77711999999997C599.3258032 192.77711999999997,599.3538832 192.77711999999997,599.3538832 192.77711999999997C599.3538832 192.77711999999997,599.5223632 192.77711999999997,599.6627632 192.77711999999997C602.1899632 192.91751999999997,603.6782032 194.57423999999997,603.6782032 196.65215999999998C603.6782032 197.66303999999997,603.3412432 198.81431999999998,602.4988432 199.90943999999996C600.8982832 202.07159999999996,598.2868432 203.25095999999996,596.0123632 203.25095999999996C594.2433232 203.25095999999996,592.7270032 202.54895999999997,591.9969232 201.11687999999998C591.7722832 200.55527999999998,591.6599632 200.02175999999997,591.6599632 199.43207999999998C591.6599632 196.37135999999998,595.0857232 192.97367999999997,599.0169232 192.77711999999997">
</path>
</g>
</g>
<g class="vf-modifiers">
</g>
</g>
<g class="vf-stavenote" id="vf-auto9659">
<g class="vf-note" pointer-events="bounding-box">
<g class="vf-notehead" pointer-events="bounding-box">
<path stroke-width="0.3" fill="#000000" stroke="none" stroke-dasharray="none" d="M619.636004 197.99999999999997M626.9929639999999 192.77711999999997C627.105284 192.77711999999997,627.2737639999999 192.77711999999997,627.301844 192.77711999999997C627.301844 192.77711999999997,627.329924 192.77711999999997,627.329924 192.77711999999997C627.329924 192.77711999999997,627.4984039999999 192.77711999999997,627.6388039999999 192.77711999999997C630.1660039999999 192.91751999999997,631.654244 194.57423999999997,631.654244 196.65215999999998C631.654244 197.66303999999997,631.317284 198.81431999999998,630.474884 199.90943999999996C628.874324 202.07159999999996,626.262884 203.25095999999996,623.988404 203.25095999999996C622.2193639999999 203.25095999999996,620.703044 202.54895999999997,619.9729639999999 201.11687999999998C619.7483239999999 200.55527999999998,619.636004 200.02175999999997,619.636004 199.43207999999998C619.636004 196.37135999999998,623.0617639999999 192.97367999999997,626.9929639999999 192.77711999999997">
</path>
</g>
</g>
<g class="vf-modifiers">
</g>
</g>
<g class="vf-stavenote" id="vf-auto9669">
<g class="vf-note" pointer-events="bounding-box">
<g class="vf-notehead" pointer-events="bounding-box">
<path stroke-width="0.3" fill="#000000" stroke="none" stroke-dasharray="none" d="M673.4761215999999 197.99999999999997M680.8330815999999 192.77711999999997C680.9454016 192.77711999999997,681.1138815999999 192.77711999999997,681.1419616 192.77711999999997C681.1419616 192.77711999999997,681.1700416 192.77711999999997,681.1700416 192.77711999999997C681.1700416 192.77711999999997,681.3385215999999 192.77711999999997,681.4789215999999 192.77711999999997C684.0061215999999 192.91751999999997,685.4943615999999 194.57423999999997,685.4943615999999 196.65215999999998C685.4943615999999 197.66303999999997,685.1574016 198.81431999999998,684.3150016 199.90943999999996C682.7144416 202.07159999999996,680.1030016 203.25095999999996,677.8285215999999 203.25095999999996C676.0594815999999 203.25095999999996,674.5431616 202.54895999999997,673.8130815999999 201.11687999999998C673.5884415999999 200.55527999999998,673.4761215999999 200.02175999999997,673.4761215999999 199.43207999999998C673.4761215999999 196.37135999999998,676.9018815999999 192.97367999999997,680.8330815999999 192.77711999999997">
</path>
</g>
</g>
<g class="vf-modifiers">
<g class="vf-stavenote" id="vf-auto9679">
<g class="vf-note" pointer-events="bounding-box">
<g class="vf-stem" pointer-events="bounding-box">
<path stroke-width="1.5" fill="none" stroke="#000000" stroke-dasharray="none" d="M654.7940831999999 197.99999999999997L654.7940831999999 174.89999999999998">
</path>
</g>
<g class="vf-notehead" pointer-events="bounding-box">
<path stroke-width="0.3" fill="#000000" stroke="none" stroke-dasharray="none" d="M647.6120447999999 197.99999999999997M652.4676383999999 194.55289919999998C652.5417696 194.55289919999998,652.6529664 194.55289919999998,652.6714992 194.55289919999998C652.6714992 194.55289919999998,652.690032 194.55289919999998,652.690032 194.55289919999998C652.690032 194.55289919999998,652.8012287999999 194.55289919999998,652.8938927999999 194.55289919999998C654.5618447999999 194.64556319999997,655.5440831999999 195.73899839999996,655.5440831999999 197.11042559999999C655.5440831999999 197.77760639999997,655.3216895999999 198.53745119999996,654.7657055999999 199.26023039999998C653.7093359999999 200.68725599999996,651.9857855999999 201.46563359999996,650.4846287999999 201.46563359999996C649.3170623999999 201.46563359999996,648.3162911999999 201.00231359999998,647.8344384 200.05714079999998C647.6861759999999 199.68648479999996,647.6120447999999 199.33436159999997,647.6120447999999 198.94517279999997C647.6120447999999 196.92509759999996,649.8730463999999 194.68262879999997,652.4676383999999 194.55289919999998">
</path>
</g>
<g class="vf-flag" pointer-events="bounding-box">
<path stroke-width="0.3" fill="#000000" stroke="none" stroke-dasharray="none" d="M654.7940831999999 172.89999999999998M654.349296 175.88378079999998L654.349296 172.992664L654.4234271999999 172.992664C654.6272879999999 172.992664,654.7570175999999 173.12239359999998,654.7940831999999 173.34478719999998C655.183272 175.19806719999997,656.3508383999999 177.21814239999998,657.9631919999999 178.73783199999997C659.7608736 180.42431679999999,660.6689808 182.74091679999998,660.6689808 185.13164799999998C660.6689808 187.39264959999997,659.8720704 189.74631519999997,658.2597168 191.69225919999997C657.9817247999999 192.06291519999996,657.9631919999999 192.06291519999996,657.7778639999999 192.06291519999996C657.5554703999999 192.06291519999996,657.407208 191.89611999999997,657.407208 191.67372639999996C657.407208 191.50693119999997,657.4257408 191.4698656,657.6110687999999 191.2660048C659.0195616 189.56098719999997,659.723808 187.5038464,659.723808 185.5393696C659.723808 183.7972864,659.1678239999999 182.12933439999998,658.0187904 180.86910399999996C657.314544 180.09072639999997,656.0172479999999 179.34941439999997,654.3678288 178.77489759999997C654.3678288 178.75636479999997,654.349296 178.18184799999997,654.349296 175.88378079999998">
</path>
</g>
</g>
<g class="vf-modifiers">
</g>
</g>
<path stroke-width="1" fill="none" stroke="#000000" stroke-dasharray="none" d="M648.6120447999999 189.74999999999997L661.6120447999999 180.74999999999997Z">
</path>
</g>
</g>
<g class="vf-stavenote" id="vf-auto9693">
<g class="vf-note" pointer-events="bounding-box">
<g class="vf-notehead" pointer-events="bounding-box">
<path stroke-width="0.3" fill="#000000" stroke="none" stroke-dasharray="none" d="M711.4099631999999 197.99999999999997M718.7669231999998 192.77711999999997C718.8792431999999 192.77711999999997,719.0477231999998 192.77711999999997,719.0758031999999 192.77711999999997C719.0758031999999 192.77711999999997,719.1038831999999 192.77711999999997,719.1038831999999 192.77711999999997C719.1038831999999 192.77711999999997,719.2723631999999 192.77711999999997,719.4127631999999 192.77711999999997C721.9399631999999 192.91751999999997,723.4282031999999 194.57423999999997,723.4282031999999 196.65215999999998C723.4282031999999 197.66303999999997,723.0912431999999 198.81431999999998,722.2488431999999 199.90943999999996C720.6482831999999 202.07159999999996,718.0368431999999 203.25095999999996,715.7623631999999 203.25095999999996C713.9933231999998 203.25095999999996,712.4770031999999 202.54895999999997,711.7469231999999 201.11687999999998C711.5222831999998 200.55527999999998,711.4099631999999 200.02175999999997,711.4099631999999 199.43207999999998C711.4099631999999 196.37135999999998,714.8357231999998 192.97367999999997,718.7669231999998 192.77711999999997">
</path>
</g>
</g>
<g class="vf-modifiers">
</g>
</g>
<g class="vf-stavenote" id="vf-auto9703">
<g class="vf-note" pointer-events="bounding-box">
<g class="vf-notehead" pointer-events="bounding-box">
<path stroke-width="0.3" fill="#000000" stroke="none" stroke-dasharray="none" d="M739.386004 197.99999999999997M746.7429639999999 192.77711999999997C746.855284 192.77711999999997,747.0237639999999 192.77711999999997,747.051844 192.77711999999997C747.051844 192.77711999999997,747.079924 192.77711999999997,747.079924 192.77711999999997C747.079924 192.77711999999997,747.2484039999999 192.77711999999997,747.3888039999999 192.77711999999997C749.9160039999999 192.91751999999997,751.404244 194.57423999999997,751.404244 196.65215999999998C751.404244 197.66303999999997,751.067284 198.81431999999998,750.224884 199.90943999999996C748.624324 202.07159999999996,746.012884 203.25095999999996,743.738404 203.25095999999996C741.9693639999999 203.25095999999996,740.453044 202.54895999999997,739.7229639999999 201.11687999999998C739.4983239999999 200.55527999999998,739.386004 200.02175999999997,739.386004 199.43207999999998C739.386004 196.37135999999998,742.8117639999999 192.97367999999997,746.7429639999999 192.77711999999997">
</path>
</g>
</g>
<g class="vf-modifiers">
</g>
</g>
<g class="vf-stavenote" id="vf-auto9713">
<g class="vf-note" pointer-events="bounding-box">
<g class="vf-notehead" pointer-events="bounding-box">
<path stroke-width="0.3" fill="#000000" stroke="none" stroke-dasharray="none" d="M793.2261215999999 197.99999999999997M800.5830815999999 192.77711999999997C800.6954016 192.77711999999997,800.8638815999999 192.77711999999997,800.8919616 192.77711999999997C800.8919616 192.77711999999997,800.9200416 192.77711999999997,800.9200416 192.77711999999997C800.9200416 192.77711999999997,801.0885215999999 192.77711999999997,801.2289215999999 192.77711999999997C803.7561215999999 192.91751999999997,805.2443615999999 194.57423999999997,805.2443615999999 196.65215999999998C805.2443615999999 197.66303999999997,804.9074016 198.81431999999998,804.0650016 199.90943999999996C802.4644416 202.07159999999996,799.8530016 203.25095999999996,797.5785215999999 203.25095999999996C795.8094815999999 203.25095999999996,794.2931616 202.54895999999997,793.5630815999999 201.11687999999998C793.3384415999999 200.55527999999998,793.2261215999999 200.02175999999997,793.2261215999999 199.43207999999998C793.2261215999999 196.37135999999998,796.6518815999999 192.97367999999997,800.5830815999999 192.77711999999997">
</path>
</g>
</g>
<g class="vf-modifiers">
<g class="vf-stavenote" id="vf-auto9723">
<g class="vf-note" pointer-events="bounding-box">
<g class="vf-stem" pointer-events="bounding-box">
<path stroke-width="1.5" fill="none" stroke="#000000" stroke-dasharray="none" d="M774.5440831999999 197.99999999999997L774.5440831999999 174.89999999999998">
</path>
</g>
<g class="vf-notehead" pointer-events="bounding-box">
<path stroke-width="0.3" fill="#000000" stroke="none" stroke-dasharray="none" d="M767.3620447999999 197.99999999999997M772.2176383999999 194.55289919999998C772.2917696 194.55289919999998,772.4029664 194.55289919999998,772.4214992 194.55289919999998C772.4214992 194.55289919999998,772.440032 194.55289919999998,772.440032 194.55289919999998C772.440032 194.55289919999998,772.5512287999999 194.55289919999998,772.6438927999999 194.55289919999998C774.3118447999999 194.64556319999997,775.2940831999999 195.73899839999996,775.2940831999999 197.11042559999999C775.2940831999999 197.77760639999997,775.0716895999999 198.53745119999996,774.5157055999999 199.26023039999998C773.4593359999999 200.68725599999996,771.7357855999999 201.46563359999996,770.2346287999999 201.46563359999996C769.0670623999999 201.46563359999996,768.0662911999999 201.00231359999998,767.5844384 200.05714079999998C767.4361759999999 199.68648479999996,767.3620447999999 199.33436159999997,767.3620447999999 198.94517279999997C767.3620447999999 196.92509759999996,769.6230463999999 194.68262879999997,772.2176383999999 194.55289919999998">
</path>
</g>
<g class="vf-flag" pointer-events="bounding-box">
<path stroke-width="0.3" fill="#000000" stroke="none" stroke-dasharray="none" d="M774.5440831999999 172.89999999999998M774.099296 175.88378079999998L774.099296 172.992664L774.1734271999999 172.992664C774.3772879999999 172.992664,774.5070175999999 173.12239359999998,774.5440831999999 173.34478719999998C774.933272 175.19806719999997,776.1008383999999 177.21814239999998,777.7131919999999 178.73783199999997C779.5108736 180.42431679999999,780.4189808 182.74091679999998,780.4189808 185.13164799999998C780.4189808 187.39264959999997,779.6220704 189.74631519999997,778.0097168 191.69225919999997C777.7317247999999 192.06291519999996,777.7131919999999 192.06291519999996,777.5278639999999 192.06291519999996C777.3054703999999 192.06291519999996,777.157208 191.89611999999997,777.157208 191.67372639999996C777.157208 191.50693119999997,777.1757408 191.4698656,777.3610687999999 191.2660048C778.7695616 189.56098719999997,779.473808 187.5038464,779.473808 185.5393696C779.473808 183.7972864,778.9178239999999 182.12933439999998,777.7687904 180.86910399999996C777.064544 180.09072639999997,775.7672479999999 179.34941439999997,774.1178288 178.77489759999997C774.1178288 178.75636479999997,774.099296 178.18184799999997,774.099296 175.88378079999998">
</path>
</g>
</g>
<g class="vf-modifiers">
</g>
</g>
<path stroke-width="1" fill="none" stroke="#000000" stroke-dasharray="none" d="M768.3620447999999 189.74999999999997L781.3620447999999 180.74999999999997Z">
</path>
</g>
</g>
<g class="vf-stavenote" id="vf-auto9737">
<g class="vf-note" pointer-events="bounding-box">
<g class="vf-notehead" pointer-events="bounding-box">
<path stroke-width="0.3" fill="#000000" stroke="none" stroke-dasharray="none" d="M831.1599631999999 197.99999999999997M838.5169231999998 192.77711999999997C838.6292431999999 192.77711999999997,838.7977231999998 192.77711999999997,838.8258031999999 192.77711999999997C838.8258031999999 192.77711999999997,838.8538831999999 192.77711999999997,838.8538831999999 192.77711999999997C838.8538831999999 192.77711999999997,839.0223631999999 192.77711999999997,839.1627631999999 192.77711999999997C841.6899631999999 192.91751999999997,843.1782031999999 194.57423999999997,843.1782031999999 196.65215999999998C843.1782031999999 197.66303999999997,842.8412431999999 198.81431999999998,841.9988431999999 199.90943999999996C840.3982831999999 202.07159999999996,837.7868431999999 203.25095999999996,835.5123631999999 203.25095999999996C833.7433231999998 203.25095999999996,832.2270031999999 202.54895999999997,831.4969231999999 201.11687999999998C831.2722831999998 200.55527999999998,831.1599631999999 200.02175999999997,831.1599631999999 199.43207999999998C831.1599631999999 196.37135999999998,834.5857231999998 192.97367999999997,838.5169231999998 192.77711999999997">
</path>
</g>
</g>
<g class="vf-modifiers">
</g>
</g>
<g class="vf-stavenote" id="vf-auto9747">
<g class="vf-note" pointer-events="bounding-box">
<g class="vf-notehead" pointer-events="bounding-box">
<path stroke-width="0.3" fill="#000000" stroke="none" stroke-dasharray="none" d="M859.136004 197.99999999999997M866.4929639999999 192.77711999999997C866.605284 192.77711999999997,866.7737639999999 192.77711999999997,866.801844 192.77711999999997C866.801844 192.77711999999997,866.829924 192.77711999999997,866.829924 192.77711999999997C866.829924 192.77711999999997,866.9984039999999 192.77711999999997,867.1388039999999 192.77711999999997C869.6660039999999 192.91751999999997,871.154244 194.57423999999997,871.154244 196.65215999999998C871.154244 197.66303999999997,870.817284 198.81431999999998,869.974884 199.90943999999996C868.374324 202.07159999999996,865.762884 203.25095999999996,863.488404 203.25095999999996C861.7193639999999 203.25095999999996,860.203044 202.54895999999997,859.4729639999999 201.11687999999998C859.2483239999999 200.55527999999998,859.136004 200.02175999999997,859.136004 199.43207999999998C859.136004 196.37135999999998,862.5617639999999 192.97367999999997,866.4929639999999 192.77711999999997">
</path>
</g>
</g>
<g class="vf-modifiers">
</g>
</g>
<path stroke-width="1.5" fill="none" stroke="#000000" stroke-dasharray="none" d="M445.24436159999993 197.99999999999997L445.24436159999993 163.74999999999997">
</path>
<path stroke-width="1.5" fill="none" stroke="#000000" stroke-dasharray="none" d="M483.1782031999999 197.99999999999997L483.1782031999999 163.74999999999997">
</path>
<path stroke-width="1.5" fill="none" stroke="#000000" stroke-dasharray="none" d="M511.15424399999995 197.99999999999997L511.15424399999995 163.74999999999997">
</path>
<path stroke-width="0.3" fill="#000000" stroke="none" stroke-dasharray="none" d="M444.49436159999993 162.99999999999997L444.49436159999993 167.99999999999997L511.40424399999995 167.99999999999997L511.40424399999995 162.99999999999997Z">
</path>
<path stroke-width="0.3" fill="#000000" stroke="none" stroke-dasharray="none" d="M482.4282031999999 170.49999999999997L482.4282031999999 175.49999999999997L511.40424399999995 175.49999999999997L511.40424399999995 170.49999999999997Z">
</path>
<path stroke-width="1.5" fill="none" stroke="#000000" stroke-dasharray="none" d="M564.9943615999999 197.99999999999997L564.9943615999999 163.74999999999997">
</path>
<path stroke-width="1.5" fill="none" stroke="#000000" stroke-dasharray="none" d="M602.9282032 197.99999999999997L602.9282032 163.74999999999997">
</path>
<path stroke-width="1.5" fill="none" stroke="#000000" stroke-dasharray="none" d="M630.904244 197.99999999999997L630.904244 163.74999999999997">
</path>
<path stroke-width="0.3" fill="#000000" stroke="none" stroke-dasharray="none" d="M564.2443615999999 162.99999999999997L564.2443615999999 167.99999999999997L631.154244 167.99999999999997L631.154244 162.99999999999997Z">
</path>
<path stroke-width="0.3" fill="#000000" stroke="none" stroke-dasharray="none" d="M602.1782032 170.49999999999997L602.1782032 175.49999999999997L631.154244 175.49999999999997L631.154244 170.49999999999997Z">
</path>
<path stroke-width="1.5" fill="none" stroke="#000000" stroke-dasharray="none" d="M684.7443615999999 197.99999999999997L684.7443615999999 163.74999999999997">
</path>
<path stroke-width="1.5" fill="none" stroke="#000000" stroke-dasharray="none" d="M722.6782031999999 197.99999999999997L722.6782031999999 163.74999999999997">
</path>
<path stroke-width="1.5" fill="none" stroke="#000000" stroke-dasharray="none" d="M750.654244 197.99999999999997L750.654244 163.74999999999997">
</path>
<path stroke-width="0.3" fill="#000000" stroke="none" stroke-dasharray="none" d="M683.9943615999999 162.99999999999997L683.9943615999999 167.99999999999997L750.904244 167.99999999999997L750.904244 162.99999999999997Z">
</path>
<path stroke-width="0.3" fill="#000000" stroke="none" stroke-dasharray="none" d="M721.9282031999999 170.49999999999997L721.9282031999999 175.49999999999997L750.904244 175.49999999999997L750.904244 170.49999999999997Z">
</path>
<path stroke-width="1.5" fill="none" stroke="#000000" stroke-dasharray="none" d="M804.4943615999999 197.99999999999997L804.4943615999999 163.74999999999997">
</path>
<path stroke-width="1.5" fill="none" stroke="#000000" stroke-dasharray="none" d="M842.4282031999999 197.99999999999997L842.4282031999999 163.74999999999997">
</path>
<path stroke-width="1.5" fill="none" stroke="#000000" stroke-dasharray="none" d="M870.404244 197.99999999999997L870.404244 163.74999999999997">
</path>
<path stroke-width="0.3" fill="#000000" stroke="none" stroke-dasharray="none" d="M803.7443615999999 162.99999999999997L803.7443615999999 167.99999999999997L870.654244 167.99999999999997L870.654244 162.99999999999997Z">
</path>
<path stroke-width="0.3" fill="#000000" stroke="none" stroke-dasharray="none" d="M841.6782031999999 170.49999999999997L841.6782031999999 175.49999999999997L870.654244 175.49999999999997L870.654244 170.49999999999997Z">
</path>

</svg>