<svg width="1536" height="331.99999999999994" viewBox="0 0 1536 331.99999999999994">
<path stroke-width="1" fill="none" stroke="black" stroke-dasharray="none" d="M50 197.99999999999997L391.1120447999999 197.99999999999997">
</path>
<rect stroke-width="0.3" fill="black" stroke="black" stroke-dasharray="none" x="391.1120447999999" y="177.49999999999997" width="1" height="41">
</rect>
<path stroke-width="0.3" fill="black" stroke="none" stroke-dasharray="none" d="M55 197.99999999999997M55 197.99999999999997L55 188.00639999999999L57.1888 188.00639999999999L59.4064 188.00639999999999L59.4064 197.99999999999997L59.4064 208.02239999999998L57.1888 208.02239999999998L55 208.02239999999998L55 197.99999999999997M63.870400000000004 198.02879999999996L63.870400000000004 188.00639999999999L66.1168 188.00639999999999L68.3632 188.00639999999999L68.3632 198.02879999999996L68.3632 208.02239999999998L66.1168 208.02239999999998L63.870400000000004 208.02239999999998L63.870400000000004 198.02879999999996">
</path>
<path stroke-width="0.3" fill="black" stroke="none" stroke-dasharray="none" d="M96 197.99999999999997M101.0112 179.65439999999998C101.04 179.62559999999996,101.4432 179.62559999999996,102.6816 179.62559999999996C103.056 179.62559999999996,103.4592 179.62559999999996,103.9776 179.62559999999996L106.8864 179.62559999999996L106.9728 179.71199999999996C107.1168 179.79839999999996,107.2032 179.94239999999996,107.2032 180.05759999999998C107.2032 180.23039999999997,107.1168 180.34559999999996,107.0016 180.46079999999998C106.9728 180.54719999999998,106.7136 180.77759999999998,106.5408 181.03679999999997L105.0144 182.79359999999997L103.056 185.01119999999997L102.0192 186.19199999999998L100.464 187.97759999999997L98.4192 190.31039999999996C98.0736 190.74239999999998,97.6992 191.08799999999997,97.6992 191.08799999999997C97.6992 191.08799999999997,97.6992 191.08799999999997,97.6992 191.08799999999997C97.6992 191.14559999999997,97.9584 191.14559999999997,100.3488 191.14559999999997L102.9696 191.14559999999997L102.9696 189.27359999999996C102.9696 187.37279999999998,102.9696 187.34399999999997,102.9984 187.31519999999998C103.056 187.22879999999998,103.3152 186.91199999999998,104.3232 185.73119999999997L104.7264 185.29919999999998L105.1296 184.86719999999997L105.7344 184.08959999999996L106.368 183.42719999999997L106.6848 183.02399999999997C106.8 182.85119999999998,106.9728 182.82239999999996,107.1168 182.82239999999996C107.28960000000001 182.82239999999996,107.4336 182.90879999999999,107.52 183.05279999999996C107.5488 183.13919999999996,107.5488 183.19679999999997,107.5488 185.32799999999997C107.5488 185.81759999999997,107.5488 186.42239999999998,107.5488 187.14239999999998L107.5488 191.14559999999997L108.2688 191.14559999999997C108.9312 191.14559999999997,108.96 191.14559999999997,109.0464 191.17439999999996C109.2768 191.26079999999996,109.392 191.49119999999996,109.392 191.75039999999998C109.392 191.89439999999996,109.3632 192.06719999999999,109.248 192.18239999999997C109.0752 192.32639999999998,109.0464 192.32639999999998,108.2688 192.32639999999998L107.5488 192.32639999999998L107.5488 192.81599999999997C107.5776 194.28479999999996,107.8656 194.86079999999998,108.9888 195.46559999999997C109.392 195.66719999999998,109.4784 195.72479999999996,109.4784 196.01279999999997C109.4784 196.21439999999998,109.4208 196.30079999999998,109.2768 196.41599999999997L109.1904 196.44479999999996L105.2448 196.44479999999996L101.328 196.44479999999996L101.2416 196.41599999999997C101.0688 196.30079999999998,101.04 196.21439999999998,101.04 196.01279999999997C101.04 195.72479999999996,101.0688 195.66719999999998,101.5008 195.46559999999997C102.624 194.86079999999998,102.912 194.28479999999996,102.912 192.81599999999997L102.912 192.32639999999998L99.6 192.32639999999998C98.9952 192.38399999999996,98.5056 192.38399999999996,98.1024 192.38399999999996C96.288 192.38399999999996,96.2592 192.32639999999998,96.2304 192.32639999999998C96.0576 192.26879999999997,96 192.09599999999998,96 191.89439999999996C96 191.89439999999996,96 191.89439999999996,96 191.89439999999996C96 191.69279999999998,96 191.69279999999998,96.576 191.0304C98.9952 188.09279999999998,100.6944 183.83039999999997,100.6944 180.43199999999996C100.6944 179.91359999999997,100.7808 179.74079999999998,101.0112 179.65439999999998M102.7392 198.02879999999996L102.768 198.02879999999996L102.6816 198.02879999999996L102.7392 198.02879999999996M102.7392 178.61759999999998L102.768 178.61759999999998L102.6816 178.61759999999998L102.7392 178.61759999999998">
</path>
<path stroke-width="0.3" fill="black" stroke="none" stroke-dasharray="none" d="M96 217.99999999999997M101.0112 199.65439999999998C101.04 199.62559999999996,101.4432 199.62559999999996,102.6816 199.62559999999996C103.056 199.62559999999996,103.4592 199.62559999999996,103.9776 199.62559999999996L106.8864 199.62559999999996L106.9728 199.71199999999996C107.1168 199.79839999999996,107.2032 199.94239999999996,107.2032 200.05759999999998C107.2032 200.23039999999997,107.1168 200.34559999999996,107.0016 200.46079999999998C106.9728 200.54719999999998,106.7136 200.77759999999998,106.5408 201.03679999999997L105.0144 202.79359999999997L103.056 205.01119999999997L102.0192 206.19199999999998L100.464 207.97759999999997L98.4192 210.31039999999996C98.0736 210.74239999999998,97.6992 211.08799999999997,97.6992 211.08799999999997C97.6992 211.08799999999997,97.6992 211.08799999999997,97.6992 211.08799999999997C97.6992 211.14559999999997,97.9584 211.14559999999997,100.3488 211.14559999999997L102.9696 211.14559999999997L102.9696 209.27359999999996C102.9696 207.37279999999998,102.9696 207.34399999999997,102.9984 207.31519999999998C103.056 207.22879999999998,103.3152 206.91199999999998,104.3232 205.73119999999997L104.7264 205.29919999999998L105.1296 204.86719999999997L105.7344 204.08959999999996L106.368 203.42719999999997L106.6848 203.02399999999997C106.8 202.85119999999998,106.9728 202.82239999999996,107.1168 202.82239999999996C107.28960000000001 202.82239999999996,107.4336 202.90879999999999,107.52 203.05279999999996C107.5488 203.13919999999996,107.5488 203.19679999999997,107.5488 205.32799999999997C107.5488 205.81759999999997,107.5488 206.42239999999998,107.5488 207.14239999999998L107.5488 211.14559999999997L108.2688 211.14559999999997C108.9312 211.14559999999997,108.96 211.14559999999997,109.0464 211.17439999999996C109.2768 211.26079999999996,109.392 211.49119999999996,109.392 211.75039999999998C109.392 211.89439999999996,109.3632 212.06719999999999,109.248 212.18239999999997C109.0752 212.32639999999998,109.0464 212.32639999999998,108.2688 212.32639999999998L107.5488 212.32639999999998L107.5488 212.81599999999997C107.5776 214.28479999999996,107.8656 214.86079999999998,108.9888 215.46559999999997C109.392 215.66719999999998,109.4784 215.72479999999996,109.4784 216.01279999999997C109.4784 216.21439999999998,109.4208 216.30079999999998,109.2768 216.41599999999997L109.1904 216.44479999999996L105.2448 216.44479999999996L101.328 216.44479999999996L101.2416 216.41599999999997C101.0688 216.30079999999998,101.04 216.21439999999998,101.04 216.01279999999997C101.04 215.72479999999996,101.0688 215.66719999999998,101.5008 215.46559999999997C102.624 214.86079999999998,102.912 214.28479999999996,102.912 212.81599999999997L102.912 212.32639999999998L99.6 212.32639999999998C98.9952 212.38399999999996,98.5056 212.38399999999996,98.1024 212.38399999999996C96.288 212.38399999999996,96.2592 212.32639999999998,96.2304 212.32639999999998C96.0576 212.26879999999997,96 212.09599999999998,96 211.89439999999996C96 211.89439999999996,96 211.89439999999996,96 211.89439999999996C96 211.69279999999998,96 211.69279999999998,96.576 211.0304C98.9952 208.09279999999998,100.6944 203.83039999999997,100.6944 200.43199999999996C100.6944 199.91359999999997,100.7808 199.74079999999998,101.0112 199.65439999999998M102.7392 218.02879999999996L102.768 218.02879999999996L102.6816 218.02879999999996L102.7392 218.02879999999996M102.7392 198.61759999999998L102.768 198.61759999999998L102.6816 198.61759999999998L102.7392 198.61759999999998">
</path>
<g class="vf-stavenote" id="vf-auto10955">
<g class="vf-note" pointer-events="bounding-box">
<g class="vf-notehead" pointer-events="bounding-box">
<path stroke-width="0.3" fill="#000000" stroke="none" stroke-dasharray="none" d="M121.4784 197.99999999999997M128.83535999999998 192.77711999999997C128.94768 192.77711999999997,129.11615999999998 192.77711999999997,129.14424 192.77711999999997C129.14424 192.77711999999997,129.17231999999998 192.77711999999997,129.17231999999998 192.77711999999997C129.17231999999998 192.77711999999997,129.3408 192.77711999999997,129.4812 192.77711999999997C132.0084 192.91751999999997,133.49663999999999 194.57423999999997,133.49663999999999 196.65215999999998C133.49663999999999 197.66303999999997,133.15967999999998 198.81431999999998,132.31727999999998 199.90943999999996C130.71671999999998 202.07159999999996,128.10528 203.25095999999996,125.8308 203.25095999999996C124.06175999999999 203.25095999999996,122.54544 202.54895999999997,121.81536 201.11687999999998C121.59071999999999 200.55527999999998,121.4784 200.02175999999997,121.4784 199.43207999999998C121.4784 196.37135999999998,124.90415999999999 192.97367999999997,128.83535999999998 192.77711999999997">
</path>
</g>
</g>
<g class="vf-modifiers">
</g>
</g>
<g class="vf-stavenote" id="vf-auto10965">
<g class="vf-note" pointer-events="bounding-box">
<g class="vf-notehead" pointer-events="bounding-box">
<path stroke-width="0.3" fill="#000000" stroke="none" stroke-dasharray="none" d="M155.4186 197.99999999999997M162.77555999999998 192.77711999999997C162.88788 192.77711999999997,163.05635999999998 192.77711999999997,163.08444 192.77711999999997C163.08444 192.77711999999997,163.11252 192.77711999999997,163.11252 192.77711999999997C163.11252 192.77711999999997,163.281 192.77711999999997,163.4214 192.77711999999997C165.9486 192.91751999999997,167.43684 194.57423999999997,167.43684 196.65215999999998C167.43684 197.66303999999997,167.09987999999998 198.81431999999998,166.25748 199.90943999999996C164.65691999999999 202.07159999999996,162.04548 203.25095999999996,159.771 203.25095999999996C158.00196 203.25095999999996,156.48564 202.54895999999997,155.75556 201.11687999999998C155.53092 200.55527999999998,155.4186 200.02175999999997,155.4186 199.43207999999998C155.4186 196.37135999999998,158.84436 192.97367999999997,162.77555999999998 192.77711999999997">
</path>
</g>
</g>
<g class="vf-modifiers">
</g>
</g>
<g class="vf-stavenote" id="vf-auto10975">
<g class="vf-note" pointer-events="bounding-box">
<g class="vf-notehead" pointer-events="bounding-box">
<path stroke-width="0.3" fill="#000000" stroke="none" stroke-dasharray="none" d="M189.3588 197.99999999999997M196.71576 192.77711999999997C196.82808 192.77711999999997,196.99656 192.77711999999997,197.02464 192.77711999999997C197.02464 192.77711999999997,197.05272 192.77711999999997,197.05272 192.77711999999997C197.05272 192.77711999999997,197.2212 192.77711999999997,197.3616 192.77711999999997C199.8888 192.91751999999997,201.37704 194.57423999999997,201.37704 196.65215999999998C201.37704 197.66303999999997,201.04008 198.81431999999998,200.19768 199.90943999999996C198.59712 202.07159999999996,195.98568 203.25095999999996,193.7112 203.25095999999996C191.94216 203.25095999999996,190.42584 202.54895999999997,189.69576 201.11687999999998C189.47112 200.55527999999998,189.3588 200.02175999999997,189.3588 199.43207999999998C189.3588 196.37135999999998,192.78456 192.97367999999997,196.71576 192.77711999999997">
</path>
</g>
</g>
<g class="vf-modifiers">
</g>
</g>
<g class="vf-stavenote" id="vf-auto10985">
<g class="vf-note" pointer-events="bounding-box">
<g class="vf-notehead" pointer-events="bounding-box">
<path stroke-width="0.3" fill="#000000" stroke="none" stroke-dasharray="none" d="M223.299 197.99999999999997M230.65596 192.77711999999997C230.76828 192.77711999999997,230.93676 192.77711999999997,230.96484 192.77711999999997C230.96484 192.77711999999997,230.99292 192.77711999999997,230.99292 192.77711999999997C230.99292 192.77711999999997,231.16140000000001 192.77711999999997,231.30180000000001 192.77711999999997C233.829 192.91751999999997,235.31724 194.57423999999997,235.31724 196.65215999999998C235.31724 197.66303999999997,234.98028 198.81431999999998,234.13788 199.90943999999996C232.53732 202.07159999999996,229.92588 203.25095999999996,227.6514 203.25095999999996C225.88236 203.25095999999996,224.36604 202.54895999999997,223.63596 201.11687999999998C223.41132000000002 200.55527999999998,223.299 200.02175999999997,223.299 199.43207999999998C223.299 196.37135999999998,226.72476 192.97367999999997,230.65596 192.77711999999997">
</path>
</g>
</g>
<g class="vf-modifiers">
</g>
</g>
<g class="vf-stavenote" id="vf-auto10995">
<g class="vf-note" pointer-events="bounding-box">
<g class="vf-notehead" pointer-events="bounding-box">
<path stroke-width="0.3" fill="#000000" stroke="none" stroke-dasharray="none" d="M257.2392 197.99999999999997M264.59616 192.77711999999997C264.70848 192.77711999999997,264.87696 192.77711999999997,264.90504 192.77711999999997C264.90504 192.77711999999997,264.93312 192.77711999999997,264.93312 192.77711999999997C264.93312 192.77711999999997,265.10159999999996 192.77711999999997,265.24199999999996 192.77711999999997C267.76919999999996 192.91751999999997,269.25744 194.57423999999997,269.25744 196.65215999999998C269.25744 197.66303999999997,268.92048 198.81431999999998,268.07808 199.90943999999996C266.47751999999997 202.07159999999996,263.86608 203.25095999999996,261.59159999999997 203.25095999999996C259.82256 203.25095999999996,258.30624 202.54895999999997,257.57615999999996 201.11687999999998C257.35152 200.55527999999998,257.2392 200.02175999999997,257.2392 199.43207999999998C257.2392 196.37135999999998,260.66496 192.97367999999997,264.59616 192.77711999999997">
</path>
</g>
</g>
<g class="vf-modifiers">
</g>
</g>
<g class="vf-stavenote" id="vf-auto11005">
<g class="vf-note" pointer-events="bounding-box">
<g class="vf-notehead" pointer-events="bounding-box">
<path stroke-width="0.3" fill="#000000" stroke="none" stroke-dasharray="none" d="M291.1794 197.99999999999997M298.53636 192.77711999999997C298.64868 192.77711999999997,298.81716 192.77711999999997,298.84524 192.77711999999997C298.84524 192.77711999999997,298.87332 192.77711999999997,298.87332 192.77711999999997C298.87332 192.77711999999997,299.04179999999997 192.77711999999997,299.18219999999997 192.77711999999997C301.70939999999996 192.91751999999997,303.19764 194.57423999999997,303.19764 196.65215999999998C303.19764 197.66303999999997,302.86068 198.81431999999998,302.01828 199.90943999999996C300.41772 202.07159999999996,297.80628 203.25095999999996,295.5318 203.25095999999996C293.76276 203.25095999999996,292.24644 202.54895999999997,291.51635999999996 201.11687999999998C291.29172 200.55527999999998,291.1794 200.02175999999997,291.1794 199.43207999999998C291.1794 196.37135999999998,294.60516 192.97367999999997,298.53636 192.77711999999997">
</path>
</g>
</g>
<g class="vf-modifiers">
</g>
</g>
<g class="vf-stavenote" id="vf-auto11015">
<g class="vf-note" pointer-events="bounding-box">
<g class="vf-notehead" pointer-events="bounding-box">
<path stroke-width="0.3" fill="#000000" stroke="none" stroke-dasharray="none" d="M325.1196 197.99999999999997M332.47656 192.77711999999997C332.58888 192.77711999999997,332.75736 192.77711999999997,332.78544 192.77711999999997C332.78544 192.77711999999997,332.81352 192.77711999999997,332.81352 192.77711999999997C332.81352 192.77711999999997,332.98199999999997 192.77711999999997,333.12239999999997 192.77711999999997C335.64959999999996 192.91751999999997,337.13784 194.57423999999997,337.13784 196.65215999999998C337.13784 197.66303999999997,336.80088 198.81431999999998,335.95848 199.90943999999996C334.35792 202.07159999999996,331.74648 203.25095999999996,329.472 203.25095999999996C327.70296 203.25095999999996,326.18664 202.54895999999997,325.45655999999997 201.11687999999998C325.23192 200.55527999999998,325.1196 200.02175999999997,325.1196 199.43207999999998C325.1196 196.37135999999998,328.54536 192.97367999999997,332.47656 192.77711999999997">
</path>
</g>
</g>
<g class="vf-modifiers">
</g>
</g>
<g class="vf-stavenote" id="vf-auto11025">
<g class="vf-note" pointer-events="bounding-box">
<g class="vf-notehead" pointer-events="bounding-box">
<path stroke-width="0.3" fill="#000000" stroke="none" stroke-dasharray="none" d="M359.0598 197.99999999999997M366.41676 192.77711999999997C366.52908 192.77711999999997,366.69756 192.77711999999997,366.72564 192.77711999999997C366.72564 192.77711999999997,366.75372 192.77711999999997,366.75372 192.77711999999997C366.75372 192.77711999999997,366.9222 192.77711999999997,367.0626 192.77711999999997C369.58979999999997 192.91751999999997,371.07804 194.57423999999997,371.07804 196.65215999999998C371.07804 197.66303999999997,370.74108 198.81431999999998,369.89868 199.90943999999996C368.29812 202.07159999999996,365.68668 203.25095999999996,363.4122 203.25095999999996C361.64316 203.25095999999996,360.12684 202.54895999999997,359.39676 201.11687999999998C359.17212 200.55527999999998,359.0598 200.02175999999997,359.0598 199.43207999999998C359.0598 196.37135999999998,362.48556 192.97367999999997,366.41676 192.77711999999997">
</path>
</g>
</g>
<g class="vf-modifiers">
</g>
</g>
<path stroke-width="1.5" fill="none" stroke="#000000" stroke-dasharray="none" d="M132.74663999999999 197.99999999999997L132.74663999999999 163.74999999999997">
</path>
<path stroke-width="1.5" fill="none" stroke="#000000" stroke-dasharray="none" d="M166.68684 197.99999999999997L166.68684 163.74999999999997">
</path>
<path stroke-width="1.5" fill="none" stroke="#000000" stroke-dasharray="none" d="M200.62704 197.99999999999997L200.62704 163.74999999999997">
</path>
<path stroke-width="1.5" fill="none" stroke="#000000" stroke-dasharray="none" d="M234.56724 197.99999999999997L234.56724 163.74999999999997">
</path>
<path stroke-width="0.3" fill="#000000" stroke="none" stroke-dasharray="none" d="M131.99663999999999 162.99999999999997L131.99663999999999 167.99999999999997L234.81724 167.99999999999997L234.81724 162.99999999999997Z">
</path>
<path stroke-width="1.5" fill="none" stroke="#000000" stroke-dasharray="none" d="M268.50744 197.99999999999997L268.50744 163.74999999999997">
</path>
<path stroke-width="1.5" fill="none" stroke="#000000" stroke-dasharray="none" d="M302.44764 197.99999999999997L302.44764 163.74999999999997">
</path>
<path stroke-width="1.5" fill="none" stroke="#000000" stroke-dasharray="none" d="M336.38784 197.99999999999997L336.38784 163.74999999999997">
</path>
<path stroke-width="1.5" fill="none" stroke="#000000" stroke-dasharray="none" d="M370.32804 197.99999999999997L370.32804 163.74999999999997">
</path>
<path stroke-width="0.3" fill="#000000" stroke="none" stroke-dasharray="none" d="M267.75744 162.99999999999997L267.75744 167.99999999999997L370.57804 167.99999999999997L370.57804 162.99999999999997Z">
</path>
<path stroke-width="1" fill="none" stroke="black" stroke-dasharray="none" d="M391.1120447999999 197.99999999999997L988.4923399679998 197.99999999999997">
</path>
<rect stroke-width="0.3" fill="black" stroke="black" stroke-dasharray="none" x="983.4923399679998" y="177.49999999999997" width="1" height="41">
</rect>
<rect stroke-width="0.3" fill="black" stroke="black" stroke-dasharray="none" x="986.4923399679998" y="177.49999999999997" width="3" height="41">
</rect>
<path stroke-width="0.3" fill="black" stroke="none" stroke-dasharray="none" d="M982.4923399679998 193.49999999999997 A2 2 0 0 0 978.4923399679998 193.49999999999997M978.4923399679998 193.49999999999997 A2 2 0 0 0 982.4923399679998 193.49999999999997">
</path>
<path stroke-width="0.3" fill="black" stroke="none" stroke-dasharray="none" d="M982.4923399679998 203.49999999999997 A2 2 0 0 0 978.4923399679998 203.49999999999997M978.4923399679998 203.49999999999997 A2 2 0 0 0 982.4923399679998 203.49999999999997">
</path>
<g class="vf-stavenote" id="vf-auto11038">
<g class="vf-note" pointer-events="bounding-box">
<g class="vf-notehead" pointer-events="bounding-box">
<path stroke-width="0.3" fill="#000000" stroke="none" stroke-dasharray="none" d="M433.97612159999994 197.99999999999997M441.33308159999996 192.77711999999997C441.44540159999997 192.77711999999997,441.61388159999996 192.77711999999997,441.64196159999995 192.77711999999997C441.64196159999995 192.77711999999997,441.67004159999993 192.77711999999997,441.67004159999993 192.77711999999997C441.67004159999993 192.77711999999997,441.8385215999999 192.77711999999997,441.9789215999999 192.77711999999997C444.5061215999999 192.91751999999997,445.99436159999993 194.57423999999997,445.99436159999993 196.65215999999998C445.99436159999993 197.66303999999997,445.65740159999996 198.81431999999998,444.81500159999996 199.90943999999996C443.21444159999993 202.07159999999996,440.60300159999997 203.25095999999996,438.32852159999993 203.25095999999996C436.55948159999997 203.25095999999996,435.04316159999996 202.54895999999997,434.3130815999999 201.11687999999998C434.08844159999995 200.55527999999998,433.97612159999994 200.02175999999997,433.97612159999994 199.43207999999998C433.97612159999994 196.37135999999998,437.40188159999997 192.97367999999997,441.33308159999996 192.77711999999997">
</path>
</g>
</g>
<g class="vf-modifiers">
<g class="vf-stavenote" id="vf-auto11048">
<g class="vf-note" pointer-events="bounding-box">
<g class="vf-stem" pointer-events="bounding-box">
<path stroke-width="1.5" fill="none" stroke="#000000" stroke-dasharray="none" d="M415.29408319999993 197.99999999999997L415.29408319999993 174.89999999999998">
</path>
</g>
<g class="vf-notehead" pointer-events="bounding-box">
<path stroke-width="0.3" fill="#000000" stroke="none" stroke-dasharray="none" d="M408.1120447999999 197.99999999999997M412.96763839999994 194.55289919999998C413.0417695999999 194.55289919999998,413.1529663999999 194.55289919999998,413.1714991999999 194.55289919999998C413.1714991999999 194.55289919999998,413.1900319999999 194.55289919999998,413.1900319999999 194.55289919999998C413.1900319999999 194.55289919999998,413.30122879999993 194.55289919999998,413.39389279999995 194.55289919999998C415.0618447999999 194.64556319999997,416.04408319999993 195.73899839999996,416.04408319999993 197.11042559999999C416.04408319999993 197.77760639999997,415.8216895999999 198.53745119999996,415.26570559999993 199.26023039999998C414.2093359999999 200.68725599999996,412.48578559999993 201.46563359999996,410.98462879999994 201.46563359999996C409.81706239999994 201.46563359999996,408.8162911999999 201.00231359999998,408.3344383999999 200.05714079999998C408.18617599999993 199.68648479999996,408.1120447999999 199.33436159999997,408.1120447999999 198.94517279999997C408.1120447999999 196.92509759999996,410.3730463999999 194.68262879999997,412.96763839999994 194.55289919999998">
</path>
</g>
<g class="vf-flag" pointer-events="bounding-box">
<path stroke-width="0.3" fill="#000000" stroke="none" stroke-dasharray="none" d="M415.29408319999993 172.89999999999998M414.8492959999999 175.88378079999998L414.8492959999999 172.992664L414.92342719999994 172.992664C415.1272879999999 172.992664,415.2570175999999 173.12239359999998,415.29408319999993 173.34478719999998C415.68327199999993 175.19806719999997,416.85083839999993 177.21814239999998,418.46319199999994 178.73783199999997C420.2608735999999 180.42431679999999,421.16898079999993 182.74091679999998,421.16898079999993 185.13164799999998C421.16898079999993 187.39264959999997,420.3720703999999 189.74631519999997,418.7597167999999 191.69225919999997C418.48172479999994 192.06291519999996,418.46319199999994 192.06291519999996,418.2778639999999 192.06291519999996C418.05547039999993 192.06291519999996,417.9072079999999 191.89611999999997,417.9072079999999 191.67372639999996C417.9072079999999 191.50693119999997,417.9257407999999 191.4698656,418.11106879999994 191.2660048C419.5195615999999 189.56098719999997,420.2238079999999 187.5038464,420.2238079999999 185.5393696C420.2238079999999 183.7972864,419.66782399999994 182.12933439999998,418.51879039999994 180.86910399999996C417.81454399999996 180.09072639999997,416.51724799999994 179.34941439999997,414.8678287999999 178.77489759999997C414.8678287999999 178.75636479999997,414.8492959999999 178.18184799999997,414.8492959999999 175.88378079999998">
</path>
</g>
</g>
<g class="vf-modifiers">
</g>
</g>
<path stroke-width="1" fill="none" stroke="#000000" stroke-dasharray="none" d="M409.1120447999999 189.74999999999997L422.1120447999999 180.74999999999997Z">
</path>
</g>
</g>
<g class="vf-stavenote" id="vf-auto11062">
<g class="vf-note" pointer-events="bounding-box">
<g class="vf-notehead" pointer-events="bounding-box">
<path stroke-width="0.3" fill="#000000" stroke="none" stroke-dasharray="none" d="M463.88510239999994 197.99999999999997M471.24206239999995 192.77711999999997C471.35438239999996 192.77711999999997,471.52286239999995 192.77711999999997,471.55094239999994 192.77711999999997C471.55094239999994 192.77711999999997,471.57902239999993 192.77711999999997,471.57902239999993 192.77711999999997C471.57902239999993 192.77711999999997,471.7475023999999 192.77711999999997,471.8879023999999 192.77711999999997C474.4151023999999 192.91751999999997,475.90334239999993 194.57423999999997,475.90334239999993 196.65215999999998C475.90334239999993 197.66303999999997,475.56638239999995 198.81431999999998,474.72398239999995 199.90943999999996C473.1234223999999 202.07159999999996,470.51198239999997 203.25095999999996,468.2375023999999 203.25095999999996C466.46846239999996 203.25095999999996,464.95214239999996 202.54895999999997,464.2220623999999 201.11687999999998C463.99742239999995 200.55527999999998,463.88510239999994 200.02175999999997,463.88510239999994 199.43207999999998C463.88510239999994 196.37135999999998,467.31086239999996 192.97367999999997,471.24206239999995 192.77711999999997">
</path>
</g>
</g>
<g class="vf-modifiers">
</g>
</g>
<g class="vf-stavenote" id="vf-auto11072">
<g class="vf-note" pointer-events="bounding-box">
<g class="vf-notehead" pointer-events="bounding-box">
<path stroke-width="0.3" fill="#000000" stroke="none" stroke-dasharray="none" d="M493.79408319999993 197.99999999999997M501.15104319999995 192.77711999999997C501.26336319999996 192.77711999999997,501.43184319999995 192.77711999999997,501.45992319999993 192.77711999999997C501.45992319999993 192.77711999999997,501.4880031999999 192.77711999999997,501.4880031999999 192.77711999999997C501.4880031999999 192.77711999999997,501.6564831999999 192.77711999999997,501.7968831999999 192.77711999999997C504.3240831999999 192.91751999999997,505.8123231999999 194.57423999999997,505.8123231999999 196.65215999999998C505.8123231999999 197.66303999999997,505.47536319999995 198.81431999999998,504.63296319999995 199.90943999999996C503.0324031999999 202.07159999999996,500.42096319999996 203.25095999999996,498.1464831999999 203.25095999999996C496.37744319999996 203.25095999999996,494.86112319999995 202.54895999999997,494.1310431999999 201.11687999999998C493.90640319999994 200.55527999999998,493.79408319999993 200.02175999999997,493.79408319999993 199.43207999999998C493.79408319999993 196.37135999999998,497.21984319999996 192.97367999999997,501.15104319999995 192.77711999999997">
</path>
</g>
</g>
<g class="vf-modifiers">
</g>
</g>
<g class="vf-stavenote" id="vf-auto11082">
<g class="vf-note" pointer-events="bounding-box">
<g class="vf-notehead" pointer-events="bounding-box">
<path stroke-width="0.3" fill="#000000" stroke="none" stroke-dasharray="none" d="M523.7030639999999 197.99999999999997M531.0600239999999 192.77711999999997C531.172344 192.77711999999997,531.3408239999999 192.77711999999997,531.3689039999999 192.77711999999997C531.3689039999999 192.77711999999997,531.396984 192.77711999999997,531.396984 192.77711999999997C531.396984 192.77711999999997,531.5654639999999 192.77711999999997,531.7058639999999 192.77711999999997C534.2330639999999 192.91751999999997,535.7213039999999 194.57423999999997,535.7213039999999 196.65215999999998C535.7213039999999 197.66303999999997,535.3843439999999 198.81431999999998,534.541944 199.90943999999996C532.941384 202.07159999999996,530.329944 203.25095999999996,528.0554639999999 203.25095999999996C526.2864239999999 203.25095999999996,524.770104 202.54895999999997,524.0400239999999 201.11687999999998C523.8153839999999 200.55527999999998,523.7030639999999 200.02175999999997,523.7030639999999 199.43207999999998C523.7030639999999 196.37135999999998,527.1288239999999 192.97367999999997,531.0600239999999 192.77711999999997">
</path>
</g>
</g>
<g class="vf-modifiers">
</g>
</g>
<g class="vf-stavenote" id="vf-auto11092">
<g class="vf-note" pointer-events="bounding-box">
<g class="vf-notehead" pointer-events="bounding-box">
<path stroke-width="0.3" fill="#000000" stroke="none" stroke-dasharray="none" d="M579.4761215999999 197.99999999999997M586.8330815999999 192.77711999999997C586.9454016 192.77711999999997,587.1138815999999 192.77711999999997,587.1419616 192.77711999999997C587.1419616 192.77711999999997,587.1700416 192.77711999999997,587.1700416 192.77711999999997C587.1700416 192.77711999999997,587.3385215999999 192.77711999999997,587.4789215999999 192.77711999999997C590.0061215999999 192.91751999999997,591.4943615999999 194.57423999999997,591.4943615999999 196.65215999999998C591.4943615999999 197.66303999999997,591.1574016 198.81431999999998,590.3150016 199.90943999999996C588.7144416 202.07159999999996,586.1030016 203.25095999999996,583.8285215999999 203.25095999999996C582.0594815999999 203.25095999999996,580.5431616 202.54895999999997,579.8130815999999 201.11687999999998C579.5884415999999 200.55527999999998,579.4761215999999 200.02175999999997,579.4761215999999 199.43207999999998C579.4761215999999 196.37135999999998,582.9018815999999 192.97367999999997,586.8330815999999 192.77711999999997">
</path>
</g>
</g>
<g class="vf-modifiers">
<g class="vf-stavenote" id="vf-auto11102">
<g class="vf-note" pointer-events="bounding-box">
<g class="vf-stem" pointer-events="bounding-box">
<path stroke-width="1.5" fill="none" stroke="#000000" stroke-dasharray="none" d="M560.7940831999999 197.99999999999997L560.7940831999999 174.89999999999998">
</path>
</g>
<g class="vf-notehead" pointer-events="bounding-box">
<path stroke-width="0.3" fill="#000000" stroke="none" stroke-dasharray="none" d="M553.6120447999999 197.99999999999997M558.4676383999999 194.55289919999998C558.5417696 194.55289919999998,558.6529664 194.55289919999998,558.6714992 194.55289919999998C558.6714992 194.55289919999998,558.690032 194.55289919999998,558.690032 194.55289919999998C558.690032 194.55289919999998,558.8012287999999 194.55289919999998,558.8938927999999 194.55289919999998C560.5618447999999 194.64556319999997,561.5440831999999 195.73899839999996,561.5440831999999 197.11042559999999C561.5440831999999 197.77760639999997,561.3216895999999 198.53745119999996,560.7657055999999 199.26023039999998C559.7093359999999 200.68725599999996,557.9857855999999 201.46563359999996,556.4846287999999 201.46563359999996C555.3170623999999 201.46563359999996,554.3162911999999 201.00231359999998,553.8344384 200.05714079999998C553.6861759999999 199.68648479999996,553.6120447999999 199.33436159999997,553.6120447999999 198.94517279999997C553.6120447999999 196.92509759999996,555.8730463999999 194.68262879999997,558.4676383999999 194.55289919999998">
</path>
</g>
<g class="vf-flag" pointer-events="bounding-box">
<path stroke-width="0.3" fill="#000000" stroke="none" stroke-dasharray="none" d="M560.7940831999999 172.89999999999998M560.349296 175.88378079999998L560.349296 172.992664L560.4234271999999 172.992664C560.6272879999999 172.992664,560.7570175999999 173.12239359999998,560.7940831999999 173.34478719999998C561.183272 175.19806719999997,562.3508383999999 177.21814239999998,563.9631919999999 178.73783199999997C565.7608736 180.42431679999999,566.6689808 182.74091679999998,566.6689808 185.13164799999998C566.6689808 187.39264959999997,565.8720704 189.74631519999997,564.2597168 191.69225919999997C563.9817247999999 192.06291519999996,563.9631919999999 192.06291519999996,563.7778639999999 192.06291519999996C563.5554703999999 192.06291519999996,563.407208 191.89611999999997,563.407208 191.67372639999996C563.407208 191.50693119999997,563.4257408 191.4698656,563.6110687999999 191.2660048C565.0195616 189.56098719999997,565.723808 187.5038464,565.723808 185.5393696C565.723808 183.7972864,565.1678239999999 182.12933439999998,564.0187904 180.86910399999996C563.314544 180.09072639999997,562.0172479999999 179.34941439999997,560.3678288 178.77489759999997C560.3678288 178.75636479999997,560.349296 178.18184799999997,560.349296 175.88378079999998">
</path>
</g>
</g>
<g class="vf-modifiers">
</g>
</g>
<path stroke-width="1" fill="none" stroke="#000000" stroke-dasharray="none" d="M554.6120447999999 189.74999999999997L567.6120447999999 180.74999999999997Z">
</path>
</g>
</g>
<g class="vf-stavenote" id="vf-auto11116">
<g class="vf-note" pointer-events="bounding-box">
<g class="vf-notehead" pointer-events="bounding-box">
<path stroke-width="0.3" fill="#000000" stroke="none" stroke-dasharray="none" d="M609.3851023999999 197.99999999999997M616.7420623999999 192.77711999999997C616.8543824 192.77711999999997,617.0228623999999 192.77711999999997,617.0509423999999 192.77711999999997C617.0509423999999 192.77711999999997,617.0790224 192.77711999999997,617.0790224 192.77711999999997C617.0790224 192.77711999999997,617.2475023999999 192.77711999999997,617.3879023999999 192.77711999999997C619.9151023999999 192.91751999999997,621.4033423999999 194.57423999999997,621.4033423999999 196.65215999999998C621.4033423999999 197.66303999999997,621.0663824 198.81431999999998,620.2239824 199.90943999999996C618.6234224 202.07159999999996,616.0119824 203.25095999999996,613.7375023999999 203.25095999999996C611.9684623999999 203.25095999999996,610.4521424 202.54895999999997,609.7220623999999 201.11687999999998C609.4974223999999 200.55527999999998,609.3851023999999 200.02175999999997,609.3851023999999 199.43207999999998C609.3851023999999 196.37135999999998,612.8108623999999 192.97367999999997,616.7420623999999 192.77711999999997">
</path>
</g>
</g>
<g class="vf-modifiers">
</g>
</g>
<g class="vf-stavenote" id="vf-auto11126">
<g class="vf-note" pointer-events="bounding-box">
<g class="vf-notehead" pointer-events="bounding-box">
<path stroke-width="0.3" fill="#000000" stroke="none" stroke-dasharray="none" d="M639.2940831999999 197.99999999999997M646.6510431999999 192.77711999999997C646.7633632 192.77711999999997,646.9318431999999 192.77711999999997,646.9599231999999 192.77711999999997C646.9599231999999 192.77711999999997,646.9880032 192.77711999999997,646.9880032 192.77711999999997C646.9880032 192.77711999999997,647.1564831999999 192.77711999999997,647.2968831999999 192.77711999999997C649.8240831999999 192.91751999999997,651.3123231999999 194.57423999999997,651.3123231999999 196.65215999999998C651.3123231999999 197.66303999999997,650.9753632 198.81431999999998,650.1329632 199.90943999999996C648.5324032 202.07159999999996,645.9209632 203.25095999999996,643.6464831999999 203.25095999999996C641.8774431999999 203.25095999999996,640.3611232 202.54895999999997,639.6310431999999 201.11687999999998C639.4064031999999 200.55527999999998,639.2940831999999 200.02175999999997,639.2940831999999 199.43207999999998C639.2940831999999 196.37135999999998,642.7198431999999 192.97367999999997,646.6510431999999 192.77711999999997">
</path>
</g>
</g>
<g class="vf-modifiers">
</g>
</g>
<g class="vf-stavenote" id="vf-auto11136">
<g class="vf-note" pointer-events="bounding-box">
<g class="vf-notehead" pointer-events="bounding-box">
<path stroke-width="0.3" fill="#000000" stroke="none" stroke-dasharray="none" d="M669.2030639999999 197.99999999999997M676.5600239999999 192.77711999999997C676.672344 192.77711999999997,676.8408239999999 192.77711999999997,676.8689039999999 192.77711999999997C676.8689039999999 192.77711999999997,676.896984 192.77711999999997,676.896984 192.77711999999997C676.896984 192.77711999999997,677.0654639999999 192.77711999999997,677.2058639999999 192.77711999999997C679.7330639999999 192.91751999999997,681.2213039999999 194.57423999999997,681.2213039999999 196.65215999999998C681.2213039999999 197.66303999999997,680.8843439999999 198.81431999999998,680.041944 199.90943999999996C678.441384 202.07159999999996,675.829944 203.25095999999996,673.5554639999999 203.25095999999996C671.7864239999999 203.25095999999996,670.270104 202.54895999999997,669.5400239999999 201.11687999999998C669.3153839999999 200.55527999999998,669.2030639999999 200.02175999999997,669.2030639999999 199.43207999999998C669.2030639999999 196.37135999999998,672.6288239999999 192.97367999999997,676.5600239999999 192.77711999999997">
</path>
</g>
</g>
<g class="vf-modifiers">
</g>
</g>
<g class="vf-stavenote" id="vf-auto11146">
<g class="vf-note" pointer-events="bounding-box">
<g class="vf-notehead" pointer-events="bounding-box">
<path stroke-width="0.3" fill="#000000" stroke="none" stroke-dasharray="none" d="M724.9761215999999 197.99999999999997M732.3330815999999 192.77711999999997C732.4454016 192.77711999999997,732.6138815999999 192.77711999999997,732.6419616 192.77711999999997C732.6419616 192.77711999999997,732.6700416 192.77711999999997,732.6700416 192.77711999999997C732.6700416 192.77711999999997,732.8385215999999 192.77711999999997,732.9789215999999 192.77711999999997C735.5061215999999 192.91751999999997,736.9943615999999 194.57423999999997,736.9943615999999 196.65215999999998C736.9943615999999 197.66303999999997,736.6574016 198.81431999999998,735.8150016 199.90943999999996C734.2144416 202.07159999999996,731.6030016 203.25095999999996,729.3285215999999 203.25095999999996C727.5594815999999 203.25095999999996,726.0431616 202.54895999999997,725.3130815999999 201.11687999999998C725.0884415999999 200.55527999999998,724.9761215999999 200.02175999999997,724.9761215999999 199.43207999999998C724.9761215999999 196.37135999999998,728.4018815999999 192.97367999999997,732.3330815999999 192.77711999999997">
</path>
</g>
</g>
<g class="vf-modifiers">
<g class="vf-stavenote" id="vf-auto11156">
<g class="vf-note" pointer-events="bounding-box">
<g class="vf-stem" pointer-events="bounding-box">
<path stroke-width="1.5" fill="none" stroke="#000000" stroke-dasharray="none" d="M706.2940831999999 197.99999999999997L706.2940831999999 174.89999999999998">
</path>
</g>
<g class="vf-notehead" pointer-events="bounding-box">
<path stroke-width="0.3" fill="#000000" stroke="none" stroke-dasharray="none" d="M699.1120447999999 197.99999999999997M703.9676383999999 194.55289919999998C704.0417696 194.55289919999998,704.1529664 194.55289919999998,704.1714992 194.55289919999998C704.1714992 194.55289919999998,704.190032 194.55289919999998,704.190032 194.55289919999998C704.190032 194.55289919999998,704.3012287999999 194.55289919999998,704.3938927999999 194.55289919999998C706.0618447999999 194.64556319999997,707.0440831999999 195.73899839999996,707.0440831999999 197.11042559999999C707.0440831999999 197.77760639999997,706.8216895999999 198.53745119999996,706.2657055999999 199.26023039999998C705.2093359999999 200.68725599999996,703.4857855999999 201.46563359999996,701.9846287999999 201.46563359999996C700.8170623999999 201.46563359999996,699.8162911999999 201.00231359999998,699.3344384 200.05714079999998C699.1861759999999 199.68648479999996,699.1120447999999 199.33436159999997,699.1120447999999 198.94517279999997C699.1120447999999 196.92509759999996,701.3730463999999 194.68262879999997,703.9676383999999 194.55289919999998">
</path>
</g>
<g class="vf-flag" pointer-events="bounding-box">
<path stroke-width="0.3" fill="#000000" stroke="none" stroke-dasharray="none" d="M706.2940831999999 172.89999999999998M705.849296 175.88378079999998L705.849296 172.992664L705.9234271999999 172.992664C706.1272879999999 172.992664,706.2570175999999 173.12239359999998,706.2940831999999 173.34478719999998C706.683272 175.19806719999997,707.8508383999999 177.21814239999998,709.4631919999999 178.73783199999997C711.2608736 180.42431679999999,712.1689808 182.74091679999998,712.1689808 185.13164799999998C712.1689808 187.39264959999997,711.3720704 189.74631519999997,709.7597168 191.69225919999997C709.4817247999999 192.06291519999996,709.4631919999999 192.06291519999996,709.2778639999999 192.06291519999996C709.0554703999999 192.06291519999996,708.907208 191.89611999999997,708.907208 191.67372639999996C708.907208 191.50693119999997,708.9257408 191.4698656,709.1110687999999 191.2660048C710.5195616 189.56098719999997,711.223808 187.5038464,711.223808 185.5393696C711.223808 183.7972864,710.6678239999999 182.12933439999998,709.5187904 180.86910399999996C708.814544 180.09072639999997,707.5172479999999 179.34941439999997,705.8678288 178.77489759999997C705.8678288 178.75636479999997,705.849296 178.18184799999997,705.849296 175.88378079999998">
</path>
</g>
</g>
<g class="vf-modifiers">
</g>
</g>
<path stroke-width="1" fill="none" stroke="#000000" stroke-dasharray="none" d="M700.1120447999999 189.74999999999997L713.1120447999999 180.74999999999997Z">
</path>
</g>
</g>
<g class="vf-stavenote" id="vf-auto11170">
<g class="vf-note" pointer-events="bounding-box">
<g class="vf-notehead" pointer-events="bounding-box">
<path stroke-width="0.3" fill="#000000" stroke="none" stroke-dasharray="none" d="M754.8851023999998 197.99999999999997M762.2420623999998 192.77711999999997C762.3543823999998 192.77711999999997,762.5228623999998 192.77711999999997,762.5509423999998 192.77711999999997C762.5509423999998 192.77711999999997,762.5790223999999 192.77711999999997,762.5790223999999 192.77711999999997C762.5790223999999 192.77711999999997,762.7475023999998 192.77711999999997,762.8879023999998 192.77711999999997C765.4151023999998 192.91751999999997,766.9033423999998 194.57423999999997,766.9033423999998 196.65215999999998C766.9033423999998 197.66303999999997,766.5663823999998 198.81431999999998,765.7239823999998 199.90943999999996C764.1234223999999 202.07159999999996,761.5119823999999 203.25095999999996,759.2375023999998 203.25095999999996C757.4684623999998 203.25095999999996,755.9521423999998 202.54895999999997,755.2220623999998 201.11687999999998C754.9974223999998 200.55527999999998,754.8851023999998 200.02175999999997,754.8851023999998 199.43207999999998C754.8851023999998 196.37135999999998,758.3108623999998 192.97367999999997,762.2420623999998 192.77711999999997">
</path>
</g>
</g>
<g class="vf-modifiers">
</g>
</g>
<g class="vf-stavenote" id="vf-auto11180">
<g class="vf-note" pointer-events="bounding-box">
<g class="vf-notehead" pointer-events="bounding-box">
<path stroke-width="0.3" fill="#000000" stroke="none" stroke-dasharray="none" d="M784.7940831999999 197.99999999999997M792.1510431999999 192.77711999999997C792.2633632 192.77711999999997,792.4318431999999 192.77711999999997,792.4599231999999 192.77711999999997C792.4599231999999 192.77711999999997,792.4880032 192.77711999999997,792.4880032 192.77711999999997C792.4880032 192.77711999999997,792.6564831999999 192.77711999999997,792.7968831999999 192.77711999999997C795.3240831999999 192.91751999999997,796.8123231999999 194.57423999999997,796.8123231999999 196.65215999999998C796.8123231999999 197.66303999999997,796.4753632 198.81431999999998,795.6329632 199.90943999999996C794.0324032 202.07159999999996,791.4209632 203.25095999999996,789.1464831999999 203.25095999999996C787.3774431999999 203.25095999999996,785.8611232 202.54895999999997,785.1310431999999 201.11687999999998C784.9064031999999 200.55527999999998,784.7940831999999 200.02175999999997,784.7940831999999 199.43207999999998C784.7940831999999 196.37135999999998,788.2198431999999 192.97367999999997,792.1510431999999 192.77711999999997">
</path>
</g>
</g>
<g class="vf-modifiers">
</g>
</g>
<g class="vf-stavenote" id="vf-auto11190">
<g class="vf-note" pointer-events="bounding-box">
<g class="vf-notehead" pointer-events="bounding-box">
<path stroke-width="0.3" fill="#000000" stroke="none" stroke-dasharray="none" d="M814.7030639999999 197.99999999999997M822.0600239999999 192.77711999999997C822.172344 192.77711999999997,822.3408239999999 192.77711999999997,822.3689039999999 192.77711999999997C822.3689039999999 192.77711999999997,822.396984 192.77711999999997,822.396984 192.77711999999997C822.396984 192.77711999999997,822.5654639999999 192.77711999999997,822.7058639999999 192.77711999999997C825.2330639999999 192.91751999999997,826.7213039999999 194.57423999999997,826.7213039999999 196.65215999999998C826.7213039999999 197.66303999999997,826.3843439999999 198.81431999999998,825.541944 199.90943999999996C823.941384 202.07159999999996,821.329944 203.25095999999996,819.0554639999999 203.25095999999996C817.2864239999999 203.25095999999996,815.770104 202.54895999999997,815.0400239999999 201.11687999999998C814.8153839999999 200.55527999999998,814.7030639999999 200.02175999999997,814.7030639999999 199.43207999999998C814.7030639999999 196.37135999999998,818.1288239999999 192.97367999999997,822.0600239999999 192.77711999999997">
</path>
</g>
</g>
<g class="vf-modifiers">
</g>
</g>
<g class="vf-stavenote" id="vf-auto11200">
<g class="vf-note" pointer-events="bounding-box">
<g class="vf-notehead" pointer-events="bounding-box">
<path stroke-width="0.3" fill="#000000" stroke="none" stroke-dasharray="none" d="M870.4761215999999 197.99999999999997M877.8330815999999 192.77711999999997C877.9454016 192.77711999999997,878.1138815999999 192.77711999999997,878.1419616 192.77711999999997C878.1419616 192.77711999999997,878.1700416 192.77711999999997,878.1700416 192.77711999999997C878.1700416 192.77711999999997,878.3385215999999 192.77711999999997,878.4789215999999 192.77711999999997C881.0061215999999 192.91751999999997,882.4943615999999 194.57423999999997,882.4943615999999 196.65215999999998C882.4943615999999 197.66303999999997,882.1574016 198.81431999999998,881.3150016 199.90943999999996C879.7144416 202.07159999999996,877.1030016 203.25095999999996,874.8285215999999 203.25095999999996C873.0594815999999 203.25095999999996,871.5431616 202.54895999999997,870.8130815999999 201.11687999999998C870.5884415999999 200.55527999999998,870.4761215999999 200.02175999999997,870.4761215999999 199.43207999999998C870.4761215999999 196.37135999999998,873.9018815999999 192.97367999999997,877.8330815999999 192.77711999999997">
</path>
</g>
</g>
<g class="vf-modifiers">
<g class="vf-stavenote" id="vf-auto11210">
<g class="vf-note" pointer-events="bounding-box">
<g class="vf-stem" pointer-events="bounding-box">
<path stroke-width="1.5" fill="none" stroke="#000000" stroke-dasharray="none" d="M851.7940831999999 197.99999999999997L851.7940831999999 174.89999999999998">
</path>
</g>
<g class="vf-notehead" pointer-events="bounding-box">
<path stroke-width="0.3" fill="#000000" stroke="none" stroke-dasharray="none" d="M844.6120447999999 197.99999999999997M849.4676383999999 194.55289919999998C849.5417696 194.55289919999998,849.6529664 194.55289919999998,849.6714992 194.55289919999998C849.6714992 194.55289919999998,849.690032 194.55289919999998,849.690032 194.55289919999998C849.690032 194.55289919999998,849.8012287999999 194.55289919999998,849.8938927999999 194.55289919999998C851.5618447999999 194.64556319999997,852.5440831999999 195.73899839999996,852.5440831999999 197.11042559999999C852.5440831999999 197.77760639999997,852.3216895999999 198.53745119999996,851.7657055999999 199.26023039999998C850.7093359999999 200.68725599999996,848.9857855999999 201.46563359999996,847.4846287999999 201.46563359999996C846.3170623999999 201.46563359999996,845.3162911999999 201.00231359999998,844.8344384 200.05714079999998C844.6861759999999 199.68648479999996,844.6120447999999 199.33436159999997,844.6120447999999 198.94517279999997C844.6120447999999 196.92509759999996,846.8730463999999 194.68262879999997,849.4676383999999 194.55289919999998">
</path>
</g>
<g class="vf-flag" pointer-events="bounding-box">
<path stroke-width="0.3" fill="#000000" stroke="none" stroke-dasharray="none" d="M851.7940831999999 172.89999999999998M851.349296 175.88378079999998L851.349296 172.992664L851.4234271999999 172.992664C851.6272879999999 172.992664,851.7570175999999 173.12239359999998,851.7940831999999 173.34478719999998C852.183272 175.19806719999997,853.3508383999999 177.21814239999998,854.9631919999999 178.73783199999997C856.7608736 180.42431679999999,857.6689808 182.74091679999998,857.6689808 185.13164799999998C857.6689808 187.39264959999997,856.8720704 189.74631519999997,855.2597168 191.69225919999997C854.9817247999999 192.06291519999996,854.9631919999999 192.06291519999996,854.7778639999999 192.06291519999996C854.5554703999999 192.06291519999996,854.407208 191.89611999999997,854.407208 191.67372639999996C854.407208 191.50693119999997,854.4257408 191.4698656,854.6110687999999 191.2660048C856.0195616 189.56098719999997,856.723808 187.5038464,856.723808 185.5393696C856.723808 183.7972864,856.1678239999999 182.12933439999998,855.0187904 180.86910399999996C854.314544 180.09072639999997,853.0172479999999 179.34941439999997,851.3678288 178.77489759999997C851.3678288 178.75636479999997,851.349296 178.18184799999997,851.349296 175.88378079999998">
</path>
</g>
</g>
<g class="vf-modifiers">
</g>
</g>
<path stroke-width="1" fill="none" stroke="#000000" stroke-dasharray="none" d="M845.6120447999999 189.74999999999997L858.6120447999999 180.74999999999997Z">
</path>
</g>
</g>
<g class="vf-stavenote" id="vf-auto11224">
<g class="vf-note" pointer-events="bounding-box">
<g class="vf-notehead" pointer-events="bounding-box">
<path stroke-width="0.3" fill="#000000" stroke="none" stroke-dasharray="none" d="M900.3851023999999 197.99999999999997M907.7420623999999 192.77711999999997C907.8543824 192.77711999999997,908.0228623999999 192.77711999999997,908.0509423999999 192.77711999999997C908.0509423999999 192.77711999999997,908.0790224 192.77711999999997,908.0790224 192.77711999999997C908.0790224 192.77711999999997,908.2475023999999 192.77711999999997,908.3879023999999 192.77711999999997C910.9151023999999 192.91751999999997,912.4033423999999 194.57423999999997,912.4033423999999 196.65215999999998C912.4033423999999 197.66303999999997,912.0663824 198.81431999999998,911.2239824 199.90943999999996C909.6234224 202.07159999999996,907.0119824 203.25095999999996,904.7375023999999 203.25095999999996C902.9684623999999 203.25095999999996,901.4521424 202.54895999999997,900.7220623999999 201.11687999999998C900.4974223999999 200.55527999999998,900.3851023999999 200.02175999999997,900.3851023999999 199.43207999999998C900.3851023999999 196.37135999999998,903.8108623999999 192.97367999999997,907.7420623999999 192.77711999999997">
</path>
</g>
</g>
<g class="vf-modifiers">
</g>
</g>
<g class="vf-stavenote" id="vf-auto11234">
<g class="vf-note" pointer-events="bounding-box">
<g class="vf-notehead" pointer-events="bounding-box">
<path stroke-width="0.3" fill="#000000" stroke="none" stroke-dasharray="none" d="M930.2940831999999 197.99999999999997M937.6510431999999 192.77711999999997C937.7633632 192.77711999999997,937.9318431999999 192.77711999999997,937.9599231999999 192.77711999999997C937.9599231999999 192.77711999999997,937.9880032 192.77711999999997,937.9880032 192.77711999999997C937.9880032 192.77711999999997,938.1564831999999 192.77711999999997,938.2968831999999 192.77711999999997C940.8240831999999 192.91751999999997,942.3123231999999 194.57423999999997,942.3123231999999 196.65215999999998C942.3123231999999 197.66303999999997,941.9753632 198.81431999999998,941.1329632 199.90943999999996C939.5324032 202.07159999999996,936.9209632 203.25095999999996,934.6464831999999 203.25095999999996C932.8774431999999 203.25095999999996,931.3611232 202.54895999999997,930.6310431999999 201.11687999999998C930.4064031999999 200.55527999999998,930.2940831999999 200.02175999999997,930.2940831999999 199.43207999999998C930.2940831999999 196.37135999999998,933.7198431999999 192.97367999999997,937.6510431999999 192.77711999999997">
</path>
</g>
</g>
<g class="vf-modifiers">
</g>
</g>
<g class="vf-stavenote" id="vf-auto11244">
<g class="vf-note" pointer-events="bounding-box">
<g class="vf-notehead" pointer-events="bounding-box">
<path stroke-width="0.3" fill="#000000" stroke="none" stroke-dasharray="none" d="M960.2030639999999 197.99999999999997M967.5600239999999 192.77711999999997C967.672344 192.77711999999997,967.8408239999999 192.77711999999997,967.8689039999999 192.77711999999997C967.8689039999999 192.77711999999997,967.896984 192.77711999999997,967.896984 192.77711999999997C967.896984 192.77711999999997,968.0654639999999 192.77711999999997,968.2058639999999 192.77711999999997C970.7330639999999 192.91751999999997,972.2213039999999 194.57423999999997,972.2213039999999 196.65215999999998C972.2213039999999 197.66303999999997,971.8843439999999 198.81431999999998,971.041944 199.90943999999996C969.441384 202.07159999999996,966.829944 203.25095999999996,964.5554639999999 203.25095999999996C962.7864239999999 203.25095999999996,961.270104 202.54895999999997,960.5400239999999 201.11687999999998C960.3153839999999 200.55527999999998,960.2030639999999 200.02175999999997,960.2030639999999 199.43207999999998C960.2030639999999 196.37135999999998,963.6288239999999 192.97367999999997,967.5600239999999 192.77711999999997">
</path>
</g>
</g>
<g class="vf-modifiers">
</g>
</g>
<path stroke-width="1.5" fill="none" stroke="#000000" stroke-dasharray="none" d="M445.24436159999993 197.99999999999997L445.24436159999993 163.74999999999997">
</path>
<path stroke-width="1.5" fill="none" stroke="#000000" stroke-dasharray="none" d="M475.15334239999993 197.99999999999997L475.15334239999993 163.74999999999997">
</path>
<path stroke-width="1.5" fill="none" stroke="#000000" stroke-dasharray="none" d="M505.0623231999999 197.99999999999997L505.0623231999999 163.74999999999997">
</path>
<path stroke-width="1.5" fill="none" stroke="#000000" stroke-dasharray="none" d="M534.9713039999999 197.99999999999997L534.9713039999999 163.74999999999997">
</path>
<path stroke-width="0.3" fill="#000000" stroke="none" stroke-dasharray="none" d="M444.49436159999993 162.99999999999997L444.49436159999993 167.99999999999997L535.2213039999999 167.99999999999997L535.2213039999999 162.99999999999997Z">
</path>
<path stroke-width="0.3" fill="#000000" stroke="none" stroke-dasharray="none" d="M444.49436159999993 170.49999999999997L444.49436159999993 175.49999999999997L535.2213039999999 175.49999999999997L535.2213039999999 170.49999999999997Z">
</path>
<path stroke-width="1.5" fill="none" stroke="#000000" stroke-dasharray="none" d="M590.7443615999999 197.99999999999997L590.7443615999999 163.74999999999997">
</path>
<path stroke-width="1.5" fill="none" stroke="#000000" stroke-dasharray="none" d="M620.6533423999999 197.99999999999997L620.6533423999999 163.74999999999997">
</path>
<path stroke-width="1.5" fill="none" stroke="#000000" stroke-dasharray="none" d="M650.5623231999999 197.99999999999997L650.5623231999999 163.74999999999997">
</path>
<path stroke-width="1.5" fill="none" stroke="#000000" stroke-dasharray="none" d="M680.4713039999999 197.99999999999997L680.4713039999999 163.74999999999997">
</path>
<path stroke-width="0.3" fill="#000000" stroke="none" stroke-dasharray="none" d="M589.9943615999999 162.99999999999997L589.9943615999999 167.99999999999997L680.7213039999999 167.99999999999997L680.7213039999999 162.99999999999997Z">
</path>
<path stroke-width="0.3" fill="#000000" stroke="none" stroke-dasharray="none" d="M589.9943615999999 170.49999999999997L589.9943615999999 175.49999999999997L680.7213039999999 175.49999999999997L680.7213039999999 170.49999999999997Z">
</path>
<path stroke-width="1.5" fill="none" stroke="#000000" stroke-dasharray="none" d="M736.2443615999999 197.99999999999997L736.2443615999999 163.74999999999997">
</path>
<path stroke-width="1.5" fill="none" stroke="#000000" stroke-dasharray="none" d="M766.1533423999998 197.99999999999997L766.1533423999998 163.74999999999997">
</path>
<path stroke-width="1.5" fill="none" stroke="#000000" stroke-dasharray="none" d="M796.0623231999999 197.99999999999997L796.0623231999999 163.74999999999997">
</path>
<path stroke-width="1.5" fill="none" stroke="#000000" stroke-dasharray="none" d="M825.9713039999999 197.99999999999997L825.9713039999999 163.74999999999997">
</path>
<path stroke-width="0.3" fill="#000000" stroke="none" stroke-dasharray="none" d="M735.4943615999999 162.99999999999997L735.4943615999999 167.99999999999997L826.2213039999999 167.99999999999997L826.2213039999999 162.99999999999997Z">
</path>
<path stroke-width="0.3" fill="#000000" stroke="none" stroke-dasharray="none" d="M735.4943615999999 170.49999999999997L735.4943615999999 175.49999999999997L826.2213039999999 175.49999999999997L826.2213039999999 170.49999999999997Z">
</path>
<path stroke-width="1.5" fill="none" stroke="#000000" stroke-dasharray="none" d="M881.7443615999999 197.99999999999997L881.7443615999999 163.74999999999997">
</path>
<path stroke-width="1.5" fill="none" stroke="#000000" stroke-dasharray="none" d="M911.6533423999999 197.99999999999997L911.6533423999999 163.74999999999997">
</path>
<path stroke-width="1.5" fill="none" stroke="#000000" stroke-dasharray="none" d="M941.5623231999999 197.99999999999997L941.5623231999999 163.74999999999997">
</path>
<path stroke-width="1.5" fill="none" stroke="#000000" stroke-dasharray="none" d="M971.4713039999999 197.99999999999997L971.4713039999999 163.74999999999997">
</path>
<path stroke-width="0.3" fill="#000000" stroke="none" stroke-dasharray="none" d="M880.9943615999999 162.99999999999997L880.9943615999999 167.99999999999997L971.7213039999999 167.99999999999997L971.7213039999999 162.99999999999997Z">
</path>
<path stroke-width="0.3" fill="#000000" stroke="none" stroke-dasharray="none" d="M880.9943615999999 170.49999999999997L880.9943615999999 175.49999999999997L971.7213039999999 175.49999999999997L971.7213039999999 170.49999999999997Z">
</path>
</svg>