<svg width="1536" height="331.99999999999994" viewBox="0 0 1536 331.99999999999994">
<path stroke-width="1" fill="none" stroke="black" stroke-dasharray="none" d="M50 197.99999999999997L391.1120447999999 197.99999999999997">
</path>
<rect stroke-width="0.3" fill="black" stroke="black" stroke-dasharray="none" x="391.1120447999999" y="177.49999999999997" width="1" height="41">
</rect>
<path stroke-width="0.3" fill="black" stroke="none" stroke-dasharray="none" d="M55 197.99999999999997M55 197.99999999999997L55 188.00639999999999L57.1888 188.00639999999999L59.4064 188.00639999999999L59.4064 197.99999999999997L59.4064 208.02239999999998L57.1888 208.02239999999998L55 208.02239999999998L55 197.99999999999997M63.870400000000004 198.02879999999996L63.870400000000004 188.00639999999999L66.1168 188.00639999999999L68.3632 188.00639999999999L68.3632 198.02879999999996L68.3632 208.02239999999998L66.1168 208.02239999999998L63.870400000000004 208.02239999999998L63.870400000000004 198.02879999999996">
</path>
<path stroke-width="0.3" fill="black" stroke="none" stroke-dasharray="none" d="M96 197.99999999999997M101.0112 179.65439999999998C101.04 179.62559999999996,101.4432 179.62559999999996,102.6816 179.62559999999996C103.056 179.62559999999996,103.4592 179.62559999999996,103.9776 179.62559999999996L106.8864 179.62559999999996L106.9728 179.71199999999996C107.1168 179.79839999999996,107.2032 179.94239999999996,107.2032 180.05759999999998C107.2032 180.23039999999997,107.1168 180.34559999999996,107.0016 180.46079999999998C106.9728 180.54719999999998,106.7136 180.77759999999998,106.5408 181.03679999999997L105.0144 182.79359999999997L103.056 185.01119999999997L102.0192 186.19199999999998L100.464 187.97759999999997L98.4192 190.31039999999996C98.0736 190.74239999999998,97.6992 191.08799999999997,97.6992 191.08799999999997C97.6992 191.08799999999997,97.6992 191.08799999999997,97.6992 191.08799999999997C97.6992 191.14559999999997,97.9584 191.14559999999997,100.3488 191.14559999999997L102.9696 191.14559999999997L102.9696 189.27359999999996C102.9696 187.37279999999998,102.9696 187.34399999999997,102.9984 187.31519999999998C103.056 187.22879999999998,103.3152 186.91199999999998,104.3232 185.73119999999997L104.7264 185.29919999999998L105.1296 184.86719999999997L105.7344 184.08959999999996L106.368 183.42719999999997L106.6848 183.02399999999997C106.8 182.85119999999998,106.9728 182.82239999999996,107.1168 182.82239999999996C107.28960000000001 182.82239999999996,107.4336 182.90879999999999,107.52 183.05279999999996C107.5488 183.13919999999996,107.5488 183.19679999999997,107.5488 185.32799999999997C107.5488 185.81759999999997,107.5488 186.42239999999998,107.5488 187.14239999999998L107.5488 191.14559999999997L108.2688 191.14559999999997C108.9312 191.14559999999997,108.96 191.14559999999997,109.0464 191.17439999999996C109.2768 191.26079999999996,109.392 191.49119999999996,109.392 191.75039999999998C109.392 191.89439999999996,109.3632 192.06719999999999,109.248 192.18239999999997C109.0752 192.32639999999998,109.0464 192.32639999999998,108.2688 192.32639999999998L107.5488 192.32639999999998L107.5488 192.81599999999997C107.5776 194.28479999999996,107.8656 194.86079999999998,108.9888 195.46559999999997C109.392 195.66719999999998,109.4784 195.72479999999996,109.4784 196.01279999999997C109.4784 196.21439999999998,109.4208 196.30079999999998,109.2768 196.41599999999997L109.1904 196.44479999999996L105.2448 196.44479999999996L101.328 196.44479999999996L101.2416 196.41599999999997C101.0688 196.30079999999998,101.04 196.21439999999998,101.04 196.01279999999997C101.04 195.72479999999996,101.0688 195.66719999999998,101.5008 195.46559999999997C102.624 194.86079999999998,102.912 194.28479999999996,102.912 192.81599999999997L102.912 192.32639999999998L99.6 192.32639999999998C98.9952 192.38399999999996,98.5056 192.38399999999996,98.1024 192.38399999999996C96.288 192.38399999999996,96.2592 192.32639999999998,96.2304 192.32639999999998C96.0576 192.26879999999997,96 192.09599999999998,96 191.89439999999996C96 191.89439999999996,96 191.89439999999996,96 191.89439999999996C96 191.69279999999998,96 191.69279999999998,96.576 191.0304C98.9952 188.09279999999998,100.6944 183.83039999999997,100.6944 180.43199999999996C100.6944 179.91359999999997,100.7808 179.74079999999998,101.0112 179.65439999999998M102.7392 198.02879999999996L102.768 198.02879999999996L102.6816 198.02879999999996L102.7392 198.02879999999996M102.7392 178.61759999999998L102.768 178.61759999999998L102.6816 178.61759999999998L102.7392 178.61759999999998">
</path>
<path stroke-width="0.3" fill="black" stroke="none" stroke-dasharray="none" d="M96 217.99999999999997M101.0112 199.65439999999998C101.04 199.62559999999996,101.4432 199.62559999999996,102.6816 199.62559999999996C103.056 199.62559999999996,103.4592 199.62559999999996,103.9776 199.62559999999996L106.8864 199.62559999999996L106.9728 199.71199999999996C107.1168 199.79839999999996,107.2032 199.94239999999996,107.2032 200.05759999999998C107.2032 200.23039999999997,107.1168 200.34559999999996,107.0016 200.46079999999998C106.9728 200.54719999999998,106.7136 200.77759999999998,106.5408 201.03679999999997L105.0144 202.79359999999997L103.056 205.01119999999997L102.0192 206.19199999999998L100.464 207.97759999999997L98.4192 210.31039999999996C98.0736 210.74239999999998,97.6992 211.08799999999997,97.6992 211.08799999999997C97.6992 211.08799999999997,97.6992 211.08799999999997,97.6992 211.08799999999997C97.6992 211.14559999999997,97.9584 211.14559999999997,100.3488 211.14559999999997L102.9696 211.14559999999997L102.9696 209.27359999999996C102.9696 207.37279999999998,102.9696 207.34399999999997,102.9984 207.31519999999998C103.056 207.22879999999998,103.3152 206.91199999999998,104.3232 205.73119999999997L104.7264 205.29919999999998L105.1296 204.86719999999997L105.7344 204.08959999999996L106.368 203.42719999999997L106.6848 203.02399999999997C106.8 202.85119999999998,106.9728 202.82239999999996,107.1168 202.82239999999996C107.28960000000001 202.82239999999996,107.4336 202.90879999999999,107.52 203.05279999999996C107.5488 203.13919999999996,107.5488 203.19679999999997,107.5488 205.32799999999997C107.5488 205.81759999999997,107.5488 206.42239999999998,107.5488 207.14239999999998L107.5488 211.14559999999997L108.2688 211.14559999999997C108.9312 211.14559999999997,108.96 211.14559999999997,109.0464 211.17439999999996C109.2768 211.26079999999996,109.392 211.49119999999996,109.392 211.75039999999998C109.392 211.89439999999996,109.3632 212.06719999999999,109.248 212.18239999999997C109.0752 212.32639999999998,109.0464 212.32639999999998,108.2688 212.32639999999998L107.5488 212.32639999999998L107.5488 212.81599999999997C107.5776 214.28479999999996,107.8656 214.86079999999998,108.9888 215.46559999999997C109.392 215.66719999999998,109.4784 215.72479999999996,109.4784 216.01279999999997C109.4784 216.21439999999998,109.4208 216.30079999999998,109.2768 216.41599999999997L109.1904 216.44479999999996L105.2448 216.44479999999996L101.328 216.44479999999996L101.2416 216.41599999999997C101.0688 216.30079999999998,101.04 216.21439999999998,101.04 216.01279999999997C101.04 215.72479999999996,101.0688 215.66719999999998,101.5008 215.46559999999997C102.624 214.86079999999998,102.912 214.28479999999996,102.912 212.81599999999997L102.912 212.32639999999998L99.6 212.32639999999998C98.9952 212.38399999999996,98.5056 212.38399999999996,98.1024 212.38399999999996C96.288 212.38399999999996,96.2592 212.32639999999998,96.2304 212.32639999999998C96.0576 212.26879999999997,96 212.09599999999998,96 211.89439999999996C96 211.89439999999996,96 211.89439999999996,96 211.89439999999996C96 211.69279999999998,96 211.69279999999998,96.576 211.0304C98.9952 208.09279999999998,100.6944 203.83039999999997,100.6944 200.43199999999996C100.6944 199.91359999999997,100.7808 199.74079999999998,101.0112 199.65439999999998M102.7392 218.02879999999996L102.768 218.02879999999996L102.6816 218.02879999999996L102.7392 218.02879999999996M102.7392 198.61759999999998L102.768 198.61759999999998L102.6816 198.61759999999998L102.7392 198.61759999999998">
</path>
<g class="vf-stavenote" id="vf-auto29728">
<g class="vf-note" pointer-events="bounding-box">
<g class="vf-notehead" pointer-events="bounding-box">
<path stroke-width="0.3" fill="#000000" stroke="none" stroke-dasharray="none" d="M121.4784 197.99999999999997M128.83535999999998 192.77711999999997C128.94768 192.77711999999997,129.11615999999998 192.77711999999997,129.14424 192.77711999999997C129.14424 192.77711999999997,129.17231999999998 192.77711999999997,129.17231999999998 192.77711999999997C129.17231999999998 192.77711999999997,129.3408 192.77711999999997,129.4812 192.77711999999997C132.0084 192.91751999999997,133.49663999999999 194.57423999999997,133.49663999999999 196.65215999999998C133.49663999999999 197.66303999999997,133.15967999999998 198.81431999999998,132.31727999999998 199.90943999999996C130.71671999999998 202.07159999999996,128.10528 203.25095999999996,125.8308 203.25095999999996C124.06175999999999 203.25095999999996,122.54544 202.54895999999997,121.81536 201.11687999999998C121.59071999999999 200.55527999999998,121.4784 200.02175999999997,121.4784 199.43207999999998C121.4784 196.37135999999998,124.90415999999999 192.97367999999997,128.83535999999998 192.77711999999997">
</path>
</g>
</g>
<g class="vf-modifiers">
</g>
</g>
<g class="vf-stavenote" id="vf-auto29738">
<g class="vf-note" pointer-events="bounding-box">
<g class="vf-notehead" pointer-events="bounding-box">
<path stroke-width="0.3" fill="#000000" stroke="none" stroke-dasharray="none" d="M155.4186 197.99999999999997M162.77555999999998 192.77711999999997C162.88788 192.77711999999997,163.05635999999998 192.77711999999997,163.08444 192.77711999999997C163.08444 192.77711999999997,163.11252 192.77711999999997,163.11252 192.77711999999997C163.11252 192.77711999999997,163.281 192.77711999999997,163.4214 192.77711999999997C165.9486 192.91751999999997,167.43684 194.57423999999997,167.43684 196.65215999999998C167.43684 197.66303999999997,167.09987999999998 198.81431999999998,166.25748 199.90943999999996C164.65691999999999 202.07159999999996,162.04548 203.25095999999996,159.771 203.25095999999996C158.00196 203.25095999999996,156.48564 202.54895999999997,155.75556 201.11687999999998C155.53092 200.55527999999998,155.4186 200.02175999999997,155.4186 199.43207999999998C155.4186 196.37135999999998,158.84436 192.97367999999997,162.77555999999998 192.77711999999997">
</path>
</g>
</g>
<g class="vf-modifiers">
</g>
</g>
<g class="vf-stavenote" id="vf-auto29748">
<g class="vf-note" pointer-events="bounding-box">
<g class="vf-notehead" pointer-events="bounding-box">
<path stroke-width="0.3" fill="#000000" stroke="none" stroke-dasharray="none" d="M189.3588 197.99999999999997M196.71576 192.77711999999997C196.82808 192.77711999999997,196.99656 192.77711999999997,197.02464 192.77711999999997C197.02464 192.77711999999997,197.05272 192.77711999999997,197.05272 192.77711999999997C197.05272 192.77711999999997,197.2212 192.77711999999997,197.3616 192.77711999999997C199.8888 192.91751999999997,201.37704 194.57423999999997,201.37704 196.65215999999998C201.37704 197.66303999999997,201.04008 198.81431999999998,200.19768 199.90943999999996C198.59712 202.07159999999996,195.98568 203.25095999999996,193.7112 203.25095999999996C191.94216 203.25095999999996,190.42584 202.54895999999997,189.69576 201.11687999999998C189.47112 200.55527999999998,189.3588 200.02175999999997,189.3588 199.43207999999998C189.3588 196.37135999999998,192.78456 192.97367999999997,196.71576 192.77711999999997">
</path>
</g>
</g>
<g class="vf-modifiers">
</g>
</g>
<g class="vf-stavenote" id="vf-auto29758">
<g class="vf-note" pointer-events="bounding-box">
<g class="vf-notehead" pointer-events="bounding-box">
<path stroke-width="0.3" fill="#000000" stroke="none" stroke-dasharray="none" d="M223.299 197.99999999999997M230.65596 192.77711999999997C230.76828 192.77711999999997,230.93676 192.77711999999997,230.96484 192.77711999999997C230.96484 192.77711999999997,230.99292 192.77711999999997,230.99292 192.77711999999997C230.99292 192.77711999999997,231.16140000000001 192.77711999999997,231.30180000000001 192.77711999999997C233.829 192.91751999999997,235.31724 194.57423999999997,235.31724 196.65215999999998C235.31724 197.66303999999997,234.98028 198.81431999999998,234.13788 199.90943999999996C232.53732 202.07159999999996,229.92588 203.25095999999996,227.6514 203.25095999999996C225.88236 203.25095999999996,224.36604 202.54895999999997,223.63596 201.11687999999998C223.41132000000002 200.55527999999998,223.299 200.02175999999997,223.299 199.43207999999998C223.299 196.37135999999998,226.72476 192.97367999999997,230.65596 192.77711999999997">
</path>
</g>
</g>
<g class="vf-modifiers">
</g>
</g>
<g class="vf-stavenote" id="vf-auto29768">
<g class="vf-note" pointer-events="bounding-box">
<g class="vf-notehead" pointer-events="bounding-box">
<path stroke-width="0.3" fill="#000000" stroke="none" stroke-dasharray="none" d="M257.2392 197.99999999999997M264.59616 192.77711999999997C264.70848 192.77711999999997,264.87696 192.77711999999997,264.90504 192.77711999999997C264.90504 192.77711999999997,264.93312 192.77711999999997,264.93312 192.77711999999997C264.93312 192.77711999999997,265.10159999999996 192.77711999999997,265.24199999999996 192.77711999999997C267.76919999999996 192.91751999999997,269.25744 194.57423999999997,269.25744 196.65215999999998C269.25744 197.66303999999997,268.92048 198.81431999999998,268.07808 199.90943999999996C266.47751999999997 202.07159999999996,263.86608 203.25095999999996,261.59159999999997 203.25095999999996C259.82256 203.25095999999996,258.30624 202.54895999999997,257.57615999999996 201.11687999999998C257.35152 200.55527999999998,257.2392 200.02175999999997,257.2392 199.43207999999998C257.2392 196.37135999999998,260.66496 192.97367999999997,264.59616 192.77711999999997">
</path>
</g>
</g>
<g class="vf-modifiers">
</g>
</g>
<g class="vf-stavenote" id="vf-auto29778">
<g class="vf-note" pointer-events="bounding-box">
<g class="vf-notehead" pointer-events="bounding-box">
<path stroke-width="0.3" fill="#000000" stroke="none" stroke-dasharray="none" d="M291.1794 197.99999999999997M298.53636 192.77711999999997C298.64868 192.77711999999997,298.81716 192.77711999999997,298.84524 192.77711999999997C298.84524 192.77711999999997,298.87332 192.77711999999997,298.87332 192.77711999999997C298.87332 192.77711999999997,299.04179999999997 192.77711999999997,299.18219999999997 192.77711999999997C301.70939999999996 192.91751999999997,303.19764 194.57423999999997,303.19764 196.65215999999998C303.19764 197.66303999999997,302.86068 198.81431999999998,302.01828 199.90943999999996C300.41772 202.07159999999996,297.80628 203.25095999999996,295.5318 203.25095999999996C293.76276 203.25095999999996,292.24644 202.54895999999997,291.51635999999996 201.11687999999998C291.29172 200.55527999999998,291.1794 200.02175999999997,291.1794 199.43207999999998C291.1794 196.37135999999998,294.60516 192.97367999999997,298.53636 192.77711999999997">
</path>
</g>
</g>
<g class="vf-modifiers">
</g>
</g>
<g class="vf-stavenote" id="vf-auto29788">
<g class="vf-note" pointer-events="bounding-box">
<g class="vf-notehead" pointer-events="bounding-box">
<path stroke-width="0.3" fill="#000000" stroke="none" stroke-dasharray="none" d="M325.1196 197.99999999999997M332.47656 192.77711999999997C332.58888 192.77711999999997,332.75736 192.77711999999997,332.78544 192.77711999999997C332.78544 192.77711999999997,332.81352 192.77711999999997,332.81352 192.77711999999997C332.81352 192.77711999999997,332.98199999999997 192.77711999999997,333.12239999999997 192.77711999999997C335.64959999999996 192.91751999999997,337.13784 194.57423999999997,337.13784 196.65215999999998C337.13784 197.66303999999997,336.80088 198.81431999999998,335.95848 199.90943999999996C334.35792 202.07159999999996,331.74648 203.25095999999996,329.472 203.25095999999996C327.70296 203.25095999999996,326.18664 202.54895999999997,325.45655999999997 201.11687999999998C325.23192 200.55527999999998,325.1196 200.02175999999997,325.1196 199.43207999999998C325.1196 196.37135999999998,328.54536 192.97367999999997,332.47656 192.77711999999997">
</path>
</g>
</g>
<g class="vf-modifiers">
</g>
</g>
<g class="vf-stavenote" id="vf-auto29798">
<g class="vf-note" pointer-events="bounding-box">
<g class="vf-notehead" pointer-events="bounding-box">
<path stroke-width="0.3" fill="#000000" stroke="none" stroke-dasharray="none" d="M359.0598 197.99999999999997M366.41676 192.77711999999997C366.52908 192.77711999999997,366.69756 192.77711999999997,366.72564 192.77711999999997C366.72564 192.77711999999997,366.75372 192.77711999999997,366.75372 192.77711999999997C366.75372 192.77711999999997,366.9222 192.77711999999997,367.0626 192.77711999999997C369.58979999999997 192.91751999999997,371.07804 194.57423999999997,371.07804 196.65215999999998C371.07804 197.66303999999997,370.74108 198.81431999999998,369.89868 199.90943999999996C368.29812 202.07159999999996,365.68668 203.25095999999996,363.4122 203.25095999999996C361.64316 203.25095999999996,360.12684 202.54895999999997,359.39676 201.11687999999998C359.17212 200.55527999999998,359.0598 200.02175999999997,359.0598 199.43207999999998C359.0598 196.37135999999998,362.48556 192.97367999999997,366.41676 192.77711999999997">
</path>
</g>
</g>
<g class="vf-modifiers">
</g>
</g>
<path stroke-width="1.5" fill="none" stroke="#000000" stroke-dasharray="none" d="M132.74663999999999 197.99999999999997L132.74663999999999 163.74999999999997">
</path>
<path stroke-width="1.5" fill="none" stroke="#000000" stroke-dasharray="none" d="M166.68684 197.99999999999997L166.68684 163.74999999999997">
</path>
<path stroke-width="1.5" fill="none" stroke="#000000" stroke-dasharray="none" d="M200.62704 197.99999999999997L200.62704 163.74999999999997">
</path>
<path stroke-width="1.5" fill="none" stroke="#000000" stroke-dasharray="none" d="M234.56724 197.99999999999997L234.56724 163.74999999999997">
</path>
<path stroke-width="0.3" fill="#000000" stroke="none" stroke-dasharray="none" d="M131.99663999999999 162.99999999999997L131.99663999999999 167.99999999999997L234.81724 167.99999999999997L234.81724 162.99999999999997Z">
</path>
<path stroke-width="1.5" fill="none" stroke="#000000" stroke-dasharray="none" d="M268.50744 197.99999999999997L268.50744 163.74999999999997">
</path>
<path stroke-width="1.5" fill="none" stroke="#000000" stroke-dasharray="none" d="M302.44764 197.99999999999997L302.44764 163.74999999999997">
</path>
<path stroke-width="1.5" fill="none" stroke="#000000" stroke-dasharray="none" d="M336.38784 197.99999999999997L336.38784 163.74999999999997">
</path>
<path stroke-width="1.5" fill="none" stroke="#000000" stroke-dasharray="none" d="M370.32804 197.99999999999997L370.32804 163.74999999999997">
</path>
<path stroke-width="0.3" fill="#000000" stroke="none" stroke-dasharray="none" d="M267.75744 162.99999999999997L267.75744 167.99999999999997L370.57804 167.99999999999997L370.57804 162.99999999999997Z">
</path>
<path stroke-width="1" fill="none" stroke="black" stroke-dasharray="none" d="M391.1120447999999 197.99999999999997L1050.048842752 197.99999999999997">
</path>
<rect stroke-width="0.3" fill="black" stroke="black" stroke-dasharray="none" x="1045.048842752" y="177.49999999999997" width="1" height="41">
</rect>
<rect stroke-width="0.3" fill="black" stroke="black" stroke-dasharray="none" x="1048.048842752" y="177.49999999999997" width="3" height="41">
</rect>
<path stroke-width="0.3" fill="black" stroke="none" stroke-dasharray="none" d="M1044.048842752 193.49999999999997 A2 2 0 0 0 1040.048842752 193.49999999999997M1040.048842752 193.49999999999997 A2 2 0 0 0 1044.048842752 193.49999999999997">
</path>
<path stroke-width="0.3" fill="black" stroke="none" stroke-dasharray="none" d="M1044.048842752 203.49999999999997 A2 2 0 0 0 1040.048842752 203.49999999999997M1040.048842752 203.49999999999997 A2 2 0 0 0 1044.048842752 203.49999999999997">
</path>
<g class="vf-stavenote" id="vf-auto29811">
<g class="vf-note" pointer-events="bounding-box">
<g class="vf-notehead" pointer-events="bounding-box">
<path stroke-width="0.3" fill="#000000" stroke="none" stroke-dasharray="none" d="M433.97612159999994 197.99999999999997M441.33308159999996 192.77711999999997C441.44540159999997 192.77711999999997,441.61388159999996 192.77711999999997,441.64196159999995 192.77711999999997C441.64196159999995 192.77711999999997,441.67004159999993 192.77711999999997,441.67004159999993 192.77711999999997C441.67004159999993 192.77711999999997,441.8385215999999 192.77711999999997,441.9789215999999 192.77711999999997C444.5061215999999 192.91751999999997,445.99436159999993 194.57423999999997,445.99436159999993 196.65215999999998C445.99436159999993 197.66303999999997,445.65740159999996 198.81431999999998,444.81500159999996 199.90943999999996C443.21444159999993 202.07159999999996,440.60300159999997 203.25095999999996,438.32852159999993 203.25095999999996C436.55948159999997 203.25095999999996,435.04316159999996 202.54895999999997,434.3130815999999 201.11687999999998C434.08844159999995 200.55527999999998,433.97612159999994 200.02175999999997,433.97612159999994 199.43207999999998C433.97612159999994 196.37135999999998,437.40188159999997 192.97367999999997,441.33308159999996 192.77711999999997">
</path>
</g>
</g>
<g class="vf-modifiers">
<g class="vf-stavenote" id="vf-auto29821">
<g class="vf-note" pointer-events="bounding-box">
<g class="vf-stem" pointer-events="bounding-box">
<path stroke-width="1.5" fill="none" stroke="#000000" stroke-dasharray="none" d="M415.29408319999993 197.99999999999997L415.29408319999993 174.89999999999998">
</path>
</g>
<g class="vf-notehead" pointer-events="bounding-box">
<path stroke-width="0.3" fill="#000000" stroke="none" stroke-dasharray="none" d="M408.1120447999999 197.99999999999997M412.96763839999994 194.55289919999998C413.0417695999999 194.55289919999998,413.1529663999999 194.55289919999998,413.1714991999999 194.55289919999998C413.1714991999999 194.55289919999998,413.1900319999999 194.55289919999998,413.1900319999999 194.55289919999998C413.1900319999999 194.55289919999998,413.30122879999993 194.55289919999998,413.39389279999995 194.55289919999998C415.0618447999999 194.64556319999997,416.04408319999993 195.73899839999996,416.04408319999993 197.11042559999999C416.04408319999993 197.77760639999997,415.8216895999999 198.53745119999996,415.26570559999993 199.26023039999998C414.2093359999999 200.68725599999996,412.48578559999993 201.46563359999996,410.98462879999994 201.46563359999996C409.81706239999994 201.46563359999996,408.8162911999999 201.00231359999998,408.3344383999999 200.05714079999998C408.18617599999993 199.68648479999996,408.1120447999999 199.33436159999997,408.1120447999999 198.94517279999997C408.1120447999999 196.92509759999996,410.3730463999999 194.68262879999997,412.96763839999994 194.55289919999998">
</path>
</g>
<g class="vf-flag" pointer-events="bounding-box">
<path stroke-width="0.3" fill="#000000" stroke="none" stroke-dasharray="none" d="M415.29408319999993 172.89999999999998M414.8492959999999 175.88378079999998L414.8492959999999 172.992664L414.92342719999994 172.992664C415.1272879999999 172.992664,415.2570175999999 173.12239359999998,415.29408319999993 173.34478719999998C415.68327199999993 175.19806719999997,416.85083839999993 177.21814239999998,418.46319199999994 178.73783199999997C420.2608735999999 180.42431679999999,421.16898079999993 182.74091679999998,421.16898079999993 185.13164799999998C421.16898079999993 187.39264959999997,420.3720703999999 189.74631519999997,418.7597167999999 191.69225919999997C418.48172479999994 192.06291519999996,418.46319199999994 192.06291519999996,418.2778639999999 192.06291519999996C418.05547039999993 192.06291519999996,417.9072079999999 191.89611999999997,417.9072079999999 191.67372639999996C417.9072079999999 191.50693119999997,417.9257407999999 191.4698656,418.11106879999994 191.2660048C419.5195615999999 189.56098719999997,420.2238079999999 187.5038464,420.2238079999999 185.5393696C420.2238079999999 183.7972864,419.66782399999994 182.12933439999998,418.51879039999994 180.86910399999996C417.81454399999996 180.09072639999997,416.51724799999994 179.34941439999997,414.8678287999999 178.77489759999997C414.8678287999999 178.75636479999997,414.8492959999999 178.18184799999997,414.8492959999999 175.88378079999998">
</path>
</g>
</g>
<g class="vf-modifiers">
</g>
</g>
<path stroke-width="1" fill="none" stroke="#000000" stroke-dasharray="none" d="M409.1120447999999 189.74999999999997L422.1120447999999 180.74999999999997Z">
</path>
</g>
</g>
<g class="vf-stavenote" id="vf-auto29835">
<g class="vf-note" pointer-events="bounding-box">
<g class="vf-notehead" pointer-events="bounding-box">
<path stroke-width="0.3" fill="#000000" stroke="none" stroke-dasharray="none" d="M464.46459279999993 197.99999999999997M471.82155279999995 192.77711999999997C471.93387279999996 192.77711999999997,472.10235279999995 192.77711999999997,472.13043279999994 192.77711999999997C472.13043279999994 192.77711999999997,472.1585127999999 192.77711999999997,472.1585127999999 192.77711999999997C472.1585127999999 192.77711999999997,472.3269927999999 192.77711999999997,472.4673927999999 192.77711999999997C474.99459279999996 192.91751999999997,476.4828327999999 194.57423999999997,476.4828327999999 196.65215999999998C476.4828327999999 197.66303999999997,476.14587279999995 198.81431999999998,475.30347279999995 199.90943999999996C473.7029127999999 202.07159999999996,471.0914727999999 203.25095999999996,468.8169927999999 203.25095999999996C467.04795279999996 203.25095999999996,465.53163279999995 202.54895999999997,464.8015527999999 201.11687999999998C464.57691279999995 200.55527999999998,464.46459279999993 200.02175999999997,464.46459279999993 199.43207999999998C464.46459279999993 196.37135999999998,467.89035279999996 192.97367999999997,471.82155279999995 192.77711999999997">
</path>
</g>
</g>
<g class="vf-modifiers">
</g>
</g>
<g class="vf-stavenote" id="vf-auto29845">
<g class="vf-note" pointer-events="bounding-box">
<g class="vf-notehead" pointer-events="bounding-box">
<path stroke-width="0.3" fill="#000000" stroke="none" stroke-dasharray="none" d="M494.9530639999999 197.99999999999997M502.31002399999994 192.77711999999997C502.42234399999995 192.77711999999997,502.59082399999994 192.77711999999997,502.61890399999993 192.77711999999997C502.61890399999993 192.77711999999997,502.6469839999999 192.77711999999997,502.6469839999999 192.77711999999997C502.6469839999999 192.77711999999997,502.8154639999999 192.77711999999997,502.9558639999999 192.77711999999997C505.4830639999999 192.91751999999997,506.9713039999999 194.57423999999997,506.9713039999999 196.65215999999998C506.9713039999999 197.66303999999997,506.63434399999994 198.81431999999998,505.79194399999994 199.90943999999996C504.1913839999999 202.07159999999996,501.57994399999995 203.25095999999996,499.3054639999999 203.25095999999996C497.53642399999995 203.25095999999996,496.02010399999995 202.54895999999997,495.2900239999999 201.11687999999998C495.06538399999994 200.55527999999998,494.9530639999999 200.02175999999997,494.9530639999999 199.43207999999998C494.9530639999999 196.37135999999998,498.37882399999995 192.97367999999997,502.31002399999994 192.77711999999997">
</path>
</g>
</g>
<g class="vf-modifiers">
</g>
</g>
<g class="vf-stavenote" id="vf-auto29855">
<g class="vf-note" pointer-events="bounding-box">
<g class="vf-notehead" pointer-events="bounding-box">
<path stroke-width="0.3" fill="#000000" stroke="none" stroke-dasharray="none" d="M525.4415352 197.99999999999997M532.7984951999999 192.77711999999997C532.9108152 192.77711999999997,533.0792951999999 192.77711999999997,533.1073752 192.77711999999997C533.1073752 192.77711999999997,533.1354552 192.77711999999997,533.1354552 192.77711999999997C533.1354552 192.77711999999997,533.3039352 192.77711999999997,533.4443352 192.77711999999997C535.9715352 192.91751999999997,537.4597752 194.57423999999997,537.4597752 196.65215999999998C537.4597752 197.66303999999997,537.1228152 198.81431999999998,536.2804152 199.90943999999996C534.6798552 202.07159999999996,532.0684152 203.25095999999996,529.7939352 203.25095999999996C528.0248952 203.25095999999996,526.5085752 202.54895999999997,525.7784952 201.11687999999998C525.5538551999999 200.55527999999998,525.4415352 200.02175999999997,525.4415352 199.43207999999998C525.4415352 196.37135999999998,528.8672952 192.97367999999997,532.7984951999999 192.77711999999997">
</path>
</g>
</g>
<g class="vf-modifiers">
</g>
</g>
<g class="vf-stavenote" id="vf-auto29865">
<g class="vf-note" pointer-events="bounding-box">
<g class="vf-notehead" pointer-events="bounding-box">
<path stroke-width="0.3" fill="#000000" stroke="none" stroke-dasharray="none" d="M581.7940831999999 197.99999999999997M589.1510431999999 192.77711999999997C589.2633632 192.77711999999997,589.4318431999999 192.77711999999997,589.4599231999999 192.77711999999997C589.4599231999999 192.77711999999997,589.4880032 192.77711999999997,589.4880032 192.77711999999997C589.4880032 192.77711999999997,589.6564831999999 192.77711999999997,589.7968831999999 192.77711999999997C592.3240831999999 192.91751999999997,593.8123231999999 194.57423999999997,593.8123231999999 196.65215999999998C593.8123231999999 197.66303999999997,593.4753632 198.81431999999998,592.6329632 199.90943999999996C591.0324032 202.07159999999996,588.4209632 203.25095999999996,586.1464831999999 203.25095999999996C584.3774431999999 203.25095999999996,582.8611232 202.54895999999997,582.1310431999999 201.11687999999998C581.9064031999999 200.55527999999998,581.7940831999999 200.02175999999997,581.7940831999999 199.43207999999998C581.7940831999999 196.37135999999998,585.2198431999999 192.97367999999997,589.1510431999999 192.77711999999997">
</path>
</g>
</g>
<g class="vf-modifiers">
<g class="vf-stavenote" id="vf-auto29875">
<g class="vf-note" pointer-events="bounding-box">
<g class="vf-stem" pointer-events="bounding-box">
<path stroke-width="1.5" fill="none" stroke="#000000" stroke-dasharray="none" d="M563.1120447999999 197.99999999999997L563.1120447999999 174.89999999999998">
</path>
</g>
<g class="vf-notehead" pointer-events="bounding-box">
<path stroke-width="0.3" fill="#000000" stroke="none" stroke-dasharray="none" d="M555.9300063999999 197.99999999999997M560.7855999999999 194.55289919999998C560.8597311999999 194.55289919999998,560.970928 194.55289919999998,560.9894608 194.55289919999998C560.9894608 194.55289919999998,561.0079936 194.55289919999998,561.0079936 194.55289919999998C561.0079936 194.55289919999998,561.1191903999999 194.55289919999998,561.2118543999999 194.55289919999998C562.8798063999999 194.64556319999997,563.8620447999999 195.73899839999996,563.8620447999999 197.11042559999999C563.8620447999999 197.77760639999997,563.6396511999999 198.53745119999996,563.0836671999999 199.26023039999998C562.0272975999999 200.68725599999996,560.3037471999999 201.46563359999996,558.8025903999999 201.46563359999996C557.6350239999999 201.46563359999996,556.6342527999999 201.00231359999998,556.1524 200.05714079999998C556.0041375999999 199.68648479999996,555.9300063999999 199.33436159999997,555.9300063999999 198.94517279999997C555.9300063999999 196.92509759999996,558.1910079999999 194.68262879999997,560.7855999999999 194.55289919999998">
</path>
</g>
<g class="vf-flag" pointer-events="bounding-box">
<path stroke-width="0.3" fill="#000000" stroke="none" stroke-dasharray="none" d="M563.1120447999999 172.89999999999998M562.6672576 175.88378079999998L562.6672576 172.992664L562.7413887999999 172.992664C562.9452495999999 172.992664,563.0749791999999 173.12239359999998,563.1120447999999 173.34478719999998C563.5012336 175.19806719999997,564.6687999999999 177.21814239999998,566.2811535999999 178.73783199999997C568.0788352 180.42431679999999,568.9869424 182.74091679999998,568.9869424 185.13164799999998C568.9869424 187.39264959999997,568.190032 189.74631519999997,566.5776784 191.69225919999997C566.2996863999999 192.06291519999996,566.2811535999999 192.06291519999996,566.0958255999999 192.06291519999996C565.8734319999999 192.06291519999996,565.7251696 191.89611999999997,565.7251696 191.67372639999996C565.7251696 191.50693119999997,565.7437024 191.4698656,565.9290303999999 191.2660048C567.3375232 189.56098719999997,568.0417696 187.5038464,568.0417696 185.5393696C568.0417696 183.7972864,567.4857855999999 182.12933439999998,566.3367519999999 180.86910399999996C565.6325056 180.09072639999997,564.3352095999999 179.34941439999997,562.6857904 178.77489759999997C562.6857904 178.75636479999997,562.6672576 178.18184799999997,562.6672576 175.88378079999998">
</path>
</g>
</g>
<g class="vf-modifiers">
</g>
</g>
<path stroke-width="1" fill="none" stroke="#000000" stroke-dasharray="none" d="M556.9300063999999 189.74999999999997L569.9300063999999 180.74999999999997Z">
</path>
</g>
</g>
<g class="vf-stavenote" id="vf-auto29889">
<g class="vf-note" pointer-events="bounding-box">
<g class="vf-notehead" pointer-events="bounding-box">
<path stroke-width="0.3" fill="#000000" stroke="none" stroke-dasharray="none" d="M612.2825544 197.99999999999997M619.6395143999999 192.77711999999997C619.7518344 192.77711999999997,619.9203143999999 192.77711999999997,619.9483944 192.77711999999997C619.9483944 192.77711999999997,619.9764744 192.77711999999997,619.9764744 192.77711999999997C619.9764744 192.77711999999997,620.1449544 192.77711999999997,620.2853544 192.77711999999997C622.8125544 192.91751999999997,624.3007944 194.57423999999997,624.3007944 196.65215999999998C624.3007944 197.66303999999997,623.9638344 198.81431999999998,623.1214344 199.90943999999996C621.5208744 202.07159999999996,618.9094344 203.25095999999996,616.6349544 203.25095999999996C614.8659144 203.25095999999996,613.3495944 202.54895999999997,612.6195144 201.11687999999998C612.3948743999999 200.55527999999998,612.2825544 200.02175999999997,612.2825544 199.43207999999998C612.2825544 196.37135999999998,615.7083144 192.97367999999997,619.6395143999999 192.77711999999997">
</path>
</g>
</g>
<g class="vf-modifiers">
</g>
</g>
<g class="vf-stavenote" id="vf-auto29899">
<g class="vf-note" pointer-events="bounding-box">
<g class="vf-notehead" pointer-events="bounding-box">
<path stroke-width="0.3" fill="#000000" stroke="none" stroke-dasharray="none" d="M642.7710255999999 197.99999999999997M650.1279855999999 192.77711999999997C650.2403055999999 192.77711999999997,650.4087855999999 192.77711999999997,650.4368655999999 192.77711999999997C650.4368655999999 192.77711999999997,650.4649456 192.77711999999997,650.4649456 192.77711999999997C650.4649456 192.77711999999997,650.6334255999999 192.77711999999997,650.7738255999999 192.77711999999997C653.3010255999999 192.91751999999997,654.7892655999999 194.57423999999997,654.7892655999999 196.65215999999998C654.7892655999999 197.66303999999997,654.4523055999999 198.81431999999998,653.6099055999999 199.90943999999996C652.0093456 202.07159999999996,649.3979056 203.25095999999996,647.1234255999999 203.25095999999996C645.3543855999999 203.25095999999996,643.8380655999999 202.54895999999997,643.1079855999999 201.11687999999998C642.8833455999999 200.55527999999998,642.7710255999999 200.02175999999997,642.7710255999999 199.43207999999998C642.7710255999999 196.37135999999998,646.1967855999999 192.97367999999997,650.1279855999999 192.77711999999997">
</path>
</g>
</g>
<g class="vf-modifiers">
</g>
</g>
<g class="vf-stavenote" id="vf-auto29909">
<g class="vf-note" pointer-events="bounding-box">
<g class="vf-notehead" pointer-events="bounding-box">
<path stroke-width="0.3" fill="#000000" stroke="none" stroke-dasharray="none" d="M673.2594967999999 197.99999999999997M680.6164567999998 192.77711999999997C680.7287767999999 192.77711999999997,680.8972567999998 192.77711999999997,680.9253367999999 192.77711999999997C680.9253367999999 192.77711999999997,680.9534167999999 192.77711999999997,680.9534167999999 192.77711999999997C680.9534167999999 192.77711999999997,681.1218967999998 192.77711999999997,681.2622967999998 192.77711999999997C683.7894967999998 192.91751999999997,685.2777367999998 194.57423999999997,685.2777367999998 196.65215999999998C685.2777367999998 197.66303999999997,684.9407767999999 198.81431999999998,684.0983767999999 199.90943999999996C682.4978167999999 202.07159999999996,679.8863767999999 203.25095999999996,677.6118967999998 203.25095999999996C675.8428567999998 203.25095999999996,674.3265367999999 202.54895999999997,673.5964567999998 201.11687999999998C673.3718167999998 200.55527999999998,673.2594967999999 200.02175999999997,673.2594967999999 199.43207999999998C673.2594967999999 196.37135999999998,676.6852567999998 192.97367999999997,680.6164567999998 192.77711999999997">
</path>
</g>
</g>
<g class="vf-modifiers">
</g>
</g>
<g class="vf-stavenote" id="vf-auto29919">
<g class="vf-note" pointer-events="bounding-box">
<g class="vf-notehead" pointer-events="bounding-box">
<path stroke-width="0.3" fill="#000000" stroke="none" stroke-dasharray="none" d="M729.6120447999999 197.99999999999997M736.9690047999999 192.77711999999997C737.0813248 192.77711999999997,737.2498047999999 192.77711999999997,737.2778847999999 192.77711999999997C737.2778847999999 192.77711999999997,737.3059648 192.77711999999997,737.3059648 192.77711999999997C737.3059648 192.77711999999997,737.4744447999999 192.77711999999997,737.6148447999999 192.77711999999997C740.1420447999999 192.91751999999997,741.6302847999999 194.57423999999997,741.6302847999999 196.65215999999998C741.6302847999999 197.66303999999997,741.2933247999999 198.81431999999998,740.4509247999999 199.90943999999996C738.8503648 202.07159999999996,736.2389248 203.25095999999996,733.9644447999999 203.25095999999996C732.1954047999999 203.25095999999996,730.6790847999999 202.54895999999997,729.9490047999999 201.11687999999998C729.7243647999999 200.55527999999998,729.6120447999999 200.02175999999997,729.6120447999999 199.43207999999998C729.6120447999999 196.37135999999998,733.0378047999999 192.97367999999997,736.9690047999999 192.77711999999997">
</path>
</g>
</g>
<g class="vf-modifiers">
<g class="vf-stavenote" id="vf-auto29929">
<g class="vf-note" pointer-events="bounding-box">
<g class="vf-stem" pointer-events="bounding-box">
<path stroke-width="1.5" fill="none" stroke="#000000" stroke-dasharray="none" d="M710.9300063999999 197.99999999999997L710.9300063999999 174.89999999999998">
</path>
</g>
<g class="vf-notehead" pointer-events="bounding-box">
<path stroke-width="0.3" fill="#000000" stroke="none" stroke-dasharray="none" d="M703.7479679999999 197.99999999999997M708.6035615999999 194.55289919999998C708.6776927999999 194.55289919999998,708.7888896 194.55289919999998,708.8074224 194.55289919999998C708.8074224 194.55289919999998,708.8259552 194.55289919999998,708.8259552 194.55289919999998C708.8259552 194.55289919999998,708.9371519999999 194.55289919999998,709.0298159999999 194.55289919999998C710.6977679999999 194.64556319999997,711.6800063999999 195.73899839999996,711.6800063999999 197.11042559999999C711.6800063999999 197.77760639999997,711.4576127999999 198.53745119999996,710.9016287999999 199.26023039999998C709.8452591999999 200.68725599999996,708.1217087999999 201.46563359999996,706.6205519999999 201.46563359999996C705.4529855999999 201.46563359999996,704.4522143999999 201.00231359999998,703.9703615999999 200.05714079999998C703.8220991999999 199.68648479999996,703.7479679999999 199.33436159999997,703.7479679999999 198.94517279999997C703.7479679999999 196.92509759999996,706.0089695999999 194.68262879999997,708.6035615999999 194.55289919999998">
</path>
</g>
<g class="vf-flag" pointer-events="bounding-box">
<path stroke-width="0.3" fill="#000000" stroke="none" stroke-dasharray="none" d="M710.9300063999999 172.89999999999998M710.4852192 175.88378079999998L710.4852192 172.992664L710.5593503999999 172.992664C710.7632111999999 172.992664,710.8929407999999 173.12239359999998,710.9300063999999 173.34478719999998C711.3191952 175.19806719999997,712.4867615999999 177.21814239999998,714.0991151999999 178.73783199999997C715.8967968 180.42431679999999,716.804904 182.74091679999998,716.804904 185.13164799999998C716.804904 187.39264959999997,716.0079936 189.74631519999997,714.39564 191.69225919999997C714.1176479999999 192.06291519999996,714.0991151999999 192.06291519999996,713.9137871999999 192.06291519999996C713.6913935999999 192.06291519999996,713.5431312 191.89611999999997,713.5431312 191.67372639999996C713.5431312 191.50693119999997,713.561664 191.4698656,713.7469919999999 191.2660048C715.1554848 189.56098719999997,715.8597311999999 187.5038464,715.8597311999999 185.5393696C715.8597311999999 183.7972864,715.3037471999999 182.12933439999998,714.1547135999999 180.86910399999996C713.4504671999999 180.09072639999997,712.1531711999999 179.34941439999997,710.503752 178.77489759999997C710.503752 178.75636479999997,710.4852192 178.18184799999997,710.4852192 175.88378079999998">
</path>
</g>
</g>
<g class="vf-modifiers">
</g>
</g>
<path stroke-width="1" fill="none" stroke="#000000" stroke-dasharray="none" d="M704.7479679999999 189.74999999999997L717.7479679999999 180.74999999999997Z">
</path>
</g>
</g>
<g class="vf-stavenote" id="vf-auto29943">
<g class="vf-note" pointer-events="bounding-box">
<g class="vf-notehead" pointer-events="bounding-box">
<path stroke-width="0.3" fill="#000000" stroke="none" stroke-dasharray="none" d="M760.1005159999999 197.99999999999997M767.4574759999998 192.77711999999997C767.5697959999999 192.77711999999997,767.7382759999998 192.77711999999997,767.7663559999999 192.77711999999997C767.7663559999999 192.77711999999997,767.7944359999999 192.77711999999997,767.7944359999999 192.77711999999997C767.7944359999999 192.77711999999997,767.9629159999998 192.77711999999997,768.1033159999998 192.77711999999997C770.6305159999998 192.91751999999997,772.1187559999998 194.57423999999997,772.1187559999998 196.65215999999998C772.1187559999998 197.66303999999997,771.7817959999999 198.81431999999998,770.9393959999999 199.90943999999996C769.3388359999999 202.07159999999996,766.7273959999999 203.25095999999996,764.4529159999998 203.25095999999996C762.6838759999998 203.25095999999996,761.1675559999999 202.54895999999997,760.4374759999998 201.11687999999998C760.2128359999998 200.55527999999998,760.1005159999999 200.02175999999997,760.1005159999999 199.43207999999998C760.1005159999999 196.37135999999998,763.5262759999998 192.97367999999997,767.4574759999998 192.77711999999997">
</path>
</g>
</g>
<g class="vf-modifiers">
</g>
</g>
<g class="vf-stavenote" id="vf-auto29953">
<g class="vf-note" pointer-events="bounding-box">
<g class="vf-notehead" pointer-events="bounding-box">
<path stroke-width="0.3" fill="#000000" stroke="none" stroke-dasharray="none" d="M816.4530639999998 197.99999999999997M823.8100239999998 192.77711999999997C823.9223439999998 192.77711999999997,824.0908239999998 192.77711999999997,824.1189039999998 192.77711999999997C824.1189039999998 192.77711999999997,824.1469839999999 192.77711999999997,824.1469839999999 192.77711999999997C824.1469839999999 192.77711999999997,824.3154639999998 192.77711999999997,824.4558639999998 192.77711999999997C826.9830639999998 192.91751999999997,828.4713039999998 194.57423999999997,828.4713039999998 196.65215999999998C828.4713039999998 197.66303999999997,828.1343439999998 198.81431999999998,827.2919439999998 199.90943999999996C825.6913839999999 202.07159999999996,823.0799439999998 203.25095999999996,820.8054639999998 203.25095999999996C819.0364239999998 203.25095999999996,817.5201039999998 202.54895999999997,816.7900239999998 201.11687999999998C816.5653839999998 200.55527999999998,816.4530639999998 200.02175999999997,816.4530639999998 199.43207999999998C816.4530639999998 196.37135999999998,819.8788239999998 192.97367999999997,823.8100239999998 192.77711999999997">
</path>
</g>
</g>
<g class="vf-modifiers">
<g class="vf-stavenote" id="vf-auto29963">
<g class="vf-note" pointer-events="bounding-box">
<g class="vf-stem" pointer-events="bounding-box">
<path stroke-width="1.5" fill="none" stroke="#000000" stroke-dasharray="none" d="M797.7710255999998 197.99999999999997L797.7710255999998 174.89999999999998">
</path>
</g>
<g class="vf-notehead" pointer-events="bounding-box">
<path stroke-width="0.3" fill="#000000" stroke="none" stroke-dasharray="none" d="M790.5889871999998 197.99999999999997M795.4445807999998 194.55289919999998C795.5187119999998 194.55289919999998,795.6299087999998 194.55289919999998,795.6484415999998 194.55289919999998C795.6484415999998 194.55289919999998,795.6669743999998 194.55289919999998,795.6669743999998 194.55289919999998C795.6669743999998 194.55289919999998,795.7781711999997 194.55289919999998,795.8708351999998 194.55289919999998C797.5387871999998 194.64556319999997,798.5210255999998 195.73899839999996,798.5210255999998 197.11042559999999C798.5210255999998 197.77760639999997,798.2986319999998 198.53745119999996,797.7426479999998 199.26023039999998C796.6862783999998 200.68725599999996,794.9627279999997 201.46563359999996,793.4615711999998 201.46563359999996C792.2940047999998 201.46563359999996,791.2932335999998 201.00231359999998,790.8113807999998 200.05714079999998C790.6631183999998 199.68648479999996,790.5889871999998 199.33436159999997,790.5889871999998 198.94517279999997C790.5889871999998 196.92509759999996,792.8499887999998 194.68262879999997,795.4445807999998 194.55289919999998">
</path>
</g>
<g class="vf-flag" pointer-events="bounding-box">
<path stroke-width="0.3" fill="#000000" stroke="none" stroke-dasharray="none" d="M797.7710255999998 172.89999999999998M797.3262383999999 175.88378079999998L797.3262383999999 172.992664L797.4003695999997 172.992664C797.6042303999998 172.992664,797.7339599999998 173.12239359999998,797.7710255999998 173.34478719999998C798.1602143999999 175.19806719999997,799.3277807999998 177.21814239999998,800.9401343999998 178.73783199999997C802.7378159999998 180.42431679999999,803.6459231999999 182.74091679999998,803.6459231999999 185.13164799999998C803.6459231999999 187.39264959999997,802.8490127999999 189.74631519999997,801.2366591999998 191.69225919999997C800.9586671999998 192.06291519999996,800.9401343999998 192.06291519999996,800.7548063999998 192.06291519999996C800.5324127999997 192.06291519999996,800.3841503999998 191.89611999999997,800.3841503999998 191.67372639999996C800.3841503999998 191.50693119999997,800.4026831999998 191.4698656,800.5880111999998 191.2660048C801.9965039999998 189.56098719999997,802.7007503999998 187.5038464,802.7007503999998 185.5393696C802.7007503999998 183.7972864,802.1447663999998 182.12933439999998,800.9957327999998 180.86910399999996C800.2914863999998 180.09072639999997,798.9941903999998 179.34941439999997,797.3447711999999 178.77489759999997C797.3447711999999 178.75636479999997,797.3262383999999 178.18184799999997,797.3262383999999 175.88378079999998">
</path>
</g>
</g>
<g class="vf-modifiers">
</g>
</g>
<path stroke-width="1" fill="none" stroke="#000000" stroke-dasharray="none" d="M791.5889871999998 189.74999999999997L804.5889871999998 180.74999999999997Z">
</path>
</g>
</g>
<g class="vf-stavenote" id="vf-auto29977">
<g class="vf-note" pointer-events="bounding-box">
<g class="vf-notehead" pointer-events="bounding-box">
<path stroke-width="0.3" fill="#000000" stroke="none" stroke-dasharray="none" d="M846.9415351999999 197.99999999999997M854.2984951999998 192.77711999999997C854.4108151999999 192.77711999999997,854.5792951999998 192.77711999999997,854.6073751999999 192.77711999999997C854.6073751999999 192.77711999999997,854.6354551999999 192.77711999999997,854.6354551999999 192.77711999999997C854.6354551999999 192.77711999999997,854.8039351999998 192.77711999999997,854.9443351999998 192.77711999999997C857.4715351999998 192.91751999999997,858.9597751999999 194.57423999999997,858.9597751999999 196.65215999999998C858.9597751999999 197.66303999999997,858.6228151999999 198.81431999999998,857.7804151999999 199.90943999999996C856.1798551999999 202.07159999999996,853.5684151999999 203.25095999999996,851.2939351999999 203.25095999999996C849.5248951999998 203.25095999999996,848.0085751999999 202.54895999999997,847.2784951999998 201.11687999999998C847.0538551999998 200.55527999999998,846.9415351999999 200.02175999999997,846.9415351999999 199.43207999999998C846.9415351999999 196.37135999999998,850.3672951999998 192.97367999999997,854.2984951999998 192.77711999999997">
</path>
</g>
</g>
<g class="vf-modifiers">
</g>
</g>
<g class="vf-stavenote" id="vf-auto29987">
<g class="vf-note" pointer-events="bounding-box">
<g class="vf-notehead" pointer-events="bounding-box">
<path stroke-width="0.3" fill="#000000" stroke="none" stroke-dasharray="none" d="M903.2940831999999 197.99999999999997M910.6510431999999 192.77711999999997C910.7633632 192.77711999999997,910.9318431999999 192.77711999999997,910.9599231999999 192.77711999999997C910.9599231999999 192.77711999999997,910.9880032 192.77711999999997,910.9880032 192.77711999999997C910.9880032 192.77711999999997,911.1564831999999 192.77711999999997,911.2968831999999 192.77711999999997C913.8240831999999 192.91751999999997,915.3123231999999 194.57423999999997,915.3123231999999 196.65215999999998C915.3123231999999 197.66303999999997,914.9753632 198.81431999999998,914.1329632 199.90943999999996C912.5324032 202.07159999999996,909.9209632 203.25095999999996,907.6464831999999 203.25095999999996C905.8774431999999 203.25095999999996,904.3611232 202.54895999999997,903.6310431999999 201.11687999999998C903.4064031999999 200.55527999999998,903.2940831999999 200.02175999999997,903.2940831999999 199.43207999999998C903.2940831999999 196.37135999999998,906.7198431999999 192.97367999999997,910.6510431999999 192.77711999999997">
</path>
</g>
</g>
<g class="vf-modifiers">
<g class="vf-stavenote" id="vf-auto29997">
<g class="vf-note" pointer-events="bounding-box">
<g class="vf-stem" pointer-events="bounding-box">
<path stroke-width="1.5" fill="none" stroke="#000000" stroke-dasharray="none" d="M884.6120447999999 197.99999999999997L884.6120447999999 174.89999999999998">
</path>
</g>
<g class="vf-notehead" pointer-events="bounding-box">
<path stroke-width="0.3" fill="#000000" stroke="none" stroke-dasharray="none" d="M877.4300063999999 197.99999999999997M882.2855999999999 194.55289919999998C882.3597311999999 194.55289919999998,882.470928 194.55289919999998,882.4894608 194.55289919999998C882.4894608 194.55289919999998,882.5079936 194.55289919999998,882.5079936 194.55289919999998C882.5079936 194.55289919999998,882.6191903999999 194.55289919999998,882.7118543999999 194.55289919999998C884.3798063999999 194.64556319999997,885.3620447999999 195.73899839999996,885.3620447999999 197.11042559999999C885.3620447999999 197.77760639999997,885.1396511999999 198.53745119999996,884.5836671999999 199.26023039999998C883.5272975999999 200.68725599999996,881.8037471999999 201.46563359999996,880.3025903999999 201.46563359999996C879.1350239999999 201.46563359999996,878.1342527999999 201.00231359999998,877.6524 200.05714079999998C877.5041375999999 199.68648479999996,877.4300063999999 199.33436159999997,877.4300063999999 198.94517279999997C877.4300063999999 196.92509759999996,879.6910079999999 194.68262879999997,882.2855999999999 194.55289919999998">
</path>
</g>
<g class="vf-flag" pointer-events="bounding-box">
<path stroke-width="0.3" fill="#000000" stroke="none" stroke-dasharray="none" d="M884.6120447999999 172.89999999999998M884.1672576 175.88378079999998L884.1672576 172.992664L884.2413887999999 172.992664C884.4452495999999 172.992664,884.5749791999999 173.12239359999998,884.6120447999999 173.34478719999998C885.0012336 175.19806719999997,886.1687999999999 177.21814239999998,887.7811535999999 178.73783199999997C889.5788352 180.42431679999999,890.4869424 182.74091679999998,890.4869424 185.13164799999998C890.4869424 187.39264959999997,889.690032 189.74631519999997,888.0776784 191.69225919999997C887.7996863999999 192.06291519999996,887.7811535999999 192.06291519999996,887.5958255999999 192.06291519999996C887.3734319999999 192.06291519999996,887.2251696 191.89611999999997,887.2251696 191.67372639999996C887.2251696 191.50693119999997,887.2437024 191.4698656,887.4290303999999 191.2660048C888.8375232 189.56098719999997,889.5417696 187.5038464,889.5417696 185.5393696C889.5417696 183.7972864,888.9857855999999 182.12933439999998,887.8367519999999 180.86910399999996C887.1325056 180.09072639999997,885.8352095999999 179.34941439999997,884.1857904 178.77489759999997C884.1857904 178.75636479999997,884.1672576 178.18184799999997,884.1672576 175.88378079999998">
</path>
</g>
</g>
<g class="vf-modifiers">
</g>
</g>
<path stroke-width="1" fill="none" stroke="#000000" stroke-dasharray="none" d="M878.4300063999999 189.74999999999997L891.4300063999999 180.74999999999997Z">
</path>
</g>
</g>
<g class="vf-stavenote" id="vf-auto30011">
<g class="vf-note" pointer-events="bounding-box">
<g class="vf-notehead" pointer-events="bounding-box">
<path stroke-width="0.3" fill="#000000" stroke="none" stroke-dasharray="none" d="M933.7825543999999 197.99999999999997M941.1395143999998 192.77711999999997C941.2518343999999 192.77711999999997,941.4203143999998 192.77711999999997,941.4483943999999 192.77711999999997C941.4483943999999 192.77711999999997,941.4764743999999 192.77711999999997,941.4764743999999 192.77711999999997C941.4764743999999 192.77711999999997,941.6449543999998 192.77711999999997,941.7853543999998 192.77711999999997C944.3125543999998 192.91751999999997,945.8007943999999 194.57423999999997,945.8007943999999 196.65215999999998C945.8007943999999 197.66303999999997,945.4638343999999 198.81431999999998,944.6214343999999 199.90943999999996C943.0208743999999 202.07159999999996,940.4094343999999 203.25095999999996,938.1349543999999 203.25095999999996C936.3659143999998 203.25095999999996,934.8495943999999 202.54895999999997,934.1195143999998 201.11687999999998C933.8948743999998 200.55527999999998,933.7825543999999 200.02175999999997,933.7825543999999 199.43207999999998C933.7825543999999 196.37135999999998,937.2083143999998 192.97367999999997,941.1395143999998 192.77711999999997">
</path>
</g>
</g>
<g class="vf-modifiers">
</g>
</g>
<g class="vf-stavenote" id="vf-auto30021">
<g class="vf-note" pointer-events="bounding-box">
<g class="vf-notehead" pointer-events="bounding-box">
<path stroke-width="0.3" fill="#000000" stroke="none" stroke-dasharray="none" d="M990.1351023999999 197.99999999999997M997.4920623999999 192.77711999999997C997.6043824 192.77711999999997,997.7728623999999 192.77711999999997,997.8009423999999 192.77711999999997C997.8009423999999 192.77711999999997,997.8290224 192.77711999999997,997.8290224 192.77711999999997C997.8290224 192.77711999999997,997.9975023999999 192.77711999999997,998.1379023999999 192.77711999999997C1000.6651023999999 192.91751999999997,1002.1533423999999 194.57423999999997,1002.1533423999999 196.65215999999998C1002.1533423999999 197.66303999999997,1001.8163824 198.81431999999998,1000.9739824 199.90943999999996C999.3734224 202.07159999999996,996.7619824 203.25095999999996,994.4875023999999 203.25095999999996C992.7184623999999 203.25095999999996,991.2021424 202.54895999999997,990.4720623999999 201.11687999999998C990.2474223999999 200.55527999999998,990.1351023999999 200.02175999999997,990.1351023999999 199.43207999999998C990.1351023999999 196.37135999999998,993.5608623999999 192.97367999999997,997.4920623999999 192.77711999999997">
</path>
</g>
</g>
<g class="vf-modifiers">
<g class="vf-stavenote" id="vf-auto30031">
<g class="vf-note" pointer-events="bounding-box">
<g class="vf-stem" pointer-events="bounding-box">
<path stroke-width="1.5" fill="none" stroke="#000000" stroke-dasharray="none" d="M971.4530639999999 197.99999999999997L971.4530639999999 174.89999999999998">
</path>
</g>
<g class="vf-notehead" pointer-events="bounding-box">
<path stroke-width="0.3" fill="#000000" stroke="none" stroke-dasharray="none" d="M964.2710255999999 197.99999999999997M969.1266191999999 194.55289919999998C969.2007504 194.55289919999998,969.3119472 194.55289919999998,969.33048 194.55289919999998C969.33048 194.55289919999998,969.3490128 194.55289919999998,969.3490128 194.55289919999998C969.3490128 194.55289919999998,969.4602095999999 194.55289919999998,969.5528735999999 194.55289919999998C971.2208255999999 194.64556319999997,972.2030639999999 195.73899839999996,972.2030639999999 197.11042559999999C972.2030639999999 197.77760639999997,971.9806703999999 198.53745119999996,971.4246863999999 199.26023039999998C970.3683167999999 200.68725599999996,968.6447663999999 201.46563359999996,967.1436095999999 201.46563359999996C965.9760431999999 201.46563359999996,964.9752719999999 201.00231359999998,964.4934192 200.05714079999998C964.3451567999999 199.68648479999996,964.2710255999999 199.33436159999997,964.2710255999999 198.94517279999997C964.2710255999999 196.92509759999996,966.5320271999999 194.68262879999997,969.1266191999999 194.55289919999998">
</path>
</g>
<g class="vf-flag" pointer-events="bounding-box">
<path stroke-width="0.3" fill="#000000" stroke="none" stroke-dasharray="none" d="M971.4530639999999 172.89999999999998M971.0082768 175.88378079999998L971.0082768 172.992664L971.0824079999999 172.992664C971.2862687999999 172.992664,971.4159983999999 173.12239359999998,971.4530639999999 173.34478719999998C971.8422528 175.19806719999997,973.0098191999999 177.21814239999998,974.6221727999999 178.73783199999997C976.4198544 180.42431679999999,977.3279616 182.74091679999998,977.3279616 185.13164799999998C977.3279616 187.39264959999997,976.5310512 189.74631519999997,974.9186976 191.69225919999997C974.6407055999999 192.06291519999996,974.6221727999999 192.06291519999996,974.4368447999999 192.06291519999996C974.2144511999999 192.06291519999996,974.0661888 191.89611999999997,974.0661888 191.67372639999996C974.0661888 191.50693119999997,974.0847216 191.4698656,974.2700495999999 191.2660048C975.6785424 189.56098719999997,976.3827888 187.5038464,976.3827888 185.5393696C976.3827888 183.7972864,975.8268047999999 182.12933439999998,974.6777711999999 180.86910399999996C973.9735248 180.09072639999997,972.6762287999999 179.34941439999997,971.0268096 178.77489759999997C971.0268096 178.75636479999997,971.0082768 178.18184799999997,971.0082768 175.88378079999998">
</path>
</g>
</g>
<g class="vf-modifiers">
</g>
</g>
<path stroke-width="1" fill="none" stroke="#000000" stroke-dasharray="none" d="M965.2710255999999 189.74999999999997L978.2710255999999 180.74999999999997Z">
</path>
</g>
</g>
<g class="vf-stavenote" id="vf-auto30045">
<g class="vf-note" pointer-events="bounding-box">
<g class="vf-notehead" pointer-events="bounding-box">
<path stroke-width="0.3" fill="#000000" stroke="none" stroke-dasharray="none" d="M1020.6235735999999 197.99999999999997M1027.9805336 192.77711999999997C1028.0928536 192.77711999999997,1028.2613336 192.77711999999997,1028.2894135999998 192.77711999999997C1028.2894135999998 192.77711999999997,1028.3174935999998 192.77711999999997,1028.3174935999998 192.77711999999997C1028.3174935999998 192.77711999999997,1028.4859735999999 192.77711999999997,1028.6263735999999 192.77711999999997C1031.1535735999998 192.91751999999997,1032.6418136 194.57423999999997,1032.6418136 196.65215999999998C1032.6418136 197.66303999999997,1032.3048536 198.81431999999998,1031.4624536 199.90943999999996C1029.8618935999998 202.07159999999996,1027.2504536 203.25095999999996,1024.9759735999999 203.25095999999996C1023.2069335999998 203.25095999999996,1021.6906135999999 202.54895999999997,1020.9605335999998 201.11687999999998C1020.7358935999998 200.55527999999998,1020.6235735999999 200.02175999999997,1020.6235735999999 199.43207999999998C1020.6235735999999 196.37135999999998,1024.0493336 192.97367999999997,1027.9805336 192.77711999999997">
</path>
</g>
</g>
<g class="vf-modifiers">
</g>
</g>
<path stroke-width="1.5" fill="none" stroke="#000000" stroke-dasharray="none" d="M445.24436159999993 197.99999999999997L445.24436159999993 163.74999999999997">
</path>
<path stroke-width="1.5" fill="none" stroke="#000000" stroke-dasharray="none" d="M475.7328327999999 197.99999999999997L475.7328327999999 163.74999999999997">
</path>
<path stroke-width="1.5" fill="none" stroke="#000000" stroke-dasharray="none" d="M506.2213039999999 197.99999999999997L506.2213039999999 163.74999999999997">
</path>
<path stroke-width="1.5" fill="none" stroke="#000000" stroke-dasharray="none" d="M536.7097752 197.99999999999997L536.7097752 163.74999999999997">
</path>
<path stroke-width="0.3" fill="#000000" stroke="none" stroke-dasharray="none" d="M444.49436159999993 162.99999999999997L444.49436159999993 167.99999999999997L536.9597752 167.99999999999997L536.9597752 162.99999999999997Z">
</path>
<path stroke-width="0.3" fill="#000000" stroke="none" stroke-dasharray="none" d="M444.49436159999993 170.49999999999997L444.49436159999993 175.49999999999997L536.9597752 175.49999999999997L536.9597752 170.49999999999997Z">
</path>
<path stroke-width="1.5" fill="none" stroke="#000000" stroke-dasharray="none" d="M593.0623231999999 197.99999999999997L593.0623231999999 163.74999999999997">
</path>
<path stroke-width="1.5" fill="none" stroke="#000000" stroke-dasharray="none" d="M623.5507944 197.99999999999997L623.5507944 163.74999999999997">
</path>
<path stroke-width="1.5" fill="none" stroke="#000000" stroke-dasharray="none" d="M654.0392655999999 197.99999999999997L654.0392655999999 163.74999999999997">
</path>
<path stroke-width="1.5" fill="none" stroke="#000000" stroke-dasharray="none" d="M684.5277367999998 197.99999999999997L684.5277367999998 163.74999999999997">
</path>
<path stroke-width="0.3" fill="#000000" stroke="none" stroke-dasharray="none" d="M592.3123231999999 162.99999999999997L592.3123231999999 167.99999999999997L684.7777367999998 167.99999999999997L684.7777367999998 162.99999999999997Z">
</path>
<path stroke-width="0.3" fill="#000000" stroke="none" stroke-dasharray="none" d="M592.3123231999999 170.49999999999997L592.3123231999999 175.49999999999997L684.7777367999998 175.49999999999997L684.7777367999998 170.49999999999997Z">
</path>
<path stroke-width="1.5" fill="none" stroke="#000000" stroke-dasharray="none" d="M740.8802847999999 197.99999999999997L740.8802847999999 163.74999999999997">
</path>
<path stroke-width="1.5" fill="none" stroke="#000000" stroke-dasharray="none" d="M771.3687559999998 197.99999999999997L771.3687559999998 163.74999999999997">
</path>
<path stroke-width="1.5" fill="none" stroke="#000000" stroke-dasharray="none" d="M827.7213039999998 197.99999999999997L827.7213039999998 163.74999999999997">
</path>
<path stroke-width="1.5" fill="none" stroke="#000000" stroke-dasharray="none" d="M858.2097751999999 197.99999999999997L858.2097751999999 163.74999999999997">
</path>
<path stroke-width="0.3" fill="#000000" stroke="none" stroke-dasharray="none" d="M740.1302847999999 162.99999999999997L740.1302847999999 167.99999999999997L858.4597751999999 167.99999999999997L858.4597751999999 162.99999999999997Z">
</path>
<path stroke-width="0.3" fill="#000000" stroke="none" stroke-dasharray="none" d="M740.1302847999999 170.49999999999997L740.1302847999999 175.49999999999997L858.4597751999999 175.49999999999997L858.4597751999999 170.49999999999997Z">
</path>
<path stroke-width="1.5" fill="none" stroke="#000000" stroke-dasharray="none" d="M914.5623231999999 197.99999999999997L914.5623231999999 163.74999999999997">
</path>
<path stroke-width="1.5" fill="none" stroke="#000000" stroke-dasharray="none" d="M945.0507943999999 197.99999999999997L945.0507943999999 163.74999999999997">
</path>
<path stroke-width="1.5" fill="none" stroke="#000000" stroke-dasharray="none" d="M1001.4033423999999 197.99999999999997L1001.4033423999999 163.74999999999997">
</path>
<path stroke-width="1.5" fill="none" stroke="#000000" stroke-dasharray="none" d="M1031.8918136 197.99999999999997L1031.8918136 163.74999999999997">
</path>
<path stroke-width="0.3" fill="#000000" stroke="none" stroke-dasharray="none" d="M913.8123231999999 162.99999999999997L913.8123231999999 167.99999999999997L1032.1418136 167.99999999999997L1032.1418136 162.99999999999997Z">
</path>
<path stroke-width="0.3" fill="#000000" stroke="none" stroke-dasharray="none" d="M913.8123231999999 170.49999999999997L913.8123231999999 175.49999999999997L1032.1418136 175.49999999999997L1032.1418136 170.49999999999997Z">
</path>
</svg>