<svg width="1536" height="331.99999999999994" viewBox="0 0 1536 331.99999999999994">
<path stroke-width="1" fill="none" stroke="black" stroke-dasharray="none" d="M50 197.99999999999997L452.66854758399984 197.99999999999997">
</path>
<rect stroke-width="0.3" fill="black" stroke="black" stroke-dasharray="none" x="452.66854758399984" y="177.49999999999997" width="1" height="41">
</rect>
<path stroke-width="0.3" fill="black" stroke="none" stroke-dasharray="none" d="M55 197.99999999999997M55 197.99999999999997L55 188.00639999999999L57.1888 188.00639999999999L59.4064 188.00639999999999L59.4064 197.99999999999997L59.4064 208.02239999999998L57.1888 208.02239999999998L55 208.02239999999998L55 197.99999999999997M63.870400000000004 198.02879999999996L63.870400000000004 188.00639999999999L66.1168 188.00639999999999L68.3632 188.00639999999999L68.3632 198.02879999999996L68.3632 208.02239999999998L66.1168 208.02239999999998L63.870400000000004 208.02239999999998L63.870400000000004 198.02879999999996">
</path>
<path stroke-width="0.3" fill="black" stroke="none" stroke-dasharray="none" d="M96.1296 197.99999999999997M101.80319999999999 179.33759999999998C101.91839999999999 179.33759999999998,102.11999999999999 179.33759999999998,102.3504 179.33759999999998C102.8112 179.33759999999998,103.416 179.33759999999998,103.56 179.39519999999996C105.72 179.65439999999998,107.448 180.74879999999996,108.1968 182.27519999999998C108.45599999999999 182.79359999999997,108.57119999999999 183.34079999999997,108.57119999999999 183.91679999999997C108.57119999999999 185.32799999999997,107.7936 186.94079999999997,106.38239999999999 188.15039999999996C105.4032 188.98559999999998,104.42399999999999 189.50399999999996,102.8976 189.99359999999996C100.9104 190.62719999999996,99.21119999999999 191.75039999999998,98.1168 193.10399999999998C98.1168 193.10399999999998,98.1168 193.13279999999997,98.1168 193.13279999999997C98.1168 193.13279999999997,98.1168 193.13279999999997,98.1168 193.13279999999997C98.1168 193.13279999999997,98.2032 193.10399999999998,98.26079999999999 193.01759999999996C99.3552 192.12479999999996,100.824 191.60639999999998,102.1488 191.60639999999998C103.2432 191.60639999999998,104.0208 191.80799999999996,105.0576 192.38399999999996C105.6912 192.70079999999996,106.2672 192.84479999999996,106.81439999999999 192.84479999999996C107.0448 192.84479999999996,107.2752 192.84479999999996,107.53439999999999 192.78719999999998C107.9088 192.70079999999996,108.312 192.41279999999998,108.45599999999999 192.18239999999997C108.5424 191.98079999999996,108.68639999999999 191.89439999999996,108.8592 191.89439999999996C109.08959999999999 191.89439999999996,109.32 192.06719999999999,109.32 192.32639999999998C109.32 192.52799999999996,109.0608 193.24799999999996,108.8304 193.7376C107.9088 195.58079999999998,106.29599999999999 196.73279999999997,104.7408 196.73279999999997C104.62559999999999 196.73279999999997,104.5392 196.73279999999997,104.42399999999999 196.70399999999998C104.0208 196.70399999999998,103.848 196.58879999999996,103.3296 196.24319999999997C102.23519999999999 195.52319999999997,100.8528 195.14879999999997,99.6432 195.14879999999997C99.1248 195.14879999999997,98.664 195.20639999999997,98.232 195.37919999999997C97.65599999999999 195.58079999999998,97.1088 195.92639999999997,96.93599999999999 196.18559999999997C96.8496 196.38719999999998,96.70559999999999 196.44479999999996,96.5328 196.44479999999996C96.3888 196.44479999999996,96.2448 196.38719999999998,96.1584 196.21439999999998L96.10079999999999 196.128L96.10079999999999 195.72479999999996C96.10079999999999 195.37919999999997,96.1296 195.26399999999998,96.1296 195.14879999999997C96.1584 195.06239999999997,96.18719999999999 194.88959999999997,96.18719999999999 194.74559999999997C96.70559999999999 192.32639999999998,98.4624 190.16639999999998,100.8528 189.10079999999996C102.8112 188.17919999999998,104.10719999999999 186.53759999999997,104.3376 184.46399999999997C104.39519999999999 184.29119999999998,104.39519999999999 184.14719999999997,104.39519999999999 183.97439999999997C104.39519999999999 182.13119999999998,103.0128 180.86399999999998,101.0544 180.86399999999998C100.9104 180.86399999999998,100.7376 180.86399999999998,100.5936 180.86399999999998C100.3056 180.89279999999997,100.2192 180.89279999999997,100.2192 180.95039999999997C100.2192 180.95039999999997,100.2192 180.97919999999996,100.3056 181.03679999999997C100.96799999999999 181.41119999999998,101.28479999999999 182.13119999999998,101.28479999999999 182.82239999999996C101.28479999999999 183.71519999999998,100.824 184.55039999999997,99.93119999999999 184.89599999999996C99.6432 184.98239999999998,99.3552 185.01119999999997,99.1248 185.01119999999997C97.9152 185.01119999999997,96.9072 183.97439999999997,96.9072 182.73599999999996C96.9072 182.50559999999996,96.9072 182.27519999999998,96.9648 182.01599999999996C97.3968 180.69119999999998,99.4416 179.59679999999997,101.80319999999999 179.33759999999998M102.696 198.02879999999996L102.75359999999999 198.02879999999996L102.6672 198.02879999999996L102.696 198.02879999999996M102.696 178.61759999999998L102.75359999999999 178.61759999999998L102.6672 178.61759999999998L102.696 178.61759999999998">
</path>
<path stroke-width="0.3" fill="black" stroke="none" stroke-dasharray="none" d="M96 217.99999999999997M101.0112 199.65439999999998C101.04 199.62559999999996,101.4432 199.62559999999996,102.6816 199.62559999999996C103.056 199.62559999999996,103.4592 199.62559999999996,103.9776 199.62559999999996L106.8864 199.62559999999996L106.9728 199.71199999999996C107.1168 199.79839999999996,107.2032 199.94239999999996,107.2032 200.05759999999998C107.2032 200.23039999999997,107.1168 200.34559999999996,107.0016 200.46079999999998C106.9728 200.54719999999998,106.7136 200.77759999999998,106.5408 201.03679999999997L105.0144 202.79359999999997L103.056 205.01119999999997L102.0192 206.19199999999998L100.464 207.97759999999997L98.4192 210.31039999999996C98.0736 210.74239999999998,97.6992 211.08799999999997,97.6992 211.08799999999997C97.6992 211.08799999999997,97.6992 211.08799999999997,97.6992 211.08799999999997C97.6992 211.14559999999997,97.9584 211.14559999999997,100.3488 211.14559999999997L102.9696 211.14559999999997L102.9696 209.27359999999996C102.9696 207.37279999999998,102.9696 207.34399999999997,102.9984 207.31519999999998C103.056 207.22879999999998,103.3152 206.91199999999998,104.3232 205.73119999999997L104.7264 205.29919999999998L105.1296 204.86719999999997L105.7344 204.08959999999996L106.368 203.42719999999997L106.6848 203.02399999999997C106.8 202.85119999999998,106.9728 202.82239999999996,107.1168 202.82239999999996C107.28960000000001 202.82239999999996,107.4336 202.90879999999999,107.52 203.05279999999996C107.5488 203.13919999999996,107.5488 203.19679999999997,107.5488 205.32799999999997C107.5488 205.81759999999997,107.5488 206.42239999999998,107.5488 207.14239999999998L107.5488 211.14559999999997L108.2688 211.14559999999997C108.9312 211.14559999999997,108.96 211.14559999999997,109.0464 211.17439999999996C109.2768 211.26079999999996,109.392 211.49119999999996,109.392 211.75039999999998C109.392 211.89439999999996,109.3632 212.06719999999999,109.248 212.18239999999997C109.0752 212.32639999999998,109.0464 212.32639999999998,108.2688 212.32639999999998L107.5488 212.32639999999998L107.5488 212.81599999999997C107.5776 214.28479999999996,107.8656 214.86079999999998,108.9888 215.46559999999997C109.392 215.66719999999998,109.4784 215.72479999999996,109.4784 216.01279999999997C109.4784 216.21439999999998,109.4208 216.30079999999998,109.2768 216.41599999999997L109.1904 216.44479999999996L105.2448 216.44479999999996L101.328 216.44479999999996L101.2416 216.41599999999997C101.0688 216.30079999999998,101.04 216.21439999999998,101.04 216.01279999999997C101.04 215.72479999999996,101.0688 215.66719999999998,101.5008 215.46559999999997C102.624 214.86079999999998,102.912 214.28479999999996,102.912 212.81599999999997L102.912 212.32639999999998L99.6 212.32639999999998C98.9952 212.38399999999996,98.5056 212.38399999999996,98.1024 212.38399999999996C96.288 212.38399999999996,96.2592 212.32639999999998,96.2304 212.32639999999998C96.0576 212.26879999999997,96 212.09599999999998,96 211.89439999999996C96 211.89439999999996,96 211.89439999999996,96 211.89439999999996C96 211.69279999999998,96 211.69279999999998,96.576 211.0304C98.9952 208.09279999999998,100.6944 203.83039999999997,100.6944 200.43199999999996C100.6944 199.91359999999997,100.7808 199.74079999999998,101.0112 199.65439999999998M102.7392 218.02879999999996L102.768 218.02879999999996L102.6816 218.02879999999996L102.7392 218.02879999999996M102.7392 198.61759999999998L102.768 198.61759999999998L102.6816 198.61759999999998L102.7392 198.61759999999998">
</path>
<g class="vf-stavenote" id="vf-auto68214">
<g class="vf-note" pointer-events="bounding-box">
<g class="vf-notehead" pointer-events="bounding-box">
<path stroke-width="0.3" fill="#000000" stroke="none" stroke-dasharray="none" d="M147.3424768 197.99999999999997M154.69943679999997 192.77711999999997C154.81175679999998 192.77711999999997,154.9802368 192.77711999999997,155.0083168 192.77711999999997C155.0083168 192.77711999999997,155.03639679999998 192.77711999999997,155.03639679999998 192.77711999999997C155.03639679999998 192.77711999999997,155.2048768 192.77711999999997,155.3452768 192.77711999999997C157.8724768 192.91751999999997,159.36071679999998 194.57423999999997,159.36071679999998 196.65215999999998C159.36071679999998 197.66303999999997,159.0237568 198.81431999999998,158.18135679999997 199.90943999999996C156.58079679999997 202.07159999999996,153.96935679999999 203.25095999999996,151.69487679999997 203.25095999999996C149.92583679999998 203.25095999999996,148.40951679999998 202.54895999999997,147.6794368 201.11687999999998C147.4547968 200.55527999999998,147.3424768 200.02175999999997,147.3424768 199.43207999999998C147.3424768 196.37135999999998,150.76823679999998 192.97367999999997,154.69943679999997 192.77711999999997">
</path>
</g>
</g>
<g class="vf-modifiers">
<g class="vf-stavenote" id="vf-auto68224">
<g class="vf-note" pointer-events="bounding-box">
<g class="vf-stem" pointer-events="bounding-box">
<path stroke-width="1.5" fill="none" stroke="#000000" stroke-dasharray="none" d="M128.6604384 197.99999999999997L128.6604384 174.89999999999998">
</path>
</g>
<g class="vf-notehead" pointer-events="bounding-box">
<path stroke-width="0.3" fill="#000000" stroke="none" stroke-dasharray="none" d="M121.4784 197.99999999999997M126.3339936 194.55289919999998C126.4081248 194.55289919999998,126.5193216 194.55289919999998,126.5378544 194.55289919999998C126.5378544 194.55289919999998,126.55638719999999 194.55289919999998,126.55638719999999 194.55289919999998C126.55638719999999 194.55289919999998,126.66758399999999 194.55289919999998,126.76024799999999 194.55289919999998C128.4282 194.64556319999997,129.4104384 195.73899839999996,129.4104384 197.11042559999999C129.4104384 197.77760639999997,129.1880448 198.53745119999996,128.6320608 199.26023039999998C127.5756912 200.68725599999996,125.8521408 201.46563359999996,124.350984 201.46563359999996C123.1834176 201.46563359999996,122.1826464 201.00231359999998,121.7007936 200.05714079999998C121.55253119999999 199.68648479999996,121.4784 199.33436159999997,121.4784 198.94517279999997C121.4784 196.92509759999996,123.7394016 194.68262879999997,126.3339936 194.55289919999998">
</path>
</g>
<g class="vf-flag" pointer-events="bounding-box">
<path stroke-width="0.3" fill="#000000" stroke="none" stroke-dasharray="none" d="M128.6604384 172.89999999999998M128.2156512 175.88378079999998L128.2156512 172.992664L128.2897824 172.992664C128.4936432 172.992664,128.6233728 173.12239359999998,128.6604384 173.34478719999998C129.0496272 175.19806719999997,130.2171936 177.21814239999998,131.8295472 178.73783199999997C133.6272288 180.42431679999999,134.535336 182.74091679999998,134.535336 185.13164799999998C134.535336 187.39264959999997,133.7384256 189.74631519999997,132.126072 191.69225919999997C131.84808 192.06291519999996,131.8295472 192.06291519999996,131.6442192 192.06291519999996C131.4218256 192.06291519999996,131.2735632 191.89611999999997,131.2735632 191.67372639999996C131.2735632 191.50693119999997,131.29209600000002 191.4698656,131.477424 191.2660048C132.88591680000002 189.56098719999997,133.5901632 187.5038464,133.5901632 185.5393696C133.5901632 183.7972864,133.0341792 182.12933439999998,131.88514560000002 180.86910399999996C131.1808992 180.09072639999997,129.8836032 179.34941439999997,128.234184 178.77489759999997C128.234184 178.75636479999997,128.2156512 178.18184799999997,128.2156512 175.88378079999998">
</path>
</g>
</g>
<g class="vf-modifiers">
</g>
</g>
<path stroke-width="1" fill="none" stroke="#000000" stroke-dasharray="none" d="M122.4784 189.74999999999997L135.4784 180.74999999999997Z">
</path>
</g>
</g>
<g class="vf-stavenote" id="vf-auto68238">
<g class="vf-note" pointer-events="bounding-box">
<g class="vf-notehead" pointer-events="bounding-box">
<path stroke-width="0.3" fill="#000000" stroke="none" stroke-dasharray="none" d="M182.44165759999998 197.99999999999997M189.79861759999997 192.77711999999997C189.91093759999998 192.77711999999997,190.0794176 192.77711999999997,190.1074976 192.77711999999997C190.1074976 192.77711999999997,190.13557759999998 192.77711999999997,190.13557759999998 192.77711999999997C190.13557759999998 192.77711999999997,190.3040576 192.77711999999997,190.4444576 192.77711999999997C192.9716576 192.91751999999997,194.45989759999998 194.57423999999997,194.45989759999998 196.65215999999998C194.45989759999998 197.66303999999997,194.1229376 198.81431999999998,193.28053759999997 199.90943999999996C191.67997759999997 202.07159999999996,189.06853759999998 203.25095999999996,186.79405759999997 203.25095999999996C185.02501759999998 203.25095999999996,183.50869759999998 202.54895999999997,182.7786176 201.11687999999998C182.5539776 200.55527999999998,182.44165759999998 200.02175999999997,182.44165759999998 199.43207999999998C182.44165759999998 196.37135999999998,185.86741759999998 192.97367999999997,189.79861759999997 192.77711999999997">
</path>
</g>
</g>
<g class="vf-modifiers">
</g>
</g>
<g class="vf-stavenote" id="vf-auto68248">
<g class="vf-note" pointer-events="bounding-box">
<g class="vf-notehead" pointer-events="bounding-box">
<path stroke-width="0.3" fill="#000000" stroke="none" stroke-dasharray="none" d="M217.54083839999998 197.99999999999997M224.89779839999997 192.77711999999997C225.01011839999998 192.77711999999997,225.1785984 192.77711999999997,225.2066784 192.77711999999997C225.2066784 192.77711999999997,225.23475839999998 192.77711999999997,225.23475839999998 192.77711999999997C225.23475839999998 192.77711999999997,225.4032384 192.77711999999997,225.5436384 192.77711999999997C228.07083839999999 192.91751999999997,229.55907839999998 194.57423999999997,229.55907839999998 196.65215999999998C229.55907839999998 197.66303999999997,229.2221184 198.81431999999998,228.37971839999997 199.90943999999996C226.77915839999997 202.07159999999996,224.16771839999998 203.25095999999996,221.89323839999997 203.25095999999996C220.12419839999998 203.25095999999996,218.60787839999998 202.54895999999997,217.8777984 201.11687999999998C217.6531584 200.55527999999998,217.54083839999998 200.02175999999997,217.54083839999998 199.43207999999998C217.54083839999998 196.37135999999998,220.96659839999998 192.97367999999997,224.89779839999997 192.77711999999997">
</path>
</g>
</g>
<g class="vf-modifiers">
</g>
</g>
<g class="vf-stavenote" id="vf-auto68258">
<g class="vf-note" pointer-events="bounding-box">
<g class="vf-notehead" pointer-events="bounding-box">
<path stroke-width="0.3" fill="#000000" stroke="none" stroke-dasharray="none" d="M252.6400192 197.99999999999997M259.9969792 192.77711999999997C260.1092992 192.77711999999997,260.2777792 192.77711999999997,260.3058592 192.77711999999997C260.3058592 192.77711999999997,260.33393920000003 192.77711999999997,260.33393920000003 192.77711999999997C260.33393920000003 192.77711999999997,260.5024192 192.77711999999997,260.6428192 192.77711999999997C263.1700192 192.91751999999997,264.65825920000003 194.57423999999997,264.65825920000003 196.65215999999998C264.65825920000003 197.66303999999997,264.3212992 198.81431999999998,263.4788992 199.90943999999996C261.8783392 202.07159999999996,259.2668992 203.25095999999996,256.99241920000003 203.25095999999996C255.2233792 203.25095999999996,253.7070592 202.54895999999997,252.97697920000002 201.11687999999998C252.75233920000002 200.55527999999998,252.6400192 200.02175999999997,252.6400192 199.43207999999998C252.6400192 196.37135999999998,256.0657792 192.97367999999997,259.9969792 192.77711999999997">
</path>
</g>
</g>
<g class="vf-modifiers">
</g>
</g>
<g class="vf-stavenote" id="vf-auto68268">
<g class="vf-note" pointer-events="bounding-box">
<g class="vf-notehead" pointer-events="bounding-box">
<path stroke-width="0.3" fill="#000000" stroke="none" stroke-dasharray="none" d="M313.6032768 197.99999999999997M320.9602368 192.77711999999997C321.07255680000003 192.77711999999997,321.2410368 192.77711999999997,321.2691168 192.77711999999997C321.2691168 192.77711999999997,321.2971968 192.77711999999997,321.2971968 192.77711999999997C321.2971968 192.77711999999997,321.4656768 192.77711999999997,321.6060768 192.77711999999997C324.1332768 192.91751999999997,325.6215168 194.57423999999997,325.6215168 196.65215999999998C325.6215168 197.66303999999997,325.2845568 198.81431999999998,324.4421568 199.90943999999996C322.8415968 202.07159999999996,320.23015680000003 203.25095999999996,317.9556768 203.25095999999996C316.18663680000003 203.25095999999996,314.6703168 202.54895999999997,313.9402368 201.11687999999998C313.7155968 200.55527999999998,313.6032768 200.02175999999997,313.6032768 199.43207999999998C313.6032768 196.37135999999998,317.02903680000003 192.97367999999997,320.9602368 192.77711999999997">
</path>
</g>
</g>
<g class="vf-modifiers">
<g class="vf-stavenote" id="vf-auto68278">
<g class="vf-note" pointer-events="bounding-box">
<g class="vf-stem" pointer-events="bounding-box">
<path stroke-width="1.5" fill="none" stroke="#000000" stroke-dasharray="none" d="M294.9212384 197.99999999999997L294.9212384 174.89999999999998">
</path>
</g>
<g class="vf-notehead" pointer-events="bounding-box">
<path stroke-width="0.3" fill="#000000" stroke="none" stroke-dasharray="none" d="M287.7392 197.99999999999997M292.5947936 194.55289919999998C292.66892479999996 194.55289919999998,292.7801216 194.55289919999998,292.7986544 194.55289919999998C292.7986544 194.55289919999998,292.8171872 194.55289919999998,292.8171872 194.55289919999998C292.8171872 194.55289919999998,292.928384 194.55289919999998,293.021048 194.55289919999998C294.68899999999996 194.64556319999997,295.6712384 195.73899839999996,295.6712384 197.11042559999999C295.6712384 197.77760639999997,295.44884479999996 198.53745119999996,294.8928608 199.26023039999998C293.83649119999995 200.68725599999996,292.1129408 201.46563359999996,290.611784 201.46563359999996C289.4442176 201.46563359999996,288.44344639999997 201.00231359999998,287.96159359999996 200.05714079999998C287.8133312 199.68648479999996,287.7392 199.33436159999997,287.7392 198.94517279999997C287.7392 196.92509759999996,290.00020159999997 194.68262879999997,292.5947936 194.55289919999998">
</path>
</g>
<g class="vf-flag" pointer-events="bounding-box">
<path stroke-width="0.3" fill="#000000" stroke="none" stroke-dasharray="none" d="M294.9212384 172.89999999999998M294.4764512 175.88378079999998L294.4764512 172.992664L294.5505824 172.992664C294.75444319999997 172.992664,294.8841728 173.12239359999998,294.9212384 173.34478719999998C295.3104272 175.19806719999997,296.4779936 177.21814239999998,298.0903472 178.73783199999997C299.8880288 180.42431679999999,300.796136 182.74091679999998,300.796136 185.13164799999998C300.796136 187.39264959999997,299.9992256 189.74631519999997,298.386872 191.69225919999997C298.10888 192.06291519999996,298.0903472 192.06291519999996,297.90501919999997 192.06291519999996C297.6826256 192.06291519999996,297.5343632 191.89611999999997,297.5343632 191.67372639999996C297.5343632 191.50693119999997,297.552896 191.4698656,297.738224 191.2660048C299.1467168 189.56098719999997,299.85096319999997 187.5038464,299.85096319999997 185.5393696C299.85096319999997 183.7972864,299.2949792 182.12933439999998,298.1459456 180.86910399999996C297.4416992 180.09072639999997,296.1444032 179.34941439999997,294.494984 178.77489759999997C294.494984 178.75636479999997,294.4764512 178.18184799999997,294.4764512 175.88378079999998">
</path>
</g>
</g>
<g class="vf-modifiers">
</g>
</g>
<path stroke-width="1" fill="none" stroke="#000000" stroke-dasharray="none" d="M288.7392 189.74999999999997L301.7392 180.74999999999997Z">
</path>
</g>
</g>
<g class="vf-stavenote" id="vf-auto68292">
<g class="vf-note" pointer-events="bounding-box">
<g class="vf-notehead" pointer-events="bounding-box">
<path stroke-width="0.3" fill="#000000" stroke="none" stroke-dasharray="none" d="M348.7024576 197.99999999999997M356.0594176 192.77711999999997C356.17173760000003 192.77711999999997,356.3402176 192.77711999999997,356.3682976 192.77711999999997C356.3682976 192.77711999999997,356.3963776 192.77711999999997,356.3963776 192.77711999999997C356.3963776 192.77711999999997,356.5648576 192.77711999999997,356.7052576 192.77711999999997C359.2324576 192.91751999999997,360.7206976 194.57423999999997,360.7206976 196.65215999999998C360.7206976 197.66303999999997,360.3837376 198.81431999999998,359.5413376 199.90943999999996C357.9407776 202.07159999999996,355.32933760000003 203.25095999999996,353.0548576 203.25095999999996C351.28581760000003 203.25095999999996,349.7694976 202.54895999999997,349.0394176 201.11687999999998C348.8147776 200.55527999999998,348.7024576 200.02175999999997,348.7024576 199.43207999999998C348.7024576 196.37135999999998,352.1282176 192.97367999999997,356.0594176 192.77711999999997">
</path>
</g>
</g>
<g class="vf-modifiers">
</g>
</g>
<g class="vf-stavenote" id="vf-auto68302">
<g class="vf-note" pointer-events="bounding-box">
<g class="vf-notehead" pointer-events="bounding-box">
<path stroke-width="0.3" fill="#000000" stroke="none" stroke-dasharray="none" d="M383.8016384 197.99999999999997M391.1585984 192.77711999999997C391.2709184 192.77711999999997,391.4393984 192.77711999999997,391.4674784 192.77711999999997C391.4674784 192.77711999999997,391.4955584 192.77711999999997,391.4955584 192.77711999999997C391.4955584 192.77711999999997,391.6640384 192.77711999999997,391.8044384 192.77711999999997C394.3316384 192.91751999999997,395.8198784 194.57423999999997,395.8198784 196.65215999999998C395.8198784 197.66303999999997,395.4829184 198.81431999999998,394.6405184 199.90943999999996C393.0399584 202.07159999999996,390.42851840000003 203.25095999999996,388.1540384 203.25095999999996C386.38499840000003 203.25095999999996,384.8686784 202.54895999999997,384.1385984 201.11687999999998C383.9139584 200.55527999999998,383.8016384 200.02175999999997,383.8016384 199.43207999999998C383.8016384 196.37135999999998,387.2273984 192.97367999999997,391.1585984 192.77711999999997">
</path>
</g>
</g>
<g class="vf-modifiers">
</g>
</g>
<g class="vf-stavenote" id="vf-auto68312">
<g class="vf-note" pointer-events="bounding-box">
<g class="vf-notehead" pointer-events="bounding-box">
<path stroke-width="0.3" fill="#000000" stroke="none" stroke-dasharray="none" d="M418.9008192 197.99999999999997M426.2577792 192.77711999999997C426.3700992 192.77711999999997,426.5385792 192.77711999999997,426.5666592 192.77711999999997C426.5666592 192.77711999999997,426.5947392 192.77711999999997,426.5947392 192.77711999999997C426.5947392 192.77711999999997,426.7632192 192.77711999999997,426.9036192 192.77711999999997C429.4308192 192.91751999999997,430.9190592 194.57423999999997,430.9190592 196.65215999999998C430.9190592 197.66303999999997,430.5820992 198.81431999999998,429.7396992 199.90943999999996C428.1391392 202.07159999999996,425.52769920000003 203.25095999999996,423.2532192 203.25095999999996C421.4841792 203.25095999999996,419.9678592 202.54895999999997,419.2377792 201.11687999999998C419.0131392 200.55527999999998,418.9008192 200.02175999999997,418.9008192 199.43207999999998C418.9008192 196.37135999999998,422.3265792 192.97367999999997,426.2577792 192.77711999999997">
</path>
</g>
</g>
<g class="vf-modifiers">
</g>
</g>
<path stroke-width="1.5" fill="none" stroke="#000000" stroke-dasharray="none" d="M158.61071679999998 197.99999999999997L158.61071679999998 163.74999999999997">
</path>
<path stroke-width="1.5" fill="none" stroke="#000000" stroke-dasharray="none" d="M193.70989759999998 197.99999999999997L193.70989759999998 163.74999999999997">
</path>
<path stroke-width="1.5" fill="none" stroke="#000000" stroke-dasharray="none" d="M228.80907839999998 197.99999999999997L228.80907839999998 163.74999999999997">
</path>
<path stroke-width="1.5" fill="none" stroke="#000000" stroke-dasharray="none" d="M263.90825920000003 197.99999999999997L263.90825920000003 163.74999999999997">
</path>
<path stroke-width="0.3" fill="#000000" stroke="none" stroke-dasharray="none" d="M157.86071679999998 162.99999999999997L157.86071679999998 167.99999999999997L264.15825920000003 167.99999999999997L264.15825920000003 162.99999999999997Z">
</path>
<path stroke-width="0.3" fill="#000000" stroke="none" stroke-dasharray="none" d="M157.86071679999998 170.49999999999997L157.86071679999998 175.49999999999997L264.15825920000003 175.49999999999997L264.15825920000003 170.49999999999997Z">
</path>
<path stroke-width="1.5" fill="none" stroke="#000000" stroke-dasharray="none" d="M324.8715168 197.99999999999997L324.8715168 163.74999999999997">
</path>
<path stroke-width="1.5" fill="none" stroke="#000000" stroke-dasharray="none" d="M359.9706976 197.99999999999997L359.9706976 163.74999999999997">
</path>
<path stroke-width="1.5" fill="none" stroke="#000000" stroke-dasharray="none" d="M395.0698784 197.99999999999997L395.0698784 163.74999999999997">
</path>
<path stroke-width="1.5" fill="none" stroke="#000000" stroke-dasharray="none" d="M430.1690592 197.99999999999997L430.1690592 163.74999999999997">
</path>
<path stroke-width="0.3" fill="#000000" stroke="none" stroke-dasharray="none" d="M324.1215168 162.99999999999997L324.1215168 167.99999999999997L430.4190592 167.99999999999997L430.4190592 162.99999999999997Z">
</path>
<path stroke-width="0.3" fill="#000000" stroke="none" stroke-dasharray="none" d="M324.1215168 170.49999999999997L324.1215168 175.49999999999997L430.4190592 175.49999999999997L430.4190592 170.49999999999997Z">
</path>
<path stroke-width="1" fill="none" stroke="black" stroke-dasharray="none" d="M452.66854758399984 197.99999999999997L1106.3003343359999 197.99999999999997">
</path>
<rect stroke-width="0.3" fill="black" stroke="black" stroke-dasharray="none" x="1101.3003343359999" y="177.49999999999997" width="1" height="41">
</rect>
<rect stroke-width="0.3" fill="black" stroke="black" stroke-dasharray="none" x="1104.3003343359999" y="177.49999999999997" width="3" height="41">
</rect>
<path stroke-width="0.3" fill="black" stroke="none" stroke-dasharray="none" d="M1100.3003343359999 193.49999999999997 A2 2 0 0 0 1096.3003343359999 193.49999999999997M1096.3003343359999 193.49999999999997 A2 2 0 0 0 1100.3003343359999 193.49999999999997">
</path>
<path stroke-width="0.3" fill="black" stroke="none" stroke-dasharray="none" d="M1100.3003343359999 203.49999999999997 A2 2 0 0 0 1096.3003343359999 203.49999999999997M1096.3003343359999 203.49999999999997 A2 2 0 0 0 1100.3003343359999 203.49999999999997">
</path>
<path stroke-width="0.3" fill="black" stroke="none" stroke-dasharray="none" d="M457.66854758399984 197.99999999999997M462.6797475839998 179.65439999999998C462.70854758399986 179.62559999999996,463.11174758399983 179.62559999999996,464.35014758399984 179.62559999999996C464.7245475839998 179.62559999999996,465.12774758399985 179.62559999999996,465.64614758399983 179.62559999999996L468.5549475839998 179.62559999999996L468.64134758399985 179.71199999999996C468.78534758399985 179.79839999999996,468.8717475839998 179.94239999999996,468.8717475839998 180.05759999999998C468.8717475839998 180.23039999999997,468.78534758399985 180.34559999999996,468.67014758399984 180.46079999999998C468.64134758399985 180.54719999999998,468.3821475839998 180.77759999999998,468.20934758399983 181.03679999999997L466.68294758399986 182.79359999999997L464.7245475839998 185.01119999999997L463.68774758399985 186.19199999999998L462.13254758399984 187.97759999999997L460.0877475839998 190.31039999999996C459.74214758399984 190.74239999999998,459.36774758399986 191.08799999999997,459.36774758399986 191.08799999999997C459.36774758399986 191.08799999999997,459.36774758399986 191.08799999999997,459.36774758399986 191.08799999999997C459.36774758399986 191.14559999999997,459.6269475839998 191.14559999999997,462.0173475839998 191.14559999999997L464.63814758399985 191.14559999999997L464.63814758399985 189.27359999999996C464.63814758399985 187.37279999999998,464.63814758399985 187.34399999999997,464.66694758399984 187.31519999999998C464.7245475839998 187.22879999999998,464.98374758399984 186.91199999999998,465.9917475839998 185.73119999999997L466.39494758399985 185.29919999999998L466.7981475839998 184.86719999999997L467.40294758399983 184.08959999999996L468.03654758399983 183.42719999999997L468.35334758399983 183.02399999999997C468.46854758399985 182.85119999999998,468.64134758399985 182.82239999999996,468.78534758399985 182.82239999999996C468.95814758399985 182.82239999999996,469.10214758399985 182.90879999999999,469.1885475839998 183.05279999999996C469.21734758399987 183.13919999999996,469.21734758399987 183.19679999999997,469.21734758399987 185.32799999999997C469.21734758399987 185.81759999999997,469.21734758399987 186.42239999999998,469.21734758399987 187.14239999999998L469.21734758399987 191.14559999999997L469.93734758399984 191.14559999999997C470.59974758399983 191.14559999999997,470.6285475839998 191.14559999999997,470.71494758399984 191.17439999999996C470.9453475839998 191.26079999999996,471.06054758399983 191.49119999999996,471.06054758399983 191.75039999999998C471.06054758399983 191.89439999999996,471.03174758399985 192.06719999999999,470.91654758399983 192.18239999999997C470.74374758399983 192.32639999999998,470.71494758399984 192.32639999999998,469.93734758399984 192.32639999999998L469.21734758399987 192.32639999999998L469.21734758399987 192.81599999999997C469.24614758399986 194.28479999999996,469.5341475839998 194.86079999999998,470.65734758399987 195.46559999999997C471.06054758399983 195.66719999999998,471.14694758399986 195.72479999999996,471.14694758399986 196.01279999999997C471.14694758399986 196.21439999999998,471.0893475839998 196.30079999999998,470.9453475839998 196.41599999999997L470.85894758399985 196.44479999999996L466.91334758399984 196.44479999999996L462.9965475839998 196.44479999999996L462.91014758399984 196.41599999999997C462.73734758399985 196.30079999999998,462.70854758399986 196.21439999999998,462.70854758399986 196.01279999999997C462.70854758399986 195.72479999999996,462.73734758399985 195.66719999999998,463.16934758399987 195.46559999999997C464.29254758399986 194.86079999999998,464.5805475839998 194.28479999999996,464.5805475839998 192.81599999999997L464.5805475839998 192.32639999999998L461.26854758399986 192.32639999999998C460.66374758399985 192.38399999999996,460.17414758399985 192.38399999999996,459.7709475839998 192.38399999999996C457.95654758399985 192.38399999999996,457.92774758399986 192.32639999999998,457.8989475839998 192.32639999999998C457.7261475839998 192.26879999999997,457.66854758399984 192.09599999999998,457.66854758399984 191.89439999999996C457.66854758399984 191.89439999999996,457.66854758399984 191.89439999999996,457.66854758399984 191.89439999999996C457.66854758399984 191.69279999999998,457.66854758399984 191.69279999999998,458.24454758399986 191.0304C460.66374758399985 188.09279999999998,462.3629475839998 183.83039999999997,462.3629475839998 180.43199999999996C462.3629475839998 179.91359999999997,462.44934758399984 179.74079999999998,462.6797475839998 179.65439999999998M464.4077475839998 198.02879999999996L464.4365475839998 198.02879999999996L464.35014758399984 198.02879999999996L464.4077475839998 198.02879999999996M464.4077475839998 178.61759999999998L464.4365475839998 178.61759999999998L464.35014758399984 178.61759999999998L464.4077475839998 178.61759999999998">
</path>
<path stroke-width="0.3" fill="black" stroke="none" stroke-dasharray="none" d="M457.66854758399984 217.99999999999997M462.6797475839998 199.65439999999998C462.70854758399986 199.62559999999996,463.11174758399983 199.62559999999996,464.35014758399984 199.62559999999996C464.7245475839998 199.62559999999996,465.12774758399985 199.62559999999996,465.64614758399983 199.62559999999996L468.5549475839998 199.62559999999996L468.64134758399985 199.71199999999996C468.78534758399985 199.79839999999996,468.8717475839998 199.94239999999996,468.8717475839998 200.05759999999998C468.8717475839998 200.23039999999997,468.78534758399985 200.34559999999996,468.67014758399984 200.46079999999998C468.64134758399985 200.54719999999998,468.3821475839998 200.77759999999998,468.20934758399983 201.03679999999997L466.68294758399986 202.79359999999997L464.7245475839998 205.01119999999997L463.68774758399985 206.19199999999998L462.13254758399984 207.97759999999997L460.0877475839998 210.31039999999996C459.74214758399984 210.74239999999998,459.36774758399986 211.08799999999997,459.36774758399986 211.08799999999997C459.36774758399986 211.08799999999997,459.36774758399986 211.08799999999997,459.36774758399986 211.08799999999997C459.36774758399986 211.14559999999997,459.6269475839998 211.14559999999997,462.0173475839998 211.14559999999997L464.63814758399985 211.14559999999997L464.63814758399985 209.27359999999996C464.63814758399985 207.37279999999998,464.63814758399985 207.34399999999997,464.66694758399984 207.31519999999998C464.7245475839998 207.22879999999998,464.98374758399984 206.91199999999998,465.9917475839998 205.73119999999997L466.39494758399985 205.29919999999998L466.7981475839998 204.86719999999997L467.40294758399983 204.08959999999996L468.03654758399983 203.42719999999997L468.35334758399983 203.02399999999997C468.46854758399985 202.85119999999998,468.64134758399985 202.82239999999996,468.78534758399985 202.82239999999996C468.95814758399985 202.82239999999996,469.10214758399985 202.90879999999999,469.1885475839998 203.05279999999996C469.21734758399987 203.13919999999996,469.21734758399987 203.19679999999997,469.21734758399987 205.32799999999997C469.21734758399987 205.81759999999997,469.21734758399987 206.42239999999998,469.21734758399987 207.14239999999998L469.21734758399987 211.14559999999997L469.93734758399984 211.14559999999997C470.59974758399983 211.14559999999997,470.6285475839998 211.14559999999997,470.71494758399984 211.17439999999996C470.9453475839998 211.26079999999996,471.06054758399983 211.49119999999996,471.06054758399983 211.75039999999998C471.06054758399983 211.89439999999996,471.03174758399985 212.06719999999999,470.91654758399983 212.18239999999997C470.74374758399983 212.32639999999998,470.71494758399984 212.32639999999998,469.93734758399984 212.32639999999998L469.21734758399987 212.32639999999998L469.21734758399987 212.81599999999997C469.24614758399986 214.28479999999996,469.5341475839998 214.86079999999998,470.65734758399987 215.46559999999997C471.06054758399983 215.66719999999998,471.14694758399986 215.72479999999996,471.14694758399986 216.01279999999997C471.14694758399986 216.21439999999998,471.0893475839998 216.30079999999998,470.9453475839998 216.41599999999997L470.85894758399985 216.44479999999996L466.91334758399984 216.44479999999996L462.9965475839998 216.44479999999996L462.91014758399984 216.41599999999997C462.73734758399985 216.30079999999998,462.70854758399986 216.21439999999998,462.70854758399986 216.01279999999997C462.70854758399986 215.72479999999996,462.73734758399985 215.66719999999998,463.16934758399987 215.46559999999997C464.29254758399986 214.86079999999998,464.5805475839998 214.28479999999996,464.5805475839998 212.81599999999997L464.5805475839998 212.32639999999998L461.26854758399986 212.32639999999998C460.66374758399985 212.38399999999996,460.17414758399985 212.38399999999996,459.7709475839998 212.38399999999996C457.95654758399985 212.38399999999996,457.92774758399986 212.32639999999998,457.8989475839998 212.32639999999998C457.7261475839998 212.26879999999997,457.66854758399984 212.09599999999998,457.66854758399984 211.89439999999996C457.66854758399984 211.89439999999996,457.66854758399984 211.89439999999996,457.66854758399984 211.89439999999996C457.66854758399984 211.69279999999998,457.66854758399984 211.69279999999998,458.24454758399986 211.0304C460.66374758399985 208.09279999999998,462.3629475839998 203.83039999999997,462.3629475839998 200.43199999999996C462.3629475839998 199.91359999999997,462.44934758399984 199.74079999999998,462.6797475839998 199.65439999999998M464.4077475839998 218.02879999999996L464.4365475839998 218.02879999999996L464.35014758399984 218.02879999999996L464.4077475839998 218.02879999999996M464.4077475839998 198.61759999999998L464.4365475839998 198.61759999999998L464.35014758399984 198.61759999999998L464.4077475839998 198.61759999999998">
</path>
<g class="vf-stavenote" id="vf-auto68325">
<g class="vf-note" pointer-events="bounding-box">
<g class="vf-notehead" pointer-events="bounding-box">
<path stroke-width="0.3" fill="#000000" stroke="none" stroke-dasharray="none" d="M509.0110243839999 197.99999999999997M516.3679843839999 192.77711999999997C516.4803043839999 192.77711999999997,516.6487843839999 192.77711999999997,516.6768643839998 192.77711999999997C516.6768643839998 192.77711999999997,516.7049443839999 192.77711999999997,516.7049443839999 192.77711999999997C516.7049443839999 192.77711999999997,516.8734243839999 192.77711999999997,517.0138243839999 192.77711999999997C519.5410243839999 192.91751999999997,521.0292643839999 194.57423999999997,521.0292643839999 196.65215999999998C521.0292643839999 197.66303999999997,520.6923043839998 198.81431999999998,519.8499043839998 199.90943999999996C518.2493443839999 202.07159999999996,515.6379043839999 203.25095999999996,513.3634243839999 203.25095999999996C511.5943843839999 203.25095999999996,510.0780643839999 202.54895999999997,509.34798438399986 201.11687999999998C509.1233443839999 200.55527999999998,509.0110243839999 200.02175999999997,509.0110243839999 199.43207999999998C509.0110243839999 196.37135999999998,512.4367843839999 192.97367999999997,516.3679843839999 192.77711999999997">
</path>
</g>
</g>
<g class="vf-modifiers">
<g class="vf-stavenote" id="vf-auto68335">
<g class="vf-note" pointer-events="bounding-box">
<g class="vf-stem" pointer-events="bounding-box">
<path stroke-width="1.5" fill="none" stroke="#000000" stroke-dasharray="none" d="M490.32898598399987 197.99999999999997L490.32898598399987 174.89999999999998">
</path>
</g>
<g class="vf-notehead" pointer-events="bounding-box">
<path stroke-width="0.3" fill="#000000" stroke="none" stroke-dasharray="none" d="M483.14694758399986 197.99999999999997M488.0025411839999 194.55289919999998C488.07667238399983 194.55289919999998,488.18786918399985 194.55289919999998,488.20640198399985 194.55289919999998C488.20640198399985 194.55289919999998,488.22493478399986 194.55289919999998,488.22493478399986 194.55289919999998C488.22493478399986 194.55289919999998,488.3361315839999 194.55289919999998,488.4287955839999 194.55289919999998C490.09674758399984 194.64556319999997,491.07898598399987 195.73899839999996,491.07898598399987 197.11042559999999C491.07898598399987 197.77760639999997,490.85659238399984 198.53745119999996,490.3006083839999 199.26023039999998C489.2442387839999 200.68725599999996,487.52068838399987 201.46563359999996,486.0195315839999 201.46563359999996C484.8519651839999 201.46563359999996,483.85119398399985 201.00231359999998,483.36934118399984 200.05714079999998C483.22107878399987 199.68648479999996,483.14694758399986 199.33436159999997,483.14694758399986 198.94517279999997C483.14694758399986 196.92509759999996,485.40794918399985 194.68262879999997,488.0025411839999 194.55289919999998">
</path>
</g>
<g class="vf-flag" pointer-events="bounding-box">
<path stroke-width="0.3" fill="#000000" stroke="none" stroke-dasharray="none" d="M490.32898598399987 172.89999999999998M489.88419878399986 175.88378079999998L489.88419878399986 172.992664L489.9583299839999 172.992664C490.16219078399985 172.992664,490.29192038399987 173.12239359999998,490.32898598399987 173.34478719999998C490.71817478399987 175.19806719999997,491.88574118399987 177.21814239999998,493.4980947839999 178.73783199999997C495.29577638399985 180.42431679999999,496.20388358399987 182.74091679999998,496.20388358399987 185.13164799999998C496.20388358399987 187.39264959999997,495.40697318399987 189.74631519999997,493.79461958399986 191.69225919999997C493.5166275839999 192.06291519999996,493.4980947839999 192.06291519999996,493.31276678399985 192.06291519999996C493.0903731839999 192.06291519999996,492.94211078399985 191.89611999999997,492.94211078399985 191.67372639999996C492.94211078399985 191.50693119999997,492.96064358399985 191.4698656,493.1459715839999 191.2660048C494.55446438399986 189.56098719999997,495.25871078399985 187.5038464,495.25871078399985 185.5393696C495.25871078399985 183.7972864,494.7027267839999 182.12933439999998,493.5536931839999 180.86910399999996C492.8494467839999 180.09072639999997,491.5521507839999 179.34941439999997,489.90273158399987 178.77489759999997C489.90273158399987 178.75636479999997,489.88419878399986 178.18184799999997,489.88419878399986 175.88378079999998">
</path>
</g>
</g>
<g class="vf-modifiers">
</g>
</g>
<path stroke-width="1" fill="none" stroke="#000000" stroke-dasharray="none" d="M484.14694758399986 189.74999999999997L497.14694758399986 180.74999999999997Z">
</path>
</g>
</g>
<g class="vf-stavenote" id="vf-auto68349">
<g class="vf-note" pointer-events="bounding-box">
<g class="vf-notehead" pointer-events="bounding-box">
<path stroke-width="0.3" fill="#000000" stroke="none" stroke-dasharray="none" d="M554.1644867839999 197.99999999999997M561.5214467839999 192.77711999999997C561.6337667839999 192.77711999999997,561.8022467839999 192.77711999999997,561.8303267839999 192.77711999999997C561.8303267839999 192.77711999999997,561.858406784 192.77711999999997,561.858406784 192.77711999999997C561.858406784 192.77711999999997,562.0268867839999 192.77711999999997,562.1672867839999 192.77711999999997C564.6944867839999 192.91751999999997,566.1827267839999 194.57423999999997,566.1827267839999 196.65215999999998C566.1827267839999 197.66303999999997,565.8457667839999 198.81431999999998,565.0033667839999 199.90943999999996C563.402806784 202.07159999999996,560.7913667839999 203.25095999999996,558.5168867839999 203.25095999999996C556.7478467839999 203.25095999999996,555.2315267839999 202.54895999999997,554.5014467839999 201.11687999999998C554.2768067839999 200.55527999999998,554.1644867839999 200.02175999999997,554.1644867839999 199.43207999999998C554.1644867839999 196.37135999999998,557.5902467839999 192.97367999999997,561.5214467839999 192.77711999999997">
</path>
</g>
</g>
<g class="vf-modifiers">
</g>
</g>
<g class="vf-stavenote" id="vf-auto68359">
<g class="vf-note" pointer-events="bounding-box">
<g class="vf-notehead" pointer-events="bounding-box">
<path stroke-width="0.3" fill="#000000" stroke="none" stroke-dasharray="none" d="M585.7503379839999 197.99999999999997M593.1072979839998 192.77711999999997C593.2196179839999 192.77711999999997,593.3880979839998 192.77711999999997,593.4161779839999 192.77711999999997C593.4161779839999 192.77711999999997,593.4442579839999 192.77711999999997,593.4442579839999 192.77711999999997C593.4442579839999 192.77711999999997,593.6127379839999 192.77711999999997,593.7531379839999 192.77711999999997C596.2803379839999 192.91751999999997,597.7685779839999 194.57423999999997,597.7685779839999 196.65215999999998C597.7685779839999 197.66303999999997,597.4316179839999 198.81431999999998,596.5892179839999 199.90943999999996C594.9886579839999 202.07159999999996,592.3772179839999 203.25095999999996,590.1027379839999 203.25095999999996C588.3336979839999 203.25095999999996,586.8173779839999 202.54895999999997,586.0872979839999 201.11687999999998C585.8626579839998 200.55527999999998,585.7503379839999 200.02175999999997,585.7503379839999 199.43207999999998C585.7503379839999 196.37135999999998,589.1760979839999 192.97367999999997,593.1072979839998 192.77711999999997">
</path>
</g>
</g>
<g class="vf-modifiers">
</g>
</g>
<g class="vf-stavenote" id="vf-auto68369">
<g class="vf-note" pointer-events="bounding-box">
<g class="vf-notehead" pointer-events="bounding-box">
<path stroke-width="0.3" fill="#000000" stroke="none" stroke-dasharray="none" d="M643.2002659839999 197.99999999999997M650.5572259839998 192.77711999999997C650.6695459839999 192.77711999999997,650.8380259839998 192.77711999999997,650.8661059839999 192.77711999999997C650.8661059839999 192.77711999999997,650.8941859839999 192.77711999999997,650.8941859839999 192.77711999999997C650.8941859839999 192.77711999999997,651.0626659839999 192.77711999999997,651.2030659839999 192.77711999999997C653.7302659839999 192.91751999999997,655.2185059839999 194.57423999999997,655.2185059839999 196.65215999999998C655.2185059839999 197.66303999999997,654.8815459839999 198.81431999999998,654.0391459839999 199.90943999999996C652.4385859839999 202.07159999999996,649.8271459839999 203.25095999999996,647.5526659839999 203.25095999999996C645.7836259839999 203.25095999999996,644.2673059839999 202.54895999999997,643.5372259839999 201.11687999999998C643.3125859839998 200.55527999999998,643.2002659839999 200.02175999999997,643.2002659839999 199.43207999999998C643.2002659839999 196.37135999999998,646.6260259839999 192.97367999999997,650.5572259839998 192.77711999999997">
</path>
</g>
</g>
<g class="vf-modifiers">
<g class="vf-stavenote" id="vf-auto68379">
<g class="vf-note" pointer-events="bounding-box">
<g class="vf-stem" pointer-events="bounding-box">
<path stroke-width="1.5" fill="none" stroke="#000000" stroke-dasharray="none" d="M624.5182275839999 197.99999999999997L624.5182275839999 174.89999999999998">
</path>
</g>
<g class="vf-notehead" pointer-events="bounding-box">
<path stroke-width="0.3" fill="#000000" stroke="none" stroke-dasharray="none" d="M617.3361891839999 197.99999999999997M622.1917827839999 194.55289919999998C622.2659139839999 194.55289919999998,622.3771107839999 194.55289919999998,622.3956435839999 194.55289919999998C622.3956435839999 194.55289919999998,622.4141763839999 194.55289919999998,622.4141763839999 194.55289919999998C622.4141763839999 194.55289919999998,622.5253731839998 194.55289919999998,622.6180371839998 194.55289919999998C624.2859891839998 194.64556319999997,625.2682275839999 195.73899839999996,625.2682275839999 197.11042559999999C625.2682275839999 197.77760639999997,625.0458339839998 198.53745119999996,624.4898499839999 199.26023039999998C623.4334803839998 200.68725599999996,621.7099299839998 201.46563359999996,620.2087731839998 201.46563359999996C619.0412067839999 201.46563359999996,618.0404355839999 201.00231359999998,617.5585827839999 200.05714079999998C617.4103203839999 199.68648479999996,617.3361891839999 199.33436159999997,617.3361891839999 198.94517279999997C617.3361891839999 196.92509759999996,619.5971907839998 194.68262879999997,622.1917827839999 194.55289919999998">
</path>
</g>
<g class="vf-flag" pointer-events="bounding-box">
<path stroke-width="0.3" fill="#000000" stroke="none" stroke-dasharray="none" d="M624.5182275839999 172.89999999999998M624.0734403839999 175.88378079999998L624.0734403839999 172.992664L624.1475715839998 172.992664C624.3514323839998 172.992664,624.4811619839999 173.12239359999998,624.5182275839999 173.34478719999998C624.9074163839999 175.19806719999997,626.0749827839999 177.21814239999998,627.6873363839999 178.73783199999997C629.4850179839999 180.42431679999999,630.3931251839999 182.74091679999998,630.3931251839999 185.13164799999998C630.3931251839999 187.39264959999997,629.5962147839999 189.74631519999997,627.9838611839999 191.69225919999997C627.7058691839999 192.06291519999996,627.6873363839999 192.06291519999996,627.5020083839999 192.06291519999996C627.2796147839998 192.06291519999996,627.1313523839999 191.89611999999997,627.1313523839999 191.67372639999996C627.1313523839999 191.50693119999997,627.1498851839999 191.4698656,627.3352131839998 191.2660048C628.7437059839999 189.56098719999997,629.4479523839999 187.5038464,629.4479523839999 185.5393696C629.4479523839999 183.7972864,628.8919683839998 182.12933439999998,627.7429347839999 180.86910399999996C627.0386883839999 180.09072639999997,625.7413923839998 179.34941439999997,624.0919731839999 178.77489759999997C624.0919731839999 178.75636479999997,624.0734403839999 178.18184799999997,624.0734403839999 175.88378079999998">
</path>
</g>
</g>
<g class="vf-modifiers">
</g>
</g>
<path stroke-width="1" fill="none" stroke="#000000" stroke-dasharray="none" d="M618.3361891839999 189.74999999999997L631.3361891839999 180.74999999999997Z">
</path>
</g>
</g>
<g class="vf-stavenote" id="vf-auto68393">
<g class="vf-note" pointer-events="bounding-box">
<g class="vf-notehead" pointer-events="bounding-box">
<path stroke-width="0.3" fill="#000000" stroke="none" stroke-dasharray="none" d="M688.3537283839999 197.99999999999997M695.7106883839998 192.77711999999997C695.8230083839999 192.77711999999997,695.9914883839998 192.77711999999997,696.0195683839999 192.77711999999997C696.0195683839999 192.77711999999997,696.0476483839999 192.77711999999997,696.0476483839999 192.77711999999997C696.0476483839999 192.77711999999997,696.2161283839998 192.77711999999997,696.3565283839998 192.77711999999997C698.8837283839998 192.91751999999997,700.3719683839998 194.57423999999997,700.3719683839998 196.65215999999998C700.3719683839998 197.66303999999997,700.0350083839999 198.81431999999998,699.1926083839999 199.90943999999996C697.5920483839999 202.07159999999996,694.9806083839999 203.25095999999996,692.7061283839998 203.25095999999996C690.9370883839998 203.25095999999996,689.4207683839999 202.54895999999997,688.6906883839998 201.11687999999998C688.4660483839998 200.55527999999998,688.3537283839999 200.02175999999997,688.3537283839999 199.43207999999998C688.3537283839999 196.37135999999998,691.7794883839998 192.97367999999997,695.7106883839998 192.77711999999997">
</path>
</g>
</g>
<g class="vf-modifiers">
</g>
</g>
<g class="vf-stavenote" id="vf-auto68403">
<g class="vf-note" pointer-events="bounding-box">
<g class="vf-notehead" pointer-events="bounding-box">
<path stroke-width="0.3" fill="#000000" stroke="none" stroke-dasharray="none" d="M719.9395795839998 197.99999999999997M727.2965395839998 192.77711999999997C727.4088595839999 192.77711999999997,727.5773395839998 192.77711999999997,727.6054195839998 192.77711999999997C727.6054195839998 192.77711999999997,727.6334995839999 192.77711999999997,727.6334995839999 192.77711999999997C727.6334995839999 192.77711999999997,727.8019795839998 192.77711999999997,727.9423795839998 192.77711999999997C730.4695795839998 192.91751999999997,731.9578195839998 194.57423999999997,731.9578195839998 196.65215999999998C731.9578195839998 197.66303999999997,731.6208595839998 198.81431999999998,730.7784595839998 199.90943999999996C729.1778995839999 202.07159999999996,726.5664595839999 203.25095999999996,724.2919795839998 203.25095999999996C722.5229395839998 203.25095999999996,721.0066195839998 202.54895999999997,720.2765395839998 201.11687999999998C720.0518995839998 200.55527999999998,719.9395795839998 200.02175999999997,719.9395795839998 199.43207999999998C719.9395795839998 196.37135999999998,723.3653395839998 192.97367999999997,727.2965395839998 192.77711999999997">
</path>
</g>
</g>
<g class="vf-modifiers">
</g>
</g>
<g class="vf-stavenote" id="vf-auto68413">
<g class="vf-note" pointer-events="bounding-box">
<g class="vf-notehead" pointer-events="bounding-box">
<path stroke-width="0.3" fill="#000000" stroke="none" stroke-dasharray="none" d="M777.3895075839998 197.99999999999997M784.7464675839998 192.77711999999997C784.8587875839999 192.77711999999997,785.0272675839998 192.77711999999997,785.0553475839998 192.77711999999997C785.0553475839998 192.77711999999997,785.0834275839999 192.77711999999997,785.0834275839999 192.77711999999997C785.0834275839999 192.77711999999997,785.2519075839998 192.77711999999997,785.3923075839998 192.77711999999997C787.9195075839998 192.91751999999997,789.4077475839998 194.57423999999997,789.4077475839998 196.65215999999998C789.4077475839998 197.66303999999997,789.0707875839998 198.81431999999998,788.2283875839998 199.90943999999996C786.6278275839999 202.07159999999996,784.0163875839999 203.25095999999996,781.7419075839998 203.25095999999996C779.9728675839998 203.25095999999996,778.4565475839998 202.54895999999997,777.7264675839998 201.11687999999998C777.5018275839998 200.55527999999998,777.3895075839998 200.02175999999997,777.3895075839998 199.43207999999998C777.3895075839998 196.37135999999998,780.8152675839998 192.97367999999997,784.7464675839998 192.77711999999997">
</path>
</g>
</g>
<g class="vf-modifiers">
<g class="vf-stavenote" id="vf-auto68423">
<g class="vf-note" pointer-events="bounding-box">
<g class="vf-stem" pointer-events="bounding-box">
<path stroke-width="1.5" fill="none" stroke="#000000" stroke-dasharray="none" d="M758.7074691839998 197.99999999999997L758.7074691839998 174.89999999999998">
</path>
</g>
<g class="vf-notehead" pointer-events="bounding-box">
<path stroke-width="0.3" fill="#000000" stroke="none" stroke-dasharray="none" d="M751.5254307839998 197.99999999999997M756.3810243839998 194.55289919999998C756.4551555839998 194.55289919999998,756.5663523839999 194.55289919999998,756.5848851839999 194.55289919999998C756.5848851839999 194.55289919999998,756.6034179839999 194.55289919999998,756.6034179839999 194.55289919999998C756.6034179839999 194.55289919999998,756.7146147839998 194.55289919999998,756.8072787839998 194.55289919999998C758.4752307839998 194.64556319999997,759.4574691839998 195.73899839999996,759.4574691839998 197.11042559999999C759.4574691839998 197.77760639999997,759.2350755839998 198.53745119999996,758.6790915839998 199.26023039999998C757.6227219839998 200.68725599999996,755.8991715839998 201.46563359999996,754.3980147839998 201.46563359999996C753.2304483839998 201.46563359999996,752.2296771839998 201.00231359999998,751.7478243839998 200.05714079999998C751.5995619839998 199.68648479999996,751.5254307839998 199.33436159999997,751.5254307839998 198.94517279999997C751.5254307839998 196.92509759999996,753.7864323839998 194.68262879999997,756.3810243839998 194.55289919999998">
</path>
</g>
<g class="vf-flag" pointer-events="bounding-box">
<path stroke-width="0.3" fill="#000000" stroke="none" stroke-dasharray="none" d="M758.7074691839998 172.89999999999998M758.2626819839999 175.88378079999998L758.2626819839999 172.992664L758.3368131839998 172.992664C758.5406739839998 172.992664,758.6704035839998 173.12239359999998,758.7074691839998 173.34478719999998C759.0966579839999 175.19806719999997,760.2642243839998 177.21814239999998,761.8765779839998 178.73783199999997C763.6742595839999 180.42431679999999,764.5823667839999 182.74091679999998,764.5823667839999 185.13164799999998C764.5823667839999 187.39264959999997,763.7854563839999 189.74631519999997,762.1731027839999 191.69225919999997C761.8951107839998 192.06291519999996,761.8765779839998 192.06291519999996,761.6912499839998 192.06291519999996C761.4688563839998 192.06291519999996,761.3205939839999 191.89611999999997,761.3205939839999 191.67372639999996C761.3205939839999 191.50693119999997,761.3391267839999 191.4698656,761.5244547839998 191.2660048C762.9329475839999 189.56098719999997,763.6371939839999 187.5038464,763.6371939839999 185.5393696C763.6371939839999 183.7972864,763.0812099839998 182.12933439999998,761.9321763839998 180.86910399999996C761.2279299839998 180.09072639999997,759.9306339839998 179.34941439999997,758.2812147839999 178.77489759999997C758.2812147839999 178.75636479999997,758.2626819839999 178.18184799999997,758.2626819839999 175.88378079999998">
</path>
</g>
</g>
<g class="vf-modifiers">
</g>
</g>
<path stroke-width="1" fill="none" stroke="#000000" stroke-dasharray="none" d="M752.5254307839998 189.74999999999997L765.5254307839998 180.74999999999997Z">
</path>
</g>
</g>
<g class="vf-stavenote" id="vf-auto68437">
<g class="vf-note" pointer-events="bounding-box">
<g class="vf-notehead" pointer-events="bounding-box">
<path stroke-width="0.3" fill="#000000" stroke="none" stroke-dasharray="none" d="M808.9753587839998 197.99999999999997M816.3323187839998 192.77711999999997C816.4446387839998 192.77711999999997,816.6131187839998 192.77711999999997,816.6411987839998 192.77711999999997C816.6411987839998 192.77711999999997,816.6692787839999 192.77711999999997,816.6692787839999 192.77711999999997C816.6692787839999 192.77711999999997,816.8377587839998 192.77711999999997,816.9781587839998 192.77711999999997C819.5053587839998 192.91751999999997,820.9935987839998 194.57423999999997,820.9935987839998 196.65215999999998C820.9935987839998 197.66303999999997,820.6566387839998 198.81431999999998,819.8142387839998 199.90943999999996C818.2136787839999 202.07159999999996,815.6022387839998 203.25095999999996,813.3277587839998 203.25095999999996C811.5587187839998 203.25095999999996,810.0423987839998 202.54895999999997,809.3123187839998 201.11687999999998C809.0876787839998 200.55527999999998,808.9753587839998 200.02175999999997,808.9753587839998 199.43207999999998C808.9753587839998 196.37135999999998,812.4011187839998 192.97367999999997,816.3323187839998 192.77711999999997">
</path>
</g>
</g>
<g class="vf-modifiers">
</g>
</g>
<g class="vf-stavenote" id="vf-auto68447">
<g class="vf-note" pointer-events="bounding-box">
<g class="vf-notehead" pointer-events="bounding-box">
<path stroke-width="0.3" fill="#000000" stroke="none" stroke-dasharray="none" d="M866.4252867839998 197.99999999999997M873.7822467839998 192.77711999999997C873.8945667839998 192.77711999999997,874.0630467839998 192.77711999999997,874.0911267839998 192.77711999999997C874.0911267839998 192.77711999999997,874.1192067839999 192.77711999999997,874.1192067839999 192.77711999999997C874.1192067839999 192.77711999999997,874.2876867839998 192.77711999999997,874.4280867839998 192.77711999999997C876.9552867839998 192.91751999999997,878.4435267839998 194.57423999999997,878.4435267839998 196.65215999999998C878.4435267839998 197.66303999999997,878.1065667839998 198.81431999999998,877.2641667839998 199.90943999999996C875.6636067839999 202.07159999999996,873.0521667839998 203.25095999999996,870.7776867839998 203.25095999999996C869.0086467839998 203.25095999999996,867.4923267839998 202.54895999999997,866.7622467839998 201.11687999999998C866.5376067839998 200.55527999999998,866.4252867839998 200.02175999999997,866.4252867839998 199.43207999999998C866.4252867839998 196.37135999999998,869.8510467839998 192.97367999999997,873.7822467839998 192.77711999999997">
</path>
</g>
</g>
<g class="vf-modifiers">
<g class="vf-stavenote" id="vf-auto68457">
<g class="vf-note" pointer-events="bounding-box">
<g class="vf-stem" pointer-events="bounding-box">
<path stroke-width="1.5" fill="none" stroke="#000000" stroke-dasharray="none" d="M847.7432483839998 197.99999999999997L847.7432483839998 174.89999999999998">
</path>
</g>
<g class="vf-notehead" pointer-events="bounding-box">
<path stroke-width="0.3" fill="#000000" stroke="none" stroke-dasharray="none" d="M840.5612099839998 197.99999999999997M845.4168035839998 194.55289919999998C845.4909347839998 194.55289919999998,845.6021315839998 194.55289919999998,845.6206643839998 194.55289919999998C845.6206643839998 194.55289919999998,845.6391971839998 194.55289919999998,845.6391971839998 194.55289919999998C845.6391971839998 194.55289919999998,845.7503939839997 194.55289919999998,845.8430579839998 194.55289919999998C847.5110099839998 194.64556319999997,848.4932483839998 195.73899839999996,848.4932483839998 197.11042559999999C848.4932483839998 197.77760639999997,848.2708547839998 198.53745119999996,847.7148707839998 199.26023039999998C846.6585011839998 200.68725599999996,844.9349507839997 201.46563359999996,843.4337939839997 201.46563359999996C842.2662275839998 201.46563359999996,841.2654563839998 201.00231359999998,840.7836035839998 200.05714079999998C840.6353411839998 199.68648479999996,840.5612099839998 199.33436159999997,840.5612099839998 198.94517279999997C840.5612099839998 196.92509759999996,842.8222115839998 194.68262879999997,845.4168035839998 194.55289919999998">
</path>
</g>
<g class="vf-flag" pointer-events="bounding-box">
<path stroke-width="0.3" fill="#000000" stroke="none" stroke-dasharray="none" d="M847.7432483839998 172.89999999999998M847.2984611839998 175.88378079999998L847.2984611839998 172.992664L847.3725923839997 172.992664C847.5764531839998 172.992664,847.7061827839998 173.12239359999998,847.7432483839998 173.34478719999998C848.1324371839999 175.19806719999997,849.3000035839998 177.21814239999998,850.9123571839998 178.73783199999997C852.7100387839998 180.42431679999999,853.6181459839999 182.74091679999998,853.6181459839999 185.13164799999998C853.6181459839999 187.39264959999997,852.8212355839999 189.74631519999997,851.2088819839998 191.69225919999997C850.9308899839998 192.06291519999996,850.9123571839998 192.06291519999996,850.7270291839998 192.06291519999996C850.5046355839997 192.06291519999996,850.3563731839998 191.89611999999997,850.3563731839998 191.67372639999996C850.3563731839998 191.50693119999997,850.3749059839998 191.4698656,850.5602339839998 191.2660048C851.9687267839998 189.56098719999997,852.6729731839998 187.5038464,852.6729731839998 185.5393696C852.6729731839998 183.7972864,852.1169891839997 182.12933439999998,850.9679555839998 180.86910399999996C850.2637091839998 180.09072639999997,848.9664131839997 179.34941439999997,847.3169939839999 178.77489759999997C847.3169939839999 178.75636479999997,847.2984611839998 178.18184799999997,847.2984611839998 175.88378079999998">
</path>
</g>
</g>
<g class="vf-modifiers">
</g>
</g>
<path stroke-width="1" fill="none" stroke="#000000" stroke-dasharray="none" d="M841.5612099839998 189.74999999999997L854.5612099839998 180.74999999999997Z">
</path>
</g>
</g>
<g class="vf-stavenote" id="vf-auto68471">
<g class="vf-note" pointer-events="bounding-box">
<g class="vf-notehead" pointer-events="bounding-box">
<path stroke-width="0.3" fill="#000000" stroke="none" stroke-dasharray="none" d="M898.0111379839998 197.99999999999997M905.3680979839997 192.77711999999997C905.4804179839998 192.77711999999997,905.6488979839997 192.77711999999997,905.6769779839998 192.77711999999997C905.6769779839998 192.77711999999997,905.7050579839998 192.77711999999997,905.7050579839998 192.77711999999997C905.7050579839998 192.77711999999997,905.8735379839998 192.77711999999997,906.0139379839998 192.77711999999997C908.5411379839998 192.91751999999997,910.0293779839998 194.57423999999997,910.0293779839998 196.65215999999998C910.0293779839998 197.66303999999997,909.6924179839998 198.81431999999998,908.8500179839998 199.90943999999996C907.2494579839998 202.07159999999996,904.6380179839998 203.25095999999996,902.3635379839998 203.25095999999996C900.5944979839998 203.25095999999996,899.0781779839998 202.54895999999997,898.3480979839998 201.11687999999998C898.1234579839997 200.55527999999998,898.0111379839998 200.02175999999997,898.0111379839998 199.43207999999998C898.0111379839998 196.37135999999998,901.4368979839998 192.97367999999997,905.3680979839997 192.77711999999997">
</path>
</g>
</g>
<g class="vf-modifiers">
</g>
</g>
<g class="vf-stavenote" id="vf-auto68481">
<g class="vf-note" pointer-events="bounding-box">
<g class="vf-notehead" pointer-events="bounding-box">
<path stroke-width="0.3" fill="#000000" stroke="none" stroke-dasharray="none" d="M955.4610659839999 197.99999999999997M962.8180259839999 192.77711999999997C962.9303459839999 192.77711999999997,963.0988259839999 192.77711999999997,963.1269059839999 192.77711999999997C963.1269059839999 192.77711999999997,963.154985984 192.77711999999997,963.154985984 192.77711999999997C963.154985984 192.77711999999997,963.3234659839999 192.77711999999997,963.4638659839999 192.77711999999997C965.9910659839999 192.91751999999997,967.4793059839999 194.57423999999997,967.4793059839999 196.65215999999998C967.4793059839999 197.66303999999997,967.1423459839999 198.81431999999998,966.2999459839999 199.90943999999996C964.699385984 202.07159999999996,962.0879459839999 203.25095999999996,959.8134659839999 203.25095999999996C958.0444259839999 203.25095999999996,956.5281059839999 202.54895999999997,955.7980259839999 201.11687999999998C955.5733859839999 200.55527999999998,955.4610659839999 200.02175999999997,955.4610659839999 199.43207999999998C955.4610659839999 196.37135999999998,958.8868259839999 192.97367999999997,962.8180259839999 192.77711999999997">
</path>
</g>
</g>
<g class="vf-modifiers">
<g class="vf-stavenote" id="vf-auto68491">
<g class="vf-note" pointer-events="bounding-box">
<g class="vf-stem" pointer-events="bounding-box">
<path stroke-width="1.5" fill="none" stroke="#000000" stroke-dasharray="none" d="M936.7790275839999 197.99999999999997L936.7790275839999 174.89999999999998">
</path>
</g>
<g class="vf-notehead" pointer-events="bounding-box">
<path stroke-width="0.3" fill="#000000" stroke="none" stroke-dasharray="none" d="M929.5969891839999 197.99999999999997M934.4525827839999 194.55289919999998C934.5267139839999 194.55289919999998,934.6379107839999 194.55289919999998,934.6564435839999 194.55289919999998C934.6564435839999 194.55289919999998,934.6749763839999 194.55289919999998,934.6749763839999 194.55289919999998C934.6749763839999 194.55289919999998,934.7861731839998 194.55289919999998,934.8788371839998 194.55289919999998C936.5467891839999 194.64556319999997,937.5290275839999 195.73899839999996,937.5290275839999 197.11042559999999C937.5290275839999 197.77760639999997,937.3066339839999 198.53745119999996,936.7506499839999 199.26023039999998C935.6942803839999 200.68725599999996,933.9707299839998 201.46563359999996,932.4695731839998 201.46563359999996C931.3020067839999 201.46563359999996,930.3012355839999 201.00231359999998,929.8193827839999 200.05714079999998C929.6711203839999 199.68648479999996,929.5969891839999 199.33436159999997,929.5969891839999 198.94517279999997C929.5969891839999 196.92509759999996,931.8579907839999 194.68262879999997,934.4525827839999 194.55289919999998">
</path>
</g>
<g class="vf-flag" pointer-events="bounding-box">
<path stroke-width="0.3" fill="#000000" stroke="none" stroke-dasharray="none" d="M936.7790275839999 172.89999999999998M936.3342403839999 175.88378079999998L936.3342403839999 172.992664L936.4083715839998 172.992664C936.6122323839999 172.992664,936.7419619839999 173.12239359999998,936.7790275839999 173.34478719999998C937.168216384 175.19806719999997,938.3357827839999 177.21814239999998,939.9481363839999 178.73783199999997C941.7458179839999 180.42431679999999,942.653925184 182.74091679999998,942.653925184 185.13164799999998C942.653925184 187.39264959999997,941.857014784 189.74631519999997,940.2446611839999 191.69225919999997C939.9666691839999 192.06291519999996,939.9481363839999 192.06291519999996,939.7628083839999 192.06291519999996C939.5404147839998 192.06291519999996,939.3921523839999 191.89611999999997,939.3921523839999 191.67372639999996C939.3921523839999 191.50693119999997,939.4106851839999 191.4698656,939.5960131839998 191.2660048C941.0045059839999 189.56098719999997,941.7087523839999 187.5038464,941.7087523839999 185.5393696C941.7087523839999 183.7972864,941.1527683839998 182.12933439999998,940.0037347839999 180.86910399999996C939.2994883839999 180.09072639999997,938.0021923839998 179.34941439999997,936.352773184 178.77489759999997C936.352773184 178.75636479999997,936.3342403839999 178.18184799999997,936.3342403839999 175.88378079999998">
</path>
</g>
</g>
<g class="vf-modifiers">
</g>
</g>
<path stroke-width="1" fill="none" stroke="#000000" stroke-dasharray="none" d="M930.5969891839999 189.74999999999997L943.5969891839999 180.74999999999997Z">
</path>
</g>
</g>
<g class="vf-stavenote" id="vf-auto68505">
<g class="vf-note" pointer-events="bounding-box">
<g class="vf-notehead" pointer-events="bounding-box">
<path stroke-width="0.3" fill="#000000" stroke="none" stroke-dasharray="none" d="M987.046917184 197.99999999999997M994.403877184 192.77711999999997C994.516197184 192.77711999999997,994.684677184 192.77711999999997,994.712757184 192.77711999999997C994.712757184 192.77711999999997,994.740837184 192.77711999999997,994.740837184 192.77711999999997C994.740837184 192.77711999999997,994.909317184 192.77711999999997,995.049717184 192.77711999999997C997.576917184 192.91751999999997,999.065157184 194.57423999999997,999.065157184 196.65215999999998C999.065157184 197.66303999999997,998.728197184 198.81431999999998,997.885797184 199.90943999999996C996.285237184 202.07159999999996,993.673797184 203.25095999999996,991.399317184 203.25095999999996C989.630277184 203.25095999999996,988.113957184 202.54895999999997,987.383877184 201.11687999999998C987.159237184 200.55527999999998,987.046917184 200.02175999999997,987.046917184 199.43207999999998C987.046917184 196.37135999999998,990.472677184 192.97367999999997,994.403877184 192.77711999999997">
</path>
</g>
</g>
<g class="vf-modifiers">
</g>
</g>
<g class="vf-stavenote" id="vf-auto68515">
<g class="vf-note" pointer-events="bounding-box">
<g class="vf-notehead" pointer-events="bounding-box">
<path stroke-width="0.3" fill="#000000" stroke="none" stroke-dasharray="none" d="M1044.496845184 197.99999999999997M1051.853805184 192.77711999999997C1051.966125184 192.77711999999997,1052.134605184 192.77711999999997,1052.1626851839999 192.77711999999997C1052.1626851839999 192.77711999999997,1052.190765184 192.77711999999997,1052.190765184 192.77711999999997C1052.190765184 192.77711999999997,1052.359245184 192.77711999999997,1052.499645184 192.77711999999997C1055.026845184 192.91751999999997,1056.515085184 194.57423999999997,1056.515085184 196.65215999999998C1056.515085184 197.66303999999997,1056.178125184 198.81431999999998,1055.335725184 199.90943999999996C1053.735165184 202.07159999999996,1051.123725184 203.25095999999996,1048.849245184 203.25095999999996C1047.080205184 203.25095999999996,1045.563885184 202.54895999999997,1044.833805184 201.11687999999998C1044.609165184 200.55527999999998,1044.496845184 200.02175999999997,1044.496845184 199.43207999999998C1044.496845184 196.37135999999998,1047.922605184 192.97367999999997,1051.853805184 192.77711999999997">
</path>
</g>
</g>
<g class="vf-modifiers">
<g class="vf-stavenote" id="vf-auto68525">
<g class="vf-note" pointer-events="bounding-box">
<g class="vf-stem" pointer-events="bounding-box">
<path stroke-width="1.5" fill="none" stroke="#000000" stroke-dasharray="none" d="M1025.814806784 197.99999999999997L1025.814806784 174.89999999999998">
</path>
</g>
<g class="vf-notehead" pointer-events="bounding-box">
<path stroke-width="0.3" fill="#000000" stroke="none" stroke-dasharray="none" d="M1018.632768384 197.99999999999997M1023.488361984 194.55289919999998C1023.562493184 194.55289919999998,1023.673689984 194.55289919999998,1023.692222784 194.55289919999998C1023.692222784 194.55289919999998,1023.710755584 194.55289919999998,1023.710755584 194.55289919999998C1023.710755584 194.55289919999998,1023.8219523839999 194.55289919999998,1023.9146163839999 194.55289919999998C1025.582568384 194.64556319999997,1026.564806784 195.73899839999996,1026.564806784 197.11042559999999C1026.564806784 197.77760639999997,1026.342413184 198.53745119999996,1025.7864291839999 199.26023039999998C1024.730059584 200.68725599999996,1023.0065091839999 201.46563359999996,1021.5053523839999 201.46563359999996C1020.337785984 201.46563359999996,1019.337014784 201.00231359999998,1018.855161984 200.05714079999998C1018.706899584 199.68648479999996,1018.632768384 199.33436159999997,1018.632768384 198.94517279999997C1018.632768384 196.92509759999996,1020.893769984 194.68262879999997,1023.488361984 194.55289919999998">
</path>
</g>
<g class="vf-flag" pointer-events="bounding-box">
<path stroke-width="0.3" fill="#000000" stroke="none" stroke-dasharray="none" d="M1025.814806784 172.89999999999998M1025.370019584 175.88378079999998L1025.370019584 172.992664L1025.444150784 172.992664C1025.648011584 172.992664,1025.777741184 173.12239359999998,1025.814806784 173.34478719999998C1026.203995584 175.19806719999997,1027.371561984 177.21814239999998,1028.983915584 178.73783199999997C1030.781597184 180.42431679999999,1031.689704384 182.74091679999998,1031.689704384 185.13164799999998C1031.689704384 187.39264959999997,1030.892793984 189.74631519999997,1029.280440384 191.69225919999997C1029.002448384 192.06291519999996,1028.983915584 192.06291519999996,1028.798587584 192.06291519999996C1028.576193984 192.06291519999996,1028.427931584 191.89611999999997,1028.427931584 191.67372639999996C1028.427931584 191.50693119999997,1028.446464384 191.4698656,1028.631792384 191.2660048C1030.040285184 189.56098719999997,1030.744531584 187.5038464,1030.744531584 185.5393696C1030.744531584 183.7972864,1030.188547584 182.12933439999998,1029.039513984 180.86910399999996C1028.335267584 180.09072639999997,1027.037971584 179.34941439999997,1025.388552384 178.77489759999997C1025.388552384 178.75636479999997,1025.370019584 178.18184799999997,1025.370019584 175.88378079999998">
</path>
</g>
</g>
<g class="vf-modifiers">
</g>
</g>
<path stroke-width="1" fill="none" stroke="#000000" stroke-dasharray="none" d="M1019.632768384 189.74999999999997L1032.632768384 180.74999999999997Z">
</path>
</g>
</g>
<g class="vf-stavenote" id="vf-auto68539">
<g class="vf-note" pointer-events="bounding-box">
<g class="vf-notehead" pointer-events="bounding-box">
<path stroke-width="0.3" fill="#000000" stroke="none" stroke-dasharray="none" d="M1076.082696384 197.99999999999997M1083.439656384 192.77711999999997C1083.551976384 192.77711999999997,1083.720456384 192.77711999999997,1083.7485363839999 192.77711999999997C1083.7485363839999 192.77711999999997,1083.776616384 192.77711999999997,1083.776616384 192.77711999999997C1083.776616384 192.77711999999997,1083.945096384 192.77711999999997,1084.085496384 192.77711999999997C1086.612696384 192.91751999999997,1088.100936384 194.57423999999997,1088.100936384 196.65215999999998C1088.100936384 197.66303999999997,1087.763976384 198.81431999999998,1086.921576384 199.90943999999996C1085.321016384 202.07159999999996,1082.709576384 203.25095999999996,1080.435096384 203.25095999999996C1078.666056384 203.25095999999996,1077.1497363839999 202.54895999999997,1076.419656384 201.11687999999998C1076.195016384 200.55527999999998,1076.082696384 200.02175999999997,1076.082696384 199.43207999999998C1076.082696384 196.37135999999998,1079.508456384 192.97367999999997,1083.439656384 192.77711999999997">
</path>
</g>
</g>
<g class="vf-modifiers">
</g>
</g>
<path stroke-width="1.5" fill="none" stroke="#000000" stroke-dasharray="none" d="M520.2792643839999 197.99999999999997L520.2792643839999 163.74999999999997">
</path>
<path stroke-width="1.5" fill="none" stroke="#000000" stroke-dasharray="none" d="M565.4327267839999 197.99999999999997L565.4327267839999 163.74999999999997">
</path>
<path stroke-width="1.5" fill="none" stroke="#000000" stroke-dasharray="none" d="M597.0185779839999 197.99999999999997L597.0185779839999 163.74999999999997">
</path>
<path stroke-width="0.3" fill="#000000" stroke="none" stroke-dasharray="none" d="M519.5292643839999 162.99999999999997L519.5292643839999 167.99999999999997L597.2685779839999 167.99999999999997L597.2685779839999 162.99999999999997Z">
</path>
<path stroke-width="0.3" fill="#000000" stroke="none" stroke-dasharray="none" d="M564.6827267839999 170.49999999999997L564.6827267839999 175.49999999999997L597.2685779839999 175.49999999999997L597.2685779839999 170.49999999999997Z">
</path>
<path stroke-width="1.5" fill="none" stroke="#000000" stroke-dasharray="none" d="M654.4685059839999 197.99999999999997L654.4685059839999 163.74999999999997">
</path>
<path stroke-width="1.5" fill="none" stroke="#000000" stroke-dasharray="none" d="M699.6219683839998 197.99999999999997L699.6219683839998 163.74999999999997">
</path>
<path stroke-width="1.5" fill="none" stroke="#000000" stroke-dasharray="none" d="M731.2078195839998 197.99999999999997L731.2078195839998 163.74999999999997">
</path>
<path stroke-width="0.3" fill="#000000" stroke="none" stroke-dasharray="none" d="M653.7185059839999 162.99999999999997L653.7185059839999 167.99999999999997L731.4578195839998 167.99999999999997L731.4578195839998 162.99999999999997Z">
</path>
<path stroke-width="0.3" fill="#000000" stroke="none" stroke-dasharray="none" d="M698.8719683839998 170.49999999999997L698.8719683839998 175.49999999999997L731.4578195839998 175.49999999999997L731.4578195839998 170.49999999999997Z">
</path>
<path stroke-width="1.5" fill="none" stroke="#000000" stroke-dasharray="none" d="M788.6577475839998 197.99999999999997L788.6577475839998 163.74999999999997">
</path>
<path stroke-width="1.5" fill="none" stroke="#000000" stroke-dasharray="none" d="M820.2435987839998 197.99999999999997L820.2435987839998 163.74999999999997">
</path>
<path stroke-width="1.5" fill="none" stroke="#000000" stroke-dasharray="none" d="M877.6935267839998 197.99999999999997L877.6935267839998 163.74999999999997">
</path>
<path stroke-width="1.5" fill="none" stroke="#000000" stroke-dasharray="none" d="M909.2793779839998 197.99999999999997L909.2793779839998 163.74999999999997">
</path>
<path stroke-width="0.3" fill="#000000" stroke="none" stroke-dasharray="none" d="M787.9077475839998 162.99999999999997L787.9077475839998 167.99999999999997L909.5293779839998 167.99999999999997L909.5293779839998 162.99999999999997Z">
</path>
<path stroke-width="0.3" fill="#000000" stroke="none" stroke-dasharray="none" d="M787.9077475839998 170.49999999999997L787.9077475839998 175.49999999999997L909.5293779839998 175.49999999999997L909.5293779839998 170.49999999999997Z">
</path>
<path stroke-width="1.5" fill="none" stroke="#000000" stroke-dasharray="none" d="M966.7293059839999 197.99999999999997L966.7293059839999 163.74999999999997">
</path>
<path stroke-width="1.5" fill="none" stroke="#000000" stroke-dasharray="none" d="M998.315157184 197.99999999999997L998.315157184 163.74999999999997">
</path>
<path stroke-width="1.5" fill="none" stroke="#000000" stroke-dasharray="none" d="M1055.765085184 197.99999999999997L1055.765085184 163.74999999999997">
</path>
<path stroke-width="1.5" fill="none" stroke="#000000" stroke-dasharray="none" d="M1087.350936384 197.99999999999997L1087.350936384 163.74999999999997">
</path>
<path stroke-width="0.3" fill="#000000" stroke="none" stroke-dasharray="none" d="M965.9793059839999 162.99999999999997L965.9793059839999 167.99999999999997L1087.600936384 167.99999999999997L1087.600936384 162.99999999999997Z">
</path>
<path stroke-width="0.3" fill="#000000" stroke="none" stroke-dasharray="none" d="M965.9793059839999 170.49999999999997L965.9793059839999 175.49999999999997L1087.600936384 175.49999999999997L1087.600936384 170.49999999999997Z">
</path>
</svg>