<svg width="1536" height="331.99999999999994" viewBox="0 0 1536 331.99999999999994">
<path stroke-width="1" fill="none" stroke="black" stroke-dasharray="none" d="M50 197.99999999999997L514.2250503679999 197.99999999999997">
</path>
<rect stroke-width="0.3" fill="black" stroke="black" stroke-dasharray="none" x="514.2250503679999" y="177.49999999999997" width="1" height="41">
</rect>
<path stroke-width="0.3" fill="black" stroke="none" stroke-dasharray="none" d="M55 197.99999999999997M55 197.99999999999997L55 188.00639999999999L57.1888 188.00639999999999L59.4064 188.00639999999999L59.4064 197.99999999999997L59.4064 208.02239999999998L57.1888 208.02239999999998L55 208.02239999999998L55 197.99999999999997M63.870400000000004 198.02879999999996L63.870400000000004 188.00639999999999L66.1168 188.00639999999999L68.3632 188.00639999999999L68.3632 198.02879999999996L68.3632 208.02239999999998L66.1168 208.02239999999998L63.870400000000004 208.02239999999998L63.870400000000004 198.02879999999996">
</path>
<path stroke-width="0.3" fill="black" stroke="none" stroke-dasharray="none" d="M96.1296 197.99999999999997M101.80319999999999 179.33759999999998C101.91839999999999 179.33759999999998,102.11999999999999 179.33759999999998,102.3504 179.33759999999998C102.8112 179.33759999999998,103.416 179.33759999999998,103.56 179.39519999999996C105.72 179.65439999999998,107.448 180.74879999999996,108.1968 182.27519999999998C108.45599999999999 182.79359999999997,108.57119999999999 183.34079999999997,108.57119999999999 183.91679999999997C108.57119999999999 185.32799999999997,107.7936 186.94079999999997,106.38239999999999 188.15039999999996C105.4032 188.98559999999998,104.42399999999999 189.50399999999996,102.8976 189.99359999999996C100.9104 190.62719999999996,99.21119999999999 191.75039999999998,98.1168 193.10399999999998C98.1168 193.10399999999998,98.1168 193.13279999999997,98.1168 193.13279999999997C98.1168 193.13279999999997,98.1168 193.13279999999997,98.1168 193.13279999999997C98.1168 193.13279999999997,98.2032 193.10399999999998,98.26079999999999 193.01759999999996C99.3552 192.12479999999996,100.824 191.60639999999998,102.1488 191.60639999999998C103.2432 191.60639999999998,104.0208 191.80799999999996,105.0576 192.38399999999996C105.6912 192.70079999999996,106.2672 192.84479999999996,106.81439999999999 192.84479999999996C107.0448 192.84479999999996,107.2752 192.84479999999996,107.53439999999999 192.78719999999998C107.9088 192.70079999999996,108.312 192.41279999999998,108.45599999999999 192.18239999999997C108.5424 191.98079999999996,108.68639999999999 191.89439999999996,108.8592 191.89439999999996C109.08959999999999 191.89439999999996,109.32 192.06719999999999,109.32 192.32639999999998C109.32 192.52799999999996,109.0608 193.24799999999996,108.8304 193.7376C107.9088 195.58079999999998,106.29599999999999 196.73279999999997,104.7408 196.73279999999997C104.62559999999999 196.73279999999997,104.5392 196.73279999999997,104.42399999999999 196.70399999999998C104.0208 196.70399999999998,103.848 196.58879999999996,103.3296 196.24319999999997C102.23519999999999 195.52319999999997,100.8528 195.14879999999997,99.6432 195.14879999999997C99.1248 195.14879999999997,98.664 195.20639999999997,98.232 195.37919999999997C97.65599999999999 195.58079999999998,97.1088 195.92639999999997,96.93599999999999 196.18559999999997C96.8496 196.38719999999998,96.70559999999999 196.44479999999996,96.5328 196.44479999999996C96.3888 196.44479999999996,96.2448 196.38719999999998,96.1584 196.21439999999998L96.10079999999999 196.128L96.10079999999999 195.72479999999996C96.10079999999999 195.37919999999997,96.1296 195.26399999999998,96.1296 195.14879999999997C96.1584 195.06239999999997,96.18719999999999 194.88959999999997,96.18719999999999 194.74559999999997C96.70559999999999 192.32639999999998,98.4624 190.16639999999998,100.8528 189.10079999999996C102.8112 188.17919999999998,104.10719999999999 186.53759999999997,104.3376 184.46399999999997C104.39519999999999 184.29119999999998,104.39519999999999 184.14719999999997,104.39519999999999 183.97439999999997C104.39519999999999 182.13119999999998,103.0128 180.86399999999998,101.0544 180.86399999999998C100.9104 180.86399999999998,100.7376 180.86399999999998,100.5936 180.86399999999998C100.3056 180.89279999999997,100.2192 180.89279999999997,100.2192 180.95039999999997C100.2192 180.95039999999997,100.2192 180.97919999999996,100.3056 181.03679999999997C100.96799999999999 181.41119999999998,101.28479999999999 182.13119999999998,101.28479999999999 182.82239999999996C101.28479999999999 183.71519999999998,100.824 184.55039999999997,99.93119999999999 184.89599999999996C99.6432 184.98239999999998,99.3552 185.01119999999997,99.1248 185.01119999999997C97.9152 185.01119999999997,96.9072 183.97439999999997,96.9072 182.73599999999996C96.9072 182.50559999999996,96.9072 182.27519999999998,96.9648 182.01599999999996C97.3968 180.69119999999998,99.4416 179.59679999999997,101.80319999999999 179.33759999999998M102.696 198.02879999999996L102.75359999999999 198.02879999999996L102.6672 198.02879999999996L102.696 198.02879999999996M102.696 178.61759999999998L102.75359999999999 178.61759999999998L102.6672 178.61759999999998L102.696 178.61759999999998">
</path>
<path stroke-width="0.3" fill="black" stroke="none" stroke-dasharray="none" d="M96 217.99999999999997M101.0112 199.65439999999998C101.04 199.62559999999996,101.4432 199.62559999999996,102.6816 199.62559999999996C103.056 199.62559999999996,103.4592 199.62559999999996,103.9776 199.62559999999996L106.8864 199.62559999999996L106.9728 199.71199999999996C107.1168 199.79839999999996,107.2032 199.94239999999996,107.2032 200.05759999999998C107.2032 200.23039999999997,107.1168 200.34559999999996,107.0016 200.46079999999998C106.9728 200.54719999999998,106.7136 200.77759999999998,106.5408 201.03679999999997L105.0144 202.79359999999997L103.056 205.01119999999997L102.0192 206.19199999999998L100.464 207.97759999999997L98.4192 210.31039999999996C98.0736 210.74239999999998,97.6992 211.08799999999997,97.6992 211.08799999999997C97.6992 211.08799999999997,97.6992 211.08799999999997,97.6992 211.08799999999997C97.6992 211.14559999999997,97.9584 211.14559999999997,100.3488 211.14559999999997L102.9696 211.14559999999997L102.9696 209.27359999999996C102.9696 207.37279999999998,102.9696 207.34399999999997,102.9984 207.31519999999998C103.056 207.22879999999998,103.3152 206.91199999999998,104.3232 205.73119999999997L104.7264 205.29919999999998L105.1296 204.86719999999997L105.7344 204.08959999999996L106.368 203.42719999999997L106.6848 203.02399999999997C106.8 202.85119999999998,106.9728 202.82239999999996,107.1168 202.82239999999996C107.28960000000001 202.82239999999996,107.4336 202.90879999999999,107.52 203.05279999999996C107.5488 203.13919999999996,107.5488 203.19679999999997,107.5488 205.32799999999997C107.5488 205.81759999999997,107.5488 206.42239999999998,107.5488 207.14239999999998L107.5488 211.14559999999997L108.2688 211.14559999999997C108.9312 211.14559999999997,108.96 211.14559999999997,109.0464 211.17439999999996C109.2768 211.26079999999996,109.392 211.49119999999996,109.392 211.75039999999998C109.392 211.89439999999996,109.3632 212.06719999999999,109.248 212.18239999999997C109.0752 212.32639999999998,109.0464 212.32639999999998,108.2688 212.32639999999998L107.5488 212.32639999999998L107.5488 212.81599999999997C107.5776 214.28479999999996,107.8656 214.86079999999998,108.9888 215.46559999999997C109.392 215.66719999999998,109.4784 215.72479999999996,109.4784 216.01279999999997C109.4784 216.21439999999998,109.4208 216.30079999999998,109.2768 216.41599999999997L109.1904 216.44479999999996L105.2448 216.44479999999996L101.328 216.44479999999996L101.2416 216.41599999999997C101.0688 216.30079999999998,101.04 216.21439999999998,101.04 216.01279999999997C101.04 215.72479999999996,101.0688 215.66719999999998,101.5008 215.46559999999997C102.624 214.86079999999998,102.912 214.28479999999996,102.912 212.81599999999997L102.912 212.32639999999998L99.6 212.32639999999998C98.9952 212.38399999999996,98.5056 212.38399999999996,98.1024 212.38399999999996C96.288 212.38399999999996,96.2592 212.32639999999998,96.2304 212.32639999999998C96.0576 212.26879999999997,96 212.09599999999998,96 211.89439999999996C96 211.89439999999996,96 211.89439999999996,96 211.89439999999996C96 211.69279999999998,96 211.69279999999998,96.576 211.0304C98.9952 208.09279999999998,100.6944 203.83039999999997,100.6944 200.43199999999996C100.6944 199.91359999999997,100.7808 199.74079999999998,101.0112 199.65439999999998M102.7392 218.02879999999996L102.768 218.02879999999996L102.6816 218.02879999999996L102.7392 218.02879999999996M102.7392 198.61759999999998L102.768 198.61759999999998L102.6816 198.61759999999998L102.7392 198.61759999999998">
</path>
<g class="vf-stavenote" id="vf-auto89424">
<g class="vf-note" pointer-events="bounding-box">
<g class="vf-notehead" pointer-events="bounding-box">
<path stroke-width="0.3" fill="#000000" stroke="none" stroke-dasharray="none" d="M147.3424768 197.99999999999997M154.69943679999997 192.77711999999997C154.81175679999998 192.77711999999997,154.9802368 192.77711999999997,155.0083168 192.77711999999997C155.0083168 192.77711999999997,155.03639679999998 192.77711999999997,155.03639679999998 192.77711999999997C155.03639679999998 192.77711999999997,155.2048768 192.77711999999997,155.3452768 192.77711999999997C157.8724768 192.91751999999997,159.36071679999998 194.57423999999997,159.36071679999998 196.65215999999998C159.36071679999998 197.66303999999997,159.0237568 198.81431999999998,158.18135679999997 199.90943999999996C156.58079679999997 202.07159999999996,153.96935679999999 203.25095999999996,151.69487679999997 203.25095999999996C149.92583679999998 203.25095999999996,148.40951679999998 202.54895999999997,147.6794368 201.11687999999998C147.4547968 200.55527999999998,147.3424768 200.02175999999997,147.3424768 199.43207999999998C147.3424768 196.37135999999998,150.76823679999998 192.97367999999997,154.69943679999997 192.77711999999997">
</path>
</g>
</g>
<g class="vf-modifiers">
<g class="vf-stavenote" id="vf-auto89434">
<g class="vf-note" pointer-events="bounding-box">
<g class="vf-stem" pointer-events="bounding-box">
<path stroke-width="1.5" fill="none" stroke="#000000" stroke-dasharray="none" d="M128.6604384 197.99999999999997L128.6604384 174.89999999999998">
</path>
</g>
<g class="vf-notehead" pointer-events="bounding-box">
<path stroke-width="0.3" fill="#000000" stroke="none" stroke-dasharray="none" d="M121.4784 197.99999999999997M126.3339936 194.55289919999998C126.4081248 194.55289919999998,126.5193216 194.55289919999998,126.5378544 194.55289919999998C126.5378544 194.55289919999998,126.55638719999999 194.55289919999998,126.55638719999999 194.55289919999998C126.55638719999999 194.55289919999998,126.66758399999999 194.55289919999998,126.76024799999999 194.55289919999998C128.4282 194.64556319999997,129.4104384 195.73899839999996,129.4104384 197.11042559999999C129.4104384 197.77760639999997,129.1880448 198.53745119999996,128.6320608 199.26023039999998C127.5756912 200.68725599999996,125.8521408 201.46563359999996,124.350984 201.46563359999996C123.1834176 201.46563359999996,122.1826464 201.00231359999998,121.7007936 200.05714079999998C121.55253119999999 199.68648479999996,121.4784 199.33436159999997,121.4784 198.94517279999997C121.4784 196.92509759999996,123.7394016 194.68262879999997,126.3339936 194.55289919999998">
</path>
</g>
<g class="vf-flag" pointer-events="bounding-box">
<path stroke-width="0.3" fill="#000000" stroke="none" stroke-dasharray="none" d="M128.6604384 172.89999999999998M128.2156512 175.88378079999998L128.2156512 172.992664L128.2897824 172.992664C128.4936432 172.992664,128.6233728 173.12239359999998,128.6604384 173.34478719999998C129.0496272 175.19806719999997,130.2171936 177.21814239999998,131.8295472 178.73783199999997C133.6272288 180.42431679999999,134.535336 182.74091679999998,134.535336 185.13164799999998C134.535336 187.39264959999997,133.7384256 189.74631519999997,132.126072 191.69225919999997C131.84808 192.06291519999996,131.8295472 192.06291519999996,131.6442192 192.06291519999996C131.4218256 192.06291519999996,131.2735632 191.89611999999997,131.2735632 191.67372639999996C131.2735632 191.50693119999997,131.29209600000002 191.4698656,131.477424 191.2660048C132.88591680000002 189.56098719999997,133.5901632 187.5038464,133.5901632 185.5393696C133.5901632 183.7972864,133.0341792 182.12933439999998,131.88514560000002 180.86910399999996C131.1808992 180.09072639999997,129.8836032 179.34941439999997,128.234184 178.77489759999997C128.234184 178.75636479999997,128.2156512 178.18184799999997,128.2156512 175.88378079999998">
</path>
</g>
</g>
<g class="vf-modifiers">
</g>
</g>
<path stroke-width="1" fill="none" stroke="#000000" stroke-dasharray="none" d="M122.4784 189.74999999999997L135.4784 180.74999999999997Z">
</path>
</g>
</g>
<g class="vf-stavenote" id="vf-auto89448">
<g class="vf-note" pointer-events="bounding-box">
<g class="vf-notehead" pointer-events="bounding-box">
<path stroke-width="0.3" fill="#000000" stroke="none" stroke-dasharray="none" d="M183.72563839999998 197.99999999999997M191.08259839999997 192.77711999999997C191.19491839999998 192.77711999999997,191.3633984 192.77711999999997,191.39147839999998 192.77711999999997C191.39147839999998 192.77711999999997,191.41955839999997 192.77711999999997,191.41955839999997 192.77711999999997C191.41955839999997 192.77711999999997,191.5880384 192.77711999999997,191.7284384 192.77711999999997C194.25563839999998 192.91751999999997,195.74387839999997 194.57423999999997,195.74387839999997 196.65215999999998C195.74387839999997 197.66303999999997,195.4069184 198.81431999999998,194.56451839999997 199.90943999999996C192.96395839999997 202.07159999999996,190.35251839999998 203.25095999999996,188.07803839999997 203.25095999999996C186.30899839999998 203.25095999999996,184.79267839999997 202.54895999999997,184.06259839999998 201.11687999999998C183.8379584 200.55527999999998,183.72563839999998 200.02175999999997,183.72563839999998 199.43207999999998C183.72563839999998 196.37135999999998,187.15139839999998 192.97367999999997,191.08259839999997 192.77711999999997">
</path>
</g>
</g>
<g class="vf-modifiers">
</g>
</g>
<g class="vf-stavenote" id="vf-auto89458">
<g class="vf-note" pointer-events="bounding-box">
<g class="vf-notehead" pointer-events="bounding-box">
<path stroke-width="0.3" fill="#000000" stroke="none" stroke-dasharray="none" d="M245.9728768 197.99999999999997M253.32983679999998 192.77711999999997C253.4421568 192.77711999999997,253.6106368 192.77711999999997,253.6387168 192.77711999999997C253.6387168 192.77711999999997,253.6667968 192.77711999999997,253.6667968 192.77711999999997C253.6667968 192.77711999999997,253.8352768 192.77711999999997,253.9756768 192.77711999999997C256.50287679999997 192.91751999999997,257.9911168 194.57423999999997,257.9911168 196.65215999999998C257.9911168 197.66303999999997,257.6541568 198.81431999999998,256.8117568 199.90943999999996C255.21119679999998 202.07159999999996,252.5997568 203.25095999999996,250.32527679999998 203.25095999999996C248.5562368 203.25095999999996,247.0399168 202.54895999999997,246.3098368 201.11687999999998C246.0851968 200.55527999999998,245.9728768 200.02175999999997,245.9728768 199.43207999999998C245.9728768 196.37135999999998,249.3986368 192.97367999999997,253.32983679999998 192.77711999999997">
</path>
</g>
</g>
<g class="vf-modifiers">
<g class="vf-stavenote" id="vf-auto89468">
<g class="vf-note" pointer-events="bounding-box">
<g class="vf-stem" pointer-events="bounding-box">
<path stroke-width="1.5" fill="none" stroke="#000000" stroke-dasharray="none" d="M227.2908384 197.99999999999997L227.2908384 174.89999999999998">
</path>
</g>
<g class="vf-notehead" pointer-events="bounding-box">
<path stroke-width="0.3" fill="#000000" stroke="none" stroke-dasharray="none" d="M220.1088 197.99999999999997M224.9643936 194.55289919999998C225.0385248 194.55289919999998,225.1497216 194.55289919999998,225.1682544 194.55289919999998C225.1682544 194.55289919999998,225.1867872 194.55289919999998,225.1867872 194.55289919999998C225.1867872 194.55289919999998,225.297984 194.55289919999998,225.390648 194.55289919999998C227.0586 194.64556319999997,228.0408384 195.73899839999996,228.0408384 197.11042559999999C228.0408384 197.77760639999997,227.8184448 198.53745119999996,227.2624608 199.26023039999998C226.2060912 200.68725599999996,224.4825408 201.46563359999996,222.981384 201.46563359999996C221.8138176 201.46563359999996,220.8130464 201.00231359999998,220.3311936 200.05714079999998C220.1829312 199.68648479999996,220.1088 199.33436159999997,220.1088 198.94517279999997C220.1088 196.92509759999996,222.36980160000002 194.68262879999997,224.9643936 194.55289919999998">
</path>
</g>
<g class="vf-flag" pointer-events="bounding-box">
<path stroke-width="0.3" fill="#000000" stroke="none" stroke-dasharray="none" d="M227.2908384 172.89999999999998M226.8460512 175.88378079999998L226.8460512 172.992664L226.92018240000002 172.992664C227.12404320000002 172.992664,227.2537728 173.12239359999998,227.2908384 173.34478719999998C227.6800272 175.19806719999997,228.8475936 177.21814239999998,230.45994720000002 178.73783199999997C232.25762880000002 180.42431679999999,233.165736 182.74091679999998,233.165736 185.13164799999998C233.165736 187.39264959999997,232.3688256 189.74631519999997,230.756472 191.69225919999997C230.47848000000002 192.06291519999996,230.45994720000002 192.06291519999996,230.27461920000002 192.06291519999996C230.0522256 192.06291519999996,229.90396320000002 191.89611999999997,229.90396320000002 191.67372639999996C229.90396320000002 191.50693119999997,229.92249600000002 191.4698656,230.10782400000002 191.2660048C231.51631680000003 189.56098719999997,232.22056320000002 187.5038464,232.22056320000002 185.5393696C232.22056320000002 183.7972864,231.66457920000002 182.12933439999998,230.51554560000002 180.86910399999996C229.8112992 180.09072639999997,228.51400320000002 179.34941439999997,226.864584 178.77489759999997C226.864584 178.75636479999997,226.8460512 178.18184799999997,226.8460512 175.88378079999998">
</path>
</g>
</g>
<g class="vf-modifiers">
</g>
</g>
<path stroke-width="1" fill="none" stroke="#000000" stroke-dasharray="none" d="M221.1088 189.74999999999997L234.1088 180.74999999999997Z">
</path>
</g>
</g>
<g class="vf-stavenote" id="vf-auto89482">
<g class="vf-note" pointer-events="bounding-box">
<g class="vf-notehead" pointer-events="bounding-box">
<path stroke-width="0.3" fill="#000000" stroke="none" stroke-dasharray="none" d="M282.3560384 197.99999999999997M289.7129984 192.77711999999997C289.8253184 192.77711999999997,289.9937984 192.77711999999997,290.0218784 192.77711999999997C290.0218784 192.77711999999997,290.0499584 192.77711999999997,290.0499584 192.77711999999997C290.0499584 192.77711999999997,290.21843839999997 192.77711999999997,290.35883839999997 192.77711999999997C292.88603839999996 192.91751999999997,294.3742784 194.57423999999997,294.3742784 196.65215999999998C294.3742784 197.66303999999997,294.0373184 198.81431999999998,293.1949184 199.90943999999996C291.5943584 202.07159999999996,288.9829184 203.25095999999996,286.7084384 203.25095999999996C284.9393984 203.25095999999996,283.4230784 202.54895999999997,282.69299839999996 201.11687999999998C282.4683584 200.55527999999998,282.3560384 200.02175999999997,282.3560384 199.43207999999998C282.3560384 196.37135999999998,285.7817984 192.97367999999997,289.7129984 192.77711999999997">
</path>
</g>
</g>
<g class="vf-modifiers">
</g>
</g>
<g class="vf-stavenote" id="vf-auto89492">
<g class="vf-note" pointer-events="bounding-box">
<g class="vf-notehead" pointer-events="bounding-box">
<path stroke-width="0.3" fill="#000000" stroke="none" stroke-dasharray="none" d="M344.6032768 197.99999999999997M351.9602368 192.77711999999997C352.07255680000003 192.77711999999997,352.2410368 192.77711999999997,352.2691168 192.77711999999997C352.2691168 192.77711999999997,352.2971968 192.77711999999997,352.2971968 192.77711999999997C352.2971968 192.77711999999997,352.4656768 192.77711999999997,352.6060768 192.77711999999997C355.1332768 192.91751999999997,356.6215168 194.57423999999997,356.6215168 196.65215999999998C356.6215168 197.66303999999997,356.2845568 198.81431999999998,355.4421568 199.90943999999996C353.8415968 202.07159999999996,351.23015680000003 203.25095999999996,348.9556768 203.25095999999996C347.18663680000003 203.25095999999996,345.6703168 202.54895999999997,344.9402368 201.11687999999998C344.7155968 200.55527999999998,344.6032768 200.02175999999997,344.6032768 199.43207999999998C344.6032768 196.37135999999998,348.02903680000003 192.97367999999997,351.9602368 192.77711999999997">
</path>
</g>
</g>
<g class="vf-modifiers">
<g class="vf-stavenote" id="vf-auto89502">
<g class="vf-note" pointer-events="bounding-box">
<g class="vf-stem" pointer-events="bounding-box">
<path stroke-width="1.5" fill="none" stroke="#000000" stroke-dasharray="none" d="M325.9212384 197.99999999999997L325.9212384 174.89999999999998">
</path>
</g>
<g class="vf-notehead" pointer-events="bounding-box">
<path stroke-width="0.3" fill="#000000" stroke="none" stroke-dasharray="none" d="M318.7392 197.99999999999997M323.5947936 194.55289919999998C323.66892479999996 194.55289919999998,323.7801216 194.55289919999998,323.7986544 194.55289919999998C323.7986544 194.55289919999998,323.8171872 194.55289919999998,323.8171872 194.55289919999998C323.8171872 194.55289919999998,323.928384 194.55289919999998,324.021048 194.55289919999998C325.68899999999996 194.64556319999997,326.6712384 195.73899839999996,326.6712384 197.11042559999999C326.6712384 197.77760639999997,326.44884479999996 198.53745119999996,325.8928608 199.26023039999998C324.83649119999995 200.68725599999996,323.1129408 201.46563359999996,321.611784 201.46563359999996C320.4442176 201.46563359999996,319.44344639999997 201.00231359999998,318.96159359999996 200.05714079999998C318.8133312 199.68648479999996,318.7392 199.33436159999997,318.7392 198.94517279999997C318.7392 196.92509759999996,321.00020159999997 194.68262879999997,323.5947936 194.55289919999998">
</path>
</g>
<g class="vf-flag" pointer-events="bounding-box">
<path stroke-width="0.3" fill="#000000" stroke="none" stroke-dasharray="none" d="M325.9212384 172.89999999999998M325.4764512 175.88378079999998L325.4764512 172.992664L325.5505824 172.992664C325.75444319999997 172.992664,325.8841728 173.12239359999998,325.9212384 173.34478719999998C326.3104272 175.19806719999997,327.4779936 177.21814239999998,329.0903472 178.73783199999997C330.8880288 180.42431679999999,331.796136 182.74091679999998,331.796136 185.13164799999998C331.796136 187.39264959999997,330.9992256 189.74631519999997,329.386872 191.69225919999997C329.10888 192.06291519999996,329.0903472 192.06291519999996,328.90501919999997 192.06291519999996C328.6826256 192.06291519999996,328.5343632 191.89611999999997,328.5343632 191.67372639999996C328.5343632 191.50693119999997,328.552896 191.4698656,328.738224 191.2660048C330.1467168 189.56098719999997,330.85096319999997 187.5038464,330.85096319999997 185.5393696C330.85096319999997 183.7972864,330.2949792 182.12933439999998,329.1459456 180.86910399999996C328.4416992 180.09072639999997,327.1444032 179.34941439999997,325.494984 178.77489759999997C325.494984 178.75636479999997,325.4764512 178.18184799999997,325.4764512 175.88378079999998">
</path>
</g>
</g>
<g class="vf-modifiers">
</g>
</g>
<path stroke-width="1" fill="none" stroke="#000000" stroke-dasharray="none" d="M319.7392 189.74999999999997L332.7392 180.74999999999997Z">
</path>
</g>
</g>
<g class="vf-stavenote" id="vf-auto89516">
<g class="vf-note" pointer-events="bounding-box">
<g class="vf-notehead" pointer-events="bounding-box">
<path stroke-width="0.3" fill="#000000" stroke="none" stroke-dasharray="none" d="M380.9864384 197.99999999999997M388.3433984 192.77711999999997C388.4557184 192.77711999999997,388.6241984 192.77711999999997,388.6522784 192.77711999999997C388.6522784 192.77711999999997,388.6803584 192.77711999999997,388.6803584 192.77711999999997C388.6803584 192.77711999999997,388.8488384 192.77711999999997,388.9892384 192.77711999999997C391.51643839999997 192.91751999999997,393.0046784 194.57423999999997,393.0046784 196.65215999999998C393.0046784 197.66303999999997,392.6677184 198.81431999999998,391.8253184 199.90943999999996C390.2247584 202.07159999999996,387.6133184 203.25095999999996,385.3388384 203.25095999999996C383.5697984 203.25095999999996,382.0534784 202.54895999999997,381.3233984 201.11687999999998C381.0987584 200.55527999999998,380.9864384 200.02175999999997,380.9864384 199.43207999999998C380.9864384 196.37135999999998,384.4121984 192.97367999999997,388.3433984 192.77711999999997">
</path>
</g>
</g>
<g class="vf-modifiers">
</g>
</g>
<g class="vf-stavenote" id="vf-auto89526">
<g class="vf-note" pointer-events="bounding-box">
<g class="vf-notehead" pointer-events="bounding-box">
<path stroke-width="0.3" fill="#000000" stroke="none" stroke-dasharray="none" d="M443.2336768 197.99999999999997M450.5906368 192.77711999999997C450.70295680000004 192.77711999999997,450.8714368 192.77711999999997,450.8995168 192.77711999999997C450.8995168 192.77711999999997,450.9275968 192.77711999999997,450.9275968 192.77711999999997C450.9275968 192.77711999999997,451.0960768 192.77711999999997,451.2364768 192.77711999999997C453.7636768 192.91751999999997,455.2519168 194.57423999999997,455.2519168 196.65215999999998C455.2519168 197.66303999999997,454.9149568 198.81431999999998,454.07255680000003 199.90943999999996C452.4719968 202.07159999999996,449.86055680000004 203.25095999999996,447.5860768 203.25095999999996C445.81703680000004 203.25095999999996,444.30071680000003 202.54895999999997,443.5706368 201.11687999999998C443.3459968 200.55527999999998,443.2336768 200.02175999999997,443.2336768 199.43207999999998C443.2336768 196.37135999999998,446.65943680000004 192.97367999999997,450.5906368 192.77711999999997">
</path>
</g>
</g>
<g class="vf-modifiers">
<g class="vf-stavenote" id="vf-auto89536">
<g class="vf-note" pointer-events="bounding-box">
<g class="vf-stem" pointer-events="bounding-box">
<path stroke-width="1.5" fill="none" stroke="#000000" stroke-dasharray="none" d="M424.5516384 197.99999999999997L424.5516384 174.89999999999998">
</path>
</g>
<g class="vf-notehead" pointer-events="bounding-box">
<path stroke-width="0.3" fill="#000000" stroke="none" stroke-dasharray="none" d="M417.3696 197.99999999999997M422.2251936 194.55289919999998C422.29932479999997 194.55289919999998,422.4105216 194.55289919999998,422.4290544 194.55289919999998C422.4290544 194.55289919999998,422.4475872 194.55289919999998,422.4475872 194.55289919999998C422.4475872 194.55289919999998,422.558784 194.55289919999998,422.651448 194.55289919999998C424.3194 194.64556319999997,425.3016384 195.73899839999996,425.3016384 197.11042559999999C425.3016384 197.77760639999997,425.07924479999997 198.53745119999996,424.5232608 199.26023039999998C423.46689119999996 200.68725599999996,421.7433408 201.46563359999996,420.242184 201.46563359999996C419.0746176 201.46563359999996,418.0738464 201.00231359999998,417.59199359999997 200.05714079999998C417.4437312 199.68648479999996,417.3696 199.33436159999997,417.3696 198.94517279999997C417.3696 196.92509759999996,419.6306016 194.68262879999997,422.2251936 194.55289919999998">
</path>
</g>
<g class="vf-flag" pointer-events="bounding-box">
<path stroke-width="0.3" fill="#000000" stroke="none" stroke-dasharray="none" d="M424.5516384 172.89999999999998M424.1068512 175.88378079999998L424.1068512 172.992664L424.1809824 172.992664C424.3848432 172.992664,424.5145728 173.12239359999998,424.5516384 173.34478719999998C424.9408272 175.19806719999997,426.1083936 177.21814239999998,427.7207472 178.73783199999997C429.5184288 180.42431679999999,430.426536 182.74091679999998,430.426536 185.13164799999998C430.426536 187.39264959999997,429.6296256 189.74631519999997,428.017272 191.69225919999997C427.73928 192.06291519999996,427.7207472 192.06291519999996,427.5354192 192.06291519999996C427.3130256 192.06291519999996,427.1647632 191.89611999999997,427.1647632 191.67372639999996C427.1647632 191.50693119999997,427.183296 191.4698656,427.368624 191.2660048C428.7771168 189.56098719999997,429.4813632 187.5038464,429.4813632 185.5393696C429.4813632 183.7972864,428.9253792 182.12933439999998,427.7763456 180.86910399999996C427.0720992 180.09072639999997,425.7748032 179.34941439999997,424.125384 178.77489759999997C424.125384 178.75636479999997,424.1068512 178.18184799999997,424.1068512 175.88378079999998">
</path>
</g>
</g>
<g class="vf-modifiers">
</g>
</g>
<path stroke-width="1" fill="none" stroke="#000000" stroke-dasharray="none" d="M418.3696 189.74999999999997L431.3696 180.74999999999997Z">
</path>
</g>
</g>
<g class="vf-stavenote" id="vf-auto89550">
<g class="vf-note" pointer-events="bounding-box">
<g class="vf-notehead" pointer-events="bounding-box">
<path stroke-width="0.3" fill="#000000" stroke="none" stroke-dasharray="none" d="M479.6168384 197.99999999999997M486.9737984 192.77711999999997C487.08611840000003 192.77711999999997,487.2545984 192.77711999999997,487.2826784 192.77711999999997C487.2826784 192.77711999999997,487.3107584 192.77711999999997,487.3107584 192.77711999999997C487.3107584 192.77711999999997,487.4792384 192.77711999999997,487.6196384 192.77711999999997C490.1468384 192.91751999999997,491.6350784 194.57423999999997,491.6350784 196.65215999999998C491.6350784 197.66303999999997,491.2981184 198.81431999999998,490.4557184 199.90943999999996C488.8551584 202.07159999999996,486.24371840000003 203.25095999999996,483.9692384 203.25095999999996C482.20019840000003 203.25095999999996,480.6838784 202.54895999999997,479.9537984 201.11687999999998C479.7291584 200.55527999999998,479.6168384 200.02175999999997,479.6168384 199.43207999999998C479.6168384 196.37135999999998,483.04259840000003 192.97367999999997,486.9737984 192.77711999999997">
</path>
</g>
</g>
<g class="vf-modifiers">
</g>
</g>
<path stroke-width="1.5" fill="none" stroke="#000000" stroke-dasharray="none" d="M158.61071679999998 197.99999999999997L158.61071679999998 163.74999999999997">
</path>
<path stroke-width="1.5" fill="none" stroke="#000000" stroke-dasharray="none" d="M194.99387839999997 197.99999999999997L194.99387839999997 163.74999999999997">
</path>
<path stroke-width="1.5" fill="none" stroke="#000000" stroke-dasharray="none" d="M257.2411168 197.99999999999997L257.2411168 163.74999999999997">
</path>
<path stroke-width="1.5" fill="none" stroke="#000000" stroke-dasharray="none" d="M293.6242784 197.99999999999997L293.6242784 163.74999999999997">
</path>
<path stroke-width="0.3" fill="#000000" stroke="none" stroke-dasharray="none" d="M157.86071679999998 162.99999999999997L157.86071679999998 167.99999999999997L293.8742784 167.99999999999997L293.8742784 162.99999999999997Z">
</path>
<path stroke-width="0.3" fill="#000000" stroke="none" stroke-dasharray="none" d="M157.86071679999998 170.49999999999997L157.86071679999998 175.49999999999997L293.8742784 175.49999999999997L293.8742784 170.49999999999997Z">
</path>
<path stroke-width="1.5" fill="none" stroke="#000000" stroke-dasharray="none" d="M355.8715168 197.99999999999997L355.8715168 163.74999999999997">
</path>
<path stroke-width="1.5" fill="none" stroke="#000000" stroke-dasharray="none" d="M392.2546784 197.99999999999997L392.2546784 163.74999999999997">
</path>
<path stroke-width="1.5" fill="none" stroke="#000000" stroke-dasharray="none" d="M454.5019168 197.99999999999997L454.5019168 163.74999999999997">
</path>
<path stroke-width="1.5" fill="none" stroke="#000000" stroke-dasharray="none" d="M490.8850784 197.99999999999997L490.8850784 163.74999999999997">
</path>
<path stroke-width="0.3" fill="#000000" stroke="none" stroke-dasharray="none" d="M355.1215168 162.99999999999997L355.1215168 167.99999999999997L491.1350784 167.99999999999997L491.1350784 162.99999999999997Z">
</path>
<path stroke-width="0.3" fill="#000000" stroke="none" stroke-dasharray="none" d="M355.1215168 170.49999999999997L355.1215168 175.49999999999997L491.1350784 175.49999999999997L491.1350784 170.49999999999997Z">
</path>
<path stroke-width="1" fill="none" stroke="black" stroke-dasharray="none" d="M514.2250503679999 197.99999999999997L1280.6967511039998 197.99999999999997">
</path>
<rect stroke-width="0.3" fill="black" stroke="black" stroke-dasharray="none" x="1275.6967511039998" y="177.49999999999997" width="1" height="41">
</rect>
<rect stroke-width="0.3" fill="black" stroke="black" stroke-dasharray="none" x="1278.6967511039998" y="177.49999999999997" width="3" height="41">
</rect>
<path stroke-width="0.3" fill="black" stroke="none" stroke-dasharray="none" d="M1274.6967511039998 193.49999999999997 A2 2 0 0 0 1270.6967511039998 193.49999999999997M1270.6967511039998 193.49999999999997 A2 2 0 0 0 1274.6967511039998 193.49999999999997">
</path>
<path stroke-width="0.3" fill="black" stroke="none" stroke-dasharray="none" d="M1274.6967511039998 203.49999999999997 A2 2 0 0 0 1270.6967511039998 203.49999999999997M1270.6967511039998 203.49999999999997 A2 2 0 0 0 1274.6967511039998 203.49999999999997">
</path>
<path stroke-width="0.3" fill="black" stroke="none" stroke-dasharray="none" d="M519.2250503679999 197.99999999999997M524.2362503679999 179.65439999999998C524.2650503679998 179.62559999999996,524.6682503679999 179.62559999999996,525.9066503679999 179.62559999999996C526.2810503679999 179.62559999999996,526.6842503679999 179.62559999999996,527.2026503679999 179.62559999999996L530.1114503679999 179.62559999999996L530.1978503679999 179.71199999999996C530.3418503679999 179.79839999999996,530.4282503679999 179.94239999999996,530.4282503679999 180.05759999999998C530.4282503679999 180.23039999999997,530.3418503679999 180.34559999999996,530.2266503679999 180.46079999999998C530.1978503679999 180.54719999999998,529.9386503679999 180.77759999999998,529.7658503679999 181.03679999999997L528.2394503679999 182.79359999999997L526.2810503679999 185.01119999999997L525.2442503679998 186.19199999999998L523.6890503679999 187.97759999999997L521.6442503679999 190.31039999999996C521.2986503679999 190.74239999999998,520.9242503679999 191.08799999999997,520.9242503679999 191.08799999999997C520.9242503679999 191.08799999999997,520.9242503679999 191.08799999999997,520.9242503679999 191.08799999999997C520.9242503679999 191.14559999999997,521.1834503679999 191.14559999999997,523.5738503679999 191.14559999999997L526.1946503679999 191.14559999999997L526.1946503679999 189.27359999999996C526.1946503679999 187.37279999999998,526.1946503679999 187.34399999999997,526.2234503679998 187.31519999999998C526.2810503679999 187.22879999999998,526.5402503679999 186.91199999999998,527.5482503679999 185.73119999999997L527.9514503679999 185.29919999999998L528.3546503679999 184.86719999999997L528.9594503679999 184.08959999999996L529.5930503679999 183.42719999999997L529.9098503679999 183.02399999999997C530.0250503679998 182.85119999999998,530.1978503679999 182.82239999999996,530.3418503679999 182.82239999999996C530.5146503679998 182.82239999999996,530.6586503679998 182.90879999999999,530.7450503679999 183.05279999999996C530.7738503679999 183.13919999999996,530.7738503679999 183.19679999999997,530.7738503679999 185.32799999999997C530.7738503679999 185.81759999999997,530.7738503679999 186.42239999999998,530.7738503679999 187.14239999999998L530.7738503679999 191.14559999999997L531.4938503679998 191.14559999999997C532.1562503679999 191.14559999999997,532.1850503679999 191.14559999999997,532.2714503679998 191.17439999999996C532.5018503679999 191.26079999999996,532.6170503679999 191.49119999999996,532.6170503679999 191.75039999999998C532.6170503679999 191.89439999999996,532.5882503679999 192.06719999999999,532.4730503679999 192.18239999999997C532.3002503679999 192.32639999999998,532.2714503679998 192.32639999999998,531.4938503679998 192.32639999999998L530.7738503679999 192.32639999999998L530.7738503679999 192.81599999999997C530.8026503679998 194.28479999999996,531.0906503679998 194.86079999999998,532.2138503679998 195.46559999999997C532.6170503679999 195.66719999999998,532.7034503679998 195.72479999999996,532.7034503679998 196.01279999999997C532.7034503679998 196.21439999999998,532.6458503679999 196.30079999999998,532.5018503679999 196.41599999999997L532.4154503679998 196.44479999999996L528.4698503679999 196.44479999999996L524.5530503679998 196.44479999999996L524.4666503679998 196.41599999999997C524.2938503679999 196.30079999999998,524.2650503679998 196.21439999999998,524.2650503679998 196.01279999999997C524.2650503679998 195.72479999999996,524.2938503679999 195.66719999999998,524.7258503679999 195.46559999999997C525.8490503679999 194.86079999999998,526.1370503679999 194.28479999999996,526.1370503679999 192.81599999999997L526.1370503679999 192.32639999999998L522.8250503679999 192.32639999999998C522.2202503679998 192.38399999999996,521.7306503679998 192.38399999999996,521.3274503679999 192.38399999999996C519.5130503679999 192.38399999999996,519.4842503679998 192.32639999999998,519.4554503679999 192.32639999999998C519.2826503679998 192.26879999999997,519.2250503679999 192.09599999999998,519.2250503679999 191.89439999999996C519.2250503679999 191.89439999999996,519.2250503679999 191.89439999999996,519.2250503679999 191.89439999999996C519.2250503679999 191.69279999999998,519.2250503679999 191.69279999999998,519.8010503679999 191.0304C522.2202503679998 188.09279999999998,523.9194503679998 183.83039999999997,523.9194503679998 180.43199999999996C523.9194503679998 179.91359999999997,524.0058503679999 179.74079999999998,524.2362503679999 179.65439999999998M525.9642503679999 198.02879999999996L525.9930503679999 198.02879999999996L525.9066503679999 198.02879999999996L525.9642503679999 198.02879999999996M525.9642503679999 178.61759999999998L525.9930503679999 178.61759999999998L525.9066503679999 178.61759999999998L525.9642503679999 178.61759999999998">
</path>
<path stroke-width="0.3" fill="black" stroke="none" stroke-dasharray="none" d="M519.2250503679999 217.99999999999997M524.2362503679999 199.65439999999998C524.2650503679998 199.62559999999996,524.6682503679999 199.62559999999996,525.9066503679999 199.62559999999996C526.2810503679999 199.62559999999996,526.6842503679999 199.62559999999996,527.2026503679999 199.62559999999996L530.1114503679999 199.62559999999996L530.1978503679999 199.71199999999996C530.3418503679999 199.79839999999996,530.4282503679999 199.94239999999996,530.4282503679999 200.05759999999998C530.4282503679999 200.23039999999997,530.3418503679999 200.34559999999996,530.2266503679999 200.46079999999998C530.1978503679999 200.54719999999998,529.9386503679999 200.77759999999998,529.7658503679999 201.03679999999997L528.2394503679999 202.79359999999997L526.2810503679999 205.01119999999997L525.2442503679998 206.19199999999998L523.6890503679999 207.97759999999997L521.6442503679999 210.31039999999996C521.2986503679999 210.74239999999998,520.9242503679999 211.08799999999997,520.9242503679999 211.08799999999997C520.9242503679999 211.08799999999997,520.9242503679999 211.08799999999997,520.9242503679999 211.08799999999997C520.9242503679999 211.14559999999997,521.1834503679999 211.14559999999997,523.5738503679999 211.14559999999997L526.1946503679999 211.14559999999997L526.1946503679999 209.27359999999996C526.1946503679999 207.37279999999998,526.1946503679999 207.34399999999997,526.2234503679998 207.31519999999998C526.2810503679999 207.22879999999998,526.5402503679999 206.91199999999998,527.5482503679999 205.73119999999997L527.9514503679999 205.29919999999998L528.3546503679999 204.86719999999997L528.9594503679999 204.08959999999996L529.5930503679999 203.42719999999997L529.9098503679999 203.02399999999997C530.0250503679998 202.85119999999998,530.1978503679999 202.82239999999996,530.3418503679999 202.82239999999996C530.5146503679998 202.82239999999996,530.6586503679998 202.90879999999999,530.7450503679999 203.05279999999996C530.7738503679999 203.13919999999996,530.7738503679999 203.19679999999997,530.7738503679999 205.32799999999997C530.7738503679999 205.81759999999997,530.7738503679999 206.42239999999998,530.7738503679999 207.14239999999998L530.7738503679999 211.14559999999997L531.4938503679998 211.14559999999997C532.1562503679999 211.14559999999997,532.1850503679999 211.14559999999997,532.2714503679998 211.17439999999996C532.5018503679999 211.26079999999996,532.6170503679999 211.49119999999996,532.6170503679999 211.75039999999998C532.6170503679999 211.89439999999996,532.5882503679999 212.06719999999999,532.4730503679999 212.18239999999997C532.3002503679999 212.32639999999998,532.2714503679998 212.32639999999998,531.4938503679998 212.32639999999998L530.7738503679999 212.32639999999998L530.7738503679999 212.81599999999997C530.8026503679998 214.28479999999996,531.0906503679998 214.86079999999998,532.2138503679998 215.46559999999997C532.6170503679999 215.66719999999998,532.7034503679998 215.72479999999996,532.7034503679998 216.01279999999997C532.7034503679998 216.21439999999998,532.6458503679999 216.30079999999998,532.5018503679999 216.41599999999997L532.4154503679998 216.44479999999996L528.4698503679999 216.44479999999996L524.5530503679998 216.44479999999996L524.4666503679998 216.41599999999997C524.2938503679999 216.30079999999998,524.2650503679998 216.21439999999998,524.2650503679998 216.01279999999997C524.2650503679998 215.72479999999996,524.2938503679999 215.66719999999998,524.7258503679999 215.46559999999997C525.8490503679999 214.86079999999998,526.1370503679999 214.28479999999996,526.1370503679999 212.81599999999997L526.1370503679999 212.32639999999998L522.8250503679999 212.32639999999998C522.2202503679998 212.38399999999996,521.7306503679998 212.38399999999996,521.3274503679999 212.38399999999996C519.5130503679999 212.38399999999996,519.4842503679998 212.32639999999998,519.4554503679999 212.32639999999998C519.2826503679998 212.26879999999997,519.2250503679999 212.09599999999998,519.2250503679999 211.89439999999996C519.2250503679999 211.89439999999996,519.2250503679999 211.89439999999996,519.2250503679999 211.89439999999996C519.2250503679999 211.69279999999998,519.2250503679999 211.69279999999998,519.8010503679999 211.0304C522.2202503679998 208.09279999999998,523.9194503679998 203.83039999999997,523.9194503679998 200.43199999999996C523.9194503679998 199.91359999999997,524.0058503679999 199.74079999999998,524.2362503679999 199.65439999999998M525.9642503679999 218.02879999999996L525.9930503679999 218.02879999999996L525.9066503679999 218.02879999999996L525.9642503679999 218.02879999999996M525.9642503679999 198.61759999999998L525.9930503679999 198.61759999999998L525.9066503679999 198.61759999999998L525.9642503679999 198.61759999999998">
</path>
<g class="vf-stavenote" id="vf-auto89563">
<g class="vf-note" pointer-events="bounding-box">
<g class="vf-notehead" pointer-events="bounding-box">
<path stroke-width="0.3" fill="#000000" stroke="none" stroke-dasharray="none" d="M570.5675271679999 197.99999999999997M577.9244871679998 192.77711999999997C578.0368071679999 192.77711999999997,578.2052871679998 192.77711999999997,578.2333671679999 192.77711999999997C578.2333671679999 192.77711999999997,578.2614471679999 192.77711999999997,578.2614471679999 192.77711999999997C578.2614471679999 192.77711999999997,578.4299271679998 192.77711999999997,578.5703271679998 192.77711999999997C581.0975271679998 192.91751999999997,582.5857671679998 194.57423999999997,582.5857671679998 196.65215999999998C582.5857671679998 197.66303999999997,582.2488071679999 198.81431999999998,581.4064071679999 199.90943999999996C579.8058471679999 202.07159999999996,577.1944071679999 203.25095999999996,574.9199271679998 203.25095999999996C573.1508871679998 203.25095999999996,571.6345671679999 202.54895999999997,570.9044871679998 201.11687999999998C570.6798471679998 200.55527999999998,570.5675271679999 200.02175999999997,570.5675271679999 199.43207999999998C570.5675271679999 196.37135999999998,573.9932871679998 192.97367999999997,577.9244871679998 192.77711999999997">
</path>
</g>
</g>
<g class="vf-modifiers">
<g class="vf-stavenote" id="vf-auto89573">
<g class="vf-note" pointer-events="bounding-box">
<g class="vf-stem" pointer-events="bounding-box">
<path stroke-width="1.5" fill="none" stroke="#000000" stroke-dasharray="none" d="M551.8854887679998 197.99999999999997L551.8854887679998 174.89999999999998">
</path>
</g>
<g class="vf-notehead" pointer-events="bounding-box">
<path stroke-width="0.3" fill="#000000" stroke="none" stroke-dasharray="none" d="M544.7034503679998 197.99999999999997M549.5590439679999 194.55289919999998C549.6331751679999 194.55289919999998,549.7443719679999 194.55289919999998,549.7629047679999 194.55289919999998C549.7629047679999 194.55289919999998,549.7814375679999 194.55289919999998,549.7814375679999 194.55289919999998C549.7814375679999 194.55289919999998,549.8926343679998 194.55289919999998,549.9852983679998 194.55289919999998C551.6532503679998 194.64556319999997,552.6354887679998 195.73899839999996,552.6354887679998 197.11042559999999C552.6354887679998 197.77760639999997,552.4130951679998 198.53745119999996,551.8571111679998 199.26023039999998C550.8007415679998 200.68725599999996,549.0771911679998 201.46563359999996,547.5760343679998 201.46563359999996C546.4084679679999 201.46563359999996,545.4076967679998 201.00231359999998,544.9258439679999 200.05714079999998C544.7775815679998 199.68648479999996,544.7034503679998 199.33436159999997,544.7034503679998 198.94517279999997C544.7034503679998 196.92509759999996,546.9644519679998 194.68262879999997,549.5590439679999 194.55289919999998">
</path>
</g>
<g class="vf-flag" pointer-events="bounding-box">
<path stroke-width="0.3" fill="#000000" stroke="none" stroke-dasharray="none" d="M551.8854887679998 172.89999999999998M551.4407015679999 175.88378079999998L551.4407015679999 172.992664L551.5148327679998 172.992664C551.7186935679998 172.992664,551.8484231679998 173.12239359999998,551.8854887679998 173.34478719999998C552.2746775679999 175.19806719999997,553.4422439679998 177.21814239999998,555.0545975679998 178.73783199999997C556.8522791679999 180.42431679999999,557.7603863679999 182.74091679999998,557.7603863679999 185.13164799999998C557.7603863679999 187.39264959999997,556.9634759679999 189.74631519999997,555.3511223679999 191.69225919999997C555.0731303679999 192.06291519999996,555.0545975679998 192.06291519999996,554.8692695679998 192.06291519999996C554.6468759679998 192.06291519999996,554.4986135679999 191.89611999999997,554.4986135679999 191.67372639999996C554.4986135679999 191.50693119999997,554.5171463679999 191.4698656,554.7024743679998 191.2660048C556.1109671679999 189.56098719999997,556.8152135679999 187.5038464,556.8152135679999 185.5393696C556.8152135679999 183.7972864,556.2592295679998 182.12933439999998,555.1101959679999 180.86910399999996C554.4059495679999 180.09072639999997,553.1086535679998 179.34941439999997,551.4592343679999 178.77489759999997C551.4592343679999 178.75636479999997,551.4407015679999 178.18184799999997,551.4407015679999 175.88378079999998">
</path>
</g>
</g>
<g class="vf-modifiers">
</g>
</g>
<path stroke-width="1" fill="none" stroke="#000000" stroke-dasharray="none" d="M545.7034503679998 189.74999999999997L558.7034503679998 180.74999999999997Z">
</path>
</g>
</g>
<g class="vf-stavenote" id="vf-auto89587">
<g class="vf-note" pointer-events="bounding-box">
<g class="vf-notehead" pointer-events="bounding-box">
<path stroke-width="0.3" fill="#000000" stroke="none" stroke-dasharray="none" d="M603.7305887679998 197.99999999999997M611.0875487679998 192.77711999999997C611.1998687679999 192.77711999999997,611.3683487679998 192.77711999999997,611.3964287679999 192.77711999999997C611.3964287679999 192.77711999999997,611.4245087679999 192.77711999999997,611.4245087679999 192.77711999999997C611.4245087679999 192.77711999999997,611.5929887679998 192.77711999999997,611.7333887679998 192.77711999999997C614.2605887679998 192.91751999999997,615.7488287679998 194.57423999999997,615.7488287679998 196.65215999999998C615.7488287679998 197.66303999999997,615.4118687679999 198.81431999999998,614.5694687679999 199.90943999999996C612.9689087679999 202.07159999999996,610.3574687679999 203.25095999999996,608.0829887679998 203.25095999999996C606.3139487679998 203.25095999999996,604.7976287679999 202.54895999999997,604.0675487679998 201.11687999999998C603.8429087679998 200.55527999999998,603.7305887679998 200.02175999999997,603.7305887679998 199.43207999999998C603.7305887679998 196.37135999999998,607.1563487679998 192.97367999999997,611.0875487679998 192.77711999999997">
</path>
</g>
</g>
<g class="vf-modifiers">
</g>
</g>
<g class="vf-stavenote" id="vf-auto89597">
<g class="vf-note" pointer-events="bounding-box">
<g class="vf-notehead" pointer-events="bounding-box">
<path stroke-width="0.3" fill="#000000" stroke="none" stroke-dasharray="none" d="M662.7577271679999 197.99999999999997M670.1146871679998 192.77711999999997C670.2270071679999 192.77711999999997,670.3954871679998 192.77711999999997,670.4235671679999 192.77711999999997C670.4235671679999 192.77711999999997,670.4516471679999 192.77711999999997,670.4516471679999 192.77711999999997C670.4516471679999 192.77711999999997,670.6201271679998 192.77711999999997,670.7605271679998 192.77711999999997C673.2877271679998 192.91751999999997,674.7759671679999 194.57423999999997,674.7759671679999 196.65215999999998C674.7759671679999 197.66303999999997,674.4390071679999 198.81431999999998,673.5966071679999 199.90943999999996C671.9960471679999 202.07159999999996,669.3846071679999 203.25095999999996,667.1101271679998 203.25095999999996C665.3410871679998 203.25095999999996,663.8247671679999 202.54895999999997,663.0946871679998 201.11687999999998C662.8700471679998 200.55527999999998,662.7577271679999 200.02175999999997,662.7577271679999 199.43207999999998C662.7577271679999 196.37135999999998,666.1834871679998 192.97367999999997,670.1146871679998 192.77711999999997">
</path>
</g>
</g>
<g class="vf-modifiers">
<g class="vf-stavenote" id="vf-auto89607">
<g class="vf-note" pointer-events="bounding-box">
<g class="vf-stem" pointer-events="bounding-box">
<path stroke-width="1.5" fill="none" stroke="#000000" stroke-dasharray="none" d="M644.0756887679998 197.99999999999997L644.0756887679998 174.89999999999998">
</path>
</g>
<g class="vf-notehead" pointer-events="bounding-box">
<path stroke-width="0.3" fill="#000000" stroke="none" stroke-dasharray="none" d="M636.8936503679998 197.99999999999997M641.7492439679999 194.55289919999998C641.8233751679999 194.55289919999998,641.9345719679999 194.55289919999998,641.9531047679999 194.55289919999998C641.9531047679999 194.55289919999998,641.9716375679999 194.55289919999998,641.9716375679999 194.55289919999998C641.9716375679999 194.55289919999998,642.0828343679998 194.55289919999998,642.1754983679998 194.55289919999998C643.8434503679998 194.64556319999997,644.8256887679998 195.73899839999996,644.8256887679998 197.11042559999999C644.8256887679998 197.77760639999997,644.6032951679998 198.53745119999996,644.0473111679999 199.26023039999998C642.9909415679998 200.68725599999996,641.2673911679998 201.46563359999996,639.7662343679998 201.46563359999996C638.5986679679999 201.46563359999996,637.5978967679998 201.00231359999998,637.1160439679999 200.05714079999998C636.9677815679999 199.68648479999996,636.8936503679998 199.33436159999997,636.8936503679998 198.94517279999997C636.8936503679998 196.92509759999996,639.1546519679998 194.68262879999997,641.7492439679999 194.55289919999998">
</path>
</g>
<g class="vf-flag" pointer-events="bounding-box">
<path stroke-width="0.3" fill="#000000" stroke="none" stroke-dasharray="none" d="M644.0756887679998 172.89999999999998M643.6309015679999 175.88378079999998L643.6309015679999 172.992664L643.7050327679998 172.992664C643.9088935679998 172.992664,644.0386231679998 173.12239359999998,644.0756887679998 173.34478719999998C644.4648775679999 175.19806719999997,645.6324439679998 177.21814239999998,647.2447975679999 178.73783199999997C649.0424791679999 180.42431679999999,649.9505863679999 182.74091679999998,649.9505863679999 185.13164799999998C649.9505863679999 187.39264959999997,649.1536759679999 189.74631519999997,647.5413223679999 191.69225919999997C647.2633303679999 192.06291519999996,647.2447975679999 192.06291519999996,647.0594695679998 192.06291519999996C646.8370759679998 192.06291519999996,646.6888135679999 191.89611999999997,646.6888135679999 191.67372639999996C646.6888135679999 191.50693119999997,646.7073463679999 191.4698656,646.8926743679998 191.2660048C648.3011671679999 189.56098719999997,649.0054135679999 187.5038464,649.0054135679999 185.5393696C649.0054135679999 183.7972864,648.4494295679998 182.12933439999998,647.3003959679999 180.86910399999996C646.5961495679999 180.09072639999997,645.2988535679998 179.34941439999997,643.6494343679999 178.77489759999997C643.6494343679999 178.75636479999997,643.6309015679999 178.18184799999997,643.6309015679999 175.88378079999998">
</path>
</g>
</g>
<g class="vf-modifiers">
</g>
</g>
<path stroke-width="1" fill="none" stroke="#000000" stroke-dasharray="none" d="M637.8936503679998 189.74999999999997L650.8936503679998 180.74999999999997Z">
</path>
</g>
</g>
<g class="vf-stavenote" id="vf-auto89621">
<g class="vf-note" pointer-events="bounding-box">
<g class="vf-notehead" pointer-events="bounding-box">
<path stroke-width="0.3" fill="#000000" stroke="none" stroke-dasharray="none" d="M695.9207887679999 197.99999999999997M703.2777487679998 192.77711999999997C703.3900687679999 192.77711999999997,703.5585487679998 192.77711999999997,703.5866287679999 192.77711999999997C703.5866287679999 192.77711999999997,703.6147087679999 192.77711999999997,703.6147087679999 192.77711999999997C703.6147087679999 192.77711999999997,703.7831887679998 192.77711999999997,703.9235887679998 192.77711999999997C706.4507887679998 192.91751999999997,707.9390287679998 194.57423999999997,707.9390287679998 196.65215999999998C707.9390287679998 197.66303999999997,707.6020687679999 198.81431999999998,706.7596687679999 199.90943999999996C705.1591087679999 202.07159999999996,702.5476687679999 203.25095999999996,700.2731887679998 203.25095999999996C698.5041487679998 203.25095999999996,696.9878287679999 202.54895999999997,696.2577487679998 201.11687999999998C696.0331087679998 200.55527999999998,695.9207887679999 200.02175999999997,695.9207887679999 199.43207999999998C695.9207887679999 196.37135999999998,699.3465487679998 192.97367999999997,703.2777487679998 192.77711999999997">
</path>
</g>
</g>
<g class="vf-modifiers">
</g>
</g>
<g class="vf-stavenote" id="vf-auto89631">
<g class="vf-note" pointer-events="bounding-box">
<g class="vf-notehead" pointer-events="bounding-box">
<path stroke-width="0.3" fill="#000000" stroke="none" stroke-dasharray="none" d="M754.9479271679999 197.99999999999997M762.3048871679998 192.77711999999997C762.4172071679999 192.77711999999997,762.5856871679998 192.77711999999997,762.6137671679999 192.77711999999997C762.6137671679999 192.77711999999997,762.6418471679999 192.77711999999997,762.6418471679999 192.77711999999997C762.6418471679999 192.77711999999997,762.8103271679998 192.77711999999997,762.9507271679998 192.77711999999997C765.4779271679998 192.91751999999997,766.9661671679999 194.57423999999997,766.9661671679999 196.65215999999998C766.9661671679999 197.66303999999997,766.6292071679999 198.81431999999998,765.7868071679999 199.90943999999996C764.1862471679999 202.07159999999996,761.5748071679999 203.25095999999996,759.3003271679999 203.25095999999996C757.5312871679998 203.25095999999996,756.0149671679999 202.54895999999997,755.2848871679998 201.11687999999998C755.0602471679998 200.55527999999998,754.9479271679999 200.02175999999997,754.9479271679999 199.43207999999998C754.9479271679999 196.37135999999998,758.3736871679998 192.97367999999997,762.3048871679998 192.77711999999997">
</path>
</g>
</g>
<g class="vf-modifiers">
<g class="vf-stavenote" id="vf-auto89641">
<g class="vf-note" pointer-events="bounding-box">
<g class="vf-stem" pointer-events="bounding-box">
<path stroke-width="1.5" fill="none" stroke="#000000" stroke-dasharray="none" d="M736.2658887679999 197.99999999999997L736.2658887679999 174.89999999999998">
</path>
</g>
<g class="vf-notehead" pointer-events="bounding-box">
<path stroke-width="0.3" fill="#000000" stroke="none" stroke-dasharray="none" d="M729.0838503679998 197.99999999999997M733.9394439679999 194.55289919999998C734.0135751679999 194.55289919999998,734.1247719679999 194.55289919999998,734.1433047679999 194.55289919999998C734.1433047679999 194.55289919999998,734.1618375679999 194.55289919999998,734.1618375679999 194.55289919999998C734.1618375679999 194.55289919999998,734.2730343679998 194.55289919999998,734.3656983679998 194.55289919999998C736.0336503679998 194.64556319999997,737.0158887679999 195.73899839999996,737.0158887679999 197.11042559999999C737.0158887679999 197.77760639999997,736.7934951679998 198.53745119999996,736.2375111679999 199.26023039999998C735.1811415679998 200.68725599999996,733.4575911679998 201.46563359999996,731.9564343679998 201.46563359999996C730.7888679679999 201.46563359999996,729.7880967679998 201.00231359999998,729.3062439679999 200.05714079999998C729.1579815679999 199.68648479999996,729.0838503679998 199.33436159999997,729.0838503679998 198.94517279999997C729.0838503679998 196.92509759999996,731.3448519679998 194.68262879999997,733.9394439679999 194.55289919999998">
</path>
</g>
<g class="vf-flag" pointer-events="bounding-box">
<path stroke-width="0.3" fill="#000000" stroke="none" stroke-dasharray="none" d="M736.2658887679999 172.89999999999998M735.8211015679999 175.88378079999998L735.8211015679999 172.992664L735.8952327679998 172.992664C736.0990935679998 172.992664,736.2288231679998 173.12239359999998,736.2658887679999 173.34478719999998C736.6550775679999 175.19806719999997,737.8226439679999 177.21814239999998,739.4349975679999 178.73783199999997C741.2326791679999 180.42431679999999,742.1407863679999 182.74091679999998,742.1407863679999 185.13164799999998C742.1407863679999 187.39264959999997,741.3438759679999 189.74631519999997,739.7315223679999 191.69225919999997C739.4535303679999 192.06291519999996,739.4349975679999 192.06291519999996,739.2496695679998 192.06291519999996C739.0272759679998 192.06291519999996,738.8790135679999 191.89611999999997,738.8790135679999 191.67372639999996C738.8790135679999 191.50693119999997,738.8975463679999 191.4698656,739.0828743679998 191.2660048C740.4913671679999 189.56098719999997,741.1956135679999 187.5038464,741.1956135679999 185.5393696C741.1956135679999 183.7972864,740.6396295679998 182.12933439999998,739.4905959679999 180.86910399999996C738.7863495679999 180.09072639999997,737.4890535679998 179.34941439999997,735.8396343679999 178.77489759999997C735.8396343679999 178.75636479999997,735.8211015679999 178.18184799999997,735.8211015679999 175.88378079999998">
</path>
</g>
</g>
<g class="vf-modifiers">
</g>
</g>
<path stroke-width="1" fill="none" stroke="#000000" stroke-dasharray="none" d="M730.0838503679998 189.74999999999997L743.0838503679998 180.74999999999997Z">
</path>
</g>
</g>
<g class="vf-stavenote" id="vf-auto89655">
<g class="vf-note" pointer-events="bounding-box">
<g class="vf-notehead" pointer-events="bounding-box">
<path stroke-width="0.3" fill="#000000" stroke="none" stroke-dasharray="none" d="M788.1109887679999 197.99999999999997M795.4679487679998 192.77711999999997C795.5802687679999 192.77711999999997,795.7487487679998 192.77711999999997,795.7768287679999 192.77711999999997C795.7768287679999 192.77711999999997,795.8049087679999 192.77711999999997,795.8049087679999 192.77711999999997C795.8049087679999 192.77711999999997,795.9733887679998 192.77711999999997,796.1137887679998 192.77711999999997C798.6409887679998 192.91751999999997,800.1292287679998 194.57423999999997,800.1292287679998 196.65215999999998C800.1292287679998 197.66303999999997,799.7922687679999 198.81431999999998,798.9498687679999 199.90943999999996C797.3493087679999 202.07159999999996,794.7378687679999 203.25095999999996,792.4633887679998 203.25095999999996C790.6943487679998 203.25095999999996,789.1780287679999 202.54895999999997,788.4479487679998 201.11687999999998C788.2233087679998 200.55527999999998,788.1109887679999 200.02175999999997,788.1109887679999 199.43207999999998C788.1109887679999 196.37135999999998,791.5367487679998 192.97367999999997,795.4679487679998 192.77711999999997">
</path>
</g>
</g>
<g class="vf-modifiers">
</g>
</g>
<g class="vf-stavenote" id="vf-auto89665">
<g class="vf-note" pointer-events="bounding-box">
<g class="vf-notehead" pointer-events="bounding-box">
<path stroke-width="0.3" fill="#000000" stroke="none" stroke-dasharray="none" d="M847.1381271679998 197.99999999999997M854.4950871679997 192.77711999999997C854.6074071679998 192.77711999999997,854.7758871679997 192.77711999999997,854.8039671679998 192.77711999999997C854.8039671679998 192.77711999999997,854.8320471679998 192.77711999999997,854.8320471679998 192.77711999999997C854.8320471679998 192.77711999999997,855.0005271679997 192.77711999999997,855.1409271679997 192.77711999999997C857.6681271679997 192.91751999999997,859.1563671679997 194.57423999999997,859.1563671679997 196.65215999999998C859.1563671679997 197.66303999999997,858.8194071679998 198.81431999999998,857.9770071679998 199.90943999999996C856.3764471679998 202.07159999999996,853.7650071679998 203.25095999999996,851.4905271679997 203.25095999999996C849.7214871679997 203.25095999999996,848.2051671679998 202.54895999999997,847.4750871679997 201.11687999999998C847.2504471679997 200.55527999999998,847.1381271679998 200.02175999999997,847.1381271679998 199.43207999999998C847.1381271679998 196.37135999999998,850.5638871679997 192.97367999999997,854.4950871679997 192.77711999999997">
</path>
</g>
</g>
<g class="vf-modifiers">
<g class="vf-stavenote" id="vf-auto89675">
<g class="vf-note" pointer-events="bounding-box">
<g class="vf-stem" pointer-events="bounding-box">
<path stroke-width="1.5" fill="none" stroke="#000000" stroke-dasharray="none" d="M828.4560887679997 197.99999999999997L828.4560887679997 174.89999999999998">
</path>
</g>
<g class="vf-notehead" pointer-events="bounding-box">
<path stroke-width="0.3" fill="#000000" stroke="none" stroke-dasharray="none" d="M821.2740503679997 197.99999999999997M826.1296439679998 194.55289919999998C826.2037751679998 194.55289919999998,826.3149719679998 194.55289919999998,826.3335047679998 194.55289919999998C826.3335047679998 194.55289919999998,826.3520375679998 194.55289919999998,826.3520375679998 194.55289919999998C826.3520375679998 194.55289919999998,826.4632343679997 194.55289919999998,826.5558983679997 194.55289919999998C828.2238503679997 194.64556319999997,829.2060887679997 195.73899839999996,829.2060887679997 197.11042559999999C829.2060887679997 197.77760639999997,828.9836951679997 198.53745119999996,828.4277111679997 199.26023039999998C827.3713415679997 200.68725599999996,825.6477911679997 201.46563359999996,824.1466343679997 201.46563359999996C822.9790679679998 201.46563359999996,821.9782967679997 201.00231359999998,821.4964439679998 200.05714079999998C821.3481815679997 199.68648479999996,821.2740503679997 199.33436159999997,821.2740503679997 198.94517279999997C821.2740503679997 196.92509759999996,823.5350519679997 194.68262879999997,826.1296439679998 194.55289919999998">
</path>
</g>
<g class="vf-flag" pointer-events="bounding-box">
<path stroke-width="0.3" fill="#000000" stroke="none" stroke-dasharray="none" d="M828.4560887679997 172.89999999999998M828.0113015679998 175.88378079999998L828.0113015679998 172.992664L828.0854327679997 172.992664C828.2892935679997 172.992664,828.4190231679997 173.12239359999998,828.4560887679997 173.34478719999998C828.8452775679998 175.19806719999997,830.0128439679997 177.21814239999998,831.6251975679997 178.73783199999997C833.4228791679998 180.42431679999999,834.3309863679998 182.74091679999998,834.3309863679998 185.13164799999998C834.3309863679998 187.39264959999997,833.5340759679998 189.74631519999997,831.9217223679998 191.69225919999997C831.6437303679998 192.06291519999996,831.6251975679997 192.06291519999996,831.4398695679997 192.06291519999996C831.2174759679997 192.06291519999996,831.0692135679998 191.89611999999997,831.0692135679998 191.67372639999996C831.0692135679998 191.50693119999997,831.0877463679998 191.4698656,831.2730743679997 191.2660048C832.6815671679998 189.56098719999997,833.3858135679998 187.5038464,833.3858135679998 185.5393696C833.3858135679998 183.7972864,832.8298295679997 182.12933439999998,831.6807959679998 180.86910399999996C830.9765495679998 180.09072639999997,829.6792535679997 179.34941439999997,828.0298343679998 178.77489759999997C828.0298343679998 178.75636479999997,828.0113015679998 178.18184799999997,828.0113015679998 175.88378079999998">
</path>
</g>
</g>
<g class="vf-modifiers">
</g>
</g>
<path stroke-width="1" fill="none" stroke="#000000" stroke-dasharray="none" d="M822.2740503679997 189.74999999999997L835.2740503679997 180.74999999999997Z">
</path>
</g>
</g>
<g class="vf-stavenote" id="vf-auto89689">
<g class="vf-note" pointer-events="bounding-box">
<g class="vf-notehead" pointer-events="bounding-box">
<path stroke-width="0.3" fill="#000000" stroke="none" stroke-dasharray="none" d="M880.3011887679997 197.99999999999997M887.6581487679997 192.77711999999997C887.7704687679998 192.77711999999997,887.9389487679997 192.77711999999997,887.9670287679998 192.77711999999997C887.9670287679998 192.77711999999997,887.9951087679998 192.77711999999997,887.9951087679998 192.77711999999997C887.9951087679998 192.77711999999997,888.1635887679997 192.77711999999997,888.3039887679997 192.77711999999997C890.8311887679997 192.91751999999997,892.3194287679997 194.57423999999997,892.3194287679997 196.65215999999998C892.3194287679997 197.66303999999997,891.9824687679998 198.81431999999998,891.1400687679998 199.90943999999996C889.5395087679998 202.07159999999996,886.9280687679998 203.25095999999996,884.6535887679997 203.25095999999996C882.8845487679997 203.25095999999996,881.3682287679998 202.54895999999997,880.6381487679997 201.11687999999998C880.4135087679997 200.55527999999998,880.3011887679997 200.02175999999997,880.3011887679997 199.43207999999998C880.3011887679997 196.37135999999998,883.7269487679997 192.97367999999997,887.6581487679997 192.77711999999997">
</path>
</g>
</g>
<g class="vf-modifiers">
</g>
</g>
<g class="vf-stavenote" id="vf-auto89699">
<g class="vf-note" pointer-events="bounding-box">
<g class="vf-notehead" pointer-events="bounding-box">
<path stroke-width="0.3" fill="#000000" stroke="none" stroke-dasharray="none" d="M939.3283271679998 197.99999999999997M946.6852871679997 192.77711999999997C946.7976071679998 192.77711999999997,946.9660871679997 192.77711999999997,946.9941671679998 192.77711999999997C946.9941671679998 192.77711999999997,947.0222471679998 192.77711999999997,947.0222471679998 192.77711999999997C947.0222471679998 192.77711999999997,947.1907271679997 192.77711999999997,947.3311271679997 192.77711999999997C949.8583271679997 192.91751999999997,951.3465671679998 194.57423999999997,951.3465671679998 196.65215999999998C951.3465671679998 197.66303999999997,951.0096071679998 198.81431999999998,950.1672071679998 199.90943999999996C948.5666471679998 202.07159999999996,945.9552071679998 203.25095999999996,943.6807271679997 203.25095999999996C941.9116871679997 203.25095999999996,940.3953671679998 202.54895999999997,939.6652871679997 201.11687999999998C939.4406471679997 200.55527999999998,939.3283271679998 200.02175999999997,939.3283271679998 199.43207999999998C939.3283271679998 196.37135999999998,942.7540871679997 192.97367999999997,946.6852871679997 192.77711999999997">
</path>
</g>
</g>
<g class="vf-modifiers">
<g class="vf-stavenote" id="vf-auto89709">
<g class="vf-note" pointer-events="bounding-box">
<g class="vf-stem" pointer-events="bounding-box">
<path stroke-width="1.5" fill="none" stroke="#000000" stroke-dasharray="none" d="M920.6462887679997 197.99999999999997L920.6462887679997 174.89999999999998">
</path>
</g>
<g class="vf-notehead" pointer-events="bounding-box">
<path stroke-width="0.3" fill="#000000" stroke="none" stroke-dasharray="none" d="M913.4642503679997 197.99999999999997M918.3198439679998 194.55289919999998C918.3939751679998 194.55289919999998,918.5051719679998 194.55289919999998,918.5237047679998 194.55289919999998C918.5237047679998 194.55289919999998,918.5422375679998 194.55289919999998,918.5422375679998 194.55289919999998C918.5422375679998 194.55289919999998,918.6534343679997 194.55289919999998,918.7460983679997 194.55289919999998C920.4140503679997 194.64556319999997,921.3962887679997 195.73899839999996,921.3962887679997 197.11042559999999C921.3962887679997 197.77760639999997,921.1738951679997 198.53745119999996,920.6179111679998 199.26023039999998C919.5615415679997 200.68725599999996,917.8379911679997 201.46563359999996,916.3368343679997 201.46563359999996C915.1692679679998 201.46563359999996,914.1684967679997 201.00231359999998,913.6866439679998 200.05714079999998C913.5383815679997 199.68648479999996,913.4642503679997 199.33436159999997,913.4642503679997 198.94517279999997C913.4642503679997 196.92509759999996,915.7252519679997 194.68262879999997,918.3198439679998 194.55289919999998">
</path>
</g>
<g class="vf-flag" pointer-events="bounding-box">
<path stroke-width="0.3" fill="#000000" stroke="none" stroke-dasharray="none" d="M920.6462887679997 172.89999999999998M920.2015015679998 175.88378079999998L920.2015015679998 172.992664L920.2756327679997 172.992664C920.4794935679997 172.992664,920.6092231679997 173.12239359999998,920.6462887679997 173.34478719999998C921.0354775679998 175.19806719999997,922.2030439679997 177.21814239999998,923.8153975679998 178.73783199999997C925.6130791679998 180.42431679999999,926.5211863679998 182.74091679999998,926.5211863679998 185.13164799999998C926.5211863679998 187.39264959999997,925.7242759679998 189.74631519999997,924.1119223679998 191.69225919999997C923.8339303679998 192.06291519999996,923.8153975679998 192.06291519999996,923.6300695679997 192.06291519999996C923.4076759679997 192.06291519999996,923.2594135679998 191.89611999999997,923.2594135679998 191.67372639999996C923.2594135679998 191.50693119999997,923.2779463679998 191.4698656,923.4632743679997 191.2660048C924.8717671679998 189.56098719999997,925.5760135679998 187.5038464,925.5760135679998 185.5393696C925.5760135679998 183.7972864,925.0200295679997 182.12933439999998,923.8709959679998 180.86910399999996C923.1667495679998 180.09072639999997,921.8694535679997 179.34941439999997,920.2200343679998 178.77489759999997C920.2200343679998 178.75636479999997,920.2015015679998 178.18184799999997,920.2015015679998 175.88378079999998">
</path>
</g>
</g>
<g class="vf-modifiers">
</g>
</g>
<path stroke-width="1" fill="none" stroke="#000000" stroke-dasharray="none" d="M914.4642503679997 189.74999999999997L927.4642503679997 180.74999999999997Z">
</path>
</g>
</g>
<g class="vf-stavenote" id="vf-auto89723">
<g class="vf-note" pointer-events="bounding-box">
<g class="vf-notehead" pointer-events="bounding-box">
<path stroke-width="0.3" fill="#000000" stroke="none" stroke-dasharray="none" d="M972.4913887679998 197.99999999999997M979.8483487679997 192.77711999999997C979.9606687679998 192.77711999999997,980.1291487679997 192.77711999999997,980.1572287679998 192.77711999999997C980.1572287679998 192.77711999999997,980.1853087679998 192.77711999999997,980.1853087679998 192.77711999999997C980.1853087679998 192.77711999999997,980.3537887679997 192.77711999999997,980.4941887679997 192.77711999999997C983.0213887679997 192.91751999999997,984.5096287679997 194.57423999999997,984.5096287679997 196.65215999999998C984.5096287679997 197.66303999999997,984.1726687679998 198.81431999999998,983.3302687679998 199.90943999999996C981.7297087679998 202.07159999999996,979.1182687679998 203.25095999999996,976.8437887679997 203.25095999999996C975.0747487679997 203.25095999999996,973.5584287679998 202.54895999999997,972.8283487679997 201.11687999999998C972.6037087679997 200.55527999999998,972.4913887679998 200.02175999999997,972.4913887679998 199.43207999999998C972.4913887679998 196.37135999999998,975.9171487679997 192.97367999999997,979.8483487679997 192.77711999999997">
</path>
</g>
</g>
<g class="vf-modifiers">
</g>
</g>
<g class="vf-stavenote" id="vf-auto89733">
<g class="vf-note" pointer-events="bounding-box">
<g class="vf-notehead" pointer-events="bounding-box">
<path stroke-width="0.3" fill="#000000" stroke="none" stroke-dasharray="none" d="M1031.5185271679998 197.99999999999997M1038.8754871679998 192.77711999999997C1038.9878071679998 192.77711999999997,1039.1562871679998 192.77711999999997,1039.1843671679997 192.77711999999997C1039.1843671679997 192.77711999999997,1039.2124471679997 192.77711999999997,1039.2124471679997 192.77711999999997C1039.2124471679997 192.77711999999997,1039.3809271679997 192.77711999999997,1039.5213271679997 192.77711999999997C1042.0485271679997 192.91751999999997,1043.5367671679999 194.57423999999997,1043.5367671679999 196.65215999999998C1043.5367671679999 197.66303999999997,1043.1998071679998 198.81431999999998,1042.3574071679998 199.90943999999996C1040.7568471679997 202.07159999999996,1038.1454071679998 203.25095999999996,1035.8709271679998 203.25095999999996C1034.1018871679998 203.25095999999996,1032.5855671679997 202.54895999999997,1031.8554871679999 201.11687999999998C1031.6308471679997 200.55527999999998,1031.5185271679998 200.02175999999997,1031.5185271679998 199.43207999999998C1031.5185271679998 196.37135999999998,1034.9442871679998 192.97367999999997,1038.8754871679998 192.77711999999997">
</path>
</g>
</g>
<g class="vf-modifiers">
<g class="vf-stavenote" id="vf-auto89743">
<g class="vf-note" pointer-events="bounding-box">
<g class="vf-stem" pointer-events="bounding-box">
<path stroke-width="1.5" fill="none" stroke="#000000" stroke-dasharray="none" d="M1012.8364887679998 197.99999999999997L1012.8364887679998 174.89999999999998">
</path>
</g>
<g class="vf-notehead" pointer-events="bounding-box">
<path stroke-width="0.3" fill="#000000" stroke="none" stroke-dasharray="none" d="M1005.6544503679997 197.99999999999997M1010.5100439679998 194.55289919999998C1010.5841751679998 194.55289919999998,1010.6953719679998 194.55289919999998,1010.7139047679998 194.55289919999998C1010.7139047679998 194.55289919999998,1010.7324375679998 194.55289919999998,1010.7324375679998 194.55289919999998C1010.7324375679998 194.55289919999998,1010.8436343679997 194.55289919999998,1010.9362983679997 194.55289919999998C1012.6042503679997 194.64556319999997,1013.5864887679998 195.73899839999996,1013.5864887679998 197.11042559999999C1013.5864887679998 197.77760639999997,1013.3640951679997 198.53745119999996,1012.8081111679998 199.26023039999998C1011.7517415679997 200.68725599999996,1010.0281911679997 201.46563359999996,1008.5270343679997 201.46563359999996C1007.3594679679998 201.46563359999996,1006.3586967679997 201.00231359999998,1005.8768439679998 200.05714079999998C1005.7285815679998 199.68648479999996,1005.6544503679997 199.33436159999997,1005.6544503679997 198.94517279999997C1005.6544503679997 196.92509759999996,1007.9154519679997 194.68262879999997,1010.5100439679998 194.55289919999998">
</path>
</g>
<g class="vf-flag" pointer-events="bounding-box">
<path stroke-width="0.3" fill="#000000" stroke="none" stroke-dasharray="none" d="M1012.8364887679998 172.89999999999998M1012.3917015679998 175.88378079999998L1012.3917015679998 172.992664L1012.4658327679997 172.992664C1012.6696935679997 172.992664,1012.7994231679997 173.12239359999998,1012.8364887679998 173.34478719999998C1013.2256775679998 175.19806719999997,1014.3932439679998 177.21814239999998,1016.0055975679998 178.73783199999997C1017.8032791679998 180.42431679999999,1018.7113863679998 182.74091679999998,1018.7113863679998 185.13164799999998C1018.7113863679998 187.39264959999997,1017.9144759679998 189.74631519999997,1016.3021223679998 191.69225919999997C1016.0241303679998 192.06291519999996,1016.0055975679998 192.06291519999996,1015.8202695679997 192.06291519999996C1015.5978759679997 192.06291519999996,1015.4496135679998 191.89611999999997,1015.4496135679998 191.67372639999996C1015.4496135679998 191.50693119999997,1015.4681463679998 191.4698656,1015.6534743679997 191.2660048C1017.0619671679998 189.56098719999997,1017.7662135679998 187.5038464,1017.7662135679998 185.5393696C1017.7662135679998 183.7972864,1017.2102295679997 182.12933439999998,1016.0611959679998 180.86910399999996C1015.3569495679998 180.09072639999997,1014.0596535679997 179.34941439999997,1012.4102343679998 178.77489759999997C1012.4102343679998 178.75636479999997,1012.3917015679998 178.18184799999997,1012.3917015679998 175.88378079999998">
</path>
</g>
</g>
<g class="vf-modifiers">
</g>
</g>
<path stroke-width="1" fill="none" stroke="#000000" stroke-dasharray="none" d="M1006.6544503679997 189.74999999999997L1019.6544503679997 180.74999999999997Z">
</path>
</g>
</g>
<g class="vf-stavenote" id="vf-auto89757">
<g class="vf-note" pointer-events="bounding-box">
<g class="vf-notehead" pointer-events="bounding-box">
<path stroke-width="0.3" fill="#000000" stroke="none" stroke-dasharray="none" d="M1064.6815887679998 197.99999999999997M1072.0385487679998 192.77711999999997C1072.1508687679998 192.77711999999997,1072.3193487679998 192.77711999999997,1072.3474287679996 192.77711999999997C1072.3474287679996 192.77711999999997,1072.3755087679997 192.77711999999997,1072.3755087679997 192.77711999999997C1072.3755087679997 192.77711999999997,1072.5439887679997 192.77711999999997,1072.6843887679997 192.77711999999997C1075.2115887679997 192.91751999999997,1076.6998287679999 194.57423999999997,1076.6998287679999 196.65215999999998C1076.6998287679999 197.66303999999997,1076.3628687679998 198.81431999999998,1075.5204687679998 199.90943999999996C1073.9199087679997 202.07159999999996,1071.3084687679998 203.25095999999996,1069.0339887679997 203.25095999999996C1067.2649487679998 203.25095999999996,1065.7486287679997 202.54895999999997,1065.0185487679998 201.11687999999998C1064.7939087679997 200.55527999999998,1064.6815887679998 200.02175999999997,1064.6815887679998 199.43207999999998C1064.6815887679998 196.37135999999998,1068.1073487679998 192.97367999999997,1072.0385487679998 192.77711999999997">
</path>
</g>
</g>
<g class="vf-modifiers">
</g>
</g>
<g class="vf-stavenote" id="vf-auto89767">
<g class="vf-note" pointer-events="bounding-box">
<g class="vf-notehead" pointer-events="bounding-box">
<path stroke-width="0.3" fill="#000000" stroke="none" stroke-dasharray="none" d="M1123.7087271679998 197.99999999999997M1131.0656871679998 192.77711999999997C1131.1780071679998 192.77711999999997,1131.3464871679998 192.77711999999997,1131.3745671679997 192.77711999999997C1131.3745671679997 192.77711999999997,1131.4026471679997 192.77711999999997,1131.4026471679997 192.77711999999997C1131.4026471679997 192.77711999999997,1131.5711271679997 192.77711999999997,1131.7115271679997 192.77711999999997C1134.2387271679997 192.91751999999997,1135.7269671679999 194.57423999999997,1135.7269671679999 196.65215999999998C1135.7269671679999 197.66303999999997,1135.3900071679998 198.81431999999998,1134.5476071679998 199.90943999999996C1132.9470471679997 202.07159999999996,1130.3356071679998 203.25095999999996,1128.0611271679998 203.25095999999996C1126.2920871679999 203.25095999999996,1124.7757671679997 202.54895999999997,1124.0456871679999 201.11687999999998C1123.8210471679997 200.55527999999998,1123.7087271679998 200.02175999999997,1123.7087271679998 199.43207999999998C1123.7087271679998 196.37135999999998,1127.1344871679999 192.97367999999997,1131.0656871679998 192.77711999999997">
</path>
</g>
</g>
<g class="vf-modifiers">
<g class="vf-stavenote" id="vf-auto89777">
<g class="vf-note" pointer-events="bounding-box">
<g class="vf-stem" pointer-events="bounding-box">
<path stroke-width="1.5" fill="none" stroke="#000000" stroke-dasharray="none" d="M1105.0266887679998 197.99999999999997L1105.0266887679998 174.89999999999998">
</path>
</g>
<g class="vf-notehead" pointer-events="bounding-box">
<path stroke-width="0.3" fill="#000000" stroke="none" stroke-dasharray="none" d="M1097.8446503679997 197.99999999999997M1102.7002439679998 194.55289919999998C1102.7743751679998 194.55289919999998,1102.8855719679998 194.55289919999998,1102.9041047679998 194.55289919999998C1102.9041047679998 194.55289919999998,1102.9226375679998 194.55289919999998,1102.9226375679998 194.55289919999998C1102.9226375679998 194.55289919999998,1103.0338343679998 194.55289919999998,1103.1264983679998 194.55289919999998C1104.7944503679998 194.64556319999997,1105.7766887679998 195.73899839999996,1105.7766887679998 197.11042559999999C1105.7766887679998 197.77760639999997,1105.5542951679997 198.53745119999996,1104.9983111679996 199.26023039999998C1103.9419415679997 200.68725599999996,1102.2183911679997 201.46563359999996,1100.7172343679997 201.46563359999996C1099.5496679679998 201.46563359999996,1098.5488967679998 201.00231359999998,1098.0670439679998 200.05714079999998C1097.9187815679998 199.68648479999996,1097.8446503679997 199.33436159999997,1097.8446503679997 198.94517279999997C1097.8446503679997 196.92509759999996,1100.1056519679998 194.68262879999997,1102.7002439679998 194.55289919999998">
</path>
</g>
<g class="vf-flag" pointer-events="bounding-box">
<path stroke-width="0.3" fill="#000000" stroke="none" stroke-dasharray="none" d="M1105.0266887679998 172.89999999999998M1104.5819015679997 175.88378079999998L1104.5819015679997 172.992664L1104.6560327679997 172.992664C1104.8598935679997 172.992664,1104.9896231679998 173.12239359999998,1105.0266887679998 173.34478719999998C1105.4158775679998 175.19806719999997,1106.5834439679998 177.21814239999998,1108.1957975679998 178.73783199999997C1109.9934791679998 180.42431679999999,1110.9015863679997 182.74091679999998,1110.9015863679997 185.13164799999998C1110.9015863679997 187.39264959999997,1110.1046759679998 189.74631519999997,1108.4923223679998 191.69225919999997C1108.2143303679998 192.06291519999996,1108.1957975679998 192.06291519999996,1108.0104695679997 192.06291519999996C1107.7880759679997 192.06291519999996,1107.6398135679997 191.89611999999997,1107.6398135679997 191.67372639999996C1107.6398135679997 191.50693119999997,1107.6583463679997 191.4698656,1107.8436743679997 191.2660048C1109.2521671679997 189.56098719999997,1109.9564135679998 187.5038464,1109.9564135679998 185.5393696C1109.9564135679998 183.7972864,1109.4004295679997 182.12933439999998,1108.2513959679998 180.86910399999996C1107.5471495679997 180.09072639999997,1106.2498535679997 179.34941439999997,1104.6004343679997 178.77489759999997C1104.6004343679997 178.75636479999997,1104.5819015679997 178.18184799999997,1104.5819015679997 175.88378079999998">
</path>
</g>
</g>
<g class="vf-modifiers">
</g>
</g>
<path stroke-width="1" fill="none" stroke="#000000" stroke-dasharray="none" d="M1098.8446503679997 189.74999999999997L1111.8446503679997 180.74999999999997Z">
</path>
</g>
</g>
<g class="vf-stavenote" id="vf-auto89791">
<g class="vf-note" pointer-events="bounding-box">
<g class="vf-notehead" pointer-events="bounding-box">
<path stroke-width="0.3" fill="#000000" stroke="none" stroke-dasharray="none" d="M1156.8717887679998 197.99999999999997M1164.2287487679998 192.77711999999997C1164.3410687679998 192.77711999999997,1164.5095487679998 192.77711999999997,1164.5376287679996 192.77711999999997C1164.5376287679996 192.77711999999997,1164.5657087679997 192.77711999999997,1164.5657087679997 192.77711999999997C1164.5657087679997 192.77711999999997,1164.7341887679997 192.77711999999997,1164.8745887679997 192.77711999999997C1167.4017887679997 192.91751999999997,1168.8900287679999 194.57423999999997,1168.8900287679999 196.65215999999998C1168.8900287679999 197.66303999999997,1168.5530687679998 198.81431999999998,1167.7106687679998 199.90943999999996C1166.1101087679997 202.07159999999996,1163.4986687679998 203.25095999999996,1161.2241887679997 203.25095999999996C1159.4551487679998 203.25095999999996,1157.9388287679997 202.54895999999997,1157.2087487679999 201.11687999999998C1156.9841087679997 200.55527999999998,1156.8717887679998 200.02175999999997,1156.8717887679998 199.43207999999998C1156.8717887679998 196.37135999999998,1160.2975487679998 192.97367999999997,1164.2287487679998 192.77711999999997">
</path>
</g>
</g>
<g class="vf-modifiers">
</g>
</g>
<g class="vf-stavenote" id="vf-auto89801">
<g class="vf-note" pointer-events="bounding-box">
<g class="vf-notehead" pointer-events="bounding-box">
<path stroke-width="0.3" fill="#000000" stroke="none" stroke-dasharray="none" d="M1215.8989271679998 197.99999999999997M1223.2558871679998 192.77711999999997C1223.3682071679998 192.77711999999997,1223.5366871679998 192.77711999999997,1223.5647671679997 192.77711999999997C1223.5647671679997 192.77711999999997,1223.5928471679997 192.77711999999997,1223.5928471679997 192.77711999999997C1223.5928471679997 192.77711999999997,1223.7613271679998 192.77711999999997,1223.9017271679998 192.77711999999997C1226.4289271679997 192.91751999999997,1227.9171671679999 194.57423999999997,1227.9171671679999 196.65215999999998C1227.9171671679999 197.66303999999997,1227.5802071679998 198.81431999999998,1226.7378071679998 199.90943999999996C1225.1372471679997 202.07159999999996,1222.5258071679998 203.25095999999996,1220.2513271679998 203.25095999999996C1218.4822871679999 203.25095999999996,1216.9659671679997 202.54895999999997,1216.2358871679999 201.11687999999998C1216.0112471679997 200.55527999999998,1215.8989271679998 200.02175999999997,1215.8989271679998 199.43207999999998C1215.8989271679998 196.37135999999998,1219.3246871679999 192.97367999999997,1223.2558871679998 192.77711999999997">
</path>
</g>
</g>
<g class="vf-modifiers">
<g class="vf-stavenote" id="vf-auto89811">
<g class="vf-note" pointer-events="bounding-box">
<g class="vf-stem" pointer-events="bounding-box">
<path stroke-width="1.5" fill="none" stroke="#000000" stroke-dasharray="none" d="M1197.2168887679998 197.99999999999997L1197.2168887679998 174.89999999999998">
</path>
</g>
<g class="vf-notehead" pointer-events="bounding-box">
<path stroke-width="0.3" fill="#000000" stroke="none" stroke-dasharray="none" d="M1190.0348503679998 197.99999999999997M1194.8904439679998 194.55289919999998C1194.9645751679998 194.55289919999998,1195.0757719679998 194.55289919999998,1195.0943047679998 194.55289919999998C1195.0943047679998 194.55289919999998,1195.1128375679998 194.55289919999998,1195.1128375679998 194.55289919999998C1195.1128375679998 194.55289919999998,1195.2240343679998 194.55289919999998,1195.3166983679998 194.55289919999998C1196.9846503679998 194.64556319999997,1197.9668887679998 195.73899839999996,1197.9668887679998 197.11042559999999C1197.9668887679998 197.77760639999997,1197.7444951679997 198.53745119999996,1197.1885111679996 199.26023039999998C1196.1321415679997 200.68725599999996,1194.4085911679997 201.46563359999996,1192.9074343679997 201.46563359999996C1191.7398679679998 201.46563359999996,1190.7390967679999 201.00231359999998,1190.2572439679998 200.05714079999998C1190.1089815679998 199.68648479999996,1190.0348503679998 199.33436159999997,1190.0348503679998 198.94517279999997C1190.0348503679998 196.92509759999996,1192.2958519679999 194.68262879999997,1194.8904439679998 194.55289919999998">
</path>
</g>
<g class="vf-flag" pointer-events="bounding-box">
<path stroke-width="0.3" fill="#000000" stroke="none" stroke-dasharray="none" d="M1197.2168887679998 172.89999999999998M1196.7721015679997 175.88378079999998L1196.7721015679997 172.992664L1196.8462327679997 172.992664C1197.0500935679997 172.992664,1197.1798231679998 173.12239359999998,1197.2168887679998 173.34478719999998C1197.6060775679998 175.19806719999997,1198.7736439679998 177.21814239999998,1200.3859975679998 178.73783199999997C1202.1836791679998 180.42431679999999,1203.0917863679997 182.74091679999998,1203.0917863679997 185.13164799999998C1203.0917863679997 187.39264959999997,1202.2948759679998 189.74631519999997,1200.6825223679998 191.69225919999997C1200.4045303679998 192.06291519999996,1200.3859975679998 192.06291519999996,1200.2006695679997 192.06291519999996C1199.9782759679997 192.06291519999996,1199.8300135679997 191.89611999999997,1199.8300135679997 191.67372639999996C1199.8300135679997 191.50693119999997,1199.8485463679997 191.4698656,1200.0338743679997 191.2660048C1201.4423671679997 189.56098719999997,1202.1466135679998 187.5038464,1202.1466135679998 185.5393696C1202.1466135679998 183.7972864,1201.5906295679997 182.12933439999998,1200.4415959679998 180.86910399999996C1199.7373495679997 180.09072639999997,1198.4400535679997 179.34941439999997,1196.7906343679997 178.77489759999997C1196.7906343679997 178.75636479999997,1196.7721015679997 178.18184799999997,1196.7721015679997 175.88378079999998">
</path>
</g>
</g>
<g class="vf-modifiers">
</g>
</g>
<path stroke-width="1" fill="none" stroke="#000000" stroke-dasharray="none" d="M1191.0348503679998 189.74999999999997L1204.0348503679998 180.74999999999997Z">
</path>
</g>
</g>
<g class="vf-stavenote" id="vf-auto89825">
<g class="vf-note" pointer-events="bounding-box">
<g class="vf-notehead" pointer-events="bounding-box">
<path stroke-width="0.3" fill="#000000" stroke="none" stroke-dasharray="none" d="M1249.0619887679998 197.99999999999997M1256.4189487679998 192.77711999999997C1256.5312687679998 192.77711999999997,1256.6997487679998 192.77711999999997,1256.7278287679997 192.77711999999997C1256.7278287679997 192.77711999999997,1256.7559087679997 192.77711999999997,1256.7559087679997 192.77711999999997C1256.7559087679997 192.77711999999997,1256.9243887679997 192.77711999999997,1257.0647887679997 192.77711999999997C1259.5919887679997 192.91751999999997,1261.0802287679999 194.57423999999997,1261.0802287679999 196.65215999999998C1261.0802287679999 197.66303999999997,1260.7432687679998 198.81431999999998,1259.9008687679998 199.90943999999996C1258.3003087679997 202.07159999999996,1255.6888687679998 203.25095999999996,1253.4143887679998 203.25095999999996C1251.6453487679998 203.25095999999996,1250.1290287679997 202.54895999999997,1249.3989487679999 201.11687999999998C1249.1743087679997 200.55527999999998,1249.0619887679998 200.02175999999997,1249.0619887679998 199.43207999999998C1249.0619887679998 196.37135999999998,1252.4877487679998 192.97367999999997,1256.4189487679998 192.77711999999997">
</path>
</g>
</g>
<g class="vf-modifiers">
</g>
</g>
<path stroke-width="1.5" fill="none" stroke="#000000" stroke-dasharray="none" d="M581.8357671679998 197.99999999999997L581.8357671679998 163.74999999999997">
</path>
<path stroke-width="1.5" fill="none" stroke="#000000" stroke-dasharray="none" d="M614.9988287679998 197.99999999999997L614.9988287679998 163.74999999999997">
</path>
<path stroke-width="1.5" fill="none" stroke="#000000" stroke-dasharray="none" d="M674.0259671679999 197.99999999999997L674.0259671679999 163.74999999999997">
</path>
<path stroke-width="1.5" fill="none" stroke="#000000" stroke-dasharray="none" d="M707.1890287679998 197.99999999999997L707.1890287679998 163.74999999999997">
</path>
<path stroke-width="0.3" fill="#000000" stroke="none" stroke-dasharray="none" d="M581.0857671679998 162.99999999999997L581.0857671679998 167.99999999999997L707.4390287679998 167.99999999999997L707.4390287679998 162.99999999999997Z">
</path>
<path stroke-width="0.3" fill="#000000" stroke="none" stroke-dasharray="none" d="M581.0857671679998 170.49999999999997L581.0857671679998 175.49999999999997L707.4390287679998 175.49999999999997L707.4390287679998 170.49999999999997Z">
</path>
<path stroke-width="1.5" fill="none" stroke="#000000" stroke-dasharray="none" d="M766.2161671679999 197.99999999999997L766.2161671679999 163.74999999999997">
</path>
<path stroke-width="1.5" fill="none" stroke="#000000" stroke-dasharray="none" d="M799.3792287679998 197.99999999999997L799.3792287679998 163.74999999999997">
</path>
<path stroke-width="1.5" fill="none" stroke="#000000" stroke-dasharray="none" d="M858.4063671679997 197.99999999999997L858.4063671679997 163.74999999999997">
</path>
<path stroke-width="1.5" fill="none" stroke="#000000" stroke-dasharray="none" d="M891.5694287679997 197.99999999999997L891.5694287679997 163.74999999999997">
</path>
<path stroke-width="0.3" fill="#000000" stroke="none" stroke-dasharray="none" d="M765.4661671679999 162.99999999999997L765.4661671679999 167.99999999999997L891.8194287679997 167.99999999999997L891.8194287679997 162.99999999999997Z">
</path>
<path stroke-width="0.3" fill="#000000" stroke="none" stroke-dasharray="none" d="M765.4661671679999 170.49999999999997L765.4661671679999 175.49999999999997L891.8194287679997 175.49999999999997L891.8194287679997 170.49999999999997Z">
</path>
<path stroke-width="1.5" fill="none" stroke="#000000" stroke-dasharray="none" d="M950.5965671679998 197.99999999999997L950.5965671679998 163.74999999999997">
</path>
<path stroke-width="1.5" fill="none" stroke="#000000" stroke-dasharray="none" d="M983.7596287679997 197.99999999999997L983.7596287679997 163.74999999999997">
</path>
<path stroke-width="1.5" fill="none" stroke="#000000" stroke-dasharray="none" d="M1042.7867671679999 197.99999999999997L1042.7867671679999 163.74999999999997">
</path>
<path stroke-width="1.5" fill="none" stroke="#000000" stroke-dasharray="none" d="M1075.9498287679999 197.99999999999997L1075.9498287679999 163.74999999999997">
</path>
<path stroke-width="0.3" fill="#000000" stroke="none" stroke-dasharray="none" d="M949.8465671679998 162.99999999999997L949.8465671679998 167.99999999999997L1076.1998287679999 167.99999999999997L1076.1998287679999 162.99999999999997Z">
</path>
<path stroke-width="0.3" fill="#000000" stroke="none" stroke-dasharray="none" d="M949.8465671679998 170.49999999999997L949.8465671679998 175.49999999999997L1076.1998287679999 175.49999999999997L1076.1998287679999 170.49999999999997Z">
</path>
<path stroke-width="1.5" fill="none" stroke="#000000" stroke-dasharray="none" d="M1134.9769671679999 197.99999999999997L1134.9769671679999 163.74999999999997">
</path>
<path stroke-width="1.5" fill="none" stroke="#000000" stroke-dasharray="none" d="M1168.1400287679999 197.99999999999997L1168.1400287679999 163.74999999999997">
</path>
<path stroke-width="1.5" fill="none" stroke="#000000" stroke-dasharray="none" d="M1227.1671671679999 197.99999999999997L1227.1671671679999 163.74999999999997">
</path>
<path stroke-width="1.5" fill="none" stroke="#000000" stroke-dasharray="none" d="M1260.3302287679999 197.99999999999997L1260.3302287679999 163.74999999999997">
</path>
<path stroke-width="0.3" fill="#000000" stroke="none" stroke-dasharray="none" d="M1134.2269671679999 162.99999999999997L1134.2269671679999 167.99999999999997L1260.5802287679999 167.99999999999997L1260.5802287679999 162.99999999999997Z">
</path>
<path stroke-width="0.3" fill="#000000" stroke="none" stroke-dasharray="none" d="M1134.2269671679999 170.49999999999997L1134.2269671679999 175.49999999999997L1260.5802287679999 175.49999999999997L1260.5802287679999 170.49999999999997Z">
</path>
</svg>