<svg width="1536" height="331.99999999999994" viewBox="0 0 1536 331.99999999999994">
<path stroke-width="1" fill="none" stroke="black" stroke-dasharray="none" d="M50 197.99999999999997L401.385136384 197.99999999999997">
</path>
<rect stroke-width="0.3" fill="black" stroke="black" stroke-dasharray="none" x="401.385136384" y="177.49999999999997" width="1" height="41">
</rect>
<path stroke-width="0.3" fill="black" stroke="none" stroke-dasharray="none" d="M55 197.99999999999997M55 197.99999999999997L55 188.00639999999999L57.1888 188.00639999999999L59.4064 188.00639999999999L59.4064 197.99999999999997L59.4064 208.02239999999998L57.1888 208.02239999999998L55 208.02239999999998L55 197.99999999999997M63.870400000000004 198.02879999999996L63.870400000000004 188.00639999999999L66.1168 188.00639999999999L68.3632 188.00639999999999L68.3632 198.02879999999996L68.3632 208.02239999999998L66.1168 208.02239999999998L63.870400000000004 208.02239999999998L63.870400000000004 198.02879999999996">
</path>
<path stroke-width="0.3" fill="black" stroke="none" stroke-dasharray="none" d="M96.1296 197.99999999999997M101.80319999999999 179.33759999999998C101.91839999999999 179.33759999999998,102.11999999999999 179.33759999999998,102.3504 179.33759999999998C102.8112 179.33759999999998,103.416 179.33759999999998,103.56 179.39519999999996C105.72 179.65439999999998,107.448 180.74879999999996,108.1968 182.27519999999998C108.45599999999999 182.79359999999997,108.57119999999999 183.34079999999997,108.57119999999999 183.91679999999997C108.57119999999999 185.32799999999997,107.7936 186.94079999999997,106.38239999999999 188.15039999999996C105.4032 188.98559999999998,104.42399999999999 189.50399999999996,102.8976 189.99359999999996C100.9104 190.62719999999996,99.21119999999999 191.75039999999998,98.1168 193.10399999999998C98.1168 193.10399999999998,98.1168 193.13279999999997,98.1168 193.13279999999997C98.1168 193.13279999999997,98.1168 193.13279999999997,98.1168 193.13279999999997C98.1168 193.13279999999997,98.2032 193.10399999999998,98.26079999999999 193.01759999999996C99.3552 192.12479999999996,100.824 191.60639999999998,102.1488 191.60639999999998C103.2432 191.60639999999998,104.0208 191.80799999999996,105.0576 192.38399999999996C105.6912 192.70079999999996,106.2672 192.84479999999996,106.81439999999999 192.84479999999996C107.0448 192.84479999999996,107.2752 192.84479999999996,107.53439999999999 192.78719999999998C107.9088 192.70079999999996,108.312 192.41279999999998,108.45599999999999 192.18239999999997C108.5424 191.98079999999996,108.68639999999999 191.89439999999996,108.8592 191.89439999999996C109.08959999999999 191.89439999999996,109.32 192.06719999999999,109.32 192.32639999999998C109.32 192.52799999999996,109.0608 193.24799999999996,108.8304 193.7376C107.9088 195.58079999999998,106.29599999999999 196.73279999999997,104.7408 196.73279999999997C104.62559999999999 196.73279999999997,104.5392 196.73279999999997,104.42399999999999 196.70399999999998C104.0208 196.70399999999998,103.848 196.58879999999996,103.3296 196.24319999999997C102.23519999999999 195.52319999999997,100.8528 195.14879999999997,99.6432 195.14879999999997C99.1248 195.14879999999997,98.664 195.20639999999997,98.232 195.37919999999997C97.65599999999999 195.58079999999998,97.1088 195.92639999999997,96.93599999999999 196.18559999999997C96.8496 196.38719999999998,96.70559999999999 196.44479999999996,96.5328 196.44479999999996C96.3888 196.44479999999996,96.2448 196.38719999999998,96.1584 196.21439999999998L96.10079999999999 196.128L96.10079999999999 195.72479999999996C96.10079999999999 195.37919999999997,96.1296 195.26399999999998,96.1296 195.14879999999997C96.1584 195.06239999999997,96.18719999999999 194.88959999999997,96.18719999999999 194.74559999999997C96.70559999999999 192.32639999999998,98.4624 190.16639999999998,100.8528 189.10079999999996C102.8112 188.17919999999998,104.10719999999999 186.53759999999997,104.3376 184.46399999999997C104.39519999999999 184.29119999999998,104.39519999999999 184.14719999999997,104.39519999999999 183.97439999999997C104.39519999999999 182.13119999999998,103.0128 180.86399999999998,101.0544 180.86399999999998C100.9104 180.86399999999998,100.7376 180.86399999999998,100.5936 180.86399999999998C100.3056 180.89279999999997,100.2192 180.89279999999997,100.2192 180.95039999999997C100.2192 180.95039999999997,100.2192 180.97919999999996,100.3056 181.03679999999997C100.96799999999999 181.41119999999998,101.28479999999999 182.13119999999998,101.28479999999999 182.82239999999996C101.28479999999999 183.71519999999998,100.824 184.55039999999997,99.93119999999999 184.89599999999996C99.6432 184.98239999999998,99.3552 185.01119999999997,99.1248 185.01119999999997C97.9152 185.01119999999997,96.9072 183.97439999999997,96.9072 182.73599999999996C96.9072 182.50559999999996,96.9072 182.27519999999998,96.9648 182.01599999999996C97.3968 180.69119999999998,99.4416 179.59679999999997,101.80319999999999 179.33759999999998M102.696 198.02879999999996L102.75359999999999 198.02879999999996L102.6672 198.02879999999996L102.696 198.02879999999996M102.696 178.61759999999998L102.75359999999999 178.61759999999998L102.6672 178.61759999999998L102.696 178.61759999999998">
</path>
<path stroke-width="0.3" fill="black" stroke="none" stroke-dasharray="none" d="M96 217.99999999999997M101.0112 199.65439999999998C101.04 199.62559999999996,101.4432 199.62559999999996,102.6816 199.62559999999996C103.056 199.62559999999996,103.4592 199.62559999999996,103.9776 199.62559999999996L106.8864 199.62559999999996L106.9728 199.71199999999996C107.1168 199.79839999999996,107.2032 199.94239999999996,107.2032 200.05759999999998C107.2032 200.23039999999997,107.1168 200.34559999999996,107.0016 200.46079999999998C106.9728 200.54719999999998,106.7136 200.77759999999998,106.5408 201.03679999999997L105.0144 202.79359999999997L103.056 205.01119999999997L102.0192 206.19199999999998L100.464 207.97759999999997L98.4192 210.31039999999996C98.0736 210.74239999999998,97.6992 211.08799999999997,97.6992 211.08799999999997C97.6992 211.08799999999997,97.6992 211.08799999999997,97.6992 211.08799999999997C97.6992 211.14559999999997,97.9584 211.14559999999997,100.3488 211.14559999999997L102.9696 211.14559999999997L102.9696 209.27359999999996C102.9696 207.37279999999998,102.9696 207.34399999999997,102.9984 207.31519999999998C103.056 207.22879999999998,103.3152 206.91199999999998,104.3232 205.73119999999997L104.7264 205.29919999999998L105.1296 204.86719999999997L105.7344 204.08959999999996L106.368 203.42719999999997L106.6848 203.02399999999997C106.8 202.85119999999998,106.9728 202.82239999999996,107.1168 202.82239999999996C107.28960000000001 202.82239999999996,107.4336 202.90879999999999,107.52 203.05279999999996C107.5488 203.13919999999996,107.5488 203.19679999999997,107.5488 205.32799999999997C107.5488 205.81759999999997,107.5488 206.42239999999998,107.5488 207.14239999999998L107.5488 211.14559999999997L108.2688 211.14559999999997C108.9312 211.14559999999997,108.96 211.14559999999997,109.0464 211.17439999999996C109.2768 211.26079999999996,109.392 211.49119999999996,109.392 211.75039999999998C109.392 211.89439999999996,109.3632 212.06719999999999,109.248 212.18239999999997C109.0752 212.32639999999998,109.0464 212.32639999999998,108.2688 212.32639999999998L107.5488 212.32639999999998L107.5488 212.81599999999997C107.5776 214.28479999999996,107.8656 214.86079999999998,108.9888 215.46559999999997C109.392 215.66719999999998,109.4784 215.72479999999996,109.4784 216.01279999999997C109.4784 216.21439999999998,109.4208 216.30079999999998,109.2768 216.41599999999997L109.1904 216.44479999999996L105.2448 216.44479999999996L101.328 216.44479999999996L101.2416 216.41599999999997C101.0688 216.30079999999998,101.04 216.21439999999998,101.04 216.01279999999997C101.04 215.72479999999996,101.0688 215.66719999999998,101.5008 215.46559999999997C102.624 214.86079999999998,102.912 214.28479999999996,102.912 212.81599999999997L102.912 212.32639999999998L99.6 212.32639999999998C98.9952 212.38399999999996,98.5056 212.38399999999996,98.1024 212.38399999999996C96.288 212.38399999999996,96.2592 212.32639999999998,96.2304 212.32639999999998C96.0576 212.26879999999997,96 212.09599999999998,96 211.89439999999996C96 211.89439999999996,96 211.89439999999996,96 211.89439999999996C96 211.69279999999998,96 211.69279999999998,96.576 211.0304C98.9952 208.09279999999998,100.6944 203.83039999999997,100.6944 200.43199999999996C100.6944 199.91359999999997,100.7808 199.74079999999998,101.0112 199.65439999999998M102.7392 218.02879999999996L102.768 218.02879999999996L102.6816 218.02879999999996L102.7392 218.02879999999996M102.7392 198.61759999999998L102.768 198.61759999999998L102.6816 198.61759999999998L102.7392 198.61759999999998">
</path>
<g class="vf-stavenote" id="vf-auto52536">
<g class="vf-note" pointer-events="bounding-box">
<g class="vf-notehead" pointer-events="bounding-box">
<path stroke-width="0.3" fill="#000000" stroke="none" stroke-dasharray="none" d="M147.3424768 197.99999999999997M154.69943679999997 192.77711999999997C154.81175679999998 192.77711999999997,154.9802368 192.77711999999997,155.0083168 192.77711999999997C155.0083168 192.77711999999997,155.03639679999998 192.77711999999997,155.03639679999998 192.77711999999997C155.03639679999998 192.77711999999997,155.2048768 192.77711999999997,155.3452768 192.77711999999997C157.8724768 192.91751999999997,159.36071679999998 194.57423999999997,159.36071679999998 196.65215999999998C159.36071679999998 197.66303999999997,159.0237568 198.81431999999998,158.18135679999997 199.90943999999996C156.58079679999997 202.07159999999996,153.96935679999999 203.25095999999996,151.69487679999997 203.25095999999996C149.92583679999998 203.25095999999996,148.40951679999998 202.54895999999997,147.6794368 201.11687999999998C147.4547968 200.55527999999998,147.3424768 200.02175999999997,147.3424768 199.43207999999998C147.3424768 196.37135999999998,150.76823679999998 192.97367999999997,154.69943679999997 192.77711999999997">
</path>
</g>
</g>
<g class="vf-modifiers">
<g class="vf-stavenote" id="vf-auto52546">
<g class="vf-note" pointer-events="bounding-box">
<g class="vf-stem" pointer-events="bounding-box">
<path stroke-width="1.5" fill="none" stroke="#000000" stroke-dasharray="none" d="M128.6604384 197.99999999999997L128.6604384 174.89999999999998">
</path>
</g>
<g class="vf-notehead" pointer-events="bounding-box">
<path stroke-width="0.3" fill="#000000" stroke="none" stroke-dasharray="none" d="M121.4784 197.99999999999997M126.3339936 194.55289919999998C126.4081248 194.55289919999998,126.5193216 194.55289919999998,126.5378544 194.55289919999998C126.5378544 194.55289919999998,126.55638719999999 194.55289919999998,126.55638719999999 194.55289919999998C126.55638719999999 194.55289919999998,126.66758399999999 194.55289919999998,126.76024799999999 194.55289919999998C128.4282 194.64556319999997,129.4104384 195.73899839999996,129.4104384 197.11042559999999C129.4104384 197.77760639999997,129.1880448 198.53745119999996,128.6320608 199.26023039999998C127.5756912 200.68725599999996,125.8521408 201.46563359999996,124.350984 201.46563359999996C123.1834176 201.46563359999996,122.1826464 201.00231359999998,121.7007936 200.05714079999998C121.55253119999999 199.68648479999996,121.4784 199.33436159999997,121.4784 198.94517279999997C121.4784 196.92509759999996,123.7394016 194.68262879999997,126.3339936 194.55289919999998">
</path>
</g>
<g class="vf-flag" pointer-events="bounding-box">
<path stroke-width="0.3" fill="#000000" stroke="none" stroke-dasharray="none" d="M128.6604384 172.89999999999998M128.2156512 175.88378079999998L128.2156512 172.992664L128.2897824 172.992664C128.4936432 172.992664,128.6233728 173.12239359999998,128.6604384 173.34478719999998C129.0496272 175.19806719999997,130.2171936 177.21814239999998,131.8295472 178.73783199999997C133.6272288 180.42431679999999,134.535336 182.74091679999998,134.535336 185.13164799999998C134.535336 187.39264959999997,133.7384256 189.74631519999997,132.126072 191.69225919999997C131.84808 192.06291519999996,131.8295472 192.06291519999996,131.6442192 192.06291519999996C131.4218256 192.06291519999996,131.2735632 191.89611999999997,131.2735632 191.67372639999996C131.2735632 191.50693119999997,131.29209600000002 191.4698656,131.477424 191.2660048C132.88591680000002 189.56098719999997,133.5901632 187.5038464,133.5901632 185.5393696C133.5901632 183.7972864,133.0341792 182.12933439999998,131.88514560000002 180.86910399999996C131.1808992 180.09072639999997,129.8836032 179.34941439999997,128.234184 178.77489759999997C128.234184 178.75636479999997,128.2156512 178.18184799999997,128.2156512 175.88378079999998">
</path>
</g>
</g>
<g class="vf-modifiers">
</g>
</g>
<path stroke-width="1" fill="none" stroke="#000000" stroke-dasharray="none" d="M122.4784 189.74999999999997L135.4784 180.74999999999997Z">
</path>
</g>
</g>
<g class="vf-stavenote" id="vf-auto52560">
<g class="vf-note" pointer-events="bounding-box">
<g class="vf-notehead" pointer-events="bounding-box">
<path stroke-width="0.3" fill="#000000" stroke="none" stroke-dasharray="none" d="M195.7817184 197.99999999999997M203.13867839999997 192.77711999999997C203.2509984 192.77711999999997,203.4194784 192.77711999999997,203.4475584 192.77711999999997C203.4475584 192.77711999999997,203.47563839999998 192.77711999999997,203.47563839999998 192.77711999999997C203.47563839999998 192.77711999999997,203.6441184 192.77711999999997,203.7845184 192.77711999999997C206.3117184 192.91751999999997,207.79995839999998 194.57423999999997,207.79995839999998 196.65215999999998C207.79995839999998 197.66303999999997,207.4629984 198.81431999999998,206.62059839999998 199.90943999999996C205.02003839999998 202.07159999999996,202.4085984 203.25095999999996,200.13411839999998 203.25095999999996C198.3650784 203.25095999999996,196.84875839999998 202.54895999999997,196.1186784 201.11687999999998C195.8940384 200.55527999999998,195.7817184 200.02175999999997,195.7817184 199.43207999999998C195.7817184 196.37135999999998,199.20747839999999 192.97367999999997,203.13867839999997 192.77711999999997">
</path>
</g>
</g>
<g class="vf-modifiers">
</g>
</g>
<g class="vf-stavenote" id="vf-auto52570">
<g class="vf-note" pointer-events="bounding-box">
<g class="vf-notehead" pointer-events="bounding-box">
<path stroke-width="0.3" fill="#000000" stroke="none" stroke-dasharray="none" d="M229.01045919999999 197.99999999999997M236.36741919999997 192.77711999999997C236.47973919999998 192.77711999999997,236.64821919999997 192.77711999999997,236.6762992 192.77711999999997C236.6762992 192.77711999999997,236.70437919999998 192.77711999999997,236.70437919999998 192.77711999999997C236.70437919999998 192.77711999999997,236.8728592 192.77711999999997,237.0132592 192.77711999999997C239.5404592 192.91751999999997,241.02869919999998 194.57423999999997,241.02869919999998 196.65215999999998C241.02869919999998 197.66303999999997,240.69173919999997 198.81431999999998,239.84933919999997 199.90943999999996C238.24877919999997 202.07159999999996,235.63733919999999 203.25095999999996,233.36285919999997 203.25095999999996C231.59381919999998 203.25095999999996,230.07749919999998 202.54895999999997,229.3474192 201.11687999999998C229.1227792 200.55527999999998,229.01045919999999 200.02175999999997,229.01045919999999 199.43207999999998C229.01045919999999 196.37135999999998,232.43621919999998 192.97367999999997,236.36741919999997 192.77711999999997">
</path>
</g>
</g>
<g class="vf-modifiers">
</g>
</g>
<g class="vf-stavenote" id="vf-auto52580">
<g class="vf-note" pointer-events="bounding-box">
<g class="vf-notehead" pointer-events="bounding-box">
<path stroke-width="0.3" fill="#000000" stroke="none" stroke-dasharray="none" d="M288.1032768 197.99999999999997M295.4602368 192.77711999999997C295.57255680000003 192.77711999999997,295.7410368 192.77711999999997,295.7691168 192.77711999999997C295.7691168 192.77711999999997,295.7971968 192.77711999999997,295.7971968 192.77711999999997C295.7971968 192.77711999999997,295.9656768 192.77711999999997,296.1060768 192.77711999999997C298.6332768 192.91751999999997,300.1215168 194.57423999999997,300.1215168 196.65215999999998C300.1215168 197.66303999999997,299.7845568 198.81431999999998,298.9421568 199.90943999999996C297.3415968 202.07159999999996,294.73015680000003 203.25095999999996,292.4556768 203.25095999999996C290.68663680000003 203.25095999999996,289.1703168 202.54895999999997,288.4402368 201.11687999999998C288.2155968 200.55527999999998,288.1032768 200.02175999999997,288.1032768 199.43207999999998C288.1032768 196.37135999999998,291.52903680000003 192.97367999999997,295.4602368 192.77711999999997">
</path>
</g>
</g>
<g class="vf-modifiers">
<g class="vf-stavenote" id="vf-auto52590">
<g class="vf-note" pointer-events="bounding-box">
<g class="vf-stem" pointer-events="bounding-box">
<path stroke-width="1.5" fill="none" stroke="#000000" stroke-dasharray="none" d="M269.4212384 197.99999999999997L269.4212384 174.89999999999998">
</path>
</g>
<g class="vf-notehead" pointer-events="bounding-box">
<path stroke-width="0.3" fill="#000000" stroke="none" stroke-dasharray="none" d="M262.2392 197.99999999999997M267.0947936 194.55289919999998C267.16892479999996 194.55289919999998,267.2801216 194.55289919999998,267.2986544 194.55289919999998C267.2986544 194.55289919999998,267.3171872 194.55289919999998,267.3171872 194.55289919999998C267.3171872 194.55289919999998,267.428384 194.55289919999998,267.521048 194.55289919999998C269.18899999999996 194.64556319999997,270.1712384 195.73899839999996,270.1712384 197.11042559999999C270.1712384 197.77760639999997,269.94884479999996 198.53745119999996,269.3928608 199.26023039999998C268.33649119999995 200.68725599999996,266.6129408 201.46563359999996,265.111784 201.46563359999996C263.9442176 201.46563359999996,262.94344639999997 201.00231359999998,262.46159359999996 200.05714079999998C262.3133312 199.68648479999996,262.2392 199.33436159999997,262.2392 198.94517279999997C262.2392 196.92509759999996,264.50020159999997 194.68262879999997,267.0947936 194.55289919999998">
</path>
</g>
<g class="vf-flag" pointer-events="bounding-box">
<path stroke-width="0.3" fill="#000000" stroke="none" stroke-dasharray="none" d="M269.4212384 172.89999999999998M268.9764512 175.88378079999998L268.9764512 172.992664L269.0505824 172.992664C269.25444319999997 172.992664,269.3841728 173.12239359999998,269.4212384 173.34478719999998C269.8104272 175.19806719999997,270.9779936 177.21814239999998,272.5903472 178.73783199999997C274.3880288 180.42431679999999,275.296136 182.74091679999998,275.296136 185.13164799999998C275.296136 187.39264959999997,274.4992256 189.74631519999997,272.886872 191.69225919999997C272.60888 192.06291519999996,272.5903472 192.06291519999996,272.40501919999997 192.06291519999996C272.1826256 192.06291519999996,272.0343632 191.89611999999997,272.0343632 191.67372639999996C272.0343632 191.50693119999997,272.052896 191.4698656,272.238224 191.2660048C273.6467168 189.56098719999997,274.35096319999997 187.5038464,274.35096319999997 185.5393696C274.35096319999997 183.7972864,273.7949792 182.12933439999998,272.6459456 180.86910399999996C271.9416992 180.09072639999997,270.6444032 179.34941439999997,268.994984 178.77489759999997C268.994984 178.75636479999997,268.9764512 178.18184799999997,268.9764512 175.88378079999998">
</path>
</g>
</g>
<g class="vf-modifiers">
</g>
</g>
<path stroke-width="1" fill="none" stroke="#000000" stroke-dasharray="none" d="M263.2392 189.74999999999997L276.2392 180.74999999999997Z">
</path>
</g>
</g>
<g class="vf-stavenote" id="vf-auto52604">
<g class="vf-note" pointer-events="bounding-box">
<g class="vf-notehead" pointer-events="bounding-box">
<path stroke-width="0.3" fill="#000000" stroke="none" stroke-dasharray="none" d="M336.54251839999995 197.99999999999997M343.89947839999996 192.77711999999997C344.0117984 192.77711999999997,344.18027839999996 192.77711999999997,344.20835839999995 192.77711999999997C344.20835839999995 192.77711999999997,344.23643839999994 192.77711999999997,344.23643839999994 192.77711999999997C344.23643839999994 192.77711999999997,344.40491839999993 192.77711999999997,344.5453183999999 192.77711999999997C347.0725183999999 192.91751999999997,348.56075839999994 194.57423999999997,348.56075839999994 196.65215999999998C348.56075839999994 197.66303999999997,348.22379839999996 198.81431999999998,347.38139839999997 199.90943999999996C345.78083839999994 202.07159999999996,343.1693984 203.25095999999996,340.89491839999994 203.25095999999996C339.1258784 203.25095999999996,337.60955839999997 202.54895999999997,336.8794783999999 201.11687999999998C336.65483839999996 200.55527999999998,336.54251839999995 200.02175999999997,336.54251839999995 199.43207999999998C336.54251839999995 196.37135999999998,339.9682784 192.97367999999997,343.89947839999996 192.77711999999997">
</path>
</g>
</g>
<g class="vf-modifiers">
</g>
</g>
<g class="vf-stavenote" id="vf-auto52614">
<g class="vf-note" pointer-events="bounding-box">
<g class="vf-notehead" pointer-events="bounding-box">
<path stroke-width="0.3" fill="#000000" stroke="none" stroke-dasharray="none" d="M369.7712592 197.99999999999997M377.1282192 192.77711999999997C377.2405392 192.77711999999997,377.4090192 192.77711999999997,377.4370992 192.77711999999997C377.4370992 192.77711999999997,377.46517919999997 192.77711999999997,377.46517919999997 192.77711999999997C377.46517919999997 192.77711999999997,377.63365919999995 192.77711999999997,377.77405919999995 192.77711999999997C380.3012592 192.91751999999997,381.78949919999997 194.57423999999997,381.78949919999997 196.65215999999998C381.78949919999997 197.66303999999997,381.4525392 198.81431999999998,380.6101392 199.90943999999996C379.00957919999996 202.07159999999996,376.39813919999995 203.25095999999996,374.12365919999996 203.25095999999996C372.3546192 203.25095999999996,370.8382992 202.54895999999997,370.10821919999995 201.11687999999998C369.8835792 200.55527999999998,369.7712592 200.02175999999997,369.7712592 199.43207999999998C369.7712592 196.37135999999998,373.1970192 192.97367999999997,377.1282192 192.77711999999997">
</path>
</g>
</g>
<g class="vf-modifiers">
</g>
</g>
<path stroke-width="1.5" fill="none" stroke="#000000" stroke-dasharray="none" d="M158.61071679999998 197.99999999999997L158.61071679999998 163.74999999999997">
</path>
<path stroke-width="1.5" fill="none" stroke="#000000" stroke-dasharray="none" d="M207.04995839999998 197.99999999999997L207.04995839999998 163.74999999999997">
</path>
<path stroke-width="1.5" fill="none" stroke="#000000" stroke-dasharray="none" d="M240.27869919999998 197.99999999999997L240.27869919999998 163.74999999999997">
</path>
<path stroke-width="0.3" fill="#000000" stroke="none" stroke-dasharray="none" d="M157.86071679999998 162.99999999999997L157.86071679999998 167.99999999999997L240.52869919999998 167.99999999999997L240.52869919999998 162.99999999999997Z">
</path>
<path stroke-width="0.3" fill="#000000" stroke="none" stroke-dasharray="none" d="M206.29995839999998 170.49999999999997L206.29995839999998 175.49999999999997L240.52869919999998 175.49999999999997L240.52869919999998 170.49999999999997Z">
</path>
<path stroke-width="1.5" fill="none" stroke="#000000" stroke-dasharray="none" d="M299.3715168 197.99999999999997L299.3715168 163.74999999999997">
</path>
<path stroke-width="1.5" fill="none" stroke="#000000" stroke-dasharray="none" d="M347.81075839999994 197.99999999999997L347.81075839999994 163.74999999999997">
</path>
<path stroke-width="1.5" fill="none" stroke="#000000" stroke-dasharray="none" d="M381.03949919999997 197.99999999999997L381.03949919999997 163.74999999999997">
</path>
<path stroke-width="0.3" fill="#000000" stroke="none" stroke-dasharray="none" d="M298.6215168 162.99999999999997L298.6215168 167.99999999999997L381.28949919999997 167.99999999999997L381.28949919999997 162.99999999999997Z">
</path>
<path stroke-width="0.3" fill="#000000" stroke="none" stroke-dasharray="none" d="M347.06075839999994 170.49999999999997L347.06075839999994 175.49999999999997L381.28949919999997 175.49999999999997L381.28949919999997 170.49999999999997Z">
</path>
<path stroke-width="1" fill="none" stroke="black" stroke-dasharray="none" d="M401.385136384 197.99999999999997L942.177009152 197.99999999999997">
</path>
<rect stroke-width="0.3" fill="black" stroke="black" stroke-dasharray="none" x="937.177009152" y="177.49999999999997" width="1" height="41">
</rect>
<rect stroke-width="0.3" fill="black" stroke="black" stroke-dasharray="none" x="940.177009152" y="177.49999999999997" width="3" height="41">
</rect>
<path stroke-width="0.3" fill="black" stroke="none" stroke-dasharray="none" d="M936.177009152 193.49999999999997 A2 2 0 0 0 932.177009152 193.49999999999997M932.177009152 193.49999999999997 A2 2 0 0 0 936.177009152 193.49999999999997">
</path>
<path stroke-width="0.3" fill="black" stroke="none" stroke-dasharray="none" d="M936.177009152 203.49999999999997 A2 2 0 0 0 932.177009152 203.49999999999997M932.177009152 203.49999999999997 A2 2 0 0 0 936.177009152 203.49999999999997">
</path>
<path stroke-width="0.3" fill="black" stroke="none" stroke-dasharray="none" d="M406.385136384 197.99999999999997M411.396336384 179.65439999999998C411.42513638400004 179.62559999999996,411.828336384 179.62559999999996,413.066736384 179.62559999999996C413.441136384 179.62559999999996,413.84433638400003 179.62559999999996,414.362736384 179.62559999999996L417.271536384 179.62559999999996L417.357936384 179.71199999999996C417.50193638400003 179.79839999999996,417.588336384 179.94239999999996,417.588336384 180.05759999999998C417.588336384 180.23039999999997,417.50193638400003 180.34559999999996,417.386736384 180.46079999999998C417.357936384 180.54719999999998,417.098736384 180.77759999999998,416.925936384 181.03679999999997L415.39953638400004 182.79359999999997L413.441136384 185.01119999999997L412.40433638400003 186.19199999999998L410.849136384 187.97759999999997L408.804336384 190.31039999999996C408.458736384 190.74239999999998,408.08433638400004 191.08799999999997,408.08433638400004 191.08799999999997C408.08433638400004 191.08799999999997,408.08433638400004 191.08799999999997,408.08433638400004 191.08799999999997C408.08433638400004 191.14559999999997,408.343536384 191.14559999999997,410.733936384 191.14559999999997L413.35473638400003 191.14559999999997L413.35473638400003 189.27359999999996C413.35473638400003 187.37279999999998,413.35473638400003 187.34399999999997,413.383536384 187.31519999999998C413.441136384 187.22879999999998,413.700336384 186.91199999999998,414.708336384 185.73119999999997L415.11153638400003 185.29919999999998L415.514736384 184.86719999999997L416.119536384 184.08959999999996L416.753136384 183.42719999999997L417.069936384 183.02399999999997C417.18513638400003 182.85119999999998,417.357936384 182.82239999999996,417.50193638400003 182.82239999999996C417.674736384 182.82239999999996,417.81873638400003 182.90879999999999,417.905136384 183.05279999999996C417.93393638400005 183.13919999999996,417.93393638400005 183.19679999999997,417.93393638400005 185.32799999999997C417.93393638400005 185.81759999999997,417.93393638400005 186.42239999999998,417.93393638400005 187.14239999999998L417.93393638400005 191.14559999999997L418.653936384 191.14559999999997C419.316336384 191.14559999999997,419.345136384 191.14559999999997,419.431536384 191.17439999999996C419.661936384 191.26079999999996,419.777136384 191.49119999999996,419.777136384 191.75039999999998C419.777136384 191.89439999999996,419.748336384 192.06719999999999,419.633136384 192.18239999999997C419.460336384 192.32639999999998,419.431536384 192.32639999999998,418.653936384 192.32639999999998L417.93393638400005 192.32639999999998L417.93393638400005 192.81599999999997C417.96273638400004 194.28479999999996,418.250736384 194.86079999999998,419.37393638400005 195.46559999999997C419.777136384 195.66719999999998,419.86353638400004 195.72479999999996,419.86353638400004 196.01279999999997C419.86353638400004 196.21439999999998,419.805936384 196.30079999999998,419.661936384 196.41599999999997L419.57553638400003 196.44479999999996L415.629936384 196.44479999999996L411.713136384 196.44479999999996L411.626736384 196.41599999999997C411.45393638400003 196.30079999999998,411.42513638400004 196.21439999999998,411.42513638400004 196.01279999999997C411.42513638400004 195.72479999999996,411.45393638400003 195.66719999999998,411.88593638400005 195.46559999999997C413.00913638400004 194.86079999999998,413.297136384 194.28479999999996,413.297136384 192.81599999999997L413.297136384 192.32639999999998L409.98513638400004 192.32639999999998C409.38033638400003 192.38399999999996,408.89073638400004 192.38399999999996,408.487536384 192.38399999999996C406.67313638400003 192.38399999999996,406.64433638400004 192.32639999999998,406.615536384 192.32639999999998C406.442736384 192.26879999999997,406.385136384 192.09599999999998,406.385136384 191.89439999999996C406.385136384 191.89439999999996,406.385136384 191.89439999999996,406.385136384 191.89439999999996C406.385136384 191.69279999999998,406.385136384 191.69279999999998,406.96113638400004 191.0304C409.38033638400003 188.09279999999998,411.079536384 183.83039999999997,411.079536384 180.43199999999996C411.079536384 179.91359999999997,411.165936384 179.74079999999998,411.396336384 179.65439999999998M413.124336384 198.02879999999996L413.153136384 198.02879999999996L413.066736384 198.02879999999996L413.124336384 198.02879999999996M413.124336384 178.61759999999998L413.153136384 178.61759999999998L413.066736384 178.61759999999998L413.124336384 178.61759999999998">
</path>
<path stroke-width="0.3" fill="black" stroke="none" stroke-dasharray="none" d="M406.385136384 217.99999999999997M411.396336384 199.65439999999998C411.42513638400004 199.62559999999996,411.828336384 199.62559999999996,413.066736384 199.62559999999996C413.441136384 199.62559999999996,413.84433638400003 199.62559999999996,414.362736384 199.62559999999996L417.271536384 199.62559999999996L417.357936384 199.71199999999996C417.50193638400003 199.79839999999996,417.588336384 199.94239999999996,417.588336384 200.05759999999998C417.588336384 200.23039999999997,417.50193638400003 200.34559999999996,417.386736384 200.46079999999998C417.357936384 200.54719999999998,417.098736384 200.77759999999998,416.925936384 201.03679999999997L415.39953638400004 202.79359999999997L413.441136384 205.01119999999997L412.40433638400003 206.19199999999998L410.849136384 207.97759999999997L408.804336384 210.31039999999996C408.458736384 210.74239999999998,408.08433638400004 211.08799999999997,408.08433638400004 211.08799999999997C408.08433638400004 211.08799999999997,408.08433638400004 211.08799999999997,408.08433638400004 211.08799999999997C408.08433638400004 211.14559999999997,408.343536384 211.14559999999997,410.733936384 211.14559999999997L413.35473638400003 211.14559999999997L413.35473638400003 209.27359999999996C413.35473638400003 207.37279999999998,413.35473638400003 207.34399999999997,413.383536384 207.31519999999998C413.441136384 207.22879999999998,413.700336384 206.91199999999998,414.708336384 205.73119999999997L415.11153638400003 205.29919999999998L415.514736384 204.86719999999997L416.119536384 204.08959999999996L416.753136384 203.42719999999997L417.069936384 203.02399999999997C417.18513638400003 202.85119999999998,417.357936384 202.82239999999996,417.50193638400003 202.82239999999996C417.674736384 202.82239999999996,417.81873638400003 202.90879999999999,417.905136384 203.05279999999996C417.93393638400005 203.13919999999996,417.93393638400005 203.19679999999997,417.93393638400005 205.32799999999997C417.93393638400005 205.81759999999997,417.93393638400005 206.42239999999998,417.93393638400005 207.14239999999998L417.93393638400005 211.14559999999997L418.653936384 211.14559999999997C419.316336384 211.14559999999997,419.345136384 211.14559999999997,419.431536384 211.17439999999996C419.661936384 211.26079999999996,419.777136384 211.49119999999996,419.777136384 211.75039999999998C419.777136384 211.89439999999996,419.748336384 212.06719999999999,419.633136384 212.18239999999997C419.460336384 212.32639999999998,419.431536384 212.32639999999998,418.653936384 212.32639999999998L417.93393638400005 212.32639999999998L417.93393638400005 212.81599999999997C417.96273638400004 214.28479999999996,418.250736384 214.86079999999998,419.37393638400005 215.46559999999997C419.777136384 215.66719999999998,419.86353638400004 215.72479999999996,419.86353638400004 216.01279999999997C419.86353638400004 216.21439999999998,419.805936384 216.30079999999998,419.661936384 216.41599999999997L419.57553638400003 216.44479999999996L415.629936384 216.44479999999996L411.713136384 216.44479999999996L411.626736384 216.41599999999997C411.45393638400003 216.30079999999998,411.42513638400004 216.21439999999998,411.42513638400004 216.01279999999997C411.42513638400004 215.72479999999996,411.45393638400003 215.66719999999998,411.88593638400005 215.46559999999997C413.00913638400004 214.86079999999998,413.297136384 214.28479999999996,413.297136384 212.81599999999997L413.297136384 212.32639999999998L409.98513638400004 212.32639999999998C409.38033638400003 212.38399999999996,408.89073638400004 212.38399999999996,408.487536384 212.38399999999996C406.67313638400003 212.38399999999996,406.64433638400004 212.32639999999998,406.615536384 212.32639999999998C406.442736384 212.26879999999997,406.385136384 212.09599999999998,406.385136384 211.89439999999996C406.385136384 211.89439999999996,406.385136384 211.89439999999996,406.385136384 211.89439999999996C406.385136384 211.69279999999998,406.385136384 211.69279999999998,406.96113638400004 211.0304C409.38033638400003 208.09279999999998,411.079536384 203.83039999999997,411.079536384 200.43199999999996C411.079536384 199.91359999999997,411.165936384 199.74079999999998,411.396336384 199.65439999999998M413.124336384 218.02879999999996L413.153136384 218.02879999999996L413.066736384 218.02879999999996L413.124336384 218.02879999999996M413.124336384 198.61759999999998L413.153136384 198.61759999999998L413.066736384 198.61759999999998L413.124336384 198.61759999999998">
</path>
<g class="vf-stavenote" id="vf-auto52627">
<g class="vf-note" pointer-events="bounding-box">
<g class="vf-notehead" pointer-events="bounding-box">
<path stroke-width="0.3" fill="#000000" stroke="none" stroke-dasharray="none" d="M457.72761318400006 197.99999999999997M465.0845731840001 192.77711999999997C465.1968931840001 192.77711999999997,465.3653731840001 192.77711999999997,465.39345318400007 192.77711999999997C465.39345318400007 192.77711999999997,465.42153318400005 192.77711999999997,465.42153318400005 192.77711999999997C465.42153318400005 192.77711999999997,465.59001318400004 192.77711999999997,465.73041318400004 192.77711999999997C468.2576131840001 192.91751999999997,469.74585318400005 194.57423999999997,469.74585318400005 196.65215999999998C469.74585318400005 197.66303999999997,469.4088931840001 198.81431999999998,468.5664931840001 199.90943999999996C466.96593318400005 202.07159999999996,464.35449318400003 203.25095999999996,462.08001318400005 203.25095999999996C460.3109731840001 203.25095999999996,458.7946531840001 202.54895999999997,458.06457318400004 201.11687999999998C457.8399331840001 200.55527999999998,457.72761318400006 200.02175999999997,457.72761318400006 199.43207999999998C457.72761318400006 196.37135999999998,461.1533731840001 192.97367999999997,465.0845731840001 192.77711999999997">
</path>
</g>
</g>
<g class="vf-modifiers">
<g class="vf-stavenote" id="vf-auto52637">
<g class="vf-note" pointer-events="bounding-box">
<g class="vf-stem" pointer-events="bounding-box">
<path stroke-width="1.5" fill="none" stroke="#000000" stroke-dasharray="none" d="M439.04557478400005 197.99999999999997L439.04557478400005 174.89999999999998">
</path>
</g>
<g class="vf-notehead" pointer-events="bounding-box">
<path stroke-width="0.3" fill="#000000" stroke="none" stroke-dasharray="none" d="M431.86353638400004 197.99999999999997M436.71912998400006 194.55289919999998C436.793261184 194.55289919999998,436.90445798400003 194.55289919999998,436.92299078400004 194.55289919999998C436.92299078400004 194.55289919999998,436.94152358400004 194.55289919999998,436.94152358400004 194.55289919999998C436.94152358400004 194.55289919999998,437.05272038400005 194.55289919999998,437.14538438400007 194.55289919999998C438.813336384 194.64556319999997,439.79557478400005 195.73899839999996,439.79557478400005 197.11042559999999C439.79557478400005 197.77760639999997,439.573181184 198.53745119999996,439.01719718400005 199.26023039999998C437.96082758400007 200.68725599999996,436.23727718400005 201.46563359999996,434.73612038400006 201.46563359999996C433.56855398400006 201.46563359999996,432.56778278400003 201.00231359999998,432.085929984 200.05714079999998C431.93766758400005 199.68648479999996,431.86353638400004 199.33436159999997,431.86353638400004 198.94517279999997C431.86353638400004 196.92509759999996,434.124537984 194.68262879999997,436.71912998400006 194.55289919999998">
</path>
</g>
<g class="vf-flag" pointer-events="bounding-box">
<path stroke-width="0.3" fill="#000000" stroke="none" stroke-dasharray="none" d="M439.04557478400005 172.89999999999998M438.60078758400005 175.88378079999998L438.60078758400005 172.992664L438.67491878400006 172.992664C438.87877958400003 172.992664,439.00850918400005 173.12239359999998,439.04557478400005 173.34478719999998C439.43476358400005 175.19806719999997,440.60232998400005 177.21814239999998,442.21468358400006 178.73783199999997C444.01236518400003 180.42431679999999,444.92047238400005 182.74091679999998,444.92047238400005 185.13164799999998C444.92047238400005 187.39264959999997,444.12356198400005 189.74631519999997,442.51120838400004 191.69225919999997C442.23321638400006 192.06291519999996,442.21468358400006 192.06291519999996,442.02935558400003 192.06291519999996C441.80696198400005 192.06291519999996,441.65869958400003 191.89611999999997,441.65869958400003 191.67372639999996C441.65869958400003 191.50693119999997,441.67723238400004 191.4698656,441.86256038400006 191.2660048C443.27105318400004 189.56098719999997,443.975299584 187.5038464,443.975299584 185.5393696C443.975299584 183.7972864,443.41931558400006 182.12933439999998,442.27028198400006 180.86910399999996C441.5660355840001 180.09072639999997,440.26873958400006 179.34941439999997,438.61932038400005 178.77489759999997C438.61932038400005 178.75636479999997,438.60078758400005 178.18184799999997,438.60078758400005 175.88378079999998">
</path>
</g>
</g>
<g class="vf-modifiers">
</g>
</g>
<path stroke-width="1" fill="none" stroke="#000000" stroke-dasharray="none" d="M432.86353638400004 189.74999999999997L445.86353638400004 180.74999999999997Z">
</path>
</g>
</g>
<g class="vf-stavenote" id="vf-auto52651">
<g class="vf-note" pointer-events="bounding-box">
<g class="vf-notehead" pointer-events="bounding-box">
<path stroke-width="0.3" fill="#000000" stroke="none" stroke-dasharray="none" d="M499.72665478400006 197.99999999999997M507.0836147840001 192.77711999999997C507.1959347840001 192.77711999999997,507.3644147840001 192.77711999999997,507.39249478400006 192.77711999999997C507.39249478400006 192.77711999999997,507.42057478400005 192.77711999999997,507.42057478400005 192.77711999999997C507.42057478400005 192.77711999999997,507.58905478400004 192.77711999999997,507.72945478400004 192.77711999999997C510.25665478400003 192.91751999999997,511.74489478400005 194.57423999999997,511.74489478400005 196.65215999999998C511.74489478400005 197.66303999999997,511.4079347840001 198.81431999999998,510.5655347840001 199.90943999999996C508.96497478400005 202.07159999999996,506.3535347840001 203.25095999999996,504.07905478400005 203.25095999999996C502.3100147840001 203.25095999999996,500.7936947840001 202.54895999999997,500.06361478400004 201.11687999999998C499.8389747840001 200.55527999999998,499.72665478400006 200.02175999999997,499.72665478400006 199.43207999999998C499.72665478400006 196.37135999999998,503.1524147840001 192.97367999999997,507.0836147840001 192.77711999999997">
</path>
</g>
</g>
<g class="vf-modifiers">
</g>
</g>
<g class="vf-stavenote" id="vf-auto52661">
<g class="vf-note" pointer-events="bounding-box">
<g class="vf-notehead" pointer-events="bounding-box">
<path stroke-width="0.3" fill="#000000" stroke="none" stroke-dasharray="none" d="M529.735295584 197.99999999999997M537.092255584 192.77711999999997C537.204575584 192.77711999999997,537.373055584 192.77711999999997,537.401135584 192.77711999999997C537.401135584 192.77711999999997,537.4292155840001 192.77711999999997,537.4292155840001 192.77711999999997C537.4292155840001 192.77711999999997,537.597695584 192.77711999999997,537.738095584 192.77711999999997C540.265295584 192.91751999999997,541.753535584 194.57423999999997,541.753535584 196.65215999999998C541.753535584 197.66303999999997,541.416575584 198.81431999999998,540.574175584 199.90943999999996C538.9736155840001 202.07159999999996,536.362175584 203.25095999999996,534.087695584 203.25095999999996C532.318655584 203.25095999999996,530.802335584 202.54895999999997,530.072255584 201.11687999999998C529.847615584 200.55527999999998,529.735295584 200.02175999999997,529.735295584 199.43207999999998C529.735295584 196.37135999999998,533.161055584 192.97367999999997,537.092255584 192.77711999999997">
</path>
</g>
</g>
<g class="vf-modifiers">
</g>
</g>
<g class="vf-stavenote" id="vf-auto52671">
<g class="vf-note" pointer-events="bounding-box">
<g class="vf-notehead" pointer-events="bounding-box">
<path stroke-width="0.3" fill="#000000" stroke="none" stroke-dasharray="none" d="M585.6080131840001 197.99999999999997M592.9649731840001 192.77711999999997C593.0772931840002 192.77711999999997,593.2457731840001 192.77711999999997,593.2738531840001 192.77711999999997C593.2738531840001 192.77711999999997,593.3019331840002 192.77711999999997,593.3019331840002 192.77711999999997C593.3019331840002 192.77711999999997,593.4704131840001 192.77711999999997,593.6108131840001 192.77711999999997C596.1380131840001 192.91751999999997,597.6262531840001 194.57423999999997,597.6262531840001 196.65215999999998C597.6262531840001 197.66303999999997,597.2892931840001 198.81431999999998,596.4468931840001 199.90943999999996C594.8463331840002 202.07159999999996,592.2348931840002 203.25095999999996,589.9604131840001 203.25095999999996C588.1913731840001 203.25095999999996,586.6750531840001 202.54895999999997,585.9449731840001 201.11687999999998C585.7203331840001 200.55527999999998,585.6080131840001 200.02175999999997,585.6080131840001 199.43207999999998C585.6080131840001 196.37135999999998,589.0337731840001 192.97367999999997,592.9649731840001 192.77711999999997">
</path>
</g>
</g>
<g class="vf-modifiers">
<g class="vf-stavenote" id="vf-auto52681">
<g class="vf-note" pointer-events="bounding-box">
<g class="vf-stem" pointer-events="bounding-box">
<path stroke-width="1.5" fill="none" stroke="#000000" stroke-dasharray="none" d="M566.9259747840001 197.99999999999997L566.9259747840001 174.89999999999998">
</path>
</g>
<g class="vf-notehead" pointer-events="bounding-box">
<path stroke-width="0.3" fill="#000000" stroke="none" stroke-dasharray="none" d="M559.7439363840001 197.99999999999997M564.5995299840001 194.55289919999998C564.6736611840001 194.55289919999998,564.7848579840002 194.55289919999998,564.8033907840002 194.55289919999998C564.8033907840002 194.55289919999998,564.8219235840002 194.55289919999998,564.8219235840002 194.55289919999998C564.8219235840002 194.55289919999998,564.9331203840001 194.55289919999998,565.0257843840001 194.55289919999998C566.6937363840001 194.64556319999997,567.6759747840001 195.73899839999996,567.6759747840001 197.11042559999999C567.6759747840001 197.77760639999997,567.4535811840001 198.53745119999996,566.8975971840001 199.26023039999998C565.8412275840001 200.68725599999996,564.1176771840001 201.46563359999996,562.6165203840001 201.46563359999996C561.4489539840001 201.46563359999996,560.4481827840001 201.00231359999998,559.9663299840001 200.05714079999998C559.8180675840001 199.68648479999996,559.7439363840001 199.33436159999997,559.7439363840001 198.94517279999997C559.7439363840001 196.92509759999996,562.0049379840001 194.68262879999997,564.5995299840001 194.55289919999998">
</path>
</g>
<g class="vf-flag" pointer-events="bounding-box">
<path stroke-width="0.3" fill="#000000" stroke="none" stroke-dasharray="none" d="M566.9259747840001 172.89999999999998M566.4811875840002 175.88378079999998L566.4811875840002 172.992664L566.5553187840001 172.992664C566.7591795840001 172.992664,566.8889091840001 173.12239359999998,566.9259747840001 173.34478719999998C567.3151635840002 175.19806719999997,568.4827299840001 177.21814239999998,570.0950835840001 178.73783199999997C571.8927651840002 180.42431679999999,572.8008723840002 182.74091679999998,572.8008723840002 185.13164799999998C572.8008723840002 187.39264959999997,572.0039619840002 189.74631519999997,570.3916083840002 191.69225919999997C570.1136163840001 192.06291519999996,570.0950835840001 192.06291519999996,569.9097555840001 192.06291519999996C569.6873619840001 192.06291519999996,569.5390995840002 191.89611999999997,569.5390995840002 191.67372639999996C569.5390995840002 191.50693119999997,569.5576323840002 191.4698656,569.7429603840001 191.2660048C571.1514531840002 189.56098719999997,571.8556995840001 187.5038464,571.8556995840001 185.5393696C571.8556995840001 183.7972864,571.2997155840001 182.12933439999998,570.1506819840001 180.86910399999996C569.4464355840001 180.09072639999997,568.1491395840001 179.34941439999997,566.4997203840002 178.77489759999997C566.4997203840002 178.75636479999997,566.4811875840002 178.18184799999997,566.4811875840002 175.88378079999998">
</path>
</g>
</g>
<g class="vf-modifiers">
</g>
</g>
<path stroke-width="1" fill="none" stroke="#000000" stroke-dasharray="none" d="M560.7439363840001 189.74999999999997L573.7439363840001 180.74999999999997Z">
</path>
</g>
</g>
<g class="vf-stavenote" id="vf-auto52695">
<g class="vf-note" pointer-events="bounding-box">
<g class="vf-notehead" pointer-events="bounding-box">
<path stroke-width="0.3" fill="#000000" stroke="none" stroke-dasharray="none" d="M627.6070547840001 197.99999999999997M634.964014784 192.77711999999997C635.0763347840001 192.77711999999997,635.244814784 192.77711999999997,635.2728947840001 192.77711999999997C635.2728947840001 192.77711999999997,635.3009747840001 192.77711999999997,635.3009747840001 192.77711999999997C635.3009747840001 192.77711999999997,635.469454784 192.77711999999997,635.609854784 192.77711999999997C638.137054784 192.91751999999997,639.6252947840001 194.57423999999997,639.6252947840001 196.65215999999998C639.6252947840001 197.66303999999997,639.2883347840001 198.81431999999998,638.4459347840001 199.90943999999996C636.8453747840001 202.07159999999996,634.2339347840001 203.25095999999996,631.9594547840001 203.25095999999996C630.190414784 203.25095999999996,628.6740947840001 202.54895999999997,627.944014784 201.11687999999998C627.719374784 200.55527999999998,627.6070547840001 200.02175999999997,627.6070547840001 199.43207999999998C627.6070547840001 196.37135999999998,631.032814784 192.97367999999997,634.964014784 192.77711999999997">
</path>
</g>
</g>
<g class="vf-modifiers">
</g>
</g>
<g class="vf-stavenote" id="vf-auto52705">
<g class="vf-note" pointer-events="bounding-box">
<g class="vf-notehead" pointer-events="bounding-box">
<path stroke-width="0.3" fill="#000000" stroke="none" stroke-dasharray="none" d="M657.615695584 197.99999999999997M664.972655584 192.77711999999997C665.0849755840001 192.77711999999997,665.253455584 192.77711999999997,665.281535584 192.77711999999997C665.281535584 192.77711999999997,665.3096155840001 192.77711999999997,665.3096155840001 192.77711999999997C665.3096155840001 192.77711999999997,665.478095584 192.77711999999997,665.618495584 192.77711999999997C668.145695584 192.91751999999997,669.633935584 194.57423999999997,669.633935584 196.65215999999998C669.633935584 197.66303999999997,669.296975584 198.81431999999998,668.454575584 199.90943999999996C666.8540155840001 202.07159999999996,664.2425755840001 203.25095999999996,661.968095584 203.25095999999996C660.199055584 203.25095999999996,658.682735584 202.54895999999997,657.952655584 201.11687999999998C657.728015584 200.55527999999998,657.615695584 200.02175999999997,657.615695584 199.43207999999998C657.615695584 196.37135999999998,661.041455584 192.97367999999997,664.972655584 192.77711999999997">
</path>
</g>
</g>
<g class="vf-modifiers">
</g>
</g>
<g class="vf-stavenote" id="vf-auto52715">
<g class="vf-note" pointer-events="bounding-box">
<g class="vf-notehead" pointer-events="bounding-box">
<path stroke-width="0.3" fill="#000000" stroke="none" stroke-dasharray="none" d="M713.4884131840001 197.99999999999997M720.8453731840001 192.77711999999997C720.9576931840002 192.77711999999997,721.1261731840001 192.77711999999997,721.1542531840001 192.77711999999997C721.1542531840001 192.77711999999997,721.1823331840002 192.77711999999997,721.1823331840002 192.77711999999997C721.1823331840002 192.77711999999997,721.3508131840001 192.77711999999997,721.4912131840001 192.77711999999997C724.0184131840001 192.91751999999997,725.5066531840001 194.57423999999997,725.5066531840001 196.65215999999998C725.5066531840001 197.66303999999997,725.1696931840002 198.81431999999998,724.3272931840002 199.90943999999996C722.7267331840002 202.07159999999996,720.1152931840002 203.25095999999996,717.8408131840001 203.25095999999996C716.0717731840001 203.25095999999996,714.5554531840002 202.54895999999997,713.8253731840001 201.11687999999998C713.6007331840001 200.55527999999998,713.4884131840001 200.02175999999997,713.4884131840001 199.43207999999998C713.4884131840001 196.37135999999998,716.9141731840001 192.97367999999997,720.8453731840001 192.77711999999997">
</path>
</g>
</g>
<g class="vf-modifiers">
<g class="vf-stavenote" id="vf-auto52725">
<g class="vf-note" pointer-events="bounding-box">
<g class="vf-stem" pointer-events="bounding-box">
<path stroke-width="1.5" fill="none" stroke="#000000" stroke-dasharray="none" d="M694.8063747840001 197.99999999999997L694.8063747840001 174.89999999999998">
</path>
</g>
<g class="vf-notehead" pointer-events="bounding-box">
<path stroke-width="0.3" fill="#000000" stroke="none" stroke-dasharray="none" d="M687.6243363840001 197.99999999999997M692.4799299840001 194.55289919999998C692.5540611840001 194.55289919999998,692.6652579840002 194.55289919999998,692.6837907840002 194.55289919999998C692.6837907840002 194.55289919999998,692.7023235840002 194.55289919999998,692.7023235840002 194.55289919999998C692.7023235840002 194.55289919999998,692.8135203840001 194.55289919999998,692.9061843840001 194.55289919999998C694.5741363840001 194.64556319999997,695.5563747840001 195.73899839999996,695.5563747840001 197.11042559999999C695.5563747840001 197.77760639999997,695.3339811840001 198.53745119999996,694.7779971840001 199.26023039999998C693.7216275840001 200.68725599999996,691.9980771840001 201.46563359999996,690.4969203840001 201.46563359999996C689.3293539840001 201.46563359999996,688.3285827840001 201.00231359999998,687.8467299840001 200.05714079999998C687.6984675840001 199.68648479999996,687.6243363840001 199.33436159999997,687.6243363840001 198.94517279999997C687.6243363840001 196.92509759999996,689.8853379840001 194.68262879999997,692.4799299840001 194.55289919999998">
</path>
</g>
<g class="vf-flag" pointer-events="bounding-box">
<path stroke-width="0.3" fill="#000000" stroke="none" stroke-dasharray="none" d="M694.8063747840001 172.89999999999998M694.3615875840002 175.88378079999998L694.3615875840002 172.992664L694.4357187840001 172.992664C694.6395795840001 172.992664,694.7693091840001 173.12239359999998,694.8063747840001 173.34478719999998C695.1955635840002 175.19806719999997,696.3631299840001 177.21814239999998,697.9754835840001 178.73783199999997C699.7731651840002 180.42431679999999,700.6812723840002 182.74091679999998,700.6812723840002 185.13164799999998C700.6812723840002 187.39264959999997,699.8843619840002 189.74631519999997,698.2720083840002 191.69225919999997C697.9940163840001 192.06291519999996,697.9754835840001 192.06291519999996,697.7901555840001 192.06291519999996C697.5677619840001 192.06291519999996,697.4194995840002 191.89611999999997,697.4194995840002 191.67372639999996C697.4194995840002 191.50693119999997,697.4380323840002 191.4698656,697.6233603840001 191.2660048C699.0318531840002 189.56098719999997,699.7360995840002 187.5038464,699.7360995840002 185.5393696C699.7360995840002 183.7972864,699.1801155840001 182.12933439999998,698.0310819840001 180.86910399999996C697.3268355840002 180.09072639999997,696.0295395840001 179.34941439999997,694.3801203840002 178.77489759999997C694.3801203840002 178.75636479999997,694.3615875840002 178.18184799999997,694.3615875840002 175.88378079999998">
</path>
</g>
</g>
<g class="vf-modifiers">
</g>
</g>
<path stroke-width="1" fill="none" stroke="#000000" stroke-dasharray="none" d="M688.6243363840001 189.74999999999997L701.6243363840001 180.74999999999997Z">
</path>
</g>
</g>
<g class="vf-stavenote" id="vf-auto52739">
<g class="vf-note" pointer-events="bounding-box">
<g class="vf-notehead" pointer-events="bounding-box">
<path stroke-width="0.3" fill="#000000" stroke="none" stroke-dasharray="none" d="M755.487454784 197.99999999999997M762.8444147839999 192.77711999999997C762.956734784 192.77711999999997,763.1252147839999 192.77711999999997,763.153294784 192.77711999999997C763.153294784 192.77711999999997,763.181374784 192.77711999999997,763.181374784 192.77711999999997C763.181374784 192.77711999999997,763.349854784 192.77711999999997,763.490254784 192.77711999999997C766.0174547839999 192.91751999999997,767.505694784 194.57423999999997,767.505694784 196.65215999999998C767.505694784 197.66303999999997,767.168734784 198.81431999999998,766.326334784 199.90943999999996C764.725774784 202.07159999999996,762.114334784 203.25095999999996,759.839854784 203.25095999999996C758.0708147839999 203.25095999999996,756.554494784 202.54895999999997,755.8244147839999 201.11687999999998C755.5997747839999 200.55527999999998,755.487454784 200.02175999999997,755.487454784 199.43207999999998C755.487454784 196.37135999999998,758.9132147839999 192.97367999999997,762.8444147839999 192.77711999999997">
</path>
</g>
</g>
<g class="vf-modifiers">
</g>
</g>
<g class="vf-stavenote" id="vf-auto52749">
<g class="vf-note" pointer-events="bounding-box">
<g class="vf-notehead" pointer-events="bounding-box">
<path stroke-width="0.3" fill="#000000" stroke="none" stroke-dasharray="none" d="M785.496095584 197.99999999999997M792.853055584 192.77711999999997C792.9653755840001 192.77711999999997,793.133855584 192.77711999999997,793.161935584 192.77711999999997C793.161935584 192.77711999999997,793.1900155840001 192.77711999999997,793.1900155840001 192.77711999999997C793.1900155840001 192.77711999999997,793.358495584 192.77711999999997,793.498895584 192.77711999999997C796.026095584 192.91751999999997,797.514335584 194.57423999999997,797.514335584 196.65215999999998C797.514335584 197.66303999999997,797.1773755840001 198.81431999999998,796.3349755840001 199.90943999999996C794.7344155840001 202.07159999999996,792.1229755840001 203.25095999999996,789.848495584 203.25095999999996C788.079455584 203.25095999999996,786.5631355840001 202.54895999999997,785.833055584 201.11687999999998C785.608415584 200.55527999999998,785.496095584 200.02175999999997,785.496095584 199.43207999999998C785.496095584 196.37135999999998,788.921855584 192.97367999999997,792.853055584 192.77711999999997">
</path>
</g>
</g>
<g class="vf-modifiers">
</g>
</g>
<g class="vf-stavenote" id="vf-auto52759">
<g class="vf-note" pointer-events="bounding-box">
<g class="vf-notehead" pointer-events="bounding-box">
<path stroke-width="0.3" fill="#000000" stroke="none" stroke-dasharray="none" d="M841.3688131840001 197.99999999999997M848.7257731840001 192.77711999999997C848.8380931840002 192.77711999999997,849.0065731840001 192.77711999999997,849.0346531840001 192.77711999999997C849.0346531840001 192.77711999999997,849.0627331840002 192.77711999999997,849.0627331840002 192.77711999999997C849.0627331840002 192.77711999999997,849.2312131840001 192.77711999999997,849.3716131840001 192.77711999999997C851.8988131840001 192.91751999999997,853.3870531840001 194.57423999999997,853.3870531840001 196.65215999999998C853.3870531840001 197.66303999999997,853.0500931840002 198.81431999999998,852.2076931840002 199.90943999999996C850.6071331840002 202.07159999999996,847.9956931840002 203.25095999999996,845.7212131840001 203.25095999999996C843.9521731840001 203.25095999999996,842.4358531840002 202.54895999999997,841.7057731840001 201.11687999999998C841.4811331840001 200.55527999999998,841.3688131840001 200.02175999999997,841.3688131840001 199.43207999999998C841.3688131840001 196.37135999999998,844.7945731840001 192.97367999999997,848.7257731840001 192.77711999999997">
</path>
</g>
</g>
<g class="vf-modifiers">
<g class="vf-stavenote" id="vf-auto52769">
<g class="vf-note" pointer-events="bounding-box">
<g class="vf-stem" pointer-events="bounding-box">
<path stroke-width="1.5" fill="none" stroke="#000000" stroke-dasharray="none" d="M822.6867747840001 197.99999999999997L822.6867747840001 174.89999999999998">
</path>
</g>
<g class="vf-notehead" pointer-events="bounding-box">
<path stroke-width="0.3" fill="#000000" stroke="none" stroke-dasharray="none" d="M815.5047363840001 197.99999999999997M820.3603299840001 194.55289919999998C820.4344611840002 194.55289919999998,820.5456579840002 194.55289919999998,820.5641907840002 194.55289919999998C820.5641907840002 194.55289919999998,820.5827235840002 194.55289919999998,820.5827235840002 194.55289919999998C820.5827235840002 194.55289919999998,820.6939203840001 194.55289919999998,820.7865843840001 194.55289919999998C822.4545363840001 194.64556319999997,823.4367747840001 195.73899839999996,823.4367747840001 197.11042559999999C823.4367747840001 197.77760639999997,823.2143811840001 198.53745119999996,822.6583971840001 199.26023039999998C821.6020275840001 200.68725599999996,819.8784771840001 201.46563359999996,818.3773203840001 201.46563359999996C817.2097539840001 201.46563359999996,816.2089827840001 201.00231359999998,815.7271299840002 200.05714079999998C815.5788675840001 199.68648479999996,815.5047363840001 199.33436159999997,815.5047363840001 198.94517279999997C815.5047363840001 196.92509759999996,817.7657379840001 194.68262879999997,820.3603299840001 194.55289919999998">
</path>
</g>
<g class="vf-flag" pointer-events="bounding-box">
<path stroke-width="0.3" fill="#000000" stroke="none" stroke-dasharray="none" d="M822.6867747840001 172.89999999999998M822.2419875840002 175.88378079999998L822.2419875840002 172.992664L822.3161187840001 172.992664C822.5199795840001 172.992664,822.6497091840001 173.12239359999998,822.6867747840001 173.34478719999998C823.0759635840002 175.19806719999997,824.2435299840001 177.21814239999998,825.8558835840001 178.73783199999997C827.6535651840002 180.42431679999999,828.5616723840002 182.74091679999998,828.5616723840002 185.13164799999998C828.5616723840002 187.39264959999997,827.7647619840002 189.74631519999997,826.1524083840002 191.69225919999997C825.8744163840001 192.06291519999996,825.8558835840001 192.06291519999996,825.6705555840001 192.06291519999996C825.4481619840001 192.06291519999996,825.2998995840002 191.89611999999997,825.2998995840002 191.67372639999996C825.2998995840002 191.50693119999997,825.3184323840002 191.4698656,825.5037603840001 191.2660048C826.9122531840002 189.56098719999997,827.6164995840002 187.5038464,827.6164995840002 185.5393696C827.6164995840002 183.7972864,827.0605155840001 182.12933439999998,825.9114819840001 180.86910399999996C825.2072355840002 180.09072639999997,823.9099395840001 179.34941439999997,822.2605203840002 178.77489759999997C822.2605203840002 178.75636479999997,822.2419875840002 178.18184799999997,822.2419875840002 175.88378079999998">
</path>
</g>
</g>
<g class="vf-modifiers">
</g>
</g>
<path stroke-width="1" fill="none" stroke="#000000" stroke-dasharray="none" d="M816.5047363840001 189.74999999999997L829.5047363840001 180.74999999999997Z">
</path>
</g>
</g>
<g class="vf-stavenote" id="vf-auto52783">
<g class="vf-note" pointer-events="bounding-box">
<g class="vf-notehead" pointer-events="bounding-box">
<path stroke-width="0.3" fill="#000000" stroke="none" stroke-dasharray="none" d="M883.367854784 197.99999999999997M890.7248147839999 192.77711999999997C890.837134784 192.77711999999997,891.0056147839999 192.77711999999997,891.033694784 192.77711999999997C891.033694784 192.77711999999997,891.061774784 192.77711999999997,891.061774784 192.77711999999997C891.061774784 192.77711999999997,891.230254784 192.77711999999997,891.370654784 192.77711999999997C893.897854784 192.91751999999997,895.386094784 194.57423999999997,895.386094784 196.65215999999998C895.386094784 197.66303999999997,895.049134784 198.81431999999998,894.206734784 199.90943999999996C892.606174784 202.07159999999996,889.994734784 203.25095999999996,887.720254784 203.25095999999996C885.951214784 203.25095999999996,884.434894784 202.54895999999997,883.704814784 201.11687999999998C883.4801747839999 200.55527999999998,883.367854784 200.02175999999997,883.367854784 199.43207999999998C883.367854784 196.37135999999998,886.7936147839999 192.97367999999997,890.7248147839999 192.77711999999997">
</path>
</g>
</g>
<g class="vf-modifiers">
</g>
</g>
<g class="vf-stavenote" id="vf-auto52793">
<g class="vf-note" pointer-events="bounding-box">
<g class="vf-notehead" pointer-events="bounding-box">
<path stroke-width="0.3" fill="#000000" stroke="none" stroke-dasharray="none" d="M913.376495584 197.99999999999997M920.733455584 192.77711999999997C920.8457755840001 192.77711999999997,921.014255584 192.77711999999997,921.042335584 192.77711999999997C921.042335584 192.77711999999997,921.0704155840001 192.77711999999997,921.0704155840001 192.77711999999997C921.0704155840001 192.77711999999997,921.238895584 192.77711999999997,921.379295584 192.77711999999997C923.906495584 192.91751999999997,925.394735584 194.57423999999997,925.394735584 196.65215999999998C925.394735584 197.66303999999997,925.0577755840001 198.81431999999998,924.2153755840001 199.90943999999996C922.6148155840001 202.07159999999996,920.0033755840001 203.25095999999996,917.728895584 203.25095999999996C915.959855584 203.25095999999996,914.4435355840001 202.54895999999997,913.713455584 201.11687999999998C913.488815584 200.55527999999998,913.376495584 200.02175999999997,913.376495584 199.43207999999998C913.376495584 196.37135999999998,916.802255584 192.97367999999997,920.733455584 192.77711999999997">
</path>
</g>
</g>
<g class="vf-modifiers">
</g>
</g>
<path stroke-width="1.5" fill="none" stroke="#000000" stroke-dasharray="none" d="M468.99585318400005 197.99999999999997L468.99585318400005 163.74999999999997">
</path>
<path stroke-width="1.5" fill="none" stroke="#000000" stroke-dasharray="none" d="M510.99489478400005 197.99999999999997L510.99489478400005 163.74999999999997">
</path>
<path stroke-width="1.5" fill="none" stroke="#000000" stroke-dasharray="none" d="M541.003535584 197.99999999999997L541.003535584 163.74999999999997">
</path>
<path stroke-width="0.3" fill="#000000" stroke="none" stroke-dasharray="none" d="M468.24585318400005 162.99999999999997L468.24585318400005 167.99999999999997L541.253535584 167.99999999999997L541.253535584 162.99999999999997Z">
</path>
<path stroke-width="0.3" fill="#000000" stroke="none" stroke-dasharray="none" d="M510.24489478400005 170.49999999999997L510.24489478400005 175.49999999999997L541.253535584 175.49999999999997L541.253535584 170.49999999999997Z">
</path>
<path stroke-width="1.5" fill="none" stroke="#000000" stroke-dasharray="none" d="M596.8762531840001 197.99999999999997L596.8762531840001 163.74999999999997">
</path>
<path stroke-width="1.5" fill="none" stroke="#000000" stroke-dasharray="none" d="M638.8752947840001 197.99999999999997L638.8752947840001 163.74999999999997">
</path>
<path stroke-width="1.5" fill="none" stroke="#000000" stroke-dasharray="none" d="M668.883935584 197.99999999999997L668.883935584 163.74999999999997">
</path>
<path stroke-width="0.3" fill="#000000" stroke="none" stroke-dasharray="none" d="M596.1262531840001 162.99999999999997L596.1262531840001 167.99999999999997L669.133935584 167.99999999999997L669.133935584 162.99999999999997Z">
</path>
<path stroke-width="0.3" fill="#000000" stroke="none" stroke-dasharray="none" d="M638.1252947840001 170.49999999999997L638.1252947840001 175.49999999999997L669.133935584 175.49999999999997L669.133935584 170.49999999999997Z">
</path>
<path stroke-width="1.5" fill="none" stroke="#000000" stroke-dasharray="none" d="M724.7566531840001 197.99999999999997L724.7566531840001 163.74999999999997">
</path>
<path stroke-width="1.5" fill="none" stroke="#000000" stroke-dasharray="none" d="M766.755694784 197.99999999999997L766.755694784 163.74999999999997">
</path>
<path stroke-width="1.5" fill="none" stroke="#000000" stroke-dasharray="none" d="M796.764335584 197.99999999999997L796.764335584 163.74999999999997">
</path>
<path stroke-width="0.3" fill="#000000" stroke="none" stroke-dasharray="none" d="M724.0066531840001 162.99999999999997L724.0066531840001 167.99999999999997L797.014335584 167.99999999999997L797.014335584 162.99999999999997Z">
</path>
<path stroke-width="0.3" fill="#000000" stroke="none" stroke-dasharray="none" d="M766.005694784 170.49999999999997L766.005694784 175.49999999999997L797.014335584 175.49999999999997L797.014335584 170.49999999999997Z">
</path>
<path stroke-width="1.5" fill="none" stroke="#000000" stroke-dasharray="none" d="M852.6370531840001 197.99999999999997L852.6370531840001 163.74999999999997">
</path>
<path stroke-width="1.5" fill="none" stroke="#000000" stroke-dasharray="none" d="M894.636094784 197.99999999999997L894.636094784 163.74999999999997">
</path>
<path stroke-width="1.5" fill="none" stroke="#000000" stroke-dasharray="none" d="M924.644735584 197.99999999999997L924.644735584 163.74999999999997">
</path>
<path stroke-width="0.3" fill="#000000" stroke="none" stroke-dasharray="none" d="M851.8870531840001 162.99999999999997L851.8870531840001 167.99999999999997L924.894735584 167.99999999999997L924.894735584 162.99999999999997Z">
</path>
<path stroke-width="0.3" fill="#000000" stroke="none" stroke-dasharray="none" d="M893.886094784 170.49999999999997L893.886094784 175.49999999999997L924.894735584 175.49999999999997L924.894735584 170.49999999999997Z">
</path>
</svg>