<svg width="1536" height="331.99999999999994" viewBox="0 0 1536 331.99999999999994">
<path stroke-width="1" fill="none" stroke="black" stroke-dasharray="none" d="M50 197.99999999999997L401.385136384 197.99999999999997">
</path>
<rect stroke-width="0.3" fill="black" stroke="black" stroke-dasharray="none" x="401.385136384" y="177.49999999999997" width="1" height="41">
</rect>
<path stroke-width="0.3" fill="black" stroke="none" stroke-dasharray="none" d="M55 197.99999999999997M55 197.99999999999997L55 188.00639999999999L57.1888 188.00639999999999L59.4064 188.00639999999999L59.4064 197.99999999999997L59.4064 208.02239999999998L57.1888 208.02239999999998L55 208.02239999999998L55 197.99999999999997M63.870400000000004 198.02879999999996L63.870400000000004 188.00639999999999L66.1168 188.00639999999999L68.3632 188.00639999999999L68.3632 198.02879999999996L68.3632 208.02239999999998L66.1168 208.02239999999998L63.870400000000004 208.02239999999998L63.870400000000004 198.02879999999996">
</path>
<path stroke-width="0.3" fill="black" stroke="none" stroke-dasharray="none" d="M96.1296 197.99999999999997M101.80319999999999 179.33759999999998C101.91839999999999 179.33759999999998,102.11999999999999 179.33759999999998,102.3504 179.33759999999998C102.8112 179.33759999999998,103.416 179.33759999999998,103.56 179.39519999999996C105.72 179.65439999999998,107.448 180.74879999999996,108.1968 182.27519999999998C108.45599999999999 182.79359999999997,108.57119999999999 183.34079999999997,108.57119999999999 183.91679999999997C108.57119999999999 185.32799999999997,107.7936 186.94079999999997,106.38239999999999 188.15039999999996C105.4032 188.98559999999998,104.42399999999999 189.50399999999996,102.8976 189.99359999999996C100.9104 190.62719999999996,99.21119999999999 191.75039999999998,98.1168 193.10399999999998C98.1168 193.10399999999998,98.1168 193.13279999999997,98.1168 193.13279999999997C98.1168 193.13279999999997,98.1168 193.13279999999997,98.1168 193.13279999999997C98.1168 193.13279999999997,98.2032 193.10399999999998,98.26079999999999 193.01759999999996C99.3552 192.12479999999996,100.824 191.60639999999998,102.1488 191.60639999999998C103.2432 191.60639999999998,104.0208 191.80799999999996,105.0576 192.38399999999996C105.6912 192.70079999999996,106.2672 192.84479999999996,106.81439999999999 192.84479999999996C107.0448 192.84479999999996,107.2752 192.84479999999996,107.53439999999999 192.78719999999998C107.9088 192.70079999999996,108.312 192.41279999999998,108.45599999999999 192.18239999999997C108.5424 191.98079999999996,108.68639999999999 191.89439999999996,108.8592 191.89439999999996C109.08959999999999 191.89439999999996,109.32 192.06719999999999,109.32 192.32639999999998C109.32 192.52799999999996,109.0608 193.24799999999996,108.8304 193.7376C107.9088 195.58079999999998,106.29599999999999 196.73279999999997,104.7408 196.73279999999997C104.62559999999999 196.73279999999997,104.5392 196.73279999999997,104.42399999999999 196.70399999999998C104.0208 196.70399999999998,103.848 196.58879999999996,103.3296 196.24319999999997C102.23519999999999 195.52319999999997,100.8528 195.14879999999997,99.6432 195.14879999999997C99.1248 195.14879999999997,98.664 195.20639999999997,98.232 195.37919999999997C97.65599999999999 195.58079999999998,97.1088 195.92639999999997,96.93599999999999 196.18559999999997C96.8496 196.38719999999998,96.70559999999999 196.44479999999996,96.5328 196.44479999999996C96.3888 196.44479999999996,96.2448 196.38719999999998,96.1584 196.21439999999998L96.10079999999999 196.128L96.10079999999999 195.72479999999996C96.10079999999999 195.37919999999997,96.1296 195.26399999999998,96.1296 195.14879999999997C96.1584 195.06239999999997,96.18719999999999 194.88959999999997,96.18719999999999 194.74559999999997C96.70559999999999 192.32639999999998,98.4624 190.16639999999998,100.8528 189.10079999999996C102.8112 188.17919999999998,104.10719999999999 186.53759999999997,104.3376 184.46399999999997C104.39519999999999 184.29119999999998,104.39519999999999 184.14719999999997,104.39519999999999 183.97439999999997C104.39519999999999 182.13119999999998,103.0128 180.86399999999998,101.0544 180.86399999999998C100.9104 180.86399999999998,100.7376 180.86399999999998,100.5936 180.86399999999998C100.3056 180.89279999999997,100.2192 180.89279999999997,100.2192 180.95039999999997C100.2192 180.95039999999997,100.2192 180.97919999999996,100.3056 181.03679999999997C100.96799999999999 181.41119999999998,101.28479999999999 182.13119999999998,101.28479999999999 182.82239999999996C101.28479999999999 183.71519999999998,100.824 184.55039999999997,99.93119999999999 184.89599999999996C99.6432 184.98239999999998,99.3552 185.01119999999997,99.1248 185.01119999999997C97.9152 185.01119999999997,96.9072 183.97439999999997,96.9072 182.73599999999996C96.9072 182.50559999999996,96.9072 182.27519999999998,96.9648 182.01599999999996C97.3968 180.69119999999998,99.4416 179.59679999999997,101.80319999999999 179.33759999999998M102.696 198.02879999999996L102.75359999999999 198.02879999999996L102.6672 198.02879999999996L102.696 198.02879999999996M102.696 178.61759999999998L102.75359999999999 178.61759999999998L102.6672 178.61759999999998L102.696 178.61759999999998">
</path>
<path stroke-width="0.3" fill="black" stroke="none" stroke-dasharray="none" d="M96 217.99999999999997M101.0112 199.65439999999998C101.04 199.62559999999996,101.4432 199.62559999999996,102.6816 199.62559999999996C103.056 199.62559999999996,103.4592 199.62559999999996,103.9776 199.62559999999996L106.8864 199.62559999999996L106.9728 199.71199999999996C107.1168 199.79839999999996,107.2032 199.94239999999996,107.2032 200.05759999999998C107.2032 200.23039999999997,107.1168 200.34559999999996,107.0016 200.46079999999998C106.9728 200.54719999999998,106.7136 200.77759999999998,106.5408 201.03679999999997L105.0144 202.79359999999997L103.056 205.01119999999997L102.0192 206.19199999999998L100.464 207.97759999999997L98.4192 210.31039999999996C98.0736 210.74239999999998,97.6992 211.08799999999997,97.6992 211.08799999999997C97.6992 211.08799999999997,97.6992 211.08799999999997,97.6992 211.08799999999997C97.6992 211.14559999999997,97.9584 211.14559999999997,100.3488 211.14559999999997L102.9696 211.14559999999997L102.9696 209.27359999999996C102.9696 207.37279999999998,102.9696 207.34399999999997,102.9984 207.31519999999998C103.056 207.22879999999998,103.3152 206.91199999999998,104.3232 205.73119999999997L104.7264 205.29919999999998L105.1296 204.86719999999997L105.7344 204.08959999999996L106.368 203.42719999999997L106.6848 203.02399999999997C106.8 202.85119999999998,106.9728 202.82239999999996,107.1168 202.82239999999996C107.28960000000001 202.82239999999996,107.4336 202.90879999999999,107.52 203.05279999999996C107.5488 203.13919999999996,107.5488 203.19679999999997,107.5488 205.32799999999997C107.5488 205.81759999999997,107.5488 206.42239999999998,107.5488 207.14239999999998L107.5488 211.14559999999997L108.2688 211.14559999999997C108.9312 211.14559999999997,108.96 211.14559999999997,109.0464 211.17439999999996C109.2768 211.26079999999996,109.392 211.49119999999996,109.392 211.75039999999998C109.392 211.89439999999996,109.3632 212.06719999999999,109.248 212.18239999999997C109.0752 212.32639999999998,109.0464 212.32639999999998,108.2688 212.32639999999998L107.5488 212.32639999999998L107.5488 212.81599999999997C107.5776 214.28479999999996,107.8656 214.86079999999998,108.9888 215.46559999999997C109.392 215.66719999999998,109.4784 215.72479999999996,109.4784 216.01279999999997C109.4784 216.21439999999998,109.4208 216.30079999999998,109.2768 216.41599999999997L109.1904 216.44479999999996L105.2448 216.44479999999996L101.328 216.44479999999996L101.2416 216.41599999999997C101.0688 216.30079999999998,101.04 216.21439999999998,101.04 216.01279999999997C101.04 215.72479999999996,101.0688 215.66719999999998,101.5008 215.46559999999997C102.624 214.86079999999998,102.912 214.28479999999996,102.912 212.81599999999997L102.912 212.32639999999998L99.6 212.32639999999998C98.9952 212.38399999999996,98.5056 212.38399999999996,98.1024 212.38399999999996C96.288 212.38399999999996,96.2592 212.32639999999998,96.2304 212.32639999999998C96.0576 212.26879999999997,96 212.09599999999998,96 211.89439999999996C96 211.89439999999996,96 211.89439999999996,96 211.89439999999996C96 211.69279999999998,96 211.69279999999998,96.576 211.0304C98.9952 208.09279999999998,100.6944 203.83039999999997,100.6944 200.43199999999996C100.6944 199.91359999999997,100.7808 199.74079999999998,101.0112 199.65439999999998M102.7392 218.02879999999996L102.768 218.02879999999996L102.6816 218.02879999999996L102.7392 218.02879999999996M102.7392 198.61759999999998L102.768 198.61759999999998L102.6816 198.61759999999998L102.7392 198.61759999999998">
</path>
<g class="vf-stavenote" id="vf-auto62084">
<g class="vf-note" pointer-events="bounding-box">
<g class="vf-notehead" pointer-events="bounding-box">
<path stroke-width="0.3" fill="#000000" stroke="none" stroke-dasharray="none" d="M147.3424768 197.99999999999997M154.69943679999997 192.77711999999997C154.81175679999998 192.77711999999997,154.9802368 192.77711999999997,155.0083168 192.77711999999997C155.0083168 192.77711999999997,155.03639679999998 192.77711999999997,155.03639679999998 192.77711999999997C155.03639679999998 192.77711999999997,155.2048768 192.77711999999997,155.3452768 192.77711999999997C157.8724768 192.91751999999997,159.36071679999998 194.57423999999997,159.36071679999998 196.65215999999998C159.36071679999998 197.66303999999997,159.0237568 198.81431999999998,158.18135679999997 199.90943999999996C156.58079679999997 202.07159999999996,153.96935679999999 203.25095999999996,151.69487679999997 203.25095999999996C149.92583679999998 203.25095999999996,148.40951679999998 202.54895999999997,147.6794368 201.11687999999998C147.4547968 200.55527999999998,147.3424768 200.02175999999997,147.3424768 199.43207999999998C147.3424768 196.37135999999998,150.76823679999998 192.97367999999997,154.69943679999997 192.77711999999997">
</path>
</g>
</g>
<g class="vf-modifiers">
<g class="vf-stavenote" id="vf-auto62094">
<g class="vf-note" pointer-events="bounding-box">
<g class="vf-stem" pointer-events="bounding-box">
<path stroke-width="1.5" fill="none" stroke="#000000" stroke-dasharray="none" d="M128.6604384 197.99999999999997L128.6604384 174.89999999999998">
</path>
</g>
<g class="vf-notehead" pointer-events="bounding-box">
<path stroke-width="0.3" fill="#000000" stroke="none" stroke-dasharray="none" d="M121.4784 197.99999999999997M126.3339936 194.55289919999998C126.4081248 194.55289919999998,126.5193216 194.55289919999998,126.5378544 194.55289919999998C126.5378544 194.55289919999998,126.55638719999999 194.55289919999998,126.55638719999999 194.55289919999998C126.55638719999999 194.55289919999998,126.66758399999999 194.55289919999998,126.76024799999999 194.55289919999998C128.4282 194.64556319999997,129.4104384 195.73899839999996,129.4104384 197.11042559999999C129.4104384 197.77760639999997,129.1880448 198.53745119999996,128.6320608 199.26023039999998C127.5756912 200.68725599999996,125.8521408 201.46563359999996,124.350984 201.46563359999996C123.1834176 201.46563359999996,122.1826464 201.00231359999998,121.7007936 200.05714079999998C121.55253119999999 199.68648479999996,121.4784 199.33436159999997,121.4784 198.94517279999997C121.4784 196.92509759999996,123.7394016 194.68262879999997,126.3339936 194.55289919999998">
</path>
</g>
<g class="vf-flag" pointer-events="bounding-box">
<path stroke-width="0.3" fill="#000000" stroke="none" stroke-dasharray="none" d="M128.6604384 172.89999999999998M128.2156512 175.88378079999998L128.2156512 172.992664L128.2897824 172.992664C128.4936432 172.992664,128.6233728 173.12239359999998,128.6604384 173.34478719999998C129.0496272 175.19806719999997,130.2171936 177.21814239999998,131.8295472 178.73783199999997C133.6272288 180.42431679999999,134.535336 182.74091679999998,134.535336 185.13164799999998C134.535336 187.39264959999997,133.7384256 189.74631519999997,132.126072 191.69225919999997C131.84808 192.06291519999996,131.8295472 192.06291519999996,131.6442192 192.06291519999996C131.4218256 192.06291519999996,131.2735632 191.89611999999997,131.2735632 191.67372639999996C131.2735632 191.50693119999997,131.29209600000002 191.4698656,131.477424 191.2660048C132.88591680000002 189.56098719999997,133.5901632 187.5038464,133.5901632 185.5393696C133.5901632 183.7972864,133.0341792 182.12933439999998,131.88514560000002 180.86910399999996C131.1808992 180.09072639999997,129.8836032 179.34941439999997,128.234184 178.77489759999997C128.234184 178.75636479999997,128.2156512 178.18184799999997,128.2156512 175.88378079999998">
</path>
</g>
</g>
<g class="vf-modifiers">
</g>
</g>
<path stroke-width="1" fill="none" stroke="#000000" stroke-dasharray="none" d="M122.4784 189.74999999999997L135.4784 180.74999999999997Z">
</path>
</g>
</g>
<g class="vf-stavenote" id="vf-auto62108">
<g class="vf-note" pointer-events="bounding-box">
<g class="vf-notehead" pointer-events="bounding-box">
<path stroke-width="0.3" fill="#000000" stroke="none" stroke-dasharray="none" d="M195.7817184 197.99999999999997M203.13867839999997 192.77711999999997C203.2509984 192.77711999999997,203.4194784 192.77711999999997,203.4475584 192.77711999999997C203.4475584 192.77711999999997,203.47563839999998 192.77711999999997,203.47563839999998 192.77711999999997C203.47563839999998 192.77711999999997,203.6441184 192.77711999999997,203.7845184 192.77711999999997C206.3117184 192.91751999999997,207.79995839999998 194.57423999999997,207.79995839999998 196.65215999999998C207.79995839999998 197.66303999999997,207.4629984 198.81431999999998,206.62059839999998 199.90943999999996C205.02003839999998 202.07159999999996,202.4085984 203.25095999999996,200.13411839999998 203.25095999999996C198.3650784 203.25095999999996,196.84875839999998 202.54895999999997,196.1186784 201.11687999999998C195.8940384 200.55527999999998,195.7817184 200.02175999999997,195.7817184 199.43207999999998C195.7817184 196.37135999999998,199.20747839999999 192.97367999999997,203.13867839999997 192.77711999999997">
</path>
</g>
</g>
<g class="vf-modifiers">
</g>
</g>
<g class="vf-stavenote" id="vf-auto62118">
<g class="vf-note" pointer-events="bounding-box">
<g class="vf-notehead" pointer-events="bounding-box">
<path stroke-width="0.3" fill="#000000" stroke="none" stroke-dasharray="none" d="M229.01045919999999 197.99999999999997M236.36741919999997 192.77711999999997C236.47973919999998 192.77711999999997,236.64821919999997 192.77711999999997,236.6762992 192.77711999999997C236.6762992 192.77711999999997,236.70437919999998 192.77711999999997,236.70437919999998 192.77711999999997C236.70437919999998 192.77711999999997,236.8728592 192.77711999999997,237.0132592 192.77711999999997C239.5404592 192.91751999999997,241.02869919999998 194.57423999999997,241.02869919999998 196.65215999999998C241.02869919999998 197.66303999999997,240.69173919999997 198.81431999999998,239.84933919999997 199.90943999999996C238.24877919999997 202.07159999999996,235.63733919999999 203.25095999999996,233.36285919999997 203.25095999999996C231.59381919999998 203.25095999999996,230.07749919999998 202.54895999999997,229.3474192 201.11687999999998C229.1227792 200.55527999999998,229.01045919999999 200.02175999999997,229.01045919999999 199.43207999999998C229.01045919999999 196.37135999999998,232.43621919999998 192.97367999999997,236.36741919999997 192.77711999999997">
</path>
</g>
</g>
<g class="vf-modifiers">
</g>
</g>
<g class="vf-stavenote" id="vf-auto62128">
<g class="vf-note" pointer-events="bounding-box">
<g class="vf-notehead" pointer-events="bounding-box">
<path stroke-width="0.3" fill="#000000" stroke="none" stroke-dasharray="none" d="M288.1032768 197.99999999999997M295.4602368 192.77711999999997C295.57255680000003 192.77711999999997,295.7410368 192.77711999999997,295.7691168 192.77711999999997C295.7691168 192.77711999999997,295.7971968 192.77711999999997,295.7971968 192.77711999999997C295.7971968 192.77711999999997,295.9656768 192.77711999999997,296.1060768 192.77711999999997C298.6332768 192.91751999999997,300.1215168 194.57423999999997,300.1215168 196.65215999999998C300.1215168 197.66303999999997,299.7845568 198.81431999999998,298.9421568 199.90943999999996C297.3415968 202.07159999999996,294.73015680000003 203.25095999999996,292.4556768 203.25095999999996C290.68663680000003 203.25095999999996,289.1703168 202.54895999999997,288.4402368 201.11687999999998C288.2155968 200.55527999999998,288.1032768 200.02175999999997,288.1032768 199.43207999999998C288.1032768 196.37135999999998,291.52903680000003 192.97367999999997,295.4602368 192.77711999999997">
</path>
</g>
</g>
<g class="vf-modifiers">
<g class="vf-stavenote" id="vf-auto62138">
<g class="vf-note" pointer-events="bounding-box">
<g class="vf-stem" pointer-events="bounding-box">
<path stroke-width="1.5" fill="none" stroke="#000000" stroke-dasharray="none" d="M269.4212384 197.99999999999997L269.4212384 174.89999999999998">
</path>
</g>
<g class="vf-notehead" pointer-events="bounding-box">
<path stroke-width="0.3" fill="#000000" stroke="none" stroke-dasharray="none" d="M262.2392 197.99999999999997M267.0947936 194.55289919999998C267.16892479999996 194.55289919999998,267.2801216 194.55289919999998,267.2986544 194.55289919999998C267.2986544 194.55289919999998,267.3171872 194.55289919999998,267.3171872 194.55289919999998C267.3171872 194.55289919999998,267.428384 194.55289919999998,267.521048 194.55289919999998C269.18899999999996 194.64556319999997,270.1712384 195.73899839999996,270.1712384 197.11042559999999C270.1712384 197.77760639999997,269.94884479999996 198.53745119999996,269.3928608 199.26023039999998C268.33649119999995 200.68725599999996,266.6129408 201.46563359999996,265.111784 201.46563359999996C263.9442176 201.46563359999996,262.94344639999997 201.00231359999998,262.46159359999996 200.05714079999998C262.3133312 199.68648479999996,262.2392 199.33436159999997,262.2392 198.94517279999997C262.2392 196.92509759999996,264.50020159999997 194.68262879999997,267.0947936 194.55289919999998">
</path>
</g>
<g class="vf-flag" pointer-events="bounding-box">
<path stroke-width="0.3" fill="#000000" stroke="none" stroke-dasharray="none" d="M269.4212384 172.89999999999998M268.9764512 175.88378079999998L268.9764512 172.992664L269.0505824 172.992664C269.25444319999997 172.992664,269.3841728 173.12239359999998,269.4212384 173.34478719999998C269.8104272 175.19806719999997,270.9779936 177.21814239999998,272.5903472 178.73783199999997C274.3880288 180.42431679999999,275.296136 182.74091679999998,275.296136 185.13164799999998C275.296136 187.39264959999997,274.4992256 189.74631519999997,272.886872 191.69225919999997C272.60888 192.06291519999996,272.5903472 192.06291519999996,272.40501919999997 192.06291519999996C272.1826256 192.06291519999996,272.0343632 191.89611999999997,272.0343632 191.67372639999996C272.0343632 191.50693119999997,272.052896 191.4698656,272.238224 191.2660048C273.6467168 189.56098719999997,274.35096319999997 187.5038464,274.35096319999997 185.5393696C274.35096319999997 183.7972864,273.7949792 182.12933439999998,272.6459456 180.86910399999996C271.9416992 180.09072639999997,270.6444032 179.34941439999997,268.994984 178.77489759999997C268.994984 178.75636479999997,268.9764512 178.18184799999997,268.9764512 175.88378079999998">
</path>
</g>
</g>
<g class="vf-modifiers">
</g>
</g>
<path stroke-width="1" fill="none" stroke="#000000" stroke-dasharray="none" d="M263.2392 189.74999999999997L276.2392 180.74999999999997Z">
</path>
</g>
</g>
<g class="vf-stavenote" id="vf-auto62152">
<g class="vf-note" pointer-events="bounding-box">
<g class="vf-notehead" pointer-events="bounding-box">
<path stroke-width="0.3" fill="#000000" stroke="none" stroke-dasharray="none" d="M336.54251839999995 197.99999999999997M343.89947839999996 192.77711999999997C344.0117984 192.77711999999997,344.18027839999996 192.77711999999997,344.20835839999995 192.77711999999997C344.20835839999995 192.77711999999997,344.23643839999994 192.77711999999997,344.23643839999994 192.77711999999997C344.23643839999994 192.77711999999997,344.40491839999993 192.77711999999997,344.5453183999999 192.77711999999997C347.0725183999999 192.91751999999997,348.56075839999994 194.57423999999997,348.56075839999994 196.65215999999998C348.56075839999994 197.66303999999997,348.22379839999996 198.81431999999998,347.38139839999997 199.90943999999996C345.78083839999994 202.07159999999996,343.1693984 203.25095999999996,340.89491839999994 203.25095999999996C339.1258784 203.25095999999996,337.60955839999997 202.54895999999997,336.8794783999999 201.11687999999998C336.65483839999996 200.55527999999998,336.54251839999995 200.02175999999997,336.54251839999995 199.43207999999998C336.54251839999995 196.37135999999998,339.9682784 192.97367999999997,343.89947839999996 192.77711999999997">
</path>
</g>
</g>
<g class="vf-modifiers">
</g>
</g>
<g class="vf-stavenote" id="vf-auto62162">
<g class="vf-note" pointer-events="bounding-box">
<g class="vf-notehead" pointer-events="bounding-box">
<path stroke-width="0.3" fill="#000000" stroke="none" stroke-dasharray="none" d="M369.7712592 197.99999999999997M377.1282192 192.77711999999997C377.2405392 192.77711999999997,377.4090192 192.77711999999997,377.4370992 192.77711999999997C377.4370992 192.77711999999997,377.46517919999997 192.77711999999997,377.46517919999997 192.77711999999997C377.46517919999997 192.77711999999997,377.63365919999995 192.77711999999997,377.77405919999995 192.77711999999997C380.3012592 192.91751999999997,381.78949919999997 194.57423999999997,381.78949919999997 196.65215999999998C381.78949919999997 197.66303999999997,381.4525392 198.81431999999998,380.6101392 199.90943999999996C379.00957919999996 202.07159999999996,376.39813919999995 203.25095999999996,374.12365919999996 203.25095999999996C372.3546192 203.25095999999996,370.8382992 202.54895999999997,370.10821919999995 201.11687999999998C369.8835792 200.55527999999998,369.7712592 200.02175999999997,369.7712592 199.43207999999998C369.7712592 196.37135999999998,373.1970192 192.97367999999997,377.1282192 192.77711999999997">
</path>
</g>
</g>
<g class="vf-modifiers">
</g>
</g>
<path stroke-width="1.5" fill="none" stroke="#000000" stroke-dasharray="none" d="M158.61071679999998 197.99999999999997L158.61071679999998 163.74999999999997">
</path>
<path stroke-width="1.5" fill="none" stroke="#000000" stroke-dasharray="none" d="M207.04995839999998 197.99999999999997L207.04995839999998 163.74999999999997">
</path>
<path stroke-width="1.5" fill="none" stroke="#000000" stroke-dasharray="none" d="M240.27869919999998 197.99999999999997L240.27869919999998 163.74999999999997">
</path>
<path stroke-width="0.3" fill="#000000" stroke="none" stroke-dasharray="none" d="M157.86071679999998 162.99999999999997L157.86071679999998 167.99999999999997L240.52869919999998 167.99999999999997L240.52869919999998 162.99999999999997Z">
</path>
<path stroke-width="0.3" fill="#000000" stroke="none" stroke-dasharray="none" d="M206.29995839999998 170.49999999999997L206.29995839999998 175.49999999999997L240.52869919999998 175.49999999999997L240.52869919999998 170.49999999999997Z">
</path>
<path stroke-width="1.5" fill="none" stroke="#000000" stroke-dasharray="none" d="M299.3715168 197.99999999999997L299.3715168 163.74999999999997">
</path>
<path stroke-width="1.5" fill="none" stroke="#000000" stroke-dasharray="none" d="M347.81075839999994 197.99999999999997L347.81075839999994 163.74999999999997">
</path>
<path stroke-width="1.5" fill="none" stroke="#000000" stroke-dasharray="none" d="M381.03949919999997 197.99999999999997L381.03949919999997 163.74999999999997">
</path>
<path stroke-width="0.3" fill="#000000" stroke="none" stroke-dasharray="none" d="M298.6215168 162.99999999999997L298.6215168 167.99999999999997L381.28949919999997 167.99999999999997L381.28949919999997 162.99999999999997Z">
</path>
<path stroke-width="0.3" fill="#000000" stroke="none" stroke-dasharray="none" d="M347.06075839999994 170.49999999999997L347.06075839999994 175.49999999999997L381.28949919999997 175.49999999999997L381.28949919999997 170.49999999999997Z">
</path>
<path stroke-width="1" fill="none" stroke="black" stroke-dasharray="none" d="M401.385136384 197.99999999999997L1167.85683712 197.99999999999997">
</path>
<rect stroke-width="0.3" fill="black" stroke="black" stroke-dasharray="none" x="1162.85683712" y="177.49999999999997" width="1" height="41">
</rect>
<rect stroke-width="0.3" fill="black" stroke="black" stroke-dasharray="none" x="1165.85683712" y="177.49999999999997" width="3" height="41">
</rect>
<path stroke-width="0.3" fill="black" stroke="none" stroke-dasharray="none" d="M1161.85683712 193.49999999999997 A2 2 0 0 0 1157.85683712 193.49999999999997M1157.85683712 193.49999999999997 A2 2 0 0 0 1161.85683712 193.49999999999997">
</path>
<path stroke-width="0.3" fill="black" stroke="none" stroke-dasharray="none" d="M1161.85683712 203.49999999999997 A2 2 0 0 0 1157.85683712 203.49999999999997M1157.85683712 203.49999999999997 A2 2 0 0 0 1161.85683712 203.49999999999997">
</path>
<path stroke-width="0.3" fill="black" stroke="none" stroke-dasharray="none" d="M406.385136384 197.99999999999997M411.396336384 179.65439999999998C411.42513638400004 179.62559999999996,411.828336384 179.62559999999996,413.066736384 179.62559999999996C413.441136384 179.62559999999996,413.84433638400003 179.62559999999996,414.362736384 179.62559999999996L417.271536384 179.62559999999996L417.357936384 179.71199999999996C417.50193638400003 179.79839999999996,417.588336384 179.94239999999996,417.588336384 180.05759999999998C417.588336384 180.23039999999997,417.50193638400003 180.34559999999996,417.386736384 180.46079999999998C417.357936384 180.54719999999998,417.098736384 180.77759999999998,416.925936384 181.03679999999997L415.39953638400004 182.79359999999997L413.441136384 185.01119999999997L412.40433638400003 186.19199999999998L410.849136384 187.97759999999997L408.804336384 190.31039999999996C408.458736384 190.74239999999998,408.08433638400004 191.08799999999997,408.08433638400004 191.08799999999997C408.08433638400004 191.08799999999997,408.08433638400004 191.08799999999997,408.08433638400004 191.08799999999997C408.08433638400004 191.14559999999997,408.343536384 191.14559999999997,410.733936384 191.14559999999997L413.35473638400003 191.14559999999997L413.35473638400003 189.27359999999996C413.35473638400003 187.37279999999998,413.35473638400003 187.34399999999997,413.383536384 187.31519999999998C413.441136384 187.22879999999998,413.700336384 186.91199999999998,414.708336384 185.73119999999997L415.11153638400003 185.29919999999998L415.514736384 184.86719999999997L416.119536384 184.08959999999996L416.753136384 183.42719999999997L417.069936384 183.02399999999997C417.18513638400003 182.85119999999998,417.357936384 182.82239999999996,417.50193638400003 182.82239999999996C417.674736384 182.82239999999996,417.81873638400003 182.90879999999999,417.905136384 183.05279999999996C417.93393638400005 183.13919999999996,417.93393638400005 183.19679999999997,417.93393638400005 185.32799999999997C417.93393638400005 185.81759999999997,417.93393638400005 186.42239999999998,417.93393638400005 187.14239999999998L417.93393638400005 191.14559999999997L418.653936384 191.14559999999997C419.316336384 191.14559999999997,419.345136384 191.14559999999997,419.431536384 191.17439999999996C419.661936384 191.26079999999996,419.777136384 191.49119999999996,419.777136384 191.75039999999998C419.777136384 191.89439999999996,419.748336384 192.06719999999999,419.633136384 192.18239999999997C419.460336384 192.32639999999998,419.431536384 192.32639999999998,418.653936384 192.32639999999998L417.93393638400005 192.32639999999998L417.93393638400005 192.81599999999997C417.96273638400004 194.28479999999996,418.250736384 194.86079999999998,419.37393638400005 195.46559999999997C419.777136384 195.66719999999998,419.86353638400004 195.72479999999996,419.86353638400004 196.01279999999997C419.86353638400004 196.21439999999998,419.805936384 196.30079999999998,419.661936384 196.41599999999997L419.57553638400003 196.44479999999996L415.629936384 196.44479999999996L411.713136384 196.44479999999996L411.626736384 196.41599999999997C411.45393638400003 196.30079999999998,411.42513638400004 196.21439999999998,411.42513638400004 196.01279999999997C411.42513638400004 195.72479999999996,411.45393638400003 195.66719999999998,411.88593638400005 195.46559999999997C413.00913638400004 194.86079999999998,413.297136384 194.28479999999996,413.297136384 192.81599999999997L413.297136384 192.32639999999998L409.98513638400004 192.32639999999998C409.38033638400003 192.38399999999996,408.89073638400004 192.38399999999996,408.487536384 192.38399999999996C406.67313638400003 192.38399999999996,406.64433638400004 192.32639999999998,406.615536384 192.32639999999998C406.442736384 192.26879999999997,406.385136384 192.09599999999998,406.385136384 191.89439999999996C406.385136384 191.89439999999996,406.385136384 191.89439999999996,406.385136384 191.89439999999996C406.385136384 191.69279999999998,406.385136384 191.69279999999998,406.96113638400004 191.0304C409.38033638400003 188.09279999999998,411.079536384 183.83039999999997,411.079536384 180.43199999999996C411.079536384 179.91359999999997,411.165936384 179.74079999999998,411.396336384 179.65439999999998M413.124336384 198.02879999999996L413.153136384 198.02879999999996L413.066736384 198.02879999999996L413.124336384 198.02879999999996M413.124336384 178.61759999999998L413.153136384 178.61759999999998L413.066736384 178.61759999999998L413.124336384 178.61759999999998">
</path>
<path stroke-width="0.3" fill="black" stroke="none" stroke-dasharray="none" d="M406.385136384 217.99999999999997M411.396336384 199.65439999999998C411.42513638400004 199.62559999999996,411.828336384 199.62559999999996,413.066736384 199.62559999999996C413.441136384 199.62559999999996,413.84433638400003 199.62559999999996,414.362736384 199.62559999999996L417.271536384 199.62559999999996L417.357936384 199.71199999999996C417.50193638400003 199.79839999999996,417.588336384 199.94239999999996,417.588336384 200.05759999999998C417.588336384 200.23039999999997,417.50193638400003 200.34559999999996,417.386736384 200.46079999999998C417.357936384 200.54719999999998,417.098736384 200.77759999999998,416.925936384 201.03679999999997L415.39953638400004 202.79359999999997L413.441136384 205.01119999999997L412.40433638400003 206.19199999999998L410.849136384 207.97759999999997L408.804336384 210.31039999999996C408.458736384 210.74239999999998,408.08433638400004 211.08799999999997,408.08433638400004 211.08799999999997C408.08433638400004 211.08799999999997,408.08433638400004 211.08799999999997,408.08433638400004 211.08799999999997C408.08433638400004 211.14559999999997,408.343536384 211.14559999999997,410.733936384 211.14559999999997L413.35473638400003 211.14559999999997L413.35473638400003 209.27359999999996C413.35473638400003 207.37279999999998,413.35473638400003 207.34399999999997,413.383536384 207.31519999999998C413.441136384 207.22879999999998,413.700336384 206.91199999999998,414.708336384 205.73119999999997L415.11153638400003 205.29919999999998L415.514736384 204.86719999999997L416.119536384 204.08959999999996L416.753136384 203.42719999999997L417.069936384 203.02399999999997C417.18513638400003 202.85119999999998,417.357936384 202.82239999999996,417.50193638400003 202.82239999999996C417.674736384 202.82239999999996,417.81873638400003 202.90879999999999,417.905136384 203.05279999999996C417.93393638400005 203.13919999999996,417.93393638400005 203.19679999999997,417.93393638400005 205.32799999999997C417.93393638400005 205.81759999999997,417.93393638400005 206.42239999999998,417.93393638400005 207.14239999999998L417.93393638400005 211.14559999999997L418.653936384 211.14559999999997C419.316336384 211.14559999999997,419.345136384 211.14559999999997,419.431536384 211.17439999999996C419.661936384 211.26079999999996,419.777136384 211.49119999999996,419.777136384 211.75039999999998C419.777136384 211.89439999999996,419.748336384 212.06719999999999,419.633136384 212.18239999999997C419.460336384 212.32639999999998,419.431536384 212.32639999999998,418.653936384 212.32639999999998L417.93393638400005 212.32639999999998L417.93393638400005 212.81599999999997C417.96273638400004 214.28479999999996,418.250736384 214.86079999999998,419.37393638400005 215.46559999999997C419.777136384 215.66719999999998,419.86353638400004 215.72479999999996,419.86353638400004 216.01279999999997C419.86353638400004 216.21439999999998,419.805936384 216.30079999999998,419.661936384 216.41599999999997L419.57553638400003 216.44479999999996L415.629936384 216.44479999999996L411.713136384 216.44479999999996L411.626736384 216.41599999999997C411.45393638400003 216.30079999999998,411.42513638400004 216.21439999999998,411.42513638400004 216.01279999999997C411.42513638400004 215.72479999999996,411.45393638400003 215.66719999999998,411.88593638400005 215.46559999999997C413.00913638400004 214.86079999999998,413.297136384 214.28479999999996,413.297136384 212.81599999999997L413.297136384 212.32639999999998L409.98513638400004 212.32639999999998C409.38033638400003 212.38399999999996,408.89073638400004 212.38399999999996,408.487536384 212.38399999999996C406.67313638400003 212.38399999999996,406.64433638400004 212.32639999999998,406.615536384 212.32639999999998C406.442736384 212.26879999999997,406.385136384 212.09599999999998,406.385136384 211.89439999999996C406.385136384 211.89439999999996,406.385136384 211.89439999999996,406.385136384 211.89439999999996C406.385136384 211.69279999999998,406.385136384 211.69279999999998,406.96113638400004 211.0304C409.38033638400003 208.09279999999998,411.079536384 203.83039999999997,411.079536384 200.43199999999996C411.079536384 199.91359999999997,411.165936384 199.74079999999998,411.396336384 199.65439999999998M413.124336384 218.02879999999996L413.153136384 218.02879999999996L413.066736384 218.02879999999996L413.124336384 218.02879999999996M413.124336384 198.61759999999998L413.153136384 198.61759999999998L413.066736384 198.61759999999998L413.124336384 198.61759999999998">
</path>
<g class="vf-stavenote" id="vf-auto62175">
<g class="vf-note" pointer-events="bounding-box">
<g class="vf-notehead" pointer-events="bounding-box">
<path stroke-width="0.3" fill="#000000" stroke="none" stroke-dasharray="none" d="M457.72761318400006 197.99999999999997M465.0845731840001 192.77711999999997C465.1968931840001 192.77711999999997,465.3653731840001 192.77711999999997,465.39345318400007 192.77711999999997C465.39345318400007 192.77711999999997,465.42153318400005 192.77711999999997,465.42153318400005 192.77711999999997C465.42153318400005 192.77711999999997,465.59001318400004 192.77711999999997,465.73041318400004 192.77711999999997C468.2576131840001 192.91751999999997,469.74585318400005 194.57423999999997,469.74585318400005 196.65215999999998C469.74585318400005 197.66303999999997,469.4088931840001 198.81431999999998,468.5664931840001 199.90943999999996C466.96593318400005 202.07159999999996,464.35449318400003 203.25095999999996,462.08001318400005 203.25095999999996C460.3109731840001 203.25095999999996,458.7946531840001 202.54895999999997,458.06457318400004 201.11687999999998C457.8399331840001 200.55527999999998,457.72761318400006 200.02175999999997,457.72761318400006 199.43207999999998C457.72761318400006 196.37135999999998,461.1533731840001 192.97367999999997,465.0845731840001 192.77711999999997">
</path>
</g>
</g>
<g class="vf-modifiers">
<g class="vf-stavenote" id="vf-auto62185">
<g class="vf-note" pointer-events="bounding-box">
<g class="vf-stem" pointer-events="bounding-box">
<path stroke-width="1.5" fill="none" stroke="#000000" stroke-dasharray="none" d="M439.04557478400005 197.99999999999997L439.04557478400005 174.89999999999998">
</path>
</g>
<g class="vf-notehead" pointer-events="bounding-box">
<path stroke-width="0.3" fill="#000000" stroke="none" stroke-dasharray="none" d="M431.86353638400004 197.99999999999997M436.71912998400006 194.55289919999998C436.793261184 194.55289919999998,436.90445798400003 194.55289919999998,436.92299078400004 194.55289919999998C436.92299078400004 194.55289919999998,436.94152358400004 194.55289919999998,436.94152358400004 194.55289919999998C436.94152358400004 194.55289919999998,437.05272038400005 194.55289919999998,437.14538438400007 194.55289919999998C438.813336384 194.64556319999997,439.79557478400005 195.73899839999996,439.79557478400005 197.11042559999999C439.79557478400005 197.77760639999997,439.573181184 198.53745119999996,439.01719718400005 199.26023039999998C437.96082758400007 200.68725599999996,436.23727718400005 201.46563359999996,434.73612038400006 201.46563359999996C433.56855398400006 201.46563359999996,432.56778278400003 201.00231359999998,432.085929984 200.05714079999998C431.93766758400005 199.68648479999996,431.86353638400004 199.33436159999997,431.86353638400004 198.94517279999997C431.86353638400004 196.92509759999996,434.124537984 194.68262879999997,436.71912998400006 194.55289919999998">
</path>
</g>
<g class="vf-flag" pointer-events="bounding-box">
<path stroke-width="0.3" fill="#000000" stroke="none" stroke-dasharray="none" d="M439.04557478400005 172.89999999999998M438.60078758400005 175.88378079999998L438.60078758400005 172.992664L438.67491878400006 172.992664C438.87877958400003 172.992664,439.00850918400005 173.12239359999998,439.04557478400005 173.34478719999998C439.43476358400005 175.19806719999997,440.60232998400005 177.21814239999998,442.21468358400006 178.73783199999997C444.01236518400003 180.42431679999999,444.92047238400005 182.74091679999998,444.92047238400005 185.13164799999998C444.92047238400005 187.39264959999997,444.12356198400005 189.74631519999997,442.51120838400004 191.69225919999997C442.23321638400006 192.06291519999996,442.21468358400006 192.06291519999996,442.02935558400003 192.06291519999996C441.80696198400005 192.06291519999996,441.65869958400003 191.89611999999997,441.65869958400003 191.67372639999996C441.65869958400003 191.50693119999997,441.67723238400004 191.4698656,441.86256038400006 191.2660048C443.27105318400004 189.56098719999997,443.975299584 187.5038464,443.975299584 185.5393696C443.975299584 183.7972864,443.41931558400006 182.12933439999998,442.27028198400006 180.86910399999996C441.5660355840001 180.09072639999997,440.26873958400006 179.34941439999997,438.61932038400005 178.77489759999997C438.61932038400005 178.75636479999997,438.60078758400005 178.18184799999997,438.60078758400005 175.88378079999998">
</path>
</g>
</g>
<g class="vf-modifiers">
</g>
</g>
<path stroke-width="1" fill="none" stroke="#000000" stroke-dasharray="none" d="M432.86353638400004 189.74999999999997L445.86353638400004 180.74999999999997Z">
</path>
</g>
</g>
<g class="vf-stavenote" id="vf-auto62199">
<g class="vf-note" pointer-events="bounding-box">
<g class="vf-notehead" pointer-events="bounding-box">
<path stroke-width="0.3" fill="#000000" stroke="none" stroke-dasharray="none" d="M490.89067478400005 197.99999999999997M498.24763478400007 192.77711999999997C498.3599547840001 192.77711999999997,498.52843478400007 192.77711999999997,498.55651478400006 192.77711999999997C498.55651478400006 192.77711999999997,498.58459478400005 192.77711999999997,498.58459478400005 192.77711999999997C498.58459478400005 192.77711999999997,498.75307478400003 192.77711999999997,498.89347478400003 192.77711999999997C501.4206747840001 192.91751999999997,502.90891478400005 194.57423999999997,502.90891478400005 196.65215999999998C502.90891478400005 197.66303999999997,502.57195478400007 198.81431999999998,501.7295547840001 199.90943999999996C500.12899478400004 202.07159999999996,497.517554784 203.25095999999996,495.24307478400004 203.25095999999996C493.4740347840001 203.25095999999996,491.9577147840001 202.54895999999997,491.22763478400003 201.11687999999998C491.00299478400007 200.55527999999998,490.89067478400005 200.02175999999997,490.89067478400005 199.43207999999998C490.89067478400005 196.37135999999998,494.3164347840001 192.97367999999997,498.24763478400007 192.77711999999997">
</path>
</g>
</g>
<g class="vf-modifiers">
</g>
</g>
<g class="vf-stavenote" id="vf-auto62209">
<g class="vf-note" pointer-events="bounding-box">
<g class="vf-notehead" pointer-events="bounding-box">
<path stroke-width="0.3" fill="#000000" stroke="none" stroke-dasharray="none" d="M549.917813184 197.99999999999997M557.274773184 192.77711999999997C557.387093184 192.77711999999997,557.555573184 192.77711999999997,557.583653184 192.77711999999997C557.583653184 192.77711999999997,557.6117331840001 192.77711999999997,557.6117331840001 192.77711999999997C557.6117331840001 192.77711999999997,557.780213184 192.77711999999997,557.920613184 192.77711999999997C560.447813184 192.91751999999997,561.936053184 194.57423999999997,561.936053184 196.65215999999998C561.936053184 197.66303999999997,561.599093184 198.81431999999998,560.756693184 199.90943999999996C559.156133184 202.07159999999996,556.544693184 203.25095999999996,554.270213184 203.25095999999996C552.501173184 203.25095999999996,550.984853184 202.54895999999997,550.254773184 201.11687999999998C550.030133184 200.55527999999998,549.917813184 200.02175999999997,549.917813184 199.43207999999998C549.917813184 196.37135999999998,553.343573184 192.97367999999997,557.274773184 192.77711999999997">
</path>
</g>
</g>
<g class="vf-modifiers">
<g class="vf-stavenote" id="vf-auto62219">
<g class="vf-note" pointer-events="bounding-box">
<g class="vf-stem" pointer-events="bounding-box">
<path stroke-width="1.5" fill="none" stroke="#000000" stroke-dasharray="none" d="M531.2357747840001 197.99999999999997L531.2357747840001 174.89999999999998">
</path>
</g>
<g class="vf-notehead" pointer-events="bounding-box">
<path stroke-width="0.3" fill="#000000" stroke="none" stroke-dasharray="none" d="M524.0537363840001 197.99999999999997M528.9093299840001 194.55289919999998C528.9834611840001 194.55289919999998,529.0946579840002 194.55289919999998,529.1131907840002 194.55289919999998C529.1131907840002 194.55289919999998,529.1317235840002 194.55289919999998,529.1317235840002 194.55289919999998C529.1317235840002 194.55289919999998,529.2429203840001 194.55289919999998,529.3355843840001 194.55289919999998C531.0035363840001 194.64556319999997,531.9857747840001 195.73899839999996,531.9857747840001 197.11042559999999C531.9857747840001 197.77760639999997,531.7633811840001 198.53745119999996,531.2073971840001 199.26023039999998C530.1510275840001 200.68725599999996,528.427477184 201.46563359999996,526.9263203840001 201.46563359999996C525.7587539840001 201.46563359999996,524.7579827840001 201.00231359999998,524.2761299840001 200.05714079999998C524.1278675840001 199.68648479999996,524.0537363840001 199.33436159999997,524.0537363840001 198.94517279999997C524.0537363840001 196.92509759999996,526.3147379840001 194.68262879999997,528.9093299840001 194.55289919999998">
</path>
</g>
<g class="vf-flag" pointer-events="bounding-box">
<path stroke-width="0.3" fill="#000000" stroke="none" stroke-dasharray="none" d="M531.2357747840001 172.89999999999998M530.7909875840002 175.88378079999998L530.7909875840002 172.992664L530.8651187840001 172.992664C531.0689795840001 172.992664,531.1987091840001 173.12239359999998,531.2357747840001 173.34478719999998C531.6249635840002 175.19806719999997,532.7925299840001 177.21814239999998,534.4048835840001 178.73783199999997C536.2025651840002 180.42431679999999,537.1106723840002 182.74091679999998,537.1106723840002 185.13164799999998C537.1106723840002 187.39264959999997,536.3137619840002 189.74631519999997,534.7014083840002 191.69225919999997C534.4234163840001 192.06291519999996,534.4048835840001 192.06291519999996,534.2195555840001 192.06291519999996C533.9971619840001 192.06291519999996,533.8488995840002 191.89611999999997,533.8488995840002 191.67372639999996C533.8488995840002 191.50693119999997,533.8674323840002 191.4698656,534.0527603840001 191.2660048C535.4612531840002 189.56098719999997,536.1654995840001 187.5038464,536.1654995840001 185.5393696C536.1654995840001 183.7972864,535.6095155840001 182.12933439999998,534.4604819840001 180.86910399999996C533.7562355840001 180.09072639999997,532.4589395840001 179.34941439999997,530.8095203840002 178.77489759999997C530.8095203840002 178.75636479999997,530.7909875840002 178.18184799999997,530.7909875840002 175.88378079999998">
</path>
</g>
</g>
<g class="vf-modifiers">
</g>
</g>
<path stroke-width="1" fill="none" stroke="#000000" stroke-dasharray="none" d="M525.0537363840001 189.74999999999997L538.0537363840001 180.74999999999997Z">
</path>
</g>
</g>
<g class="vf-stavenote" id="vf-auto62233">
<g class="vf-note" pointer-events="bounding-box">
<g class="vf-notehead" pointer-events="bounding-box">
<path stroke-width="0.3" fill="#000000" stroke="none" stroke-dasharray="none" d="M583.0808747840001 197.99999999999997M590.4378347840001 192.77711999999997C590.5501547840001 192.77711999999997,590.7186347840001 192.77711999999997,590.7467147840001 192.77711999999997C590.7467147840001 192.77711999999997,590.7747947840002 192.77711999999997,590.7747947840002 192.77711999999997C590.7747947840002 192.77711999999997,590.9432747840001 192.77711999999997,591.0836747840001 192.77711999999997C593.6108747840001 192.91751999999997,595.0991147840001 194.57423999999997,595.0991147840001 196.65215999999998C595.0991147840001 197.66303999999997,594.7621547840001 198.81431999999998,593.9197547840001 199.90943999999996C592.3191947840002 202.07159999999996,589.7077547840001 203.25095999999996,587.4332747840001 203.25095999999996C585.6642347840001 203.25095999999996,584.1479147840001 202.54895999999997,583.4178347840001 201.11687999999998C583.1931947840001 200.55527999999998,583.0808747840001 200.02175999999997,583.0808747840001 199.43207999999998C583.0808747840001 196.37135999999998,586.5066347840001 192.97367999999997,590.4378347840001 192.77711999999997">
</path>
</g>
</g>
<g class="vf-modifiers">
</g>
</g>
<g class="vf-stavenote" id="vf-auto62243">
<g class="vf-note" pointer-events="bounding-box">
<g class="vf-notehead" pointer-events="bounding-box">
<path stroke-width="0.3" fill="#000000" stroke="none" stroke-dasharray="none" d="M642.108013184 197.99999999999997M649.464973184 192.77711999999997C649.577293184 192.77711999999997,649.745773184 192.77711999999997,649.773853184 192.77711999999997C649.773853184 192.77711999999997,649.8019331840001 192.77711999999997,649.8019331840001 192.77711999999997C649.8019331840001 192.77711999999997,649.970413184 192.77711999999997,650.110813184 192.77711999999997C652.638013184 192.91751999999997,654.126253184 194.57423999999997,654.126253184 196.65215999999998C654.126253184 197.66303999999997,653.789293184 198.81431999999998,652.946893184 199.90943999999996C651.3463331840001 202.07159999999996,648.734893184 203.25095999999996,646.460413184 203.25095999999996C644.691373184 203.25095999999996,643.175053184 202.54895999999997,642.444973184 201.11687999999998C642.220333184 200.55527999999998,642.108013184 200.02175999999997,642.108013184 199.43207999999998C642.108013184 196.37135999999998,645.533773184 192.97367999999997,649.464973184 192.77711999999997">
</path>
</g>
</g>
<g class="vf-modifiers">
<g class="vf-stavenote" id="vf-auto62253">
<g class="vf-note" pointer-events="bounding-box">
<g class="vf-stem" pointer-events="bounding-box">
<path stroke-width="1.5" fill="none" stroke="#000000" stroke-dasharray="none" d="M623.4259747840001 197.99999999999997L623.4259747840001 174.89999999999998">
</path>
</g>
<g class="vf-notehead" pointer-events="bounding-box">
<path stroke-width="0.3" fill="#000000" stroke="none" stroke-dasharray="none" d="M616.2439363840001 197.99999999999997M621.0995299840001 194.55289919999998C621.1736611840001 194.55289919999998,621.2848579840002 194.55289919999998,621.3033907840002 194.55289919999998C621.3033907840002 194.55289919999998,621.3219235840002 194.55289919999998,621.3219235840002 194.55289919999998C621.3219235840002 194.55289919999998,621.4331203840001 194.55289919999998,621.5257843840001 194.55289919999998C623.1937363840001 194.64556319999997,624.1759747840001 195.73899839999996,624.1759747840001 197.11042559999999C624.1759747840001 197.77760639999997,623.9535811840001 198.53745119999996,623.3975971840001 199.26023039999998C622.3412275840001 200.68725599999996,620.6176771840001 201.46563359999996,619.1165203840001 201.46563359999996C617.9489539840001 201.46563359999996,616.9481827840001 201.00231359999998,616.4663299840001 200.05714079999998C616.3180675840001 199.68648479999996,616.2439363840001 199.33436159999997,616.2439363840001 198.94517279999997C616.2439363840001 196.92509759999996,618.5049379840001 194.68262879999997,621.0995299840001 194.55289919999998">
</path>
</g>
<g class="vf-flag" pointer-events="bounding-box">
<path stroke-width="0.3" fill="#000000" stroke="none" stroke-dasharray="none" d="M623.4259747840001 172.89999999999998M622.9811875840002 175.88378079999998L622.9811875840002 172.992664L623.0553187840001 172.992664C623.2591795840001 172.992664,623.3889091840001 173.12239359999998,623.4259747840001 173.34478719999998C623.8151635840002 175.19806719999997,624.9827299840001 177.21814239999998,626.5950835840001 178.73783199999997C628.3927651840002 180.42431679999999,629.3008723840002 182.74091679999998,629.3008723840002 185.13164799999998C629.3008723840002 187.39264959999997,628.5039619840002 189.74631519999997,626.8916083840002 191.69225919999997C626.6136163840001 192.06291519999996,626.5950835840001 192.06291519999996,626.4097555840001 192.06291519999996C626.1873619840001 192.06291519999996,626.0390995840002 191.89611999999997,626.0390995840002 191.67372639999996C626.0390995840002 191.50693119999997,626.0576323840002 191.4698656,626.2429603840001 191.2660048C627.6514531840002 189.56098719999997,628.3556995840001 187.5038464,628.3556995840001 185.5393696C628.3556995840001 183.7972864,627.7997155840001 182.12933439999998,626.6506819840001 180.86910399999996C625.9464355840001 180.09072639999997,624.6491395840001 179.34941439999997,622.9997203840002 178.77489759999997C622.9997203840002 178.75636479999997,622.9811875840002 178.18184799999997,622.9811875840002 175.88378079999998">
</path>
</g>
</g>
<g class="vf-modifiers">
</g>
</g>
<path stroke-width="1" fill="none" stroke="#000000" stroke-dasharray="none" d="M617.2439363840001 189.74999999999997L630.2439363840001 180.74999999999997Z">
</path>
</g>
</g>
<g class="vf-stavenote" id="vf-auto62267">
<g class="vf-note" pointer-events="bounding-box">
<g class="vf-notehead" pointer-events="bounding-box">
<path stroke-width="0.3" fill="#000000" stroke="none" stroke-dasharray="none" d="M675.271074784 197.99999999999997M682.628034784 192.77711999999997C682.740354784 192.77711999999997,682.908834784 192.77711999999997,682.936914784 192.77711999999997C682.936914784 192.77711999999997,682.964994784 192.77711999999997,682.964994784 192.77711999999997C682.964994784 192.77711999999997,683.133474784 192.77711999999997,683.273874784 192.77711999999997C685.801074784 192.91751999999997,687.289314784 194.57423999999997,687.289314784 196.65215999999998C687.289314784 197.66303999999997,686.952354784 198.81431999999998,686.109954784 199.90943999999996C684.509394784 202.07159999999996,681.897954784 203.25095999999996,679.623474784 203.25095999999996C677.854434784 203.25095999999996,676.338114784 202.54895999999997,675.608034784 201.11687999999998C675.383394784 200.55527999999998,675.271074784 200.02175999999997,675.271074784 199.43207999999998C675.271074784 196.37135999999998,678.696834784 192.97367999999997,682.628034784 192.77711999999997">
</path>
</g>
</g>
<g class="vf-modifiers">
</g>
</g>
<g class="vf-stavenote" id="vf-auto62277">
<g class="vf-note" pointer-events="bounding-box">
<g class="vf-notehead" pointer-events="bounding-box">
<path stroke-width="0.3" fill="#000000" stroke="none" stroke-dasharray="none" d="M734.298213184 197.99999999999997M741.655173184 192.77711999999997C741.767493184 192.77711999999997,741.935973184 192.77711999999997,741.964053184 192.77711999999997C741.964053184 192.77711999999997,741.9921331840001 192.77711999999997,741.9921331840001 192.77711999999997C741.9921331840001 192.77711999999997,742.160613184 192.77711999999997,742.301013184 192.77711999999997C744.828213184 192.91751999999997,746.316453184 194.57423999999997,746.316453184 196.65215999999998C746.316453184 197.66303999999997,745.979493184 198.81431999999998,745.137093184 199.90943999999996C743.5365331840001 202.07159999999996,740.925093184 203.25095999999996,738.650613184 203.25095999999996C736.881573184 203.25095999999996,735.365253184 202.54895999999997,734.635173184 201.11687999999998C734.410533184 200.55527999999998,734.298213184 200.02175999999997,734.298213184 199.43207999999998C734.298213184 196.37135999999998,737.723973184 192.97367999999997,741.655173184 192.77711999999997">
</path>
</g>
</g>
<g class="vf-modifiers">
<g class="vf-stavenote" id="vf-auto62287">
<g class="vf-note" pointer-events="bounding-box">
<g class="vf-stem" pointer-events="bounding-box">
<path stroke-width="1.5" fill="none" stroke="#000000" stroke-dasharray="none" d="M715.616174784 197.99999999999997L715.616174784 174.89999999999998">
</path>
</g>
<g class="vf-notehead" pointer-events="bounding-box">
<path stroke-width="0.3" fill="#000000" stroke="none" stroke-dasharray="none" d="M708.434136384 197.99999999999997M713.289729984 194.55289919999998C713.363861184 194.55289919999998,713.475057984 194.55289919999998,713.493590784 194.55289919999998C713.493590784 194.55289919999998,713.512123584 194.55289919999998,713.512123584 194.55289919999998C713.512123584 194.55289919999998,713.623320384 194.55289919999998,713.715984384 194.55289919999998C715.383936384 194.64556319999997,716.366174784 195.73899839999996,716.366174784 197.11042559999999C716.366174784 197.77760639999997,716.143781184 198.53745119999996,715.587797184 199.26023039999998C714.531427584 200.68725599999996,712.807877184 201.46563359999996,711.306720384 201.46563359999996C710.139153984 201.46563359999996,709.138382784 201.00231359999998,708.656529984 200.05714079999998C708.508267584 199.68648479999996,708.434136384 199.33436159999997,708.434136384 198.94517279999997C708.434136384 196.92509759999996,710.695137984 194.68262879999997,713.289729984 194.55289919999998">
</path>
</g>
<g class="vf-flag" pointer-events="bounding-box">
<path stroke-width="0.3" fill="#000000" stroke="none" stroke-dasharray="none" d="M715.616174784 172.89999999999998M715.1713875840001 175.88378079999998L715.1713875840001 172.992664L715.245518784 172.992664C715.449379584 172.992664,715.579109184 173.12239359999998,715.616174784 173.34478719999998C716.0053635840001 175.19806719999997,717.172929984 177.21814239999998,718.785283584 178.73783199999997C720.582965184 180.42431679999999,721.4910723840001 182.74091679999998,721.4910723840001 185.13164799999998C721.4910723840001 187.39264959999997,720.6941619840001 189.74631519999997,719.081808384 191.69225919999997C718.803816384 192.06291519999996,718.785283584 192.06291519999996,718.599955584 192.06291519999996C718.377561984 192.06291519999996,718.229299584 191.89611999999997,718.229299584 191.67372639999996C718.229299584 191.50693119999997,718.247832384 191.4698656,718.433160384 191.2660048C719.841653184 189.56098719999997,720.545899584 187.5038464,720.545899584 185.5393696C720.545899584 183.7972864,719.989915584 182.12933439999998,718.840881984 180.86910399999996C718.136635584 180.09072639999997,716.839339584 179.34941439999997,715.1899203840001 178.77489759999997C715.1899203840001 178.75636479999997,715.1713875840001 178.18184799999997,715.1713875840001 175.88378079999998">
</path>
</g>
</g>
<g class="vf-modifiers">
</g>
</g>
<path stroke-width="1" fill="none" stroke="#000000" stroke-dasharray="none" d="M709.434136384 189.74999999999997L722.434136384 180.74999999999997Z">
</path>
</g>
</g>
<g class="vf-stavenote" id="vf-auto62301">
<g class="vf-note" pointer-events="bounding-box">
<g class="vf-notehead" pointer-events="bounding-box">
<path stroke-width="0.3" fill="#000000" stroke="none" stroke-dasharray="none" d="M767.461274784 197.99999999999997M774.818234784 192.77711999999997C774.930554784 192.77711999999997,775.099034784 192.77711999999997,775.127114784 192.77711999999997C775.127114784 192.77711999999997,775.1551947840001 192.77711999999997,775.1551947840001 192.77711999999997C775.1551947840001 192.77711999999997,775.323674784 192.77711999999997,775.464074784 192.77711999999997C777.991274784 192.91751999999997,779.479514784 194.57423999999997,779.479514784 196.65215999999998C779.479514784 197.66303999999997,779.142554784 198.81431999999998,778.300154784 199.90943999999996C776.699594784 202.07159999999996,774.088154784 203.25095999999996,771.813674784 203.25095999999996C770.044634784 203.25095999999996,768.528314784 202.54895999999997,767.798234784 201.11687999999998C767.573594784 200.55527999999998,767.461274784 200.02175999999997,767.461274784 199.43207999999998C767.461274784 196.37135999999998,770.887034784 192.97367999999997,774.818234784 192.77711999999997">
</path>
</g>
</g>
<g class="vf-modifiers">
</g>
</g>
<g class="vf-stavenote" id="vf-auto62311">
<g class="vf-note" pointer-events="bounding-box">
<g class="vf-notehead" pointer-events="bounding-box">
<path stroke-width="0.3" fill="#000000" stroke="none" stroke-dasharray="none" d="M826.4884131839999 197.99999999999997M833.8453731839999 192.77711999999997C833.9576931839999 192.77711999999997,834.1261731839999 192.77711999999997,834.1542531839999 192.77711999999997C834.1542531839999 192.77711999999997,834.182333184 192.77711999999997,834.182333184 192.77711999999997C834.182333184 192.77711999999997,834.3508131839999 192.77711999999997,834.4912131839999 192.77711999999997C837.0184131839999 192.91751999999997,838.5066531839999 194.57423999999997,838.5066531839999 196.65215999999998C838.5066531839999 197.66303999999997,838.1696931839999 198.81431999999998,837.3272931839999 199.90943999999996C835.726733184 202.07159999999996,833.1152931839999 203.25095999999996,830.8408131839999 203.25095999999996C829.0717731839999 203.25095999999996,827.5554531839999 202.54895999999997,826.8253731839999 201.11687999999998C826.6007331839999 200.55527999999998,826.4884131839999 200.02175999999997,826.4884131839999 199.43207999999998C826.4884131839999 196.37135999999998,829.9141731839999 192.97367999999997,833.8453731839999 192.77711999999997">
</path>
</g>
</g>
<g class="vf-modifiers">
<g class="vf-stavenote" id="vf-auto62321">
<g class="vf-note" pointer-events="bounding-box">
<g class="vf-stem" pointer-events="bounding-box">
<path stroke-width="1.5" fill="none" stroke="#000000" stroke-dasharray="none" d="M807.8063747839999 197.99999999999997L807.8063747839999 174.89999999999998">
</path>
</g>
<g class="vf-notehead" pointer-events="bounding-box">
<path stroke-width="0.3" fill="#000000" stroke="none" stroke-dasharray="none" d="M800.6243363839999 197.99999999999997M805.4799299839999 194.55289919999998C805.5540611839999 194.55289919999998,805.6652579839999 194.55289919999998,805.6837907839999 194.55289919999998C805.6837907839999 194.55289919999998,805.7023235839999 194.55289919999998,805.7023235839999 194.55289919999998C805.7023235839999 194.55289919999998,805.8135203839998 194.55289919999998,805.9061843839999 194.55289919999998C807.5741363839999 194.64556319999997,808.5563747839999 195.73899839999996,808.5563747839999 197.11042559999999C808.5563747839999 197.77760639999997,808.3339811839999 198.53745119999996,807.7779971839999 199.26023039999998C806.7216275839999 200.68725599999996,804.9980771839998 201.46563359999996,803.4969203839998 201.46563359999996C802.3293539839999 201.46563359999996,801.3285827839999 201.00231359999998,800.8467299839999 200.05714079999998C800.6984675839999 199.68648479999996,800.6243363839999 199.33436159999997,800.6243363839999 198.94517279999997C800.6243363839999 196.92509759999996,802.8853379839999 194.68262879999997,805.4799299839999 194.55289919999998">
</path>
</g>
<g class="vf-flag" pointer-events="bounding-box">
<path stroke-width="0.3" fill="#000000" stroke="none" stroke-dasharray="none" d="M807.8063747839999 172.89999999999998M807.361587584 175.88378079999998L807.361587584 172.992664L807.4357187839998 172.992664C807.6395795839999 172.992664,807.7693091839999 173.12239359999998,807.8063747839999 173.34478719999998C808.195563584 175.19806719999997,809.3631299839999 177.21814239999998,810.9754835839999 178.73783199999997C812.7731651839999 180.42431679999999,813.681272384 182.74091679999998,813.681272384 185.13164799999998C813.681272384 187.39264959999997,812.884361984 189.74631519999997,811.272008384 191.69225919999997C810.9940163839999 192.06291519999996,810.9754835839999 192.06291519999996,810.7901555839999 192.06291519999996C810.5677619839998 192.06291519999996,810.4194995839999 191.89611999999997,810.4194995839999 191.67372639999996C810.4194995839999 191.50693119999997,810.4380323839999 191.4698656,810.6233603839999 191.2660048C812.0318531839999 189.56098719999997,812.7360995839999 187.5038464,812.7360995839999 185.5393696C812.7360995839999 183.7972864,812.1801155839999 182.12933439999998,811.0310819839999 180.86910399999996C810.3268355839999 180.09072639999997,809.0295395839998 179.34941439999997,807.380120384 178.77489759999997C807.380120384 178.75636479999997,807.361587584 178.18184799999997,807.361587584 175.88378079999998">
</path>
</g>
</g>
<g class="vf-modifiers">
</g>
</g>
<path stroke-width="1" fill="none" stroke="#000000" stroke-dasharray="none" d="M801.6243363839999 189.74999999999997L814.6243363839999 180.74999999999997Z">
</path>
</g>
</g>
<g class="vf-stavenote" id="vf-auto62335">
<g class="vf-note" pointer-events="bounding-box">
<g class="vf-notehead" pointer-events="bounding-box">
<path stroke-width="0.3" fill="#000000" stroke="none" stroke-dasharray="none" d="M859.6514747839999 197.99999999999997M867.0084347839999 192.77711999999997C867.1207547839999 192.77711999999997,867.2892347839999 192.77711999999997,867.3173147839999 192.77711999999997C867.3173147839999 192.77711999999997,867.345394784 192.77711999999997,867.345394784 192.77711999999997C867.345394784 192.77711999999997,867.5138747839999 192.77711999999997,867.6542747839999 192.77711999999997C870.1814747839999 192.91751999999997,871.6697147839999 194.57423999999997,871.6697147839999 196.65215999999998C871.6697147839999 197.66303999999997,871.3327547839999 198.81431999999998,870.4903547839999 199.90943999999996C868.889794784 202.07159999999996,866.2783547839999 203.25095999999996,864.0038747839999 203.25095999999996C862.2348347839999 203.25095999999996,860.7185147839999 202.54895999999997,859.9884347839999 201.11687999999998C859.7637947839999 200.55527999999998,859.6514747839999 200.02175999999997,859.6514747839999 199.43207999999998C859.6514747839999 196.37135999999998,863.0772347839999 192.97367999999997,867.0084347839999 192.77711999999997">
</path>
</g>
</g>
<g class="vf-modifiers">
</g>
</g>
<g class="vf-stavenote" id="vf-auto62345">
<g class="vf-note" pointer-events="bounding-box">
<g class="vf-notehead" pointer-events="bounding-box">
<path stroke-width="0.3" fill="#000000" stroke="none" stroke-dasharray="none" d="M918.6786131839999 197.99999999999997M926.0355731839999 192.77711999999997C926.1478931839999 192.77711999999997,926.3163731839999 192.77711999999997,926.3444531839999 192.77711999999997C926.3444531839999 192.77711999999997,926.372533184 192.77711999999997,926.372533184 192.77711999999997C926.372533184 192.77711999999997,926.5410131839999 192.77711999999997,926.6814131839999 192.77711999999997C929.2086131839999 192.91751999999997,930.6968531839999 194.57423999999997,930.6968531839999 196.65215999999998C930.6968531839999 197.66303999999997,930.3598931839999 198.81431999999998,929.5174931839999 199.90943999999996C927.916933184 202.07159999999996,925.3054931839999 203.25095999999996,923.0310131839999 203.25095999999996C921.2619731839999 203.25095999999996,919.7456531839999 202.54895999999997,919.0155731839999 201.11687999999998C918.7909331839999 200.55527999999998,918.6786131839999 200.02175999999997,918.6786131839999 199.43207999999998C918.6786131839999 196.37135999999998,922.1043731839999 192.97367999999997,926.0355731839999 192.77711999999997">
</path>
</g>
</g>
<g class="vf-modifiers">
<g class="vf-stavenote" id="vf-auto62355">
<g class="vf-note" pointer-events="bounding-box">
<g class="vf-stem" pointer-events="bounding-box">
<path stroke-width="1.5" fill="none" stroke="#000000" stroke-dasharray="none" d="M899.9965747839999 197.99999999999997L899.9965747839999 174.89999999999998">
</path>
</g>
<g class="vf-notehead" pointer-events="bounding-box">
<path stroke-width="0.3" fill="#000000" stroke="none" stroke-dasharray="none" d="M892.8145363839999 197.99999999999997M897.6701299839999 194.55289919999998C897.7442611839999 194.55289919999998,897.8554579839999 194.55289919999998,897.873990784 194.55289919999998C897.873990784 194.55289919999998,897.892523584 194.55289919999998,897.892523584 194.55289919999998C897.892523584 194.55289919999998,898.0037203839998 194.55289919999998,898.0963843839999 194.55289919999998C899.7643363839999 194.64556319999997,900.7465747839999 195.73899839999996,900.7465747839999 197.11042559999999C900.7465747839999 197.77760639999997,900.5241811839999 198.53745119999996,899.9681971839999 199.26023039999998C898.9118275839999 200.68725599999996,897.1882771839998 201.46563359999996,895.6871203839999 201.46563359999996C894.5195539839999 201.46563359999996,893.5187827839999 201.00231359999998,893.0369299839999 200.05714079999998C892.8886675839999 199.68648479999996,892.8145363839999 199.33436159999997,892.8145363839999 198.94517279999997C892.8145363839999 196.92509759999996,895.0755379839999 194.68262879999997,897.6701299839999 194.55289919999998">
</path>
</g>
<g class="vf-flag" pointer-events="bounding-box">
<path stroke-width="0.3" fill="#000000" stroke="none" stroke-dasharray="none" d="M899.9965747839999 172.89999999999998M899.551787584 175.88378079999998L899.551787584 172.992664L899.6259187839999 172.992664C899.8297795839999 172.992664,899.9595091839999 173.12239359999998,899.9965747839999 173.34478719999998C900.385763584 175.19806719999997,901.5533299839999 177.21814239999998,903.1656835839999 178.73783199999997C904.9633651839999 180.42431679999999,905.871472384 182.74091679999998,905.871472384 185.13164799999998C905.871472384 187.39264959999997,905.074561984 189.74631519999997,903.462208384 191.69225919999997C903.1842163839999 192.06291519999996,903.1656835839999 192.06291519999996,902.9803555839999 192.06291519999996C902.7579619839998 192.06291519999996,902.6096995839999 191.89611999999997,902.6096995839999 191.67372639999996C902.6096995839999 191.50693119999997,902.628232384 191.4698656,902.8135603839999 191.2660048C904.222053184 189.56098719999997,904.9262995839999 187.5038464,904.9262995839999 185.5393696C904.9262995839999 183.7972864,904.3703155839999 182.12933439999998,903.2212819839999 180.86910399999996C902.5170355839999 180.09072639999997,901.2197395839999 179.34941439999997,899.570320384 178.77489759999997C899.570320384 178.75636479999997,899.551787584 178.18184799999997,899.551787584 175.88378079999998">
</path>
</g>
</g>
<g class="vf-modifiers">
</g>
</g>
<path stroke-width="1" fill="none" stroke="#000000" stroke-dasharray="none" d="M893.8145363839999 189.74999999999997L906.8145363839999 180.74999999999997Z">
</path>
</g>
</g>
<g class="vf-stavenote" id="vf-auto62369">
<g class="vf-note" pointer-events="bounding-box">
<g class="vf-notehead" pointer-events="bounding-box">
<path stroke-width="0.3" fill="#000000" stroke="none" stroke-dasharray="none" d="M951.8416747839999 197.99999999999997M959.1986347839999 192.77711999999997C959.3109547839999 192.77711999999997,959.4794347839999 192.77711999999997,959.5075147839999 192.77711999999997C959.5075147839999 192.77711999999997,959.535594784 192.77711999999997,959.535594784 192.77711999999997C959.535594784 192.77711999999997,959.7040747839999 192.77711999999997,959.8444747839999 192.77711999999997C962.3716747839999 192.91751999999997,963.8599147839999 194.57423999999997,963.8599147839999 196.65215999999998C963.8599147839999 197.66303999999997,963.5229547839999 198.81431999999998,962.6805547839999 199.90943999999996C961.079994784 202.07159999999996,958.4685547839999 203.25095999999996,956.1940747839999 203.25095999999996C954.4250347839999 203.25095999999996,952.9087147839999 202.54895999999997,952.1786347839999 201.11687999999998C951.9539947839999 200.55527999999998,951.8416747839999 200.02175999999997,951.8416747839999 199.43207999999998C951.8416747839999 196.37135999999998,955.2674347839999 192.97367999999997,959.1986347839999 192.77711999999997">
</path>
</g>
</g>
<g class="vf-modifiers">
</g>
</g>
<g class="vf-stavenote" id="vf-auto62379">
<g class="vf-note" pointer-events="bounding-box">
<g class="vf-notehead" pointer-events="bounding-box">
<path stroke-width="0.3" fill="#000000" stroke="none" stroke-dasharray="none" d="M1010.8688131839999 197.99999999999997M1018.2257731839999 192.77711999999997C1018.338093184 192.77711999999997,1018.5065731839999 192.77711999999997,1018.5346531839999 192.77711999999997C1018.5346531839999 192.77711999999997,1018.562733184 192.77711999999997,1018.562733184 192.77711999999997C1018.562733184 192.77711999999997,1018.7312131839999 192.77711999999997,1018.8716131839999 192.77711999999997C1021.3988131839999 192.91751999999997,1022.8870531839999 194.57423999999997,1022.8870531839999 196.65215999999998C1022.8870531839999 197.66303999999997,1022.5500931839999 198.81431999999998,1021.7076931839999 199.90943999999996C1020.107133184 202.07159999999996,1017.495693184 203.25095999999996,1015.2212131839999 203.25095999999996C1013.4521731839999 203.25095999999996,1011.9358531839999 202.54895999999997,1011.2057731839999 201.11687999999998C1010.9811331839999 200.55527999999998,1010.8688131839999 200.02175999999997,1010.8688131839999 199.43207999999998C1010.8688131839999 196.37135999999998,1014.2945731839999 192.97367999999997,1018.2257731839999 192.77711999999997">
</path>
</g>
</g>
<g class="vf-modifiers">
<g class="vf-stavenote" id="vf-auto62389">
<g class="vf-note" pointer-events="bounding-box">
<g class="vf-stem" pointer-events="bounding-box">
<path stroke-width="1.5" fill="none" stroke="#000000" stroke-dasharray="none" d="M992.1867747839999 197.99999999999997L992.1867747839999 174.89999999999998">
</path>
</g>
<g class="vf-notehead" pointer-events="bounding-box">
<path stroke-width="0.3" fill="#000000" stroke="none" stroke-dasharray="none" d="M985.0047363839999 197.99999999999997M989.8603299839999 194.55289919999998C989.9344611839999 194.55289919999998,990.045657984 194.55289919999998,990.064190784 194.55289919999998C990.064190784 194.55289919999998,990.082723584 194.55289919999998,990.082723584 194.55289919999998C990.082723584 194.55289919999998,990.1939203839999 194.55289919999998,990.2865843839999 194.55289919999998C991.9545363839999 194.64556319999997,992.9367747839999 195.73899839999996,992.9367747839999 197.11042559999999C992.9367747839999 197.77760639999997,992.7143811839999 198.53745119999996,992.1583971839999 199.26023039999998C991.1020275839999 200.68725599999996,989.3784771839998 201.46563359999996,987.8773203839999 201.46563359999996C986.7097539839999 201.46563359999996,985.7089827839999 201.00231359999998,985.2271299839999 200.05714079999998C985.0788675839999 199.68648479999996,985.0047363839999 199.33436159999997,985.0047363839999 198.94517279999997C985.0047363839999 196.92509759999996,987.2657379839999 194.68262879999997,989.8603299839999 194.55289919999998">
</path>
</g>
<g class="vf-flag" pointer-events="bounding-box">
<path stroke-width="0.3" fill="#000000" stroke="none" stroke-dasharray="none" d="M992.1867747839999 172.89999999999998M991.741987584 175.88378079999998L991.741987584 172.992664L991.8161187839999 172.992664C992.0199795839999 172.992664,992.1497091839999 173.12239359999998,992.1867747839999 173.34478719999998C992.575963584 175.19806719999997,993.7435299839999 177.21814239999998,995.3558835839999 178.73783199999997C997.153565184 180.42431679999999,998.061672384 182.74091679999998,998.061672384 185.13164799999998C998.061672384 187.39264959999997,997.264761984 189.74631519999997,995.652408384 191.69225919999997C995.3744163839999 192.06291519999996,995.3558835839999 192.06291519999996,995.1705555839999 192.06291519999996C994.9481619839999 192.06291519999996,994.799899584 191.89611999999997,994.799899584 191.67372639999996C994.799899584 191.50693119999997,994.818432384 191.4698656,995.0037603839999 191.2660048C996.412253184 189.56098719999997,997.1164995839999 187.5038464,997.1164995839999 185.5393696C997.1164995839999 183.7972864,996.5605155839999 182.12933439999998,995.4114819839999 180.86910399999996C994.7072355839999 180.09072639999997,993.4099395839999 179.34941439999997,991.760520384 178.77489759999997C991.760520384 178.75636479999997,991.741987584 178.18184799999997,991.741987584 175.88378079999998">
</path>
</g>
</g>
<g class="vf-modifiers">
</g>
</g>
<path stroke-width="1" fill="none" stroke="#000000" stroke-dasharray="none" d="M986.0047363839999 189.74999999999997L999.0047363839999 180.74999999999997Z">
</path>
</g>
</g>
<g class="vf-stavenote" id="vf-auto62403">
<g class="vf-note" pointer-events="bounding-box">
<g class="vf-notehead" pointer-events="bounding-box">
<path stroke-width="0.3" fill="#000000" stroke="none" stroke-dasharray="none" d="M1044.031874784 197.99999999999997M1051.388834784 192.77711999999997C1051.501154784 192.77711999999997,1051.669634784 192.77711999999997,1051.6977147839998 192.77711999999997C1051.6977147839998 192.77711999999997,1051.7257947839998 192.77711999999997,1051.7257947839998 192.77711999999997C1051.7257947839998 192.77711999999997,1051.894274784 192.77711999999997,1052.034674784 192.77711999999997C1054.5618747839999 192.91751999999997,1056.050114784 194.57423999999997,1056.050114784 196.65215999999998C1056.050114784 197.66303999999997,1055.713154784 198.81431999999998,1054.870754784 199.90943999999996C1053.2701947839998 202.07159999999996,1050.658754784 203.25095999999996,1048.384274784 203.25095999999996C1046.615234784 203.25095999999996,1045.0989147839998 202.54895999999997,1044.368834784 201.11687999999998C1044.1441947839999 200.55527999999998,1044.031874784 200.02175999999997,1044.031874784 199.43207999999998C1044.031874784 196.37135999999998,1047.457634784 192.97367999999997,1051.388834784 192.77711999999997">
</path>
</g>
</g>
<g class="vf-modifiers">
</g>
</g>
<g class="vf-stavenote" id="vf-auto62413">
<g class="vf-note" pointer-events="bounding-box">
<g class="vf-notehead" pointer-events="bounding-box">
<path stroke-width="0.3" fill="#000000" stroke="none" stroke-dasharray="none" d="M1103.059013184 197.99999999999997M1110.415973184 192.77711999999997C1110.528293184 192.77711999999997,1110.696773184 192.77711999999997,1110.7248531839998 192.77711999999997C1110.7248531839998 192.77711999999997,1110.7529331839999 192.77711999999997,1110.7529331839999 192.77711999999997C1110.7529331839999 192.77711999999997,1110.921413184 192.77711999999997,1111.061813184 192.77711999999997C1113.589013184 192.91751999999997,1115.077253184 194.57423999999997,1115.077253184 196.65215999999998C1115.077253184 197.66303999999997,1114.740293184 198.81431999999998,1113.897893184 199.90943999999996C1112.2973331839999 202.07159999999996,1109.685893184 203.25095999999996,1107.411413184 203.25095999999996C1105.642373184 203.25095999999996,1104.1260531839998 202.54895999999997,1103.395973184 201.11687999999998C1103.1713331839999 200.55527999999998,1103.059013184 200.02175999999997,1103.059013184 199.43207999999998C1103.059013184 196.37135999999998,1106.484773184 192.97367999999997,1110.415973184 192.77711999999997">
</path>
</g>
</g>
<g class="vf-modifiers">
<g class="vf-stavenote" id="vf-auto62423">
<g class="vf-note" pointer-events="bounding-box">
<g class="vf-stem" pointer-events="bounding-box">
<path stroke-width="1.5" fill="none" stroke="#000000" stroke-dasharray="none" d="M1084.376974784 197.99999999999997L1084.376974784 174.89999999999998">
</path>
</g>
<g class="vf-notehead" pointer-events="bounding-box">
<path stroke-width="0.3" fill="#000000" stroke="none" stroke-dasharray="none" d="M1077.194936384 197.99999999999997M1082.050529984 194.55289919999998C1082.124661184 194.55289919999998,1082.235857984 194.55289919999998,1082.254390784 194.55289919999998C1082.254390784 194.55289919999998,1082.272923584 194.55289919999998,1082.272923584 194.55289919999998C1082.272923584 194.55289919999998,1082.384120384 194.55289919999998,1082.476784384 194.55289919999998C1084.144736384 194.64556319999997,1085.126974784 195.73899839999996,1085.126974784 197.11042559999999C1085.126974784 197.77760639999997,1084.9045811839999 198.53745119999996,1084.3485971839998 199.26023039999998C1083.2922275839999 200.68725599999996,1081.5686771839999 201.46563359999996,1080.0675203839999 201.46563359999996C1078.899953984 201.46563359999996,1077.899182784 201.00231359999998,1077.417329984 200.05714079999998C1077.269067584 199.68648479999996,1077.194936384 199.33436159999997,1077.194936384 198.94517279999997C1077.194936384 196.92509759999996,1079.455937984 194.68262879999997,1082.050529984 194.55289919999998">
</path>
</g>
<g class="vf-flag" pointer-events="bounding-box">
<path stroke-width="0.3" fill="#000000" stroke="none" stroke-dasharray="none" d="M1084.376974784 172.89999999999998M1083.9321875839998 175.88378079999998L1083.9321875839998 172.992664L1084.0063187839999 172.992664C1084.210179584 172.992664,1084.339909184 173.12239359999998,1084.376974784 173.34478719999998C1084.766163584 175.19806719999997,1085.933729984 177.21814239999998,1087.546083584 178.73783199999997C1089.343765184 180.42431679999999,1090.2518723839999 182.74091679999998,1090.2518723839999 185.13164799999998C1090.2518723839999 187.39264959999997,1089.454961984 189.74631519999997,1087.842608384 191.69225919999997C1087.564616384 192.06291519999996,1087.546083584 192.06291519999996,1087.360755584 192.06291519999996C1087.1383619839999 192.06291519999996,1086.9900995839998 191.89611999999997,1086.9900995839998 191.67372639999996C1086.9900995839998 191.50693119999997,1087.0086323839998 191.4698656,1087.1939603839999 191.2660048C1088.6024531839998 189.56098719999997,1089.306699584 187.5038464,1089.306699584 185.5393696C1089.306699584 183.7972864,1088.7507155839999 182.12933439999998,1087.601681984 180.86910399999996C1086.8974355839998 180.09072639999997,1085.6001395839999 179.34941439999997,1083.9507203839999 178.77489759999997C1083.9507203839999 178.75636479999997,1083.9321875839998 178.18184799999997,1083.9321875839998 175.88378079999998">
</path>
</g>
</g>
<g class="vf-modifiers">
</g>
</g>
<path stroke-width="1" fill="none" stroke="#000000" stroke-dasharray="none" d="M1078.194936384 189.74999999999997L1091.194936384 180.74999999999997Z">
</path>
</g>
</g>
<g class="vf-stavenote" id="vf-auto62437">
<g class="vf-note" pointer-events="bounding-box">
<g class="vf-notehead" pointer-events="bounding-box">
<path stroke-width="0.3" fill="#000000" stroke="none" stroke-dasharray="none" d="M1136.222074784 197.99999999999997M1143.579034784 192.77711999999997C1143.691354784 192.77711999999997,1143.859834784 192.77711999999997,1143.8879147839998 192.77711999999997C1143.8879147839998 192.77711999999997,1143.9159947839998 192.77711999999997,1143.9159947839998 192.77711999999997C1143.9159947839998 192.77711999999997,1144.084474784 192.77711999999997,1144.224874784 192.77711999999997C1146.752074784 192.91751999999997,1148.240314784 194.57423999999997,1148.240314784 196.65215999999998C1148.240314784 197.66303999999997,1147.903354784 198.81431999999998,1147.060954784 199.90943999999996C1145.4603947839998 202.07159999999996,1142.848954784 203.25095999999996,1140.574474784 203.25095999999996C1138.805434784 203.25095999999996,1137.2891147839998 202.54895999999997,1136.559034784 201.11687999999998C1136.3343947839999 200.55527999999998,1136.222074784 200.02175999999997,1136.222074784 199.43207999999998C1136.222074784 196.37135999999998,1139.647834784 192.97367999999997,1143.579034784 192.77711999999997">
</path>
</g>
</g>
<g class="vf-modifiers">
</g>
</g>
<path stroke-width="1.5" fill="none" stroke="#000000" stroke-dasharray="none" d="M468.99585318400005 197.99999999999997L468.99585318400005 163.74999999999997">
</path>
<path stroke-width="1.5" fill="none" stroke="#000000" stroke-dasharray="none" d="M502.15891478400005 197.99999999999997L502.15891478400005 163.74999999999997">
</path>
<path stroke-width="1.5" fill="none" stroke="#000000" stroke-dasharray="none" d="M561.186053184 197.99999999999997L561.186053184 163.74999999999997">
</path>
<path stroke-width="1.5" fill="none" stroke="#000000" stroke-dasharray="none" d="M594.3491147840001 197.99999999999997L594.3491147840001 163.74999999999997">
</path>
<path stroke-width="0.3" fill="#000000" stroke="none" stroke-dasharray="none" d="M468.24585318400005 162.99999999999997L468.24585318400005 167.99999999999997L594.5991147840001 167.99999999999997L594.5991147840001 162.99999999999997Z">
</path>
<path stroke-width="0.3" fill="#000000" stroke="none" stroke-dasharray="none" d="M468.24585318400005 170.49999999999997L468.24585318400005 175.49999999999997L594.5991147840001 175.49999999999997L594.5991147840001 170.49999999999997Z">
</path>
<path stroke-width="1.5" fill="none" stroke="#000000" stroke-dasharray="none" d="M653.376253184 197.99999999999997L653.376253184 163.74999999999997">
</path>
<path stroke-width="1.5" fill="none" stroke="#000000" stroke-dasharray="none" d="M686.539314784 197.99999999999997L686.539314784 163.74999999999997">
</path>
<path stroke-width="1.5" fill="none" stroke="#000000" stroke-dasharray="none" d="M745.566453184 197.99999999999997L745.566453184 163.74999999999997">
</path>
<path stroke-width="1.5" fill="none" stroke="#000000" stroke-dasharray="none" d="M778.729514784 197.99999999999997L778.729514784 163.74999999999997">
</path>
<path stroke-width="0.3" fill="#000000" stroke="none" stroke-dasharray="none" d="M652.626253184 162.99999999999997L652.626253184 167.99999999999997L778.979514784 167.99999999999997L778.979514784 162.99999999999997Z">
</path>
<path stroke-width="0.3" fill="#000000" stroke="none" stroke-dasharray="none" d="M652.626253184 170.49999999999997L652.626253184 175.49999999999997L778.979514784 175.49999999999997L778.979514784 170.49999999999997Z">
</path>
<path stroke-width="1.5" fill="none" stroke="#000000" stroke-dasharray="none" d="M837.7566531839999 197.99999999999997L837.7566531839999 163.74999999999997">
</path>
<path stroke-width="1.5" fill="none" stroke="#000000" stroke-dasharray="none" d="M870.9197147839999 197.99999999999997L870.9197147839999 163.74999999999997">
</path>
<path stroke-width="1.5" fill="none" stroke="#000000" stroke-dasharray="none" d="M929.9468531839999 197.99999999999997L929.9468531839999 163.74999999999997">
</path>
<path stroke-width="1.5" fill="none" stroke="#000000" stroke-dasharray="none" d="M963.1099147839999 197.99999999999997L963.1099147839999 163.74999999999997">
</path>
<path stroke-width="0.3" fill="#000000" stroke="none" stroke-dasharray="none" d="M837.0066531839999 162.99999999999997L837.0066531839999 167.99999999999997L963.3599147839999 167.99999999999997L963.3599147839999 162.99999999999997Z">
</path>
<path stroke-width="0.3" fill="#000000" stroke="none" stroke-dasharray="none" d="M837.0066531839999 170.49999999999997L837.0066531839999 175.49999999999997L963.3599147839999 175.49999999999997L963.3599147839999 170.49999999999997Z">
</path>
<path stroke-width="1.5" fill="none" stroke="#000000" stroke-dasharray="none" d="M1022.1370531839999 197.99999999999997L1022.1370531839999 163.74999999999997">
</path>
<path stroke-width="1.5" fill="none" stroke="#000000" stroke-dasharray="none" d="M1055.300114784 197.99999999999997L1055.300114784 163.74999999999997">
</path>
<path stroke-width="1.5" fill="none" stroke="#000000" stroke-dasharray="none" d="M1114.327253184 197.99999999999997L1114.327253184 163.74999999999997">
</path>
<path stroke-width="1.5" fill="none" stroke="#000000" stroke-dasharray="none" d="M1147.490314784 197.99999999999997L1147.490314784 163.74999999999997">
</path>
<path stroke-width="0.3" fill="#000000" stroke="none" stroke-dasharray="none" d="M1021.3870531839999 162.99999999999997L1021.3870531839999 167.99999999999997L1147.740314784 167.99999999999997L1147.740314784 162.99999999999997Z">
</path>
<path stroke-width="0.3" fill="#000000" stroke="none" stroke-dasharray="none" d="M1021.3870531839999 170.49999999999997L1021.3870531839999 175.49999999999997L1147.740314784 175.49999999999997L1147.740314784 170.49999999999997Z">
</path>
</svg>