<svg width="1536" height="331.99999999999994" viewBox="0 0 1536 331.99999999999994">
<path stroke-width="1" fill="none" stroke="black" stroke-dasharray="none" d="M50 197.99999999999997L401.385136384 197.99999999999997">
</path>
<rect stroke-width="0.3" fill="black" stroke="black" stroke-dasharray="none" x="401.385136384" y="177.49999999999997" width="1" height="41">
</rect>
<path stroke-width="0.3" fill="black" stroke="none" stroke-dasharray="none" d="M55 197.99999999999997M55 197.99999999999997L55 188.00639999999999L57.1888 188.00639999999999L59.4064 188.00639999999999L59.4064 197.99999999999997L59.4064 208.02239999999998L57.1888 208.02239999999998L55 208.02239999999998L55 197.99999999999997M63.870400000000004 198.02879999999996L63.870400000000004 188.00639999999999L66.1168 188.00639999999999L68.3632 188.00639999999999L68.3632 198.02879999999996L68.3632 208.02239999999998L66.1168 208.02239999999998L63.870400000000004 208.02239999999998L63.870400000000004 198.02879999999996">
</path>
<path stroke-width="0.3" fill="black" stroke="none" stroke-dasharray="none" d="M96.1296 197.99999999999997M101.80319999999999 179.33759999999998C101.91839999999999 179.33759999999998,102.11999999999999 179.33759999999998,102.3504 179.33759999999998C102.8112 179.33759999999998,103.416 179.33759999999998,103.56 179.39519999999996C105.72 179.65439999999998,107.448 180.74879999999996,108.1968 182.27519999999998C108.45599999999999 182.79359999999997,108.57119999999999 183.34079999999997,108.57119999999999 183.91679999999997C108.57119999999999 185.32799999999997,107.7936 186.94079999999997,106.38239999999999 188.15039999999996C105.4032 188.98559999999998,104.42399999999999 189.50399999999996,102.8976 189.99359999999996C100.9104 190.62719999999996,99.21119999999999 191.75039999999998,98.1168 193.10399999999998C98.1168 193.10399999999998,98.1168 193.13279999999997,98.1168 193.13279999999997C98.1168 193.13279999999997,98.1168 193.13279999999997,98.1168 193.13279999999997C98.1168 193.13279999999997,98.2032 193.10399999999998,98.26079999999999 193.01759999999996C99.3552 192.12479999999996,100.824 191.60639999999998,102.1488 191.60639999999998C103.2432 191.60639999999998,104.0208 191.80799999999996,105.0576 192.38399999999996C105.6912 192.70079999999996,106.2672 192.84479999999996,106.81439999999999 192.84479999999996C107.0448 192.84479999999996,107.2752 192.84479999999996,107.53439999999999 192.78719999999998C107.9088 192.70079999999996,108.312 192.41279999999998,108.45599999999999 192.18239999999997C108.5424 191.98079999999996,108.68639999999999 191.89439999999996,108.8592 191.89439999999996C109.08959999999999 191.89439999999996,109.32 192.06719999999999,109.32 192.32639999999998C109.32 192.52799999999996,109.0608 193.24799999999996,108.8304 193.7376C107.9088 195.58079999999998,106.29599999999999 196.73279999999997,104.7408 196.73279999999997C104.62559999999999 196.73279999999997,104.5392 196.73279999999997,104.42399999999999 196.70399999999998C104.0208 196.70399999999998,103.848 196.58879999999996,103.3296 196.24319999999997C102.23519999999999 195.52319999999997,100.8528 195.14879999999997,99.6432 195.14879999999997C99.1248 195.14879999999997,98.664 195.20639999999997,98.232 195.37919999999997C97.65599999999999 195.58079999999998,97.1088 195.92639999999997,96.93599999999999 196.18559999999997C96.8496 196.38719999999998,96.70559999999999 196.44479999999996,96.5328 196.44479999999996C96.3888 196.44479999999996,96.2448 196.38719999999998,96.1584 196.21439999999998L96.10079999999999 196.128L96.10079999999999 195.72479999999996C96.10079999999999 195.37919999999997,96.1296 195.26399999999998,96.1296 195.14879999999997C96.1584 195.06239999999997,96.18719999999999 194.88959999999997,96.18719999999999 194.74559999999997C96.70559999999999 192.32639999999998,98.4624 190.16639999999998,100.8528 189.10079999999996C102.8112 188.17919999999998,104.10719999999999 186.53759999999997,104.3376 184.46399999999997C104.39519999999999 184.29119999999998,104.39519999999999 184.14719999999997,104.39519999999999 183.97439999999997C104.39519999999999 182.13119999999998,103.0128 180.86399999999998,101.0544 180.86399999999998C100.9104 180.86399999999998,100.7376 180.86399999999998,100.5936 180.86399999999998C100.3056 180.89279999999997,100.2192 180.89279999999997,100.2192 180.95039999999997C100.2192 180.95039999999997,100.2192 180.97919999999996,100.3056 181.03679999999997C100.96799999999999 181.41119999999998,101.28479999999999 182.13119999999998,101.28479999999999 182.82239999999996C101.28479999999999 183.71519999999998,100.824 184.55039999999997,99.93119999999999 184.89599999999996C99.6432 184.98239999999998,99.3552 185.01119999999997,99.1248 185.01119999999997C97.9152 185.01119999999997,96.9072 183.97439999999997,96.9072 182.73599999999996C96.9072 182.50559999999996,96.9072 182.27519999999998,96.9648 182.01599999999996C97.3968 180.69119999999998,99.4416 179.59679999999997,101.80319999999999 179.33759999999998M102.696 198.02879999999996L102.75359999999999 198.02879999999996L102.6672 198.02879999999996L102.696 198.02879999999996M102.696 178.61759999999998L102.75359999999999 178.61759999999998L102.6672 178.61759999999998L102.696 178.61759999999998">
</path>
<path stroke-width="0.3" fill="black" stroke="none" stroke-dasharray="none" d="M96 217.99999999999997M101.0112 199.65439999999998C101.04 199.62559999999996,101.4432 199.62559999999996,102.6816 199.62559999999996C103.056 199.62559999999996,103.4592 199.62559999999996,103.9776 199.62559999999996L106.8864 199.62559999999996L106.9728 199.71199999999996C107.1168 199.79839999999996,107.2032 199.94239999999996,107.2032 200.05759999999998C107.2032 200.23039999999997,107.1168 200.34559999999996,107.0016 200.46079999999998C106.9728 200.54719999999998,106.7136 200.77759999999998,106.5408 201.03679999999997L105.0144 202.79359999999997L103.056 205.01119999999997L102.0192 206.19199999999998L100.464 207.97759999999997L98.4192 210.31039999999996C98.0736 210.74239999999998,97.6992 211.08799999999997,97.6992 211.08799999999997C97.6992 211.08799999999997,97.6992 211.08799999999997,97.6992 211.08799999999997C97.6992 211.14559999999997,97.9584 211.14559999999997,100.3488 211.14559999999997L102.9696 211.14559999999997L102.9696 209.27359999999996C102.9696 207.37279999999998,102.9696 207.34399999999997,102.9984 207.31519999999998C103.056 207.22879999999998,103.3152 206.91199999999998,104.3232 205.73119999999997L104.7264 205.29919999999998L105.1296 204.86719999999997L105.7344 204.08959999999996L106.368 203.42719999999997L106.6848 203.02399999999997C106.8 202.85119999999998,106.9728 202.82239999999996,107.1168 202.82239999999996C107.28960000000001 202.82239999999996,107.4336 202.90879999999999,107.52 203.05279999999996C107.5488 203.13919999999996,107.5488 203.19679999999997,107.5488 205.32799999999997C107.5488 205.81759999999997,107.5488 206.42239999999998,107.5488 207.14239999999998L107.5488 211.14559999999997L108.2688 211.14559999999997C108.9312 211.14559999999997,108.96 211.14559999999997,109.0464 211.17439999999996C109.2768 211.26079999999996,109.392 211.49119999999996,109.392 211.75039999999998C109.392 211.89439999999996,109.3632 212.06719999999999,109.248 212.18239999999997C109.0752 212.32639999999998,109.0464 212.32639999999998,108.2688 212.32639999999998L107.5488 212.32639999999998L107.5488 212.81599999999997C107.5776 214.28479999999996,107.8656 214.86079999999998,108.9888 215.46559999999997C109.392 215.66719999999998,109.4784 215.72479999999996,109.4784 216.01279999999997C109.4784 216.21439999999998,109.4208 216.30079999999998,109.2768 216.41599999999997L109.1904 216.44479999999996L105.2448 216.44479999999996L101.328 216.44479999999996L101.2416 216.41599999999997C101.0688 216.30079999999998,101.04 216.21439999999998,101.04 216.01279999999997C101.04 215.72479999999996,101.0688 215.66719999999998,101.5008 215.46559999999997C102.624 214.86079999999998,102.912 214.28479999999996,102.912 212.81599999999997L102.912 212.32639999999998L99.6 212.32639999999998C98.9952 212.38399999999996,98.5056 212.38399999999996,98.1024 212.38399999999996C96.288 212.38399999999996,96.2592 212.32639999999998,96.2304 212.32639999999998C96.0576 212.26879999999997,96 212.09599999999998,96 211.89439999999996C96 211.89439999999996,96 211.89439999999996,96 211.89439999999996C96 211.69279999999998,96 211.69279999999998,96.576 211.0304C98.9952 208.09279999999998,100.6944 203.83039999999997,100.6944 200.43199999999996C100.6944 199.91359999999997,100.7808 199.74079999999998,101.0112 199.65439999999998M102.7392 218.02879999999996L102.768 218.02879999999996L102.6816 218.02879999999996L102.7392 218.02879999999996M102.7392 198.61759999999998L102.768 198.61759999999998L102.6816 198.61759999999998L102.7392 198.61759999999998">
</path>
<g class="vf-stavenote" id="vf-auto56977">
<g class="vf-note" pointer-events="bounding-box">
<g class="vf-notehead" pointer-events="bounding-box">
<path stroke-width="0.3" fill="#000000" stroke="none" stroke-dasharray="none" d="M147.3424768 197.99999999999997M154.69943679999997 192.77711999999997C154.81175679999998 192.77711999999997,154.9802368 192.77711999999997,155.0083168 192.77711999999997C155.0083168 192.77711999999997,155.03639679999998 192.77711999999997,155.03639679999998 192.77711999999997C155.03639679999998 192.77711999999997,155.2048768 192.77711999999997,155.3452768 192.77711999999997C157.8724768 192.91751999999997,159.36071679999998 194.57423999999997,159.36071679999998 196.65215999999998C159.36071679999998 197.66303999999997,159.0237568 198.81431999999998,158.18135679999997 199.90943999999996C156.58079679999997 202.07159999999996,153.96935679999999 203.25095999999996,151.69487679999997 203.25095999999996C149.92583679999998 203.25095999999996,148.40951679999998 202.54895999999997,147.6794368 201.11687999999998C147.4547968 200.55527999999998,147.3424768 200.02175999999997,147.3424768 199.43207999999998C147.3424768 196.37135999999998,150.76823679999998 192.97367999999997,154.69943679999997 192.77711999999997">
</path>
</g>
</g>
<g class="vf-modifiers">
<g class="vf-stavenote" id="vf-auto56987">
<g class="vf-note" pointer-events="bounding-box">
<g class="vf-stem" pointer-events="bounding-box">
<path stroke-width="1.5" fill="none" stroke="#000000" stroke-dasharray="none" d="M128.6604384 197.99999999999997L128.6604384 174.89999999999998">
</path>
</g>
<g class="vf-notehead" pointer-events="bounding-box">
<path stroke-width="0.3" fill="#000000" stroke="none" stroke-dasharray="none" d="M121.4784 197.99999999999997M126.3339936 194.55289919999998C126.4081248 194.55289919999998,126.5193216 194.55289919999998,126.5378544 194.55289919999998C126.5378544 194.55289919999998,126.55638719999999 194.55289919999998,126.55638719999999 194.55289919999998C126.55638719999999 194.55289919999998,126.66758399999999 194.55289919999998,126.76024799999999 194.55289919999998C128.4282 194.64556319999997,129.4104384 195.73899839999996,129.4104384 197.11042559999999C129.4104384 197.77760639999997,129.1880448 198.53745119999996,128.6320608 199.26023039999998C127.5756912 200.68725599999996,125.8521408 201.46563359999996,124.350984 201.46563359999996C123.1834176 201.46563359999996,122.1826464 201.00231359999998,121.7007936 200.05714079999998C121.55253119999999 199.68648479999996,121.4784 199.33436159999997,121.4784 198.94517279999997C121.4784 196.92509759999996,123.7394016 194.68262879999997,126.3339936 194.55289919999998">
</path>
</g>
<g class="vf-flag" pointer-events="bounding-box">
<path stroke-width="0.3" fill="#000000" stroke="none" stroke-dasharray="none" d="M128.6604384 172.89999999999998M128.2156512 175.88378079999998L128.2156512 172.992664L128.2897824 172.992664C128.4936432 172.992664,128.6233728 173.12239359999998,128.6604384 173.34478719999998C129.0496272 175.19806719999997,130.2171936 177.21814239999998,131.8295472 178.73783199999997C133.6272288 180.42431679999999,134.535336 182.74091679999998,134.535336 185.13164799999998C134.535336 187.39264959999997,133.7384256 189.74631519999997,132.126072 191.69225919999997C131.84808 192.06291519999996,131.8295472 192.06291519999996,131.6442192 192.06291519999996C131.4218256 192.06291519999996,131.2735632 191.89611999999997,131.2735632 191.67372639999996C131.2735632 191.50693119999997,131.29209600000002 191.4698656,131.477424 191.2660048C132.88591680000002 189.56098719999997,133.5901632 187.5038464,133.5901632 185.5393696C133.5901632 183.7972864,133.0341792 182.12933439999998,131.88514560000002 180.86910399999996C131.1808992 180.09072639999997,129.8836032 179.34941439999997,128.234184 178.77489759999997C128.234184 178.75636479999997,128.2156512 178.18184799999997,128.2156512 175.88378079999998">
</path>
</g>
</g>
<g class="vf-modifiers">
</g>
</g>
<path stroke-width="1" fill="none" stroke="#000000" stroke-dasharray="none" d="M122.4784 189.74999999999997L135.4784 180.74999999999997Z">
</path>
</g>
</g>
<g class="vf-stavenote" id="vf-auto57001">
<g class="vf-note" pointer-events="bounding-box">
<g class="vf-notehead" pointer-events="bounding-box">
<path stroke-width="0.3" fill="#000000" stroke="none" stroke-dasharray="none" d="M195.7817184 197.99999999999997M203.13867839999997 192.77711999999997C203.2509984 192.77711999999997,203.4194784 192.77711999999997,203.4475584 192.77711999999997C203.4475584 192.77711999999997,203.47563839999998 192.77711999999997,203.47563839999998 192.77711999999997C203.47563839999998 192.77711999999997,203.6441184 192.77711999999997,203.7845184 192.77711999999997C206.3117184 192.91751999999997,207.79995839999998 194.57423999999997,207.79995839999998 196.65215999999998C207.79995839999998 197.66303999999997,207.4629984 198.81431999999998,206.62059839999998 199.90943999999996C205.02003839999998 202.07159999999996,202.4085984 203.25095999999996,200.13411839999998 203.25095999999996C198.3650784 203.25095999999996,196.84875839999998 202.54895999999997,196.1186784 201.11687999999998C195.8940384 200.55527999999998,195.7817184 200.02175999999997,195.7817184 199.43207999999998C195.7817184 196.37135999999998,199.20747839999999 192.97367999999997,203.13867839999997 192.77711999999997">
</path>
</g>
</g>
<g class="vf-modifiers">
</g>
</g>
<g class="vf-stavenote" id="vf-auto57011">
<g class="vf-note" pointer-events="bounding-box">
<g class="vf-notehead" pointer-events="bounding-box">
<path stroke-width="0.3" fill="#000000" stroke="none" stroke-dasharray="none" d="M229.01045919999999 197.99999999999997M236.36741919999997 192.77711999999997C236.47973919999998 192.77711999999997,236.64821919999997 192.77711999999997,236.6762992 192.77711999999997C236.6762992 192.77711999999997,236.70437919999998 192.77711999999997,236.70437919999998 192.77711999999997C236.70437919999998 192.77711999999997,236.8728592 192.77711999999997,237.0132592 192.77711999999997C239.5404592 192.91751999999997,241.02869919999998 194.57423999999997,241.02869919999998 196.65215999999998C241.02869919999998 197.66303999999997,240.69173919999997 198.81431999999998,239.84933919999997 199.90943999999996C238.24877919999997 202.07159999999996,235.63733919999999 203.25095999999996,233.36285919999997 203.25095999999996C231.59381919999998 203.25095999999996,230.07749919999998 202.54895999999997,229.3474192 201.11687999999998C229.1227792 200.55527999999998,229.01045919999999 200.02175999999997,229.01045919999999 199.43207999999998C229.01045919999999 196.37135999999998,232.43621919999998 192.97367999999997,236.36741919999997 192.77711999999997">
</path>
</g>
</g>
<g class="vf-modifiers">
</g>
</g>
<g class="vf-stavenote" id="vf-auto57021">
<g class="vf-note" pointer-events="bounding-box">
<g class="vf-notehead" pointer-events="bounding-box">
<path stroke-width="0.3" fill="#000000" stroke="none" stroke-dasharray="none" d="M288.1032768 197.99999999999997M295.4602368 192.77711999999997C295.57255680000003 192.77711999999997,295.7410368 192.77711999999997,295.7691168 192.77711999999997C295.7691168 192.77711999999997,295.7971968 192.77711999999997,295.7971968 192.77711999999997C295.7971968 192.77711999999997,295.9656768 192.77711999999997,296.1060768 192.77711999999997C298.6332768 192.91751999999997,300.1215168 194.57423999999997,300.1215168 196.65215999999998C300.1215168 197.66303999999997,299.7845568 198.81431999999998,298.9421568 199.90943999999996C297.3415968 202.07159999999996,294.73015680000003 203.25095999999996,292.4556768 203.25095999999996C290.68663680000003 203.25095999999996,289.1703168 202.54895999999997,288.4402368 201.11687999999998C288.2155968 200.55527999999998,288.1032768 200.02175999999997,288.1032768 199.43207999999998C288.1032768 196.37135999999998,291.52903680000003 192.97367999999997,295.4602368 192.77711999999997">
</path>
</g>
</g>
<g class="vf-modifiers">
<g class="vf-stavenote" id="vf-auto57031">
<g class="vf-note" pointer-events="bounding-box">
<g class="vf-stem" pointer-events="bounding-box">
<path stroke-width="1.5" fill="none" stroke="#000000" stroke-dasharray="none" d="M269.4212384 197.99999999999997L269.4212384 174.89999999999998">
</path>
</g>
<g class="vf-notehead" pointer-events="bounding-box">
<path stroke-width="0.3" fill="#000000" stroke="none" stroke-dasharray="none" d="M262.2392 197.99999999999997M267.0947936 194.55289919999998C267.16892479999996 194.55289919999998,267.2801216 194.55289919999998,267.2986544 194.55289919999998C267.2986544 194.55289919999998,267.3171872 194.55289919999998,267.3171872 194.55289919999998C267.3171872 194.55289919999998,267.428384 194.55289919999998,267.521048 194.55289919999998C269.18899999999996 194.64556319999997,270.1712384 195.73899839999996,270.1712384 197.11042559999999C270.1712384 197.77760639999997,269.94884479999996 198.53745119999996,269.3928608 199.26023039999998C268.33649119999995 200.68725599999996,266.6129408 201.46563359999996,265.111784 201.46563359999996C263.9442176 201.46563359999996,262.94344639999997 201.00231359999998,262.46159359999996 200.05714079999998C262.3133312 199.68648479999996,262.2392 199.33436159999997,262.2392 198.94517279999997C262.2392 196.92509759999996,264.50020159999997 194.68262879999997,267.0947936 194.55289919999998">
</path>
</g>
<g class="vf-flag" pointer-events="bounding-box">
<path stroke-width="0.3" fill="#000000" stroke="none" stroke-dasharray="none" d="M269.4212384 172.89999999999998M268.9764512 175.88378079999998L268.9764512 172.992664L269.0505824 172.992664C269.25444319999997 172.992664,269.3841728 173.12239359999998,269.4212384 173.34478719999998C269.8104272 175.19806719999997,270.9779936 177.21814239999998,272.5903472 178.73783199999997C274.3880288 180.42431679999999,275.296136 182.74091679999998,275.296136 185.13164799999998C275.296136 187.39264959999997,274.4992256 189.74631519999997,272.886872 191.69225919999997C272.60888 192.06291519999996,272.5903472 192.06291519999996,272.40501919999997 192.06291519999996C272.1826256 192.06291519999996,272.0343632 191.89611999999997,272.0343632 191.67372639999996C272.0343632 191.50693119999997,272.052896 191.4698656,272.238224 191.2660048C273.6467168 189.56098719999997,274.35096319999997 187.5038464,274.35096319999997 185.5393696C274.35096319999997 183.7972864,273.7949792 182.12933439999998,272.6459456 180.86910399999996C271.9416992 180.09072639999997,270.6444032 179.34941439999997,268.994984 178.77489759999997C268.994984 178.75636479999997,268.9764512 178.18184799999997,268.9764512 175.88378079999998">
</path>
</g>
</g>
<g class="vf-modifiers">
</g>
</g>
<path stroke-width="1" fill="none" stroke="#000000" stroke-dasharray="none" d="M263.2392 189.74999999999997L276.2392 180.74999999999997Z">
</path>
</g>
</g>
<g class="vf-stavenote" id="vf-auto57045">
<g class="vf-note" pointer-events="bounding-box">
<g class="vf-notehead" pointer-events="bounding-box">
<path stroke-width="0.3" fill="#000000" stroke="none" stroke-dasharray="none" d="M336.54251839999995 197.99999999999997M343.89947839999996 192.77711999999997C344.0117984 192.77711999999997,344.18027839999996 192.77711999999997,344.20835839999995 192.77711999999997C344.20835839999995 192.77711999999997,344.23643839999994 192.77711999999997,344.23643839999994 192.77711999999997C344.23643839999994 192.77711999999997,344.40491839999993 192.77711999999997,344.5453183999999 192.77711999999997C347.0725183999999 192.91751999999997,348.56075839999994 194.57423999999997,348.56075839999994 196.65215999999998C348.56075839999994 197.66303999999997,348.22379839999996 198.81431999999998,347.38139839999997 199.90943999999996C345.78083839999994 202.07159999999996,343.1693984 203.25095999999996,340.89491839999994 203.25095999999996C339.1258784 203.25095999999996,337.60955839999997 202.54895999999997,336.8794783999999 201.11687999999998C336.65483839999996 200.55527999999998,336.54251839999995 200.02175999999997,336.54251839999995 199.43207999999998C336.54251839999995 196.37135999999998,339.9682784 192.97367999999997,343.89947839999996 192.77711999999997">
</path>
</g>
</g>
<g class="vf-modifiers">
</g>
</g>
<g class="vf-stavenote" id="vf-auto57055">
<g class="vf-note" pointer-events="bounding-box">
<g class="vf-notehead" pointer-events="bounding-box">
<path stroke-width="0.3" fill="#000000" stroke="none" stroke-dasharray="none" d="M369.7712592 197.99999999999997M377.1282192 192.77711999999997C377.2405392 192.77711999999997,377.4090192 192.77711999999997,377.4370992 192.77711999999997C377.4370992 192.77711999999997,377.46517919999997 192.77711999999997,377.46517919999997 192.77711999999997C377.46517919999997 192.77711999999997,377.63365919999995 192.77711999999997,377.77405919999995 192.77711999999997C380.3012592 192.91751999999997,381.78949919999997 194.57423999999997,381.78949919999997 196.65215999999998C381.78949919999997 197.66303999999997,381.4525392 198.81431999999998,380.6101392 199.90943999999996C379.00957919999996 202.07159999999996,376.39813919999995 203.25095999999996,374.12365919999996 203.25095999999996C372.3546192 203.25095999999996,370.8382992 202.54895999999997,370.10821919999995 201.11687999999998C369.8835792 200.55527999999998,369.7712592 200.02175999999997,369.7712592 199.43207999999998C369.7712592 196.37135999999998,373.1970192 192.97367999999997,377.1282192 192.77711999999997">
</path>
</g>
</g>
<g class="vf-modifiers">
</g>
</g>
<path stroke-width="1.5" fill="none" stroke="#000000" stroke-dasharray="none" d="M158.61071679999998 197.99999999999997L158.61071679999998 163.74999999999997">
</path>
<path stroke-width="1.5" fill="none" stroke="#000000" stroke-dasharray="none" d="M207.04995839999998 197.99999999999997L207.04995839999998 163.74999999999997">
</path>
<path stroke-width="1.5" fill="none" stroke="#000000" stroke-dasharray="none" d="M240.27869919999998 197.99999999999997L240.27869919999998 163.74999999999997">
</path>
<path stroke-width="0.3" fill="#000000" stroke="none" stroke-dasharray="none" d="M157.86071679999998 162.99999999999997L157.86071679999998 167.99999999999997L240.52869919999998 167.99999999999997L240.52869919999998 162.99999999999997Z">
</path>
<path stroke-width="0.3" fill="#000000" stroke="none" stroke-dasharray="none" d="M206.29995839999998 170.49999999999997L206.29995839999998 175.49999999999997L240.52869919999998 175.49999999999997L240.52869919999998 170.49999999999997Z">
</path>
<path stroke-width="1.5" fill="none" stroke="#000000" stroke-dasharray="none" d="M299.3715168 197.99999999999997L299.3715168 163.74999999999997">
</path>
<path stroke-width="1.5" fill="none" stroke="#000000" stroke-dasharray="none" d="M347.81075839999994 197.99999999999997L347.81075839999994 163.74999999999997">
</path>
<path stroke-width="1.5" fill="none" stroke="#000000" stroke-dasharray="none" d="M381.03949919999997 197.99999999999997L381.03949919999997 163.74999999999997">
</path>
<path stroke-width="0.3" fill="#000000" stroke="none" stroke-dasharray="none" d="M298.6215168 162.99999999999997L298.6215168 167.99999999999997L381.28949919999997 167.99999999999997L381.28949919999997 162.99999999999997Z">
</path>
<path stroke-width="0.3" fill="#000000" stroke="none" stroke-dasharray="none" d="M347.06075839999994 170.49999999999997L347.06075839999994 175.49999999999997L381.28949919999997 175.49999999999997L381.28949919999997 170.49999999999997Z">
</path>
<path stroke-width="1" fill="none" stroke="black" stroke-dasharray="none" d="M401.385136384 197.99999999999997L1044.7438315519998 197.99999999999997">
</path>
<rect stroke-width="0.3" fill="black" stroke="black" stroke-dasharray="none" x="1039.7438315519998" y="177.49999999999997" width="1" height="41">
</rect>
<rect stroke-width="0.3" fill="black" stroke="black" stroke-dasharray="none" x="1042.7438315519998" y="177.49999999999997" width="3" height="41">
</rect>
<path stroke-width="0.3" fill="black" stroke="none" stroke-dasharray="none" d="M1038.7438315519998 193.49999999999997 A2 2 0 0 0 1034.7438315519998 193.49999999999997M1034.7438315519998 193.49999999999997 A2 2 0 0 0 1038.7438315519998 193.49999999999997">
</path>
<path stroke-width="0.3" fill="black" stroke="none" stroke-dasharray="none" d="M1038.7438315519998 203.49999999999997 A2 2 0 0 0 1034.7438315519998 203.49999999999997M1034.7438315519998 203.49999999999997 A2 2 0 0 0 1038.7438315519998 203.49999999999997">
</path>
<path stroke-width="0.3" fill="black" stroke="none" stroke-dasharray="none" d="M406.385136384 197.99999999999997M411.396336384 179.65439999999998C411.42513638400004 179.62559999999996,411.828336384 179.62559999999996,413.066736384 179.62559999999996C413.441136384 179.62559999999996,413.84433638400003 179.62559999999996,414.362736384 179.62559999999996L417.271536384 179.62559999999996L417.357936384 179.71199999999996C417.50193638400003 179.79839999999996,417.588336384 179.94239999999996,417.588336384 180.05759999999998C417.588336384 180.23039999999997,417.50193638400003 180.34559999999996,417.386736384 180.46079999999998C417.357936384 180.54719999999998,417.098736384 180.77759999999998,416.925936384 181.03679999999997L415.39953638400004 182.79359999999997L413.441136384 185.01119999999997L412.40433638400003 186.19199999999998L410.849136384 187.97759999999997L408.804336384 190.31039999999996C408.458736384 190.74239999999998,408.08433638400004 191.08799999999997,408.08433638400004 191.08799999999997C408.08433638400004 191.08799999999997,408.08433638400004 191.08799999999997,408.08433638400004 191.08799999999997C408.08433638400004 191.14559999999997,408.343536384 191.14559999999997,410.733936384 191.14559999999997L413.35473638400003 191.14559999999997L413.35473638400003 189.27359999999996C413.35473638400003 187.37279999999998,413.35473638400003 187.34399999999997,413.383536384 187.31519999999998C413.441136384 187.22879999999998,413.700336384 186.91199999999998,414.708336384 185.73119999999997L415.11153638400003 185.29919999999998L415.514736384 184.86719999999997L416.119536384 184.08959999999996L416.753136384 183.42719999999997L417.069936384 183.02399999999997C417.18513638400003 182.85119999999998,417.357936384 182.82239999999996,417.50193638400003 182.82239999999996C417.674736384 182.82239999999996,417.81873638400003 182.90879999999999,417.905136384 183.05279999999996C417.93393638400005 183.13919999999996,417.93393638400005 183.19679999999997,417.93393638400005 185.32799999999997C417.93393638400005 185.81759999999997,417.93393638400005 186.42239999999998,417.93393638400005 187.14239999999998L417.93393638400005 191.14559999999997L418.653936384 191.14559999999997C419.316336384 191.14559999999997,419.345136384 191.14559999999997,419.431536384 191.17439999999996C419.661936384 191.26079999999996,419.777136384 191.49119999999996,419.777136384 191.75039999999998C419.777136384 191.89439999999996,419.748336384 192.06719999999999,419.633136384 192.18239999999997C419.460336384 192.32639999999998,419.431536384 192.32639999999998,418.653936384 192.32639999999998L417.93393638400005 192.32639999999998L417.93393638400005 192.81599999999997C417.96273638400004 194.28479999999996,418.250736384 194.86079999999998,419.37393638400005 195.46559999999997C419.777136384 195.66719999999998,419.86353638400004 195.72479999999996,419.86353638400004 196.01279999999997C419.86353638400004 196.21439999999998,419.805936384 196.30079999999998,419.661936384 196.41599999999997L419.57553638400003 196.44479999999996L415.629936384 196.44479999999996L411.713136384 196.44479999999996L411.626736384 196.41599999999997C411.45393638400003 196.30079999999998,411.42513638400004 196.21439999999998,411.42513638400004 196.01279999999997C411.42513638400004 195.72479999999996,411.45393638400003 195.66719999999998,411.88593638400005 195.46559999999997C413.00913638400004 194.86079999999998,413.297136384 194.28479999999996,413.297136384 192.81599999999997L413.297136384 192.32639999999998L409.98513638400004 192.32639999999998C409.38033638400003 192.38399999999996,408.89073638400004 192.38399999999996,408.487536384 192.38399999999996C406.67313638400003 192.38399999999996,406.64433638400004 192.32639999999998,406.615536384 192.32639999999998C406.442736384 192.26879999999997,406.385136384 192.09599999999998,406.385136384 191.89439999999996C406.385136384 191.89439999999996,406.385136384 191.89439999999996,406.385136384 191.89439999999996C406.385136384 191.69279999999998,406.385136384 191.69279999999998,406.96113638400004 191.0304C409.38033638400003 188.09279999999998,411.079536384 183.83039999999997,411.079536384 180.43199999999996C411.079536384 179.91359999999997,411.165936384 179.74079999999998,411.396336384 179.65439999999998M413.124336384 198.02879999999996L413.153136384 198.02879999999996L413.066736384 198.02879999999996L413.124336384 198.02879999999996M413.124336384 178.61759999999998L413.153136384 178.61759999999998L413.066736384 178.61759999999998L413.124336384 178.61759999999998">
</path>
<path stroke-width="0.3" fill="black" stroke="none" stroke-dasharray="none" d="M406.385136384 217.99999999999997M411.396336384 199.65439999999998C411.42513638400004 199.62559999999996,411.828336384 199.62559999999996,413.066736384 199.62559999999996C413.441136384 199.62559999999996,413.84433638400003 199.62559999999996,414.362736384 199.62559999999996L417.271536384 199.62559999999996L417.357936384 199.71199999999996C417.50193638400003 199.79839999999996,417.588336384 199.94239999999996,417.588336384 200.05759999999998C417.588336384 200.23039999999997,417.50193638400003 200.34559999999996,417.386736384 200.46079999999998C417.357936384 200.54719999999998,417.098736384 200.77759999999998,416.925936384 201.03679999999997L415.39953638400004 202.79359999999997L413.441136384 205.01119999999997L412.40433638400003 206.19199999999998L410.849136384 207.97759999999997L408.804336384 210.31039999999996C408.458736384 210.74239999999998,408.08433638400004 211.08799999999997,408.08433638400004 211.08799999999997C408.08433638400004 211.08799999999997,408.08433638400004 211.08799999999997,408.08433638400004 211.08799999999997C408.08433638400004 211.14559999999997,408.343536384 211.14559999999997,410.733936384 211.14559999999997L413.35473638400003 211.14559999999997L413.35473638400003 209.27359999999996C413.35473638400003 207.37279999999998,413.35473638400003 207.34399999999997,413.383536384 207.31519999999998C413.441136384 207.22879999999998,413.700336384 206.91199999999998,414.708336384 205.73119999999997L415.11153638400003 205.29919999999998L415.514736384 204.86719999999997L416.119536384 204.08959999999996L416.753136384 203.42719999999997L417.069936384 203.02399999999997C417.18513638400003 202.85119999999998,417.357936384 202.82239999999996,417.50193638400003 202.82239999999996C417.674736384 202.82239999999996,417.81873638400003 202.90879999999999,417.905136384 203.05279999999996C417.93393638400005 203.13919999999996,417.93393638400005 203.19679999999997,417.93393638400005 205.32799999999997C417.93393638400005 205.81759999999997,417.93393638400005 206.42239999999998,417.93393638400005 207.14239999999998L417.93393638400005 211.14559999999997L418.653936384 211.14559999999997C419.316336384 211.14559999999997,419.345136384 211.14559999999997,419.431536384 211.17439999999996C419.661936384 211.26079999999996,419.777136384 211.49119999999996,419.777136384 211.75039999999998C419.777136384 211.89439999999996,419.748336384 212.06719999999999,419.633136384 212.18239999999997C419.460336384 212.32639999999998,419.431536384 212.32639999999998,418.653936384 212.32639999999998L417.93393638400005 212.32639999999998L417.93393638400005 212.81599999999997C417.96273638400004 214.28479999999996,418.250736384 214.86079999999998,419.37393638400005 215.46559999999997C419.777136384 215.66719999999998,419.86353638400004 215.72479999999996,419.86353638400004 216.01279999999997C419.86353638400004 216.21439999999998,419.805936384 216.30079999999998,419.661936384 216.41599999999997L419.57553638400003 216.44479999999996L415.629936384 216.44479999999996L411.713136384 216.44479999999996L411.626736384 216.41599999999997C411.45393638400003 216.30079999999998,411.42513638400004 216.21439999999998,411.42513638400004 216.01279999999997C411.42513638400004 215.72479999999996,411.45393638400003 215.66719999999998,411.88593638400005 215.46559999999997C413.00913638400004 214.86079999999998,413.297136384 214.28479999999996,413.297136384 212.81599999999997L413.297136384 212.32639999999998L409.98513638400004 212.32639999999998C409.38033638400003 212.38399999999996,408.89073638400004 212.38399999999996,408.487536384 212.38399999999996C406.67313638400003 212.38399999999996,406.64433638400004 212.32639999999998,406.615536384 212.32639999999998C406.442736384 212.26879999999997,406.385136384 212.09599999999998,406.385136384 211.89439999999996C406.385136384 211.89439999999996,406.385136384 211.89439999999996,406.385136384 211.89439999999996C406.385136384 211.69279999999998,406.385136384 211.69279999999998,406.96113638400004 211.0304C409.38033638400003 208.09279999999998,411.079536384 203.83039999999997,411.079536384 200.43199999999996C411.079536384 199.91359999999997,411.165936384 199.74079999999998,411.396336384 199.65439999999998M413.124336384 218.02879999999996L413.153136384 218.02879999999996L413.066736384 218.02879999999996L413.124336384 218.02879999999996M413.124336384 198.61759999999998L413.153136384 198.61759999999998L413.066736384 198.61759999999998L413.124336384 198.61759999999998">
</path>
<g class="vf-stavenote" id="vf-auto57068">
<g class="vf-note" pointer-events="bounding-box">
<g class="vf-notehead" pointer-events="bounding-box">
<path stroke-width="0.3" fill="#000000" stroke="none" stroke-dasharray="none" d="M457.72761318400006 197.99999999999997M465.0845731840001 192.77711999999997C465.1968931840001 192.77711999999997,465.3653731840001 192.77711999999997,465.39345318400007 192.77711999999997C465.39345318400007 192.77711999999997,465.42153318400005 192.77711999999997,465.42153318400005 192.77711999999997C465.42153318400005 192.77711999999997,465.59001318400004 192.77711999999997,465.73041318400004 192.77711999999997C468.2576131840001 192.91751999999997,469.74585318400005 194.57423999999997,469.74585318400005 196.65215999999998C469.74585318400005 197.66303999999997,469.4088931840001 198.81431999999998,468.5664931840001 199.90943999999996C466.96593318400005 202.07159999999996,464.35449318400003 203.25095999999996,462.08001318400005 203.25095999999996C460.3109731840001 203.25095999999996,458.7946531840001 202.54895999999997,458.06457318400004 201.11687999999998C457.8399331840001 200.55527999999998,457.72761318400006 200.02175999999997,457.72761318400006 199.43207999999998C457.72761318400006 196.37135999999998,461.1533731840001 192.97367999999997,465.0845731840001 192.77711999999997">
</path>
</g>
</g>
<g class="vf-modifiers">
<g class="vf-stavenote" id="vf-auto57078">
<g class="vf-note" pointer-events="bounding-box">
<g class="vf-stem" pointer-events="bounding-box">
<path stroke-width="1.5" fill="none" stroke="#000000" stroke-dasharray="none" d="M439.04557478400005 197.99999999999997L439.04557478400005 174.89999999999998">
</path>
</g>
<g class="vf-notehead" pointer-events="bounding-box">
<path stroke-width="0.3" fill="#000000" stroke="none" stroke-dasharray="none" d="M431.86353638400004 197.99999999999997M436.71912998400006 194.55289919999998C436.793261184 194.55289919999998,436.90445798400003 194.55289919999998,436.92299078400004 194.55289919999998C436.92299078400004 194.55289919999998,436.94152358400004 194.55289919999998,436.94152358400004 194.55289919999998C436.94152358400004 194.55289919999998,437.05272038400005 194.55289919999998,437.14538438400007 194.55289919999998C438.813336384 194.64556319999997,439.79557478400005 195.73899839999996,439.79557478400005 197.11042559999999C439.79557478400005 197.77760639999997,439.573181184 198.53745119999996,439.01719718400005 199.26023039999998C437.96082758400007 200.68725599999996,436.23727718400005 201.46563359999996,434.73612038400006 201.46563359999996C433.56855398400006 201.46563359999996,432.56778278400003 201.00231359999998,432.085929984 200.05714079999998C431.93766758400005 199.68648479999996,431.86353638400004 199.33436159999997,431.86353638400004 198.94517279999997C431.86353638400004 196.92509759999996,434.124537984 194.68262879999997,436.71912998400006 194.55289919999998">
</path>
</g>
<g class="vf-flag" pointer-events="bounding-box">
<path stroke-width="0.3" fill="#000000" stroke="none" stroke-dasharray="none" d="M439.04557478400005 172.89999999999998M438.60078758400005 175.88378079999998L438.60078758400005 172.992664L438.67491878400006 172.992664C438.87877958400003 172.992664,439.00850918400005 173.12239359999998,439.04557478400005 173.34478719999998C439.43476358400005 175.19806719999997,440.60232998400005 177.21814239999998,442.21468358400006 178.73783199999997C444.01236518400003 180.42431679999999,444.92047238400005 182.74091679999998,444.92047238400005 185.13164799999998C444.92047238400005 187.39264959999997,444.12356198400005 189.74631519999997,442.51120838400004 191.69225919999997C442.23321638400006 192.06291519999996,442.21468358400006 192.06291519999996,442.02935558400003 192.06291519999996C441.80696198400005 192.06291519999996,441.65869958400003 191.89611999999997,441.65869958400003 191.67372639999996C441.65869958400003 191.50693119999997,441.67723238400004 191.4698656,441.86256038400006 191.2660048C443.27105318400004 189.56098719999997,443.975299584 187.5038464,443.975299584 185.5393696C443.975299584 183.7972864,443.41931558400006 182.12933439999998,442.27028198400006 180.86910399999996C441.5660355840001 180.09072639999997,440.26873958400006 179.34941439999997,438.61932038400005 178.77489759999997C438.61932038400005 178.75636479999997,438.60078758400005 178.18184799999997,438.60078758400005 175.88378079999998">
</path>
</g>
</g>
<g class="vf-modifiers">
</g>
</g>
<path stroke-width="1" fill="none" stroke="#000000" stroke-dasharray="none" d="M432.86353638400004 189.74999999999997L445.86353638400004 180.74999999999997Z">
</path>
</g>
</g>
<g class="vf-stavenote" id="vf-auto57092">
<g class="vf-note" pointer-events="bounding-box">
<g class="vf-notehead" pointer-events="bounding-box">
<path stroke-width="0.3" fill="#000000" stroke="none" stroke-dasharray="none" d="M489.66919398400006 197.99999999999997M497.0261539840001 192.77711999999997C497.1384739840001 192.77711999999997,497.3069539840001 192.77711999999997,497.33503398400006 192.77711999999997C497.33503398400006 192.77711999999997,497.36311398400005 192.77711999999997,497.36311398400005 192.77711999999997C497.36311398400005 192.77711999999997,497.53159398400004 192.77711999999997,497.67199398400004 192.77711999999997C500.1991939840001 192.91751999999997,501.68743398400005 194.57423999999997,501.68743398400005 196.65215999999998C501.68743398400005 197.66303999999997,501.3504739840001 198.81431999999998,500.5080739840001 199.90943999999996C498.90751398400005 202.07159999999996,496.29607398400003 203.25095999999996,494.02159398400005 203.25095999999996C492.2525539840001 203.25095999999996,490.7362339840001 202.54895999999997,490.00615398400004 201.11687999999998C489.78151398400007 200.55527999999998,489.66919398400006 200.02175999999997,489.66919398400006 199.43207999999998C489.66919398400006 196.37135999999998,493.0949539840001 192.97367999999997,497.0261539840001 192.77711999999997">
</path>
</g>
</g>
<g class="vf-modifiers">
</g>
</g>
<g class="vf-stavenote" id="vf-auto57102">
<g class="vf-note" pointer-events="bounding-box">
<g class="vf-notehead" pointer-events="bounding-box">
<path stroke-width="0.3" fill="#000000" stroke="none" stroke-dasharray="none" d="M521.6107747840001 197.99999999999997M528.9677347840001 192.77711999999997C529.0800547840001 192.77711999999997,529.2485347840001 192.77711999999997,529.2766147840001 192.77711999999997C529.2766147840001 192.77711999999997,529.3046947840002 192.77711999999997,529.3046947840002 192.77711999999997C529.3046947840002 192.77711999999997,529.4731747840001 192.77711999999997,529.6135747840001 192.77711999999997C532.1407747840001 192.91751999999997,533.6290147840001 194.57423999999997,533.6290147840001 196.65215999999998C533.6290147840001 197.66303999999997,533.2920547840001 198.81431999999998,532.4496547840001 199.90943999999996C530.8490947840002 202.07159999999996,528.2376547840001 203.25095999999996,525.9631747840001 203.25095999999996C524.1941347840001 203.25095999999996,522.6778147840001 202.54895999999997,521.9477347840001 201.11687999999998C521.7230947840001 200.55527999999998,521.6107747840001 200.02175999999997,521.6107747840001 199.43207999999998C521.6107747840001 196.37135999999998,525.0365347840001 192.97367999999997,528.9677347840001 192.77711999999997">
</path>
</g>
</g>
<g class="vf-modifiers">
</g>
</g>
<g class="vf-stavenote" id="vf-auto57112">
<g class="vf-note" pointer-events="bounding-box">
<g class="vf-notehead" pointer-events="bounding-box">
<path stroke-width="0.3" fill="#000000" stroke="none" stroke-dasharray="none" d="M553.5523555840001 197.99999999999997M560.9093155840001 192.77711999999997C561.0216355840001 192.77711999999997,561.1901155840001 192.77711999999997,561.2181955840001 192.77711999999997C561.2181955840001 192.77711999999997,561.2462755840002 192.77711999999997,561.2462755840002 192.77711999999997C561.2462755840002 192.77711999999997,561.4147555840001 192.77711999999997,561.5551555840001 192.77711999999997C564.0823555840001 192.91751999999997,565.5705955840001 194.57423999999997,565.5705955840001 196.65215999999998C565.5705955840001 197.66303999999997,565.2336355840001 198.81431999999998,564.3912355840001 199.90943999999996C562.7906755840002 202.07159999999996,560.1792355840001 203.25095999999996,557.9047555840001 203.25095999999996C556.1357155840001 203.25095999999996,554.6193955840001 202.54895999999997,553.8893155840001 201.11687999999998C553.6646755840001 200.55527999999998,553.5523555840001 200.02175999999997,553.5523555840001 199.43207999999998C553.5523555840001 196.37135999999998,556.9781155840001 192.97367999999997,560.9093155840001 192.77711999999997">
</path>
</g>
</g>
<g class="vf-modifiers">
</g>
</g>
<g class="vf-stavenote" id="vf-auto57122">
<g class="vf-note" pointer-events="bounding-box">
<g class="vf-notehead" pointer-events="bounding-box">
<path stroke-width="0.3" fill="#000000" stroke="none" stroke-dasharray="none" d="M611.3580131840001 197.99999999999997M618.7149731840001 192.77711999999997C618.8272931840002 192.77711999999997,618.9957731840001 192.77711999999997,619.0238531840001 192.77711999999997C619.0238531840001 192.77711999999997,619.0519331840002 192.77711999999997,619.0519331840002 192.77711999999997C619.0519331840002 192.77711999999997,619.2204131840001 192.77711999999997,619.3608131840001 192.77711999999997C621.8880131840001 192.91751999999997,623.3762531840001 194.57423999999997,623.3762531840001 196.65215999999998C623.3762531840001 197.66303999999997,623.0392931840001 198.81431999999998,622.1968931840001 199.90943999999996C620.5963331840002 202.07159999999996,617.9848931840002 203.25095999999996,615.7104131840001 203.25095999999996C613.9413731840001 203.25095999999996,612.4250531840001 202.54895999999997,611.6949731840001 201.11687999999998C611.4703331840001 200.55527999999998,611.3580131840001 200.02175999999997,611.3580131840001 199.43207999999998C611.3580131840001 196.37135999999998,614.7837731840001 192.97367999999997,618.7149731840001 192.77711999999997">
</path>
</g>
</g>
<g class="vf-modifiers">
<g class="vf-stavenote" id="vf-auto57132">
<g class="vf-note" pointer-events="bounding-box">
<g class="vf-stem" pointer-events="bounding-box">
<path stroke-width="1.5" fill="none" stroke="#000000" stroke-dasharray="none" d="M592.6759747840001 197.99999999999997L592.6759747840001 174.89999999999998">
</path>
</g>
<g class="vf-notehead" pointer-events="bounding-box">
<path stroke-width="0.3" fill="#000000" stroke="none" stroke-dasharray="none" d="M585.4939363840001 197.99999999999997M590.3495299840001 194.55289919999998C590.4236611840001 194.55289919999998,590.5348579840002 194.55289919999998,590.5533907840002 194.55289919999998C590.5533907840002 194.55289919999998,590.5719235840002 194.55289919999998,590.5719235840002 194.55289919999998C590.5719235840002 194.55289919999998,590.6831203840001 194.55289919999998,590.7757843840001 194.55289919999998C592.4437363840001 194.64556319999997,593.4259747840001 195.73899839999996,593.4259747840001 197.11042559999999C593.4259747840001 197.77760639999997,593.2035811840001 198.53745119999996,592.6475971840001 199.26023039999998C591.5912275840001 200.68725599999996,589.8676771840001 201.46563359999996,588.3665203840001 201.46563359999996C587.1989539840001 201.46563359999996,586.1981827840001 201.00231359999998,585.7163299840001 200.05714079999998C585.5680675840001 199.68648479999996,585.4939363840001 199.33436159999997,585.4939363840001 198.94517279999997C585.4939363840001 196.92509759999996,587.7549379840001 194.68262879999997,590.3495299840001 194.55289919999998">
</path>
</g>
<g class="vf-flag" pointer-events="bounding-box">
<path stroke-width="0.3" fill="#000000" stroke="none" stroke-dasharray="none" d="M592.6759747840001 172.89999999999998M592.2311875840002 175.88378079999998L592.2311875840002 172.992664L592.3053187840001 172.992664C592.5091795840001 172.992664,592.6389091840001 173.12239359999998,592.6759747840001 173.34478719999998C593.0651635840002 175.19806719999997,594.2327299840001 177.21814239999998,595.8450835840001 178.73783199999997C597.6427651840002 180.42431679999999,598.5508723840002 182.74091679999998,598.5508723840002 185.13164799999998C598.5508723840002 187.39264959999997,597.7539619840002 189.74631519999997,596.1416083840002 191.69225919999997C595.8636163840001 192.06291519999996,595.8450835840001 192.06291519999996,595.6597555840001 192.06291519999996C595.4373619840001 192.06291519999996,595.2890995840002 191.89611999999997,595.2890995840002 191.67372639999996C595.2890995840002 191.50693119999997,595.3076323840002 191.4698656,595.4929603840001 191.2660048C596.9014531840002 189.56098719999997,597.6056995840001 187.5038464,597.6056995840001 185.5393696C597.6056995840001 183.7972864,597.0497155840001 182.12933439999998,595.9006819840001 180.86910399999996C595.1964355840001 180.09072639999997,593.8991395840001 179.34941439999997,592.2497203840002 178.77489759999997C592.2497203840002 178.75636479999997,592.2311875840002 178.18184799999997,592.2311875840002 175.88378079999998">
</path>
</g>
</g>
<g class="vf-modifiers">
</g>
</g>
<path stroke-width="1" fill="none" stroke="#000000" stroke-dasharray="none" d="M586.4939363840001 189.74999999999997L599.4939363840001 180.74999999999997Z">
</path>
</g>
</g>
<g class="vf-stavenote" id="vf-auto57146">
<g class="vf-note" pointer-events="bounding-box">
<g class="vf-notehead" pointer-events="bounding-box">
<path stroke-width="0.3" fill="#000000" stroke="none" stroke-dasharray="none" d="M643.299593984 197.99999999999997M650.656553984 192.77711999999997C650.768873984 192.77711999999997,650.937353984 192.77711999999997,650.965433984 192.77711999999997C650.965433984 192.77711999999997,650.9935139840001 192.77711999999997,650.9935139840001 192.77711999999997C650.9935139840001 192.77711999999997,651.161993984 192.77711999999997,651.302393984 192.77711999999997C653.829593984 192.91751999999997,655.317833984 194.57423999999997,655.317833984 196.65215999999998C655.317833984 197.66303999999997,654.980873984 198.81431999999998,654.138473984 199.90943999999996C652.537913984 202.07159999999996,649.926473984 203.25095999999996,647.651993984 203.25095999999996C645.882953984 203.25095999999996,644.366633984 202.54895999999997,643.636553984 201.11687999999998C643.411913984 200.55527999999998,643.299593984 200.02175999999997,643.299593984 199.43207999999998C643.299593984 196.37135999999998,646.725353984 192.97367999999997,650.656553984 192.77711999999997">
</path>
</g>
</g>
<g class="vf-modifiers">
</g>
</g>
<g class="vf-stavenote" id="vf-auto57156">
<g class="vf-note" pointer-events="bounding-box">
<g class="vf-notehead" pointer-events="bounding-box">
<path stroke-width="0.3" fill="#000000" stroke="none" stroke-dasharray="none" d="M675.2411747840001 197.99999999999997M682.5981347840001 192.77711999999997C682.7104547840001 192.77711999999997,682.8789347840001 192.77711999999997,682.9070147840001 192.77711999999997C682.9070147840001 192.77711999999997,682.9350947840002 192.77711999999997,682.9350947840002 192.77711999999997C682.9350947840002 192.77711999999997,683.1035747840001 192.77711999999997,683.2439747840001 192.77711999999997C685.7711747840001 192.91751999999997,687.2594147840001 194.57423999999997,687.2594147840001 196.65215999999998C687.2594147840001 197.66303999999997,686.9224547840001 198.81431999999998,686.0800547840001 199.90943999999996C684.4794947840002 202.07159999999996,681.8680547840002 203.25095999999996,679.5935747840001 203.25095999999996C677.8245347840001 203.25095999999996,676.3082147840001 202.54895999999997,675.5781347840001 201.11687999999998C675.3534947840001 200.55527999999998,675.2411747840001 200.02175999999997,675.2411747840001 199.43207999999998C675.2411747840001 196.37135999999998,678.6669347840001 192.97367999999997,682.5981347840001 192.77711999999997">
</path>
</g>
</g>
<g class="vf-modifiers">
</g>
</g>
<g class="vf-stavenote" id="vf-auto57166">
<g class="vf-note" pointer-events="bounding-box">
<g class="vf-notehead" pointer-events="bounding-box">
<path stroke-width="0.3" fill="#000000" stroke="none" stroke-dasharray="none" d="M707.182755584 197.99999999999997M714.539715584 192.77711999999997C714.652035584 192.77711999999997,714.820515584 192.77711999999997,714.848595584 192.77711999999997C714.848595584 192.77711999999997,714.876675584 192.77711999999997,714.876675584 192.77711999999997C714.876675584 192.77711999999997,715.045155584 192.77711999999997,715.185555584 192.77711999999997C717.712755584 192.91751999999997,719.200995584 194.57423999999997,719.200995584 196.65215999999998C719.200995584 197.66303999999997,718.864035584 198.81431999999998,718.021635584 199.90943999999996C716.421075584 202.07159999999996,713.809635584 203.25095999999996,711.535155584 203.25095999999996C709.766115584 203.25095999999996,708.249795584 202.54895999999997,707.519715584 201.11687999999998C707.295075584 200.55527999999998,707.182755584 200.02175999999997,707.182755584 199.43207999999998C707.182755584 196.37135999999998,710.608515584 192.97367999999997,714.539715584 192.77711999999997">
</path>
</g>
</g>
<g class="vf-modifiers">
</g>
</g>
<g class="vf-stavenote" id="vf-auto57176">
<g class="vf-note" pointer-events="bounding-box">
<g class="vf-notehead" pointer-events="bounding-box">
<path stroke-width="0.3" fill="#000000" stroke="none" stroke-dasharray="none" d="M764.988413184 197.99999999999997M772.345373184 192.77711999999997C772.457693184 192.77711999999997,772.626173184 192.77711999999997,772.654253184 192.77711999999997C772.654253184 192.77711999999997,772.6823331840001 192.77711999999997,772.6823331840001 192.77711999999997C772.6823331840001 192.77711999999997,772.850813184 192.77711999999997,772.991213184 192.77711999999997C775.518413184 192.91751999999997,777.006653184 194.57423999999997,777.006653184 196.65215999999998C777.006653184 197.66303999999997,776.669693184 198.81431999999998,775.827293184 199.90943999999996C774.2267331840001 202.07159999999996,771.615293184 203.25095999999996,769.340813184 203.25095999999996C767.571773184 203.25095999999996,766.055453184 202.54895999999997,765.325373184 201.11687999999998C765.100733184 200.55527999999998,764.988413184 200.02175999999997,764.988413184 199.43207999999998C764.988413184 196.37135999999998,768.414173184 192.97367999999997,772.345373184 192.77711999999997">
</path>
</g>
</g>
<g class="vf-modifiers">
<g class="vf-stavenote" id="vf-auto57186">
<g class="vf-note" pointer-events="bounding-box">
<g class="vf-stem" pointer-events="bounding-box">
<path stroke-width="1.5" fill="none" stroke="#000000" stroke-dasharray="none" d="M746.306374784 197.99999999999997L746.306374784 174.89999999999998">
</path>
</g>
<g class="vf-notehead" pointer-events="bounding-box">
<path stroke-width="0.3" fill="#000000" stroke="none" stroke-dasharray="none" d="M739.124336384 197.99999999999997M743.979929984 194.55289919999998C744.054061184 194.55289919999998,744.165257984 194.55289919999998,744.183790784 194.55289919999998C744.183790784 194.55289919999998,744.202323584 194.55289919999998,744.202323584 194.55289919999998C744.202323584 194.55289919999998,744.313520384 194.55289919999998,744.406184384 194.55289919999998C746.074136384 194.64556319999997,747.056374784 195.73899839999996,747.056374784 197.11042559999999C747.056374784 197.77760639999997,746.833981184 198.53745119999996,746.277997184 199.26023039999998C745.221627584 200.68725599999996,743.498077184 201.46563359999996,741.996920384 201.46563359999996C740.829353984 201.46563359999996,739.828582784 201.00231359999998,739.346729984 200.05714079999998C739.198467584 199.68648479999996,739.124336384 199.33436159999997,739.124336384 198.94517279999997C739.124336384 196.92509759999996,741.385337984 194.68262879999997,743.979929984 194.55289919999998">
</path>
</g>
<g class="vf-flag" pointer-events="bounding-box">
<path stroke-width="0.3" fill="#000000" stroke="none" stroke-dasharray="none" d="M746.306374784 172.89999999999998M745.8615875840001 175.88378079999998L745.8615875840001 172.992664L745.935718784 172.992664C746.139579584 172.992664,746.269309184 173.12239359999998,746.306374784 173.34478719999998C746.6955635840001 175.19806719999997,747.863129984 177.21814239999998,749.475483584 178.73783199999997C751.273165184 180.42431679999999,752.1812723840001 182.74091679999998,752.1812723840001 185.13164799999998C752.1812723840001 187.39264959999997,751.3843619840001 189.74631519999997,749.7720083840001 191.69225919999997C749.494016384 192.06291519999996,749.475483584 192.06291519999996,749.290155584 192.06291519999996C749.067761984 192.06291519999996,748.919499584 191.89611999999997,748.919499584 191.67372639999996C748.919499584 191.50693119999997,748.938032384 191.4698656,749.123360384 191.2660048C750.531853184 189.56098719999997,751.236099584 187.5038464,751.236099584 185.5393696C751.236099584 183.7972864,750.680115584 182.12933439999998,749.531081984 180.86910399999996C748.826835584 180.09072639999997,747.529539584 179.34941439999997,745.8801203840001 178.77489759999997C745.8801203840001 178.75636479999997,745.8615875840001 178.18184799999997,745.8615875840001 175.88378079999998">
</path>
</g>
</g>
<g class="vf-modifiers">
</g>
</g>
<path stroke-width="1" fill="none" stroke="#000000" stroke-dasharray="none" d="M740.124336384 189.74999999999997L753.124336384 180.74999999999997Z">
</path>
</g>
</g>
<g class="vf-stavenote" id="vf-auto57200">
<g class="vf-note" pointer-events="bounding-box">
<g class="vf-notehead" pointer-events="bounding-box">
<path stroke-width="0.3" fill="#000000" stroke="none" stroke-dasharray="none" d="M796.929993984 197.99999999999997M804.286953984 192.77711999999997C804.399273984 192.77711999999997,804.567753984 192.77711999999997,804.595833984 192.77711999999997C804.595833984 192.77711999999997,804.6239139840001 192.77711999999997,804.6239139840001 192.77711999999997C804.6239139840001 192.77711999999997,804.792393984 192.77711999999997,804.932793984 192.77711999999997C807.459993984 192.91751999999997,808.948233984 194.57423999999997,808.948233984 196.65215999999998C808.948233984 197.66303999999997,808.611273984 198.81431999999998,807.768873984 199.90943999999996C806.1683139840001 202.07159999999996,803.556873984 203.25095999999996,801.282393984 203.25095999999996C799.513353984 203.25095999999996,797.997033984 202.54895999999997,797.266953984 201.11687999999998C797.042313984 200.55527999999998,796.929993984 200.02175999999997,796.929993984 199.43207999999998C796.929993984 196.37135999999998,800.355753984 192.97367999999997,804.286953984 192.77711999999997">
</path>
</g>
</g>
<g class="vf-modifiers">
</g>
</g>
<g class="vf-stavenote" id="vf-auto57210">
<g class="vf-note" pointer-events="bounding-box">
<g class="vf-notehead" pointer-events="bounding-box">
<path stroke-width="0.3" fill="#000000" stroke="none" stroke-dasharray="none" d="M828.8715747840001 197.99999999999997M836.2285347840001 192.77711999999997C836.3408547840002 192.77711999999997,836.5093347840001 192.77711999999997,836.5374147840001 192.77711999999997C836.5374147840001 192.77711999999997,836.5654947840002 192.77711999999997,836.5654947840002 192.77711999999997C836.5654947840002 192.77711999999997,836.7339747840001 192.77711999999997,836.8743747840001 192.77711999999997C839.4015747840001 192.91751999999997,840.8898147840001 194.57423999999997,840.8898147840001 196.65215999999998C840.8898147840001 197.66303999999997,840.5528547840001 198.81431999999998,839.7104547840001 199.90943999999996C838.1098947840002 202.07159999999996,835.4984547840002 203.25095999999996,833.2239747840001 203.25095999999996C831.4549347840001 203.25095999999996,829.9386147840002 202.54895999999997,829.2085347840001 201.11687999999998C828.9838947840001 200.55527999999998,828.8715747840001 200.02175999999997,828.8715747840001 199.43207999999998C828.8715747840001 196.37135999999998,832.2973347840001 192.97367999999997,836.2285347840001 192.77711999999997">
</path>
</g>
</g>
<g class="vf-modifiers">
</g>
</g>
<g class="vf-stavenote" id="vf-auto57220">
<g class="vf-note" pointer-events="bounding-box">
<g class="vf-notehead" pointer-events="bounding-box">
<path stroke-width="0.3" fill="#000000" stroke="none" stroke-dasharray="none" d="M860.813155584 197.99999999999997M868.170115584 192.77711999999997C868.282435584 192.77711999999997,868.450915584 192.77711999999997,868.478995584 192.77711999999997C868.478995584 192.77711999999997,868.5070755840001 192.77711999999997,868.5070755840001 192.77711999999997C868.5070755840001 192.77711999999997,868.675555584 192.77711999999997,868.815955584 192.77711999999997C871.343155584 192.91751999999997,872.831395584 194.57423999999997,872.831395584 196.65215999999998C872.831395584 197.66303999999997,872.494435584 198.81431999999998,871.652035584 199.90943999999996C870.0514755840001 202.07159999999996,867.440035584 203.25095999999996,865.165555584 203.25095999999996C863.396515584 203.25095999999996,861.880195584 202.54895999999997,861.150115584 201.11687999999998C860.925475584 200.55527999999998,860.813155584 200.02175999999997,860.813155584 199.43207999999998C860.813155584 196.37135999999998,864.238915584 192.97367999999997,868.170115584 192.77711999999997">
</path>
</g>
</g>
<g class="vf-modifiers">
</g>
</g>
<g class="vf-stavenote" id="vf-auto57230">
<g class="vf-note" pointer-events="bounding-box">
<g class="vf-notehead" pointer-events="bounding-box">
<path stroke-width="0.3" fill="#000000" stroke="none" stroke-dasharray="none" d="M918.6188131840001 197.99999999999997M925.9757731840001 192.77711999999997C926.0880931840002 192.77711999999997,926.2565731840001 192.77711999999997,926.2846531840001 192.77711999999997C926.2846531840001 192.77711999999997,926.3127331840002 192.77711999999997,926.3127331840002 192.77711999999997C926.3127331840002 192.77711999999997,926.4812131840001 192.77711999999997,926.6216131840001 192.77711999999997C929.1488131840001 192.91751999999997,930.6370531840001 194.57423999999997,930.6370531840001 196.65215999999998C930.6370531840001 197.66303999999997,930.3000931840002 198.81431999999998,929.4576931840002 199.90943999999996C927.8571331840002 202.07159999999996,925.2456931840002 203.25095999999996,922.9712131840001 203.25095999999996C921.2021731840001 203.25095999999996,919.6858531840002 202.54895999999997,918.9557731840001 201.11687999999998C918.7311331840001 200.55527999999998,918.6188131840001 200.02175999999997,918.6188131840001 199.43207999999998C918.6188131840001 196.37135999999998,922.0445731840001 192.97367999999997,925.9757731840001 192.77711999999997">
</path>
</g>
</g>
<g class="vf-modifiers">
<g class="vf-stavenote" id="vf-auto57240">
<g class="vf-note" pointer-events="bounding-box">
<g class="vf-stem" pointer-events="bounding-box">
<path stroke-width="1.5" fill="none" stroke="#000000" stroke-dasharray="none" d="M899.9367747840001 197.99999999999997L899.9367747840001 174.89999999999998">
</path>
</g>
<g class="vf-notehead" pointer-events="bounding-box">
<path stroke-width="0.3" fill="#000000" stroke="none" stroke-dasharray="none" d="M892.7547363840001 197.99999999999997M897.6103299840001 194.55289919999998C897.6844611840002 194.55289919999998,897.7956579840002 194.55289919999998,897.8141907840002 194.55289919999998C897.8141907840002 194.55289919999998,897.8327235840002 194.55289919999998,897.8327235840002 194.55289919999998C897.8327235840002 194.55289919999998,897.9439203840001 194.55289919999998,898.0365843840001 194.55289919999998C899.7045363840001 194.64556319999997,900.6867747840001 195.73899839999996,900.6867747840001 197.11042559999999C900.6867747840001 197.77760639999997,900.4643811840001 198.53745119999996,899.9083971840001 199.26023039999998C898.8520275840001 200.68725599999996,897.1284771840001 201.46563359999996,895.6273203840001 201.46563359999996C894.4597539840001 201.46563359999996,893.4589827840001 201.00231359999998,892.9771299840002 200.05714079999998C892.8288675840001 199.68648479999996,892.7547363840001 199.33436159999997,892.7547363840001 198.94517279999997C892.7547363840001 196.92509759999996,895.0157379840001 194.68262879999997,897.6103299840001 194.55289919999998">
</path>
</g>
<g class="vf-flag" pointer-events="bounding-box">
<path stroke-width="0.3" fill="#000000" stroke="none" stroke-dasharray="none" d="M899.9367747840001 172.89999999999998M899.4919875840002 175.88378079999998L899.4919875840002 172.992664L899.5661187840001 172.992664C899.7699795840001 172.992664,899.8997091840001 173.12239359999998,899.9367747840001 173.34478719999998C900.3259635840002 175.19806719999997,901.4935299840001 177.21814239999998,903.1058835840001 178.73783199999997C904.9035651840002 180.42431679999999,905.8116723840002 182.74091679999998,905.8116723840002 185.13164799999998C905.8116723840002 187.39264959999997,905.0147619840002 189.74631519999997,903.4024083840002 191.69225919999997C903.1244163840001 192.06291519999996,903.1058835840001 192.06291519999996,902.9205555840001 192.06291519999996C902.6981619840001 192.06291519999996,902.5498995840002 191.89611999999997,902.5498995840002 191.67372639999996C902.5498995840002 191.50693119999997,902.5684323840002 191.4698656,902.7537603840001 191.2660048C904.1622531840002 189.56098719999997,904.8664995840002 187.5038464,904.8664995840002 185.5393696C904.8664995840002 183.7972864,904.3105155840001 182.12933439999998,903.1614819840001 180.86910399999996C902.4572355840002 180.09072639999997,901.1599395840001 179.34941439999997,899.5105203840002 178.77489759999997C899.5105203840002 178.75636479999997,899.4919875840002 178.18184799999997,899.4919875840002 175.88378079999998">
</path>
</g>
</g>
<g class="vf-modifiers">
</g>
</g>
<path stroke-width="1" fill="none" stroke="#000000" stroke-dasharray="none" d="M893.7547363840001 189.74999999999997L906.7547363840001 180.74999999999997Z">
</path>
</g>
</g>
<g class="vf-stavenote" id="vf-auto57254">
<g class="vf-note" pointer-events="bounding-box">
<g class="vf-notehead" pointer-events="bounding-box">
<path stroke-width="0.3" fill="#000000" stroke="none" stroke-dasharray="none" d="M950.560393984 197.99999999999997M957.917353984 192.77711999999997C958.029673984 192.77711999999997,958.198153984 192.77711999999997,958.226233984 192.77711999999997C958.226233984 192.77711999999997,958.2543139840001 192.77711999999997,958.2543139840001 192.77711999999997C958.2543139840001 192.77711999999997,958.422793984 192.77711999999997,958.563193984 192.77711999999997C961.090393984 192.91751999999997,962.578633984 194.57423999999997,962.578633984 196.65215999999998C962.578633984 197.66303999999997,962.241673984 198.81431999999998,961.399273984 199.90943999999996C959.7987139840001 202.07159999999996,957.1872739840001 203.25095999999996,954.912793984 203.25095999999996C953.143753984 203.25095999999996,951.627433984 202.54895999999997,950.897353984 201.11687999999998C950.672713984 200.55527999999998,950.560393984 200.02175999999997,950.560393984 199.43207999999998C950.560393984 196.37135999999998,953.986153984 192.97367999999997,957.917353984 192.77711999999997">
</path>
</g>
</g>
<g class="vf-modifiers">
</g>
</g>
<g class="vf-stavenote" id="vf-auto57264">
<g class="vf-note" pointer-events="bounding-box">
<g class="vf-notehead" pointer-events="bounding-box">
<path stroke-width="0.3" fill="#000000" stroke="none" stroke-dasharray="none" d="M982.5019747840001 197.99999999999997M989.8589347840001 192.77711999999997C989.9712547840002 192.77711999999997,990.1397347840001 192.77711999999997,990.1678147840001 192.77711999999997C990.1678147840001 192.77711999999997,990.1958947840002 192.77711999999997,990.1958947840002 192.77711999999997C990.1958947840002 192.77711999999997,990.3643747840001 192.77711999999997,990.5047747840001 192.77711999999997C993.0319747840001 192.91751999999997,994.5202147840001 194.57423999999997,994.5202147840001 196.65215999999998C994.5202147840001 197.66303999999997,994.1832547840002 198.81431999999998,993.3408547840002 199.90943999999996C991.7402947840002 202.07159999999996,989.1288547840002 203.25095999999996,986.8543747840001 203.25095999999996C985.0853347840001 203.25095999999996,983.5690147840002 202.54895999999997,982.8389347840001 201.11687999999998C982.6142947840001 200.55527999999998,982.5019747840001 200.02175999999997,982.5019747840001 199.43207999999998C982.5019747840001 196.37135999999998,985.9277347840001 192.97367999999997,989.8589347840001 192.77711999999997">
</path>
</g>
</g>
<g class="vf-modifiers">
</g>
</g>
<g class="vf-stavenote" id="vf-auto57274">
<g class="vf-note" pointer-events="bounding-box">
<g class="vf-notehead" pointer-events="bounding-box">
<path stroke-width="0.3" fill="#000000" stroke="none" stroke-dasharray="none" d="M1014.443555584 197.99999999999997M1021.800515584 192.77711999999997C1021.912835584 192.77711999999997,1022.081315584 192.77711999999997,1022.109395584 192.77711999999997C1022.109395584 192.77711999999997,1022.1374755840001 192.77711999999997,1022.1374755840001 192.77711999999997C1022.1374755840001 192.77711999999997,1022.305955584 192.77711999999997,1022.446355584 192.77711999999997C1024.973555584 192.91751999999997,1026.4617955840001 194.57423999999997,1026.4617955840001 196.65215999999998C1026.4617955840001 197.66303999999997,1026.124835584 198.81431999999998,1025.282435584 199.90943999999996C1023.6818755840001 202.07159999999996,1021.070435584 203.25095999999996,1018.795955584 203.25095999999996C1017.026915584 203.25095999999996,1015.510595584 202.54895999999997,1014.780515584 201.11687999999998C1014.555875584 200.55527999999998,1014.443555584 200.02175999999997,1014.443555584 199.43207999999998C1014.443555584 196.37135999999998,1017.869315584 192.97367999999997,1021.800515584 192.77711999999997">
</path>
</g>
</g>
<g class="vf-modifiers">
</g>
</g>
<path stroke-width="1.5" fill="none" stroke="#000000" stroke-dasharray="none" d="M468.99585318400005 197.99999999999997L468.99585318400005 163.74999999999997">
</path>
<path stroke-width="1.5" fill="none" stroke="#000000" stroke-dasharray="none" d="M500.93743398400005 197.99999999999997L500.93743398400005 163.74999999999997">
</path>
<path stroke-width="1.5" fill="none" stroke="#000000" stroke-dasharray="none" d="M532.8790147840001 197.99999999999997L532.8790147840001 163.74999999999997">
</path>
<path stroke-width="1.5" fill="none" stroke="#000000" stroke-dasharray="none" d="M564.8205955840001 197.99999999999997L564.8205955840001 163.74999999999997">
</path>
<path stroke-width="0.3" fill="#000000" stroke="none" stroke-dasharray="none" d="M468.24585318400005 162.99999999999997L468.24585318400005 167.99999999999997L565.0705955840001 167.99999999999997L565.0705955840001 162.99999999999997Z">
</path>
<path stroke-width="0.3" fill="#000000" stroke="none" stroke-dasharray="none" d="M468.24585318400005 170.49999999999997L468.24585318400005 175.49999999999997L565.0705955840001 175.49999999999997L565.0705955840001 170.49999999999997Z">
</path>
<path stroke-width="1.5" fill="none" stroke="#000000" stroke-dasharray="none" d="M622.6262531840001 197.99999999999997L622.6262531840001 163.74999999999997">
</path>
<path stroke-width="1.5" fill="none" stroke="#000000" stroke-dasharray="none" d="M654.567833984 197.99999999999997L654.567833984 163.74999999999997">
</path>
<path stroke-width="1.5" fill="none" stroke="#000000" stroke-dasharray="none" d="M686.5094147840001 197.99999999999997L686.5094147840001 163.74999999999997">
</path>
<path stroke-width="1.5" fill="none" stroke="#000000" stroke-dasharray="none" d="M718.450995584 197.99999999999997L718.450995584 163.74999999999997">
</path>
<path stroke-width="0.3" fill="#000000" stroke="none" stroke-dasharray="none" d="M621.8762531840001 162.99999999999997L621.8762531840001 167.99999999999997L718.700995584 167.99999999999997L718.700995584 162.99999999999997Z">
</path>
<path stroke-width="0.3" fill="#000000" stroke="none" stroke-dasharray="none" d="M621.8762531840001 170.49999999999997L621.8762531840001 175.49999999999997L718.700995584 175.49999999999997L718.700995584 170.49999999999997Z">
</path>
<path stroke-width="1.5" fill="none" stroke="#000000" stroke-dasharray="none" d="M776.256653184 197.99999999999997L776.256653184 163.74999999999997">
</path>
<path stroke-width="1.5" fill="none" stroke="#000000" stroke-dasharray="none" d="M808.198233984 197.99999999999997L808.198233984 163.74999999999997">
</path>
<path stroke-width="1.5" fill="none" stroke="#000000" stroke-dasharray="none" d="M840.1398147840001 197.99999999999997L840.1398147840001 163.74999999999997">
</path>
<path stroke-width="1.5" fill="none" stroke="#000000" stroke-dasharray="none" d="M872.081395584 197.99999999999997L872.081395584 163.74999999999997">
</path>
<path stroke-width="0.3" fill="#000000" stroke="none" stroke-dasharray="none" d="M775.506653184 162.99999999999997L775.506653184 167.99999999999997L872.331395584 167.99999999999997L872.331395584 162.99999999999997Z">
</path>
<path stroke-width="0.3" fill="#000000" stroke="none" stroke-dasharray="none" d="M775.506653184 170.49999999999997L775.506653184 175.49999999999997L872.331395584 175.49999999999997L872.331395584 170.49999999999997Z">
</path>
<path stroke-width="1.5" fill="none" stroke="#000000" stroke-dasharray="none" d="M929.8870531840001 197.99999999999997L929.8870531840001 163.74999999999997">
</path>
<path stroke-width="1.5" fill="none" stroke="#000000" stroke-dasharray="none" d="M961.828633984 197.99999999999997L961.828633984 163.74999999999997">
</path>
<path stroke-width="1.5" fill="none" stroke="#000000" stroke-dasharray="none" d="M993.7702147840001 197.99999999999997L993.7702147840001 163.74999999999997">
</path>
<path stroke-width="1.5" fill="none" stroke="#000000" stroke-dasharray="none" d="M1025.7117955840001 197.99999999999997L1025.7117955840001 163.74999999999997">
</path>
<path stroke-width="0.3" fill="#000000" stroke="none" stroke-dasharray="none" d="M929.1370531840001 162.99999999999997L929.1370531840001 167.99999999999997L1025.9617955840001 167.99999999999997L1025.9617955840001 162.99999999999997Z">
</path>
<path stroke-width="0.3" fill="#000000" stroke="none" stroke-dasharray="none" d="M929.1370531840001 170.49999999999997L929.1370531840001 175.49999999999997L1025.9617955840001 175.49999999999997L1025.9617955840001 170.49999999999997Z">
</path>
</svg>