<svg width="1536" height="331.99999999999994" viewBox="0 0 1536 331.99999999999994">
<path stroke-width="1" fill="none" stroke="black" stroke-dasharray="none" d="M50 197.99999999999997L401.385136384 197.99999999999997">
</path>
<rect stroke-width="0.3" fill="black" stroke="black" stroke-dasharray="none" x="401.385136384" y="177.49999999999997" width="1" height="41">
</rect>
<path stroke-width="0.3" fill="black" stroke="none" stroke-dasharray="none" d="M55 197.99999999999997M55 197.99999999999997L55 188.00639999999999L57.1888 188.00639999999999L59.4064 188.00639999999999L59.4064 197.99999999999997L59.4064 208.02239999999998L57.1888 208.02239999999998L55 208.02239999999998L55 197.99999999999997M63.870400000000004 198.02879999999996L63.870400000000004 188.00639999999999L66.1168 188.00639999999999L68.3632 188.00639999999999L68.3632 198.02879999999996L68.3632 208.02239999999998L66.1168 208.02239999999998L63.870400000000004 208.02239999999998L63.870400000000004 198.02879999999996">
</path>
<path stroke-width="0.3" fill="black" stroke="none" stroke-dasharray="none" d="M96.1296 197.99999999999997M101.80319999999999 179.33759999999998C101.91839999999999 179.33759999999998,102.11999999999999 179.33759999999998,102.3504 179.33759999999998C102.8112 179.33759999999998,103.416 179.33759999999998,103.56 179.39519999999996C105.72 179.65439999999998,107.448 180.74879999999996,108.1968 182.27519999999998C108.45599999999999 182.79359999999997,108.57119999999999 183.34079999999997,108.57119999999999 183.91679999999997C108.57119999999999 185.32799999999997,107.7936 186.94079999999997,106.38239999999999 188.15039999999996C105.4032 188.98559999999998,104.42399999999999 189.50399999999996,102.8976 189.99359999999996C100.9104 190.62719999999996,99.21119999999999 191.75039999999998,98.1168 193.10399999999998C98.1168 193.10399999999998,98.1168 193.13279999999997,98.1168 193.13279999999997C98.1168 193.13279999999997,98.1168 193.13279999999997,98.1168 193.13279999999997C98.1168 193.13279999999997,98.2032 193.10399999999998,98.26079999999999 193.01759999999996C99.3552 192.12479999999996,100.824 191.60639999999998,102.1488 191.60639999999998C103.2432 191.60639999999998,104.0208 191.80799999999996,105.0576 192.38399999999996C105.6912 192.70079999999996,106.2672 192.84479999999996,106.81439999999999 192.84479999999996C107.0448 192.84479999999996,107.2752 192.84479999999996,107.53439999999999 192.78719999999998C107.9088 192.70079999999996,108.312 192.41279999999998,108.45599999999999 192.18239999999997C108.5424 191.98079999999996,108.68639999999999 191.89439999999996,108.8592 191.89439999999996C109.08959999999999 191.89439999999996,109.32 192.06719999999999,109.32 192.32639999999998C109.32 192.52799999999996,109.0608 193.24799999999996,108.8304 193.7376C107.9088 195.58079999999998,106.29599999999999 196.73279999999997,104.7408 196.73279999999997C104.62559999999999 196.73279999999997,104.5392 196.73279999999997,104.42399999999999 196.70399999999998C104.0208 196.70399999999998,103.848 196.58879999999996,103.3296 196.24319999999997C102.23519999999999 195.52319999999997,100.8528 195.14879999999997,99.6432 195.14879999999997C99.1248 195.14879999999997,98.664 195.20639999999997,98.232 195.37919999999997C97.65599999999999 195.58079999999998,97.1088 195.92639999999997,96.93599999999999 196.18559999999997C96.8496 196.38719999999998,96.70559999999999 196.44479999999996,96.5328 196.44479999999996C96.3888 196.44479999999996,96.2448 196.38719999999998,96.1584 196.21439999999998L96.10079999999999 196.128L96.10079999999999 195.72479999999996C96.10079999999999 195.37919999999997,96.1296 195.26399999999998,96.1296 195.14879999999997C96.1584 195.06239999999997,96.18719999999999 194.88959999999997,96.18719999999999 194.74559999999997C96.70559999999999 192.32639999999998,98.4624 190.16639999999998,100.8528 189.10079999999996C102.8112 188.17919999999998,104.10719999999999 186.53759999999997,104.3376 184.46399999999997C104.39519999999999 184.29119999999998,104.39519999999999 184.14719999999997,104.39519999999999 183.97439999999997C104.39519999999999 182.13119999999998,103.0128 180.86399999999998,101.0544 180.86399999999998C100.9104 180.86399999999998,100.7376 180.86399999999998,100.5936 180.86399999999998C100.3056 180.89279999999997,100.2192 180.89279999999997,100.2192 180.95039999999997C100.2192 180.95039999999997,100.2192 180.97919999999996,100.3056 181.03679999999997C100.96799999999999 181.41119999999998,101.28479999999999 182.13119999999998,101.28479999999999 182.82239999999996C101.28479999999999 183.71519999999998,100.824 184.55039999999997,99.93119999999999 184.89599999999996C99.6432 184.98239999999998,99.3552 185.01119999999997,99.1248 185.01119999999997C97.9152 185.01119999999997,96.9072 183.97439999999997,96.9072 182.73599999999996C96.9072 182.50559999999996,96.9072 182.27519999999998,96.9648 182.01599999999996C97.3968 180.69119999999998,99.4416 179.59679999999997,101.80319999999999 179.33759999999998M102.696 198.02879999999996L102.75359999999999 198.02879999999996L102.6672 198.02879999999996L102.696 198.02879999999996M102.696 178.61759999999998L102.75359999999999 178.61759999999998L102.6672 178.61759999999998L102.696 178.61759999999998">
</path>
<path stroke-width="0.3" fill="black" stroke="none" stroke-dasharray="none" d="M96 217.99999999999997M101.0112 199.65439999999998C101.04 199.62559999999996,101.4432 199.62559999999996,102.6816 199.62559999999996C103.056 199.62559999999996,103.4592 199.62559999999996,103.9776 199.62559999999996L106.8864 199.62559999999996L106.9728 199.71199999999996C107.1168 199.79839999999996,107.2032 199.94239999999996,107.2032 200.05759999999998C107.2032 200.23039999999997,107.1168 200.34559999999996,107.0016 200.46079999999998C106.9728 200.54719999999998,106.7136 200.77759999999998,106.5408 201.03679999999997L105.0144 202.79359999999997L103.056 205.01119999999997L102.0192 206.19199999999998L100.464 207.97759999999997L98.4192 210.31039999999996C98.0736 210.74239999999998,97.6992 211.08799999999997,97.6992 211.08799999999997C97.6992 211.08799999999997,97.6992 211.08799999999997,97.6992 211.08799999999997C97.6992 211.14559999999997,97.9584 211.14559999999997,100.3488 211.14559999999997L102.9696 211.14559999999997L102.9696 209.27359999999996C102.9696 207.37279999999998,102.9696 207.34399999999997,102.9984 207.31519999999998C103.056 207.22879999999998,103.3152 206.91199999999998,104.3232 205.73119999999997L104.7264 205.29919999999998L105.1296 204.86719999999997L105.7344 204.08959999999996L106.368 203.42719999999997L106.6848 203.02399999999997C106.8 202.85119999999998,106.9728 202.82239999999996,107.1168 202.82239999999996C107.28960000000001 202.82239999999996,107.4336 202.90879999999999,107.52 203.05279999999996C107.5488 203.13919999999996,107.5488 203.19679999999997,107.5488 205.32799999999997C107.5488 205.81759999999997,107.5488 206.42239999999998,107.5488 207.14239999999998L107.5488 211.14559999999997L108.2688 211.14559999999997C108.9312 211.14559999999997,108.96 211.14559999999997,109.0464 211.17439999999996C109.2768 211.26079999999996,109.392 211.49119999999996,109.392 211.75039999999998C109.392 211.89439999999996,109.3632 212.06719999999999,109.248 212.18239999999997C109.0752 212.32639999999998,109.0464 212.32639999999998,108.2688 212.32639999999998L107.5488 212.32639999999998L107.5488 212.81599999999997C107.5776 214.28479999999996,107.8656 214.86079999999998,108.9888 215.46559999999997C109.392 215.66719999999998,109.4784 215.72479999999996,109.4784 216.01279999999997C109.4784 216.21439999999998,109.4208 216.30079999999998,109.2768 216.41599999999997L109.1904 216.44479999999996L105.2448 216.44479999999996L101.328 216.44479999999996L101.2416 216.41599999999997C101.0688 216.30079999999998,101.04 216.21439999999998,101.04 216.01279999999997C101.04 215.72479999999996,101.0688 215.66719999999998,101.5008 215.46559999999997C102.624 214.86079999999998,102.912 214.28479999999996,102.912 212.81599999999997L102.912 212.32639999999998L99.6 212.32639999999998C98.9952 212.38399999999996,98.5056 212.38399999999996,98.1024 212.38399999999996C96.288 212.38399999999996,96.2592 212.32639999999998,96.2304 212.32639999999998C96.0576 212.26879999999997,96 212.09599999999998,96 211.89439999999996C96 211.89439999999996,96 211.89439999999996,96 211.89439999999996C96 211.69279999999998,96 211.69279999999998,96.576 211.0304C98.9952 208.09279999999998,100.6944 203.83039999999997,100.6944 200.43199999999996C100.6944 199.91359999999997,100.7808 199.74079999999998,101.0112 199.65439999999998M102.7392 218.02879999999996L102.768 218.02879999999996L102.6816 218.02879999999996L102.7392 218.02879999999996M102.7392 198.61759999999998L102.768 198.61759999999998L102.6816 198.61759999999998L102.7392 198.61759999999998">
</path>
<g class="vf-stavenote" id="vf-auto58646">
<g class="vf-note" pointer-events="bounding-box">
<g class="vf-notehead" pointer-events="bounding-box">
<path stroke-width="0.3" fill="#000000" stroke="none" stroke-dasharray="none" d="M147.3424768 197.99999999999997M154.69943679999997 192.77711999999997C154.81175679999998 192.77711999999997,154.9802368 192.77711999999997,155.0083168 192.77711999999997C155.0083168 192.77711999999997,155.03639679999998 192.77711999999997,155.03639679999998 192.77711999999997C155.03639679999998 192.77711999999997,155.2048768 192.77711999999997,155.3452768 192.77711999999997C157.8724768 192.91751999999997,159.36071679999998 194.57423999999997,159.36071679999998 196.65215999999998C159.36071679999998 197.66303999999997,159.0237568 198.81431999999998,158.18135679999997 199.90943999999996C156.58079679999997 202.07159999999996,153.96935679999999 203.25095999999996,151.69487679999997 203.25095999999996C149.92583679999998 203.25095999999996,148.40951679999998 202.54895999999997,147.6794368 201.11687999999998C147.4547968 200.55527999999998,147.3424768 200.02175999999997,147.3424768 199.43207999999998C147.3424768 196.37135999999998,150.76823679999998 192.97367999999997,154.69943679999997 192.77711999999997">
</path>
</g>
</g>
<g class="vf-modifiers">
<g class="vf-stavenote" id="vf-auto58656">
<g class="vf-note" pointer-events="bounding-box">
<g class="vf-stem" pointer-events="bounding-box">
<path stroke-width="1.5" fill="none" stroke="#000000" stroke-dasharray="none" d="M128.6604384 197.99999999999997L128.6604384 174.89999999999998">
</path>
</g>
<g class="vf-notehead" pointer-events="bounding-box">
<path stroke-width="0.3" fill="#000000" stroke="none" stroke-dasharray="none" d="M121.4784 197.99999999999997M126.3339936 194.55289919999998C126.4081248 194.55289919999998,126.5193216 194.55289919999998,126.5378544 194.55289919999998C126.5378544 194.55289919999998,126.55638719999999 194.55289919999998,126.55638719999999 194.55289919999998C126.55638719999999 194.55289919999998,126.66758399999999 194.55289919999998,126.76024799999999 194.55289919999998C128.4282 194.64556319999997,129.4104384 195.73899839999996,129.4104384 197.11042559999999C129.4104384 197.77760639999997,129.1880448 198.53745119999996,128.6320608 199.26023039999998C127.5756912 200.68725599999996,125.8521408 201.46563359999996,124.350984 201.46563359999996C123.1834176 201.46563359999996,122.1826464 201.00231359999998,121.7007936 200.05714079999998C121.55253119999999 199.68648479999996,121.4784 199.33436159999997,121.4784 198.94517279999997C121.4784 196.92509759999996,123.7394016 194.68262879999997,126.3339936 194.55289919999998">
</path>
</g>
<g class="vf-flag" pointer-events="bounding-box">
<path stroke-width="0.3" fill="#000000" stroke="none" stroke-dasharray="none" d="M128.6604384 172.89999999999998M128.2156512 175.88378079999998L128.2156512 172.992664L128.2897824 172.992664C128.4936432 172.992664,128.6233728 173.12239359999998,128.6604384 173.34478719999998C129.0496272 175.19806719999997,130.2171936 177.21814239999998,131.8295472 178.73783199999997C133.6272288 180.42431679999999,134.535336 182.74091679999998,134.535336 185.13164799999998C134.535336 187.39264959999997,133.7384256 189.74631519999997,132.126072 191.69225919999997C131.84808 192.06291519999996,131.8295472 192.06291519999996,131.6442192 192.06291519999996C131.4218256 192.06291519999996,131.2735632 191.89611999999997,131.2735632 191.67372639999996C131.2735632 191.50693119999997,131.29209600000002 191.4698656,131.477424 191.2660048C132.88591680000002 189.56098719999997,133.5901632 187.5038464,133.5901632 185.5393696C133.5901632 183.7972864,133.0341792 182.12933439999998,131.88514560000002 180.86910399999996C131.1808992 180.09072639999997,129.8836032 179.34941439999997,128.234184 178.77489759999997C128.234184 178.75636479999997,128.2156512 178.18184799999997,128.2156512 175.88378079999998">
</path>
</g>
</g>
<g class="vf-modifiers">
</g>
</g>
<path stroke-width="1" fill="none" stroke="#000000" stroke-dasharray="none" d="M122.4784 189.74999999999997L135.4784 180.74999999999997Z">
</path>
</g>
</g>
<g class="vf-stavenote" id="vf-auto58670">
<g class="vf-note" pointer-events="bounding-box">
<g class="vf-notehead" pointer-events="bounding-box">
<path stroke-width="0.3" fill="#000000" stroke="none" stroke-dasharray="none" d="M195.7817184 197.99999999999997M203.13867839999997 192.77711999999997C203.2509984 192.77711999999997,203.4194784 192.77711999999997,203.4475584 192.77711999999997C203.4475584 192.77711999999997,203.47563839999998 192.77711999999997,203.47563839999998 192.77711999999997C203.47563839999998 192.77711999999997,203.6441184 192.77711999999997,203.7845184 192.77711999999997C206.3117184 192.91751999999997,207.79995839999998 194.57423999999997,207.79995839999998 196.65215999999998C207.79995839999998 197.66303999999997,207.4629984 198.81431999999998,206.62059839999998 199.90943999999996C205.02003839999998 202.07159999999996,202.4085984 203.25095999999996,200.13411839999998 203.25095999999996C198.3650784 203.25095999999996,196.84875839999998 202.54895999999997,196.1186784 201.11687999999998C195.8940384 200.55527999999998,195.7817184 200.02175999999997,195.7817184 199.43207999999998C195.7817184 196.37135999999998,199.20747839999999 192.97367999999997,203.13867839999997 192.77711999999997">
</path>
</g>
</g>
<g class="vf-modifiers">
</g>
</g>
<g class="vf-stavenote" id="vf-auto58680">
<g class="vf-note" pointer-events="bounding-box">
<g class="vf-notehead" pointer-events="bounding-box">
<path stroke-width="0.3" fill="#000000" stroke="none" stroke-dasharray="none" d="M229.01045919999999 197.99999999999997M236.36741919999997 192.77711999999997C236.47973919999998 192.77711999999997,236.64821919999997 192.77711999999997,236.6762992 192.77711999999997C236.6762992 192.77711999999997,236.70437919999998 192.77711999999997,236.70437919999998 192.77711999999997C236.70437919999998 192.77711999999997,236.8728592 192.77711999999997,237.0132592 192.77711999999997C239.5404592 192.91751999999997,241.02869919999998 194.57423999999997,241.02869919999998 196.65215999999998C241.02869919999998 197.66303999999997,240.69173919999997 198.81431999999998,239.84933919999997 199.90943999999996C238.24877919999997 202.07159999999996,235.63733919999999 203.25095999999996,233.36285919999997 203.25095999999996C231.59381919999998 203.25095999999996,230.07749919999998 202.54895999999997,229.3474192 201.11687999999998C229.1227792 200.55527999999998,229.01045919999999 200.02175999999997,229.01045919999999 199.43207999999998C229.01045919999999 196.37135999999998,232.43621919999998 192.97367999999997,236.36741919999997 192.77711999999997">
</path>
</g>
</g>
<g class="vf-modifiers">
</g>
</g>
<g class="vf-stavenote" id="vf-auto58690">
<g class="vf-note" pointer-events="bounding-box">
<g class="vf-notehead" pointer-events="bounding-box">
<path stroke-width="0.3" fill="#000000" stroke="none" stroke-dasharray="none" d="M288.1032768 197.99999999999997M295.4602368 192.77711999999997C295.57255680000003 192.77711999999997,295.7410368 192.77711999999997,295.7691168 192.77711999999997C295.7691168 192.77711999999997,295.7971968 192.77711999999997,295.7971968 192.77711999999997C295.7971968 192.77711999999997,295.9656768 192.77711999999997,296.1060768 192.77711999999997C298.6332768 192.91751999999997,300.1215168 194.57423999999997,300.1215168 196.65215999999998C300.1215168 197.66303999999997,299.7845568 198.81431999999998,298.9421568 199.90943999999996C297.3415968 202.07159999999996,294.73015680000003 203.25095999999996,292.4556768 203.25095999999996C290.68663680000003 203.25095999999996,289.1703168 202.54895999999997,288.4402368 201.11687999999998C288.2155968 200.55527999999998,288.1032768 200.02175999999997,288.1032768 199.43207999999998C288.1032768 196.37135999999998,291.52903680000003 192.97367999999997,295.4602368 192.77711999999997">
</path>
</g>
</g>
<g class="vf-modifiers">
<g class="vf-stavenote" id="vf-auto58700">
<g class="vf-note" pointer-events="bounding-box">
<g class="vf-stem" pointer-events="bounding-box">
<path stroke-width="1.5" fill="none" stroke="#000000" stroke-dasharray="none" d="M269.4212384 197.99999999999997L269.4212384 174.89999999999998">
</path>
</g>
<g class="vf-notehead" pointer-events="bounding-box">
<path stroke-width="0.3" fill="#000000" stroke="none" stroke-dasharray="none" d="M262.2392 197.99999999999997M267.0947936 194.55289919999998C267.16892479999996 194.55289919999998,267.2801216 194.55289919999998,267.2986544 194.55289919999998C267.2986544 194.55289919999998,267.3171872 194.55289919999998,267.3171872 194.55289919999998C267.3171872 194.55289919999998,267.428384 194.55289919999998,267.521048 194.55289919999998C269.18899999999996 194.64556319999997,270.1712384 195.73899839999996,270.1712384 197.11042559999999C270.1712384 197.77760639999997,269.94884479999996 198.53745119999996,269.3928608 199.26023039999998C268.33649119999995 200.68725599999996,266.6129408 201.46563359999996,265.111784 201.46563359999996C263.9442176 201.46563359999996,262.94344639999997 201.00231359999998,262.46159359999996 200.05714079999998C262.3133312 199.68648479999996,262.2392 199.33436159999997,262.2392 198.94517279999997C262.2392 196.92509759999996,264.50020159999997 194.68262879999997,267.0947936 194.55289919999998">
</path>
</g>
<g class="vf-flag" pointer-events="bounding-box">
<path stroke-width="0.3" fill="#000000" stroke="none" stroke-dasharray="none" d="M269.4212384 172.89999999999998M268.9764512 175.88378079999998L268.9764512 172.992664L269.0505824 172.992664C269.25444319999997 172.992664,269.3841728 173.12239359999998,269.4212384 173.34478719999998C269.8104272 175.19806719999997,270.9779936 177.21814239999998,272.5903472 178.73783199999997C274.3880288 180.42431679999999,275.296136 182.74091679999998,275.296136 185.13164799999998C275.296136 187.39264959999997,274.4992256 189.74631519999997,272.886872 191.69225919999997C272.60888 192.06291519999996,272.5903472 192.06291519999996,272.40501919999997 192.06291519999996C272.1826256 192.06291519999996,272.0343632 191.89611999999997,272.0343632 191.67372639999996C272.0343632 191.50693119999997,272.052896 191.4698656,272.238224 191.2660048C273.6467168 189.56098719999997,274.35096319999997 187.5038464,274.35096319999997 185.5393696C274.35096319999997 183.7972864,273.7949792 182.12933439999998,272.6459456 180.86910399999996C271.9416992 180.09072639999997,270.6444032 179.34941439999997,268.994984 178.77489759999997C268.994984 178.75636479999997,268.9764512 178.18184799999997,268.9764512 175.88378079999998">
</path>
</g>
</g>
<g class="vf-modifiers">
</g>
</g>
<path stroke-width="1" fill="none" stroke="#000000" stroke-dasharray="none" d="M263.2392 189.74999999999997L276.2392 180.74999999999997Z">
</path>
</g>
</g>
<g class="vf-stavenote" id="vf-auto58714">
<g class="vf-note" pointer-events="bounding-box">
<g class="vf-notehead" pointer-events="bounding-box">
<path stroke-width="0.3" fill="#000000" stroke="none" stroke-dasharray="none" d="M336.54251839999995 197.99999999999997M343.89947839999996 192.77711999999997C344.0117984 192.77711999999997,344.18027839999996 192.77711999999997,344.20835839999995 192.77711999999997C344.20835839999995 192.77711999999997,344.23643839999994 192.77711999999997,344.23643839999994 192.77711999999997C344.23643839999994 192.77711999999997,344.40491839999993 192.77711999999997,344.5453183999999 192.77711999999997C347.0725183999999 192.91751999999997,348.56075839999994 194.57423999999997,348.56075839999994 196.65215999999998C348.56075839999994 197.66303999999997,348.22379839999996 198.81431999999998,347.38139839999997 199.90943999999996C345.78083839999994 202.07159999999996,343.1693984 203.25095999999996,340.89491839999994 203.25095999999996C339.1258784 203.25095999999996,337.60955839999997 202.54895999999997,336.8794783999999 201.11687999999998C336.65483839999996 200.55527999999998,336.54251839999995 200.02175999999997,336.54251839999995 199.43207999999998C336.54251839999995 196.37135999999998,339.9682784 192.97367999999997,343.89947839999996 192.77711999999997">
</path>
</g>
</g>
<g class="vf-modifiers">
</g>
</g>
<g class="vf-stavenote" id="vf-auto58724">
<g class="vf-note" pointer-events="bounding-box">
<g class="vf-notehead" pointer-events="bounding-box">
<path stroke-width="0.3" fill="#000000" stroke="none" stroke-dasharray="none" d="M369.7712592 197.99999999999997M377.1282192 192.77711999999997C377.2405392 192.77711999999997,377.4090192 192.77711999999997,377.4370992 192.77711999999997C377.4370992 192.77711999999997,377.46517919999997 192.77711999999997,377.46517919999997 192.77711999999997C377.46517919999997 192.77711999999997,377.63365919999995 192.77711999999997,377.77405919999995 192.77711999999997C380.3012592 192.91751999999997,381.78949919999997 194.57423999999997,381.78949919999997 196.65215999999998C381.78949919999997 197.66303999999997,381.4525392 198.81431999999998,380.6101392 199.90943999999996C379.00957919999996 202.07159999999996,376.39813919999995 203.25095999999996,374.12365919999996 203.25095999999996C372.3546192 203.25095999999996,370.8382992 202.54895999999997,370.10821919999995 201.11687999999998C369.8835792 200.55527999999998,369.7712592 200.02175999999997,369.7712592 199.43207999999998C369.7712592 196.37135999999998,373.1970192 192.97367999999997,377.1282192 192.77711999999997">
</path>
</g>
</g>
<g class="vf-modifiers">
</g>
</g>
<path stroke-width="1.5" fill="none" stroke="#000000" stroke-dasharray="none" d="M158.61071679999998 197.99999999999997L158.61071679999998 163.74999999999997">
</path>
<path stroke-width="1.5" fill="none" stroke="#000000" stroke-dasharray="none" d="M207.04995839999998 197.99999999999997L207.04995839999998 163.74999999999997">
</path>
<path stroke-width="1.5" fill="none" stroke="#000000" stroke-dasharray="none" d="M240.27869919999998 197.99999999999997L240.27869919999998 163.74999999999997">
</path>
<path stroke-width="0.3" fill="#000000" stroke="none" stroke-dasharray="none" d="M157.86071679999998 162.99999999999997L157.86071679999998 167.99999999999997L240.52869919999998 167.99999999999997L240.52869919999998 162.99999999999997Z">
</path>
<path stroke-width="0.3" fill="#000000" stroke="none" stroke-dasharray="none" d="M206.29995839999998 170.49999999999997L206.29995839999998 175.49999999999997L240.52869919999998 175.49999999999997L240.52869919999998 170.49999999999997Z">
</path>
<path stroke-width="1.5" fill="none" stroke="#000000" stroke-dasharray="none" d="M299.3715168 197.99999999999997L299.3715168 163.74999999999997">
</path>
<path stroke-width="1.5" fill="none" stroke="#000000" stroke-dasharray="none" d="M347.81075839999994 197.99999999999997L347.81075839999994 163.74999999999997">
</path>
<path stroke-width="1.5" fill="none" stroke="#000000" stroke-dasharray="none" d="M381.03949919999997 197.99999999999997L381.03949919999997 163.74999999999997">
</path>
<path stroke-width="0.3" fill="#000000" stroke="none" stroke-dasharray="none" d="M298.6215168 162.99999999999997L298.6215168 167.99999999999997L381.28949919999997 167.99999999999997L381.28949919999997 162.99999999999997Z">
</path>
<path stroke-width="0.3" fill="#000000" stroke="none" stroke-dasharray="none" d="M347.06075839999994 170.49999999999997L347.06075839999994 175.49999999999997L381.28949919999997 175.49999999999997L381.28949919999997 170.49999999999997Z">
</path>
<path stroke-width="1" fill="none" stroke="black" stroke-dasharray="none" d="M401.385136384 197.99999999999997L1106.300334336 197.99999999999997">
</path>
<rect stroke-width="0.3" fill="black" stroke="black" stroke-dasharray="none" x="1101.300334336" y="177.49999999999997" width="1" height="41">
</rect>
<rect stroke-width="0.3" fill="black" stroke="black" stroke-dasharray="none" x="1104.300334336" y="177.49999999999997" width="3" height="41">
</rect>
<path stroke-width="0.3" fill="black" stroke="none" stroke-dasharray="none" d="M1100.300334336 193.49999999999997 A2 2 0 0 0 1096.300334336 193.49999999999997M1096.300334336 193.49999999999997 A2 2 0 0 0 1100.300334336 193.49999999999997">
</path>
<path stroke-width="0.3" fill="black" stroke="none" stroke-dasharray="none" d="M1100.300334336 203.49999999999997 A2 2 0 0 0 1096.300334336 203.49999999999997M1096.300334336 203.49999999999997 A2 2 0 0 0 1100.300334336 203.49999999999997">
</path>
<path stroke-width="0.3" fill="black" stroke="none" stroke-dasharray="none" d="M406.385136384 197.99999999999997M411.396336384 179.65439999999998C411.42513638400004 179.62559999999996,411.828336384 179.62559999999996,413.066736384 179.62559999999996C413.441136384 179.62559999999996,413.84433638400003 179.62559999999996,414.362736384 179.62559999999996L417.271536384 179.62559999999996L417.357936384 179.71199999999996C417.50193638400003 179.79839999999996,417.588336384 179.94239999999996,417.588336384 180.05759999999998C417.588336384 180.23039999999997,417.50193638400003 180.34559999999996,417.386736384 180.46079999999998C417.357936384 180.54719999999998,417.098736384 180.77759999999998,416.925936384 181.03679999999997L415.39953638400004 182.79359999999997L413.441136384 185.01119999999997L412.40433638400003 186.19199999999998L410.849136384 187.97759999999997L408.804336384 190.31039999999996C408.458736384 190.74239999999998,408.08433638400004 191.08799999999997,408.08433638400004 191.08799999999997C408.08433638400004 191.08799999999997,408.08433638400004 191.08799999999997,408.08433638400004 191.08799999999997C408.08433638400004 191.14559999999997,408.343536384 191.14559999999997,410.733936384 191.14559999999997L413.35473638400003 191.14559999999997L413.35473638400003 189.27359999999996C413.35473638400003 187.37279999999998,413.35473638400003 187.34399999999997,413.383536384 187.31519999999998C413.441136384 187.22879999999998,413.700336384 186.91199999999998,414.708336384 185.73119999999997L415.11153638400003 185.29919999999998L415.514736384 184.86719999999997L416.119536384 184.08959999999996L416.753136384 183.42719999999997L417.069936384 183.02399999999997C417.18513638400003 182.85119999999998,417.357936384 182.82239999999996,417.50193638400003 182.82239999999996C417.674736384 182.82239999999996,417.81873638400003 182.90879999999999,417.905136384 183.05279999999996C417.93393638400005 183.13919999999996,417.93393638400005 183.19679999999997,417.93393638400005 185.32799999999997C417.93393638400005 185.81759999999997,417.93393638400005 186.42239999999998,417.93393638400005 187.14239999999998L417.93393638400005 191.14559999999997L418.653936384 191.14559999999997C419.316336384 191.14559999999997,419.345136384 191.14559999999997,419.431536384 191.17439999999996C419.661936384 191.26079999999996,419.777136384 191.49119999999996,419.777136384 191.75039999999998C419.777136384 191.89439999999996,419.748336384 192.06719999999999,419.633136384 192.18239999999997C419.460336384 192.32639999999998,419.431536384 192.32639999999998,418.653936384 192.32639999999998L417.93393638400005 192.32639999999998L417.93393638400005 192.81599999999997C417.96273638400004 194.28479999999996,418.250736384 194.86079999999998,419.37393638400005 195.46559999999997C419.777136384 195.66719999999998,419.86353638400004 195.72479999999996,419.86353638400004 196.01279999999997C419.86353638400004 196.21439999999998,419.805936384 196.30079999999998,419.661936384 196.41599999999997L419.57553638400003 196.44479999999996L415.629936384 196.44479999999996L411.713136384 196.44479999999996L411.626736384 196.41599999999997C411.45393638400003 196.30079999999998,411.42513638400004 196.21439999999998,411.42513638400004 196.01279999999997C411.42513638400004 195.72479999999996,411.45393638400003 195.66719999999998,411.88593638400005 195.46559999999997C413.00913638400004 194.86079999999998,413.297136384 194.28479999999996,413.297136384 192.81599999999997L413.297136384 192.32639999999998L409.98513638400004 192.32639999999998C409.38033638400003 192.38399999999996,408.89073638400004 192.38399999999996,408.487536384 192.38399999999996C406.67313638400003 192.38399999999996,406.64433638400004 192.32639999999998,406.615536384 192.32639999999998C406.442736384 192.26879999999997,406.385136384 192.09599999999998,406.385136384 191.89439999999996C406.385136384 191.89439999999996,406.385136384 191.89439999999996,406.385136384 191.89439999999996C406.385136384 191.69279999999998,406.385136384 191.69279999999998,406.96113638400004 191.0304C409.38033638400003 188.09279999999998,411.079536384 183.83039999999997,411.079536384 180.43199999999996C411.079536384 179.91359999999997,411.165936384 179.74079999999998,411.396336384 179.65439999999998M413.124336384 198.02879999999996L413.153136384 198.02879999999996L413.066736384 198.02879999999996L413.124336384 198.02879999999996M413.124336384 178.61759999999998L413.153136384 178.61759999999998L413.066736384 178.61759999999998L413.124336384 178.61759999999998">
</path>
<path stroke-width="0.3" fill="black" stroke="none" stroke-dasharray="none" d="M406.385136384 217.99999999999997M411.396336384 199.65439999999998C411.42513638400004 199.62559999999996,411.828336384 199.62559999999996,413.066736384 199.62559999999996C413.441136384 199.62559999999996,413.84433638400003 199.62559999999996,414.362736384 199.62559999999996L417.271536384 199.62559999999996L417.357936384 199.71199999999996C417.50193638400003 199.79839999999996,417.588336384 199.94239999999996,417.588336384 200.05759999999998C417.588336384 200.23039999999997,417.50193638400003 200.34559999999996,417.386736384 200.46079999999998C417.357936384 200.54719999999998,417.098736384 200.77759999999998,416.925936384 201.03679999999997L415.39953638400004 202.79359999999997L413.441136384 205.01119999999997L412.40433638400003 206.19199999999998L410.849136384 207.97759999999997L408.804336384 210.31039999999996C408.458736384 210.74239999999998,408.08433638400004 211.08799999999997,408.08433638400004 211.08799999999997C408.08433638400004 211.08799999999997,408.08433638400004 211.08799999999997,408.08433638400004 211.08799999999997C408.08433638400004 211.14559999999997,408.343536384 211.14559999999997,410.733936384 211.14559999999997L413.35473638400003 211.14559999999997L413.35473638400003 209.27359999999996C413.35473638400003 207.37279999999998,413.35473638400003 207.34399999999997,413.383536384 207.31519999999998C413.441136384 207.22879999999998,413.700336384 206.91199999999998,414.708336384 205.73119999999997L415.11153638400003 205.29919999999998L415.514736384 204.86719999999997L416.119536384 204.08959999999996L416.753136384 203.42719999999997L417.069936384 203.02399999999997C417.18513638400003 202.85119999999998,417.357936384 202.82239999999996,417.50193638400003 202.82239999999996C417.674736384 202.82239999999996,417.81873638400003 202.90879999999999,417.905136384 203.05279999999996C417.93393638400005 203.13919999999996,417.93393638400005 203.19679999999997,417.93393638400005 205.32799999999997C417.93393638400005 205.81759999999997,417.93393638400005 206.42239999999998,417.93393638400005 207.14239999999998L417.93393638400005 211.14559999999997L418.653936384 211.14559999999997C419.316336384 211.14559999999997,419.345136384 211.14559999999997,419.431536384 211.17439999999996C419.661936384 211.26079999999996,419.777136384 211.49119999999996,419.777136384 211.75039999999998C419.777136384 211.89439999999996,419.748336384 212.06719999999999,419.633136384 212.18239999999997C419.460336384 212.32639999999998,419.431536384 212.32639999999998,418.653936384 212.32639999999998L417.93393638400005 212.32639999999998L417.93393638400005 212.81599999999997C417.96273638400004 214.28479999999996,418.250736384 214.86079999999998,419.37393638400005 215.46559999999997C419.777136384 215.66719999999998,419.86353638400004 215.72479999999996,419.86353638400004 216.01279999999997C419.86353638400004 216.21439999999998,419.805936384 216.30079999999998,419.661936384 216.41599999999997L419.57553638400003 216.44479999999996L415.629936384 216.44479999999996L411.713136384 216.44479999999996L411.626736384 216.41599999999997C411.45393638400003 216.30079999999998,411.42513638400004 216.21439999999998,411.42513638400004 216.01279999999997C411.42513638400004 215.72479999999996,411.45393638400003 215.66719999999998,411.88593638400005 215.46559999999997C413.00913638400004 214.86079999999998,413.297136384 214.28479999999996,413.297136384 212.81599999999997L413.297136384 212.32639999999998L409.98513638400004 212.32639999999998C409.38033638400003 212.38399999999996,408.89073638400004 212.38399999999996,408.487536384 212.38399999999996C406.67313638400003 212.38399999999996,406.64433638400004 212.32639999999998,406.615536384 212.32639999999998C406.442736384 212.26879999999997,406.385136384 212.09599999999998,406.385136384 211.89439999999996C406.385136384 211.89439999999996,406.385136384 211.89439999999996,406.385136384 211.89439999999996C406.385136384 211.69279999999998,406.385136384 211.69279999999998,406.96113638400004 211.0304C409.38033638400003 208.09279999999998,411.079536384 203.83039999999997,411.079536384 200.43199999999996C411.079536384 199.91359999999997,411.165936384 199.74079999999998,411.396336384 199.65439999999998M413.124336384 218.02879999999996L413.153136384 218.02879999999996L413.066736384 218.02879999999996L413.124336384 218.02879999999996M413.124336384 198.61759999999998L413.153136384 198.61759999999998L413.066736384 198.61759999999998L413.124336384 198.61759999999998">
</path>
<g class="vf-stavenote" id="vf-auto58737">
<g class="vf-note" pointer-events="bounding-box">
<g class="vf-notehead" pointer-events="bounding-box">
<path stroke-width="0.3" fill="#000000" stroke="none" stroke-dasharray="none" d="M457.72761318400006 197.99999999999997M465.0845731840001 192.77711999999997C465.1968931840001 192.77711999999997,465.3653731840001 192.77711999999997,465.39345318400007 192.77711999999997C465.39345318400007 192.77711999999997,465.42153318400005 192.77711999999997,465.42153318400005 192.77711999999997C465.42153318400005 192.77711999999997,465.59001318400004 192.77711999999997,465.73041318400004 192.77711999999997C468.2576131840001 192.91751999999997,469.74585318400005 194.57423999999997,469.74585318400005 196.65215999999998C469.74585318400005 197.66303999999997,469.4088931840001 198.81431999999998,468.5664931840001 199.90943999999996C466.96593318400005 202.07159999999996,464.35449318400003 203.25095999999996,462.08001318400005 203.25095999999996C460.3109731840001 203.25095999999996,458.7946531840001 202.54895999999997,458.06457318400004 201.11687999999998C457.8399331840001 200.55527999999998,457.72761318400006 200.02175999999997,457.72761318400006 199.43207999999998C457.72761318400006 196.37135999999998,461.1533731840001 192.97367999999997,465.0845731840001 192.77711999999997">
</path>
</g>
</g>
<g class="vf-modifiers">
<g class="vf-stavenote" id="vf-auto58747">
<g class="vf-note" pointer-events="bounding-box">
<g class="vf-stem" pointer-events="bounding-box">
<path stroke-width="1.5" fill="none" stroke="#000000" stroke-dasharray="none" d="M439.04557478400005 197.99999999999997L439.04557478400005 174.89999999999998">
</path>
</g>
<g class="vf-notehead" pointer-events="bounding-box">
<path stroke-width="0.3" fill="#000000" stroke="none" stroke-dasharray="none" d="M431.86353638400004 197.99999999999997M436.71912998400006 194.55289919999998C436.793261184 194.55289919999998,436.90445798400003 194.55289919999998,436.92299078400004 194.55289919999998C436.92299078400004 194.55289919999998,436.94152358400004 194.55289919999998,436.94152358400004 194.55289919999998C436.94152358400004 194.55289919999998,437.05272038400005 194.55289919999998,437.14538438400007 194.55289919999998C438.813336384 194.64556319999997,439.79557478400005 195.73899839999996,439.79557478400005 197.11042559999999C439.79557478400005 197.77760639999997,439.573181184 198.53745119999996,439.01719718400005 199.26023039999998C437.96082758400007 200.68725599999996,436.23727718400005 201.46563359999996,434.73612038400006 201.46563359999996C433.56855398400006 201.46563359999996,432.56778278400003 201.00231359999998,432.085929984 200.05714079999998C431.93766758400005 199.68648479999996,431.86353638400004 199.33436159999997,431.86353638400004 198.94517279999997C431.86353638400004 196.92509759999996,434.124537984 194.68262879999997,436.71912998400006 194.55289919999998">
</path>
</g>
<g class="vf-flag" pointer-events="bounding-box">
<path stroke-width="0.3" fill="#000000" stroke="none" stroke-dasharray="none" d="M439.04557478400005 172.89999999999998M438.60078758400005 175.88378079999998L438.60078758400005 172.992664L438.67491878400006 172.992664C438.87877958400003 172.992664,439.00850918400005 173.12239359999998,439.04557478400005 173.34478719999998C439.43476358400005 175.19806719999997,440.60232998400005 177.21814239999998,442.21468358400006 178.73783199999997C444.01236518400003 180.42431679999999,444.92047238400005 182.74091679999998,444.92047238400005 185.13164799999998C444.92047238400005 187.39264959999997,444.12356198400005 189.74631519999997,442.51120838400004 191.69225919999997C442.23321638400006 192.06291519999996,442.21468358400006 192.06291519999996,442.02935558400003 192.06291519999996C441.80696198400005 192.06291519999996,441.65869958400003 191.89611999999997,441.65869958400003 191.67372639999996C441.65869958400003 191.50693119999997,441.67723238400004 191.4698656,441.86256038400006 191.2660048C443.27105318400004 189.56098719999997,443.975299584 187.5038464,443.975299584 185.5393696C443.975299584 183.7972864,443.41931558400006 182.12933439999998,442.27028198400006 180.86910399999996C441.5660355840001 180.09072639999997,440.26873958400006 179.34941439999997,438.61932038400005 178.77489759999997C438.61932038400005 178.75636479999997,438.60078758400005 178.18184799999997,438.60078758400005 175.88378079999998">
</path>
</g>
</g>
<g class="vf-modifiers">
</g>
</g>
<path stroke-width="1" fill="none" stroke="#000000" stroke-dasharray="none" d="M432.86353638400004 189.74999999999997L445.86353638400004 180.74999999999997Z">
</path>
</g>
</g>
<g class="vf-stavenote" id="vf-auto58761">
<g class="vf-note" pointer-events="bounding-box">
<g class="vf-notehead" pointer-events="bounding-box">
<path stroke-width="0.3" fill="#000000" stroke="none" stroke-dasharray="none" d="M490.24868438400006 197.99999999999997M497.6056443840001 192.77711999999997C497.7179643840001 192.77711999999997,497.8864443840001 192.77711999999997,497.91452438400006 192.77711999999997C497.91452438400006 192.77711999999997,497.94260438400005 192.77711999999997,497.94260438400005 192.77711999999997C497.94260438400005 192.77711999999997,498.11108438400004 192.77711999999997,498.25148438400004 192.77711999999997C500.77868438400003 192.91751999999997,502.26692438400005 194.57423999999997,502.26692438400005 196.65215999999998C502.26692438400005 197.66303999999997,501.9299643840001 198.81431999999998,501.0875643840001 199.90943999999996C499.48700438400004 202.07159999999996,496.8755643840001 203.25095999999996,494.60108438400005 203.25095999999996C492.8320443840001 203.25095999999996,491.3157243840001 202.54895999999997,490.58564438400003 201.11687999999998C490.36100438400007 200.55527999999998,490.24868438400006 200.02175999999997,490.24868438400006 199.43207999999998C490.24868438400006 196.37135999999998,493.6744443840001 192.97367999999997,497.6056443840001 192.77711999999997">
</path>
</g>
</g>
<g class="vf-modifiers">
</g>
</g>
<g class="vf-stavenote" id="vf-auto58771">
<g class="vf-note" pointer-events="bounding-box">
<g class="vf-notehead" pointer-events="bounding-box">
<path stroke-width="0.3" fill="#000000" stroke="none" stroke-dasharray="none" d="M522.769755584 197.99999999999997M530.126715584 192.77711999999997C530.239035584 192.77711999999997,530.407515584 192.77711999999997,530.435595584 192.77711999999997C530.435595584 192.77711999999997,530.463675584 192.77711999999997,530.463675584 192.77711999999997C530.463675584 192.77711999999997,530.632155584 192.77711999999997,530.772555584 192.77711999999997C533.299755584 192.91751999999997,534.787995584 194.57423999999997,534.787995584 196.65215999999998C534.787995584 197.66303999999997,534.451035584 198.81431999999998,533.608635584 199.90943999999996C532.008075584 202.07159999999996,529.396635584 203.25095999999996,527.122155584 203.25095999999996C525.353115584 203.25095999999996,523.836795584 202.54895999999997,523.106715584 201.11687999999998C522.882075584 200.55527999999998,522.769755584 200.02175999999997,522.769755584 199.43207999999998C522.769755584 196.37135999999998,526.195515584 192.97367999999997,530.126715584 192.77711999999997">
</path>
</g>
</g>
<g class="vf-modifiers">
</g>
</g>
<g class="vf-stavenote" id="vf-auto58781">
<g class="vf-note" pointer-events="bounding-box">
<g class="vf-notehead" pointer-events="bounding-box">
<path stroke-width="0.3" fill="#000000" stroke="none" stroke-dasharray="none" d="M555.290826784 197.99999999999997M562.647786784 192.77711999999997C562.7601067840001 192.77711999999997,562.928586784 192.77711999999997,562.956666784 192.77711999999997C562.956666784 192.77711999999997,562.9847467840001 192.77711999999997,562.9847467840001 192.77711999999997C562.9847467840001 192.77711999999997,563.153226784 192.77711999999997,563.293626784 192.77711999999997C565.820826784 192.91751999999997,567.309066784 194.57423999999997,567.309066784 196.65215999999998C567.309066784 197.66303999999997,566.9721067840001 198.81431999999998,566.1297067840001 199.90943999999996C564.5291467840001 202.07159999999996,561.9177067840001 203.25095999999996,559.643226784 203.25095999999996C557.874186784 203.25095999999996,556.3578667840001 202.54895999999997,555.627786784 201.11687999999998C555.403146784 200.55527999999998,555.290826784 200.02175999999997,555.290826784 199.43207999999998C555.290826784 196.37135999999998,558.716586784 192.97367999999997,562.647786784 192.77711999999997">
</path>
</g>
</g>
<g class="vf-modifiers">
</g>
</g>
<g class="vf-stavenote" id="vf-auto58791">
<g class="vf-note" pointer-events="bounding-box">
<g class="vf-notehead" pointer-events="bounding-box">
<path stroke-width="0.3" fill="#000000" stroke="none" stroke-dasharray="none" d="M613.6759747840001 197.99999999999997M621.0329347840001 192.77711999999997C621.1452547840001 192.77711999999997,621.3137347840001 192.77711999999997,621.3418147840001 192.77711999999997C621.3418147840001 192.77711999999997,621.3698947840002 192.77711999999997,621.3698947840002 192.77711999999997C621.3698947840002 192.77711999999997,621.5383747840001 192.77711999999997,621.6787747840001 192.77711999999997C624.2059747840001 192.91751999999997,625.6942147840001 194.57423999999997,625.6942147840001 196.65215999999998C625.6942147840001 197.66303999999997,625.3572547840001 198.81431999999998,624.5148547840001 199.90943999999996C622.9142947840002 202.07159999999996,620.3028547840001 203.25095999999996,618.0283747840001 203.25095999999996C616.2593347840001 203.25095999999996,614.7430147840001 202.54895999999997,614.0129347840001 201.11687999999998C613.7882947840001 200.55527999999998,613.6759747840001 200.02175999999997,613.6759747840001 199.43207999999998C613.6759747840001 196.37135999999998,617.1017347840001 192.97367999999997,621.0329347840001 192.77711999999997">
</path>
</g>
</g>
<g class="vf-modifiers">
<g class="vf-stavenote" id="vf-auto58801">
<g class="vf-note" pointer-events="bounding-box">
<g class="vf-stem" pointer-events="bounding-box">
<path stroke-width="1.5" fill="none" stroke="#000000" stroke-dasharray="none" d="M594.9939363840001 197.99999999999997L594.9939363840001 174.89999999999998">
</path>
</g>
<g class="vf-notehead" pointer-events="bounding-box">
<path stroke-width="0.3" fill="#000000" stroke="none" stroke-dasharray="none" d="M587.8118979840001 197.99999999999997M592.6674915840001 194.55289919999998C592.7416227840001 194.55289919999998,592.8528195840001 194.55289919999998,592.8713523840001 194.55289919999998C592.8713523840001 194.55289919999998,592.8898851840001 194.55289919999998,592.8898851840001 194.55289919999998C592.8898851840001 194.55289919999998,593.001081984 194.55289919999998,593.0937459840001 194.55289919999998C594.7616979840001 194.64556319999997,595.7439363840001 195.73899839999996,595.7439363840001 197.11042559999999C595.7439363840001 197.77760639999997,595.5215427840001 198.53745119999996,594.9655587840001 199.26023039999998C593.9091891840001 200.68725599999996,592.185638784 201.46563359999996,590.6844819840001 201.46563359999996C589.5169155840001 201.46563359999996,588.5161443840001 201.00231359999998,588.0342915840001 200.05714079999998C587.8860291840001 199.68648479999996,587.8118979840001 199.33436159999997,587.8118979840001 198.94517279999997C587.8118979840001 196.92509759999996,590.0728995840001 194.68262879999997,592.6674915840001 194.55289919999998">
</path>
</g>
<g class="vf-flag" pointer-events="bounding-box">
<path stroke-width="0.3" fill="#000000" stroke="none" stroke-dasharray="none" d="M594.9939363840001 172.89999999999998M594.5491491840002 175.88378079999998L594.5491491840002 172.992664L594.623280384 172.992664C594.8271411840001 172.992664,594.9568707840001 173.12239359999998,594.9939363840001 173.34478719999998C595.3831251840002 175.19806719999997,596.5506915840001 177.21814239999998,598.1630451840001 178.73783199999997C599.9607267840001 180.42431679999999,600.8688339840002 182.74091679999998,600.8688339840002 185.13164799999998C600.8688339840002 187.39264959999997,600.0719235840002 189.74631519999997,598.4595699840002 191.69225919999997C598.1815779840001 192.06291519999996,598.1630451840001 192.06291519999996,597.9777171840001 192.06291519999996C597.755323584 192.06291519999996,597.6070611840001 191.89611999999997,597.6070611840001 191.67372639999996C597.6070611840001 191.50693119999997,597.6255939840001 191.4698656,597.8109219840001 191.2660048C599.2194147840002 189.56098719999997,599.9236611840001 187.5038464,599.9236611840001 185.5393696C599.9236611840001 183.7972864,599.3676771840001 182.12933439999998,598.2186435840001 180.86910399999996C597.5143971840001 180.09072639999997,596.2171011840001 179.34941439999997,594.5676819840002 178.77489759999997C594.5676819840002 178.75636479999997,594.5491491840002 178.18184799999997,594.5491491840002 175.88378079999998">
</path>
</g>
</g>
<g class="vf-modifiers">
</g>
</g>
<path stroke-width="1" fill="none" stroke="#000000" stroke-dasharray="none" d="M588.8118979840001 189.74999999999997L601.8118979840001 180.74999999999997Z">
</path>
</g>
</g>
<g class="vf-stavenote" id="vf-auto58815">
<g class="vf-note" pointer-events="bounding-box">
<g class="vf-notehead" pointer-events="bounding-box">
<path stroke-width="0.3" fill="#000000" stroke="none" stroke-dasharray="none" d="M646.197045984 197.99999999999997M653.554005984 192.77711999999997C653.6663259840001 192.77711999999997,653.834805984 192.77711999999997,653.8628859840001 192.77711999999997C653.8628859840001 192.77711999999997,653.8909659840001 192.77711999999997,653.8909659840001 192.77711999999997C653.8909659840001 192.77711999999997,654.059445984 192.77711999999997,654.199845984 192.77711999999997C656.727045984 192.91751999999997,658.215285984 194.57423999999997,658.215285984 196.65215999999998C658.215285984 197.66303999999997,657.8783259840001 198.81431999999998,657.0359259840001 199.90943999999996C655.4353659840001 202.07159999999996,652.8239259840001 203.25095999999996,650.549445984 203.25095999999996C648.780405984 203.25095999999996,647.2640859840001 202.54895999999997,646.534005984 201.11687999999998C646.309365984 200.55527999999998,646.197045984 200.02175999999997,646.197045984 199.43207999999998C646.197045984 196.37135999999998,649.622805984 192.97367999999997,653.554005984 192.77711999999997">
</path>
</g>
</g>
<g class="vf-modifiers">
</g>
</g>
<g class="vf-stavenote" id="vf-auto58825">
<g class="vf-note" pointer-events="bounding-box">
<g class="vf-notehead" pointer-events="bounding-box">
<path stroke-width="0.3" fill="#000000" stroke="none" stroke-dasharray="none" d="M678.718117184 197.99999999999997M686.075077184 192.77711999999997C686.187397184 192.77711999999997,686.355877184 192.77711999999997,686.383957184 192.77711999999997C686.383957184 192.77711999999997,686.412037184 192.77711999999997,686.412037184 192.77711999999997C686.412037184 192.77711999999997,686.580517184 192.77711999999997,686.720917184 192.77711999999997C689.248117184 192.91751999999997,690.736357184 194.57423999999997,690.736357184 196.65215999999998C690.736357184 197.66303999999997,690.399397184 198.81431999999998,689.556997184 199.90943999999996C687.956437184 202.07159999999996,685.344997184 203.25095999999996,683.070517184 203.25095999999996C681.301477184 203.25095999999996,679.785157184 202.54895999999997,679.055077184 201.11687999999998C678.830437184 200.55527999999998,678.718117184 200.02175999999997,678.718117184 199.43207999999998C678.718117184 196.37135999999998,682.143877184 192.97367999999997,686.075077184 192.77711999999997">
</path>
</g>
</g>
<g class="vf-modifiers">
</g>
</g>
<g class="vf-stavenote" id="vf-auto58835">
<g class="vf-note" pointer-events="bounding-box">
<g class="vf-notehead" pointer-events="bounding-box">
<path stroke-width="0.3" fill="#000000" stroke="none" stroke-dasharray="none" d="M711.239188384 197.99999999999997M718.596148384 192.77711999999997C718.7084683840001 192.77711999999997,718.876948384 192.77711999999997,718.905028384 192.77711999999997C718.905028384 192.77711999999997,718.9331083840001 192.77711999999997,718.9331083840001 192.77711999999997C718.9331083840001 192.77711999999997,719.101588384 192.77711999999997,719.241988384 192.77711999999997C721.769188384 192.91751999999997,723.257428384 194.57423999999997,723.257428384 196.65215999999998C723.257428384 197.66303999999997,722.9204683840001 198.81431999999998,722.0780683840001 199.90943999999996C720.4775083840001 202.07159999999996,717.8660683840001 203.25095999999996,715.591588384 203.25095999999996C713.822548384 203.25095999999996,712.3062283840001 202.54895999999997,711.576148384 201.11687999999998C711.351508384 200.55527999999998,711.239188384 200.02175999999997,711.239188384 199.43207999999998C711.239188384 196.37135999999998,714.664948384 192.97367999999997,718.596148384 192.77711999999997">
</path>
</g>
</g>
<g class="vf-modifiers">
</g>
</g>
<g class="vf-stavenote" id="vf-auto58845">
<g class="vf-note" pointer-events="bounding-box">
<g class="vf-notehead" pointer-events="bounding-box">
<path stroke-width="0.3" fill="#000000" stroke="none" stroke-dasharray="none" d="M769.624336384 197.99999999999997M776.981296384 192.77711999999997C777.093616384 192.77711999999997,777.262096384 192.77711999999997,777.290176384 192.77711999999997C777.290176384 192.77711999999997,777.318256384 192.77711999999997,777.318256384 192.77711999999997C777.318256384 192.77711999999997,777.486736384 192.77711999999997,777.627136384 192.77711999999997C780.154336384 192.91751999999997,781.642576384 194.57423999999997,781.642576384 196.65215999999998C781.642576384 197.66303999999997,781.305616384 198.81431999999998,780.463216384 199.90943999999996C778.862656384 202.07159999999996,776.251216384 203.25095999999996,773.976736384 203.25095999999996C772.207696384 203.25095999999996,770.691376384 202.54895999999997,769.961296384 201.11687999999998C769.736656384 200.55527999999998,769.624336384 200.02175999999997,769.624336384 199.43207999999998C769.624336384 196.37135999999998,773.050096384 192.97367999999997,776.981296384 192.77711999999997">
</path>
</g>
</g>
<g class="vf-modifiers">
<g class="vf-stavenote" id="vf-auto58855">
<g class="vf-note" pointer-events="bounding-box">
<g class="vf-stem" pointer-events="bounding-box">
<path stroke-width="1.5" fill="none" stroke="#000000" stroke-dasharray="none" d="M750.942297984 197.99999999999997L750.942297984 174.89999999999998">
</path>
</g>
<g class="vf-notehead" pointer-events="bounding-box">
<path stroke-width="0.3" fill="#000000" stroke="none" stroke-dasharray="none" d="M743.760259584 197.99999999999997M748.615853184 194.55289919999998C748.689984384 194.55289919999998,748.801181184 194.55289919999998,748.819713984 194.55289919999998C748.819713984 194.55289919999998,748.838246784 194.55289919999998,748.838246784 194.55289919999998C748.838246784 194.55289919999998,748.9494435839999 194.55289919999998,749.042107584 194.55289919999998C750.710059584 194.64556319999997,751.692297984 195.73899839999996,751.692297984 197.11042559999999C751.692297984 197.77760639999997,751.469904384 198.53745119999996,750.913920384 199.26023039999998C749.857550784 200.68725599999996,748.1340003839999 201.46563359999996,746.6328435839999 201.46563359999996C745.465277184 201.46563359999996,744.464505984 201.00231359999998,743.982653184 200.05714079999998C743.834390784 199.68648479999996,743.760259584 199.33436159999997,743.760259584 198.94517279999997C743.760259584 196.92509759999996,746.021261184 194.68262879999997,748.615853184 194.55289919999998">
</path>
</g>
<g class="vf-flag" pointer-events="bounding-box">
<path stroke-width="0.3" fill="#000000" stroke="none" stroke-dasharray="none" d="M750.942297984 172.89999999999998M750.497510784 175.88378079999998L750.497510784 172.992664L750.5716419839999 172.992664C750.775502784 172.992664,750.905232384 173.12239359999998,750.942297984 173.34478719999998C751.331486784 175.19806719999997,752.499053184 177.21814239999998,754.111406784 178.73783199999997C755.909088384 180.42431679999999,756.817195584 182.74091679999998,756.817195584 185.13164799999998C756.817195584 187.39264959999997,756.020285184 189.74631519999997,754.407931584 191.69225919999997C754.129939584 192.06291519999996,754.111406784 192.06291519999996,753.926078784 192.06291519999996C753.7036851839999 192.06291519999996,753.555422784 191.89611999999997,753.555422784 191.67372639999996C753.555422784 191.50693119999997,753.573955584 191.4698656,753.759283584 191.2660048C755.167776384 189.56098719999997,755.872022784 187.5038464,755.872022784 185.5393696C755.872022784 183.7972864,755.3160387839999 182.12933439999998,754.167005184 180.86910399999996C753.462758784 180.09072639999997,752.1654627839999 179.34941439999997,750.516043584 178.77489759999997C750.516043584 178.75636479999997,750.497510784 178.18184799999997,750.497510784 175.88378079999998">
</path>
</g>
</g>
<g class="vf-modifiers">
</g>
</g>
<path stroke-width="1" fill="none" stroke="#000000" stroke-dasharray="none" d="M744.760259584 189.74999999999997L757.760259584 180.74999999999997Z">
</path>
</g>
</g>
<g class="vf-stavenote" id="vf-auto58869">
<g class="vf-note" pointer-events="bounding-box">
<g class="vf-notehead" pointer-events="bounding-box">
<path stroke-width="0.3" fill="#000000" stroke="none" stroke-dasharray="none" d="M802.1454075839999 197.99999999999997M809.5023675839999 192.77711999999997C809.614687584 192.77711999999997,809.7831675839999 192.77711999999997,809.811247584 192.77711999999997C809.811247584 192.77711999999997,809.839327584 192.77711999999997,809.839327584 192.77711999999997C809.839327584 192.77711999999997,810.0078075839999 192.77711999999997,810.1482075839999 192.77711999999997C812.6754075839999 192.91751999999997,814.1636475839999 194.57423999999997,814.1636475839999 196.65215999999998C814.1636475839999 197.66303999999997,813.826687584 198.81431999999998,812.984287584 199.90943999999996C811.383727584 202.07159999999996,808.772287584 203.25095999999996,806.4978075839999 203.25095999999996C804.7287675839999 203.25095999999996,803.212447584 202.54895999999997,802.4823675839999 201.11687999999998C802.2577275839999 200.55527999999998,802.1454075839999 200.02175999999997,802.1454075839999 199.43207999999998C802.1454075839999 196.37135999999998,805.5711675839999 192.97367999999997,809.5023675839999 192.77711999999997">
</path>
</g>
</g>
<g class="vf-modifiers">
</g>
</g>
<g class="vf-stavenote" id="vf-auto58879">
<g class="vf-note" pointer-events="bounding-box">
<g class="vf-notehead" pointer-events="bounding-box">
<path stroke-width="0.3" fill="#000000" stroke="none" stroke-dasharray="none" d="M860.530555584 197.99999999999997M867.887515584 192.77711999999997C867.999835584 192.77711999999997,868.168315584 192.77711999999997,868.196395584 192.77711999999997C868.196395584 192.77711999999997,868.2244755840001 192.77711999999997,868.2244755840001 192.77711999999997C868.2244755840001 192.77711999999997,868.392955584 192.77711999999997,868.533355584 192.77711999999997C871.060555584 192.91751999999997,872.548795584 194.57423999999997,872.548795584 196.65215999999998C872.548795584 197.66303999999997,872.211835584 198.81431999999998,871.369435584 199.90943999999996C869.768875584 202.07159999999996,867.157435584 203.25095999999996,864.882955584 203.25095999999996C863.113915584 203.25095999999996,861.597595584 202.54895999999997,860.867515584 201.11687999999998C860.642875584 200.55527999999998,860.530555584 200.02175999999997,860.530555584 199.43207999999998C860.530555584 196.37135999999998,863.956315584 192.97367999999997,867.887515584 192.77711999999997">
</path>
</g>
</g>
<g class="vf-modifiers">
<g class="vf-stavenote" id="vf-auto58889">
<g class="vf-note" pointer-events="bounding-box">
<g class="vf-stem" pointer-events="bounding-box">
<path stroke-width="1.5" fill="none" stroke="#000000" stroke-dasharray="none" d="M841.848517184 197.99999999999997L841.848517184 174.89999999999998">
</path>
</g>
<g class="vf-notehead" pointer-events="bounding-box">
<path stroke-width="0.3" fill="#000000" stroke="none" stroke-dasharray="none" d="M834.666478784 197.99999999999997M839.522072384 194.55289919999998C839.596203584 194.55289919999998,839.707400384 194.55289919999998,839.725933184 194.55289919999998C839.725933184 194.55289919999998,839.744465984 194.55289919999998,839.744465984 194.55289919999998C839.744465984 194.55289919999998,839.855662784 194.55289919999998,839.948326784 194.55289919999998C841.616278784 194.64556319999997,842.598517184 195.73899839999996,842.598517184 197.11042559999999C842.598517184 197.77760639999997,842.376123584 198.53745119999996,841.820139584 199.26023039999998C840.763769984 200.68725599999996,839.0402195839999 201.46563359999996,837.539062784 201.46563359999996C836.371496384 201.46563359999996,835.370725184 201.00231359999998,834.888872384 200.05714079999998C834.740609984 199.68648479999996,834.666478784 199.33436159999997,834.666478784 198.94517279999997C834.666478784 196.92509759999996,836.927480384 194.68262879999997,839.522072384 194.55289919999998">
</path>
</g>
<g class="vf-flag" pointer-events="bounding-box">
<path stroke-width="0.3" fill="#000000" stroke="none" stroke-dasharray="none" d="M841.848517184 172.89999999999998M841.403729984 175.88378079999998L841.403729984 172.992664L841.477861184 172.992664C841.681721984 172.992664,841.811451584 173.12239359999998,841.848517184 173.34478719999998C842.2377059840001 175.19806719999997,843.405272384 177.21814239999998,845.017625984 178.73783199999997C846.815307584 180.42431679999999,847.723414784 182.74091679999998,847.723414784 185.13164799999998C847.723414784 187.39264959999997,846.926504384 189.74631519999997,845.314150784 191.69225919999997C845.036158784 192.06291519999996,845.017625984 192.06291519999996,844.832297984 192.06291519999996C844.609904384 192.06291519999996,844.461641984 191.89611999999997,844.461641984 191.67372639999996C844.461641984 191.50693119999997,844.480174784 191.4698656,844.665502784 191.2660048C846.073995584 189.56098719999997,846.778241984 187.5038464,846.778241984 185.5393696C846.778241984 183.7972864,846.222257984 182.12933439999998,845.073224384 180.86910399999996C844.368977984 180.09072639999997,843.071681984 179.34941439999997,841.422262784 178.77489759999997C841.422262784 178.75636479999997,841.403729984 178.18184799999997,841.403729984 175.88378079999998">
</path>
</g>
</g>
<g class="vf-modifiers">
</g>
</g>
<path stroke-width="1" fill="none" stroke="#000000" stroke-dasharray="none" d="M835.666478784 189.74999999999997L848.666478784 180.74999999999997Z">
</path>
</g>
</g>
<g class="vf-stavenote" id="vf-auto58903">
<g class="vf-note" pointer-events="bounding-box">
<g class="vf-notehead" pointer-events="bounding-box">
<path stroke-width="0.3" fill="#000000" stroke="none" stroke-dasharray="none" d="M893.0516267840001 197.99999999999997M900.408586784 192.77711999999997C900.5209067840001 192.77711999999997,900.689386784 192.77711999999997,900.7174667840001 192.77711999999997C900.7174667840001 192.77711999999997,900.7455467840001 192.77711999999997,900.7455467840001 192.77711999999997C900.7455467840001 192.77711999999997,900.914026784 192.77711999999997,901.054426784 192.77711999999997C903.581626784 192.91751999999997,905.069866784 194.57423999999997,905.069866784 196.65215999999998C905.069866784 197.66303999999997,904.7329067840001 198.81431999999998,903.8905067840001 199.90943999999996C902.2899467840001 202.07159999999996,899.6785067840001 203.25095999999996,897.404026784 203.25095999999996C895.634986784 203.25095999999996,894.1186667840001 202.54895999999997,893.388586784 201.11687999999998C893.163946784 200.55527999999998,893.0516267840001 200.02175999999997,893.0516267840001 199.43207999999998C893.0516267840001 196.37135999999998,896.477386784 192.97367999999997,900.408586784 192.77711999999997">
</path>
</g>
</g>
<g class="vf-modifiers">
</g>
</g>
<g class="vf-stavenote" id="vf-auto58913">
<g class="vf-note" pointer-events="bounding-box">
<g class="vf-notehead" pointer-events="bounding-box">
<path stroke-width="0.3" fill="#000000" stroke="none" stroke-dasharray="none" d="M951.4367747840001 197.99999999999997M958.7937347840001 192.77711999999997C958.9060547840002 192.77711999999997,959.0745347840001 192.77711999999997,959.1026147840001 192.77711999999997C959.1026147840001 192.77711999999997,959.1306947840002 192.77711999999997,959.1306947840002 192.77711999999997C959.1306947840002 192.77711999999997,959.2991747840001 192.77711999999997,959.4395747840001 192.77711999999997C961.9667747840001 192.91751999999997,963.4550147840001 194.57423999999997,963.4550147840001 196.65215999999998C963.4550147840001 197.66303999999997,963.1180547840002 198.81431999999998,962.2756547840002 199.90943999999996C960.6750947840002 202.07159999999996,958.0636547840002 203.25095999999996,955.7891747840001 203.25095999999996C954.0201347840001 203.25095999999996,952.5038147840002 202.54895999999997,951.7737347840001 201.11687999999998C951.5490947840001 200.55527999999998,951.4367747840001 200.02175999999997,951.4367747840001 199.43207999999998C951.4367747840001 196.37135999999998,954.8625347840001 192.97367999999997,958.7937347840001 192.77711999999997">
</path>
</g>
</g>
<g class="vf-modifiers">
<g class="vf-stavenote" id="vf-auto58923">
<g class="vf-note" pointer-events="bounding-box">
<g class="vf-stem" pointer-events="bounding-box">
<path stroke-width="1.5" fill="none" stroke="#000000" stroke-dasharray="none" d="M932.7547363840001 197.99999999999997L932.7547363840001 174.89999999999998">
</path>
</g>
<g class="vf-notehead" pointer-events="bounding-box">
<path stroke-width="0.3" fill="#000000" stroke="none" stroke-dasharray="none" d="M925.5726979840001 197.99999999999997M930.4282915840001 194.55289919999998C930.5024227840001 194.55289919999998,930.6136195840002 194.55289919999998,930.6321523840002 194.55289919999998C930.6321523840002 194.55289919999998,930.6506851840002 194.55289919999998,930.6506851840002 194.55289919999998C930.6506851840002 194.55289919999998,930.7618819840001 194.55289919999998,930.8545459840001 194.55289919999998C932.5224979840001 194.64556319999997,933.5047363840001 195.73899839999996,933.5047363840001 197.11042559999999C933.5047363840001 197.77760639999997,933.2823427840001 198.53745119999996,932.7263587840001 199.26023039999998C931.6699891840001 200.68725599999996,929.9464387840001 201.46563359999996,928.4452819840001 201.46563359999996C927.2777155840001 201.46563359999996,926.2769443840001 201.00231359999998,925.7950915840001 200.05714079999998C925.6468291840001 199.68648479999996,925.5726979840001 199.33436159999997,925.5726979840001 198.94517279999997C925.5726979840001 196.92509759999996,927.8336995840001 194.68262879999997,930.4282915840001 194.55289919999998">
</path>
</g>
<g class="vf-flag" pointer-events="bounding-box">
<path stroke-width="0.3" fill="#000000" stroke="none" stroke-dasharray="none" d="M932.7547363840001 172.89999999999998M932.3099491840002 175.88378079999998L932.3099491840002 172.992664L932.3840803840001 172.992664C932.5879411840001 172.992664,932.7176707840001 173.12239359999998,932.7547363840001 173.34478719999998C933.1439251840002 175.19806719999997,934.3114915840001 177.21814239999998,935.9238451840001 178.73783199999997C937.7215267840002 180.42431679999999,938.6296339840002 182.74091679999998,938.6296339840002 185.13164799999998C938.6296339840002 187.39264959999997,937.8327235840002 189.74631519999997,936.2203699840002 191.69225919999997C935.9423779840001 192.06291519999996,935.9238451840001 192.06291519999996,935.7385171840001 192.06291519999996C935.5161235840001 192.06291519999996,935.3678611840002 191.89611999999997,935.3678611840002 191.67372639999996C935.3678611840002 191.50693119999997,935.3863939840002 191.4698656,935.5717219840001 191.2660048C936.9802147840002 189.56098719999997,937.6844611840002 187.5038464,937.6844611840002 185.5393696C937.6844611840002 183.7972864,937.1284771840001 182.12933439999998,935.9794435840001 180.86910399999996C935.2751971840001 180.09072639999997,933.9779011840001 179.34941439999997,932.3284819840002 178.77489759999997C932.3284819840002 178.75636479999997,932.3099491840002 178.18184799999997,932.3099491840002 175.88378079999998">
</path>
</g>
</g>
<g class="vf-modifiers">
</g>
</g>
<path stroke-width="1" fill="none" stroke="#000000" stroke-dasharray="none" d="M926.5726979840001 189.74999999999997L939.5726979840001 180.74999999999997Z">
</path>
</g>
</g>
<g class="vf-stavenote" id="vf-auto58937">
<g class="vf-note" pointer-events="bounding-box">
<g class="vf-notehead" pointer-events="bounding-box">
<path stroke-width="0.3" fill="#000000" stroke="none" stroke-dasharray="none" d="M983.957845984 197.99999999999997M991.3148059839999 192.77711999999997C991.427125984 192.77711999999997,991.5956059839999 192.77711999999997,991.623685984 192.77711999999997C991.623685984 192.77711999999997,991.651765984 192.77711999999997,991.651765984 192.77711999999997C991.651765984 192.77711999999997,991.8202459839999 192.77711999999997,991.9606459839999 192.77711999999997C994.4878459839999 192.91751999999997,995.976085984 194.57423999999997,995.976085984 196.65215999999998C995.976085984 197.66303999999997,995.639125984 198.81431999999998,994.796725984 199.90943999999996C993.196165984 202.07159999999996,990.584725984 203.25095999999996,988.310245984 203.25095999999996C986.5412059839999 203.25095999999996,985.024885984 202.54895999999997,984.2948059839999 201.11687999999998C984.0701659839999 200.55527999999998,983.957845984 200.02175999999997,983.957845984 199.43207999999998C983.957845984 196.37135999999998,987.3836059839999 192.97367999999997,991.3148059839999 192.77711999999997">
</path>
</g>
</g>
<g class="vf-modifiers">
</g>
</g>
<g class="vf-stavenote" id="vf-auto58947">
<g class="vf-note" pointer-events="bounding-box">
<g class="vf-notehead" pointer-events="bounding-box">
<path stroke-width="0.3" fill="#000000" stroke="none" stroke-dasharray="none" d="M1042.342993984 197.99999999999997M1049.699953984 192.77711999999997C1049.812273984 192.77711999999997,1049.980753984 192.77711999999997,1050.008833984 192.77711999999997C1050.008833984 192.77711999999997,1050.036913984 192.77711999999997,1050.036913984 192.77711999999997C1050.036913984 192.77711999999997,1050.205393984 192.77711999999997,1050.345793984 192.77711999999997C1052.872993984 192.91751999999997,1054.3612339840001 194.57423999999997,1054.3612339840001 196.65215999999998C1054.3612339840001 197.66303999999997,1054.024273984 198.81431999999998,1053.181873984 199.90943999999996C1051.581313984 202.07159999999996,1048.969873984 203.25095999999996,1046.695393984 203.25095999999996C1044.9263539840001 203.25095999999996,1043.410033984 202.54895999999997,1042.6799539840001 201.11687999999998C1042.455313984 200.55527999999998,1042.342993984 200.02175999999997,1042.342993984 199.43207999999998C1042.342993984 196.37135999999998,1045.768753984 192.97367999999997,1049.699953984 192.77711999999997">
</path>
</g>
</g>
<g class="vf-modifiers">
<g class="vf-stavenote" id="vf-auto58957">
<g class="vf-note" pointer-events="bounding-box">
<g class="vf-stem" pointer-events="bounding-box">
<path stroke-width="1.5" fill="none" stroke="#000000" stroke-dasharray="none" d="M1023.660955584 197.99999999999997L1023.660955584 174.89999999999998">
</path>
</g>
<g class="vf-notehead" pointer-events="bounding-box">
<path stroke-width="0.3" fill="#000000" stroke="none" stroke-dasharray="none" d="M1016.478917184 197.99999999999997M1021.334510784 194.55289919999998C1021.408641984 194.55289919999998,1021.5198387840001 194.55289919999998,1021.5383715840001 194.55289919999998C1021.5383715840001 194.55289919999998,1021.5569043840001 194.55289919999998,1021.5569043840001 194.55289919999998C1021.5569043840001 194.55289919999998,1021.668101184 194.55289919999998,1021.760765184 194.55289919999998C1023.428717184 194.64556319999997,1024.410955584 195.73899839999996,1024.410955584 197.11042559999999C1024.410955584 197.77760639999997,1024.188561984 198.53745119999996,1023.632577984 199.26023039999998C1022.576208384 200.68725599999996,1020.852657984 201.46563359999996,1019.351501184 201.46563359999996C1018.183934784 201.46563359999996,1017.183163584 201.00231359999998,1016.701310784 200.05714079999998C1016.553048384 199.68648479999996,1016.478917184 199.33436159999997,1016.478917184 198.94517279999997C1016.478917184 196.92509759999996,1018.739918784 194.68262879999997,1021.334510784 194.55289919999998">
</path>
</g>
<g class="vf-flag" pointer-events="bounding-box">
<path stroke-width="0.3" fill="#000000" stroke="none" stroke-dasharray="none" d="M1023.660955584 172.89999999999998M1023.2161683840001 175.88378079999998L1023.2161683840001 172.992664L1023.290299584 172.992664C1023.494160384 172.992664,1023.623889984 173.12239359999998,1023.660955584 173.34478719999998C1024.050144384 175.19806719999997,1025.217710784 177.21814239999998,1026.830064384 178.73783199999997C1028.627745984 180.42431679999999,1029.535853184 182.74091679999998,1029.535853184 185.13164799999998C1029.535853184 187.39264959999997,1028.738942784 189.74631519999997,1027.126589184 191.69225919999997C1026.848597184 192.06291519999996,1026.830064384 192.06291519999996,1026.644736384 192.06291519999996C1026.422342784 192.06291519999996,1026.274080384 191.89611999999997,1026.274080384 191.67372639999996C1026.274080384 191.50693119999997,1026.292613184 191.4698656,1026.477941184 191.2660048C1027.886433984 189.56098719999997,1028.590680384 187.5038464,1028.590680384 185.5393696C1028.590680384 183.7972864,1028.034696384 182.12933439999998,1026.885662784 180.86910399999996C1026.181416384 180.09072639999997,1024.884120384 179.34941439999997,1023.2347011840001 178.77489759999997C1023.2347011840001 178.75636479999997,1023.2161683840001 178.18184799999997,1023.2161683840001 175.88378079999998">
</path>
</g>
</g>
<g class="vf-modifiers">
</g>
</g>
<path stroke-width="1" fill="none" stroke="#000000" stroke-dasharray="none" d="M1017.478917184 189.74999999999997L1030.478917184 180.74999999999997Z">
</path>
</g>
</g>
<g class="vf-stavenote" id="vf-auto58971">
<g class="vf-note" pointer-events="bounding-box">
<g class="vf-notehead" pointer-events="bounding-box">
<path stroke-width="0.3" fill="#000000" stroke="none" stroke-dasharray="none" d="M1074.864065184 197.99999999999997M1082.2210251840002 192.77711999999997C1082.333345184 192.77711999999997,1082.5018251840002 192.77711999999997,1082.529905184 192.77711999999997C1082.529905184 192.77711999999997,1082.557985184 192.77711999999997,1082.557985184 192.77711999999997C1082.557985184 192.77711999999997,1082.726465184 192.77711999999997,1082.866865184 192.77711999999997C1085.394065184 192.91751999999997,1086.8823051840002 194.57423999999997,1086.8823051840002 196.65215999999998C1086.8823051840002 197.66303999999997,1086.545345184 198.81431999999998,1085.702945184 199.90943999999996C1084.102385184 202.07159999999996,1081.490945184 203.25095999999996,1079.216465184 203.25095999999996C1077.4474251840002 203.25095999999996,1075.931105184 202.54895999999997,1075.2010251840002 201.11687999999998C1074.976385184 200.55527999999998,1074.864065184 200.02175999999997,1074.864065184 199.43207999999998C1074.864065184 196.37135999999998,1078.2898251840002 192.97367999999997,1082.2210251840002 192.77711999999997">
</path>
</g>
</g>
<g class="vf-modifiers">
</g>
</g>
<path stroke-width="1.5" fill="none" stroke="#000000" stroke-dasharray="none" d="M468.99585318400005 197.99999999999997L468.99585318400005 163.74999999999997">
</path>
<path stroke-width="1.5" fill="none" stroke="#000000" stroke-dasharray="none" d="M501.51692438400005 197.99999999999997L501.51692438400005 163.74999999999997">
</path>
<path stroke-width="1.5" fill="none" stroke="#000000" stroke-dasharray="none" d="M534.037995584 197.99999999999997L534.037995584 163.74999999999997">
</path>
<path stroke-width="1.5" fill="none" stroke="#000000" stroke-dasharray="none" d="M566.559066784 197.99999999999997L566.559066784 163.74999999999997">
</path>
<path stroke-width="0.3" fill="#000000" stroke="none" stroke-dasharray="none" d="M468.24585318400005 162.99999999999997L468.24585318400005 167.99999999999997L566.809066784 167.99999999999997L566.809066784 162.99999999999997Z">
</path>
<path stroke-width="0.3" fill="#000000" stroke="none" stroke-dasharray="none" d="M468.24585318400005 170.49999999999997L468.24585318400005 175.49999999999997L566.809066784 175.49999999999997L566.809066784 170.49999999999997Z">
</path>
<path stroke-width="1.5" fill="none" stroke="#000000" stroke-dasharray="none" d="M624.9442147840001 197.99999999999997L624.9442147840001 163.74999999999997">
</path>
<path stroke-width="1.5" fill="none" stroke="#000000" stroke-dasharray="none" d="M657.465285984 197.99999999999997L657.465285984 163.74999999999997">
</path>
<path stroke-width="1.5" fill="none" stroke="#000000" stroke-dasharray="none" d="M689.986357184 197.99999999999997L689.986357184 163.74999999999997">
</path>
<path stroke-width="1.5" fill="none" stroke="#000000" stroke-dasharray="none" d="M722.507428384 197.99999999999997L722.507428384 163.74999999999997">
</path>
<path stroke-width="0.3" fill="#000000" stroke="none" stroke-dasharray="none" d="M624.1942147840001 162.99999999999997L624.1942147840001 167.99999999999997L722.757428384 167.99999999999997L722.757428384 162.99999999999997Z">
</path>
<path stroke-width="0.3" fill="#000000" stroke="none" stroke-dasharray="none" d="M624.1942147840001 170.49999999999997L624.1942147840001 175.49999999999997L722.757428384 175.49999999999997L722.757428384 170.49999999999997Z">
</path>
<path stroke-width="1.5" fill="none" stroke="#000000" stroke-dasharray="none" d="M780.892576384 197.99999999999997L780.892576384 163.74999999999997">
</path>
<path stroke-width="1.5" fill="none" stroke="#000000" stroke-dasharray="none" d="M813.4136475839999 197.99999999999997L813.4136475839999 163.74999999999997">
</path>
<path stroke-width="1.5" fill="none" stroke="#000000" stroke-dasharray="none" d="M871.798795584 197.99999999999997L871.798795584 163.74999999999997">
</path>
<path stroke-width="1.5" fill="none" stroke="#000000" stroke-dasharray="none" d="M904.319866784 197.99999999999997L904.319866784 163.74999999999997">
</path>
<path stroke-width="0.3" fill="#000000" stroke="none" stroke-dasharray="none" d="M780.142576384 162.99999999999997L780.142576384 167.99999999999997L904.569866784 167.99999999999997L904.569866784 162.99999999999997Z">
</path>
<path stroke-width="0.3" fill="#000000" stroke="none" stroke-dasharray="none" d="M780.142576384 170.49999999999997L780.142576384 175.49999999999997L904.569866784 175.49999999999997L904.569866784 170.49999999999997Z">
</path>
<path stroke-width="1.5" fill="none" stroke="#000000" stroke-dasharray="none" d="M962.7050147840001 197.99999999999997L962.7050147840001 163.74999999999997">
</path>
<path stroke-width="1.5" fill="none" stroke="#000000" stroke-dasharray="none" d="M995.226085984 197.99999999999997L995.226085984 163.74999999999997">
</path>
<path stroke-width="1.5" fill="none" stroke="#000000" stroke-dasharray="none" d="M1053.6112339840001 197.99999999999997L1053.6112339840001 163.74999999999997">
</path>
<path stroke-width="1.5" fill="none" stroke="#000000" stroke-dasharray="none" d="M1086.1323051840002 197.99999999999997L1086.1323051840002 163.74999999999997">
</path>
<path stroke-width="0.3" fill="#000000" stroke="none" stroke-dasharray="none" d="M961.9550147840001 162.99999999999997L961.9550147840001 167.99999999999997L1086.3823051840002 167.99999999999997L1086.3823051840002 162.99999999999997Z">
</path>
<path stroke-width="0.3" fill="#000000" stroke="none" stroke-dasharray="none" d="M961.9550147840001 170.49999999999997L961.9550147840001 175.49999999999997L1086.3823051840002 175.49999999999997L1086.3823051840002 170.49999999999997Z">
</path>
</svg>