<svg width="1536" height="331.99999999999994" viewBox="0 0 1536 331.99999999999994">
<path stroke-width="1" fill="none" stroke="black" stroke-dasharray="none" d="M50 197.99999999999997L452.66854758399984 197.99999999999997">
</path>
<rect stroke-width="0.3" fill="black" stroke="black" stroke-dasharray="none" x="452.66854758399984" y="177.49999999999997" width="1" height="41">
</rect>
<path stroke-width="0.3" fill="black" stroke="none" stroke-dasharray="none" d="M55 197.99999999999997M55 197.99999999999997L55 188.00639999999999L57.1888 188.00639999999999L59.4064 188.00639999999999L59.4064 197.99999999999997L59.4064 208.02239999999998L57.1888 208.02239999999998L55 208.02239999999998L55 197.99999999999997M63.870400000000004 198.02879999999996L63.870400000000004 188.00639999999999L66.1168 188.00639999999999L68.3632 188.00639999999999L68.3632 198.02879999999996L68.3632 208.02239999999998L66.1168 208.02239999999998L63.870400000000004 208.02239999999998L63.870400000000004 198.02879999999996">
</path>
<path stroke-width="0.3" fill="black" stroke="none" stroke-dasharray="none" d="M96.1296 197.99999999999997M101.80319999999999 179.33759999999998C101.91839999999999 179.33759999999998,102.11999999999999 179.33759999999998,102.3504 179.33759999999998C102.8112 179.33759999999998,103.416 179.33759999999998,103.56 179.39519999999996C105.72 179.65439999999998,107.448 180.74879999999996,108.1968 182.27519999999998C108.45599999999999 182.79359999999997,108.57119999999999 183.34079999999997,108.57119999999999 183.91679999999997C108.57119999999999 185.32799999999997,107.7936 186.94079999999997,106.38239999999999 188.15039999999996C105.4032 188.98559999999998,104.42399999999999 189.50399999999996,102.8976 189.99359999999996C100.9104 190.62719999999996,99.21119999999999 191.75039999999998,98.1168 193.10399999999998C98.1168 193.10399999999998,98.1168 193.13279999999997,98.1168 193.13279999999997C98.1168 193.13279999999997,98.1168 193.13279999999997,98.1168 193.13279999999997C98.1168 193.13279999999997,98.2032 193.10399999999998,98.26079999999999 193.01759999999996C99.3552 192.12479999999996,100.824 191.60639999999998,102.1488 191.60639999999998C103.2432 191.60639999999998,104.0208 191.80799999999996,105.0576 192.38399999999996C105.6912 192.70079999999996,106.2672 192.84479999999996,106.81439999999999 192.84479999999996C107.0448 192.84479999999996,107.2752 192.84479999999996,107.53439999999999 192.78719999999998C107.9088 192.70079999999996,108.312 192.41279999999998,108.45599999999999 192.18239999999997C108.5424 191.98079999999996,108.68639999999999 191.89439999999996,108.8592 191.89439999999996C109.08959999999999 191.89439999999996,109.32 192.06719999999999,109.32 192.32639999999998C109.32 192.52799999999996,109.0608 193.24799999999996,108.8304 193.7376C107.9088 195.58079999999998,106.29599999999999 196.73279999999997,104.7408 196.73279999999997C104.62559999999999 196.73279999999997,104.5392 196.73279999999997,104.42399999999999 196.70399999999998C104.0208 196.70399999999998,103.848 196.58879999999996,103.3296 196.24319999999997C102.23519999999999 195.52319999999997,100.8528 195.14879999999997,99.6432 195.14879999999997C99.1248 195.14879999999997,98.664 195.20639999999997,98.232 195.37919999999997C97.65599999999999 195.58079999999998,97.1088 195.92639999999997,96.93599999999999 196.18559999999997C96.8496 196.38719999999998,96.70559999999999 196.44479999999996,96.5328 196.44479999999996C96.3888 196.44479999999996,96.2448 196.38719999999998,96.1584 196.21439999999998L96.10079999999999 196.128L96.10079999999999 195.72479999999996C96.10079999999999 195.37919999999997,96.1296 195.26399999999998,96.1296 195.14879999999997C96.1584 195.06239999999997,96.18719999999999 194.88959999999997,96.18719999999999 194.74559999999997C96.70559999999999 192.32639999999998,98.4624 190.16639999999998,100.8528 189.10079999999996C102.8112 188.17919999999998,104.10719999999999 186.53759999999997,104.3376 184.46399999999997C104.39519999999999 184.29119999999998,104.39519999999999 184.14719999999997,104.39519999999999 183.97439999999997C104.39519999999999 182.13119999999998,103.0128 180.86399999999998,101.0544 180.86399999999998C100.9104 180.86399999999998,100.7376 180.86399999999998,100.5936 180.86399999999998C100.3056 180.89279999999997,100.2192 180.89279999999997,100.2192 180.95039999999997C100.2192 180.95039999999997,100.2192 180.97919999999996,100.3056 181.03679999999997C100.96799999999999 181.41119999999998,101.28479999999999 182.13119999999998,101.28479999999999 182.82239999999996C101.28479999999999 183.71519999999998,100.824 184.55039999999997,99.93119999999999 184.89599999999996C99.6432 184.98239999999998,99.3552 185.01119999999997,99.1248 185.01119999999997C97.9152 185.01119999999997,96.9072 183.97439999999997,96.9072 182.73599999999996C96.9072 182.50559999999996,96.9072 182.27519999999998,96.9648 182.01599999999996C97.3968 180.69119999999998,99.4416 179.59679999999997,101.80319999999999 179.33759999999998M102.696 198.02879999999996L102.75359999999999 198.02879999999996L102.6672 198.02879999999996L102.696 198.02879999999996M102.696 178.61759999999998L102.75359999999999 178.61759999999998L102.6672 178.61759999999998L102.696 178.61759999999998">
</path>
<path stroke-width="0.3" fill="black" stroke="none" stroke-dasharray="none" d="M96 217.99999999999997M101.0112 199.65439999999998C101.04 199.62559999999996,101.4432 199.62559999999996,102.6816 199.62559999999996C103.056 199.62559999999996,103.4592 199.62559999999996,103.9776 199.62559999999996L106.8864 199.62559999999996L106.9728 199.71199999999996C107.1168 199.79839999999996,107.2032 199.94239999999996,107.2032 200.05759999999998C107.2032 200.23039999999997,107.1168 200.34559999999996,107.0016 200.46079999999998C106.9728 200.54719999999998,106.7136 200.77759999999998,106.5408 201.03679999999997L105.0144 202.79359999999997L103.056 205.01119999999997L102.0192 206.19199999999998L100.464 207.97759999999997L98.4192 210.31039999999996C98.0736 210.74239999999998,97.6992 211.08799999999997,97.6992 211.08799999999997C97.6992 211.08799999999997,97.6992 211.08799999999997,97.6992 211.08799999999997C97.6992 211.14559999999997,97.9584 211.14559999999997,100.3488 211.14559999999997L102.9696 211.14559999999997L102.9696 209.27359999999996C102.9696 207.37279999999998,102.9696 207.34399999999997,102.9984 207.31519999999998C103.056 207.22879999999998,103.3152 206.91199999999998,104.3232 205.73119999999997L104.7264 205.29919999999998L105.1296 204.86719999999997L105.7344 204.08959999999996L106.368 203.42719999999997L106.6848 203.02399999999997C106.8 202.85119999999998,106.9728 202.82239999999996,107.1168 202.82239999999996C107.28960000000001 202.82239999999996,107.4336 202.90879999999999,107.52 203.05279999999996C107.5488 203.13919999999996,107.5488 203.19679999999997,107.5488 205.32799999999997C107.5488 205.81759999999997,107.5488 206.42239999999998,107.5488 207.14239999999998L107.5488 211.14559999999997L108.2688 211.14559999999997C108.9312 211.14559999999997,108.96 211.14559999999997,109.0464 211.17439999999996C109.2768 211.26079999999996,109.392 211.49119999999996,109.392 211.75039999999998C109.392 211.89439999999996,109.3632 212.06719999999999,109.248 212.18239999999997C109.0752 212.32639999999998,109.0464 212.32639999999998,108.2688 212.32639999999998L107.5488 212.32639999999998L107.5488 212.81599999999997C107.5776 214.28479999999996,107.8656 214.86079999999998,108.9888 215.46559999999997C109.392 215.66719999999998,109.4784 215.72479999999996,109.4784 216.01279999999997C109.4784 216.21439999999998,109.4208 216.30079999999998,109.2768 216.41599999999997L109.1904 216.44479999999996L105.2448 216.44479999999996L101.328 216.44479999999996L101.2416 216.41599999999997C101.0688 216.30079999999998,101.04 216.21439999999998,101.04 216.01279999999997C101.04 215.72479999999996,101.0688 215.66719999999998,101.5008 215.46559999999997C102.624 214.86079999999998,102.912 214.28479999999996,102.912 212.81599999999997L102.912 212.32639999999998L99.6 212.32639999999998C98.9952 212.38399999999996,98.5056 212.38399999999996,98.1024 212.38399999999996C96.288 212.38399999999996,96.2592 212.32639999999998,96.2304 212.32639999999998C96.0576 212.26879999999997,96 212.09599999999998,96 211.89439999999996C96 211.89439999999996,96 211.89439999999996,96 211.89439999999996C96 211.69279999999998,96 211.69279999999998,96.576 211.0304C98.9952 208.09279999999998,100.6944 203.83039999999997,100.6944 200.43199999999996C100.6944 199.91359999999997,100.7808 199.74079999999998,101.0112 199.65439999999998M102.7392 218.02879999999996L102.768 218.02879999999996L102.6816 218.02879999999996L102.7392 218.02879999999996M102.7392 198.61759999999998L102.768 198.61759999999998L102.6816 198.61759999999998L102.7392 198.61759999999998">
</path>
<g class="vf-stavenote" id="vf-auto75502">
<g class="vf-note" pointer-events="bounding-box">
<g class="vf-notehead" pointer-events="bounding-box">
<path stroke-width="0.3" fill="#000000" stroke="none" stroke-dasharray="none" d="M147.3424768 197.99999999999997M154.69943679999997 192.77711999999997C154.81175679999998 192.77711999999997,154.9802368 192.77711999999997,155.0083168 192.77711999999997C155.0083168 192.77711999999997,155.03639679999998 192.77711999999997,155.03639679999998 192.77711999999997C155.03639679999998 192.77711999999997,155.2048768 192.77711999999997,155.3452768 192.77711999999997C157.8724768 192.91751999999997,159.36071679999998 194.57423999999997,159.36071679999998 196.65215999999998C159.36071679999998 197.66303999999997,159.0237568 198.81431999999998,158.18135679999997 199.90943999999996C156.58079679999997 202.07159999999996,153.96935679999999 203.25095999999996,151.69487679999997 203.25095999999996C149.92583679999998 203.25095999999996,148.40951679999998 202.54895999999997,147.6794368 201.11687999999998C147.4547968 200.55527999999998,147.3424768 200.02175999999997,147.3424768 199.43207999999998C147.3424768 196.37135999999998,150.76823679999998 192.97367999999997,154.69943679999997 192.77711999999997">
</path>
</g>
</g>
<g class="vf-modifiers">
<g class="vf-stavenote" id="vf-auto75512">
<g class="vf-note" pointer-events="bounding-box">
<g class="vf-stem" pointer-events="bounding-box">
<path stroke-width="1.5" fill="none" stroke="#000000" stroke-dasharray="none" d="M128.6604384 197.99999999999997L128.6604384 174.89999999999998">
</path>
</g>
<g class="vf-notehead" pointer-events="bounding-box">
<path stroke-width="0.3" fill="#000000" stroke="none" stroke-dasharray="none" d="M121.4784 197.99999999999997M126.3339936 194.55289919999998C126.4081248 194.55289919999998,126.5193216 194.55289919999998,126.5378544 194.55289919999998C126.5378544 194.55289919999998,126.55638719999999 194.55289919999998,126.55638719999999 194.55289919999998C126.55638719999999 194.55289919999998,126.66758399999999 194.55289919999998,126.76024799999999 194.55289919999998C128.4282 194.64556319999997,129.4104384 195.73899839999996,129.4104384 197.11042559999999C129.4104384 197.77760639999997,129.1880448 198.53745119999996,128.6320608 199.26023039999998C127.5756912 200.68725599999996,125.8521408 201.46563359999996,124.350984 201.46563359999996C123.1834176 201.46563359999996,122.1826464 201.00231359999998,121.7007936 200.05714079999998C121.55253119999999 199.68648479999996,121.4784 199.33436159999997,121.4784 198.94517279999997C121.4784 196.92509759999996,123.7394016 194.68262879999997,126.3339936 194.55289919999998">
</path>
</g>
<g class="vf-flag" pointer-events="bounding-box">
<path stroke-width="0.3" fill="#000000" stroke="none" stroke-dasharray="none" d="M128.6604384 172.89999999999998M128.2156512 175.88378079999998L128.2156512 172.992664L128.2897824 172.992664C128.4936432 172.992664,128.6233728 173.12239359999998,128.6604384 173.34478719999998C129.0496272 175.19806719999997,130.2171936 177.21814239999998,131.8295472 178.73783199999997C133.6272288 180.42431679999999,134.535336 182.74091679999998,134.535336 185.13164799999998C134.535336 187.39264959999997,133.7384256 189.74631519999997,132.126072 191.69225919999997C131.84808 192.06291519999996,131.8295472 192.06291519999996,131.6442192 192.06291519999996C131.4218256 192.06291519999996,131.2735632 191.89611999999997,131.2735632 191.67372639999996C131.2735632 191.50693119999997,131.29209600000002 191.4698656,131.477424 191.2660048C132.88591680000002 189.56098719999997,133.5901632 187.5038464,133.5901632 185.5393696C133.5901632 183.7972864,133.0341792 182.12933439999998,131.88514560000002 180.86910399999996C131.1808992 180.09072639999997,129.8836032 179.34941439999997,128.234184 178.77489759999997C128.234184 178.75636479999997,128.2156512 178.18184799999997,128.2156512 175.88378079999998">
</path>
</g>
</g>
<g class="vf-modifiers">
</g>
</g>
<path stroke-width="1" fill="none" stroke="#000000" stroke-dasharray="none" d="M122.4784 189.74999999999997L135.4784 180.74999999999997Z">
</path>
</g>
</g>
<g class="vf-stavenote" id="vf-auto75526">
<g class="vf-note" pointer-events="bounding-box">
<g class="vf-notehead" pointer-events="bounding-box">
<path stroke-width="0.3" fill="#000000" stroke="none" stroke-dasharray="none" d="M182.44165759999998 197.99999999999997M189.79861759999997 192.77711999999997C189.91093759999998 192.77711999999997,190.0794176 192.77711999999997,190.1074976 192.77711999999997C190.1074976 192.77711999999997,190.13557759999998 192.77711999999997,190.13557759999998 192.77711999999997C190.13557759999998 192.77711999999997,190.3040576 192.77711999999997,190.4444576 192.77711999999997C192.9716576 192.91751999999997,194.45989759999998 194.57423999999997,194.45989759999998 196.65215999999998C194.45989759999998 197.66303999999997,194.1229376 198.81431999999998,193.28053759999997 199.90943999999996C191.67997759999997 202.07159999999996,189.06853759999998 203.25095999999996,186.79405759999997 203.25095999999996C185.02501759999998 203.25095999999996,183.50869759999998 202.54895999999997,182.7786176 201.11687999999998C182.5539776 200.55527999999998,182.44165759999998 200.02175999999997,182.44165759999998 199.43207999999998C182.44165759999998 196.37135999999998,185.86741759999998 192.97367999999997,189.79861759999997 192.77711999999997">
</path>
</g>
</g>
<g class="vf-modifiers">
</g>
</g>
<g class="vf-stavenote" id="vf-auto75536">
<g class="vf-note" pointer-events="bounding-box">
<g class="vf-notehead" pointer-events="bounding-box">
<path stroke-width="0.3" fill="#000000" stroke="none" stroke-dasharray="none" d="M217.54083839999998 197.99999999999997M224.89779839999997 192.77711999999997C225.01011839999998 192.77711999999997,225.1785984 192.77711999999997,225.2066784 192.77711999999997C225.2066784 192.77711999999997,225.23475839999998 192.77711999999997,225.23475839999998 192.77711999999997C225.23475839999998 192.77711999999997,225.4032384 192.77711999999997,225.5436384 192.77711999999997C228.07083839999999 192.91751999999997,229.55907839999998 194.57423999999997,229.55907839999998 196.65215999999998C229.55907839999998 197.66303999999997,229.2221184 198.81431999999998,228.37971839999997 199.90943999999996C226.77915839999997 202.07159999999996,224.16771839999998 203.25095999999996,221.89323839999997 203.25095999999996C220.12419839999998 203.25095999999996,218.60787839999998 202.54895999999997,217.8777984 201.11687999999998C217.6531584 200.55527999999998,217.54083839999998 200.02175999999997,217.54083839999998 199.43207999999998C217.54083839999998 196.37135999999998,220.96659839999998 192.97367999999997,224.89779839999997 192.77711999999997">
</path>
</g>
</g>
<g class="vf-modifiers">
</g>
</g>
<g class="vf-stavenote" id="vf-auto75546">
<g class="vf-note" pointer-events="bounding-box">
<g class="vf-notehead" pointer-events="bounding-box">
<path stroke-width="0.3" fill="#000000" stroke="none" stroke-dasharray="none" d="M252.6400192 197.99999999999997M259.9969792 192.77711999999997C260.1092992 192.77711999999997,260.2777792 192.77711999999997,260.3058592 192.77711999999997C260.3058592 192.77711999999997,260.33393920000003 192.77711999999997,260.33393920000003 192.77711999999997C260.33393920000003 192.77711999999997,260.5024192 192.77711999999997,260.6428192 192.77711999999997C263.1700192 192.91751999999997,264.65825920000003 194.57423999999997,264.65825920000003 196.65215999999998C264.65825920000003 197.66303999999997,264.3212992 198.81431999999998,263.4788992 199.90943999999996C261.8783392 202.07159999999996,259.2668992 203.25095999999996,256.99241920000003 203.25095999999996C255.2233792 203.25095999999996,253.7070592 202.54895999999997,252.97697920000002 201.11687999999998C252.75233920000002 200.55527999999998,252.6400192 200.02175999999997,252.6400192 199.43207999999998C252.6400192 196.37135999999998,256.0657792 192.97367999999997,259.9969792 192.77711999999997">
</path>
</g>
</g>
<g class="vf-modifiers">
</g>
</g>
<g class="vf-stavenote" id="vf-auto75556">
<g class="vf-note" pointer-events="bounding-box">
<g class="vf-notehead" pointer-events="bounding-box">
<path stroke-width="0.3" fill="#000000" stroke="none" stroke-dasharray="none" d="M313.6032768 197.99999999999997M320.9602368 192.77711999999997C321.07255680000003 192.77711999999997,321.2410368 192.77711999999997,321.2691168 192.77711999999997C321.2691168 192.77711999999997,321.2971968 192.77711999999997,321.2971968 192.77711999999997C321.2971968 192.77711999999997,321.4656768 192.77711999999997,321.6060768 192.77711999999997C324.1332768 192.91751999999997,325.6215168 194.57423999999997,325.6215168 196.65215999999998C325.6215168 197.66303999999997,325.2845568 198.81431999999998,324.4421568 199.90943999999996C322.8415968 202.07159999999996,320.23015680000003 203.25095999999996,317.9556768 203.25095999999996C316.18663680000003 203.25095999999996,314.6703168 202.54895999999997,313.9402368 201.11687999999998C313.7155968 200.55527999999998,313.6032768 200.02175999999997,313.6032768 199.43207999999998C313.6032768 196.37135999999998,317.02903680000003 192.97367999999997,320.9602368 192.77711999999997">
</path>
</g>
</g>
<g class="vf-modifiers">
<g class="vf-stavenote" id="vf-auto75566">
<g class="vf-note" pointer-events="bounding-box">
<g class="vf-stem" pointer-events="bounding-box">
<path stroke-width="1.5" fill="none" stroke="#000000" stroke-dasharray="none" d="M294.9212384 197.99999999999997L294.9212384 174.89999999999998">
</path>
</g>
<g class="vf-notehead" pointer-events="bounding-box">
<path stroke-width="0.3" fill="#000000" stroke="none" stroke-dasharray="none" d="M287.7392 197.99999999999997M292.5947936 194.55289919999998C292.66892479999996 194.55289919999998,292.7801216 194.55289919999998,292.7986544 194.55289919999998C292.7986544 194.55289919999998,292.8171872 194.55289919999998,292.8171872 194.55289919999998C292.8171872 194.55289919999998,292.928384 194.55289919999998,293.021048 194.55289919999998C294.68899999999996 194.64556319999997,295.6712384 195.73899839999996,295.6712384 197.11042559999999C295.6712384 197.77760639999997,295.44884479999996 198.53745119999996,294.8928608 199.26023039999998C293.83649119999995 200.68725599999996,292.1129408 201.46563359999996,290.611784 201.46563359999996C289.4442176 201.46563359999996,288.44344639999997 201.00231359999998,287.96159359999996 200.05714079999998C287.8133312 199.68648479999996,287.7392 199.33436159999997,287.7392 198.94517279999997C287.7392 196.92509759999996,290.00020159999997 194.68262879999997,292.5947936 194.55289919999998">
</path>
</g>
<g class="vf-flag" pointer-events="bounding-box">
<path stroke-width="0.3" fill="#000000" stroke="none" stroke-dasharray="none" d="M294.9212384 172.89999999999998M294.4764512 175.88378079999998L294.4764512 172.992664L294.5505824 172.992664C294.75444319999997 172.992664,294.8841728 173.12239359999998,294.9212384 173.34478719999998C295.3104272 175.19806719999997,296.4779936 177.21814239999998,298.0903472 178.73783199999997C299.8880288 180.42431679999999,300.796136 182.74091679999998,300.796136 185.13164799999998C300.796136 187.39264959999997,299.9992256 189.74631519999997,298.386872 191.69225919999997C298.10888 192.06291519999996,298.0903472 192.06291519999996,297.90501919999997 192.06291519999996C297.6826256 192.06291519999996,297.5343632 191.89611999999997,297.5343632 191.67372639999996C297.5343632 191.50693119999997,297.552896 191.4698656,297.738224 191.2660048C299.1467168 189.56098719999997,299.85096319999997 187.5038464,299.85096319999997 185.5393696C299.85096319999997 183.7972864,299.2949792 182.12933439999998,298.1459456 180.86910399999996C297.4416992 180.09072639999997,296.1444032 179.34941439999997,294.494984 178.77489759999997C294.494984 178.75636479999997,294.4764512 178.18184799999997,294.4764512 175.88378079999998">
</path>
</g>
</g>
<g class="vf-modifiers">
</g>
</g>
<path stroke-width="1" fill="none" stroke="#000000" stroke-dasharray="none" d="M288.7392 189.74999999999997L301.7392 180.74999999999997Z">
</path>
</g>
</g>
<g class="vf-stavenote" id="vf-auto75580">
<g class="vf-note" pointer-events="bounding-box">
<g class="vf-notehead" pointer-events="bounding-box">
<path stroke-width="0.3" fill="#000000" stroke="none" stroke-dasharray="none" d="M348.7024576 197.99999999999997M356.0594176 192.77711999999997C356.17173760000003 192.77711999999997,356.3402176 192.77711999999997,356.3682976 192.77711999999997C356.3682976 192.77711999999997,356.3963776 192.77711999999997,356.3963776 192.77711999999997C356.3963776 192.77711999999997,356.5648576 192.77711999999997,356.7052576 192.77711999999997C359.2324576 192.91751999999997,360.7206976 194.57423999999997,360.7206976 196.65215999999998C360.7206976 197.66303999999997,360.3837376 198.81431999999998,359.5413376 199.90943999999996C357.9407776 202.07159999999996,355.32933760000003 203.25095999999996,353.0548576 203.25095999999996C351.28581760000003 203.25095999999996,349.7694976 202.54895999999997,349.0394176 201.11687999999998C348.8147776 200.55527999999998,348.7024576 200.02175999999997,348.7024576 199.43207999999998C348.7024576 196.37135999999998,352.1282176 192.97367999999997,356.0594176 192.77711999999997">
</path>
</g>
</g>
<g class="vf-modifiers">
</g>
</g>
<g class="vf-stavenote" id="vf-auto75590">
<g class="vf-note" pointer-events="bounding-box">
<g class="vf-notehead" pointer-events="bounding-box">
<path stroke-width="0.3" fill="#000000" stroke="none" stroke-dasharray="none" d="M383.8016384 197.99999999999997M391.1585984 192.77711999999997C391.2709184 192.77711999999997,391.4393984 192.77711999999997,391.4674784 192.77711999999997C391.4674784 192.77711999999997,391.4955584 192.77711999999997,391.4955584 192.77711999999997C391.4955584 192.77711999999997,391.6640384 192.77711999999997,391.8044384 192.77711999999997C394.3316384 192.91751999999997,395.8198784 194.57423999999997,395.8198784 196.65215999999998C395.8198784 197.66303999999997,395.4829184 198.81431999999998,394.6405184 199.90943999999996C393.0399584 202.07159999999996,390.42851840000003 203.25095999999996,388.1540384 203.25095999999996C386.38499840000003 203.25095999999996,384.8686784 202.54895999999997,384.1385984 201.11687999999998C383.9139584 200.55527999999998,383.8016384 200.02175999999997,383.8016384 199.43207999999998C383.8016384 196.37135999999998,387.2273984 192.97367999999997,391.1585984 192.77711999999997">
</path>
</g>
</g>
<g class="vf-modifiers">
</g>
</g>
<g class="vf-stavenote" id="vf-auto75600">
<g class="vf-note" pointer-events="bounding-box">
<g class="vf-notehead" pointer-events="bounding-box">
<path stroke-width="0.3" fill="#000000" stroke="none" stroke-dasharray="none" d="M418.9008192 197.99999999999997M426.2577792 192.77711999999997C426.3700992 192.77711999999997,426.5385792 192.77711999999997,426.5666592 192.77711999999997C426.5666592 192.77711999999997,426.5947392 192.77711999999997,426.5947392 192.77711999999997C426.5947392 192.77711999999997,426.7632192 192.77711999999997,426.9036192 192.77711999999997C429.4308192 192.91751999999997,430.9190592 194.57423999999997,430.9190592 196.65215999999998C430.9190592 197.66303999999997,430.5820992 198.81431999999998,429.7396992 199.90943999999996C428.1391392 202.07159999999996,425.52769920000003 203.25095999999996,423.2532192 203.25095999999996C421.4841792 203.25095999999996,419.9678592 202.54895999999997,419.2377792 201.11687999999998C419.0131392 200.55527999999998,418.9008192 200.02175999999997,418.9008192 199.43207999999998C418.9008192 196.37135999999998,422.3265792 192.97367999999997,426.2577792 192.77711999999997">
</path>
</g>
</g>
<g class="vf-modifiers">
</g>
</g>
<path stroke-width="1.5" fill="none" stroke="#000000" stroke-dasharray="none" d="M158.61071679999998 197.99999999999997L158.61071679999998 163.74999999999997">
</path>
<path stroke-width="1.5" fill="none" stroke="#000000" stroke-dasharray="none" d="M193.70989759999998 197.99999999999997L193.70989759999998 163.74999999999997">
</path>
<path stroke-width="1.5" fill="none" stroke="#000000" stroke-dasharray="none" d="M228.80907839999998 197.99999999999997L228.80907839999998 163.74999999999997">
</path>
<path stroke-width="1.5" fill="none" stroke="#000000" stroke-dasharray="none" d="M263.90825920000003 197.99999999999997L263.90825920000003 163.74999999999997">
</path>
<path stroke-width="0.3" fill="#000000" stroke="none" stroke-dasharray="none" d="M157.86071679999998 162.99999999999997L157.86071679999998 167.99999999999997L264.15825920000003 167.99999999999997L264.15825920000003 162.99999999999997Z">
</path>
<path stroke-width="0.3" fill="#000000" stroke="none" stroke-dasharray="none" d="M157.86071679999998 170.49999999999997L157.86071679999998 175.49999999999997L264.15825920000003 175.49999999999997L264.15825920000003 170.49999999999997Z">
</path>
<path stroke-width="1.5" fill="none" stroke="#000000" stroke-dasharray="none" d="M324.8715168 197.99999999999997L324.8715168 163.74999999999997">
</path>
<path stroke-width="1.5" fill="none" stroke="#000000" stroke-dasharray="none" d="M359.9706976 197.99999999999997L359.9706976 163.74999999999997">
</path>
<path stroke-width="1.5" fill="none" stroke="#000000" stroke-dasharray="none" d="M395.0698784 197.99999999999997L395.0698784 163.74999999999997">
</path>
<path stroke-width="1.5" fill="none" stroke="#000000" stroke-dasharray="none" d="M430.1690592 197.99999999999997L430.1690592 163.74999999999997">
</path>
<path stroke-width="0.3" fill="#000000" stroke="none" stroke-dasharray="none" d="M324.1215168 162.99999999999997L324.1215168 167.99999999999997L430.4190592 167.99999999999997L430.4190592 162.99999999999997Z">
</path>
<path stroke-width="0.3" fill="#000000" stroke="none" stroke-dasharray="none" d="M324.1215168 170.49999999999997L324.1215168 175.49999999999997L430.4190592 175.49999999999997L430.4190592 170.49999999999997Z">
</path>
<path stroke-width="1" fill="none" stroke="black" stroke-dasharray="none" d="M452.66854758399984 197.99999999999997L1219.1402483199995 197.99999999999997">
</path>
<rect stroke-width="0.3" fill="black" stroke="black" stroke-dasharray="none" x="1214.1402483199995" y="177.49999999999997" width="1" height="41">
</rect>
<rect stroke-width="0.3" fill="black" stroke="black" stroke-dasharray="none" x="1217.1402483199995" y="177.49999999999997" width="3" height="41">
</rect>
<path stroke-width="0.3" fill="black" stroke="none" stroke-dasharray="none" d="M1213.1402483199995 193.49999999999997 A2 2 0 0 0 1209.1402483199995 193.49999999999997M1209.1402483199995 193.49999999999997 A2 2 0 0 0 1213.1402483199995 193.49999999999997">
</path>
<path stroke-width="0.3" fill="black" stroke="none" stroke-dasharray="none" d="M1213.1402483199995 203.49999999999997 A2 2 0 0 0 1209.1402483199995 203.49999999999997M1209.1402483199995 203.49999999999997 A2 2 0 0 0 1213.1402483199995 203.49999999999997">
</path>
<path stroke-width="0.3" fill="black" stroke="none" stroke-dasharray="none" d="M457.66854758399984 197.99999999999997M462.6797475839998 179.65439999999998C462.70854758399986 179.62559999999996,463.11174758399983 179.62559999999996,464.35014758399984 179.62559999999996C464.7245475839998 179.62559999999996,465.12774758399985 179.62559999999996,465.64614758399983 179.62559999999996L468.5549475839998 179.62559999999996L468.64134758399985 179.71199999999996C468.78534758399985 179.79839999999996,468.8717475839998 179.94239999999996,468.8717475839998 180.05759999999998C468.8717475839998 180.23039999999997,468.78534758399985 180.34559999999996,468.67014758399984 180.46079999999998C468.64134758399985 180.54719999999998,468.3821475839998 180.77759999999998,468.20934758399983 181.03679999999997L466.68294758399986 182.79359999999997L464.7245475839998 185.01119999999997L463.68774758399985 186.19199999999998L462.13254758399984 187.97759999999997L460.0877475839998 190.31039999999996C459.74214758399984 190.74239999999998,459.36774758399986 191.08799999999997,459.36774758399986 191.08799999999997C459.36774758399986 191.08799999999997,459.36774758399986 191.08799999999997,459.36774758399986 191.08799999999997C459.36774758399986 191.14559999999997,459.6269475839998 191.14559999999997,462.0173475839998 191.14559999999997L464.63814758399985 191.14559999999997L464.63814758399985 189.27359999999996C464.63814758399985 187.37279999999998,464.63814758399985 187.34399999999997,464.66694758399984 187.31519999999998C464.7245475839998 187.22879999999998,464.98374758399984 186.91199999999998,465.9917475839998 185.73119999999997L466.39494758399985 185.29919999999998L466.7981475839998 184.86719999999997L467.40294758399983 184.08959999999996L468.03654758399983 183.42719999999997L468.35334758399983 183.02399999999997C468.46854758399985 182.85119999999998,468.64134758399985 182.82239999999996,468.78534758399985 182.82239999999996C468.95814758399985 182.82239999999996,469.10214758399985 182.90879999999999,469.1885475839998 183.05279999999996C469.21734758399987 183.13919999999996,469.21734758399987 183.19679999999997,469.21734758399987 185.32799999999997C469.21734758399987 185.81759999999997,469.21734758399987 186.42239999999998,469.21734758399987 187.14239999999998L469.21734758399987 191.14559999999997L469.93734758399984 191.14559999999997C470.59974758399983 191.14559999999997,470.6285475839998 191.14559999999997,470.71494758399984 191.17439999999996C470.9453475839998 191.26079999999996,471.06054758399983 191.49119999999996,471.06054758399983 191.75039999999998C471.06054758399983 191.89439999999996,471.03174758399985 192.06719999999999,470.91654758399983 192.18239999999997C470.74374758399983 192.32639999999998,470.71494758399984 192.32639999999998,469.93734758399984 192.32639999999998L469.21734758399987 192.32639999999998L469.21734758399987 192.81599999999997C469.24614758399986 194.28479999999996,469.5341475839998 194.86079999999998,470.65734758399987 195.46559999999997C471.06054758399983 195.66719999999998,471.14694758399986 195.72479999999996,471.14694758399986 196.01279999999997C471.14694758399986 196.21439999999998,471.0893475839998 196.30079999999998,470.9453475839998 196.41599999999997L470.85894758399985 196.44479999999996L466.91334758399984 196.44479999999996L462.9965475839998 196.44479999999996L462.91014758399984 196.41599999999997C462.73734758399985 196.30079999999998,462.70854758399986 196.21439999999998,462.70854758399986 196.01279999999997C462.70854758399986 195.72479999999996,462.73734758399985 195.66719999999998,463.16934758399987 195.46559999999997C464.29254758399986 194.86079999999998,464.5805475839998 194.28479999999996,464.5805475839998 192.81599999999997L464.5805475839998 192.32639999999998L461.26854758399986 192.32639999999998C460.66374758399985 192.38399999999996,460.17414758399985 192.38399999999996,459.7709475839998 192.38399999999996C457.95654758399985 192.38399999999996,457.92774758399986 192.32639999999998,457.8989475839998 192.32639999999998C457.7261475839998 192.26879999999997,457.66854758399984 192.09599999999998,457.66854758399984 191.89439999999996C457.66854758399984 191.89439999999996,457.66854758399984 191.89439999999996,457.66854758399984 191.89439999999996C457.66854758399984 191.69279999999998,457.66854758399984 191.69279999999998,458.24454758399986 191.0304C460.66374758399985 188.09279999999998,462.3629475839998 183.83039999999997,462.3629475839998 180.43199999999996C462.3629475839998 179.91359999999997,462.44934758399984 179.74079999999998,462.6797475839998 179.65439999999998M464.4077475839998 198.02879999999996L464.4365475839998 198.02879999999996L464.35014758399984 198.02879999999996L464.4077475839998 198.02879999999996M464.4077475839998 178.61759999999998L464.4365475839998 178.61759999999998L464.35014758399984 178.61759999999998L464.4077475839998 178.61759999999998">
</path>
<path stroke-width="0.3" fill="black" stroke="none" stroke-dasharray="none" d="M457.66854758399984 217.99999999999997M462.6797475839998 199.65439999999998C462.70854758399986 199.62559999999996,463.11174758399983 199.62559999999996,464.35014758399984 199.62559999999996C464.7245475839998 199.62559999999996,465.12774758399985 199.62559999999996,465.64614758399983 199.62559999999996L468.5549475839998 199.62559999999996L468.64134758399985 199.71199999999996C468.78534758399985 199.79839999999996,468.8717475839998 199.94239999999996,468.8717475839998 200.05759999999998C468.8717475839998 200.23039999999997,468.78534758399985 200.34559999999996,468.67014758399984 200.46079999999998C468.64134758399985 200.54719999999998,468.3821475839998 200.77759999999998,468.20934758399983 201.03679999999997L466.68294758399986 202.79359999999997L464.7245475839998 205.01119999999997L463.68774758399985 206.19199999999998L462.13254758399984 207.97759999999997L460.0877475839998 210.31039999999996C459.74214758399984 210.74239999999998,459.36774758399986 211.08799999999997,459.36774758399986 211.08799999999997C459.36774758399986 211.08799999999997,459.36774758399986 211.08799999999997,459.36774758399986 211.08799999999997C459.36774758399986 211.14559999999997,459.6269475839998 211.14559999999997,462.0173475839998 211.14559999999997L464.63814758399985 211.14559999999997L464.63814758399985 209.27359999999996C464.63814758399985 207.37279999999998,464.63814758399985 207.34399999999997,464.66694758399984 207.31519999999998C464.7245475839998 207.22879999999998,464.98374758399984 206.91199999999998,465.9917475839998 205.73119999999997L466.39494758399985 205.29919999999998L466.7981475839998 204.86719999999997L467.40294758399983 204.08959999999996L468.03654758399983 203.42719999999997L468.35334758399983 203.02399999999997C468.46854758399985 202.85119999999998,468.64134758399985 202.82239999999996,468.78534758399985 202.82239999999996C468.95814758399985 202.82239999999996,469.10214758399985 202.90879999999999,469.1885475839998 203.05279999999996C469.21734758399987 203.13919999999996,469.21734758399987 203.19679999999997,469.21734758399987 205.32799999999997C469.21734758399987 205.81759999999997,469.21734758399987 206.42239999999998,469.21734758399987 207.14239999999998L469.21734758399987 211.14559999999997L469.93734758399984 211.14559999999997C470.59974758399983 211.14559999999997,470.6285475839998 211.14559999999997,470.71494758399984 211.17439999999996C470.9453475839998 211.26079999999996,471.06054758399983 211.49119999999996,471.06054758399983 211.75039999999998C471.06054758399983 211.89439999999996,471.03174758399985 212.06719999999999,470.91654758399983 212.18239999999997C470.74374758399983 212.32639999999998,470.71494758399984 212.32639999999998,469.93734758399984 212.32639999999998L469.21734758399987 212.32639999999998L469.21734758399987 212.81599999999997C469.24614758399986 214.28479999999996,469.5341475839998 214.86079999999998,470.65734758399987 215.46559999999997C471.06054758399983 215.66719999999998,471.14694758399986 215.72479999999996,471.14694758399986 216.01279999999997C471.14694758399986 216.21439999999998,471.0893475839998 216.30079999999998,470.9453475839998 216.41599999999997L470.85894758399985 216.44479999999996L466.91334758399984 216.44479999999996L462.9965475839998 216.44479999999996L462.91014758399984 216.41599999999997C462.73734758399985 216.30079999999998,462.70854758399986 216.21439999999998,462.70854758399986 216.01279999999997C462.70854758399986 215.72479999999996,462.73734758399985 215.66719999999998,463.16934758399987 215.46559999999997C464.29254758399986 214.86079999999998,464.5805475839998 214.28479999999996,464.5805475839998 212.81599999999997L464.5805475839998 212.32639999999998L461.26854758399986 212.32639999999998C460.66374758399985 212.38399999999996,460.17414758399985 212.38399999999996,459.7709475839998 212.38399999999996C457.95654758399985 212.38399999999996,457.92774758399986 212.32639999999998,457.8989475839998 212.32639999999998C457.7261475839998 212.26879999999997,457.66854758399984 212.09599999999998,457.66854758399984 211.89439999999996C457.66854758399984 211.89439999999996,457.66854758399984 211.89439999999996,457.66854758399984 211.89439999999996C457.66854758399984 211.69279999999998,457.66854758399984 211.69279999999998,458.24454758399986 211.0304C460.66374758399985 208.09279999999998,462.3629475839998 203.83039999999997,462.3629475839998 200.43199999999996C462.3629475839998 199.91359999999997,462.44934758399984 199.74079999999998,462.6797475839998 199.65439999999998M464.4077475839998 218.02879999999996L464.4365475839998 218.02879999999996L464.35014758399984 218.02879999999996L464.4077475839998 218.02879999999996M464.4077475839998 198.61759999999998L464.4365475839998 198.61759999999998L464.35014758399984 198.61759999999998L464.4077475839998 198.61759999999998">
</path>
<g class="vf-stavenote" id="vf-auto75613">
<g class="vf-note" pointer-events="bounding-box">
<g class="vf-notehead" pointer-events="bounding-box">
<path stroke-width="0.3" fill="#000000" stroke="none" stroke-dasharray="none" d="M509.0110243839999 197.99999999999997M516.3679843839999 192.77711999999997C516.4803043839999 192.77711999999997,516.6487843839999 192.77711999999997,516.6768643839998 192.77711999999997C516.6768643839998 192.77711999999997,516.7049443839999 192.77711999999997,516.7049443839999 192.77711999999997C516.7049443839999 192.77711999999997,516.8734243839999 192.77711999999997,517.0138243839999 192.77711999999997C519.5410243839999 192.91751999999997,521.0292643839999 194.57423999999997,521.0292643839999 196.65215999999998C521.0292643839999 197.66303999999997,520.6923043839998 198.81431999999998,519.8499043839998 199.90943999999996C518.2493443839999 202.07159999999996,515.6379043839999 203.25095999999996,513.3634243839999 203.25095999999996C511.5943843839999 203.25095999999996,510.0780643839999 202.54895999999997,509.34798438399986 201.11687999999998C509.1233443839999 200.55527999999998,509.0110243839999 200.02175999999997,509.0110243839999 199.43207999999998C509.0110243839999 196.37135999999998,512.4367843839999 192.97367999999997,516.3679843839999 192.77711999999997">
</path>
</g>
</g>
<g class="vf-modifiers">
<g class="vf-stavenote" id="vf-auto75623">
<g class="vf-note" pointer-events="bounding-box">
<g class="vf-stem" pointer-events="bounding-box">
<path stroke-width="1.5" fill="none" stroke="#000000" stroke-dasharray="none" d="M490.32898598399987 197.99999999999997L490.32898598399987 174.89999999999998">
</path>
</g>
<g class="vf-notehead" pointer-events="bounding-box">
<path stroke-width="0.3" fill="#000000" stroke="none" stroke-dasharray="none" d="M483.14694758399986 197.99999999999997M488.0025411839999 194.55289919999998C488.07667238399983 194.55289919999998,488.18786918399985 194.55289919999998,488.20640198399985 194.55289919999998C488.20640198399985 194.55289919999998,488.22493478399986 194.55289919999998,488.22493478399986 194.55289919999998C488.22493478399986 194.55289919999998,488.3361315839999 194.55289919999998,488.4287955839999 194.55289919999998C490.09674758399984 194.64556319999997,491.07898598399987 195.73899839999996,491.07898598399987 197.11042559999999C491.07898598399987 197.77760639999997,490.85659238399984 198.53745119999996,490.3006083839999 199.26023039999998C489.2442387839999 200.68725599999996,487.52068838399987 201.46563359999996,486.0195315839999 201.46563359999996C484.8519651839999 201.46563359999996,483.85119398399985 201.00231359999998,483.36934118399984 200.05714079999998C483.22107878399987 199.68648479999996,483.14694758399986 199.33436159999997,483.14694758399986 198.94517279999997C483.14694758399986 196.92509759999996,485.40794918399985 194.68262879999997,488.0025411839999 194.55289919999998">
</path>
</g>
<g class="vf-flag" pointer-events="bounding-box">
<path stroke-width="0.3" fill="#000000" stroke="none" stroke-dasharray="none" d="M490.32898598399987 172.89999999999998M489.88419878399986 175.88378079999998L489.88419878399986 172.992664L489.9583299839999 172.992664C490.16219078399985 172.992664,490.29192038399987 173.12239359999998,490.32898598399987 173.34478719999998C490.71817478399987 175.19806719999997,491.88574118399987 177.21814239999998,493.4980947839999 178.73783199999997C495.29577638399985 180.42431679999999,496.20388358399987 182.74091679999998,496.20388358399987 185.13164799999998C496.20388358399987 187.39264959999997,495.40697318399987 189.74631519999997,493.79461958399986 191.69225919999997C493.5166275839999 192.06291519999996,493.4980947839999 192.06291519999996,493.31276678399985 192.06291519999996C493.0903731839999 192.06291519999996,492.94211078399985 191.89611999999997,492.94211078399985 191.67372639999996C492.94211078399985 191.50693119999997,492.96064358399985 191.4698656,493.1459715839999 191.2660048C494.55446438399986 189.56098719999997,495.25871078399985 187.5038464,495.25871078399985 185.5393696C495.25871078399985 183.7972864,494.7027267839999 182.12933439999998,493.5536931839999 180.86910399999996C492.8494467839999 180.09072639999997,491.5521507839999 179.34941439999997,489.90273158399987 178.77489759999997C489.90273158399987 178.75636479999997,489.88419878399986 178.18184799999997,489.88419878399986 175.88378079999998">
</path>
</g>
</g>
<g class="vf-modifiers">
</g>
</g>
<path stroke-width="1" fill="none" stroke="#000000" stroke-dasharray="none" d="M484.14694758399986 189.74999999999997L497.14694758399986 180.74999999999997Z">
</path>
</g>
</g>
<g class="vf-stavenote" id="vf-auto75637">
<g class="vf-note" pointer-events="bounding-box">
<g class="vf-notehead" pointer-events="bounding-box">
<path stroke-width="0.3" fill="#000000" stroke="none" stroke-dasharray="none" d="M542.1740859839998 197.99999999999997M549.5310459839998 192.77711999999997C549.6433659839998 192.77711999999997,549.8118459839998 192.77711999999997,549.8399259839998 192.77711999999997C549.8399259839998 192.77711999999997,549.8680059839999 192.77711999999997,549.8680059839999 192.77711999999997C549.8680059839999 192.77711999999997,550.0364859839998 192.77711999999997,550.1768859839998 192.77711999999997C552.7040859839998 192.91751999999997,554.1923259839998 194.57423999999997,554.1923259839998 196.65215999999998C554.1923259839998 197.66303999999997,553.8553659839998 198.81431999999998,553.0129659839998 199.90943999999996C551.4124059839999 202.07159999999996,548.8009659839998 203.25095999999996,546.5264859839998 203.25095999999996C544.7574459839998 203.25095999999996,543.2411259839998 202.54895999999997,542.5110459839998 201.11687999999998C542.2864059839998 200.55527999999998,542.1740859839998 200.02175999999997,542.1740859839998 199.43207999999998C542.1740859839998 196.37135999999998,545.5998459839998 192.97367999999997,549.5310459839998 192.77711999999997">
</path>
</g>
</g>
<g class="vf-modifiers">
</g>
</g>
<g class="vf-stavenote" id="vf-auto75647">
<g class="vf-note" pointer-events="bounding-box">
<g class="vf-notehead" pointer-events="bounding-box">
<path stroke-width="0.3" fill="#000000" stroke="none" stroke-dasharray="none" d="M601.2012243839998 197.99999999999997M608.5581843839998 192.77711999999997C608.6705043839999 192.77711999999997,608.8389843839998 192.77711999999997,608.8670643839998 192.77711999999997C608.8670643839998 192.77711999999997,608.8951443839999 192.77711999999997,608.8951443839999 192.77711999999997C608.8951443839999 192.77711999999997,609.0636243839998 192.77711999999997,609.2040243839998 192.77711999999997C611.7312243839998 192.91751999999997,613.2194643839998 194.57423999999997,613.2194643839998 196.65215999999998C613.2194643839998 197.66303999999997,612.8825043839998 198.81431999999998,612.0401043839998 199.90943999999996C610.4395443839999 202.07159999999996,607.8281043839999 203.25095999999996,605.5536243839998 203.25095999999996C603.7845843839998 203.25095999999996,602.2682643839998 202.54895999999997,601.5381843839998 201.11687999999998C601.3135443839998 200.55527999999998,601.2012243839998 200.02175999999997,601.2012243839998 199.43207999999998C601.2012243839998 196.37135999999998,604.6269843839998 192.97367999999997,608.5581843839998 192.77711999999997">
</path>
</g>
</g>
<g class="vf-modifiers">
<g class="vf-stavenote" id="vf-auto75657">
<g class="vf-note" pointer-events="bounding-box">
<g class="vf-stem" pointer-events="bounding-box">
<path stroke-width="1.5" fill="none" stroke="#000000" stroke-dasharray="none" d="M582.5191859839999 197.99999999999997L582.5191859839999 174.89999999999998">
</path>
</g>
<g class="vf-notehead" pointer-events="bounding-box">
<path stroke-width="0.3" fill="#000000" stroke="none" stroke-dasharray="none" d="M575.3371475839999 197.99999999999997M580.1927411839999 194.55289919999998C580.266872384 194.55289919999998,580.378069184 194.55289919999998,580.396601984 194.55289919999998C580.396601984 194.55289919999998,580.415134784 194.55289919999998,580.415134784 194.55289919999998C580.415134784 194.55289919999998,580.5263315839999 194.55289919999998,580.6189955839999 194.55289919999998C582.2869475839999 194.64556319999997,583.2691859839999 195.73899839999996,583.2691859839999 197.11042559999999C583.2691859839999 197.77760639999997,583.0467923839999 198.53745119999996,582.4908083839999 199.26023039999998C581.4344387839999 200.68725599999996,579.7108883839999 201.46563359999996,578.2097315839999 201.46563359999996C577.0421651839999 201.46563359999996,576.0413939839999 201.00231359999998,575.559541184 200.05714079999998C575.4112787839999 199.68648479999996,575.3371475839999 199.33436159999997,575.3371475839999 198.94517279999997C575.3371475839999 196.92509759999996,577.5981491839999 194.68262879999997,580.1927411839999 194.55289919999998">
</path>
</g>
<g class="vf-flag" pointer-events="bounding-box">
<path stroke-width="0.3" fill="#000000" stroke="none" stroke-dasharray="none" d="M582.5191859839999 172.89999999999998M582.074398784 175.88378079999998L582.074398784 172.992664L582.1485299839999 172.992664C582.3523907839999 172.992664,582.4821203839999 173.12239359999998,582.5191859839999 173.34478719999998C582.908374784 175.19806719999997,584.0759411839999 177.21814239999998,585.6882947839999 178.73783199999997C587.485976384 180.42431679999999,588.394083584 182.74091679999998,588.394083584 185.13164799999998C588.394083584 187.39264959999997,587.597173184 189.74631519999997,585.984819584 191.69225919999997C585.7068275839999 192.06291519999996,585.6882947839999 192.06291519999996,585.5029667839999 192.06291519999996C585.2805731839999 192.06291519999996,585.132310784 191.89611999999997,585.132310784 191.67372639999996C585.132310784 191.50693119999997,585.150843584 191.4698656,585.3361715839999 191.2660048C586.744664384 189.56098719999997,587.448910784 187.5038464,587.448910784 185.5393696C587.448910784 183.7972864,586.8929267839999 182.12933439999998,585.743893184 180.86910399999996C585.039646784 180.09072639999997,583.7423507839999 179.34941439999997,582.092931584 178.77489759999997C582.092931584 178.75636479999997,582.074398784 178.18184799999997,582.074398784 175.88378079999998">
</path>
</g>
</g>
<g class="vf-modifiers">
</g>
</g>
<path stroke-width="1" fill="none" stroke="#000000" stroke-dasharray="none" d="M576.3371475839999 189.74999999999997L589.3371475839999 180.74999999999997Z">
</path>
</g>
</g>
<g class="vf-stavenote" id="vf-auto75671">
<g class="vf-note" pointer-events="bounding-box">
<g class="vf-notehead" pointer-events="bounding-box">
<path stroke-width="0.3" fill="#000000" stroke="none" stroke-dasharray="none" d="M634.3642859839999 197.99999999999997M641.7212459839999 192.77711999999997C641.833565984 192.77711999999997,642.0020459839999 192.77711999999997,642.0301259839999 192.77711999999997C642.0301259839999 192.77711999999997,642.058205984 192.77711999999997,642.058205984 192.77711999999997C642.058205984 192.77711999999997,642.2266859839999 192.77711999999997,642.3670859839999 192.77711999999997C644.8942859839999 192.91751999999997,646.3825259839999 194.57423999999997,646.3825259839999 196.65215999999998C646.3825259839999 197.66303999999997,646.045565984 198.81431999999998,645.203165984 199.90943999999996C643.602605984 202.07159999999996,640.991165984 203.25095999999996,638.7166859839999 203.25095999999996C636.9476459839999 203.25095999999996,635.431325984 202.54895999999997,634.7012459839999 201.11687999999998C634.4766059839999 200.55527999999998,634.3642859839999 200.02175999999997,634.3642859839999 199.43207999999998C634.3642859839999 196.37135999999998,637.7900459839999 192.97367999999997,641.7212459839999 192.77711999999997">
</path>
</g>
</g>
<g class="vf-modifiers">
</g>
</g>
<g class="vf-stavenote" id="vf-auto75681">
<g class="vf-note" pointer-events="bounding-box">
<g class="vf-notehead" pointer-events="bounding-box">
<path stroke-width="0.3" fill="#000000" stroke="none" stroke-dasharray="none" d="M693.3914243839998 197.99999999999997M700.7483843839998 192.77711999999997C700.8607043839999 192.77711999999997,701.0291843839998 192.77711999999997,701.0572643839998 192.77711999999997C701.0572643839998 192.77711999999997,701.0853443839999 192.77711999999997,701.0853443839999 192.77711999999997C701.0853443839999 192.77711999999997,701.2538243839998 192.77711999999997,701.3942243839998 192.77711999999997C703.9214243839998 192.91751999999997,705.4096643839998 194.57423999999997,705.4096643839998 196.65215999999998C705.4096643839998 197.66303999999997,705.0727043839998 198.81431999999998,704.2303043839999 199.90943999999996C702.6297443839999 202.07159999999996,700.0183043839999 203.25095999999996,697.7438243839998 203.25095999999996C695.9747843839998 203.25095999999996,694.4584643839999 202.54895999999997,693.7283843839998 201.11687999999998C693.5037443839998 200.55527999999998,693.3914243839998 200.02175999999997,693.3914243839998 199.43207999999998C693.3914243839998 196.37135999999998,696.8171843839998 192.97367999999997,700.7483843839998 192.77711999999997">
</path>
</g>
</g>
<g class="vf-modifiers">
<g class="vf-stavenote" id="vf-auto75691">
<g class="vf-note" pointer-events="bounding-box">
<g class="vf-stem" pointer-events="bounding-box">
<path stroke-width="1.5" fill="none" stroke="#000000" stroke-dasharray="none" d="M674.7093859839999 197.99999999999997L674.7093859839999 174.89999999999998">
</path>
</g>
<g class="vf-notehead" pointer-events="bounding-box">
<path stroke-width="0.3" fill="#000000" stroke="none" stroke-dasharray="none" d="M667.5273475839999 197.99999999999997M672.382941184 194.55289919999998C672.457072384 194.55289919999998,672.568269184 194.55289919999998,672.586801984 194.55289919999998C672.586801984 194.55289919999998,672.605334784 194.55289919999998,672.605334784 194.55289919999998C672.605334784 194.55289919999998,672.7165315839999 194.55289919999998,672.8091955839999 194.55289919999998C674.4771475839999 194.64556319999997,675.4593859839999 195.73899839999996,675.4593859839999 197.11042559999999C675.4593859839999 197.77760639999997,675.2369923839999 198.53745119999996,674.6810083839999 199.26023039999998C673.6246387839999 200.68725599999996,671.9010883839999 201.46563359999996,670.3999315839999 201.46563359999996C669.232365184 201.46563359999996,668.2315939839999 201.00231359999998,667.749741184 200.05714079999998C667.6014787839999 199.68648479999996,667.5273475839999 199.33436159999997,667.5273475839999 198.94517279999997C667.5273475839999 196.92509759999996,669.7883491839999 194.68262879999997,672.382941184 194.55289919999998">
</path>
</g>
<g class="vf-flag" pointer-events="bounding-box">
<path stroke-width="0.3" fill="#000000" stroke="none" stroke-dasharray="none" d="M674.7093859839999 172.89999999999998M674.264598784 175.88378079999998L674.264598784 172.992664L674.3387299839999 172.992664C674.5425907839999 172.992664,674.6723203839999 173.12239359999998,674.7093859839999 173.34478719999998C675.098574784 175.19806719999997,676.2661411839999 177.21814239999998,677.8784947839999 178.73783199999997C679.676176384 180.42431679999999,680.584283584 182.74091679999998,680.584283584 185.13164799999998C680.584283584 187.39264959999997,679.787373184 189.74631519999997,678.175019584 191.69225919999997C677.8970275839999 192.06291519999996,677.8784947839999 192.06291519999996,677.6931667839999 192.06291519999996C677.4707731839999 192.06291519999996,677.322510784 191.89611999999997,677.322510784 191.67372639999996C677.322510784 191.50693119999997,677.341043584 191.4698656,677.5263715839999 191.2660048C678.934864384 189.56098719999997,679.639110784 187.5038464,679.639110784 185.5393696C679.639110784 183.7972864,679.0831267839999 182.12933439999998,677.934093184 180.86910399999996C677.229846784 180.09072639999997,675.9325507839999 179.34941439999997,674.283131584 178.77489759999997C674.283131584 178.75636479999997,674.264598784 178.18184799999997,674.264598784 175.88378079999998">
</path>
</g>
</g>
<g class="vf-modifiers">
</g>
</g>
<path stroke-width="1" fill="none" stroke="#000000" stroke-dasharray="none" d="M668.5273475839999 189.74999999999997L681.5273475839999 180.74999999999997Z">
</path>
</g>
</g>
<g class="vf-stavenote" id="vf-auto75705">
<g class="vf-note" pointer-events="bounding-box">
<g class="vf-notehead" pointer-events="bounding-box">
<path stroke-width="0.3" fill="#000000" stroke="none" stroke-dasharray="none" d="M726.5544859839998 197.99999999999997M733.9114459839998 192.77711999999997C734.0237659839999 192.77711999999997,734.1922459839998 192.77711999999997,734.2203259839998 192.77711999999997C734.2203259839998 192.77711999999997,734.2484059839999 192.77711999999997,734.2484059839999 192.77711999999997C734.2484059839999 192.77711999999997,734.4168859839998 192.77711999999997,734.5572859839998 192.77711999999997C737.0844859839998 192.91751999999997,738.5727259839998 194.57423999999997,738.5727259839998 196.65215999999998C738.5727259839998 197.66303999999997,738.2357659839998 198.81431999999998,737.3933659839998 199.90943999999996C735.7928059839999 202.07159999999996,733.1813659839999 203.25095999999996,730.9068859839998 203.25095999999996C729.1378459839998 203.25095999999996,727.6215259839998 202.54895999999997,726.8914459839998 201.11687999999998C726.6668059839998 200.55527999999998,726.5544859839998 200.02175999999997,726.5544859839998 199.43207999999998C726.5544859839998 196.37135999999998,729.9802459839998 192.97367999999997,733.9114459839998 192.77711999999997">
</path>
</g>
</g>
<g class="vf-modifiers">
</g>
</g>
<g class="vf-stavenote" id="vf-auto75715">
<g class="vf-note" pointer-events="bounding-box">
<g class="vf-notehead" pointer-events="bounding-box">
<path stroke-width="0.3" fill="#000000" stroke="none" stroke-dasharray="none" d="M785.5816243839998 197.99999999999997M792.9385843839998 192.77711999999997C793.0509043839999 192.77711999999997,793.2193843839998 192.77711999999997,793.2474643839998 192.77711999999997C793.2474643839998 192.77711999999997,793.2755443839999 192.77711999999997,793.2755443839999 192.77711999999997C793.2755443839999 192.77711999999997,793.4440243839998 192.77711999999997,793.5844243839998 192.77711999999997C796.1116243839998 192.91751999999997,797.5998643839998 194.57423999999997,797.5998643839998 196.65215999999998C797.5998643839998 197.66303999999997,797.2629043839999 198.81431999999998,796.4205043839999 199.90943999999996C794.8199443839999 202.07159999999996,792.2085043839999 203.25095999999996,789.9340243839998 203.25095999999996C788.1649843839998 203.25095999999996,786.6486643839999 202.54895999999997,785.9185843839998 201.11687999999998C785.6939443839998 200.55527999999998,785.5816243839998 200.02175999999997,785.5816243839998 199.43207999999998C785.5816243839998 196.37135999999998,789.0073843839998 192.97367999999997,792.9385843839998 192.77711999999997">
</path>
</g>
</g>
<g class="vf-modifiers">
<g class="vf-stavenote" id="vf-auto75725">
<g class="vf-note" pointer-events="bounding-box">
<g class="vf-stem" pointer-events="bounding-box">
<path stroke-width="1.5" fill="none" stroke="#000000" stroke-dasharray="none" d="M766.8995859839998 197.99999999999997L766.8995859839998 174.89999999999998">
</path>
</g>
<g class="vf-notehead" pointer-events="bounding-box">
<path stroke-width="0.3" fill="#000000" stroke="none" stroke-dasharray="none" d="M759.7175475839998 197.99999999999997M764.5731411839998 194.55289919999998C764.6472723839998 194.55289919999998,764.7584691839999 194.55289919999998,764.7770019839999 194.55289919999998C764.7770019839999 194.55289919999998,764.7955347839999 194.55289919999998,764.7955347839999 194.55289919999998C764.7955347839999 194.55289919999998,764.9067315839998 194.55289919999998,764.9993955839998 194.55289919999998C766.6673475839998 194.64556319999997,767.6495859839998 195.73899839999996,767.6495859839998 197.11042559999999C767.6495859839998 197.77760639999997,767.4271923839998 198.53745119999996,766.8712083839998 199.26023039999998C765.8148387839998 200.68725599999996,764.0912883839998 201.46563359999996,762.5901315839998 201.46563359999996C761.4225651839998 201.46563359999996,760.4217939839998 201.00231359999998,759.9399411839998 200.05714079999998C759.7916787839998 199.68648479999996,759.7175475839998 199.33436159999997,759.7175475839998 198.94517279999997C759.7175475839998 196.92509759999996,761.9785491839998 194.68262879999997,764.5731411839998 194.55289919999998">
</path>
</g>
<g class="vf-flag" pointer-events="bounding-box">
<path stroke-width="0.3" fill="#000000" stroke="none" stroke-dasharray="none" d="M766.8995859839998 172.89999999999998M766.4547987839999 175.88378079999998L766.4547987839999 172.992664L766.5289299839998 172.992664C766.7327907839998 172.992664,766.8625203839998 173.12239359999998,766.8995859839998 173.34478719999998C767.2887747839999 175.19806719999997,768.4563411839998 177.21814239999998,770.0686947839998 178.73783199999997C771.8663763839999 180.42431679999999,772.7744835839999 182.74091679999998,772.7744835839999 185.13164799999998C772.7744835839999 187.39264959999997,771.9775731839999 189.74631519999997,770.3652195839999 191.69225919999997C770.0872275839998 192.06291519999996,770.0686947839998 192.06291519999996,769.8833667839998 192.06291519999996C769.6609731839998 192.06291519999996,769.5127107839999 191.89611999999997,769.5127107839999 191.67372639999996C769.5127107839999 191.50693119999997,769.5312435839999 191.4698656,769.7165715839998 191.2660048C771.1250643839999 189.56098719999997,771.8293107839999 187.5038464,771.8293107839999 185.5393696C771.8293107839999 183.7972864,771.2733267839998 182.12933439999998,770.1242931839998 180.86910399999996C769.4200467839999 180.09072639999997,768.1227507839998 179.34941439999997,766.4733315839999 178.77489759999997C766.4733315839999 178.75636479999997,766.4547987839999 178.18184799999997,766.4547987839999 175.88378079999998">
</path>
</g>
</g>
<g class="vf-modifiers">
</g>
</g>
<path stroke-width="1" fill="none" stroke="#000000" stroke-dasharray="none" d="M760.7175475839998 189.74999999999997L773.7175475839998 180.74999999999997Z">
</path>
</g>
</g>
<g class="vf-stavenote" id="vf-auto75739">
<g class="vf-note" pointer-events="bounding-box">
<g class="vf-notehead" pointer-events="bounding-box">
<path stroke-width="0.3" fill="#000000" stroke="none" stroke-dasharray="none" d="M818.7446859839998 197.99999999999997M826.1016459839998 192.77711999999997C826.2139659839999 192.77711999999997,826.3824459839998 192.77711999999997,826.4105259839998 192.77711999999997C826.4105259839998 192.77711999999997,826.4386059839999 192.77711999999997,826.4386059839999 192.77711999999997C826.4386059839999 192.77711999999997,826.6070859839998 192.77711999999997,826.7474859839998 192.77711999999997C829.2746859839998 192.91751999999997,830.7629259839998 194.57423999999997,830.7629259839998 196.65215999999998C830.7629259839998 197.66303999999997,830.4259659839998 198.81431999999998,829.5835659839998 199.90943999999996C827.9830059839999 202.07159999999996,825.3715659839999 203.25095999999996,823.0970859839998 203.25095999999996C821.3280459839998 203.25095999999996,819.8117259839998 202.54895999999997,819.0816459839998 201.11687999999998C818.8570059839998 200.55527999999998,818.7446859839998 200.02175999999997,818.7446859839998 199.43207999999998C818.7446859839998 196.37135999999998,822.1704459839998 192.97367999999997,826.1016459839998 192.77711999999997">
</path>
</g>
</g>
<g class="vf-modifiers">
</g>
</g>
<g class="vf-stavenote" id="vf-auto75749">
<g class="vf-note" pointer-events="bounding-box">
<g class="vf-notehead" pointer-events="bounding-box">
<path stroke-width="0.3" fill="#000000" stroke="none" stroke-dasharray="none" d="M877.7718243839997 197.99999999999997M885.1287843839997 192.77711999999997C885.2411043839998 192.77711999999997,885.4095843839997 192.77711999999997,885.4376643839997 192.77711999999997C885.4376643839997 192.77711999999997,885.4657443839998 192.77711999999997,885.4657443839998 192.77711999999997C885.4657443839998 192.77711999999997,885.6342243839997 192.77711999999997,885.7746243839997 192.77711999999997C888.3018243839997 192.91751999999997,889.7900643839997 194.57423999999997,889.7900643839997 196.65215999999998C889.7900643839997 197.66303999999997,889.4531043839997 198.81431999999998,888.6107043839997 199.90943999999996C887.0101443839998 202.07159999999996,884.3987043839998 203.25095999999996,882.1242243839997 203.25095999999996C880.3551843839997 203.25095999999996,878.8388643839997 202.54895999999997,878.1087843839997 201.11687999999998C877.8841443839997 200.55527999999998,877.7718243839997 200.02175999999997,877.7718243839997 199.43207999999998C877.7718243839997 196.37135999999998,881.1975843839997 192.97367999999997,885.1287843839997 192.77711999999997">
</path>
</g>
</g>
<g class="vf-modifiers">
<g class="vf-stavenote" id="vf-auto75759">
<g class="vf-note" pointer-events="bounding-box">
<g class="vf-stem" pointer-events="bounding-box">
<path stroke-width="1.5" fill="none" stroke="#000000" stroke-dasharray="none" d="M859.0897859839997 197.99999999999997L859.0897859839997 174.89999999999998">
</path>
</g>
<g class="vf-notehead" pointer-events="bounding-box">
<path stroke-width="0.3" fill="#000000" stroke="none" stroke-dasharray="none" d="M851.9077475839997 197.99999999999997M856.7633411839997 194.55289919999998C856.8374723839997 194.55289919999998,856.9486691839998 194.55289919999998,856.9672019839998 194.55289919999998C856.9672019839998 194.55289919999998,856.9857347839998 194.55289919999998,856.9857347839998 194.55289919999998C856.9857347839998 194.55289919999998,857.0969315839997 194.55289919999998,857.1895955839997 194.55289919999998C858.8575475839997 194.64556319999997,859.8397859839997 195.73899839999996,859.8397859839997 197.11042559999999C859.8397859839997 197.77760639999997,859.6173923839997 198.53745119999996,859.0614083839997 199.26023039999998C858.0050387839997 200.68725599999996,856.2814883839997 201.46563359999996,854.7803315839997 201.46563359999996C853.6127651839997 201.46563359999996,852.6119939839997 201.00231359999998,852.1301411839997 200.05714079999998C851.9818787839997 199.68648479999996,851.9077475839997 199.33436159999997,851.9077475839997 198.94517279999997C851.9077475839997 196.92509759999996,854.1687491839997 194.68262879999997,856.7633411839997 194.55289919999998">
</path>
</g>
<g class="vf-flag" pointer-events="bounding-box">
<path stroke-width="0.3" fill="#000000" stroke="none" stroke-dasharray="none" d="M859.0897859839997 172.89999999999998M858.6449987839998 175.88378079999998L858.6449987839998 172.992664L858.7191299839997 172.992664C858.9229907839997 172.992664,859.0527203839997 173.12239359999998,859.0897859839997 173.34478719999998C859.4789747839998 175.19806719999997,860.6465411839997 177.21814239999998,862.2588947839997 178.73783199999997C864.0565763839998 180.42431679999999,864.9646835839998 182.74091679999998,864.9646835839998 185.13164799999998C864.9646835839998 187.39264959999997,864.1677731839998 189.74631519999997,862.5554195839998 191.69225919999997C862.2774275839997 192.06291519999996,862.2588947839997 192.06291519999996,862.0735667839997 192.06291519999996C861.8511731839997 192.06291519999996,861.7029107839998 191.89611999999997,861.7029107839998 191.67372639999996C861.7029107839998 191.50693119999997,861.7214435839998 191.4698656,861.9067715839997 191.2660048C863.3152643839998 189.56098719999997,864.0195107839997 187.5038464,864.0195107839997 185.5393696C864.0195107839997 183.7972864,863.4635267839997 182.12933439999998,862.3144931839997 180.86910399999996C861.6102467839997 180.09072639999997,860.3129507839997 179.34941439999997,858.6635315839998 178.77489759999997C858.6635315839998 178.75636479999997,858.6449987839998 178.18184799999997,858.6449987839998 175.88378079999998">
</path>
</g>
</g>
<g class="vf-modifiers">
</g>
</g>
<path stroke-width="1" fill="none" stroke="#000000" stroke-dasharray="none" d="M852.9077475839997 189.74999999999997L865.9077475839997 180.74999999999997Z">
</path>
</g>
</g>
<g class="vf-stavenote" id="vf-auto75773">
<g class="vf-note" pointer-events="bounding-box">
<g class="vf-notehead" pointer-events="bounding-box">
<path stroke-width="0.3" fill="#000000" stroke="none" stroke-dasharray="none" d="M910.9348859839997 197.99999999999997M918.2918459839997 192.77711999999997C918.4041659839997 192.77711999999997,918.5726459839997 192.77711999999997,918.6007259839997 192.77711999999997C918.6007259839997 192.77711999999997,918.6288059839998 192.77711999999997,918.6288059839998 192.77711999999997C918.6288059839998 192.77711999999997,918.7972859839997 192.77711999999997,918.9376859839997 192.77711999999997C921.4648859839997 192.91751999999997,922.9531259839997 194.57423999999997,922.9531259839997 196.65215999999998C922.9531259839997 197.66303999999997,922.6161659839997 198.81431999999998,921.7737659839997 199.90943999999996C920.1732059839998 202.07159999999996,917.5617659839997 203.25095999999996,915.2872859839997 203.25095999999996C913.5182459839997 203.25095999999996,912.0019259839997 202.54895999999997,911.2718459839997 201.11687999999998C911.0472059839997 200.55527999999998,910.9348859839997 200.02175999999997,910.9348859839997 199.43207999999998C910.9348859839997 196.37135999999998,914.3606459839997 192.97367999999997,918.2918459839997 192.77711999999997">
</path>
</g>
</g>
<g class="vf-modifiers">
</g>
</g>
<g class="vf-stavenote" id="vf-auto75783">
<g class="vf-note" pointer-events="bounding-box">
<g class="vf-notehead" pointer-events="bounding-box">
<path stroke-width="0.3" fill="#000000" stroke="none" stroke-dasharray="none" d="M969.9620243839997 197.99999999999997M977.3189843839997 192.77711999999997C977.4313043839998 192.77711999999997,977.5997843839997 192.77711999999997,977.6278643839997 192.77711999999997C977.6278643839997 192.77711999999997,977.6559443839998 192.77711999999997,977.6559443839998 192.77711999999997C977.6559443839998 192.77711999999997,977.8244243839997 192.77711999999997,977.9648243839997 192.77711999999997C980.4920243839997 192.91751999999997,981.9802643839997 194.57423999999997,981.9802643839997 196.65215999999998C981.9802643839997 197.66303999999997,981.6433043839997 198.81431999999998,980.8009043839998 199.90943999999996C979.2003443839998 202.07159999999996,976.5889043839998 203.25095999999996,974.3144243839997 203.25095999999996C972.5453843839997 203.25095999999996,971.0290643839998 202.54895999999997,970.2989843839997 201.11687999999998C970.0743443839997 200.55527999999998,969.9620243839997 200.02175999999997,969.9620243839997 199.43207999999998C969.9620243839997 196.37135999999998,973.3877843839997 192.97367999999997,977.3189843839997 192.77711999999997">
</path>
</g>
</g>
<g class="vf-modifiers">
<g class="vf-stavenote" id="vf-auto75793">
<g class="vf-note" pointer-events="bounding-box">
<g class="vf-stem" pointer-events="bounding-box">
<path stroke-width="1.5" fill="none" stroke="#000000" stroke-dasharray="none" d="M951.2799859839997 197.99999999999997L951.2799859839997 174.89999999999998">
</path>
</g>
<g class="vf-notehead" pointer-events="bounding-box">
<path stroke-width="0.3" fill="#000000" stroke="none" stroke-dasharray="none" d="M944.0979475839997 197.99999999999997M948.9535411839997 194.55289919999998C949.0276723839997 194.55289919999998,949.1388691839998 194.55289919999998,949.1574019839998 194.55289919999998C949.1574019839998 194.55289919999998,949.1759347839998 194.55289919999998,949.1759347839998 194.55289919999998C949.1759347839998 194.55289919999998,949.2871315839997 194.55289919999998,949.3797955839997 194.55289919999998C951.0477475839997 194.64556319999997,952.0299859839997 195.73899839999996,952.0299859839997 197.11042559999999C952.0299859839997 197.77760639999997,951.8075923839997 198.53745119999996,951.2516083839997 199.26023039999998C950.1952387839997 200.68725599999996,948.4716883839997 201.46563359999996,946.9705315839997 201.46563359999996C945.8029651839997 201.46563359999996,944.8021939839997 201.00231359999998,944.3203411839997 200.05714079999998C944.1720787839997 199.68648479999996,944.0979475839997 199.33436159999997,944.0979475839997 198.94517279999997C944.0979475839997 196.92509759999996,946.3589491839997 194.68262879999997,948.9535411839997 194.55289919999998">
</path>
</g>
<g class="vf-flag" pointer-events="bounding-box">
<path stroke-width="0.3" fill="#000000" stroke="none" stroke-dasharray="none" d="M951.2799859839997 172.89999999999998M950.8351987839998 175.88378079999998L950.8351987839998 172.992664L950.9093299839997 172.992664C951.1131907839997 172.992664,951.2429203839997 173.12239359999998,951.2799859839997 173.34478719999998C951.6691747839998 175.19806719999997,952.8367411839997 177.21814239999998,954.4490947839997 178.73783199999997C956.2467763839998 180.42431679999999,957.1548835839998 182.74091679999998,957.1548835839998 185.13164799999998C957.1548835839998 187.39264959999997,956.3579731839998 189.74631519999997,954.7456195839998 191.69225919999997C954.4676275839997 192.06291519999996,954.4490947839997 192.06291519999996,954.2637667839997 192.06291519999996C954.0413731839997 192.06291519999996,953.8931107839998 191.89611999999997,953.8931107839998 191.67372639999996C953.8931107839998 191.50693119999997,953.9116435839998 191.4698656,954.0969715839997 191.2660048C955.5054643839998 189.56098719999997,956.2097107839998 187.5038464,956.2097107839998 185.5393696C956.2097107839998 183.7972864,955.6537267839997 182.12933439999998,954.5046931839997 180.86910399999996C953.8004467839997 180.09072639999997,952.5031507839997 179.34941439999997,950.8537315839998 178.77489759999997C950.8537315839998 178.75636479999997,950.8351987839998 178.18184799999997,950.8351987839998 175.88378079999998">
</path>
</g>
</g>
<g class="vf-modifiers">
</g>
</g>
<path stroke-width="1" fill="none" stroke="#000000" stroke-dasharray="none" d="M945.0979475839997 189.74999999999997L958.0979475839997 180.74999999999997Z">
</path>
</g>
</g>
<g class="vf-stavenote" id="vf-auto75807">
<g class="vf-note" pointer-events="bounding-box">
<g class="vf-notehead" pointer-events="bounding-box">
<path stroke-width="0.3" fill="#000000" stroke="none" stroke-dasharray="none" d="M1003.1250859839997 197.99999999999997M1010.4820459839997 192.77711999999997C1010.5943659839998 192.77711999999997,1010.7628459839997 192.77711999999997,1010.7909259839997 192.77711999999997C1010.7909259839997 192.77711999999997,1010.8190059839998 192.77711999999997,1010.8190059839998 192.77711999999997C1010.8190059839998 192.77711999999997,1010.9874859839997 192.77711999999997,1011.1278859839997 192.77711999999997C1013.6550859839997 192.91751999999997,1015.1433259839997 194.57423999999997,1015.1433259839997 196.65215999999998C1015.1433259839997 197.66303999999997,1014.8063659839997 198.81431999999998,1013.9639659839997 199.90943999999996C1012.3634059839998 202.07159999999996,1009.7519659839998 203.25095999999996,1007.4774859839997 203.25095999999996C1005.7084459839997 203.25095999999996,1004.1921259839997 202.54895999999997,1003.4620459839997 201.11687999999998C1003.2374059839997 200.55527999999998,1003.1250859839997 200.02175999999997,1003.1250859839997 199.43207999999998C1003.1250859839997 196.37135999999998,1006.5508459839997 192.97367999999997,1010.4820459839997 192.77711999999997">
</path>
</g>
</g>
<g class="vf-modifiers">
</g>
</g>
<g class="vf-stavenote" id="vf-auto75817">
<g class="vf-note" pointer-events="bounding-box">
<g class="vf-notehead" pointer-events="bounding-box">
<path stroke-width="0.3" fill="#000000" stroke="none" stroke-dasharray="none" d="M1062.1522243839997 197.99999999999997M1069.5091843839998 192.77711999999997C1069.6215043839998 192.77711999999997,1069.7899843839998 192.77711999999997,1069.8180643839996 192.77711999999997C1069.8180643839996 192.77711999999997,1069.8461443839997 192.77711999999997,1069.8461443839997 192.77711999999997C1069.8461443839997 192.77711999999997,1070.0146243839997 192.77711999999997,1070.1550243839997 192.77711999999997C1072.6822243839997 192.91751999999997,1074.1704643839998 194.57423999999997,1074.1704643839998 196.65215999999998C1074.1704643839998 197.66303999999997,1073.8335043839998 198.81431999999998,1072.9911043839998 199.90943999999996C1071.3905443839997 202.07159999999996,1068.7791043839998 203.25095999999996,1066.5046243839997 203.25095999999996C1064.7355843839998 203.25095999999996,1063.2192643839996 202.54895999999997,1062.4891843839998 201.11687999999998C1062.2645443839997 200.55527999999998,1062.1522243839997 200.02175999999997,1062.1522243839997 199.43207999999998C1062.1522243839997 196.37135999999998,1065.5779843839998 192.97367999999997,1069.5091843839998 192.77711999999997">
</path>
</g>
</g>
<g class="vf-modifiers">
<g class="vf-stavenote" id="vf-auto75827">
<g class="vf-note" pointer-events="bounding-box">
<g class="vf-stem" pointer-events="bounding-box">
<path stroke-width="1.5" fill="none" stroke="#000000" stroke-dasharray="none" d="M1043.4701859839997 197.99999999999997L1043.4701859839997 174.89999999999998">
</path>
</g>
<g class="vf-notehead" pointer-events="bounding-box">
<path stroke-width="0.3" fill="#000000" stroke="none" stroke-dasharray="none" d="M1036.2881475839997 197.99999999999997M1041.1437411839997 194.55289919999998C1041.2178723839997 194.55289919999998,1041.3290691839998 194.55289919999998,1041.3476019839998 194.55289919999998C1041.3476019839998 194.55289919999998,1041.3661347839998 194.55289919999998,1041.3661347839998 194.55289919999998C1041.3661347839998 194.55289919999998,1041.4773315839998 194.55289919999998,1041.5699955839998 194.55289919999998C1043.2379475839998 194.64556319999997,1044.2201859839997 195.73899839999996,1044.2201859839997 197.11042559999999C1044.2201859839997 197.77760639999997,1043.9977923839997 198.53745119999996,1043.4418083839996 199.26023039999998C1042.3854387839997 200.68725599999996,1040.6618883839997 201.46563359999996,1039.1607315839997 201.46563359999996C1037.9931651839997 201.46563359999996,1036.9923939839998 201.00231359999998,1036.5105411839997 200.05714079999998C1036.3622787839997 199.68648479999996,1036.2881475839997 199.33436159999997,1036.2881475839997 198.94517279999997C1036.2881475839997 196.92509759999996,1038.5491491839998 194.68262879999997,1041.1437411839997 194.55289919999998">
</path>
</g>
<g class="vf-flag" pointer-events="bounding-box">
<path stroke-width="0.3" fill="#000000" stroke="none" stroke-dasharray="none" d="M1043.4701859839997 172.89999999999998M1043.0253987839997 175.88378079999998L1043.0253987839997 172.992664L1043.0995299839997 172.992664C1043.3033907839997 172.992664,1043.4331203839997 173.12239359999998,1043.4701859839997 173.34478719999998C1043.8593747839998 175.19806719999997,1045.0269411839997 177.21814239999998,1046.6392947839997 178.73783199999997C1048.4369763839998 180.42431679999999,1049.3450835839997 182.74091679999998,1049.3450835839997 185.13164799999998C1049.3450835839997 187.39264959999997,1048.5481731839998 189.74631519999997,1046.9358195839998 191.69225919999997C1046.6578275839997 192.06291519999996,1046.6392947839997 192.06291519999996,1046.4539667839997 192.06291519999996C1046.2315731839997 192.06291519999996,1046.0833107839997 191.89611999999997,1046.0833107839997 191.67372639999996C1046.0833107839997 191.50693119999997,1046.1018435839997 191.4698656,1046.2871715839997 191.2660048C1047.6956643839997 189.56098719999997,1048.3999107839998 187.5038464,1048.3999107839998 185.5393696C1048.3999107839998 183.7972864,1047.8439267839997 182.12933439999998,1046.6948931839997 180.86910399999996C1045.9906467839996 180.09072639999997,1044.6933507839997 179.34941439999997,1043.0439315839997 178.77489759999997C1043.0439315839997 178.75636479999997,1043.0253987839997 178.18184799999997,1043.0253987839997 175.88378079999998">
</path>
</g>
</g>
<g class="vf-modifiers">
</g>
</g>
<path stroke-width="1" fill="none" stroke="#000000" stroke-dasharray="none" d="M1037.2881475839997 189.74999999999997L1050.2881475839997 180.74999999999997Z">
</path>
</g>
</g>
<g class="vf-stavenote" id="vf-auto75841">
<g class="vf-note" pointer-events="bounding-box">
<g class="vf-notehead" pointer-events="bounding-box">
<path stroke-width="0.3" fill="#000000" stroke="none" stroke-dasharray="none" d="M1095.3152859839997 197.99999999999997M1102.6722459839998 192.77711999999997C1102.7845659839998 192.77711999999997,1102.9530459839998 192.77711999999997,1102.9811259839996 192.77711999999997C1102.9811259839996 192.77711999999997,1103.0092059839997 192.77711999999997,1103.0092059839997 192.77711999999997C1103.0092059839997 192.77711999999997,1103.1776859839997 192.77711999999997,1103.3180859839997 192.77711999999997C1105.8452859839997 192.91751999999997,1107.3335259839998 194.57423999999997,1107.3335259839998 196.65215999999998C1107.3335259839998 197.66303999999997,1106.9965659839997 198.81431999999998,1106.1541659839997 199.90943999999996C1104.5536059839997 202.07159999999996,1101.9421659839998 203.25095999999996,1099.6676859839997 203.25095999999996C1097.8986459839998 203.25095999999996,1096.3823259839996 202.54895999999997,1095.6522459839998 201.11687999999998C1095.4276059839997 200.55527999999998,1095.3152859839997 200.02175999999997,1095.3152859839997 199.43207999999998C1095.3152859839997 196.37135999999998,1098.7410459839998 192.97367999999997,1102.6722459839998 192.77711999999997">
</path>
</g>
</g>
<g class="vf-modifiers">
</g>
</g>
<g class="vf-stavenote" id="vf-auto75851">
<g class="vf-note" pointer-events="bounding-box">
<g class="vf-notehead" pointer-events="bounding-box">
<path stroke-width="0.3" fill="#000000" stroke="none" stroke-dasharray="none" d="M1154.3424243839997 197.99999999999997M1161.6993843839998 192.77711999999997C1161.8117043839998 192.77711999999997,1161.9801843839998 192.77711999999997,1162.0082643839996 192.77711999999997C1162.0082643839996 192.77711999999997,1162.0363443839997 192.77711999999997,1162.0363443839997 192.77711999999997C1162.0363443839997 192.77711999999997,1162.2048243839997 192.77711999999997,1162.3452243839997 192.77711999999997C1164.8724243839997 192.91751999999997,1166.3606643839998 194.57423999999997,1166.3606643839998 196.65215999999998C1166.3606643839998 197.66303999999997,1166.0237043839998 198.81431999999998,1165.1813043839998 199.90943999999996C1163.5807443839997 202.07159999999996,1160.9693043839998 203.25095999999996,1158.6948243839997 203.25095999999996C1156.9257843839998 203.25095999999996,1155.4094643839996 202.54895999999997,1154.6793843839998 201.11687999999998C1154.4547443839997 200.55527999999998,1154.3424243839997 200.02175999999997,1154.3424243839997 199.43207999999998C1154.3424243839997 196.37135999999998,1157.7681843839998 192.97367999999997,1161.6993843839998 192.77711999999997">
</path>
</g>
</g>
<g class="vf-modifiers">
<g class="vf-stavenote" id="vf-auto75861">
<g class="vf-note" pointer-events="bounding-box">
<g class="vf-stem" pointer-events="bounding-box">
<path stroke-width="1.5" fill="none" stroke="#000000" stroke-dasharray="none" d="M1135.6603859839997 197.99999999999997L1135.6603859839997 174.89999999999998">
</path>
</g>
<g class="vf-notehead" pointer-events="bounding-box">
<path stroke-width="0.3" fill="#000000" stroke="none" stroke-dasharray="none" d="M1128.4783475839997 197.99999999999997M1133.3339411839997 194.55289919999998C1133.4080723839998 194.55289919999998,1133.5192691839998 194.55289919999998,1133.5378019839998 194.55289919999998C1133.5378019839998 194.55289919999998,1133.5563347839998 194.55289919999998,1133.5563347839998 194.55289919999998C1133.5563347839998 194.55289919999998,1133.6675315839998 194.55289919999998,1133.7601955839998 194.55289919999998C1135.4281475839998 194.64556319999997,1136.4103859839997 195.73899839999996,1136.4103859839997 197.11042559999999C1136.4103859839997 197.77760639999997,1136.1879923839997 198.53745119999996,1135.6320083839996 199.26023039999998C1134.5756387839997 200.68725599999996,1132.8520883839997 201.46563359999996,1131.3509315839997 201.46563359999996C1130.1833651839997 201.46563359999996,1129.1825939839998 201.00231359999998,1128.7007411839998 200.05714079999998C1128.5524787839997 199.68648479999996,1128.4783475839997 199.33436159999997,1128.4783475839997 198.94517279999997C1128.4783475839997 196.92509759999996,1130.7393491839998 194.68262879999997,1133.3339411839997 194.55289919999998">
</path>
</g>
<g class="vf-flag" pointer-events="bounding-box">
<path stroke-width="0.3" fill="#000000" stroke="none" stroke-dasharray="none" d="M1135.6603859839997 172.89999999999998M1135.2155987839997 175.88378079999998L1135.2155987839997 172.992664L1135.2897299839997 172.992664C1135.4935907839997 172.992664,1135.6233203839997 173.12239359999998,1135.6603859839997 173.34478719999998C1136.0495747839998 175.19806719999997,1137.2171411839997 177.21814239999998,1138.8294947839997 178.73783199999997C1140.6271763839998 180.42431679999999,1141.5352835839997 182.74091679999998,1141.5352835839997 185.13164799999998C1141.5352835839997 187.39264959999997,1140.7383731839998 189.74631519999997,1139.1260195839998 191.69225919999997C1138.8480275839997 192.06291519999996,1138.8294947839997 192.06291519999996,1138.6441667839997 192.06291519999996C1138.4217731839997 192.06291519999996,1138.2735107839997 191.89611999999997,1138.2735107839997 191.67372639999996C1138.2735107839997 191.50693119999997,1138.2920435839997 191.4698656,1138.4773715839997 191.2660048C1139.8858643839997 189.56098719999997,1140.5901107839998 187.5038464,1140.5901107839998 185.5393696C1140.5901107839998 183.7972864,1140.0341267839997 182.12933439999998,1138.8850931839997 180.86910399999996C1138.1808467839996 180.09072639999997,1136.8835507839997 179.34941439999997,1135.2341315839997 178.77489759999997C1135.2341315839997 178.75636479999997,1135.2155987839997 178.18184799999997,1135.2155987839997 175.88378079999998">
</path>
</g>
</g>
<g class="vf-modifiers">
</g>
</g>
<path stroke-width="1" fill="none" stroke="#000000" stroke-dasharray="none" d="M1129.4783475839997 189.74999999999997L1142.4783475839997 180.74999999999997Z">
</path>
</g>
</g>
<g class="vf-stavenote" id="vf-auto75875">
<g class="vf-note" pointer-events="bounding-box">
<g class="vf-notehead" pointer-events="bounding-box">
<path stroke-width="0.3" fill="#000000" stroke="none" stroke-dasharray="none" d="M1187.5054859839997 197.99999999999997M1194.8624459839998 192.77711999999997C1194.9747659839998 192.77711999999997,1195.1432459839998 192.77711999999997,1195.1713259839996 192.77711999999997C1195.1713259839996 192.77711999999997,1195.1994059839997 192.77711999999997,1195.1994059839997 192.77711999999997C1195.1994059839997 192.77711999999997,1195.3678859839997 192.77711999999997,1195.5082859839997 192.77711999999997C1198.0354859839997 192.91751999999997,1199.5237259839998 194.57423999999997,1199.5237259839998 196.65215999999998C1199.5237259839998 197.66303999999997,1199.1867659839997 198.81431999999998,1198.3443659839998 199.90943999999996C1196.7438059839997 202.07159999999996,1194.1323659839998 203.25095999999996,1191.8578859839997 203.25095999999996C1190.0888459839998 203.25095999999996,1188.5725259839996 202.54895999999997,1187.8424459839998 201.11687999999998C1187.6178059839997 200.55527999999998,1187.5054859839997 200.02175999999997,1187.5054859839997 199.43207999999998C1187.5054859839997 196.37135999999998,1190.9312459839998 192.97367999999997,1194.8624459839998 192.77711999999997">
</path>
</g>
</g>
<g class="vf-modifiers">
</g>
</g>
<path stroke-width="1.5" fill="none" stroke="#000000" stroke-dasharray="none" d="M520.2792643839999 197.99999999999997L520.2792643839999 163.74999999999997">
</path>
<path stroke-width="1.5" fill="none" stroke="#000000" stroke-dasharray="none" d="M553.4423259839998 197.99999999999997L553.4423259839998 163.74999999999997">
</path>
<path stroke-width="1.5" fill="none" stroke="#000000" stroke-dasharray="none" d="M612.4694643839998 197.99999999999997L612.4694643839998 163.74999999999997">
</path>
<path stroke-width="1.5" fill="none" stroke="#000000" stroke-dasharray="none" d="M645.6325259839999 197.99999999999997L645.6325259839999 163.74999999999997">
</path>
<path stroke-width="0.3" fill="#000000" stroke="none" stroke-dasharray="none" d="M519.5292643839999 162.99999999999997L519.5292643839999 167.99999999999997L645.8825259839999 167.99999999999997L645.8825259839999 162.99999999999997Z">
</path>
<path stroke-width="0.3" fill="#000000" stroke="none" stroke-dasharray="none" d="M519.5292643839999 170.49999999999997L519.5292643839999 175.49999999999997L645.8825259839999 175.49999999999997L645.8825259839999 170.49999999999997Z">
</path>
<path stroke-width="1.5" fill="none" stroke="#000000" stroke-dasharray="none" d="M704.6596643839998 197.99999999999997L704.6596643839998 163.74999999999997">
</path>
<path stroke-width="1.5" fill="none" stroke="#000000" stroke-dasharray="none" d="M737.8227259839998 197.99999999999997L737.8227259839998 163.74999999999997">
</path>
<path stroke-width="1.5" fill="none" stroke="#000000" stroke-dasharray="none" d="M796.8498643839998 197.99999999999997L796.8498643839998 163.74999999999997">
</path>
<path stroke-width="1.5" fill="none" stroke="#000000" stroke-dasharray="none" d="M830.0129259839998 197.99999999999997L830.0129259839998 163.74999999999997">
</path>
<path stroke-width="0.3" fill="#000000" stroke="none" stroke-dasharray="none" d="M703.9096643839998 162.99999999999997L703.9096643839998 167.99999999999997L830.2629259839998 167.99999999999997L830.2629259839998 162.99999999999997Z">
</path>
<path stroke-width="0.3" fill="#000000" stroke="none" stroke-dasharray="none" d="M703.9096643839998 170.49999999999997L703.9096643839998 175.49999999999997L830.2629259839998 175.49999999999997L830.2629259839998 170.49999999999997Z">
</path>
<path stroke-width="1.5" fill="none" stroke="#000000" stroke-dasharray="none" d="M889.0400643839997 197.99999999999997L889.0400643839997 163.74999999999997">
</path>
<path stroke-width="1.5" fill="none" stroke="#000000" stroke-dasharray="none" d="M922.2031259839997 197.99999999999997L922.2031259839997 163.74999999999997">
</path>
<path stroke-width="1.5" fill="none" stroke="#000000" stroke-dasharray="none" d="M981.2302643839997 197.99999999999997L981.2302643839997 163.74999999999997">
</path>
<path stroke-width="1.5" fill="none" stroke="#000000" stroke-dasharray="none" d="M1014.3933259839997 197.99999999999997L1014.3933259839997 163.74999999999997">
</path>
<path stroke-width="0.3" fill="#000000" stroke="none" stroke-dasharray="none" d="M888.2900643839997 162.99999999999997L888.2900643839997 167.99999999999997L1014.6433259839997 167.99999999999997L1014.6433259839997 162.99999999999997Z">
</path>
<path stroke-width="0.3" fill="#000000" stroke="none" stroke-dasharray="none" d="M888.2900643839997 170.49999999999997L888.2900643839997 175.49999999999997L1014.6433259839997 175.49999999999997L1014.6433259839997 170.49999999999997Z">
</path>
<path stroke-width="1.5" fill="none" stroke="#000000" stroke-dasharray="none" d="M1073.4204643839998 197.99999999999997L1073.4204643839998 163.74999999999997">
</path>
<path stroke-width="1.5" fill="none" stroke="#000000" stroke-dasharray="none" d="M1106.5835259839998 197.99999999999997L1106.5835259839998 163.74999999999997">
</path>
<path stroke-width="1.5" fill="none" stroke="#000000" stroke-dasharray="none" d="M1165.6106643839998 197.99999999999997L1165.6106643839998 163.74999999999997">
</path>
<path stroke-width="1.5" fill="none" stroke="#000000" stroke-dasharray="none" d="M1198.7737259839998 197.99999999999997L1198.7737259839998 163.74999999999997">
</path>
<path stroke-width="0.3" fill="#000000" stroke="none" stroke-dasharray="none" d="M1072.6704643839998 162.99999999999997L1072.6704643839998 167.99999999999997L1199.0237259839998 167.99999999999997L1199.0237259839998 162.99999999999997Z">
</path>
<path stroke-width="0.3" fill="#000000" stroke="none" stroke-dasharray="none" d="M1072.6704643839998 170.49999999999997L1072.6704643839998 175.49999999999997L1199.0237259839998 175.49999999999997L1199.0237259839998 170.49999999999997Z">
</path>
</svg>