<svg width="1536" height="331.99999999999994" viewBox="0 0 1536 331.99999999999994">
<path stroke-width="1" fill="none" stroke="black" stroke-dasharray="none" d="M50 197.99999999999997L514.2250503679999 197.99999999999997">
</path>
<rect stroke-width="0.3" fill="black" stroke="black" stroke-dasharray="none" x="514.2250503679999" y="177.49999999999997" width="1" height="41">
</rect>
<path stroke-width="0.3" fill="black" stroke="none" stroke-dasharray="none" d="M55 197.99999999999997M55 197.99999999999997L55 188.00639999999999L57.1888 188.00639999999999L59.4064 188.00639999999999L59.4064 197.99999999999997L59.4064 208.02239999999998L57.1888 208.02239999999998L55 208.02239999999998L55 197.99999999999997M63.870400000000004 198.02879999999996L63.870400000000004 188.00639999999999L66.1168 188.00639999999999L68.3632 188.00639999999999L68.3632 198.02879999999996L68.3632 208.02239999999998L66.1168 208.02239999999998L63.870400000000004 208.02239999999998L63.870400000000004 198.02879999999996">
</path>
<path stroke-width="0.3" fill="black" stroke="none" stroke-dasharray="none" d="M96.1296 197.99999999999997M101.80319999999999 179.33759999999998C101.91839999999999 179.33759999999998,102.11999999999999 179.33759999999998,102.3504 179.33759999999998C102.8112 179.33759999999998,103.416 179.33759999999998,103.56 179.39519999999996C105.72 179.65439999999998,107.448 180.74879999999996,108.1968 182.27519999999998C108.45599999999999 182.79359999999997,108.57119999999999 183.34079999999997,108.57119999999999 183.91679999999997C108.57119999999999 185.32799999999997,107.7936 186.94079999999997,106.38239999999999 188.15039999999996C105.4032 188.98559999999998,104.42399999999999 189.50399999999996,102.8976 189.99359999999996C100.9104 190.62719999999996,99.21119999999999 191.75039999999998,98.1168 193.10399999999998C98.1168 193.10399999999998,98.1168 193.13279999999997,98.1168 193.13279999999997C98.1168 193.13279999999997,98.1168 193.13279999999997,98.1168 193.13279999999997C98.1168 193.13279999999997,98.2032 193.10399999999998,98.26079999999999 193.01759999999996C99.3552 192.12479999999996,100.824 191.60639999999998,102.1488 191.60639999999998C103.2432 191.60639999999998,104.0208 191.80799999999996,105.0576 192.38399999999996C105.6912 192.70079999999996,106.2672 192.84479999999996,106.81439999999999 192.84479999999996C107.0448 192.84479999999996,107.2752 192.84479999999996,107.53439999999999 192.78719999999998C107.9088 192.70079999999996,108.312 192.41279999999998,108.45599999999999 192.18239999999997C108.5424 191.98079999999996,108.68639999999999 191.89439999999996,108.8592 191.89439999999996C109.08959999999999 191.89439999999996,109.32 192.06719999999999,109.32 192.32639999999998C109.32 192.52799999999996,109.0608 193.24799999999996,108.8304 193.7376C107.9088 195.58079999999998,106.29599999999999 196.73279999999997,104.7408 196.73279999999997C104.62559999999999 196.73279999999997,104.5392 196.73279999999997,104.42399999999999 196.70399999999998C104.0208 196.70399999999998,103.848 196.58879999999996,103.3296 196.24319999999997C102.23519999999999 195.52319999999997,100.8528 195.14879999999997,99.6432 195.14879999999997C99.1248 195.14879999999997,98.664 195.20639999999997,98.232 195.37919999999997C97.65599999999999 195.58079999999998,97.1088 195.92639999999997,96.93599999999999 196.18559999999997C96.8496 196.38719999999998,96.70559999999999 196.44479999999996,96.5328 196.44479999999996C96.3888 196.44479999999996,96.2448 196.38719999999998,96.1584 196.21439999999998L96.10079999999999 196.128L96.10079999999999 195.72479999999996C96.10079999999999 195.37919999999997,96.1296 195.26399999999998,96.1296 195.14879999999997C96.1584 195.06239999999997,96.18719999999999 194.88959999999997,96.18719999999999 194.74559999999997C96.70559999999999 192.32639999999998,98.4624 190.16639999999998,100.8528 189.10079999999996C102.8112 188.17919999999998,104.10719999999999 186.53759999999997,104.3376 184.46399999999997C104.39519999999999 184.29119999999998,104.39519999999999 184.14719999999997,104.39519999999999 183.97439999999997C104.39519999999999 182.13119999999998,103.0128 180.86399999999998,101.0544 180.86399999999998C100.9104 180.86399999999998,100.7376 180.86399999999998,100.5936 180.86399999999998C100.3056 180.89279999999997,100.2192 180.89279999999997,100.2192 180.95039999999997C100.2192 180.95039999999997,100.2192 180.97919999999996,100.3056 181.03679999999997C100.96799999999999 181.41119999999998,101.28479999999999 182.13119999999998,101.28479999999999 182.82239999999996C101.28479999999999 183.71519999999998,100.824 184.55039999999997,99.93119999999999 184.89599999999996C99.6432 184.98239999999998,99.3552 185.01119999999997,99.1248 185.01119999999997C97.9152 185.01119999999997,96.9072 183.97439999999997,96.9072 182.73599999999996C96.9072 182.50559999999996,96.9072 182.27519999999998,96.9648 182.01599999999996C97.3968 180.69119999999998,99.4416 179.59679999999997,101.80319999999999 179.33759999999998M102.696 198.02879999999996L102.75359999999999 198.02879999999996L102.6672 198.02879999999996L102.696 198.02879999999996M102.696 178.61759999999998L102.75359999999999 178.61759999999998L102.6672 178.61759999999998L102.696 178.61759999999998">
</path>
<path stroke-width="0.3" fill="black" stroke="none" stroke-dasharray="none" d="M96 217.99999999999997M101.0112 199.65439999999998C101.04 199.62559999999996,101.4432 199.62559999999996,102.6816 199.62559999999996C103.056 199.62559999999996,103.4592 199.62559999999996,103.9776 199.62559999999996L106.8864 199.62559999999996L106.9728 199.71199999999996C107.1168 199.79839999999996,107.2032 199.94239999999996,107.2032 200.05759999999998C107.2032 200.23039999999997,107.1168 200.34559999999996,107.0016 200.46079999999998C106.9728 200.54719999999998,106.7136 200.77759999999998,106.5408 201.03679999999997L105.0144 202.79359999999997L103.056 205.01119999999997L102.0192 206.19199999999998L100.464 207.97759999999997L98.4192 210.31039999999996C98.0736 210.74239999999998,97.6992 211.08799999999997,97.6992 211.08799999999997C97.6992 211.08799999999997,97.6992 211.08799999999997,97.6992 211.08799999999997C97.6992 211.14559999999997,97.9584 211.14559999999997,100.3488 211.14559999999997L102.9696 211.14559999999997L102.9696 209.27359999999996C102.9696 207.37279999999998,102.9696 207.34399999999997,102.9984 207.31519999999998C103.056 207.22879999999998,103.3152 206.91199999999998,104.3232 205.73119999999997L104.7264 205.29919999999998L105.1296 204.86719999999997L105.7344 204.08959999999996L106.368 203.42719999999997L106.6848 203.02399999999997C106.8 202.85119999999998,106.9728 202.82239999999996,107.1168 202.82239999999996C107.28960000000001 202.82239999999996,107.4336 202.90879999999999,107.52 203.05279999999996C107.5488 203.13919999999996,107.5488 203.19679999999997,107.5488 205.32799999999997C107.5488 205.81759999999997,107.5488 206.42239999999998,107.5488 207.14239999999998L107.5488 211.14559999999997L108.2688 211.14559999999997C108.9312 211.14559999999997,108.96 211.14559999999997,109.0464 211.17439999999996C109.2768 211.26079999999996,109.392 211.49119999999996,109.392 211.75039999999998C109.392 211.89439999999996,109.3632 212.06719999999999,109.248 212.18239999999997C109.0752 212.32639999999998,109.0464 212.32639999999998,108.2688 212.32639999999998L107.5488 212.32639999999998L107.5488 212.81599999999997C107.5776 214.28479999999996,107.8656 214.86079999999998,108.9888 215.46559999999997C109.392 215.66719999999998,109.4784 215.72479999999996,109.4784 216.01279999999997C109.4784 216.21439999999998,109.4208 216.30079999999998,109.2768 216.41599999999997L109.1904 216.44479999999996L105.2448 216.44479999999996L101.328 216.44479999999996L101.2416 216.41599999999997C101.0688 216.30079999999998,101.04 216.21439999999998,101.04 216.01279999999997C101.04 215.72479999999996,101.0688 215.66719999999998,101.5008 215.46559999999997C102.624 214.86079999999998,102.912 214.28479999999996,102.912 212.81599999999997L102.912 212.32639999999998L99.6 212.32639999999998C98.9952 212.38399999999996,98.5056 212.38399999999996,98.1024 212.38399999999996C96.288 212.38399999999996,96.2592 212.32639999999998,96.2304 212.32639999999998C96.0576 212.26879999999997,96 212.09599999999998,96 211.89439999999996C96 211.89439999999996,96 211.89439999999996,96 211.89439999999996C96 211.69279999999998,96 211.69279999999998,96.576 211.0304C98.9952 208.09279999999998,100.6944 203.83039999999997,100.6944 200.43199999999996C100.6944 199.91359999999997,100.7808 199.74079999999998,101.0112 199.65439999999998M102.7392 218.02879999999996L102.768 218.02879999999996L102.6816 218.02879999999996L102.7392 218.02879999999996M102.7392 198.61759999999998L102.768 198.61759999999998L102.6816 198.61759999999998L102.7392 198.61759999999998">
</path>
<g class="vf-stavenote" id="vf-auto83705">
<g class="vf-note" pointer-events="bounding-box">
<g class="vf-notehead" pointer-events="bounding-box">
<path stroke-width="0.3" fill="#000000" stroke="none" stroke-dasharray="none" d="M147.3424768 197.99999999999997M154.69943679999997 192.77711999999997C154.81175679999998 192.77711999999997,154.9802368 192.77711999999997,155.0083168 192.77711999999997C155.0083168 192.77711999999997,155.03639679999998 192.77711999999997,155.03639679999998 192.77711999999997C155.03639679999998 192.77711999999997,155.2048768 192.77711999999997,155.3452768 192.77711999999997C157.8724768 192.91751999999997,159.36071679999998 194.57423999999997,159.36071679999998 196.65215999999998C159.36071679999998 197.66303999999997,159.0237568 198.81431999999998,158.18135679999997 199.90943999999996C156.58079679999997 202.07159999999996,153.96935679999999 203.25095999999996,151.69487679999997 203.25095999999996C149.92583679999998 203.25095999999996,148.40951679999998 202.54895999999997,147.6794368 201.11687999999998C147.4547968 200.55527999999998,147.3424768 200.02175999999997,147.3424768 199.43207999999998C147.3424768 196.37135999999998,150.76823679999998 192.97367999999997,154.69943679999997 192.77711999999997">
</path>
</g>
</g>
<g class="vf-modifiers">
<g class="vf-stavenote" id="vf-auto83715">
<g class="vf-note" pointer-events="bounding-box">
<g class="vf-stem" pointer-events="bounding-box">
<path stroke-width="1.5" fill="none" stroke="#000000" stroke-dasharray="none" d="M128.6604384 197.99999999999997L128.6604384 174.89999999999998">
</path>
</g>
<g class="vf-notehead" pointer-events="bounding-box">
<path stroke-width="0.3" fill="#000000" stroke="none" stroke-dasharray="none" d="M121.4784 197.99999999999997M126.3339936 194.55289919999998C126.4081248 194.55289919999998,126.5193216 194.55289919999998,126.5378544 194.55289919999998C126.5378544 194.55289919999998,126.55638719999999 194.55289919999998,126.55638719999999 194.55289919999998C126.55638719999999 194.55289919999998,126.66758399999999 194.55289919999998,126.76024799999999 194.55289919999998C128.4282 194.64556319999997,129.4104384 195.73899839999996,129.4104384 197.11042559999999C129.4104384 197.77760639999997,129.1880448 198.53745119999996,128.6320608 199.26023039999998C127.5756912 200.68725599999996,125.8521408 201.46563359999996,124.350984 201.46563359999996C123.1834176 201.46563359999996,122.1826464 201.00231359999998,121.7007936 200.05714079999998C121.55253119999999 199.68648479999996,121.4784 199.33436159999997,121.4784 198.94517279999997C121.4784 196.92509759999996,123.7394016 194.68262879999997,126.3339936 194.55289919999998">
</path>
</g>
<g class="vf-flag" pointer-events="bounding-box">
<path stroke-width="0.3" fill="#000000" stroke="none" stroke-dasharray="none" d="M128.6604384 172.89999999999998M128.2156512 175.88378079999998L128.2156512 172.992664L128.2897824 172.992664C128.4936432 172.992664,128.6233728 173.12239359999998,128.6604384 173.34478719999998C129.0496272 175.19806719999997,130.2171936 177.21814239999998,131.8295472 178.73783199999997C133.6272288 180.42431679999999,134.535336 182.74091679999998,134.535336 185.13164799999998C134.535336 187.39264959999997,133.7384256 189.74631519999997,132.126072 191.69225919999997C131.84808 192.06291519999996,131.8295472 192.06291519999996,131.6442192 192.06291519999996C131.4218256 192.06291519999996,131.2735632 191.89611999999997,131.2735632 191.67372639999996C131.2735632 191.50693119999997,131.29209600000002 191.4698656,131.477424 191.2660048C132.88591680000002 189.56098719999997,133.5901632 187.5038464,133.5901632 185.5393696C133.5901632 183.7972864,133.0341792 182.12933439999998,131.88514560000002 180.86910399999996C131.1808992 180.09072639999997,129.8836032 179.34941439999997,128.234184 178.77489759999997C128.234184 178.75636479999997,128.2156512 178.18184799999997,128.2156512 175.88378079999998">
</path>
</g>
</g>
<g class="vf-modifiers">
</g>
</g>
<path stroke-width="1" fill="none" stroke="#000000" stroke-dasharray="none" d="M122.4784 189.74999999999997L135.4784 180.74999999999997Z">
</path>
</g>
</g>
<g class="vf-stavenote" id="vf-auto83729">
<g class="vf-note" pointer-events="bounding-box">
<g class="vf-notehead" pointer-events="bounding-box">
<path stroke-width="0.3" fill="#000000" stroke="none" stroke-dasharray="none" d="M183.72563839999998 197.99999999999997M191.08259839999997 192.77711999999997C191.19491839999998 192.77711999999997,191.3633984 192.77711999999997,191.39147839999998 192.77711999999997C191.39147839999998 192.77711999999997,191.41955839999997 192.77711999999997,191.41955839999997 192.77711999999997C191.41955839999997 192.77711999999997,191.5880384 192.77711999999997,191.7284384 192.77711999999997C194.25563839999998 192.91751999999997,195.74387839999997 194.57423999999997,195.74387839999997 196.65215999999998C195.74387839999997 197.66303999999997,195.4069184 198.81431999999998,194.56451839999997 199.90943999999996C192.96395839999997 202.07159999999996,190.35251839999998 203.25095999999996,188.07803839999997 203.25095999999996C186.30899839999998 203.25095999999996,184.79267839999997 202.54895999999997,184.06259839999998 201.11687999999998C183.8379584 200.55527999999998,183.72563839999998 200.02175999999997,183.72563839999998 199.43207999999998C183.72563839999998 196.37135999999998,187.15139839999998 192.97367999999997,191.08259839999997 192.77711999999997">
</path>
</g>
</g>
<g class="vf-modifiers">
</g>
</g>
<g class="vf-stavenote" id="vf-auto83739">
<g class="vf-note" pointer-events="bounding-box">
<g class="vf-notehead" pointer-events="bounding-box">
<path stroke-width="0.3" fill="#000000" stroke="none" stroke-dasharray="none" d="M245.9728768 197.99999999999997M253.32983679999998 192.77711999999997C253.4421568 192.77711999999997,253.6106368 192.77711999999997,253.6387168 192.77711999999997C253.6387168 192.77711999999997,253.6667968 192.77711999999997,253.6667968 192.77711999999997C253.6667968 192.77711999999997,253.8352768 192.77711999999997,253.9756768 192.77711999999997C256.50287679999997 192.91751999999997,257.9911168 194.57423999999997,257.9911168 196.65215999999998C257.9911168 197.66303999999997,257.6541568 198.81431999999998,256.8117568 199.90943999999996C255.21119679999998 202.07159999999996,252.5997568 203.25095999999996,250.32527679999998 203.25095999999996C248.5562368 203.25095999999996,247.0399168 202.54895999999997,246.3098368 201.11687999999998C246.0851968 200.55527999999998,245.9728768 200.02175999999997,245.9728768 199.43207999999998C245.9728768 196.37135999999998,249.3986368 192.97367999999997,253.32983679999998 192.77711999999997">
</path>
</g>
</g>
<g class="vf-modifiers">
<g class="vf-stavenote" id="vf-auto83749">
<g class="vf-note" pointer-events="bounding-box">
<g class="vf-stem" pointer-events="bounding-box">
<path stroke-width="1.5" fill="none" stroke="#000000" stroke-dasharray="none" d="M227.2908384 197.99999999999997L227.2908384 174.89999999999998">
</path>
</g>
<g class="vf-notehead" pointer-events="bounding-box">
<path stroke-width="0.3" fill="#000000" stroke="none" stroke-dasharray="none" d="M220.1088 197.99999999999997M224.9643936 194.55289919999998C225.0385248 194.55289919999998,225.1497216 194.55289919999998,225.1682544 194.55289919999998C225.1682544 194.55289919999998,225.1867872 194.55289919999998,225.1867872 194.55289919999998C225.1867872 194.55289919999998,225.297984 194.55289919999998,225.390648 194.55289919999998C227.0586 194.64556319999997,228.0408384 195.73899839999996,228.0408384 197.11042559999999C228.0408384 197.77760639999997,227.8184448 198.53745119999996,227.2624608 199.26023039999998C226.2060912 200.68725599999996,224.4825408 201.46563359999996,222.981384 201.46563359999996C221.8138176 201.46563359999996,220.8130464 201.00231359999998,220.3311936 200.05714079999998C220.1829312 199.68648479999996,220.1088 199.33436159999997,220.1088 198.94517279999997C220.1088 196.92509759999996,222.36980160000002 194.68262879999997,224.9643936 194.55289919999998">
</path>
</g>
<g class="vf-flag" pointer-events="bounding-box">
<path stroke-width="0.3" fill="#000000" stroke="none" stroke-dasharray="none" d="M227.2908384 172.89999999999998M226.8460512 175.88378079999998L226.8460512 172.992664L226.92018240000002 172.992664C227.12404320000002 172.992664,227.2537728 173.12239359999998,227.2908384 173.34478719999998C227.6800272 175.19806719999997,228.8475936 177.21814239999998,230.45994720000002 178.73783199999997C232.25762880000002 180.42431679999999,233.165736 182.74091679999998,233.165736 185.13164799999998C233.165736 187.39264959999997,232.3688256 189.74631519999997,230.756472 191.69225919999997C230.47848000000002 192.06291519999996,230.45994720000002 192.06291519999996,230.27461920000002 192.06291519999996C230.0522256 192.06291519999996,229.90396320000002 191.89611999999997,229.90396320000002 191.67372639999996C229.90396320000002 191.50693119999997,229.92249600000002 191.4698656,230.10782400000002 191.2660048C231.51631680000003 189.56098719999997,232.22056320000002 187.5038464,232.22056320000002 185.5393696C232.22056320000002 183.7972864,231.66457920000002 182.12933439999998,230.51554560000002 180.86910399999996C229.8112992 180.09072639999997,228.51400320000002 179.34941439999997,226.864584 178.77489759999997C226.864584 178.75636479999997,226.8460512 178.18184799999997,226.8460512 175.88378079999998">
</path>
</g>
</g>
<g class="vf-modifiers">
</g>
</g>
<path stroke-width="1" fill="none" stroke="#000000" stroke-dasharray="none" d="M221.1088 189.74999999999997L234.1088 180.74999999999997Z">
</path>
</g>
</g>
<g class="vf-stavenote" id="vf-auto83763">
<g class="vf-note" pointer-events="bounding-box">
<g class="vf-notehead" pointer-events="bounding-box">
<path stroke-width="0.3" fill="#000000" stroke="none" stroke-dasharray="none" d="M282.3560384 197.99999999999997M289.7129984 192.77711999999997C289.8253184 192.77711999999997,289.9937984 192.77711999999997,290.0218784 192.77711999999997C290.0218784 192.77711999999997,290.0499584 192.77711999999997,290.0499584 192.77711999999997C290.0499584 192.77711999999997,290.21843839999997 192.77711999999997,290.35883839999997 192.77711999999997C292.88603839999996 192.91751999999997,294.3742784 194.57423999999997,294.3742784 196.65215999999998C294.3742784 197.66303999999997,294.0373184 198.81431999999998,293.1949184 199.90943999999996C291.5943584 202.07159999999996,288.9829184 203.25095999999996,286.7084384 203.25095999999996C284.9393984 203.25095999999996,283.4230784 202.54895999999997,282.69299839999996 201.11687999999998C282.4683584 200.55527999999998,282.3560384 200.02175999999997,282.3560384 199.43207999999998C282.3560384 196.37135999999998,285.7817984 192.97367999999997,289.7129984 192.77711999999997">
</path>
</g>
</g>
<g class="vf-modifiers">
</g>
</g>
<g class="vf-stavenote" id="vf-auto83773">
<g class="vf-note" pointer-events="bounding-box">
<g class="vf-notehead" pointer-events="bounding-box">
<path stroke-width="0.3" fill="#000000" stroke="none" stroke-dasharray="none" d="M344.6032768 197.99999999999997M351.9602368 192.77711999999997C352.07255680000003 192.77711999999997,352.2410368 192.77711999999997,352.2691168 192.77711999999997C352.2691168 192.77711999999997,352.2971968 192.77711999999997,352.2971968 192.77711999999997C352.2971968 192.77711999999997,352.4656768 192.77711999999997,352.6060768 192.77711999999997C355.1332768 192.91751999999997,356.6215168 194.57423999999997,356.6215168 196.65215999999998C356.6215168 197.66303999999997,356.2845568 198.81431999999998,355.4421568 199.90943999999996C353.8415968 202.07159999999996,351.23015680000003 203.25095999999996,348.9556768 203.25095999999996C347.18663680000003 203.25095999999996,345.6703168 202.54895999999997,344.9402368 201.11687999999998C344.7155968 200.55527999999998,344.6032768 200.02175999999997,344.6032768 199.43207999999998C344.6032768 196.37135999999998,348.02903680000003 192.97367999999997,351.9602368 192.77711999999997">
</path>
</g>
</g>
<g class="vf-modifiers">
<g class="vf-stavenote" id="vf-auto83783">
<g class="vf-note" pointer-events="bounding-box">
<g class="vf-stem" pointer-events="bounding-box">
<path stroke-width="1.5" fill="none" stroke="#000000" stroke-dasharray="none" d="M325.9212384 197.99999999999997L325.9212384 174.89999999999998">
</path>
</g>
<g class="vf-notehead" pointer-events="bounding-box">
<path stroke-width="0.3" fill="#000000" stroke="none" stroke-dasharray="none" d="M318.7392 197.99999999999997M323.5947936 194.55289919999998C323.66892479999996 194.55289919999998,323.7801216 194.55289919999998,323.7986544 194.55289919999998C323.7986544 194.55289919999998,323.8171872 194.55289919999998,323.8171872 194.55289919999998C323.8171872 194.55289919999998,323.928384 194.55289919999998,324.021048 194.55289919999998C325.68899999999996 194.64556319999997,326.6712384 195.73899839999996,326.6712384 197.11042559999999C326.6712384 197.77760639999997,326.44884479999996 198.53745119999996,325.8928608 199.26023039999998C324.83649119999995 200.68725599999996,323.1129408 201.46563359999996,321.611784 201.46563359999996C320.4442176 201.46563359999996,319.44344639999997 201.00231359999998,318.96159359999996 200.05714079999998C318.8133312 199.68648479999996,318.7392 199.33436159999997,318.7392 198.94517279999997C318.7392 196.92509759999996,321.00020159999997 194.68262879999997,323.5947936 194.55289919999998">
</path>
</g>
<g class="vf-flag" pointer-events="bounding-box">
<path stroke-width="0.3" fill="#000000" stroke="none" stroke-dasharray="none" d="M325.9212384 172.89999999999998M325.4764512 175.88378079999998L325.4764512 172.992664L325.5505824 172.992664C325.75444319999997 172.992664,325.8841728 173.12239359999998,325.9212384 173.34478719999998C326.3104272 175.19806719999997,327.4779936 177.21814239999998,329.0903472 178.73783199999997C330.8880288 180.42431679999999,331.796136 182.74091679999998,331.796136 185.13164799999998C331.796136 187.39264959999997,330.9992256 189.74631519999997,329.386872 191.69225919999997C329.10888 192.06291519999996,329.0903472 192.06291519999996,328.90501919999997 192.06291519999996C328.6826256 192.06291519999996,328.5343632 191.89611999999997,328.5343632 191.67372639999996C328.5343632 191.50693119999997,328.552896 191.4698656,328.738224 191.2660048C330.1467168 189.56098719999997,330.85096319999997 187.5038464,330.85096319999997 185.5393696C330.85096319999997 183.7972864,330.2949792 182.12933439999998,329.1459456 180.86910399999996C328.4416992 180.09072639999997,327.1444032 179.34941439999997,325.494984 178.77489759999997C325.494984 178.75636479999997,325.4764512 178.18184799999997,325.4764512 175.88378079999998">
</path>
</g>
</g>
<g class="vf-modifiers">
</g>
</g>
<path stroke-width="1" fill="none" stroke="#000000" stroke-dasharray="none" d="M319.7392 189.74999999999997L332.7392 180.74999999999997Z">
</path>
</g>
</g>
<g class="vf-stavenote" id="vf-auto83797">
<g class="vf-note" pointer-events="bounding-box">
<g class="vf-notehead" pointer-events="bounding-box">
<path stroke-width="0.3" fill="#000000" stroke="none" stroke-dasharray="none" d="M380.9864384 197.99999999999997M388.3433984 192.77711999999997C388.4557184 192.77711999999997,388.6241984 192.77711999999997,388.6522784 192.77711999999997C388.6522784 192.77711999999997,388.6803584 192.77711999999997,388.6803584 192.77711999999997C388.6803584 192.77711999999997,388.8488384 192.77711999999997,388.9892384 192.77711999999997C391.51643839999997 192.91751999999997,393.0046784 194.57423999999997,393.0046784 196.65215999999998C393.0046784 197.66303999999997,392.6677184 198.81431999999998,391.8253184 199.90943999999996C390.2247584 202.07159999999996,387.6133184 203.25095999999996,385.3388384 203.25095999999996C383.5697984 203.25095999999996,382.0534784 202.54895999999997,381.3233984 201.11687999999998C381.0987584 200.55527999999998,380.9864384 200.02175999999997,380.9864384 199.43207999999998C380.9864384 196.37135999999998,384.4121984 192.97367999999997,388.3433984 192.77711999999997">
</path>
</g>
</g>
<g class="vf-modifiers">
</g>
</g>
<g class="vf-stavenote" id="vf-auto83807">
<g class="vf-note" pointer-events="bounding-box">
<g class="vf-notehead" pointer-events="bounding-box">
<path stroke-width="0.3" fill="#000000" stroke="none" stroke-dasharray="none" d="M443.2336768 197.99999999999997M450.5906368 192.77711999999997C450.70295680000004 192.77711999999997,450.8714368 192.77711999999997,450.8995168 192.77711999999997C450.8995168 192.77711999999997,450.9275968 192.77711999999997,450.9275968 192.77711999999997C450.9275968 192.77711999999997,451.0960768 192.77711999999997,451.2364768 192.77711999999997C453.7636768 192.91751999999997,455.2519168 194.57423999999997,455.2519168 196.65215999999998C455.2519168 197.66303999999997,454.9149568 198.81431999999998,454.07255680000003 199.90943999999996C452.4719968 202.07159999999996,449.86055680000004 203.25095999999996,447.5860768 203.25095999999996C445.81703680000004 203.25095999999996,444.30071680000003 202.54895999999997,443.5706368 201.11687999999998C443.3459968 200.55527999999998,443.2336768 200.02175999999997,443.2336768 199.43207999999998C443.2336768 196.37135999999998,446.65943680000004 192.97367999999997,450.5906368 192.77711999999997">
</path>
</g>
</g>
<g class="vf-modifiers">
<g class="vf-stavenote" id="vf-auto83817">
<g class="vf-note" pointer-events="bounding-box">
<g class="vf-stem" pointer-events="bounding-box">
<path stroke-width="1.5" fill="none" stroke="#000000" stroke-dasharray="none" d="M424.5516384 197.99999999999997L424.5516384 174.89999999999998">
</path>
</g>
<g class="vf-notehead" pointer-events="bounding-box">
<path stroke-width="0.3" fill="#000000" stroke="none" stroke-dasharray="none" d="M417.3696 197.99999999999997M422.2251936 194.55289919999998C422.29932479999997 194.55289919999998,422.4105216 194.55289919999998,422.4290544 194.55289919999998C422.4290544 194.55289919999998,422.4475872 194.55289919999998,422.4475872 194.55289919999998C422.4475872 194.55289919999998,422.558784 194.55289919999998,422.651448 194.55289919999998C424.3194 194.64556319999997,425.3016384 195.73899839999996,425.3016384 197.11042559999999C425.3016384 197.77760639999997,425.07924479999997 198.53745119999996,424.5232608 199.26023039999998C423.46689119999996 200.68725599999996,421.7433408 201.46563359999996,420.242184 201.46563359999996C419.0746176 201.46563359999996,418.0738464 201.00231359999998,417.59199359999997 200.05714079999998C417.4437312 199.68648479999996,417.3696 199.33436159999997,417.3696 198.94517279999997C417.3696 196.92509759999996,419.6306016 194.68262879999997,422.2251936 194.55289919999998">
</path>
</g>
<g class="vf-flag" pointer-events="bounding-box">
<path stroke-width="0.3" fill="#000000" stroke="none" stroke-dasharray="none" d="M424.5516384 172.89999999999998M424.1068512 175.88378079999998L424.1068512 172.992664L424.1809824 172.992664C424.3848432 172.992664,424.5145728 173.12239359999998,424.5516384 173.34478719999998C424.9408272 175.19806719999997,426.1083936 177.21814239999998,427.7207472 178.73783199999997C429.5184288 180.42431679999999,430.426536 182.74091679999998,430.426536 185.13164799999998C430.426536 187.39264959999997,429.6296256 189.74631519999997,428.017272 191.69225919999997C427.73928 192.06291519999996,427.7207472 192.06291519999996,427.5354192 192.06291519999996C427.3130256 192.06291519999996,427.1647632 191.89611999999997,427.1647632 191.67372639999996C427.1647632 191.50693119999997,427.183296 191.4698656,427.368624 191.2660048C428.7771168 189.56098719999997,429.4813632 187.5038464,429.4813632 185.5393696C429.4813632 183.7972864,428.9253792 182.12933439999998,427.7763456 180.86910399999996C427.0720992 180.09072639999997,425.7748032 179.34941439999997,424.125384 178.77489759999997C424.125384 178.75636479999997,424.1068512 178.18184799999997,424.1068512 175.88378079999998">
</path>
</g>
</g>
<g class="vf-modifiers">
</g>
</g>
<path stroke-width="1" fill="none" stroke="#000000" stroke-dasharray="none" d="M418.3696 189.74999999999997L431.3696 180.74999999999997Z">
</path>
</g>
</g>
<g class="vf-stavenote" id="vf-auto83831">
<g class="vf-note" pointer-events="bounding-box">
<g class="vf-notehead" pointer-events="bounding-box">
<path stroke-width="0.3" fill="#000000" stroke="none" stroke-dasharray="none" d="M479.6168384 197.99999999999997M486.9737984 192.77711999999997C487.08611840000003 192.77711999999997,487.2545984 192.77711999999997,487.2826784 192.77711999999997C487.2826784 192.77711999999997,487.3107584 192.77711999999997,487.3107584 192.77711999999997C487.3107584 192.77711999999997,487.4792384 192.77711999999997,487.6196384 192.77711999999997C490.1468384 192.91751999999997,491.6350784 194.57423999999997,491.6350784 196.65215999999998C491.6350784 197.66303999999997,491.2981184 198.81431999999998,490.4557184 199.90943999999996C488.8551584 202.07159999999996,486.24371840000003 203.25095999999996,483.9692384 203.25095999999996C482.20019840000003 203.25095999999996,480.6838784 202.54895999999997,479.9537984 201.11687999999998C479.7291584 200.55527999999998,479.6168384 200.02175999999997,479.6168384 199.43207999999998C479.6168384 196.37135999999998,483.04259840000003 192.97367999999997,486.9737984 192.77711999999997">
</path>
</g>
</g>
<g class="vf-modifiers">
</g>
</g>
<path stroke-width="1.5" fill="none" stroke="#000000" stroke-dasharray="none" d="M158.61071679999998 197.99999999999997L158.61071679999998 163.74999999999997">
</path>
<path stroke-width="1.5" fill="none" stroke="#000000" stroke-dasharray="none" d="M194.99387839999997 197.99999999999997L194.99387839999997 163.74999999999997">
</path>
<path stroke-width="1.5" fill="none" stroke="#000000" stroke-dasharray="none" d="M257.2411168 197.99999999999997L257.2411168 163.74999999999997">
</path>
<path stroke-width="1.5" fill="none" stroke="#000000" stroke-dasharray="none" d="M293.6242784 197.99999999999997L293.6242784 163.74999999999997">
</path>
<path stroke-width="0.3" fill="#000000" stroke="none" stroke-dasharray="none" d="M157.86071679999998 162.99999999999997L157.86071679999998 167.99999999999997L293.8742784 167.99999999999997L293.8742784 162.99999999999997Z">
</path>
<path stroke-width="0.3" fill="#000000" stroke="none" stroke-dasharray="none" d="M157.86071679999998 170.49999999999997L157.86071679999998 175.49999999999997L293.8742784 175.49999999999997L293.8742784 170.49999999999997Z">
</path>
<path stroke-width="1.5" fill="none" stroke="#000000" stroke-dasharray="none" d="M355.8715168 197.99999999999997L355.8715168 163.74999999999997">
</path>
<path stroke-width="1.5" fill="none" stroke="#000000" stroke-dasharray="none" d="M392.2546784 197.99999999999997L392.2546784 163.74999999999997">
</path>
<path stroke-width="1.5" fill="none" stroke="#000000" stroke-dasharray="none" d="M454.5019168 197.99999999999997L454.5019168 163.74999999999997">
</path>
<path stroke-width="1.5" fill="none" stroke="#000000" stroke-dasharray="none" d="M490.8850784 197.99999999999997L490.8850784 163.74999999999997">
</path>
<path stroke-width="0.3" fill="#000000" stroke="none" stroke-dasharray="none" d="M355.1215168 162.99999999999997L355.1215168 167.99999999999997L491.1350784 167.99999999999997L491.1350784 162.99999999999997Z">
</path>
<path stroke-width="0.3" fill="#000000" stroke="none" stroke-dasharray="none" d="M355.1215168 170.49999999999997L355.1215168 175.49999999999997L491.1350784 175.49999999999997L491.1350784 170.49999999999997Z">
</path>
<path stroke-width="1" fill="none" stroke="black" stroke-dasharray="none" d="M514.2250503679999 197.99999999999997L1157.5837455359997 197.99999999999997">
</path>
<rect stroke-width="0.3" fill="black" stroke="black" stroke-dasharray="none" x="1152.5837455359997" y="177.49999999999997" width="1" height="41">
</rect>
<rect stroke-width="0.3" fill="black" stroke="black" stroke-dasharray="none" x="1155.5837455359997" y="177.49999999999997" width="3" height="41">
</rect>
<path stroke-width="0.3" fill="black" stroke="none" stroke-dasharray="none" d="M1151.5837455359997 193.49999999999997 A2 2 0 0 0 1147.5837455359997 193.49999999999997M1147.5837455359997 193.49999999999997 A2 2 0 0 0 1151.5837455359997 193.49999999999997">
</path>
<path stroke-width="0.3" fill="black" stroke="none" stroke-dasharray="none" d="M1151.5837455359997 203.49999999999997 A2 2 0 0 0 1147.5837455359997 203.49999999999997M1147.5837455359997 203.49999999999997 A2 2 0 0 0 1151.5837455359997 203.49999999999997">
</path>
<path stroke-width="0.3" fill="black" stroke="none" stroke-dasharray="none" d="M519.2250503679999 197.99999999999997M524.2362503679999 179.65439999999998C524.2650503679998 179.62559999999996,524.6682503679999 179.62559999999996,525.9066503679999 179.62559999999996C526.2810503679999 179.62559999999996,526.6842503679999 179.62559999999996,527.2026503679999 179.62559999999996L530.1114503679999 179.62559999999996L530.1978503679999 179.71199999999996C530.3418503679999 179.79839999999996,530.4282503679999 179.94239999999996,530.4282503679999 180.05759999999998C530.4282503679999 180.23039999999997,530.3418503679999 180.34559999999996,530.2266503679999 180.46079999999998C530.1978503679999 180.54719999999998,529.9386503679999 180.77759999999998,529.7658503679999 181.03679999999997L528.2394503679999 182.79359999999997L526.2810503679999 185.01119999999997L525.2442503679998 186.19199999999998L523.6890503679999 187.97759999999997L521.6442503679999 190.31039999999996C521.2986503679999 190.74239999999998,520.9242503679999 191.08799999999997,520.9242503679999 191.08799999999997C520.9242503679999 191.08799999999997,520.9242503679999 191.08799999999997,520.9242503679999 191.08799999999997C520.9242503679999 191.14559999999997,521.1834503679999 191.14559999999997,523.5738503679999 191.14559999999997L526.1946503679999 191.14559999999997L526.1946503679999 189.27359999999996C526.1946503679999 187.37279999999998,526.1946503679999 187.34399999999997,526.2234503679998 187.31519999999998C526.2810503679999 187.22879999999998,526.5402503679999 186.91199999999998,527.5482503679999 185.73119999999997L527.9514503679999 185.29919999999998L528.3546503679999 184.86719999999997L528.9594503679999 184.08959999999996L529.5930503679999 183.42719999999997L529.9098503679999 183.02399999999997C530.0250503679998 182.85119999999998,530.1978503679999 182.82239999999996,530.3418503679999 182.82239999999996C530.5146503679998 182.82239999999996,530.6586503679998 182.90879999999999,530.7450503679999 183.05279999999996C530.7738503679999 183.13919999999996,530.7738503679999 183.19679999999997,530.7738503679999 185.32799999999997C530.7738503679999 185.81759999999997,530.7738503679999 186.42239999999998,530.7738503679999 187.14239999999998L530.7738503679999 191.14559999999997L531.4938503679998 191.14559999999997C532.1562503679999 191.14559999999997,532.1850503679999 191.14559999999997,532.2714503679998 191.17439999999996C532.5018503679999 191.26079999999996,532.6170503679999 191.49119999999996,532.6170503679999 191.75039999999998C532.6170503679999 191.89439999999996,532.5882503679999 192.06719999999999,532.4730503679999 192.18239999999997C532.3002503679999 192.32639999999998,532.2714503679998 192.32639999999998,531.4938503679998 192.32639999999998L530.7738503679999 192.32639999999998L530.7738503679999 192.81599999999997C530.8026503679998 194.28479999999996,531.0906503679998 194.86079999999998,532.2138503679998 195.46559999999997C532.6170503679999 195.66719999999998,532.7034503679998 195.72479999999996,532.7034503679998 196.01279999999997C532.7034503679998 196.21439999999998,532.6458503679999 196.30079999999998,532.5018503679999 196.41599999999997L532.4154503679998 196.44479999999996L528.4698503679999 196.44479999999996L524.5530503679998 196.44479999999996L524.4666503679998 196.41599999999997C524.2938503679999 196.30079999999998,524.2650503679998 196.21439999999998,524.2650503679998 196.01279999999997C524.2650503679998 195.72479999999996,524.2938503679999 195.66719999999998,524.7258503679999 195.46559999999997C525.8490503679999 194.86079999999998,526.1370503679999 194.28479999999996,526.1370503679999 192.81599999999997L526.1370503679999 192.32639999999998L522.8250503679999 192.32639999999998C522.2202503679998 192.38399999999996,521.7306503679998 192.38399999999996,521.3274503679999 192.38399999999996C519.5130503679999 192.38399999999996,519.4842503679998 192.32639999999998,519.4554503679999 192.32639999999998C519.2826503679998 192.26879999999997,519.2250503679999 192.09599999999998,519.2250503679999 191.89439999999996C519.2250503679999 191.89439999999996,519.2250503679999 191.89439999999996,519.2250503679999 191.89439999999996C519.2250503679999 191.69279999999998,519.2250503679999 191.69279999999998,519.8010503679999 191.0304C522.2202503679998 188.09279999999998,523.9194503679998 183.83039999999997,523.9194503679998 180.43199999999996C523.9194503679998 179.91359999999997,524.0058503679999 179.74079999999998,524.2362503679999 179.65439999999998M525.9642503679999 198.02879999999996L525.9930503679999 198.02879999999996L525.9066503679999 198.02879999999996L525.9642503679999 198.02879999999996M525.9642503679999 178.61759999999998L525.9930503679999 178.61759999999998L525.9066503679999 178.61759999999998L525.9642503679999 178.61759999999998">
</path>
<path stroke-width="0.3" fill="black" stroke="none" stroke-dasharray="none" d="M519.2250503679999 217.99999999999997M524.2362503679999 199.65439999999998C524.2650503679998 199.62559999999996,524.6682503679999 199.62559999999996,525.9066503679999 199.62559999999996C526.2810503679999 199.62559999999996,526.6842503679999 199.62559999999996,527.2026503679999 199.62559999999996L530.1114503679999 199.62559999999996L530.1978503679999 199.71199999999996C530.3418503679999 199.79839999999996,530.4282503679999 199.94239999999996,530.4282503679999 200.05759999999998C530.4282503679999 200.23039999999997,530.3418503679999 200.34559999999996,530.2266503679999 200.46079999999998C530.1978503679999 200.54719999999998,529.9386503679999 200.77759999999998,529.7658503679999 201.03679999999997L528.2394503679999 202.79359999999997L526.2810503679999 205.01119999999997L525.2442503679998 206.19199999999998L523.6890503679999 207.97759999999997L521.6442503679999 210.31039999999996C521.2986503679999 210.74239999999998,520.9242503679999 211.08799999999997,520.9242503679999 211.08799999999997C520.9242503679999 211.08799999999997,520.9242503679999 211.08799999999997,520.9242503679999 211.08799999999997C520.9242503679999 211.14559999999997,521.1834503679999 211.14559999999997,523.5738503679999 211.14559999999997L526.1946503679999 211.14559999999997L526.1946503679999 209.27359999999996C526.1946503679999 207.37279999999998,526.1946503679999 207.34399999999997,526.2234503679998 207.31519999999998C526.2810503679999 207.22879999999998,526.5402503679999 206.91199999999998,527.5482503679999 205.73119999999997L527.9514503679999 205.29919999999998L528.3546503679999 204.86719999999997L528.9594503679999 204.08959999999996L529.5930503679999 203.42719999999997L529.9098503679999 203.02399999999997C530.0250503679998 202.85119999999998,530.1978503679999 202.82239999999996,530.3418503679999 202.82239999999996C530.5146503679998 202.82239999999996,530.6586503679998 202.90879999999999,530.7450503679999 203.05279999999996C530.7738503679999 203.13919999999996,530.7738503679999 203.19679999999997,530.7738503679999 205.32799999999997C530.7738503679999 205.81759999999997,530.7738503679999 206.42239999999998,530.7738503679999 207.14239999999998L530.7738503679999 211.14559999999997L531.4938503679998 211.14559999999997C532.1562503679999 211.14559999999997,532.1850503679999 211.14559999999997,532.2714503679998 211.17439999999996C532.5018503679999 211.26079999999996,532.6170503679999 211.49119999999996,532.6170503679999 211.75039999999998C532.6170503679999 211.89439999999996,532.5882503679999 212.06719999999999,532.4730503679999 212.18239999999997C532.3002503679999 212.32639999999998,532.2714503679998 212.32639999999998,531.4938503679998 212.32639999999998L530.7738503679999 212.32639999999998L530.7738503679999 212.81599999999997C530.8026503679998 214.28479999999996,531.0906503679998 214.86079999999998,532.2138503679998 215.46559999999997C532.6170503679999 215.66719999999998,532.7034503679998 215.72479999999996,532.7034503679998 216.01279999999997C532.7034503679998 216.21439999999998,532.6458503679999 216.30079999999998,532.5018503679999 216.41599999999997L532.4154503679998 216.44479999999996L528.4698503679999 216.44479999999996L524.5530503679998 216.44479999999996L524.4666503679998 216.41599999999997C524.2938503679999 216.30079999999998,524.2650503679998 216.21439999999998,524.2650503679998 216.01279999999997C524.2650503679998 215.72479999999996,524.2938503679999 215.66719999999998,524.7258503679999 215.46559999999997C525.8490503679999 214.86079999999998,526.1370503679999 214.28479999999996,526.1370503679999 212.81599999999997L526.1370503679999 212.32639999999998L522.8250503679999 212.32639999999998C522.2202503679998 212.38399999999996,521.7306503679998 212.38399999999996,521.3274503679999 212.38399999999996C519.5130503679999 212.38399999999996,519.4842503679998 212.32639999999998,519.4554503679999 212.32639999999998C519.2826503679998 212.26879999999997,519.2250503679999 212.09599999999998,519.2250503679999 211.89439999999996C519.2250503679999 211.89439999999996,519.2250503679999 211.89439999999996,519.2250503679999 211.89439999999996C519.2250503679999 211.69279999999998,519.2250503679999 211.69279999999998,519.8010503679999 211.0304C522.2202503679998 208.09279999999998,523.9194503679998 203.83039999999997,523.9194503679998 200.43199999999996C523.9194503679998 199.91359999999997,524.0058503679999 199.74079999999998,524.2362503679999 199.65439999999998M525.9642503679999 218.02879999999996L525.9930503679999 218.02879999999996L525.9066503679999 218.02879999999996L525.9642503679999 218.02879999999996M525.9642503679999 198.61759999999998L525.9930503679999 198.61759999999998L525.9066503679999 198.61759999999998L525.9642503679999 198.61759999999998">
</path>
<g class="vf-stavenote" id="vf-auto83844">
<g class="vf-note" pointer-events="bounding-box">
<g class="vf-notehead" pointer-events="bounding-box">
<path stroke-width="0.3" fill="#000000" stroke="none" stroke-dasharray="none" d="M570.5675271679999 197.99999999999997M577.9244871679998 192.77711999999997C578.0368071679999 192.77711999999997,578.2052871679998 192.77711999999997,578.2333671679999 192.77711999999997C578.2333671679999 192.77711999999997,578.2614471679999 192.77711999999997,578.2614471679999 192.77711999999997C578.2614471679999 192.77711999999997,578.4299271679998 192.77711999999997,578.5703271679998 192.77711999999997C581.0975271679998 192.91751999999997,582.5857671679998 194.57423999999997,582.5857671679998 196.65215999999998C582.5857671679998 197.66303999999997,582.2488071679999 198.81431999999998,581.4064071679999 199.90943999999996C579.8058471679999 202.07159999999996,577.1944071679999 203.25095999999996,574.9199271679998 203.25095999999996C573.1508871679998 203.25095999999996,571.6345671679999 202.54895999999997,570.9044871679998 201.11687999999998C570.6798471679998 200.55527999999998,570.5675271679999 200.02175999999997,570.5675271679999 199.43207999999998C570.5675271679999 196.37135999999998,573.9932871679998 192.97367999999997,577.9244871679998 192.77711999999997">
</path>
</g>
</g>
<g class="vf-modifiers">
<g class="vf-stavenote" id="vf-auto83854">
<g class="vf-note" pointer-events="bounding-box">
<g class="vf-stem" pointer-events="bounding-box">
<path stroke-width="1.5" fill="none" stroke="#000000" stroke-dasharray="none" d="M551.8854887679998 197.99999999999997L551.8854887679998 174.89999999999998">
</path>
</g>
<g class="vf-notehead" pointer-events="bounding-box">
<path stroke-width="0.3" fill="#000000" stroke="none" stroke-dasharray="none" d="M544.7034503679998 197.99999999999997M549.5590439679999 194.55289919999998C549.6331751679999 194.55289919999998,549.7443719679999 194.55289919999998,549.7629047679999 194.55289919999998C549.7629047679999 194.55289919999998,549.7814375679999 194.55289919999998,549.7814375679999 194.55289919999998C549.7814375679999 194.55289919999998,549.8926343679998 194.55289919999998,549.9852983679998 194.55289919999998C551.6532503679998 194.64556319999997,552.6354887679998 195.73899839999996,552.6354887679998 197.11042559999999C552.6354887679998 197.77760639999997,552.4130951679998 198.53745119999996,551.8571111679998 199.26023039999998C550.8007415679998 200.68725599999996,549.0771911679998 201.46563359999996,547.5760343679998 201.46563359999996C546.4084679679999 201.46563359999996,545.4076967679998 201.00231359999998,544.9258439679999 200.05714079999998C544.7775815679998 199.68648479999996,544.7034503679998 199.33436159999997,544.7034503679998 198.94517279999997C544.7034503679998 196.92509759999996,546.9644519679998 194.68262879999997,549.5590439679999 194.55289919999998">
</path>
</g>
<g class="vf-flag" pointer-events="bounding-box">
<path stroke-width="0.3" fill="#000000" stroke="none" stroke-dasharray="none" d="M551.8854887679998 172.89999999999998M551.4407015679999 175.88378079999998L551.4407015679999 172.992664L551.5148327679998 172.992664C551.7186935679998 172.992664,551.8484231679998 173.12239359999998,551.8854887679998 173.34478719999998C552.2746775679999 175.19806719999997,553.4422439679998 177.21814239999998,555.0545975679998 178.73783199999997C556.8522791679999 180.42431679999999,557.7603863679999 182.74091679999998,557.7603863679999 185.13164799999998C557.7603863679999 187.39264959999997,556.9634759679999 189.74631519999997,555.3511223679999 191.69225919999997C555.0731303679999 192.06291519999996,555.0545975679998 192.06291519999996,554.8692695679998 192.06291519999996C554.6468759679998 192.06291519999996,554.4986135679999 191.89611999999997,554.4986135679999 191.67372639999996C554.4986135679999 191.50693119999997,554.5171463679999 191.4698656,554.7024743679998 191.2660048C556.1109671679999 189.56098719999997,556.8152135679999 187.5038464,556.8152135679999 185.5393696C556.8152135679999 183.7972864,556.2592295679998 182.12933439999998,555.1101959679999 180.86910399999996C554.4059495679999 180.09072639999997,553.1086535679998 179.34941439999997,551.4592343679999 178.77489759999997C551.4592343679999 178.75636479999997,551.4407015679999 178.18184799999997,551.4407015679999 175.88378079999998">
</path>
</g>
</g>
<g class="vf-modifiers">
</g>
</g>
<path stroke-width="1" fill="none" stroke="#000000" stroke-dasharray="none" d="M545.7034503679998 189.74999999999997L558.7034503679998 180.74999999999997Z">
</path>
</g>
</g>
<g class="vf-stavenote" id="vf-auto83868">
<g class="vf-note" pointer-events="bounding-box">
<g class="vf-notehead" pointer-events="bounding-box">
<path stroke-width="0.3" fill="#000000" stroke="none" stroke-dasharray="none" d="M602.5091079679999 197.99999999999997M609.8660679679998 192.77711999999997C609.9783879679999 192.77711999999997,610.1468679679998 192.77711999999997,610.1749479679999 192.77711999999997C610.1749479679999 192.77711999999997,610.2030279679999 192.77711999999997,610.2030279679999 192.77711999999997C610.2030279679999 192.77711999999997,610.3715079679998 192.77711999999997,610.5119079679998 192.77711999999997C613.0391079679998 192.91751999999997,614.5273479679998 194.57423999999997,614.5273479679998 196.65215999999998C614.5273479679998 197.66303999999997,614.1903879679999 198.81431999999998,613.3479879679999 199.90943999999996C611.7474279679999 202.07159999999996,609.1359879679999 203.25095999999996,606.8615079679998 203.25095999999996C605.0924679679998 203.25095999999996,603.5761479679999 202.54895999999997,602.8460679679998 201.11687999999998C602.6214279679998 200.55527999999998,602.5091079679999 200.02175999999997,602.5091079679999 199.43207999999998C602.5091079679999 196.37135999999998,605.9348679679998 192.97367999999997,609.8660679679998 192.77711999999997">
</path>
</g>
</g>
<g class="vf-modifiers">
</g>
</g>
<g class="vf-stavenote" id="vf-auto83878">
<g class="vf-note" pointer-events="bounding-box">
<g class="vf-notehead" pointer-events="bounding-box">
<path stroke-width="0.3" fill="#000000" stroke="none" stroke-dasharray="none" d="M634.4506887679998 197.99999999999997M641.8076487679998 192.77711999999997C641.9199687679999 192.77711999999997,642.0884487679998 192.77711999999997,642.1165287679999 192.77711999999997C642.1165287679999 192.77711999999997,642.1446087679999 192.77711999999997,642.1446087679999 192.77711999999997C642.1446087679999 192.77711999999997,642.3130887679998 192.77711999999997,642.4534887679998 192.77711999999997C644.9806887679998 192.91751999999997,646.4689287679998 194.57423999999997,646.4689287679998 196.65215999999998C646.4689287679998 197.66303999999997,646.1319687679999 198.81431999999998,645.2895687679999 199.90943999999996C643.6890087679999 202.07159999999996,641.0775687679999 203.25095999999996,638.8030887679998 203.25095999999996C637.0340487679998 203.25095999999996,635.5177287679999 202.54895999999997,634.7876487679998 201.11687999999998C634.5630087679998 200.55527999999998,634.4506887679998 200.02175999999997,634.4506887679998 199.43207999999998C634.4506887679998 196.37135999999998,637.8764487679998 192.97367999999997,641.8076487679998 192.77711999999997">
</path>
</g>
</g>
<g class="vf-modifiers">
</g>
</g>
<g class="vf-stavenote" id="vf-auto83888">
<g class="vf-note" pointer-events="bounding-box">
<g class="vf-notehead" pointer-events="bounding-box">
<path stroke-width="0.3" fill="#000000" stroke="none" stroke-dasharray="none" d="M666.3922695679998 197.99999999999997M673.7492295679998 192.77711999999997C673.8615495679999 192.77711999999997,674.0300295679998 192.77711999999997,674.0581095679998 192.77711999999997C674.0581095679998 192.77711999999997,674.0861895679999 192.77711999999997,674.0861895679999 192.77711999999997C674.0861895679999 192.77711999999997,674.2546695679998 192.77711999999997,674.3950695679998 192.77711999999997C676.9222695679998 192.91751999999997,678.4105095679998 194.57423999999997,678.4105095679998 196.65215999999998C678.4105095679998 197.66303999999997,678.0735495679999 198.81431999999998,677.2311495679999 199.90943999999996C675.6305895679999 202.07159999999996,673.0191495679999 203.25095999999996,670.7446695679998 203.25095999999996C668.9756295679998 203.25095999999996,667.4593095679999 202.54895999999997,666.7292295679998 201.11687999999998C666.5045895679998 200.55527999999998,666.3922695679998 200.02175999999997,666.3922695679998 199.43207999999998C666.3922695679998 196.37135999999998,669.8180295679998 192.97367999999997,673.7492295679998 192.77711999999997">
</path>
</g>
</g>
<g class="vf-modifiers">
</g>
</g>
<g class="vf-stavenote" id="vf-auto83898">
<g class="vf-note" pointer-events="bounding-box">
<g class="vf-notehead" pointer-events="bounding-box">
<path stroke-width="0.3" fill="#000000" stroke="none" stroke-dasharray="none" d="M724.1979271679999 197.99999999999997M731.5548871679998 192.77711999999997C731.6672071679999 192.77711999999997,731.8356871679998 192.77711999999997,731.8637671679999 192.77711999999997C731.8637671679999 192.77711999999997,731.8918471679999 192.77711999999997,731.8918471679999 192.77711999999997C731.8918471679999 192.77711999999997,732.0603271679998 192.77711999999997,732.2007271679998 192.77711999999997C734.7279271679998 192.91751999999997,736.2161671679999 194.57423999999997,736.2161671679999 196.65215999999998C736.2161671679999 197.66303999999997,735.8792071679999 198.81431999999998,735.0368071679999 199.90943999999996C733.4362471679999 202.07159999999996,730.8248071679999 203.25095999999996,728.5503271679999 203.25095999999996C726.7812871679998 203.25095999999996,725.2649671679999 202.54895999999997,724.5348871679998 201.11687999999998C724.3102471679998 200.55527999999998,724.1979271679999 200.02175999999997,724.1979271679999 199.43207999999998C724.1979271679999 196.37135999999998,727.6236871679998 192.97367999999997,731.5548871679998 192.77711999999997">
</path>
</g>
</g>
<g class="vf-modifiers">
<g class="vf-stavenote" id="vf-auto83908">
<g class="vf-note" pointer-events="bounding-box">
<g class="vf-stem" pointer-events="bounding-box">
<path stroke-width="1.5" fill="none" stroke="#000000" stroke-dasharray="none" d="M705.5158887679999 197.99999999999997L705.5158887679999 174.89999999999998">
</path>
</g>
<g class="vf-notehead" pointer-events="bounding-box">
<path stroke-width="0.3" fill="#000000" stroke="none" stroke-dasharray="none" d="M698.3338503679998 197.99999999999997M703.1894439679999 194.55289919999998C703.2635751679999 194.55289919999998,703.3747719679999 194.55289919999998,703.3933047679999 194.55289919999998C703.3933047679999 194.55289919999998,703.4118375679999 194.55289919999998,703.4118375679999 194.55289919999998C703.4118375679999 194.55289919999998,703.5230343679998 194.55289919999998,703.6156983679998 194.55289919999998C705.2836503679998 194.64556319999997,706.2658887679999 195.73899839999996,706.2658887679999 197.11042559999999C706.2658887679999 197.77760639999997,706.0434951679998 198.53745119999996,705.4875111679999 199.26023039999998C704.4311415679998 200.68725599999996,702.7075911679998 201.46563359999996,701.2064343679998 201.46563359999996C700.0388679679999 201.46563359999996,699.0380967679998 201.00231359999998,698.5562439679999 200.05714079999998C698.4079815679999 199.68648479999996,698.3338503679998 199.33436159999997,698.3338503679998 198.94517279999997C698.3338503679998 196.92509759999996,700.5948519679998 194.68262879999997,703.1894439679999 194.55289919999998">
</path>
</g>
<g class="vf-flag" pointer-events="bounding-box">
<path stroke-width="0.3" fill="#000000" stroke="none" stroke-dasharray="none" d="M705.5158887679999 172.89999999999998M705.0711015679999 175.88378079999998L705.0711015679999 172.992664L705.1452327679998 172.992664C705.3490935679998 172.992664,705.4788231679998 173.12239359999998,705.5158887679999 173.34478719999998C705.9050775679999 175.19806719999997,707.0726439679999 177.21814239999998,708.6849975679999 178.73783199999997C710.4826791679999 180.42431679999999,711.3907863679999 182.74091679999998,711.3907863679999 185.13164799999998C711.3907863679999 187.39264959999997,710.5938759679999 189.74631519999997,708.9815223679999 191.69225919999997C708.7035303679999 192.06291519999996,708.6849975679999 192.06291519999996,708.4996695679998 192.06291519999996C708.2772759679998 192.06291519999996,708.1290135679999 191.89611999999997,708.1290135679999 191.67372639999996C708.1290135679999 191.50693119999997,708.1475463679999 191.4698656,708.3328743679998 191.2660048C709.7413671679999 189.56098719999997,710.4456135679999 187.5038464,710.4456135679999 185.5393696C710.4456135679999 183.7972864,709.8896295679998 182.12933439999998,708.7405959679999 180.86910399999996C708.0363495679999 180.09072639999997,706.7390535679998 179.34941439999997,705.0896343679999 178.77489759999997C705.0896343679999 178.75636479999997,705.0711015679999 178.18184799999997,705.0711015679999 175.88378079999998">
</path>
</g>
</g>
<g class="vf-modifiers">
</g>
</g>
<path stroke-width="1" fill="none" stroke="#000000" stroke-dasharray="none" d="M699.3338503679998 189.74999999999997L712.3338503679998 180.74999999999997Z">
</path>
</g>
</g>
<g class="vf-stavenote" id="vf-auto83922">
<g class="vf-note" pointer-events="bounding-box">
<g class="vf-notehead" pointer-events="bounding-box">
<path stroke-width="0.3" fill="#000000" stroke="none" stroke-dasharray="none" d="M756.1395079679999 197.99999999999997M763.4964679679998 192.77711999999997C763.6087879679999 192.77711999999997,763.7772679679998 192.77711999999997,763.8053479679999 192.77711999999997C763.8053479679999 192.77711999999997,763.8334279679999 192.77711999999997,763.8334279679999 192.77711999999997C763.8334279679999 192.77711999999997,764.0019079679998 192.77711999999997,764.1423079679998 192.77711999999997C766.6695079679998 192.91751999999997,768.1577479679999 194.57423999999997,768.1577479679999 196.65215999999998C768.1577479679999 197.66303999999997,767.8207879679999 198.81431999999998,766.9783879679999 199.90943999999996C765.3778279679999 202.07159999999996,762.7663879679999 203.25095999999996,760.4919079679999 203.25095999999996C758.7228679679998 203.25095999999996,757.2065479679999 202.54895999999997,756.4764679679998 201.11687999999998C756.2518279679998 200.55527999999998,756.1395079679999 200.02175999999997,756.1395079679999 199.43207999999998C756.1395079679999 196.37135999999998,759.5652679679998 192.97367999999997,763.4964679679998 192.77711999999997">
</path>
</g>
</g>
<g class="vf-modifiers">
</g>
</g>
<g class="vf-stavenote" id="vf-auto83932">
<g class="vf-note" pointer-events="bounding-box">
<g class="vf-notehead" pointer-events="bounding-box">
<path stroke-width="0.3" fill="#000000" stroke="none" stroke-dasharray="none" d="M788.0810887679999 197.99999999999997M795.4380487679998 192.77711999999997C795.5503687679999 192.77711999999997,795.7188487679998 192.77711999999997,795.7469287679999 192.77711999999997C795.7469287679999 192.77711999999997,795.7750087679999 192.77711999999997,795.7750087679999 192.77711999999997C795.7750087679999 192.77711999999997,795.9434887679998 192.77711999999997,796.0838887679998 192.77711999999997C798.6110887679998 192.91751999999997,800.0993287679999 194.57423999999997,800.0993287679999 196.65215999999998C800.0993287679999 197.66303999999997,799.7623687679999 198.81431999999998,798.9199687679999 199.90943999999996C797.3194087679999 202.07159999999996,794.7079687679999 203.25095999999996,792.4334887679998 203.25095999999996C790.6644487679998 203.25095999999996,789.1481287679999 202.54895999999997,788.4180487679998 201.11687999999998C788.1934087679998 200.55527999999998,788.0810887679999 200.02175999999997,788.0810887679999 199.43207999999998C788.0810887679999 196.37135999999998,791.5068487679998 192.97367999999997,795.4380487679998 192.77711999999997">
</path>
</g>
</g>
<g class="vf-modifiers">
</g>
</g>
<g class="vf-stavenote" id="vf-auto83942">
<g class="vf-note" pointer-events="bounding-box">
<g class="vf-notehead" pointer-events="bounding-box">
<path stroke-width="0.3" fill="#000000" stroke="none" stroke-dasharray="none" d="M820.0226695679999 197.99999999999997M827.3796295679998 192.77711999999997C827.4919495679999 192.77711999999997,827.6604295679998 192.77711999999997,827.6885095679999 192.77711999999997C827.6885095679999 192.77711999999997,827.7165895679999 192.77711999999997,827.7165895679999 192.77711999999997C827.7165895679999 192.77711999999997,827.8850695679998 192.77711999999997,828.0254695679998 192.77711999999997C830.5526695679998 192.91751999999997,832.0409095679998 194.57423999999997,832.0409095679998 196.65215999999998C832.0409095679998 197.66303999999997,831.7039495679999 198.81431999999998,830.8615495679999 199.90943999999996C829.2609895679999 202.07159999999996,826.6495495679999 203.25095999999996,824.3750695679998 203.25095999999996C822.6060295679998 203.25095999999996,821.0897095679999 202.54895999999997,820.3596295679998 201.11687999999998C820.1349895679998 200.55527999999998,820.0226695679999 200.02175999999997,820.0226695679999 199.43207999999998C820.0226695679999 196.37135999999998,823.4484295679998 192.97367999999997,827.3796295679998 192.77711999999997">
</path>
</g>
</g>
<g class="vf-modifiers">
</g>
</g>
<g class="vf-stavenote" id="vf-auto83952">
<g class="vf-note" pointer-events="bounding-box">
<g class="vf-notehead" pointer-events="bounding-box">
<path stroke-width="0.3" fill="#000000" stroke="none" stroke-dasharray="none" d="M877.8283271679998 197.99999999999997M885.1852871679997 192.77711999999997C885.2976071679998 192.77711999999997,885.4660871679997 192.77711999999997,885.4941671679998 192.77711999999997C885.4941671679998 192.77711999999997,885.5222471679998 192.77711999999997,885.5222471679998 192.77711999999997C885.5222471679998 192.77711999999997,885.6907271679997 192.77711999999997,885.8311271679997 192.77711999999997C888.3583271679997 192.91751999999997,889.8465671679998 194.57423999999997,889.8465671679998 196.65215999999998C889.8465671679998 197.66303999999997,889.5096071679998 198.81431999999998,888.6672071679998 199.90943999999996C887.0666471679998 202.07159999999996,884.4552071679998 203.25095999999996,882.1807271679997 203.25095999999996C880.4116871679997 203.25095999999996,878.8953671679998 202.54895999999997,878.1652871679997 201.11687999999998C877.9406471679997 200.55527999999998,877.8283271679998 200.02175999999997,877.8283271679998 199.43207999999998C877.8283271679998 196.37135999999998,881.2540871679997 192.97367999999997,885.1852871679997 192.77711999999997">
</path>
</g>
</g>
<g class="vf-modifiers">
<g class="vf-stavenote" id="vf-auto83962">
<g class="vf-note" pointer-events="bounding-box">
<g class="vf-stem" pointer-events="bounding-box">
<path stroke-width="1.5" fill="none" stroke="#000000" stroke-dasharray="none" d="M859.1462887679997 197.99999999999997L859.1462887679997 174.89999999999998">
</path>
</g>
<g class="vf-notehead" pointer-events="bounding-box">
<path stroke-width="0.3" fill="#000000" stroke="none" stroke-dasharray="none" d="M851.9642503679997 197.99999999999997M856.8198439679998 194.55289919999998C856.8939751679998 194.55289919999998,857.0051719679998 194.55289919999998,857.0237047679998 194.55289919999998C857.0237047679998 194.55289919999998,857.0422375679998 194.55289919999998,857.0422375679998 194.55289919999998C857.0422375679998 194.55289919999998,857.1534343679997 194.55289919999998,857.2460983679997 194.55289919999998C858.9140503679997 194.64556319999997,859.8962887679997 195.73899839999996,859.8962887679997 197.11042559999999C859.8962887679997 197.77760639999997,859.6738951679997 198.53745119999996,859.1179111679998 199.26023039999998C858.0615415679997 200.68725599999996,856.3379911679997 201.46563359999996,854.8368343679997 201.46563359999996C853.6692679679998 201.46563359999996,852.6684967679997 201.00231359999998,852.1866439679998 200.05714079999998C852.0383815679997 199.68648479999996,851.9642503679997 199.33436159999997,851.9642503679997 198.94517279999997C851.9642503679997 196.92509759999996,854.2252519679997 194.68262879999997,856.8198439679998 194.55289919999998">
</path>
</g>
<g class="vf-flag" pointer-events="bounding-box">
<path stroke-width="0.3" fill="#000000" stroke="none" stroke-dasharray="none" d="M859.1462887679997 172.89999999999998M858.7015015679998 175.88378079999998L858.7015015679998 172.992664L858.7756327679997 172.992664C858.9794935679997 172.992664,859.1092231679997 173.12239359999998,859.1462887679997 173.34478719999998C859.5354775679998 175.19806719999997,860.7030439679997 177.21814239999998,862.3153975679998 178.73783199999997C864.1130791679998 180.42431679999999,865.0211863679998 182.74091679999998,865.0211863679998 185.13164799999998C865.0211863679998 187.39264959999997,864.2242759679998 189.74631519999997,862.6119223679998 191.69225919999997C862.3339303679998 192.06291519999996,862.3153975679998 192.06291519999996,862.1300695679997 192.06291519999996C861.9076759679997 192.06291519999996,861.7594135679998 191.89611999999997,861.7594135679998 191.67372639999996C861.7594135679998 191.50693119999997,861.7779463679998 191.4698656,861.9632743679997 191.2660048C863.3717671679998 189.56098719999997,864.0760135679998 187.5038464,864.0760135679998 185.5393696C864.0760135679998 183.7972864,863.5200295679997 182.12933439999998,862.3709959679998 180.86910399999996C861.6667495679998 180.09072639999997,860.3694535679997 179.34941439999997,858.7200343679998 178.77489759999997C858.7200343679998 178.75636479999997,858.7015015679998 178.18184799999997,858.7015015679998 175.88378079999998">
</path>
</g>
</g>
<g class="vf-modifiers">
</g>
</g>
<path stroke-width="1" fill="none" stroke="#000000" stroke-dasharray="none" d="M852.9642503679997 189.74999999999997L865.9642503679997 180.74999999999997Z">
</path>
</g>
</g>
<g class="vf-stavenote" id="vf-auto83976">
<g class="vf-note" pointer-events="bounding-box">
<g class="vf-notehead" pointer-events="bounding-box">
<path stroke-width="0.3" fill="#000000" stroke="none" stroke-dasharray="none" d="M909.7699079679999 197.99999999999997M917.1268679679998 192.77711999999997C917.2391879679999 192.77711999999997,917.4076679679998 192.77711999999997,917.4357479679999 192.77711999999997C917.4357479679999 192.77711999999997,917.4638279679999 192.77711999999997,917.4638279679999 192.77711999999997C917.4638279679999 192.77711999999997,917.6323079679999 192.77711999999997,917.7727079679998 192.77711999999997C920.2999079679998 192.91751999999997,921.7881479679999 194.57423999999997,921.7881479679999 196.65215999999998C921.7881479679999 197.66303999999997,921.4511879679999 198.81431999999998,920.6087879679999 199.90943999999996C919.0082279679999 202.07159999999996,916.3967879679999 203.25095999999996,914.1223079679999 203.25095999999996C912.3532679679998 203.25095999999996,910.8369479679999 202.54895999999997,910.1068679679998 201.11687999999998C909.8822279679998 200.55527999999998,909.7699079679999 200.02175999999997,909.7699079679999 199.43207999999998C909.7699079679999 196.37135999999998,913.1956679679998 192.97367999999997,917.1268679679998 192.77711999999997">
</path>
</g>
</g>
<g class="vf-modifiers">
</g>
</g>
<g class="vf-stavenote" id="vf-auto83986">
<g class="vf-note" pointer-events="bounding-box">
<g class="vf-notehead" pointer-events="bounding-box">
<path stroke-width="0.3" fill="#000000" stroke="none" stroke-dasharray="none" d="M941.7114887679999 197.99999999999997M949.0684487679998 192.77711999999997C949.1807687679999 192.77711999999997,949.3492487679998 192.77711999999997,949.3773287679999 192.77711999999997C949.3773287679999 192.77711999999997,949.4054087679999 192.77711999999997,949.4054087679999 192.77711999999997C949.4054087679999 192.77711999999997,949.5738887679998 192.77711999999997,949.7142887679998 192.77711999999997C952.2414887679998 192.91751999999997,953.7297287679999 194.57423999999997,953.7297287679999 196.65215999999998C953.7297287679999 197.66303999999997,953.3927687679999 198.81431999999998,952.5503687679999 199.90943999999996C950.9498087679999 202.07159999999996,948.3383687679999 203.25095999999996,946.0638887679999 203.25095999999996C944.2948487679998 203.25095999999996,942.7785287679999 202.54895999999997,942.0484487679998 201.11687999999998C941.8238087679998 200.55527999999998,941.7114887679999 200.02175999999997,941.7114887679999 199.43207999999998C941.7114887679999 196.37135999999998,945.1372487679998 192.97367999999997,949.0684487679998 192.77711999999997">
</path>
</g>
</g>
<g class="vf-modifiers">
</g>
</g>
<g class="vf-stavenote" id="vf-auto83996">
<g class="vf-note" pointer-events="bounding-box">
<g class="vf-notehead" pointer-events="bounding-box">
<path stroke-width="0.3" fill="#000000" stroke="none" stroke-dasharray="none" d="M973.6530695679999 197.99999999999997M981.0100295679998 192.77711999999997C981.1223495679999 192.77711999999997,981.2908295679998 192.77711999999997,981.3189095679999 192.77711999999997C981.3189095679999 192.77711999999997,981.3469895679999 192.77711999999997,981.3469895679999 192.77711999999997C981.3469895679999 192.77711999999997,981.5154695679998 192.77711999999997,981.6558695679998 192.77711999999997C984.1830695679998 192.91751999999997,985.6713095679999 194.57423999999997,985.6713095679999 196.65215999999998C985.6713095679999 197.66303999999997,985.3343495679999 198.81431999999998,984.4919495679999 199.90943999999996C982.8913895679999 202.07159999999996,980.2799495679999 203.25095999999996,978.0054695679999 203.25095999999996C976.2364295679998 203.25095999999996,974.7201095679999 202.54895999999997,973.9900295679998 201.11687999999998C973.7653895679998 200.55527999999998,973.6530695679999 200.02175999999997,973.6530695679999 199.43207999999998C973.6530695679999 196.37135999999998,977.0788295679998 192.97367999999997,981.0100295679998 192.77711999999997">
</path>
</g>
</g>
<g class="vf-modifiers">
</g>
</g>
<g class="vf-stavenote" id="vf-auto84006">
<g class="vf-note" pointer-events="bounding-box">
<g class="vf-notehead" pointer-events="bounding-box">
<path stroke-width="0.3" fill="#000000" stroke="none" stroke-dasharray="none" d="M1031.4587271679998 197.99999999999997M1038.8156871679998 192.77711999999997C1038.9280071679998 192.77711999999997,1039.0964871679998 192.77711999999997,1039.1245671679997 192.77711999999997C1039.1245671679997 192.77711999999997,1039.1526471679997 192.77711999999997,1039.1526471679997 192.77711999999997C1039.1526471679997 192.77711999999997,1039.3211271679997 192.77711999999997,1039.4615271679997 192.77711999999997C1041.9887271679997 192.91751999999997,1043.4769671679999 194.57423999999997,1043.4769671679999 196.65215999999998C1043.4769671679999 197.66303999999997,1043.1400071679998 198.81431999999998,1042.2976071679998 199.90943999999996C1040.6970471679997 202.07159999999996,1038.0856071679998 203.25095999999996,1035.8111271679998 203.25095999999996C1034.0420871679999 203.25095999999996,1032.5257671679997 202.54895999999997,1031.7956871679999 201.11687999999998C1031.5710471679997 200.55527999999998,1031.4587271679998 200.02175999999997,1031.4587271679998 199.43207999999998C1031.4587271679998 196.37135999999998,1034.8844871679999 192.97367999999997,1038.8156871679998 192.77711999999997">
</path>
</g>
</g>
<g class="vf-modifiers">
<g class="vf-stavenote" id="vf-auto84016">
<g class="vf-note" pointer-events="bounding-box">
<g class="vf-stem" pointer-events="bounding-box">
<path stroke-width="1.5" fill="none" stroke="#000000" stroke-dasharray="none" d="M1012.7766887679999 197.99999999999997L1012.7766887679999 174.89999999999998">
</path>
</g>
<g class="vf-notehead" pointer-events="bounding-box">
<path stroke-width="0.3" fill="#000000" stroke="none" stroke-dasharray="none" d="M1005.5946503679999 197.99999999999997M1010.4502439679999 194.55289919999998C1010.5243751679999 194.55289919999998,1010.6355719679999 194.55289919999998,1010.6541047679999 194.55289919999998C1010.6541047679999 194.55289919999998,1010.6726375679999 194.55289919999998,1010.6726375679999 194.55289919999998C1010.6726375679999 194.55289919999998,1010.7838343679998 194.55289919999998,1010.8764983679998 194.55289919999998C1012.5444503679998 194.64556319999997,1013.5266887679999 195.73899839999996,1013.5266887679999 197.11042559999999C1013.5266887679999 197.77760639999997,1013.3042951679998 198.53745119999996,1012.7483111679999 199.26023039999998C1011.6919415679998 200.68725599999996,1009.9683911679998 201.46563359999996,1008.4672343679998 201.46563359999996C1007.2996679679999 201.46563359999996,1006.2988967679998 201.00231359999998,1005.8170439679999 200.05714079999998C1005.6687815679999 199.68648479999996,1005.5946503679999 199.33436159999997,1005.5946503679999 198.94517279999997C1005.5946503679999 196.92509759999996,1007.8556519679998 194.68262879999997,1010.4502439679999 194.55289919999998">
</path>
</g>
<g class="vf-flag" pointer-events="bounding-box">
<path stroke-width="0.3" fill="#000000" stroke="none" stroke-dasharray="none" d="M1012.7766887679999 172.89999999999998M1012.3319015679999 175.88378079999998L1012.3319015679999 172.992664L1012.4060327679998 172.992664C1012.6098935679998 172.992664,1012.7396231679999 173.12239359999998,1012.7766887679999 173.34478719999998C1013.1658775679999 175.19806719999997,1014.3334439679999 177.21814239999998,1015.9457975679999 178.73783199999997C1017.7434791679999 180.42431679999999,1018.6515863679999 182.74091679999998,1018.6515863679999 185.13164799999998C1018.6515863679999 187.39264959999997,1017.8546759679999 189.74631519999997,1016.2423223679999 191.69225919999997C1015.9643303679999 192.06291519999996,1015.9457975679999 192.06291519999996,1015.7604695679998 192.06291519999996C1015.5380759679998 192.06291519999996,1015.3898135679999 191.89611999999997,1015.3898135679999 191.67372639999996C1015.3898135679999 191.50693119999997,1015.4083463679999 191.4698656,1015.5936743679998 191.2660048C1017.0021671679999 189.56098719999997,1017.7064135679999 187.5038464,1017.7064135679999 185.5393696C1017.7064135679999 183.7972864,1017.1504295679998 182.12933439999998,1016.0013959679999 180.86910399999996C1015.2971495679999 180.09072639999997,1013.9998535679998 179.34941439999997,1012.3504343679999 178.77489759999997C1012.3504343679999 178.75636479999997,1012.3319015679999 178.18184799999997,1012.3319015679999 175.88378079999998">
</path>
</g>
</g>
<g class="vf-modifiers">
</g>
</g>
<path stroke-width="1" fill="none" stroke="#000000" stroke-dasharray="none" d="M1006.5946503679999 189.74999999999997L1019.5946503679999 180.74999999999997Z">
</path>
</g>
</g>
<g class="vf-stavenote" id="vf-auto84030">
<g class="vf-note" pointer-events="bounding-box">
<g class="vf-notehead" pointer-events="bounding-box">
<path stroke-width="0.3" fill="#000000" stroke="none" stroke-dasharray="none" d="M1063.4003079679999 197.99999999999997M1070.757267968 192.77711999999997C1070.869587968 192.77711999999997,1071.038067968 192.77711999999997,1071.0661479679998 192.77711999999997C1071.0661479679998 192.77711999999997,1071.0942279679998 192.77711999999997,1071.0942279679998 192.77711999999997C1071.0942279679998 192.77711999999997,1071.2627079679999 192.77711999999997,1071.4031079679999 192.77711999999997C1073.9303079679999 192.91751999999997,1075.418547968 194.57423999999997,1075.418547968 196.65215999999998C1075.418547968 197.66303999999997,1075.081587968 198.81431999999998,1074.239187968 199.90943999999996C1072.6386279679998 202.07159999999996,1070.027187968 203.25095999999996,1067.7527079679999 203.25095999999996C1065.983667968 203.25095999999996,1064.4673479679998 202.54895999999997,1063.737267968 201.11687999999998C1063.5126279679998 200.55527999999998,1063.4003079679999 200.02175999999997,1063.4003079679999 199.43207999999998C1063.4003079679999 196.37135999999998,1066.826067968 192.97367999999997,1070.757267968 192.77711999999997">
</path>
</g>
</g>
<g class="vf-modifiers">
</g>
</g>
<g class="vf-stavenote" id="vf-auto84040">
<g class="vf-note" pointer-events="bounding-box">
<g class="vf-notehead" pointer-events="bounding-box">
<path stroke-width="0.3" fill="#000000" stroke="none" stroke-dasharray="none" d="M1095.341888768 197.99999999999997M1102.698848768 192.77711999999997C1102.811168768 192.77711999999997,1102.979648768 192.77711999999997,1103.0077287679999 192.77711999999997C1103.0077287679999 192.77711999999997,1103.035808768 192.77711999999997,1103.035808768 192.77711999999997C1103.035808768 192.77711999999997,1103.204288768 192.77711999999997,1103.344688768 192.77711999999997C1105.871888768 192.91751999999997,1107.360128768 194.57423999999997,1107.360128768 196.65215999999998C1107.360128768 197.66303999999997,1107.023168768 198.81431999999998,1106.180768768 199.90943999999996C1104.580208768 202.07159999999996,1101.968768768 203.25095999999996,1099.694288768 203.25095999999996C1097.925248768 203.25095999999996,1096.408928768 202.54895999999997,1095.678848768 201.11687999999998C1095.454208768 200.55527999999998,1095.341888768 200.02175999999997,1095.341888768 199.43207999999998C1095.341888768 196.37135999999998,1098.767648768 192.97367999999997,1102.698848768 192.77711999999997">
</path>
</g>
</g>
<g class="vf-modifiers">
</g>
</g>
<g class="vf-stavenote" id="vf-auto84050">
<g class="vf-note" pointer-events="bounding-box">
<g class="vf-notehead" pointer-events="bounding-box">
<path stroke-width="0.3" fill="#000000" stroke="none" stroke-dasharray="none" d="M1127.2834695679999 197.99999999999997M1134.640429568 192.77711999999997C1134.752749568 192.77711999999997,1134.921229568 192.77711999999997,1134.9493095679998 192.77711999999997C1134.9493095679998 192.77711999999997,1134.9773895679998 192.77711999999997,1134.9773895679998 192.77711999999997C1134.9773895679998 192.77711999999997,1135.1458695679999 192.77711999999997,1135.2862695679999 192.77711999999997C1137.8134695679998 192.91751999999997,1139.301709568 194.57423999999997,1139.301709568 196.65215999999998C1139.301709568 197.66303999999997,1138.964749568 198.81431999999998,1138.122349568 199.90943999999996C1136.5217895679998 202.07159999999996,1133.910349568 203.25095999999996,1131.6358695679999 203.25095999999996C1129.866829568 203.25095999999996,1128.3505095679998 202.54895999999997,1127.620429568 201.11687999999998C1127.3957895679998 200.55527999999998,1127.2834695679999 200.02175999999997,1127.2834695679999 199.43207999999998C1127.2834695679999 196.37135999999998,1130.709229568 192.97367999999997,1134.640429568 192.77711999999997">
</path>
</g>
</g>
<g class="vf-modifiers">
</g>
</g>
<path stroke-width="1.5" fill="none" stroke="#000000" stroke-dasharray="none" d="M581.8357671679998 197.99999999999997L581.8357671679998 163.74999999999997">
</path>
<path stroke-width="1.5" fill="none" stroke="#000000" stroke-dasharray="none" d="M613.7773479679998 197.99999999999997L613.7773479679998 163.74999999999997">
</path>
<path stroke-width="1.5" fill="none" stroke="#000000" stroke-dasharray="none" d="M645.7189287679998 197.99999999999997L645.7189287679998 163.74999999999997">
</path>
<path stroke-width="1.5" fill="none" stroke="#000000" stroke-dasharray="none" d="M677.6605095679998 197.99999999999997L677.6605095679998 163.74999999999997">
</path>
<path stroke-width="0.3" fill="#000000" stroke="none" stroke-dasharray="none" d="M581.0857671679998 162.99999999999997L581.0857671679998 167.99999999999997L677.9105095679998 167.99999999999997L677.9105095679998 162.99999999999997Z">
</path>
<path stroke-width="0.3" fill="#000000" stroke="none" stroke-dasharray="none" d="M581.0857671679998 170.49999999999997L581.0857671679998 175.49999999999997L677.9105095679998 175.49999999999997L677.9105095679998 170.49999999999997Z">
</path>
<path stroke-width="1.5" fill="none" stroke="#000000" stroke-dasharray="none" d="M735.4661671679999 197.99999999999997L735.4661671679999 163.74999999999997">
</path>
<path stroke-width="1.5" fill="none" stroke="#000000" stroke-dasharray="none" d="M767.4077479679999 197.99999999999997L767.4077479679999 163.74999999999997">
</path>
<path stroke-width="1.5" fill="none" stroke="#000000" stroke-dasharray="none" d="M799.3493287679999 197.99999999999997L799.3493287679999 163.74999999999997">
</path>
<path stroke-width="1.5" fill="none" stroke="#000000" stroke-dasharray="none" d="M831.2909095679998 197.99999999999997L831.2909095679998 163.74999999999997">
</path>
<path stroke-width="0.3" fill="#000000" stroke="none" stroke-dasharray="none" d="M734.7161671679999 162.99999999999997L734.7161671679999 167.99999999999997L831.5409095679998 167.99999999999997L831.5409095679998 162.99999999999997Z">
</path>
<path stroke-width="0.3" fill="#000000" stroke="none" stroke-dasharray="none" d="M734.7161671679999 170.49999999999997L734.7161671679999 175.49999999999997L831.5409095679998 175.49999999999997L831.5409095679998 170.49999999999997Z">
</path>
<path stroke-width="1.5" fill="none" stroke="#000000" stroke-dasharray="none" d="M889.0965671679998 197.99999999999997L889.0965671679998 163.74999999999997">
</path>
<path stroke-width="1.5" fill="none" stroke="#000000" stroke-dasharray="none" d="M921.0381479679999 197.99999999999997L921.0381479679999 163.74999999999997">
</path>
<path stroke-width="1.5" fill="none" stroke="#000000" stroke-dasharray="none" d="M952.9797287679999 197.99999999999997L952.9797287679999 163.74999999999997">
</path>
<path stroke-width="1.5" fill="none" stroke="#000000" stroke-dasharray="none" d="M984.9213095679999 197.99999999999997L984.9213095679999 163.74999999999997">
</path>
<path stroke-width="0.3" fill="#000000" stroke="none" stroke-dasharray="none" d="M888.3465671679998 162.99999999999997L888.3465671679998 167.99999999999997L985.1713095679999 167.99999999999997L985.1713095679999 162.99999999999997Z">
</path>
<path stroke-width="0.3" fill="#000000" stroke="none" stroke-dasharray="none" d="M888.3465671679998 170.49999999999997L888.3465671679998 175.49999999999997L985.1713095679999 175.49999999999997L985.1713095679999 170.49999999999997Z">
</path>
<path stroke-width="1.5" fill="none" stroke="#000000" stroke-dasharray="none" d="M1042.7269671679999 197.99999999999997L1042.7269671679999 163.74999999999997">
</path>
<path stroke-width="1.5" fill="none" stroke="#000000" stroke-dasharray="none" d="M1074.668547968 197.99999999999997L1074.668547968 163.74999999999997">
</path>
<path stroke-width="1.5" fill="none" stroke="#000000" stroke-dasharray="none" d="M1106.610128768 197.99999999999997L1106.610128768 163.74999999999997">
</path>
<path stroke-width="1.5" fill="none" stroke="#000000" stroke-dasharray="none" d="M1138.551709568 197.99999999999997L1138.551709568 163.74999999999997">
</path>
<path stroke-width="0.3" fill="#000000" stroke="none" stroke-dasharray="none" d="M1041.9769671679999 162.99999999999997L1041.9769671679999 167.99999999999997L1138.801709568 167.99999999999997L1138.801709568 162.99999999999997Z">
</path>
<path stroke-width="0.3" fill="#000000" stroke="none" stroke-dasharray="none" d="M1041.9769671679999 170.49999999999997L1041.9769671679999 175.49999999999997L1138.801709568 175.49999999999997L1138.801709568 170.49999999999997Z">
</path>
</svg>