<svg width="1536" height="331.99999999999994" viewBox="0 0 1536 331.99999999999994">
<path stroke-width="1" fill="none" stroke="black" stroke-dasharray="none" d="M50 197.99999999999997L514.2250503679999 197.99999999999997">
</path>
<rect stroke-width="0.3" fill="black" stroke="black" stroke-dasharray="none" x="514.2250503679999" y="177.49999999999997" width="1" height="41">
</rect>
<path stroke-width="0.3" fill="black" stroke="none" stroke-dasharray="none" d="M55 197.99999999999997M55 197.99999999999997L55 188.00639999999999L57.1888 188.00639999999999L59.4064 188.00639999999999L59.4064 197.99999999999997L59.4064 208.02239999999998L57.1888 208.02239999999998L55 208.02239999999998L55 197.99999999999997M63.870400000000004 198.02879999999996L63.870400000000004 188.00639999999999L66.1168 188.00639999999999L68.3632 188.00639999999999L68.3632 198.02879999999996L68.3632 208.02239999999998L66.1168 208.02239999999998L63.870400000000004 208.02239999999998L63.870400000000004 198.02879999999996">
</path>
<path stroke-width="0.3" fill="black" stroke="none" stroke-dasharray="none" d="M96.1296 197.99999999999997M101.80319999999999 179.33759999999998C101.91839999999999 179.33759999999998,102.11999999999999 179.33759999999998,102.3504 179.33759999999998C102.8112 179.33759999999998,103.416 179.33759999999998,103.56 179.39519999999996C105.72 179.65439999999998,107.448 180.74879999999996,108.1968 182.27519999999998C108.45599999999999 182.79359999999997,108.57119999999999 183.34079999999997,108.57119999999999 183.91679999999997C108.57119999999999 185.32799999999997,107.7936 186.94079999999997,106.38239999999999 188.15039999999996C105.4032 188.98559999999998,104.42399999999999 189.50399999999996,102.8976 189.99359999999996C100.9104 190.62719999999996,99.21119999999999 191.75039999999998,98.1168 193.10399999999998C98.1168 193.10399999999998,98.1168 193.13279999999997,98.1168 193.13279999999997C98.1168 193.13279999999997,98.1168 193.13279999999997,98.1168 193.13279999999997C98.1168 193.13279999999997,98.2032 193.10399999999998,98.26079999999999 193.01759999999996C99.3552 192.12479999999996,100.824 191.60639999999998,102.1488 191.60639999999998C103.2432 191.60639999999998,104.0208 191.80799999999996,105.0576 192.38399999999996C105.6912 192.70079999999996,106.2672 192.84479999999996,106.81439999999999 192.84479999999996C107.0448 192.84479999999996,107.2752 192.84479999999996,107.53439999999999 192.78719999999998C107.9088 192.70079999999996,108.312 192.41279999999998,108.45599999999999 192.18239999999997C108.5424 191.98079999999996,108.68639999999999 191.89439999999996,108.8592 191.89439999999996C109.08959999999999 191.89439999999996,109.32 192.06719999999999,109.32 192.32639999999998C109.32 192.52799999999996,109.0608 193.24799999999996,108.8304 193.7376C107.9088 195.58079999999998,106.29599999999999 196.73279999999997,104.7408 196.73279999999997C104.62559999999999 196.73279999999997,104.5392 196.73279999999997,104.42399999999999 196.70399999999998C104.0208 196.70399999999998,103.848 196.58879999999996,103.3296 196.24319999999997C102.23519999999999 195.52319999999997,100.8528 195.14879999999997,99.6432 195.14879999999997C99.1248 195.14879999999997,98.664 195.20639999999997,98.232 195.37919999999997C97.65599999999999 195.58079999999998,97.1088 195.92639999999997,96.93599999999999 196.18559999999997C96.8496 196.38719999999998,96.70559999999999 196.44479999999996,96.5328 196.44479999999996C96.3888 196.44479999999996,96.2448 196.38719999999998,96.1584 196.21439999999998L96.10079999999999 196.128L96.10079999999999 195.72479999999996C96.10079999999999 195.37919999999997,96.1296 195.26399999999998,96.1296 195.14879999999997C96.1584 195.06239999999997,96.18719999999999 194.88959999999997,96.18719999999999 194.74559999999997C96.70559999999999 192.32639999999998,98.4624 190.16639999999998,100.8528 189.10079999999996C102.8112 188.17919999999998,104.10719999999999 186.53759999999997,104.3376 184.46399999999997C104.39519999999999 184.29119999999998,104.39519999999999 184.14719999999997,104.39519999999999 183.97439999999997C104.39519999999999 182.13119999999998,103.0128 180.86399999999998,101.0544 180.86399999999998C100.9104 180.86399999999998,100.7376 180.86399999999998,100.5936 180.86399999999998C100.3056 180.89279999999997,100.2192 180.89279999999997,100.2192 180.95039999999997C100.2192 180.95039999999997,100.2192 180.97919999999996,100.3056 181.03679999999997C100.96799999999999 181.41119999999998,101.28479999999999 182.13119999999998,101.28479999999999 182.82239999999996C101.28479999999999 183.71519999999998,100.824 184.55039999999997,99.93119999999999 184.89599999999996C99.6432 184.98239999999998,99.3552 185.01119999999997,99.1248 185.01119999999997C97.9152 185.01119999999997,96.9072 183.97439999999997,96.9072 182.73599999999996C96.9072 182.50559999999996,96.9072 182.27519999999998,96.9648 182.01599999999996C97.3968 180.69119999999998,99.4416 179.59679999999997,101.80319999999999 179.33759999999998M102.696 198.02879999999996L102.75359999999999 198.02879999999996L102.6672 198.02879999999996L102.696 198.02879999999996M102.696 178.61759999999998L102.75359999999999 178.61759999999998L102.6672 178.61759999999998L102.696 178.61759999999998">
</path>
<path stroke-width="0.3" fill="black" stroke="none" stroke-dasharray="none" d="M96 217.99999999999997M101.0112 199.65439999999998C101.04 199.62559999999996,101.4432 199.62559999999996,102.6816 199.62559999999996C103.056 199.62559999999996,103.4592 199.62559999999996,103.9776 199.62559999999996L106.8864 199.62559999999996L106.9728 199.71199999999996C107.1168 199.79839999999996,107.2032 199.94239999999996,107.2032 200.05759999999998C107.2032 200.23039999999997,107.1168 200.34559999999996,107.0016 200.46079999999998C106.9728 200.54719999999998,106.7136 200.77759999999998,106.5408 201.03679999999997L105.0144 202.79359999999997L103.056 205.01119999999997L102.0192 206.19199999999998L100.464 207.97759999999997L98.4192 210.31039999999996C98.0736 210.74239999999998,97.6992 211.08799999999997,97.6992 211.08799999999997C97.6992 211.08799999999997,97.6992 211.08799999999997,97.6992 211.08799999999997C97.6992 211.14559999999997,97.9584 211.14559999999997,100.3488 211.14559999999997L102.9696 211.14559999999997L102.9696 209.27359999999996C102.9696 207.37279999999998,102.9696 207.34399999999997,102.9984 207.31519999999998C103.056 207.22879999999998,103.3152 206.91199999999998,104.3232 205.73119999999997L104.7264 205.29919999999998L105.1296 204.86719999999997L105.7344 204.08959999999996L106.368 203.42719999999997L106.6848 203.02399999999997C106.8 202.85119999999998,106.9728 202.82239999999996,107.1168 202.82239999999996C107.28960000000001 202.82239999999996,107.4336 202.90879999999999,107.52 203.05279999999996C107.5488 203.13919999999996,107.5488 203.19679999999997,107.5488 205.32799999999997C107.5488 205.81759999999997,107.5488 206.42239999999998,107.5488 207.14239999999998L107.5488 211.14559999999997L108.2688 211.14559999999997C108.9312 211.14559999999997,108.96 211.14559999999997,109.0464 211.17439999999996C109.2768 211.26079999999996,109.392 211.49119999999996,109.392 211.75039999999998C109.392 211.89439999999996,109.3632 212.06719999999999,109.248 212.18239999999997C109.0752 212.32639999999998,109.0464 212.32639999999998,108.2688 212.32639999999998L107.5488 212.32639999999998L107.5488 212.81599999999997C107.5776 214.28479999999996,107.8656 214.86079999999998,108.9888 215.46559999999997C109.392 215.66719999999998,109.4784 215.72479999999996,109.4784 216.01279999999997C109.4784 216.21439999999998,109.4208 216.30079999999998,109.2768 216.41599999999997L109.1904 216.44479999999996L105.2448 216.44479999999996L101.328 216.44479999999996L101.2416 216.41599999999997C101.0688 216.30079999999998,101.04 216.21439999999998,101.04 216.01279999999997C101.04 215.72479999999996,101.0688 215.66719999999998,101.5008 215.46559999999997C102.624 214.86079999999998,102.912 214.28479999999996,102.912 212.81599999999997L102.912 212.32639999999998L99.6 212.32639999999998C98.9952 212.38399999999996,98.5056 212.38399999999996,98.1024 212.38399999999996C96.288 212.38399999999996,96.2592 212.32639999999998,96.2304 212.32639999999998C96.0576 212.26879999999997,96 212.09599999999998,96 211.89439999999996C96 211.89439999999996,96 211.89439999999996,96 211.89439999999996C96 211.69279999999998,96 211.69279999999998,96.576 211.0304C98.9952 208.09279999999998,100.6944 203.83039999999997,100.6944 200.43199999999996C100.6944 199.91359999999997,100.7808 199.74079999999998,101.0112 199.65439999999998M102.7392 218.02879999999996L102.768 218.02879999999996L102.6816 218.02879999999996L102.7392 218.02879999999996M102.7392 198.61759999999998L102.768 198.61759999999998L102.6816 198.61759999999998L102.7392 198.61759999999998">
</path>
<g class="vf-stavenote" id="vf-auto87501">
<g class="vf-note" pointer-events="bounding-box">
<g class="vf-notehead" pointer-events="bounding-box">
<path stroke-width="0.3" fill="#000000" stroke="none" stroke-dasharray="none" d="M147.3424768 197.99999999999997M154.69943679999997 192.77711999999997C154.81175679999998 192.77711999999997,154.9802368 192.77711999999997,155.0083168 192.77711999999997C155.0083168 192.77711999999997,155.03639679999998 192.77711999999997,155.03639679999998 192.77711999999997C155.03639679999998 192.77711999999997,155.2048768 192.77711999999997,155.3452768 192.77711999999997C157.8724768 192.91751999999997,159.36071679999998 194.57423999999997,159.36071679999998 196.65215999999998C159.36071679999998 197.66303999999997,159.0237568 198.81431999999998,158.18135679999997 199.90943999999996C156.58079679999997 202.07159999999996,153.96935679999999 203.25095999999996,151.69487679999997 203.25095999999996C149.92583679999998 203.25095999999996,148.40951679999998 202.54895999999997,147.6794368 201.11687999999998C147.4547968 200.55527999999998,147.3424768 200.02175999999997,147.3424768 199.43207999999998C147.3424768 196.37135999999998,150.76823679999998 192.97367999999997,154.69943679999997 192.77711999999997">
</path>
</g>
</g>
<g class="vf-modifiers">
<g class="vf-stavenote" id="vf-auto87511">
<g class="vf-note" pointer-events="bounding-box">
<g class="vf-stem" pointer-events="bounding-box">
<path stroke-width="1.5" fill="none" stroke="#000000" stroke-dasharray="none" d="M128.6604384 197.99999999999997L128.6604384 174.89999999999998">
</path>
</g>
<g class="vf-notehead" pointer-events="bounding-box">
<path stroke-width="0.3" fill="#000000" stroke="none" stroke-dasharray="none" d="M121.4784 197.99999999999997M126.3339936 194.55289919999998C126.4081248 194.55289919999998,126.5193216 194.55289919999998,126.5378544 194.55289919999998C126.5378544 194.55289919999998,126.55638719999999 194.55289919999998,126.55638719999999 194.55289919999998C126.55638719999999 194.55289919999998,126.66758399999999 194.55289919999998,126.76024799999999 194.55289919999998C128.4282 194.64556319999997,129.4104384 195.73899839999996,129.4104384 197.11042559999999C129.4104384 197.77760639999997,129.1880448 198.53745119999996,128.6320608 199.26023039999998C127.5756912 200.68725599999996,125.8521408 201.46563359999996,124.350984 201.46563359999996C123.1834176 201.46563359999996,122.1826464 201.00231359999998,121.7007936 200.05714079999998C121.55253119999999 199.68648479999996,121.4784 199.33436159999997,121.4784 198.94517279999997C121.4784 196.92509759999996,123.7394016 194.68262879999997,126.3339936 194.55289919999998">
</path>
</g>
<g class="vf-flag" pointer-events="bounding-box">
<path stroke-width="0.3" fill="#000000" stroke="none" stroke-dasharray="none" d="M128.6604384 172.89999999999998M128.2156512 175.88378079999998L128.2156512 172.992664L128.2897824 172.992664C128.4936432 172.992664,128.6233728 173.12239359999998,128.6604384 173.34478719999998C129.0496272 175.19806719999997,130.2171936 177.21814239999998,131.8295472 178.73783199999997C133.6272288 180.42431679999999,134.535336 182.74091679999998,134.535336 185.13164799999998C134.535336 187.39264959999997,133.7384256 189.74631519999997,132.126072 191.69225919999997C131.84808 192.06291519999996,131.8295472 192.06291519999996,131.6442192 192.06291519999996C131.4218256 192.06291519999996,131.2735632 191.89611999999997,131.2735632 191.67372639999996C131.2735632 191.50693119999997,131.29209600000002 191.4698656,131.477424 191.2660048C132.88591680000002 189.56098719999997,133.5901632 187.5038464,133.5901632 185.5393696C133.5901632 183.7972864,133.0341792 182.12933439999998,131.88514560000002 180.86910399999996C131.1808992 180.09072639999997,129.8836032 179.34941439999997,128.234184 178.77489759999997C128.234184 178.75636479999997,128.2156512 178.18184799999997,128.2156512 175.88378079999998">
</path>
</g>
</g>
<g class="vf-modifiers">
</g>
</g>
<path stroke-width="1" fill="none" stroke="#000000" stroke-dasharray="none" d="M122.4784 189.74999999999997L135.4784 180.74999999999997Z">
</path>
</g>
</g>
<g class="vf-stavenote" id="vf-auto87525">
<g class="vf-note" pointer-events="bounding-box">
<g class="vf-notehead" pointer-events="bounding-box">
<path stroke-width="0.3" fill="#000000" stroke="none" stroke-dasharray="none" d="M183.72563839999998 197.99999999999997M191.08259839999997 192.77711999999997C191.19491839999998 192.77711999999997,191.3633984 192.77711999999997,191.39147839999998 192.77711999999997C191.39147839999998 192.77711999999997,191.41955839999997 192.77711999999997,191.41955839999997 192.77711999999997C191.41955839999997 192.77711999999997,191.5880384 192.77711999999997,191.7284384 192.77711999999997C194.25563839999998 192.91751999999997,195.74387839999997 194.57423999999997,195.74387839999997 196.65215999999998C195.74387839999997 197.66303999999997,195.4069184 198.81431999999998,194.56451839999997 199.90943999999996C192.96395839999997 202.07159999999996,190.35251839999998 203.25095999999996,188.07803839999997 203.25095999999996C186.30899839999998 203.25095999999996,184.79267839999997 202.54895999999997,184.06259839999998 201.11687999999998C183.8379584 200.55527999999998,183.72563839999998 200.02175999999997,183.72563839999998 199.43207999999998C183.72563839999998 196.37135999999998,187.15139839999998 192.97367999999997,191.08259839999997 192.77711999999997">
</path>
</g>
</g>
<g class="vf-modifiers">
</g>
</g>
<g class="vf-stavenote" id="vf-auto87535">
<g class="vf-note" pointer-events="bounding-box">
<g class="vf-notehead" pointer-events="bounding-box">
<path stroke-width="0.3" fill="#000000" stroke="none" stroke-dasharray="none" d="M245.9728768 197.99999999999997M253.32983679999998 192.77711999999997C253.4421568 192.77711999999997,253.6106368 192.77711999999997,253.6387168 192.77711999999997C253.6387168 192.77711999999997,253.6667968 192.77711999999997,253.6667968 192.77711999999997C253.6667968 192.77711999999997,253.8352768 192.77711999999997,253.9756768 192.77711999999997C256.50287679999997 192.91751999999997,257.9911168 194.57423999999997,257.9911168 196.65215999999998C257.9911168 197.66303999999997,257.6541568 198.81431999999998,256.8117568 199.90943999999996C255.21119679999998 202.07159999999996,252.5997568 203.25095999999996,250.32527679999998 203.25095999999996C248.5562368 203.25095999999996,247.0399168 202.54895999999997,246.3098368 201.11687999999998C246.0851968 200.55527999999998,245.9728768 200.02175999999997,245.9728768 199.43207999999998C245.9728768 196.37135999999998,249.3986368 192.97367999999997,253.32983679999998 192.77711999999997">
</path>
</g>
</g>
<g class="vf-modifiers">
<g class="vf-stavenote" id="vf-auto87545">
<g class="vf-note" pointer-events="bounding-box">
<g class="vf-stem" pointer-events="bounding-box">
<path stroke-width="1.5" fill="none" stroke="#000000" stroke-dasharray="none" d="M227.2908384 197.99999999999997L227.2908384 174.89999999999998">
</path>
</g>
<g class="vf-notehead" pointer-events="bounding-box">
<path stroke-width="0.3" fill="#000000" stroke="none" stroke-dasharray="none" d="M220.1088 197.99999999999997M224.9643936 194.55289919999998C225.0385248 194.55289919999998,225.1497216 194.55289919999998,225.1682544 194.55289919999998C225.1682544 194.55289919999998,225.1867872 194.55289919999998,225.1867872 194.55289919999998C225.1867872 194.55289919999998,225.297984 194.55289919999998,225.390648 194.55289919999998C227.0586 194.64556319999997,228.0408384 195.73899839999996,228.0408384 197.11042559999999C228.0408384 197.77760639999997,227.8184448 198.53745119999996,227.2624608 199.26023039999998C226.2060912 200.68725599999996,224.4825408 201.46563359999996,222.981384 201.46563359999996C221.8138176 201.46563359999996,220.8130464 201.00231359999998,220.3311936 200.05714079999998C220.1829312 199.68648479999996,220.1088 199.33436159999997,220.1088 198.94517279999997C220.1088 196.92509759999996,222.36980160000002 194.68262879999997,224.9643936 194.55289919999998">
</path>
</g>
<g class="vf-flag" pointer-events="bounding-box">
<path stroke-width="0.3" fill="#000000" stroke="none" stroke-dasharray="none" d="M227.2908384 172.89999999999998M226.8460512 175.88378079999998L226.8460512 172.992664L226.92018240000002 172.992664C227.12404320000002 172.992664,227.2537728 173.12239359999998,227.2908384 173.34478719999998C227.6800272 175.19806719999997,228.8475936 177.21814239999998,230.45994720000002 178.73783199999997C232.25762880000002 180.42431679999999,233.165736 182.74091679999998,233.165736 185.13164799999998C233.165736 187.39264959999997,232.3688256 189.74631519999997,230.756472 191.69225919999997C230.47848000000002 192.06291519999996,230.45994720000002 192.06291519999996,230.27461920000002 192.06291519999996C230.0522256 192.06291519999996,229.90396320000002 191.89611999999997,229.90396320000002 191.67372639999996C229.90396320000002 191.50693119999997,229.92249600000002 191.4698656,230.10782400000002 191.2660048C231.51631680000003 189.56098719999997,232.22056320000002 187.5038464,232.22056320000002 185.5393696C232.22056320000002 183.7972864,231.66457920000002 182.12933439999998,230.51554560000002 180.86910399999996C229.8112992 180.09072639999997,228.51400320000002 179.34941439999997,226.864584 178.77489759999997C226.864584 178.75636479999997,226.8460512 178.18184799999997,226.8460512 175.88378079999998">
</path>
</g>
</g>
<g class="vf-modifiers">
</g>
</g>
<path stroke-width="1" fill="none" stroke="#000000" stroke-dasharray="none" d="M221.1088 189.74999999999997L234.1088 180.74999999999997Z">
</path>
</g>
</g>
<g class="vf-stavenote" id="vf-auto87559">
<g class="vf-note" pointer-events="bounding-box">
<g class="vf-notehead" pointer-events="bounding-box">
<path stroke-width="0.3" fill="#000000" stroke="none" stroke-dasharray="none" d="M282.3560384 197.99999999999997M289.7129984 192.77711999999997C289.8253184 192.77711999999997,289.9937984 192.77711999999997,290.0218784 192.77711999999997C290.0218784 192.77711999999997,290.0499584 192.77711999999997,290.0499584 192.77711999999997C290.0499584 192.77711999999997,290.21843839999997 192.77711999999997,290.35883839999997 192.77711999999997C292.88603839999996 192.91751999999997,294.3742784 194.57423999999997,294.3742784 196.65215999999998C294.3742784 197.66303999999997,294.0373184 198.81431999999998,293.1949184 199.90943999999996C291.5943584 202.07159999999996,288.9829184 203.25095999999996,286.7084384 203.25095999999996C284.9393984 203.25095999999996,283.4230784 202.54895999999997,282.69299839999996 201.11687999999998C282.4683584 200.55527999999998,282.3560384 200.02175999999997,282.3560384 199.43207999999998C282.3560384 196.37135999999998,285.7817984 192.97367999999997,289.7129984 192.77711999999997">
</path>
</g>
</g>
<g class="vf-modifiers">
</g>
</g>
<g class="vf-stavenote" id="vf-auto87569">
<g class="vf-note" pointer-events="bounding-box">
<g class="vf-notehead" pointer-events="bounding-box">
<path stroke-width="0.3" fill="#000000" stroke="none" stroke-dasharray="none" d="M344.6032768 197.99999999999997M351.9602368 192.77711999999997C352.07255680000003 192.77711999999997,352.2410368 192.77711999999997,352.2691168 192.77711999999997C352.2691168 192.77711999999997,352.2971968 192.77711999999997,352.2971968 192.77711999999997C352.2971968 192.77711999999997,352.4656768 192.77711999999997,352.6060768 192.77711999999997C355.1332768 192.91751999999997,356.6215168 194.57423999999997,356.6215168 196.65215999999998C356.6215168 197.66303999999997,356.2845568 198.81431999999998,355.4421568 199.90943999999996C353.8415968 202.07159999999996,351.23015680000003 203.25095999999996,348.9556768 203.25095999999996C347.18663680000003 203.25095999999996,345.6703168 202.54895999999997,344.9402368 201.11687999999998C344.7155968 200.55527999999998,344.6032768 200.02175999999997,344.6032768 199.43207999999998C344.6032768 196.37135999999998,348.02903680000003 192.97367999999997,351.9602368 192.77711999999997">
</path>
</g>
</g>
<g class="vf-modifiers">
<g class="vf-stavenote" id="vf-auto87579">
<g class="vf-note" pointer-events="bounding-box">
<g class="vf-stem" pointer-events="bounding-box">
<path stroke-width="1.5" fill="none" stroke="#000000" stroke-dasharray="none" d="M325.9212384 197.99999999999997L325.9212384 174.89999999999998">
</path>
</g>
<g class="vf-notehead" pointer-events="bounding-box">
<path stroke-width="0.3" fill="#000000" stroke="none" stroke-dasharray="none" d="M318.7392 197.99999999999997M323.5947936 194.55289919999998C323.66892479999996 194.55289919999998,323.7801216 194.55289919999998,323.7986544 194.55289919999998C323.7986544 194.55289919999998,323.8171872 194.55289919999998,323.8171872 194.55289919999998C323.8171872 194.55289919999998,323.928384 194.55289919999998,324.021048 194.55289919999998C325.68899999999996 194.64556319999997,326.6712384 195.73899839999996,326.6712384 197.11042559999999C326.6712384 197.77760639999997,326.44884479999996 198.53745119999996,325.8928608 199.26023039999998C324.83649119999995 200.68725599999996,323.1129408 201.46563359999996,321.611784 201.46563359999996C320.4442176 201.46563359999996,319.44344639999997 201.00231359999998,318.96159359999996 200.05714079999998C318.8133312 199.68648479999996,318.7392 199.33436159999997,318.7392 198.94517279999997C318.7392 196.92509759999996,321.00020159999997 194.68262879999997,323.5947936 194.55289919999998">
</path>
</g>
<g class="vf-flag" pointer-events="bounding-box">
<path stroke-width="0.3" fill="#000000" stroke="none" stroke-dasharray="none" d="M325.9212384 172.89999999999998M325.4764512 175.88378079999998L325.4764512 172.992664L325.5505824 172.992664C325.75444319999997 172.992664,325.8841728 173.12239359999998,325.9212384 173.34478719999998C326.3104272 175.19806719999997,327.4779936 177.21814239999998,329.0903472 178.73783199999997C330.8880288 180.42431679999999,331.796136 182.74091679999998,331.796136 185.13164799999998C331.796136 187.39264959999997,330.9992256 189.74631519999997,329.386872 191.69225919999997C329.10888 192.06291519999996,329.0903472 192.06291519999996,328.90501919999997 192.06291519999996C328.6826256 192.06291519999996,328.5343632 191.89611999999997,328.5343632 191.67372639999996C328.5343632 191.50693119999997,328.552896 191.4698656,328.738224 191.2660048C330.1467168 189.56098719999997,330.85096319999997 187.5038464,330.85096319999997 185.5393696C330.85096319999997 183.7972864,330.2949792 182.12933439999998,329.1459456 180.86910399999996C328.4416992 180.09072639999997,327.1444032 179.34941439999997,325.494984 178.77489759999997C325.494984 178.75636479999997,325.4764512 178.18184799999997,325.4764512 175.88378079999998">
</path>
</g>
</g>
<g class="vf-modifiers">
</g>
</g>
<path stroke-width="1" fill="none" stroke="#000000" stroke-dasharray="none" d="M319.7392 189.74999999999997L332.7392 180.74999999999997Z">
</path>
</g>
</g>
<g class="vf-stavenote" id="vf-auto87593">
<g class="vf-note" pointer-events="bounding-box">
<g class="vf-notehead" pointer-events="bounding-box">
<path stroke-width="0.3" fill="#000000" stroke="none" stroke-dasharray="none" d="M380.9864384 197.99999999999997M388.3433984 192.77711999999997C388.4557184 192.77711999999997,388.6241984 192.77711999999997,388.6522784 192.77711999999997C388.6522784 192.77711999999997,388.6803584 192.77711999999997,388.6803584 192.77711999999997C388.6803584 192.77711999999997,388.8488384 192.77711999999997,388.9892384 192.77711999999997C391.51643839999997 192.91751999999997,393.0046784 194.57423999999997,393.0046784 196.65215999999998C393.0046784 197.66303999999997,392.6677184 198.81431999999998,391.8253184 199.90943999999996C390.2247584 202.07159999999996,387.6133184 203.25095999999996,385.3388384 203.25095999999996C383.5697984 203.25095999999996,382.0534784 202.54895999999997,381.3233984 201.11687999999998C381.0987584 200.55527999999998,380.9864384 200.02175999999997,380.9864384 199.43207999999998C380.9864384 196.37135999999998,384.4121984 192.97367999999997,388.3433984 192.77711999999997">
</path>
</g>
</g>
<g class="vf-modifiers">
</g>
</g>
<g class="vf-stavenote" id="vf-auto87603">
<g class="vf-note" pointer-events="bounding-box">
<g class="vf-notehead" pointer-events="bounding-box">
<path stroke-width="0.3" fill="#000000" stroke="none" stroke-dasharray="none" d="M443.2336768 197.99999999999997M450.5906368 192.77711999999997C450.70295680000004 192.77711999999997,450.8714368 192.77711999999997,450.8995168 192.77711999999997C450.8995168 192.77711999999997,450.9275968 192.77711999999997,450.9275968 192.77711999999997C450.9275968 192.77711999999997,451.0960768 192.77711999999997,451.2364768 192.77711999999997C453.7636768 192.91751999999997,455.2519168 194.57423999999997,455.2519168 196.65215999999998C455.2519168 197.66303999999997,454.9149568 198.81431999999998,454.07255680000003 199.90943999999996C452.4719968 202.07159999999996,449.86055680000004 203.25095999999996,447.5860768 203.25095999999996C445.81703680000004 203.25095999999996,444.30071680000003 202.54895999999997,443.5706368 201.11687999999998C443.3459968 200.55527999999998,443.2336768 200.02175999999997,443.2336768 199.43207999999998C443.2336768 196.37135999999998,446.65943680000004 192.97367999999997,450.5906368 192.77711999999997">
</path>
</g>
</g>
<g class="vf-modifiers">
<g class="vf-stavenote" id="vf-auto87613">
<g class="vf-note" pointer-events="bounding-box">
<g class="vf-stem" pointer-events="bounding-box">
<path stroke-width="1.5" fill="none" stroke="#000000" stroke-dasharray="none" d="M424.5516384 197.99999999999997L424.5516384 174.89999999999998">
</path>
</g>
<g class="vf-notehead" pointer-events="bounding-box">
<path stroke-width="0.3" fill="#000000" stroke="none" stroke-dasharray="none" d="M417.3696 197.99999999999997M422.2251936 194.55289919999998C422.29932479999997 194.55289919999998,422.4105216 194.55289919999998,422.4290544 194.55289919999998C422.4290544 194.55289919999998,422.4475872 194.55289919999998,422.4475872 194.55289919999998C422.4475872 194.55289919999998,422.558784 194.55289919999998,422.651448 194.55289919999998C424.3194 194.64556319999997,425.3016384 195.73899839999996,425.3016384 197.11042559999999C425.3016384 197.77760639999997,425.07924479999997 198.53745119999996,424.5232608 199.26023039999998C423.46689119999996 200.68725599999996,421.7433408 201.46563359999996,420.242184 201.46563359999996C419.0746176 201.46563359999996,418.0738464 201.00231359999998,417.59199359999997 200.05714079999998C417.4437312 199.68648479999996,417.3696 199.33436159999997,417.3696 198.94517279999997C417.3696 196.92509759999996,419.6306016 194.68262879999997,422.2251936 194.55289919999998">
</path>
</g>
<g class="vf-flag" pointer-events="bounding-box">
<path stroke-width="0.3" fill="#000000" stroke="none" stroke-dasharray="none" d="M424.5516384 172.89999999999998M424.1068512 175.88378079999998L424.1068512 172.992664L424.1809824 172.992664C424.3848432 172.992664,424.5145728 173.12239359999998,424.5516384 173.34478719999998C424.9408272 175.19806719999997,426.1083936 177.21814239999998,427.7207472 178.73783199999997C429.5184288 180.42431679999999,430.426536 182.74091679999998,430.426536 185.13164799999998C430.426536 187.39264959999997,429.6296256 189.74631519999997,428.017272 191.69225919999997C427.73928 192.06291519999996,427.7207472 192.06291519999996,427.5354192 192.06291519999996C427.3130256 192.06291519999996,427.1647632 191.89611999999997,427.1647632 191.67372639999996C427.1647632 191.50693119999997,427.183296 191.4698656,427.368624 191.2660048C428.7771168 189.56098719999997,429.4813632 187.5038464,429.4813632 185.5393696C429.4813632 183.7972864,428.9253792 182.12933439999998,427.7763456 180.86910399999996C427.0720992 180.09072639999997,425.7748032 179.34941439999997,424.125384 178.77489759999997C424.125384 178.75636479999997,424.1068512 178.18184799999997,424.1068512 175.88378079999998">
</path>
</g>
</g>
<g class="vf-modifiers">
</g>
</g>
<path stroke-width="1" fill="none" stroke="#000000" stroke-dasharray="none" d="M418.3696 189.74999999999997L431.3696 180.74999999999997Z">
</path>
</g>
</g>
<g class="vf-stavenote" id="vf-auto87627">
<g class="vf-note" pointer-events="bounding-box">
<g class="vf-notehead" pointer-events="bounding-box">
<path stroke-width="0.3" fill="#000000" stroke="none" stroke-dasharray="none" d="M479.6168384 197.99999999999997M486.9737984 192.77711999999997C487.08611840000003 192.77711999999997,487.2545984 192.77711999999997,487.2826784 192.77711999999997C487.2826784 192.77711999999997,487.3107584 192.77711999999997,487.3107584 192.77711999999997C487.3107584 192.77711999999997,487.4792384 192.77711999999997,487.6196384 192.77711999999997C490.1468384 192.91751999999997,491.6350784 194.57423999999997,491.6350784 196.65215999999998C491.6350784 197.66303999999997,491.2981184 198.81431999999998,490.4557184 199.90943999999996C488.8551584 202.07159999999996,486.24371840000003 203.25095999999996,483.9692384 203.25095999999996C482.20019840000003 203.25095999999996,480.6838784 202.54895999999997,479.9537984 201.11687999999998C479.7291584 200.55527999999998,479.6168384 200.02175999999997,479.6168384 199.43207999999998C479.6168384 196.37135999999998,483.04259840000003 192.97367999999997,486.9737984 192.77711999999997">
</path>
</g>
</g>
<g class="vf-modifiers">
</g>
</g>
<path stroke-width="1.5" fill="none" stroke="#000000" stroke-dasharray="none" d="M158.61071679999998 197.99999999999997L158.61071679999998 163.74999999999997">
</path>
<path stroke-width="1.5" fill="none" stroke="#000000" stroke-dasharray="none" d="M194.99387839999997 197.99999999999997L194.99387839999997 163.74999999999997">
</path>
<path stroke-width="1.5" fill="none" stroke="#000000" stroke-dasharray="none" d="M257.2411168 197.99999999999997L257.2411168 163.74999999999997">
</path>
<path stroke-width="1.5" fill="none" stroke="#000000" stroke-dasharray="none" d="M293.6242784 197.99999999999997L293.6242784 163.74999999999997">
</path>
<path stroke-width="0.3" fill="#000000" stroke="none" stroke-dasharray="none" d="M157.86071679999998 162.99999999999997L157.86071679999998 167.99999999999997L293.8742784 167.99999999999997L293.8742784 162.99999999999997Z">
</path>
<path stroke-width="0.3" fill="#000000" stroke="none" stroke-dasharray="none" d="M157.86071679999998 170.49999999999997L157.86071679999998 175.49999999999997L293.8742784 175.49999999999997L293.8742784 170.49999999999997Z">
</path>
<path stroke-width="1.5" fill="none" stroke="#000000" stroke-dasharray="none" d="M355.8715168 197.99999999999997L355.8715168 163.74999999999997">
</path>
<path stroke-width="1.5" fill="none" stroke="#000000" stroke-dasharray="none" d="M392.2546784 197.99999999999997L392.2546784 163.74999999999997">
</path>
<path stroke-width="1.5" fill="none" stroke="#000000" stroke-dasharray="none" d="M454.5019168 197.99999999999997L454.5019168 163.74999999999997">
</path>
<path stroke-width="1.5" fill="none" stroke="#000000" stroke-dasharray="none" d="M490.8850784 197.99999999999997L490.8850784 163.74999999999997">
</path>
<path stroke-width="0.3" fill="#000000" stroke="none" stroke-dasharray="none" d="M355.1215168 162.99999999999997L355.1215168 167.99999999999997L491.1350784 167.99999999999997L491.1350784 162.99999999999997Z">
</path>
<path stroke-width="0.3" fill="#000000" stroke="none" stroke-dasharray="none" d="M355.1215168 170.49999999999997L355.1215168 175.49999999999997L491.1350784 175.49999999999997L491.1350784 170.49999999999997Z">
</path>
<path stroke-width="1" fill="none" stroke="black" stroke-dasharray="none" d="M514.2250503679999 197.99999999999997L1219.1402483199995 197.99999999999997">
</path>
<rect stroke-width="0.3" fill="black" stroke="black" stroke-dasharray="none" x="1214.1402483199995" y="177.49999999999997" width="1" height="41">
</rect>
<rect stroke-width="0.3" fill="black" stroke="black" stroke-dasharray="none" x="1217.1402483199995" y="177.49999999999997" width="3" height="41">
</rect>
<path stroke-width="0.3" fill="black" stroke="none" stroke-dasharray="none" d="M1213.1402483199995 193.49999999999997 A2 2 0 0 0 1209.1402483199995 193.49999999999997M1209.1402483199995 193.49999999999997 A2 2 0 0 0 1213.1402483199995 193.49999999999997">
</path>
<path stroke-width="0.3" fill="black" stroke="none" stroke-dasharray="none" d="M1213.1402483199995 203.49999999999997 A2 2 0 0 0 1209.1402483199995 203.49999999999997M1209.1402483199995 203.49999999999997 A2 2 0 0 0 1213.1402483199995 203.49999999999997">
</path>
<path stroke-width="0.3" fill="black" stroke="none" stroke-dasharray="none" d="M519.2250503679999 197.99999999999997M524.2362503679999 179.65439999999998C524.2650503679998 179.62559999999996,524.6682503679999 179.62559999999996,525.9066503679999 179.62559999999996C526.2810503679999 179.62559999999996,526.6842503679999 179.62559999999996,527.2026503679999 179.62559999999996L530.1114503679999 179.62559999999996L530.1978503679999 179.71199999999996C530.3418503679999 179.79839999999996,530.4282503679999 179.94239999999996,530.4282503679999 180.05759999999998C530.4282503679999 180.23039999999997,530.3418503679999 180.34559999999996,530.2266503679999 180.46079999999998C530.1978503679999 180.54719999999998,529.9386503679999 180.77759999999998,529.7658503679999 181.03679999999997L528.2394503679999 182.79359999999997L526.2810503679999 185.01119999999997L525.2442503679998 186.19199999999998L523.6890503679999 187.97759999999997L521.6442503679999 190.31039999999996C521.2986503679999 190.74239999999998,520.9242503679999 191.08799999999997,520.9242503679999 191.08799999999997C520.9242503679999 191.08799999999997,520.9242503679999 191.08799999999997,520.9242503679999 191.08799999999997C520.9242503679999 191.14559999999997,521.1834503679999 191.14559999999997,523.5738503679999 191.14559999999997L526.1946503679999 191.14559999999997L526.1946503679999 189.27359999999996C526.1946503679999 187.37279999999998,526.1946503679999 187.34399999999997,526.2234503679998 187.31519999999998C526.2810503679999 187.22879999999998,526.5402503679999 186.91199999999998,527.5482503679999 185.73119999999997L527.9514503679999 185.29919999999998L528.3546503679999 184.86719999999997L528.9594503679999 184.08959999999996L529.5930503679999 183.42719999999997L529.9098503679999 183.02399999999997C530.0250503679998 182.85119999999998,530.1978503679999 182.82239999999996,530.3418503679999 182.82239999999996C530.5146503679998 182.82239999999996,530.6586503679998 182.90879999999999,530.7450503679999 183.05279999999996C530.7738503679999 183.13919999999996,530.7738503679999 183.19679999999997,530.7738503679999 185.32799999999997C530.7738503679999 185.81759999999997,530.7738503679999 186.42239999999998,530.7738503679999 187.14239999999998L530.7738503679999 191.14559999999997L531.4938503679998 191.14559999999997C532.1562503679999 191.14559999999997,532.1850503679999 191.14559999999997,532.2714503679998 191.17439999999996C532.5018503679999 191.26079999999996,532.6170503679999 191.49119999999996,532.6170503679999 191.75039999999998C532.6170503679999 191.89439999999996,532.5882503679999 192.06719999999999,532.4730503679999 192.18239999999997C532.3002503679999 192.32639999999998,532.2714503679998 192.32639999999998,531.4938503679998 192.32639999999998L530.7738503679999 192.32639999999998L530.7738503679999 192.81599999999997C530.8026503679998 194.28479999999996,531.0906503679998 194.86079999999998,532.2138503679998 195.46559999999997C532.6170503679999 195.66719999999998,532.7034503679998 195.72479999999996,532.7034503679998 196.01279999999997C532.7034503679998 196.21439999999998,532.6458503679999 196.30079999999998,532.5018503679999 196.41599999999997L532.4154503679998 196.44479999999996L528.4698503679999 196.44479999999996L524.5530503679998 196.44479999999996L524.4666503679998 196.41599999999997C524.2938503679999 196.30079999999998,524.2650503679998 196.21439999999998,524.2650503679998 196.01279999999997C524.2650503679998 195.72479999999996,524.2938503679999 195.66719999999998,524.7258503679999 195.46559999999997C525.8490503679999 194.86079999999998,526.1370503679999 194.28479999999996,526.1370503679999 192.81599999999997L526.1370503679999 192.32639999999998L522.8250503679999 192.32639999999998C522.2202503679998 192.38399999999996,521.7306503679998 192.38399999999996,521.3274503679999 192.38399999999996C519.5130503679999 192.38399999999996,519.4842503679998 192.32639999999998,519.4554503679999 192.32639999999998C519.2826503679998 192.26879999999997,519.2250503679999 192.09599999999998,519.2250503679999 191.89439999999996C519.2250503679999 191.89439999999996,519.2250503679999 191.89439999999996,519.2250503679999 191.89439999999996C519.2250503679999 191.69279999999998,519.2250503679999 191.69279999999998,519.8010503679999 191.0304C522.2202503679998 188.09279999999998,523.9194503679998 183.83039999999997,523.9194503679998 180.43199999999996C523.9194503679998 179.91359999999997,524.0058503679999 179.74079999999998,524.2362503679999 179.65439999999998M525.9642503679999 198.02879999999996L525.9930503679999 198.02879999999996L525.9066503679999 198.02879999999996L525.9642503679999 198.02879999999996M525.9642503679999 178.61759999999998L525.9930503679999 178.61759999999998L525.9066503679999 178.61759999999998L525.9642503679999 178.61759999999998">
</path>
<path stroke-width="0.3" fill="black" stroke="none" stroke-dasharray="none" d="M519.2250503679999 217.99999999999997M524.2362503679999 199.65439999999998C524.2650503679998 199.62559999999996,524.6682503679999 199.62559999999996,525.9066503679999 199.62559999999996C526.2810503679999 199.62559999999996,526.6842503679999 199.62559999999996,527.2026503679999 199.62559999999996L530.1114503679999 199.62559999999996L530.1978503679999 199.71199999999996C530.3418503679999 199.79839999999996,530.4282503679999 199.94239999999996,530.4282503679999 200.05759999999998C530.4282503679999 200.23039999999997,530.3418503679999 200.34559999999996,530.2266503679999 200.46079999999998C530.1978503679999 200.54719999999998,529.9386503679999 200.77759999999998,529.7658503679999 201.03679999999997L528.2394503679999 202.79359999999997L526.2810503679999 205.01119999999997L525.2442503679998 206.19199999999998L523.6890503679999 207.97759999999997L521.6442503679999 210.31039999999996C521.2986503679999 210.74239999999998,520.9242503679999 211.08799999999997,520.9242503679999 211.08799999999997C520.9242503679999 211.08799999999997,520.9242503679999 211.08799999999997,520.9242503679999 211.08799999999997C520.9242503679999 211.14559999999997,521.1834503679999 211.14559999999997,523.5738503679999 211.14559999999997L526.1946503679999 211.14559999999997L526.1946503679999 209.27359999999996C526.1946503679999 207.37279999999998,526.1946503679999 207.34399999999997,526.2234503679998 207.31519999999998C526.2810503679999 207.22879999999998,526.5402503679999 206.91199999999998,527.5482503679999 205.73119999999997L527.9514503679999 205.29919999999998L528.3546503679999 204.86719999999997L528.9594503679999 204.08959999999996L529.5930503679999 203.42719999999997L529.9098503679999 203.02399999999997C530.0250503679998 202.85119999999998,530.1978503679999 202.82239999999996,530.3418503679999 202.82239999999996C530.5146503679998 202.82239999999996,530.6586503679998 202.90879999999999,530.7450503679999 203.05279999999996C530.7738503679999 203.13919999999996,530.7738503679999 203.19679999999997,530.7738503679999 205.32799999999997C530.7738503679999 205.81759999999997,530.7738503679999 206.42239999999998,530.7738503679999 207.14239999999998L530.7738503679999 211.14559999999997L531.4938503679998 211.14559999999997C532.1562503679999 211.14559999999997,532.1850503679999 211.14559999999997,532.2714503679998 211.17439999999996C532.5018503679999 211.26079999999996,532.6170503679999 211.49119999999996,532.6170503679999 211.75039999999998C532.6170503679999 211.89439999999996,532.5882503679999 212.06719999999999,532.4730503679999 212.18239999999997C532.3002503679999 212.32639999999998,532.2714503679998 212.32639999999998,531.4938503679998 212.32639999999998L530.7738503679999 212.32639999999998L530.7738503679999 212.81599999999997C530.8026503679998 214.28479999999996,531.0906503679998 214.86079999999998,532.2138503679998 215.46559999999997C532.6170503679999 215.66719999999998,532.7034503679998 215.72479999999996,532.7034503679998 216.01279999999997C532.7034503679998 216.21439999999998,532.6458503679999 216.30079999999998,532.5018503679999 216.41599999999997L532.4154503679998 216.44479999999996L528.4698503679999 216.44479999999996L524.5530503679998 216.44479999999996L524.4666503679998 216.41599999999997C524.2938503679999 216.30079999999998,524.2650503679998 216.21439999999998,524.2650503679998 216.01279999999997C524.2650503679998 215.72479999999996,524.2938503679999 215.66719999999998,524.7258503679999 215.46559999999997C525.8490503679999 214.86079999999998,526.1370503679999 214.28479999999996,526.1370503679999 212.81599999999997L526.1370503679999 212.32639999999998L522.8250503679999 212.32639999999998C522.2202503679998 212.38399999999996,521.7306503679998 212.38399999999996,521.3274503679999 212.38399999999996C519.5130503679999 212.38399999999996,519.4842503679998 212.32639999999998,519.4554503679999 212.32639999999998C519.2826503679998 212.26879999999997,519.2250503679999 212.09599999999998,519.2250503679999 211.89439999999996C519.2250503679999 211.89439999999996,519.2250503679999 211.89439999999996,519.2250503679999 211.89439999999996C519.2250503679999 211.69279999999998,519.2250503679999 211.69279999999998,519.8010503679999 211.0304C522.2202503679998 208.09279999999998,523.9194503679998 203.83039999999997,523.9194503679998 200.43199999999996C523.9194503679998 199.91359999999997,524.0058503679999 199.74079999999998,524.2362503679999 199.65439999999998M525.9642503679999 218.02879999999996L525.9930503679999 218.02879999999996L525.9066503679999 218.02879999999996L525.9642503679999 218.02879999999996M525.9642503679999 198.61759999999998L525.9930503679999 198.61759999999998L525.9066503679999 198.61759999999998L525.9642503679999 198.61759999999998">
</path>
<g class="vf-stavenote" id="vf-auto87640">
<g class="vf-note" pointer-events="bounding-box">
<g class="vf-notehead" pointer-events="bounding-box">
<path stroke-width="0.3" fill="#000000" stroke="none" stroke-dasharray="none" d="M570.5675271679999 197.99999999999997M577.9244871679998 192.77711999999997C578.0368071679999 192.77711999999997,578.2052871679998 192.77711999999997,578.2333671679999 192.77711999999997C578.2333671679999 192.77711999999997,578.2614471679999 192.77711999999997,578.2614471679999 192.77711999999997C578.2614471679999 192.77711999999997,578.4299271679998 192.77711999999997,578.5703271679998 192.77711999999997C581.0975271679998 192.91751999999997,582.5857671679998 194.57423999999997,582.5857671679998 196.65215999999998C582.5857671679998 197.66303999999997,582.2488071679999 198.81431999999998,581.4064071679999 199.90943999999996C579.8058471679999 202.07159999999996,577.1944071679999 203.25095999999996,574.9199271679998 203.25095999999996C573.1508871679998 203.25095999999996,571.6345671679999 202.54895999999997,570.9044871679998 201.11687999999998C570.6798471679998 200.55527999999998,570.5675271679999 200.02175999999997,570.5675271679999 199.43207999999998C570.5675271679999 196.37135999999998,573.9932871679998 192.97367999999997,577.9244871679998 192.77711999999997">
</path>
</g>
</g>
<g class="vf-modifiers">
<g class="vf-stavenote" id="vf-auto87650">
<g class="vf-note" pointer-events="bounding-box">
<g class="vf-stem" pointer-events="bounding-box">
<path stroke-width="1.5" fill="none" stroke="#000000" stroke-dasharray="none" d="M551.8854887679998 197.99999999999997L551.8854887679998 174.89999999999998">
</path>
</g>
<g class="vf-notehead" pointer-events="bounding-box">
<path stroke-width="0.3" fill="#000000" stroke="none" stroke-dasharray="none" d="M544.7034503679998 197.99999999999997M549.5590439679999 194.55289919999998C549.6331751679999 194.55289919999998,549.7443719679999 194.55289919999998,549.7629047679999 194.55289919999998C549.7629047679999 194.55289919999998,549.7814375679999 194.55289919999998,549.7814375679999 194.55289919999998C549.7814375679999 194.55289919999998,549.8926343679998 194.55289919999998,549.9852983679998 194.55289919999998C551.6532503679998 194.64556319999997,552.6354887679998 195.73899839999996,552.6354887679998 197.11042559999999C552.6354887679998 197.77760639999997,552.4130951679998 198.53745119999996,551.8571111679998 199.26023039999998C550.8007415679998 200.68725599999996,549.0771911679998 201.46563359999996,547.5760343679998 201.46563359999996C546.4084679679999 201.46563359999996,545.4076967679998 201.00231359999998,544.9258439679999 200.05714079999998C544.7775815679998 199.68648479999996,544.7034503679998 199.33436159999997,544.7034503679998 198.94517279999997C544.7034503679998 196.92509759999996,546.9644519679998 194.68262879999997,549.5590439679999 194.55289919999998">
</path>
</g>
<g class="vf-flag" pointer-events="bounding-box">
<path stroke-width="0.3" fill="#000000" stroke="none" stroke-dasharray="none" d="M551.8854887679998 172.89999999999998M551.4407015679999 175.88378079999998L551.4407015679999 172.992664L551.5148327679998 172.992664C551.7186935679998 172.992664,551.8484231679998 173.12239359999998,551.8854887679998 173.34478719999998C552.2746775679999 175.19806719999997,553.4422439679998 177.21814239999998,555.0545975679998 178.73783199999997C556.8522791679999 180.42431679999999,557.7603863679999 182.74091679999998,557.7603863679999 185.13164799999998C557.7603863679999 187.39264959999997,556.9634759679999 189.74631519999997,555.3511223679999 191.69225919999997C555.0731303679999 192.06291519999996,555.0545975679998 192.06291519999996,554.8692695679998 192.06291519999996C554.6468759679998 192.06291519999996,554.4986135679999 191.89611999999997,554.4986135679999 191.67372639999996C554.4986135679999 191.50693119999997,554.5171463679999 191.4698656,554.7024743679998 191.2660048C556.1109671679999 189.56098719999997,556.8152135679999 187.5038464,556.8152135679999 185.5393696C556.8152135679999 183.7972864,556.2592295679998 182.12933439999998,555.1101959679999 180.86910399999996C554.4059495679999 180.09072639999997,553.1086535679998 179.34941439999997,551.4592343679999 178.77489759999997C551.4592343679999 178.75636479999997,551.4407015679999 178.18184799999997,551.4407015679999 175.88378079999998">
</path>
</g>
</g>
<g class="vf-modifiers">
</g>
</g>
<path stroke-width="1" fill="none" stroke="#000000" stroke-dasharray="none" d="M545.7034503679998 189.74999999999997L558.7034503679998 180.74999999999997Z">
</path>
</g>
</g>
<g class="vf-stavenote" id="vf-auto87664">
<g class="vf-note" pointer-events="bounding-box">
<g class="vf-notehead" pointer-events="bounding-box">
<path stroke-width="0.3" fill="#000000" stroke="none" stroke-dasharray="none" d="M603.0885983679998 197.99999999999997M610.4455583679998 192.77711999999997C610.5578783679998 192.77711999999997,610.7263583679998 192.77711999999997,610.7544383679998 192.77711999999997C610.7544383679998 192.77711999999997,610.7825183679998 192.77711999999997,610.7825183679998 192.77711999999997C610.7825183679998 192.77711999999997,610.9509983679998 192.77711999999997,611.0913983679998 192.77711999999997C613.6185983679998 192.91751999999997,615.1068383679998 194.57423999999997,615.1068383679998 196.65215999999998C615.1068383679998 197.66303999999997,614.7698783679998 198.81431999999998,613.9274783679998 199.90943999999996C612.3269183679998 202.07159999999996,609.7154783679998 203.25095999999996,607.4409983679998 203.25095999999996C605.6719583679998 203.25095999999996,604.1556383679998 202.54895999999997,603.4255583679998 201.11687999999998C603.2009183679997 200.55527999999998,603.0885983679998 200.02175999999997,603.0885983679998 199.43207999999998C603.0885983679998 196.37135999999998,606.5143583679998 192.97367999999997,610.4455583679998 192.77711999999997">
</path>
</g>
</g>
<g class="vf-modifiers">
</g>
</g>
<g class="vf-stavenote" id="vf-auto87674">
<g class="vf-note" pointer-events="bounding-box">
<g class="vf-notehead" pointer-events="bounding-box">
<path stroke-width="0.3" fill="#000000" stroke="none" stroke-dasharray="none" d="M661.4737463679999 197.99999999999997M668.8307063679998 192.77711999999997C668.9430263679999 192.77711999999997,669.1115063679998 192.77711999999997,669.1395863679999 192.77711999999997C669.1395863679999 192.77711999999997,669.1676663679999 192.77711999999997,669.1676663679999 192.77711999999997C669.1676663679999 192.77711999999997,669.3361463679998 192.77711999999997,669.4765463679998 192.77711999999997C672.0037463679998 192.91751999999997,673.4919863679999 194.57423999999997,673.4919863679999 196.65215999999998C673.4919863679999 197.66303999999997,673.1550263679999 198.81431999999998,672.3126263679999 199.90943999999996C670.7120663679999 202.07159999999996,668.1006263679999 203.25095999999996,665.8261463679999 203.25095999999996C664.0571063679998 203.25095999999996,662.5407863679999 202.54895999999997,661.8107063679998 201.11687999999998C661.5860663679998 200.55527999999998,661.4737463679999 200.02175999999997,661.4737463679999 199.43207999999998C661.4737463679999 196.37135999999998,664.8995063679998 192.97367999999997,668.8307063679998 192.77711999999997">
</path>
</g>
</g>
<g class="vf-modifiers">
<g class="vf-stavenote" id="vf-auto87684">
<g class="vf-note" pointer-events="bounding-box">
<g class="vf-stem" pointer-events="bounding-box">
<path stroke-width="1.5" fill="none" stroke="#000000" stroke-dasharray="none" d="M642.7917079679999 197.99999999999997L642.7917079679999 174.89999999999998">
</path>
</g>
<g class="vf-notehead" pointer-events="bounding-box">
<path stroke-width="0.3" fill="#000000" stroke="none" stroke-dasharray="none" d="M635.6096695679998 197.99999999999997M640.4652631679999 194.55289919999998C640.5393943679999 194.55289919999998,640.6505911679999 194.55289919999998,640.6691239679999 194.55289919999998C640.6691239679999 194.55289919999998,640.6876567679999 194.55289919999998,640.6876567679999 194.55289919999998C640.6876567679999 194.55289919999998,640.7988535679998 194.55289919999998,640.8915175679998 194.55289919999998C642.5594695679998 194.64556319999997,643.5417079679999 195.73899839999996,643.5417079679999 197.11042559999999C643.5417079679999 197.77760639999997,643.3193143679998 198.53745119999996,642.7633303679999 199.26023039999998C641.7069607679998 200.68725599999996,639.9834103679998 201.46563359999996,638.4822535679998 201.46563359999996C637.3146871679999 201.46563359999996,636.3139159679998 201.00231359999998,635.8320631679999 200.05714079999998C635.6838007679999 199.68648479999996,635.6096695679998 199.33436159999997,635.6096695679998 198.94517279999997C635.6096695679998 196.92509759999996,637.8706711679998 194.68262879999997,640.4652631679999 194.55289919999998">
</path>
</g>
<g class="vf-flag" pointer-events="bounding-box">
<path stroke-width="0.3" fill="#000000" stroke="none" stroke-dasharray="none" d="M642.7917079679999 172.89999999999998M642.3469207679999 175.88378079999998L642.3469207679999 172.992664L642.4210519679998 172.992664C642.6249127679998 172.992664,642.7546423679998 173.12239359999998,642.7917079679999 173.34478719999998C643.1808967679999 175.19806719999997,644.3484631679999 177.21814239999998,645.9608167679999 178.73783199999997C647.7584983679999 180.42431679999999,648.6666055679999 182.74091679999998,648.6666055679999 185.13164799999998C648.6666055679999 187.39264959999997,647.8696951679999 189.74631519999997,646.2573415679999 191.69225919999997C645.9793495679999 192.06291519999996,645.9608167679999 192.06291519999996,645.7754887679998 192.06291519999996C645.5530951679998 192.06291519999996,645.4048327679999 191.89611999999997,645.4048327679999 191.67372639999996C645.4048327679999 191.50693119999997,645.4233655679999 191.4698656,645.6086935679998 191.2660048C647.0171863679999 189.56098719999997,647.7214327679999 187.5038464,647.7214327679999 185.5393696C647.7214327679999 183.7972864,647.1654487679998 182.12933439999998,646.0164151679999 180.86910399999996C645.3121687679999 180.09072639999997,644.0148727679998 179.34941439999997,642.3654535679999 178.77489759999997C642.3654535679999 178.75636479999997,642.3469207679999 178.18184799999997,642.3469207679999 175.88378079999998">
</path>
</g>
</g>
<g class="vf-modifiers">
</g>
</g>
<path stroke-width="1" fill="none" stroke="#000000" stroke-dasharray="none" d="M636.6096695679998 189.74999999999997L649.6096695679998 180.74999999999997Z">
</path>
</g>
</g>
<g class="vf-stavenote" id="vf-auto87698">
<g class="vf-note" pointer-events="bounding-box">
<g class="vf-notehead" pointer-events="bounding-box">
<path stroke-width="0.3" fill="#000000" stroke="none" stroke-dasharray="none" d="M693.9948175679999 197.99999999999997M701.3517775679999 192.77711999999997C701.4640975679999 192.77711999999997,701.6325775679999 192.77711999999997,701.6606575679999 192.77711999999997C701.6606575679999 192.77711999999997,701.688737568 192.77711999999997,701.688737568 192.77711999999997C701.688737568 192.77711999999997,701.8572175679999 192.77711999999997,701.9976175679999 192.77711999999997C704.5248175679999 192.91751999999997,706.0130575679999 194.57423999999997,706.0130575679999 196.65215999999998C706.0130575679999 197.66303999999997,705.6760975679999 198.81431999999998,704.8336975679999 199.90943999999996C703.233137568 202.07159999999996,700.621697568 203.25095999999996,698.3472175679999 203.25095999999996C696.5781775679999 203.25095999999996,695.0618575679999 202.54895999999997,694.3317775679999 201.11687999999998C694.1071375679999 200.55527999999998,693.9948175679999 200.02175999999997,693.9948175679999 199.43207999999998C693.9948175679999 196.37135999999998,697.4205775679999 192.97367999999997,701.3517775679999 192.77711999999997">
</path>
</g>
</g>
<g class="vf-modifiers">
</g>
</g>
<g class="vf-stavenote" id="vf-auto87708">
<g class="vf-note" pointer-events="bounding-box">
<g class="vf-notehead" pointer-events="bounding-box">
<path stroke-width="0.3" fill="#000000" stroke="none" stroke-dasharray="none" d="M752.3799655679999 197.99999999999997M759.7369255679998 192.77711999999997C759.8492455679999 192.77711999999997,760.0177255679998 192.77711999999997,760.0458055679999 192.77711999999997C760.0458055679999 192.77711999999997,760.0738855679999 192.77711999999997,760.0738855679999 192.77711999999997C760.0738855679999 192.77711999999997,760.2423655679999 192.77711999999997,760.3827655679999 192.77711999999997C762.9099655679998 192.91751999999997,764.3982055679999 194.57423999999997,764.3982055679999 196.65215999999998C764.3982055679999 197.66303999999997,764.0612455679999 198.81431999999998,763.2188455679999 199.90943999999996C761.6182855679999 202.07159999999996,759.0068455679999 203.25095999999996,756.7323655679999 203.25095999999996C754.9633255679998 203.25095999999996,753.4470055679999 202.54895999999997,752.7169255679999 201.11687999999998C752.4922855679998 200.55527999999998,752.3799655679999 200.02175999999997,752.3799655679999 199.43207999999998C752.3799655679999 196.37135999999998,755.8057255679998 192.97367999999997,759.7369255679998 192.77711999999997">
</path>
</g>
</g>
<g class="vf-modifiers">
<g class="vf-stavenote" id="vf-auto87718">
<g class="vf-note" pointer-events="bounding-box">
<g class="vf-stem" pointer-events="bounding-box">
<path stroke-width="1.5" fill="none" stroke="#000000" stroke-dasharray="none" d="M733.6979271679999 197.99999999999997L733.6979271679999 174.89999999999998">
</path>
</g>
<g class="vf-notehead" pointer-events="bounding-box">
<path stroke-width="0.3" fill="#000000" stroke="none" stroke-dasharray="none" d="M726.5158887679999 197.99999999999997M731.3714823679999 194.55289919999998C731.4456135679999 194.55289919999998,731.5568103679999 194.55289919999998,731.5753431679999 194.55289919999998C731.5753431679999 194.55289919999998,731.5938759679999 194.55289919999998,731.5938759679999 194.55289919999998C731.5938759679999 194.55289919999998,731.7050727679998 194.55289919999998,731.7977367679998 194.55289919999998C733.4656887679998 194.64556319999997,734.4479271679999 195.73899839999996,734.4479271679999 197.11042559999999C734.4479271679999 197.77760639999997,734.2255335679998 198.53745119999996,733.6695495679999 199.26023039999998C732.6131799679998 200.68725599999996,730.8896295679998 201.46563359999996,729.3884727679998 201.46563359999996C728.2209063679999 201.46563359999996,727.2201351679998 201.00231359999998,726.7382823679999 200.05714079999998C726.5900199679999 199.68648479999996,726.5158887679999 199.33436159999997,726.5158887679999 198.94517279999997C726.5158887679999 196.92509759999996,728.7768903679998 194.68262879999997,731.3714823679999 194.55289919999998">
</path>
</g>
<g class="vf-flag" pointer-events="bounding-box">
<path stroke-width="0.3" fill="#000000" stroke="none" stroke-dasharray="none" d="M733.6979271679999 172.89999999999998M733.2531399679999 175.88378079999998L733.2531399679999 172.992664L733.3272711679998 172.992664C733.5311319679998 172.992664,733.6608615679999 173.12239359999998,733.6979271679999 173.34478719999998C734.0871159679999 175.19806719999997,735.2546823679999 177.21814239999998,736.8670359679999 178.73783199999997C738.6647175679999 180.42431679999999,739.5728247679999 182.74091679999998,739.5728247679999 185.13164799999998C739.5728247679999 187.39264959999997,738.7759143679999 189.74631519999997,737.1635607679999 191.69225919999997C736.8855687679999 192.06291519999996,736.8670359679999 192.06291519999996,736.6817079679998 192.06291519999996C736.4593143679998 192.06291519999996,736.3110519679999 191.89611999999997,736.3110519679999 191.67372639999996C736.3110519679999 191.50693119999997,736.3295847679999 191.4698656,736.5149127679998 191.2660048C737.9234055679999 189.56098719999997,738.6276519679999 187.5038464,738.6276519679999 185.5393696C738.6276519679999 183.7972864,738.0716679679998 182.12933439999998,736.9226343679999 180.86910399999996C736.2183879679999 180.09072639999997,734.9210919679998 179.34941439999997,733.2716727679999 178.77489759999997C733.2716727679999 178.75636479999997,733.2531399679999 178.18184799999997,733.2531399679999 175.88378079999998">
</path>
</g>
</g>
<g class="vf-modifiers">
</g>
</g>
<path stroke-width="1" fill="none" stroke="#000000" stroke-dasharray="none" d="M727.5158887679999 189.74999999999997L740.5158887679999 180.74999999999997Z">
</path>
</g>
</g>
<g class="vf-stavenote" id="vf-auto87732">
<g class="vf-note" pointer-events="bounding-box">
<g class="vf-notehead" pointer-events="bounding-box">
<path stroke-width="0.3" fill="#000000" stroke="none" stroke-dasharray="none" d="M784.9010367679998 197.99999999999997M792.2579967679998 192.77711999999997C792.3703167679998 192.77711999999997,792.5387967679998 192.77711999999997,792.5668767679998 192.77711999999997C792.5668767679998 192.77711999999997,792.5949567679999 192.77711999999997,792.5949567679999 192.77711999999997C792.5949567679999 192.77711999999997,792.7634367679998 192.77711999999997,792.9038367679998 192.77711999999997C795.4310367679998 192.91751999999997,796.9192767679998 194.57423999999997,796.9192767679998 196.65215999999998C796.9192767679998 197.66303999999997,796.5823167679998 198.81431999999998,795.7399167679998 199.90943999999996C794.1393567679999 202.07159999999996,791.5279167679998 203.25095999999996,789.2534367679998 203.25095999999996C787.4843967679998 203.25095999999996,785.9680767679998 202.54895999999997,785.2379967679998 201.11687999999998C785.0133567679998 200.55527999999998,784.9010367679998 200.02175999999997,784.9010367679998 199.43207999999998C784.9010367679998 196.37135999999998,788.3267967679998 192.97367999999997,792.2579967679998 192.77711999999997">
</path>
</g>
</g>
<g class="vf-modifiers">
</g>
</g>
<g class="vf-stavenote" id="vf-auto87742">
<g class="vf-note" pointer-events="bounding-box">
<g class="vf-notehead" pointer-events="bounding-box">
<path stroke-width="0.3" fill="#000000" stroke="none" stroke-dasharray="none" d="M843.2861847679999 197.99999999999997M850.6431447679998 192.77711999999997C850.7554647679999 192.77711999999997,850.9239447679998 192.77711999999997,850.9520247679999 192.77711999999997C850.9520247679999 192.77711999999997,850.9801047679999 192.77711999999997,850.9801047679999 192.77711999999997C850.9801047679999 192.77711999999997,851.1485847679999 192.77711999999997,851.2889847679999 192.77711999999997C853.8161847679999 192.91751999999997,855.3044247679999 194.57423999999997,855.3044247679999 196.65215999999998C855.3044247679999 197.66303999999997,854.9674647679999 198.81431999999998,854.1250647679999 199.90943999999996C852.5245047679999 202.07159999999996,849.9130647679999 203.25095999999996,847.6385847679999 203.25095999999996C845.8695447679999 203.25095999999996,844.3532247679999 202.54895999999997,843.6231447679999 201.11687999999998C843.3985047679998 200.55527999999998,843.2861847679999 200.02175999999997,843.2861847679999 199.43207999999998C843.2861847679999 196.37135999999998,846.7119447679999 192.97367999999997,850.6431447679998 192.77711999999997">
</path>
</g>
</g>
<g class="vf-modifiers">
<g class="vf-stavenote" id="vf-auto87752">
<g class="vf-note" pointer-events="bounding-box">
<g class="vf-stem" pointer-events="bounding-box">
<path stroke-width="1.5" fill="none" stroke="#000000" stroke-dasharray="none" d="M824.6041463679999 197.99999999999997L824.6041463679999 174.89999999999998">
</path>
</g>
<g class="vf-notehead" pointer-events="bounding-box">
<path stroke-width="0.3" fill="#000000" stroke="none" stroke-dasharray="none" d="M817.4221079679999 197.99999999999997M822.2777015679999 194.55289919999998C822.3518327679999 194.55289919999998,822.4630295679999 194.55289919999998,822.4815623679999 194.55289919999998C822.4815623679999 194.55289919999998,822.5000951679999 194.55289919999998,822.5000951679999 194.55289919999998C822.5000951679999 194.55289919999998,822.6112919679998 194.55289919999998,822.7039559679998 194.55289919999998C824.3719079679998 194.64556319999997,825.3541463679999 195.73899839999996,825.3541463679999 197.11042559999999C825.3541463679999 197.77760639999997,825.1317527679998 198.53745119999996,824.5757687679999 199.26023039999998C823.5193991679998 200.68725599999996,821.7958487679998 201.46563359999996,820.2946919679998 201.46563359999996C819.1271255679999 201.46563359999996,818.1263543679999 201.00231359999998,817.6445015679999 200.05714079999998C817.4962391679999 199.68648479999996,817.4221079679999 199.33436159999997,817.4221079679999 198.94517279999997C817.4221079679999 196.92509759999996,819.6831095679998 194.68262879999997,822.2777015679999 194.55289919999998">
</path>
</g>
<g class="vf-flag" pointer-events="bounding-box">
<path stroke-width="0.3" fill="#000000" stroke="none" stroke-dasharray="none" d="M824.6041463679999 172.89999999999998M824.1593591679999 175.88378079999998L824.1593591679999 172.992664L824.2334903679998 172.992664C824.4373511679999 172.992664,824.5670807679999 173.12239359999998,824.6041463679999 173.34478719999998C824.9933351679999 175.19806719999997,826.1609015679999 177.21814239999998,827.7732551679999 178.73783199999997C829.5709367679999 180.42431679999999,830.4790439679999 182.74091679999998,830.4790439679999 185.13164799999998C830.4790439679999 187.39264959999997,829.6821335679999 189.74631519999997,828.0697799679999 191.69225919999997C827.7917879679999 192.06291519999996,827.7732551679999 192.06291519999996,827.5879271679999 192.06291519999996C827.3655335679998 192.06291519999996,827.2172711679999 191.89611999999997,827.2172711679999 191.67372639999996C827.2172711679999 191.50693119999997,827.2358039679999 191.4698656,827.4211319679998 191.2660048C828.8296247679999 189.56098719999997,829.5338711679999 187.5038464,829.5338711679999 185.5393696C829.5338711679999 183.7972864,828.9778871679998 182.12933439999998,827.8288535679999 180.86910399999996C827.1246071679999 180.09072639999997,825.8273111679998 179.34941439999997,824.1778919679999 178.77489759999997C824.1778919679999 178.75636479999997,824.1593591679999 178.18184799999997,824.1593591679999 175.88378079999998">
</path>
</g>
</g>
<g class="vf-modifiers">
</g>
</g>
<path stroke-width="1" fill="none" stroke="#000000" stroke-dasharray="none" d="M818.4221079679999 189.74999999999997L831.4221079679999 180.74999999999997Z">
</path>
</g>
</g>
<g class="vf-stavenote" id="vf-auto87766">
<g class="vf-note" pointer-events="bounding-box">
<g class="vf-notehead" pointer-events="bounding-box">
<path stroke-width="0.3" fill="#000000" stroke="none" stroke-dasharray="none" d="M875.8072559679998 197.99999999999997M883.1642159679998 192.77711999999997C883.2765359679998 192.77711999999997,883.4450159679998 192.77711999999997,883.4730959679998 192.77711999999997C883.4730959679998 192.77711999999997,883.5011759679999 192.77711999999997,883.5011759679999 192.77711999999997C883.5011759679999 192.77711999999997,883.6696559679998 192.77711999999997,883.8100559679998 192.77711999999997C886.3372559679998 192.91751999999997,887.8254959679998 194.57423999999997,887.8254959679998 196.65215999999998C887.8254959679998 197.66303999999997,887.4885359679998 198.81431999999998,886.6461359679998 199.90943999999996C885.0455759679999 202.07159999999996,882.4341359679999 203.25095999999996,880.1596559679998 203.25095999999996C878.3906159679998 203.25095999999996,876.8742959679998 202.54895999999997,876.1442159679998 201.11687999999998C875.9195759679998 200.55527999999998,875.8072559679998 200.02175999999997,875.8072559679998 199.43207999999998C875.8072559679998 196.37135999999998,879.2330159679998 192.97367999999997,883.1642159679998 192.77711999999997">
</path>
</g>
</g>
<g class="vf-modifiers">
</g>
</g>
<g class="vf-stavenote" id="vf-auto87776">
<g class="vf-note" pointer-events="bounding-box">
<g class="vf-notehead" pointer-events="bounding-box">
<path stroke-width="0.3" fill="#000000" stroke="none" stroke-dasharray="none" d="M934.1924039679998 197.99999999999997M941.5493639679997 192.77711999999997C941.6616839679998 192.77711999999997,941.8301639679997 192.77711999999997,941.8582439679998 192.77711999999997C941.8582439679998 192.77711999999997,941.8863239679998 192.77711999999997,941.8863239679998 192.77711999999997C941.8863239679998 192.77711999999997,942.0548039679998 192.77711999999997,942.1952039679998 192.77711999999997C944.7224039679998 192.91751999999997,946.2106439679998 194.57423999999997,946.2106439679998 196.65215999999998C946.2106439679998 197.66303999999997,945.8736839679998 198.81431999999998,945.0312839679998 199.90943999999996C943.4307239679998 202.07159999999996,940.8192839679998 203.25095999999996,938.5448039679998 203.25095999999996C936.7757639679998 203.25095999999996,935.2594439679998 202.54895999999997,934.5293639679998 201.11687999999998C934.3047239679997 200.55527999999998,934.1924039679998 200.02175999999997,934.1924039679998 199.43207999999998C934.1924039679998 196.37135999999998,937.6181639679997 192.97367999999997,941.5493639679997 192.77711999999997">
</path>
</g>
</g>
<g class="vf-modifiers">
<g class="vf-stavenote" id="vf-auto87786">
<g class="vf-note" pointer-events="bounding-box">
<g class="vf-stem" pointer-events="bounding-box">
<path stroke-width="1.5" fill="none" stroke="#000000" stroke-dasharray="none" d="M915.5103655679998 197.99999999999997L915.5103655679998 174.89999999999998">
</path>
</g>
<g class="vf-notehead" pointer-events="bounding-box">
<path stroke-width="0.3" fill="#000000" stroke="none" stroke-dasharray="none" d="M908.3283271679998 197.99999999999997M913.1839207679998 194.55289919999998C913.2580519679998 194.55289919999998,913.3692487679998 194.55289919999998,913.3877815679998 194.55289919999998C913.3877815679998 194.55289919999998,913.4063143679998 194.55289919999998,913.4063143679998 194.55289919999998C913.4063143679998 194.55289919999998,913.5175111679997 194.55289919999998,913.6101751679997 194.55289919999998C915.2781271679997 194.64556319999997,916.2603655679998 195.73899839999996,916.2603655679998 197.11042559999999C916.2603655679998 197.77760639999997,916.0379719679997 198.53745119999996,915.4819879679998 199.26023039999998C914.4256183679997 200.68725599999996,912.7020679679997 201.46563359999996,911.2009111679997 201.46563359999996C910.0333447679998 201.46563359999996,909.0325735679997 201.00231359999998,908.5507207679998 200.05714079999998C908.4024583679998 199.68648479999996,908.3283271679998 199.33436159999997,908.3283271679998 198.94517279999997C908.3283271679998 196.92509759999996,910.5893287679997 194.68262879999997,913.1839207679998 194.55289919999998">
</path>
</g>
<g class="vf-flag" pointer-events="bounding-box">
<path stroke-width="0.3" fill="#000000" stroke="none" stroke-dasharray="none" d="M915.5103655679998 172.89999999999998M915.0655783679998 175.88378079999998L915.0655783679998 172.992664L915.1397095679997 172.992664C915.3435703679997 172.992664,915.4732999679998 173.12239359999998,915.5103655679998 173.34478719999998C915.8995543679998 175.19806719999997,917.0671207679998 177.21814239999998,918.6794743679998 178.73783199999997C920.4771559679998 180.42431679999999,921.3852631679998 182.74091679999998,921.3852631679998 185.13164799999998C921.3852631679998 187.39264959999997,920.5883527679998 189.74631519999997,918.9759991679998 191.69225919999997C918.6980071679998 192.06291519999996,918.6794743679998 192.06291519999996,918.4941463679997 192.06291519999996C918.2717527679997 192.06291519999996,918.1234903679998 191.89611999999997,918.1234903679998 191.67372639999996C918.1234903679998 191.50693119999997,918.1420231679998 191.4698656,918.3273511679997 191.2660048C919.7358439679998 189.56098719999997,920.4400903679998 187.5038464,920.4400903679998 185.5393696C920.4400903679998 183.7972864,919.8841063679997 182.12933439999998,918.7350727679998 180.86910399999996C918.0308263679998 180.09072639999997,916.7335303679997 179.34941439999997,915.0841111679998 178.77489759999997C915.0841111679998 178.75636479999997,915.0655783679998 178.18184799999997,915.0655783679998 175.88378079999998">
</path>
</g>
</g>
<g class="vf-modifiers">
</g>
</g>
<path stroke-width="1" fill="none" stroke="#000000" stroke-dasharray="none" d="M909.3283271679998 189.74999999999997L922.3283271679998 180.74999999999997Z">
</path>
</g>
</g>
<g class="vf-stavenote" id="vf-auto87800">
<g class="vf-note" pointer-events="bounding-box">
<g class="vf-notehead" pointer-events="bounding-box">
<path stroke-width="0.3" fill="#000000" stroke="none" stroke-dasharray="none" d="M966.7134751679998 197.99999999999997M974.0704351679998 192.77711999999997C974.1827551679999 192.77711999999997,974.3512351679998 192.77711999999997,974.3793151679998 192.77711999999997C974.3793151679998 192.77711999999997,974.4073951679999 192.77711999999997,974.4073951679999 192.77711999999997C974.4073951679999 192.77711999999997,974.5758751679998 192.77711999999997,974.7162751679998 192.77711999999997C977.2434751679998 192.91751999999997,978.7317151679998 194.57423999999997,978.7317151679998 196.65215999999998C978.7317151679998 197.66303999999997,978.3947551679998 198.81431999999998,977.5523551679998 199.90943999999996C975.9517951679999 202.07159999999996,973.3403551679999 203.25095999999996,971.0658751679998 203.25095999999996C969.2968351679998 203.25095999999996,967.7805151679999 202.54895999999997,967.0504351679998 201.11687999999998C966.8257951679998 200.55527999999998,966.7134751679998 200.02175999999997,966.7134751679998 199.43207999999998C966.7134751679998 196.37135999999998,970.1392351679998 192.97367999999997,974.0704351679998 192.77711999999997">
</path>
</g>
</g>
<g class="vf-modifiers">
</g>
</g>
<g class="vf-stavenote" id="vf-auto87810">
<g class="vf-note" pointer-events="bounding-box">
<g class="vf-notehead" pointer-events="bounding-box">
<path stroke-width="0.3" fill="#000000" stroke="none" stroke-dasharray="none" d="M999.2345463679998 197.99999999999997M1006.5915063679997 192.77711999999997C1006.7038263679998 192.77711999999997,1006.8723063679997 192.77711999999997,1006.9003863679998 192.77711999999997C1006.9003863679998 192.77711999999997,1006.9284663679998 192.77711999999997,1006.9284663679998 192.77711999999997C1006.9284663679998 192.77711999999997,1007.0969463679997 192.77711999999997,1007.2373463679997 192.77711999999997C1009.7645463679997 192.91751999999997,1011.2527863679998 194.57423999999997,1011.2527863679998 196.65215999999998C1011.2527863679998 197.66303999999997,1010.9158263679998 198.81431999999998,1010.0734263679998 199.90943999999996C1008.4728663679998 202.07159999999996,1005.8614263679998 203.25095999999996,1003.5869463679998 203.25095999999996C1001.8179063679997 203.25095999999996,1000.3015863679998 202.54895999999997,999.5715063679997 201.11687999999998C999.3468663679997 200.55527999999998,999.2345463679998 200.02175999999997,999.2345463679998 199.43207999999998C999.2345463679998 196.37135999999998,1002.6603063679997 192.97367999999997,1006.5915063679997 192.77711999999997">
</path>
</g>
</g>
<g class="vf-modifiers">
</g>
</g>
<g class="vf-stavenote" id="vf-auto87820">
<g class="vf-note" pointer-events="bounding-box">
<g class="vf-notehead" pointer-events="bounding-box">
<path stroke-width="0.3" fill="#000000" stroke="none" stroke-dasharray="none" d="M1031.7556175679997 197.99999999999997M1039.1125775679998 192.77711999999997C1039.2248975679997 192.77711999999997,1039.3933775679998 192.77711999999997,1039.4214575679996 192.77711999999997C1039.4214575679996 192.77711999999997,1039.4495375679996 192.77711999999997,1039.4495375679996 192.77711999999997C1039.4495375679996 192.77711999999997,1039.6180175679997 192.77711999999997,1039.7584175679997 192.77711999999997C1042.2856175679997 192.91751999999997,1043.7738575679998 194.57423999999997,1043.7738575679998 196.65215999999998C1043.7738575679998 197.66303999999997,1043.4368975679997 198.81431999999998,1042.5944975679997 199.90943999999996C1040.9939375679996 202.07159999999996,1038.3824975679997 203.25095999999996,1036.1080175679997 203.25095999999996C1034.3389775679998 203.25095999999996,1032.8226575679996 202.54895999999997,1032.0925775679998 201.11687999999998C1031.8679375679997 200.55527999999998,1031.7556175679997 200.02175999999997,1031.7556175679997 199.43207999999998C1031.7556175679997 196.37135999999998,1035.1813775679998 192.97367999999997,1039.1125775679998 192.77711999999997">
</path>
</g>
</g>
<g class="vf-modifiers">
</g>
</g>
<g class="vf-stavenote" id="vf-auto87830">
<g class="vf-note" pointer-events="bounding-box">
<g class="vf-notehead" pointer-events="bounding-box">
<path stroke-width="0.3" fill="#000000" stroke="none" stroke-dasharray="none" d="M1090.1407655679998 197.99999999999997M1097.4977255679999 192.77711999999997C1097.6100455679998 192.77711999999997,1097.7785255679998 192.77711999999997,1097.8066055679997 192.77711999999997C1097.8066055679997 192.77711999999997,1097.8346855679997 192.77711999999997,1097.8346855679997 192.77711999999997C1097.8346855679997 192.77711999999997,1098.0031655679998 192.77711999999997,1098.1435655679998 192.77711999999997C1100.6707655679998 192.91751999999997,1102.1590055679999 194.57423999999997,1102.1590055679999 196.65215999999998C1102.1590055679999 197.66303999999997,1101.8220455679998 198.81431999999998,1100.9796455679998 199.90943999999996C1099.3790855679997 202.07159999999996,1096.7676455679998 203.25095999999996,1094.4931655679998 203.25095999999996C1092.7241255679999 203.25095999999996,1091.2078055679997 202.54895999999997,1090.4777255679999 201.11687999999998C1090.2530855679997 200.55527999999998,1090.1407655679998 200.02175999999997,1090.1407655679998 199.43207999999998C1090.1407655679998 196.37135999999998,1093.5665255679999 192.97367999999997,1097.4977255679999 192.77711999999997">
</path>
</g>
</g>
<g class="vf-modifiers">
<g class="vf-stavenote" id="vf-auto87840">
<g class="vf-note" pointer-events="bounding-box">
<g class="vf-stem" pointer-events="bounding-box">
<path stroke-width="1.5" fill="none" stroke="#000000" stroke-dasharray="none" d="M1071.4587271679998 197.99999999999997L1071.4587271679998 174.89999999999998">
</path>
</g>
<g class="vf-notehead" pointer-events="bounding-box">
<path stroke-width="0.3" fill="#000000" stroke="none" stroke-dasharray="none" d="M1064.2766887679998 197.99999999999997M1069.1322823679998 194.55289919999998C1069.2064135679998 194.55289919999998,1069.3176103679998 194.55289919999998,1069.3361431679998 194.55289919999998C1069.3361431679998 194.55289919999998,1069.3546759679998 194.55289919999998,1069.3546759679998 194.55289919999998C1069.3546759679998 194.55289919999998,1069.4658727679998 194.55289919999998,1069.5585367679998 194.55289919999998C1071.2264887679999 194.64556319999997,1072.2087271679998 195.73899839999996,1072.2087271679998 197.11042559999999C1072.2087271679998 197.77760639999997,1071.9863335679997 198.53745119999996,1071.4303495679997 199.26023039999998C1070.3739799679997 200.68725599999996,1068.6504295679997 201.46563359999996,1067.1492727679997 201.46563359999996C1065.9817063679998 201.46563359999996,1064.9809351679999 201.00231359999998,1064.4990823679998 200.05714079999998C1064.3508199679998 199.68648479999996,1064.2766887679998 199.33436159999997,1064.2766887679998 198.94517279999997C1064.2766887679998 196.92509759999996,1066.5376903679999 194.68262879999997,1069.1322823679998 194.55289919999998">
</path>
</g>
<g class="vf-flag" pointer-events="bounding-box">
<path stroke-width="0.3" fill="#000000" stroke="none" stroke-dasharray="none" d="M1071.4587271679998 172.89999999999998M1071.0139399679997 175.88378079999998L1071.0139399679997 172.992664L1071.0880711679997 172.992664C1071.2919319679997 172.992664,1071.4216615679998 173.12239359999998,1071.4587271679998 173.34478719999998C1071.8479159679998 175.19806719999997,1073.0154823679998 177.21814239999998,1074.6278359679998 178.73783199999997C1076.4255175679998 180.42431679999999,1077.3336247679997 182.74091679999998,1077.3336247679997 185.13164799999998C1077.3336247679997 187.39264959999997,1076.5367143679998 189.74631519999997,1074.9243607679998 191.69225919999997C1074.6463687679998 192.06291519999996,1074.6278359679998 192.06291519999996,1074.4425079679997 192.06291519999996C1074.2201143679997 192.06291519999996,1074.0718519679997 191.89611999999997,1074.0718519679997 191.67372639999996C1074.0718519679997 191.50693119999997,1074.0903847679997 191.4698656,1074.2757127679997 191.2660048C1075.6842055679997 189.56098719999997,1076.3884519679998 187.5038464,1076.3884519679998 185.5393696C1076.3884519679998 183.7972864,1075.8324679679997 182.12933439999998,1074.6834343679998 180.86910399999996C1073.9791879679997 180.09072639999997,1072.6818919679997 179.34941439999997,1071.0324727679997 178.77489759999997C1071.0324727679997 178.75636479999997,1071.0139399679997 178.18184799999997,1071.0139399679997 175.88378079999998">
</path>
</g>
</g>
<g class="vf-modifiers">
</g>
</g>
<path stroke-width="1" fill="none" stroke="#000000" stroke-dasharray="none" d="M1065.2766887679998 189.74999999999997L1078.2766887679998 180.74999999999997Z">
</path>
</g>
</g>
<g class="vf-stavenote" id="vf-auto87854">
<g class="vf-note" pointer-events="bounding-box">
<g class="vf-notehead" pointer-events="bounding-box">
<path stroke-width="0.3" fill="#000000" stroke="none" stroke-dasharray="none" d="M1122.6618367679998 197.99999999999997M1130.018796768 192.77711999999997C1130.1311167679999 192.77711999999997,1130.299596768 192.77711999999997,1130.3276767679997 192.77711999999997C1130.3276767679997 192.77711999999997,1130.3557567679998 192.77711999999997,1130.3557567679998 192.77711999999997C1130.3557567679998 192.77711999999997,1130.5242367679998 192.77711999999997,1130.6646367679998 192.77711999999997C1133.1918367679998 192.91751999999997,1134.680076768 194.57423999999997,1134.680076768 196.65215999999998C1134.680076768 197.66303999999997,1134.3431167679998 198.81431999999998,1133.5007167679998 199.90943999999996C1131.9001567679998 202.07159999999996,1129.2887167679999 203.25095999999996,1127.0142367679998 203.25095999999996C1125.245196768 203.25095999999996,1123.7288767679997 202.54895999999997,1122.998796768 201.11687999999998C1122.7741567679998 200.55527999999998,1122.6618367679998 200.02175999999997,1122.6618367679998 199.43207999999998C1122.6618367679998 196.37135999999998,1126.087596768 192.97367999999997,1130.018796768 192.77711999999997">
</path>
</g>
</g>
<g class="vf-modifiers">
</g>
</g>
<g class="vf-stavenote" id="vf-auto87864">
<g class="vf-note" pointer-events="bounding-box">
<g class="vf-notehead" pointer-events="bounding-box">
<path stroke-width="0.3" fill="#000000" stroke="none" stroke-dasharray="none" d="M1155.1829079679997 197.99999999999997M1162.5398679679997 192.77711999999997C1162.6521879679997 192.77711999999997,1162.8206679679997 192.77711999999997,1162.8487479679995 192.77711999999997C1162.8487479679995 192.77711999999997,1162.8768279679996 192.77711999999997,1162.8768279679996 192.77711999999997C1162.8768279679996 192.77711999999997,1163.0453079679996 192.77711999999997,1163.1857079679996 192.77711999999997C1165.7129079679996 192.91751999999997,1167.2011479679998 194.57423999999997,1167.2011479679998 196.65215999999998C1167.2011479679998 197.66303999999997,1166.8641879679997 198.81431999999998,1166.0217879679997 199.90943999999996C1164.4212279679996 202.07159999999996,1161.8097879679997 203.25095999999996,1159.5353079679996 203.25095999999996C1157.7662679679997 203.25095999999996,1156.2499479679996 202.54895999999997,1155.5198679679997 201.11687999999998C1155.2952279679996 200.55527999999998,1155.1829079679997 200.02175999999997,1155.1829079679997 199.43207999999998C1155.1829079679997 196.37135999999998,1158.6086679679997 192.97367999999997,1162.5398679679997 192.77711999999997">
</path>
</g>
</g>
<g class="vf-modifiers">
</g>
</g>
<g class="vf-stavenote" id="vf-auto87874">
<g class="vf-note" pointer-events="bounding-box">
<g class="vf-notehead" pointer-events="bounding-box">
<path stroke-width="0.3" fill="#000000" stroke="none" stroke-dasharray="none" d="M1187.703979168 197.99999999999997M1195.060939168 192.77711999999997C1195.173259168 192.77711999999997,1195.341739168 192.77711999999997,1195.3698191679998 192.77711999999997C1195.3698191679998 192.77711999999997,1195.3978991679999 192.77711999999997,1195.3978991679999 192.77711999999997C1195.3978991679999 192.77711999999997,1195.566379168 192.77711999999997,1195.706779168 192.77711999999997C1198.233979168 192.91751999999997,1199.722219168 194.57423999999997,1199.722219168 196.65215999999998C1199.722219168 197.66303999999997,1199.385259168 198.81431999999998,1198.542859168 199.90943999999996C1196.9422991679999 202.07159999999996,1194.330859168 203.25095999999996,1192.056379168 203.25095999999996C1190.287339168 203.25095999999996,1188.7710191679998 202.54895999999997,1188.040939168 201.11687999999998C1187.816299168 200.55527999999998,1187.703979168 200.02175999999997,1187.703979168 199.43207999999998C1187.703979168 196.37135999999998,1191.129739168 192.97367999999997,1195.060939168 192.77711999999997">
</path>
</g>
</g>
<g class="vf-modifiers">
</g>
</g>
<path stroke-width="1.5" fill="none" stroke="#000000" stroke-dasharray="none" d="M581.8357671679998 197.99999999999997L581.8357671679998 163.74999999999997">
</path>
<path stroke-width="1.5" fill="none" stroke="#000000" stroke-dasharray="none" d="M614.3568383679998 197.99999999999997L614.3568383679998 163.74999999999997">
</path>
<path stroke-width="1.5" fill="none" stroke="#000000" stroke-dasharray="none" d="M672.7419863679999 197.99999999999997L672.7419863679999 163.74999999999997">
</path>
<path stroke-width="1.5" fill="none" stroke="#000000" stroke-dasharray="none" d="M705.2630575679999 197.99999999999997L705.2630575679999 163.74999999999997">
</path>
<path stroke-width="0.3" fill="#000000" stroke="none" stroke-dasharray="none" d="M581.0857671679998 162.99999999999997L581.0857671679998 167.99999999999997L705.5130575679999 167.99999999999997L705.5130575679999 162.99999999999997Z">
</path>
<path stroke-width="0.3" fill="#000000" stroke="none" stroke-dasharray="none" d="M581.0857671679998 170.49999999999997L581.0857671679998 175.49999999999997L705.5130575679999 175.49999999999997L705.5130575679999 170.49999999999997Z">
</path>
<path stroke-width="1.5" fill="none" stroke="#000000" stroke-dasharray="none" d="M763.6482055679999 197.99999999999997L763.6482055679999 163.74999999999997">
</path>
<path stroke-width="1.5" fill="none" stroke="#000000" stroke-dasharray="none" d="M796.1692767679998 197.99999999999997L796.1692767679998 163.74999999999997">
</path>
<path stroke-width="1.5" fill="none" stroke="#000000" stroke-dasharray="none" d="M854.5544247679999 197.99999999999997L854.5544247679999 163.74999999999997">
</path>
<path stroke-width="1.5" fill="none" stroke="#000000" stroke-dasharray="none" d="M887.0754959679998 197.99999999999997L887.0754959679998 163.74999999999997">
</path>
<path stroke-width="0.3" fill="#000000" stroke="none" stroke-dasharray="none" d="M762.8982055679999 162.99999999999997L762.8982055679999 167.99999999999997L887.3254959679998 167.99999999999997L887.3254959679998 162.99999999999997Z">
</path>
<path stroke-width="0.3" fill="#000000" stroke="none" stroke-dasharray="none" d="M762.8982055679999 170.49999999999997L762.8982055679999 175.49999999999997L887.3254959679998 175.49999999999997L887.3254959679998 170.49999999999997Z">
</path>
<path stroke-width="1.5" fill="none" stroke="#000000" stroke-dasharray="none" d="M945.4606439679998 197.99999999999997L945.4606439679998 163.74999999999997">
</path>
<path stroke-width="1.5" fill="none" stroke="#000000" stroke-dasharray="none" d="M977.9817151679998 197.99999999999997L977.9817151679998 163.74999999999997">
</path>
<path stroke-width="1.5" fill="none" stroke="#000000" stroke-dasharray="none" d="M1010.5027863679998 197.99999999999997L1010.5027863679998 163.74999999999997">
</path>
<path stroke-width="1.5" fill="none" stroke="#000000" stroke-dasharray="none" d="M1043.0238575679998 197.99999999999997L1043.0238575679998 163.74999999999997">
</path>
<path stroke-width="0.3" fill="#000000" stroke="none" stroke-dasharray="none" d="M944.7106439679998 162.99999999999997L944.7106439679998 167.99999999999997L1043.2738575679998 167.99999999999997L1043.2738575679998 162.99999999999997Z">
</path>
<path stroke-width="0.3" fill="#000000" stroke="none" stroke-dasharray="none" d="M944.7106439679998 170.49999999999997L944.7106439679998 175.49999999999997L1043.2738575679998 175.49999999999997L1043.2738575679998 170.49999999999997Z">
</path>
<path stroke-width="1.5" fill="none" stroke="#000000" stroke-dasharray="none" d="M1101.4090055679999 197.99999999999997L1101.4090055679999 163.74999999999997">
</path>
<path stroke-width="1.5" fill="none" stroke="#000000" stroke-dasharray="none" d="M1133.930076768 197.99999999999997L1133.930076768 163.74999999999997">
</path>
<path stroke-width="1.5" fill="none" stroke="#000000" stroke-dasharray="none" d="M1166.4511479679998 197.99999999999997L1166.4511479679998 163.74999999999997">
</path>
<path stroke-width="1.5" fill="none" stroke="#000000" stroke-dasharray="none" d="M1198.972219168 197.99999999999997L1198.972219168 163.74999999999997">
</path>
<path stroke-width="0.3" fill="#000000" stroke="none" stroke-dasharray="none" d="M1100.6590055679999 162.99999999999997L1100.6590055679999 167.99999999999997L1199.222219168 167.99999999999997L1199.222219168 162.99999999999997Z">
</path>
<path stroke-width="0.3" fill="#000000" stroke="none" stroke-dasharray="none" d="M1100.6590055679999 170.49999999999997L1100.6590055679999 175.49999999999997L1199.222219168 175.49999999999997L1199.222219168 170.49999999999997Z">
</path>
</svg>