<svg width="1536" height="331.99999999999994" viewBox="0 0 1536 331.99999999999994">
<path stroke-width="1" fill="none" stroke="black" stroke-dasharray="none" d="M50 197.99999999999997L401.385136384 197.99999999999997">
</path>
<rect stroke-width="0.3" fill="black" stroke="black" stroke-dasharray="none" x="401.385136384" y="177.49999999999997" width="1" height="41">
</rect>
<path stroke-width="0.3" fill="black" stroke="none" stroke-dasharray="none" d="M55 197.99999999999997M55 197.99999999999997L55 188.00639999999999L57.1888 188.00639999999999L59.4064 188.00639999999999L59.4064 197.99999999999997L59.4064 208.02239999999998L57.1888 208.02239999999998L55 208.02239999999998L55 197.99999999999997M63.870400000000004 198.02879999999996L63.870400000000004 188.00639999999999L66.1168 188.00639999999999L68.3632 188.00639999999999L68.3632 198.02879999999996L68.3632 208.02239999999998L66.1168 208.02239999999998L63.870400000000004 208.02239999999998L63.870400000000004 198.02879999999996">
</path>
<path stroke-width="0.3" fill="black" stroke="none" stroke-dasharray="none" d="M96.1296 197.99999999999997M101.80319999999999 179.33759999999998C101.91839999999999 179.33759999999998,102.11999999999999 179.33759999999998,102.3504 179.33759999999998C102.8112 179.33759999999998,103.416 179.33759999999998,103.56 179.39519999999996C105.72 179.65439999999998,107.448 180.74879999999996,108.1968 182.27519999999998C108.45599999999999 182.79359999999997,108.57119999999999 183.34079999999997,108.57119999999999 183.91679999999997C108.57119999999999 185.32799999999997,107.7936 186.94079999999997,106.38239999999999 188.15039999999996C105.4032 188.98559999999998,104.42399999999999 189.50399999999996,102.8976 189.99359999999996C100.9104 190.62719999999996,99.21119999999999 191.75039999999998,98.1168 193.10399999999998C98.1168 193.10399999999998,98.1168 193.13279999999997,98.1168 193.13279999999997C98.1168 193.13279999999997,98.1168 193.13279999999997,98.1168 193.13279999999997C98.1168 193.13279999999997,98.2032 193.10399999999998,98.26079999999999 193.01759999999996C99.3552 192.12479999999996,100.824 191.60639999999998,102.1488 191.60639999999998C103.2432 191.60639999999998,104.0208 191.80799999999996,105.0576 192.38399999999996C105.6912 192.70079999999996,106.2672 192.84479999999996,106.81439999999999 192.84479999999996C107.0448 192.84479999999996,107.2752 192.84479999999996,107.53439999999999 192.78719999999998C107.9088 192.70079999999996,108.312 192.41279999999998,108.45599999999999 192.18239999999997C108.5424 191.98079999999996,108.68639999999999 191.89439999999996,108.8592 191.89439999999996C109.08959999999999 191.89439999999996,109.32 192.06719999999999,109.32 192.32639999999998C109.32 192.52799999999996,109.0608 193.24799999999996,108.8304 193.7376C107.9088 195.58079999999998,106.29599999999999 196.73279999999997,104.7408 196.73279999999997C104.62559999999999 196.73279999999997,104.5392 196.73279999999997,104.42399999999999 196.70399999999998C104.0208 196.70399999999998,103.848 196.58879999999996,103.3296 196.24319999999997C102.23519999999999 195.52319999999997,100.8528 195.14879999999997,99.6432 195.14879999999997C99.1248 195.14879999999997,98.664 195.20639999999997,98.232 195.37919999999997C97.65599999999999 195.58079999999998,97.1088 195.92639999999997,96.93599999999999 196.18559999999997C96.8496 196.38719999999998,96.70559999999999 196.44479999999996,96.5328 196.44479999999996C96.3888 196.44479999999996,96.2448 196.38719999999998,96.1584 196.21439999999998L96.10079999999999 196.128L96.10079999999999 195.72479999999996C96.10079999999999 195.37919999999997,96.1296 195.26399999999998,96.1296 195.14879999999997C96.1584 195.06239999999997,96.18719999999999 194.88959999999997,96.18719999999999 194.74559999999997C96.70559999999999 192.32639999999998,98.4624 190.16639999999998,100.8528 189.10079999999996C102.8112 188.17919999999998,104.10719999999999 186.53759999999997,104.3376 184.46399999999997C104.39519999999999 184.29119999999998,104.39519999999999 184.14719999999997,104.39519999999999 183.97439999999997C104.39519999999999 182.13119999999998,103.0128 180.86399999999998,101.0544 180.86399999999998C100.9104 180.86399999999998,100.7376 180.86399999999998,100.5936 180.86399999999998C100.3056 180.89279999999997,100.2192 180.89279999999997,100.2192 180.95039999999997C100.2192 180.95039999999997,100.2192 180.97919999999996,100.3056 181.03679999999997C100.96799999999999 181.41119999999998,101.28479999999999 182.13119999999998,101.28479999999999 182.82239999999996C101.28479999999999 183.71519999999998,100.824 184.55039999999997,99.93119999999999 184.89599999999996C99.6432 184.98239999999998,99.3552 185.01119999999997,99.1248 185.01119999999997C97.9152 185.01119999999997,96.9072 183.97439999999997,96.9072 182.73599999999996C96.9072 182.50559999999996,96.9072 182.27519999999998,96.9648 182.01599999999996C97.3968 180.69119999999998,99.4416 179.59679999999997,101.80319999999999 179.33759999999998M102.696 198.02879999999996L102.75359999999999 198.02879999999996L102.6672 198.02879999999996L102.696 198.02879999999996M102.696 178.61759999999998L102.75359999999999 178.61759999999998L102.6672 178.61759999999998L102.696 178.61759999999998">
</path>
<path stroke-width="0.3" fill="black" stroke="none" stroke-dasharray="none" d="M96 217.99999999999997M101.0112 199.65439999999998C101.04 199.62559999999996,101.4432 199.62559999999996,102.6816 199.62559999999996C103.056 199.62559999999996,103.4592 199.62559999999996,103.9776 199.62559999999996L106.8864 199.62559999999996L106.9728 199.71199999999996C107.1168 199.79839999999996,107.2032 199.94239999999996,107.2032 200.05759999999998C107.2032 200.23039999999997,107.1168 200.34559999999996,107.0016 200.46079999999998C106.9728 200.54719999999998,106.7136 200.77759999999998,106.5408 201.03679999999997L105.0144 202.79359999999997L103.056 205.01119999999997L102.0192 206.19199999999998L100.464 207.97759999999997L98.4192 210.31039999999996C98.0736 210.74239999999998,97.6992 211.08799999999997,97.6992 211.08799999999997C97.6992 211.08799999999997,97.6992 211.08799999999997,97.6992 211.08799999999997C97.6992 211.14559999999997,97.9584 211.14559999999997,100.3488 211.14559999999997L102.9696 211.14559999999997L102.9696 209.27359999999996C102.9696 207.37279999999998,102.9696 207.34399999999997,102.9984 207.31519999999998C103.056 207.22879999999998,103.3152 206.91199999999998,104.3232 205.73119999999997L104.7264 205.29919999999998L105.1296 204.86719999999997L105.7344 204.08959999999996L106.368 203.42719999999997L106.6848 203.02399999999997C106.8 202.85119999999998,106.9728 202.82239999999996,107.1168 202.82239999999996C107.28960000000001 202.82239999999996,107.4336 202.90879999999999,107.52 203.05279999999996C107.5488 203.13919999999996,107.5488 203.19679999999997,107.5488 205.32799999999997C107.5488 205.81759999999997,107.5488 206.42239999999998,107.5488 207.14239999999998L107.5488 211.14559999999997L108.2688 211.14559999999997C108.9312 211.14559999999997,108.96 211.14559999999997,109.0464 211.17439999999996C109.2768 211.26079999999996,109.392 211.49119999999996,109.392 211.75039999999998C109.392 211.89439999999996,109.3632 212.06719999999999,109.248 212.18239999999997C109.0752 212.32639999999998,109.0464 212.32639999999998,108.2688 212.32639999999998L107.5488 212.32639999999998L107.5488 212.81599999999997C107.5776 214.28479999999996,107.8656 214.86079999999998,108.9888 215.46559999999997C109.392 215.66719999999998,109.4784 215.72479999999996,109.4784 216.01279999999997C109.4784 216.21439999999998,109.4208 216.30079999999998,109.2768 216.41599999999997L109.1904 216.44479999999996L105.2448 216.44479999999996L101.328 216.44479999999996L101.2416 216.41599999999997C101.0688 216.30079999999998,101.04 216.21439999999998,101.04 216.01279999999997C101.04 215.72479999999996,101.0688 215.66719999999998,101.5008 215.46559999999997C102.624 214.86079999999998,102.912 214.28479999999996,102.912 212.81599999999997L102.912 212.32639999999998L99.6 212.32639999999998C98.9952 212.38399999999996,98.5056 212.38399999999996,98.1024 212.38399999999996C96.288 212.38399999999996,96.2592 212.32639999999998,96.2304 212.32639999999998C96.0576 212.26879999999997,96 212.09599999999998,96 211.89439999999996C96 211.89439999999996,96 211.89439999999996,96 211.89439999999996C96 211.69279999999998,96 211.69279999999998,96.576 211.0304C98.9952 208.09279999999998,100.6944 203.83039999999997,100.6944 200.43199999999996C100.6944 199.91359999999997,100.7808 199.74079999999998,101.0112 199.65439999999998M102.7392 218.02879999999996L102.768 218.02879999999996L102.6816 218.02879999999996L102.7392 218.02879999999996M102.7392 198.61759999999998L102.768 198.61759999999998L102.6816 198.61759999999998L102.7392 198.61759999999998">
</path>
<g class="vf-stavenote" id="vf-auto53897">
<g class="vf-note" pointer-events="bounding-box">
<g class="vf-notehead" pointer-events="bounding-box">
<path stroke-width="0.3" fill="#000000" stroke="none" stroke-dasharray="none" d="M147.3424768 197.99999999999997M154.69943679999997 192.77711999999997C154.81175679999998 192.77711999999997,154.9802368 192.77711999999997,155.0083168 192.77711999999997C155.0083168 192.77711999999997,155.03639679999998 192.77711999999997,155.03639679999998 192.77711999999997C155.03639679999998 192.77711999999997,155.2048768 192.77711999999997,155.3452768 192.77711999999997C157.8724768 192.91751999999997,159.36071679999998 194.57423999999997,159.36071679999998 196.65215999999998C159.36071679999998 197.66303999999997,159.0237568 198.81431999999998,158.18135679999997 199.90943999999996C156.58079679999997 202.07159999999996,153.96935679999999 203.25095999999996,151.69487679999997 203.25095999999996C149.92583679999998 203.25095999999996,148.40951679999998 202.54895999999997,147.6794368 201.11687999999998C147.4547968 200.55527999999998,147.3424768 200.02175999999997,147.3424768 199.43207999999998C147.3424768 196.37135999999998,150.76823679999998 192.97367999999997,154.69943679999997 192.77711999999997">
</path>
</g>
</g>
<g class="vf-modifiers">
<g class="vf-stavenote" id="vf-auto53907">
<g class="vf-note" pointer-events="bounding-box">
<g class="vf-stem" pointer-events="bounding-box">
<path stroke-width="1.5" fill="none" stroke="#000000" stroke-dasharray="none" d="M128.6604384 197.99999999999997L128.6604384 174.89999999999998">
</path>
</g>
<g class="vf-notehead" pointer-events="bounding-box">
<path stroke-width="0.3" fill="#000000" stroke="none" stroke-dasharray="none" d="M121.4784 197.99999999999997M126.3339936 194.55289919999998C126.4081248 194.55289919999998,126.5193216 194.55289919999998,126.5378544 194.55289919999998C126.5378544 194.55289919999998,126.55638719999999 194.55289919999998,126.55638719999999 194.55289919999998C126.55638719999999 194.55289919999998,126.66758399999999 194.55289919999998,126.76024799999999 194.55289919999998C128.4282 194.64556319999997,129.4104384 195.73899839999996,129.4104384 197.11042559999999C129.4104384 197.77760639999997,129.1880448 198.53745119999996,128.6320608 199.26023039999998C127.5756912 200.68725599999996,125.8521408 201.46563359999996,124.350984 201.46563359999996C123.1834176 201.46563359999996,122.1826464 201.00231359999998,121.7007936 200.05714079999998C121.55253119999999 199.68648479999996,121.4784 199.33436159999997,121.4784 198.94517279999997C121.4784 196.92509759999996,123.7394016 194.68262879999997,126.3339936 194.55289919999998">
</path>
</g>
<g class="vf-flag" pointer-events="bounding-box">
<path stroke-width="0.3" fill="#000000" stroke="none" stroke-dasharray="none" d="M128.6604384 172.89999999999998M128.2156512 175.88378079999998L128.2156512 172.992664L128.2897824 172.992664C128.4936432 172.992664,128.6233728 173.12239359999998,128.6604384 173.34478719999998C129.0496272 175.19806719999997,130.2171936 177.21814239999998,131.8295472 178.73783199999997C133.6272288 180.42431679999999,134.535336 182.74091679999998,134.535336 185.13164799999998C134.535336 187.39264959999997,133.7384256 189.74631519999997,132.126072 191.69225919999997C131.84808 192.06291519999996,131.8295472 192.06291519999996,131.6442192 192.06291519999996C131.4218256 192.06291519999996,131.2735632 191.89611999999997,131.2735632 191.67372639999996C131.2735632 191.50693119999997,131.29209600000002 191.4698656,131.477424 191.2660048C132.88591680000002 189.56098719999997,133.5901632 187.5038464,133.5901632 185.5393696C133.5901632 183.7972864,133.0341792 182.12933439999998,131.88514560000002 180.86910399999996C131.1808992 180.09072639999997,129.8836032 179.34941439999997,128.234184 178.77489759999997C128.234184 178.75636479999997,128.2156512 178.18184799999997,128.2156512 175.88378079999998">
</path>
</g>
</g>
<g class="vf-modifiers">
</g>
</g>
<path stroke-width="1" fill="none" stroke="#000000" stroke-dasharray="none" d="M122.4784 189.74999999999997L135.4784 180.74999999999997Z">
</path>
</g>
</g>
<g class="vf-stavenote" id="vf-auto53921">
<g class="vf-note" pointer-events="bounding-box">
<g class="vf-notehead" pointer-events="bounding-box">
<path stroke-width="0.3" fill="#000000" stroke="none" stroke-dasharray="none" d="M195.7817184 197.99999999999997M203.13867839999997 192.77711999999997C203.2509984 192.77711999999997,203.4194784 192.77711999999997,203.4475584 192.77711999999997C203.4475584 192.77711999999997,203.47563839999998 192.77711999999997,203.47563839999998 192.77711999999997C203.47563839999998 192.77711999999997,203.6441184 192.77711999999997,203.7845184 192.77711999999997C206.3117184 192.91751999999997,207.79995839999998 194.57423999999997,207.79995839999998 196.65215999999998C207.79995839999998 197.66303999999997,207.4629984 198.81431999999998,206.62059839999998 199.90943999999996C205.02003839999998 202.07159999999996,202.4085984 203.25095999999996,200.13411839999998 203.25095999999996C198.3650784 203.25095999999996,196.84875839999998 202.54895999999997,196.1186784 201.11687999999998C195.8940384 200.55527999999998,195.7817184 200.02175999999997,195.7817184 199.43207999999998C195.7817184 196.37135999999998,199.20747839999999 192.97367999999997,203.13867839999997 192.77711999999997">
</path>
</g>
</g>
<g class="vf-modifiers">
</g>
</g>
<g class="vf-stavenote" id="vf-auto53931">
<g class="vf-note" pointer-events="bounding-box">
<g class="vf-notehead" pointer-events="bounding-box">
<path stroke-width="0.3" fill="#000000" stroke="none" stroke-dasharray="none" d="M229.01045919999999 197.99999999999997M236.36741919999997 192.77711999999997C236.47973919999998 192.77711999999997,236.64821919999997 192.77711999999997,236.6762992 192.77711999999997C236.6762992 192.77711999999997,236.70437919999998 192.77711999999997,236.70437919999998 192.77711999999997C236.70437919999998 192.77711999999997,236.8728592 192.77711999999997,237.0132592 192.77711999999997C239.5404592 192.91751999999997,241.02869919999998 194.57423999999997,241.02869919999998 196.65215999999998C241.02869919999998 197.66303999999997,240.69173919999997 198.81431999999998,239.84933919999997 199.90943999999996C238.24877919999997 202.07159999999996,235.63733919999999 203.25095999999996,233.36285919999997 203.25095999999996C231.59381919999998 203.25095999999996,230.07749919999998 202.54895999999997,229.3474192 201.11687999999998C229.1227792 200.55527999999998,229.01045919999999 200.02175999999997,229.01045919999999 199.43207999999998C229.01045919999999 196.37135999999998,232.43621919999998 192.97367999999997,236.36741919999997 192.77711999999997">
</path>
</g>
</g>
<g class="vf-modifiers">
</g>
</g>
<g class="vf-stavenote" id="vf-auto53941">
<g class="vf-note" pointer-events="bounding-box">
<g class="vf-notehead" pointer-events="bounding-box">
<path stroke-width="0.3" fill="#000000" stroke="none" stroke-dasharray="none" d="M288.1032768 197.99999999999997M295.4602368 192.77711999999997C295.57255680000003 192.77711999999997,295.7410368 192.77711999999997,295.7691168 192.77711999999997C295.7691168 192.77711999999997,295.7971968 192.77711999999997,295.7971968 192.77711999999997C295.7971968 192.77711999999997,295.9656768 192.77711999999997,296.1060768 192.77711999999997C298.6332768 192.91751999999997,300.1215168 194.57423999999997,300.1215168 196.65215999999998C300.1215168 197.66303999999997,299.7845568 198.81431999999998,298.9421568 199.90943999999996C297.3415968 202.07159999999996,294.73015680000003 203.25095999999996,292.4556768 203.25095999999996C290.68663680000003 203.25095999999996,289.1703168 202.54895999999997,288.4402368 201.11687999999998C288.2155968 200.55527999999998,288.1032768 200.02175999999997,288.1032768 199.43207999999998C288.1032768 196.37135999999998,291.52903680000003 192.97367999999997,295.4602368 192.77711999999997">
</path>
</g>
</g>
<g class="vf-modifiers">
<g class="vf-stavenote" id="vf-auto53951">
<g class="vf-note" pointer-events="bounding-box">
<g class="vf-stem" pointer-events="bounding-box">
<path stroke-width="1.5" fill="none" stroke="#000000" stroke-dasharray="none" d="M269.4212384 197.99999999999997L269.4212384 174.89999999999998">
</path>
</g>
<g class="vf-notehead" pointer-events="bounding-box">
<path stroke-width="0.3" fill="#000000" stroke="none" stroke-dasharray="none" d="M262.2392 197.99999999999997M267.0947936 194.55289919999998C267.16892479999996 194.55289919999998,267.2801216 194.55289919999998,267.2986544 194.55289919999998C267.2986544 194.55289919999998,267.3171872 194.55289919999998,267.3171872 194.55289919999998C267.3171872 194.55289919999998,267.428384 194.55289919999998,267.521048 194.55289919999998C269.18899999999996 194.64556319999997,270.1712384 195.73899839999996,270.1712384 197.11042559999999C270.1712384 197.77760639999997,269.94884479999996 198.53745119999996,269.3928608 199.26023039999998C268.33649119999995 200.68725599999996,266.6129408 201.46563359999996,265.111784 201.46563359999996C263.9442176 201.46563359999996,262.94344639999997 201.00231359999998,262.46159359999996 200.05714079999998C262.3133312 199.68648479999996,262.2392 199.33436159999997,262.2392 198.94517279999997C262.2392 196.92509759999996,264.50020159999997 194.68262879999997,267.0947936 194.55289919999998">
</path>
</g>
<g class="vf-flag" pointer-events="bounding-box">
<path stroke-width="0.3" fill="#000000" stroke="none" stroke-dasharray="none" d="M269.4212384 172.89999999999998M268.9764512 175.88378079999998L268.9764512 172.992664L269.0505824 172.992664C269.25444319999997 172.992664,269.3841728 173.12239359999998,269.4212384 173.34478719999998C269.8104272 175.19806719999997,270.9779936 177.21814239999998,272.5903472 178.73783199999997C274.3880288 180.42431679999999,275.296136 182.74091679999998,275.296136 185.13164799999998C275.296136 187.39264959999997,274.4992256 189.74631519999997,272.886872 191.69225919999997C272.60888 192.06291519999996,272.5903472 192.06291519999996,272.40501919999997 192.06291519999996C272.1826256 192.06291519999996,272.0343632 191.89611999999997,272.0343632 191.67372639999996C272.0343632 191.50693119999997,272.052896 191.4698656,272.238224 191.2660048C273.6467168 189.56098719999997,274.35096319999997 187.5038464,274.35096319999997 185.5393696C274.35096319999997 183.7972864,273.7949792 182.12933439999998,272.6459456 180.86910399999996C271.9416992 180.09072639999997,270.6444032 179.34941439999997,268.994984 178.77489759999997C268.994984 178.75636479999997,268.9764512 178.18184799999997,268.9764512 175.88378079999998">
</path>
</g>
</g>
<g class="vf-modifiers">
</g>
</g>
<path stroke-width="1" fill="none" stroke="#000000" stroke-dasharray="none" d="M263.2392 189.74999999999997L276.2392 180.74999999999997Z">
</path>
</g>
</g>
<g class="vf-stavenote" id="vf-auto53965">
<g class="vf-note" pointer-events="bounding-box">
<g class="vf-notehead" pointer-events="bounding-box">
<path stroke-width="0.3" fill="#000000" stroke="none" stroke-dasharray="none" d="M336.54251839999995 197.99999999999997M343.89947839999996 192.77711999999997C344.0117984 192.77711999999997,344.18027839999996 192.77711999999997,344.20835839999995 192.77711999999997C344.20835839999995 192.77711999999997,344.23643839999994 192.77711999999997,344.23643839999994 192.77711999999997C344.23643839999994 192.77711999999997,344.40491839999993 192.77711999999997,344.5453183999999 192.77711999999997C347.0725183999999 192.91751999999997,348.56075839999994 194.57423999999997,348.56075839999994 196.65215999999998C348.56075839999994 197.66303999999997,348.22379839999996 198.81431999999998,347.38139839999997 199.90943999999996C345.78083839999994 202.07159999999996,343.1693984 203.25095999999996,340.89491839999994 203.25095999999996C339.1258784 203.25095999999996,337.60955839999997 202.54895999999997,336.8794783999999 201.11687999999998C336.65483839999996 200.55527999999998,336.54251839999995 200.02175999999997,336.54251839999995 199.43207999999998C336.54251839999995 196.37135999999998,339.9682784 192.97367999999997,343.89947839999996 192.77711999999997">
</path>
</g>
</g>
<g class="vf-modifiers">
</g>
</g>
<g class="vf-stavenote" id="vf-auto53975">
<g class="vf-note" pointer-events="bounding-box">
<g class="vf-notehead" pointer-events="bounding-box">
<path stroke-width="0.3" fill="#000000" stroke="none" stroke-dasharray="none" d="M369.7712592 197.99999999999997M377.1282192 192.77711999999997C377.2405392 192.77711999999997,377.4090192 192.77711999999997,377.4370992 192.77711999999997C377.4370992 192.77711999999997,377.46517919999997 192.77711999999997,377.46517919999997 192.77711999999997C377.46517919999997 192.77711999999997,377.63365919999995 192.77711999999997,377.77405919999995 192.77711999999997C380.3012592 192.91751999999997,381.78949919999997 194.57423999999997,381.78949919999997 196.65215999999998C381.78949919999997 197.66303999999997,381.4525392 198.81431999999998,380.6101392 199.90943999999996C379.00957919999996 202.07159999999996,376.39813919999995 203.25095999999996,374.12365919999996 203.25095999999996C372.3546192 203.25095999999996,370.8382992 202.54895999999997,370.10821919999995 201.11687999999998C369.8835792 200.55527999999998,369.7712592 200.02175999999997,369.7712592 199.43207999999998C369.7712592 196.37135999999998,373.1970192 192.97367999999997,377.1282192 192.77711999999997">
</path>
</g>
</g>
<g class="vf-modifiers">
</g>
</g>
<path stroke-width="1.5" fill="none" stroke="#000000" stroke-dasharray="none" d="M158.61071679999998 197.99999999999997L158.61071679999998 163.74999999999997">
</path>
<path stroke-width="1.5" fill="none" stroke="#000000" stroke-dasharray="none" d="M207.04995839999998 197.99999999999997L207.04995839999998 163.74999999999997">
</path>
<path stroke-width="1.5" fill="none" stroke="#000000" stroke-dasharray="none" d="M240.27869919999998 197.99999999999997L240.27869919999998 163.74999999999997">
</path>
<path stroke-width="0.3" fill="#000000" stroke="none" stroke-dasharray="none" d="M157.86071679999998 162.99999999999997L157.86071679999998 167.99999999999997L240.52869919999998 167.99999999999997L240.52869919999998 162.99999999999997Z">
</path>
<path stroke-width="0.3" fill="#000000" stroke="none" stroke-dasharray="none" d="M206.29995839999998 170.49999999999997L206.29995839999998 175.49999999999997L240.52869919999998 175.49999999999997L240.52869919999998 170.49999999999997Z">
</path>
<path stroke-width="1.5" fill="none" stroke="#000000" stroke-dasharray="none" d="M299.3715168 197.99999999999997L299.3715168 163.74999999999997">
</path>
<path stroke-width="1.5" fill="none" stroke="#000000" stroke-dasharray="none" d="M347.81075839999994 197.99999999999997L347.81075839999994 163.74999999999997">
</path>
<path stroke-width="1.5" fill="none" stroke="#000000" stroke-dasharray="none" d="M381.03949919999997 197.99999999999997L381.03949919999997 163.74999999999997">
</path>
<path stroke-width="0.3" fill="#000000" stroke="none" stroke-dasharray="none" d="M298.6215168 162.99999999999997L298.6215168 167.99999999999997L381.28949919999997 167.99999999999997L381.28949919999997 162.99999999999997Z">
</path>
<path stroke-width="0.3" fill="#000000" stroke="none" stroke-dasharray="none" d="M347.06075839999994 170.49999999999997L347.06075839999994 175.49999999999997L381.28949919999997 175.49999999999997L381.28949919999997 170.49999999999997Z">
</path>
<path stroke-width="1" fill="none" stroke="black" stroke-dasharray="none" d="M401.385136384 197.99999999999997L993.460420352 197.99999999999997">
</path>
<rect stroke-width="0.3" fill="black" stroke="black" stroke-dasharray="none" x="988.460420352" y="177.49999999999997" width="1" height="41">
</rect>
<rect stroke-width="0.3" fill="black" stroke="black" stroke-dasharray="none" x="991.460420352" y="177.49999999999997" width="3" height="41">
</rect>
<path stroke-width="0.3" fill="black" stroke="none" stroke-dasharray="none" d="M987.460420352 193.49999999999997 A2 2 0 0 0 983.460420352 193.49999999999997M983.460420352 193.49999999999997 A2 2 0 0 0 987.460420352 193.49999999999997">
</path>
<path stroke-width="0.3" fill="black" stroke="none" stroke-dasharray="none" d="M987.460420352 203.49999999999997 A2 2 0 0 0 983.460420352 203.49999999999997M983.460420352 203.49999999999997 A2 2 0 0 0 987.460420352 203.49999999999997">
</path>
<path stroke-width="0.3" fill="black" stroke="none" stroke-dasharray="none" d="M406.385136384 197.99999999999997M411.396336384 179.65439999999998C411.42513638400004 179.62559999999996,411.828336384 179.62559999999996,413.066736384 179.62559999999996C413.441136384 179.62559999999996,413.84433638400003 179.62559999999996,414.362736384 179.62559999999996L417.271536384 179.62559999999996L417.357936384 179.71199999999996C417.50193638400003 179.79839999999996,417.588336384 179.94239999999996,417.588336384 180.05759999999998C417.588336384 180.23039999999997,417.50193638400003 180.34559999999996,417.386736384 180.46079999999998C417.357936384 180.54719999999998,417.098736384 180.77759999999998,416.925936384 181.03679999999997L415.39953638400004 182.79359999999997L413.441136384 185.01119999999997L412.40433638400003 186.19199999999998L410.849136384 187.97759999999997L408.804336384 190.31039999999996C408.458736384 190.74239999999998,408.08433638400004 191.08799999999997,408.08433638400004 191.08799999999997C408.08433638400004 191.08799999999997,408.08433638400004 191.08799999999997,408.08433638400004 191.08799999999997C408.08433638400004 191.14559999999997,408.343536384 191.14559999999997,410.733936384 191.14559999999997L413.35473638400003 191.14559999999997L413.35473638400003 189.27359999999996C413.35473638400003 187.37279999999998,413.35473638400003 187.34399999999997,413.383536384 187.31519999999998C413.441136384 187.22879999999998,413.700336384 186.91199999999998,414.708336384 185.73119999999997L415.11153638400003 185.29919999999998L415.514736384 184.86719999999997L416.119536384 184.08959999999996L416.753136384 183.42719999999997L417.069936384 183.02399999999997C417.18513638400003 182.85119999999998,417.357936384 182.82239999999996,417.50193638400003 182.82239999999996C417.674736384 182.82239999999996,417.81873638400003 182.90879999999999,417.905136384 183.05279999999996C417.93393638400005 183.13919999999996,417.93393638400005 183.19679999999997,417.93393638400005 185.32799999999997C417.93393638400005 185.81759999999997,417.93393638400005 186.42239999999998,417.93393638400005 187.14239999999998L417.93393638400005 191.14559999999997L418.653936384 191.14559999999997C419.316336384 191.14559999999997,419.345136384 191.14559999999997,419.431536384 191.17439999999996C419.661936384 191.26079999999996,419.777136384 191.49119999999996,419.777136384 191.75039999999998C419.777136384 191.89439999999996,419.748336384 192.06719999999999,419.633136384 192.18239999999997C419.460336384 192.32639999999998,419.431536384 192.32639999999998,418.653936384 192.32639999999998L417.93393638400005 192.32639999999998L417.93393638400005 192.81599999999997C417.96273638400004 194.28479999999996,418.250736384 194.86079999999998,419.37393638400005 195.46559999999997C419.777136384 195.66719999999998,419.86353638400004 195.72479999999996,419.86353638400004 196.01279999999997C419.86353638400004 196.21439999999998,419.805936384 196.30079999999998,419.661936384 196.41599999999997L419.57553638400003 196.44479999999996L415.629936384 196.44479999999996L411.713136384 196.44479999999996L411.626736384 196.41599999999997C411.45393638400003 196.30079999999998,411.42513638400004 196.21439999999998,411.42513638400004 196.01279999999997C411.42513638400004 195.72479999999996,411.45393638400003 195.66719999999998,411.88593638400005 195.46559999999997C413.00913638400004 194.86079999999998,413.297136384 194.28479999999996,413.297136384 192.81599999999997L413.297136384 192.32639999999998L409.98513638400004 192.32639999999998C409.38033638400003 192.38399999999996,408.89073638400004 192.38399999999996,408.487536384 192.38399999999996C406.67313638400003 192.38399999999996,406.64433638400004 192.32639999999998,406.615536384 192.32639999999998C406.442736384 192.26879999999997,406.385136384 192.09599999999998,406.385136384 191.89439999999996C406.385136384 191.89439999999996,406.385136384 191.89439999999996,406.385136384 191.89439999999996C406.385136384 191.69279999999998,406.385136384 191.69279999999998,406.96113638400004 191.0304C409.38033638400003 188.09279999999998,411.079536384 183.83039999999997,411.079536384 180.43199999999996C411.079536384 179.91359999999997,411.165936384 179.74079999999998,411.396336384 179.65439999999998M413.124336384 198.02879999999996L413.153136384 198.02879999999996L413.066736384 198.02879999999996L413.124336384 198.02879999999996M413.124336384 178.61759999999998L413.153136384 178.61759999999998L413.066736384 178.61759999999998L413.124336384 178.61759999999998">
</path>
<path stroke-width="0.3" fill="black" stroke="none" stroke-dasharray="none" d="M406.385136384 217.99999999999997M411.396336384 199.65439999999998C411.42513638400004 199.62559999999996,411.828336384 199.62559999999996,413.066736384 199.62559999999996C413.441136384 199.62559999999996,413.84433638400003 199.62559999999996,414.362736384 199.62559999999996L417.271536384 199.62559999999996L417.357936384 199.71199999999996C417.50193638400003 199.79839999999996,417.588336384 199.94239999999996,417.588336384 200.05759999999998C417.588336384 200.23039999999997,417.50193638400003 200.34559999999996,417.386736384 200.46079999999998C417.357936384 200.54719999999998,417.098736384 200.77759999999998,416.925936384 201.03679999999997L415.39953638400004 202.79359999999997L413.441136384 205.01119999999997L412.40433638400003 206.19199999999998L410.849136384 207.97759999999997L408.804336384 210.31039999999996C408.458736384 210.74239999999998,408.08433638400004 211.08799999999997,408.08433638400004 211.08799999999997C408.08433638400004 211.08799999999997,408.08433638400004 211.08799999999997,408.08433638400004 211.08799999999997C408.08433638400004 211.14559999999997,408.343536384 211.14559999999997,410.733936384 211.14559999999997L413.35473638400003 211.14559999999997L413.35473638400003 209.27359999999996C413.35473638400003 207.37279999999998,413.35473638400003 207.34399999999997,413.383536384 207.31519999999998C413.441136384 207.22879999999998,413.700336384 206.91199999999998,414.708336384 205.73119999999997L415.11153638400003 205.29919999999998L415.514736384 204.86719999999997L416.119536384 204.08959999999996L416.753136384 203.42719999999997L417.069936384 203.02399999999997C417.18513638400003 202.85119999999998,417.357936384 202.82239999999996,417.50193638400003 202.82239999999996C417.674736384 202.82239999999996,417.81873638400003 202.90879999999999,417.905136384 203.05279999999996C417.93393638400005 203.13919999999996,417.93393638400005 203.19679999999997,417.93393638400005 205.32799999999997C417.93393638400005 205.81759999999997,417.93393638400005 206.42239999999998,417.93393638400005 207.14239999999998L417.93393638400005 211.14559999999997L418.653936384 211.14559999999997C419.316336384 211.14559999999997,419.345136384 211.14559999999997,419.431536384 211.17439999999996C419.661936384 211.26079999999996,419.777136384 211.49119999999996,419.777136384 211.75039999999998C419.777136384 211.89439999999996,419.748336384 212.06719999999999,419.633136384 212.18239999999997C419.460336384 212.32639999999998,419.431536384 212.32639999999998,418.653936384 212.32639999999998L417.93393638400005 212.32639999999998L417.93393638400005 212.81599999999997C417.96273638400004 214.28479999999996,418.250736384 214.86079999999998,419.37393638400005 215.46559999999997C419.777136384 215.66719999999998,419.86353638400004 215.72479999999996,419.86353638400004 216.01279999999997C419.86353638400004 216.21439999999998,419.805936384 216.30079999999998,419.661936384 216.41599999999997L419.57553638400003 216.44479999999996L415.629936384 216.44479999999996L411.713136384 216.44479999999996L411.626736384 216.41599999999997C411.45393638400003 216.30079999999998,411.42513638400004 216.21439999999998,411.42513638400004 216.01279999999997C411.42513638400004 215.72479999999996,411.45393638400003 215.66719999999998,411.88593638400005 215.46559999999997C413.00913638400004 214.86079999999998,413.297136384 214.28479999999996,413.297136384 212.81599999999997L413.297136384 212.32639999999998L409.98513638400004 212.32639999999998C409.38033638400003 212.38399999999996,408.89073638400004 212.38399999999996,408.487536384 212.38399999999996C406.67313638400003 212.38399999999996,406.64433638400004 212.32639999999998,406.615536384 212.32639999999998C406.442736384 212.26879999999997,406.385136384 212.09599999999998,406.385136384 211.89439999999996C406.385136384 211.89439999999996,406.385136384 211.89439999999996,406.385136384 211.89439999999996C406.385136384 211.69279999999998,406.385136384 211.69279999999998,406.96113638400004 211.0304C409.38033638400003 208.09279999999998,411.079536384 203.83039999999997,411.079536384 200.43199999999996C411.079536384 199.91359999999997,411.165936384 199.74079999999998,411.396336384 199.65439999999998M413.124336384 218.02879999999996L413.153136384 218.02879999999996L413.066736384 218.02879999999996L413.124336384 218.02879999999996M413.124336384 198.61759999999998L413.153136384 198.61759999999998L413.066736384 198.61759999999998L413.124336384 198.61759999999998">
</path>
<g class="vf-stavenote" id="vf-auto53988">
<g class="vf-note" pointer-events="bounding-box">
<g class="vf-notehead" pointer-events="bounding-box">
<path stroke-width="0.3" fill="#000000" stroke="none" stroke-dasharray="none" d="M457.72761318400006 197.99999999999997M465.0845731840001 192.77711999999997C465.1968931840001 192.77711999999997,465.3653731840001 192.77711999999997,465.39345318400007 192.77711999999997C465.39345318400007 192.77711999999997,465.42153318400005 192.77711999999997,465.42153318400005 192.77711999999997C465.42153318400005 192.77711999999997,465.59001318400004 192.77711999999997,465.73041318400004 192.77711999999997C468.2576131840001 192.91751999999997,469.74585318400005 194.57423999999997,469.74585318400005 196.65215999999998C469.74585318400005 197.66303999999997,469.4088931840001 198.81431999999998,468.5664931840001 199.90943999999996C466.96593318400005 202.07159999999996,464.35449318400003 203.25095999999996,462.08001318400005 203.25095999999996C460.3109731840001 203.25095999999996,458.7946531840001 202.54895999999997,458.06457318400004 201.11687999999998C457.8399331840001 200.55527999999998,457.72761318400006 200.02175999999997,457.72761318400006 199.43207999999998C457.72761318400006 196.37135999999998,461.1533731840001 192.97367999999997,465.0845731840001 192.77711999999997">
</path>
</g>
</g>
<g class="vf-modifiers">
<g class="vf-stavenote" id="vf-auto53998">
<g class="vf-note" pointer-events="bounding-box">
<g class="vf-stem" pointer-events="bounding-box">
<path stroke-width="1.5" fill="none" stroke="#000000" stroke-dasharray="none" d="M439.04557478400005 197.99999999999997L439.04557478400005 174.89999999999998">
</path>
</g>
<g class="vf-notehead" pointer-events="bounding-box">
<path stroke-width="0.3" fill="#000000" stroke="none" stroke-dasharray="none" d="M431.86353638400004 197.99999999999997M436.71912998400006 194.55289919999998C436.793261184 194.55289919999998,436.90445798400003 194.55289919999998,436.92299078400004 194.55289919999998C436.92299078400004 194.55289919999998,436.94152358400004 194.55289919999998,436.94152358400004 194.55289919999998C436.94152358400004 194.55289919999998,437.05272038400005 194.55289919999998,437.14538438400007 194.55289919999998C438.813336384 194.64556319999997,439.79557478400005 195.73899839999996,439.79557478400005 197.11042559999999C439.79557478400005 197.77760639999997,439.573181184 198.53745119999996,439.01719718400005 199.26023039999998C437.96082758400007 200.68725599999996,436.23727718400005 201.46563359999996,434.73612038400006 201.46563359999996C433.56855398400006 201.46563359999996,432.56778278400003 201.00231359999998,432.085929984 200.05714079999998C431.93766758400005 199.68648479999996,431.86353638400004 199.33436159999997,431.86353638400004 198.94517279999997C431.86353638400004 196.92509759999996,434.124537984 194.68262879999997,436.71912998400006 194.55289919999998">
</path>
</g>
<g class="vf-flag" pointer-events="bounding-box">
<path stroke-width="0.3" fill="#000000" stroke="none" stroke-dasharray="none" d="M439.04557478400005 172.89999999999998M438.60078758400005 175.88378079999998L438.60078758400005 172.992664L438.67491878400006 172.992664C438.87877958400003 172.992664,439.00850918400005 173.12239359999998,439.04557478400005 173.34478719999998C439.43476358400005 175.19806719999997,440.60232998400005 177.21814239999998,442.21468358400006 178.73783199999997C444.01236518400003 180.42431679999999,444.92047238400005 182.74091679999998,444.92047238400005 185.13164799999998C444.92047238400005 187.39264959999997,444.12356198400005 189.74631519999997,442.51120838400004 191.69225919999997C442.23321638400006 192.06291519999996,442.21468358400006 192.06291519999996,442.02935558400003 192.06291519999996C441.80696198400005 192.06291519999996,441.65869958400003 191.89611999999997,441.65869958400003 191.67372639999996C441.65869958400003 191.50693119999997,441.67723238400004 191.4698656,441.86256038400006 191.2660048C443.27105318400004 189.56098719999997,443.975299584 187.5038464,443.975299584 185.5393696C443.975299584 183.7972864,443.41931558400006 182.12933439999998,442.27028198400006 180.86910399999996C441.5660355840001 180.09072639999997,440.26873958400006 179.34941439999997,438.61932038400005 178.77489759999997C438.61932038400005 178.75636479999997,438.60078758400005 178.18184799999997,438.60078758400005 175.88378079999998">
</path>
</g>
</g>
<g class="vf-modifiers">
</g>
</g>
<path stroke-width="1" fill="none" stroke="#000000" stroke-dasharray="none" d="M432.86353638400004 189.74999999999997L445.86353638400004 180.74999999999997Z">
</path>
</g>
</g>
<g class="vf-stavenote" id="vf-auto54012">
<g class="vf-note" pointer-events="bounding-box">
<g class="vf-notehead" pointer-events="bounding-box">
<path stroke-width="0.3" fill="#000000" stroke="none" stroke-dasharray="none" d="M501.7220947840001 197.99999999999997M509.0790547840001 192.77711999999997C509.1913747840001 192.77711999999997,509.3598547840001 192.77711999999997,509.3879347840001 192.77711999999997C509.3879347840001 192.77711999999997,509.4160147840001 192.77711999999997,509.4160147840001 192.77711999999997C509.4160147840001 192.77711999999997,509.58449478400007 192.77711999999997,509.72489478400007 192.77711999999997C512.2520947840001 192.91751999999997,513.7403347840001 194.57423999999997,513.7403347840001 196.65215999999998C513.7403347840001 197.66303999999997,513.4033747840001 198.81431999999998,512.5609747840001 199.90943999999996C510.9604147840001 202.07159999999996,508.3489747840001 203.25095999999996,506.0744947840001 203.25095999999996C504.3054547840001 203.25095999999996,502.7891347840001 202.54895999999997,502.05905478400007 201.11687999999998C501.8344147840001 200.55527999999998,501.7220947840001 200.02175999999997,501.7220947840001 199.43207999999998C501.7220947840001 196.37135999999998,505.1478547840001 192.97367999999997,509.0790547840001 192.77711999999997">
</path>
</g>
</g>
<g class="vf-modifiers">
</g>
</g>
<g class="vf-stavenote" id="vf-auto54022">
<g class="vf-note" pointer-events="bounding-box">
<g class="vf-notehead" pointer-events="bounding-box">
<path stroke-width="0.3" fill="#000000" stroke="none" stroke-dasharray="none" d="M532.7284555840001 197.99999999999997M540.0854155840001 192.77711999999997C540.1977355840002 192.77711999999997,540.3662155840001 192.77711999999997,540.3942955840001 192.77711999999997C540.3942955840001 192.77711999999997,540.4223755840002 192.77711999999997,540.4223755840002 192.77711999999997C540.4223755840002 192.77711999999997,540.5908555840001 192.77711999999997,540.7312555840001 192.77711999999997C543.2584555840001 192.91751999999997,544.7466955840001 194.57423999999997,544.7466955840001 196.65215999999998C544.7466955840001 197.66303999999997,544.4097355840001 198.81431999999998,543.5673355840001 199.90943999999996C541.9667755840002 202.07159999999996,539.3553355840002 203.25095999999996,537.0808555840001 203.25095999999996C535.3118155840001 203.25095999999996,533.7954955840002 202.54895999999997,533.0654155840001 201.11687999999998C532.8407755840001 200.55527999999998,532.7284555840001 200.02175999999997,532.7284555840001 199.43207999999998C532.7284555840001 196.37135999999998,536.1542155840001 192.97367999999997,540.0854155840001 192.77711999999997">
</path>
</g>
</g>
<g class="vf-modifiers">
</g>
</g>
<g class="vf-stavenote" id="vf-auto54032">
<g class="vf-note" pointer-events="bounding-box">
<g class="vf-notehead" pointer-events="bounding-box">
<path stroke-width="0.3" fill="#000000" stroke="none" stroke-dasharray="none" d="M589.5988931840001 197.99999999999997M596.955853184 192.77711999999997C597.0681731840001 192.77711999999997,597.236653184 192.77711999999997,597.2647331840001 192.77711999999997C597.2647331840001 192.77711999999997,597.2928131840001 192.77711999999997,597.2928131840001 192.77711999999997C597.2928131840001 192.77711999999997,597.461293184 192.77711999999997,597.601693184 192.77711999999997C600.128893184 192.91751999999997,601.6171331840001 194.57423999999997,601.6171331840001 196.65215999999998C601.6171331840001 197.66303999999997,601.2801731840001 198.81431999999998,600.4377731840001 199.90943999999996C598.8372131840001 202.07159999999996,596.2257731840001 203.25095999999996,593.9512931840001 203.25095999999996C592.182253184 203.25095999999996,590.6659331840001 202.54895999999997,589.935853184 201.11687999999998C589.711213184 200.55527999999998,589.5988931840001 200.02175999999997,589.5988931840001 199.43207999999998C589.5988931840001 196.37135999999998,593.024653184 192.97367999999997,596.955853184 192.77711999999997">
</path>
</g>
</g>
<g class="vf-modifiers">
<g class="vf-stavenote" id="vf-auto54042">
<g class="vf-note" pointer-events="bounding-box">
<g class="vf-stem" pointer-events="bounding-box">
<path stroke-width="1.5" fill="none" stroke="#000000" stroke-dasharray="none" d="M570.9168547840001 197.99999999999997L570.9168547840001 174.89999999999998">
</path>
</g>
<g class="vf-notehead" pointer-events="bounding-box">
<path stroke-width="0.3" fill="#000000" stroke="none" stroke-dasharray="none" d="M563.734816384 197.99999999999997M568.5904099840001 194.55289919999998C568.6645411840001 194.55289919999998,568.7757379840001 194.55289919999998,568.7942707840001 194.55289919999998C568.7942707840001 194.55289919999998,568.8128035840001 194.55289919999998,568.8128035840001 194.55289919999998C568.8128035840001 194.55289919999998,568.924000384 194.55289919999998,569.016664384 194.55289919999998C570.684616384 194.64556319999997,571.6668547840001 195.73899839999996,571.6668547840001 197.11042559999999C571.6668547840001 197.77760639999997,571.444461184 198.53745119999996,570.8884771840001 199.26023039999998C569.832107584 200.68725599999996,568.108557184 201.46563359999996,566.607400384 201.46563359999996C565.4398339840001 201.46563359999996,564.439062784 201.00231359999998,563.9572099840001 200.05714079999998C563.8089475840001 199.68648479999996,563.734816384 199.33436159999997,563.734816384 198.94517279999997C563.734816384 196.92509759999996,565.995817984 194.68262879999997,568.5904099840001 194.55289919999998">
</path>
</g>
<g class="vf-flag" pointer-events="bounding-box">
<path stroke-width="0.3" fill="#000000" stroke="none" stroke-dasharray="none" d="M570.9168547840001 172.89999999999998M570.4720675840001 175.88378079999998L570.4720675840001 172.992664L570.546198784 172.992664C570.750059584 172.992664,570.8797891840001 173.12239359999998,570.9168547840001 173.34478719999998C571.3060435840001 175.19806719999997,572.4736099840001 177.21814239999998,574.0859635840001 178.73783199999997C575.8836451840001 180.42431679999999,576.7917523840001 182.74091679999998,576.7917523840001 185.13164799999998C576.7917523840001 187.39264959999997,575.9948419840001 189.74631519999997,574.3824883840001 191.69225919999997C574.1044963840001 192.06291519999996,574.0859635840001 192.06291519999996,573.900635584 192.06291519999996C573.678241984 192.06291519999996,573.5299795840001 191.89611999999997,573.5299795840001 191.67372639999996C573.5299795840001 191.50693119999997,573.5485123840001 191.4698656,573.733840384 191.2660048C575.1423331840001 189.56098719999997,575.8465795840001 187.5038464,575.8465795840001 185.5393696C575.8465795840001 183.7972864,575.290595584 182.12933439999998,574.1415619840001 180.86910399999996C573.4373155840001 180.09072639999997,572.140019584 179.34941439999997,570.4906003840001 178.77489759999997C570.4906003840001 178.75636479999997,570.4720675840001 178.18184799999997,570.4720675840001 175.88378079999998">
</path>
</g>
</g>
<g class="vf-modifiers">
</g>
</g>
<path stroke-width="1" fill="none" stroke="#000000" stroke-dasharray="none" d="M564.734816384 189.74999999999997L577.734816384 180.74999999999997Z">
</path>
</g>
</g>
<g class="vf-stavenote" id="vf-auto54056">
<g class="vf-note" pointer-events="bounding-box">
<g class="vf-notehead" pointer-events="bounding-box">
<path stroke-width="0.3" fill="#000000" stroke="none" stroke-dasharray="none" d="M633.593374784 197.99999999999997M640.950334784 192.77711999999997C641.0626547840001 192.77711999999997,641.231134784 192.77711999999997,641.259214784 192.77711999999997C641.259214784 192.77711999999997,641.2872947840001 192.77711999999997,641.2872947840001 192.77711999999997C641.2872947840001 192.77711999999997,641.455774784 192.77711999999997,641.596174784 192.77711999999997C644.123374784 192.91751999999997,645.611614784 194.57423999999997,645.611614784 196.65215999999998C645.611614784 197.66303999999997,645.2746547840001 198.81431999999998,644.4322547840001 199.90943999999996C642.8316947840001 202.07159999999996,640.2202547840001 203.25095999999996,637.945774784 203.25095999999996C636.176734784 203.25095999999996,634.6604147840001 202.54895999999997,633.930334784 201.11687999999998C633.705694784 200.55527999999998,633.593374784 200.02175999999997,633.593374784 199.43207999999998C633.593374784 196.37135999999998,637.019134784 192.97367999999997,640.950334784 192.77711999999997">
</path>
</g>
</g>
<g class="vf-modifiers">
</g>
</g>
<g class="vf-stavenote" id="vf-auto54066">
<g class="vf-note" pointer-events="bounding-box">
<g class="vf-notehead" pointer-events="bounding-box">
<path stroke-width="0.3" fill="#000000" stroke="none" stroke-dasharray="none" d="M664.5997355840001 197.99999999999997M671.956695584 192.77711999999997C672.0690155840001 192.77711999999997,672.237495584 192.77711999999997,672.2655755840001 192.77711999999997C672.2655755840001 192.77711999999997,672.2936555840001 192.77711999999997,672.2936555840001 192.77711999999997C672.2936555840001 192.77711999999997,672.4621355840001 192.77711999999997,672.6025355840001 192.77711999999997C675.1297355840001 192.91751999999997,676.6179755840001 194.57423999999997,676.6179755840001 196.65215999999998C676.6179755840001 197.66303999999997,676.2810155840001 198.81431999999998,675.4386155840001 199.90943999999996C673.8380555840001 202.07159999999996,671.2266155840001 203.25095999999996,668.9521355840001 203.25095999999996C667.1830955840001 203.25095999999996,665.6667755840001 202.54895999999997,664.9366955840001 201.11687999999998C664.712055584 200.55527999999998,664.5997355840001 200.02175999999997,664.5997355840001 199.43207999999998C664.5997355840001 196.37135999999998,668.025495584 192.97367999999997,671.956695584 192.77711999999997">
</path>
</g>
</g>
<g class="vf-modifiers">
</g>
</g>
<g class="vf-stavenote" id="vf-auto54076">
<g class="vf-note" pointer-events="bounding-box">
<g class="vf-notehead" pointer-events="bounding-box">
<path stroke-width="0.3" fill="#000000" stroke="none" stroke-dasharray="none" d="M721.470173184 197.99999999999997M728.827133184 192.77711999999997C728.9394531840001 192.77711999999997,729.107933184 192.77711999999997,729.136013184 192.77711999999997C729.136013184 192.77711999999997,729.1640931840001 192.77711999999997,729.1640931840001 192.77711999999997C729.1640931840001 192.77711999999997,729.332573184 192.77711999999997,729.472973184 192.77711999999997C732.000173184 192.91751999999997,733.488413184 194.57423999999997,733.488413184 196.65215999999998C733.488413184 197.66303999999997,733.151453184 198.81431999999998,732.309053184 199.90943999999996C730.7084931840001 202.07159999999996,728.0970531840001 203.25095999999996,725.822573184 203.25095999999996C724.053533184 203.25095999999996,722.537213184 202.54895999999997,721.807133184 201.11687999999998C721.582493184 200.55527999999998,721.470173184 200.02175999999997,721.470173184 199.43207999999998C721.470173184 196.37135999999998,724.895933184 192.97367999999997,728.827133184 192.77711999999997">
</path>
</g>
</g>
<g class="vf-modifiers">
<g class="vf-stavenote" id="vf-auto54086">
<g class="vf-note" pointer-events="bounding-box">
<g class="vf-stem" pointer-events="bounding-box">
<path stroke-width="1.5" fill="none" stroke="#000000" stroke-dasharray="none" d="M702.788134784 197.99999999999997L702.788134784 174.89999999999998">
</path>
</g>
<g class="vf-notehead" pointer-events="bounding-box">
<path stroke-width="0.3" fill="#000000" stroke="none" stroke-dasharray="none" d="M695.606096384 197.99999999999997M700.461689984 194.55289919999998C700.535821184 194.55289919999998,700.6470179840001 194.55289919999998,700.6655507840001 194.55289919999998C700.6655507840001 194.55289919999998,700.6840835840001 194.55289919999998,700.6840835840001 194.55289919999998C700.6840835840001 194.55289919999998,700.795280384 194.55289919999998,700.887944384 194.55289919999998C702.555896384 194.64556319999997,703.538134784 195.73899839999996,703.538134784 197.11042559999999C703.538134784 197.77760639999997,703.315741184 198.53745119999996,702.759757184 199.26023039999998C701.703387584 200.68725599999996,699.979837184 201.46563359999996,698.478680384 201.46563359999996C697.311113984 201.46563359999996,696.310342784 201.00231359999998,695.828489984 200.05714079999998C695.680227584 199.68648479999996,695.606096384 199.33436159999997,695.606096384 198.94517279999997C695.606096384 196.92509759999996,697.867097984 194.68262879999997,700.461689984 194.55289919999998">
</path>
</g>
<g class="vf-flag" pointer-events="bounding-box">
<path stroke-width="0.3" fill="#000000" stroke="none" stroke-dasharray="none" d="M702.788134784 172.89999999999998M702.3433475840001 175.88378079999998L702.3433475840001 172.992664L702.417478784 172.992664C702.621339584 172.992664,702.751069184 173.12239359999998,702.788134784 173.34478719999998C703.1773235840001 175.19806719999997,704.344889984 177.21814239999998,705.957243584 178.73783199999997C707.7549251840001 180.42431679999999,708.6630323840001 182.74091679999998,708.6630323840001 185.13164799999998C708.6630323840001 187.39264959999997,707.8661219840001 189.74631519999997,706.2537683840001 191.69225919999997C705.975776384 192.06291519999996,705.957243584 192.06291519999996,705.771915584 192.06291519999996C705.549521984 192.06291519999996,705.4012595840001 191.89611999999997,705.4012595840001 191.67372639999996C705.4012595840001 191.50693119999997,705.4197923840001 191.4698656,705.605120384 191.2660048C707.0136131840001 189.56098719999997,707.717859584 187.5038464,707.717859584 185.5393696C707.717859584 183.7972864,707.161875584 182.12933439999998,706.012841984 180.86910399999996C705.308595584 180.09072639999997,704.011299584 179.34941439999997,702.3618803840001 178.77489759999997C702.3618803840001 178.75636479999997,702.3433475840001 178.18184799999997,702.3433475840001 175.88378079999998">
</path>
</g>
</g>
<g class="vf-modifiers">
</g>
</g>
<path stroke-width="1" fill="none" stroke="#000000" stroke-dasharray="none" d="M696.606096384 189.74999999999997L709.606096384 180.74999999999997Z">
</path>
</g>
</g>
<g class="vf-stavenote" id="vf-auto54100">
<g class="vf-note" pointer-events="bounding-box">
<g class="vf-notehead" pointer-events="bounding-box">
<path stroke-width="0.3" fill="#000000" stroke="none" stroke-dasharray="none" d="M752.4765339840001 197.99999999999997M759.833493984 192.77711999999997C759.9458139840001 192.77711999999997,760.114293984 192.77711999999997,760.1423739840001 192.77711999999997C760.1423739840001 192.77711999999997,760.1704539840001 192.77711999999997,760.1704539840001 192.77711999999997C760.1704539840001 192.77711999999997,760.338933984 192.77711999999997,760.479333984 192.77711999999997C763.006533984 192.91751999999997,764.4947739840001 194.57423999999997,764.4947739840001 196.65215999999998C764.4947739840001 197.66303999999997,764.1578139840001 198.81431999999998,763.3154139840001 199.90943999999996C761.7148539840001 202.07159999999996,759.1034139840001 203.25095999999996,756.8289339840001 203.25095999999996C755.059893984 203.25095999999996,753.5435739840001 202.54895999999997,752.813493984 201.11687999999998C752.588853984 200.55527999999998,752.4765339840001 200.02175999999997,752.4765339840001 199.43207999999998C752.4765339840001 196.37135999999998,755.902293984 192.97367999999997,759.833493984 192.77711999999997">
</path>
</g>
</g>
<g class="vf-modifiers">
</g>
</g>
<g class="vf-stavenote" id="vf-auto54110">
<g class="vf-note" pointer-events="bounding-box">
<g class="vf-notehead" pointer-events="bounding-box">
<path stroke-width="0.3" fill="#000000" stroke="none" stroke-dasharray="none" d="M783.4828947840001 197.99999999999997M790.8398547840001 192.77711999999997C790.9521747840001 192.77711999999997,791.1206547840001 192.77711999999997,791.1487347840001 192.77711999999997C791.1487347840001 192.77711999999997,791.1768147840002 192.77711999999997,791.1768147840002 192.77711999999997C791.1768147840002 192.77711999999997,791.3452947840001 192.77711999999997,791.4856947840001 192.77711999999997C794.0128947840001 192.91751999999997,795.5011347840001 194.57423999999997,795.5011347840001 196.65215999999998C795.5011347840001 197.66303999999997,795.1641747840001 198.81431999999998,794.3217747840001 199.90943999999996C792.7212147840002 202.07159999999996,790.1097747840001 203.25095999999996,787.8352947840001 203.25095999999996C786.0662547840001 203.25095999999996,784.5499347840001 202.54895999999997,783.8198547840001 201.11687999999998C783.5952147840001 200.55527999999998,783.4828947840001 200.02175999999997,783.4828947840001 199.43207999999998C783.4828947840001 196.37135999999998,786.9086547840001 192.97367999999997,790.8398547840001 192.77711999999997">
</path>
</g>
</g>
<g class="vf-modifiers">
</g>
</g>
<g class="vf-stavenote" id="vf-auto54120">
<g class="vf-note" pointer-events="bounding-box">
<g class="vf-notehead" pointer-events="bounding-box">
<path stroke-width="0.3" fill="#000000" stroke="none" stroke-dasharray="none" d="M814.4892555840001 197.99999999999997M821.8462155840001 192.77711999999997C821.9585355840002 192.77711999999997,822.1270155840001 192.77711999999997,822.1550955840002 192.77711999999997C822.1550955840002 192.77711999999997,822.1831755840002 192.77711999999997,822.1831755840002 192.77711999999997C822.1831755840002 192.77711999999997,822.3516555840001 192.77711999999997,822.4920555840001 192.77711999999997C825.0192555840001 192.91751999999997,826.5074955840001 194.57423999999997,826.5074955840001 196.65215999999998C826.5074955840001 197.66303999999997,826.1705355840002 198.81431999999998,825.3281355840002 199.90943999999996C823.7275755840002 202.07159999999996,821.1161355840002 203.25095999999996,818.8416555840001 203.25095999999996C817.0726155840001 203.25095999999996,815.5562955840002 202.54895999999997,814.8262155840001 201.11687999999998C814.6015755840001 200.55527999999998,814.4892555840001 200.02175999999997,814.4892555840001 199.43207999999998C814.4892555840001 196.37135999999998,817.9150155840001 192.97367999999997,821.8462155840001 192.77711999999997">
</path>
</g>
</g>
<g class="vf-modifiers">
</g>
</g>
<g class="vf-stavenote" id="vf-auto54130">
<g class="vf-note" pointer-events="bounding-box">
<g class="vf-notehead" pointer-events="bounding-box">
<path stroke-width="0.3" fill="#000000" stroke="none" stroke-dasharray="none" d="M871.3596931840001 197.99999999999997M878.716653184 192.77711999999997C878.8289731840001 192.77711999999997,878.997453184 192.77711999999997,879.0255331840001 192.77711999999997C879.0255331840001 192.77711999999997,879.0536131840001 192.77711999999997,879.0536131840001 192.77711999999997C879.0536131840001 192.77711999999997,879.2220931840001 192.77711999999997,879.3624931840001 192.77711999999997C881.8896931840001 192.91751999999997,883.3779331840001 194.57423999999997,883.3779331840001 196.65215999999998C883.3779331840001 197.66303999999997,883.0409731840001 198.81431999999998,882.1985731840001 199.90943999999996C880.5980131840001 202.07159999999996,877.9865731840001 203.25095999999996,875.7120931840001 203.25095999999996C873.9430531840001 203.25095999999996,872.4267331840001 202.54895999999997,871.6966531840001 201.11687999999998C871.472013184 200.55527999999998,871.3596931840001 200.02175999999997,871.3596931840001 199.43207999999998C871.3596931840001 196.37135999999998,874.7854531840001 192.97367999999997,878.716653184 192.77711999999997">
</path>
</g>
</g>
<g class="vf-modifiers">
<g class="vf-stavenote" id="vf-auto54140">
<g class="vf-note" pointer-events="bounding-box">
<g class="vf-stem" pointer-events="bounding-box">
<path stroke-width="1.5" fill="none" stroke="#000000" stroke-dasharray="none" d="M852.6776547840001 197.99999999999997L852.6776547840001 174.89999999999998">
</path>
</g>
<g class="vf-notehead" pointer-events="bounding-box">
<path stroke-width="0.3" fill="#000000" stroke="none" stroke-dasharray="none" d="M845.4956163840001 197.99999999999997M850.3512099840001 194.55289919999998C850.4253411840001 194.55289919999998,850.5365379840001 194.55289919999998,850.5550707840001 194.55289919999998C850.5550707840001 194.55289919999998,850.5736035840001 194.55289919999998,850.5736035840001 194.55289919999998C850.5736035840001 194.55289919999998,850.684800384 194.55289919999998,850.777464384 194.55289919999998C852.445416384 194.64556319999997,853.4276547840001 195.73899839999996,853.4276547840001 197.11042559999999C853.4276547840001 197.77760639999997,853.205261184 198.53745119999996,852.6492771840001 199.26023039999998C851.592907584 200.68725599999996,849.869357184 201.46563359999996,848.368200384 201.46563359999996C847.2006339840001 201.46563359999996,846.1998627840001 201.00231359999998,845.7180099840001 200.05714079999998C845.5697475840001 199.68648479999996,845.4956163840001 199.33436159999997,845.4956163840001 198.94517279999997C845.4956163840001 196.92509759999996,847.7566179840001 194.68262879999997,850.3512099840001 194.55289919999998">
</path>
</g>
<g class="vf-flag" pointer-events="bounding-box">
<path stroke-width="0.3" fill="#000000" stroke="none" stroke-dasharray="none" d="M852.6776547840001 172.89999999999998M852.2328675840001 175.88378079999998L852.2328675840001 172.992664L852.306998784 172.992664C852.5108595840001 172.992664,852.6405891840001 173.12239359999998,852.6776547840001 173.34478719999998C853.0668435840001 175.19806719999997,854.2344099840001 177.21814239999998,855.8467635840001 178.73783199999997C857.6444451840001 180.42431679999999,858.5525523840001 182.74091679999998,858.5525523840001 185.13164799999998C858.5525523840001 187.39264959999997,857.7556419840001 189.74631519999997,856.1432883840001 191.69225919999997C855.8652963840001 192.06291519999996,855.8467635840001 192.06291519999996,855.6614355840001 192.06291519999996C855.439041984 192.06291519999996,855.2907795840001 191.89611999999997,855.2907795840001 191.67372639999996C855.2907795840001 191.50693119999997,855.3093123840001 191.4698656,855.494640384 191.2660048C856.9031331840001 189.56098719999997,857.6073795840001 187.5038464,857.6073795840001 185.5393696C857.6073795840001 183.7972864,857.051395584 182.12933439999998,855.9023619840001 180.86910399999996C855.1981155840001 180.09072639999997,853.900819584 179.34941439999997,852.2514003840001 178.77489759999997C852.2514003840001 178.75636479999997,852.2328675840001 178.18184799999997,852.2328675840001 175.88378079999998">
</path>
</g>
</g>
<g class="vf-modifiers">
</g>
</g>
<path stroke-width="1" fill="none" stroke="#000000" stroke-dasharray="none" d="M846.4956163840001 189.74999999999997L859.4956163840001 180.74999999999997Z">
</path>
</g>
</g>
<g class="vf-stavenote" id="vf-auto54154">
<g class="vf-note" pointer-events="bounding-box">
<g class="vf-notehead" pointer-events="bounding-box">
<path stroke-width="0.3" fill="#000000" stroke="none" stroke-dasharray="none" d="M902.366053984 197.99999999999997M909.723013984 192.77711999999997C909.835333984 192.77711999999997,910.003813984 192.77711999999997,910.031893984 192.77711999999997C910.031893984 192.77711999999997,910.0599739840001 192.77711999999997,910.0599739840001 192.77711999999997C910.0599739840001 192.77711999999997,910.228453984 192.77711999999997,910.368853984 192.77711999999997C912.896053984 192.91751999999997,914.384293984 194.57423999999997,914.384293984 196.65215999999998C914.384293984 197.66303999999997,914.047333984 198.81431999999998,913.204933984 199.90943999999996C911.6043739840001 202.07159999999996,908.992933984 203.25095999999996,906.718453984 203.25095999999996C904.949413984 203.25095999999996,903.433093984 202.54895999999997,902.703013984 201.11687999999998C902.478373984 200.55527999999998,902.366053984 200.02175999999997,902.366053984 199.43207999999998C902.366053984 196.37135999999998,905.791813984 192.97367999999997,909.723013984 192.77711999999997">
</path>
</g>
</g>
<g class="vf-modifiers">
</g>
</g>
<g class="vf-stavenote" id="vf-auto54164">
<g class="vf-note" pointer-events="bounding-box">
<g class="vf-notehead" pointer-events="bounding-box">
<path stroke-width="0.3" fill="#000000" stroke="none" stroke-dasharray="none" d="M933.3724147840001 197.99999999999997M940.729374784 192.77711999999997C940.8416947840001 192.77711999999997,941.010174784 192.77711999999997,941.0382547840001 192.77711999999997C941.0382547840001 192.77711999999997,941.0663347840001 192.77711999999997,941.0663347840001 192.77711999999997C941.0663347840001 192.77711999999997,941.234814784 192.77711999999997,941.375214784 192.77711999999997C943.902414784 192.91751999999997,945.390654784 194.57423999999997,945.390654784 196.65215999999998C945.390654784 197.66303999999997,945.0536947840001 198.81431999999998,944.2112947840001 199.90943999999996C942.6107347840001 202.07159999999996,939.9992947840001 203.25095999999996,937.724814784 203.25095999999996C935.955774784 203.25095999999996,934.4394547840001 202.54895999999997,933.709374784 201.11687999999998C933.484734784 200.55527999999998,933.3724147840001 200.02175999999997,933.3724147840001 199.43207999999998C933.3724147840001 196.37135999999998,936.798174784 192.97367999999997,940.729374784 192.77711999999997">
</path>
</g>
</g>
<g class="vf-modifiers">
</g>
</g>
<g class="vf-stavenote" id="vf-auto54174">
<g class="vf-note" pointer-events="bounding-box">
<g class="vf-notehead" pointer-events="bounding-box">
<path stroke-width="0.3" fill="#000000" stroke="none" stroke-dasharray="none" d="M964.3787755840001 197.99999999999997M971.735735584 192.77711999999997C971.8480555840001 192.77711999999997,972.016535584 192.77711999999997,972.0446155840001 192.77711999999997C972.0446155840001 192.77711999999997,972.0726955840001 192.77711999999997,972.0726955840001 192.77711999999997C972.0726955840001 192.77711999999997,972.2411755840001 192.77711999999997,972.3815755840001 192.77711999999997C974.9087755840001 192.91751999999997,976.3970155840001 194.57423999999997,976.3970155840001 196.65215999999998C976.3970155840001 197.66303999999997,976.0600555840001 198.81431999999998,975.2176555840001 199.90943999999996C973.6170955840001 202.07159999999996,971.0056555840001 203.25095999999996,968.7311755840001 203.25095999999996C966.9621355840001 203.25095999999996,965.4458155840001 202.54895999999997,964.7157355840001 201.11687999999998C964.491095584 200.55527999999998,964.3787755840001 200.02175999999997,964.3787755840001 199.43207999999998C964.3787755840001 196.37135999999998,967.8045355840001 192.97367999999997,971.735735584 192.77711999999997">
</path>
</g>
</g>
<g class="vf-modifiers">
</g>
</g>
<path stroke-width="1.5" fill="none" stroke="#000000" stroke-dasharray="none" d="M468.99585318400005 197.99999999999997L468.99585318400005 163.74999999999997">
</path>
<path stroke-width="1.5" fill="none" stroke="#000000" stroke-dasharray="none" d="M512.9903347840001 197.99999999999997L512.9903347840001 163.74999999999997">
</path>
<path stroke-width="1.5" fill="none" stroke="#000000" stroke-dasharray="none" d="M543.9966955840001 197.99999999999997L543.9966955840001 163.74999999999997">
</path>
<path stroke-width="0.3" fill="#000000" stroke="none" stroke-dasharray="none" d="M468.24585318400005 162.99999999999997L468.24585318400005 167.99999999999997L544.2466955840001 167.99999999999997L544.2466955840001 162.99999999999997Z">
</path>
<path stroke-width="0.3" fill="#000000" stroke="none" stroke-dasharray="none" d="M512.2403347840001 170.49999999999997L512.2403347840001 175.49999999999997L544.2466955840001 175.49999999999997L544.2466955840001 170.49999999999997Z">
</path>
<path stroke-width="1.5" fill="none" stroke="#000000" stroke-dasharray="none" d="M600.8671331840001 197.99999999999997L600.8671331840001 163.74999999999997">
</path>
<path stroke-width="1.5" fill="none" stroke="#000000" stroke-dasharray="none" d="M644.861614784 197.99999999999997L644.861614784 163.74999999999997">
</path>
<path stroke-width="1.5" fill="none" stroke="#000000" stroke-dasharray="none" d="M675.8679755840001 197.99999999999997L675.8679755840001 163.74999999999997">
</path>
<path stroke-width="0.3" fill="#000000" stroke="none" stroke-dasharray="none" d="M600.1171331840001 162.99999999999997L600.1171331840001 167.99999999999997L676.1179755840001 167.99999999999997L676.1179755840001 162.99999999999997Z">
</path>
<path stroke-width="0.3" fill="#000000" stroke="none" stroke-dasharray="none" d="M644.111614784 170.49999999999997L644.111614784 175.49999999999997L676.1179755840001 175.49999999999997L676.1179755840001 170.49999999999997Z">
</path>
<path stroke-width="1.5" fill="none" stroke="#000000" stroke-dasharray="none" d="M732.738413184 197.99999999999997L732.738413184 163.74999999999997">
</path>
<path stroke-width="1.5" fill="none" stroke="#000000" stroke-dasharray="none" d="M763.7447739840001 197.99999999999997L763.7447739840001 163.74999999999997">
</path>
<path stroke-width="1.5" fill="none" stroke="#000000" stroke-dasharray="none" d="M794.7511347840001 197.99999999999997L794.7511347840001 163.74999999999997">
</path>
<path stroke-width="1.5" fill="none" stroke="#000000" stroke-dasharray="none" d="M825.7574955840001 197.99999999999997L825.7574955840001 163.74999999999997">
</path>
<path stroke-width="0.3" fill="#000000" stroke="none" stroke-dasharray="none" d="M731.988413184 162.99999999999997L731.988413184 167.99999999999997L826.0074955840001 167.99999999999997L826.0074955840001 162.99999999999997Z">
</path>
<path stroke-width="0.3" fill="#000000" stroke="none" stroke-dasharray="none" d="M731.988413184 170.49999999999997L731.988413184 175.49999999999997L826.0074955840001 175.49999999999997L826.0074955840001 170.49999999999997Z">
</path>
<path stroke-width="1.5" fill="none" stroke="#000000" stroke-dasharray="none" d="M882.6279331840001 197.99999999999997L882.6279331840001 163.74999999999997">
</path>
<path stroke-width="1.5" fill="none" stroke="#000000" stroke-dasharray="none" d="M913.634293984 197.99999999999997L913.634293984 163.74999999999997">
</path>
<path stroke-width="1.5" fill="none" stroke="#000000" stroke-dasharray="none" d="M944.640654784 197.99999999999997L944.640654784 163.74999999999997">
</path>
<path stroke-width="1.5" fill="none" stroke="#000000" stroke-dasharray="none" d="M975.6470155840001 197.99999999999997L975.6470155840001 163.74999999999997">
</path>
<path stroke-width="0.3" fill="#000000" stroke="none" stroke-dasharray="none" d="M881.8779331840001 162.99999999999997L881.8779331840001 167.99999999999997L975.8970155840001 167.99999999999997L975.8970155840001 162.99999999999997Z">
</path>
<path stroke-width="0.3" fill="#000000" stroke="none" stroke-dasharray="none" d="M881.8779331840001 170.49999999999997L881.8779331840001 175.49999999999997L975.8970155840001 175.49999999999997L975.8970155840001 170.49999999999997Z">
</path>
</svg>