<svg width="1536" height="331.99999999999994" viewBox="0 0 1536 331.99999999999994">
<path stroke-width="1" fill="none" stroke="black" stroke-dasharray="none" d="M50 197.99999999999997L401.385136384 197.99999999999997">
</path>
<rect stroke-width="0.3" fill="black" stroke="black" stroke-dasharray="none" x="401.385136384" y="177.49999999999997" width="1" height="41">
</rect>
<path stroke-width="0.3" fill="black" stroke="none" stroke-dasharray="none" d="M55 197.99999999999997M55 197.99999999999997L55 188.00639999999999L57.1888 188.00639999999999L59.4064 188.00639999999999L59.4064 197.99999999999997L59.4064 208.02239999999998L57.1888 208.02239999999998L55 208.02239999999998L55 197.99999999999997M63.870400000000004 198.02879999999996L63.870400000000004 188.00639999999999L66.1168 188.00639999999999L68.3632 188.00639999999999L68.3632 198.02879999999996L68.3632 208.02239999999998L66.1168 208.02239999999998L63.870400000000004 208.02239999999998L63.870400000000004 198.02879999999996">
</path>
<path stroke-width="0.3" fill="black" stroke="none" stroke-dasharray="none" d="M96.1296 197.99999999999997M101.80319999999999 179.33759999999998C101.91839999999999 179.33759999999998,102.11999999999999 179.33759999999998,102.3504 179.33759999999998C102.8112 179.33759999999998,103.416 179.33759999999998,103.56 179.39519999999996C105.72 179.65439999999998,107.448 180.74879999999996,108.1968 182.27519999999998C108.45599999999999 182.79359999999997,108.57119999999999 183.34079999999997,108.57119999999999 183.91679999999997C108.57119999999999 185.32799999999997,107.7936 186.94079999999997,106.38239999999999 188.15039999999996C105.4032 188.98559999999998,104.42399999999999 189.50399999999996,102.8976 189.99359999999996C100.9104 190.62719999999996,99.21119999999999 191.75039999999998,98.1168 193.10399999999998C98.1168 193.10399999999998,98.1168 193.13279999999997,98.1168 193.13279999999997C98.1168 193.13279999999997,98.1168 193.13279999999997,98.1168 193.13279999999997C98.1168 193.13279999999997,98.2032 193.10399999999998,98.26079999999999 193.01759999999996C99.3552 192.12479999999996,100.824 191.60639999999998,102.1488 191.60639999999998C103.2432 191.60639999999998,104.0208 191.80799999999996,105.0576 192.38399999999996C105.6912 192.70079999999996,106.2672 192.84479999999996,106.81439999999999 192.84479999999996C107.0448 192.84479999999996,107.2752 192.84479999999996,107.53439999999999 192.78719999999998C107.9088 192.70079999999996,108.312 192.41279999999998,108.45599999999999 192.18239999999997C108.5424 191.98079999999996,108.68639999999999 191.89439999999996,108.8592 191.89439999999996C109.08959999999999 191.89439999999996,109.32 192.06719999999999,109.32 192.32639999999998C109.32 192.52799999999996,109.0608 193.24799999999996,108.8304 193.7376C107.9088 195.58079999999998,106.29599999999999 196.73279999999997,104.7408 196.73279999999997C104.62559999999999 196.73279999999997,104.5392 196.73279999999997,104.42399999999999 196.70399999999998C104.0208 196.70399999999998,103.848 196.58879999999996,103.3296 196.24319999999997C102.23519999999999 195.52319999999997,100.8528 195.14879999999997,99.6432 195.14879999999997C99.1248 195.14879999999997,98.664 195.20639999999997,98.232 195.37919999999997C97.65599999999999 195.58079999999998,97.1088 195.92639999999997,96.93599999999999 196.18559999999997C96.8496 196.38719999999998,96.70559999999999 196.44479999999996,96.5328 196.44479999999996C96.3888 196.44479999999996,96.2448 196.38719999999998,96.1584 196.21439999999998L96.10079999999999 196.128L96.10079999999999 195.72479999999996C96.10079999999999 195.37919999999997,96.1296 195.26399999999998,96.1296 195.14879999999997C96.1584 195.06239999999997,96.18719999999999 194.88959999999997,96.18719999999999 194.74559999999997C96.70559999999999 192.32639999999998,98.4624 190.16639999999998,100.8528 189.10079999999996C102.8112 188.17919999999998,104.10719999999999 186.53759999999997,104.3376 184.46399999999997C104.39519999999999 184.29119999999998,104.39519999999999 184.14719999999997,104.39519999999999 183.97439999999997C104.39519999999999 182.13119999999998,103.0128 180.86399999999998,101.0544 180.86399999999998C100.9104 180.86399999999998,100.7376 180.86399999999998,100.5936 180.86399999999998C100.3056 180.89279999999997,100.2192 180.89279999999997,100.2192 180.95039999999997C100.2192 180.95039999999997,100.2192 180.97919999999996,100.3056 181.03679999999997C100.96799999999999 181.41119999999998,101.28479999999999 182.13119999999998,101.28479999999999 182.82239999999996C101.28479999999999 183.71519999999998,100.824 184.55039999999997,99.93119999999999 184.89599999999996C99.6432 184.98239999999998,99.3552 185.01119999999997,99.1248 185.01119999999997C97.9152 185.01119999999997,96.9072 183.97439999999997,96.9072 182.73599999999996C96.9072 182.50559999999996,96.9072 182.27519999999998,96.9648 182.01599999999996C97.3968 180.69119999999998,99.4416 179.59679999999997,101.80319999999999 179.33759999999998M102.696 198.02879999999996L102.75359999999999 198.02879999999996L102.6672 198.02879999999996L102.696 198.02879999999996M102.696 178.61759999999998L102.75359999999999 178.61759999999998L102.6672 178.61759999999998L102.696 178.61759999999998">
</path>
<path stroke-width="0.3" fill="black" stroke="none" stroke-dasharray="none" d="M96 217.99999999999997M101.0112 199.65439999999998C101.04 199.62559999999996,101.4432 199.62559999999996,102.6816 199.62559999999996C103.056 199.62559999999996,103.4592 199.62559999999996,103.9776 199.62559999999996L106.8864 199.62559999999996L106.9728 199.71199999999996C107.1168 199.79839999999996,107.2032 199.94239999999996,107.2032 200.05759999999998C107.2032 200.23039999999997,107.1168 200.34559999999996,107.0016 200.46079999999998C106.9728 200.54719999999998,106.7136 200.77759999999998,106.5408 201.03679999999997L105.0144 202.79359999999997L103.056 205.01119999999997L102.0192 206.19199999999998L100.464 207.97759999999997L98.4192 210.31039999999996C98.0736 210.74239999999998,97.6992 211.08799999999997,97.6992 211.08799999999997C97.6992 211.08799999999997,97.6992 211.08799999999997,97.6992 211.08799999999997C97.6992 211.14559999999997,97.9584 211.14559999999997,100.3488 211.14559999999997L102.9696 211.14559999999997L102.9696 209.27359999999996C102.9696 207.37279999999998,102.9696 207.34399999999997,102.9984 207.31519999999998C103.056 207.22879999999998,103.3152 206.91199999999998,104.3232 205.73119999999997L104.7264 205.29919999999998L105.1296 204.86719999999997L105.7344 204.08959999999996L106.368 203.42719999999997L106.6848 203.02399999999997C106.8 202.85119999999998,106.9728 202.82239999999996,107.1168 202.82239999999996C107.28960000000001 202.82239999999996,107.4336 202.90879999999999,107.52 203.05279999999996C107.5488 203.13919999999996,107.5488 203.19679999999997,107.5488 205.32799999999997C107.5488 205.81759999999997,107.5488 206.42239999999998,107.5488 207.14239999999998L107.5488 211.14559999999997L108.2688 211.14559999999997C108.9312 211.14559999999997,108.96 211.14559999999997,109.0464 211.17439999999996C109.2768 211.26079999999996,109.392 211.49119999999996,109.392 211.75039999999998C109.392 211.89439999999996,109.3632 212.06719999999999,109.248 212.18239999999997C109.0752 212.32639999999998,109.0464 212.32639999999998,108.2688 212.32639999999998L107.5488 212.32639999999998L107.5488 212.81599999999997C107.5776 214.28479999999996,107.8656 214.86079999999998,108.9888 215.46559999999997C109.392 215.66719999999998,109.4784 215.72479999999996,109.4784 216.01279999999997C109.4784 216.21439999999998,109.4208 216.30079999999998,109.2768 216.41599999999997L109.1904 216.44479999999996L105.2448 216.44479999999996L101.328 216.44479999999996L101.2416 216.41599999999997C101.0688 216.30079999999998,101.04 216.21439999999998,101.04 216.01279999999997C101.04 215.72479999999996,101.0688 215.66719999999998,101.5008 215.46559999999997C102.624 214.86079999999998,102.912 214.28479999999996,102.912 212.81599999999997L102.912 212.32639999999998L99.6 212.32639999999998C98.9952 212.38399999999996,98.5056 212.38399999999996,98.1024 212.38399999999996C96.288 212.38399999999996,96.2592 212.32639999999998,96.2304 212.32639999999998C96.0576 212.26879999999997,96 212.09599999999998,96 211.89439999999996C96 211.89439999999996,96 211.89439999999996,96 211.89439999999996C96 211.69279999999998,96 211.69279999999998,96.576 211.0304C98.9952 208.09279999999998,100.6944 203.83039999999997,100.6944 200.43199999999996C100.6944 199.91359999999997,100.7808 199.74079999999998,101.0112 199.65439999999998M102.7392 218.02879999999996L102.768 218.02879999999996L102.6816 218.02879999999996L102.7392 218.02879999999996M102.7392 198.61759999999998L102.768 198.61759999999998L102.6816 198.61759999999998L102.7392 198.61759999999998">
</path>
<g class="vf-stavenote" id="vf-auto60365">
<g class="vf-note" pointer-events="bounding-box">
<g class="vf-notehead" pointer-events="bounding-box">
<path stroke-width="0.3" fill="#000000" stroke="none" stroke-dasharray="none" d="M147.3424768 197.99999999999997M154.69943679999997 192.77711999999997C154.81175679999998 192.77711999999997,154.9802368 192.77711999999997,155.0083168 192.77711999999997C155.0083168 192.77711999999997,155.03639679999998 192.77711999999997,155.03639679999998 192.77711999999997C155.03639679999998 192.77711999999997,155.2048768 192.77711999999997,155.3452768 192.77711999999997C157.8724768 192.91751999999997,159.36071679999998 194.57423999999997,159.36071679999998 196.65215999999998C159.36071679999998 197.66303999999997,159.0237568 198.81431999999998,158.18135679999997 199.90943999999996C156.58079679999997 202.07159999999996,153.96935679999999 203.25095999999996,151.69487679999997 203.25095999999996C149.92583679999998 203.25095999999996,148.40951679999998 202.54895999999997,147.6794368 201.11687999999998C147.4547968 200.55527999999998,147.3424768 200.02175999999997,147.3424768 199.43207999999998C147.3424768 196.37135999999998,150.76823679999998 192.97367999999997,154.69943679999997 192.77711999999997">
</path>
</g>
</g>
<g class="vf-modifiers">
<g class="vf-stavenote" id="vf-auto60375">
<g class="vf-note" pointer-events="bounding-box">
<g class="vf-stem" pointer-events="bounding-box">
<path stroke-width="1.5" fill="none" stroke="#000000" stroke-dasharray="none" d="M128.6604384 197.99999999999997L128.6604384 174.89999999999998">
</path>
</g>
<g class="vf-notehead" pointer-events="bounding-box">
<path stroke-width="0.3" fill="#000000" stroke="none" stroke-dasharray="none" d="M121.4784 197.99999999999997M126.3339936 194.55289919999998C126.4081248 194.55289919999998,126.5193216 194.55289919999998,126.5378544 194.55289919999998C126.5378544 194.55289919999998,126.55638719999999 194.55289919999998,126.55638719999999 194.55289919999998C126.55638719999999 194.55289919999998,126.66758399999999 194.55289919999998,126.76024799999999 194.55289919999998C128.4282 194.64556319999997,129.4104384 195.73899839999996,129.4104384 197.11042559999999C129.4104384 197.77760639999997,129.1880448 198.53745119999996,128.6320608 199.26023039999998C127.5756912 200.68725599999996,125.8521408 201.46563359999996,124.350984 201.46563359999996C123.1834176 201.46563359999996,122.1826464 201.00231359999998,121.7007936 200.05714079999998C121.55253119999999 199.68648479999996,121.4784 199.33436159999997,121.4784 198.94517279999997C121.4784 196.92509759999996,123.7394016 194.68262879999997,126.3339936 194.55289919999998">
</path>
</g>
<g class="vf-flag" pointer-events="bounding-box">
<path stroke-width="0.3" fill="#000000" stroke="none" stroke-dasharray="none" d="M128.6604384 172.89999999999998M128.2156512 175.88378079999998L128.2156512 172.992664L128.2897824 172.992664C128.4936432 172.992664,128.6233728 173.12239359999998,128.6604384 173.34478719999998C129.0496272 175.19806719999997,130.2171936 177.21814239999998,131.8295472 178.73783199999997C133.6272288 180.42431679999999,134.535336 182.74091679999998,134.535336 185.13164799999998C134.535336 187.39264959999997,133.7384256 189.74631519999997,132.126072 191.69225919999997C131.84808 192.06291519999996,131.8295472 192.06291519999996,131.6442192 192.06291519999996C131.4218256 192.06291519999996,131.2735632 191.89611999999997,131.2735632 191.67372639999996C131.2735632 191.50693119999997,131.29209600000002 191.4698656,131.477424 191.2660048C132.88591680000002 189.56098719999997,133.5901632 187.5038464,133.5901632 185.5393696C133.5901632 183.7972864,133.0341792 182.12933439999998,131.88514560000002 180.86910399999996C131.1808992 180.09072639999997,129.8836032 179.34941439999997,128.234184 178.77489759999997C128.234184 178.75636479999997,128.2156512 178.18184799999997,128.2156512 175.88378079999998">
</path>
</g>
</g>
<g class="vf-modifiers">
</g>
</g>
<path stroke-width="1" fill="none" stroke="#000000" stroke-dasharray="none" d="M122.4784 189.74999999999997L135.4784 180.74999999999997Z">
</path>
</g>
</g>
<g class="vf-stavenote" id="vf-auto60389">
<g class="vf-note" pointer-events="bounding-box">
<g class="vf-notehead" pointer-events="bounding-box">
<path stroke-width="0.3" fill="#000000" stroke="none" stroke-dasharray="none" d="M195.7817184 197.99999999999997M203.13867839999997 192.77711999999997C203.2509984 192.77711999999997,203.4194784 192.77711999999997,203.4475584 192.77711999999997C203.4475584 192.77711999999997,203.47563839999998 192.77711999999997,203.47563839999998 192.77711999999997C203.47563839999998 192.77711999999997,203.6441184 192.77711999999997,203.7845184 192.77711999999997C206.3117184 192.91751999999997,207.79995839999998 194.57423999999997,207.79995839999998 196.65215999999998C207.79995839999998 197.66303999999997,207.4629984 198.81431999999998,206.62059839999998 199.90943999999996C205.02003839999998 202.07159999999996,202.4085984 203.25095999999996,200.13411839999998 203.25095999999996C198.3650784 203.25095999999996,196.84875839999998 202.54895999999997,196.1186784 201.11687999999998C195.8940384 200.55527999999998,195.7817184 200.02175999999997,195.7817184 199.43207999999998C195.7817184 196.37135999999998,199.20747839999999 192.97367999999997,203.13867839999997 192.77711999999997">
</path>
</g>
</g>
<g class="vf-modifiers">
</g>
</g>
<g class="vf-stavenote" id="vf-auto60399">
<g class="vf-note" pointer-events="bounding-box">
<g class="vf-notehead" pointer-events="bounding-box">
<path stroke-width="0.3" fill="#000000" stroke="none" stroke-dasharray="none" d="M229.01045919999999 197.99999999999997M236.36741919999997 192.77711999999997C236.47973919999998 192.77711999999997,236.64821919999997 192.77711999999997,236.6762992 192.77711999999997C236.6762992 192.77711999999997,236.70437919999998 192.77711999999997,236.70437919999998 192.77711999999997C236.70437919999998 192.77711999999997,236.8728592 192.77711999999997,237.0132592 192.77711999999997C239.5404592 192.91751999999997,241.02869919999998 194.57423999999997,241.02869919999998 196.65215999999998C241.02869919999998 197.66303999999997,240.69173919999997 198.81431999999998,239.84933919999997 199.90943999999996C238.24877919999997 202.07159999999996,235.63733919999999 203.25095999999996,233.36285919999997 203.25095999999996C231.59381919999998 203.25095999999996,230.07749919999998 202.54895999999997,229.3474192 201.11687999999998C229.1227792 200.55527999999998,229.01045919999999 200.02175999999997,229.01045919999999 199.43207999999998C229.01045919999999 196.37135999999998,232.43621919999998 192.97367999999997,236.36741919999997 192.77711999999997">
</path>
</g>
</g>
<g class="vf-modifiers">
</g>
</g>
<g class="vf-stavenote" id="vf-auto60409">
<g class="vf-note" pointer-events="bounding-box">
<g class="vf-notehead" pointer-events="bounding-box">
<path stroke-width="0.3" fill="#000000" stroke="none" stroke-dasharray="none" d="M288.1032768 197.99999999999997M295.4602368 192.77711999999997C295.57255680000003 192.77711999999997,295.7410368 192.77711999999997,295.7691168 192.77711999999997C295.7691168 192.77711999999997,295.7971968 192.77711999999997,295.7971968 192.77711999999997C295.7971968 192.77711999999997,295.9656768 192.77711999999997,296.1060768 192.77711999999997C298.6332768 192.91751999999997,300.1215168 194.57423999999997,300.1215168 196.65215999999998C300.1215168 197.66303999999997,299.7845568 198.81431999999998,298.9421568 199.90943999999996C297.3415968 202.07159999999996,294.73015680000003 203.25095999999996,292.4556768 203.25095999999996C290.68663680000003 203.25095999999996,289.1703168 202.54895999999997,288.4402368 201.11687999999998C288.2155968 200.55527999999998,288.1032768 200.02175999999997,288.1032768 199.43207999999998C288.1032768 196.37135999999998,291.52903680000003 192.97367999999997,295.4602368 192.77711999999997">
</path>
</g>
</g>
<g class="vf-modifiers">
<g class="vf-stavenote" id="vf-auto60419">
<g class="vf-note" pointer-events="bounding-box">
<g class="vf-stem" pointer-events="bounding-box">
<path stroke-width="1.5" fill="none" stroke="#000000" stroke-dasharray="none" d="M269.4212384 197.99999999999997L269.4212384 174.89999999999998">
</path>
</g>
<g class="vf-notehead" pointer-events="bounding-box">
<path stroke-width="0.3" fill="#000000" stroke="none" stroke-dasharray="none" d="M262.2392 197.99999999999997M267.0947936 194.55289919999998C267.16892479999996 194.55289919999998,267.2801216 194.55289919999998,267.2986544 194.55289919999998C267.2986544 194.55289919999998,267.3171872 194.55289919999998,267.3171872 194.55289919999998C267.3171872 194.55289919999998,267.428384 194.55289919999998,267.521048 194.55289919999998C269.18899999999996 194.64556319999997,270.1712384 195.73899839999996,270.1712384 197.11042559999999C270.1712384 197.77760639999997,269.94884479999996 198.53745119999996,269.3928608 199.26023039999998C268.33649119999995 200.68725599999996,266.6129408 201.46563359999996,265.111784 201.46563359999996C263.9442176 201.46563359999996,262.94344639999997 201.00231359999998,262.46159359999996 200.05714079999998C262.3133312 199.68648479999996,262.2392 199.33436159999997,262.2392 198.94517279999997C262.2392 196.92509759999996,264.50020159999997 194.68262879999997,267.0947936 194.55289919999998">
</path>
</g>
<g class="vf-flag" pointer-events="bounding-box">
<path stroke-width="0.3" fill="#000000" stroke="none" stroke-dasharray="none" d="M269.4212384 172.89999999999998M268.9764512 175.88378079999998L268.9764512 172.992664L269.0505824 172.992664C269.25444319999997 172.992664,269.3841728 173.12239359999998,269.4212384 173.34478719999998C269.8104272 175.19806719999997,270.9779936 177.21814239999998,272.5903472 178.73783199999997C274.3880288 180.42431679999999,275.296136 182.74091679999998,275.296136 185.13164799999998C275.296136 187.39264959999997,274.4992256 189.74631519999997,272.886872 191.69225919999997C272.60888 192.06291519999996,272.5903472 192.06291519999996,272.40501919999997 192.06291519999996C272.1826256 192.06291519999996,272.0343632 191.89611999999997,272.0343632 191.67372639999996C272.0343632 191.50693119999997,272.052896 191.4698656,272.238224 191.2660048C273.6467168 189.56098719999997,274.35096319999997 187.5038464,274.35096319999997 185.5393696C274.35096319999997 183.7972864,273.7949792 182.12933439999998,272.6459456 180.86910399999996C271.9416992 180.09072639999997,270.6444032 179.34941439999997,268.994984 178.77489759999997C268.994984 178.75636479999997,268.9764512 178.18184799999997,268.9764512 175.88378079999998">
</path>
</g>
</g>
<g class="vf-modifiers">
</g>
</g>
<path stroke-width="1" fill="none" stroke="#000000" stroke-dasharray="none" d="M263.2392 189.74999999999997L276.2392 180.74999999999997Z">
</path>
</g>
</g>
<g class="vf-stavenote" id="vf-auto60433">
<g class="vf-note" pointer-events="bounding-box">
<g class="vf-notehead" pointer-events="bounding-box">
<path stroke-width="0.3" fill="#000000" stroke="none" stroke-dasharray="none" d="M336.54251839999995 197.99999999999997M343.89947839999996 192.77711999999997C344.0117984 192.77711999999997,344.18027839999996 192.77711999999997,344.20835839999995 192.77711999999997C344.20835839999995 192.77711999999997,344.23643839999994 192.77711999999997,344.23643839999994 192.77711999999997C344.23643839999994 192.77711999999997,344.40491839999993 192.77711999999997,344.5453183999999 192.77711999999997C347.0725183999999 192.91751999999997,348.56075839999994 194.57423999999997,348.56075839999994 196.65215999999998C348.56075839999994 197.66303999999997,348.22379839999996 198.81431999999998,347.38139839999997 199.90943999999996C345.78083839999994 202.07159999999996,343.1693984 203.25095999999996,340.89491839999994 203.25095999999996C339.1258784 203.25095999999996,337.60955839999997 202.54895999999997,336.8794783999999 201.11687999999998C336.65483839999996 200.55527999999998,336.54251839999995 200.02175999999997,336.54251839999995 199.43207999999998C336.54251839999995 196.37135999999998,339.9682784 192.97367999999997,343.89947839999996 192.77711999999997">
</path>
</g>
</g>
<g class="vf-modifiers">
</g>
</g>
<g class="vf-stavenote" id="vf-auto60443">
<g class="vf-note" pointer-events="bounding-box">
<g class="vf-notehead" pointer-events="bounding-box">
<path stroke-width="0.3" fill="#000000" stroke="none" stroke-dasharray="none" d="M369.7712592 197.99999999999997M377.1282192 192.77711999999997C377.2405392 192.77711999999997,377.4090192 192.77711999999997,377.4370992 192.77711999999997C377.4370992 192.77711999999997,377.46517919999997 192.77711999999997,377.46517919999997 192.77711999999997C377.46517919999997 192.77711999999997,377.63365919999995 192.77711999999997,377.77405919999995 192.77711999999997C380.3012592 192.91751999999997,381.78949919999997 194.57423999999997,381.78949919999997 196.65215999999998C381.78949919999997 197.66303999999997,381.4525392 198.81431999999998,380.6101392 199.90943999999996C379.00957919999996 202.07159999999996,376.39813919999995 203.25095999999996,374.12365919999996 203.25095999999996C372.3546192 203.25095999999996,370.8382992 202.54895999999997,370.10821919999995 201.11687999999998C369.8835792 200.55527999999998,369.7712592 200.02175999999997,369.7712592 199.43207999999998C369.7712592 196.37135999999998,373.1970192 192.97367999999997,377.1282192 192.77711999999997">
</path>
</g>
</g>
<g class="vf-modifiers">
</g>
</g>
<path stroke-width="1.5" fill="none" stroke="#000000" stroke-dasharray="none" d="M158.61071679999998 197.99999999999997L158.61071679999998 163.74999999999997">
</path>
<path stroke-width="1.5" fill="none" stroke="#000000" stroke-dasharray="none" d="M207.04995839999998 197.99999999999997L207.04995839999998 163.74999999999997">
</path>
<path stroke-width="1.5" fill="none" stroke="#000000" stroke-dasharray="none" d="M240.27869919999998 197.99999999999997L240.27869919999998 163.74999999999997">
</path>
<path stroke-width="0.3" fill="#000000" stroke="none" stroke-dasharray="none" d="M157.86071679999998 162.99999999999997L157.86071679999998 167.99999999999997L240.52869919999998 167.99999999999997L240.52869919999998 162.99999999999997Z">
</path>
<path stroke-width="0.3" fill="#000000" stroke="none" stroke-dasharray="none" d="M206.29995839999998 170.49999999999997L206.29995839999998 175.49999999999997L240.52869919999998 175.49999999999997L240.52869919999998 170.49999999999997Z">
</path>
<path stroke-width="1.5" fill="none" stroke="#000000" stroke-dasharray="none" d="M299.3715168 197.99999999999997L299.3715168 163.74999999999997">
</path>
<path stroke-width="1.5" fill="none" stroke="#000000" stroke-dasharray="none" d="M347.81075839999994 197.99999999999997L347.81075839999994 163.74999999999997">
</path>
<path stroke-width="1.5" fill="none" stroke="#000000" stroke-dasharray="none" d="M381.03949919999997 197.99999999999997L381.03949919999997 163.74999999999997">
</path>
<path stroke-width="0.3" fill="#000000" stroke="none" stroke-dasharray="none" d="M298.6215168 162.99999999999997L298.6215168 167.99999999999997L381.28949919999997 167.99999999999997L381.28949919999997 162.99999999999997Z">
</path>
<path stroke-width="0.3" fill="#000000" stroke="none" stroke-dasharray="none" d="M347.06075839999994 170.49999999999997L347.06075839999994 175.49999999999997L381.28949919999997 175.49999999999997L381.28949919999997 170.49999999999997Z">
</path>
<path stroke-width="1" fill="none" stroke="black" stroke-dasharray="none" d="M401.385136384 197.99999999999997L1106.3003343359997 197.99999999999997">
</path>
<rect stroke-width="0.3" fill="black" stroke="black" stroke-dasharray="none" x="1101.3003343359997" y="177.49999999999997" width="1" height="41">
</rect>
<rect stroke-width="0.3" fill="black" stroke="black" stroke-dasharray="none" x="1104.3003343359997" y="177.49999999999997" width="3" height="41">
</rect>
<path stroke-width="0.3" fill="black" stroke="none" stroke-dasharray="none" d="M1100.3003343359997 193.49999999999997 A2 2 0 0 0 1096.3003343359997 193.49999999999997M1096.3003343359997 193.49999999999997 A2 2 0 0 0 1100.3003343359997 193.49999999999997">
</path>
<path stroke-width="0.3" fill="black" stroke="none" stroke-dasharray="none" d="M1100.3003343359997 203.49999999999997 A2 2 0 0 0 1096.3003343359997 203.49999999999997M1096.3003343359997 203.49999999999997 A2 2 0 0 0 1100.3003343359997 203.49999999999997">
</path>
<path stroke-width="0.3" fill="black" stroke="none" stroke-dasharray="none" d="M406.385136384 197.99999999999997M411.396336384 179.65439999999998C411.42513638400004 179.62559999999996,411.828336384 179.62559999999996,413.066736384 179.62559999999996C413.441136384 179.62559999999996,413.84433638400003 179.62559999999996,414.362736384 179.62559999999996L417.271536384 179.62559999999996L417.357936384 179.71199999999996C417.50193638400003 179.79839999999996,417.588336384 179.94239999999996,417.588336384 180.05759999999998C417.588336384 180.23039999999997,417.50193638400003 180.34559999999996,417.386736384 180.46079999999998C417.357936384 180.54719999999998,417.098736384 180.77759999999998,416.925936384 181.03679999999997L415.39953638400004 182.79359999999997L413.441136384 185.01119999999997L412.40433638400003 186.19199999999998L410.849136384 187.97759999999997L408.804336384 190.31039999999996C408.458736384 190.74239999999998,408.08433638400004 191.08799999999997,408.08433638400004 191.08799999999997C408.08433638400004 191.08799999999997,408.08433638400004 191.08799999999997,408.08433638400004 191.08799999999997C408.08433638400004 191.14559999999997,408.343536384 191.14559999999997,410.733936384 191.14559999999997L413.35473638400003 191.14559999999997L413.35473638400003 189.27359999999996C413.35473638400003 187.37279999999998,413.35473638400003 187.34399999999997,413.383536384 187.31519999999998C413.441136384 187.22879999999998,413.700336384 186.91199999999998,414.708336384 185.73119999999997L415.11153638400003 185.29919999999998L415.514736384 184.86719999999997L416.119536384 184.08959999999996L416.753136384 183.42719999999997L417.069936384 183.02399999999997C417.18513638400003 182.85119999999998,417.357936384 182.82239999999996,417.50193638400003 182.82239999999996C417.674736384 182.82239999999996,417.81873638400003 182.90879999999999,417.905136384 183.05279999999996C417.93393638400005 183.13919999999996,417.93393638400005 183.19679999999997,417.93393638400005 185.32799999999997C417.93393638400005 185.81759999999997,417.93393638400005 186.42239999999998,417.93393638400005 187.14239999999998L417.93393638400005 191.14559999999997L418.653936384 191.14559999999997C419.316336384 191.14559999999997,419.345136384 191.14559999999997,419.431536384 191.17439999999996C419.661936384 191.26079999999996,419.777136384 191.49119999999996,419.777136384 191.75039999999998C419.777136384 191.89439999999996,419.748336384 192.06719999999999,419.633136384 192.18239999999997C419.460336384 192.32639999999998,419.431536384 192.32639999999998,418.653936384 192.32639999999998L417.93393638400005 192.32639999999998L417.93393638400005 192.81599999999997C417.96273638400004 194.28479999999996,418.250736384 194.86079999999998,419.37393638400005 195.46559999999997C419.777136384 195.66719999999998,419.86353638400004 195.72479999999996,419.86353638400004 196.01279999999997C419.86353638400004 196.21439999999998,419.805936384 196.30079999999998,419.661936384 196.41599999999997L419.57553638400003 196.44479999999996L415.629936384 196.44479999999996L411.713136384 196.44479999999996L411.626736384 196.41599999999997C411.45393638400003 196.30079999999998,411.42513638400004 196.21439999999998,411.42513638400004 196.01279999999997C411.42513638400004 195.72479999999996,411.45393638400003 195.66719999999998,411.88593638400005 195.46559999999997C413.00913638400004 194.86079999999998,413.297136384 194.28479999999996,413.297136384 192.81599999999997L413.297136384 192.32639999999998L409.98513638400004 192.32639999999998C409.38033638400003 192.38399999999996,408.89073638400004 192.38399999999996,408.487536384 192.38399999999996C406.67313638400003 192.38399999999996,406.64433638400004 192.32639999999998,406.615536384 192.32639999999998C406.442736384 192.26879999999997,406.385136384 192.09599999999998,406.385136384 191.89439999999996C406.385136384 191.89439999999996,406.385136384 191.89439999999996,406.385136384 191.89439999999996C406.385136384 191.69279999999998,406.385136384 191.69279999999998,406.96113638400004 191.0304C409.38033638400003 188.09279999999998,411.079536384 183.83039999999997,411.079536384 180.43199999999996C411.079536384 179.91359999999997,411.165936384 179.74079999999998,411.396336384 179.65439999999998M413.124336384 198.02879999999996L413.153136384 198.02879999999996L413.066736384 198.02879999999996L413.124336384 198.02879999999996M413.124336384 178.61759999999998L413.153136384 178.61759999999998L413.066736384 178.61759999999998L413.124336384 178.61759999999998">
</path>
<path stroke-width="0.3" fill="black" stroke="none" stroke-dasharray="none" d="M406.385136384 217.99999999999997M411.396336384 199.65439999999998C411.42513638400004 199.62559999999996,411.828336384 199.62559999999996,413.066736384 199.62559999999996C413.441136384 199.62559999999996,413.84433638400003 199.62559999999996,414.362736384 199.62559999999996L417.271536384 199.62559999999996L417.357936384 199.71199999999996C417.50193638400003 199.79839999999996,417.588336384 199.94239999999996,417.588336384 200.05759999999998C417.588336384 200.23039999999997,417.50193638400003 200.34559999999996,417.386736384 200.46079999999998C417.357936384 200.54719999999998,417.098736384 200.77759999999998,416.925936384 201.03679999999997L415.39953638400004 202.79359999999997L413.441136384 205.01119999999997L412.40433638400003 206.19199999999998L410.849136384 207.97759999999997L408.804336384 210.31039999999996C408.458736384 210.74239999999998,408.08433638400004 211.08799999999997,408.08433638400004 211.08799999999997C408.08433638400004 211.08799999999997,408.08433638400004 211.08799999999997,408.08433638400004 211.08799999999997C408.08433638400004 211.14559999999997,408.343536384 211.14559999999997,410.733936384 211.14559999999997L413.35473638400003 211.14559999999997L413.35473638400003 209.27359999999996C413.35473638400003 207.37279999999998,413.35473638400003 207.34399999999997,413.383536384 207.31519999999998C413.441136384 207.22879999999998,413.700336384 206.91199999999998,414.708336384 205.73119999999997L415.11153638400003 205.29919999999998L415.514736384 204.86719999999997L416.119536384 204.08959999999996L416.753136384 203.42719999999997L417.069936384 203.02399999999997C417.18513638400003 202.85119999999998,417.357936384 202.82239999999996,417.50193638400003 202.82239999999996C417.674736384 202.82239999999996,417.81873638400003 202.90879999999999,417.905136384 203.05279999999996C417.93393638400005 203.13919999999996,417.93393638400005 203.19679999999997,417.93393638400005 205.32799999999997C417.93393638400005 205.81759999999997,417.93393638400005 206.42239999999998,417.93393638400005 207.14239999999998L417.93393638400005 211.14559999999997L418.653936384 211.14559999999997C419.316336384 211.14559999999997,419.345136384 211.14559999999997,419.431536384 211.17439999999996C419.661936384 211.26079999999996,419.777136384 211.49119999999996,419.777136384 211.75039999999998C419.777136384 211.89439999999996,419.748336384 212.06719999999999,419.633136384 212.18239999999997C419.460336384 212.32639999999998,419.431536384 212.32639999999998,418.653936384 212.32639999999998L417.93393638400005 212.32639999999998L417.93393638400005 212.81599999999997C417.96273638400004 214.28479999999996,418.250736384 214.86079999999998,419.37393638400005 215.46559999999997C419.777136384 215.66719999999998,419.86353638400004 215.72479999999996,419.86353638400004 216.01279999999997C419.86353638400004 216.21439999999998,419.805936384 216.30079999999998,419.661936384 216.41599999999997L419.57553638400003 216.44479999999996L415.629936384 216.44479999999996L411.713136384 216.44479999999996L411.626736384 216.41599999999997C411.45393638400003 216.30079999999998,411.42513638400004 216.21439999999998,411.42513638400004 216.01279999999997C411.42513638400004 215.72479999999996,411.45393638400003 215.66719999999998,411.88593638400005 215.46559999999997C413.00913638400004 214.86079999999998,413.297136384 214.28479999999996,413.297136384 212.81599999999997L413.297136384 212.32639999999998L409.98513638400004 212.32639999999998C409.38033638400003 212.38399999999996,408.89073638400004 212.38399999999996,408.487536384 212.38399999999996C406.67313638400003 212.38399999999996,406.64433638400004 212.32639999999998,406.615536384 212.32639999999998C406.442736384 212.26879999999997,406.385136384 212.09599999999998,406.385136384 211.89439999999996C406.385136384 211.89439999999996,406.385136384 211.89439999999996,406.385136384 211.89439999999996C406.385136384 211.69279999999998,406.385136384 211.69279999999998,406.96113638400004 211.0304C409.38033638400003 208.09279999999998,411.079536384 203.83039999999997,411.079536384 200.43199999999996C411.079536384 199.91359999999997,411.165936384 199.74079999999998,411.396336384 199.65439999999998M413.124336384 218.02879999999996L413.153136384 218.02879999999996L413.066736384 218.02879999999996L413.124336384 218.02879999999996M413.124336384 198.61759999999998L413.153136384 198.61759999999998L413.066736384 198.61759999999998L413.124336384 198.61759999999998">
</path>
<g class="vf-stavenote" id="vf-auto60456">
<g class="vf-note" pointer-events="bounding-box">
<g class="vf-notehead" pointer-events="bounding-box">
<path stroke-width="0.3" fill="#000000" stroke="none" stroke-dasharray="none" d="M457.72761318400006 197.99999999999997M465.0845731840001 192.77711999999997C465.1968931840001 192.77711999999997,465.3653731840001 192.77711999999997,465.39345318400007 192.77711999999997C465.39345318400007 192.77711999999997,465.42153318400005 192.77711999999997,465.42153318400005 192.77711999999997C465.42153318400005 192.77711999999997,465.59001318400004 192.77711999999997,465.73041318400004 192.77711999999997C468.2576131840001 192.91751999999997,469.74585318400005 194.57423999999997,469.74585318400005 196.65215999999998C469.74585318400005 197.66303999999997,469.4088931840001 198.81431999999998,468.5664931840001 199.90943999999996C466.96593318400005 202.07159999999996,464.35449318400003 203.25095999999996,462.08001318400005 203.25095999999996C460.3109731840001 203.25095999999996,458.7946531840001 202.54895999999997,458.06457318400004 201.11687999999998C457.8399331840001 200.55527999999998,457.72761318400006 200.02175999999997,457.72761318400006 199.43207999999998C457.72761318400006 196.37135999999998,461.1533731840001 192.97367999999997,465.0845731840001 192.77711999999997">
</path>
</g>
</g>
<g class="vf-modifiers">
<g class="vf-stavenote" id="vf-auto60466">
<g class="vf-note" pointer-events="bounding-box">
<g class="vf-stem" pointer-events="bounding-box">
<path stroke-width="1.5" fill="none" stroke="#000000" stroke-dasharray="none" d="M439.04557478400005 197.99999999999997L439.04557478400005 174.89999999999998">
</path>
</g>
<g class="vf-notehead" pointer-events="bounding-box">
<path stroke-width="0.3" fill="#000000" stroke="none" stroke-dasharray="none" d="M431.86353638400004 197.99999999999997M436.71912998400006 194.55289919999998C436.793261184 194.55289919999998,436.90445798400003 194.55289919999998,436.92299078400004 194.55289919999998C436.92299078400004 194.55289919999998,436.94152358400004 194.55289919999998,436.94152358400004 194.55289919999998C436.94152358400004 194.55289919999998,437.05272038400005 194.55289919999998,437.14538438400007 194.55289919999998C438.813336384 194.64556319999997,439.79557478400005 195.73899839999996,439.79557478400005 197.11042559999999C439.79557478400005 197.77760639999997,439.573181184 198.53745119999996,439.01719718400005 199.26023039999998C437.96082758400007 200.68725599999996,436.23727718400005 201.46563359999996,434.73612038400006 201.46563359999996C433.56855398400006 201.46563359999996,432.56778278400003 201.00231359999998,432.085929984 200.05714079999998C431.93766758400005 199.68648479999996,431.86353638400004 199.33436159999997,431.86353638400004 198.94517279999997C431.86353638400004 196.92509759999996,434.124537984 194.68262879999997,436.71912998400006 194.55289919999998">
</path>
</g>
<g class="vf-flag" pointer-events="bounding-box">
<path stroke-width="0.3" fill="#000000" stroke="none" stroke-dasharray="none" d="M439.04557478400005 172.89999999999998M438.60078758400005 175.88378079999998L438.60078758400005 172.992664L438.67491878400006 172.992664C438.87877958400003 172.992664,439.00850918400005 173.12239359999998,439.04557478400005 173.34478719999998C439.43476358400005 175.19806719999997,440.60232998400005 177.21814239999998,442.21468358400006 178.73783199999997C444.01236518400003 180.42431679999999,444.92047238400005 182.74091679999998,444.92047238400005 185.13164799999998C444.92047238400005 187.39264959999997,444.12356198400005 189.74631519999997,442.51120838400004 191.69225919999997C442.23321638400006 192.06291519999996,442.21468358400006 192.06291519999996,442.02935558400003 192.06291519999996C441.80696198400005 192.06291519999996,441.65869958400003 191.89611999999997,441.65869958400003 191.67372639999996C441.65869958400003 191.50693119999997,441.67723238400004 191.4698656,441.86256038400006 191.2660048C443.27105318400004 189.56098719999997,443.975299584 187.5038464,443.975299584 185.5393696C443.975299584 183.7972864,443.41931558400006 182.12933439999998,442.27028198400006 180.86910399999996C441.5660355840001 180.09072639999997,440.26873958400006 179.34941439999997,438.61932038400005 178.77489759999997C438.61932038400005 178.75636479999997,438.60078758400005 178.18184799999997,438.60078758400005 175.88378079999998">
</path>
</g>
</g>
<g class="vf-modifiers">
</g>
</g>
<path stroke-width="1" fill="none" stroke="#000000" stroke-dasharray="none" d="M432.86353638400004 189.74999999999997L445.86353638400004 180.74999999999997Z">
</path>
</g>
</g>
<g class="vf-stavenote" id="vf-auto60480">
<g class="vf-note" pointer-events="bounding-box">
<g class="vf-notehead" pointer-events="bounding-box">
<path stroke-width="0.3" fill="#000000" stroke="none" stroke-dasharray="none" d="M490.24868438400006 197.99999999999997M497.6056443840001 192.77711999999997C497.7179643840001 192.77711999999997,497.8864443840001 192.77711999999997,497.91452438400006 192.77711999999997C497.91452438400006 192.77711999999997,497.94260438400005 192.77711999999997,497.94260438400005 192.77711999999997C497.94260438400005 192.77711999999997,498.11108438400004 192.77711999999997,498.25148438400004 192.77711999999997C500.77868438400003 192.91751999999997,502.26692438400005 194.57423999999997,502.26692438400005 196.65215999999998C502.26692438400005 197.66303999999997,501.9299643840001 198.81431999999998,501.0875643840001 199.90943999999996C499.48700438400004 202.07159999999996,496.8755643840001 203.25095999999996,494.60108438400005 203.25095999999996C492.8320443840001 203.25095999999996,491.3157243840001 202.54895999999997,490.58564438400003 201.11687999999998C490.36100438400007 200.55527999999998,490.24868438400006 200.02175999999997,490.24868438400006 199.43207999999998C490.24868438400006 196.37135999999998,493.6744443840001 192.97367999999997,497.6056443840001 192.77711999999997">
</path>
</g>
</g>
<g class="vf-modifiers">
</g>
</g>
<g class="vf-stavenote" id="vf-auto60490">
<g class="vf-note" pointer-events="bounding-box">
<g class="vf-notehead" pointer-events="bounding-box">
<path stroke-width="0.3" fill="#000000" stroke="none" stroke-dasharray="none" d="M548.633832384 197.99999999999997M555.990792384 192.77711999999997C556.103112384 192.77711999999997,556.271592384 192.77711999999997,556.299672384 192.77711999999997C556.299672384 192.77711999999997,556.3277523840001 192.77711999999997,556.3277523840001 192.77711999999997C556.3277523840001 192.77711999999997,556.496232384 192.77711999999997,556.636632384 192.77711999999997C559.163832384 192.91751999999997,560.652072384 194.57423999999997,560.652072384 196.65215999999998C560.652072384 197.66303999999997,560.315112384 198.81431999999998,559.472712384 199.90943999999996C557.8721523840001 202.07159999999996,555.260712384 203.25095999999996,552.986232384 203.25095999999996C551.217192384 203.25095999999996,549.700872384 202.54895999999997,548.970792384 201.11687999999998C548.746152384 200.55527999999998,548.633832384 200.02175999999997,548.633832384 199.43207999999998C548.633832384 196.37135999999998,552.059592384 192.97367999999997,555.990792384 192.77711999999997">
</path>
</g>
</g>
<g class="vf-modifiers">
<g class="vf-stavenote" id="vf-auto60500">
<g class="vf-note" pointer-events="bounding-box">
<g class="vf-stem" pointer-events="bounding-box">
<path stroke-width="1.5" fill="none" stroke="#000000" stroke-dasharray="none" d="M529.951793984 197.99999999999997L529.951793984 174.89999999999998">
</path>
</g>
<g class="vf-notehead" pointer-events="bounding-box">
<path stroke-width="0.3" fill="#000000" stroke="none" stroke-dasharray="none" d="M522.769755584 197.99999999999997M527.625349184 194.55289919999998C527.699480384 194.55289919999998,527.810677184 194.55289919999998,527.829209984 194.55289919999998C527.829209984 194.55289919999998,527.847742784 194.55289919999998,527.847742784 194.55289919999998C527.847742784 194.55289919999998,527.958939584 194.55289919999998,528.051603584 194.55289919999998C529.719555584 194.64556319999997,530.701793984 195.73899839999996,530.701793984 197.11042559999999C530.701793984 197.77760639999997,530.479400384 198.53745119999996,529.923416384 199.26023039999998C528.867046784 200.68725599999996,527.143496384 201.46563359999996,525.642339584 201.46563359999996C524.474773184 201.46563359999996,523.474001984 201.00231359999998,522.992149184 200.05714079999998C522.843886784 199.68648479999996,522.769755584 199.33436159999997,522.769755584 198.94517279999997C522.769755584 196.92509759999996,525.030757184 194.68262879999997,527.625349184 194.55289919999998">
</path>
</g>
<g class="vf-flag" pointer-events="bounding-box">
<path stroke-width="0.3" fill="#000000" stroke="none" stroke-dasharray="none" d="M529.951793984 172.89999999999998M529.507006784 175.88378079999998L529.507006784 172.992664L529.581137984 172.992664C529.784998784 172.992664,529.914728384 173.12239359999998,529.951793984 173.34478719999998C530.3409827840001 175.19806719999997,531.508549184 177.21814239999998,533.120902784 178.73783199999997C534.918584384 180.42431679999999,535.8266915840001 182.74091679999998,535.8266915840001 185.13164799999998C535.8266915840001 187.39264959999997,535.0297811840001 189.74631519999997,533.417427584 191.69225919999997C533.139435584 192.06291519999996,533.120902784 192.06291519999996,532.935574784 192.06291519999996C532.713181184 192.06291519999996,532.564918784 191.89611999999997,532.564918784 191.67372639999996C532.564918784 191.50693119999997,532.583451584 191.4698656,532.768779584 191.2660048C534.177272384 189.56098719999997,534.881518784 187.5038464,534.881518784 185.5393696C534.881518784 183.7972864,534.325534784 182.12933439999998,533.176501184 180.86910399999996C532.472254784 180.09072639999997,531.174958784 179.34941439999997,529.5255395840001 178.77489759999997C529.5255395840001 178.75636479999997,529.507006784 178.18184799999997,529.507006784 175.88378079999998">
</path>
</g>
</g>
<g class="vf-modifiers">
</g>
</g>
<path stroke-width="1" fill="none" stroke="#000000" stroke-dasharray="none" d="M523.769755584 189.74999999999997L536.769755584 180.74999999999997Z">
</path>
</g>
</g>
<g class="vf-stavenote" id="vf-auto60514">
<g class="vf-note" pointer-events="bounding-box">
<g class="vf-notehead" pointer-events="bounding-box">
<path stroke-width="0.3" fill="#000000" stroke="none" stroke-dasharray="none" d="M581.1549035840001 197.99999999999997M588.511863584 192.77711999999997C588.6241835840001 192.77711999999997,588.792663584 192.77711999999997,588.8207435840001 192.77711999999997C588.8207435840001 192.77711999999997,588.8488235840001 192.77711999999997,588.8488235840001 192.77711999999997C588.8488235840001 192.77711999999997,589.017303584 192.77711999999997,589.157703584 192.77711999999997C591.684903584 192.91751999999997,593.1731435840001 194.57423999999997,593.1731435840001 196.65215999999998C593.1731435840001 197.66303999999997,592.8361835840001 198.81431999999998,591.9937835840001 199.90943999999996C590.3932235840001 202.07159999999996,587.7817835840001 203.25095999999996,585.507303584 203.25095999999996C583.738263584 203.25095999999996,582.2219435840001 202.54895999999997,581.491863584 201.11687999999998C581.267223584 200.55527999999998,581.1549035840001 200.02175999999997,581.1549035840001 199.43207999999998C581.1549035840001 196.37135999999998,584.580663584 192.97367999999997,588.511863584 192.77711999999997">
</path>
</g>
</g>
<g class="vf-modifiers">
</g>
</g>
<g class="vf-stavenote" id="vf-auto60524">
<g class="vf-note" pointer-events="bounding-box">
<g class="vf-notehead" pointer-events="bounding-box">
<path stroke-width="0.3" fill="#000000" stroke="none" stroke-dasharray="none" d="M639.540051584 197.99999999999997M646.897011584 192.77711999999997C647.009331584 192.77711999999997,647.177811584 192.77711999999997,647.205891584 192.77711999999997C647.205891584 192.77711999999997,647.2339715840001 192.77711999999997,647.2339715840001 192.77711999999997C647.2339715840001 192.77711999999997,647.402451584 192.77711999999997,647.542851584 192.77711999999997C650.070051584 192.91751999999997,651.558291584 194.57423999999997,651.558291584 196.65215999999998C651.558291584 197.66303999999997,651.221331584 198.81431999999998,650.378931584 199.90943999999996C648.7783715840001 202.07159999999996,646.166931584 203.25095999999996,643.892451584 203.25095999999996C642.123411584 203.25095999999996,640.607091584 202.54895999999997,639.877011584 201.11687999999998C639.652371584 200.55527999999998,639.540051584 200.02175999999997,639.540051584 199.43207999999998C639.540051584 196.37135999999998,642.965811584 192.97367999999997,646.897011584 192.77711999999997">
</path>
</g>
</g>
<g class="vf-modifiers">
<g class="vf-stavenote" id="vf-auto60534">
<g class="vf-note" pointer-events="bounding-box">
<g class="vf-stem" pointer-events="bounding-box">
<path stroke-width="1.5" fill="none" stroke="#000000" stroke-dasharray="none" d="M620.8580131840001 197.99999999999997L620.8580131840001 174.89999999999998">
</path>
</g>
<g class="vf-notehead" pointer-events="bounding-box">
<path stroke-width="0.3" fill="#000000" stroke="none" stroke-dasharray="none" d="M613.6759747840001 197.99999999999997M618.5315683840001 194.55289919999998C618.6056995840001 194.55289919999998,618.7168963840002 194.55289919999998,618.7354291840002 194.55289919999998C618.7354291840002 194.55289919999998,618.7539619840002 194.55289919999998,618.7539619840002 194.55289919999998C618.7539619840002 194.55289919999998,618.8651587840001 194.55289919999998,618.9578227840001 194.55289919999998C620.6257747840001 194.64556319999997,621.6080131840001 195.73899839999996,621.6080131840001 197.11042559999999C621.6080131840001 197.77760639999997,621.3856195840001 198.53745119999996,620.8296355840001 199.26023039999998C619.7732659840001 200.68725599999996,618.0497155840001 201.46563359999996,616.5485587840001 201.46563359999996C615.3809923840001 201.46563359999996,614.3802211840001 201.00231359999998,613.8983683840002 200.05714079999998C613.7501059840001 199.68648479999996,613.6759747840001 199.33436159999997,613.6759747840001 198.94517279999997C613.6759747840001 196.92509759999996,615.9369763840001 194.68262879999997,618.5315683840001 194.55289919999998">
</path>
</g>
<g class="vf-flag" pointer-events="bounding-box">
<path stroke-width="0.3" fill="#000000" stroke="none" stroke-dasharray="none" d="M620.8580131840001 172.89999999999998M620.4132259840002 175.88378079999998L620.4132259840002 172.992664L620.4873571840001 172.992664C620.6912179840001 172.992664,620.8209475840001 173.12239359999998,620.8580131840001 173.34478719999998C621.2472019840002 175.19806719999997,622.4147683840001 177.21814239999998,624.0271219840001 178.73783199999997C625.8248035840002 180.42431679999999,626.7329107840002 182.74091679999998,626.7329107840002 185.13164799999998C626.7329107840002 187.39264959999997,625.9360003840002 189.74631519999997,624.3236467840002 191.69225919999997C624.0456547840001 192.06291519999996,624.0271219840001 192.06291519999996,623.8417939840001 192.06291519999996C623.6194003840001 192.06291519999996,623.4711379840002 191.89611999999997,623.4711379840002 191.67372639999996C623.4711379840002 191.50693119999997,623.4896707840002 191.4698656,623.6749987840001 191.2660048C625.0834915840002 189.56098719999997,625.7877379840002 187.5038464,625.7877379840002 185.5393696C625.7877379840002 183.7972864,625.2317539840001 182.12933439999998,624.0827203840001 180.86910399999996C623.3784739840002 180.09072639999997,622.0811779840001 179.34941439999997,620.4317587840002 178.77489759999997C620.4317587840002 178.75636479999997,620.4132259840002 178.18184799999997,620.4132259840002 175.88378079999998">
</path>
</g>
</g>
<g class="vf-modifiers">
</g>
</g>
<path stroke-width="1" fill="none" stroke="#000000" stroke-dasharray="none" d="M614.6759747840001 189.74999999999997L627.6759747840001 180.74999999999997Z">
</path>
</g>
</g>
<g class="vf-stavenote" id="vf-auto60548">
<g class="vf-note" pointer-events="bounding-box">
<g class="vf-notehead" pointer-events="bounding-box">
<path stroke-width="0.3" fill="#000000" stroke="none" stroke-dasharray="none" d="M672.0611227840001 197.99999999999997M679.418082784 192.77711999999997C679.5304027840001 192.77711999999997,679.698882784 192.77711999999997,679.7269627840001 192.77711999999997C679.7269627840001 192.77711999999997,679.7550427840001 192.77711999999997,679.7550427840001 192.77711999999997C679.7550427840001 192.77711999999997,679.923522784 192.77711999999997,680.063922784 192.77711999999997C682.591122784 192.91751999999997,684.0793627840001 194.57423999999997,684.0793627840001 196.65215999999998C684.0793627840001 197.66303999999997,683.7424027840001 198.81431999999998,682.9000027840001 199.90943999999996C681.2994427840001 202.07159999999996,678.6880027840001 203.25095999999996,676.4135227840001 203.25095999999996C674.644482784 203.25095999999996,673.1281627840001 202.54895999999997,672.398082784 201.11687999999998C672.173442784 200.55527999999998,672.0611227840001 200.02175999999997,672.0611227840001 199.43207999999998C672.0611227840001 196.37135999999998,675.486882784 192.97367999999997,679.418082784 192.77711999999997">
</path>
</g>
</g>
<g class="vf-modifiers">
</g>
</g>
<g class="vf-stavenote" id="vf-auto60558">
<g class="vf-note" pointer-events="bounding-box">
<g class="vf-notehead" pointer-events="bounding-box">
<path stroke-width="0.3" fill="#000000" stroke="none" stroke-dasharray="none" d="M730.446270784 197.99999999999997M737.803230784 192.77711999999997C737.9155507840001 192.77711999999997,738.084030784 192.77711999999997,738.112110784 192.77711999999997C738.112110784 192.77711999999997,738.1401907840001 192.77711999999997,738.1401907840001 192.77711999999997C738.1401907840001 192.77711999999997,738.308670784 192.77711999999997,738.449070784 192.77711999999997C740.976270784 192.91751999999997,742.464510784 194.57423999999997,742.464510784 196.65215999999998C742.464510784 197.66303999999997,742.127550784 198.81431999999998,741.285150784 199.90943999999996C739.6845907840001 202.07159999999996,737.0731507840001 203.25095999999996,734.798670784 203.25095999999996C733.029630784 203.25095999999996,731.513310784 202.54895999999997,730.783230784 201.11687999999998C730.558590784 200.55527999999998,730.446270784 200.02175999999997,730.446270784 199.43207999999998C730.446270784 196.37135999999998,733.872030784 192.97367999999997,737.803230784 192.77711999999997">
</path>
</g>
</g>
<g class="vf-modifiers">
<g class="vf-stavenote" id="vf-auto60568">
<g class="vf-note" pointer-events="bounding-box">
<g class="vf-stem" pointer-events="bounding-box">
<path stroke-width="1.5" fill="none" stroke="#000000" stroke-dasharray="none" d="M711.764232384 197.99999999999997L711.764232384 174.89999999999998">
</path>
</g>
<g class="vf-notehead" pointer-events="bounding-box">
<path stroke-width="0.3" fill="#000000" stroke="none" stroke-dasharray="none" d="M704.582193984 197.99999999999997M709.437787584 194.55289919999998C709.511918784 194.55289919999998,709.6231155840001 194.55289919999998,709.6416483840001 194.55289919999998C709.6416483840001 194.55289919999998,709.6601811840001 194.55289919999998,709.6601811840001 194.55289919999998C709.6601811840001 194.55289919999998,709.771377984 194.55289919999998,709.864041984 194.55289919999998C711.531993984 194.64556319999997,712.514232384 195.73899839999996,712.514232384 197.11042559999999C712.514232384 197.77760639999997,712.291838784 198.53745119999996,711.735854784 199.26023039999998C710.679485184 200.68725599999996,708.955934784 201.46563359999996,707.454777984 201.46563359999996C706.287211584 201.46563359999996,705.286440384 201.00231359999998,704.804587584 200.05714079999998C704.656325184 199.68648479999996,704.582193984 199.33436159999997,704.582193984 198.94517279999997C704.582193984 196.92509759999996,706.843195584 194.68262879999997,709.437787584 194.55289919999998">
</path>
</g>
<g class="vf-flag" pointer-events="bounding-box">
<path stroke-width="0.3" fill="#000000" stroke="none" stroke-dasharray="none" d="M711.764232384 172.89999999999998M711.3194451840001 175.88378079999998L711.3194451840001 172.992664L711.393576384 172.992664C711.597437184 172.992664,711.727166784 173.12239359999998,711.764232384 173.34478719999998C712.1534211840001 175.19806719999997,713.320987584 177.21814239999998,714.933341184 178.73783199999997C716.7310227840001 180.42431679999999,717.6391299840001 182.74091679999998,717.6391299840001 185.13164799999998C717.6391299840001 187.39264959999997,716.8422195840001 189.74631519999997,715.2298659840001 191.69225919999997C714.951873984 192.06291519999996,714.933341184 192.06291519999996,714.748013184 192.06291519999996C714.525619584 192.06291519999996,714.3773571840001 191.89611999999997,714.3773571840001 191.67372639999996C714.3773571840001 191.50693119999997,714.3958899840001 191.4698656,714.581217984 191.2660048C715.9897107840001 189.56098719999997,716.693957184 187.5038464,716.693957184 185.5393696C716.693957184 183.7972864,716.137973184 182.12933439999998,714.988939584 180.86910399999996C714.284693184 180.09072639999997,712.987397184 179.34941439999997,711.3379779840001 178.77489759999997C711.3379779840001 178.75636479999997,711.3194451840001 178.18184799999997,711.3194451840001 175.88378079999998">
</path>
</g>
</g>
<g class="vf-modifiers">
</g>
</g>
<path stroke-width="1" fill="none" stroke="#000000" stroke-dasharray="none" d="M705.582193984 189.74999999999997L718.582193984 180.74999999999997Z">
</path>
</g>
</g>
<g class="vf-stavenote" id="vf-auto60582">
<g class="vf-note" pointer-events="bounding-box">
<g class="vf-notehead" pointer-events="bounding-box">
<path stroke-width="0.3" fill="#000000" stroke="none" stroke-dasharray="none" d="M762.9673419840001 197.99999999999997M770.324301984 192.77711999999997C770.4366219840001 192.77711999999997,770.605101984 192.77711999999997,770.6331819840001 192.77711999999997C770.6331819840001 192.77711999999997,770.6612619840001 192.77711999999997,770.6612619840001 192.77711999999997C770.6612619840001 192.77711999999997,770.8297419840001 192.77711999999997,770.9701419840001 192.77711999999997C773.4973419840001 192.91751999999997,774.9855819840001 194.57423999999997,774.9855819840001 196.65215999999998C774.9855819840001 197.66303999999997,774.6486219840001 198.81431999999998,773.8062219840001 199.90943999999996C772.2056619840001 202.07159999999996,769.5942219840001 203.25095999999996,767.3197419840001 203.25095999999996C765.550701984 203.25095999999996,764.0343819840001 202.54895999999997,763.3043019840001 201.11687999999998C763.079661984 200.55527999999998,762.9673419840001 200.02175999999997,762.9673419840001 199.43207999999998C762.9673419840001 196.37135999999998,766.393101984 192.97367999999997,770.324301984 192.77711999999997">
</path>
</g>
</g>
<g class="vf-modifiers">
</g>
</g>
<g class="vf-stavenote" id="vf-auto60592">
<g class="vf-note" pointer-events="bounding-box">
<g class="vf-notehead" pointer-events="bounding-box">
<path stroke-width="0.3" fill="#000000" stroke="none" stroke-dasharray="none" d="M821.3524899839999 197.99999999999997M828.7094499839999 192.77711999999997C828.821769984 192.77711999999997,828.9902499839999 192.77711999999997,829.0183299839999 192.77711999999997C829.0183299839999 192.77711999999997,829.046409984 192.77711999999997,829.046409984 192.77711999999997C829.046409984 192.77711999999997,829.2148899839999 192.77711999999997,829.3552899839999 192.77711999999997C831.8824899839999 192.91751999999997,833.3707299839999 194.57423999999997,833.3707299839999 196.65215999999998C833.3707299839999 197.66303999999997,833.033769984 198.81431999999998,832.191369984 199.90943999999996C830.590809984 202.07159999999996,827.979369984 203.25095999999996,825.7048899839999 203.25095999999996C823.9358499839999 203.25095999999996,822.419529984 202.54895999999997,821.6894499839999 201.11687999999998C821.4648099839999 200.55527999999998,821.3524899839999 200.02175999999997,821.3524899839999 199.43207999999998C821.3524899839999 196.37135999999998,824.7782499839999 192.97367999999997,828.7094499839999 192.77711999999997">
</path>
</g>
</g>
<g class="vf-modifiers">
<g class="vf-stavenote" id="vf-auto60602">
<g class="vf-note" pointer-events="bounding-box">
<g class="vf-stem" pointer-events="bounding-box">
<path stroke-width="1.5" fill="none" stroke="#000000" stroke-dasharray="none" d="M802.6704515839999 197.99999999999997L802.6704515839999 174.89999999999998">
</path>
</g>
<g class="vf-notehead" pointer-events="bounding-box">
<path stroke-width="0.3" fill="#000000" stroke="none" stroke-dasharray="none" d="M795.4884131839999 197.99999999999997M800.3440067839999 194.55289919999998C800.4181379839999 194.55289919999998,800.529334784 194.55289919999998,800.547867584 194.55289919999998C800.547867584 194.55289919999998,800.566400384 194.55289919999998,800.566400384 194.55289919999998C800.566400384 194.55289919999998,800.6775971839999 194.55289919999998,800.7702611839999 194.55289919999998C802.4382131839999 194.64556319999997,803.4204515839999 195.73899839999996,803.4204515839999 197.11042559999999C803.4204515839999 197.77760639999997,803.1980579839999 198.53745119999996,802.6420739839999 199.26023039999998C801.5857043839999 200.68725599999996,799.8621539839999 201.46563359999996,798.3609971839999 201.46563359999996C797.1934307839999 201.46563359999996,796.1926595839999 201.00231359999998,795.7108067839999 200.05714079999998C795.5625443839999 199.68648479999996,795.4884131839999 199.33436159999997,795.4884131839999 198.94517279999997C795.4884131839999 196.92509759999996,797.7494147839999 194.68262879999997,800.3440067839999 194.55289919999998">
</path>
</g>
<g class="vf-flag" pointer-events="bounding-box">
<path stroke-width="0.3" fill="#000000" stroke="none" stroke-dasharray="none" d="M802.6704515839999 172.89999999999998M802.225664384 175.88378079999998L802.225664384 172.992664L802.2997955839999 172.992664C802.5036563839999 172.992664,802.6333859839999 173.12239359999998,802.6704515839999 173.34478719999998C803.059640384 175.19806719999997,804.2272067839999 177.21814239999998,805.8395603839999 178.73783199999997C807.637241984 180.42431679999999,808.545349184 182.74091679999998,808.545349184 185.13164799999998C808.545349184 187.39264959999997,807.748438784 189.74631519999997,806.136085184 191.69225919999997C805.8580931839999 192.06291519999996,805.8395603839999 192.06291519999996,805.6542323839999 192.06291519999996C805.4318387839999 192.06291519999996,805.283576384 191.89611999999997,805.283576384 191.67372639999996C805.283576384 191.50693119999997,805.302109184 191.4698656,805.4874371839999 191.2660048C806.895929984 189.56098719999997,807.600176384 187.5038464,807.600176384 185.5393696C807.600176384 183.7972864,807.0441923839999 182.12933439999998,805.8951587839999 180.86910399999996C805.190912384 180.09072639999997,803.8936163839999 179.34941439999997,802.244197184 178.77489759999997C802.244197184 178.75636479999997,802.225664384 178.18184799999997,802.225664384 175.88378079999998">
</path>
</g>
</g>
<g class="vf-modifiers">
</g>
</g>
<path stroke-width="1" fill="none" stroke="#000000" stroke-dasharray="none" d="M796.4884131839999 189.74999999999997L809.4884131839999 180.74999999999997Z">
</path>
</g>
</g>
<g class="vf-stavenote" id="vf-auto60616">
<g class="vf-note" pointer-events="bounding-box">
<g class="vf-notehead" pointer-events="bounding-box">
<path stroke-width="0.3" fill="#000000" stroke="none" stroke-dasharray="none" d="M853.873561184 197.99999999999997M861.2305211839999 192.77711999999997C861.342841184 192.77711999999997,861.5113211839999 192.77711999999997,861.539401184 192.77711999999997C861.539401184 192.77711999999997,861.567481184 192.77711999999997,861.567481184 192.77711999999997C861.567481184 192.77711999999997,861.735961184 192.77711999999997,861.876361184 192.77711999999997C864.403561184 192.91751999999997,865.891801184 194.57423999999997,865.891801184 196.65215999999998C865.891801184 197.66303999999997,865.554841184 198.81431999999998,864.712441184 199.90943999999996C863.111881184 202.07159999999996,860.500441184 203.25095999999996,858.225961184 203.25095999999996C856.456921184 203.25095999999996,854.940601184 202.54895999999997,854.210521184 201.11687999999998C853.9858811839999 200.55527999999998,853.873561184 200.02175999999997,853.873561184 199.43207999999998C853.873561184 196.37135999999998,857.299321184 192.97367999999997,861.2305211839999 192.77711999999997">
</path>
</g>
</g>
<g class="vf-modifiers">
</g>
</g>
<g class="vf-stavenote" id="vf-auto60626">
<g class="vf-note" pointer-events="bounding-box">
<g class="vf-notehead" pointer-events="bounding-box">
<path stroke-width="0.3" fill="#000000" stroke="none" stroke-dasharray="none" d="M886.394632384 197.99999999999997M893.751592384 192.77711999999997C893.8639123840001 192.77711999999997,894.032392384 192.77711999999997,894.060472384 192.77711999999997C894.060472384 192.77711999999997,894.0885523840001 192.77711999999997,894.0885523840001 192.77711999999997C894.0885523840001 192.77711999999997,894.257032384 192.77711999999997,894.397432384 192.77711999999997C896.924632384 192.91751999999997,898.412872384 194.57423999999997,898.412872384 196.65215999999998C898.412872384 197.66303999999997,898.075912384 198.81431999999998,897.233512384 199.90943999999996C895.6329523840001 202.07159999999996,893.0215123840001 203.25095999999996,890.747032384 203.25095999999996C888.977992384 203.25095999999996,887.461672384 202.54895999999997,886.731592384 201.11687999999998C886.506952384 200.55527999999998,886.394632384 200.02175999999997,886.394632384 199.43207999999998C886.394632384 196.37135999999998,889.820392384 192.97367999999997,893.751592384 192.77711999999997">
</path>
</g>
</g>
<g class="vf-modifiers">
</g>
</g>
<g class="vf-stavenote" id="vf-auto60636">
<g class="vf-note" pointer-events="bounding-box">
<g class="vf-notehead" pointer-events="bounding-box">
<path stroke-width="0.3" fill="#000000" stroke="none" stroke-dasharray="none" d="M918.9157035840001 197.99999999999997M926.272663584 192.77711999999997C926.3849835840001 192.77711999999997,926.553463584 192.77711999999997,926.5815435840001 192.77711999999997C926.5815435840001 192.77711999999997,926.6096235840001 192.77711999999997,926.6096235840001 192.77711999999997C926.6096235840001 192.77711999999997,926.7781035840001 192.77711999999997,926.9185035840001 192.77711999999997C929.4457035840001 192.91751999999997,930.9339435840001 194.57423999999997,930.9339435840001 196.65215999999998C930.9339435840001 197.66303999999997,930.5969835840001 198.81431999999998,929.7545835840001 199.90943999999996C928.1540235840001 202.07159999999996,925.5425835840001 203.25095999999996,923.2681035840001 203.25095999999996C921.499063584 203.25095999999996,919.9827435840001 202.54895999999997,919.2526635840001 201.11687999999998C919.028023584 200.55527999999998,918.9157035840001 200.02175999999997,918.9157035840001 199.43207999999998C918.9157035840001 196.37135999999998,922.341463584 192.97367999999997,926.272663584 192.77711999999997">
</path>
</g>
</g>
<g class="vf-modifiers">
</g>
</g>
<g class="vf-stavenote" id="vf-auto60646">
<g class="vf-note" pointer-events="bounding-box">
<g class="vf-notehead" pointer-events="bounding-box">
<path stroke-width="0.3" fill="#000000" stroke="none" stroke-dasharray="none" d="M977.3008515839999 197.99999999999997M984.6578115839999 192.77711999999997C984.770131584 192.77711999999997,984.9386115839999 192.77711999999997,984.9666915839999 192.77711999999997C984.9666915839999 192.77711999999997,984.994771584 192.77711999999997,984.994771584 192.77711999999997C984.994771584 192.77711999999997,985.1632515839999 192.77711999999997,985.3036515839999 192.77711999999997C987.8308515839999 192.91751999999997,989.3190915839999 194.57423999999997,989.3190915839999 196.65215999999998C989.3190915839999 197.66303999999997,988.982131584 198.81431999999998,988.139731584 199.90943999999996C986.539171584 202.07159999999996,983.927731584 203.25095999999996,981.6532515839999 203.25095999999996C979.8842115839999 203.25095999999996,978.367891584 202.54895999999997,977.6378115839999 201.11687999999998C977.4131715839999 200.55527999999998,977.3008515839999 200.02175999999997,977.3008515839999 199.43207999999998C977.3008515839999 196.37135999999998,980.7266115839999 192.97367999999997,984.6578115839999 192.77711999999997">
</path>
</g>
</g>
<g class="vf-modifiers">
<g class="vf-stavenote" id="vf-auto60656">
<g class="vf-note" pointer-events="bounding-box">
<g class="vf-stem" pointer-events="bounding-box">
<path stroke-width="1.5" fill="none" stroke="#000000" stroke-dasharray="none" d="M958.6188131839999 197.99999999999997L958.6188131839999 174.89999999999998">
</path>
</g>
<g class="vf-notehead" pointer-events="bounding-box">
<path stroke-width="0.3" fill="#000000" stroke="none" stroke-dasharray="none" d="M951.4367747839999 197.99999999999997M956.2923683839999 194.55289919999998C956.3664995839999 194.55289919999998,956.477696384 194.55289919999998,956.496229184 194.55289919999998C956.496229184 194.55289919999998,956.514761984 194.55289919999998,956.514761984 194.55289919999998C956.514761984 194.55289919999998,956.6259587839999 194.55289919999998,956.7186227839999 194.55289919999998C958.3865747839999 194.64556319999997,959.3688131839999 195.73899839999996,959.3688131839999 197.11042559999999C959.3688131839999 197.77760639999997,959.1464195839999 198.53745119999996,958.5904355839999 199.26023039999998C957.5340659839999 200.68725599999996,955.8105155839999 201.46563359999996,954.3093587839999 201.46563359999996C953.1417923839999 201.46563359999996,952.1410211839999 201.00231359999998,951.6591683839999 200.05714079999998C951.5109059839999 199.68648479999996,951.4367747839999 199.33436159999997,951.4367747839999 198.94517279999997C951.4367747839999 196.92509759999996,953.6977763839999 194.68262879999997,956.2923683839999 194.55289919999998">
</path>
</g>
<g class="vf-flag" pointer-events="bounding-box">
<path stroke-width="0.3" fill="#000000" stroke="none" stroke-dasharray="none" d="M958.6188131839999 172.89999999999998M958.174025984 175.88378079999998L958.174025984 172.992664L958.2481571839999 172.992664C958.4520179839999 172.992664,958.5817475839999 173.12239359999998,958.6188131839999 173.34478719999998C959.008001984 175.19806719999997,960.1755683839999 177.21814239999998,961.7879219839999 178.73783199999997C963.585603584 180.42431679999999,964.493710784 182.74091679999998,964.493710784 185.13164799999998C964.493710784 187.39264959999997,963.696800384 189.74631519999997,962.084446784 191.69225919999997C961.8064547839999 192.06291519999996,961.7879219839999 192.06291519999996,961.6025939839999 192.06291519999996C961.3802003839999 192.06291519999996,961.231937984 191.89611999999997,961.231937984 191.67372639999996C961.231937984 191.50693119999997,961.250470784 191.4698656,961.4357987839999 191.2660048C962.844291584 189.56098719999997,963.548537984 187.5038464,963.548537984 185.5393696C963.548537984 183.7972864,962.9925539839999 182.12933439999998,961.8435203839999 180.86910399999996C961.1392739839999 180.09072639999997,959.8419779839999 179.34941439999997,958.192558784 178.77489759999997C958.192558784 178.75636479999997,958.174025984 178.18184799999997,958.174025984 175.88378079999998">
</path>
</g>
</g>
<g class="vf-modifiers">
</g>
</g>
<path stroke-width="1" fill="none" stroke="#000000" stroke-dasharray="none" d="M952.4367747839999 189.74999999999997L965.4367747839999 180.74999999999997Z">
</path>
</g>
</g>
<g class="vf-stavenote" id="vf-auto60670">
<g class="vf-note" pointer-events="bounding-box">
<g class="vf-notehead" pointer-events="bounding-box">
<path stroke-width="0.3" fill="#000000" stroke="none" stroke-dasharray="none" d="M1009.821922784 197.99999999999997M1017.1788827839999 192.77711999999997C1017.291202784 192.77711999999997,1017.4596827839999 192.77711999999997,1017.487762784 192.77711999999997C1017.487762784 192.77711999999997,1017.515842784 192.77711999999997,1017.515842784 192.77711999999997C1017.515842784 192.77711999999997,1017.684322784 192.77711999999997,1017.824722784 192.77711999999997C1020.351922784 192.91751999999997,1021.840162784 194.57423999999997,1021.840162784 196.65215999999998C1021.840162784 197.66303999999997,1021.503202784 198.81431999999998,1020.660802784 199.90943999999996C1019.060242784 202.07159999999996,1016.448802784 203.25095999999996,1014.174322784 203.25095999999996C1012.405282784 203.25095999999996,1010.888962784 202.54895999999997,1010.158882784 201.11687999999998C1009.9342427839999 200.55527999999998,1009.821922784 200.02175999999997,1009.821922784 199.43207999999998C1009.821922784 196.37135999999998,1013.247682784 192.97367999999997,1017.1788827839999 192.77711999999997">
</path>
</g>
</g>
<g class="vf-modifiers">
</g>
</g>
<g class="vf-stavenote" id="vf-auto60680">
<g class="vf-note" pointer-events="bounding-box">
<g class="vf-notehead" pointer-events="bounding-box">
<path stroke-width="0.3" fill="#000000" stroke="none" stroke-dasharray="none" d="M1042.342993984 197.99999999999997M1049.699953984 192.77711999999997C1049.812273984 192.77711999999997,1049.980753984 192.77711999999997,1050.008833984 192.77711999999997C1050.008833984 192.77711999999997,1050.036913984 192.77711999999997,1050.036913984 192.77711999999997C1050.036913984 192.77711999999997,1050.205393984 192.77711999999997,1050.345793984 192.77711999999997C1052.872993984 192.91751999999997,1054.3612339840001 194.57423999999997,1054.3612339840001 196.65215999999998C1054.3612339840001 197.66303999999997,1054.024273984 198.81431999999998,1053.181873984 199.90943999999996C1051.581313984 202.07159999999996,1048.969873984 203.25095999999996,1046.695393984 203.25095999999996C1044.9263539840001 203.25095999999996,1043.410033984 202.54895999999997,1042.6799539840001 201.11687999999998C1042.455313984 200.55527999999998,1042.342993984 200.02175999999997,1042.342993984 199.43207999999998C1042.342993984 196.37135999999998,1045.768753984 192.97367999999997,1049.699953984 192.77711999999997">
</path>
</g>
</g>
<g class="vf-modifiers">
</g>
</g>
<g class="vf-stavenote" id="vf-auto60690">
<g class="vf-note" pointer-events="bounding-box">
<g class="vf-notehead" pointer-events="bounding-box">
<path stroke-width="0.3" fill="#000000" stroke="none" stroke-dasharray="none" d="M1074.864065184 197.99999999999997M1082.2210251840002 192.77711999999997C1082.333345184 192.77711999999997,1082.5018251840002 192.77711999999997,1082.529905184 192.77711999999997C1082.529905184 192.77711999999997,1082.557985184 192.77711999999997,1082.557985184 192.77711999999997C1082.557985184 192.77711999999997,1082.726465184 192.77711999999997,1082.866865184 192.77711999999997C1085.394065184 192.91751999999997,1086.8823051840002 194.57423999999997,1086.8823051840002 196.65215999999998C1086.8823051840002 197.66303999999997,1086.545345184 198.81431999999998,1085.702945184 199.90943999999996C1084.102385184 202.07159999999996,1081.490945184 203.25095999999996,1079.216465184 203.25095999999996C1077.4474251840002 203.25095999999996,1075.931105184 202.54895999999997,1075.2010251840002 201.11687999999998C1074.976385184 200.55527999999998,1074.864065184 200.02175999999997,1074.864065184 199.43207999999998C1074.864065184 196.37135999999998,1078.2898251840002 192.97367999999997,1082.2210251840002 192.77711999999997">
</path>
</g>
</g>
<g class="vf-modifiers">
</g>
</g>
<path stroke-width="1.5" fill="none" stroke="#000000" stroke-dasharray="none" d="M468.99585318400005 197.99999999999997L468.99585318400005 163.74999999999997">
</path>
<path stroke-width="1.5" fill="none" stroke="#000000" stroke-dasharray="none" d="M501.51692438400005 197.99999999999997L501.51692438400005 163.74999999999997">
</path>
<path stroke-width="1.5" fill="none" stroke="#000000" stroke-dasharray="none" d="M559.902072384 197.99999999999997L559.902072384 163.74999999999997">
</path>
<path stroke-width="1.5" fill="none" stroke="#000000" stroke-dasharray="none" d="M592.4231435840001 197.99999999999997L592.4231435840001 163.74999999999997">
</path>
<path stroke-width="0.3" fill="#000000" stroke="none" stroke-dasharray="none" d="M468.24585318400005 162.99999999999997L468.24585318400005 167.99999999999997L592.6731435840001 167.99999999999997L592.6731435840001 162.99999999999997Z">
</path>
<path stroke-width="0.3" fill="#000000" stroke="none" stroke-dasharray="none" d="M468.24585318400005 170.49999999999997L468.24585318400005 175.49999999999997L592.6731435840001 175.49999999999997L592.6731435840001 170.49999999999997Z">
</path>
<path stroke-width="1.5" fill="none" stroke="#000000" stroke-dasharray="none" d="M650.808291584 197.99999999999997L650.808291584 163.74999999999997">
</path>
<path stroke-width="1.5" fill="none" stroke="#000000" stroke-dasharray="none" d="M683.3293627840001 197.99999999999997L683.3293627840001 163.74999999999997">
</path>
<path stroke-width="1.5" fill="none" stroke="#000000" stroke-dasharray="none" d="M741.714510784 197.99999999999997L741.714510784 163.74999999999997">
</path>
<path stroke-width="1.5" fill="none" stroke="#000000" stroke-dasharray="none" d="M774.2355819840001 197.99999999999997L774.2355819840001 163.74999999999997">
</path>
<path stroke-width="0.3" fill="#000000" stroke="none" stroke-dasharray="none" d="M650.058291584 162.99999999999997L650.058291584 167.99999999999997L774.4855819840001 167.99999999999997L774.4855819840001 162.99999999999997Z">
</path>
<path stroke-width="0.3" fill="#000000" stroke="none" stroke-dasharray="none" d="M650.058291584 170.49999999999997L650.058291584 175.49999999999997L774.4855819840001 175.49999999999997L774.4855819840001 170.49999999999997Z">
</path>
<path stroke-width="1.5" fill="none" stroke="#000000" stroke-dasharray="none" d="M832.6207299839999 197.99999999999997L832.6207299839999 163.74999999999997">
</path>
<path stroke-width="1.5" fill="none" stroke="#000000" stroke-dasharray="none" d="M865.141801184 197.99999999999997L865.141801184 163.74999999999997">
</path>
<path stroke-width="1.5" fill="none" stroke="#000000" stroke-dasharray="none" d="M897.662872384 197.99999999999997L897.662872384 163.74999999999997">
</path>
<path stroke-width="1.5" fill="none" stroke="#000000" stroke-dasharray="none" d="M930.1839435840001 197.99999999999997L930.1839435840001 163.74999999999997">
</path>
<path stroke-width="0.3" fill="#000000" stroke="none" stroke-dasharray="none" d="M831.8707299839999 162.99999999999997L831.8707299839999 167.99999999999997L930.4339435840001 167.99999999999997L930.4339435840001 162.99999999999997Z">
</path>
<path stroke-width="0.3" fill="#000000" stroke="none" stroke-dasharray="none" d="M831.8707299839999 170.49999999999997L831.8707299839999 175.49999999999997L930.4339435840001 175.49999999999997L930.4339435840001 170.49999999999997Z">
</path>
<path stroke-width="1.5" fill="none" stroke="#000000" stroke-dasharray="none" d="M988.5690915839999 197.99999999999997L988.5690915839999 163.74999999999997">
</path>
<path stroke-width="1.5" fill="none" stroke="#000000" stroke-dasharray="none" d="M1021.090162784 197.99999999999997L1021.090162784 163.74999999999997">
</path>
<path stroke-width="1.5" fill="none" stroke="#000000" stroke-dasharray="none" d="M1053.6112339840001 197.99999999999997L1053.6112339840001 163.74999999999997">
</path>
<path stroke-width="1.5" fill="none" stroke="#000000" stroke-dasharray="none" d="M1086.1323051840002 197.99999999999997L1086.1323051840002 163.74999999999997">
</path>
<path stroke-width="0.3" fill="#000000" stroke="none" stroke-dasharray="none" d="M987.8190915839999 162.99999999999997L987.8190915839999 167.99999999999997L1086.3823051840002 167.99999999999997L1086.3823051840002 162.99999999999997Z">
</path>
<path stroke-width="0.3" fill="#000000" stroke="none" stroke-dasharray="none" d="M987.8190915839999 170.49999999999997L987.8190915839999 175.49999999999997L1086.3823051840002 175.49999999999997L1086.3823051840002 170.49999999999997Z">
</path>
</svg>