<svg width="1536" height="331.99999999999994" viewBox="0 0 1536 331.99999999999994">
<path stroke-width="1" fill="none" stroke="black" stroke-dasharray="none" d="M50 197.99999999999997L452.66854758399984 197.99999999999997">
</path>
<rect stroke-width="0.3" fill="black" stroke="black" stroke-dasharray="none" x="452.66854758399984" y="177.49999999999997" width="1" height="41">
</rect>
<path stroke-width="0.3" fill="black" stroke="none" stroke-dasharray="none" d="M55 197.99999999999997M55 197.99999999999997L55 188.00639999999999L57.1888 188.00639999999999L59.4064 188.00639999999999L59.4064 197.99999999999997L59.4064 208.02239999999998L57.1888 208.02239999999998L55 208.02239999999998L55 197.99999999999997M63.870400000000004 198.02879999999996L63.870400000000004 188.00639999999999L66.1168 188.00639999999999L68.3632 188.00639999999999L68.3632 198.02879999999996L68.3632 208.02239999999998L66.1168 208.02239999999998L63.870400000000004 208.02239999999998L63.870400000000004 198.02879999999996">
</path>
<path stroke-width="0.3" fill="black" stroke="none" stroke-dasharray="none" d="M96.1296 197.99999999999997M101.80319999999999 179.33759999999998C101.91839999999999 179.33759999999998,102.11999999999999 179.33759999999998,102.3504 179.33759999999998C102.8112 179.33759999999998,103.416 179.33759999999998,103.56 179.39519999999996C105.72 179.65439999999998,107.448 180.74879999999996,108.1968 182.27519999999998C108.45599999999999 182.79359999999997,108.57119999999999 183.34079999999997,108.57119999999999 183.91679999999997C108.57119999999999 185.32799999999997,107.7936 186.94079999999997,106.38239999999999 188.15039999999996C105.4032 188.98559999999998,104.42399999999999 189.50399999999996,102.8976 189.99359999999996C100.9104 190.62719999999996,99.21119999999999 191.75039999999998,98.1168 193.10399999999998C98.1168 193.10399999999998,98.1168 193.13279999999997,98.1168 193.13279999999997C98.1168 193.13279999999997,98.1168 193.13279999999997,98.1168 193.13279999999997C98.1168 193.13279999999997,98.2032 193.10399999999998,98.26079999999999 193.01759999999996C99.3552 192.12479999999996,100.824 191.60639999999998,102.1488 191.60639999999998C103.2432 191.60639999999998,104.0208 191.80799999999996,105.0576 192.38399999999996C105.6912 192.70079999999996,106.2672 192.84479999999996,106.81439999999999 192.84479999999996C107.0448 192.84479999999996,107.2752 192.84479999999996,107.53439999999999 192.78719999999998C107.9088 192.70079999999996,108.312 192.41279999999998,108.45599999999999 192.18239999999997C108.5424 191.98079999999996,108.68639999999999 191.89439999999996,108.8592 191.89439999999996C109.08959999999999 191.89439999999996,109.32 192.06719999999999,109.32 192.32639999999998C109.32 192.52799999999996,109.0608 193.24799999999996,108.8304 193.7376C107.9088 195.58079999999998,106.29599999999999 196.73279999999997,104.7408 196.73279999999997C104.62559999999999 196.73279999999997,104.5392 196.73279999999997,104.42399999999999 196.70399999999998C104.0208 196.70399999999998,103.848 196.58879999999996,103.3296 196.24319999999997C102.23519999999999 195.52319999999997,100.8528 195.14879999999997,99.6432 195.14879999999997C99.1248 195.14879999999997,98.664 195.20639999999997,98.232 195.37919999999997C97.65599999999999 195.58079999999998,97.1088 195.92639999999997,96.93599999999999 196.18559999999997C96.8496 196.38719999999998,96.70559999999999 196.44479999999996,96.5328 196.44479999999996C96.3888 196.44479999999996,96.2448 196.38719999999998,96.1584 196.21439999999998L96.10079999999999 196.128L96.10079999999999 195.72479999999996C96.10079999999999 195.37919999999997,96.1296 195.26399999999998,96.1296 195.14879999999997C96.1584 195.06239999999997,96.18719999999999 194.88959999999997,96.18719999999999 194.74559999999997C96.70559999999999 192.32639999999998,98.4624 190.16639999999998,100.8528 189.10079999999996C102.8112 188.17919999999998,104.10719999999999 186.53759999999997,104.3376 184.46399999999997C104.39519999999999 184.29119999999998,104.39519999999999 184.14719999999997,104.39519999999999 183.97439999999997C104.39519999999999 182.13119999999998,103.0128 180.86399999999998,101.0544 180.86399999999998C100.9104 180.86399999999998,100.7376 180.86399999999998,100.5936 180.86399999999998C100.3056 180.89279999999997,100.2192 180.89279999999997,100.2192 180.95039999999997C100.2192 180.95039999999997,100.2192 180.97919999999996,100.3056 181.03679999999997C100.96799999999999 181.41119999999998,101.28479999999999 182.13119999999998,101.28479999999999 182.82239999999996C101.28479999999999 183.71519999999998,100.824 184.55039999999997,99.93119999999999 184.89599999999996C99.6432 184.98239999999998,99.3552 185.01119999999997,99.1248 185.01119999999997C97.9152 185.01119999999997,96.9072 183.97439999999997,96.9072 182.73599999999996C96.9072 182.50559999999996,96.9072 182.27519999999998,96.9648 182.01599999999996C97.3968 180.69119999999998,99.4416 179.59679999999997,101.80319999999999 179.33759999999998M102.696 198.02879999999996L102.75359999999999 198.02879999999996L102.6672 198.02879999999996L102.696 198.02879999999996M102.696 178.61759999999998L102.75359999999999 178.61759999999998L102.6672 178.61759999999998L102.696 178.61759999999998">
</path>
<path stroke-width="0.3" fill="black" stroke="none" stroke-dasharray="none" d="M96 217.99999999999997M101.0112 199.65439999999998C101.04 199.62559999999996,101.4432 199.62559999999996,102.6816 199.62559999999996C103.056 199.62559999999996,103.4592 199.62559999999996,103.9776 199.62559999999996L106.8864 199.62559999999996L106.9728 199.71199999999996C107.1168 199.79839999999996,107.2032 199.94239999999996,107.2032 200.05759999999998C107.2032 200.23039999999997,107.1168 200.34559999999996,107.0016 200.46079999999998C106.9728 200.54719999999998,106.7136 200.77759999999998,106.5408 201.03679999999997L105.0144 202.79359999999997L103.056 205.01119999999997L102.0192 206.19199999999998L100.464 207.97759999999997L98.4192 210.31039999999996C98.0736 210.74239999999998,97.6992 211.08799999999997,97.6992 211.08799999999997C97.6992 211.08799999999997,97.6992 211.08799999999997,97.6992 211.08799999999997C97.6992 211.14559999999997,97.9584 211.14559999999997,100.3488 211.14559999999997L102.9696 211.14559999999997L102.9696 209.27359999999996C102.9696 207.37279999999998,102.9696 207.34399999999997,102.9984 207.31519999999998C103.056 207.22879999999998,103.3152 206.91199999999998,104.3232 205.73119999999997L104.7264 205.29919999999998L105.1296 204.86719999999997L105.7344 204.08959999999996L106.368 203.42719999999997L106.6848 203.02399999999997C106.8 202.85119999999998,106.9728 202.82239999999996,107.1168 202.82239999999996C107.28960000000001 202.82239999999996,107.4336 202.90879999999999,107.52 203.05279999999996C107.5488 203.13919999999996,107.5488 203.19679999999997,107.5488 205.32799999999997C107.5488 205.81759999999997,107.5488 206.42239999999998,107.5488 207.14239999999998L107.5488 211.14559999999997L108.2688 211.14559999999997C108.9312 211.14559999999997,108.96 211.14559999999997,109.0464 211.17439999999996C109.2768 211.26079999999996,109.392 211.49119999999996,109.392 211.75039999999998C109.392 211.89439999999996,109.3632 212.06719999999999,109.248 212.18239999999997C109.0752 212.32639999999998,109.0464 212.32639999999998,108.2688 212.32639999999998L107.5488 212.32639999999998L107.5488 212.81599999999997C107.5776 214.28479999999996,107.8656 214.86079999999998,108.9888 215.46559999999997C109.392 215.66719999999998,109.4784 215.72479999999996,109.4784 216.01279999999997C109.4784 216.21439999999998,109.4208 216.30079999999998,109.2768 216.41599999999997L109.1904 216.44479999999996L105.2448 216.44479999999996L101.328 216.44479999999996L101.2416 216.41599999999997C101.0688 216.30079999999998,101.04 216.21439999999998,101.04 216.01279999999997C101.04 215.72479999999996,101.0688 215.66719999999998,101.5008 215.46559999999997C102.624 214.86079999999998,102.912 214.28479999999996,102.912 212.81599999999997L102.912 212.32639999999998L99.6 212.32639999999998C98.9952 212.38399999999996,98.5056 212.38399999999996,98.1024 212.38399999999996C96.288 212.38399999999996,96.2592 212.32639999999998,96.2304 212.32639999999998C96.0576 212.26879999999997,96 212.09599999999998,96 211.89439999999996C96 211.89439999999996,96 211.89439999999996,96 211.89439999999996C96 211.69279999999998,96 211.69279999999998,96.576 211.0304C98.9952 208.09279999999998,100.6944 203.83039999999997,100.6944 200.43199999999996C100.6944 199.91359999999997,100.7808 199.74079999999998,101.0112 199.65439999999998M102.7392 218.02879999999996L102.768 218.02879999999996L102.6816 218.02879999999996L102.7392 218.02879999999996M102.7392 198.61759999999998L102.768 198.61759999999998L102.6816 198.61759999999998L102.7392 198.61759999999998">
</path>
<g class="vf-stavenote" id="vf-auto66545">
<g class="vf-note" pointer-events="bounding-box">
<g class="vf-notehead" pointer-events="bounding-box">
<path stroke-width="0.3" fill="#000000" stroke="none" stroke-dasharray="none" d="M147.3424768 197.99999999999997M154.69943679999997 192.77711999999997C154.81175679999998 192.77711999999997,154.9802368 192.77711999999997,155.0083168 192.77711999999997C155.0083168 192.77711999999997,155.03639679999998 192.77711999999997,155.03639679999998 192.77711999999997C155.03639679999998 192.77711999999997,155.2048768 192.77711999999997,155.3452768 192.77711999999997C157.8724768 192.91751999999997,159.36071679999998 194.57423999999997,159.36071679999998 196.65215999999998C159.36071679999998 197.66303999999997,159.0237568 198.81431999999998,158.18135679999997 199.90943999999996C156.58079679999997 202.07159999999996,153.96935679999999 203.25095999999996,151.69487679999997 203.25095999999996C149.92583679999998 203.25095999999996,148.40951679999998 202.54895999999997,147.6794368 201.11687999999998C147.4547968 200.55527999999998,147.3424768 200.02175999999997,147.3424768 199.43207999999998C147.3424768 196.37135999999998,150.76823679999998 192.97367999999997,154.69943679999997 192.77711999999997">
</path>
</g>
</g>
<g class="vf-modifiers">
<g class="vf-stavenote" id="vf-auto66555">
<g class="vf-note" pointer-events="bounding-box">
<g class="vf-stem" pointer-events="bounding-box">
<path stroke-width="1.5" fill="none" stroke="#000000" stroke-dasharray="none" d="M128.6604384 197.99999999999997L128.6604384 174.89999999999998">
</path>
</g>
<g class="vf-notehead" pointer-events="bounding-box">
<path stroke-width="0.3" fill="#000000" stroke="none" stroke-dasharray="none" d="M121.4784 197.99999999999997M126.3339936 194.55289919999998C126.4081248 194.55289919999998,126.5193216 194.55289919999998,126.5378544 194.55289919999998C126.5378544 194.55289919999998,126.55638719999999 194.55289919999998,126.55638719999999 194.55289919999998C126.55638719999999 194.55289919999998,126.66758399999999 194.55289919999998,126.76024799999999 194.55289919999998C128.4282 194.64556319999997,129.4104384 195.73899839999996,129.4104384 197.11042559999999C129.4104384 197.77760639999997,129.1880448 198.53745119999996,128.6320608 199.26023039999998C127.5756912 200.68725599999996,125.8521408 201.46563359999996,124.350984 201.46563359999996C123.1834176 201.46563359999996,122.1826464 201.00231359999998,121.7007936 200.05714079999998C121.55253119999999 199.68648479999996,121.4784 199.33436159999997,121.4784 198.94517279999997C121.4784 196.92509759999996,123.7394016 194.68262879999997,126.3339936 194.55289919999998">
</path>
</g>
<g class="vf-flag" pointer-events="bounding-box">
<path stroke-width="0.3" fill="#000000" stroke="none" stroke-dasharray="none" d="M128.6604384 172.89999999999998M128.2156512 175.88378079999998L128.2156512 172.992664L128.2897824 172.992664C128.4936432 172.992664,128.6233728 173.12239359999998,128.6604384 173.34478719999998C129.0496272 175.19806719999997,130.2171936 177.21814239999998,131.8295472 178.73783199999997C133.6272288 180.42431679999999,134.535336 182.74091679999998,134.535336 185.13164799999998C134.535336 187.39264959999997,133.7384256 189.74631519999997,132.126072 191.69225919999997C131.84808 192.06291519999996,131.8295472 192.06291519999996,131.6442192 192.06291519999996C131.4218256 192.06291519999996,131.2735632 191.89611999999997,131.2735632 191.67372639999996C131.2735632 191.50693119999997,131.29209600000002 191.4698656,131.477424 191.2660048C132.88591680000002 189.56098719999997,133.5901632 187.5038464,133.5901632 185.5393696C133.5901632 183.7972864,133.0341792 182.12933439999998,131.88514560000002 180.86910399999996C131.1808992 180.09072639999997,129.8836032 179.34941439999997,128.234184 178.77489759999997C128.234184 178.75636479999997,128.2156512 178.18184799999997,128.2156512 175.88378079999998">
</path>
</g>
</g>
<g class="vf-modifiers">
</g>
</g>
<path stroke-width="1" fill="none" stroke="#000000" stroke-dasharray="none" d="M122.4784 189.74999999999997L135.4784 180.74999999999997Z">
</path>
</g>
</g>
<g class="vf-stavenote" id="vf-auto66569">
<g class="vf-note" pointer-events="bounding-box">
<g class="vf-notehead" pointer-events="bounding-box">
<path stroke-width="0.3" fill="#000000" stroke="none" stroke-dasharray="none" d="M182.44165759999998 197.99999999999997M189.79861759999997 192.77711999999997C189.91093759999998 192.77711999999997,190.0794176 192.77711999999997,190.1074976 192.77711999999997C190.1074976 192.77711999999997,190.13557759999998 192.77711999999997,190.13557759999998 192.77711999999997C190.13557759999998 192.77711999999997,190.3040576 192.77711999999997,190.4444576 192.77711999999997C192.9716576 192.91751999999997,194.45989759999998 194.57423999999997,194.45989759999998 196.65215999999998C194.45989759999998 197.66303999999997,194.1229376 198.81431999999998,193.28053759999997 199.90943999999996C191.67997759999997 202.07159999999996,189.06853759999998 203.25095999999996,186.79405759999997 203.25095999999996C185.02501759999998 203.25095999999996,183.50869759999998 202.54895999999997,182.7786176 201.11687999999998C182.5539776 200.55527999999998,182.44165759999998 200.02175999999997,182.44165759999998 199.43207999999998C182.44165759999998 196.37135999999998,185.86741759999998 192.97367999999997,189.79861759999997 192.77711999999997">
</path>
</g>
</g>
<g class="vf-modifiers">
</g>
</g>
<g class="vf-stavenote" id="vf-auto66579">
<g class="vf-note" pointer-events="bounding-box">
<g class="vf-notehead" pointer-events="bounding-box">
<path stroke-width="0.3" fill="#000000" stroke="none" stroke-dasharray="none" d="M217.54083839999998 197.99999999999997M224.89779839999997 192.77711999999997C225.01011839999998 192.77711999999997,225.1785984 192.77711999999997,225.2066784 192.77711999999997C225.2066784 192.77711999999997,225.23475839999998 192.77711999999997,225.23475839999998 192.77711999999997C225.23475839999998 192.77711999999997,225.4032384 192.77711999999997,225.5436384 192.77711999999997C228.07083839999999 192.91751999999997,229.55907839999998 194.57423999999997,229.55907839999998 196.65215999999998C229.55907839999998 197.66303999999997,229.2221184 198.81431999999998,228.37971839999997 199.90943999999996C226.77915839999997 202.07159999999996,224.16771839999998 203.25095999999996,221.89323839999997 203.25095999999996C220.12419839999998 203.25095999999996,218.60787839999998 202.54895999999997,217.8777984 201.11687999999998C217.6531584 200.55527999999998,217.54083839999998 200.02175999999997,217.54083839999998 199.43207999999998C217.54083839999998 196.37135999999998,220.96659839999998 192.97367999999997,224.89779839999997 192.77711999999997">
</path>
</g>
</g>
<g class="vf-modifiers">
</g>
</g>
<g class="vf-stavenote" id="vf-auto66589">
<g class="vf-note" pointer-events="bounding-box">
<g class="vf-notehead" pointer-events="bounding-box">
<path stroke-width="0.3" fill="#000000" stroke="none" stroke-dasharray="none" d="M252.6400192 197.99999999999997M259.9969792 192.77711999999997C260.1092992 192.77711999999997,260.2777792 192.77711999999997,260.3058592 192.77711999999997C260.3058592 192.77711999999997,260.33393920000003 192.77711999999997,260.33393920000003 192.77711999999997C260.33393920000003 192.77711999999997,260.5024192 192.77711999999997,260.6428192 192.77711999999997C263.1700192 192.91751999999997,264.65825920000003 194.57423999999997,264.65825920000003 196.65215999999998C264.65825920000003 197.66303999999997,264.3212992 198.81431999999998,263.4788992 199.90943999999996C261.8783392 202.07159999999996,259.2668992 203.25095999999996,256.99241920000003 203.25095999999996C255.2233792 203.25095999999996,253.7070592 202.54895999999997,252.97697920000002 201.11687999999998C252.75233920000002 200.55527999999998,252.6400192 200.02175999999997,252.6400192 199.43207999999998C252.6400192 196.37135999999998,256.0657792 192.97367999999997,259.9969792 192.77711999999997">
</path>
</g>
</g>
<g class="vf-modifiers">
</g>
</g>
<g class="vf-stavenote" id="vf-auto66599">
<g class="vf-note" pointer-events="bounding-box">
<g class="vf-notehead" pointer-events="bounding-box">
<path stroke-width="0.3" fill="#000000" stroke="none" stroke-dasharray="none" d="M313.6032768 197.99999999999997M320.9602368 192.77711999999997C321.07255680000003 192.77711999999997,321.2410368 192.77711999999997,321.2691168 192.77711999999997C321.2691168 192.77711999999997,321.2971968 192.77711999999997,321.2971968 192.77711999999997C321.2971968 192.77711999999997,321.4656768 192.77711999999997,321.6060768 192.77711999999997C324.1332768 192.91751999999997,325.6215168 194.57423999999997,325.6215168 196.65215999999998C325.6215168 197.66303999999997,325.2845568 198.81431999999998,324.4421568 199.90943999999996C322.8415968 202.07159999999996,320.23015680000003 203.25095999999996,317.9556768 203.25095999999996C316.18663680000003 203.25095999999996,314.6703168 202.54895999999997,313.9402368 201.11687999999998C313.7155968 200.55527999999998,313.6032768 200.02175999999997,313.6032768 199.43207999999998C313.6032768 196.37135999999998,317.02903680000003 192.97367999999997,320.9602368 192.77711999999997">
</path>
</g>
</g>
<g class="vf-modifiers">
<g class="vf-stavenote" id="vf-auto66609">
<g class="vf-note" pointer-events="bounding-box">
<g class="vf-stem" pointer-events="bounding-box">
<path stroke-width="1.5" fill="none" stroke="#000000" stroke-dasharray="none" d="M294.9212384 197.99999999999997L294.9212384 174.89999999999998">
</path>
</g>
<g class="vf-notehead" pointer-events="bounding-box">
<path stroke-width="0.3" fill="#000000" stroke="none" stroke-dasharray="none" d="M287.7392 197.99999999999997M292.5947936 194.55289919999998C292.66892479999996 194.55289919999998,292.7801216 194.55289919999998,292.7986544 194.55289919999998C292.7986544 194.55289919999998,292.8171872 194.55289919999998,292.8171872 194.55289919999998C292.8171872 194.55289919999998,292.928384 194.55289919999998,293.021048 194.55289919999998C294.68899999999996 194.64556319999997,295.6712384 195.73899839999996,295.6712384 197.11042559999999C295.6712384 197.77760639999997,295.44884479999996 198.53745119999996,294.8928608 199.26023039999998C293.83649119999995 200.68725599999996,292.1129408 201.46563359999996,290.611784 201.46563359999996C289.4442176 201.46563359999996,288.44344639999997 201.00231359999998,287.96159359999996 200.05714079999998C287.8133312 199.68648479999996,287.7392 199.33436159999997,287.7392 198.94517279999997C287.7392 196.92509759999996,290.00020159999997 194.68262879999997,292.5947936 194.55289919999998">
</path>
</g>
<g class="vf-flag" pointer-events="bounding-box">
<path stroke-width="0.3" fill="#000000" stroke="none" stroke-dasharray="none" d="M294.9212384 172.89999999999998M294.4764512 175.88378079999998L294.4764512 172.992664L294.5505824 172.992664C294.75444319999997 172.992664,294.8841728 173.12239359999998,294.9212384 173.34478719999998C295.3104272 175.19806719999997,296.4779936 177.21814239999998,298.0903472 178.73783199999997C299.8880288 180.42431679999999,300.796136 182.74091679999998,300.796136 185.13164799999998C300.796136 187.39264959999997,299.9992256 189.74631519999997,298.386872 191.69225919999997C298.10888 192.06291519999996,298.0903472 192.06291519999996,297.90501919999997 192.06291519999996C297.6826256 192.06291519999996,297.5343632 191.89611999999997,297.5343632 191.67372639999996C297.5343632 191.50693119999997,297.552896 191.4698656,297.738224 191.2660048C299.1467168 189.56098719999997,299.85096319999997 187.5038464,299.85096319999997 185.5393696C299.85096319999997 183.7972864,299.2949792 182.12933439999998,298.1459456 180.86910399999996C297.4416992 180.09072639999997,296.1444032 179.34941439999997,294.494984 178.77489759999997C294.494984 178.75636479999997,294.4764512 178.18184799999997,294.4764512 175.88378079999998">
</path>
</g>
</g>
<g class="vf-modifiers">
</g>
</g>
<path stroke-width="1" fill="none" stroke="#000000" stroke-dasharray="none" d="M288.7392 189.74999999999997L301.7392 180.74999999999997Z">
</path>
</g>
</g>
<g class="vf-stavenote" id="vf-auto66623">
<g class="vf-note" pointer-events="bounding-box">
<g class="vf-notehead" pointer-events="bounding-box">
<path stroke-width="0.3" fill="#000000" stroke="none" stroke-dasharray="none" d="M348.7024576 197.99999999999997M356.0594176 192.77711999999997C356.17173760000003 192.77711999999997,356.3402176 192.77711999999997,356.3682976 192.77711999999997C356.3682976 192.77711999999997,356.3963776 192.77711999999997,356.3963776 192.77711999999997C356.3963776 192.77711999999997,356.5648576 192.77711999999997,356.7052576 192.77711999999997C359.2324576 192.91751999999997,360.7206976 194.57423999999997,360.7206976 196.65215999999998C360.7206976 197.66303999999997,360.3837376 198.81431999999998,359.5413376 199.90943999999996C357.9407776 202.07159999999996,355.32933760000003 203.25095999999996,353.0548576 203.25095999999996C351.28581760000003 203.25095999999996,349.7694976 202.54895999999997,349.0394176 201.11687999999998C348.8147776 200.55527999999998,348.7024576 200.02175999999997,348.7024576 199.43207999999998C348.7024576 196.37135999999998,352.1282176 192.97367999999997,356.0594176 192.77711999999997">
</path>
</g>
</g>
<g class="vf-modifiers">
</g>
</g>
<g class="vf-stavenote" id="vf-auto66633">
<g class="vf-note" pointer-events="bounding-box">
<g class="vf-notehead" pointer-events="bounding-box">
<path stroke-width="0.3" fill="#000000" stroke="none" stroke-dasharray="none" d="M383.8016384 197.99999999999997M391.1585984 192.77711999999997C391.2709184 192.77711999999997,391.4393984 192.77711999999997,391.4674784 192.77711999999997C391.4674784 192.77711999999997,391.4955584 192.77711999999997,391.4955584 192.77711999999997C391.4955584 192.77711999999997,391.6640384 192.77711999999997,391.8044384 192.77711999999997C394.3316384 192.91751999999997,395.8198784 194.57423999999997,395.8198784 196.65215999999998C395.8198784 197.66303999999997,395.4829184 198.81431999999998,394.6405184 199.90943999999996C393.0399584 202.07159999999996,390.42851840000003 203.25095999999996,388.1540384 203.25095999999996C386.38499840000003 203.25095999999996,384.8686784 202.54895999999997,384.1385984 201.11687999999998C383.9139584 200.55527999999998,383.8016384 200.02175999999997,383.8016384 199.43207999999998C383.8016384 196.37135999999998,387.2273984 192.97367999999997,391.1585984 192.77711999999997">
</path>
</g>
</g>
<g class="vf-modifiers">
</g>
</g>
<g class="vf-stavenote" id="vf-auto66643">
<g class="vf-note" pointer-events="bounding-box">
<g class="vf-notehead" pointer-events="bounding-box">
<path stroke-width="0.3" fill="#000000" stroke="none" stroke-dasharray="none" d="M418.9008192 197.99999999999997M426.2577792 192.77711999999997C426.3700992 192.77711999999997,426.5385792 192.77711999999997,426.5666592 192.77711999999997C426.5666592 192.77711999999997,426.5947392 192.77711999999997,426.5947392 192.77711999999997C426.5947392 192.77711999999997,426.7632192 192.77711999999997,426.9036192 192.77711999999997C429.4308192 192.91751999999997,430.9190592 194.57423999999997,430.9190592 196.65215999999998C430.9190592 197.66303999999997,430.5820992 198.81431999999998,429.7396992 199.90943999999996C428.1391392 202.07159999999996,425.52769920000003 203.25095999999996,423.2532192 203.25095999999996C421.4841792 203.25095999999996,419.9678592 202.54895999999997,419.2377792 201.11687999999998C419.0131392 200.55527999999998,418.9008192 200.02175999999997,418.9008192 199.43207999999998C418.9008192 196.37135999999998,422.3265792 192.97367999999997,426.2577792 192.77711999999997">
</path>
</g>
</g>
<g class="vf-modifiers">
</g>
</g>
<path stroke-width="1.5" fill="none" stroke="#000000" stroke-dasharray="none" d="M158.61071679999998 197.99999999999997L158.61071679999998 163.74999999999997">
</path>
<path stroke-width="1.5" fill="none" stroke="#000000" stroke-dasharray="none" d="M193.70989759999998 197.99999999999997L193.70989759999998 163.74999999999997">
</path>
<path stroke-width="1.5" fill="none" stroke="#000000" stroke-dasharray="none" d="M228.80907839999998 197.99999999999997L228.80907839999998 163.74999999999997">
</path>
<path stroke-width="1.5" fill="none" stroke="#000000" stroke-dasharray="none" d="M263.90825920000003 197.99999999999997L263.90825920000003 163.74999999999997">
</path>
<path stroke-width="0.3" fill="#000000" stroke="none" stroke-dasharray="none" d="M157.86071679999998 162.99999999999997L157.86071679999998 167.99999999999997L264.15825920000003 167.99999999999997L264.15825920000003 162.99999999999997Z">
</path>
<path stroke-width="0.3" fill="#000000" stroke="none" stroke-dasharray="none" d="M157.86071679999998 170.49999999999997L157.86071679999998 175.49999999999997L264.15825920000003 175.49999999999997L264.15825920000003 170.49999999999997Z">
</path>
<path stroke-width="1.5" fill="none" stroke="#000000" stroke-dasharray="none" d="M324.8715168 197.99999999999997L324.8715168 163.74999999999997">
</path>
<path stroke-width="1.5" fill="none" stroke="#000000" stroke-dasharray="none" d="M359.9706976 197.99999999999997L359.9706976 163.74999999999997">
</path>
<path stroke-width="1.5" fill="none" stroke="#000000" stroke-dasharray="none" d="M395.0698784 197.99999999999997L395.0698784 163.74999999999997">
</path>
<path stroke-width="1.5" fill="none" stroke="#000000" stroke-dasharray="none" d="M430.1690592 197.99999999999997L430.1690592 163.74999999999997">
</path>
<path stroke-width="0.3" fill="#000000" stroke="none" stroke-dasharray="none" d="M324.1215168 162.99999999999997L324.1215168 167.99999999999997L430.4190592 167.99999999999997L430.4190592 162.99999999999997Z">
</path>
<path stroke-width="0.3" fill="#000000" stroke="none" stroke-dasharray="none" d="M324.1215168 170.49999999999997L324.1215168 175.49999999999997L430.4190592 175.49999999999997L430.4190592 170.49999999999997Z">
</path>
<path stroke-width="1" fill="none" stroke="black" stroke-dasharray="none" d="M452.66854758399984 197.99999999999997L1044.7438315519998 197.99999999999997">
</path>
<rect stroke-width="0.3" fill="black" stroke="black" stroke-dasharray="none" x="1039.7438315519998" y="177.49999999999997" width="1" height="41">
</rect>
<rect stroke-width="0.3" fill="black" stroke="black" stroke-dasharray="none" x="1042.7438315519998" y="177.49999999999997" width="3" height="41">
</rect>
<path stroke-width="0.3" fill="black" stroke="none" stroke-dasharray="none" d="M1038.7438315519998 193.49999999999997 A2 2 0 0 0 1034.7438315519998 193.49999999999997M1034.7438315519998 193.49999999999997 A2 2 0 0 0 1038.7438315519998 193.49999999999997">
</path>
<path stroke-width="0.3" fill="black" stroke="none" stroke-dasharray="none" d="M1038.7438315519998 203.49999999999997 A2 2 0 0 0 1034.7438315519998 203.49999999999997M1034.7438315519998 203.49999999999997 A2 2 0 0 0 1038.7438315519998 203.49999999999997">
</path>
<path stroke-width="0.3" fill="black" stroke="none" stroke-dasharray="none" d="M457.66854758399984 197.99999999999997M462.6797475839998 179.65439999999998C462.70854758399986 179.62559999999996,463.11174758399983 179.62559999999996,464.35014758399984 179.62559999999996C464.7245475839998 179.62559999999996,465.12774758399985 179.62559999999996,465.64614758399983 179.62559999999996L468.5549475839998 179.62559999999996L468.64134758399985 179.71199999999996C468.78534758399985 179.79839999999996,468.8717475839998 179.94239999999996,468.8717475839998 180.05759999999998C468.8717475839998 180.23039999999997,468.78534758399985 180.34559999999996,468.67014758399984 180.46079999999998C468.64134758399985 180.54719999999998,468.3821475839998 180.77759999999998,468.20934758399983 181.03679999999997L466.68294758399986 182.79359999999997L464.7245475839998 185.01119999999997L463.68774758399985 186.19199999999998L462.13254758399984 187.97759999999997L460.0877475839998 190.31039999999996C459.74214758399984 190.74239999999998,459.36774758399986 191.08799999999997,459.36774758399986 191.08799999999997C459.36774758399986 191.08799999999997,459.36774758399986 191.08799999999997,459.36774758399986 191.08799999999997C459.36774758399986 191.14559999999997,459.6269475839998 191.14559999999997,462.0173475839998 191.14559999999997L464.63814758399985 191.14559999999997L464.63814758399985 189.27359999999996C464.63814758399985 187.37279999999998,464.63814758399985 187.34399999999997,464.66694758399984 187.31519999999998C464.7245475839998 187.22879999999998,464.98374758399984 186.91199999999998,465.9917475839998 185.73119999999997L466.39494758399985 185.29919999999998L466.7981475839998 184.86719999999997L467.40294758399983 184.08959999999996L468.03654758399983 183.42719999999997L468.35334758399983 183.02399999999997C468.46854758399985 182.85119999999998,468.64134758399985 182.82239999999996,468.78534758399985 182.82239999999996C468.95814758399985 182.82239999999996,469.10214758399985 182.90879999999999,469.1885475839998 183.05279999999996C469.21734758399987 183.13919999999996,469.21734758399987 183.19679999999997,469.21734758399987 185.32799999999997C469.21734758399987 185.81759999999997,469.21734758399987 186.42239999999998,469.21734758399987 187.14239999999998L469.21734758399987 191.14559999999997L469.93734758399984 191.14559999999997C470.59974758399983 191.14559999999997,470.6285475839998 191.14559999999997,470.71494758399984 191.17439999999996C470.9453475839998 191.26079999999996,471.06054758399983 191.49119999999996,471.06054758399983 191.75039999999998C471.06054758399983 191.89439999999996,471.03174758399985 192.06719999999999,470.91654758399983 192.18239999999997C470.74374758399983 192.32639999999998,470.71494758399984 192.32639999999998,469.93734758399984 192.32639999999998L469.21734758399987 192.32639999999998L469.21734758399987 192.81599999999997C469.24614758399986 194.28479999999996,469.5341475839998 194.86079999999998,470.65734758399987 195.46559999999997C471.06054758399983 195.66719999999998,471.14694758399986 195.72479999999996,471.14694758399986 196.01279999999997C471.14694758399986 196.21439999999998,471.0893475839998 196.30079999999998,470.9453475839998 196.41599999999997L470.85894758399985 196.44479999999996L466.91334758399984 196.44479999999996L462.9965475839998 196.44479999999996L462.91014758399984 196.41599999999997C462.73734758399985 196.30079999999998,462.70854758399986 196.21439999999998,462.70854758399986 196.01279999999997C462.70854758399986 195.72479999999996,462.73734758399985 195.66719999999998,463.16934758399987 195.46559999999997C464.29254758399986 194.86079999999998,464.5805475839998 194.28479999999996,464.5805475839998 192.81599999999997L464.5805475839998 192.32639999999998L461.26854758399986 192.32639999999998C460.66374758399985 192.38399999999996,460.17414758399985 192.38399999999996,459.7709475839998 192.38399999999996C457.95654758399985 192.38399999999996,457.92774758399986 192.32639999999998,457.8989475839998 192.32639999999998C457.7261475839998 192.26879999999997,457.66854758399984 192.09599999999998,457.66854758399984 191.89439999999996C457.66854758399984 191.89439999999996,457.66854758399984 191.89439999999996,457.66854758399984 191.89439999999996C457.66854758399984 191.69279999999998,457.66854758399984 191.69279999999998,458.24454758399986 191.0304C460.66374758399985 188.09279999999998,462.3629475839998 183.83039999999997,462.3629475839998 180.43199999999996C462.3629475839998 179.91359999999997,462.44934758399984 179.74079999999998,462.6797475839998 179.65439999999998M464.4077475839998 198.02879999999996L464.4365475839998 198.02879999999996L464.35014758399984 198.02879999999996L464.4077475839998 198.02879999999996M464.4077475839998 178.61759999999998L464.4365475839998 178.61759999999998L464.35014758399984 178.61759999999998L464.4077475839998 178.61759999999998">
</path>
<path stroke-width="0.3" fill="black" stroke="none" stroke-dasharray="none" d="M457.66854758399984 217.99999999999997M462.6797475839998 199.65439999999998C462.70854758399986 199.62559999999996,463.11174758399983 199.62559999999996,464.35014758399984 199.62559999999996C464.7245475839998 199.62559999999996,465.12774758399985 199.62559999999996,465.64614758399983 199.62559999999996L468.5549475839998 199.62559999999996L468.64134758399985 199.71199999999996C468.78534758399985 199.79839999999996,468.8717475839998 199.94239999999996,468.8717475839998 200.05759999999998C468.8717475839998 200.23039999999997,468.78534758399985 200.34559999999996,468.67014758399984 200.46079999999998C468.64134758399985 200.54719999999998,468.3821475839998 200.77759999999998,468.20934758399983 201.03679999999997L466.68294758399986 202.79359999999997L464.7245475839998 205.01119999999997L463.68774758399985 206.19199999999998L462.13254758399984 207.97759999999997L460.0877475839998 210.31039999999996C459.74214758399984 210.74239999999998,459.36774758399986 211.08799999999997,459.36774758399986 211.08799999999997C459.36774758399986 211.08799999999997,459.36774758399986 211.08799999999997,459.36774758399986 211.08799999999997C459.36774758399986 211.14559999999997,459.6269475839998 211.14559999999997,462.0173475839998 211.14559999999997L464.63814758399985 211.14559999999997L464.63814758399985 209.27359999999996C464.63814758399985 207.37279999999998,464.63814758399985 207.34399999999997,464.66694758399984 207.31519999999998C464.7245475839998 207.22879999999998,464.98374758399984 206.91199999999998,465.9917475839998 205.73119999999997L466.39494758399985 205.29919999999998L466.7981475839998 204.86719999999997L467.40294758399983 204.08959999999996L468.03654758399983 203.42719999999997L468.35334758399983 203.02399999999997C468.46854758399985 202.85119999999998,468.64134758399985 202.82239999999996,468.78534758399985 202.82239999999996C468.95814758399985 202.82239999999996,469.10214758399985 202.90879999999999,469.1885475839998 203.05279999999996C469.21734758399987 203.13919999999996,469.21734758399987 203.19679999999997,469.21734758399987 205.32799999999997C469.21734758399987 205.81759999999997,469.21734758399987 206.42239999999998,469.21734758399987 207.14239999999998L469.21734758399987 211.14559999999997L469.93734758399984 211.14559999999997C470.59974758399983 211.14559999999997,470.6285475839998 211.14559999999997,470.71494758399984 211.17439999999996C470.9453475839998 211.26079999999996,471.06054758399983 211.49119999999996,471.06054758399983 211.75039999999998C471.06054758399983 211.89439999999996,471.03174758399985 212.06719999999999,470.91654758399983 212.18239999999997C470.74374758399983 212.32639999999998,470.71494758399984 212.32639999999998,469.93734758399984 212.32639999999998L469.21734758399987 212.32639999999998L469.21734758399987 212.81599999999997C469.24614758399986 214.28479999999996,469.5341475839998 214.86079999999998,470.65734758399987 215.46559999999997C471.06054758399983 215.66719999999998,471.14694758399986 215.72479999999996,471.14694758399986 216.01279999999997C471.14694758399986 216.21439999999998,471.0893475839998 216.30079999999998,470.9453475839998 216.41599999999997L470.85894758399985 216.44479999999996L466.91334758399984 216.44479999999996L462.9965475839998 216.44479999999996L462.91014758399984 216.41599999999997C462.73734758399985 216.30079999999998,462.70854758399986 216.21439999999998,462.70854758399986 216.01279999999997C462.70854758399986 215.72479999999996,462.73734758399985 215.66719999999998,463.16934758399987 215.46559999999997C464.29254758399986 214.86079999999998,464.5805475839998 214.28479999999996,464.5805475839998 212.81599999999997L464.5805475839998 212.32639999999998L461.26854758399986 212.32639999999998C460.66374758399985 212.38399999999996,460.17414758399985 212.38399999999996,459.7709475839998 212.38399999999996C457.95654758399985 212.38399999999996,457.92774758399986 212.32639999999998,457.8989475839998 212.32639999999998C457.7261475839998 212.26879999999997,457.66854758399984 212.09599999999998,457.66854758399984 211.89439999999996C457.66854758399984 211.89439999999996,457.66854758399984 211.89439999999996,457.66854758399984 211.89439999999996C457.66854758399984 211.69279999999998,457.66854758399984 211.69279999999998,458.24454758399986 211.0304C460.66374758399985 208.09279999999998,462.3629475839998 203.83039999999997,462.3629475839998 200.43199999999996C462.3629475839998 199.91359999999997,462.44934758399984 199.74079999999998,462.6797475839998 199.65439999999998M464.4077475839998 218.02879999999996L464.4365475839998 218.02879999999996L464.35014758399984 218.02879999999996L464.4077475839998 218.02879999999996M464.4077475839998 198.61759999999998L464.4365475839998 198.61759999999998L464.35014758399984 198.61759999999998L464.4077475839998 198.61759999999998">
</path>
<g class="vf-stavenote" id="vf-auto66656">
<g class="vf-note" pointer-events="bounding-box">
<g class="vf-notehead" pointer-events="bounding-box">
<path stroke-width="0.3" fill="#000000" stroke="none" stroke-dasharray="none" d="M509.0110243839999 197.99999999999997M516.3679843839999 192.77711999999997C516.4803043839999 192.77711999999997,516.6487843839999 192.77711999999997,516.6768643839998 192.77711999999997C516.6768643839998 192.77711999999997,516.7049443839999 192.77711999999997,516.7049443839999 192.77711999999997C516.7049443839999 192.77711999999997,516.8734243839999 192.77711999999997,517.0138243839999 192.77711999999997C519.5410243839999 192.91751999999997,521.0292643839999 194.57423999999997,521.0292643839999 196.65215999999998C521.0292643839999 197.66303999999997,520.6923043839998 198.81431999999998,519.8499043839998 199.90943999999996C518.2493443839999 202.07159999999996,515.6379043839999 203.25095999999996,513.3634243839999 203.25095999999996C511.5943843839999 203.25095999999996,510.0780643839999 202.54895999999997,509.34798438399986 201.11687999999998C509.1233443839999 200.55527999999998,509.0110243839999 200.02175999999997,509.0110243839999 199.43207999999998C509.0110243839999 196.37135999999998,512.4367843839999 192.97367999999997,516.3679843839999 192.77711999999997">
</path>
</g>
</g>
<g class="vf-modifiers">
<g class="vf-stavenote" id="vf-auto66666">
<g class="vf-note" pointer-events="bounding-box">
<g class="vf-stem" pointer-events="bounding-box">
<path stroke-width="1.5" fill="none" stroke="#000000" stroke-dasharray="none" d="M490.32898598399987 197.99999999999997L490.32898598399987 174.89999999999998">
</path>
</g>
<g class="vf-notehead" pointer-events="bounding-box">
<path stroke-width="0.3" fill="#000000" stroke="none" stroke-dasharray="none" d="M483.14694758399986 197.99999999999997M488.0025411839999 194.55289919999998C488.07667238399983 194.55289919999998,488.18786918399985 194.55289919999998,488.20640198399985 194.55289919999998C488.20640198399985 194.55289919999998,488.22493478399986 194.55289919999998,488.22493478399986 194.55289919999998C488.22493478399986 194.55289919999998,488.3361315839999 194.55289919999998,488.4287955839999 194.55289919999998C490.09674758399984 194.64556319999997,491.07898598399987 195.73899839999996,491.07898598399987 197.11042559999999C491.07898598399987 197.77760639999997,490.85659238399984 198.53745119999996,490.3006083839999 199.26023039999998C489.2442387839999 200.68725599999996,487.52068838399987 201.46563359999996,486.0195315839999 201.46563359999996C484.8519651839999 201.46563359999996,483.85119398399985 201.00231359999998,483.36934118399984 200.05714079999998C483.22107878399987 199.68648479999996,483.14694758399986 199.33436159999997,483.14694758399986 198.94517279999997C483.14694758399986 196.92509759999996,485.40794918399985 194.68262879999997,488.0025411839999 194.55289919999998">
</path>
</g>
<g class="vf-flag" pointer-events="bounding-box">
<path stroke-width="0.3" fill="#000000" stroke="none" stroke-dasharray="none" d="M490.32898598399987 172.89999999999998M489.88419878399986 175.88378079999998L489.88419878399986 172.992664L489.9583299839999 172.992664C490.16219078399985 172.992664,490.29192038399987 173.12239359999998,490.32898598399987 173.34478719999998C490.71817478399987 175.19806719999997,491.88574118399987 177.21814239999998,493.4980947839999 178.73783199999997C495.29577638399985 180.42431679999999,496.20388358399987 182.74091679999998,496.20388358399987 185.13164799999998C496.20388358399987 187.39264959999997,495.40697318399987 189.74631519999997,493.79461958399986 191.69225919999997C493.5166275839999 192.06291519999996,493.4980947839999 192.06291519999996,493.31276678399985 192.06291519999996C493.0903731839999 192.06291519999996,492.94211078399985 191.89611999999997,492.94211078399985 191.67372639999996C492.94211078399985 191.50693119999997,492.96064358399985 191.4698656,493.1459715839999 191.2660048C494.55446438399986 189.56098719999997,495.25871078399985 187.5038464,495.25871078399985 185.5393696C495.25871078399985 183.7972864,494.7027267839999 182.12933439999998,493.5536931839999 180.86910399999996C492.8494467839999 180.09072639999997,491.5521507839999 179.34941439999997,489.90273158399987 178.77489759999997C489.90273158399987 178.75636479999997,489.88419878399986 178.18184799999997,489.88419878399986 175.88378079999998">
</path>
</g>
</g>
<g class="vf-modifiers">
</g>
</g>
<path stroke-width="1" fill="none" stroke="#000000" stroke-dasharray="none" d="M484.14694758399986 189.74999999999997L497.14694758399986 180.74999999999997Z">
</path>
</g>
</g>
<g class="vf-stavenote" id="vf-auto66680">
<g class="vf-note" pointer-events="bounding-box">
<g class="vf-notehead" pointer-events="bounding-box">
<path stroke-width="0.3" fill="#000000" stroke="none" stroke-dasharray="none" d="M553.0055059839999 197.99999999999997M560.3624659839999 192.77711999999997C560.4747859839999 192.77711999999997,560.6432659839999 192.77711999999997,560.6713459839999 192.77711999999997C560.6713459839999 192.77711999999997,560.699425984 192.77711999999997,560.699425984 192.77711999999997C560.699425984 192.77711999999997,560.8679059839999 192.77711999999997,561.0083059839999 192.77711999999997C563.5355059839999 192.91751999999997,565.0237459839999 194.57423999999997,565.0237459839999 196.65215999999998C565.0237459839999 197.66303999999997,564.6867859839999 198.81431999999998,563.8443859839999 199.90943999999996C562.243825984 202.07159999999996,559.6323859839999 203.25095999999996,557.3579059839999 203.25095999999996C555.5888659839999 203.25095999999996,554.0725459839999 202.54895999999997,553.3424659839999 201.11687999999998C553.1178259839999 200.55527999999998,553.0055059839999 200.02175999999997,553.0055059839999 199.43207999999998C553.0055059839999 196.37135999999998,556.4312659839999 192.97367999999997,560.3624659839999 192.77711999999997">
</path>
</g>
</g>
<g class="vf-modifiers">
</g>
</g>
<g class="vf-stavenote" id="vf-auto66690">
<g class="vf-note" pointer-events="bounding-box">
<g class="vf-notehead" pointer-events="bounding-box">
<path stroke-width="0.3" fill="#000000" stroke="none" stroke-dasharray="none" d="M584.011866784 197.99999999999997M591.3688267839999 192.77711999999997C591.481146784 192.77711999999997,591.6496267839999 192.77711999999997,591.677706784 192.77711999999997C591.677706784 192.77711999999997,591.705786784 192.77711999999997,591.705786784 192.77711999999997C591.705786784 192.77711999999997,591.8742667839999 192.77711999999997,592.0146667839999 192.77711999999997C594.5418667839999 192.91751999999997,596.0301067839999 194.57423999999997,596.0301067839999 196.65215999999998C596.0301067839999 197.66303999999997,595.693146784 198.81431999999998,594.850746784 199.90943999999996C593.250186784 202.07159999999996,590.638746784 203.25095999999996,588.3642667839999 203.25095999999996C586.5952267839999 203.25095999999996,585.078906784 202.54895999999997,584.3488267839999 201.11687999999998C584.1241867839999 200.55527999999998,584.011866784 200.02175999999997,584.011866784 199.43207999999998C584.011866784 196.37135999999998,587.4376267839999 192.97367999999997,591.3688267839999 192.77711999999997">
</path>
</g>
</g>
<g class="vf-modifiers">
</g>
</g>
<g class="vf-stavenote" id="vf-auto66700">
<g class="vf-note" pointer-events="bounding-box">
<g class="vf-notehead" pointer-events="bounding-box">
<path stroke-width="0.3" fill="#000000" stroke="none" stroke-dasharray="none" d="M640.8823043839999 197.99999999999997M648.2392643839999 192.77711999999997C648.3515843839999 192.77711999999997,648.5200643839999 192.77711999999997,648.5481443839999 192.77711999999997C648.5481443839999 192.77711999999997,648.5762243839999 192.77711999999997,648.5762243839999 192.77711999999997C648.5762243839999 192.77711999999997,648.7447043839999 192.77711999999997,648.8851043839999 192.77711999999997C651.4123043839999 192.91751999999997,652.9005443839999 194.57423999999997,652.9005443839999 196.65215999999998C652.9005443839999 197.66303999999997,652.5635843839999 198.81431999999998,651.7211843839999 199.90943999999996C650.1206243839999 202.07159999999996,647.5091843839999 203.25095999999996,645.2347043839999 203.25095999999996C643.4656643839999 203.25095999999996,641.9493443839999 202.54895999999997,641.2192643839999 201.11687999999998C640.9946243839998 200.55527999999998,640.8823043839999 200.02175999999997,640.8823043839999 199.43207999999998C640.8823043839999 196.37135999999998,644.3080643839999 192.97367999999997,648.2392643839999 192.77711999999997">
</path>
</g>
</g>
<g class="vf-modifiers">
<g class="vf-stavenote" id="vf-auto66710">
<g class="vf-note" pointer-events="bounding-box">
<g class="vf-stem" pointer-events="bounding-box">
<path stroke-width="1.5" fill="none" stroke="#000000" stroke-dasharray="none" d="M622.2002659839999 197.99999999999997L622.2002659839999 174.89999999999998">
</path>
</g>
<g class="vf-notehead" pointer-events="bounding-box">
<path stroke-width="0.3" fill="#000000" stroke="none" stroke-dasharray="none" d="M615.0182275839999 197.99999999999997M619.8738211839999 194.55289919999998C619.9479523839999 194.55289919999998,620.0591491839999 194.55289919999998,620.0776819839999 194.55289919999998C620.0776819839999 194.55289919999998,620.0962147839999 194.55289919999998,620.0962147839999 194.55289919999998C620.0962147839999 194.55289919999998,620.2074115839998 194.55289919999998,620.3000755839998 194.55289919999998C621.9680275839999 194.64556319999997,622.9502659839999 195.73899839999996,622.9502659839999 197.11042559999999C622.9502659839999 197.77760639999997,622.7278723839999 198.53745119999996,622.1718883839999 199.26023039999998C621.1155187839998 200.68725599999996,619.3919683839998 201.46563359999996,617.8908115839998 201.46563359999996C616.7232451839999 201.46563359999996,615.7224739839999 201.00231359999998,615.2406211839999 200.05714079999998C615.0923587839999 199.68648479999996,615.0182275839999 199.33436159999997,615.0182275839999 198.94517279999997C615.0182275839999 196.92509759999996,617.2792291839999 194.68262879999997,619.8738211839999 194.55289919999998">
</path>
</g>
<g class="vf-flag" pointer-events="bounding-box">
<path stroke-width="0.3" fill="#000000" stroke="none" stroke-dasharray="none" d="M622.2002659839999 172.89999999999998M621.7554787839999 175.88378079999998L621.7554787839999 172.992664L621.8296099839998 172.992664C622.0334707839999 172.992664,622.1632003839999 173.12239359999998,622.2002659839999 173.34478719999998C622.5894547839999 175.19806719999997,623.7570211839999 177.21814239999998,625.3693747839999 178.73783199999997C627.1670563839999 180.42431679999999,628.0751635839999 182.74091679999998,628.0751635839999 185.13164799999998C628.0751635839999 187.39264959999997,627.2782531839999 189.74631519999997,625.6658995839999 191.69225919999997C625.3879075839999 192.06291519999996,625.3693747839999 192.06291519999996,625.1840467839999 192.06291519999996C624.9616531839998 192.06291519999996,624.8133907839999 191.89611999999997,624.8133907839999 191.67372639999996C624.8133907839999 191.50693119999997,624.8319235839999 191.4698656,625.0172515839998 191.2660048C626.4257443839999 189.56098719999997,627.1299907839999 187.5038464,627.1299907839999 185.5393696C627.1299907839999 183.7972864,626.5740067839998 182.12933439999998,625.4249731839999 180.86910399999996C624.7207267839999 180.09072639999997,623.4234307839998 179.34941439999997,621.7740115839999 178.77489759999997C621.7740115839999 178.75636479999997,621.7554787839999 178.18184799999997,621.7554787839999 175.88378079999998">
</path>
</g>
</g>
<g class="vf-modifiers">
</g>
</g>
<path stroke-width="1" fill="none" stroke="#000000" stroke-dasharray="none" d="M616.0182275839999 189.74999999999997L629.0182275839999 180.74999999999997Z">
</path>
</g>
</g>
<g class="vf-stavenote" id="vf-auto66724">
<g class="vf-note" pointer-events="bounding-box">
<g class="vf-notehead" pointer-events="bounding-box">
<path stroke-width="0.3" fill="#000000" stroke="none" stroke-dasharray="none" d="M684.8767859839999 197.99999999999997M692.2337459839998 192.77711999999997C692.3460659839999 192.77711999999997,692.5145459839998 192.77711999999997,692.5426259839999 192.77711999999997C692.5426259839999 192.77711999999997,692.5707059839999 192.77711999999997,692.5707059839999 192.77711999999997C692.5707059839999 192.77711999999997,692.7391859839998 192.77711999999997,692.8795859839998 192.77711999999997C695.4067859839998 192.91751999999997,696.8950259839999 194.57423999999997,696.8950259839999 196.65215999999998C696.8950259839999 197.66303999999997,696.5580659839999 198.81431999999998,695.7156659839999 199.90943999999996C694.1151059839999 202.07159999999996,691.5036659839999 203.25095999999996,689.2291859839999 203.25095999999996C687.4601459839998 203.25095999999996,685.9438259839999 202.54895999999997,685.2137459839998 201.11687999999998C684.9891059839998 200.55527999999998,684.8767859839999 200.02175999999997,684.8767859839999 199.43207999999998C684.8767859839999 196.37135999999998,688.3025459839998 192.97367999999997,692.2337459839998 192.77711999999997">
</path>
</g>
</g>
<g class="vf-modifiers">
</g>
</g>
<g class="vf-stavenote" id="vf-auto66734">
<g class="vf-note" pointer-events="bounding-box">
<g class="vf-notehead" pointer-events="bounding-box">
<path stroke-width="0.3" fill="#000000" stroke="none" stroke-dasharray="none" d="M715.8831467839999 197.99999999999997M723.2401067839999 192.77711999999997C723.3524267839999 192.77711999999997,723.5209067839999 192.77711999999997,723.5489867839999 192.77711999999997C723.5489867839999 192.77711999999997,723.577066784 192.77711999999997,723.577066784 192.77711999999997C723.577066784 192.77711999999997,723.7455467839999 192.77711999999997,723.8859467839999 192.77711999999997C726.4131467839999 192.91751999999997,727.9013867839999 194.57423999999997,727.9013867839999 196.65215999999998C727.9013867839999 197.66303999999997,727.5644267839999 198.81431999999998,726.7220267839999 199.90943999999996C725.121466784 202.07159999999996,722.5100267839999 203.25095999999996,720.2355467839999 203.25095999999996C718.4665067839999 203.25095999999996,716.9501867839999 202.54895999999997,716.2201067839999 201.11687999999998C715.9954667839999 200.55527999999998,715.8831467839999 200.02175999999997,715.8831467839999 199.43207999999998C715.8831467839999 196.37135999999998,719.3089067839999 192.97367999999997,723.2401067839999 192.77711999999997">
</path>
</g>
</g>
<g class="vf-modifiers">
</g>
</g>
<g class="vf-stavenote" id="vf-auto66744">
<g class="vf-note" pointer-events="bounding-box">
<g class="vf-notehead" pointer-events="bounding-box">
<path stroke-width="0.3" fill="#000000" stroke="none" stroke-dasharray="none" d="M772.7535843839999 197.99999999999997M780.1105443839998 192.77711999999997C780.2228643839999 192.77711999999997,780.3913443839998 192.77711999999997,780.4194243839999 192.77711999999997C780.4194243839999 192.77711999999997,780.4475043839999 192.77711999999997,780.4475043839999 192.77711999999997C780.4475043839999 192.77711999999997,780.6159843839998 192.77711999999997,780.7563843839998 192.77711999999997C783.2835843839998 192.91751999999997,784.7718243839998 194.57423999999997,784.7718243839998 196.65215999999998C784.7718243839998 197.66303999999997,784.4348643839999 198.81431999999998,783.5924643839999 199.90943999999996C781.9919043839999 202.07159999999996,779.3804643839999 203.25095999999996,777.1059843839998 203.25095999999996C775.3369443839998 203.25095999999996,773.8206243839999 202.54895999999997,773.0905443839998 201.11687999999998C772.8659043839998 200.55527999999998,772.7535843839999 200.02175999999997,772.7535843839999 199.43207999999998C772.7535843839999 196.37135999999998,776.1793443839998 192.97367999999997,780.1105443839998 192.77711999999997">
</path>
</g>
</g>
<g class="vf-modifiers">
<g class="vf-stavenote" id="vf-auto66754">
<g class="vf-note" pointer-events="bounding-box">
<g class="vf-stem" pointer-events="bounding-box">
<path stroke-width="1.5" fill="none" stroke="#000000" stroke-dasharray="none" d="M754.0715459839998 197.99999999999997L754.0715459839998 174.89999999999998">
</path>
</g>
<g class="vf-notehead" pointer-events="bounding-box">
<path stroke-width="0.3" fill="#000000" stroke="none" stroke-dasharray="none" d="M746.8895075839998 197.99999999999997M751.7451011839999 194.55289919999998C751.8192323839999 194.55289919999998,751.9304291839999 194.55289919999998,751.9489619839999 194.55289919999998C751.9489619839999 194.55289919999998,751.9674947839999 194.55289919999998,751.9674947839999 194.55289919999998C751.9674947839999 194.55289919999998,752.0786915839998 194.55289919999998,752.1713555839998 194.55289919999998C753.8393075839998 194.64556319999997,754.8215459839998 195.73899839999996,754.8215459839998 197.11042559999999C754.8215459839998 197.77760639999997,754.5991523839998 198.53745119999996,754.0431683839998 199.26023039999998C752.9867987839998 200.68725599999996,751.2632483839998 201.46563359999996,749.7620915839998 201.46563359999996C748.5945251839998 201.46563359999996,747.5937539839998 201.00231359999998,747.1119011839999 200.05714079999998C746.9636387839998 199.68648479999996,746.8895075839998 199.33436159999997,746.8895075839998 198.94517279999997C746.8895075839998 196.92509759999996,749.1505091839998 194.68262879999997,751.7451011839999 194.55289919999998">
</path>
</g>
<g class="vf-flag" pointer-events="bounding-box">
<path stroke-width="0.3" fill="#000000" stroke="none" stroke-dasharray="none" d="M754.0715459839998 172.89999999999998M753.6267587839999 175.88378079999998L753.6267587839999 172.992664L753.7008899839998 172.992664C753.9047507839998 172.992664,754.0344803839998 173.12239359999998,754.0715459839998 173.34478719999998C754.4607347839999 175.19806719999997,755.6283011839998 177.21814239999998,757.2406547839998 178.73783199999997C759.0383363839999 180.42431679999999,759.9464435839999 182.74091679999998,759.9464435839999 185.13164799999998C759.9464435839999 187.39264959999997,759.1495331839999 189.74631519999997,757.5371795839999 191.69225919999997C757.2591875839998 192.06291519999996,757.2406547839998 192.06291519999996,757.0553267839998 192.06291519999996C756.8329331839998 192.06291519999996,756.6846707839999 191.89611999999997,756.6846707839999 191.67372639999996C756.6846707839999 191.50693119999997,756.7032035839999 191.4698656,756.8885315839998 191.2660048C758.2970243839999 189.56098719999997,759.0012707839999 187.5038464,759.0012707839999 185.5393696C759.0012707839999 183.7972864,758.4452867839998 182.12933439999998,757.2962531839999 180.86910399999996C756.5920067839999 180.09072639999997,755.2947107839998 179.34941439999997,753.6452915839999 178.77489759999997C753.6452915839999 178.75636479999997,753.6267587839999 178.18184799999997,753.6267587839999 175.88378079999998">
</path>
</g>
</g>
<g class="vf-modifiers">
</g>
</g>
<path stroke-width="1" fill="none" stroke="#000000" stroke-dasharray="none" d="M747.8895075839998 189.74999999999997L760.8895075839998 180.74999999999997Z">
</path>
</g>
</g>
<g class="vf-stavenote" id="vf-auto66768">
<g class="vf-note" pointer-events="bounding-box">
<g class="vf-notehead" pointer-events="bounding-box">
<path stroke-width="0.3" fill="#000000" stroke="none" stroke-dasharray="none" d="M803.7599451839999 197.99999999999997M811.1169051839998 192.77711999999997C811.2292251839999 192.77711999999997,811.3977051839998 192.77711999999997,811.4257851839999 192.77711999999997C811.4257851839999 192.77711999999997,811.4538651839999 192.77711999999997,811.4538651839999 192.77711999999997C811.4538651839999 192.77711999999997,811.6223451839999 192.77711999999997,811.7627451839999 192.77711999999997C814.2899451839999 192.91751999999997,815.7781851839999 194.57423999999997,815.7781851839999 196.65215999999998C815.7781851839999 197.66303999999997,815.4412251839999 198.81431999999998,814.5988251839999 199.90943999999996C812.9982651839999 202.07159999999996,810.3868251839999 203.25095999999996,808.1123451839999 203.25095999999996C806.3433051839999 203.25095999999996,804.8269851839999 202.54895999999997,804.0969051839999 201.11687999999998C803.8722651839998 200.55527999999998,803.7599451839999 200.02175999999997,803.7599451839999 199.43207999999998C803.7599451839999 196.37135999999998,807.1857051839999 192.97367999999997,811.1169051839998 192.77711999999997">
</path>
</g>
</g>
<g class="vf-modifiers">
</g>
</g>
<g class="vf-stavenote" id="vf-auto66778">
<g class="vf-note" pointer-events="bounding-box">
<g class="vf-notehead" pointer-events="bounding-box">
<path stroke-width="0.3" fill="#000000" stroke="none" stroke-dasharray="none" d="M834.7663059839999 197.99999999999997M842.1232659839999 192.77711999999997C842.235585984 192.77711999999997,842.4040659839999 192.77711999999997,842.4321459839999 192.77711999999997C842.4321459839999 192.77711999999997,842.460225984 192.77711999999997,842.460225984 192.77711999999997C842.460225984 192.77711999999997,842.6287059839999 192.77711999999997,842.7691059839999 192.77711999999997C845.2963059839999 192.91751999999997,846.7845459839999 194.57423999999997,846.7845459839999 196.65215999999998C846.7845459839999 197.66303999999997,846.4475859839999 198.81431999999998,845.605185984 199.90943999999996C844.004625984 202.07159999999996,841.393185984 203.25095999999996,839.1187059839999 203.25095999999996C837.3496659839999 203.25095999999996,835.833345984 202.54895999999997,835.1032659839999 201.11687999999998C834.8786259839999 200.55527999999998,834.7663059839999 200.02175999999997,834.7663059839999 199.43207999999998C834.7663059839999 196.37135999999998,838.1920659839999 192.97367999999997,842.1232659839999 192.77711999999997">
</path>
</g>
</g>
<g class="vf-modifiers">
</g>
</g>
<g class="vf-stavenote" id="vf-auto66788">
<g class="vf-note" pointer-events="bounding-box">
<g class="vf-notehead" pointer-events="bounding-box">
<path stroke-width="0.3" fill="#000000" stroke="none" stroke-dasharray="none" d="M865.772666784 197.99999999999997M873.1296267839999 192.77711999999997C873.241946784 192.77711999999997,873.4104267839999 192.77711999999997,873.438506784 192.77711999999997C873.438506784 192.77711999999997,873.466586784 192.77711999999997,873.466586784 192.77711999999997C873.466586784 192.77711999999997,873.635066784 192.77711999999997,873.775466784 192.77711999999997C876.3026667839999 192.91751999999997,877.790906784 194.57423999999997,877.790906784 196.65215999999998C877.790906784 197.66303999999997,877.453946784 198.81431999999998,876.611546784 199.90943999999996C875.010986784 202.07159999999996,872.399546784 203.25095999999996,870.125066784 203.25095999999996C868.3560267839999 203.25095999999996,866.839706784 202.54895999999997,866.1096267839999 201.11687999999998C865.8849867839999 200.55527999999998,865.772666784 200.02175999999997,865.772666784 199.43207999999998C865.772666784 196.37135999999998,869.1984267839999 192.97367999999997,873.1296267839999 192.77711999999997">
</path>
</g>
</g>
<g class="vf-modifiers">
</g>
</g>
<g class="vf-stavenote" id="vf-auto66798">
<g class="vf-note" pointer-events="bounding-box">
<g class="vf-notehead" pointer-events="bounding-box">
<path stroke-width="0.3" fill="#000000" stroke="none" stroke-dasharray="none" d="M922.6431043839999 197.99999999999997M930.0000643839999 192.77711999999997C930.1123843839999 192.77711999999997,930.2808643839999 192.77711999999997,930.3089443839999 192.77711999999997C930.3089443839999 192.77711999999997,930.337024384 192.77711999999997,930.337024384 192.77711999999997C930.337024384 192.77711999999997,930.5055043839999 192.77711999999997,930.6459043839999 192.77711999999997C933.1731043839999 192.91751999999997,934.6613443839999 194.57423999999997,934.6613443839999 196.65215999999998C934.6613443839999 197.66303999999997,934.3243843839999 198.81431999999998,933.4819843839999 199.90943999999996C931.881424384 202.07159999999996,929.2699843839999 203.25095999999996,926.9955043839999 203.25095999999996C925.2264643839999 203.25095999999996,923.7101443839999 202.54895999999997,922.9800643839999 201.11687999999998C922.7554243839999 200.55527999999998,922.6431043839999 200.02175999999997,922.6431043839999 199.43207999999998C922.6431043839999 196.37135999999998,926.0688643839999 192.97367999999997,930.0000643839999 192.77711999999997">
</path>
</g>
</g>
<g class="vf-modifiers">
<g class="vf-stavenote" id="vf-auto66808">
<g class="vf-note" pointer-events="bounding-box">
<g class="vf-stem" pointer-events="bounding-box">
<path stroke-width="1.5" fill="none" stroke="#000000" stroke-dasharray="none" d="M903.9610659839999 197.99999999999997L903.9610659839999 174.89999999999998">
</path>
</g>
<g class="vf-notehead" pointer-events="bounding-box">
<path stroke-width="0.3" fill="#000000" stroke="none" stroke-dasharray="none" d="M896.7790275839999 197.99999999999997M901.6346211839999 194.55289919999998C901.7087523839999 194.55289919999998,901.8199491839999 194.55289919999998,901.8384819839999 194.55289919999998C901.8384819839999 194.55289919999998,901.857014784 194.55289919999998,901.857014784 194.55289919999998C901.857014784 194.55289919999998,901.9682115839998 194.55289919999998,902.0608755839999 194.55289919999998C903.7288275839999 194.64556319999997,904.7110659839999 195.73899839999996,904.7110659839999 197.11042559999999C904.7110659839999 197.77760639999997,904.4886723839999 198.53745119999996,903.9326883839999 199.26023039999998C902.8763187839999 200.68725599999996,901.1527683839998 201.46563359999996,899.6516115839999 201.46563359999996C898.4840451839999 201.46563359999996,897.4832739839999 201.00231359999998,897.0014211839999 200.05714079999998C896.8531587839999 199.68648479999996,896.7790275839999 199.33436159999997,896.7790275839999 198.94517279999997C896.7790275839999 196.92509759999996,899.0400291839999 194.68262879999997,901.6346211839999 194.55289919999998">
</path>
</g>
<g class="vf-flag" pointer-events="bounding-box">
<path stroke-width="0.3" fill="#000000" stroke="none" stroke-dasharray="none" d="M903.9610659839999 172.89999999999998M903.516278784 175.88378079999998L903.516278784 172.992664L903.5904099839998 172.992664C903.7942707839999 172.992664,903.9240003839999 173.12239359999998,903.9610659839999 173.34478719999998C904.350254784 175.19806719999997,905.5178211839999 177.21814239999998,907.1301747839999 178.73783199999997C908.9278563839999 180.42431679999999,909.835963584 182.74091679999998,909.835963584 185.13164799999998C909.835963584 187.39264959999997,909.039053184 189.74631519999997,907.426699584 191.69225919999997C907.1487075839999 192.06291519999996,907.1301747839999 192.06291519999996,906.9448467839999 192.06291519999996C906.7224531839998 192.06291519999996,906.5741907839999 191.89611999999997,906.5741907839999 191.67372639999996C906.5741907839999 191.50693119999997,906.5927235839999 191.4698656,906.7780515839999 191.2660048C908.186544384 189.56098719999997,908.8907907839999 187.5038464,908.8907907839999 185.5393696C908.8907907839999 183.7972864,908.3348067839999 182.12933439999998,907.1857731839999 180.86910399999996C906.4815267839999 180.09072639999997,905.1842307839999 179.34941439999997,903.534811584 178.77489759999997C903.534811584 178.75636479999997,903.516278784 178.18184799999997,903.516278784 175.88378079999998">
</path>
</g>
</g>
<g class="vf-modifiers">
</g>
</g>
<path stroke-width="1" fill="none" stroke="#000000" stroke-dasharray="none" d="M897.7790275839999 189.74999999999997L910.7790275839999 180.74999999999997Z">
</path>
</g>
</g>
<g class="vf-stavenote" id="vf-auto66822">
<g class="vf-note" pointer-events="bounding-box">
<g class="vf-notehead" pointer-events="bounding-box">
<path stroke-width="0.3" fill="#000000" stroke="none" stroke-dasharray="none" d="M953.6494651839998 197.99999999999997M961.0064251839998 192.77711999999997C961.1187451839999 192.77711999999997,961.2872251839998 192.77711999999997,961.3153051839998 192.77711999999997C961.3153051839998 192.77711999999997,961.3433851839999 192.77711999999997,961.3433851839999 192.77711999999997C961.3433851839999 192.77711999999997,961.5118651839998 192.77711999999997,961.6522651839998 192.77711999999997C964.1794651839998 192.91751999999997,965.6677051839998 194.57423999999997,965.6677051839998 196.65215999999998C965.6677051839998 197.66303999999997,965.3307451839999 198.81431999999998,964.4883451839999 199.90943999999996C962.8877851839999 202.07159999999996,960.2763451839999 203.25095999999996,958.0018651839998 203.25095999999996C956.2328251839998 203.25095999999996,954.7165051839999 202.54895999999997,953.9864251839998 201.11687999999998C953.7617851839998 200.55527999999998,953.6494651839998 200.02175999999997,953.6494651839998 199.43207999999998C953.6494651839998 196.37135999999998,957.0752251839998 192.97367999999997,961.0064251839998 192.77711999999997">
</path>
</g>
</g>
<g class="vf-modifiers">
</g>
</g>
<g class="vf-stavenote" id="vf-auto66832">
<g class="vf-note" pointer-events="bounding-box">
<g class="vf-notehead" pointer-events="bounding-box">
<path stroke-width="0.3" fill="#000000" stroke="none" stroke-dasharray="none" d="M984.6558259839999 197.99999999999997M992.0127859839998 192.77711999999997C992.1251059839999 192.77711999999997,992.2935859839998 192.77711999999997,992.3216659839999 192.77711999999997C992.3216659839999 192.77711999999997,992.3497459839999 192.77711999999997,992.3497459839999 192.77711999999997C992.3497459839999 192.77711999999997,992.5182259839999 192.77711999999997,992.6586259839999 192.77711999999997C995.1858259839998 192.91751999999997,996.6740659839999 194.57423999999997,996.6740659839999 196.65215999999998C996.6740659839999 197.66303999999997,996.3371059839999 198.81431999999998,995.4947059839999 199.90943999999996C993.8941459839999 202.07159999999996,991.2827059839999 203.25095999999996,989.0082259839999 203.25095999999996C987.2391859839998 203.25095999999996,985.7228659839999 202.54895999999997,984.9927859839999 201.11687999999998C984.7681459839998 200.55527999999998,984.6558259839999 200.02175999999997,984.6558259839999 199.43207999999998C984.6558259839999 196.37135999999998,988.0815859839998 192.97367999999997,992.0127859839998 192.77711999999997">
</path>
</g>
</g>
<g class="vf-modifiers">
</g>
</g>
<g class="vf-stavenote" id="vf-auto66842">
<g class="vf-note" pointer-events="bounding-box">
<g class="vf-notehead" pointer-events="bounding-box">
<path stroke-width="0.3" fill="#000000" stroke="none" stroke-dasharray="none" d="M1015.6621867839999 197.99999999999997M1023.0191467839999 192.77711999999997C1023.1314667839999 192.77711999999997,1023.2999467839999 192.77711999999997,1023.3280267839999 192.77711999999997C1023.3280267839999 192.77711999999997,1023.356106784 192.77711999999997,1023.356106784 192.77711999999997C1023.356106784 192.77711999999997,1023.5245867839999 192.77711999999997,1023.6649867839999 192.77711999999997C1026.192186784 192.91751999999997,1027.680426784 194.57423999999997,1027.680426784 196.65215999999998C1027.680426784 197.66303999999997,1027.343466784 198.81431999999998,1026.501066784 199.90943999999996C1024.9005067839998 202.07159999999996,1022.2890667839999 203.25095999999996,1020.0145867839999 203.25095999999996C1018.2455467839999 203.25095999999996,1016.7292267839999 202.54895999999997,1015.9991467839999 201.11687999999998C1015.7745067839999 200.55527999999998,1015.6621867839999 200.02175999999997,1015.6621867839999 199.43207999999998C1015.6621867839999 196.37135999999998,1019.0879467839999 192.97367999999997,1023.0191467839999 192.77711999999997">
</path>
</g>
</g>
<g class="vf-modifiers">
</g>
</g>
<path stroke-width="1.5" fill="none" stroke="#000000" stroke-dasharray="none" d="M520.2792643839999 197.99999999999997L520.2792643839999 163.74999999999997">
</path>
<path stroke-width="1.5" fill="none" stroke="#000000" stroke-dasharray="none" d="M564.2737459839999 197.99999999999997L564.2737459839999 163.74999999999997">
</path>
<path stroke-width="1.5" fill="none" stroke="#000000" stroke-dasharray="none" d="M595.2801067839999 197.99999999999997L595.2801067839999 163.74999999999997">
</path>
<path stroke-width="0.3" fill="#000000" stroke="none" stroke-dasharray="none" d="M519.5292643839999 162.99999999999997L519.5292643839999 167.99999999999997L595.5301067839999 167.99999999999997L595.5301067839999 162.99999999999997Z">
</path>
<path stroke-width="0.3" fill="#000000" stroke="none" stroke-dasharray="none" d="M563.5237459839999 170.49999999999997L563.5237459839999 175.49999999999997L595.5301067839999 175.49999999999997L595.5301067839999 170.49999999999997Z">
</path>
<path stroke-width="1.5" fill="none" stroke="#000000" stroke-dasharray="none" d="M652.1505443839999 197.99999999999997L652.1505443839999 163.74999999999997">
</path>
<path stroke-width="1.5" fill="none" stroke="#000000" stroke-dasharray="none" d="M696.1450259839999 197.99999999999997L696.1450259839999 163.74999999999997">
</path>
<path stroke-width="1.5" fill="none" stroke="#000000" stroke-dasharray="none" d="M727.1513867839999 197.99999999999997L727.1513867839999 163.74999999999997">
</path>
<path stroke-width="0.3" fill="#000000" stroke="none" stroke-dasharray="none" d="M651.4005443839999 162.99999999999997L651.4005443839999 167.99999999999997L727.4013867839999 167.99999999999997L727.4013867839999 162.99999999999997Z">
</path>
<path stroke-width="0.3" fill="#000000" stroke="none" stroke-dasharray="none" d="M695.3950259839999 170.49999999999997L695.3950259839999 175.49999999999997L727.4013867839999 175.49999999999997L727.4013867839999 170.49999999999997Z">
</path>
<path stroke-width="1.5" fill="none" stroke="#000000" stroke-dasharray="none" d="M784.0218243839998 197.99999999999997L784.0218243839998 163.74999999999997">
</path>
<path stroke-width="1.5" fill="none" stroke="#000000" stroke-dasharray="none" d="M815.0281851839999 197.99999999999997L815.0281851839999 163.74999999999997">
</path>
<path stroke-width="1.5" fill="none" stroke="#000000" stroke-dasharray="none" d="M846.0345459839999 197.99999999999997L846.0345459839999 163.74999999999997">
</path>
<path stroke-width="1.5" fill="none" stroke="#000000" stroke-dasharray="none" d="M877.040906784 197.99999999999997L877.040906784 163.74999999999997">
</path>
<path stroke-width="0.3" fill="#000000" stroke="none" stroke-dasharray="none" d="M783.2718243839998 162.99999999999997L783.2718243839998 167.99999999999997L877.290906784 167.99999999999997L877.290906784 162.99999999999997Z">
</path>
<path stroke-width="0.3" fill="#000000" stroke="none" stroke-dasharray="none" d="M783.2718243839998 170.49999999999997L783.2718243839998 175.49999999999997L877.290906784 175.49999999999997L877.290906784 170.49999999999997Z">
</path>
<path stroke-width="1.5" fill="none" stroke="#000000" stroke-dasharray="none" d="M933.9113443839999 197.99999999999997L933.9113443839999 163.74999999999997">
</path>
<path stroke-width="1.5" fill="none" stroke="#000000" stroke-dasharray="none" d="M964.9177051839998 197.99999999999997L964.9177051839998 163.74999999999997">
</path>
<path stroke-width="1.5" fill="none" stroke="#000000" stroke-dasharray="none" d="M995.9240659839999 197.99999999999997L995.9240659839999 163.74999999999997">
</path>
<path stroke-width="1.5" fill="none" stroke="#000000" stroke-dasharray="none" d="M1026.930426784 197.99999999999997L1026.930426784 163.74999999999997">
</path>
<path stroke-width="0.3" fill="#000000" stroke="none" stroke-dasharray="none" d="M933.1613443839999 162.99999999999997L933.1613443839999 167.99999999999997L1027.180426784 167.99999999999997L1027.180426784 162.99999999999997Z">
</path>
<path stroke-width="0.3" fill="#000000" stroke="none" stroke-dasharray="none" d="M933.1613443839999 170.49999999999997L933.1613443839999 175.49999999999997L1027.180426784 175.49999999999997L1027.180426784 170.49999999999997Z">
</path>
</svg>