<svg width="1536" height="331.99999999999994" viewBox="0 0 1536 331.99999999999994">
<path stroke-width="1" fill="none" stroke="black" stroke-dasharray="none" d="M50 197.99999999999997L514.2250503679999 197.99999999999997">
</path>
<rect stroke-width="0.3" fill="black" stroke="black" stroke-dasharray="none" x="514.2250503679999" y="177.49999999999997" width="1" height="41">
</rect>
<path stroke-width="0.3" fill="black" stroke="none" stroke-dasharray="none" d="M55 197.99999999999997M55 197.99999999999997L55 188.00639999999999L57.1888 188.00639999999999L59.4064 188.00639999999999L59.4064 197.99999999999997L59.4064 208.02239999999998L57.1888 208.02239999999998L55 208.02239999999998L55 197.99999999999997M63.870400000000004 198.02879999999996L63.870400000000004 188.00639999999999L66.1168 188.00639999999999L68.3632 188.00639999999999L68.3632 198.02879999999996L68.3632 208.02239999999998L66.1168 208.02239999999998L63.870400000000004 208.02239999999998L63.870400000000004 198.02879999999996">
</path>
<path stroke-width="0.3" fill="black" stroke="none" stroke-dasharray="none" d="M96.1296 197.99999999999997M101.80319999999999 179.33759999999998C101.91839999999999 179.33759999999998,102.11999999999999 179.33759999999998,102.3504 179.33759999999998C102.8112 179.33759999999998,103.416 179.33759999999998,103.56 179.39519999999996C105.72 179.65439999999998,107.448 180.74879999999996,108.1968 182.27519999999998C108.45599999999999 182.79359999999997,108.57119999999999 183.34079999999997,108.57119999999999 183.91679999999997C108.57119999999999 185.32799999999997,107.7936 186.94079999999997,106.38239999999999 188.15039999999996C105.4032 188.98559999999998,104.42399999999999 189.50399999999996,102.8976 189.99359999999996C100.9104 190.62719999999996,99.21119999999999 191.75039999999998,98.1168 193.10399999999998C98.1168 193.10399999999998,98.1168 193.13279999999997,98.1168 193.13279999999997C98.1168 193.13279999999997,98.1168 193.13279999999997,98.1168 193.13279999999997C98.1168 193.13279999999997,98.2032 193.10399999999998,98.26079999999999 193.01759999999996C99.3552 192.12479999999996,100.824 191.60639999999998,102.1488 191.60639999999998C103.2432 191.60639999999998,104.0208 191.80799999999996,105.0576 192.38399999999996C105.6912 192.70079999999996,106.2672 192.84479999999996,106.81439999999999 192.84479999999996C107.0448 192.84479999999996,107.2752 192.84479999999996,107.53439999999999 192.78719999999998C107.9088 192.70079999999996,108.312 192.41279999999998,108.45599999999999 192.18239999999997C108.5424 191.98079999999996,108.68639999999999 191.89439999999996,108.8592 191.89439999999996C109.08959999999999 191.89439999999996,109.32 192.06719999999999,109.32 192.32639999999998C109.32 192.52799999999996,109.0608 193.24799999999996,108.8304 193.7376C107.9088 195.58079999999998,106.29599999999999 196.73279999999997,104.7408 196.73279999999997C104.62559999999999 196.73279999999997,104.5392 196.73279999999997,104.42399999999999 196.70399999999998C104.0208 196.70399999999998,103.848 196.58879999999996,103.3296 196.24319999999997C102.23519999999999 195.52319999999997,100.8528 195.14879999999997,99.6432 195.14879999999997C99.1248 195.14879999999997,98.664 195.20639999999997,98.232 195.37919999999997C97.65599999999999 195.58079999999998,97.1088 195.92639999999997,96.93599999999999 196.18559999999997C96.8496 196.38719999999998,96.70559999999999 196.44479999999996,96.5328 196.44479999999996C96.3888 196.44479999999996,96.2448 196.38719999999998,96.1584 196.21439999999998L96.10079999999999 196.128L96.10079999999999 195.72479999999996C96.10079999999999 195.37919999999997,96.1296 195.26399999999998,96.1296 195.14879999999997C96.1584 195.06239999999997,96.18719999999999 194.88959999999997,96.18719999999999 194.74559999999997C96.70559999999999 192.32639999999998,98.4624 190.16639999999998,100.8528 189.10079999999996C102.8112 188.17919999999998,104.10719999999999 186.53759999999997,104.3376 184.46399999999997C104.39519999999999 184.29119999999998,104.39519999999999 184.14719999999997,104.39519999999999 183.97439999999997C104.39519999999999 182.13119999999998,103.0128 180.86399999999998,101.0544 180.86399999999998C100.9104 180.86399999999998,100.7376 180.86399999999998,100.5936 180.86399999999998C100.3056 180.89279999999997,100.2192 180.89279999999997,100.2192 180.95039999999997C100.2192 180.95039999999997,100.2192 180.97919999999996,100.3056 181.03679999999997C100.96799999999999 181.41119999999998,101.28479999999999 182.13119999999998,101.28479999999999 182.82239999999996C101.28479999999999 183.71519999999998,100.824 184.55039999999997,99.93119999999999 184.89599999999996C99.6432 184.98239999999998,99.3552 185.01119999999997,99.1248 185.01119999999997C97.9152 185.01119999999997,96.9072 183.97439999999997,96.9072 182.73599999999996C96.9072 182.50559999999996,96.9072 182.27519999999998,96.9648 182.01599999999996C97.3968 180.69119999999998,99.4416 179.59679999999997,101.80319999999999 179.33759999999998M102.696 198.02879999999996L102.75359999999999 198.02879999999996L102.6672 198.02879999999996L102.696 198.02879999999996M102.696 178.61759999999998L102.75359999999999 178.61759999999998L102.6672 178.61759999999998L102.696 178.61759999999998">
</path>
<path stroke-width="0.3" fill="black" stroke="none" stroke-dasharray="none" d="M96 217.99999999999997M101.0112 199.65439999999998C101.04 199.62559999999996,101.4432 199.62559999999996,102.6816 199.62559999999996C103.056 199.62559999999996,103.4592 199.62559999999996,103.9776 199.62559999999996L106.8864 199.62559999999996L106.9728 199.71199999999996C107.1168 199.79839999999996,107.2032 199.94239999999996,107.2032 200.05759999999998C107.2032 200.23039999999997,107.1168 200.34559999999996,107.0016 200.46079999999998C106.9728 200.54719999999998,106.7136 200.77759999999998,106.5408 201.03679999999997L105.0144 202.79359999999997L103.056 205.01119999999997L102.0192 206.19199999999998L100.464 207.97759999999997L98.4192 210.31039999999996C98.0736 210.74239999999998,97.6992 211.08799999999997,97.6992 211.08799999999997C97.6992 211.08799999999997,97.6992 211.08799999999997,97.6992 211.08799999999997C97.6992 211.14559999999997,97.9584 211.14559999999997,100.3488 211.14559999999997L102.9696 211.14559999999997L102.9696 209.27359999999996C102.9696 207.37279999999998,102.9696 207.34399999999997,102.9984 207.31519999999998C103.056 207.22879999999998,103.3152 206.91199999999998,104.3232 205.73119999999997L104.7264 205.29919999999998L105.1296 204.86719999999997L105.7344 204.08959999999996L106.368 203.42719999999997L106.6848 203.02399999999997C106.8 202.85119999999998,106.9728 202.82239999999996,107.1168 202.82239999999996C107.28960000000001 202.82239999999996,107.4336 202.90879999999999,107.52 203.05279999999996C107.5488 203.13919999999996,107.5488 203.19679999999997,107.5488 205.32799999999997C107.5488 205.81759999999997,107.5488 206.42239999999998,107.5488 207.14239999999998L107.5488 211.14559999999997L108.2688 211.14559999999997C108.9312 211.14559999999997,108.96 211.14559999999997,109.0464 211.17439999999996C109.2768 211.26079999999996,109.392 211.49119999999996,109.392 211.75039999999998C109.392 211.89439999999996,109.3632 212.06719999999999,109.248 212.18239999999997C109.0752 212.32639999999998,109.0464 212.32639999999998,108.2688 212.32639999999998L107.5488 212.32639999999998L107.5488 212.81599999999997C107.5776 214.28479999999996,107.8656 214.86079999999998,108.9888 215.46559999999997C109.392 215.66719999999998,109.4784 215.72479999999996,109.4784 216.01279999999997C109.4784 216.21439999999998,109.4208 216.30079999999998,109.2768 216.41599999999997L109.1904 216.44479999999996L105.2448 216.44479999999996L101.328 216.44479999999996L101.2416 216.41599999999997C101.0688 216.30079999999998,101.04 216.21439999999998,101.04 216.01279999999997C101.04 215.72479999999996,101.0688 215.66719999999998,101.5008 215.46559999999997C102.624 214.86079999999998,102.912 214.28479999999996,102.912 212.81599999999997L102.912 212.32639999999998L99.6 212.32639999999998C98.9952 212.38399999999996,98.5056 212.38399999999996,98.1024 212.38399999999996C96.288 212.38399999999996,96.2592 212.32639999999998,96.2304 212.32639999999998C96.0576 212.26879999999997,96 212.09599999999998,96 211.89439999999996C96 211.89439999999996,96 211.89439999999996,96 211.89439999999996C96 211.69279999999998,96 211.69279999999998,96.576 211.0304C98.9952 208.09279999999998,100.6944 203.83039999999997,100.6944 200.43199999999996C100.6944 199.91359999999997,100.7808 199.74079999999998,101.0112 199.65439999999998M102.7392 218.02879999999996L102.768 218.02879999999996L102.6816 218.02879999999996L102.7392 218.02879999999996M102.7392 198.61759999999998L102.768 198.61759999999998L102.6816 198.61759999999998L102.7392 198.61759999999998">
</path>
<g class="vf-stavenote" id="vf-auto85578">
<g class="vf-note" pointer-events="bounding-box">
<g class="vf-notehead" pointer-events="bounding-box">
<path stroke-width="0.3" fill="#000000" stroke="none" stroke-dasharray="none" d="M147.3424768 197.99999999999997M154.69943679999997 192.77711999999997C154.81175679999998 192.77711999999997,154.9802368 192.77711999999997,155.0083168 192.77711999999997C155.0083168 192.77711999999997,155.03639679999998 192.77711999999997,155.03639679999998 192.77711999999997C155.03639679999998 192.77711999999997,155.2048768 192.77711999999997,155.3452768 192.77711999999997C157.8724768 192.91751999999997,159.36071679999998 194.57423999999997,159.36071679999998 196.65215999999998C159.36071679999998 197.66303999999997,159.0237568 198.81431999999998,158.18135679999997 199.90943999999996C156.58079679999997 202.07159999999996,153.96935679999999 203.25095999999996,151.69487679999997 203.25095999999996C149.92583679999998 203.25095999999996,148.40951679999998 202.54895999999997,147.6794368 201.11687999999998C147.4547968 200.55527999999998,147.3424768 200.02175999999997,147.3424768 199.43207999999998C147.3424768 196.37135999999998,150.76823679999998 192.97367999999997,154.69943679999997 192.77711999999997">
</path>
</g>
</g>
<g class="vf-modifiers">
<g class="vf-stavenote" id="vf-auto85588">
<g class="vf-note" pointer-events="bounding-box">
<g class="vf-stem" pointer-events="bounding-box">
<path stroke-width="1.5" fill="none" stroke="#000000" stroke-dasharray="none" d="M128.6604384 197.99999999999997L128.6604384 174.89999999999998">
</path>
</g>
<g class="vf-notehead" pointer-events="bounding-box">
<path stroke-width="0.3" fill="#000000" stroke="none" stroke-dasharray="none" d="M121.4784 197.99999999999997M126.3339936 194.55289919999998C126.4081248 194.55289919999998,126.5193216 194.55289919999998,126.5378544 194.55289919999998C126.5378544 194.55289919999998,126.55638719999999 194.55289919999998,126.55638719999999 194.55289919999998C126.55638719999999 194.55289919999998,126.66758399999999 194.55289919999998,126.76024799999999 194.55289919999998C128.4282 194.64556319999997,129.4104384 195.73899839999996,129.4104384 197.11042559999999C129.4104384 197.77760639999997,129.1880448 198.53745119999996,128.6320608 199.26023039999998C127.5756912 200.68725599999996,125.8521408 201.46563359999996,124.350984 201.46563359999996C123.1834176 201.46563359999996,122.1826464 201.00231359999998,121.7007936 200.05714079999998C121.55253119999999 199.68648479999996,121.4784 199.33436159999997,121.4784 198.94517279999997C121.4784 196.92509759999996,123.7394016 194.68262879999997,126.3339936 194.55289919999998">
</path>
</g>
<g class="vf-flag" pointer-events="bounding-box">
<path stroke-width="0.3" fill="#000000" stroke="none" stroke-dasharray="none" d="M128.6604384 172.89999999999998M128.2156512 175.88378079999998L128.2156512 172.992664L128.2897824 172.992664C128.4936432 172.992664,128.6233728 173.12239359999998,128.6604384 173.34478719999998C129.0496272 175.19806719999997,130.2171936 177.21814239999998,131.8295472 178.73783199999997C133.6272288 180.42431679999999,134.535336 182.74091679999998,134.535336 185.13164799999998C134.535336 187.39264959999997,133.7384256 189.74631519999997,132.126072 191.69225919999997C131.84808 192.06291519999996,131.8295472 192.06291519999996,131.6442192 192.06291519999996C131.4218256 192.06291519999996,131.2735632 191.89611999999997,131.2735632 191.67372639999996C131.2735632 191.50693119999997,131.29209600000002 191.4698656,131.477424 191.2660048C132.88591680000002 189.56098719999997,133.5901632 187.5038464,133.5901632 185.5393696C133.5901632 183.7972864,133.0341792 182.12933439999998,131.88514560000002 180.86910399999996C131.1808992 180.09072639999997,129.8836032 179.34941439999997,128.234184 178.77489759999997C128.234184 178.75636479999997,128.2156512 178.18184799999997,128.2156512 175.88378079999998">
</path>
</g>
</g>
<g class="vf-modifiers">
</g>
</g>
<path stroke-width="1" fill="none" stroke="#000000" stroke-dasharray="none" d="M122.4784 189.74999999999997L135.4784 180.74999999999997Z">
</path>
</g>
</g>
<g class="vf-stavenote" id="vf-auto85602">
<g class="vf-note" pointer-events="bounding-box">
<g class="vf-notehead" pointer-events="bounding-box">
<path stroke-width="0.3" fill="#000000" stroke="none" stroke-dasharray="none" d="M183.72563839999998 197.99999999999997M191.08259839999997 192.77711999999997C191.19491839999998 192.77711999999997,191.3633984 192.77711999999997,191.39147839999998 192.77711999999997C191.39147839999998 192.77711999999997,191.41955839999997 192.77711999999997,191.41955839999997 192.77711999999997C191.41955839999997 192.77711999999997,191.5880384 192.77711999999997,191.7284384 192.77711999999997C194.25563839999998 192.91751999999997,195.74387839999997 194.57423999999997,195.74387839999997 196.65215999999998C195.74387839999997 197.66303999999997,195.4069184 198.81431999999998,194.56451839999997 199.90943999999996C192.96395839999997 202.07159999999996,190.35251839999998 203.25095999999996,188.07803839999997 203.25095999999996C186.30899839999998 203.25095999999996,184.79267839999997 202.54895999999997,184.06259839999998 201.11687999999998C183.8379584 200.55527999999998,183.72563839999998 200.02175999999997,183.72563839999998 199.43207999999998C183.72563839999998 196.37135999999998,187.15139839999998 192.97367999999997,191.08259839999997 192.77711999999997">
</path>
</g>
</g>
<g class="vf-modifiers">
</g>
</g>
<g class="vf-stavenote" id="vf-auto85612">
<g class="vf-note" pointer-events="bounding-box">
<g class="vf-notehead" pointer-events="bounding-box">
<path stroke-width="0.3" fill="#000000" stroke="none" stroke-dasharray="none" d="M245.9728768 197.99999999999997M253.32983679999998 192.77711999999997C253.4421568 192.77711999999997,253.6106368 192.77711999999997,253.6387168 192.77711999999997C253.6387168 192.77711999999997,253.6667968 192.77711999999997,253.6667968 192.77711999999997C253.6667968 192.77711999999997,253.8352768 192.77711999999997,253.9756768 192.77711999999997C256.50287679999997 192.91751999999997,257.9911168 194.57423999999997,257.9911168 196.65215999999998C257.9911168 197.66303999999997,257.6541568 198.81431999999998,256.8117568 199.90943999999996C255.21119679999998 202.07159999999996,252.5997568 203.25095999999996,250.32527679999998 203.25095999999996C248.5562368 203.25095999999996,247.0399168 202.54895999999997,246.3098368 201.11687999999998C246.0851968 200.55527999999998,245.9728768 200.02175999999997,245.9728768 199.43207999999998C245.9728768 196.37135999999998,249.3986368 192.97367999999997,253.32983679999998 192.77711999999997">
</path>
</g>
</g>
<g class="vf-modifiers">
<g class="vf-stavenote" id="vf-auto85622">
<g class="vf-note" pointer-events="bounding-box">
<g class="vf-stem" pointer-events="bounding-box">
<path stroke-width="1.5" fill="none" stroke="#000000" stroke-dasharray="none" d="M227.2908384 197.99999999999997L227.2908384 174.89999999999998">
</path>
</g>
<g class="vf-notehead" pointer-events="bounding-box">
<path stroke-width="0.3" fill="#000000" stroke="none" stroke-dasharray="none" d="M220.1088 197.99999999999997M224.9643936 194.55289919999998C225.0385248 194.55289919999998,225.1497216 194.55289919999998,225.1682544 194.55289919999998C225.1682544 194.55289919999998,225.1867872 194.55289919999998,225.1867872 194.55289919999998C225.1867872 194.55289919999998,225.297984 194.55289919999998,225.390648 194.55289919999998C227.0586 194.64556319999997,228.0408384 195.73899839999996,228.0408384 197.11042559999999C228.0408384 197.77760639999997,227.8184448 198.53745119999996,227.2624608 199.26023039999998C226.2060912 200.68725599999996,224.4825408 201.46563359999996,222.981384 201.46563359999996C221.8138176 201.46563359999996,220.8130464 201.00231359999998,220.3311936 200.05714079999998C220.1829312 199.68648479999996,220.1088 199.33436159999997,220.1088 198.94517279999997C220.1088 196.92509759999996,222.36980160000002 194.68262879999997,224.9643936 194.55289919999998">
</path>
</g>
<g class="vf-flag" pointer-events="bounding-box">
<path stroke-width="0.3" fill="#000000" stroke="none" stroke-dasharray="none" d="M227.2908384 172.89999999999998M226.8460512 175.88378079999998L226.8460512 172.992664L226.92018240000002 172.992664C227.12404320000002 172.992664,227.2537728 173.12239359999998,227.2908384 173.34478719999998C227.6800272 175.19806719999997,228.8475936 177.21814239999998,230.45994720000002 178.73783199999997C232.25762880000002 180.42431679999999,233.165736 182.74091679999998,233.165736 185.13164799999998C233.165736 187.39264959999997,232.3688256 189.74631519999997,230.756472 191.69225919999997C230.47848000000002 192.06291519999996,230.45994720000002 192.06291519999996,230.27461920000002 192.06291519999996C230.0522256 192.06291519999996,229.90396320000002 191.89611999999997,229.90396320000002 191.67372639999996C229.90396320000002 191.50693119999997,229.92249600000002 191.4698656,230.10782400000002 191.2660048C231.51631680000003 189.56098719999997,232.22056320000002 187.5038464,232.22056320000002 185.5393696C232.22056320000002 183.7972864,231.66457920000002 182.12933439999998,230.51554560000002 180.86910399999996C229.8112992 180.09072639999997,228.51400320000002 179.34941439999997,226.864584 178.77489759999997C226.864584 178.75636479999997,226.8460512 178.18184799999997,226.8460512 175.88378079999998">
</path>
</g>
</g>
<g class="vf-modifiers">
</g>
</g>
<path stroke-width="1" fill="none" stroke="#000000" stroke-dasharray="none" d="M221.1088 189.74999999999997L234.1088 180.74999999999997Z">
</path>
</g>
</g>
<g class="vf-stavenote" id="vf-auto85636">
<g class="vf-note" pointer-events="bounding-box">
<g class="vf-notehead" pointer-events="bounding-box">
<path stroke-width="0.3" fill="#000000" stroke="none" stroke-dasharray="none" d="M282.3560384 197.99999999999997M289.7129984 192.77711999999997C289.8253184 192.77711999999997,289.9937984 192.77711999999997,290.0218784 192.77711999999997C290.0218784 192.77711999999997,290.0499584 192.77711999999997,290.0499584 192.77711999999997C290.0499584 192.77711999999997,290.21843839999997 192.77711999999997,290.35883839999997 192.77711999999997C292.88603839999996 192.91751999999997,294.3742784 194.57423999999997,294.3742784 196.65215999999998C294.3742784 197.66303999999997,294.0373184 198.81431999999998,293.1949184 199.90943999999996C291.5943584 202.07159999999996,288.9829184 203.25095999999996,286.7084384 203.25095999999996C284.9393984 203.25095999999996,283.4230784 202.54895999999997,282.69299839999996 201.11687999999998C282.4683584 200.55527999999998,282.3560384 200.02175999999997,282.3560384 199.43207999999998C282.3560384 196.37135999999998,285.7817984 192.97367999999997,289.7129984 192.77711999999997">
</path>
</g>
</g>
<g class="vf-modifiers">
</g>
</g>
<g class="vf-stavenote" id="vf-auto85646">
<g class="vf-note" pointer-events="bounding-box">
<g class="vf-notehead" pointer-events="bounding-box">
<path stroke-width="0.3" fill="#000000" stroke="none" stroke-dasharray="none" d="M344.6032768 197.99999999999997M351.9602368 192.77711999999997C352.07255680000003 192.77711999999997,352.2410368 192.77711999999997,352.2691168 192.77711999999997C352.2691168 192.77711999999997,352.2971968 192.77711999999997,352.2971968 192.77711999999997C352.2971968 192.77711999999997,352.4656768 192.77711999999997,352.6060768 192.77711999999997C355.1332768 192.91751999999997,356.6215168 194.57423999999997,356.6215168 196.65215999999998C356.6215168 197.66303999999997,356.2845568 198.81431999999998,355.4421568 199.90943999999996C353.8415968 202.07159999999996,351.23015680000003 203.25095999999996,348.9556768 203.25095999999996C347.18663680000003 203.25095999999996,345.6703168 202.54895999999997,344.9402368 201.11687999999998C344.7155968 200.55527999999998,344.6032768 200.02175999999997,344.6032768 199.43207999999998C344.6032768 196.37135999999998,348.02903680000003 192.97367999999997,351.9602368 192.77711999999997">
</path>
</g>
</g>
<g class="vf-modifiers">
<g class="vf-stavenote" id="vf-auto85656">
<g class="vf-note" pointer-events="bounding-box">
<g class="vf-stem" pointer-events="bounding-box">
<path stroke-width="1.5" fill="none" stroke="#000000" stroke-dasharray="none" d="M325.9212384 197.99999999999997L325.9212384 174.89999999999998">
</path>
</g>
<g class="vf-notehead" pointer-events="bounding-box">
<path stroke-width="0.3" fill="#000000" stroke="none" stroke-dasharray="none" d="M318.7392 197.99999999999997M323.5947936 194.55289919999998C323.66892479999996 194.55289919999998,323.7801216 194.55289919999998,323.7986544 194.55289919999998C323.7986544 194.55289919999998,323.8171872 194.55289919999998,323.8171872 194.55289919999998C323.8171872 194.55289919999998,323.928384 194.55289919999998,324.021048 194.55289919999998C325.68899999999996 194.64556319999997,326.6712384 195.73899839999996,326.6712384 197.11042559999999C326.6712384 197.77760639999997,326.44884479999996 198.53745119999996,325.8928608 199.26023039999998C324.83649119999995 200.68725599999996,323.1129408 201.46563359999996,321.611784 201.46563359999996C320.4442176 201.46563359999996,319.44344639999997 201.00231359999998,318.96159359999996 200.05714079999998C318.8133312 199.68648479999996,318.7392 199.33436159999997,318.7392 198.94517279999997C318.7392 196.92509759999996,321.00020159999997 194.68262879999997,323.5947936 194.55289919999998">
</path>
</g>
<g class="vf-flag" pointer-events="bounding-box">
<path stroke-width="0.3" fill="#000000" stroke="none" stroke-dasharray="none" d="M325.9212384 172.89999999999998M325.4764512 175.88378079999998L325.4764512 172.992664L325.5505824 172.992664C325.75444319999997 172.992664,325.8841728 173.12239359999998,325.9212384 173.34478719999998C326.3104272 175.19806719999997,327.4779936 177.21814239999998,329.0903472 178.73783199999997C330.8880288 180.42431679999999,331.796136 182.74091679999998,331.796136 185.13164799999998C331.796136 187.39264959999997,330.9992256 189.74631519999997,329.386872 191.69225919999997C329.10888 192.06291519999996,329.0903472 192.06291519999996,328.90501919999997 192.06291519999996C328.6826256 192.06291519999996,328.5343632 191.89611999999997,328.5343632 191.67372639999996C328.5343632 191.50693119999997,328.552896 191.4698656,328.738224 191.2660048C330.1467168 189.56098719999997,330.85096319999997 187.5038464,330.85096319999997 185.5393696C330.85096319999997 183.7972864,330.2949792 182.12933439999998,329.1459456 180.86910399999996C328.4416992 180.09072639999997,327.1444032 179.34941439999997,325.494984 178.77489759999997C325.494984 178.75636479999997,325.4764512 178.18184799999997,325.4764512 175.88378079999998">
</path>
</g>
</g>
<g class="vf-modifiers">
</g>
</g>
<path stroke-width="1" fill="none" stroke="#000000" stroke-dasharray="none" d="M319.7392 189.74999999999997L332.7392 180.74999999999997Z">
</path>
</g>
</g>
<g class="vf-stavenote" id="vf-auto85670">
<g class="vf-note" pointer-events="bounding-box">
<g class="vf-notehead" pointer-events="bounding-box">
<path stroke-width="0.3" fill="#000000" stroke="none" stroke-dasharray="none" d="M380.9864384 197.99999999999997M388.3433984 192.77711999999997C388.4557184 192.77711999999997,388.6241984 192.77711999999997,388.6522784 192.77711999999997C388.6522784 192.77711999999997,388.6803584 192.77711999999997,388.6803584 192.77711999999997C388.6803584 192.77711999999997,388.8488384 192.77711999999997,388.9892384 192.77711999999997C391.51643839999997 192.91751999999997,393.0046784 194.57423999999997,393.0046784 196.65215999999998C393.0046784 197.66303999999997,392.6677184 198.81431999999998,391.8253184 199.90943999999996C390.2247584 202.07159999999996,387.6133184 203.25095999999996,385.3388384 203.25095999999996C383.5697984 203.25095999999996,382.0534784 202.54895999999997,381.3233984 201.11687999999998C381.0987584 200.55527999999998,380.9864384 200.02175999999997,380.9864384 199.43207999999998C380.9864384 196.37135999999998,384.4121984 192.97367999999997,388.3433984 192.77711999999997">
</path>
</g>
</g>
<g class="vf-modifiers">
</g>
</g>
<g class="vf-stavenote" id="vf-auto85680">
<g class="vf-note" pointer-events="bounding-box">
<g class="vf-notehead" pointer-events="bounding-box">
<path stroke-width="0.3" fill="#000000" stroke="none" stroke-dasharray="none" d="M443.2336768 197.99999999999997M450.5906368 192.77711999999997C450.70295680000004 192.77711999999997,450.8714368 192.77711999999997,450.8995168 192.77711999999997C450.8995168 192.77711999999997,450.9275968 192.77711999999997,450.9275968 192.77711999999997C450.9275968 192.77711999999997,451.0960768 192.77711999999997,451.2364768 192.77711999999997C453.7636768 192.91751999999997,455.2519168 194.57423999999997,455.2519168 196.65215999999998C455.2519168 197.66303999999997,454.9149568 198.81431999999998,454.07255680000003 199.90943999999996C452.4719968 202.07159999999996,449.86055680000004 203.25095999999996,447.5860768 203.25095999999996C445.81703680000004 203.25095999999996,444.30071680000003 202.54895999999997,443.5706368 201.11687999999998C443.3459968 200.55527999999998,443.2336768 200.02175999999997,443.2336768 199.43207999999998C443.2336768 196.37135999999998,446.65943680000004 192.97367999999997,450.5906368 192.77711999999997">
</path>
</g>
</g>
<g class="vf-modifiers">
<g class="vf-stavenote" id="vf-auto85690">
<g class="vf-note" pointer-events="bounding-box">
<g class="vf-stem" pointer-events="bounding-box">
<path stroke-width="1.5" fill="none" stroke="#000000" stroke-dasharray="none" d="M424.5516384 197.99999999999997L424.5516384 174.89999999999998">
</path>
</g>
<g class="vf-notehead" pointer-events="bounding-box">
<path stroke-width="0.3" fill="#000000" stroke="none" stroke-dasharray="none" d="M417.3696 197.99999999999997M422.2251936 194.55289919999998C422.29932479999997 194.55289919999998,422.4105216 194.55289919999998,422.4290544 194.55289919999998C422.4290544 194.55289919999998,422.4475872 194.55289919999998,422.4475872 194.55289919999998C422.4475872 194.55289919999998,422.558784 194.55289919999998,422.651448 194.55289919999998C424.3194 194.64556319999997,425.3016384 195.73899839999996,425.3016384 197.11042559999999C425.3016384 197.77760639999997,425.07924479999997 198.53745119999996,424.5232608 199.26023039999998C423.46689119999996 200.68725599999996,421.7433408 201.46563359999996,420.242184 201.46563359999996C419.0746176 201.46563359999996,418.0738464 201.00231359999998,417.59199359999997 200.05714079999998C417.4437312 199.68648479999996,417.3696 199.33436159999997,417.3696 198.94517279999997C417.3696 196.92509759999996,419.6306016 194.68262879999997,422.2251936 194.55289919999998">
</path>
</g>
<g class="vf-flag" pointer-events="bounding-box">
<path stroke-width="0.3" fill="#000000" stroke="none" stroke-dasharray="none" d="M424.5516384 172.89999999999998M424.1068512 175.88378079999998L424.1068512 172.992664L424.1809824 172.992664C424.3848432 172.992664,424.5145728 173.12239359999998,424.5516384 173.34478719999998C424.9408272 175.19806719999997,426.1083936 177.21814239999998,427.7207472 178.73783199999997C429.5184288 180.42431679999999,430.426536 182.74091679999998,430.426536 185.13164799999998C430.426536 187.39264959999997,429.6296256 189.74631519999997,428.017272 191.69225919999997C427.73928 192.06291519999996,427.7207472 192.06291519999996,427.5354192 192.06291519999996C427.3130256 192.06291519999996,427.1647632 191.89611999999997,427.1647632 191.67372639999996C427.1647632 191.50693119999997,427.183296 191.4698656,427.368624 191.2660048C428.7771168 189.56098719999997,429.4813632 187.5038464,429.4813632 185.5393696C429.4813632 183.7972864,428.9253792 182.12933439999998,427.7763456 180.86910399999996C427.0720992 180.09072639999997,425.7748032 179.34941439999997,424.125384 178.77489759999997C424.125384 178.75636479999997,424.1068512 178.18184799999997,424.1068512 175.88378079999998">
</path>
</g>
</g>
<g class="vf-modifiers">
</g>
</g>
<path stroke-width="1" fill="none" stroke="#000000" stroke-dasharray="none" d="M418.3696 189.74999999999997L431.3696 180.74999999999997Z">
</path>
</g>
</g>
<g class="vf-stavenote" id="vf-auto85704">
<g class="vf-note" pointer-events="bounding-box">
<g class="vf-notehead" pointer-events="bounding-box">
<path stroke-width="0.3" fill="#000000" stroke="none" stroke-dasharray="none" d="M479.6168384 197.99999999999997M486.9737984 192.77711999999997C487.08611840000003 192.77711999999997,487.2545984 192.77711999999997,487.2826784 192.77711999999997C487.2826784 192.77711999999997,487.3107584 192.77711999999997,487.3107584 192.77711999999997C487.3107584 192.77711999999997,487.4792384 192.77711999999997,487.6196384 192.77711999999997C490.1468384 192.91751999999997,491.6350784 194.57423999999997,491.6350784 196.65215999999998C491.6350784 197.66303999999997,491.2981184 198.81431999999998,490.4557184 199.90943999999996C488.8551584 202.07159999999996,486.24371840000003 203.25095999999996,483.9692384 203.25095999999996C482.20019840000003 203.25095999999996,480.6838784 202.54895999999997,479.9537984 201.11687999999998C479.7291584 200.55527999999998,479.6168384 200.02175999999997,479.6168384 199.43207999999998C479.6168384 196.37135999999998,483.04259840000003 192.97367999999997,486.9737984 192.77711999999997">
</path>
</g>
</g>
<g class="vf-modifiers">
</g>
</g>
<path stroke-width="1.5" fill="none" stroke="#000000" stroke-dasharray="none" d="M158.61071679999998 197.99999999999997L158.61071679999998 163.74999999999997">
</path>
<path stroke-width="1.5" fill="none" stroke="#000000" stroke-dasharray="none" d="M194.99387839999997 197.99999999999997L194.99387839999997 163.74999999999997">
</path>
<path stroke-width="1.5" fill="none" stroke="#000000" stroke-dasharray="none" d="M257.2411168 197.99999999999997L257.2411168 163.74999999999997">
</path>
<path stroke-width="1.5" fill="none" stroke="#000000" stroke-dasharray="none" d="M293.6242784 197.99999999999997L293.6242784 163.74999999999997">
</path>
<path stroke-width="0.3" fill="#000000" stroke="none" stroke-dasharray="none" d="M157.86071679999998 162.99999999999997L157.86071679999998 167.99999999999997L293.8742784 167.99999999999997L293.8742784 162.99999999999997Z">
</path>
<path stroke-width="0.3" fill="#000000" stroke="none" stroke-dasharray="none" d="M157.86071679999998 170.49999999999997L157.86071679999998 175.49999999999997L293.8742784 175.49999999999997L293.8742784 170.49999999999997Z">
</path>
<path stroke-width="1.5" fill="none" stroke="#000000" stroke-dasharray="none" d="M355.8715168 197.99999999999997L355.8715168 163.74999999999997">
</path>
<path stroke-width="1.5" fill="none" stroke="#000000" stroke-dasharray="none" d="M392.2546784 197.99999999999997L392.2546784 163.74999999999997">
</path>
<path stroke-width="1.5" fill="none" stroke="#000000" stroke-dasharray="none" d="M454.5019168 197.99999999999997L454.5019168 163.74999999999997">
</path>
<path stroke-width="1.5" fill="none" stroke="#000000" stroke-dasharray="none" d="M490.8850784 197.99999999999997L490.8850784 163.74999999999997">
</path>
<path stroke-width="0.3" fill="#000000" stroke="none" stroke-dasharray="none" d="M355.1215168 162.99999999999997L355.1215168 167.99999999999997L491.1350784 167.99999999999997L491.1350784 162.99999999999997Z">
</path>
<path stroke-width="0.3" fill="#000000" stroke="none" stroke-dasharray="none" d="M355.1215168 170.49999999999997L355.1215168 175.49999999999997L491.1350784 175.49999999999997L491.1350784 170.49999999999997Z">
</path>
<path stroke-width="1" fill="none" stroke="black" stroke-dasharray="none" d="M514.2250503679999 197.99999999999997L1219.14024832 197.99999999999997">
</path>
<rect stroke-width="0.3" fill="black" stroke="black" stroke-dasharray="none" x="1214.14024832" y="177.49999999999997" width="1" height="41">
</rect>
<rect stroke-width="0.3" fill="black" stroke="black" stroke-dasharray="none" x="1217.14024832" y="177.49999999999997" width="3" height="41">
</rect>
<path stroke-width="0.3" fill="black" stroke="none" stroke-dasharray="none" d="M1213.14024832 193.49999999999997 A2 2 0 0 0 1209.14024832 193.49999999999997M1209.14024832 193.49999999999997 A2 2 0 0 0 1213.14024832 193.49999999999997">
</path>
<path stroke-width="0.3" fill="black" stroke="none" stroke-dasharray="none" d="M1213.14024832 203.49999999999997 A2 2 0 0 0 1209.14024832 203.49999999999997M1209.14024832 203.49999999999997 A2 2 0 0 0 1213.14024832 203.49999999999997">
</path>
<path stroke-width="0.3" fill="black" stroke="none" stroke-dasharray="none" d="M519.2250503679999 197.99999999999997M524.2362503679999 179.65439999999998C524.2650503679998 179.62559999999996,524.6682503679999 179.62559999999996,525.9066503679999 179.62559999999996C526.2810503679999 179.62559999999996,526.6842503679999 179.62559999999996,527.2026503679999 179.62559999999996L530.1114503679999 179.62559999999996L530.1978503679999 179.71199999999996C530.3418503679999 179.79839999999996,530.4282503679999 179.94239999999996,530.4282503679999 180.05759999999998C530.4282503679999 180.23039999999997,530.3418503679999 180.34559999999996,530.2266503679999 180.46079999999998C530.1978503679999 180.54719999999998,529.9386503679999 180.77759999999998,529.7658503679999 181.03679999999997L528.2394503679999 182.79359999999997L526.2810503679999 185.01119999999997L525.2442503679998 186.19199999999998L523.6890503679999 187.97759999999997L521.6442503679999 190.31039999999996C521.2986503679999 190.74239999999998,520.9242503679999 191.08799999999997,520.9242503679999 191.08799999999997C520.9242503679999 191.08799999999997,520.9242503679999 191.08799999999997,520.9242503679999 191.08799999999997C520.9242503679999 191.14559999999997,521.1834503679999 191.14559999999997,523.5738503679999 191.14559999999997L526.1946503679999 191.14559999999997L526.1946503679999 189.27359999999996C526.1946503679999 187.37279999999998,526.1946503679999 187.34399999999997,526.2234503679998 187.31519999999998C526.2810503679999 187.22879999999998,526.5402503679999 186.91199999999998,527.5482503679999 185.73119999999997L527.9514503679999 185.29919999999998L528.3546503679999 184.86719999999997L528.9594503679999 184.08959999999996L529.5930503679999 183.42719999999997L529.9098503679999 183.02399999999997C530.0250503679998 182.85119999999998,530.1978503679999 182.82239999999996,530.3418503679999 182.82239999999996C530.5146503679998 182.82239999999996,530.6586503679998 182.90879999999999,530.7450503679999 183.05279999999996C530.7738503679999 183.13919999999996,530.7738503679999 183.19679999999997,530.7738503679999 185.32799999999997C530.7738503679999 185.81759999999997,530.7738503679999 186.42239999999998,530.7738503679999 187.14239999999998L530.7738503679999 191.14559999999997L531.4938503679998 191.14559999999997C532.1562503679999 191.14559999999997,532.1850503679999 191.14559999999997,532.2714503679998 191.17439999999996C532.5018503679999 191.26079999999996,532.6170503679999 191.49119999999996,532.6170503679999 191.75039999999998C532.6170503679999 191.89439999999996,532.5882503679999 192.06719999999999,532.4730503679999 192.18239999999997C532.3002503679999 192.32639999999998,532.2714503679998 192.32639999999998,531.4938503679998 192.32639999999998L530.7738503679999 192.32639999999998L530.7738503679999 192.81599999999997C530.8026503679998 194.28479999999996,531.0906503679998 194.86079999999998,532.2138503679998 195.46559999999997C532.6170503679999 195.66719999999998,532.7034503679998 195.72479999999996,532.7034503679998 196.01279999999997C532.7034503679998 196.21439999999998,532.6458503679999 196.30079999999998,532.5018503679999 196.41599999999997L532.4154503679998 196.44479999999996L528.4698503679999 196.44479999999996L524.5530503679998 196.44479999999996L524.4666503679998 196.41599999999997C524.2938503679999 196.30079999999998,524.2650503679998 196.21439999999998,524.2650503679998 196.01279999999997C524.2650503679998 195.72479999999996,524.2938503679999 195.66719999999998,524.7258503679999 195.46559999999997C525.8490503679999 194.86079999999998,526.1370503679999 194.28479999999996,526.1370503679999 192.81599999999997L526.1370503679999 192.32639999999998L522.8250503679999 192.32639999999998C522.2202503679998 192.38399999999996,521.7306503679998 192.38399999999996,521.3274503679999 192.38399999999996C519.5130503679999 192.38399999999996,519.4842503679998 192.32639999999998,519.4554503679999 192.32639999999998C519.2826503679998 192.26879999999997,519.2250503679999 192.09599999999998,519.2250503679999 191.89439999999996C519.2250503679999 191.89439999999996,519.2250503679999 191.89439999999996,519.2250503679999 191.89439999999996C519.2250503679999 191.69279999999998,519.2250503679999 191.69279999999998,519.8010503679999 191.0304C522.2202503679998 188.09279999999998,523.9194503679998 183.83039999999997,523.9194503679998 180.43199999999996C523.9194503679998 179.91359999999997,524.0058503679999 179.74079999999998,524.2362503679999 179.65439999999998M525.9642503679999 198.02879999999996L525.9930503679999 198.02879999999996L525.9066503679999 198.02879999999996L525.9642503679999 198.02879999999996M525.9642503679999 178.61759999999998L525.9930503679999 178.61759999999998L525.9066503679999 178.61759999999998L525.9642503679999 178.61759999999998">
</path>
<path stroke-width="0.3" fill="black" stroke="none" stroke-dasharray="none" d="M519.2250503679999 217.99999999999997M524.2362503679999 199.65439999999998C524.2650503679998 199.62559999999996,524.6682503679999 199.62559999999996,525.9066503679999 199.62559999999996C526.2810503679999 199.62559999999996,526.6842503679999 199.62559999999996,527.2026503679999 199.62559999999996L530.1114503679999 199.62559999999996L530.1978503679999 199.71199999999996C530.3418503679999 199.79839999999996,530.4282503679999 199.94239999999996,530.4282503679999 200.05759999999998C530.4282503679999 200.23039999999997,530.3418503679999 200.34559999999996,530.2266503679999 200.46079999999998C530.1978503679999 200.54719999999998,529.9386503679999 200.77759999999998,529.7658503679999 201.03679999999997L528.2394503679999 202.79359999999997L526.2810503679999 205.01119999999997L525.2442503679998 206.19199999999998L523.6890503679999 207.97759999999997L521.6442503679999 210.31039999999996C521.2986503679999 210.74239999999998,520.9242503679999 211.08799999999997,520.9242503679999 211.08799999999997C520.9242503679999 211.08799999999997,520.9242503679999 211.08799999999997,520.9242503679999 211.08799999999997C520.9242503679999 211.14559999999997,521.1834503679999 211.14559999999997,523.5738503679999 211.14559999999997L526.1946503679999 211.14559999999997L526.1946503679999 209.27359999999996C526.1946503679999 207.37279999999998,526.1946503679999 207.34399999999997,526.2234503679998 207.31519999999998C526.2810503679999 207.22879999999998,526.5402503679999 206.91199999999998,527.5482503679999 205.73119999999997L527.9514503679999 205.29919999999998L528.3546503679999 204.86719999999997L528.9594503679999 204.08959999999996L529.5930503679999 203.42719999999997L529.9098503679999 203.02399999999997C530.0250503679998 202.85119999999998,530.1978503679999 202.82239999999996,530.3418503679999 202.82239999999996C530.5146503679998 202.82239999999996,530.6586503679998 202.90879999999999,530.7450503679999 203.05279999999996C530.7738503679999 203.13919999999996,530.7738503679999 203.19679999999997,530.7738503679999 205.32799999999997C530.7738503679999 205.81759999999997,530.7738503679999 206.42239999999998,530.7738503679999 207.14239999999998L530.7738503679999 211.14559999999997L531.4938503679998 211.14559999999997C532.1562503679999 211.14559999999997,532.1850503679999 211.14559999999997,532.2714503679998 211.17439999999996C532.5018503679999 211.26079999999996,532.6170503679999 211.49119999999996,532.6170503679999 211.75039999999998C532.6170503679999 211.89439999999996,532.5882503679999 212.06719999999999,532.4730503679999 212.18239999999997C532.3002503679999 212.32639999999998,532.2714503679998 212.32639999999998,531.4938503679998 212.32639999999998L530.7738503679999 212.32639999999998L530.7738503679999 212.81599999999997C530.8026503679998 214.28479999999996,531.0906503679998 214.86079999999998,532.2138503679998 215.46559999999997C532.6170503679999 215.66719999999998,532.7034503679998 215.72479999999996,532.7034503679998 216.01279999999997C532.7034503679998 216.21439999999998,532.6458503679999 216.30079999999998,532.5018503679999 216.41599999999997L532.4154503679998 216.44479999999996L528.4698503679999 216.44479999999996L524.5530503679998 216.44479999999996L524.4666503679998 216.41599999999997C524.2938503679999 216.30079999999998,524.2650503679998 216.21439999999998,524.2650503679998 216.01279999999997C524.2650503679998 215.72479999999996,524.2938503679999 215.66719999999998,524.7258503679999 215.46559999999997C525.8490503679999 214.86079999999998,526.1370503679999 214.28479999999996,526.1370503679999 212.81599999999997L526.1370503679999 212.32639999999998L522.8250503679999 212.32639999999998C522.2202503679998 212.38399999999996,521.7306503679998 212.38399999999996,521.3274503679999 212.38399999999996C519.5130503679999 212.38399999999996,519.4842503679998 212.32639999999998,519.4554503679999 212.32639999999998C519.2826503679998 212.26879999999997,519.2250503679999 212.09599999999998,519.2250503679999 211.89439999999996C519.2250503679999 211.89439999999996,519.2250503679999 211.89439999999996,519.2250503679999 211.89439999999996C519.2250503679999 211.69279999999998,519.2250503679999 211.69279999999998,519.8010503679999 211.0304C522.2202503679998 208.09279999999998,523.9194503679998 203.83039999999997,523.9194503679998 200.43199999999996C523.9194503679998 199.91359999999997,524.0058503679999 199.74079999999998,524.2362503679999 199.65439999999998M525.9642503679999 218.02879999999996L525.9930503679999 218.02879999999996L525.9066503679999 218.02879999999996L525.9642503679999 218.02879999999996M525.9642503679999 198.61759999999998L525.9930503679999 198.61759999999998L525.9066503679999 198.61759999999998L525.9642503679999 198.61759999999998">
</path>
<g class="vf-stavenote" id="vf-auto85717">
<g class="vf-note" pointer-events="bounding-box">
<g class="vf-notehead" pointer-events="bounding-box">
<path stroke-width="0.3" fill="#000000" stroke="none" stroke-dasharray="none" d="M570.5675271679999 197.99999999999997M577.9244871679998 192.77711999999997C578.0368071679999 192.77711999999997,578.2052871679998 192.77711999999997,578.2333671679999 192.77711999999997C578.2333671679999 192.77711999999997,578.2614471679999 192.77711999999997,578.2614471679999 192.77711999999997C578.2614471679999 192.77711999999997,578.4299271679998 192.77711999999997,578.5703271679998 192.77711999999997C581.0975271679998 192.91751999999997,582.5857671679998 194.57423999999997,582.5857671679998 196.65215999999998C582.5857671679998 197.66303999999997,582.2488071679999 198.81431999999998,581.4064071679999 199.90943999999996C579.8058471679999 202.07159999999996,577.1944071679999 203.25095999999996,574.9199271679998 203.25095999999996C573.1508871679998 203.25095999999996,571.6345671679999 202.54895999999997,570.9044871679998 201.11687999999998C570.6798471679998 200.55527999999998,570.5675271679999 200.02175999999997,570.5675271679999 199.43207999999998C570.5675271679999 196.37135999999998,573.9932871679998 192.97367999999997,577.9244871679998 192.77711999999997">
</path>
</g>
</g>
<g class="vf-modifiers">
<g class="vf-stavenote" id="vf-auto85727">
<g class="vf-note" pointer-events="bounding-box">
<g class="vf-stem" pointer-events="bounding-box">
<path stroke-width="1.5" fill="none" stroke="#000000" stroke-dasharray="none" d="M551.8854887679998 197.99999999999997L551.8854887679998 174.89999999999998">
</path>
</g>
<g class="vf-notehead" pointer-events="bounding-box">
<path stroke-width="0.3" fill="#000000" stroke="none" stroke-dasharray="none" d="M544.7034503679998 197.99999999999997M549.5590439679999 194.55289919999998C549.6331751679999 194.55289919999998,549.7443719679999 194.55289919999998,549.7629047679999 194.55289919999998C549.7629047679999 194.55289919999998,549.7814375679999 194.55289919999998,549.7814375679999 194.55289919999998C549.7814375679999 194.55289919999998,549.8926343679998 194.55289919999998,549.9852983679998 194.55289919999998C551.6532503679998 194.64556319999997,552.6354887679998 195.73899839999996,552.6354887679998 197.11042559999999C552.6354887679998 197.77760639999997,552.4130951679998 198.53745119999996,551.8571111679998 199.26023039999998C550.8007415679998 200.68725599999996,549.0771911679998 201.46563359999996,547.5760343679998 201.46563359999996C546.4084679679999 201.46563359999996,545.4076967679998 201.00231359999998,544.9258439679999 200.05714079999998C544.7775815679998 199.68648479999996,544.7034503679998 199.33436159999997,544.7034503679998 198.94517279999997C544.7034503679998 196.92509759999996,546.9644519679998 194.68262879999997,549.5590439679999 194.55289919999998">
</path>
</g>
<g class="vf-flag" pointer-events="bounding-box">
<path stroke-width="0.3" fill="#000000" stroke="none" stroke-dasharray="none" d="M551.8854887679998 172.89999999999998M551.4407015679999 175.88378079999998L551.4407015679999 172.992664L551.5148327679998 172.992664C551.7186935679998 172.992664,551.8484231679998 173.12239359999998,551.8854887679998 173.34478719999998C552.2746775679999 175.19806719999997,553.4422439679998 177.21814239999998,555.0545975679998 178.73783199999997C556.8522791679999 180.42431679999999,557.7603863679999 182.74091679999998,557.7603863679999 185.13164799999998C557.7603863679999 187.39264959999997,556.9634759679999 189.74631519999997,555.3511223679999 191.69225919999997C555.0731303679999 192.06291519999996,555.0545975679998 192.06291519999996,554.8692695679998 192.06291519999996C554.6468759679998 192.06291519999996,554.4986135679999 191.89611999999997,554.4986135679999 191.67372639999996C554.4986135679999 191.50693119999997,554.5171463679999 191.4698656,554.7024743679998 191.2660048C556.1109671679999 189.56098719999997,556.8152135679999 187.5038464,556.8152135679999 185.5393696C556.8152135679999 183.7972864,556.2592295679998 182.12933439999998,555.1101959679999 180.86910399999996C554.4059495679999 180.09072639999997,553.1086535679998 179.34941439999997,551.4592343679999 178.77489759999997C551.4592343679999 178.75636479999997,551.4407015679999 178.18184799999997,551.4407015679999 175.88378079999998">
</path>
</g>
</g>
<g class="vf-modifiers">
</g>
</g>
<path stroke-width="1" fill="none" stroke="#000000" stroke-dasharray="none" d="M545.7034503679998 189.74999999999997L558.7034503679998 180.74999999999997Z">
</path>
</g>
</g>
<g class="vf-stavenote" id="vf-auto85741">
<g class="vf-note" pointer-events="bounding-box">
<g class="vf-notehead" pointer-events="bounding-box">
<path stroke-width="0.3" fill="#000000" stroke="none" stroke-dasharray="none" d="M603.0885983679998 197.99999999999997M610.4455583679998 192.77711999999997C610.5578783679998 192.77711999999997,610.7263583679998 192.77711999999997,610.7544383679998 192.77711999999997C610.7544383679998 192.77711999999997,610.7825183679998 192.77711999999997,610.7825183679998 192.77711999999997C610.7825183679998 192.77711999999997,610.9509983679998 192.77711999999997,611.0913983679998 192.77711999999997C613.6185983679998 192.91751999999997,615.1068383679998 194.57423999999997,615.1068383679998 196.65215999999998C615.1068383679998 197.66303999999997,614.7698783679998 198.81431999999998,613.9274783679998 199.90943999999996C612.3269183679998 202.07159999999996,609.7154783679998 203.25095999999996,607.4409983679998 203.25095999999996C605.6719583679998 203.25095999999996,604.1556383679998 202.54895999999997,603.4255583679998 201.11687999999998C603.2009183679997 200.55527999999998,603.0885983679998 200.02175999999997,603.0885983679998 199.43207999999998C603.0885983679998 196.37135999999998,606.5143583679998 192.97367999999997,610.4455583679998 192.77711999999997">
</path>
</g>
</g>
<g class="vf-modifiers">
</g>
</g>
<g class="vf-stavenote" id="vf-auto85751">
<g class="vf-note" pointer-events="bounding-box">
<g class="vf-notehead" pointer-events="bounding-box">
<path stroke-width="0.3" fill="#000000" stroke="none" stroke-dasharray="none" d="M635.6096695679998 197.99999999999997M642.9666295679998 192.77711999999997C643.0789495679999 192.77711999999997,643.2474295679998 192.77711999999997,643.2755095679998 192.77711999999997C643.2755095679998 192.77711999999997,643.3035895679999 192.77711999999997,643.3035895679999 192.77711999999997C643.3035895679999 192.77711999999997,643.4720695679998 192.77711999999997,643.6124695679998 192.77711999999997C646.1396695679998 192.91751999999997,647.6279095679998 194.57423999999997,647.6279095679998 196.65215999999998C647.6279095679998 197.66303999999997,647.2909495679999 198.81431999999998,646.4485495679999 199.90943999999996C644.8479895679999 202.07159999999996,642.2365495679999 203.25095999999996,639.9620695679998 203.25095999999996C638.1930295679998 203.25095999999996,636.6767095679999 202.54895999999997,635.9466295679998 201.11687999999998C635.7219895679998 200.55527999999998,635.6096695679998 200.02175999999997,635.6096695679998 199.43207999999998C635.6096695679998 196.37135999999998,639.0354295679998 192.97367999999997,642.9666295679998 192.77711999999997">
</path>
</g>
</g>
<g class="vf-modifiers">
</g>
</g>
<g class="vf-stavenote" id="vf-auto85761">
<g class="vf-note" pointer-events="bounding-box">
<g class="vf-notehead" pointer-events="bounding-box">
<path stroke-width="0.3" fill="#000000" stroke="none" stroke-dasharray="none" d="M668.1307407679999 197.99999999999997M675.4877007679999 192.77711999999997C675.6000207679999 192.77711999999997,675.7685007679999 192.77711999999997,675.7965807679999 192.77711999999997C675.7965807679999 192.77711999999997,675.824660768 192.77711999999997,675.824660768 192.77711999999997C675.824660768 192.77711999999997,675.9931407679999 192.77711999999997,676.1335407679999 192.77711999999997C678.6607407679999 192.91751999999997,680.1489807679999 194.57423999999997,680.1489807679999 196.65215999999998C680.1489807679999 197.66303999999997,679.8120207679999 198.81431999999998,678.9696207679999 199.90943999999996C677.3690607679999 202.07159999999996,674.7576207679999 203.25095999999996,672.4831407679999 203.25095999999996C670.7141007679999 203.25095999999996,669.1977807679999 202.54895999999997,668.4677007679999 201.11687999999998C668.2430607679999 200.55527999999998,668.1307407679999 200.02175999999997,668.1307407679999 199.43207999999998C668.1307407679999 196.37135999999998,671.5565007679999 192.97367999999997,675.4877007679999 192.77711999999997">
</path>
</g>
</g>
<g class="vf-modifiers">
</g>
</g>
<g class="vf-stavenote" id="vf-auto85771">
<g class="vf-note" pointer-events="bounding-box">
<g class="vf-notehead" pointer-events="bounding-box">
<path stroke-width="0.3" fill="#000000" stroke="none" stroke-dasharray="none" d="M726.5158887679999 197.99999999999997M733.8728487679998 192.77711999999997C733.9851687679999 192.77711999999997,734.1536487679998 192.77711999999997,734.1817287679999 192.77711999999997C734.1817287679999 192.77711999999997,734.2098087679999 192.77711999999997,734.2098087679999 192.77711999999997C734.2098087679999 192.77711999999997,734.3782887679998 192.77711999999997,734.5186887679998 192.77711999999997C737.0458887679998 192.91751999999997,738.5341287679998 194.57423999999997,738.5341287679998 196.65215999999998C738.5341287679998 197.66303999999997,738.1971687679999 198.81431999999998,737.3547687679999 199.90943999999996C735.7542087679999 202.07159999999996,733.1427687679999 203.25095999999996,730.8682887679998 203.25095999999996C729.0992487679998 203.25095999999996,727.5829287679999 202.54895999999997,726.8528487679998 201.11687999999998C726.6282087679998 200.55527999999998,726.5158887679999 200.02175999999997,726.5158887679999 199.43207999999998C726.5158887679999 196.37135999999998,729.9416487679998 192.97367999999997,733.8728487679998 192.77711999999997">
</path>
</g>
</g>
<g class="vf-modifiers">
<g class="vf-stavenote" id="vf-auto85781">
<g class="vf-note" pointer-events="bounding-box">
<g class="vf-stem" pointer-events="bounding-box">
<path stroke-width="1.5" fill="none" stroke="#000000" stroke-dasharray="none" d="M707.8338503679998 197.99999999999997L707.8338503679998 174.89999999999998">
</path>
</g>
<g class="vf-notehead" pointer-events="bounding-box">
<path stroke-width="0.3" fill="#000000" stroke="none" stroke-dasharray="none" d="M700.6518119679998 197.99999999999997M705.5074055679999 194.55289919999998C705.5815367679999 194.55289919999998,705.6927335679999 194.55289919999998,705.7112663679999 194.55289919999998C705.7112663679999 194.55289919999998,705.7297991679999 194.55289919999998,705.7297991679999 194.55289919999998C705.7297991679999 194.55289919999998,705.8409959679998 194.55289919999998,705.9336599679998 194.55289919999998C707.6016119679998 194.64556319999997,708.5838503679998 195.73899839999996,708.5838503679998 197.11042559999999C708.5838503679998 197.77760639999997,708.3614567679998 198.53745119999996,707.8054727679998 199.26023039999998C706.7491031679998 200.68725599999996,705.0255527679998 201.46563359999996,703.5243959679998 201.46563359999996C702.3568295679999 201.46563359999996,701.3560583679998 201.00231359999998,700.8742055679999 200.05714079999998C700.7259431679998 199.68648479999996,700.6518119679998 199.33436159999997,700.6518119679998 198.94517279999997C700.6518119679998 196.92509759999996,702.9128135679998 194.68262879999997,705.5074055679999 194.55289919999998">
</path>
</g>
<g class="vf-flag" pointer-events="bounding-box">
<path stroke-width="0.3" fill="#000000" stroke="none" stroke-dasharray="none" d="M707.8338503679998 172.89999999999998M707.3890631679999 175.88378079999998L707.3890631679999 172.992664L707.4631943679998 172.992664C707.6670551679998 172.992664,707.7967847679998 173.12239359999998,707.8338503679998 173.34478719999998C708.2230391679999 175.19806719999997,709.3906055679998 177.21814239999998,711.0029591679998 178.73783199999997C712.8006407679999 180.42431679999999,713.7087479679999 182.74091679999998,713.7087479679999 185.13164799999998C713.7087479679999 187.39264959999997,712.9118375679999 189.74631519999997,711.2994839679999 191.69225919999997C711.0214919679999 192.06291519999996,711.0029591679998 192.06291519999996,710.8176311679998 192.06291519999996C710.5952375679998 192.06291519999996,710.4469751679999 191.89611999999997,710.4469751679999 191.67372639999996C710.4469751679999 191.50693119999997,710.4655079679999 191.4698656,710.6508359679998 191.2660048C712.0593287679999 189.56098719999997,712.7635751679999 187.5038464,712.7635751679999 185.5393696C712.7635751679999 183.7972864,712.2075911679998 182.12933439999998,711.0585575679999 180.86910399999996C710.3543111679999 180.09072639999997,709.0570151679998 179.34941439999997,707.4075959679999 178.77489759999997C707.4075959679999 178.75636479999997,707.3890631679999 178.18184799999997,707.3890631679999 175.88378079999998">
</path>
</g>
</g>
<g class="vf-modifiers">
</g>
</g>
<path stroke-width="1" fill="none" stroke="#000000" stroke-dasharray="none" d="M701.6518119679998 189.74999999999997L714.6518119679998 180.74999999999997Z">
</path>
</g>
</g>
<g class="vf-stavenote" id="vf-auto85795">
<g class="vf-note" pointer-events="bounding-box">
<g class="vf-notehead" pointer-events="bounding-box">
<path stroke-width="0.3" fill="#000000" stroke="none" stroke-dasharray="none" d="M759.0369599679998 197.99999999999997M766.3939199679998 192.77711999999997C766.5062399679998 192.77711999999997,766.6747199679997 192.77711999999997,766.7027999679998 192.77711999999997C766.7027999679998 192.77711999999997,766.7308799679998 192.77711999999997,766.7308799679998 192.77711999999997C766.7308799679998 192.77711999999997,766.8993599679998 192.77711999999997,767.0397599679998 192.77711999999997C769.5669599679998 192.91751999999997,771.0551999679998 194.57423999999997,771.0551999679998 196.65215999999998C771.0551999679998 197.66303999999997,770.7182399679998 198.81431999999998,769.8758399679998 199.90943999999996C768.2752799679998 202.07159999999996,765.6638399679998 203.25095999999996,763.3893599679998 203.25095999999996C761.6203199679998 203.25095999999996,760.1039999679998 202.54895999999997,759.3739199679998 201.11687999999998C759.1492799679997 200.55527999999998,759.0369599679998 200.02175999999997,759.0369599679998 199.43207999999998C759.0369599679998 196.37135999999998,762.4627199679998 192.97367999999997,766.3939199679998 192.77711999999997">
</path>
</g>
</g>
<g class="vf-modifiers">
</g>
</g>
<g class="vf-stavenote" id="vf-auto85805">
<g class="vf-note" pointer-events="bounding-box">
<g class="vf-notehead" pointer-events="bounding-box">
<path stroke-width="0.3" fill="#000000" stroke="none" stroke-dasharray="none" d="M791.5580311679998 197.99999999999997M798.9149911679998 192.77711999999997C799.0273111679999 192.77711999999997,799.1957911679998 192.77711999999997,799.2238711679998 192.77711999999997C799.2238711679998 192.77711999999997,799.2519511679999 192.77711999999997,799.2519511679999 192.77711999999997C799.2519511679999 192.77711999999997,799.4204311679998 192.77711999999997,799.5608311679998 192.77711999999997C802.0880311679998 192.91751999999997,803.5762711679998 194.57423999999997,803.5762711679998 196.65215999999998C803.5762711679998 197.66303999999997,803.2393111679999 198.81431999999998,802.3969111679999 199.90943999999996C800.7963511679999 202.07159999999996,798.1849111679999 203.25095999999996,795.9104311679998 203.25095999999996C794.1413911679998 203.25095999999996,792.6250711679999 202.54895999999997,791.8949911679998 201.11687999999998C791.6703511679998 200.55527999999998,791.5580311679998 200.02175999999997,791.5580311679998 199.43207999999998C791.5580311679998 196.37135999999998,794.9837911679998 192.97367999999997,798.9149911679998 192.77711999999997">
</path>
</g>
</g>
<g class="vf-modifiers">
</g>
</g>
<g class="vf-stavenote" id="vf-auto85815">
<g class="vf-note" pointer-events="bounding-box">
<g class="vf-notehead" pointer-events="bounding-box">
<path stroke-width="0.3" fill="#000000" stroke="none" stroke-dasharray="none" d="M824.0791023679999 197.99999999999997M831.4360623679999 192.77711999999997C831.5483823679999 192.77711999999997,831.7168623679999 192.77711999999997,831.7449423679999 192.77711999999997C831.7449423679999 192.77711999999997,831.7730223679999 192.77711999999997,831.7730223679999 192.77711999999997C831.7730223679999 192.77711999999997,831.9415023679999 192.77711999999997,832.0819023679999 192.77711999999997C834.6091023679999 192.91751999999997,836.0973423679999 194.57423999999997,836.0973423679999 196.65215999999998C836.0973423679999 197.66303999999997,835.7603823679999 198.81431999999998,834.9179823679999 199.90943999999996C833.3174223679999 202.07159999999996,830.7059823679999 203.25095999999996,828.4315023679999 203.25095999999996C826.6624623679999 203.25095999999996,825.1461423679999 202.54895999999997,824.4160623679999 201.11687999999998C824.1914223679998 200.55527999999998,824.0791023679999 200.02175999999997,824.0791023679999 199.43207999999998C824.0791023679999 196.37135999999998,827.5048623679999 192.97367999999997,831.4360623679999 192.77711999999997">
</path>
</g>
</g>
<g class="vf-modifiers">
</g>
</g>
<g class="vf-stavenote" id="vf-auto85825">
<g class="vf-note" pointer-events="bounding-box">
<g class="vf-notehead" pointer-events="bounding-box">
<path stroke-width="0.3" fill="#000000" stroke="none" stroke-dasharray="none" d="M882.4642503679997 197.99999999999997M889.8212103679997 192.77711999999997C889.9335303679998 192.77711999999997,890.1020103679997 192.77711999999997,890.1300903679997 192.77711999999997C890.1300903679997 192.77711999999997,890.1581703679998 192.77711999999997,890.1581703679998 192.77711999999997C890.1581703679998 192.77711999999997,890.3266503679997 192.77711999999997,890.4670503679997 192.77711999999997C892.9942503679997 192.91751999999997,894.4824903679997 194.57423999999997,894.4824903679997 196.65215999999998C894.4824903679997 197.66303999999997,894.1455303679998 198.81431999999998,893.3031303679998 199.90943999999996C891.7025703679998 202.07159999999996,889.0911303679998 203.25095999999996,886.8166503679997 203.25095999999996C885.0476103679997 203.25095999999996,883.5312903679998 202.54895999999997,882.8012103679997 201.11687999999998C882.5765703679997 200.55527999999998,882.4642503679997 200.02175999999997,882.4642503679997 199.43207999999998C882.4642503679997 196.37135999999998,885.8900103679997 192.97367999999997,889.8212103679997 192.77711999999997">
</path>
</g>
</g>
<g class="vf-modifiers">
<g class="vf-stavenote" id="vf-auto85835">
<g class="vf-note" pointer-events="bounding-box">
<g class="vf-stem" pointer-events="bounding-box">
<path stroke-width="1.5" fill="none" stroke="#000000" stroke-dasharray="none" d="M863.7822119679997 197.99999999999997L863.7822119679997 174.89999999999998">
</path>
</g>
<g class="vf-notehead" pointer-events="bounding-box">
<path stroke-width="0.3" fill="#000000" stroke="none" stroke-dasharray="none" d="M856.6001735679997 197.99999999999997M861.4557671679997 194.55289919999998C861.5298983679997 194.55289919999998,861.6410951679998 194.55289919999998,861.6596279679998 194.55289919999998C861.6596279679998 194.55289919999998,861.6781607679998 194.55289919999998,861.6781607679998 194.55289919999998C861.6781607679998 194.55289919999998,861.7893575679997 194.55289919999998,861.8820215679997 194.55289919999998C863.5499735679997 194.64556319999997,864.5322119679997 195.73899839999996,864.5322119679997 197.11042559999999C864.5322119679997 197.77760639999997,864.3098183679997 198.53745119999996,863.7538343679997 199.26023039999998C862.6974647679997 200.68725599999996,860.9739143679997 201.46563359999996,859.4727575679997 201.46563359999996C858.3051911679997 201.46563359999996,857.3044199679997 201.00231359999998,856.8225671679998 200.05714079999998C856.6743047679997 199.68648479999996,856.6001735679997 199.33436159999997,856.6001735679997 198.94517279999997C856.6001735679997 196.92509759999996,858.8611751679997 194.68262879999997,861.4557671679997 194.55289919999998">
</path>
</g>
<g class="vf-flag" pointer-events="bounding-box">
<path stroke-width="0.3" fill="#000000" stroke="none" stroke-dasharray="none" d="M863.7822119679997 172.89999999999998M863.3374247679998 175.88378079999998L863.3374247679998 172.992664L863.4115559679997 172.992664C863.6154167679997 172.992664,863.7451463679997 173.12239359999998,863.7822119679997 173.34478719999998C864.1714007679998 175.19806719999997,865.3389671679997 177.21814239999998,866.9513207679997 178.73783199999997C868.7490023679998 180.42431679999999,869.6571095679998 182.74091679999998,869.6571095679998 185.13164799999998C869.6571095679998 187.39264959999997,868.8601991679998 189.74631519999997,867.2478455679998 191.69225919999997C866.9698535679997 192.06291519999996,866.9513207679997 192.06291519999996,866.7659927679997 192.06291519999996C866.5435991679997 192.06291519999996,866.3953367679998 191.89611999999997,866.3953367679998 191.67372639999996C866.3953367679998 191.50693119999997,866.4138695679998 191.4698656,866.5991975679997 191.2660048C868.0076903679998 189.56098719999997,868.7119367679998 187.5038464,868.7119367679998 185.5393696C868.7119367679998 183.7972864,868.1559527679997 182.12933439999998,867.0069191679997 180.86910399999996C866.3026727679998 180.09072639999997,865.0053767679997 179.34941439999997,863.3559575679998 178.77489759999997C863.3559575679998 178.75636479999997,863.3374247679998 178.18184799999997,863.3374247679998 175.88378079999998">
</path>
</g>
</g>
<g class="vf-modifiers">
</g>
</g>
<path stroke-width="1" fill="none" stroke="#000000" stroke-dasharray="none" d="M857.6001735679997 189.74999999999997L870.6001735679997 180.74999999999997Z">
</path>
</g>
</g>
<g class="vf-stavenote" id="vf-auto85849">
<g class="vf-note" pointer-events="bounding-box">
<g class="vf-notehead" pointer-events="bounding-box">
<path stroke-width="0.3" fill="#000000" stroke="none" stroke-dasharray="none" d="M914.9853215679998 197.99999999999997M922.3422815679997 192.77711999999997C922.4546015679998 192.77711999999997,922.6230815679997 192.77711999999997,922.6511615679998 192.77711999999997C922.6511615679998 192.77711999999997,922.6792415679998 192.77711999999997,922.6792415679998 192.77711999999997C922.6792415679998 192.77711999999997,922.8477215679998 192.77711999999997,922.9881215679998 192.77711999999997C925.5153215679998 192.91751999999997,927.0035615679998 194.57423999999997,927.0035615679998 196.65215999999998C927.0035615679998 197.66303999999997,926.6666015679998 198.81431999999998,925.8242015679998 199.90943999999996C924.2236415679998 202.07159999999996,921.6122015679998 203.25095999999996,919.3377215679998 203.25095999999996C917.5686815679998 203.25095999999996,916.0523615679998 202.54895999999997,915.3222815679998 201.11687999999998C915.0976415679997 200.55527999999998,914.9853215679998 200.02175999999997,914.9853215679998 199.43207999999998C914.9853215679998 196.37135999999998,918.4110815679998 192.97367999999997,922.3422815679997 192.77711999999997">
</path>
</g>
</g>
<g class="vf-modifiers">
</g>
</g>
<g class="vf-stavenote" id="vf-auto85859">
<g class="vf-note" pointer-events="bounding-box">
<g class="vf-notehead" pointer-events="bounding-box">
<path stroke-width="0.3" fill="#000000" stroke="none" stroke-dasharray="none" d="M973.3704695679999 197.99999999999997M980.7274295679998 192.77711999999997C980.8397495679999 192.77711999999997,981.0082295679998 192.77711999999997,981.0363095679999 192.77711999999997C981.0363095679999 192.77711999999997,981.0643895679999 192.77711999999997,981.0643895679999 192.77711999999997C981.0643895679999 192.77711999999997,981.2328695679998 192.77711999999997,981.3732695679998 192.77711999999997C983.9004695679998 192.91751999999997,985.3887095679999 194.57423999999997,985.3887095679999 196.65215999999998C985.3887095679999 197.66303999999997,985.0517495679999 198.81431999999998,984.2093495679999 199.90943999999996C982.6087895679999 202.07159999999996,979.9973495679999 203.25095999999996,977.7228695679999 203.25095999999996C975.9538295679998 203.25095999999996,974.4375095679999 202.54895999999997,973.7074295679998 201.11687999999998C973.4827895679998 200.55527999999998,973.3704695679999 200.02175999999997,973.3704695679999 199.43207999999998C973.3704695679999 196.37135999999998,976.7962295679998 192.97367999999997,980.7274295679998 192.77711999999997">
</path>
</g>
</g>
<g class="vf-modifiers">
<g class="vf-stavenote" id="vf-auto85869">
<g class="vf-note" pointer-events="bounding-box">
<g class="vf-stem" pointer-events="bounding-box">
<path stroke-width="1.5" fill="none" stroke="#000000" stroke-dasharray="none" d="M954.6884311679999 197.99999999999997L954.6884311679999 174.89999999999998">
</path>
</g>
<g class="vf-notehead" pointer-events="bounding-box">
<path stroke-width="0.3" fill="#000000" stroke="none" stroke-dasharray="none" d="M947.5063927679998 197.99999999999997M952.3619863679999 194.55289919999998C952.4361175679999 194.55289919999998,952.5473143679999 194.55289919999998,952.5658471679999 194.55289919999998C952.5658471679999 194.55289919999998,952.5843799679999 194.55289919999998,952.5843799679999 194.55289919999998C952.5843799679999 194.55289919999998,952.6955767679998 194.55289919999998,952.7882407679998 194.55289919999998C954.4561927679998 194.64556319999997,955.4384311679999 195.73899839999996,955.4384311679999 197.11042559999999C955.4384311679999 197.77760639999997,955.2160375679998 198.53745119999996,954.6600535679999 199.26023039999998C953.6036839679998 200.68725599999996,951.8801335679998 201.46563359999996,950.3789767679998 201.46563359999996C949.2114103679999 201.46563359999996,948.2106391679998 201.00231359999998,947.7287863679999 200.05714079999998C947.5805239679999 199.68648479999996,947.5063927679998 199.33436159999997,947.5063927679998 198.94517279999997C947.5063927679998 196.92509759999996,949.7673943679998 194.68262879999997,952.3619863679999 194.55289919999998">
</path>
</g>
<g class="vf-flag" pointer-events="bounding-box">
<path stroke-width="0.3" fill="#000000" stroke="none" stroke-dasharray="none" d="M954.6884311679999 172.89999999999998M954.2436439679999 175.88378079999998L954.2436439679999 172.992664L954.3177751679998 172.992664C954.5216359679998 172.992664,954.6513655679998 173.12239359999998,954.6884311679999 173.34478719999998C955.0776199679999 175.19806719999997,956.2451863679998 177.21814239999998,957.8575399679999 178.73783199999997C959.6552215679999 180.42431679999999,960.5633287679999 182.74091679999998,960.5633287679999 185.13164799999998C960.5633287679999 187.39264959999997,959.7664183679999 189.74631519999997,958.1540647679999 191.69225919999997C957.8760727679999 192.06291519999996,957.8575399679999 192.06291519999996,957.6722119679998 192.06291519999996C957.4498183679998 192.06291519999996,957.3015559679999 191.89611999999997,957.3015559679999 191.67372639999996C957.3015559679999 191.50693119999997,957.3200887679999 191.4698656,957.5054167679998 191.2660048C958.9139095679999 189.56098719999997,959.6181559679999 187.5038464,959.6181559679999 185.5393696C959.6181559679999 183.7972864,959.0621719679998 182.12933439999998,957.9131383679999 180.86910399999996C957.2088919679999 180.09072639999997,955.9115959679998 179.34941439999997,954.2621767679999 178.77489759999997C954.2621767679999 178.75636479999997,954.2436439679999 178.18184799999997,954.2436439679999 175.88378079999998">
</path>
</g>
</g>
<g class="vf-modifiers">
</g>
</g>
<path stroke-width="1" fill="none" stroke="#000000" stroke-dasharray="none" d="M948.5063927679998 189.74999999999997L961.5063927679998 180.74999999999997Z">
</path>
</g>
</g>
<g class="vf-stavenote" id="vf-auto85883">
<g class="vf-note" pointer-events="bounding-box">
<g class="vf-notehead" pointer-events="bounding-box">
<path stroke-width="0.3" fill="#000000" stroke="none" stroke-dasharray="none" d="M1005.8915407679998 197.99999999999997M1013.2485007679998 192.77711999999997C1013.3608207679998 192.77711999999997,1013.5293007679998 192.77711999999997,1013.5573807679998 192.77711999999997C1013.5573807679998 192.77711999999997,1013.5854607679998 192.77711999999997,1013.5854607679998 192.77711999999997C1013.5854607679998 192.77711999999997,1013.7539407679998 192.77711999999997,1013.8943407679998 192.77711999999997C1016.4215407679998 192.91751999999997,1017.9097807679998 194.57423999999997,1017.9097807679998 196.65215999999998C1017.9097807679998 197.66303999999997,1017.5728207679998 198.81431999999998,1016.7304207679998 199.90943999999996C1015.1298607679998 202.07159999999996,1012.5184207679998 203.25095999999996,1010.2439407679998 203.25095999999996C1008.4749007679998 203.25095999999996,1006.9585807679998 202.54895999999997,1006.2285007679998 201.11687999999998C1006.0038607679998 200.55527999999998,1005.8915407679998 200.02175999999997,1005.8915407679998 199.43207999999998C1005.8915407679998 196.37135999999998,1009.3173007679998 192.97367999999997,1013.2485007679998 192.77711999999997">
</path>
</g>
</g>
<g class="vf-modifiers">
</g>
</g>
<g class="vf-stavenote" id="vf-auto85893">
<g class="vf-note" pointer-events="bounding-box">
<g class="vf-notehead" pointer-events="bounding-box">
<path stroke-width="0.3" fill="#000000" stroke="none" stroke-dasharray="none" d="M1064.276688768 197.99999999999997M1071.633648768 192.77711999999997C1071.745968768 192.77711999999997,1071.914448768 192.77711999999997,1071.9425287679999 192.77711999999997C1071.9425287679999 192.77711999999997,1071.970608768 192.77711999999997,1071.970608768 192.77711999999997C1071.970608768 192.77711999999997,1072.139088768 192.77711999999997,1072.279488768 192.77711999999997C1074.806688768 192.91751999999997,1076.294928768 194.57423999999997,1076.294928768 196.65215999999998C1076.294928768 197.66303999999997,1075.957968768 198.81431999999998,1075.115568768 199.90943999999996C1073.515008768 202.07159999999996,1070.903568768 203.25095999999996,1068.629088768 203.25095999999996C1066.860048768 203.25095999999996,1065.343728768 202.54895999999997,1064.613648768 201.11687999999998C1064.389008768 200.55527999999998,1064.276688768 200.02175999999997,1064.276688768 199.43207999999998C1064.276688768 196.37135999999998,1067.702448768 192.97367999999997,1071.633648768 192.77711999999997">
</path>
</g>
</g>
<g class="vf-modifiers">
<g class="vf-stavenote" id="vf-auto85903">
<g class="vf-note" pointer-events="bounding-box">
<g class="vf-stem" pointer-events="bounding-box">
<path stroke-width="1.5" fill="none" stroke="#000000" stroke-dasharray="none" d="M1045.594650368 197.99999999999997L1045.594650368 174.89999999999998">
</path>
</g>
<g class="vf-notehead" pointer-events="bounding-box">
<path stroke-width="0.3" fill="#000000" stroke="none" stroke-dasharray="none" d="M1038.412611968 197.99999999999997M1043.268205568 194.55289919999998C1043.342336768 194.55289919999998,1043.453533568 194.55289919999998,1043.472066368 194.55289919999998C1043.472066368 194.55289919999998,1043.490599168 194.55289919999998,1043.490599168 194.55289919999998C1043.490599168 194.55289919999998,1043.601795968 194.55289919999998,1043.694459968 194.55289919999998C1045.362411968 194.64556319999997,1046.344650368 195.73899839999996,1046.344650368 197.11042559999999C1046.344650368 197.77760639999997,1046.122256768 198.53745119999996,1045.5662727679999 199.26023039999998C1044.509903168 200.68725599999996,1042.786352768 201.46563359999996,1041.285195968 201.46563359999996C1040.117629568 201.46563359999996,1039.116858368 201.00231359999998,1038.635005568 200.05714079999998C1038.486743168 199.68648479999996,1038.412611968 199.33436159999997,1038.412611968 198.94517279999997C1038.412611968 196.92509759999996,1040.673613568 194.68262879999997,1043.268205568 194.55289919999998">
</path>
</g>
<g class="vf-flag" pointer-events="bounding-box">
<path stroke-width="0.3" fill="#000000" stroke="none" stroke-dasharray="none" d="M1045.594650368 172.89999999999998M1045.149863168 175.88378079999998L1045.149863168 172.992664L1045.223994368 172.992664C1045.427855168 172.992664,1045.557584768 173.12239359999998,1045.594650368 173.34478719999998C1045.983839168 175.19806719999997,1047.151405568 177.21814239999998,1048.763759168 178.73783199999997C1050.561440768 180.42431679999999,1051.469547968 182.74091679999998,1051.469547968 185.13164799999998C1051.469547968 187.39264959999997,1050.672637568 189.74631519999997,1049.060283968 191.69225919999997C1048.782291968 192.06291519999996,1048.763759168 192.06291519999996,1048.578431168 192.06291519999996C1048.356037568 192.06291519999996,1048.207775168 191.89611999999997,1048.207775168 191.67372639999996C1048.207775168 191.50693119999997,1048.226307968 191.4698656,1048.411635968 191.2660048C1049.820128768 189.56098719999997,1050.524375168 187.5038464,1050.524375168 185.5393696C1050.524375168 183.7972864,1049.968391168 182.12933439999998,1048.819357568 180.86910399999996C1048.1151111679999 180.09072639999997,1046.817815168 179.34941439999997,1045.168395968 178.77489759999997C1045.168395968 178.75636479999997,1045.149863168 178.18184799999997,1045.149863168 175.88378079999998">
</path>
</g>
</g>
<g class="vf-modifiers">
</g>
</g>
<path stroke-width="1" fill="none" stroke="#000000" stroke-dasharray="none" d="M1039.412611968 189.74999999999997L1052.412611968 180.74999999999997Z">
</path>
</g>
</g>
<g class="vf-stavenote" id="vf-auto85917">
<g class="vf-note" pointer-events="bounding-box">
<g class="vf-notehead" pointer-events="bounding-box">
<path stroke-width="0.3" fill="#000000" stroke="none" stroke-dasharray="none" d="M1096.7977599679998 197.99999999999997M1104.1547199679999 192.77711999999997C1104.2670399679998 192.77711999999997,1104.4355199679999 192.77711999999997,1104.4635999679997 192.77711999999997C1104.4635999679997 192.77711999999997,1104.4916799679997 192.77711999999997,1104.4916799679997 192.77711999999997C1104.4916799679997 192.77711999999997,1104.6601599679998 192.77711999999997,1104.8005599679998 192.77711999999997C1107.3277599679998 192.91751999999997,1108.815999968 194.57423999999997,1108.815999968 196.65215999999998C1108.815999968 197.66303999999997,1108.4790399679998 198.81431999999998,1107.6366399679998 199.90943999999996C1106.0360799679997 202.07159999999996,1103.4246399679998 203.25095999999996,1101.1501599679998 203.25095999999996C1099.381119968 203.25095999999996,1097.8647999679997 202.54895999999997,1097.134719968 201.11687999999998C1096.9100799679998 200.55527999999998,1096.7977599679998 200.02175999999997,1096.7977599679998 199.43207999999998C1096.7977599679998 196.37135999999998,1100.223519968 192.97367999999997,1104.1547199679999 192.77711999999997">
</path>
</g>
</g>
<g class="vf-modifiers">
</g>
</g>
<g class="vf-stavenote" id="vf-auto85927">
<g class="vf-note" pointer-events="bounding-box">
<g class="vf-notehead" pointer-events="bounding-box">
<path stroke-width="0.3" fill="#000000" stroke="none" stroke-dasharray="none" d="M1155.1829079679999 197.99999999999997M1162.539867968 192.77711999999997C1162.652187968 192.77711999999997,1162.820667968 192.77711999999997,1162.8487479679998 192.77711999999997C1162.8487479679998 192.77711999999997,1162.8768279679998 192.77711999999997,1162.8768279679998 192.77711999999997C1162.8768279679998 192.77711999999997,1163.0453079679999 192.77711999999997,1163.1857079679999 192.77711999999997C1165.7129079679999 192.91751999999997,1167.201147968 194.57423999999997,1167.201147968 196.65215999999998C1167.201147968 197.66303999999997,1166.864187968 198.81431999999998,1166.021787968 199.90943999999996C1164.4212279679998 202.07159999999996,1161.809787968 203.25095999999996,1159.5353079679999 203.25095999999996C1157.766267968 203.25095999999996,1156.2499479679998 202.54895999999997,1155.519867968 201.11687999999998C1155.2952279679998 200.55527999999998,1155.1829079679999 200.02175999999997,1155.1829079679999 199.43207999999998C1155.1829079679999 196.37135999999998,1158.608667968 192.97367999999997,1162.539867968 192.77711999999997">
</path>
</g>
</g>
<g class="vf-modifiers">
<g class="vf-stavenote" id="vf-auto85937">
<g class="vf-note" pointer-events="bounding-box">
<g class="vf-stem" pointer-events="bounding-box">
<path stroke-width="1.5" fill="none" stroke="#000000" stroke-dasharray="none" d="M1136.5008695679999 197.99999999999997L1136.5008695679999 174.89999999999998">
</path>
</g>
<g class="vf-notehead" pointer-events="bounding-box">
<path stroke-width="0.3" fill="#000000" stroke="none" stroke-dasharray="none" d="M1129.3188311679999 197.99999999999997M1134.1744247679999 194.55289919999998C1134.248555968 194.55289919999998,1134.359752768 194.55289919999998,1134.378285568 194.55289919999998C1134.378285568 194.55289919999998,1134.396818368 194.55289919999998,1134.396818368 194.55289919999998C1134.396818368 194.55289919999998,1134.508015168 194.55289919999998,1134.600679168 194.55289919999998C1136.268631168 194.64556319999997,1137.2508695679999 195.73899839999996,1137.2508695679999 197.11042559999999C1137.2508695679999 197.77760639999997,1137.0284759679998 198.53745119999996,1136.4724919679998 199.26023039999998C1135.4161223679998 200.68725599999996,1133.6925719679998 201.46563359999996,1132.1914151679998 201.46563359999996C1131.0238487679999 201.46563359999996,1130.023077568 201.00231359999998,1129.541224768 200.05714079999998C1129.3929623679999 199.68648479999996,1129.3188311679999 199.33436159999997,1129.3188311679999 198.94517279999997C1129.3188311679999 196.92509759999996,1131.579832768 194.68262879999997,1134.1744247679999 194.55289919999998">
</path>
</g>
<g class="vf-flag" pointer-events="bounding-box">
<path stroke-width="0.3" fill="#000000" stroke="none" stroke-dasharray="none" d="M1136.5008695679999 172.89999999999998M1136.0560823679998 175.88378079999998L1136.0560823679998 172.992664L1136.1302135679998 172.992664C1136.3340743679998 172.992664,1136.4638039679999 173.12239359999998,1136.5008695679999 173.34478719999998C1136.890058368 175.19806719999997,1138.0576247679999 177.21814239999998,1139.6699783679999 178.73783199999997C1141.467659968 180.42431679999999,1142.3757671679998 182.74091679999998,1142.3757671679998 185.13164799999998C1142.3757671679998 187.39264959999997,1141.578856768 189.74631519999997,1139.966503168 191.69225919999997C1139.6885111679999 192.06291519999996,1139.6699783679999 192.06291519999996,1139.4846503679998 192.06291519999996C1139.2622567679998 192.06291519999996,1139.1139943679998 191.89611999999997,1139.1139943679998 191.67372639999996C1139.1139943679998 191.50693119999997,1139.1325271679998 191.4698656,1139.3178551679998 191.2660048C1140.7263479679998 189.56098719999997,1141.430594368 187.5038464,1141.430594368 185.5393696C1141.430594368 183.7972864,1140.8746103679998 182.12933439999998,1139.7255767679999 180.86910399999996C1139.0213303679998 180.09072639999997,1137.7240343679998 179.34941439999997,1136.0746151679998 178.77489759999997C1136.0746151679998 178.75636479999997,1136.0560823679998 178.18184799999997,1136.0560823679998 175.88378079999998">
</path>
</g>
</g>
<g class="vf-modifiers">
</g>
</g>
<path stroke-width="1" fill="none" stroke="#000000" stroke-dasharray="none" d="M1130.3188311679999 189.74999999999997L1143.3188311679999 180.74999999999997Z">
</path>
</g>
</g>
<g class="vf-stavenote" id="vf-auto85951">
<g class="vf-note" pointer-events="bounding-box">
<g class="vf-notehead" pointer-events="bounding-box">
<path stroke-width="0.3" fill="#000000" stroke="none" stroke-dasharray="none" d="M1187.703979168 197.99999999999997M1195.060939168 192.77711999999997C1195.173259168 192.77711999999997,1195.341739168 192.77711999999997,1195.3698191679998 192.77711999999997C1195.3698191679998 192.77711999999997,1195.3978991679999 192.77711999999997,1195.3978991679999 192.77711999999997C1195.3978991679999 192.77711999999997,1195.566379168 192.77711999999997,1195.706779168 192.77711999999997C1198.233979168 192.91751999999997,1199.722219168 194.57423999999997,1199.722219168 196.65215999999998C1199.722219168 197.66303999999997,1199.385259168 198.81431999999998,1198.542859168 199.90943999999996C1196.9422991679999 202.07159999999996,1194.330859168 203.25095999999996,1192.056379168 203.25095999999996C1190.287339168 203.25095999999996,1188.7710191679998 202.54895999999997,1188.040939168 201.11687999999998C1187.816299168 200.55527999999998,1187.703979168 200.02175999999997,1187.703979168 199.43207999999998C1187.703979168 196.37135999999998,1191.129739168 192.97367999999997,1195.060939168 192.77711999999997">
</path>
</g>
</g>
<g class="vf-modifiers">
</g>
</g>
<path stroke-width="1.5" fill="none" stroke="#000000" stroke-dasharray="none" d="M581.8357671679998 197.99999999999997L581.8357671679998 163.74999999999997">
</path>
<path stroke-width="1.5" fill="none" stroke="#000000" stroke-dasharray="none" d="M614.3568383679998 197.99999999999997L614.3568383679998 163.74999999999997">
</path>
<path stroke-width="1.5" fill="none" stroke="#000000" stroke-dasharray="none" d="M646.8779095679998 197.99999999999997L646.8779095679998 163.74999999999997">
</path>
<path stroke-width="1.5" fill="none" stroke="#000000" stroke-dasharray="none" d="M679.3989807679999 197.99999999999997L679.3989807679999 163.74999999999997">
</path>
<path stroke-width="0.3" fill="#000000" stroke="none" stroke-dasharray="none" d="M581.0857671679998 162.99999999999997L581.0857671679998 167.99999999999997L679.6489807679999 167.99999999999997L679.6489807679999 162.99999999999997Z">
</path>
<path stroke-width="0.3" fill="#000000" stroke="none" stroke-dasharray="none" d="M581.0857671679998 170.49999999999997L581.0857671679998 175.49999999999997L679.6489807679999 175.49999999999997L679.6489807679999 170.49999999999997Z">
</path>
<path stroke-width="1.5" fill="none" stroke="#000000" stroke-dasharray="none" d="M737.7841287679998 197.99999999999997L737.7841287679998 163.74999999999997">
</path>
<path stroke-width="1.5" fill="none" stroke="#000000" stroke-dasharray="none" d="M770.3051999679998 197.99999999999997L770.3051999679998 163.74999999999997">
</path>
<path stroke-width="1.5" fill="none" stroke="#000000" stroke-dasharray="none" d="M802.8262711679998 197.99999999999997L802.8262711679998 163.74999999999997">
</path>
<path stroke-width="1.5" fill="none" stroke="#000000" stroke-dasharray="none" d="M835.3473423679999 197.99999999999997L835.3473423679999 163.74999999999997">
</path>
<path stroke-width="0.3" fill="#000000" stroke="none" stroke-dasharray="none" d="M737.0341287679998 162.99999999999997L737.0341287679998 167.99999999999997L835.5973423679999 167.99999999999997L835.5973423679999 162.99999999999997Z">
</path>
<path stroke-width="0.3" fill="#000000" stroke="none" stroke-dasharray="none" d="M737.0341287679998 170.49999999999997L737.0341287679998 175.49999999999997L835.5973423679999 175.49999999999997L835.5973423679999 170.49999999999997Z">
</path>
<path stroke-width="1.5" fill="none" stroke="#000000" stroke-dasharray="none" d="M893.7324903679997 197.99999999999997L893.7324903679997 163.74999999999997">
</path>
<path stroke-width="1.5" fill="none" stroke="#000000" stroke-dasharray="none" d="M926.2535615679998 197.99999999999997L926.2535615679998 163.74999999999997">
</path>
<path stroke-width="1.5" fill="none" stroke="#000000" stroke-dasharray="none" d="M984.6387095679999 197.99999999999997L984.6387095679999 163.74999999999997">
</path>
<path stroke-width="1.5" fill="none" stroke="#000000" stroke-dasharray="none" d="M1017.1597807679998 197.99999999999997L1017.1597807679998 163.74999999999997">
</path>
<path stroke-width="0.3" fill="#000000" stroke="none" stroke-dasharray="none" d="M892.9824903679997 162.99999999999997L892.9824903679997 167.99999999999997L1017.4097807679998 167.99999999999997L1017.4097807679998 162.99999999999997Z">
</path>
<path stroke-width="0.3" fill="#000000" stroke="none" stroke-dasharray="none" d="M892.9824903679997 170.49999999999997L892.9824903679997 175.49999999999997L1017.4097807679998 175.49999999999997L1017.4097807679998 170.49999999999997Z">
</path>
<path stroke-width="1.5" fill="none" stroke="#000000" stroke-dasharray="none" d="M1075.544928768 197.99999999999997L1075.544928768 163.74999999999997">
</path>
<path stroke-width="1.5" fill="none" stroke="#000000" stroke-dasharray="none" d="M1108.065999968 197.99999999999997L1108.065999968 163.74999999999997">
</path>
<path stroke-width="1.5" fill="none" stroke="#000000" stroke-dasharray="none" d="M1166.451147968 197.99999999999997L1166.451147968 163.74999999999997">
</path>
<path stroke-width="1.5" fill="none" stroke="#000000" stroke-dasharray="none" d="M1198.972219168 197.99999999999997L1198.972219168 163.74999999999997">
</path>
<path stroke-width="0.3" fill="#000000" stroke="none" stroke-dasharray="none" d="M1074.794928768 162.99999999999997L1074.794928768 167.99999999999997L1199.222219168 167.99999999999997L1199.222219168 162.99999999999997Z">
</path>
<path stroke-width="0.3" fill="#000000" stroke="none" stroke-dasharray="none" d="M1074.794928768 170.49999999999997L1074.794928768 175.49999999999997L1199.222219168 175.49999999999997L1199.222219168 170.49999999999997Z">
</path>
</svg>