<svg width="1536" height="331.99999999999994" viewBox="0 0 1536 331.99999999999994">
<path stroke-width="1" fill="none" stroke="black" stroke-dasharray="none" d="M50 197.99999999999997L452.66854758399984 197.99999999999997">
</path>
<rect stroke-width="0.3" fill="black" stroke="black" stroke-dasharray="none" x="452.66854758399984" y="177.49999999999997" width="1" height="41">
</rect>
<path stroke-width="0.3" fill="black" stroke="none" stroke-dasharray="none" d="M55 197.99999999999997M55 197.99999999999997L55 188.00639999999999L57.1888 188.00639999999999L59.4064 188.00639999999999L59.4064 197.99999999999997L59.4064 208.02239999999998L57.1888 208.02239999999998L55 208.02239999999998L55 197.99999999999997M63.870400000000004 198.02879999999996L63.870400000000004 188.00639999999999L66.1168 188.00639999999999L68.3632 188.00639999999999L68.3632 198.02879999999996L68.3632 208.02239999999998L66.1168 208.02239999999998L63.870400000000004 208.02239999999998L63.870400000000004 198.02879999999996">
</path>
<path stroke-width="0.3" fill="black" stroke="none" stroke-dasharray="none" d="M96.1296 197.99999999999997M101.80319999999999 179.33759999999998C101.91839999999999 179.33759999999998,102.11999999999999 179.33759999999998,102.3504 179.33759999999998C102.8112 179.33759999999998,103.416 179.33759999999998,103.56 179.39519999999996C105.72 179.65439999999998,107.448 180.74879999999996,108.1968 182.27519999999998C108.45599999999999 182.79359999999997,108.57119999999999 183.34079999999997,108.57119999999999 183.91679999999997C108.57119999999999 185.32799999999997,107.7936 186.94079999999997,106.38239999999999 188.15039999999996C105.4032 188.98559999999998,104.42399999999999 189.50399999999996,102.8976 189.99359999999996C100.9104 190.62719999999996,99.21119999999999 191.75039999999998,98.1168 193.10399999999998C98.1168 193.10399999999998,98.1168 193.13279999999997,98.1168 193.13279999999997C98.1168 193.13279999999997,98.1168 193.13279999999997,98.1168 193.13279999999997C98.1168 193.13279999999997,98.2032 193.10399999999998,98.26079999999999 193.01759999999996C99.3552 192.12479999999996,100.824 191.60639999999998,102.1488 191.60639999999998C103.2432 191.60639999999998,104.0208 191.80799999999996,105.0576 192.38399999999996C105.6912 192.70079999999996,106.2672 192.84479999999996,106.81439999999999 192.84479999999996C107.0448 192.84479999999996,107.2752 192.84479999999996,107.53439999999999 192.78719999999998C107.9088 192.70079999999996,108.312 192.41279999999998,108.45599999999999 192.18239999999997C108.5424 191.98079999999996,108.68639999999999 191.89439999999996,108.8592 191.89439999999996C109.08959999999999 191.89439999999996,109.32 192.06719999999999,109.32 192.32639999999998C109.32 192.52799999999996,109.0608 193.24799999999996,108.8304 193.7376C107.9088 195.58079999999998,106.29599999999999 196.73279999999997,104.7408 196.73279999999997C104.62559999999999 196.73279999999997,104.5392 196.73279999999997,104.42399999999999 196.70399999999998C104.0208 196.70399999999998,103.848 196.58879999999996,103.3296 196.24319999999997C102.23519999999999 195.52319999999997,100.8528 195.14879999999997,99.6432 195.14879999999997C99.1248 195.14879999999997,98.664 195.20639999999997,98.232 195.37919999999997C97.65599999999999 195.58079999999998,97.1088 195.92639999999997,96.93599999999999 196.18559999999997C96.8496 196.38719999999998,96.70559999999999 196.44479999999996,96.5328 196.44479999999996C96.3888 196.44479999999996,96.2448 196.38719999999998,96.1584 196.21439999999998L96.10079999999999 196.128L96.10079999999999 195.72479999999996C96.10079999999999 195.37919999999997,96.1296 195.26399999999998,96.1296 195.14879999999997C96.1584 195.06239999999997,96.18719999999999 194.88959999999997,96.18719999999999 194.74559999999997C96.70559999999999 192.32639999999998,98.4624 190.16639999999998,100.8528 189.10079999999996C102.8112 188.17919999999998,104.10719999999999 186.53759999999997,104.3376 184.46399999999997C104.39519999999999 184.29119999999998,104.39519999999999 184.14719999999997,104.39519999999999 183.97439999999997C104.39519999999999 182.13119999999998,103.0128 180.86399999999998,101.0544 180.86399999999998C100.9104 180.86399999999998,100.7376 180.86399999999998,100.5936 180.86399999999998C100.3056 180.89279999999997,100.2192 180.89279999999997,100.2192 180.95039999999997C100.2192 180.95039999999997,100.2192 180.97919999999996,100.3056 181.03679999999997C100.96799999999999 181.41119999999998,101.28479999999999 182.13119999999998,101.28479999999999 182.82239999999996C101.28479999999999 183.71519999999998,100.824 184.55039999999997,99.93119999999999 184.89599999999996C99.6432 184.98239999999998,99.3552 185.01119999999997,99.1248 185.01119999999997C97.9152 185.01119999999997,96.9072 183.97439999999997,96.9072 182.73599999999996C96.9072 182.50559999999996,96.9072 182.27519999999998,96.9648 182.01599999999996C97.3968 180.69119999999998,99.4416 179.59679999999997,101.80319999999999 179.33759999999998M102.696 198.02879999999996L102.75359999999999 198.02879999999996L102.6672 198.02879999999996L102.696 198.02879999999996M102.696 178.61759999999998L102.75359999999999 178.61759999999998L102.6672 178.61759999999998L102.696 178.61759999999998">
</path>
<path stroke-width="0.3" fill="black" stroke="none" stroke-dasharray="none" d="M96 217.99999999999997M101.0112 199.65439999999998C101.04 199.62559999999996,101.4432 199.62559999999996,102.6816 199.62559999999996C103.056 199.62559999999996,103.4592 199.62559999999996,103.9776 199.62559999999996L106.8864 199.62559999999996L106.9728 199.71199999999996C107.1168 199.79839999999996,107.2032 199.94239999999996,107.2032 200.05759999999998C107.2032 200.23039999999997,107.1168 200.34559999999996,107.0016 200.46079999999998C106.9728 200.54719999999998,106.7136 200.77759999999998,106.5408 201.03679999999997L105.0144 202.79359999999997L103.056 205.01119999999997L102.0192 206.19199999999998L100.464 207.97759999999997L98.4192 210.31039999999996C98.0736 210.74239999999998,97.6992 211.08799999999997,97.6992 211.08799999999997C97.6992 211.08799999999997,97.6992 211.08799999999997,97.6992 211.08799999999997C97.6992 211.14559999999997,97.9584 211.14559999999997,100.3488 211.14559999999997L102.9696 211.14559999999997L102.9696 209.27359999999996C102.9696 207.37279999999998,102.9696 207.34399999999997,102.9984 207.31519999999998C103.056 207.22879999999998,103.3152 206.91199999999998,104.3232 205.73119999999997L104.7264 205.29919999999998L105.1296 204.86719999999997L105.7344 204.08959999999996L106.368 203.42719999999997L106.6848 203.02399999999997C106.8 202.85119999999998,106.9728 202.82239999999996,107.1168 202.82239999999996C107.28960000000001 202.82239999999996,107.4336 202.90879999999999,107.52 203.05279999999996C107.5488 203.13919999999996,107.5488 203.19679999999997,107.5488 205.32799999999997C107.5488 205.81759999999997,107.5488 206.42239999999998,107.5488 207.14239999999998L107.5488 211.14559999999997L108.2688 211.14559999999997C108.9312 211.14559999999997,108.96 211.14559999999997,109.0464 211.17439999999996C109.2768 211.26079999999996,109.392 211.49119999999996,109.392 211.75039999999998C109.392 211.89439999999996,109.3632 212.06719999999999,109.248 212.18239999999997C109.0752 212.32639999999998,109.0464 212.32639999999998,108.2688 212.32639999999998L107.5488 212.32639999999998L107.5488 212.81599999999997C107.5776 214.28479999999996,107.8656 214.86079999999998,108.9888 215.46559999999997C109.392 215.66719999999998,109.4784 215.72479999999996,109.4784 216.01279999999997C109.4784 216.21439999999998,109.4208 216.30079999999998,109.2768 216.41599999999997L109.1904 216.44479999999996L105.2448 216.44479999999996L101.328 216.44479999999996L101.2416 216.41599999999997C101.0688 216.30079999999998,101.04 216.21439999999998,101.04 216.01279999999997C101.04 215.72479999999996,101.0688 215.66719999999998,101.5008 215.46559999999997C102.624 214.86079999999998,102.912 214.28479999999996,102.912 212.81599999999997L102.912 212.32639999999998L99.6 212.32639999999998C98.9952 212.38399999999996,98.5056 212.38399999999996,98.1024 212.38399999999996C96.288 212.38399999999996,96.2592 212.32639999999998,96.2304 212.32639999999998C96.0576 212.26879999999997,96 212.09599999999998,96 211.89439999999996C96 211.89439999999996,96 211.89439999999996,96 211.89439999999996C96 211.69279999999998,96 211.69279999999998,96.576 211.0304C98.9952 208.09279999999998,100.6944 203.83039999999997,100.6944 200.43199999999996C100.6944 199.91359999999997,100.7808 199.74079999999998,101.0112 199.65439999999998M102.7392 218.02879999999996L102.768 218.02879999999996L102.6816 218.02879999999996L102.7392 218.02879999999996M102.7392 198.61759999999998L102.768 198.61759999999998L102.6816 198.61759999999998L102.7392 198.61759999999998">
</path>
<g class="vf-stavenote" id="vf-auto73629">
<g class="vf-note" pointer-events="bounding-box">
<g class="vf-notehead" pointer-events="bounding-box">
<path stroke-width="0.3" fill="#000000" stroke="none" stroke-dasharray="none" d="M147.3424768 197.99999999999997M154.69943679999997 192.77711999999997C154.81175679999998 192.77711999999997,154.9802368 192.77711999999997,155.0083168 192.77711999999997C155.0083168 192.77711999999997,155.03639679999998 192.77711999999997,155.03639679999998 192.77711999999997C155.03639679999998 192.77711999999997,155.2048768 192.77711999999997,155.3452768 192.77711999999997C157.8724768 192.91751999999997,159.36071679999998 194.57423999999997,159.36071679999998 196.65215999999998C159.36071679999998 197.66303999999997,159.0237568 198.81431999999998,158.18135679999997 199.90943999999996C156.58079679999997 202.07159999999996,153.96935679999999 203.25095999999996,151.69487679999997 203.25095999999996C149.92583679999998 203.25095999999996,148.40951679999998 202.54895999999997,147.6794368 201.11687999999998C147.4547968 200.55527999999998,147.3424768 200.02175999999997,147.3424768 199.43207999999998C147.3424768 196.37135999999998,150.76823679999998 192.97367999999997,154.69943679999997 192.77711999999997">
</path>
</g>
</g>
<g class="vf-modifiers">
<g class="vf-stavenote" id="vf-auto73639">
<g class="vf-note" pointer-events="bounding-box">
<g class="vf-stem" pointer-events="bounding-box">
<path stroke-width="1.5" fill="none" stroke="#000000" stroke-dasharray="none" d="M128.6604384 197.99999999999997L128.6604384 174.89999999999998">
</path>
</g>
<g class="vf-notehead" pointer-events="bounding-box">
<path stroke-width="0.3" fill="#000000" stroke="none" stroke-dasharray="none" d="M121.4784 197.99999999999997M126.3339936 194.55289919999998C126.4081248 194.55289919999998,126.5193216 194.55289919999998,126.5378544 194.55289919999998C126.5378544 194.55289919999998,126.55638719999999 194.55289919999998,126.55638719999999 194.55289919999998C126.55638719999999 194.55289919999998,126.66758399999999 194.55289919999998,126.76024799999999 194.55289919999998C128.4282 194.64556319999997,129.4104384 195.73899839999996,129.4104384 197.11042559999999C129.4104384 197.77760639999997,129.1880448 198.53745119999996,128.6320608 199.26023039999998C127.5756912 200.68725599999996,125.8521408 201.46563359999996,124.350984 201.46563359999996C123.1834176 201.46563359999996,122.1826464 201.00231359999998,121.7007936 200.05714079999998C121.55253119999999 199.68648479999996,121.4784 199.33436159999997,121.4784 198.94517279999997C121.4784 196.92509759999996,123.7394016 194.68262879999997,126.3339936 194.55289919999998">
</path>
</g>
<g class="vf-flag" pointer-events="bounding-box">
<path stroke-width="0.3" fill="#000000" stroke="none" stroke-dasharray="none" d="M128.6604384 172.89999999999998M128.2156512 175.88378079999998L128.2156512 172.992664L128.2897824 172.992664C128.4936432 172.992664,128.6233728 173.12239359999998,128.6604384 173.34478719999998C129.0496272 175.19806719999997,130.2171936 177.21814239999998,131.8295472 178.73783199999997C133.6272288 180.42431679999999,134.535336 182.74091679999998,134.535336 185.13164799999998C134.535336 187.39264959999997,133.7384256 189.74631519999997,132.126072 191.69225919999997C131.84808 192.06291519999996,131.8295472 192.06291519999996,131.6442192 192.06291519999996C131.4218256 192.06291519999996,131.2735632 191.89611999999997,131.2735632 191.67372639999996C131.2735632 191.50693119999997,131.29209600000002 191.4698656,131.477424 191.2660048C132.88591680000002 189.56098719999997,133.5901632 187.5038464,133.5901632 185.5393696C133.5901632 183.7972864,133.0341792 182.12933439999998,131.88514560000002 180.86910399999996C131.1808992 180.09072639999997,129.8836032 179.34941439999997,128.234184 178.77489759999997C128.234184 178.75636479999997,128.2156512 178.18184799999997,128.2156512 175.88378079999998">
</path>
</g>
</g>
<g class="vf-modifiers">
</g>
</g>
<path stroke-width="1" fill="none" stroke="#000000" stroke-dasharray="none" d="M122.4784 189.74999999999997L135.4784 180.74999999999997Z">
</path>
</g>
</g>
<g class="vf-stavenote" id="vf-auto73653">
<g class="vf-note" pointer-events="bounding-box">
<g class="vf-notehead" pointer-events="bounding-box">
<path stroke-width="0.3" fill="#000000" stroke="none" stroke-dasharray="none" d="M182.44165759999998 197.99999999999997M189.79861759999997 192.77711999999997C189.91093759999998 192.77711999999997,190.0794176 192.77711999999997,190.1074976 192.77711999999997C190.1074976 192.77711999999997,190.13557759999998 192.77711999999997,190.13557759999998 192.77711999999997C190.13557759999998 192.77711999999997,190.3040576 192.77711999999997,190.4444576 192.77711999999997C192.9716576 192.91751999999997,194.45989759999998 194.57423999999997,194.45989759999998 196.65215999999998C194.45989759999998 197.66303999999997,194.1229376 198.81431999999998,193.28053759999997 199.90943999999996C191.67997759999997 202.07159999999996,189.06853759999998 203.25095999999996,186.79405759999997 203.25095999999996C185.02501759999998 203.25095999999996,183.50869759999998 202.54895999999997,182.7786176 201.11687999999998C182.5539776 200.55527999999998,182.44165759999998 200.02175999999997,182.44165759999998 199.43207999999998C182.44165759999998 196.37135999999998,185.86741759999998 192.97367999999997,189.79861759999997 192.77711999999997">
</path>
</g>
</g>
<g class="vf-modifiers">
</g>
</g>
<g class="vf-stavenote" id="vf-auto73663">
<g class="vf-note" pointer-events="bounding-box">
<g class="vf-notehead" pointer-events="bounding-box">
<path stroke-width="0.3" fill="#000000" stroke="none" stroke-dasharray="none" d="M217.54083839999998 197.99999999999997M224.89779839999997 192.77711999999997C225.01011839999998 192.77711999999997,225.1785984 192.77711999999997,225.2066784 192.77711999999997C225.2066784 192.77711999999997,225.23475839999998 192.77711999999997,225.23475839999998 192.77711999999997C225.23475839999998 192.77711999999997,225.4032384 192.77711999999997,225.5436384 192.77711999999997C228.07083839999999 192.91751999999997,229.55907839999998 194.57423999999997,229.55907839999998 196.65215999999998C229.55907839999998 197.66303999999997,229.2221184 198.81431999999998,228.37971839999997 199.90943999999996C226.77915839999997 202.07159999999996,224.16771839999998 203.25095999999996,221.89323839999997 203.25095999999996C220.12419839999998 203.25095999999996,218.60787839999998 202.54895999999997,217.8777984 201.11687999999998C217.6531584 200.55527999999998,217.54083839999998 200.02175999999997,217.54083839999998 199.43207999999998C217.54083839999998 196.37135999999998,220.96659839999998 192.97367999999997,224.89779839999997 192.77711999999997">
</path>
</g>
</g>
<g class="vf-modifiers">
</g>
</g>
<g class="vf-stavenote" id="vf-auto73673">
<g class="vf-note" pointer-events="bounding-box">
<g class="vf-notehead" pointer-events="bounding-box">
<path stroke-width="0.3" fill="#000000" stroke="none" stroke-dasharray="none" d="M252.6400192 197.99999999999997M259.9969792 192.77711999999997C260.1092992 192.77711999999997,260.2777792 192.77711999999997,260.3058592 192.77711999999997C260.3058592 192.77711999999997,260.33393920000003 192.77711999999997,260.33393920000003 192.77711999999997C260.33393920000003 192.77711999999997,260.5024192 192.77711999999997,260.6428192 192.77711999999997C263.1700192 192.91751999999997,264.65825920000003 194.57423999999997,264.65825920000003 196.65215999999998C264.65825920000003 197.66303999999997,264.3212992 198.81431999999998,263.4788992 199.90943999999996C261.8783392 202.07159999999996,259.2668992 203.25095999999996,256.99241920000003 203.25095999999996C255.2233792 203.25095999999996,253.7070592 202.54895999999997,252.97697920000002 201.11687999999998C252.75233920000002 200.55527999999998,252.6400192 200.02175999999997,252.6400192 199.43207999999998C252.6400192 196.37135999999998,256.0657792 192.97367999999997,259.9969792 192.77711999999997">
</path>
</g>
</g>
<g class="vf-modifiers">
</g>
</g>
<g class="vf-stavenote" id="vf-auto73683">
<g class="vf-note" pointer-events="bounding-box">
<g class="vf-notehead" pointer-events="bounding-box">
<path stroke-width="0.3" fill="#000000" stroke="none" stroke-dasharray="none" d="M313.6032768 197.99999999999997M320.9602368 192.77711999999997C321.07255680000003 192.77711999999997,321.2410368 192.77711999999997,321.2691168 192.77711999999997C321.2691168 192.77711999999997,321.2971968 192.77711999999997,321.2971968 192.77711999999997C321.2971968 192.77711999999997,321.4656768 192.77711999999997,321.6060768 192.77711999999997C324.1332768 192.91751999999997,325.6215168 194.57423999999997,325.6215168 196.65215999999998C325.6215168 197.66303999999997,325.2845568 198.81431999999998,324.4421568 199.90943999999996C322.8415968 202.07159999999996,320.23015680000003 203.25095999999996,317.9556768 203.25095999999996C316.18663680000003 203.25095999999996,314.6703168 202.54895999999997,313.9402368 201.11687999999998C313.7155968 200.55527999999998,313.6032768 200.02175999999997,313.6032768 199.43207999999998C313.6032768 196.37135999999998,317.02903680000003 192.97367999999997,320.9602368 192.77711999999997">
</path>
</g>
</g>
<g class="vf-modifiers">
<g class="vf-stavenote" id="vf-auto73693">
<g class="vf-note" pointer-events="bounding-box">
<g class="vf-stem" pointer-events="bounding-box">
<path stroke-width="1.5" fill="none" stroke="#000000" stroke-dasharray="none" d="M294.9212384 197.99999999999997L294.9212384 174.89999999999998">
</path>
</g>
<g class="vf-notehead" pointer-events="bounding-box">
<path stroke-width="0.3" fill="#000000" stroke="none" stroke-dasharray="none" d="M287.7392 197.99999999999997M292.5947936 194.55289919999998C292.66892479999996 194.55289919999998,292.7801216 194.55289919999998,292.7986544 194.55289919999998C292.7986544 194.55289919999998,292.8171872 194.55289919999998,292.8171872 194.55289919999998C292.8171872 194.55289919999998,292.928384 194.55289919999998,293.021048 194.55289919999998C294.68899999999996 194.64556319999997,295.6712384 195.73899839999996,295.6712384 197.11042559999999C295.6712384 197.77760639999997,295.44884479999996 198.53745119999996,294.8928608 199.26023039999998C293.83649119999995 200.68725599999996,292.1129408 201.46563359999996,290.611784 201.46563359999996C289.4442176 201.46563359999996,288.44344639999997 201.00231359999998,287.96159359999996 200.05714079999998C287.8133312 199.68648479999996,287.7392 199.33436159999997,287.7392 198.94517279999997C287.7392 196.92509759999996,290.00020159999997 194.68262879999997,292.5947936 194.55289919999998">
</path>
</g>
<g class="vf-flag" pointer-events="bounding-box">
<path stroke-width="0.3" fill="#000000" stroke="none" stroke-dasharray="none" d="M294.9212384 172.89999999999998M294.4764512 175.88378079999998L294.4764512 172.992664L294.5505824 172.992664C294.75444319999997 172.992664,294.8841728 173.12239359999998,294.9212384 173.34478719999998C295.3104272 175.19806719999997,296.4779936 177.21814239999998,298.0903472 178.73783199999997C299.8880288 180.42431679999999,300.796136 182.74091679999998,300.796136 185.13164799999998C300.796136 187.39264959999997,299.9992256 189.74631519999997,298.386872 191.69225919999997C298.10888 192.06291519999996,298.0903472 192.06291519999996,297.90501919999997 192.06291519999996C297.6826256 192.06291519999996,297.5343632 191.89611999999997,297.5343632 191.67372639999996C297.5343632 191.50693119999997,297.552896 191.4698656,297.738224 191.2660048C299.1467168 189.56098719999997,299.85096319999997 187.5038464,299.85096319999997 185.5393696C299.85096319999997 183.7972864,299.2949792 182.12933439999998,298.1459456 180.86910399999996C297.4416992 180.09072639999997,296.1444032 179.34941439999997,294.494984 178.77489759999997C294.494984 178.75636479999997,294.4764512 178.18184799999997,294.4764512 175.88378079999998">
</path>
</g>
</g>
<g class="vf-modifiers">
</g>
</g>
<path stroke-width="1" fill="none" stroke="#000000" stroke-dasharray="none" d="M288.7392 189.74999999999997L301.7392 180.74999999999997Z">
</path>
</g>
</g>
<g class="vf-stavenote" id="vf-auto73707">
<g class="vf-note" pointer-events="bounding-box">
<g class="vf-notehead" pointer-events="bounding-box">
<path stroke-width="0.3" fill="#000000" stroke="none" stroke-dasharray="none" d="M348.7024576 197.99999999999997M356.0594176 192.77711999999997C356.17173760000003 192.77711999999997,356.3402176 192.77711999999997,356.3682976 192.77711999999997C356.3682976 192.77711999999997,356.3963776 192.77711999999997,356.3963776 192.77711999999997C356.3963776 192.77711999999997,356.5648576 192.77711999999997,356.7052576 192.77711999999997C359.2324576 192.91751999999997,360.7206976 194.57423999999997,360.7206976 196.65215999999998C360.7206976 197.66303999999997,360.3837376 198.81431999999998,359.5413376 199.90943999999996C357.9407776 202.07159999999996,355.32933760000003 203.25095999999996,353.0548576 203.25095999999996C351.28581760000003 203.25095999999996,349.7694976 202.54895999999997,349.0394176 201.11687999999998C348.8147776 200.55527999999998,348.7024576 200.02175999999997,348.7024576 199.43207999999998C348.7024576 196.37135999999998,352.1282176 192.97367999999997,356.0594176 192.77711999999997">
</path>
</g>
</g>
<g class="vf-modifiers">
</g>
</g>
<g class="vf-stavenote" id="vf-auto73717">
<g class="vf-note" pointer-events="bounding-box">
<g class="vf-notehead" pointer-events="bounding-box">
<path stroke-width="0.3" fill="#000000" stroke="none" stroke-dasharray="none" d="M383.8016384 197.99999999999997M391.1585984 192.77711999999997C391.2709184 192.77711999999997,391.4393984 192.77711999999997,391.4674784 192.77711999999997C391.4674784 192.77711999999997,391.4955584 192.77711999999997,391.4955584 192.77711999999997C391.4955584 192.77711999999997,391.6640384 192.77711999999997,391.8044384 192.77711999999997C394.3316384 192.91751999999997,395.8198784 194.57423999999997,395.8198784 196.65215999999998C395.8198784 197.66303999999997,395.4829184 198.81431999999998,394.6405184 199.90943999999996C393.0399584 202.07159999999996,390.42851840000003 203.25095999999996,388.1540384 203.25095999999996C386.38499840000003 203.25095999999996,384.8686784 202.54895999999997,384.1385984 201.11687999999998C383.9139584 200.55527999999998,383.8016384 200.02175999999997,383.8016384 199.43207999999998C383.8016384 196.37135999999998,387.2273984 192.97367999999997,391.1585984 192.77711999999997">
</path>
</g>
</g>
<g class="vf-modifiers">
</g>
</g>
<g class="vf-stavenote" id="vf-auto73727">
<g class="vf-note" pointer-events="bounding-box">
<g class="vf-notehead" pointer-events="bounding-box">
<path stroke-width="0.3" fill="#000000" stroke="none" stroke-dasharray="none" d="M418.9008192 197.99999999999997M426.2577792 192.77711999999997C426.3700992 192.77711999999997,426.5385792 192.77711999999997,426.5666592 192.77711999999997C426.5666592 192.77711999999997,426.5947392 192.77711999999997,426.5947392 192.77711999999997C426.5947392 192.77711999999997,426.7632192 192.77711999999997,426.9036192 192.77711999999997C429.4308192 192.91751999999997,430.9190592 194.57423999999997,430.9190592 196.65215999999998C430.9190592 197.66303999999997,430.5820992 198.81431999999998,429.7396992 199.90943999999996C428.1391392 202.07159999999996,425.52769920000003 203.25095999999996,423.2532192 203.25095999999996C421.4841792 203.25095999999996,419.9678592 202.54895999999997,419.2377792 201.11687999999998C419.0131392 200.55527999999998,418.9008192 200.02175999999997,418.9008192 199.43207999999998C418.9008192 196.37135999999998,422.3265792 192.97367999999997,426.2577792 192.77711999999997">
</path>
</g>
</g>
<g class="vf-modifiers">
</g>
</g>
<path stroke-width="1.5" fill="none" stroke="#000000" stroke-dasharray="none" d="M158.61071679999998 197.99999999999997L158.61071679999998 163.74999999999997">
</path>
<path stroke-width="1.5" fill="none" stroke="#000000" stroke-dasharray="none" d="M193.70989759999998 197.99999999999997L193.70989759999998 163.74999999999997">
</path>
<path stroke-width="1.5" fill="none" stroke="#000000" stroke-dasharray="none" d="M228.80907839999998 197.99999999999997L228.80907839999998 163.74999999999997">
</path>
<path stroke-width="1.5" fill="none" stroke="#000000" stroke-dasharray="none" d="M263.90825920000003 197.99999999999997L263.90825920000003 163.74999999999997">
</path>
<path stroke-width="0.3" fill="#000000" stroke="none" stroke-dasharray="none" d="M157.86071679999998 162.99999999999997L157.86071679999998 167.99999999999997L264.15825920000003 167.99999999999997L264.15825920000003 162.99999999999997Z">
</path>
<path stroke-width="0.3" fill="#000000" stroke="none" stroke-dasharray="none" d="M157.86071679999998 170.49999999999997L157.86071679999998 175.49999999999997L264.15825920000003 175.49999999999997L264.15825920000003 170.49999999999997Z">
</path>
<path stroke-width="1.5" fill="none" stroke="#000000" stroke-dasharray="none" d="M324.8715168 197.99999999999997L324.8715168 163.74999999999997">
</path>
<path stroke-width="1.5" fill="none" stroke="#000000" stroke-dasharray="none" d="M359.9706976 197.99999999999997L359.9706976 163.74999999999997">
</path>
<path stroke-width="1.5" fill="none" stroke="#000000" stroke-dasharray="none" d="M395.0698784 197.99999999999997L395.0698784 163.74999999999997">
</path>
<path stroke-width="1.5" fill="none" stroke="#000000" stroke-dasharray="none" d="M430.1690592 197.99999999999997L430.1690592 163.74999999999997">
</path>
<path stroke-width="0.3" fill="#000000" stroke="none" stroke-dasharray="none" d="M324.1215168 162.99999999999997L324.1215168 167.99999999999997L430.4190592 167.99999999999997L430.4190592 162.99999999999997Z">
</path>
<path stroke-width="0.3" fill="#000000" stroke="none" stroke-dasharray="none" d="M324.1215168 170.49999999999997L324.1215168 175.49999999999997L430.4190592 175.49999999999997L430.4190592 170.49999999999997Z">
</path>
<path stroke-width="1" fill="none" stroke="black" stroke-dasharray="none" d="M452.66854758399984 197.99999999999997L1157.5837455359997 197.99999999999997">
</path>
<rect stroke-width="0.3" fill="black" stroke="black" stroke-dasharray="none" x="1152.5837455359997" y="177.49999999999997" width="1" height="41">
</rect>
<rect stroke-width="0.3" fill="black" stroke="black" stroke-dasharray="none" x="1155.5837455359997" y="177.49999999999997" width="3" height="41">
</rect>
<path stroke-width="0.3" fill="black" stroke="none" stroke-dasharray="none" d="M1151.5837455359997 193.49999999999997 A2 2 0 0 0 1147.5837455359997 193.49999999999997M1147.5837455359997 193.49999999999997 A2 2 0 0 0 1151.5837455359997 193.49999999999997">
</path>
<path stroke-width="0.3" fill="black" stroke="none" stroke-dasharray="none" d="M1151.5837455359997 203.49999999999997 A2 2 0 0 0 1147.5837455359997 203.49999999999997M1147.5837455359997 203.49999999999997 A2 2 0 0 0 1151.5837455359997 203.49999999999997">
</path>
<path stroke-width="0.3" fill="black" stroke="none" stroke-dasharray="none" d="M457.66854758399984 197.99999999999997M462.6797475839998 179.65439999999998C462.70854758399986 179.62559999999996,463.11174758399983 179.62559999999996,464.35014758399984 179.62559999999996C464.7245475839998 179.62559999999996,465.12774758399985 179.62559999999996,465.64614758399983 179.62559999999996L468.5549475839998 179.62559999999996L468.64134758399985 179.71199999999996C468.78534758399985 179.79839999999996,468.8717475839998 179.94239999999996,468.8717475839998 180.05759999999998C468.8717475839998 180.23039999999997,468.78534758399985 180.34559999999996,468.67014758399984 180.46079999999998C468.64134758399985 180.54719999999998,468.3821475839998 180.77759999999998,468.20934758399983 181.03679999999997L466.68294758399986 182.79359999999997L464.7245475839998 185.01119999999997L463.68774758399985 186.19199999999998L462.13254758399984 187.97759999999997L460.0877475839998 190.31039999999996C459.74214758399984 190.74239999999998,459.36774758399986 191.08799999999997,459.36774758399986 191.08799999999997C459.36774758399986 191.08799999999997,459.36774758399986 191.08799999999997,459.36774758399986 191.08799999999997C459.36774758399986 191.14559999999997,459.6269475839998 191.14559999999997,462.0173475839998 191.14559999999997L464.63814758399985 191.14559999999997L464.63814758399985 189.27359999999996C464.63814758399985 187.37279999999998,464.63814758399985 187.34399999999997,464.66694758399984 187.31519999999998C464.7245475839998 187.22879999999998,464.98374758399984 186.91199999999998,465.9917475839998 185.73119999999997L466.39494758399985 185.29919999999998L466.7981475839998 184.86719999999997L467.40294758399983 184.08959999999996L468.03654758399983 183.42719999999997L468.35334758399983 183.02399999999997C468.46854758399985 182.85119999999998,468.64134758399985 182.82239999999996,468.78534758399985 182.82239999999996C468.95814758399985 182.82239999999996,469.10214758399985 182.90879999999999,469.1885475839998 183.05279999999996C469.21734758399987 183.13919999999996,469.21734758399987 183.19679999999997,469.21734758399987 185.32799999999997C469.21734758399987 185.81759999999997,469.21734758399987 186.42239999999998,469.21734758399987 187.14239999999998L469.21734758399987 191.14559999999997L469.93734758399984 191.14559999999997C470.59974758399983 191.14559999999997,470.6285475839998 191.14559999999997,470.71494758399984 191.17439999999996C470.9453475839998 191.26079999999996,471.06054758399983 191.49119999999996,471.06054758399983 191.75039999999998C471.06054758399983 191.89439999999996,471.03174758399985 192.06719999999999,470.91654758399983 192.18239999999997C470.74374758399983 192.32639999999998,470.71494758399984 192.32639999999998,469.93734758399984 192.32639999999998L469.21734758399987 192.32639999999998L469.21734758399987 192.81599999999997C469.24614758399986 194.28479999999996,469.5341475839998 194.86079999999998,470.65734758399987 195.46559999999997C471.06054758399983 195.66719999999998,471.14694758399986 195.72479999999996,471.14694758399986 196.01279999999997C471.14694758399986 196.21439999999998,471.0893475839998 196.30079999999998,470.9453475839998 196.41599999999997L470.85894758399985 196.44479999999996L466.91334758399984 196.44479999999996L462.9965475839998 196.44479999999996L462.91014758399984 196.41599999999997C462.73734758399985 196.30079999999998,462.70854758399986 196.21439999999998,462.70854758399986 196.01279999999997C462.70854758399986 195.72479999999996,462.73734758399985 195.66719999999998,463.16934758399987 195.46559999999997C464.29254758399986 194.86079999999998,464.5805475839998 194.28479999999996,464.5805475839998 192.81599999999997L464.5805475839998 192.32639999999998L461.26854758399986 192.32639999999998C460.66374758399985 192.38399999999996,460.17414758399985 192.38399999999996,459.7709475839998 192.38399999999996C457.95654758399985 192.38399999999996,457.92774758399986 192.32639999999998,457.8989475839998 192.32639999999998C457.7261475839998 192.26879999999997,457.66854758399984 192.09599999999998,457.66854758399984 191.89439999999996C457.66854758399984 191.89439999999996,457.66854758399984 191.89439999999996,457.66854758399984 191.89439999999996C457.66854758399984 191.69279999999998,457.66854758399984 191.69279999999998,458.24454758399986 191.0304C460.66374758399985 188.09279999999998,462.3629475839998 183.83039999999997,462.3629475839998 180.43199999999996C462.3629475839998 179.91359999999997,462.44934758399984 179.74079999999998,462.6797475839998 179.65439999999998M464.4077475839998 198.02879999999996L464.4365475839998 198.02879999999996L464.35014758399984 198.02879999999996L464.4077475839998 198.02879999999996M464.4077475839998 178.61759999999998L464.4365475839998 178.61759999999998L464.35014758399984 178.61759999999998L464.4077475839998 178.61759999999998">
</path>
<path stroke-width="0.3" fill="black" stroke="none" stroke-dasharray="none" d="M457.66854758399984 217.99999999999997M462.6797475839998 199.65439999999998C462.70854758399986 199.62559999999996,463.11174758399983 199.62559999999996,464.35014758399984 199.62559999999996C464.7245475839998 199.62559999999996,465.12774758399985 199.62559999999996,465.64614758399983 199.62559999999996L468.5549475839998 199.62559999999996L468.64134758399985 199.71199999999996C468.78534758399985 199.79839999999996,468.8717475839998 199.94239999999996,468.8717475839998 200.05759999999998C468.8717475839998 200.23039999999997,468.78534758399985 200.34559999999996,468.67014758399984 200.46079999999998C468.64134758399985 200.54719999999998,468.3821475839998 200.77759999999998,468.20934758399983 201.03679999999997L466.68294758399986 202.79359999999997L464.7245475839998 205.01119999999997L463.68774758399985 206.19199999999998L462.13254758399984 207.97759999999997L460.0877475839998 210.31039999999996C459.74214758399984 210.74239999999998,459.36774758399986 211.08799999999997,459.36774758399986 211.08799999999997C459.36774758399986 211.08799999999997,459.36774758399986 211.08799999999997,459.36774758399986 211.08799999999997C459.36774758399986 211.14559999999997,459.6269475839998 211.14559999999997,462.0173475839998 211.14559999999997L464.63814758399985 211.14559999999997L464.63814758399985 209.27359999999996C464.63814758399985 207.37279999999998,464.63814758399985 207.34399999999997,464.66694758399984 207.31519999999998C464.7245475839998 207.22879999999998,464.98374758399984 206.91199999999998,465.9917475839998 205.73119999999997L466.39494758399985 205.29919999999998L466.7981475839998 204.86719999999997L467.40294758399983 204.08959999999996L468.03654758399983 203.42719999999997L468.35334758399983 203.02399999999997C468.46854758399985 202.85119999999998,468.64134758399985 202.82239999999996,468.78534758399985 202.82239999999996C468.95814758399985 202.82239999999996,469.10214758399985 202.90879999999999,469.1885475839998 203.05279999999996C469.21734758399987 203.13919999999996,469.21734758399987 203.19679999999997,469.21734758399987 205.32799999999997C469.21734758399987 205.81759999999997,469.21734758399987 206.42239999999998,469.21734758399987 207.14239999999998L469.21734758399987 211.14559999999997L469.93734758399984 211.14559999999997C470.59974758399983 211.14559999999997,470.6285475839998 211.14559999999997,470.71494758399984 211.17439999999996C470.9453475839998 211.26079999999996,471.06054758399983 211.49119999999996,471.06054758399983 211.75039999999998C471.06054758399983 211.89439999999996,471.03174758399985 212.06719999999999,470.91654758399983 212.18239999999997C470.74374758399983 212.32639999999998,470.71494758399984 212.32639999999998,469.93734758399984 212.32639999999998L469.21734758399987 212.32639999999998L469.21734758399987 212.81599999999997C469.24614758399986 214.28479999999996,469.5341475839998 214.86079999999998,470.65734758399987 215.46559999999997C471.06054758399983 215.66719999999998,471.14694758399986 215.72479999999996,471.14694758399986 216.01279999999997C471.14694758399986 216.21439999999998,471.0893475839998 216.30079999999998,470.9453475839998 216.41599999999997L470.85894758399985 216.44479999999996L466.91334758399984 216.44479999999996L462.9965475839998 216.44479999999996L462.91014758399984 216.41599999999997C462.73734758399985 216.30079999999998,462.70854758399986 216.21439999999998,462.70854758399986 216.01279999999997C462.70854758399986 215.72479999999996,462.73734758399985 215.66719999999998,463.16934758399987 215.46559999999997C464.29254758399986 214.86079999999998,464.5805475839998 214.28479999999996,464.5805475839998 212.81599999999997L464.5805475839998 212.32639999999998L461.26854758399986 212.32639999999998C460.66374758399985 212.38399999999996,460.17414758399985 212.38399999999996,459.7709475839998 212.38399999999996C457.95654758399985 212.38399999999996,457.92774758399986 212.32639999999998,457.8989475839998 212.32639999999998C457.7261475839998 212.26879999999997,457.66854758399984 212.09599999999998,457.66854758399984 211.89439999999996C457.66854758399984 211.89439999999996,457.66854758399984 211.89439999999996,457.66854758399984 211.89439999999996C457.66854758399984 211.69279999999998,457.66854758399984 211.69279999999998,458.24454758399986 211.0304C460.66374758399985 208.09279999999998,462.3629475839998 203.83039999999997,462.3629475839998 200.43199999999996C462.3629475839998 199.91359999999997,462.44934758399984 199.74079999999998,462.6797475839998 199.65439999999998M464.4077475839998 218.02879999999996L464.4365475839998 218.02879999999996L464.35014758399984 218.02879999999996L464.4077475839998 218.02879999999996M464.4077475839998 198.61759999999998L464.4365475839998 198.61759999999998L464.35014758399984 198.61759999999998L464.4077475839998 198.61759999999998">
</path>
<g class="vf-stavenote" id="vf-auto73740">
<g class="vf-note" pointer-events="bounding-box">
<g class="vf-notehead" pointer-events="bounding-box">
<path stroke-width="0.3" fill="#000000" stroke="none" stroke-dasharray="none" d="M509.0110243839999 197.99999999999997M516.3679843839999 192.77711999999997C516.4803043839999 192.77711999999997,516.6487843839999 192.77711999999997,516.6768643839998 192.77711999999997C516.6768643839998 192.77711999999997,516.7049443839999 192.77711999999997,516.7049443839999 192.77711999999997C516.7049443839999 192.77711999999997,516.8734243839999 192.77711999999997,517.0138243839999 192.77711999999997C519.5410243839999 192.91751999999997,521.0292643839999 194.57423999999997,521.0292643839999 196.65215999999998C521.0292643839999 197.66303999999997,520.6923043839998 198.81431999999998,519.8499043839998 199.90943999999996C518.2493443839999 202.07159999999996,515.6379043839999 203.25095999999996,513.3634243839999 203.25095999999996C511.5943843839999 203.25095999999996,510.0780643839999 202.54895999999997,509.34798438399986 201.11687999999998C509.1233443839999 200.55527999999998,509.0110243839999 200.02175999999997,509.0110243839999 199.43207999999998C509.0110243839999 196.37135999999998,512.4367843839999 192.97367999999997,516.3679843839999 192.77711999999997">
</path>
</g>
</g>
<g class="vf-modifiers">
<g class="vf-stavenote" id="vf-auto73750">
<g class="vf-note" pointer-events="bounding-box">
<g class="vf-stem" pointer-events="bounding-box">
<path stroke-width="1.5" fill="none" stroke="#000000" stroke-dasharray="none" d="M490.32898598399987 197.99999999999997L490.32898598399987 174.89999999999998">
</path>
</g>
<g class="vf-notehead" pointer-events="bounding-box">
<path stroke-width="0.3" fill="#000000" stroke="none" stroke-dasharray="none" d="M483.14694758399986 197.99999999999997M488.0025411839999 194.55289919999998C488.07667238399983 194.55289919999998,488.18786918399985 194.55289919999998,488.20640198399985 194.55289919999998C488.20640198399985 194.55289919999998,488.22493478399986 194.55289919999998,488.22493478399986 194.55289919999998C488.22493478399986 194.55289919999998,488.3361315839999 194.55289919999998,488.4287955839999 194.55289919999998C490.09674758399984 194.64556319999997,491.07898598399987 195.73899839999996,491.07898598399987 197.11042559999999C491.07898598399987 197.77760639999997,490.85659238399984 198.53745119999996,490.3006083839999 199.26023039999998C489.2442387839999 200.68725599999996,487.52068838399987 201.46563359999996,486.0195315839999 201.46563359999996C484.8519651839999 201.46563359999996,483.85119398399985 201.00231359999998,483.36934118399984 200.05714079999998C483.22107878399987 199.68648479999996,483.14694758399986 199.33436159999997,483.14694758399986 198.94517279999997C483.14694758399986 196.92509759999996,485.40794918399985 194.68262879999997,488.0025411839999 194.55289919999998">
</path>
</g>
<g class="vf-flag" pointer-events="bounding-box">
<path stroke-width="0.3" fill="#000000" stroke="none" stroke-dasharray="none" d="M490.32898598399987 172.89999999999998M489.88419878399986 175.88378079999998L489.88419878399986 172.992664L489.9583299839999 172.992664C490.16219078399985 172.992664,490.29192038399987 173.12239359999998,490.32898598399987 173.34478719999998C490.71817478399987 175.19806719999997,491.88574118399987 177.21814239999998,493.4980947839999 178.73783199999997C495.29577638399985 180.42431679999999,496.20388358399987 182.74091679999998,496.20388358399987 185.13164799999998C496.20388358399987 187.39264959999997,495.40697318399987 189.74631519999997,493.79461958399986 191.69225919999997C493.5166275839999 192.06291519999996,493.4980947839999 192.06291519999996,493.31276678399985 192.06291519999996C493.0903731839999 192.06291519999996,492.94211078399985 191.89611999999997,492.94211078399985 191.67372639999996C492.94211078399985 191.50693119999997,492.96064358399985 191.4698656,493.1459715839999 191.2660048C494.55446438399986 189.56098719999997,495.25871078399985 187.5038464,495.25871078399985 185.5393696C495.25871078399985 183.7972864,494.7027267839999 182.12933439999998,493.5536931839999 180.86910399999996C492.8494467839999 180.09072639999997,491.5521507839999 179.34941439999997,489.90273158399987 178.77489759999997C489.90273158399987 178.75636479999997,489.88419878399986 178.18184799999997,489.88419878399986 175.88378079999998">
</path>
</g>
</g>
<g class="vf-modifiers">
</g>
</g>
<path stroke-width="1" fill="none" stroke="#000000" stroke-dasharray="none" d="M484.14694758399986 189.74999999999997L497.14694758399986 180.74999999999997Z">
</path>
</g>
</g>
<g class="vf-stavenote" id="vf-auto73764">
<g class="vf-note" pointer-events="bounding-box">
<g class="vf-notehead" pointer-events="bounding-box">
<path stroke-width="0.3" fill="#000000" stroke="none" stroke-dasharray="none" d="M541.5320955839999 197.99999999999997M548.8890555839998 192.77711999999997C549.0013755839999 192.77711999999997,549.1698555839998 192.77711999999997,549.1979355839999 192.77711999999997C549.1979355839999 192.77711999999997,549.2260155839999 192.77711999999997,549.2260155839999 192.77711999999997C549.2260155839999 192.77711999999997,549.3944955839999 192.77711999999997,549.5348955839999 192.77711999999997C552.0620955839998 192.91751999999997,553.5503355839999 194.57423999999997,553.5503355839999 196.65215999999998C553.5503355839999 197.66303999999997,553.2133755839999 198.81431999999998,552.3709755839999 199.90943999999996C550.7704155839999 202.07159999999996,548.1589755839999 203.25095999999996,545.8844955839999 203.25095999999996C544.1154555839998 203.25095999999996,542.5991355839999 202.54895999999997,541.8690555839999 201.11687999999998C541.6444155839998 200.55527999999998,541.5320955839999 200.02175999999997,541.5320955839999 199.43207999999998C541.5320955839999 196.37135999999998,544.9578555839998 192.97367999999997,548.8890555839998 192.77711999999997">
</path>
</g>
</g>
<g class="vf-modifiers">
</g>
</g>
<g class="vf-stavenote" id="vf-auto73774">
<g class="vf-note" pointer-events="bounding-box">
<g class="vf-notehead" pointer-events="bounding-box">
<path stroke-width="0.3" fill="#000000" stroke="none" stroke-dasharray="none" d="M599.9172435839998 197.99999999999997M607.2742035839998 192.77711999999997C607.3865235839999 192.77711999999997,607.5550035839998 192.77711999999997,607.5830835839998 192.77711999999997C607.5830835839998 192.77711999999997,607.6111635839999 192.77711999999997,607.6111635839999 192.77711999999997C607.6111635839999 192.77711999999997,607.7796435839998 192.77711999999997,607.9200435839998 192.77711999999997C610.4472435839998 192.91751999999997,611.9354835839998 194.57423999999997,611.9354835839998 196.65215999999998C611.9354835839998 197.66303999999997,611.5985235839998 198.81431999999998,610.7561235839999 199.90943999999996C609.1555635839999 202.07159999999996,606.5441235839999 203.25095999999996,604.2696435839998 203.25095999999996C602.5006035839998 203.25095999999996,600.9842835839999 202.54895999999997,600.2542035839998 201.11687999999998C600.0295635839998 200.55527999999998,599.9172435839998 200.02175999999997,599.9172435839998 199.43207999999998C599.9172435839998 196.37135999999998,603.3430035839998 192.97367999999997,607.2742035839998 192.77711999999997">
</path>
</g>
</g>
<g class="vf-modifiers">
<g class="vf-stavenote" id="vf-auto73784">
<g class="vf-note" pointer-events="bounding-box">
<g class="vf-stem" pointer-events="bounding-box">
<path stroke-width="1.5" fill="none" stroke="#000000" stroke-dasharray="none" d="M581.2352051839998 197.99999999999997L581.2352051839998 174.89999999999998">
</path>
</g>
<g class="vf-notehead" pointer-events="bounding-box">
<path stroke-width="0.3" fill="#000000" stroke="none" stroke-dasharray="none" d="M574.0531667839998 197.99999999999997M578.9087603839998 194.55289919999998C578.9828915839998 194.55289919999998,579.0940883839999 194.55289919999998,579.1126211839999 194.55289919999998C579.1126211839999 194.55289919999998,579.1311539839999 194.55289919999998,579.1311539839999 194.55289919999998C579.1311539839999 194.55289919999998,579.2423507839998 194.55289919999998,579.3350147839998 194.55289919999998C581.0029667839998 194.64556319999997,581.9852051839998 195.73899839999996,581.9852051839998 197.11042559999999C581.9852051839998 197.77760639999997,581.7628115839998 198.53745119999996,581.2068275839998 199.26023039999998C580.1504579839998 200.68725599999996,578.4269075839998 201.46563359999996,576.9257507839998 201.46563359999996C575.7581843839998 201.46563359999996,574.7574131839998 201.00231359999998,574.2755603839998 200.05714079999998C574.1272979839998 199.68648479999996,574.0531667839998 199.33436159999997,574.0531667839998 198.94517279999997C574.0531667839998 196.92509759999996,576.3141683839998 194.68262879999997,578.9087603839998 194.55289919999998">
</path>
</g>
<g class="vf-flag" pointer-events="bounding-box">
<path stroke-width="0.3" fill="#000000" stroke="none" stroke-dasharray="none" d="M581.2352051839998 172.89999999999998M580.7904179839999 175.88378079999998L580.7904179839999 172.992664L580.8645491839998 172.992664C581.0684099839998 172.992664,581.1981395839998 173.12239359999998,581.2352051839998 173.34478719999998C581.6243939839999 175.19806719999997,582.7919603839998 177.21814239999998,584.4043139839998 178.73783199999997C586.2019955839999 180.42431679999999,587.1101027839999 182.74091679999998,587.1101027839999 185.13164799999998C587.1101027839999 187.39264959999997,586.3131923839999 189.74631519999997,584.7008387839999 191.69225919999997C584.4228467839998 192.06291519999996,584.4043139839998 192.06291519999996,584.2189859839998 192.06291519999996C583.9965923839998 192.06291519999996,583.8483299839999 191.89611999999997,583.8483299839999 191.67372639999996C583.8483299839999 191.50693119999997,583.8668627839999 191.4698656,584.0521907839998 191.2660048C585.4606835839999 189.56098719999997,586.1649299839999 187.5038464,586.1649299839999 185.5393696C586.1649299839999 183.7972864,585.6089459839998 182.12933439999998,584.4599123839998 180.86910399999996C583.7556659839998 180.09072639999997,582.4583699839998 179.34941439999997,580.8089507839999 178.77489759999997C580.8089507839999 178.75636479999997,580.7904179839999 178.18184799999997,580.7904179839999 175.88378079999998">
</path>
</g>
</g>
<g class="vf-modifiers">
</g>
</g>
<path stroke-width="1" fill="none" stroke="#000000" stroke-dasharray="none" d="M575.0531667839998 189.74999999999997L588.0531667839998 180.74999999999997Z">
</path>
</g>
</g>
<g class="vf-stavenote" id="vf-auto73798">
<g class="vf-note" pointer-events="bounding-box">
<g class="vf-notehead" pointer-events="bounding-box">
<path stroke-width="0.3" fill="#000000" stroke="none" stroke-dasharray="none" d="M632.4383147839999 197.99999999999997M639.7952747839998 192.77711999999997C639.9075947839999 192.77711999999997,640.0760747839998 192.77711999999997,640.1041547839999 192.77711999999997C640.1041547839999 192.77711999999997,640.1322347839999 192.77711999999997,640.1322347839999 192.77711999999997C640.1322347839999 192.77711999999997,640.3007147839999 192.77711999999997,640.4411147839999 192.77711999999997C642.9683147839999 192.91751999999997,644.4565547839999 194.57423999999997,644.4565547839999 196.65215999999998C644.4565547839999 197.66303999999997,644.1195947839999 198.81431999999998,643.2771947839999 199.90943999999996C641.6766347839999 202.07159999999996,639.0651947839999 203.25095999999996,636.7907147839999 203.25095999999996C635.0216747839999 203.25095999999996,633.5053547839999 202.54895999999997,632.7752747839999 201.11687999999998C632.5506347839998 200.55527999999998,632.4383147839999 200.02175999999997,632.4383147839999 199.43207999999998C632.4383147839999 196.37135999999998,635.8640747839999 192.97367999999997,639.7952747839998 192.77711999999997">
</path>
</g>
</g>
<g class="vf-modifiers">
</g>
</g>
<g class="vf-stavenote" id="vf-auto73808">
<g class="vf-note" pointer-events="bounding-box">
<g class="vf-notehead" pointer-events="bounding-box">
<path stroke-width="0.3" fill="#000000" stroke="none" stroke-dasharray="none" d="M690.8234627839998 197.99999999999997M698.1804227839998 192.77711999999997C698.2927427839999 192.77711999999997,698.4612227839998 192.77711999999997,698.4893027839998 192.77711999999997C698.4893027839998 192.77711999999997,698.5173827839999 192.77711999999997,698.5173827839999 192.77711999999997C698.5173827839999 192.77711999999997,698.6858627839998 192.77711999999997,698.8262627839998 192.77711999999997C701.3534627839998 192.91751999999997,702.8417027839998 194.57423999999997,702.8417027839998 196.65215999999998C702.8417027839998 197.66303999999997,702.5047427839999 198.81431999999998,701.6623427839999 199.90943999999996C700.0617827839999 202.07159999999996,697.4503427839999 203.25095999999996,695.1758627839998 203.25095999999996C693.4068227839998 203.25095999999996,691.8905027839999 202.54895999999997,691.1604227839998 201.11687999999998C690.9357827839998 200.55527999999998,690.8234627839998 200.02175999999997,690.8234627839998 199.43207999999998C690.8234627839998 196.37135999999998,694.2492227839998 192.97367999999997,698.1804227839998 192.77711999999997">
</path>
</g>
</g>
<g class="vf-modifiers">
<g class="vf-stavenote" id="vf-auto73818">
<g class="vf-note" pointer-events="bounding-box">
<g class="vf-stem" pointer-events="bounding-box">
<path stroke-width="1.5" fill="none" stroke="#000000" stroke-dasharray="none" d="M672.141424384 197.99999999999997L672.141424384 174.89999999999998">
</path>
</g>
<g class="vf-notehead" pointer-events="bounding-box">
<path stroke-width="0.3" fill="#000000" stroke="none" stroke-dasharray="none" d="M664.9593859839999 197.99999999999997M669.814979584 194.55289919999998C669.889110784 194.55289919999998,670.000307584 194.55289919999998,670.018840384 194.55289919999998C670.018840384 194.55289919999998,670.037373184 194.55289919999998,670.037373184 194.55289919999998C670.037373184 194.55289919999998,670.1485699839999 194.55289919999998,670.2412339839999 194.55289919999998C671.9091859839999 194.64556319999997,672.891424384 195.73899839999996,672.891424384 197.11042559999999C672.891424384 197.77760639999997,672.6690307839999 198.53745119999996,672.113046784 199.26023039999998C671.0566771839999 200.68725599999996,669.3331267839999 201.46563359999996,667.8319699839999 201.46563359999996C666.664403584 201.46563359999996,665.6636323839999 201.00231359999998,665.181779584 200.05714079999998C665.033517184 199.68648479999996,664.9593859839999 199.33436159999997,664.9593859839999 198.94517279999997C664.9593859839999 196.92509759999996,667.2203875839999 194.68262879999997,669.814979584 194.55289919999998">
</path>
</g>
<g class="vf-flag" pointer-events="bounding-box">
<path stroke-width="0.3" fill="#000000" stroke="none" stroke-dasharray="none" d="M672.141424384 172.89999999999998M671.696637184 175.88378079999998L671.696637184 172.992664L671.7707683839999 172.992664C671.9746291839999 172.992664,672.1043587839999 173.12239359999998,672.141424384 173.34478719999998C672.530613184 175.19806719999997,673.698179584 177.21814239999998,675.310533184 178.73783199999997C677.108214784 180.42431679999999,678.016321984 182.74091679999998,678.016321984 185.13164799999998C678.016321984 187.39264959999997,677.219411584 189.74631519999997,675.607057984 191.69225919999997C675.329065984 192.06291519999996,675.310533184 192.06291519999996,675.1252051839999 192.06291519999996C674.9028115839999 192.06291519999996,674.754549184 191.89611999999997,674.754549184 191.67372639999996C674.754549184 191.50693119999997,674.773081984 191.4698656,674.9584099839999 191.2660048C676.366902784 189.56098719999997,677.071149184 187.5038464,677.071149184 185.5393696C677.071149184 183.7972864,676.5151651839999 182.12933439999998,675.366131584 180.86910399999996C674.661885184 180.09072639999997,673.3645891839999 179.34941439999997,671.715169984 178.77489759999997C671.715169984 178.75636479999997,671.696637184 178.18184799999997,671.696637184 175.88378079999998">
</path>
</g>
</g>
<g class="vf-modifiers">
</g>
</g>
<path stroke-width="1" fill="none" stroke="#000000" stroke-dasharray="none" d="M665.9593859839999 189.74999999999997L678.9593859839999 180.74999999999997Z">
</path>
</g>
</g>
<g class="vf-stavenote" id="vf-auto73832">
<g class="vf-note" pointer-events="bounding-box">
<g class="vf-notehead" pointer-events="bounding-box">
<path stroke-width="0.3" fill="#000000" stroke="none" stroke-dasharray="none" d="M723.3445339839999 197.99999999999997M730.7014939839999 192.77711999999997C730.8138139839999 192.77711999999997,730.9822939839999 192.77711999999997,731.0103739839999 192.77711999999997C731.0103739839999 192.77711999999997,731.038453984 192.77711999999997,731.038453984 192.77711999999997C731.038453984 192.77711999999997,731.2069339839999 192.77711999999997,731.3473339839999 192.77711999999997C733.8745339839999 192.91751999999997,735.3627739839999 194.57423999999997,735.3627739839999 196.65215999999998C735.3627739839999 197.66303999999997,735.0258139839999 198.81431999999998,734.1834139839999 199.90943999999996C732.5828539839999 202.07159999999996,729.9714139839999 203.25095999999996,727.6969339839999 203.25095999999996C725.9278939839999 203.25095999999996,724.4115739839999 202.54895999999997,723.6814939839999 201.11687999999998C723.4568539839998 200.55527999999998,723.3445339839999 200.02175999999997,723.3445339839999 199.43207999999998C723.3445339839999 196.37135999999998,726.7702939839999 192.97367999999997,730.7014939839999 192.77711999999997">
</path>
</g>
</g>
<g class="vf-modifiers">
</g>
</g>
<g class="vf-stavenote" id="vf-auto73842">
<g class="vf-note" pointer-events="bounding-box">
<g class="vf-notehead" pointer-events="bounding-box">
<path stroke-width="0.3" fill="#000000" stroke="none" stroke-dasharray="none" d="M781.7296819839999 197.99999999999997M789.0866419839998 192.77711999999997C789.1989619839999 192.77711999999997,789.3674419839998 192.77711999999997,789.3955219839999 192.77711999999997C789.3955219839999 192.77711999999997,789.4236019839999 192.77711999999997,789.4236019839999 192.77711999999997C789.4236019839999 192.77711999999997,789.5920819839998 192.77711999999997,789.7324819839998 192.77711999999997C792.2596819839998 192.91751999999997,793.7479219839998 194.57423999999997,793.7479219839998 196.65215999999998C793.7479219839998 197.66303999999997,793.4109619839999 198.81431999999998,792.5685619839999 199.90943999999996C790.9680019839999 202.07159999999996,788.3565619839999 203.25095999999996,786.0820819839998 203.25095999999996C784.3130419839998 203.25095999999996,782.7967219839999 202.54895999999997,782.0666419839998 201.11687999999998C781.8420019839998 200.55527999999998,781.7296819839999 200.02175999999997,781.7296819839999 199.43207999999998C781.7296819839999 196.37135999999998,785.1554419839998 192.97367999999997,789.0866419839998 192.77711999999997">
</path>
</g>
</g>
<g class="vf-modifiers">
<g class="vf-stavenote" id="vf-auto73852">
<g class="vf-note" pointer-events="bounding-box">
<g class="vf-stem" pointer-events="bounding-box">
<path stroke-width="1.5" fill="none" stroke="#000000" stroke-dasharray="none" d="M763.0476435839998 197.99999999999997L763.0476435839998 174.89999999999998">
</path>
</g>
<g class="vf-notehead" pointer-events="bounding-box">
<path stroke-width="0.3" fill="#000000" stroke="none" stroke-dasharray="none" d="M755.8656051839998 197.99999999999997M760.7211987839999 194.55289919999998C760.7953299839999 194.55289919999998,760.9065267839999 194.55289919999998,760.9250595839999 194.55289919999998C760.9250595839999 194.55289919999998,760.9435923839999 194.55289919999998,760.9435923839999 194.55289919999998C760.9435923839999 194.55289919999998,761.0547891839998 194.55289919999998,761.1474531839998 194.55289919999998C762.8154051839998 194.64556319999997,763.7976435839998 195.73899839999996,763.7976435839998 197.11042559999999C763.7976435839998 197.77760639999997,763.5752499839998 198.53745119999996,763.0192659839998 199.26023039999998C761.9628963839998 200.68725599999996,760.2393459839998 201.46563359999996,758.7381891839998 201.46563359999996C757.5706227839999 201.46563359999996,756.5698515839998 201.00231359999998,756.0879987839999 200.05714079999998C755.9397363839998 199.68648479999996,755.8656051839998 199.33436159999997,755.8656051839998 198.94517279999997C755.8656051839998 196.92509759999996,758.1266067839998 194.68262879999997,760.7211987839999 194.55289919999998">
</path>
</g>
<g class="vf-flag" pointer-events="bounding-box">
<path stroke-width="0.3" fill="#000000" stroke="none" stroke-dasharray="none" d="M763.0476435839998 172.89999999999998M762.6028563839999 175.88378079999998L762.6028563839999 172.992664L762.6769875839998 172.992664C762.8808483839998 172.992664,763.0105779839998 173.12239359999998,763.0476435839998 173.34478719999998C763.4368323839999 175.19806719999997,764.6043987839998 177.21814239999998,766.2167523839998 178.73783199999997C768.0144339839999 180.42431679999999,768.9225411839999 182.74091679999998,768.9225411839999 185.13164799999998C768.9225411839999 187.39264959999997,768.1256307839999 189.74631519999997,766.5132771839999 191.69225919999997C766.2352851839998 192.06291519999996,766.2167523839998 192.06291519999996,766.0314243839998 192.06291519999996C765.8090307839998 192.06291519999996,765.6607683839999 191.89611999999997,765.6607683839999 191.67372639999996C765.6607683839999 191.50693119999997,765.6793011839999 191.4698656,765.8646291839998 191.2660048C767.2731219839999 189.56098719999997,767.9773683839999 187.5038464,767.9773683839999 185.5393696C767.9773683839999 183.7972864,767.4213843839998 182.12933439999998,766.2723507839999 180.86910399999996C765.5681043839999 180.09072639999997,764.2708083839998 179.34941439999997,762.6213891839999 178.77489759999997C762.6213891839999 178.75636479999997,762.6028563839999 178.18184799999997,762.6028563839999 175.88378079999998">
</path>
</g>
</g>
<g class="vf-modifiers">
</g>
</g>
<path stroke-width="1" fill="none" stroke="#000000" stroke-dasharray="none" d="M756.8656051839998 189.74999999999997L769.8656051839998 180.74999999999997Z">
</path>
</g>
</g>
<g class="vf-stavenote" id="vf-auto73866">
<g class="vf-note" pointer-events="bounding-box">
<g class="vf-notehead" pointer-events="bounding-box">
<path stroke-width="0.3" fill="#000000" stroke="none" stroke-dasharray="none" d="M814.2507531839999 197.99999999999997M821.6077131839999 192.77711999999997C821.7200331839999 192.77711999999997,821.8885131839999 192.77711999999997,821.9165931839999 192.77711999999997C821.9165931839999 192.77711999999997,821.944673184 192.77711999999997,821.944673184 192.77711999999997C821.944673184 192.77711999999997,822.1131531839999 192.77711999999997,822.2535531839999 192.77711999999997C824.7807531839999 192.91751999999997,826.2689931839999 194.57423999999997,826.2689931839999 196.65215999999998C826.2689931839999 197.66303999999997,825.9320331839999 198.81431999999998,825.0896331839999 199.90943999999996C823.489073184 202.07159999999996,820.8776331839999 203.25095999999996,818.6031531839999 203.25095999999996C816.8341131839999 203.25095999999996,815.3177931839999 202.54895999999997,814.5877131839999 201.11687999999998C814.3630731839999 200.55527999999998,814.2507531839999 200.02175999999997,814.2507531839999 199.43207999999998C814.2507531839999 196.37135999999998,817.6765131839999 192.97367999999997,821.6077131839999 192.77711999999997">
</path>
</g>
</g>
<g class="vf-modifiers">
</g>
</g>
<g class="vf-stavenote" id="vf-auto73876">
<g class="vf-note" pointer-events="bounding-box">
<g class="vf-notehead" pointer-events="bounding-box">
<path stroke-width="0.3" fill="#000000" stroke="none" stroke-dasharray="none" d="M872.6359011839997 197.99999999999997M879.9928611839997 192.77711999999997C880.1051811839998 192.77711999999997,880.2736611839997 192.77711999999997,880.3017411839998 192.77711999999997C880.3017411839998 192.77711999999997,880.3298211839998 192.77711999999997,880.3298211839998 192.77711999999997C880.3298211839998 192.77711999999997,880.4983011839997 192.77711999999997,880.6387011839997 192.77711999999997C883.1659011839997 192.91751999999997,884.6541411839997 194.57423999999997,884.6541411839997 196.65215999999998C884.6541411839997 197.66303999999997,884.3171811839998 198.81431999999998,883.4747811839998 199.90943999999996C881.8742211839998 202.07159999999996,879.2627811839998 203.25095999999996,876.9883011839997 203.25095999999996C875.2192611839997 203.25095999999996,873.7029411839998 202.54895999999997,872.9728611839997 201.11687999999998C872.7482211839997 200.55527999999998,872.6359011839997 200.02175999999997,872.6359011839997 199.43207999999998C872.6359011839997 196.37135999999998,876.0616611839997 192.97367999999997,879.9928611839997 192.77711999999997">
</path>
</g>
</g>
<g class="vf-modifiers">
<g class="vf-stavenote" id="vf-auto73886">
<g class="vf-note" pointer-events="bounding-box">
<g class="vf-stem" pointer-events="bounding-box">
<path stroke-width="1.5" fill="none" stroke="#000000" stroke-dasharray="none" d="M853.9538627839997 197.99999999999997L853.9538627839997 174.89999999999998">
</path>
</g>
<g class="vf-notehead" pointer-events="bounding-box">
<path stroke-width="0.3" fill="#000000" stroke="none" stroke-dasharray="none" d="M846.7718243839997 197.99999999999997M851.6274179839997 194.55289919999998C851.7015491839998 194.55289919999998,851.8127459839998 194.55289919999998,851.8312787839998 194.55289919999998C851.8312787839998 194.55289919999998,851.8498115839998 194.55289919999998,851.8498115839998 194.55289919999998C851.8498115839998 194.55289919999998,851.9610083839997 194.55289919999998,852.0536723839997 194.55289919999998C853.7216243839997 194.64556319999997,854.7038627839997 195.73899839999996,854.7038627839997 197.11042559999999C854.7038627839997 197.77760639999997,854.4814691839997 198.53745119999996,853.9254851839997 199.26023039999998C852.8691155839997 200.68725599999996,851.1455651839997 201.46563359999996,849.6444083839997 201.46563359999996C848.4768419839997 201.46563359999996,847.4760707839997 201.00231359999998,846.9942179839998 200.05714079999998C846.8459555839997 199.68648479999996,846.7718243839997 199.33436159999997,846.7718243839997 198.94517279999997C846.7718243839997 196.92509759999996,849.0328259839997 194.68262879999997,851.6274179839997 194.55289919999998">
</path>
</g>
<g class="vf-flag" pointer-events="bounding-box">
<path stroke-width="0.3" fill="#000000" stroke="none" stroke-dasharray="none" d="M853.9538627839997 172.89999999999998M853.5090755839998 175.88378079999998L853.5090755839998 172.992664L853.5832067839997 172.992664C853.7870675839997 172.992664,853.9167971839997 173.12239359999998,853.9538627839997 173.34478719999998C854.3430515839998 175.19806719999997,855.5106179839997 177.21814239999998,857.1229715839997 178.73783199999997C858.9206531839998 180.42431679999999,859.8287603839998 182.74091679999998,859.8287603839998 185.13164799999998C859.8287603839998 187.39264959999997,859.0318499839998 189.74631519999997,857.4194963839998 191.69225919999997C857.1415043839997 192.06291519999996,857.1229715839997 192.06291519999996,856.9376435839997 192.06291519999996C856.7152499839997 192.06291519999996,856.5669875839998 191.89611999999997,856.5669875839998 191.67372639999996C856.5669875839998 191.50693119999997,856.5855203839998 191.4698656,856.7708483839997 191.2660048C858.1793411839998 189.56098719999997,858.8835875839998 187.5038464,858.8835875839998 185.5393696C858.8835875839998 183.7972864,858.3276035839997 182.12933439999998,857.1785699839998 180.86910399999996C856.4743235839998 180.09072639999997,855.1770275839997 179.34941439999997,853.5276083839998 178.77489759999997C853.5276083839998 178.75636479999997,853.5090755839998 178.18184799999997,853.5090755839998 175.88378079999998">
</path>
</g>
</g>
<g class="vf-modifiers">
</g>
</g>
<path stroke-width="1" fill="none" stroke="#000000" stroke-dasharray="none" d="M847.7718243839997 189.74999999999997L860.7718243839997 180.74999999999997Z">
</path>
</g>
</g>
<g class="vf-stavenote" id="vf-auto73900">
<g class="vf-note" pointer-events="bounding-box">
<g class="vf-notehead" pointer-events="bounding-box">
<path stroke-width="0.3" fill="#000000" stroke="none" stroke-dasharray="none" d="M905.1569723839998 197.99999999999997M912.5139323839998 192.77711999999997C912.6262523839998 192.77711999999997,912.7947323839998 192.77711999999997,912.8228123839998 192.77711999999997C912.8228123839998 192.77711999999997,912.8508923839998 192.77711999999997,912.8508923839998 192.77711999999997C912.8508923839998 192.77711999999997,913.0193723839998 192.77711999999997,913.1597723839998 192.77711999999997C915.6869723839998 192.91751999999997,917.1752123839998 194.57423999999997,917.1752123839998 196.65215999999998C917.1752123839998 197.66303999999997,916.8382523839998 198.81431999999998,915.9958523839998 199.90943999999996C914.3952923839998 202.07159999999996,911.7838523839998 203.25095999999996,909.5093723839998 203.25095999999996C907.7403323839998 203.25095999999996,906.2240123839998 202.54895999999997,905.4939323839998 201.11687999999998C905.2692923839998 200.55527999999998,905.1569723839998 200.02175999999997,905.1569723839998 199.43207999999998C905.1569723839998 196.37135999999998,908.5827323839998 192.97367999999997,912.5139323839998 192.77711999999997">
</path>
</g>
</g>
<g class="vf-modifiers">
</g>
</g>
<g class="vf-stavenote" id="vf-auto73910">
<g class="vf-note" pointer-events="bounding-box">
<g class="vf-notehead" pointer-events="bounding-box">
<path stroke-width="0.3" fill="#000000" stroke="none" stroke-dasharray="none" d="M937.6780435839999 197.99999999999997M945.0350035839998 192.77711999999997C945.1473235839999 192.77711999999997,945.3158035839998 192.77711999999997,945.3438835839999 192.77711999999997C945.3438835839999 192.77711999999997,945.3719635839999 192.77711999999997,945.3719635839999 192.77711999999997C945.3719635839999 192.77711999999997,945.5404435839998 192.77711999999997,945.6808435839998 192.77711999999997C948.2080435839998 192.91751999999997,949.6962835839998 194.57423999999997,949.6962835839998 196.65215999999998C949.6962835839998 197.66303999999997,949.3593235839999 198.81431999999998,948.5169235839999 199.90943999999996C946.9163635839999 202.07159999999996,944.3049235839999 203.25095999999996,942.0304435839998 203.25095999999996C940.2614035839998 203.25095999999996,938.7450835839999 202.54895999999997,938.0150035839998 201.11687999999998C937.7903635839998 200.55527999999998,937.6780435839999 200.02175999999997,937.6780435839999 199.43207999999998C937.6780435839999 196.37135999999998,941.1038035839998 192.97367999999997,945.0350035839998 192.77711999999997">
</path>
</g>
</g>
<g class="vf-modifiers">
</g>
</g>
<g class="vf-stavenote" id="vf-auto73920">
<g class="vf-note" pointer-events="bounding-box">
<g class="vf-notehead" pointer-events="bounding-box">
<path stroke-width="0.3" fill="#000000" stroke="none" stroke-dasharray="none" d="M970.1991147839999 197.99999999999997M977.5560747839999 192.77711999999997C977.6683947839999 192.77711999999997,977.8368747839999 192.77711999999997,977.8649547839999 192.77711999999997C977.8649547839999 192.77711999999997,977.893034784 192.77711999999997,977.893034784 192.77711999999997C977.893034784 192.77711999999997,978.0615147839999 192.77711999999997,978.2019147839999 192.77711999999997C980.7291147839999 192.91751999999997,982.2173547839999 194.57423999999997,982.2173547839999 196.65215999999998C982.2173547839999 197.66303999999997,981.8803947839999 198.81431999999998,981.0379947839999 199.90943999999996C979.437434784 202.07159999999996,976.8259947839999 203.25095999999996,974.5515147839999 203.25095999999996C972.7824747839999 203.25095999999996,971.2661547839999 202.54895999999997,970.5360747839999 201.11687999999998C970.3114347839999 200.55527999999998,970.1991147839999 200.02175999999997,970.1991147839999 199.43207999999998C970.1991147839999 196.37135999999998,973.6248747839999 192.97367999999997,977.5560747839999 192.77711999999997">
</path>
</g>
</g>
<g class="vf-modifiers">
</g>
</g>
<g class="vf-stavenote" id="vf-auto73930">
<g class="vf-note" pointer-events="bounding-box">
<g class="vf-notehead" pointer-events="bounding-box">
<path stroke-width="0.3" fill="#000000" stroke="none" stroke-dasharray="none" d="M1028.5842627839997 197.99999999999997M1035.9412227839998 192.77711999999997C1036.0535427839998 192.77711999999997,1036.2220227839998 192.77711999999997,1036.2501027839996 192.77711999999997C1036.2501027839996 192.77711999999997,1036.2781827839997 192.77711999999997,1036.2781827839997 192.77711999999997C1036.2781827839997 192.77711999999997,1036.4466627839997 192.77711999999997,1036.5870627839997 192.77711999999997C1039.1142627839997 192.91751999999997,1040.6025027839999 194.57423999999997,1040.6025027839999 196.65215999999998C1040.6025027839999 197.66303999999997,1040.2655427839998 198.81431999999998,1039.4231427839998 199.90943999999996C1037.8225827839997 202.07159999999996,1035.2111427839998 203.25095999999996,1032.9366627839997 203.25095999999996C1031.1676227839998 203.25095999999996,1029.6513027839997 202.54895999999997,1028.9212227839998 201.11687999999998C1028.6965827839997 200.55527999999998,1028.5842627839997 200.02175999999997,1028.5842627839997 199.43207999999998C1028.5842627839997 196.37135999999998,1032.0100227839998 192.97367999999997,1035.9412227839998 192.77711999999997">
</path>
</g>
</g>
<g class="vf-modifiers">
<g class="vf-stavenote" id="vf-auto73940">
<g class="vf-note" pointer-events="bounding-box">
<g class="vf-stem" pointer-events="bounding-box">
<path stroke-width="1.5" fill="none" stroke="#000000" stroke-dasharray="none" d="M1009.9022243839997 197.99999999999997L1009.9022243839997 174.89999999999998">
</path>
</g>
<g class="vf-notehead" pointer-events="bounding-box">
<path stroke-width="0.3" fill="#000000" stroke="none" stroke-dasharray="none" d="M1002.7201859839997 197.99999999999997M1007.5757795839997 194.55289919999998C1007.6499107839998 194.55289919999998,1007.7611075839998 194.55289919999998,1007.7796403839998 194.55289919999998C1007.7796403839998 194.55289919999998,1007.7981731839998 194.55289919999998,1007.7981731839998 194.55289919999998C1007.7981731839998 194.55289919999998,1007.9093699839997 194.55289919999998,1008.0020339839997 194.55289919999998C1009.6699859839997 194.64556319999997,1010.6522243839997 195.73899839999996,1010.6522243839997 197.11042559999999C1010.6522243839997 197.77760639999997,1010.4298307839997 198.53745119999996,1009.8738467839997 199.26023039999998C1008.8174771839997 200.68725599999996,1007.0939267839997 201.46563359999996,1005.5927699839997 201.46563359999996C1004.4252035839997 201.46563359999996,1003.4244323839997 201.00231359999998,1002.9425795839998 200.05714079999998C1002.7943171839997 199.68648479999996,1002.7201859839997 199.33436159999997,1002.7201859839997 198.94517279999997C1002.7201859839997 196.92509759999996,1004.9811875839997 194.68262879999997,1007.5757795839997 194.55289919999998">
</path>
</g>
<g class="vf-flag" pointer-events="bounding-box">
<path stroke-width="0.3" fill="#000000" stroke="none" stroke-dasharray="none" d="M1009.9022243839997 172.89999999999998M1009.4574371839998 175.88378079999998L1009.4574371839998 172.992664L1009.5315683839997 172.992664C1009.7354291839997 172.992664,1009.8651587839997 173.12239359999998,1009.9022243839997 173.34478719999998C1010.2914131839998 175.19806719999997,1011.4589795839997 177.21814239999998,1013.0713331839997 178.73783199999997C1014.8690147839998 180.42431679999999,1015.7771219839998 182.74091679999998,1015.7771219839998 185.13164799999998C1015.7771219839998 187.39264959999997,1014.9802115839998 189.74631519999997,1013.3678579839998 191.69225919999997C1013.0898659839997 192.06291519999996,1013.0713331839997 192.06291519999996,1012.8860051839997 192.06291519999996C1012.6636115839997 192.06291519999996,1012.5153491839998 191.89611999999997,1012.5153491839998 191.67372639999996C1012.5153491839998 191.50693119999997,1012.5338819839998 191.4698656,1012.7192099839997 191.2660048C1014.1277027839998 189.56098719999997,1014.8319491839998 187.5038464,1014.8319491839998 185.5393696C1014.8319491839998 183.7972864,1014.2759651839997 182.12933439999998,1013.1269315839997 180.86910399999996C1012.4226851839998 180.09072639999997,1011.1253891839997 179.34941439999997,1009.4759699839998 178.77489759999997C1009.4759699839998 178.75636479999997,1009.4574371839998 178.18184799999997,1009.4574371839998 175.88378079999998">
</path>
</g>
</g>
<g class="vf-modifiers">
</g>
</g>
<path stroke-width="1" fill="none" stroke="#000000" stroke-dasharray="none" d="M1003.7201859839997 189.74999999999997L1016.7201859839997 180.74999999999997Z">
</path>
</g>
</g>
<g class="vf-stavenote" id="vf-auto73954">
<g class="vf-note" pointer-events="bounding-box">
<g class="vf-notehead" pointer-events="bounding-box">
<path stroke-width="0.3" fill="#000000" stroke="none" stroke-dasharray="none" d="M1061.1053339839998 197.99999999999997M1068.4622939839999 192.77711999999997C1068.5746139839998 192.77711999999997,1068.7430939839999 192.77711999999997,1068.7711739839997 192.77711999999997C1068.7711739839997 192.77711999999997,1068.7992539839997 192.77711999999997,1068.7992539839997 192.77711999999997C1068.7992539839997 192.77711999999997,1068.9677339839998 192.77711999999997,1069.1081339839998 192.77711999999997C1071.6353339839998 192.91751999999997,1073.123573984 194.57423999999997,1073.123573984 196.65215999999998C1073.123573984 197.66303999999997,1072.7866139839998 198.81431999999998,1071.9442139839998 199.90943999999996C1070.3436539839997 202.07159999999996,1067.7322139839998 203.25095999999996,1065.4577339839998 203.25095999999996C1063.6886939839999 203.25095999999996,1062.1723739839997 202.54895999999997,1061.442293984 201.11687999999998C1061.2176539839998 200.55527999999998,1061.1053339839998 200.02175999999997,1061.1053339839998 199.43207999999998C1061.1053339839998 196.37135999999998,1064.5310939839999 192.97367999999997,1068.4622939839999 192.77711999999997">
</path>
</g>
</g>
<g class="vf-modifiers">
</g>
</g>
<g class="vf-stavenote" id="vf-auto73964">
<g class="vf-note" pointer-events="bounding-box">
<g class="vf-notehead" pointer-events="bounding-box">
<path stroke-width="0.3" fill="#000000" stroke="none" stroke-dasharray="none" d="M1093.6264051839999 197.99999999999997M1100.983365184 192.77711999999997C1101.0956851839999 192.77711999999997,1101.264165184 192.77711999999997,1101.2922451839997 192.77711999999997C1101.2922451839997 192.77711999999997,1101.3203251839998 192.77711999999997,1101.3203251839998 192.77711999999997C1101.3203251839998 192.77711999999997,1101.4888051839998 192.77711999999997,1101.6292051839998 192.77711999999997C1104.1564051839998 192.91751999999997,1105.644645184 194.57423999999997,1105.644645184 196.65215999999998C1105.644645184 197.66303999999997,1105.3076851839999 198.81431999999998,1104.4652851839999 199.90943999999996C1102.8647251839998 202.07159999999996,1100.2532851839999 203.25095999999996,1097.9788051839998 203.25095999999996C1096.209765184 203.25095999999996,1094.6934451839998 202.54895999999997,1093.963365184 201.11687999999998C1093.7387251839998 200.55527999999998,1093.6264051839999 200.02175999999997,1093.6264051839999 199.43207999999998C1093.6264051839999 196.37135999999998,1097.052165184 192.97367999999997,1100.983365184 192.77711999999997">
</path>
</g>
</g>
<g class="vf-modifiers">
</g>
</g>
<g class="vf-stavenote" id="vf-auto73974">
<g class="vf-note" pointer-events="bounding-box">
<g class="vf-notehead" pointer-events="bounding-box">
<path stroke-width="0.3" fill="#000000" stroke="none" stroke-dasharray="none" d="M1126.147476384 197.99999999999997M1133.504436384 192.77711999999997C1133.616756384 192.77711999999997,1133.785236384 192.77711999999997,1133.8133163839998 192.77711999999997C1133.8133163839998 192.77711999999997,1133.8413963839998 192.77711999999997,1133.8413963839998 192.77711999999997C1133.8413963839998 192.77711999999997,1134.0098763839999 192.77711999999997,1134.1502763839999 192.77711999999997C1136.6774763839999 192.91751999999997,1138.165716384 194.57423999999997,1138.165716384 196.65215999999998C1138.165716384 197.66303999999997,1137.828756384 198.81431999999998,1136.986356384 199.90943999999996C1135.3857963839998 202.07159999999996,1132.774356384 203.25095999999996,1130.499876384 203.25095999999996C1128.730836384 203.25095999999996,1127.2145163839998 202.54895999999997,1126.484436384 201.11687999999998C1126.2597963839999 200.55527999999998,1126.147476384 200.02175999999997,1126.147476384 199.43207999999998C1126.147476384 196.37135999999998,1129.573236384 192.97367999999997,1133.504436384 192.77711999999997">
</path>
</g>
</g>
<g class="vf-modifiers">
</g>
</g>
<path stroke-width="1.5" fill="none" stroke="#000000" stroke-dasharray="none" d="M520.2792643839999 197.99999999999997L520.2792643839999 163.74999999999997">
</path>
<path stroke-width="1.5" fill="none" stroke="#000000" stroke-dasharray="none" d="M552.8003355839999 197.99999999999997L552.8003355839999 163.74999999999997">
</path>
<path stroke-width="1.5" fill="none" stroke="#000000" stroke-dasharray="none" d="M611.1854835839998 197.99999999999997L611.1854835839998 163.74999999999997">
</path>
<path stroke-width="1.5" fill="none" stroke="#000000" stroke-dasharray="none" d="M643.7065547839999 197.99999999999997L643.7065547839999 163.74999999999997">
</path>
<path stroke-width="0.3" fill="#000000" stroke="none" stroke-dasharray="none" d="M519.5292643839999 162.99999999999997L519.5292643839999 167.99999999999997L643.9565547839999 167.99999999999997L643.9565547839999 162.99999999999997Z">
</path>
<path stroke-width="0.3" fill="#000000" stroke="none" stroke-dasharray="none" d="M519.5292643839999 170.49999999999997L519.5292643839999 175.49999999999997L643.9565547839999 175.49999999999997L643.9565547839999 170.49999999999997Z">
</path>
<path stroke-width="1.5" fill="none" stroke="#000000" stroke-dasharray="none" d="M702.0917027839998 197.99999999999997L702.0917027839998 163.74999999999997">
</path>
<path stroke-width="1.5" fill="none" stroke="#000000" stroke-dasharray="none" d="M734.6127739839999 197.99999999999997L734.6127739839999 163.74999999999997">
</path>
<path stroke-width="1.5" fill="none" stroke="#000000" stroke-dasharray="none" d="M792.9979219839998 197.99999999999997L792.9979219839998 163.74999999999997">
</path>
<path stroke-width="1.5" fill="none" stroke="#000000" stroke-dasharray="none" d="M825.5189931839999 197.99999999999997L825.5189931839999 163.74999999999997">
</path>
<path stroke-width="0.3" fill="#000000" stroke="none" stroke-dasharray="none" d="M701.3417027839998 162.99999999999997L701.3417027839998 167.99999999999997L825.7689931839999 167.99999999999997L825.7689931839999 162.99999999999997Z">
</path>
<path stroke-width="0.3" fill="#000000" stroke="none" stroke-dasharray="none" d="M701.3417027839998 170.49999999999997L701.3417027839998 175.49999999999997L825.7689931839999 175.49999999999997L825.7689931839999 170.49999999999997Z">
</path>
<path stroke-width="1.5" fill="none" stroke="#000000" stroke-dasharray="none" d="M883.9041411839997 197.99999999999997L883.9041411839997 163.74999999999997">
</path>
<path stroke-width="1.5" fill="none" stroke="#000000" stroke-dasharray="none" d="M916.4252123839998 197.99999999999997L916.4252123839998 163.74999999999997">
</path>
<path stroke-width="1.5" fill="none" stroke="#000000" stroke-dasharray="none" d="M948.9462835839998 197.99999999999997L948.9462835839998 163.74999999999997">
</path>
<path stroke-width="1.5" fill="none" stroke="#000000" stroke-dasharray="none" d="M981.4673547839999 197.99999999999997L981.4673547839999 163.74999999999997">
</path>
<path stroke-width="0.3" fill="#000000" stroke="none" stroke-dasharray="none" d="M883.1541411839997 162.99999999999997L883.1541411839997 167.99999999999997L981.7173547839999 167.99999999999997L981.7173547839999 162.99999999999997Z">
</path>
<path stroke-width="0.3" fill="#000000" stroke="none" stroke-dasharray="none" d="M883.1541411839997 170.49999999999997L883.1541411839997 175.49999999999997L981.7173547839999 175.49999999999997L981.7173547839999 170.49999999999997Z">
</path>
<path stroke-width="1.5" fill="none" stroke="#000000" stroke-dasharray="none" d="M1039.8525027839999 197.99999999999997L1039.8525027839999 163.74999999999997">
</path>
<path stroke-width="1.5" fill="none" stroke="#000000" stroke-dasharray="none" d="M1072.373573984 197.99999999999997L1072.373573984 163.74999999999997">
</path>
<path stroke-width="1.5" fill="none" stroke="#000000" stroke-dasharray="none" d="M1104.894645184 197.99999999999997L1104.894645184 163.74999999999997">
</path>
<path stroke-width="1.5" fill="none" stroke="#000000" stroke-dasharray="none" d="M1137.415716384 197.99999999999997L1137.415716384 163.74999999999997">
</path>
<path stroke-width="0.3" fill="#000000" stroke="none" stroke-dasharray="none" d="M1039.1025027839999 162.99999999999997L1039.1025027839999 167.99999999999997L1137.665716384 167.99999999999997L1137.665716384 162.99999999999997Z">
</path>
<path stroke-width="0.3" fill="#000000" stroke="none" stroke-dasharray="none" d="M1039.1025027839999 170.49999999999997L1039.1025027839999 175.49999999999997L1137.665716384 175.49999999999997L1137.665716384 170.49999999999997Z">
</path>
</svg>