<svg width="1536" height="331.99999999999994" viewBox="0 0 1536 331.99999999999994">
<path stroke-width="1" fill="none" stroke="black" stroke-dasharray="none" d="M50 197.99999999999997L514.2250503679999 197.99999999999997">
</path>
<rect stroke-width="0.3" fill="black" stroke="black" stroke-dasharray="none" x="514.2250503679999" y="177.49999999999997" width="1" height="41">
</rect>
<path stroke-width="0.3" fill="black" stroke="none" stroke-dasharray="none" d="M55 197.99999999999997M55 197.99999999999997L55 188.00639999999999L57.1888 188.00639999999999L59.4064 188.00639999999999L59.4064 197.99999999999997L59.4064 208.02239999999998L57.1888 208.02239999999998L55 208.02239999999998L55 197.99999999999997M63.870400000000004 198.02879999999996L63.870400000000004 188.00639999999999L66.1168 188.00639999999999L68.3632 188.00639999999999L68.3632 198.02879999999996L68.3632 208.02239999999998L66.1168 208.02239999999998L63.870400000000004 208.02239999999998L63.870400000000004 198.02879999999996">
</path>
<path stroke-width="0.3" fill="black" stroke="none" stroke-dasharray="none" d="M96.1296 197.99999999999997M101.80319999999999 179.33759999999998C101.91839999999999 179.33759999999998,102.11999999999999 179.33759999999998,102.3504 179.33759999999998C102.8112 179.33759999999998,103.416 179.33759999999998,103.56 179.39519999999996C105.72 179.65439999999998,107.448 180.74879999999996,108.1968 182.27519999999998C108.45599999999999 182.79359999999997,108.57119999999999 183.34079999999997,108.57119999999999 183.91679999999997C108.57119999999999 185.32799999999997,107.7936 186.94079999999997,106.38239999999999 188.15039999999996C105.4032 188.98559999999998,104.42399999999999 189.50399999999996,102.8976 189.99359999999996C100.9104 190.62719999999996,99.21119999999999 191.75039999999998,98.1168 193.10399999999998C98.1168 193.10399999999998,98.1168 193.13279999999997,98.1168 193.13279999999997C98.1168 193.13279999999997,98.1168 193.13279999999997,98.1168 193.13279999999997C98.1168 193.13279999999997,98.2032 193.10399999999998,98.26079999999999 193.01759999999996C99.3552 192.12479999999996,100.824 191.60639999999998,102.1488 191.60639999999998C103.2432 191.60639999999998,104.0208 191.80799999999996,105.0576 192.38399999999996C105.6912 192.70079999999996,106.2672 192.84479999999996,106.81439999999999 192.84479999999996C107.0448 192.84479999999996,107.2752 192.84479999999996,107.53439999999999 192.78719999999998C107.9088 192.70079999999996,108.312 192.41279999999998,108.45599999999999 192.18239999999997C108.5424 191.98079999999996,108.68639999999999 191.89439999999996,108.8592 191.89439999999996C109.08959999999999 191.89439999999996,109.32 192.06719999999999,109.32 192.32639999999998C109.32 192.52799999999996,109.0608 193.24799999999996,108.8304 193.7376C107.9088 195.58079999999998,106.29599999999999 196.73279999999997,104.7408 196.73279999999997C104.62559999999999 196.73279999999997,104.5392 196.73279999999997,104.42399999999999 196.70399999999998C104.0208 196.70399999999998,103.848 196.58879999999996,103.3296 196.24319999999997C102.23519999999999 195.52319999999997,100.8528 195.14879999999997,99.6432 195.14879999999997C99.1248 195.14879999999997,98.664 195.20639999999997,98.232 195.37919999999997C97.65599999999999 195.58079999999998,97.1088 195.92639999999997,96.93599999999999 196.18559999999997C96.8496 196.38719999999998,96.70559999999999 196.44479999999996,96.5328 196.44479999999996C96.3888 196.44479999999996,96.2448 196.38719999999998,96.1584 196.21439999999998L96.10079999999999 196.128L96.10079999999999 195.72479999999996C96.10079999999999 195.37919999999997,96.1296 195.26399999999998,96.1296 195.14879999999997C96.1584 195.06239999999997,96.18719999999999 194.88959999999997,96.18719999999999 194.74559999999997C96.70559999999999 192.32639999999998,98.4624 190.16639999999998,100.8528 189.10079999999996C102.8112 188.17919999999998,104.10719999999999 186.53759999999997,104.3376 184.46399999999997C104.39519999999999 184.29119999999998,104.39519999999999 184.14719999999997,104.39519999999999 183.97439999999997C104.39519999999999 182.13119999999998,103.0128 180.86399999999998,101.0544 180.86399999999998C100.9104 180.86399999999998,100.7376 180.86399999999998,100.5936 180.86399999999998C100.3056 180.89279999999997,100.2192 180.89279999999997,100.2192 180.95039999999997C100.2192 180.95039999999997,100.2192 180.97919999999996,100.3056 181.03679999999997C100.96799999999999 181.41119999999998,101.28479999999999 182.13119999999998,101.28479999999999 182.82239999999996C101.28479999999999 183.71519999999998,100.824 184.55039999999997,99.93119999999999 184.89599999999996C99.6432 184.98239999999998,99.3552 185.01119999999997,99.1248 185.01119999999997C97.9152 185.01119999999997,96.9072 183.97439999999997,96.9072 182.73599999999996C96.9072 182.50559999999996,96.9072 182.27519999999998,96.9648 182.01599999999996C97.3968 180.69119999999998,99.4416 179.59679999999997,101.80319999999999 179.33759999999998M102.696 198.02879999999996L102.75359999999999 198.02879999999996L102.6672 198.02879999999996L102.696 198.02879999999996M102.696 178.61759999999998L102.75359999999999 178.61759999999998L102.6672 178.61759999999998L102.696 178.61759999999998">
</path>
<path stroke-width="0.3" fill="black" stroke="none" stroke-dasharray="none" d="M96 217.99999999999997M101.0112 199.65439999999998C101.04 199.62559999999996,101.4432 199.62559999999996,102.6816 199.62559999999996C103.056 199.62559999999996,103.4592 199.62559999999996,103.9776 199.62559999999996L106.8864 199.62559999999996L106.9728 199.71199999999996C107.1168 199.79839999999996,107.2032 199.94239999999996,107.2032 200.05759999999998C107.2032 200.23039999999997,107.1168 200.34559999999996,107.0016 200.46079999999998C106.9728 200.54719999999998,106.7136 200.77759999999998,106.5408 201.03679999999997L105.0144 202.79359999999997L103.056 205.01119999999997L102.0192 206.19199999999998L100.464 207.97759999999997L98.4192 210.31039999999996C98.0736 210.74239999999998,97.6992 211.08799999999997,97.6992 211.08799999999997C97.6992 211.08799999999997,97.6992 211.08799999999997,97.6992 211.08799999999997C97.6992 211.14559999999997,97.9584 211.14559999999997,100.3488 211.14559999999997L102.9696 211.14559999999997L102.9696 209.27359999999996C102.9696 207.37279999999998,102.9696 207.34399999999997,102.9984 207.31519999999998C103.056 207.22879999999998,103.3152 206.91199999999998,104.3232 205.73119999999997L104.7264 205.29919999999998L105.1296 204.86719999999997L105.7344 204.08959999999996L106.368 203.42719999999997L106.6848 203.02399999999997C106.8 202.85119999999998,106.9728 202.82239999999996,107.1168 202.82239999999996C107.28960000000001 202.82239999999996,107.4336 202.90879999999999,107.52 203.05279999999996C107.5488 203.13919999999996,107.5488 203.19679999999997,107.5488 205.32799999999997C107.5488 205.81759999999997,107.5488 206.42239999999998,107.5488 207.14239999999998L107.5488 211.14559999999997L108.2688 211.14559999999997C108.9312 211.14559999999997,108.96 211.14559999999997,109.0464 211.17439999999996C109.2768 211.26079999999996,109.392 211.49119999999996,109.392 211.75039999999998C109.392 211.89439999999996,109.3632 212.06719999999999,109.248 212.18239999999997C109.0752 212.32639999999998,109.0464 212.32639999999998,108.2688 212.32639999999998L107.5488 212.32639999999998L107.5488 212.81599999999997C107.5776 214.28479999999996,107.8656 214.86079999999998,108.9888 215.46559999999997C109.392 215.66719999999998,109.4784 215.72479999999996,109.4784 216.01279999999997C109.4784 216.21439999999998,109.4208 216.30079999999998,109.2768 216.41599999999997L109.1904 216.44479999999996L105.2448 216.44479999999996L101.328 216.44479999999996L101.2416 216.41599999999997C101.0688 216.30079999999998,101.04 216.21439999999998,101.04 216.01279999999997C101.04 215.72479999999996,101.0688 215.66719999999998,101.5008 215.46559999999997C102.624 214.86079999999998,102.912 214.28479999999996,102.912 212.81599999999997L102.912 212.32639999999998L99.6 212.32639999999998C98.9952 212.38399999999996,98.5056 212.38399999999996,98.1024 212.38399999999996C96.288 212.38399999999996,96.2592 212.32639999999998,96.2304 212.32639999999998C96.0576 212.26879999999997,96 212.09599999999998,96 211.89439999999996C96 211.89439999999996,96 211.89439999999996,96 211.89439999999996C96 211.69279999999998,96 211.69279999999998,96.576 211.0304C98.9952 208.09279999999998,100.6944 203.83039999999997,100.6944 200.43199999999996C100.6944 199.91359999999997,100.7808 199.74079999999998,101.0112 199.65439999999998M102.7392 218.02879999999996L102.768 218.02879999999996L102.6816 218.02879999999996L102.7392 218.02879999999996M102.7392 198.61759999999998L102.768 198.61759999999998L102.6816 198.61759999999998L102.7392 198.61759999999998">
</path>
<g class="vf-stavenote" id="vf-auto81936">
<g class="vf-note" pointer-events="bounding-box">
<g class="vf-notehead" pointer-events="bounding-box">
<path stroke-width="0.3" fill="#000000" stroke="none" stroke-dasharray="none" d="M147.3424768 197.99999999999997M154.69943679999997 192.77711999999997C154.81175679999998 192.77711999999997,154.9802368 192.77711999999997,155.0083168 192.77711999999997C155.0083168 192.77711999999997,155.03639679999998 192.77711999999997,155.03639679999998 192.77711999999997C155.03639679999998 192.77711999999997,155.2048768 192.77711999999997,155.3452768 192.77711999999997C157.8724768 192.91751999999997,159.36071679999998 194.57423999999997,159.36071679999998 196.65215999999998C159.36071679999998 197.66303999999997,159.0237568 198.81431999999998,158.18135679999997 199.90943999999996C156.58079679999997 202.07159999999996,153.96935679999999 203.25095999999996,151.69487679999997 203.25095999999996C149.92583679999998 203.25095999999996,148.40951679999998 202.54895999999997,147.6794368 201.11687999999998C147.4547968 200.55527999999998,147.3424768 200.02175999999997,147.3424768 199.43207999999998C147.3424768 196.37135999999998,150.76823679999998 192.97367999999997,154.69943679999997 192.77711999999997">
</path>
</g>
</g>
<g class="vf-modifiers">
<g class="vf-stavenote" id="vf-auto81946">
<g class="vf-note" pointer-events="bounding-box">
<g class="vf-stem" pointer-events="bounding-box">
<path stroke-width="1.5" fill="none" stroke="#000000" stroke-dasharray="none" d="M128.6604384 197.99999999999997L128.6604384 174.89999999999998">
</path>
</g>
<g class="vf-notehead" pointer-events="bounding-box">
<path stroke-width="0.3" fill="#000000" stroke="none" stroke-dasharray="none" d="M121.4784 197.99999999999997M126.3339936 194.55289919999998C126.4081248 194.55289919999998,126.5193216 194.55289919999998,126.5378544 194.55289919999998C126.5378544 194.55289919999998,126.55638719999999 194.55289919999998,126.55638719999999 194.55289919999998C126.55638719999999 194.55289919999998,126.66758399999999 194.55289919999998,126.76024799999999 194.55289919999998C128.4282 194.64556319999997,129.4104384 195.73899839999996,129.4104384 197.11042559999999C129.4104384 197.77760639999997,129.1880448 198.53745119999996,128.6320608 199.26023039999998C127.5756912 200.68725599999996,125.8521408 201.46563359999996,124.350984 201.46563359999996C123.1834176 201.46563359999996,122.1826464 201.00231359999998,121.7007936 200.05714079999998C121.55253119999999 199.68648479999996,121.4784 199.33436159999997,121.4784 198.94517279999997C121.4784 196.92509759999996,123.7394016 194.68262879999997,126.3339936 194.55289919999998">
</path>
</g>
<g class="vf-flag" pointer-events="bounding-box">
<path stroke-width="0.3" fill="#000000" stroke="none" stroke-dasharray="none" d="M128.6604384 172.89999999999998M128.2156512 175.88378079999998L128.2156512 172.992664L128.2897824 172.992664C128.4936432 172.992664,128.6233728 173.12239359999998,128.6604384 173.34478719999998C129.0496272 175.19806719999997,130.2171936 177.21814239999998,131.8295472 178.73783199999997C133.6272288 180.42431679999999,134.535336 182.74091679999998,134.535336 185.13164799999998C134.535336 187.39264959999997,133.7384256 189.74631519999997,132.126072 191.69225919999997C131.84808 192.06291519999996,131.8295472 192.06291519999996,131.6442192 192.06291519999996C131.4218256 192.06291519999996,131.2735632 191.89611999999997,131.2735632 191.67372639999996C131.2735632 191.50693119999997,131.29209600000002 191.4698656,131.477424 191.2660048C132.88591680000002 189.56098719999997,133.5901632 187.5038464,133.5901632 185.5393696C133.5901632 183.7972864,133.0341792 182.12933439999998,131.88514560000002 180.86910399999996C131.1808992 180.09072639999997,129.8836032 179.34941439999997,128.234184 178.77489759999997C128.234184 178.75636479999997,128.2156512 178.18184799999997,128.2156512 175.88378079999998">
</path>
</g>
</g>
<g class="vf-modifiers">
</g>
</g>
<path stroke-width="1" fill="none" stroke="#000000" stroke-dasharray="none" d="M122.4784 189.74999999999997L135.4784 180.74999999999997Z">
</path>
</g>
</g>
<g class="vf-stavenote" id="vf-auto81960">
<g class="vf-note" pointer-events="bounding-box">
<g class="vf-notehead" pointer-events="bounding-box">
<path stroke-width="0.3" fill="#000000" stroke="none" stroke-dasharray="none" d="M183.72563839999998 197.99999999999997M191.08259839999997 192.77711999999997C191.19491839999998 192.77711999999997,191.3633984 192.77711999999997,191.39147839999998 192.77711999999997C191.39147839999998 192.77711999999997,191.41955839999997 192.77711999999997,191.41955839999997 192.77711999999997C191.41955839999997 192.77711999999997,191.5880384 192.77711999999997,191.7284384 192.77711999999997C194.25563839999998 192.91751999999997,195.74387839999997 194.57423999999997,195.74387839999997 196.65215999999998C195.74387839999997 197.66303999999997,195.4069184 198.81431999999998,194.56451839999997 199.90943999999996C192.96395839999997 202.07159999999996,190.35251839999998 203.25095999999996,188.07803839999997 203.25095999999996C186.30899839999998 203.25095999999996,184.79267839999997 202.54895999999997,184.06259839999998 201.11687999999998C183.8379584 200.55527999999998,183.72563839999998 200.02175999999997,183.72563839999998 199.43207999999998C183.72563839999998 196.37135999999998,187.15139839999998 192.97367999999997,191.08259839999997 192.77711999999997">
</path>
</g>
</g>
<g class="vf-modifiers">
</g>
</g>
<g class="vf-stavenote" id="vf-auto81970">
<g class="vf-note" pointer-events="bounding-box">
<g class="vf-notehead" pointer-events="bounding-box">
<path stroke-width="0.3" fill="#000000" stroke="none" stroke-dasharray="none" d="M245.9728768 197.99999999999997M253.32983679999998 192.77711999999997C253.4421568 192.77711999999997,253.6106368 192.77711999999997,253.6387168 192.77711999999997C253.6387168 192.77711999999997,253.6667968 192.77711999999997,253.6667968 192.77711999999997C253.6667968 192.77711999999997,253.8352768 192.77711999999997,253.9756768 192.77711999999997C256.50287679999997 192.91751999999997,257.9911168 194.57423999999997,257.9911168 196.65215999999998C257.9911168 197.66303999999997,257.6541568 198.81431999999998,256.8117568 199.90943999999996C255.21119679999998 202.07159999999996,252.5997568 203.25095999999996,250.32527679999998 203.25095999999996C248.5562368 203.25095999999996,247.0399168 202.54895999999997,246.3098368 201.11687999999998C246.0851968 200.55527999999998,245.9728768 200.02175999999997,245.9728768 199.43207999999998C245.9728768 196.37135999999998,249.3986368 192.97367999999997,253.32983679999998 192.77711999999997">
</path>
</g>
</g>
<g class="vf-modifiers">
<g class="vf-stavenote" id="vf-auto81980">
<g class="vf-note" pointer-events="bounding-box">
<g class="vf-stem" pointer-events="bounding-box">
<path stroke-width="1.5" fill="none" stroke="#000000" stroke-dasharray="none" d="M227.2908384 197.99999999999997L227.2908384 174.89999999999998">
</path>
</g>
<g class="vf-notehead" pointer-events="bounding-box">
<path stroke-width="0.3" fill="#000000" stroke="none" stroke-dasharray="none" d="M220.1088 197.99999999999997M224.9643936 194.55289919999998C225.0385248 194.55289919999998,225.1497216 194.55289919999998,225.1682544 194.55289919999998C225.1682544 194.55289919999998,225.1867872 194.55289919999998,225.1867872 194.55289919999998C225.1867872 194.55289919999998,225.297984 194.55289919999998,225.390648 194.55289919999998C227.0586 194.64556319999997,228.0408384 195.73899839999996,228.0408384 197.11042559999999C228.0408384 197.77760639999997,227.8184448 198.53745119999996,227.2624608 199.26023039999998C226.2060912 200.68725599999996,224.4825408 201.46563359999996,222.981384 201.46563359999996C221.8138176 201.46563359999996,220.8130464 201.00231359999998,220.3311936 200.05714079999998C220.1829312 199.68648479999996,220.1088 199.33436159999997,220.1088 198.94517279999997C220.1088 196.92509759999996,222.36980160000002 194.68262879999997,224.9643936 194.55289919999998">
</path>
</g>
<g class="vf-flag" pointer-events="bounding-box">
<path stroke-width="0.3" fill="#000000" stroke="none" stroke-dasharray="none" d="M227.2908384 172.89999999999998M226.8460512 175.88378079999998L226.8460512 172.992664L226.92018240000002 172.992664C227.12404320000002 172.992664,227.2537728 173.12239359999998,227.2908384 173.34478719999998C227.6800272 175.19806719999997,228.8475936 177.21814239999998,230.45994720000002 178.73783199999997C232.25762880000002 180.42431679999999,233.165736 182.74091679999998,233.165736 185.13164799999998C233.165736 187.39264959999997,232.3688256 189.74631519999997,230.756472 191.69225919999997C230.47848000000002 192.06291519999996,230.45994720000002 192.06291519999996,230.27461920000002 192.06291519999996C230.0522256 192.06291519999996,229.90396320000002 191.89611999999997,229.90396320000002 191.67372639999996C229.90396320000002 191.50693119999997,229.92249600000002 191.4698656,230.10782400000002 191.2660048C231.51631680000003 189.56098719999997,232.22056320000002 187.5038464,232.22056320000002 185.5393696C232.22056320000002 183.7972864,231.66457920000002 182.12933439999998,230.51554560000002 180.86910399999996C229.8112992 180.09072639999997,228.51400320000002 179.34941439999997,226.864584 178.77489759999997C226.864584 178.75636479999997,226.8460512 178.18184799999997,226.8460512 175.88378079999998">
</path>
</g>
</g>
<g class="vf-modifiers">
</g>
</g>
<path stroke-width="1" fill="none" stroke="#000000" stroke-dasharray="none" d="M221.1088 189.74999999999997L234.1088 180.74999999999997Z">
</path>
</g>
</g>
<g class="vf-stavenote" id="vf-auto81994">
<g class="vf-note" pointer-events="bounding-box">
<g class="vf-notehead" pointer-events="bounding-box">
<path stroke-width="0.3" fill="#000000" stroke="none" stroke-dasharray="none" d="M282.3560384 197.99999999999997M289.7129984 192.77711999999997C289.8253184 192.77711999999997,289.9937984 192.77711999999997,290.0218784 192.77711999999997C290.0218784 192.77711999999997,290.0499584 192.77711999999997,290.0499584 192.77711999999997C290.0499584 192.77711999999997,290.21843839999997 192.77711999999997,290.35883839999997 192.77711999999997C292.88603839999996 192.91751999999997,294.3742784 194.57423999999997,294.3742784 196.65215999999998C294.3742784 197.66303999999997,294.0373184 198.81431999999998,293.1949184 199.90943999999996C291.5943584 202.07159999999996,288.9829184 203.25095999999996,286.7084384 203.25095999999996C284.9393984 203.25095999999996,283.4230784 202.54895999999997,282.69299839999996 201.11687999999998C282.4683584 200.55527999999998,282.3560384 200.02175999999997,282.3560384 199.43207999999998C282.3560384 196.37135999999998,285.7817984 192.97367999999997,289.7129984 192.77711999999997">
</path>
</g>
</g>
<g class="vf-modifiers">
</g>
</g>
<g class="vf-stavenote" id="vf-auto82004">
<g class="vf-note" pointer-events="bounding-box">
<g class="vf-notehead" pointer-events="bounding-box">
<path stroke-width="0.3" fill="#000000" stroke="none" stroke-dasharray="none" d="M344.6032768 197.99999999999997M351.9602368 192.77711999999997C352.07255680000003 192.77711999999997,352.2410368 192.77711999999997,352.2691168 192.77711999999997C352.2691168 192.77711999999997,352.2971968 192.77711999999997,352.2971968 192.77711999999997C352.2971968 192.77711999999997,352.4656768 192.77711999999997,352.6060768 192.77711999999997C355.1332768 192.91751999999997,356.6215168 194.57423999999997,356.6215168 196.65215999999998C356.6215168 197.66303999999997,356.2845568 198.81431999999998,355.4421568 199.90943999999996C353.8415968 202.07159999999996,351.23015680000003 203.25095999999996,348.9556768 203.25095999999996C347.18663680000003 203.25095999999996,345.6703168 202.54895999999997,344.9402368 201.11687999999998C344.7155968 200.55527999999998,344.6032768 200.02175999999997,344.6032768 199.43207999999998C344.6032768 196.37135999999998,348.02903680000003 192.97367999999997,351.9602368 192.77711999999997">
</path>
</g>
</g>
<g class="vf-modifiers">
<g class="vf-stavenote" id="vf-auto82014">
<g class="vf-note" pointer-events="bounding-box">
<g class="vf-stem" pointer-events="bounding-box">
<path stroke-width="1.5" fill="none" stroke="#000000" stroke-dasharray="none" d="M325.9212384 197.99999999999997L325.9212384 174.89999999999998">
</path>
</g>
<g class="vf-notehead" pointer-events="bounding-box">
<path stroke-width="0.3" fill="#000000" stroke="none" stroke-dasharray="none" d="M318.7392 197.99999999999997M323.5947936 194.55289919999998C323.66892479999996 194.55289919999998,323.7801216 194.55289919999998,323.7986544 194.55289919999998C323.7986544 194.55289919999998,323.8171872 194.55289919999998,323.8171872 194.55289919999998C323.8171872 194.55289919999998,323.928384 194.55289919999998,324.021048 194.55289919999998C325.68899999999996 194.64556319999997,326.6712384 195.73899839999996,326.6712384 197.11042559999999C326.6712384 197.77760639999997,326.44884479999996 198.53745119999996,325.8928608 199.26023039999998C324.83649119999995 200.68725599999996,323.1129408 201.46563359999996,321.611784 201.46563359999996C320.4442176 201.46563359999996,319.44344639999997 201.00231359999998,318.96159359999996 200.05714079999998C318.8133312 199.68648479999996,318.7392 199.33436159999997,318.7392 198.94517279999997C318.7392 196.92509759999996,321.00020159999997 194.68262879999997,323.5947936 194.55289919999998">
</path>
</g>
<g class="vf-flag" pointer-events="bounding-box">
<path stroke-width="0.3" fill="#000000" stroke="none" stroke-dasharray="none" d="M325.9212384 172.89999999999998M325.4764512 175.88378079999998L325.4764512 172.992664L325.5505824 172.992664C325.75444319999997 172.992664,325.8841728 173.12239359999998,325.9212384 173.34478719999998C326.3104272 175.19806719999997,327.4779936 177.21814239999998,329.0903472 178.73783199999997C330.8880288 180.42431679999999,331.796136 182.74091679999998,331.796136 185.13164799999998C331.796136 187.39264959999997,330.9992256 189.74631519999997,329.386872 191.69225919999997C329.10888 192.06291519999996,329.0903472 192.06291519999996,328.90501919999997 192.06291519999996C328.6826256 192.06291519999996,328.5343632 191.89611999999997,328.5343632 191.67372639999996C328.5343632 191.50693119999997,328.552896 191.4698656,328.738224 191.2660048C330.1467168 189.56098719999997,330.85096319999997 187.5038464,330.85096319999997 185.5393696C330.85096319999997 183.7972864,330.2949792 182.12933439999998,329.1459456 180.86910399999996C328.4416992 180.09072639999997,327.1444032 179.34941439999997,325.494984 178.77489759999997C325.494984 178.75636479999997,325.4764512 178.18184799999997,325.4764512 175.88378079999998">
</path>
</g>
</g>
<g class="vf-modifiers">
</g>
</g>
<path stroke-width="1" fill="none" stroke="#000000" stroke-dasharray="none" d="M319.7392 189.74999999999997L332.7392 180.74999999999997Z">
</path>
</g>
</g>
<g class="vf-stavenote" id="vf-auto82028">
<g class="vf-note" pointer-events="bounding-box">
<g class="vf-notehead" pointer-events="bounding-box">
<path stroke-width="0.3" fill="#000000" stroke="none" stroke-dasharray="none" d="M380.9864384 197.99999999999997M388.3433984 192.77711999999997C388.4557184 192.77711999999997,388.6241984 192.77711999999997,388.6522784 192.77711999999997C388.6522784 192.77711999999997,388.6803584 192.77711999999997,388.6803584 192.77711999999997C388.6803584 192.77711999999997,388.8488384 192.77711999999997,388.9892384 192.77711999999997C391.51643839999997 192.91751999999997,393.0046784 194.57423999999997,393.0046784 196.65215999999998C393.0046784 197.66303999999997,392.6677184 198.81431999999998,391.8253184 199.90943999999996C390.2247584 202.07159999999996,387.6133184 203.25095999999996,385.3388384 203.25095999999996C383.5697984 203.25095999999996,382.0534784 202.54895999999997,381.3233984 201.11687999999998C381.0987584 200.55527999999998,380.9864384 200.02175999999997,380.9864384 199.43207999999998C380.9864384 196.37135999999998,384.4121984 192.97367999999997,388.3433984 192.77711999999997">
</path>
</g>
</g>
<g class="vf-modifiers">
</g>
</g>
<g class="vf-stavenote" id="vf-auto82038">
<g class="vf-note" pointer-events="bounding-box">
<g class="vf-notehead" pointer-events="bounding-box">
<path stroke-width="0.3" fill="#000000" stroke="none" stroke-dasharray="none" d="M443.2336768 197.99999999999997M450.5906368 192.77711999999997C450.70295680000004 192.77711999999997,450.8714368 192.77711999999997,450.8995168 192.77711999999997C450.8995168 192.77711999999997,450.9275968 192.77711999999997,450.9275968 192.77711999999997C450.9275968 192.77711999999997,451.0960768 192.77711999999997,451.2364768 192.77711999999997C453.7636768 192.91751999999997,455.2519168 194.57423999999997,455.2519168 196.65215999999998C455.2519168 197.66303999999997,454.9149568 198.81431999999998,454.07255680000003 199.90943999999996C452.4719968 202.07159999999996,449.86055680000004 203.25095999999996,447.5860768 203.25095999999996C445.81703680000004 203.25095999999996,444.30071680000003 202.54895999999997,443.5706368 201.11687999999998C443.3459968 200.55527999999998,443.2336768 200.02175999999997,443.2336768 199.43207999999998C443.2336768 196.37135999999998,446.65943680000004 192.97367999999997,450.5906368 192.77711999999997">
</path>
</g>
</g>
<g class="vf-modifiers">
<g class="vf-stavenote" id="vf-auto82048">
<g class="vf-note" pointer-events="bounding-box">
<g class="vf-stem" pointer-events="bounding-box">
<path stroke-width="1.5" fill="none" stroke="#000000" stroke-dasharray="none" d="M424.5516384 197.99999999999997L424.5516384 174.89999999999998">
</path>
</g>
<g class="vf-notehead" pointer-events="bounding-box">
<path stroke-width="0.3" fill="#000000" stroke="none" stroke-dasharray="none" d="M417.3696 197.99999999999997M422.2251936 194.55289919999998C422.29932479999997 194.55289919999998,422.4105216 194.55289919999998,422.4290544 194.55289919999998C422.4290544 194.55289919999998,422.4475872 194.55289919999998,422.4475872 194.55289919999998C422.4475872 194.55289919999998,422.558784 194.55289919999998,422.651448 194.55289919999998C424.3194 194.64556319999997,425.3016384 195.73899839999996,425.3016384 197.11042559999999C425.3016384 197.77760639999997,425.07924479999997 198.53745119999996,424.5232608 199.26023039999998C423.46689119999996 200.68725599999996,421.7433408 201.46563359999996,420.242184 201.46563359999996C419.0746176 201.46563359999996,418.0738464 201.00231359999998,417.59199359999997 200.05714079999998C417.4437312 199.68648479999996,417.3696 199.33436159999997,417.3696 198.94517279999997C417.3696 196.92509759999996,419.6306016 194.68262879999997,422.2251936 194.55289919999998">
</path>
</g>
<g class="vf-flag" pointer-events="bounding-box">
<path stroke-width="0.3" fill="#000000" stroke="none" stroke-dasharray="none" d="M424.5516384 172.89999999999998M424.1068512 175.88378079999998L424.1068512 172.992664L424.1809824 172.992664C424.3848432 172.992664,424.5145728 173.12239359999998,424.5516384 173.34478719999998C424.9408272 175.19806719999997,426.1083936 177.21814239999998,427.7207472 178.73783199999997C429.5184288 180.42431679999999,430.426536 182.74091679999998,430.426536 185.13164799999998C430.426536 187.39264959999997,429.6296256 189.74631519999997,428.017272 191.69225919999997C427.73928 192.06291519999996,427.7207472 192.06291519999996,427.5354192 192.06291519999996C427.3130256 192.06291519999996,427.1647632 191.89611999999997,427.1647632 191.67372639999996C427.1647632 191.50693119999997,427.183296 191.4698656,427.368624 191.2660048C428.7771168 189.56098719999997,429.4813632 187.5038464,429.4813632 185.5393696C429.4813632 183.7972864,428.9253792 182.12933439999998,427.7763456 180.86910399999996C427.0720992 180.09072639999997,425.7748032 179.34941439999997,424.125384 178.77489759999997C424.125384 178.75636479999997,424.1068512 178.18184799999997,424.1068512 175.88378079999998">
</path>
</g>
</g>
<g class="vf-modifiers">
</g>
</g>
<path stroke-width="1" fill="none" stroke="#000000" stroke-dasharray="none" d="M418.3696 189.74999999999997L431.3696 180.74999999999997Z">
</path>
</g>
</g>
<g class="vf-stavenote" id="vf-auto82062">
<g class="vf-note" pointer-events="bounding-box">
<g class="vf-notehead" pointer-events="bounding-box">
<path stroke-width="0.3" fill="#000000" stroke="none" stroke-dasharray="none" d="M479.6168384 197.99999999999997M486.9737984 192.77711999999997C487.08611840000003 192.77711999999997,487.2545984 192.77711999999997,487.2826784 192.77711999999997C487.2826784 192.77711999999997,487.3107584 192.77711999999997,487.3107584 192.77711999999997C487.3107584 192.77711999999997,487.4792384 192.77711999999997,487.6196384 192.77711999999997C490.1468384 192.91751999999997,491.6350784 194.57423999999997,491.6350784 196.65215999999998C491.6350784 197.66303999999997,491.2981184 198.81431999999998,490.4557184 199.90943999999996C488.8551584 202.07159999999996,486.24371840000003 203.25095999999996,483.9692384 203.25095999999996C482.20019840000003 203.25095999999996,480.6838784 202.54895999999997,479.9537984 201.11687999999998C479.7291584 200.55527999999998,479.6168384 200.02175999999997,479.6168384 199.43207999999998C479.6168384 196.37135999999998,483.04259840000003 192.97367999999997,486.9737984 192.77711999999997">
</path>
</g>
</g>
<g class="vf-modifiers">
</g>
</g>
<path stroke-width="1.5" fill="none" stroke="#000000" stroke-dasharray="none" d="M158.61071679999998 197.99999999999997L158.61071679999998 163.74999999999997">
</path>
<path stroke-width="1.5" fill="none" stroke="#000000" stroke-dasharray="none" d="M194.99387839999997 197.99999999999997L194.99387839999997 163.74999999999997">
</path>
<path stroke-width="1.5" fill="none" stroke="#000000" stroke-dasharray="none" d="M257.2411168 197.99999999999997L257.2411168 163.74999999999997">
</path>
<path stroke-width="1.5" fill="none" stroke="#000000" stroke-dasharray="none" d="M293.6242784 197.99999999999997L293.6242784 163.74999999999997">
</path>
<path stroke-width="0.3" fill="#000000" stroke="none" stroke-dasharray="none" d="M157.86071679999998 162.99999999999997L157.86071679999998 167.99999999999997L293.8742784 167.99999999999997L293.8742784 162.99999999999997Z">
</path>
<path stroke-width="0.3" fill="#000000" stroke="none" stroke-dasharray="none" d="M157.86071679999998 170.49999999999997L157.86071679999998 175.49999999999997L293.8742784 175.49999999999997L293.8742784 170.49999999999997Z">
</path>
<path stroke-width="1.5" fill="none" stroke="#000000" stroke-dasharray="none" d="M355.8715168 197.99999999999997L355.8715168 163.74999999999997">
</path>
<path stroke-width="1.5" fill="none" stroke="#000000" stroke-dasharray="none" d="M392.2546784 197.99999999999997L392.2546784 163.74999999999997">
</path>
<path stroke-width="1.5" fill="none" stroke="#000000" stroke-dasharray="none" d="M454.5019168 197.99999999999997L454.5019168 163.74999999999997">
</path>
<path stroke-width="1.5" fill="none" stroke="#000000" stroke-dasharray="none" d="M490.8850784 197.99999999999997L490.8850784 163.74999999999997">
</path>
<path stroke-width="0.3" fill="#000000" stroke="none" stroke-dasharray="none" d="M355.1215168 162.99999999999997L355.1215168 167.99999999999997L491.1350784 167.99999999999997L491.1350784 162.99999999999997Z">
</path>
<path stroke-width="0.3" fill="#000000" stroke="none" stroke-dasharray="none" d="M355.1215168 170.49999999999997L355.1215168 175.49999999999997L491.1350784 175.49999999999997L491.1350784 170.49999999999997Z">
</path>
<path stroke-width="1" fill="none" stroke="black" stroke-dasharray="none" d="M514.2250503679999 197.99999999999997L1167.85683712 197.99999999999997">
</path>
<rect stroke-width="0.3" fill="black" stroke="black" stroke-dasharray="none" x="1162.85683712" y="177.49999999999997" width="1" height="41">
</rect>
<rect stroke-width="0.3" fill="black" stroke="black" stroke-dasharray="none" x="1165.85683712" y="177.49999999999997" width="3" height="41">
</rect>
<path stroke-width="0.3" fill="black" stroke="none" stroke-dasharray="none" d="M1161.85683712 193.49999999999997 A2 2 0 0 0 1157.85683712 193.49999999999997M1157.85683712 193.49999999999997 A2 2 0 0 0 1161.85683712 193.49999999999997">
</path>
<path stroke-width="0.3" fill="black" stroke="none" stroke-dasharray="none" d="M1161.85683712 203.49999999999997 A2 2 0 0 0 1157.85683712 203.49999999999997M1157.85683712 203.49999999999997 A2 2 0 0 0 1161.85683712 203.49999999999997">
</path>
<path stroke-width="0.3" fill="black" stroke="none" stroke-dasharray="none" d="M519.2250503679999 197.99999999999997M524.2362503679999 179.65439999999998C524.2650503679998 179.62559999999996,524.6682503679999 179.62559999999996,525.9066503679999 179.62559999999996C526.2810503679999 179.62559999999996,526.6842503679999 179.62559999999996,527.2026503679999 179.62559999999996L530.1114503679999 179.62559999999996L530.1978503679999 179.71199999999996C530.3418503679999 179.79839999999996,530.4282503679999 179.94239999999996,530.4282503679999 180.05759999999998C530.4282503679999 180.23039999999997,530.3418503679999 180.34559999999996,530.2266503679999 180.46079999999998C530.1978503679999 180.54719999999998,529.9386503679999 180.77759999999998,529.7658503679999 181.03679999999997L528.2394503679999 182.79359999999997L526.2810503679999 185.01119999999997L525.2442503679998 186.19199999999998L523.6890503679999 187.97759999999997L521.6442503679999 190.31039999999996C521.2986503679999 190.74239999999998,520.9242503679999 191.08799999999997,520.9242503679999 191.08799999999997C520.9242503679999 191.08799999999997,520.9242503679999 191.08799999999997,520.9242503679999 191.08799999999997C520.9242503679999 191.14559999999997,521.1834503679999 191.14559999999997,523.5738503679999 191.14559999999997L526.1946503679999 191.14559999999997L526.1946503679999 189.27359999999996C526.1946503679999 187.37279999999998,526.1946503679999 187.34399999999997,526.2234503679998 187.31519999999998C526.2810503679999 187.22879999999998,526.5402503679999 186.91199999999998,527.5482503679999 185.73119999999997L527.9514503679999 185.29919999999998L528.3546503679999 184.86719999999997L528.9594503679999 184.08959999999996L529.5930503679999 183.42719999999997L529.9098503679999 183.02399999999997C530.0250503679998 182.85119999999998,530.1978503679999 182.82239999999996,530.3418503679999 182.82239999999996C530.5146503679998 182.82239999999996,530.6586503679998 182.90879999999999,530.7450503679999 183.05279999999996C530.7738503679999 183.13919999999996,530.7738503679999 183.19679999999997,530.7738503679999 185.32799999999997C530.7738503679999 185.81759999999997,530.7738503679999 186.42239999999998,530.7738503679999 187.14239999999998L530.7738503679999 191.14559999999997L531.4938503679998 191.14559999999997C532.1562503679999 191.14559999999997,532.1850503679999 191.14559999999997,532.2714503679998 191.17439999999996C532.5018503679999 191.26079999999996,532.6170503679999 191.49119999999996,532.6170503679999 191.75039999999998C532.6170503679999 191.89439999999996,532.5882503679999 192.06719999999999,532.4730503679999 192.18239999999997C532.3002503679999 192.32639999999998,532.2714503679998 192.32639999999998,531.4938503679998 192.32639999999998L530.7738503679999 192.32639999999998L530.7738503679999 192.81599999999997C530.8026503679998 194.28479999999996,531.0906503679998 194.86079999999998,532.2138503679998 195.46559999999997C532.6170503679999 195.66719999999998,532.7034503679998 195.72479999999996,532.7034503679998 196.01279999999997C532.7034503679998 196.21439999999998,532.6458503679999 196.30079999999998,532.5018503679999 196.41599999999997L532.4154503679998 196.44479999999996L528.4698503679999 196.44479999999996L524.5530503679998 196.44479999999996L524.4666503679998 196.41599999999997C524.2938503679999 196.30079999999998,524.2650503679998 196.21439999999998,524.2650503679998 196.01279999999997C524.2650503679998 195.72479999999996,524.2938503679999 195.66719999999998,524.7258503679999 195.46559999999997C525.8490503679999 194.86079999999998,526.1370503679999 194.28479999999996,526.1370503679999 192.81599999999997L526.1370503679999 192.32639999999998L522.8250503679999 192.32639999999998C522.2202503679998 192.38399999999996,521.7306503679998 192.38399999999996,521.3274503679999 192.38399999999996C519.5130503679999 192.38399999999996,519.4842503679998 192.32639999999998,519.4554503679999 192.32639999999998C519.2826503679998 192.26879999999997,519.2250503679999 192.09599999999998,519.2250503679999 191.89439999999996C519.2250503679999 191.89439999999996,519.2250503679999 191.89439999999996,519.2250503679999 191.89439999999996C519.2250503679999 191.69279999999998,519.2250503679999 191.69279999999998,519.8010503679999 191.0304C522.2202503679998 188.09279999999998,523.9194503679998 183.83039999999997,523.9194503679998 180.43199999999996C523.9194503679998 179.91359999999997,524.0058503679999 179.74079999999998,524.2362503679999 179.65439999999998M525.9642503679999 198.02879999999996L525.9930503679999 198.02879999999996L525.9066503679999 198.02879999999996L525.9642503679999 198.02879999999996M525.9642503679999 178.61759999999998L525.9930503679999 178.61759999999998L525.9066503679999 178.61759999999998L525.9642503679999 178.61759999999998">
</path>
<path stroke-width="0.3" fill="black" stroke="none" stroke-dasharray="none" d="M519.2250503679999 217.99999999999997M524.2362503679999 199.65439999999998C524.2650503679998 199.62559999999996,524.6682503679999 199.62559999999996,525.9066503679999 199.62559999999996C526.2810503679999 199.62559999999996,526.6842503679999 199.62559999999996,527.2026503679999 199.62559999999996L530.1114503679999 199.62559999999996L530.1978503679999 199.71199999999996C530.3418503679999 199.79839999999996,530.4282503679999 199.94239999999996,530.4282503679999 200.05759999999998C530.4282503679999 200.23039999999997,530.3418503679999 200.34559999999996,530.2266503679999 200.46079999999998C530.1978503679999 200.54719999999998,529.9386503679999 200.77759999999998,529.7658503679999 201.03679999999997L528.2394503679999 202.79359999999997L526.2810503679999 205.01119999999997L525.2442503679998 206.19199999999998L523.6890503679999 207.97759999999997L521.6442503679999 210.31039999999996C521.2986503679999 210.74239999999998,520.9242503679999 211.08799999999997,520.9242503679999 211.08799999999997C520.9242503679999 211.08799999999997,520.9242503679999 211.08799999999997,520.9242503679999 211.08799999999997C520.9242503679999 211.14559999999997,521.1834503679999 211.14559999999997,523.5738503679999 211.14559999999997L526.1946503679999 211.14559999999997L526.1946503679999 209.27359999999996C526.1946503679999 207.37279999999998,526.1946503679999 207.34399999999997,526.2234503679998 207.31519999999998C526.2810503679999 207.22879999999998,526.5402503679999 206.91199999999998,527.5482503679999 205.73119999999997L527.9514503679999 205.29919999999998L528.3546503679999 204.86719999999997L528.9594503679999 204.08959999999996L529.5930503679999 203.42719999999997L529.9098503679999 203.02399999999997C530.0250503679998 202.85119999999998,530.1978503679999 202.82239999999996,530.3418503679999 202.82239999999996C530.5146503679998 202.82239999999996,530.6586503679998 202.90879999999999,530.7450503679999 203.05279999999996C530.7738503679999 203.13919999999996,530.7738503679999 203.19679999999997,530.7738503679999 205.32799999999997C530.7738503679999 205.81759999999997,530.7738503679999 206.42239999999998,530.7738503679999 207.14239999999998L530.7738503679999 211.14559999999997L531.4938503679998 211.14559999999997C532.1562503679999 211.14559999999997,532.1850503679999 211.14559999999997,532.2714503679998 211.17439999999996C532.5018503679999 211.26079999999996,532.6170503679999 211.49119999999996,532.6170503679999 211.75039999999998C532.6170503679999 211.89439999999996,532.5882503679999 212.06719999999999,532.4730503679999 212.18239999999997C532.3002503679999 212.32639999999998,532.2714503679998 212.32639999999998,531.4938503679998 212.32639999999998L530.7738503679999 212.32639999999998L530.7738503679999 212.81599999999997C530.8026503679998 214.28479999999996,531.0906503679998 214.86079999999998,532.2138503679998 215.46559999999997C532.6170503679999 215.66719999999998,532.7034503679998 215.72479999999996,532.7034503679998 216.01279999999997C532.7034503679998 216.21439999999998,532.6458503679999 216.30079999999998,532.5018503679999 216.41599999999997L532.4154503679998 216.44479999999996L528.4698503679999 216.44479999999996L524.5530503679998 216.44479999999996L524.4666503679998 216.41599999999997C524.2938503679999 216.30079999999998,524.2650503679998 216.21439999999998,524.2650503679998 216.01279999999997C524.2650503679998 215.72479999999996,524.2938503679999 215.66719999999998,524.7258503679999 215.46559999999997C525.8490503679999 214.86079999999998,526.1370503679999 214.28479999999996,526.1370503679999 212.81599999999997L526.1370503679999 212.32639999999998L522.8250503679999 212.32639999999998C522.2202503679998 212.38399999999996,521.7306503679998 212.38399999999996,521.3274503679999 212.38399999999996C519.5130503679999 212.38399999999996,519.4842503679998 212.32639999999998,519.4554503679999 212.32639999999998C519.2826503679998 212.26879999999997,519.2250503679999 212.09599999999998,519.2250503679999 211.89439999999996C519.2250503679999 211.89439999999996,519.2250503679999 211.89439999999996,519.2250503679999 211.89439999999996C519.2250503679999 211.69279999999998,519.2250503679999 211.69279999999998,519.8010503679999 211.0304C522.2202503679998 208.09279999999998,523.9194503679998 203.83039999999997,523.9194503679998 200.43199999999996C523.9194503679998 199.91359999999997,524.0058503679999 199.74079999999998,524.2362503679999 199.65439999999998M525.9642503679999 218.02879999999996L525.9930503679999 218.02879999999996L525.9066503679999 218.02879999999996L525.9642503679999 218.02879999999996M525.9642503679999 198.61759999999998L525.9930503679999 198.61759999999998L525.9066503679999 198.61759999999998L525.9642503679999 198.61759999999998">
</path>
<g class="vf-stavenote" id="vf-auto82075">
<g class="vf-note" pointer-events="bounding-box">
<g class="vf-notehead" pointer-events="bounding-box">
<path stroke-width="0.3" fill="#000000" stroke="none" stroke-dasharray="none" d="M570.5675271679999 197.99999999999997M577.9244871679998 192.77711999999997C578.0368071679999 192.77711999999997,578.2052871679998 192.77711999999997,578.2333671679999 192.77711999999997C578.2333671679999 192.77711999999997,578.2614471679999 192.77711999999997,578.2614471679999 192.77711999999997C578.2614471679999 192.77711999999997,578.4299271679998 192.77711999999997,578.5703271679998 192.77711999999997C581.0975271679998 192.91751999999997,582.5857671679998 194.57423999999997,582.5857671679998 196.65215999999998C582.5857671679998 197.66303999999997,582.2488071679999 198.81431999999998,581.4064071679999 199.90943999999996C579.8058471679999 202.07159999999996,577.1944071679999 203.25095999999996,574.9199271679998 203.25095999999996C573.1508871679998 203.25095999999996,571.6345671679999 202.54895999999997,570.9044871679998 201.11687999999998C570.6798471679998 200.55527999999998,570.5675271679999 200.02175999999997,570.5675271679999 199.43207999999998C570.5675271679999 196.37135999999998,573.9932871679998 192.97367999999997,577.9244871679998 192.77711999999997">
</path>
</g>
</g>
<g class="vf-modifiers">
<g class="vf-stavenote" id="vf-auto82085">
<g class="vf-note" pointer-events="bounding-box">
<g class="vf-stem" pointer-events="bounding-box">
<path stroke-width="1.5" fill="none" stroke="#000000" stroke-dasharray="none" d="M551.8854887679998 197.99999999999997L551.8854887679998 174.89999999999998">
</path>
</g>
<g class="vf-notehead" pointer-events="bounding-box">
<path stroke-width="0.3" fill="#000000" stroke="none" stroke-dasharray="none" d="M544.7034503679998 197.99999999999997M549.5590439679999 194.55289919999998C549.6331751679999 194.55289919999998,549.7443719679999 194.55289919999998,549.7629047679999 194.55289919999998C549.7629047679999 194.55289919999998,549.7814375679999 194.55289919999998,549.7814375679999 194.55289919999998C549.7814375679999 194.55289919999998,549.8926343679998 194.55289919999998,549.9852983679998 194.55289919999998C551.6532503679998 194.64556319999997,552.6354887679998 195.73899839999996,552.6354887679998 197.11042559999999C552.6354887679998 197.77760639999997,552.4130951679998 198.53745119999996,551.8571111679998 199.26023039999998C550.8007415679998 200.68725599999996,549.0771911679998 201.46563359999996,547.5760343679998 201.46563359999996C546.4084679679999 201.46563359999996,545.4076967679998 201.00231359999998,544.9258439679999 200.05714079999998C544.7775815679998 199.68648479999996,544.7034503679998 199.33436159999997,544.7034503679998 198.94517279999997C544.7034503679998 196.92509759999996,546.9644519679998 194.68262879999997,549.5590439679999 194.55289919999998">
</path>
</g>
<g class="vf-flag" pointer-events="bounding-box">
<path stroke-width="0.3" fill="#000000" stroke="none" stroke-dasharray="none" d="M551.8854887679998 172.89999999999998M551.4407015679999 175.88378079999998L551.4407015679999 172.992664L551.5148327679998 172.992664C551.7186935679998 172.992664,551.8484231679998 173.12239359999998,551.8854887679998 173.34478719999998C552.2746775679999 175.19806719999997,553.4422439679998 177.21814239999998,555.0545975679998 178.73783199999997C556.8522791679999 180.42431679999999,557.7603863679999 182.74091679999998,557.7603863679999 185.13164799999998C557.7603863679999 187.39264959999997,556.9634759679999 189.74631519999997,555.3511223679999 191.69225919999997C555.0731303679999 192.06291519999996,555.0545975679998 192.06291519999996,554.8692695679998 192.06291519999996C554.6468759679998 192.06291519999996,554.4986135679999 191.89611999999997,554.4986135679999 191.67372639999996C554.4986135679999 191.50693119999997,554.5171463679999 191.4698656,554.7024743679998 191.2660048C556.1109671679999 189.56098719999997,556.8152135679999 187.5038464,556.8152135679999 185.5393696C556.8152135679999 183.7972864,556.2592295679998 182.12933439999998,555.1101959679999 180.86910399999996C554.4059495679999 180.09072639999997,553.1086535679998 179.34941439999997,551.4592343679999 178.77489759999997C551.4592343679999 178.75636479999997,551.4407015679999 178.18184799999997,551.4407015679999 175.88378079999998">
</path>
</g>
</g>
<g class="vf-modifiers">
</g>
</g>
<path stroke-width="1" fill="none" stroke="#000000" stroke-dasharray="none" d="M545.7034503679998 189.74999999999997L558.7034503679998 180.74999999999997Z">
</path>
</g>
</g>
<g class="vf-stavenote" id="vf-auto82099">
<g class="vf-note" pointer-events="bounding-box">
<g class="vf-notehead" pointer-events="bounding-box">
<path stroke-width="0.3" fill="#000000" stroke="none" stroke-dasharray="none" d="M615.7209895679998 197.99999999999997M623.0779495679998 192.77711999999997C623.1902695679998 192.77711999999997,623.3587495679998 192.77711999999997,623.3868295679998 192.77711999999997C623.3868295679998 192.77711999999997,623.4149095679999 192.77711999999997,623.4149095679999 192.77711999999997C623.4149095679999 192.77711999999997,623.5833895679998 192.77711999999997,623.7237895679998 192.77711999999997C626.2509895679998 192.91751999999997,627.7392295679998 194.57423999999997,627.7392295679998 196.65215999999998C627.7392295679998 197.66303999999997,627.4022695679998 198.81431999999998,626.5598695679998 199.90943999999996C624.9593095679999 202.07159999999996,622.3478695679999 203.25095999999996,620.0733895679998 203.25095999999996C618.3043495679998 203.25095999999996,616.7880295679998 202.54895999999997,616.0579495679998 201.11687999999998C615.8333095679998 200.55527999999998,615.7209895679998 200.02175999999997,615.7209895679998 199.43207999999998C615.7209895679998 196.37135999999998,619.1467495679998 192.97367999999997,623.0779495679998 192.77711999999997">
</path>
</g>
</g>
<g class="vf-modifiers">
</g>
</g>
<g class="vf-stavenote" id="vf-auto82109">
<g class="vf-note" pointer-events="bounding-box">
<g class="vf-notehead" pointer-events="bounding-box">
<path stroke-width="0.3" fill="#000000" stroke="none" stroke-dasharray="none" d="M647.3068407679998 197.99999999999997M654.6638007679998 192.77711999999997C654.7761207679998 192.77711999999997,654.9446007679998 192.77711999999997,654.9726807679998 192.77711999999997C654.9726807679998 192.77711999999997,655.0007607679999 192.77711999999997,655.0007607679999 192.77711999999997C655.0007607679999 192.77711999999997,655.1692407679998 192.77711999999997,655.3096407679998 192.77711999999997C657.8368407679998 192.91751999999997,659.3250807679998 194.57423999999997,659.3250807679998 196.65215999999998C659.3250807679998 197.66303999999997,658.9881207679998 198.81431999999998,658.1457207679998 199.90943999999996C656.5451607679998 202.07159999999996,653.9337207679998 203.25095999999996,651.6592407679998 203.25095999999996C649.8902007679998 203.25095999999996,648.3738807679998 202.54895999999997,647.6438007679998 201.11687999999998C647.4191607679998 200.55527999999998,647.3068407679998 200.02175999999997,647.3068407679998 199.43207999999998C647.3068407679998 196.37135999999998,650.7326007679998 192.97367999999997,654.6638007679998 192.77711999999997">
</path>
</g>
</g>
<g class="vf-modifiers">
</g>
</g>
<g class="vf-stavenote" id="vf-auto82119">
<g class="vf-note" pointer-events="bounding-box">
<g class="vf-notehead" pointer-events="bounding-box">
<path stroke-width="0.3" fill="#000000" stroke="none" stroke-dasharray="none" d="M704.7567687679998 197.99999999999997M712.1137287679998 192.77711999999997C712.2260487679998 192.77711999999997,712.3945287679998 192.77711999999997,712.4226087679998 192.77711999999997C712.4226087679998 192.77711999999997,712.4506887679998 192.77711999999997,712.4506887679998 192.77711999999997C712.4506887679998 192.77711999999997,712.6191687679998 192.77711999999997,712.7595687679998 192.77711999999997C715.2867687679998 192.91751999999997,716.7750087679998 194.57423999999997,716.7750087679998 196.65215999999998C716.7750087679998 197.66303999999997,716.4380487679998 198.81431999999998,715.5956487679998 199.90943999999996C713.9950887679998 202.07159999999996,711.3836487679998 203.25095999999996,709.1091687679998 203.25095999999996C707.3401287679998 203.25095999999996,705.8238087679998 202.54895999999997,705.0937287679998 201.11687999999998C704.8690887679998 200.55527999999998,704.7567687679998 200.02175999999997,704.7567687679998 199.43207999999998C704.7567687679998 196.37135999999998,708.1825287679998 192.97367999999997,712.1137287679998 192.77711999999997">
</path>
</g>
</g>
<g class="vf-modifiers">
<g class="vf-stavenote" id="vf-auto82129">
<g class="vf-note" pointer-events="bounding-box">
<g class="vf-stem" pointer-events="bounding-box">
<path stroke-width="1.5" fill="none" stroke="#000000" stroke-dasharray="none" d="M686.0747303679999 197.99999999999997L686.0747303679999 174.89999999999998">
</path>
</g>
<g class="vf-notehead" pointer-events="bounding-box">
<path stroke-width="0.3" fill="#000000" stroke="none" stroke-dasharray="none" d="M678.8926919679999 197.99999999999997M683.7482855679999 194.55289919999998C683.8224167679999 194.55289919999998,683.9336135679999 194.55289919999998,683.952146368 194.55289919999998C683.952146368 194.55289919999998,683.970679168 194.55289919999998,683.970679168 194.55289919999998C683.970679168 194.55289919999998,684.0818759679998 194.55289919999998,684.1745399679999 194.55289919999998C685.8424919679999 194.64556319999997,686.8247303679999 195.73899839999996,686.8247303679999 197.11042559999999C686.8247303679999 197.77760639999997,686.6023367679999 198.53745119999996,686.0463527679999 199.26023039999998C684.9899831679999 200.68725599999996,683.2664327679998 201.46563359999996,681.7652759679999 201.46563359999996C680.5977095679999 201.46563359999996,679.5969383679999 201.00231359999998,679.1150855679999 200.05714079999998C678.9668231679999 199.68648479999996,678.8926919679999 199.33436159999997,678.8926919679999 198.94517279999997C678.8926919679999 196.92509759999996,681.1536935679999 194.68262879999997,683.7482855679999 194.55289919999998">
</path>
</g>
<g class="vf-flag" pointer-events="bounding-box">
<path stroke-width="0.3" fill="#000000" stroke="none" stroke-dasharray="none" d="M686.0747303679999 172.89999999999998M685.629943168 175.88378079999998L685.629943168 172.992664L685.7040743679999 172.992664C685.9079351679999 172.992664,686.0376647679999 173.12239359999998,686.0747303679999 173.34478719999998C686.463919168 175.19806719999997,687.6314855679999 177.21814239999998,689.2438391679999 178.73783199999997C691.0415207679999 180.42431679999999,691.949627968 182.74091679999998,691.949627968 185.13164799999998C691.949627968 187.39264959999997,691.152717568 189.74631519999997,689.540363968 191.69225919999997C689.2623719679999 192.06291519999996,689.2438391679999 192.06291519999996,689.0585111679999 192.06291519999996C688.8361175679998 192.06291519999996,688.6878551679999 191.89611999999997,688.6878551679999 191.67372639999996C688.6878551679999 191.50693119999997,688.706387968 191.4698656,688.8917159679999 191.2660048C690.300208768 189.56098719999997,691.0044551679999 187.5038464,691.0044551679999 185.5393696C691.0044551679999 183.7972864,690.4484711679999 182.12933439999998,689.2994375679999 180.86910399999996C688.5951911679999 180.09072639999997,687.2978951679999 179.34941439999997,685.648475968 178.77489759999997C685.648475968 178.75636479999997,685.629943168 178.18184799999997,685.629943168 175.88378079999998">
</path>
</g>
</g>
<g class="vf-modifiers">
</g>
</g>
<path stroke-width="1" fill="none" stroke="#000000" stroke-dasharray="none" d="M679.8926919679999 189.74999999999997L692.8926919679999 180.74999999999997Z">
</path>
</g>
</g>
<g class="vf-stavenote" id="vf-auto82143">
<g class="vf-note" pointer-events="bounding-box">
<g class="vf-notehead" pointer-events="bounding-box">
<path stroke-width="0.3" fill="#000000" stroke="none" stroke-dasharray="none" d="M749.9102311679999 197.99999999999997M757.2671911679998 192.77711999999997C757.3795111679999 192.77711999999997,757.5479911679998 192.77711999999997,757.5760711679999 192.77711999999997C757.5760711679999 192.77711999999997,757.6041511679999 192.77711999999997,757.6041511679999 192.77711999999997C757.6041511679999 192.77711999999997,757.7726311679999 192.77711999999997,757.9130311679999 192.77711999999997C760.4402311679999 192.91751999999997,761.9284711679999 194.57423999999997,761.9284711679999 196.65215999999998C761.9284711679999 197.66303999999997,761.5915111679999 198.81431999999998,760.7491111679999 199.90943999999996C759.1485511679999 202.07159999999996,756.5371111679999 203.25095999999996,754.2626311679999 203.25095999999996C752.4935911679999 203.25095999999996,750.9772711679999 202.54895999999997,750.2471911679999 201.11687999999998C750.0225511679998 200.55527999999998,749.9102311679999 200.02175999999997,749.9102311679999 199.43207999999998C749.9102311679999 196.37135999999998,753.3359911679999 192.97367999999997,757.2671911679998 192.77711999999997">
</path>
</g>
</g>
<g class="vf-modifiers">
</g>
</g>
<g class="vf-stavenote" id="vf-auto82153">
<g class="vf-note" pointer-events="bounding-box">
<g class="vf-notehead" pointer-events="bounding-box">
<path stroke-width="0.3" fill="#000000" stroke="none" stroke-dasharray="none" d="M781.4960823679999 197.99999999999997M788.8530423679998 192.77711999999997C788.9653623679999 192.77711999999997,789.1338423679998 192.77711999999997,789.1619223679999 192.77711999999997C789.1619223679999 192.77711999999997,789.1900023679999 192.77711999999997,789.1900023679999 192.77711999999997C789.1900023679999 192.77711999999997,789.3584823679998 192.77711999999997,789.4988823679998 192.77711999999997C792.0260823679998 192.91751999999997,793.5143223679999 194.57423999999997,793.5143223679999 196.65215999999998C793.5143223679999 197.66303999999997,793.1773623679999 198.81431999999998,792.3349623679999 199.90943999999996C790.7344023679999 202.07159999999996,788.1229623679999 203.25095999999996,785.8484823679998 203.25095999999996C784.0794423679998 203.25095999999996,782.5631223679999 202.54895999999997,781.8330423679998 201.11687999999998C781.6084023679998 200.55527999999998,781.4960823679999 200.02175999999997,781.4960823679999 199.43207999999998C781.4960823679999 196.37135999999998,784.9218423679998 192.97367999999997,788.8530423679998 192.77711999999997">
</path>
</g>
</g>
<g class="vf-modifiers">
</g>
</g>
<g class="vf-stavenote" id="vf-auto82163">
<g class="vf-note" pointer-events="bounding-box">
<g class="vf-notehead" pointer-events="bounding-box">
<path stroke-width="0.3" fill="#000000" stroke="none" stroke-dasharray="none" d="M838.9460103679999 197.99999999999997M846.3029703679998 192.77711999999997C846.4152903679999 192.77711999999997,846.5837703679998 192.77711999999997,846.6118503679999 192.77711999999997C846.6118503679999 192.77711999999997,846.6399303679999 192.77711999999997,846.6399303679999 192.77711999999997C846.6399303679999 192.77711999999997,846.8084103679998 192.77711999999997,846.9488103679998 192.77711999999997C849.4760103679998 192.91751999999997,850.9642503679999 194.57423999999997,850.9642503679999 196.65215999999998C850.9642503679999 197.66303999999997,850.6272903679999 198.81431999999998,849.7848903679999 199.90943999999996C848.1843303679999 202.07159999999996,845.5728903679999 203.25095999999996,843.2984103679998 203.25095999999996C841.5293703679998 203.25095999999996,840.0130503679999 202.54895999999997,839.2829703679998 201.11687999999998C839.0583303679998 200.55527999999998,838.9460103679999 200.02175999999997,838.9460103679999 199.43207999999998C838.9460103679999 196.37135999999998,842.3717703679998 192.97367999999997,846.3029703679998 192.77711999999997">
</path>
</g>
</g>
<g class="vf-modifiers">
<g class="vf-stavenote" id="vf-auto82173">
<g class="vf-note" pointer-events="bounding-box">
<g class="vf-stem" pointer-events="bounding-box">
<path stroke-width="1.5" fill="none" stroke="#000000" stroke-dasharray="none" d="M820.2639719679999 197.99999999999997L820.2639719679999 174.89999999999998">
</path>
</g>
<g class="vf-notehead" pointer-events="bounding-box">
<path stroke-width="0.3" fill="#000000" stroke="none" stroke-dasharray="none" d="M813.0819335679998 197.99999999999997M817.9375271679999 194.55289919999998C818.0116583679999 194.55289919999998,818.1228551679999 194.55289919999998,818.1413879679999 194.55289919999998C818.1413879679999 194.55289919999998,818.1599207679999 194.55289919999998,818.1599207679999 194.55289919999998C818.1599207679999 194.55289919999998,818.2711175679998 194.55289919999998,818.3637815679998 194.55289919999998C820.0317335679998 194.64556319999997,821.0139719679999 195.73899839999996,821.0139719679999 197.11042559999999C821.0139719679999 197.77760639999997,820.7915783679998 198.53745119999996,820.2355943679999 199.26023039999998C819.1792247679998 200.68725599999996,817.4556743679998 201.46563359999996,815.9545175679998 201.46563359999996C814.7869511679999 201.46563359999996,813.7861799679998 201.00231359999998,813.3043271679999 200.05714079999998C813.1560647679999 199.68648479999996,813.0819335679998 199.33436159999997,813.0819335679998 198.94517279999997C813.0819335679998 196.92509759999996,815.3429351679998 194.68262879999997,817.9375271679999 194.55289919999998">
</path>
</g>
<g class="vf-flag" pointer-events="bounding-box">
<path stroke-width="0.3" fill="#000000" stroke="none" stroke-dasharray="none" d="M820.2639719679999 172.89999999999998M819.8191847679999 175.88378079999998L819.8191847679999 172.992664L819.8933159679998 172.992664C820.0971767679998 172.992664,820.2269063679998 173.12239359999998,820.2639719679999 173.34478719999998C820.6531607679999 175.19806719999997,821.8207271679998 177.21814239999998,823.4330807679999 178.73783199999997C825.2307623679999 180.42431679999999,826.1388695679999 182.74091679999998,826.1388695679999 185.13164799999998C826.1388695679999 187.39264959999997,825.3419591679999 189.74631519999997,823.7296055679999 191.69225919999997C823.4516135679999 192.06291519999996,823.4330807679999 192.06291519999996,823.2477527679998 192.06291519999996C823.0253591679998 192.06291519999996,822.8770967679999 191.89611999999997,822.8770967679999 191.67372639999996C822.8770967679999 191.50693119999997,822.8956295679999 191.4698656,823.0809575679998 191.2660048C824.4894503679999 189.56098719999997,825.1936967679999 187.5038464,825.1936967679999 185.5393696C825.1936967679999 183.7972864,824.6377127679998 182.12933439999998,823.4886791679999 180.86910399999996C822.7844327679999 180.09072639999997,821.4871367679998 179.34941439999997,819.8377175679999 178.77489759999997C819.8377175679999 178.75636479999997,819.8191847679999 178.18184799999997,819.8191847679999 175.88378079999998">
</path>
</g>
</g>
<g class="vf-modifiers">
</g>
</g>
<path stroke-width="1" fill="none" stroke="#000000" stroke-dasharray="none" d="M814.0819335679998 189.74999999999997L827.0819335679998 180.74999999999997Z">
</path>
</g>
</g>
<g class="vf-stavenote" id="vf-auto82187">
<g class="vf-note" pointer-events="bounding-box">
<g class="vf-notehead" pointer-events="bounding-box">
<path stroke-width="0.3" fill="#000000" stroke="none" stroke-dasharray="none" d="M870.5318615679998 197.99999999999997M877.8888215679998 192.77711999999997C878.0011415679999 192.77711999999997,878.1696215679998 192.77711999999997,878.1977015679998 192.77711999999997C878.1977015679998 192.77711999999997,878.2257815679999 192.77711999999997,878.2257815679999 192.77711999999997C878.2257815679999 192.77711999999997,878.3942615679998 192.77711999999997,878.5346615679998 192.77711999999997C881.0618615679998 192.91751999999997,882.5501015679998 194.57423999999997,882.5501015679998 196.65215999999998C882.5501015679998 197.66303999999997,882.2131415679999 198.81431999999998,881.3707415679999 199.90943999999996C879.7701815679999 202.07159999999996,877.1587415679999 203.25095999999996,874.8842615679998 203.25095999999996C873.1152215679998 203.25095999999996,871.5989015679999 202.54895999999997,870.8688215679998 201.11687999999998C870.6441815679998 200.55527999999998,870.5318615679998 200.02175999999997,870.5318615679998 199.43207999999998C870.5318615679998 196.37135999999998,873.9576215679998 192.97367999999997,877.8888215679998 192.77711999999997">
</path>
</g>
</g>
<g class="vf-modifiers">
</g>
</g>
<g class="vf-stavenote" id="vf-auto82197">
<g class="vf-note" pointer-events="bounding-box">
<g class="vf-notehead" pointer-events="bounding-box">
<path stroke-width="0.3" fill="#000000" stroke="none" stroke-dasharray="none" d="M927.9817895679998 197.99999999999997M935.3387495679998 192.77711999999997C935.4510695679999 192.77711999999997,935.6195495679998 192.77711999999997,935.6476295679998 192.77711999999997C935.6476295679998 192.77711999999997,935.6757095679999 192.77711999999997,935.6757095679999 192.77711999999997C935.6757095679999 192.77711999999997,935.8441895679998 192.77711999999997,935.9845895679998 192.77711999999997C938.5117895679998 192.91751999999997,940.0000295679998 194.57423999999997,940.0000295679998 196.65215999999998C940.0000295679998 197.66303999999997,939.6630695679999 198.81431999999998,938.8206695679999 199.90943999999996C937.2201095679999 202.07159999999996,934.6086695679999 203.25095999999996,932.3341895679998 203.25095999999996C930.5651495679998 203.25095999999996,929.0488295679999 202.54895999999997,928.3187495679998 201.11687999999998C928.0941095679998 200.55527999999998,927.9817895679998 200.02175999999997,927.9817895679998 199.43207999999998C927.9817895679998 196.37135999999998,931.4075495679998 192.97367999999997,935.3387495679998 192.77711999999997">
</path>
</g>
</g>
<g class="vf-modifiers">
<g class="vf-stavenote" id="vf-auto82207">
<g class="vf-note" pointer-events="bounding-box">
<g class="vf-stem" pointer-events="bounding-box">
<path stroke-width="1.5" fill="none" stroke="#000000" stroke-dasharray="none" d="M909.2997511679998 197.99999999999997L909.2997511679998 174.89999999999998">
</path>
</g>
<g class="vf-notehead" pointer-events="bounding-box">
<path stroke-width="0.3" fill="#000000" stroke="none" stroke-dasharray="none" d="M902.1177127679998 197.99999999999997M906.9733063679998 194.55289919999998C907.0474375679999 194.55289919999998,907.1586343679999 194.55289919999998,907.1771671679999 194.55289919999998C907.1771671679999 194.55289919999998,907.1956999679999 194.55289919999998,907.1956999679999 194.55289919999998C907.1956999679999 194.55289919999998,907.3068967679998 194.55289919999998,907.3995607679998 194.55289919999998C909.0675127679998 194.64556319999997,910.0497511679998 195.73899839999996,910.0497511679998 197.11042559999999C910.0497511679998 197.77760639999997,909.8273575679998 198.53745119999996,909.2713735679998 199.26023039999998C908.2150039679998 200.68725599999996,906.4914535679998 201.46563359999996,904.9902967679998 201.46563359999996C903.8227303679998 201.46563359999996,902.8219591679998 201.00231359999998,902.3401063679999 200.05714079999998C902.1918439679998 199.68648479999996,902.1177127679998 199.33436159999997,902.1177127679998 198.94517279999997C902.1177127679998 196.92509759999996,904.3787143679998 194.68262879999997,906.9733063679998 194.55289919999998">
</path>
</g>
<g class="vf-flag" pointer-events="bounding-box">
<path stroke-width="0.3" fill="#000000" stroke="none" stroke-dasharray="none" d="M909.2997511679998 172.89999999999998M908.8549639679999 175.88378079999998L908.8549639679999 172.992664L908.9290951679998 172.992664C909.1329559679998 172.992664,909.2626855679998 173.12239359999998,909.2997511679998 173.34478719999998C909.6889399679999 175.19806719999997,910.8565063679998 177.21814239999998,912.4688599679998 178.73783199999997C914.2665415679999 180.42431679999999,915.1746487679999 182.74091679999998,915.1746487679999 185.13164799999998C915.1746487679999 187.39264959999997,914.3777383679999 189.74631519999997,912.7653847679999 191.69225919999997C912.4873927679998 192.06291519999996,912.4688599679998 192.06291519999996,912.2835319679998 192.06291519999996C912.0611383679998 192.06291519999996,911.9128759679999 191.89611999999997,911.9128759679999 191.67372639999996C911.9128759679999 191.50693119999997,911.9314087679999 191.4698656,912.1167367679998 191.2660048C913.5252295679999 189.56098719999997,914.2294759679999 187.5038464,914.2294759679999 185.5393696C914.2294759679999 183.7972864,913.6734919679998 182.12933439999998,912.5244583679998 180.86910399999996C911.8202119679999 180.09072639999997,910.5229159679998 179.34941439999997,908.8734967679999 178.77489759999997C908.8734967679999 178.75636479999997,908.8549639679999 178.18184799999997,908.8549639679999 175.88378079999998">
</path>
</g>
</g>
<g class="vf-modifiers">
</g>
</g>
<path stroke-width="1" fill="none" stroke="#000000" stroke-dasharray="none" d="M903.1177127679998 189.74999999999997L916.1177127679998 180.74999999999997Z">
</path>
</g>
</g>
<g class="vf-stavenote" id="vf-auto82221">
<g class="vf-note" pointer-events="bounding-box">
<g class="vf-notehead" pointer-events="bounding-box">
<path stroke-width="0.3" fill="#000000" stroke="none" stroke-dasharray="none" d="M959.5676407679998 197.99999999999997M966.9246007679998 192.77711999999997C967.0369207679998 192.77711999999997,967.2054007679998 192.77711999999997,967.2334807679998 192.77711999999997C967.2334807679998 192.77711999999997,967.2615607679999 192.77711999999997,967.2615607679999 192.77711999999997C967.2615607679999 192.77711999999997,967.4300407679998 192.77711999999997,967.5704407679998 192.77711999999997C970.0976407679998 192.91751999999997,971.5858807679998 194.57423999999997,971.5858807679998 196.65215999999998C971.5858807679998 197.66303999999997,971.2489207679998 198.81431999999998,970.4065207679998 199.90943999999996C968.8059607679999 202.07159999999996,966.1945207679998 203.25095999999996,963.9200407679998 203.25095999999996C962.1510007679998 203.25095999999996,960.6346807679998 202.54895999999997,959.9046007679998 201.11687999999998C959.6799607679998 200.55527999999998,959.5676407679998 200.02175999999997,959.5676407679998 199.43207999999998C959.5676407679998 196.37135999999998,962.9934007679998 192.97367999999997,966.9246007679998 192.77711999999997">
</path>
</g>
</g>
<g class="vf-modifiers">
</g>
</g>
<g class="vf-stavenote" id="vf-auto82231">
<g class="vf-note" pointer-events="bounding-box">
<g class="vf-notehead" pointer-events="bounding-box">
<path stroke-width="0.3" fill="#000000" stroke="none" stroke-dasharray="none" d="M1017.0175687679998 197.99999999999997M1024.374528768 192.77711999999997C1024.4868487679998 192.77711999999997,1024.655328768 192.77711999999997,1024.6834087679997 192.77711999999997C1024.6834087679997 192.77711999999997,1024.7114887679998 192.77711999999997,1024.7114887679998 192.77711999999997C1024.7114887679998 192.77711999999997,1024.8799687679998 192.77711999999997,1025.0203687679998 192.77711999999997C1027.5475687679998 192.91751999999997,1029.035808768 194.57423999999997,1029.035808768 196.65215999999998C1029.035808768 197.66303999999997,1028.6988487679998 198.81431999999998,1027.8564487679998 199.90943999999996C1026.2558887679997 202.07159999999996,1023.6444487679998 203.25095999999996,1021.3699687679998 203.25095999999996C1019.6009287679998 203.25095999999996,1018.0846087679998 202.54895999999997,1017.3545287679998 201.11687999999998C1017.1298887679998 200.55527999999998,1017.0175687679998 200.02175999999997,1017.0175687679998 199.43207999999998C1017.0175687679998 196.37135999999998,1020.4433287679998 192.97367999999997,1024.374528768 192.77711999999997">
</path>
</g>
</g>
<g class="vf-modifiers">
<g class="vf-stavenote" id="vf-auto82241">
<g class="vf-note" pointer-events="bounding-box">
<g class="vf-stem" pointer-events="bounding-box">
<path stroke-width="1.5" fill="none" stroke="#000000" stroke-dasharray="none" d="M998.3355303679998 197.99999999999997L998.3355303679998 174.89999999999998">
</path>
</g>
<g class="vf-notehead" pointer-events="bounding-box">
<path stroke-width="0.3" fill="#000000" stroke="none" stroke-dasharray="none" d="M991.1534919679998 197.99999999999997M996.0090855679998 194.55289919999998C996.0832167679998 194.55289919999998,996.1944135679998 194.55289919999998,996.2129463679998 194.55289919999998C996.2129463679998 194.55289919999998,996.2314791679999 194.55289919999998,996.2314791679999 194.55289919999998C996.2314791679999 194.55289919999998,996.3426759679998 194.55289919999998,996.4353399679998 194.55289919999998C998.1032919679998 194.64556319999997,999.0855303679998 195.73899839999996,999.0855303679998 197.11042559999999C999.0855303679998 197.77760639999997,998.8631367679998 198.53745119999996,998.3071527679998 199.26023039999998C997.2507831679998 200.68725599999996,995.5272327679997 201.46563359999996,994.0260759679998 201.46563359999996C992.8585095679998 201.46563359999996,991.8577383679998 201.00231359999998,991.3758855679998 200.05714079999998C991.2276231679998 199.68648479999996,991.1534919679998 199.33436159999997,991.1534919679998 198.94517279999997C991.1534919679998 196.92509759999996,993.4144935679998 194.68262879999997,996.0090855679998 194.55289919999998">
</path>
</g>
<g class="vf-flag" pointer-events="bounding-box">
<path stroke-width="0.3" fill="#000000" stroke="none" stroke-dasharray="none" d="M998.3355303679998 172.89999999999998M997.8907431679999 175.88378079999998L997.8907431679999 172.992664L997.9648743679998 172.992664C998.1687351679998 172.992664,998.2984647679998 173.12239359999998,998.3355303679998 173.34478719999998C998.7247191679999 175.19806719999997,999.8922855679998 177.21814239999998,1001.5046391679998 178.73783199999997C1003.3023207679998 180.42431679999999,1004.2104279679999 182.74091679999998,1004.2104279679999 185.13164799999998C1004.2104279679999 187.39264959999997,1003.4135175679999 189.74631519999997,1001.8011639679999 191.69225919999997C1001.5231719679998 192.06291519999996,1001.5046391679998 192.06291519999996,1001.3193111679998 192.06291519999996C1001.0969175679998 192.06291519999996,1000.9486551679998 191.89611999999997,1000.9486551679998 191.67372639999996C1000.9486551679998 191.50693119999997,1000.9671879679998 191.4698656,1001.1525159679998 191.2660048C1002.5610087679999 189.56098719999997,1003.2652551679998 187.5038464,1003.2652551679998 185.5393696C1003.2652551679998 183.7972864,1002.7092711679998 182.12933439999998,1001.5602375679998 180.86910399999996C1000.8559911679998 180.09072639999997,999.5586951679998 179.34941439999997,997.9092759679999 178.77489759999997C997.9092759679999 178.75636479999997,997.8907431679999 178.18184799999997,997.8907431679999 175.88378079999998">
</path>
</g>
</g>
<g class="vf-modifiers">
</g>
</g>
<path stroke-width="1" fill="none" stroke="#000000" stroke-dasharray="none" d="M992.1534919679998 189.74999999999997L1005.1534919679998 180.74999999999997Z">
</path>
</g>
</g>
<g class="vf-stavenote" id="vf-auto82255">
<g class="vf-note" pointer-events="bounding-box">
<g class="vf-notehead" pointer-events="bounding-box">
<path stroke-width="0.3" fill="#000000" stroke="none" stroke-dasharray="none" d="M1048.6034199679998 197.99999999999997M1055.9603799679999 192.77711999999997C1056.0726999679998 192.77711999999997,1056.2411799679999 192.77711999999997,1056.2692599679997 192.77711999999997C1056.2692599679997 192.77711999999997,1056.2973399679997 192.77711999999997,1056.2973399679997 192.77711999999997C1056.2973399679997 192.77711999999997,1056.4658199679998 192.77711999999997,1056.6062199679998 192.77711999999997C1059.1334199679998 192.91751999999997,1060.621659968 194.57423999999997,1060.621659968 196.65215999999998C1060.621659968 197.66303999999997,1060.2846999679998 198.81431999999998,1059.4422999679998 199.90943999999996C1057.8417399679997 202.07159999999996,1055.2302999679998 203.25095999999996,1052.9558199679998 203.25095999999996C1051.1867799679999 203.25095999999996,1049.6704599679997 202.54895999999997,1048.940379968 201.11687999999998C1048.7157399679998 200.55527999999998,1048.6034199679998 200.02175999999997,1048.6034199679998 199.43207999999998C1048.6034199679998 196.37135999999998,1052.0291799679999 192.97367999999997,1055.9603799679999 192.77711999999997">
</path>
</g>
</g>
<g class="vf-modifiers">
</g>
</g>
<g class="vf-stavenote" id="vf-auto82265">
<g class="vf-note" pointer-events="bounding-box">
<g class="vf-notehead" pointer-events="bounding-box">
<path stroke-width="0.3" fill="#000000" stroke="none" stroke-dasharray="none" d="M1106.0533479679998 197.99999999999997M1113.4103079679999 192.77711999999997C1113.5226279679998 192.77711999999997,1113.6911079679999 192.77711999999997,1113.7191879679997 192.77711999999997C1113.7191879679997 192.77711999999997,1113.7472679679997 192.77711999999997,1113.7472679679997 192.77711999999997C1113.7472679679997 192.77711999999997,1113.9157479679998 192.77711999999997,1114.0561479679998 192.77711999999997C1116.5833479679998 192.91751999999997,1118.071587968 194.57423999999997,1118.071587968 196.65215999999998C1118.071587968 197.66303999999997,1117.7346279679998 198.81431999999998,1116.8922279679998 199.90943999999996C1115.2916679679997 202.07159999999996,1112.6802279679998 203.25095999999996,1110.4057479679998 203.25095999999996C1108.6367079679999 203.25095999999996,1107.1203879679997 202.54895999999997,1106.390307968 201.11687999999998C1106.1656679679998 200.55527999999998,1106.0533479679998 200.02175999999997,1106.0533479679998 199.43207999999998C1106.0533479679998 196.37135999999998,1109.4791079679999 192.97367999999997,1113.4103079679999 192.77711999999997">
</path>
</g>
</g>
<g class="vf-modifiers">
<g class="vf-stavenote" id="vf-auto82275">
<g class="vf-note" pointer-events="bounding-box">
<g class="vf-stem" pointer-events="bounding-box">
<path stroke-width="1.5" fill="none" stroke="#000000" stroke-dasharray="none" d="M1087.3713095679998 197.99999999999997L1087.3713095679998 174.89999999999998">
</path>
</g>
<g class="vf-notehead" pointer-events="bounding-box">
<path stroke-width="0.3" fill="#000000" stroke="none" stroke-dasharray="none" d="M1080.1892711679998 197.99999999999997M1085.0448647679998 194.55289919999998C1085.1189959679998 194.55289919999998,1085.2301927679998 194.55289919999998,1085.2487255679998 194.55289919999998C1085.2487255679998 194.55289919999998,1085.2672583679998 194.55289919999998,1085.2672583679998 194.55289919999998C1085.2672583679998 194.55289919999998,1085.3784551679998 194.55289919999998,1085.4711191679999 194.55289919999998C1087.1390711679999 194.64556319999997,1088.1213095679998 195.73899839999996,1088.1213095679998 197.11042559999999C1088.1213095679998 197.77760639999997,1087.8989159679998 198.53745119999996,1087.3429319679997 199.26023039999998C1086.2865623679997 200.68725599999996,1084.5630119679997 201.46563359999996,1083.0618551679997 201.46563359999996C1081.8942887679998 201.46563359999996,1080.8935175679999 201.00231359999998,1080.4116647679998 200.05714079999998C1080.2634023679998 199.68648479999996,1080.1892711679998 199.33436159999997,1080.1892711679998 198.94517279999997C1080.1892711679998 196.92509759999996,1082.4502727679999 194.68262879999997,1085.0448647679998 194.55289919999998">
</path>
</g>
<g class="vf-flag" pointer-events="bounding-box">
<path stroke-width="0.3" fill="#000000" stroke="none" stroke-dasharray="none" d="M1087.3713095679998 172.89999999999998M1086.9265223679997 175.88378079999998L1086.9265223679997 172.992664L1087.0006535679997 172.992664C1087.2045143679998 172.992664,1087.3342439679998 173.12239359999998,1087.3713095679998 173.34478719999998C1087.7604983679998 175.19806719999997,1088.9280647679998 177.21814239999998,1090.5404183679998 178.73783199999997C1092.3380999679998 180.42431679999999,1093.2462071679997 182.74091679999998,1093.2462071679997 185.13164799999998C1093.2462071679997 187.39264959999997,1092.4492967679998 189.74631519999997,1090.8369431679998 191.69225919999997C1090.5589511679998 192.06291519999996,1090.5404183679998 192.06291519999996,1090.3550903679998 192.06291519999996C1090.1326967679997 192.06291519999996,1089.9844343679997 191.89611999999997,1089.9844343679997 191.67372639999996C1089.9844343679997 191.50693119999997,1090.0029671679997 191.4698656,1090.1882951679997 191.2660048C1091.5967879679997 189.56098719999997,1092.3010343679998 187.5038464,1092.3010343679998 185.5393696C1092.3010343679998 183.7972864,1091.7450503679997 182.12933439999998,1090.5960167679998 180.86910399999996C1089.8917703679997 180.09072639999997,1088.5944743679997 179.34941439999997,1086.9450551679997 178.77489759999997C1086.9450551679997 178.75636479999997,1086.9265223679997 178.18184799999997,1086.9265223679997 175.88378079999998">
</path>
</g>
</g>
<g class="vf-modifiers">
</g>
</g>
<path stroke-width="1" fill="none" stroke="#000000" stroke-dasharray="none" d="M1081.1892711679998 189.74999999999997L1094.1892711679998 180.74999999999997Z">
</path>
</g>
</g>
<g class="vf-stavenote" id="vf-auto82289">
<g class="vf-note" pointer-events="bounding-box">
<g class="vf-notehead" pointer-events="bounding-box">
<path stroke-width="0.3" fill="#000000" stroke="none" stroke-dasharray="none" d="M1137.6391991679998 197.99999999999997M1144.9961591679998 192.77711999999997C1145.1084791679998 192.77711999999997,1145.2769591679998 192.77711999999997,1145.3050391679997 192.77711999999997C1145.3050391679997 192.77711999999997,1145.3331191679997 192.77711999999997,1145.3331191679997 192.77711999999997C1145.3331191679997 192.77711999999997,1145.5015991679998 192.77711999999997,1145.6419991679998 192.77711999999997C1148.1691991679997 192.91751999999997,1149.6574391679999 194.57423999999997,1149.6574391679999 196.65215999999998C1149.6574391679999 197.66303999999997,1149.3204791679998 198.81431999999998,1148.4780791679998 199.90943999999996C1146.8775191679997 202.07159999999996,1144.2660791679998 203.25095999999996,1141.9915991679998 203.25095999999996C1140.2225591679999 203.25095999999996,1138.7062391679997 202.54895999999997,1137.9761591679999 201.11687999999998C1137.7515191679997 200.55527999999998,1137.6391991679998 200.02175999999997,1137.6391991679998 199.43207999999998C1137.6391991679998 196.37135999999998,1141.0649591679999 192.97367999999997,1144.9961591679998 192.77711999999997">
</path>
</g>
</g>
<g class="vf-modifiers">
</g>
</g>
<path stroke-width="1.5" fill="none" stroke="#000000" stroke-dasharray="none" d="M581.8357671679998 197.99999999999997L581.8357671679998 163.74999999999997">
</path>
<path stroke-width="1.5" fill="none" stroke="#000000" stroke-dasharray="none" d="M626.9892295679998 197.99999999999997L626.9892295679998 163.74999999999997">
</path>
<path stroke-width="1.5" fill="none" stroke="#000000" stroke-dasharray="none" d="M658.5750807679998 197.99999999999997L658.5750807679998 163.74999999999997">
</path>
<path stroke-width="0.3" fill="#000000" stroke="none" stroke-dasharray="none" d="M581.0857671679998 162.99999999999997L581.0857671679998 167.99999999999997L658.8250807679998 167.99999999999997L658.8250807679998 162.99999999999997Z">
</path>
<path stroke-width="0.3" fill="#000000" stroke="none" stroke-dasharray="none" d="M626.2392295679998 170.49999999999997L626.2392295679998 175.49999999999997L658.8250807679998 175.49999999999997L658.8250807679998 170.49999999999997Z">
</path>
<path stroke-width="1.5" fill="none" stroke="#000000" stroke-dasharray="none" d="M716.0250087679998 197.99999999999997L716.0250087679998 163.74999999999997">
</path>
<path stroke-width="1.5" fill="none" stroke="#000000" stroke-dasharray="none" d="M761.1784711679999 197.99999999999997L761.1784711679999 163.74999999999997">
</path>
<path stroke-width="1.5" fill="none" stroke="#000000" stroke-dasharray="none" d="M792.7643223679999 197.99999999999997L792.7643223679999 163.74999999999997">
</path>
<path stroke-width="0.3" fill="#000000" stroke="none" stroke-dasharray="none" d="M715.2750087679998 162.99999999999997L715.2750087679998 167.99999999999997L793.0143223679999 167.99999999999997L793.0143223679999 162.99999999999997Z">
</path>
<path stroke-width="0.3" fill="#000000" stroke="none" stroke-dasharray="none" d="M760.4284711679999 170.49999999999997L760.4284711679999 175.49999999999997L793.0143223679999 175.49999999999997L793.0143223679999 170.49999999999997Z">
</path>
<path stroke-width="1.5" fill="none" stroke="#000000" stroke-dasharray="none" d="M850.2142503679999 197.99999999999997L850.2142503679999 163.74999999999997">
</path>
<path stroke-width="1.5" fill="none" stroke="#000000" stroke-dasharray="none" d="M881.8001015679998 197.99999999999997L881.8001015679998 163.74999999999997">
</path>
<path stroke-width="1.5" fill="none" stroke="#000000" stroke-dasharray="none" d="M939.2500295679998 197.99999999999997L939.2500295679998 163.74999999999997">
</path>
<path stroke-width="1.5" fill="none" stroke="#000000" stroke-dasharray="none" d="M970.8358807679998 197.99999999999997L970.8358807679998 163.74999999999997">
</path>
<path stroke-width="0.3" fill="#000000" stroke="none" stroke-dasharray="none" d="M849.4642503679999 162.99999999999997L849.4642503679999 167.99999999999997L971.0858807679998 167.99999999999997L971.0858807679998 162.99999999999997Z">
</path>
<path stroke-width="0.3" fill="#000000" stroke="none" stroke-dasharray="none" d="M849.4642503679999 170.49999999999997L849.4642503679999 175.49999999999997L971.0858807679998 175.49999999999997L971.0858807679998 170.49999999999997Z">
</path>
<path stroke-width="1.5" fill="none" stroke="#000000" stroke-dasharray="none" d="M1028.285808768 197.99999999999997L1028.285808768 163.74999999999997">
</path>
<path stroke-width="1.5" fill="none" stroke="#000000" stroke-dasharray="none" d="M1059.871659968 197.99999999999997L1059.871659968 163.74999999999997">
</path>
<path stroke-width="1.5" fill="none" stroke="#000000" stroke-dasharray="none" d="M1117.321587968 197.99999999999997L1117.321587968 163.74999999999997">
</path>
<path stroke-width="1.5" fill="none" stroke="#000000" stroke-dasharray="none" d="M1148.9074391679999 197.99999999999997L1148.9074391679999 163.74999999999997">
</path>
<path stroke-width="0.3" fill="#000000" stroke="none" stroke-dasharray="none" d="M1027.535808768 162.99999999999997L1027.535808768 167.99999999999997L1149.1574391679999 167.99999999999997L1149.1574391679999 162.99999999999997Z">
</path>
<path stroke-width="0.3" fill="#000000" stroke="none" stroke-dasharray="none" d="M1027.535808768 170.49999999999997L1027.535808768 175.49999999999997L1149.1574391679999 175.49999999999997L1149.1574391679999 170.49999999999997Z">
</path>
</svg>