<svg width="720" height="100" viewBox="50 135 720 100">
<path stroke-width="1" fill="none" stroke="black" stroke-dasharray="none" d="M50 197.99999999999997L452.66854758399984 197.99999999999997">
</path>
<rect stroke-width="0.3" fill="black" stroke="black" stroke-dasharray="none" x="452.66854758399984" y="177.49999999999997" width="1" height="41">
</rect>
<path stroke-width="0.3" fill="black" stroke="none" stroke-dasharray="none" d="M55 197.99999999999997M55 197.99999999999997L55 188.00639999999999L57.1888 188.00639999999999L59.4064 188.00639999999999L59.4064 197.99999999999997L59.4064 208.02239999999998L57.1888 208.02239999999998L55 208.02239999999998L55 197.99999999999997M63.870400000000004 198.02879999999996L63.870400000000004 188.00639999999999L66.1168 188.00639999999999L68.3632 188.00639999999999L68.3632 198.02879999999996L68.3632 208.02239999999998L66.1168 208.02239999999998L63.870400000000004 208.02239999999998L63.870400000000004 198.02879999999996">
</path>
<path stroke-width="0.3" fill="black" stroke="none" stroke-dasharray="none" d="M96.1296 197.99999999999997M101.80319999999999 179.33759999999998C101.91839999999999 179.33759999999998,102.11999999999999 179.33759999999998,102.3504 179.33759999999998C102.8112 179.33759999999998,103.416 179.33759999999998,103.56 179.39519999999996C105.72 179.65439999999998,107.448 180.74879999999996,108.1968 182.27519999999998C108.45599999999999 182.79359999999997,108.57119999999999 183.34079999999997,108.57119999999999 183.91679999999997C108.57119999999999 185.32799999999997,107.7936 186.94079999999997,106.38239999999999 188.15039999999996C105.4032 188.98559999999998,104.42399999999999 189.50399999999996,102.8976 189.99359999999996C100.9104 190.62719999999996,99.21119999999999 191.75039999999998,98.1168 193.10399999999998C98.1168 193.10399999999998,98.1168 193.13279999999997,98.1168 193.13279999999997C98.1168 193.13279999999997,98.1168 193.13279999999997,98.1168 193.13279999999997C98.1168 193.13279999999997,98.2032 193.10399999999998,98.26079999999999 193.01759999999996C99.3552 192.12479999999996,100.824 191.60639999999998,102.1488 191.60639999999998C103.2432 191.60639999999998,104.0208 191.80799999999996,105.0576 192.38399999999996C105.6912 192.70079999999996,106.2672 192.84479999999996,106.81439999999999 192.84479999999996C107.0448 192.84479999999996,107.2752 192.84479999999996,107.53439999999999 192.78719999999998C107.9088 192.70079999999996,108.312 192.41279999999998,108.45599999999999 192.18239999999997C108.5424 191.98079999999996,108.68639999999999 191.89439999999996,108.8592 191.89439999999996C109.08959999999999 191.89439999999996,109.32 192.06719999999999,109.32 192.32639999999998C109.32 192.52799999999996,109.0608 193.24799999999996,108.8304 193.7376C107.9088 195.58079999999998,106.29599999999999 196.73279999999997,104.7408 196.73279999999997C104.62559999999999 196.73279999999997,104.5392 196.73279999999997,104.42399999999999 196.70399999999998C104.0208 196.70399999999998,103.848 196.58879999999996,103.3296 196.24319999999997C102.23519999999999 195.52319999999997,100.8528 195.14879999999997,99.6432 195.14879999999997C99.1248 195.14879999999997,98.664 195.20639999999997,98.232 195.37919999999997C97.65599999999999 195.58079999999998,97.1088 195.92639999999997,96.93599999999999 196.18559999999997C96.8496 196.38719999999998,96.70559999999999 196.44479999999996,96.5328 196.44479999999996C96.3888 196.44479999999996,96.2448 196.38719999999998,96.1584 196.21439999999998L96.10079999999999 196.128L96.10079999999999 195.72479999999996C96.10079999999999 195.37919999999997,96.1296 195.26399999999998,96.1296 195.14879999999997C96.1584 195.06239999999997,96.18719999999999 194.88959999999997,96.18719999999999 194.74559999999997C96.70559999999999 192.32639999999998,98.4624 190.16639999999998,100.8528 189.10079999999996C102.8112 188.17919999999998,104.10719999999999 186.53759999999997,104.3376 184.46399999999997C104.39519999999999 184.29119999999998,104.39519999999999 184.14719999999997,104.39519999999999 183.97439999999997C104.39519999999999 182.13119999999998,103.0128 180.86399999999998,101.0544 180.86399999999998C100.9104 180.86399999999998,100.7376 180.86399999999998,100.5936 180.86399999999998C100.3056 180.89279999999997,100.2192 180.89279999999997,100.2192 180.95039999999997C100.2192 180.95039999999997,100.2192 180.97919999999996,100.3056 181.03679999999997C100.96799999999999 181.41119999999998,101.28479999999999 182.13119999999998,101.28479999999999 182.82239999999996C101.28479999999999 183.71519999999998,100.824 184.55039999999997,99.93119999999999 184.89599999999996C99.6432 184.98239999999998,99.3552 185.01119999999997,99.1248 185.01119999999997C97.9152 185.01119999999997,96.9072 183.97439999999997,96.9072 182.73599999999996C96.9072 182.50559999999996,96.9072 182.27519999999998,96.9648 182.01599999999996C97.3968 180.69119999999998,99.4416 179.59679999999997,101.80319999999999 179.33759999999998M102.696 198.02879999999996L102.75359999999999 198.02879999999996L102.6672 198.02879999999996L102.696 198.02879999999996M102.696 178.61759999999998L102.75359999999999 178.61759999999998L102.6672 178.61759999999998L102.696 178.61759999999998">
</path>
<path stroke-width="0.3" fill="black" stroke="none" stroke-dasharray="none" d="M96 217.99999999999997M101.0112 199.65439999999998C101.04 199.62559999999996,101.4432 199.62559999999996,102.6816 199.62559999999996C103.056 199.62559999999996,103.4592 199.62559999999996,103.9776 199.62559999999996L106.8864 199.62559999999996L106.9728 199.71199999999996C107.1168 199.79839999999996,107.2032 199.94239999999996,107.2032 200.05759999999998C107.2032 200.23039999999997,107.1168 200.34559999999996,107.0016 200.46079999999998C106.9728 200.54719999999998,106.7136 200.77759999999998,106.5408 201.03679999999997L105.0144 202.79359999999997L103.056 205.01119999999997L102.0192 206.19199999999998L100.464 207.97759999999997L98.4192 210.31039999999996C98.0736 210.74239999999998,97.6992 211.08799999999997,97.6992 211.08799999999997C97.6992 211.08799999999997,97.6992 211.08799999999997,97.6992 211.08799999999997C97.6992 211.14559999999997,97.9584 211.14559999999997,100.3488 211.14559999999997L102.9696 211.14559999999997L102.9696 209.27359999999996C102.9696 207.37279999999998,102.9696 207.34399999999997,102.9984 207.31519999999998C103.056 207.22879999999998,103.3152 206.91199999999998,104.3232 205.73119999999997L104.7264 205.29919999999998L105.1296 204.86719999999997L105.7344 204.08959999999996L106.368 203.42719999999997L106.6848 203.02399999999997C106.8 202.85119999999998,106.9728 202.82239999999996,107.1168 202.82239999999996C107.28960000000001 202.82239999999996,107.4336 202.90879999999999,107.52 203.05279999999996C107.5488 203.13919999999996,107.5488 203.19679999999997,107.5488 205.32799999999997C107.5488 205.81759999999997,107.5488 206.42239999999998,107.5488 207.14239999999998L107.5488 211.14559999999997L108.2688 211.14559999999997C108.9312 211.14559999999997,108.96 211.14559999999997,109.0464 211.17439999999996C109.2768 211.26079999999996,109.392 211.49119999999996,109.392 211.75039999999998C109.392 211.89439999999996,109.3632 212.06719999999999,109.248 212.18239999999997C109.0752 212.32639999999998,109.0464 212.32639999999998,108.2688 212.32639999999998L107.5488 212.32639999999998L107.5488 212.81599999999997C107.5776 214.28479999999996,107.8656 214.86079999999998,108.9888 215.46559999999997C109.392 215.66719999999998,109.4784 215.72479999999996,109.4784 216.01279999999997C109.4784 216.21439999999998,109.4208 216.30079999999998,109.2768 216.41599999999997L109.1904 216.44479999999996L105.2448 216.44479999999996L101.328 216.44479999999996L101.2416 216.41599999999997C101.0688 216.30079999999998,101.04 216.21439999999998,101.04 216.01279999999997C101.04 215.72479999999996,101.0688 215.66719999999998,101.5008 215.46559999999997C102.624 214.86079999999998,102.912 214.28479999999996,102.912 212.81599999999997L102.912 212.32639999999998L99.6 212.32639999999998C98.9952 212.38399999999996,98.5056 212.38399999999996,98.1024 212.38399999999996C96.288 212.38399999999996,96.2592 212.32639999999998,96.2304 212.32639999999998C96.0576 212.26879999999997,96 212.09599999999998,96 211.89439999999996C96 211.89439999999996,96 211.89439999999996,96 211.89439999999996C96 211.69279999999998,96 211.69279999999998,96.576 211.0304C98.9952 208.09279999999998,100.6944 203.83039999999997,100.6944 200.43199999999996C100.6944 199.91359999999997,100.7808 199.74079999999998,101.0112 199.65439999999998M102.7392 218.02879999999996L102.768 218.02879999999996L102.6816 218.02879999999996L102.7392 218.02879999999996M102.7392 198.61759999999998L102.768 198.61759999999998L102.6816 198.61759999999998L102.7392 198.61759999999998">
</path>
<g class="vf-stavenote" id="vf-auto63853">
<g class="vf-note" pointer-events="bounding-box">
<g class="vf-notehead" pointer-events="bounding-box">
<path stroke-width="0.3" fill="#000000" stroke="none" stroke-dasharray="none" d="M147.3424768 197.99999999999997M154.69943679999997 192.77711999999997C154.81175679999998 192.77711999999997,154.9802368 192.77711999999997,155.0083168 192.77711999999997C155.0083168 192.77711999999997,155.03639679999998 192.77711999999997,155.03639679999998 192.77711999999997C155.03639679999998 192.77711999999997,155.2048768 192.77711999999997,155.3452768 192.77711999999997C157.8724768 192.91751999999997,159.36071679999998 194.57423999999997,159.36071679999998 196.65215999999998C159.36071679999998 197.66303999999997,159.0237568 198.81431999999998,158.18135679999997 199.90943999999996C156.58079679999997 202.07159999999996,153.96935679999999 203.25095999999996,151.69487679999997 203.25095999999996C149.92583679999998 203.25095999999996,148.40951679999998 202.54895999999997,147.6794368 201.11687999999998C147.4547968 200.55527999999998,147.3424768 200.02175999999997,147.3424768 199.43207999999998C147.3424768 196.37135999999998,150.76823679999998 192.97367999999997,154.69943679999997 192.77711999999997">
</path>
</g>
</g>
<g class="vf-modifiers">
<g class="vf-stavenote" id="vf-auto63863">
<g class="vf-note" pointer-events="bounding-box">
<g class="vf-stem" pointer-events="bounding-box">
<path stroke-width="1.5" fill="none" stroke="#000000" stroke-dasharray="none" d="M128.6604384 197.99999999999997L128.6604384 174.89999999999998">
</path>
</g>
<g class="vf-notehead" pointer-events="bounding-box">
<path stroke-width="0.3" fill="#000000" stroke="none" stroke-dasharray="none" d="M121.4784 197.99999999999997M126.3339936 194.55289919999998C126.4081248 194.55289919999998,126.5193216 194.55289919999998,126.5378544 194.55289919999998C126.5378544 194.55289919999998,126.55638719999999 194.55289919999998,126.55638719999999 194.55289919999998C126.55638719999999 194.55289919999998,126.66758399999999 194.55289919999998,126.76024799999999 194.55289919999998C128.4282 194.64556319999997,129.4104384 195.73899839999996,129.4104384 197.11042559999999C129.4104384 197.77760639999997,129.1880448 198.53745119999996,128.6320608 199.26023039999998C127.5756912 200.68725599999996,125.8521408 201.46563359999996,124.350984 201.46563359999996C123.1834176 201.46563359999996,122.1826464 201.00231359999998,121.7007936 200.05714079999998C121.55253119999999 199.68648479999996,121.4784 199.33436159999997,121.4784 198.94517279999997C121.4784 196.92509759999996,123.7394016 194.68262879999997,126.3339936 194.55289919999998">
</path>
</g>
<g class="vf-flag" pointer-events="bounding-box">
<path stroke-width="0.3" fill="#000000" stroke="none" stroke-dasharray="none" d="M128.6604384 172.89999999999998M128.2156512 175.88378079999998L128.2156512 172.992664L128.2897824 172.992664C128.4936432 172.992664,128.6233728 173.12239359999998,128.6604384 173.34478719999998C129.0496272 175.19806719999997,130.2171936 177.21814239999998,131.8295472 178.73783199999997C133.6272288 180.42431679999999,134.535336 182.74091679999998,134.535336 185.13164799999998C134.535336 187.39264959999997,133.7384256 189.74631519999997,132.126072 191.69225919999997C131.84808 192.06291519999996,131.8295472 192.06291519999996,131.6442192 192.06291519999996C131.4218256 192.06291519999996,131.2735632 191.89611999999997,131.2735632 191.67372639999996C131.2735632 191.50693119999997,131.29209600000002 191.4698656,131.477424 191.2660048C132.88591680000002 189.56098719999997,133.5901632 187.5038464,133.5901632 185.5393696C133.5901632 183.7972864,133.0341792 182.12933439999998,131.88514560000002 180.86910399999996C131.1808992 180.09072639999997,129.8836032 179.34941439999997,128.234184 178.77489759999997C128.234184 178.75636479999997,128.2156512 178.18184799999997,128.2156512 175.88378079999998">
</path>
</g>
</g>
<g class="vf-modifiers">
</g>
</g>
<path stroke-width="1" fill="none" stroke="#000000" stroke-dasharray="none" d="M122.4784 189.74999999999997L135.4784 180.74999999999997Z">
</path>
</g>
</g>
<g class="vf-stavenote" id="vf-auto63877">
<g class="vf-note" pointer-events="bounding-box">
<g class="vf-notehead" pointer-events="bounding-box">
<path stroke-width="0.3" fill="#000000" stroke="none" stroke-dasharray="none" d="M182.44165759999998 197.99999999999997M189.79861759999997 192.77711999999997C189.91093759999998 192.77711999999997,190.0794176 192.77711999999997,190.1074976 192.77711999999997C190.1074976 192.77711999999997,190.13557759999998 192.77711999999997,190.13557759999998 192.77711999999997C190.13557759999998 192.77711999999997,190.3040576 192.77711999999997,190.4444576 192.77711999999997C192.9716576 192.91751999999997,194.45989759999998 194.57423999999997,194.45989759999998 196.65215999999998C194.45989759999998 197.66303999999997,194.1229376 198.81431999999998,193.28053759999997 199.90943999999996C191.67997759999997 202.07159999999996,189.06853759999998 203.25095999999996,186.79405759999997 203.25095999999996C185.02501759999998 203.25095999999996,183.50869759999998 202.54895999999997,182.7786176 201.11687999999998C182.5539776 200.55527999999998,182.44165759999998 200.02175999999997,182.44165759999998 199.43207999999998C182.44165759999998 196.37135999999998,185.86741759999998 192.97367999999997,189.79861759999997 192.77711999999997">
</path>
</g>
</g>
<g class="vf-modifiers">
</g>
</g>
<g class="vf-stavenote" id="vf-auto63887">
<g class="vf-note" pointer-events="bounding-box">
<g class="vf-notehead" pointer-events="bounding-box">
<path stroke-width="0.3" fill="#000000" stroke="none" stroke-dasharray="none" d="M217.54083839999998 197.99999999999997M224.89779839999997 192.77711999999997C225.01011839999998 192.77711999999997,225.1785984 192.77711999999997,225.2066784 192.77711999999997C225.2066784 192.77711999999997,225.23475839999998 192.77711999999997,225.23475839999998 192.77711999999997C225.23475839999998 192.77711999999997,225.4032384 192.77711999999997,225.5436384 192.77711999999997C228.07083839999999 192.91751999999997,229.55907839999998 194.57423999999997,229.55907839999998 196.65215999999998C229.55907839999998 197.66303999999997,229.2221184 198.81431999999998,228.37971839999997 199.90943999999996C226.77915839999997 202.07159999999996,224.16771839999998 203.25095999999996,221.89323839999997 203.25095999999996C220.12419839999998 203.25095999999996,218.60787839999998 202.54895999999997,217.8777984 201.11687999999998C217.6531584 200.55527999999998,217.54083839999998 200.02175999999997,217.54083839999998 199.43207999999998C217.54083839999998 196.37135999999998,220.96659839999998 192.97367999999997,224.89779839999997 192.77711999999997">
</path>
</g>
</g>
<g class="vf-modifiers">
</g>
</g>
<g class="vf-stavenote" id="vf-auto63897">
<g class="vf-note" pointer-events="bounding-box">
<g class="vf-notehead" pointer-events="bounding-box">
<path stroke-width="0.3" fill="#000000" stroke="none" stroke-dasharray="none" d="M252.6400192 197.99999999999997M259.9969792 192.77711999999997C260.1092992 192.77711999999997,260.2777792 192.77711999999997,260.3058592 192.77711999999997C260.3058592 192.77711999999997,260.33393920000003 192.77711999999997,260.33393920000003 192.77711999999997C260.33393920000003 192.77711999999997,260.5024192 192.77711999999997,260.6428192 192.77711999999997C263.1700192 192.91751999999997,264.65825920000003 194.57423999999997,264.65825920000003 196.65215999999998C264.65825920000003 197.66303999999997,264.3212992 198.81431999999998,263.4788992 199.90943999999996C261.8783392 202.07159999999996,259.2668992 203.25095999999996,256.99241920000003 203.25095999999996C255.2233792 203.25095999999996,253.7070592 202.54895999999997,252.97697920000002 201.11687999999998C252.75233920000002 200.55527999999998,252.6400192 200.02175999999997,252.6400192 199.43207999999998C252.6400192 196.37135999999998,256.0657792 192.97367999999997,259.9969792 192.77711999999997">
</path>
</g>
</g>
<g class="vf-modifiers">
</g>
</g>
<g class="vf-stavenote" id="vf-auto63907">
<g class="vf-note" pointer-events="bounding-box">
<g class="vf-notehead" pointer-events="bounding-box">
<path stroke-width="0.3" fill="#000000" stroke="none" stroke-dasharray="none" d="M313.6032768 197.99999999999997M320.9602368 192.77711999999997C321.07255680000003 192.77711999999997,321.2410368 192.77711999999997,321.2691168 192.77711999999997C321.2691168 192.77711999999997,321.2971968 192.77711999999997,321.2971968 192.77711999999997C321.2971968 192.77711999999997,321.4656768 192.77711999999997,321.6060768 192.77711999999997C324.1332768 192.91751999999997,325.6215168 194.57423999999997,325.6215168 196.65215999999998C325.6215168 197.66303999999997,325.2845568 198.81431999999998,324.4421568 199.90943999999996C322.8415968 202.07159999999996,320.23015680000003 203.25095999999996,317.9556768 203.25095999999996C316.18663680000003 203.25095999999996,314.6703168 202.54895999999997,313.9402368 201.11687999999998C313.7155968 200.55527999999998,313.6032768 200.02175999999997,313.6032768 199.43207999999998C313.6032768 196.37135999999998,317.02903680000003 192.97367999999997,320.9602368 192.77711999999997">
</path>
</g>
</g>
<g class="vf-modifiers">
<g class="vf-stavenote" id="vf-auto63917">
<g class="vf-note" pointer-events="bounding-box">
<g class="vf-stem" pointer-events="bounding-box">
<path stroke-width="1.5" fill="none" stroke="#000000" stroke-dasharray="none" d="M294.9212384 197.99999999999997L294.9212384 174.89999999999998">
</path>
</g>
<g class="vf-notehead" pointer-events="bounding-box">
<path stroke-width="0.3" fill="#000000" stroke="none" stroke-dasharray="none" d="M287.7392 197.99999999999997M292.5947936 194.55289919999998C292.66892479999996 194.55289919999998,292.7801216 194.55289919999998,292.7986544 194.55289919999998C292.7986544 194.55289919999998,292.8171872 194.55289919999998,292.8171872 194.55289919999998C292.8171872 194.55289919999998,292.928384 194.55289919999998,293.021048 194.55289919999998C294.68899999999996 194.64556319999997,295.6712384 195.73899839999996,295.6712384 197.11042559999999C295.6712384 197.77760639999997,295.44884479999996 198.53745119999996,294.8928608 199.26023039999998C293.83649119999995 200.68725599999996,292.1129408 201.46563359999996,290.611784 201.46563359999996C289.4442176 201.46563359999996,288.44344639999997 201.00231359999998,287.96159359999996 200.05714079999998C287.8133312 199.68648479999996,287.7392 199.33436159999997,287.7392 198.94517279999997C287.7392 196.92509759999996,290.00020159999997 194.68262879999997,292.5947936 194.55289919999998">
</path>
</g>
<g class="vf-flag" pointer-events="bounding-box">
<path stroke-width="0.3" fill="#000000" stroke="none" stroke-dasharray="none" d="M294.9212384 172.89999999999998M294.4764512 175.88378079999998L294.4764512 172.992664L294.5505824 172.992664C294.75444319999997 172.992664,294.8841728 173.12239359999998,294.9212384 173.34478719999998C295.3104272 175.19806719999997,296.4779936 177.21814239999998,298.0903472 178.73783199999997C299.8880288 180.42431679999999,300.796136 182.74091679999998,300.796136 185.13164799999998C300.796136 187.39264959999997,299.9992256 189.74631519999997,298.386872 191.69225919999997C298.10888 192.06291519999996,298.0903472 192.06291519999996,297.90501919999997 192.06291519999996C297.6826256 192.06291519999996,297.5343632 191.89611999999997,297.5343632 191.67372639999996C297.5343632 191.50693119999997,297.552896 191.4698656,297.738224 191.2660048C299.1467168 189.56098719999997,299.85096319999997 187.5038464,299.85096319999997 185.5393696C299.85096319999997 183.7972864,299.2949792 182.12933439999998,298.1459456 180.86910399999996C297.4416992 180.09072639999997,296.1444032 179.34941439999997,294.494984 178.77489759999997C294.494984 178.75636479999997,294.4764512 178.18184799999997,294.4764512 175.88378079999998">
</path>
</g>
</g>
<g class="vf-modifiers">
</g>
</g>
<path stroke-width="1" fill="none" stroke="#000000" stroke-dasharray="none" d="M288.7392 189.74999999999997L301.7392 180.74999999999997Z">
</path>
</g>
</g>
<g class="vf-stavenote" id="vf-auto63931">
<g class="vf-note" pointer-events="bounding-box">
<g class="vf-notehead" pointer-events="bounding-box">
<path stroke-width="0.3" fill="#000000" stroke="none" stroke-dasharray="none" d="M348.7024576 197.99999999999997M356.0594176 192.77711999999997C356.17173760000003 192.77711999999997,356.3402176 192.77711999999997,356.3682976 192.77711999999997C356.3682976 192.77711999999997,356.3963776 192.77711999999997,356.3963776 192.77711999999997C356.3963776 192.77711999999997,356.5648576 192.77711999999997,356.7052576 192.77711999999997C359.2324576 192.91751999999997,360.7206976 194.57423999999997,360.7206976 196.65215999999998C360.7206976 197.66303999999997,360.3837376 198.81431999999998,359.5413376 199.90943999999996C357.9407776 202.07159999999996,355.32933760000003 203.25095999999996,353.0548576 203.25095999999996C351.28581760000003 203.25095999999996,349.7694976 202.54895999999997,349.0394176 201.11687999999998C348.8147776 200.55527999999998,348.7024576 200.02175999999997,348.7024576 199.43207999999998C348.7024576 196.37135999999998,352.1282176 192.97367999999997,356.0594176 192.77711999999997">
</path>
</g>
</g>
<g class="vf-modifiers">
</g>
</g>
<g class="vf-stavenote" id="vf-auto63941">
<g class="vf-note" pointer-events="bounding-box">
<g class="vf-notehead" pointer-events="bounding-box">
<path stroke-width="0.3" fill="#000000" stroke="none" stroke-dasharray="none" d="M383.8016384 197.99999999999997M391.1585984 192.77711999999997C391.2709184 192.77711999999997,391.4393984 192.77711999999997,391.4674784 192.77711999999997C391.4674784 192.77711999999997,391.4955584 192.77711999999997,391.4955584 192.77711999999997C391.4955584 192.77711999999997,391.6640384 192.77711999999997,391.8044384 192.77711999999997C394.3316384 192.91751999999997,395.8198784 194.57423999999997,395.8198784 196.65215999999998C395.8198784 197.66303999999997,395.4829184 198.81431999999998,394.6405184 199.90943999999996C393.0399584 202.07159999999996,390.42851840000003 203.25095999999996,388.1540384 203.25095999999996C386.38499840000003 203.25095999999996,384.8686784 202.54895999999997,384.1385984 201.11687999999998C383.9139584 200.55527999999998,383.8016384 200.02175999999997,383.8016384 199.43207999999998C383.8016384 196.37135999999998,387.2273984 192.97367999999997,391.1585984 192.77711999999997">
</path>
</g>
</g>
<g class="vf-modifiers">
</g>
</g>
<g class="vf-stavenote" id="vf-auto63951">
<g class="vf-note" pointer-events="bounding-box">
<g class="vf-notehead" pointer-events="bounding-box">
<path stroke-width="0.3" fill="#000000" stroke="none" stroke-dasharray="none" d="M418.9008192 197.99999999999997M426.2577792 192.77711999999997C426.3700992 192.77711999999997,426.5385792 192.77711999999997,426.5666592 192.77711999999997C426.5666592 192.77711999999997,426.5947392 192.77711999999997,426.5947392 192.77711999999997C426.5947392 192.77711999999997,426.7632192 192.77711999999997,426.9036192 192.77711999999997C429.4308192 192.91751999999997,430.9190592 194.57423999999997,430.9190592 196.65215999999998C430.9190592 197.66303999999997,430.5820992 198.81431999999998,429.7396992 199.90943999999996C428.1391392 202.07159999999996,425.52769920000003 203.25095999999996,423.2532192 203.25095999999996C421.4841792 203.25095999999996,419.9678592 202.54895999999997,419.2377792 201.11687999999998C419.0131392 200.55527999999998,418.9008192 200.02175999999997,418.9008192 199.43207999999998C418.9008192 196.37135999999998,422.3265792 192.97367999999997,426.2577792 192.77711999999997">
</path>
</g>
</g>
<g class="vf-modifiers">
</g>
</g>
<path stroke-width="1.5" fill="none" stroke="#000000" stroke-dasharray="none" d="M158.61071679999998 197.99999999999997L158.61071679999998 163.74999999999997">
</path>
<path stroke-width="1.5" fill="none" stroke="#000000" stroke-dasharray="none" d="M193.70989759999998 197.99999999999997L193.70989759999998 163.74999999999997">
</path>
<path stroke-width="1.5" fill="none" stroke="#000000" stroke-dasharray="none" d="M228.80907839999998 197.99999999999997L228.80907839999998 163.74999999999997">
</path>
<path stroke-width="1.5" fill="none" stroke="#000000" stroke-dasharray="none" d="M263.90825920000003 197.99999999999997L263.90825920000003 163.74999999999997">
</path>
<path stroke-width="0.3" fill="#000000" stroke="none" stroke-dasharray="none" d="M157.86071679999998 162.99999999999997L157.86071679999998 167.99999999999997L264.15825920000003 167.99999999999997L264.15825920000003 162.99999999999997Z">
</path>
<path stroke-width="0.3" fill="#000000" stroke="none" stroke-dasharray="none" d="M157.86071679999998 170.49999999999997L157.86071679999998 175.49999999999997L264.15825920000003 175.49999999999997L264.15825920000003 170.49999999999997Z">
</path>
<path stroke-width="1.5" fill="none" stroke="#000000" stroke-dasharray="none" d="M324.8715168 197.99999999999997L324.8715168 163.74999999999997">
</path>
<path stroke-width="1.5" fill="none" stroke="#000000" stroke-dasharray="none" d="M359.9706976 197.99999999999997L359.9706976 163.74999999999997">
</path>
<path stroke-width="1.5" fill="none" stroke="#000000" stroke-dasharray="none" d="M395.0698784 197.99999999999997L395.0698784 163.74999999999997">
</path>
<path stroke-width="1.5" fill="none" stroke="#000000" stroke-dasharray="none" d="M430.1690592 197.99999999999997L430.1690592 163.74999999999997">
</path>
<path stroke-width="0.3" fill="#000000" stroke="none" stroke-dasharray="none" d="M324.1215168 162.99999999999997L324.1215168 167.99999999999997L430.4190592 167.99999999999997L430.4190592 162.99999999999997Z">
</path>
<path stroke-width="0.3" fill="#000000" stroke="none" stroke-dasharray="none" d="M324.1215168 170.49999999999997L324.1215168 175.49999999999997L430.4190592 175.49999999999997L430.4190592 170.49999999999997Z">
</path>
<path stroke-width="1" fill="none" stroke="black" stroke-dasharray="none" d="M452.66854758399984 197.99999999999997L767.7805923839998 197.99999999999997">
</path>
<rect stroke-width="0.3" fill="black" stroke="black" stroke-dasharray="none" x="762.7805923839998" y="177.49999999999997" width="1" height="41">
</rect>
<rect stroke-width="0.3" fill="black" stroke="black" stroke-dasharray="none" x="765.7805923839998" y="177.49999999999997" width="3" height="41">
</rect>
<path stroke-width="0.3" fill="black" stroke="none" stroke-dasharray="none" d="M761.7805923839998 193.49999999999997 A2 2 0 0 0 757.7805923839998 193.49999999999997M757.7805923839998 193.49999999999997 A2 2 0 0 0 761.7805923839998 193.49999999999997">
</path>
<path stroke-width="0.3" fill="black" stroke="none" stroke-dasharray="none" d="M761.7805923839998 203.49999999999997 A2 2 0 0 0 757.7805923839998 203.49999999999997M757.7805923839998 203.49999999999997 A2 2 0 0 0 761.7805923839998 203.49999999999997">
</path>
<path stroke-width="0.3" fill="black" stroke="none" stroke-dasharray="none" d="M457.66854758399984 197.99999999999997M462.6797475839998 179.65439999999998C462.70854758399986 179.62559999999996,463.11174758399983 179.62559999999996,464.35014758399984 179.62559999999996C464.7245475839998 179.62559999999996,465.12774758399985 179.62559999999996,465.64614758399983 179.62559999999996L468.5549475839998 179.62559999999996L468.64134758399985 179.71199999999996C468.78534758399985 179.79839999999996,468.8717475839998 179.94239999999996,468.8717475839998 180.05759999999998C468.8717475839998 180.23039999999997,468.78534758399985 180.34559999999996,468.67014758399984 180.46079999999998C468.64134758399985 180.54719999999998,468.3821475839998 180.77759999999998,468.20934758399983 181.03679999999997L466.68294758399986 182.79359999999997L464.7245475839998 185.01119999999997L463.68774758399985 186.19199999999998L462.13254758399984 187.97759999999997L460.0877475839998 190.31039999999996C459.74214758399984 190.74239999999998,459.36774758399986 191.08799999999997,459.36774758399986 191.08799999999997C459.36774758399986 191.08799999999997,459.36774758399986 191.08799999999997,459.36774758399986 191.08799999999997C459.36774758399986 191.14559999999997,459.6269475839998 191.14559999999997,462.0173475839998 191.14559999999997L464.63814758399985 191.14559999999997L464.63814758399985 189.27359999999996C464.63814758399985 187.37279999999998,464.63814758399985 187.34399999999997,464.66694758399984 187.31519999999998C464.7245475839998 187.22879999999998,464.98374758399984 186.91199999999998,465.9917475839998 185.73119999999997L466.39494758399985 185.29919999999998L466.7981475839998 184.86719999999997L467.40294758399983 184.08959999999996L468.03654758399983 183.42719999999997L468.35334758399983 183.02399999999997C468.46854758399985 182.85119999999998,468.64134758399985 182.82239999999996,468.78534758399985 182.82239999999996C468.95814758399985 182.82239999999996,469.10214758399985 182.90879999999999,469.1885475839998 183.05279999999996C469.21734758399987 183.13919999999996,469.21734758399987 183.19679999999997,469.21734758399987 185.32799999999997C469.21734758399987 185.81759999999997,469.21734758399987 186.42239999999998,469.21734758399987 187.14239999999998L469.21734758399987 191.14559999999997L469.93734758399984 191.14559999999997C470.59974758399983 191.14559999999997,470.6285475839998 191.14559999999997,470.71494758399984 191.17439999999996C470.9453475839998 191.26079999999996,471.06054758399983 191.49119999999996,471.06054758399983 191.75039999999998C471.06054758399983 191.89439999999996,471.03174758399985 192.06719999999999,470.91654758399983 192.18239999999997C470.74374758399983 192.32639999999998,470.71494758399984 192.32639999999998,469.93734758399984 192.32639999999998L469.21734758399987 192.32639999999998L469.21734758399987 192.81599999999997C469.24614758399986 194.28479999999996,469.5341475839998 194.86079999999998,470.65734758399987 195.46559999999997C471.06054758399983 195.66719999999998,471.14694758399986 195.72479999999996,471.14694758399986 196.01279999999997C471.14694758399986 196.21439999999998,471.0893475839998 196.30079999999998,470.9453475839998 196.41599999999997L470.85894758399985 196.44479999999996L466.91334758399984 196.44479999999996L462.9965475839998 196.44479999999996L462.91014758399984 196.41599999999997C462.73734758399985 196.30079999999998,462.70854758399986 196.21439999999998,462.70854758399986 196.01279999999997C462.70854758399986 195.72479999999996,462.73734758399985 195.66719999999998,463.16934758399987 195.46559999999997C464.29254758399986 194.86079999999998,464.5805475839998 194.28479999999996,464.5805475839998 192.81599999999997L464.5805475839998 192.32639999999998L461.26854758399986 192.32639999999998C460.66374758399985 192.38399999999996,460.17414758399985 192.38399999999996,459.7709475839998 192.38399999999996C457.95654758399985 192.38399999999996,457.92774758399986 192.32639999999998,457.8989475839998 192.32639999999998C457.7261475839998 192.26879999999997,457.66854758399984 192.09599999999998,457.66854758399984 191.89439999999996C457.66854758399984 191.89439999999996,457.66854758399984 191.89439999999996,457.66854758399984 191.89439999999996C457.66854758399984 191.69279999999998,457.66854758399984 191.69279999999998,458.24454758399986 191.0304C460.66374758399985 188.09279999999998,462.3629475839998 183.83039999999997,462.3629475839998 180.43199999999996C462.3629475839998 179.91359999999997,462.44934758399984 179.74079999999998,462.6797475839998 179.65439999999998M464.4077475839998 198.02879999999996L464.4365475839998 198.02879999999996L464.35014758399984 198.02879999999996L464.4077475839998 198.02879999999996M464.4077475839998 178.61759999999998L464.4365475839998 178.61759999999998L464.35014758399984 178.61759999999998L464.4077475839998 178.61759999999998">
</path>
<path stroke-width="0.3" fill="black" stroke="none" stroke-dasharray="none" d="M457.66854758399984 217.99999999999997M462.6797475839998 199.65439999999998C462.70854758399986 199.62559999999996,463.11174758399983 199.62559999999996,464.35014758399984 199.62559999999996C464.7245475839998 199.62559999999996,465.12774758399985 199.62559999999996,465.64614758399983 199.62559999999996L468.5549475839998 199.62559999999996L468.64134758399985 199.71199999999996C468.78534758399985 199.79839999999996,468.8717475839998 199.94239999999996,468.8717475839998 200.05759999999998C468.8717475839998 200.23039999999997,468.78534758399985 200.34559999999996,468.67014758399984 200.46079999999998C468.64134758399985 200.54719999999998,468.3821475839998 200.77759999999998,468.20934758399983 201.03679999999997L466.68294758399986 202.79359999999997L464.7245475839998 205.01119999999997L463.68774758399985 206.19199999999998L462.13254758399984 207.97759999999997L460.0877475839998 210.31039999999996C459.74214758399984 210.74239999999998,459.36774758399986 211.08799999999997,459.36774758399986 211.08799999999997C459.36774758399986 211.08799999999997,459.36774758399986 211.08799999999997,459.36774758399986 211.08799999999997C459.36774758399986 211.14559999999997,459.6269475839998 211.14559999999997,462.0173475839998 211.14559999999997L464.63814758399985 211.14559999999997L464.63814758399985 209.27359999999996C464.63814758399985 207.37279999999998,464.63814758399985 207.34399999999997,464.66694758399984 207.31519999999998C464.7245475839998 207.22879999999998,464.98374758399984 206.91199999999998,465.9917475839998 205.73119999999997L466.39494758399985 205.29919999999998L466.7981475839998 204.86719999999997L467.40294758399983 204.08959999999996L468.03654758399983 203.42719999999997L468.35334758399983 203.02399999999997C468.46854758399985 202.85119999999998,468.64134758399985 202.82239999999996,468.78534758399985 202.82239999999996C468.95814758399985 202.82239999999996,469.10214758399985 202.90879999999999,469.1885475839998 203.05279999999996C469.21734758399987 203.13919999999996,469.21734758399987 203.19679999999997,469.21734758399987 205.32799999999997C469.21734758399987 205.81759999999997,469.21734758399987 206.42239999999998,469.21734758399987 207.14239999999998L469.21734758399987 211.14559999999997L469.93734758399984 211.14559999999997C470.59974758399983 211.14559999999997,470.6285475839998 211.14559999999997,470.71494758399984 211.17439999999996C470.9453475839998 211.26079999999996,471.06054758399983 211.49119999999996,471.06054758399983 211.75039999999998C471.06054758399983 211.89439999999996,471.03174758399985 212.06719999999999,470.91654758399983 212.18239999999997C470.74374758399983 212.32639999999998,470.71494758399984 212.32639999999998,469.93734758399984 212.32639999999998L469.21734758399987 212.32639999999998L469.21734758399987 212.81599999999997C469.24614758399986 214.28479999999996,469.5341475839998 214.86079999999998,470.65734758399987 215.46559999999997C471.06054758399983 215.66719999999998,471.14694758399986 215.72479999999996,471.14694758399986 216.01279999999997C471.14694758399986 216.21439999999998,471.0893475839998 216.30079999999998,470.9453475839998 216.41599999999997L470.85894758399985 216.44479999999996L466.91334758399984 216.44479999999996L462.9965475839998 216.44479999999996L462.91014758399984 216.41599999999997C462.73734758399985 216.30079999999998,462.70854758399986 216.21439999999998,462.70854758399986 216.01279999999997C462.70854758399986 215.72479999999996,462.73734758399985 215.66719999999998,463.16934758399987 215.46559999999997C464.29254758399986 214.86079999999998,464.5805475839998 214.28479999999996,464.5805475839998 212.81599999999997L464.5805475839998 212.32639999999998L461.26854758399986 212.32639999999998C460.66374758399985 212.38399999999996,460.17414758399985 212.38399999999996,459.7709475839998 212.38399999999996C457.95654758399985 212.38399999999996,457.92774758399986 212.32639999999998,457.8989475839998 212.32639999999998C457.7261475839998 212.26879999999997,457.66854758399984 212.09599999999998,457.66854758399984 211.89439999999996C457.66854758399984 211.89439999999996,457.66854758399984 211.89439999999996,457.66854758399984 211.89439999999996C457.66854758399984 211.69279999999998,457.66854758399984 211.69279999999998,458.24454758399986 211.0304C460.66374758399985 208.09279999999998,462.3629475839998 203.83039999999997,462.3629475839998 200.43199999999996C462.3629475839998 199.91359999999997,462.44934758399984 199.74079999999998,462.6797475839998 199.65439999999998M464.4077475839998 218.02879999999996L464.4365475839998 218.02879999999996L464.35014758399984 218.02879999999996L464.4077475839998 218.02879999999996M464.4077475839998 198.61759999999998L464.4365475839998 198.61759999999998L464.35014758399984 198.61759999999998L464.4077475839998 198.61759999999998">
</path>
<g class="vf-stavenote" id="vf-auto63964">
<g class="vf-note" pointer-events="bounding-box">
<g class="vf-notehead" pointer-events="bounding-box">
<path stroke-width="0.3" fill="#000000" stroke="none" stroke-dasharray="none" d="M483.14694758399986 197.99999999999997M490.5039075839999 192.77711999999997C490.6162275839999 192.77711999999997,490.7847075839999 192.77711999999997,490.81278758399986 192.77711999999997C490.81278758399986 192.77711999999997,490.84086758399985 192.77711999999997,490.84086758399985 192.77711999999997C490.84086758399985 192.77711999999997,491.00934758399984 192.77711999999997,491.14974758399984 192.77711999999997C493.6769475839999 192.91751999999997,495.16518758399985 194.57423999999997,495.16518758399985 196.65215999999998C495.16518758399985 197.66303999999997,494.8282275839999 198.81431999999998,493.9858275839999 199.90943999999996C492.38526758399985 202.07159999999996,489.77382758399983 203.25095999999996,487.49934758399985 203.25095999999996C485.7303075839999 203.25095999999996,484.2139875839999 202.54895999999997,483.48390758399984 201.11687999999998C483.2592675839999 200.55527999999998,483.14694758399986 200.02175999999997,483.14694758399986 199.43207999999998C483.14694758399986 196.37135999999998,486.5727075839999 192.97367999999997,490.5039075839999 192.77711999999997">
</path>
</g>
</g>
<g class="vf-modifiers">
</g>
</g>
<g class="vf-stavenote" id="vf-auto63974">
<g class="vf-note" pointer-events="bounding-box">
<g class="vf-notehead" pointer-events="bounding-box">
<path stroke-width="0.3" fill="#000000" stroke="none" stroke-dasharray="none" d="M518.9621475839999 197.99999999999997M526.3191075839999 192.77711999999997C526.431427584 192.77711999999997,526.5999075839999 192.77711999999997,526.6279875839999 192.77711999999997C526.6279875839999 192.77711999999997,526.656067584 192.77711999999997,526.656067584 192.77711999999997C526.656067584 192.77711999999997,526.8245475839999 192.77711999999997,526.9649475839999 192.77711999999997C529.4921475839999 192.91751999999997,530.9803875839999 194.57423999999997,530.9803875839999 196.65215999999998C530.9803875839999 197.66303999999997,530.6434275839999 198.81431999999998,529.8010275839999 199.90943999999996C528.200467584 202.07159999999996,525.589027584 203.25095999999996,523.3145475839999 203.25095999999996C521.5455075839999 203.25095999999996,520.0291875839999 202.54895999999997,519.2991075839999 201.11687999999998C519.0744675839999 200.55527999999998,518.9621475839999 200.02175999999997,518.9621475839999 199.43207999999998C518.9621475839999 196.37135999999998,522.3879075839999 192.97367999999997,526.3191075839999 192.77711999999997">
</path>
</g>
</g>
<g class="vf-modifiers">
</g>
</g>
<g class="vf-stavenote" id="vf-auto63984">
<g class="vf-note" pointer-events="bounding-box">
<g class="vf-notehead" pointer-events="bounding-box">
<path stroke-width="0.3" fill="#000000" stroke="none" stroke-dasharray="none" d="M554.7773475839999 197.99999999999997M562.1343075839999 192.77711999999997C562.246627584 192.77711999999997,562.4151075839999 192.77711999999997,562.4431875839999 192.77711999999997C562.4431875839999 192.77711999999997,562.471267584 192.77711999999997,562.471267584 192.77711999999997C562.471267584 192.77711999999997,562.6397475839999 192.77711999999997,562.7801475839999 192.77711999999997C565.3073475839999 192.91751999999997,566.7955875839999 194.57423999999997,566.7955875839999 196.65215999999998C566.7955875839999 197.66303999999997,566.4586275839999 198.81431999999998,565.616227584 199.90943999999996C564.015667584 202.07159999999996,561.404227584 203.25095999999996,559.1297475839999 203.25095999999996C557.3607075839999 203.25095999999996,555.844387584 202.54895999999997,555.1143075839999 201.11687999999998C554.8896675839999 200.55527999999998,554.7773475839999 200.02175999999997,554.7773475839999 199.43207999999998C554.7773475839999 196.37135999999998,558.2031075839999 192.97367999999997,562.1343075839999 192.77711999999997">
</path>
</g>
</g>
<g class="vf-modifiers">
</g>
</g>
<g class="vf-stavenote" id="vf-auto63994">
<g class="vf-note" pointer-events="bounding-box">
<g class="vf-notehead" pointer-events="bounding-box">
<path stroke-width="0.3" fill="#000000" stroke="none" stroke-dasharray="none" d="M590.5925475839999 197.99999999999997M597.9495075839999 192.77711999999997C598.061827584 192.77711999999997,598.2303075839999 192.77711999999997,598.2583875839999 192.77711999999997C598.2583875839999 192.77711999999997,598.286467584 192.77711999999997,598.286467584 192.77711999999997C598.286467584 192.77711999999997,598.4549475839999 192.77711999999997,598.5953475839999 192.77711999999997C601.1225475839999 192.91751999999997,602.6107875839999 194.57423999999997,602.6107875839999 196.65215999999998C602.6107875839999 197.66303999999997,602.273827584 198.81431999999998,601.431427584 199.90943999999996C599.830867584 202.07159999999996,597.219427584 203.25095999999996,594.9449475839999 203.25095999999996C593.1759075839999 203.25095999999996,591.659587584 202.54895999999997,590.9295075839999 201.11687999999998C590.7048675839999 200.55527999999998,590.5925475839999 200.02175999999997,590.5925475839999 199.43207999999998C590.5925475839999 196.37135999999998,594.0183075839999 192.97367999999997,597.9495075839999 192.77711999999997">
</path>
</g>
</g>
<g class="vf-modifiers">
</g>
</g>
<g class="vf-stavenote" id="vf-auto64004">
<g class="vf-note" pointer-events="bounding-box">
<g class="vf-notehead" pointer-events="bounding-box">
<path stroke-width="0.3" fill="#000000" stroke="none" stroke-dasharray="none" d="M626.4077475839999 197.99999999999997M633.7647075839999 192.77711999999997C633.877027584 192.77711999999997,634.0455075839999 192.77711999999997,634.0735875839999 192.77711999999997C634.0735875839999 192.77711999999997,634.101667584 192.77711999999997,634.101667584 192.77711999999997C634.101667584 192.77711999999997,634.2701475839999 192.77711999999997,634.4105475839999 192.77711999999997C636.9377475839999 192.91751999999997,638.4259875839999 194.57423999999997,638.4259875839999 196.65215999999998C638.4259875839999 197.66303999999997,638.089027584 198.81431999999998,637.246627584 199.90943999999996C635.646067584 202.07159999999996,633.034627584 203.25095999999996,630.7601475839999 203.25095999999996C628.9911075839999 203.25095999999996,627.474787584 202.54895999999997,626.7447075839999 201.11687999999998C626.5200675839999 200.55527999999998,626.4077475839999 200.02175999999997,626.4077475839999 199.43207999999998C626.4077475839999 196.37135999999998,629.8335075839999 192.97367999999997,633.7647075839999 192.77711999999997">
</path>
</g>
</g>
<g class="vf-modifiers">
</g>
</g>
<g class="vf-stavenote" id="vf-auto64014">
<g class="vf-note" pointer-events="bounding-box">
<g class="vf-notehead" pointer-events="bounding-box">
<path stroke-width="0.3" fill="#000000" stroke="none" stroke-dasharray="none" d="M662.2229475839998 197.99999999999997M669.5799075839998 192.77711999999997C669.6922275839999 192.77711999999997,669.8607075839998 192.77711999999997,669.8887875839998 192.77711999999997C669.8887875839998 192.77711999999997,669.9168675839999 192.77711999999997,669.9168675839999 192.77711999999997C669.9168675839999 192.77711999999997,670.0853475839998 192.77711999999997,670.2257475839998 192.77711999999997C672.7529475839998 192.91751999999997,674.2411875839998 194.57423999999997,674.2411875839998 196.65215999999998C674.2411875839998 197.66303999999997,673.9042275839998 198.81431999999998,673.0618275839998 199.90943999999996C671.4612675839999 202.07159999999996,668.8498275839999 203.25095999999996,666.5753475839998 203.25095999999996C664.8063075839998 203.25095999999996,663.2899875839998 202.54895999999997,662.5599075839998 201.11687999999998C662.3352675839998 200.55527999999998,662.2229475839998 200.02175999999997,662.2229475839998 199.43207999999998C662.2229475839998 196.37135999999998,665.6487075839998 192.97367999999997,669.5799075839998 192.77711999999997">
</path>
</g>
</g>
<g class="vf-modifiers">
</g>
</g>
<g class="vf-stavenote" id="vf-auto64024">
<g class="vf-note" pointer-events="bounding-box">
<g class="vf-notehead" pointer-events="bounding-box">
<path stroke-width="0.3" fill="#000000" stroke="none" stroke-dasharray="none" d="M698.0381475839998 197.99999999999997M705.3951075839998 192.77711999999997C705.5074275839999 192.77711999999997,705.6759075839998 192.77711999999997,705.7039875839998 192.77711999999997C705.7039875839998 192.77711999999997,705.7320675839999 192.77711999999997,705.7320675839999 192.77711999999997C705.7320675839999 192.77711999999997,705.9005475839998 192.77711999999997,706.0409475839998 192.77711999999997C708.5681475839998 192.91751999999997,710.0563875839998 194.57423999999997,710.0563875839998 196.65215999999998C710.0563875839998 197.66303999999997,709.7194275839998 198.81431999999998,708.8770275839998 199.90943999999996C707.2764675839999 202.07159999999996,704.6650275839999 203.25095999999996,702.3905475839998 203.25095999999996C700.6215075839998 203.25095999999996,699.1051875839999 202.54895999999997,698.3751075839998 201.11687999999998C698.1504675839998 200.55527999999998,698.0381475839998 200.02175999999997,698.0381475839998 199.43207999999998C698.0381475839998 196.37135999999998,701.4639075839998 192.97367999999997,705.3951075839998 192.77711999999997">
</path>
</g>
</g>
<g class="vf-modifiers">
</g>
</g>
<g class="vf-stavenote" id="vf-auto64034">
<g class="vf-note" pointer-events="bounding-box">
<g class="vf-notehead" pointer-events="bounding-box">
<path stroke-width="0.3" fill="#000000" stroke="none" stroke-dasharray="none" d="M733.8533475839998 197.99999999999997M741.2103075839998 192.77711999999997C741.3226275839999 192.77711999999997,741.4911075839998 192.77711999999997,741.5191875839998 192.77711999999997C741.5191875839998 192.77711999999997,741.5472675839999 192.77711999999997,741.5472675839999 192.77711999999997C741.5472675839999 192.77711999999997,741.7157475839998 192.77711999999997,741.8561475839998 192.77711999999997C744.3833475839998 192.91751999999997,745.8715875839998 194.57423999999997,745.8715875839998 196.65215999999998C745.8715875839998 197.66303999999997,745.5346275839998 198.81431999999998,744.6922275839999 199.90943999999996C743.0916675839999 202.07159999999996,740.4802275839999 203.25095999999996,738.2057475839998 203.25095999999996C736.4367075839998 203.25095999999996,734.9203875839999 202.54895999999997,734.1903075839998 201.11687999999998C733.9656675839998 200.55527999999998,733.8533475839998 200.02175999999997,733.8533475839998 199.43207999999998C733.8533475839998 196.37135999999998,737.2791075839998 192.97367999999997,741.2103075839998 192.77711999999997">
</path>
</g>
</g>
<g class="vf-modifiers">
</g>
</g>
<path stroke-width="1.5" fill="none" stroke="#000000" stroke-dasharray="none" d="M494.41518758399985 197.99999999999997L494.41518758399985 163.74999999999997">
</path>
<path stroke-width="1.5" fill="none" stroke="#000000" stroke-dasharray="none" d="M530.2303875839999 197.99999999999997L530.2303875839999 163.74999999999997">
</path>
<path stroke-width="1.5" fill="none" stroke="#000000" stroke-dasharray="none" d="M566.0455875839999 197.99999999999997L566.0455875839999 163.74999999999997">
</path>
<path stroke-width="1.5" fill="none" stroke="#000000" stroke-dasharray="none" d="M601.8607875839999 197.99999999999997L601.8607875839999 163.74999999999997">
</path>
<path stroke-width="0.3" fill="#000000" stroke="none" stroke-dasharray="none" d="M493.66518758399985 162.99999999999997L493.66518758399985 167.99999999999997L602.1107875839999 167.99999999999997L602.1107875839999 162.99999999999997Z">
</path>
<path stroke-width="1.5" fill="none" stroke="#000000" stroke-dasharray="none" d="M637.6759875839999 197.99999999999997L637.6759875839999 163.74999999999997">
</path>
<path stroke-width="1.5" fill="none" stroke="#000000" stroke-dasharray="none" d="M673.4911875839998 197.99999999999997L673.4911875839998 163.74999999999997">
</path>
<path stroke-width="1.5" fill="none" stroke="#000000" stroke-dasharray="none" d="M709.3063875839998 197.99999999999997L709.3063875839998 163.74999999999997">
</path>
<path stroke-width="1.5" fill="none" stroke="#000000" stroke-dasharray="none" d="M745.1215875839998 197.99999999999997L745.1215875839998 163.74999999999997">
</path>
<path stroke-width="0.3" fill="#000000" stroke="none" stroke-dasharray="none" d="M636.9259875839999 162.99999999999997L636.9259875839999 167.99999999999997L745.3715875839998 167.99999999999997L745.3715875839998 162.99999999999997Z">
</path>
</svg>