<svg width="1536" height="331.99999999999994" viewBox="0 0 1536 331.99999999999994">
<path stroke-width="1" fill="none" stroke="black" stroke-dasharray="none" d="M50 197.99999999999997L514.2250503679999 197.99999999999997">
</path>
<rect stroke-width="0.3" fill="black" stroke="black" stroke-dasharray="none" x="514.2250503679999" y="177.49999999999997" width="1" height="41">
</rect>
<path stroke-width="0.3" fill="black" stroke="none" stroke-dasharray="none" d="M55 197.99999999999997M55 197.99999999999997L55 188.00639999999999L57.1888 188.00639999999999L59.4064 188.00639999999999L59.4064 197.99999999999997L59.4064 208.02239999999998L57.1888 208.02239999999998L55 208.02239999999998L55 197.99999999999997M63.870400000000004 198.02879999999996L63.870400000000004 188.00639999999999L66.1168 188.00639999999999L68.3632 188.00639999999999L68.3632 198.02879999999996L68.3632 208.02239999999998L66.1168 208.02239999999998L63.870400000000004 208.02239999999998L63.870400000000004 198.02879999999996">
</path>
<path stroke-width="0.3" fill="black" stroke="none" stroke-dasharray="none" d="M96.1296 197.99999999999997M101.80319999999999 179.33759999999998C101.91839999999999 179.33759999999998,102.11999999999999 179.33759999999998,102.3504 179.33759999999998C102.8112 179.33759999999998,103.416 179.33759999999998,103.56 179.39519999999996C105.72 179.65439999999998,107.448 180.74879999999996,108.1968 182.27519999999998C108.45599999999999 182.79359999999997,108.57119999999999 183.34079999999997,108.57119999999999 183.91679999999997C108.57119999999999 185.32799999999997,107.7936 186.94079999999997,106.38239999999999 188.15039999999996C105.4032 188.98559999999998,104.42399999999999 189.50399999999996,102.8976 189.99359999999996C100.9104 190.62719999999996,99.21119999999999 191.75039999999998,98.1168 193.10399999999998C98.1168 193.10399999999998,98.1168 193.13279999999997,98.1168 193.13279999999997C98.1168 193.13279999999997,98.1168 193.13279999999997,98.1168 193.13279999999997C98.1168 193.13279999999997,98.2032 193.10399999999998,98.26079999999999 193.01759999999996C99.3552 192.12479999999996,100.824 191.60639999999998,102.1488 191.60639999999998C103.2432 191.60639999999998,104.0208 191.80799999999996,105.0576 192.38399999999996C105.6912 192.70079999999996,106.2672 192.84479999999996,106.81439999999999 192.84479999999996C107.0448 192.84479999999996,107.2752 192.84479999999996,107.53439999999999 192.78719999999998C107.9088 192.70079999999996,108.312 192.41279999999998,108.45599999999999 192.18239999999997C108.5424 191.98079999999996,108.68639999999999 191.89439999999996,108.8592 191.89439999999996C109.08959999999999 191.89439999999996,109.32 192.06719999999999,109.32 192.32639999999998C109.32 192.52799999999996,109.0608 193.24799999999996,108.8304 193.7376C107.9088 195.58079999999998,106.29599999999999 196.73279999999997,104.7408 196.73279999999997C104.62559999999999 196.73279999999997,104.5392 196.73279999999997,104.42399999999999 196.70399999999998C104.0208 196.70399999999998,103.848 196.58879999999996,103.3296 196.24319999999997C102.23519999999999 195.52319999999997,100.8528 195.14879999999997,99.6432 195.14879999999997C99.1248 195.14879999999997,98.664 195.20639999999997,98.232 195.37919999999997C97.65599999999999 195.58079999999998,97.1088 195.92639999999997,96.93599999999999 196.18559999999997C96.8496 196.38719999999998,96.70559999999999 196.44479999999996,96.5328 196.44479999999996C96.3888 196.44479999999996,96.2448 196.38719999999998,96.1584 196.21439999999998L96.10079999999999 196.128L96.10079999999999 195.72479999999996C96.10079999999999 195.37919999999997,96.1296 195.26399999999998,96.1296 195.14879999999997C96.1584 195.06239999999997,96.18719999999999 194.88959999999997,96.18719999999999 194.74559999999997C96.70559999999999 192.32639999999998,98.4624 190.16639999999998,100.8528 189.10079999999996C102.8112 188.17919999999998,104.10719999999999 186.53759999999997,104.3376 184.46399999999997C104.39519999999999 184.29119999999998,104.39519999999999 184.14719999999997,104.39519999999999 183.97439999999997C104.39519999999999 182.13119999999998,103.0128 180.86399999999998,101.0544 180.86399999999998C100.9104 180.86399999999998,100.7376 180.86399999999998,100.5936 180.86399999999998C100.3056 180.89279999999997,100.2192 180.89279999999997,100.2192 180.95039999999997C100.2192 180.95039999999997,100.2192 180.97919999999996,100.3056 181.03679999999997C100.96799999999999 181.41119999999998,101.28479999999999 182.13119999999998,101.28479999999999 182.82239999999996C101.28479999999999 183.71519999999998,100.824 184.55039999999997,99.93119999999999 184.89599999999996C99.6432 184.98239999999998,99.3552 185.01119999999997,99.1248 185.01119999999997C97.9152 185.01119999999997,96.9072 183.97439999999997,96.9072 182.73599999999996C96.9072 182.50559999999996,96.9072 182.27519999999998,96.9648 182.01599999999996C97.3968 180.69119999999998,99.4416 179.59679999999997,101.80319999999999 179.33759999999998M102.696 198.02879999999996L102.75359999999999 198.02879999999996L102.6672 198.02879999999996L102.696 198.02879999999996M102.696 178.61759999999998L102.75359999999999 178.61759999999998L102.6672 178.61759999999998L102.696 178.61759999999998">
</path>
<path stroke-width="0.3" fill="black" stroke="none" stroke-dasharray="none" d="M96 217.99999999999997M101.0112 199.65439999999998C101.04 199.62559999999996,101.4432 199.62559999999996,102.6816 199.62559999999996C103.056 199.62559999999996,103.4592 199.62559999999996,103.9776 199.62559999999996L106.8864 199.62559999999996L106.9728 199.71199999999996C107.1168 199.79839999999996,107.2032 199.94239999999996,107.2032 200.05759999999998C107.2032 200.23039999999997,107.1168 200.34559999999996,107.0016 200.46079999999998C106.9728 200.54719999999998,106.7136 200.77759999999998,106.5408 201.03679999999997L105.0144 202.79359999999997L103.056 205.01119999999997L102.0192 206.19199999999998L100.464 207.97759999999997L98.4192 210.31039999999996C98.0736 210.74239999999998,97.6992 211.08799999999997,97.6992 211.08799999999997C97.6992 211.08799999999997,97.6992 211.08799999999997,97.6992 211.08799999999997C97.6992 211.14559999999997,97.9584 211.14559999999997,100.3488 211.14559999999997L102.9696 211.14559999999997L102.9696 209.27359999999996C102.9696 207.37279999999998,102.9696 207.34399999999997,102.9984 207.31519999999998C103.056 207.22879999999998,103.3152 206.91199999999998,104.3232 205.73119999999997L104.7264 205.29919999999998L105.1296 204.86719999999997L105.7344 204.08959999999996L106.368 203.42719999999997L106.6848 203.02399999999997C106.8 202.85119999999998,106.9728 202.82239999999996,107.1168 202.82239999999996C107.28960000000001 202.82239999999996,107.4336 202.90879999999999,107.52 203.05279999999996C107.5488 203.13919999999996,107.5488 203.19679999999997,107.5488 205.32799999999997C107.5488 205.81759999999997,107.5488 206.42239999999998,107.5488 207.14239999999998L107.5488 211.14559999999997L108.2688 211.14559999999997C108.9312 211.14559999999997,108.96 211.14559999999997,109.0464 211.17439999999996C109.2768 211.26079999999996,109.392 211.49119999999996,109.392 211.75039999999998C109.392 211.89439999999996,109.3632 212.06719999999999,109.248 212.18239999999997C109.0752 212.32639999999998,109.0464 212.32639999999998,108.2688 212.32639999999998L107.5488 212.32639999999998L107.5488 212.81599999999997C107.5776 214.28479999999996,107.8656 214.86079999999998,108.9888 215.46559999999997C109.392 215.66719999999998,109.4784 215.72479999999996,109.4784 216.01279999999997C109.4784 216.21439999999998,109.4208 216.30079999999998,109.2768 216.41599999999997L109.1904 216.44479999999996L105.2448 216.44479999999996L101.328 216.44479999999996L101.2416 216.41599999999997C101.0688 216.30079999999998,101.04 216.21439999999998,101.04 216.01279999999997C101.04 215.72479999999996,101.0688 215.66719999999998,101.5008 215.46559999999997C102.624 214.86079999999998,102.912 214.28479999999996,102.912 212.81599999999997L102.912 212.32639999999998L99.6 212.32639999999998C98.9952 212.38399999999996,98.5056 212.38399999999996,98.1024 212.38399999999996C96.288 212.38399999999996,96.2592 212.32639999999998,96.2304 212.32639999999998C96.0576 212.26879999999997,96 212.09599999999998,96 211.89439999999996C96 211.89439999999996,96 211.89439999999996,96 211.89439999999996C96 211.69279999999998,96 211.69279999999998,96.576 211.0304C98.9952 208.09279999999998,100.6944 203.83039999999997,100.6944 200.43199999999996C100.6944 199.91359999999997,100.7808 199.74079999999998,101.0112 199.65439999999998M102.7392 218.02879999999996L102.768 218.02879999999996L102.6816 218.02879999999996L102.7392 218.02879999999996M102.7392 198.61759999999998L102.768 198.61759999999998L102.6816 198.61759999999998L102.7392 198.61759999999998">
</path>
<g class="vf-stavenote" id="vf-auto80217">
<g class="vf-note" pointer-events="bounding-box">
<g class="vf-notehead" pointer-events="bounding-box">
<path stroke-width="0.3" fill="#000000" stroke="none" stroke-dasharray="none" d="M147.3424768 197.99999999999997M154.69943679999997 192.77711999999997C154.81175679999998 192.77711999999997,154.9802368 192.77711999999997,155.0083168 192.77711999999997C155.0083168 192.77711999999997,155.03639679999998 192.77711999999997,155.03639679999998 192.77711999999997C155.03639679999998 192.77711999999997,155.2048768 192.77711999999997,155.3452768 192.77711999999997C157.8724768 192.91751999999997,159.36071679999998 194.57423999999997,159.36071679999998 196.65215999999998C159.36071679999998 197.66303999999997,159.0237568 198.81431999999998,158.18135679999997 199.90943999999996C156.58079679999997 202.07159999999996,153.96935679999999 203.25095999999996,151.69487679999997 203.25095999999996C149.92583679999998 203.25095999999996,148.40951679999998 202.54895999999997,147.6794368 201.11687999999998C147.4547968 200.55527999999998,147.3424768 200.02175999999997,147.3424768 199.43207999999998C147.3424768 196.37135999999998,150.76823679999998 192.97367999999997,154.69943679999997 192.77711999999997">
</path>
</g>
</g>
<g class="vf-modifiers">
<g class="vf-stavenote" id="vf-auto80227">
<g class="vf-note" pointer-events="bounding-box">
<g class="vf-stem" pointer-events="bounding-box">
<path stroke-width="1.5" fill="none" stroke="#000000" stroke-dasharray="none" d="M128.6604384 197.99999999999997L128.6604384 174.89999999999998">
</path>
</g>
<g class="vf-notehead" pointer-events="bounding-box">
<path stroke-width="0.3" fill="#000000" stroke="none" stroke-dasharray="none" d="M121.4784 197.99999999999997M126.3339936 194.55289919999998C126.4081248 194.55289919999998,126.5193216 194.55289919999998,126.5378544 194.55289919999998C126.5378544 194.55289919999998,126.55638719999999 194.55289919999998,126.55638719999999 194.55289919999998C126.55638719999999 194.55289919999998,126.66758399999999 194.55289919999998,126.76024799999999 194.55289919999998C128.4282 194.64556319999997,129.4104384 195.73899839999996,129.4104384 197.11042559999999C129.4104384 197.77760639999997,129.1880448 198.53745119999996,128.6320608 199.26023039999998C127.5756912 200.68725599999996,125.8521408 201.46563359999996,124.350984 201.46563359999996C123.1834176 201.46563359999996,122.1826464 201.00231359999998,121.7007936 200.05714079999998C121.55253119999999 199.68648479999996,121.4784 199.33436159999997,121.4784 198.94517279999997C121.4784 196.92509759999996,123.7394016 194.68262879999997,126.3339936 194.55289919999998">
</path>
</g>
<g class="vf-flag" pointer-events="bounding-box">
<path stroke-width="0.3" fill="#000000" stroke="none" stroke-dasharray="none" d="M128.6604384 172.89999999999998M128.2156512 175.88378079999998L128.2156512 172.992664L128.2897824 172.992664C128.4936432 172.992664,128.6233728 173.12239359999998,128.6604384 173.34478719999998C129.0496272 175.19806719999997,130.2171936 177.21814239999998,131.8295472 178.73783199999997C133.6272288 180.42431679999999,134.535336 182.74091679999998,134.535336 185.13164799999998C134.535336 187.39264959999997,133.7384256 189.74631519999997,132.126072 191.69225919999997C131.84808 192.06291519999996,131.8295472 192.06291519999996,131.6442192 192.06291519999996C131.4218256 192.06291519999996,131.2735632 191.89611999999997,131.2735632 191.67372639999996C131.2735632 191.50693119999997,131.29209600000002 191.4698656,131.477424 191.2660048C132.88591680000002 189.56098719999997,133.5901632 187.5038464,133.5901632 185.5393696C133.5901632 183.7972864,133.0341792 182.12933439999998,131.88514560000002 180.86910399999996C131.1808992 180.09072639999997,129.8836032 179.34941439999997,128.234184 178.77489759999997C128.234184 178.75636479999997,128.2156512 178.18184799999997,128.2156512 175.88378079999998">
</path>
</g>
</g>
<g class="vf-modifiers">
</g>
</g>
<path stroke-width="1" fill="none" stroke="#000000" stroke-dasharray="none" d="M122.4784 189.74999999999997L135.4784 180.74999999999997Z">
</path>
</g>
</g>
<g class="vf-stavenote" id="vf-auto80241">
<g class="vf-note" pointer-events="bounding-box">
<g class="vf-notehead" pointer-events="bounding-box">
<path stroke-width="0.3" fill="#000000" stroke="none" stroke-dasharray="none" d="M183.72563839999998 197.99999999999997M191.08259839999997 192.77711999999997C191.19491839999998 192.77711999999997,191.3633984 192.77711999999997,191.39147839999998 192.77711999999997C191.39147839999998 192.77711999999997,191.41955839999997 192.77711999999997,191.41955839999997 192.77711999999997C191.41955839999997 192.77711999999997,191.5880384 192.77711999999997,191.7284384 192.77711999999997C194.25563839999998 192.91751999999997,195.74387839999997 194.57423999999997,195.74387839999997 196.65215999999998C195.74387839999997 197.66303999999997,195.4069184 198.81431999999998,194.56451839999997 199.90943999999996C192.96395839999997 202.07159999999996,190.35251839999998 203.25095999999996,188.07803839999997 203.25095999999996C186.30899839999998 203.25095999999996,184.79267839999997 202.54895999999997,184.06259839999998 201.11687999999998C183.8379584 200.55527999999998,183.72563839999998 200.02175999999997,183.72563839999998 199.43207999999998C183.72563839999998 196.37135999999998,187.15139839999998 192.97367999999997,191.08259839999997 192.77711999999997">
</path>
</g>
</g>
<g class="vf-modifiers">
</g>
</g>
<g class="vf-stavenote" id="vf-auto80251">
<g class="vf-note" pointer-events="bounding-box">
<g class="vf-notehead" pointer-events="bounding-box">
<path stroke-width="0.3" fill="#000000" stroke="none" stroke-dasharray="none" d="M245.9728768 197.99999999999997M253.32983679999998 192.77711999999997C253.4421568 192.77711999999997,253.6106368 192.77711999999997,253.6387168 192.77711999999997C253.6387168 192.77711999999997,253.6667968 192.77711999999997,253.6667968 192.77711999999997C253.6667968 192.77711999999997,253.8352768 192.77711999999997,253.9756768 192.77711999999997C256.50287679999997 192.91751999999997,257.9911168 194.57423999999997,257.9911168 196.65215999999998C257.9911168 197.66303999999997,257.6541568 198.81431999999998,256.8117568 199.90943999999996C255.21119679999998 202.07159999999996,252.5997568 203.25095999999996,250.32527679999998 203.25095999999996C248.5562368 203.25095999999996,247.0399168 202.54895999999997,246.3098368 201.11687999999998C246.0851968 200.55527999999998,245.9728768 200.02175999999997,245.9728768 199.43207999999998C245.9728768 196.37135999999998,249.3986368 192.97367999999997,253.32983679999998 192.77711999999997">
</path>
</g>
</g>
<g class="vf-modifiers">
<g class="vf-stavenote" id="vf-auto80261">
<g class="vf-note" pointer-events="bounding-box">
<g class="vf-stem" pointer-events="bounding-box">
<path stroke-width="1.5" fill="none" stroke="#000000" stroke-dasharray="none" d="M227.2908384 197.99999999999997L227.2908384 174.89999999999998">
</path>
</g>
<g class="vf-notehead" pointer-events="bounding-box">
<path stroke-width="0.3" fill="#000000" stroke="none" stroke-dasharray="none" d="M220.1088 197.99999999999997M224.9643936 194.55289919999998C225.0385248 194.55289919999998,225.1497216 194.55289919999998,225.1682544 194.55289919999998C225.1682544 194.55289919999998,225.1867872 194.55289919999998,225.1867872 194.55289919999998C225.1867872 194.55289919999998,225.297984 194.55289919999998,225.390648 194.55289919999998C227.0586 194.64556319999997,228.0408384 195.73899839999996,228.0408384 197.11042559999999C228.0408384 197.77760639999997,227.8184448 198.53745119999996,227.2624608 199.26023039999998C226.2060912 200.68725599999996,224.4825408 201.46563359999996,222.981384 201.46563359999996C221.8138176 201.46563359999996,220.8130464 201.00231359999998,220.3311936 200.05714079999998C220.1829312 199.68648479999996,220.1088 199.33436159999997,220.1088 198.94517279999997C220.1088 196.92509759999996,222.36980160000002 194.68262879999997,224.9643936 194.55289919999998">
</path>
</g>
<g class="vf-flag" pointer-events="bounding-box">
<path stroke-width="0.3" fill="#000000" stroke="none" stroke-dasharray="none" d="M227.2908384 172.89999999999998M226.8460512 175.88378079999998L226.8460512 172.992664L226.92018240000002 172.992664C227.12404320000002 172.992664,227.2537728 173.12239359999998,227.2908384 173.34478719999998C227.6800272 175.19806719999997,228.8475936 177.21814239999998,230.45994720000002 178.73783199999997C232.25762880000002 180.42431679999999,233.165736 182.74091679999998,233.165736 185.13164799999998C233.165736 187.39264959999997,232.3688256 189.74631519999997,230.756472 191.69225919999997C230.47848000000002 192.06291519999996,230.45994720000002 192.06291519999996,230.27461920000002 192.06291519999996C230.0522256 192.06291519999996,229.90396320000002 191.89611999999997,229.90396320000002 191.67372639999996C229.90396320000002 191.50693119999997,229.92249600000002 191.4698656,230.10782400000002 191.2660048C231.51631680000003 189.56098719999997,232.22056320000002 187.5038464,232.22056320000002 185.5393696C232.22056320000002 183.7972864,231.66457920000002 182.12933439999998,230.51554560000002 180.86910399999996C229.8112992 180.09072639999997,228.51400320000002 179.34941439999997,226.864584 178.77489759999997C226.864584 178.75636479999997,226.8460512 178.18184799999997,226.8460512 175.88378079999998">
</path>
</g>
</g>
<g class="vf-modifiers">
</g>
</g>
<path stroke-width="1" fill="none" stroke="#000000" stroke-dasharray="none" d="M221.1088 189.74999999999997L234.1088 180.74999999999997Z">
</path>
</g>
</g>
<g class="vf-stavenote" id="vf-auto80275">
<g class="vf-note" pointer-events="bounding-box">
<g class="vf-notehead" pointer-events="bounding-box">
<path stroke-width="0.3" fill="#000000" stroke="none" stroke-dasharray="none" d="M282.3560384 197.99999999999997M289.7129984 192.77711999999997C289.8253184 192.77711999999997,289.9937984 192.77711999999997,290.0218784 192.77711999999997C290.0218784 192.77711999999997,290.0499584 192.77711999999997,290.0499584 192.77711999999997C290.0499584 192.77711999999997,290.21843839999997 192.77711999999997,290.35883839999997 192.77711999999997C292.88603839999996 192.91751999999997,294.3742784 194.57423999999997,294.3742784 196.65215999999998C294.3742784 197.66303999999997,294.0373184 198.81431999999998,293.1949184 199.90943999999996C291.5943584 202.07159999999996,288.9829184 203.25095999999996,286.7084384 203.25095999999996C284.9393984 203.25095999999996,283.4230784 202.54895999999997,282.69299839999996 201.11687999999998C282.4683584 200.55527999999998,282.3560384 200.02175999999997,282.3560384 199.43207999999998C282.3560384 196.37135999999998,285.7817984 192.97367999999997,289.7129984 192.77711999999997">
</path>
</g>
</g>
<g class="vf-modifiers">
</g>
</g>
<g class="vf-stavenote" id="vf-auto80285">
<g class="vf-note" pointer-events="bounding-box">
<g class="vf-notehead" pointer-events="bounding-box">
<path stroke-width="0.3" fill="#000000" stroke="none" stroke-dasharray="none" d="M344.6032768 197.99999999999997M351.9602368 192.77711999999997C352.07255680000003 192.77711999999997,352.2410368 192.77711999999997,352.2691168 192.77711999999997C352.2691168 192.77711999999997,352.2971968 192.77711999999997,352.2971968 192.77711999999997C352.2971968 192.77711999999997,352.4656768 192.77711999999997,352.6060768 192.77711999999997C355.1332768 192.91751999999997,356.6215168 194.57423999999997,356.6215168 196.65215999999998C356.6215168 197.66303999999997,356.2845568 198.81431999999998,355.4421568 199.90943999999996C353.8415968 202.07159999999996,351.23015680000003 203.25095999999996,348.9556768 203.25095999999996C347.18663680000003 203.25095999999996,345.6703168 202.54895999999997,344.9402368 201.11687999999998C344.7155968 200.55527999999998,344.6032768 200.02175999999997,344.6032768 199.43207999999998C344.6032768 196.37135999999998,348.02903680000003 192.97367999999997,351.9602368 192.77711999999997">
</path>
</g>
</g>
<g class="vf-modifiers">
<g class="vf-stavenote" id="vf-auto80295">
<g class="vf-note" pointer-events="bounding-box">
<g class="vf-stem" pointer-events="bounding-box">
<path stroke-width="1.5" fill="none" stroke="#000000" stroke-dasharray="none" d="M325.9212384 197.99999999999997L325.9212384 174.89999999999998">
</path>
</g>
<g class="vf-notehead" pointer-events="bounding-box">
<path stroke-width="0.3" fill="#000000" stroke="none" stroke-dasharray="none" d="M318.7392 197.99999999999997M323.5947936 194.55289919999998C323.66892479999996 194.55289919999998,323.7801216 194.55289919999998,323.7986544 194.55289919999998C323.7986544 194.55289919999998,323.8171872 194.55289919999998,323.8171872 194.55289919999998C323.8171872 194.55289919999998,323.928384 194.55289919999998,324.021048 194.55289919999998C325.68899999999996 194.64556319999997,326.6712384 195.73899839999996,326.6712384 197.11042559999999C326.6712384 197.77760639999997,326.44884479999996 198.53745119999996,325.8928608 199.26023039999998C324.83649119999995 200.68725599999996,323.1129408 201.46563359999996,321.611784 201.46563359999996C320.4442176 201.46563359999996,319.44344639999997 201.00231359999998,318.96159359999996 200.05714079999998C318.8133312 199.68648479999996,318.7392 199.33436159999997,318.7392 198.94517279999997C318.7392 196.92509759999996,321.00020159999997 194.68262879999997,323.5947936 194.55289919999998">
</path>
</g>
<g class="vf-flag" pointer-events="bounding-box">
<path stroke-width="0.3" fill="#000000" stroke="none" stroke-dasharray="none" d="M325.9212384 172.89999999999998M325.4764512 175.88378079999998L325.4764512 172.992664L325.5505824 172.992664C325.75444319999997 172.992664,325.8841728 173.12239359999998,325.9212384 173.34478719999998C326.3104272 175.19806719999997,327.4779936 177.21814239999998,329.0903472 178.73783199999997C330.8880288 180.42431679999999,331.796136 182.74091679999998,331.796136 185.13164799999998C331.796136 187.39264959999997,330.9992256 189.74631519999997,329.386872 191.69225919999997C329.10888 192.06291519999996,329.0903472 192.06291519999996,328.90501919999997 192.06291519999996C328.6826256 192.06291519999996,328.5343632 191.89611999999997,328.5343632 191.67372639999996C328.5343632 191.50693119999997,328.552896 191.4698656,328.738224 191.2660048C330.1467168 189.56098719999997,330.85096319999997 187.5038464,330.85096319999997 185.5393696C330.85096319999997 183.7972864,330.2949792 182.12933439999998,329.1459456 180.86910399999996C328.4416992 180.09072639999997,327.1444032 179.34941439999997,325.494984 178.77489759999997C325.494984 178.75636479999997,325.4764512 178.18184799999997,325.4764512 175.88378079999998">
</path>
</g>
</g>
<g class="vf-modifiers">
</g>
</g>
<path stroke-width="1" fill="none" stroke="#000000" stroke-dasharray="none" d="M319.7392 189.74999999999997L332.7392 180.74999999999997Z">
</path>
</g>
</g>
<g class="vf-stavenote" id="vf-auto80309">
<g class="vf-note" pointer-events="bounding-box">
<g class="vf-notehead" pointer-events="bounding-box">
<path stroke-width="0.3" fill="#000000" stroke="none" stroke-dasharray="none" d="M380.9864384 197.99999999999997M388.3433984 192.77711999999997C388.4557184 192.77711999999997,388.6241984 192.77711999999997,388.6522784 192.77711999999997C388.6522784 192.77711999999997,388.6803584 192.77711999999997,388.6803584 192.77711999999997C388.6803584 192.77711999999997,388.8488384 192.77711999999997,388.9892384 192.77711999999997C391.51643839999997 192.91751999999997,393.0046784 194.57423999999997,393.0046784 196.65215999999998C393.0046784 197.66303999999997,392.6677184 198.81431999999998,391.8253184 199.90943999999996C390.2247584 202.07159999999996,387.6133184 203.25095999999996,385.3388384 203.25095999999996C383.5697984 203.25095999999996,382.0534784 202.54895999999997,381.3233984 201.11687999999998C381.0987584 200.55527999999998,380.9864384 200.02175999999997,380.9864384 199.43207999999998C380.9864384 196.37135999999998,384.4121984 192.97367999999997,388.3433984 192.77711999999997">
</path>
</g>
</g>
<g class="vf-modifiers">
</g>
</g>
<g class="vf-stavenote" id="vf-auto80319">
<g class="vf-note" pointer-events="bounding-box">
<g class="vf-notehead" pointer-events="bounding-box">
<path stroke-width="0.3" fill="#000000" stroke="none" stroke-dasharray="none" d="M443.2336768 197.99999999999997M450.5906368 192.77711999999997C450.70295680000004 192.77711999999997,450.8714368 192.77711999999997,450.8995168 192.77711999999997C450.8995168 192.77711999999997,450.9275968 192.77711999999997,450.9275968 192.77711999999997C450.9275968 192.77711999999997,451.0960768 192.77711999999997,451.2364768 192.77711999999997C453.7636768 192.91751999999997,455.2519168 194.57423999999997,455.2519168 196.65215999999998C455.2519168 197.66303999999997,454.9149568 198.81431999999998,454.07255680000003 199.90943999999996C452.4719968 202.07159999999996,449.86055680000004 203.25095999999996,447.5860768 203.25095999999996C445.81703680000004 203.25095999999996,444.30071680000003 202.54895999999997,443.5706368 201.11687999999998C443.3459968 200.55527999999998,443.2336768 200.02175999999997,443.2336768 199.43207999999998C443.2336768 196.37135999999998,446.65943680000004 192.97367999999997,450.5906368 192.77711999999997">
</path>
</g>
</g>
<g class="vf-modifiers">
<g class="vf-stavenote" id="vf-auto80329">
<g class="vf-note" pointer-events="bounding-box">
<g class="vf-stem" pointer-events="bounding-box">
<path stroke-width="1.5" fill="none" stroke="#000000" stroke-dasharray="none" d="M424.5516384 197.99999999999997L424.5516384 174.89999999999998">
</path>
</g>
<g class="vf-notehead" pointer-events="bounding-box">
<path stroke-width="0.3" fill="#000000" stroke="none" stroke-dasharray="none" d="M417.3696 197.99999999999997M422.2251936 194.55289919999998C422.29932479999997 194.55289919999998,422.4105216 194.55289919999998,422.4290544 194.55289919999998C422.4290544 194.55289919999998,422.4475872 194.55289919999998,422.4475872 194.55289919999998C422.4475872 194.55289919999998,422.558784 194.55289919999998,422.651448 194.55289919999998C424.3194 194.64556319999997,425.3016384 195.73899839999996,425.3016384 197.11042559999999C425.3016384 197.77760639999997,425.07924479999997 198.53745119999996,424.5232608 199.26023039999998C423.46689119999996 200.68725599999996,421.7433408 201.46563359999996,420.242184 201.46563359999996C419.0746176 201.46563359999996,418.0738464 201.00231359999998,417.59199359999997 200.05714079999998C417.4437312 199.68648479999996,417.3696 199.33436159999997,417.3696 198.94517279999997C417.3696 196.92509759999996,419.6306016 194.68262879999997,422.2251936 194.55289919999998">
</path>
</g>
<g class="vf-flag" pointer-events="bounding-box">
<path stroke-width="0.3" fill="#000000" stroke="none" stroke-dasharray="none" d="M424.5516384 172.89999999999998M424.1068512 175.88378079999998L424.1068512 172.992664L424.1809824 172.992664C424.3848432 172.992664,424.5145728 173.12239359999998,424.5516384 173.34478719999998C424.9408272 175.19806719999997,426.1083936 177.21814239999998,427.7207472 178.73783199999997C429.5184288 180.42431679999999,430.426536 182.74091679999998,430.426536 185.13164799999998C430.426536 187.39264959999997,429.6296256 189.74631519999997,428.017272 191.69225919999997C427.73928 192.06291519999996,427.7207472 192.06291519999996,427.5354192 192.06291519999996C427.3130256 192.06291519999996,427.1647632 191.89611999999997,427.1647632 191.67372639999996C427.1647632 191.50693119999997,427.183296 191.4698656,427.368624 191.2660048C428.7771168 189.56098719999997,429.4813632 187.5038464,429.4813632 185.5393696C429.4813632 183.7972864,428.9253792 182.12933439999998,427.7763456 180.86910399999996C427.0720992 180.09072639999997,425.7748032 179.34941439999997,424.125384 178.77489759999997C424.125384 178.75636479999997,424.1068512 178.18184799999997,424.1068512 175.88378079999998">
</path>
</g>
</g>
<g class="vf-modifiers">
</g>
</g>
<path stroke-width="1" fill="none" stroke="#000000" stroke-dasharray="none" d="M418.3696 189.74999999999997L431.3696 180.74999999999997Z">
</path>
</g>
</g>
<g class="vf-stavenote" id="vf-auto80343">
<g class="vf-note" pointer-events="bounding-box">
<g class="vf-notehead" pointer-events="bounding-box">
<path stroke-width="0.3" fill="#000000" stroke="none" stroke-dasharray="none" d="M479.6168384 197.99999999999997M486.9737984 192.77711999999997C487.08611840000003 192.77711999999997,487.2545984 192.77711999999997,487.2826784 192.77711999999997C487.2826784 192.77711999999997,487.3107584 192.77711999999997,487.3107584 192.77711999999997C487.3107584 192.77711999999997,487.4792384 192.77711999999997,487.6196384 192.77711999999997C490.1468384 192.91751999999997,491.6350784 194.57423999999997,491.6350784 196.65215999999998C491.6350784 197.66303999999997,491.2981184 198.81431999999998,490.4557184 199.90943999999996C488.8551584 202.07159999999996,486.24371840000003 203.25095999999996,483.9692384 203.25095999999996C482.20019840000003 203.25095999999996,480.6838784 202.54895999999997,479.9537984 201.11687999999998C479.7291584 200.55527999999998,479.6168384 200.02175999999997,479.6168384 199.43207999999998C479.6168384 196.37135999999998,483.04259840000003 192.97367999999997,486.9737984 192.77711999999997">
</path>
</g>
</g>
<g class="vf-modifiers">
</g>
</g>
<path stroke-width="1.5" fill="none" stroke="#000000" stroke-dasharray="none" d="M158.61071679999998 197.99999999999997L158.61071679999998 163.74999999999997">
</path>
<path stroke-width="1.5" fill="none" stroke="#000000" stroke-dasharray="none" d="M194.99387839999997 197.99999999999997L194.99387839999997 163.74999999999997">
</path>
<path stroke-width="1.5" fill="none" stroke="#000000" stroke-dasharray="none" d="M257.2411168 197.99999999999997L257.2411168 163.74999999999997">
</path>
<path stroke-width="1.5" fill="none" stroke="#000000" stroke-dasharray="none" d="M293.6242784 197.99999999999997L293.6242784 163.74999999999997">
</path>
<path stroke-width="0.3" fill="#000000" stroke="none" stroke-dasharray="none" d="M157.86071679999998 162.99999999999997L157.86071679999998 167.99999999999997L293.8742784 167.99999999999997L293.8742784 162.99999999999997Z">
</path>
<path stroke-width="0.3" fill="#000000" stroke="none" stroke-dasharray="none" d="M157.86071679999998 170.49999999999997L157.86071679999998 175.49999999999997L293.8742784 175.49999999999997L293.8742784 170.49999999999997Z">
</path>
<path stroke-width="1.5" fill="none" stroke="#000000" stroke-dasharray="none" d="M355.8715168 197.99999999999997L355.8715168 163.74999999999997">
</path>
<path stroke-width="1.5" fill="none" stroke="#000000" stroke-dasharray="none" d="M392.2546784 197.99999999999997L392.2546784 163.74999999999997">
</path>
<path stroke-width="1.5" fill="none" stroke="#000000" stroke-dasharray="none" d="M454.5019168 197.99999999999997L454.5019168 163.74999999999997">
</path>
<path stroke-width="1.5" fill="none" stroke="#000000" stroke-dasharray="none" d="M490.8850784 197.99999999999997L490.8850784 163.74999999999997">
</path>
<path stroke-width="0.3" fill="#000000" stroke="none" stroke-dasharray="none" d="M355.1215168 162.99999999999997L355.1215168 167.99999999999997L491.1350784 167.99999999999997L491.1350784 162.99999999999997Z">
</path>
<path stroke-width="0.3" fill="#000000" stroke="none" stroke-dasharray="none" d="M355.1215168 170.49999999999997L355.1215168 175.49999999999997L491.1350784 175.49999999999997L491.1350784 170.49999999999997Z">
</path>
<path stroke-width="1" fill="none" stroke="black" stroke-dasharray="none" d="M514.2250503679999 197.99999999999997L1106.3003343359999 197.99999999999997">
</path>
<rect stroke-width="0.3" fill="black" stroke="black" stroke-dasharray="none" x="1101.3003343359999" y="177.49999999999997" width="1" height="41">
</rect>
<rect stroke-width="0.3" fill="black" stroke="black" stroke-dasharray="none" x="1104.3003343359999" y="177.49999999999997" width="3" height="41">
</rect>
<path stroke-width="0.3" fill="black" stroke="none" stroke-dasharray="none" d="M1100.3003343359999 193.49999999999997 A2 2 0 0 0 1096.3003343359999 193.49999999999997M1096.3003343359999 193.49999999999997 A2 2 0 0 0 1100.3003343359999 193.49999999999997">
</path>
<path stroke-width="0.3" fill="black" stroke="none" stroke-dasharray="none" d="M1100.3003343359999 203.49999999999997 A2 2 0 0 0 1096.3003343359999 203.49999999999997M1096.3003343359999 203.49999999999997 A2 2 0 0 0 1100.3003343359999 203.49999999999997">
</path>
<path stroke-width="0.3" fill="black" stroke="none" stroke-dasharray="none" d="M519.2250503679999 197.99999999999997M524.2362503679999 179.65439999999998C524.2650503679998 179.62559999999996,524.6682503679999 179.62559999999996,525.9066503679999 179.62559999999996C526.2810503679999 179.62559999999996,526.6842503679999 179.62559999999996,527.2026503679999 179.62559999999996L530.1114503679999 179.62559999999996L530.1978503679999 179.71199999999996C530.3418503679999 179.79839999999996,530.4282503679999 179.94239999999996,530.4282503679999 180.05759999999998C530.4282503679999 180.23039999999997,530.3418503679999 180.34559999999996,530.2266503679999 180.46079999999998C530.1978503679999 180.54719999999998,529.9386503679999 180.77759999999998,529.7658503679999 181.03679999999997L528.2394503679999 182.79359999999997L526.2810503679999 185.01119999999997L525.2442503679998 186.19199999999998L523.6890503679999 187.97759999999997L521.6442503679999 190.31039999999996C521.2986503679999 190.74239999999998,520.9242503679999 191.08799999999997,520.9242503679999 191.08799999999997C520.9242503679999 191.08799999999997,520.9242503679999 191.08799999999997,520.9242503679999 191.08799999999997C520.9242503679999 191.14559999999997,521.1834503679999 191.14559999999997,523.5738503679999 191.14559999999997L526.1946503679999 191.14559999999997L526.1946503679999 189.27359999999996C526.1946503679999 187.37279999999998,526.1946503679999 187.34399999999997,526.2234503679998 187.31519999999998C526.2810503679999 187.22879999999998,526.5402503679999 186.91199999999998,527.5482503679999 185.73119999999997L527.9514503679999 185.29919999999998L528.3546503679999 184.86719999999997L528.9594503679999 184.08959999999996L529.5930503679999 183.42719999999997L529.9098503679999 183.02399999999997C530.0250503679998 182.85119999999998,530.1978503679999 182.82239999999996,530.3418503679999 182.82239999999996C530.5146503679998 182.82239999999996,530.6586503679998 182.90879999999999,530.7450503679999 183.05279999999996C530.7738503679999 183.13919999999996,530.7738503679999 183.19679999999997,530.7738503679999 185.32799999999997C530.7738503679999 185.81759999999997,530.7738503679999 186.42239999999998,530.7738503679999 187.14239999999998L530.7738503679999 191.14559999999997L531.4938503679998 191.14559999999997C532.1562503679999 191.14559999999997,532.1850503679999 191.14559999999997,532.2714503679998 191.17439999999996C532.5018503679999 191.26079999999996,532.6170503679999 191.49119999999996,532.6170503679999 191.75039999999998C532.6170503679999 191.89439999999996,532.5882503679999 192.06719999999999,532.4730503679999 192.18239999999997C532.3002503679999 192.32639999999998,532.2714503679998 192.32639999999998,531.4938503679998 192.32639999999998L530.7738503679999 192.32639999999998L530.7738503679999 192.81599999999997C530.8026503679998 194.28479999999996,531.0906503679998 194.86079999999998,532.2138503679998 195.46559999999997C532.6170503679999 195.66719999999998,532.7034503679998 195.72479999999996,532.7034503679998 196.01279999999997C532.7034503679998 196.21439999999998,532.6458503679999 196.30079999999998,532.5018503679999 196.41599999999997L532.4154503679998 196.44479999999996L528.4698503679999 196.44479999999996L524.5530503679998 196.44479999999996L524.4666503679998 196.41599999999997C524.2938503679999 196.30079999999998,524.2650503679998 196.21439999999998,524.2650503679998 196.01279999999997C524.2650503679998 195.72479999999996,524.2938503679999 195.66719999999998,524.7258503679999 195.46559999999997C525.8490503679999 194.86079999999998,526.1370503679999 194.28479999999996,526.1370503679999 192.81599999999997L526.1370503679999 192.32639999999998L522.8250503679999 192.32639999999998C522.2202503679998 192.38399999999996,521.7306503679998 192.38399999999996,521.3274503679999 192.38399999999996C519.5130503679999 192.38399999999996,519.4842503679998 192.32639999999998,519.4554503679999 192.32639999999998C519.2826503679998 192.26879999999997,519.2250503679999 192.09599999999998,519.2250503679999 191.89439999999996C519.2250503679999 191.89439999999996,519.2250503679999 191.89439999999996,519.2250503679999 191.89439999999996C519.2250503679999 191.69279999999998,519.2250503679999 191.69279999999998,519.8010503679999 191.0304C522.2202503679998 188.09279999999998,523.9194503679998 183.83039999999997,523.9194503679998 180.43199999999996C523.9194503679998 179.91359999999997,524.0058503679999 179.74079999999998,524.2362503679999 179.65439999999998M525.9642503679999 198.02879999999996L525.9930503679999 198.02879999999996L525.9066503679999 198.02879999999996L525.9642503679999 198.02879999999996M525.9642503679999 178.61759999999998L525.9930503679999 178.61759999999998L525.9066503679999 178.61759999999998L525.9642503679999 178.61759999999998">
</path>
<path stroke-width="0.3" fill="black" stroke="none" stroke-dasharray="none" d="M519.2250503679999 217.99999999999997M524.2362503679999 199.65439999999998C524.2650503679998 199.62559999999996,524.6682503679999 199.62559999999996,525.9066503679999 199.62559999999996C526.2810503679999 199.62559999999996,526.6842503679999 199.62559999999996,527.2026503679999 199.62559999999996L530.1114503679999 199.62559999999996L530.1978503679999 199.71199999999996C530.3418503679999 199.79839999999996,530.4282503679999 199.94239999999996,530.4282503679999 200.05759999999998C530.4282503679999 200.23039999999997,530.3418503679999 200.34559999999996,530.2266503679999 200.46079999999998C530.1978503679999 200.54719999999998,529.9386503679999 200.77759999999998,529.7658503679999 201.03679999999997L528.2394503679999 202.79359999999997L526.2810503679999 205.01119999999997L525.2442503679998 206.19199999999998L523.6890503679999 207.97759999999997L521.6442503679999 210.31039999999996C521.2986503679999 210.74239999999998,520.9242503679999 211.08799999999997,520.9242503679999 211.08799999999997C520.9242503679999 211.08799999999997,520.9242503679999 211.08799999999997,520.9242503679999 211.08799999999997C520.9242503679999 211.14559999999997,521.1834503679999 211.14559999999997,523.5738503679999 211.14559999999997L526.1946503679999 211.14559999999997L526.1946503679999 209.27359999999996C526.1946503679999 207.37279999999998,526.1946503679999 207.34399999999997,526.2234503679998 207.31519999999998C526.2810503679999 207.22879999999998,526.5402503679999 206.91199999999998,527.5482503679999 205.73119999999997L527.9514503679999 205.29919999999998L528.3546503679999 204.86719999999997L528.9594503679999 204.08959999999996L529.5930503679999 203.42719999999997L529.9098503679999 203.02399999999997C530.0250503679998 202.85119999999998,530.1978503679999 202.82239999999996,530.3418503679999 202.82239999999996C530.5146503679998 202.82239999999996,530.6586503679998 202.90879999999999,530.7450503679999 203.05279999999996C530.7738503679999 203.13919999999996,530.7738503679999 203.19679999999997,530.7738503679999 205.32799999999997C530.7738503679999 205.81759999999997,530.7738503679999 206.42239999999998,530.7738503679999 207.14239999999998L530.7738503679999 211.14559999999997L531.4938503679998 211.14559999999997C532.1562503679999 211.14559999999997,532.1850503679999 211.14559999999997,532.2714503679998 211.17439999999996C532.5018503679999 211.26079999999996,532.6170503679999 211.49119999999996,532.6170503679999 211.75039999999998C532.6170503679999 211.89439999999996,532.5882503679999 212.06719999999999,532.4730503679999 212.18239999999997C532.3002503679999 212.32639999999998,532.2714503679998 212.32639999999998,531.4938503679998 212.32639999999998L530.7738503679999 212.32639999999998L530.7738503679999 212.81599999999997C530.8026503679998 214.28479999999996,531.0906503679998 214.86079999999998,532.2138503679998 215.46559999999997C532.6170503679999 215.66719999999998,532.7034503679998 215.72479999999996,532.7034503679998 216.01279999999997C532.7034503679998 216.21439999999998,532.6458503679999 216.30079999999998,532.5018503679999 216.41599999999997L532.4154503679998 216.44479999999996L528.4698503679999 216.44479999999996L524.5530503679998 216.44479999999996L524.4666503679998 216.41599999999997C524.2938503679999 216.30079999999998,524.2650503679998 216.21439999999998,524.2650503679998 216.01279999999997C524.2650503679998 215.72479999999996,524.2938503679999 215.66719999999998,524.7258503679999 215.46559999999997C525.8490503679999 214.86079999999998,526.1370503679999 214.28479999999996,526.1370503679999 212.81599999999997L526.1370503679999 212.32639999999998L522.8250503679999 212.32639999999998C522.2202503679998 212.38399999999996,521.7306503679998 212.38399999999996,521.3274503679999 212.38399999999996C519.5130503679999 212.38399999999996,519.4842503679998 212.32639999999998,519.4554503679999 212.32639999999998C519.2826503679998 212.26879999999997,519.2250503679999 212.09599999999998,519.2250503679999 211.89439999999996C519.2250503679999 211.89439999999996,519.2250503679999 211.89439999999996,519.2250503679999 211.89439999999996C519.2250503679999 211.69279999999998,519.2250503679999 211.69279999999998,519.8010503679999 211.0304C522.2202503679998 208.09279999999998,523.9194503679998 203.83039999999997,523.9194503679998 200.43199999999996C523.9194503679998 199.91359999999997,524.0058503679999 199.74079999999998,524.2362503679999 199.65439999999998M525.9642503679999 218.02879999999996L525.9930503679999 218.02879999999996L525.9066503679999 218.02879999999996L525.9642503679999 218.02879999999996M525.9642503679999 198.61759999999998L525.9930503679999 198.61759999999998L525.9066503679999 198.61759999999998L525.9642503679999 198.61759999999998">
</path>
<g class="vf-stavenote" id="vf-auto80356">
<g class="vf-note" pointer-events="bounding-box">
<g class="vf-notehead" pointer-events="bounding-box">
<path stroke-width="0.3" fill="#000000" stroke="none" stroke-dasharray="none" d="M570.5675271679999 197.99999999999997M577.9244871679998 192.77711999999997C578.0368071679999 192.77711999999997,578.2052871679998 192.77711999999997,578.2333671679999 192.77711999999997C578.2333671679999 192.77711999999997,578.2614471679999 192.77711999999997,578.2614471679999 192.77711999999997C578.2614471679999 192.77711999999997,578.4299271679998 192.77711999999997,578.5703271679998 192.77711999999997C581.0975271679998 192.91751999999997,582.5857671679998 194.57423999999997,582.5857671679998 196.65215999999998C582.5857671679998 197.66303999999997,582.2488071679999 198.81431999999998,581.4064071679999 199.90943999999996C579.8058471679999 202.07159999999996,577.1944071679999 203.25095999999996,574.9199271679998 203.25095999999996C573.1508871679998 203.25095999999996,571.6345671679999 202.54895999999997,570.9044871679998 201.11687999999998C570.6798471679998 200.55527999999998,570.5675271679999 200.02175999999997,570.5675271679999 199.43207999999998C570.5675271679999 196.37135999999998,573.9932871679998 192.97367999999997,577.9244871679998 192.77711999999997">
</path>
</g>
</g>
<g class="vf-modifiers">
<g class="vf-stavenote" id="vf-auto80366">
<g class="vf-note" pointer-events="bounding-box">
<g class="vf-stem" pointer-events="bounding-box">
<path stroke-width="1.5" fill="none" stroke="#000000" stroke-dasharray="none" d="M551.8854887679998 197.99999999999997L551.8854887679998 174.89999999999998">
</path>
</g>
<g class="vf-notehead" pointer-events="bounding-box">
<path stroke-width="0.3" fill="#000000" stroke="none" stroke-dasharray="none" d="M544.7034503679998 197.99999999999997M549.5590439679999 194.55289919999998C549.6331751679999 194.55289919999998,549.7443719679999 194.55289919999998,549.7629047679999 194.55289919999998C549.7629047679999 194.55289919999998,549.7814375679999 194.55289919999998,549.7814375679999 194.55289919999998C549.7814375679999 194.55289919999998,549.8926343679998 194.55289919999998,549.9852983679998 194.55289919999998C551.6532503679998 194.64556319999997,552.6354887679998 195.73899839999996,552.6354887679998 197.11042559999999C552.6354887679998 197.77760639999997,552.4130951679998 198.53745119999996,551.8571111679998 199.26023039999998C550.8007415679998 200.68725599999996,549.0771911679998 201.46563359999996,547.5760343679998 201.46563359999996C546.4084679679999 201.46563359999996,545.4076967679998 201.00231359999998,544.9258439679999 200.05714079999998C544.7775815679998 199.68648479999996,544.7034503679998 199.33436159999997,544.7034503679998 198.94517279999997C544.7034503679998 196.92509759999996,546.9644519679998 194.68262879999997,549.5590439679999 194.55289919999998">
</path>
</g>
<g class="vf-flag" pointer-events="bounding-box">
<path stroke-width="0.3" fill="#000000" stroke="none" stroke-dasharray="none" d="M551.8854887679998 172.89999999999998M551.4407015679999 175.88378079999998L551.4407015679999 172.992664L551.5148327679998 172.992664C551.7186935679998 172.992664,551.8484231679998 173.12239359999998,551.8854887679998 173.34478719999998C552.2746775679999 175.19806719999997,553.4422439679998 177.21814239999998,555.0545975679998 178.73783199999997C556.8522791679999 180.42431679999999,557.7603863679999 182.74091679999998,557.7603863679999 185.13164799999998C557.7603863679999 187.39264959999997,556.9634759679999 189.74631519999997,555.3511223679999 191.69225919999997C555.0731303679999 192.06291519999996,555.0545975679998 192.06291519999996,554.8692695679998 192.06291519999996C554.6468759679998 192.06291519999996,554.4986135679999 191.89611999999997,554.4986135679999 191.67372639999996C554.4986135679999 191.50693119999997,554.5171463679999 191.4698656,554.7024743679998 191.2660048C556.1109671679999 189.56098719999997,556.8152135679999 187.5038464,556.8152135679999 185.5393696C556.8152135679999 183.7972864,556.2592295679998 182.12933439999998,555.1101959679999 180.86910399999996C554.4059495679999 180.09072639999997,553.1086535679998 179.34941439999997,551.4592343679999 178.77489759999997C551.4592343679999 178.75636479999997,551.4407015679999 178.18184799999997,551.4407015679999 175.88378079999998">
</path>
</g>
</g>
<g class="vf-modifiers">
</g>
</g>
<path stroke-width="1" fill="none" stroke="#000000" stroke-dasharray="none" d="M545.7034503679998 189.74999999999997L558.7034503679998 180.74999999999997Z">
</path>
</g>
</g>
<g class="vf-stavenote" id="vf-auto80380">
<g class="vf-note" pointer-events="bounding-box">
<g class="vf-notehead" pointer-events="bounding-box">
<path stroke-width="0.3" fill="#000000" stroke="none" stroke-dasharray="none" d="M614.5620087679998 197.99999999999997M621.9189687679998 192.77711999999997C622.0312887679999 192.77711999999997,622.1997687679998 192.77711999999997,622.2278487679998 192.77711999999997C622.2278487679998 192.77711999999997,622.2559287679999 192.77711999999997,622.2559287679999 192.77711999999997C622.2559287679999 192.77711999999997,622.4244087679998 192.77711999999997,622.5648087679998 192.77711999999997C625.0920087679998 192.91751999999997,626.5802487679998 194.57423999999997,626.5802487679998 196.65215999999998C626.5802487679998 197.66303999999997,626.2432887679998 198.81431999999998,625.4008887679998 199.90943999999996C623.8003287679999 202.07159999999996,621.1888887679999 203.25095999999996,618.9144087679998 203.25095999999996C617.1453687679998 203.25095999999996,615.6290487679998 202.54895999999997,614.8989687679998 201.11687999999998C614.6743287679998 200.55527999999998,614.5620087679998 200.02175999999997,614.5620087679998 199.43207999999998C614.5620087679998 196.37135999999998,617.9877687679998 192.97367999999997,621.9189687679998 192.77711999999997">
</path>
</g>
</g>
<g class="vf-modifiers">
</g>
</g>
<g class="vf-stavenote" id="vf-auto80390">
<g class="vf-note" pointer-events="bounding-box">
<g class="vf-notehead" pointer-events="bounding-box">
<path stroke-width="0.3" fill="#000000" stroke="none" stroke-dasharray="none" d="M645.5683695679999 197.99999999999997M652.9253295679998 192.77711999999997C653.0376495679999 192.77711999999997,653.2061295679998 192.77711999999997,653.2342095679999 192.77711999999997C653.2342095679999 192.77711999999997,653.2622895679999 192.77711999999997,653.2622895679999 192.77711999999997C653.2622895679999 192.77711999999997,653.4307695679998 192.77711999999997,653.5711695679998 192.77711999999997C656.0983695679998 192.91751999999997,657.5866095679999 194.57423999999997,657.5866095679999 196.65215999999998C657.5866095679999 197.66303999999997,657.2496495679999 198.81431999999998,656.4072495679999 199.90943999999996C654.8066895679999 202.07159999999996,652.1952495679999 203.25095999999996,649.9207695679999 203.25095999999996C648.1517295679998 203.25095999999996,646.6354095679999 202.54895999999997,645.9053295679998 201.11687999999998C645.6806895679998 200.55527999999998,645.5683695679999 200.02175999999997,645.5683695679999 199.43207999999998C645.5683695679999 196.37135999999998,648.9941295679998 192.97367999999997,652.9253295679998 192.77711999999997">
</path>
</g>
</g>
<g class="vf-modifiers">
</g>
</g>
<g class="vf-stavenote" id="vf-auto80400">
<g class="vf-note" pointer-events="bounding-box">
<g class="vf-notehead" pointer-events="bounding-box">
<path stroke-width="0.3" fill="#000000" stroke="none" stroke-dasharray="none" d="M702.4388071679998 197.99999999999997M709.7957671679998 192.77711999999997C709.9080871679998 192.77711999999997,710.0765671679998 192.77711999999997,710.1046471679998 192.77711999999997C710.1046471679998 192.77711999999997,710.1327271679999 192.77711999999997,710.1327271679999 192.77711999999997C710.1327271679999 192.77711999999997,710.3012071679998 192.77711999999997,710.4416071679998 192.77711999999997C712.9688071679998 192.91751999999997,714.4570471679998 194.57423999999997,714.4570471679998 196.65215999999998C714.4570471679998 197.66303999999997,714.1200871679998 198.81431999999998,713.2776871679998 199.90943999999996C711.6771271679999 202.07159999999996,709.0656871679998 203.25095999999996,706.7912071679998 203.25095999999996C705.0221671679998 203.25095999999996,703.5058471679998 202.54895999999997,702.7757671679998 201.11687999999998C702.5511271679998 200.55527999999998,702.4388071679998 200.02175999999997,702.4388071679998 199.43207999999998C702.4388071679998 196.37135999999998,705.8645671679998 192.97367999999997,709.7957671679998 192.77711999999997">
</path>
</g>
</g>
<g class="vf-modifiers">
<g class="vf-stavenote" id="vf-auto80410">
<g class="vf-note" pointer-events="bounding-box">
<g class="vf-stem" pointer-events="bounding-box">
<path stroke-width="1.5" fill="none" stroke="#000000" stroke-dasharray="none" d="M683.7567687679999 197.99999999999997L683.7567687679999 174.89999999999998">
</path>
</g>
<g class="vf-notehead" pointer-events="bounding-box">
<path stroke-width="0.3" fill="#000000" stroke="none" stroke-dasharray="none" d="M676.5747303679999 197.99999999999997M681.4303239679999 194.55289919999998C681.5044551679999 194.55289919999998,681.615651968 194.55289919999998,681.634184768 194.55289919999998C681.634184768 194.55289919999998,681.652717568 194.55289919999998,681.652717568 194.55289919999998C681.652717568 194.55289919999998,681.7639143679999 194.55289919999998,681.8565783679999 194.55289919999998C683.5245303679999 194.64556319999997,684.5067687679999 195.73899839999996,684.5067687679999 197.11042559999999C684.5067687679999 197.77760639999997,684.2843751679999 198.53745119999996,683.7283911679999 199.26023039999998C682.6720215679999 200.68725599999996,680.9484711679999 201.46563359999996,679.4473143679999 201.46563359999996C678.2797479679999 201.46563359999996,677.2789767679999 201.00231359999998,676.7971239679999 200.05714079999998C676.6488615679999 199.68648479999996,676.5747303679999 199.33436159999997,676.5747303679999 198.94517279999997C676.5747303679999 196.92509759999996,678.8357319679999 194.68262879999997,681.4303239679999 194.55289919999998">
</path>
</g>
<g class="vf-flag" pointer-events="bounding-box">
<path stroke-width="0.3" fill="#000000" stroke="none" stroke-dasharray="none" d="M683.7567687679999 172.89999999999998M683.311981568 175.88378079999998L683.311981568 172.992664L683.3861127679999 172.992664C683.5899735679999 172.992664,683.7197031679999 173.12239359999998,683.7567687679999 173.34478719999998C684.145957568 175.19806719999997,685.3135239679999 177.21814239999998,686.9258775679999 178.73783199999997C688.723559168 180.42431679999999,689.631666368 182.74091679999998,689.631666368 185.13164799999998C689.631666368 187.39264959999997,688.834755968 189.74631519999997,687.222402368 191.69225919999997C686.9444103679999 192.06291519999996,686.9258775679999 192.06291519999996,686.7405495679999 192.06291519999996C686.5181559679999 192.06291519999996,686.369893568 191.89611999999997,686.369893568 191.67372639999996C686.369893568 191.50693119999997,686.388426368 191.4698656,686.5737543679999 191.2660048C687.982247168 189.56098719999997,688.686493568 187.5038464,688.686493568 185.5393696C688.686493568 183.7972864,688.1305095679999 182.12933439999998,686.9814759679999 180.86910399999996C686.2772295679999 180.09072639999997,684.9799335679999 179.34941439999997,683.330514368 178.77489759999997C683.330514368 178.75636479999997,683.311981568 178.18184799999997,683.311981568 175.88378079999998">
</path>
</g>
</g>
<g class="vf-modifiers">
</g>
</g>
<path stroke-width="1" fill="none" stroke="#000000" stroke-dasharray="none" d="M677.5747303679999 189.74999999999997L690.5747303679999 180.74999999999997Z">
</path>
</g>
</g>
<g class="vf-stavenote" id="vf-auto80424">
<g class="vf-note" pointer-events="bounding-box">
<g class="vf-notehead" pointer-events="bounding-box">
<path stroke-width="0.3" fill="#000000" stroke="none" stroke-dasharray="none" d="M746.4332887679999 197.99999999999997M753.7902487679999 192.77711999999997C753.9025687679999 192.77711999999997,754.0710487679999 192.77711999999997,754.0991287679999 192.77711999999997C754.0991287679999 192.77711999999997,754.127208768 192.77711999999997,754.127208768 192.77711999999997C754.127208768 192.77711999999997,754.2956887679999 192.77711999999997,754.4360887679999 192.77711999999997C756.9632887679999 192.91751999999997,758.4515287679999 194.57423999999997,758.4515287679999 196.65215999999998C758.4515287679999 197.66303999999997,758.1145687679999 198.81431999999998,757.2721687679999 199.90943999999996C755.6716087679999 202.07159999999996,753.0601687679999 203.25095999999996,750.7856887679999 203.25095999999996C749.0166487679999 203.25095999999996,747.5003287679999 202.54895999999997,746.7702487679999 201.11687999999998C746.5456087679999 200.55527999999998,746.4332887679999 200.02175999999997,746.4332887679999 199.43207999999998C746.4332887679999 196.37135999999998,749.8590487679999 192.97367999999997,753.7902487679999 192.77711999999997">
</path>
</g>
</g>
<g class="vf-modifiers">
</g>
</g>
<g class="vf-stavenote" id="vf-auto80434">
<g class="vf-note" pointer-events="bounding-box">
<g class="vf-notehead" pointer-events="bounding-box">
<path stroke-width="0.3" fill="#000000" stroke="none" stroke-dasharray="none" d="M777.4396495679998 197.99999999999997M784.7966095679998 192.77711999999997C784.9089295679998 192.77711999999997,785.0774095679998 192.77711999999997,785.1054895679998 192.77711999999997C785.1054895679998 192.77711999999997,785.1335695679999 192.77711999999997,785.1335695679999 192.77711999999997C785.1335695679999 192.77711999999997,785.3020495679998 192.77711999999997,785.4424495679998 192.77711999999997C787.9696495679998 192.91751999999997,789.4578895679998 194.57423999999997,789.4578895679998 196.65215999999998C789.4578895679998 197.66303999999997,789.1209295679998 198.81431999999998,788.2785295679998 199.90943999999996C786.6779695679999 202.07159999999996,784.0665295679999 203.25095999999996,781.7920495679998 203.25095999999996C780.0230095679998 203.25095999999996,778.5066895679998 202.54895999999997,777.7766095679998 201.11687999999998C777.5519695679998 200.55527999999998,777.4396495679998 200.02175999999997,777.4396495679998 199.43207999999998C777.4396495679998 196.37135999999998,780.8654095679998 192.97367999999997,784.7966095679998 192.77711999999997">
</path>
</g>
</g>
<g class="vf-modifiers">
</g>
</g>
<g class="vf-stavenote" id="vf-auto80444">
<g class="vf-note" pointer-events="bounding-box">
<g class="vf-notehead" pointer-events="bounding-box">
<path stroke-width="0.3" fill="#000000" stroke="none" stroke-dasharray="none" d="M834.3100871679999 197.99999999999997M841.6670471679998 192.77711999999997C841.7793671679999 192.77711999999997,841.9478471679998 192.77711999999997,841.9759271679999 192.77711999999997C841.9759271679999 192.77711999999997,842.0040071679999 192.77711999999997,842.0040071679999 192.77711999999997C842.0040071679999 192.77711999999997,842.1724871679999 192.77711999999997,842.3128871679999 192.77711999999997C844.8400871679999 192.91751999999997,846.3283271679999 194.57423999999997,846.3283271679999 196.65215999999998C846.3283271679999 197.66303999999997,845.9913671679999 198.81431999999998,845.1489671679999 199.90943999999996C843.5484071679999 202.07159999999996,840.9369671679999 203.25095999999996,838.6624871679999 203.25095999999996C836.8934471679999 203.25095999999996,835.3771271679999 202.54895999999997,834.6470471679999 201.11687999999998C834.4224071679998 200.55527999999998,834.3100871679999 200.02175999999997,834.3100871679999 199.43207999999998C834.3100871679999 196.37135999999998,837.7358471679999 192.97367999999997,841.6670471679998 192.77711999999997">
</path>
</g>
</g>
<g class="vf-modifiers">
<g class="vf-stavenote" id="vf-auto80454">
<g class="vf-note" pointer-events="bounding-box">
<g class="vf-stem" pointer-events="bounding-box">
<path stroke-width="1.5" fill="none" stroke="#000000" stroke-dasharray="none" d="M815.6280487679999 197.99999999999997L815.6280487679999 174.89999999999998">
</path>
</g>
<g class="vf-notehead" pointer-events="bounding-box">
<path stroke-width="0.3" fill="#000000" stroke="none" stroke-dasharray="none" d="M808.4460103679999 197.99999999999997M813.3016039679999 194.55289919999998C813.3757351679999 194.55289919999998,813.4869319679999 194.55289919999998,813.5054647679999 194.55289919999998C813.5054647679999 194.55289919999998,813.5239975679999 194.55289919999998,813.5239975679999 194.55289919999998C813.5239975679999 194.55289919999998,813.6351943679998 194.55289919999998,813.7278583679998 194.55289919999998C815.3958103679998 194.64556319999997,816.3780487679999 195.73899839999996,816.3780487679999 197.11042559999999C816.3780487679999 197.77760639999997,816.1556551679998 198.53745119999996,815.5996711679999 199.26023039999998C814.5433015679998 200.68725599999996,812.8197511679998 201.46563359999996,811.3185943679998 201.46563359999996C810.1510279679999 201.46563359999996,809.1502567679998 201.00231359999998,808.6684039679999 200.05714079999998C808.5201415679999 199.68648479999996,808.4460103679999 199.33436159999997,808.4460103679999 198.94517279999997C808.4460103679999 196.92509759999996,810.7070119679998 194.68262879999997,813.3016039679999 194.55289919999998">
</path>
</g>
<g class="vf-flag" pointer-events="bounding-box">
<path stroke-width="0.3" fill="#000000" stroke="none" stroke-dasharray="none" d="M815.6280487679999 172.89999999999998M815.1832615679999 175.88378079999998L815.1832615679999 172.992664L815.2573927679998 172.992664C815.4612535679998 172.992664,815.5909831679999 173.12239359999998,815.6280487679999 173.34478719999998C816.0172375679999 175.19806719999997,817.1848039679999 177.21814239999998,818.7971575679999 178.73783199999997C820.5948391679999 180.42431679999999,821.5029463679999 182.74091679999998,821.5029463679999 185.13164799999998C821.5029463679999 187.39264959999997,820.7060359679999 189.74631519999997,819.0936823679999 191.69225919999997C818.8156903679999 192.06291519999996,818.7971575679999 192.06291519999996,818.6118295679998 192.06291519999996C818.3894359679998 192.06291519999996,818.2411735679999 191.89611999999997,818.2411735679999 191.67372639999996C818.2411735679999 191.50693119999997,818.2597063679999 191.4698656,818.4450343679998 191.2660048C819.8535271679999 189.56098719999997,820.5577735679999 187.5038464,820.5577735679999 185.5393696C820.5577735679999 183.7972864,820.0017895679998 182.12933439999998,818.8527559679999 180.86910399999996C818.1485095679999 180.09072639999997,816.8512135679998 179.34941439999997,815.2017943679999 178.77489759999997C815.2017943679999 178.75636479999997,815.1832615679999 178.18184799999997,815.1832615679999 175.88378079999998">
</path>
</g>
</g>
<g class="vf-modifiers">
</g>
</g>
<path stroke-width="1" fill="none" stroke="#000000" stroke-dasharray="none" d="M809.4460103679999 189.74999999999997L822.4460103679999 180.74999999999997Z">
</path>
</g>
</g>
<g class="vf-stavenote" id="vf-auto80468">
<g class="vf-note" pointer-events="bounding-box">
<g class="vf-notehead" pointer-events="bounding-box">
<path stroke-width="0.3" fill="#000000" stroke="none" stroke-dasharray="none" d="M865.3164479679999 197.99999999999997M872.6734079679999 192.77711999999997C872.785727968 192.77711999999997,872.9542079679999 192.77711999999997,872.9822879679999 192.77711999999997C872.9822879679999 192.77711999999997,873.010367968 192.77711999999997,873.010367968 192.77711999999997C873.010367968 192.77711999999997,873.1788479679999 192.77711999999997,873.3192479679999 192.77711999999997C875.8464479679999 192.91751999999997,877.3346879679999 194.57423999999997,877.3346879679999 196.65215999999998C877.3346879679999 197.66303999999997,876.9977279679999 198.81431999999998,876.1553279679999 199.90943999999996C874.554767968 202.07159999999996,871.943327968 203.25095999999996,869.6688479679999 203.25095999999996C867.8998079679999 203.25095999999996,866.3834879679999 202.54895999999997,865.6534079679999 201.11687999999998C865.4287679679999 200.55527999999998,865.3164479679999 200.02175999999997,865.3164479679999 199.43207999999998C865.3164479679999 196.37135999999998,868.7422079679999 192.97367999999997,872.6734079679999 192.77711999999997">
</path>
</g>
</g>
<g class="vf-modifiers">
</g>
</g>
<g class="vf-stavenote" id="vf-auto80478">
<g class="vf-note" pointer-events="bounding-box">
<g class="vf-notehead" pointer-events="bounding-box">
<path stroke-width="0.3" fill="#000000" stroke="none" stroke-dasharray="none" d="M896.3228087679998 197.99999999999997M903.6797687679998 192.77711999999997C903.7920887679999 192.77711999999997,903.9605687679998 192.77711999999997,903.9886487679998 192.77711999999997C903.9886487679998 192.77711999999997,904.0167287679999 192.77711999999997,904.0167287679999 192.77711999999997C904.0167287679999 192.77711999999997,904.1852087679998 192.77711999999997,904.3256087679998 192.77711999999997C906.8528087679998 192.91751999999997,908.3410487679998 194.57423999999997,908.3410487679998 196.65215999999998C908.3410487679998 197.66303999999997,908.0040887679999 198.81431999999998,907.1616887679999 199.90943999999996C905.5611287679999 202.07159999999996,902.9496887679999 203.25095999999996,900.6752087679998 203.25095999999996C898.9061687679998 203.25095999999996,897.3898487679999 202.54895999999997,896.6597687679998 201.11687999999998C896.4351287679998 200.55527999999998,896.3228087679998 200.02175999999997,896.3228087679998 199.43207999999998C896.3228087679998 196.37135999999998,899.7485687679998 192.97367999999997,903.6797687679998 192.77711999999997">
</path>
</g>
</g>
<g class="vf-modifiers">
</g>
</g>
<g class="vf-stavenote" id="vf-auto80488">
<g class="vf-note" pointer-events="bounding-box">
<g class="vf-notehead" pointer-events="bounding-box">
<path stroke-width="0.3" fill="#000000" stroke="none" stroke-dasharray="none" d="M927.3291695679999 197.99999999999997M934.6861295679998 192.77711999999997C934.7984495679999 192.77711999999997,934.9669295679998 192.77711999999997,934.9950095679999 192.77711999999997C934.9950095679999 192.77711999999997,935.0230895679999 192.77711999999997,935.0230895679999 192.77711999999997C935.0230895679999 192.77711999999997,935.1915695679999 192.77711999999997,935.3319695679999 192.77711999999997C937.8591695679999 192.91751999999997,939.3474095679999 194.57423999999997,939.3474095679999 196.65215999999998C939.3474095679999 197.66303999999997,939.0104495679999 198.81431999999998,938.1680495679999 199.90943999999996C936.5674895679999 202.07159999999996,933.9560495679999 203.25095999999996,931.6815695679999 203.25095999999996C929.9125295679999 203.25095999999996,928.3962095679999 202.54895999999997,927.6661295679999 201.11687999999998C927.4414895679998 200.55527999999998,927.3291695679999 200.02175999999997,927.3291695679999 199.43207999999998C927.3291695679999 196.37135999999998,930.7549295679999 192.97367999999997,934.6861295679998 192.77711999999997">
</path>
</g>
</g>
<g class="vf-modifiers">
</g>
</g>
<g class="vf-stavenote" id="vf-auto80498">
<g class="vf-note" pointer-events="bounding-box">
<g class="vf-notehead" pointer-events="bounding-box">
<path stroke-width="0.3" fill="#000000" stroke="none" stroke-dasharray="none" d="M984.1996071679998 197.99999999999997M991.5565671679998 192.77711999999997C991.6688871679999 192.77711999999997,991.8373671679998 192.77711999999997,991.8654471679998 192.77711999999997C991.8654471679998 192.77711999999997,991.8935271679999 192.77711999999997,991.8935271679999 192.77711999999997C991.8935271679999 192.77711999999997,992.0620071679998 192.77711999999997,992.2024071679998 192.77711999999997C994.7296071679998 192.91751999999997,996.2178471679998 194.57423999999997,996.2178471679998 196.65215999999998C996.2178471679998 197.66303999999997,995.8808871679998 198.81431999999998,995.0384871679998 199.90943999999996C993.4379271679999 202.07159999999996,990.8264871679999 203.25095999999996,988.5520071679998 203.25095999999996C986.7829671679998 203.25095999999996,985.2666471679998 202.54895999999997,984.5365671679998 201.11687999999998C984.3119271679998 200.55527999999998,984.1996071679998 200.02175999999997,984.1996071679998 199.43207999999998C984.1996071679998 196.37135999999998,987.6253671679998 192.97367999999997,991.5565671679998 192.77711999999997">
</path>
</g>
</g>
<g class="vf-modifiers">
<g class="vf-stavenote" id="vf-auto80508">
<g class="vf-note" pointer-events="bounding-box">
<g class="vf-stem" pointer-events="bounding-box">
<path stroke-width="1.5" fill="none" stroke="#000000" stroke-dasharray="none" d="M965.5175687679998 197.99999999999997L965.5175687679998 174.89999999999998">
</path>
</g>
<g class="vf-notehead" pointer-events="bounding-box">
<path stroke-width="0.3" fill="#000000" stroke="none" stroke-dasharray="none" d="M958.3355303679998 197.99999999999997M963.1911239679998 194.55289919999998C963.2652551679998 194.55289919999998,963.3764519679999 194.55289919999998,963.3949847679999 194.55289919999998C963.3949847679999 194.55289919999998,963.4135175679999 194.55289919999998,963.4135175679999 194.55289919999998C963.4135175679999 194.55289919999998,963.5247143679998 194.55289919999998,963.6173783679998 194.55289919999998C965.2853303679998 194.64556319999997,966.2675687679998 195.73899839999996,966.2675687679998 197.11042559999999C966.2675687679998 197.77760639999997,966.0451751679998 198.53745119999996,965.4891911679998 199.26023039999998C964.4328215679998 200.68725599999996,962.7092711679998 201.46563359999996,961.2081143679998 201.46563359999996C960.0405479679998 201.46563359999996,959.0397767679998 201.00231359999998,958.5579239679998 200.05714079999998C958.4096615679998 199.68648479999996,958.3355303679998 199.33436159999997,958.3355303679998 198.94517279999997C958.3355303679998 196.92509759999996,960.5965319679998 194.68262879999997,963.1911239679998 194.55289919999998">
</path>
</g>
<g class="vf-flag" pointer-events="bounding-box">
<path stroke-width="0.3" fill="#000000" stroke="none" stroke-dasharray="none" d="M965.5175687679998 172.89999999999998M965.0727815679999 175.88378079999998L965.0727815679999 172.992664L965.1469127679998 172.992664C965.3507735679998 172.992664,965.4805031679998 173.12239359999998,965.5175687679998 173.34478719999998C965.9067575679999 175.19806719999997,967.0743239679998 177.21814239999998,968.6866775679998 178.73783199999997C970.4843591679999 180.42431679999999,971.3924663679999 182.74091679999998,971.3924663679999 185.13164799999998C971.3924663679999 187.39264959999997,970.5955559679999 189.74631519999997,968.9832023679999 191.69225919999997C968.7052103679998 192.06291519999996,968.6866775679998 192.06291519999996,968.5013495679998 192.06291519999996C968.2789559679998 192.06291519999996,968.1306935679999 191.89611999999997,968.1306935679999 191.67372639999996C968.1306935679999 191.50693119999997,968.1492263679999 191.4698656,968.3345543679998 191.2660048C969.7430471679999 189.56098719999997,970.4472935679998 187.5038464,970.4472935679998 185.5393696C970.4472935679998 183.7972864,969.8913095679998 182.12933439999998,968.7422759679998 180.86910399999996C968.0380295679998 180.09072639999997,966.7407335679998 179.34941439999997,965.0913143679999 178.77489759999997C965.0913143679999 178.75636479999997,965.0727815679999 178.18184799999997,965.0727815679999 175.88378079999998">
</path>
</g>
</g>
<g class="vf-modifiers">
</g>
</g>
<path stroke-width="1" fill="none" stroke="#000000" stroke-dasharray="none" d="M959.3355303679998 189.74999999999997L972.3355303679998 180.74999999999997Z">
</path>
</g>
</g>
<g class="vf-stavenote" id="vf-auto80522">
<g class="vf-note" pointer-events="bounding-box">
<g class="vf-notehead" pointer-events="bounding-box">
<path stroke-width="0.3" fill="#000000" stroke="none" stroke-dasharray="none" d="M1015.2059679679999 197.99999999999997M1022.5629279679998 192.77711999999997C1022.6752479679999 192.77711999999997,1022.8437279679998 192.77711999999997,1022.8718079679999 192.77711999999997C1022.8718079679999 192.77711999999997,1022.8998879679999 192.77711999999997,1022.8998879679999 192.77711999999997C1022.8998879679999 192.77711999999997,1023.0683679679998 192.77711999999997,1023.2087679679998 192.77711999999997C1025.7359679679998 192.91751999999997,1027.224207968 194.57423999999997,1027.224207968 196.65215999999998C1027.224207968 197.66303999999997,1026.8872479679999 198.81431999999998,1026.0448479679999 199.90943999999996C1024.4442879679998 202.07159999999996,1021.8328479679999 203.25095999999996,1019.5583679679999 203.25095999999996C1017.7893279679998 203.25095999999996,1016.2730079679999 202.54895999999997,1015.5429279679998 201.11687999999998C1015.3182879679998 200.55527999999998,1015.2059679679999 200.02175999999997,1015.2059679679999 199.43207999999998C1015.2059679679999 196.37135999999998,1018.6317279679998 192.97367999999997,1022.5629279679998 192.77711999999997">
</path>
</g>
</g>
<g class="vf-modifiers">
</g>
</g>
<g class="vf-stavenote" id="vf-auto80532">
<g class="vf-note" pointer-events="bounding-box">
<g class="vf-notehead" pointer-events="bounding-box">
<path stroke-width="0.3" fill="#000000" stroke="none" stroke-dasharray="none" d="M1046.212328768 197.99999999999997M1053.569288768 192.77711999999997C1053.681608768 192.77711999999997,1053.850088768 192.77711999999997,1053.8781687679998 192.77711999999997C1053.8781687679998 192.77711999999997,1053.9062487679998 192.77711999999997,1053.9062487679998 192.77711999999997C1053.9062487679998 192.77711999999997,1054.0747287679999 192.77711999999997,1054.2151287679999 192.77711999999997C1056.7423287679999 192.91751999999997,1058.230568768 194.57423999999997,1058.230568768 196.65215999999998C1058.230568768 197.66303999999997,1057.893608768 198.81431999999998,1057.051208768 199.90943999999996C1055.4506487679998 202.07159999999996,1052.839208768 203.25095999999996,1050.564728768 203.25095999999996C1048.795688768 203.25095999999996,1047.2793687679998 202.54895999999997,1046.549288768 201.11687999999998C1046.3246487679999 200.55527999999998,1046.212328768 200.02175999999997,1046.212328768 199.43207999999998C1046.212328768 196.37135999999998,1049.638088768 192.97367999999997,1053.569288768 192.77711999999997">
</path>
</g>
</g>
<g class="vf-modifiers">
</g>
</g>
<g class="vf-stavenote" id="vf-auto80542">
<g class="vf-note" pointer-events="bounding-box">
<g class="vf-notehead" pointer-events="bounding-box">
<path stroke-width="0.3" fill="#000000" stroke="none" stroke-dasharray="none" d="M1077.218689568 197.99999999999997M1084.575649568 192.77711999999997C1084.687969568 192.77711999999997,1084.856449568 192.77711999999997,1084.8845295679998 192.77711999999997C1084.8845295679998 192.77711999999997,1084.9126095679999 192.77711999999997,1084.9126095679999 192.77711999999997C1084.9126095679999 192.77711999999997,1085.081089568 192.77711999999997,1085.221489568 192.77711999999997C1087.748689568 192.91751999999997,1089.236929568 194.57423999999997,1089.236929568 196.65215999999998C1089.236929568 197.66303999999997,1088.899969568 198.81431999999998,1088.057569568 199.90943999999996C1086.4570095679999 202.07159999999996,1083.845569568 203.25095999999996,1081.571089568 203.25095999999996C1079.802049568 203.25095999999996,1078.2857295679999 202.54895999999997,1077.555649568 201.11687999999998C1077.331009568 200.55527999999998,1077.218689568 200.02175999999997,1077.218689568 199.43207999999998C1077.218689568 196.37135999999998,1080.644449568 192.97367999999997,1084.575649568 192.77711999999997">
</path>
</g>
</g>
<g class="vf-modifiers">
</g>
</g>
<path stroke-width="1.5" fill="none" stroke="#000000" stroke-dasharray="none" d="M581.8357671679998 197.99999999999997L581.8357671679998 163.74999999999997">
</path>
<path stroke-width="1.5" fill="none" stroke="#000000" stroke-dasharray="none" d="M625.8302487679998 197.99999999999997L625.8302487679998 163.74999999999997">
</path>
<path stroke-width="1.5" fill="none" stroke="#000000" stroke-dasharray="none" d="M656.8366095679999 197.99999999999997L656.8366095679999 163.74999999999997">
</path>
<path stroke-width="0.3" fill="#000000" stroke="none" stroke-dasharray="none" d="M581.0857671679998 162.99999999999997L581.0857671679998 167.99999999999997L657.0866095679999 167.99999999999997L657.0866095679999 162.99999999999997Z">
</path>
<path stroke-width="0.3" fill="#000000" stroke="none" stroke-dasharray="none" d="M625.0802487679998 170.49999999999997L625.0802487679998 175.49999999999997L657.0866095679999 175.49999999999997L657.0866095679999 170.49999999999997Z">
</path>
<path stroke-width="1.5" fill="none" stroke="#000000" stroke-dasharray="none" d="M713.7070471679998 197.99999999999997L713.7070471679998 163.74999999999997">
</path>
<path stroke-width="1.5" fill="none" stroke="#000000" stroke-dasharray="none" d="M757.7015287679999 197.99999999999997L757.7015287679999 163.74999999999997">
</path>
<path stroke-width="1.5" fill="none" stroke="#000000" stroke-dasharray="none" d="M788.7078895679998 197.99999999999997L788.7078895679998 163.74999999999997">
</path>
<path stroke-width="0.3" fill="#000000" stroke="none" stroke-dasharray="none" d="M712.9570471679998 162.99999999999997L712.9570471679998 167.99999999999997L788.9578895679998 167.99999999999997L788.9578895679998 162.99999999999997Z">
</path>
<path stroke-width="0.3" fill="#000000" stroke="none" stroke-dasharray="none" d="M756.9515287679999 170.49999999999997L756.9515287679999 175.49999999999997L788.9578895679998 175.49999999999997L788.9578895679998 170.49999999999997Z">
</path>
<path stroke-width="1.5" fill="none" stroke="#000000" stroke-dasharray="none" d="M845.5783271679999 197.99999999999997L845.5783271679999 163.74999999999997">
</path>
<path stroke-width="1.5" fill="none" stroke="#000000" stroke-dasharray="none" d="M876.5846879679999 197.99999999999997L876.5846879679999 163.74999999999997">
</path>
<path stroke-width="1.5" fill="none" stroke="#000000" stroke-dasharray="none" d="M907.5910487679998 197.99999999999997L907.5910487679998 163.74999999999997">
</path>
<path stroke-width="1.5" fill="none" stroke="#000000" stroke-dasharray="none" d="M938.5974095679999 197.99999999999997L938.5974095679999 163.74999999999997">
</path>
<path stroke-width="0.3" fill="#000000" stroke="none" stroke-dasharray="none" d="M844.8283271679999 162.99999999999997L844.8283271679999 167.99999999999997L938.8474095679999 167.99999999999997L938.8474095679999 162.99999999999997Z">
</path>
<path stroke-width="0.3" fill="#000000" stroke="none" stroke-dasharray="none" d="M844.8283271679999 170.49999999999997L844.8283271679999 175.49999999999997L938.8474095679999 175.49999999999997L938.8474095679999 170.49999999999997Z">
</path>
<path stroke-width="1.5" fill="none" stroke="#000000" stroke-dasharray="none" d="M995.4678471679998 197.99999999999997L995.4678471679998 163.74999999999997">
</path>
<path stroke-width="1.5" fill="none" stroke="#000000" stroke-dasharray="none" d="M1026.474207968 197.99999999999997L1026.474207968 163.74999999999997">
</path>
<path stroke-width="1.5" fill="none" stroke="#000000" stroke-dasharray="none" d="M1057.480568768 197.99999999999997L1057.480568768 163.74999999999997">
</path>
<path stroke-width="1.5" fill="none" stroke="#000000" stroke-dasharray="none" d="M1088.486929568 197.99999999999997L1088.486929568 163.74999999999997">
</path>
<path stroke-width="0.3" fill="#000000" stroke="none" stroke-dasharray="none" d="M994.7178471679998 162.99999999999997L994.7178471679998 167.99999999999997L1088.736929568 167.99999999999997L1088.736929568 162.99999999999997Z">
</path>
<path stroke-width="0.3" fill="#000000" stroke="none" stroke-dasharray="none" d="M994.7178471679998 170.49999999999997L994.7178471679998 175.49999999999997L1088.736929568 175.49999999999997L1088.736929568 170.49999999999997Z">
</path>
</svg>