<svg width="1536" height="331.99999999999994" viewBox="0 0 1536 331.99999999999994">
<path stroke-width="1" fill="none" stroke="black" stroke-dasharray="none" d="M50 197.99999999999997L452.66854758399984 197.99999999999997">
</path>
<rect stroke-width="0.3" fill="black" stroke="black" stroke-dasharray="none" x="452.66854758399984" y="177.49999999999997" width="1" height="41">
</rect>
<path stroke-width="0.3" fill="black" stroke="none" stroke-dasharray="none" d="M55 197.99999999999997M55 197.99999999999997L55 188.00639999999999L57.1888 188.00639999999999L59.4064 188.00639999999999L59.4064 197.99999999999997L59.4064 208.02239999999998L57.1888 208.02239999999998L55 208.02239999999998L55 197.99999999999997M63.870400000000004 198.02879999999996L63.870400000000004 188.00639999999999L66.1168 188.00639999999999L68.3632 188.00639999999999L68.3632 198.02879999999996L68.3632 208.02239999999998L66.1168 208.02239999999998L63.870400000000004 208.02239999999998L63.870400000000004 198.02879999999996">
</path>
<path stroke-width="0.3" fill="black" stroke="none" stroke-dasharray="none" d="M96.1296 197.99999999999997M101.80319999999999 179.33759999999998C101.91839999999999 179.33759999999998,102.11999999999999 179.33759999999998,102.3504 179.33759999999998C102.8112 179.33759999999998,103.416 179.33759999999998,103.56 179.39519999999996C105.72 179.65439999999998,107.448 180.74879999999996,108.1968 182.27519999999998C108.45599999999999 182.79359999999997,108.57119999999999 183.34079999999997,108.57119999999999 183.91679999999997C108.57119999999999 185.32799999999997,107.7936 186.94079999999997,106.38239999999999 188.15039999999996C105.4032 188.98559999999998,104.42399999999999 189.50399999999996,102.8976 189.99359999999996C100.9104 190.62719999999996,99.21119999999999 191.75039999999998,98.1168 193.10399999999998C98.1168 193.10399999999998,98.1168 193.13279999999997,98.1168 193.13279999999997C98.1168 193.13279999999997,98.1168 193.13279999999997,98.1168 193.13279999999997C98.1168 193.13279999999997,98.2032 193.10399999999998,98.26079999999999 193.01759999999996C99.3552 192.12479999999996,100.824 191.60639999999998,102.1488 191.60639999999998C103.2432 191.60639999999998,104.0208 191.80799999999996,105.0576 192.38399999999996C105.6912 192.70079999999996,106.2672 192.84479999999996,106.81439999999999 192.84479999999996C107.0448 192.84479999999996,107.2752 192.84479999999996,107.53439999999999 192.78719999999998C107.9088 192.70079999999996,108.312 192.41279999999998,108.45599999999999 192.18239999999997C108.5424 191.98079999999996,108.68639999999999 191.89439999999996,108.8592 191.89439999999996C109.08959999999999 191.89439999999996,109.32 192.06719999999999,109.32 192.32639999999998C109.32 192.52799999999996,109.0608 193.24799999999996,108.8304 193.7376C107.9088 195.58079999999998,106.29599999999999 196.73279999999997,104.7408 196.73279999999997C104.62559999999999 196.73279999999997,104.5392 196.73279999999997,104.42399999999999 196.70399999999998C104.0208 196.70399999999998,103.848 196.58879999999996,103.3296 196.24319999999997C102.23519999999999 195.52319999999997,100.8528 195.14879999999997,99.6432 195.14879999999997C99.1248 195.14879999999997,98.664 195.20639999999997,98.232 195.37919999999997C97.65599999999999 195.58079999999998,97.1088 195.92639999999997,96.93599999999999 196.18559999999997C96.8496 196.38719999999998,96.70559999999999 196.44479999999996,96.5328 196.44479999999996C96.3888 196.44479999999996,96.2448 196.38719999999998,96.1584 196.21439999999998L96.10079999999999 196.128L96.10079999999999 195.72479999999996C96.10079999999999 195.37919999999997,96.1296 195.26399999999998,96.1296 195.14879999999997C96.1584 195.06239999999997,96.18719999999999 194.88959999999997,96.18719999999999 194.74559999999997C96.70559999999999 192.32639999999998,98.4624 190.16639999999998,100.8528 189.10079999999996C102.8112 188.17919999999998,104.10719999999999 186.53759999999997,104.3376 184.46399999999997C104.39519999999999 184.29119999999998,104.39519999999999 184.14719999999997,104.39519999999999 183.97439999999997C104.39519999999999 182.13119999999998,103.0128 180.86399999999998,101.0544 180.86399999999998C100.9104 180.86399999999998,100.7376 180.86399999999998,100.5936 180.86399999999998C100.3056 180.89279999999997,100.2192 180.89279999999997,100.2192 180.95039999999997C100.2192 180.95039999999997,100.2192 180.97919999999996,100.3056 181.03679999999997C100.96799999999999 181.41119999999998,101.28479999999999 182.13119999999998,101.28479999999999 182.82239999999996C101.28479999999999 183.71519999999998,100.824 184.55039999999997,99.93119999999999 184.89599999999996C99.6432 184.98239999999998,99.3552 185.01119999999997,99.1248 185.01119999999997C97.9152 185.01119999999997,96.9072 183.97439999999997,96.9072 182.73599999999996C96.9072 182.50559999999996,96.9072 182.27519999999998,96.9648 182.01599999999996C97.3968 180.69119999999998,99.4416 179.59679999999997,101.80319999999999 179.33759999999998M102.696 198.02879999999996L102.75359999999999 198.02879999999996L102.6672 198.02879999999996L102.696 198.02879999999996M102.696 178.61759999999998L102.75359999999999 178.61759999999998L102.6672 178.61759999999998L102.696 178.61759999999998">
</path>
<path stroke-width="0.3" fill="black" stroke="none" stroke-dasharray="none" d="M96 217.99999999999997M101.0112 199.65439999999998C101.04 199.62559999999996,101.4432 199.62559999999996,102.6816 199.62559999999996C103.056 199.62559999999996,103.4592 199.62559999999996,103.9776 199.62559999999996L106.8864 199.62559999999996L106.9728 199.71199999999996C107.1168 199.79839999999996,107.2032 199.94239999999996,107.2032 200.05759999999998C107.2032 200.23039999999997,107.1168 200.34559999999996,107.0016 200.46079999999998C106.9728 200.54719999999998,106.7136 200.77759999999998,106.5408 201.03679999999997L105.0144 202.79359999999997L103.056 205.01119999999997L102.0192 206.19199999999998L100.464 207.97759999999997L98.4192 210.31039999999996C98.0736 210.74239999999998,97.6992 211.08799999999997,97.6992 211.08799999999997C97.6992 211.08799999999997,97.6992 211.08799999999997,97.6992 211.08799999999997C97.6992 211.14559999999997,97.9584 211.14559999999997,100.3488 211.14559999999997L102.9696 211.14559999999997L102.9696 209.27359999999996C102.9696 207.37279999999998,102.9696 207.34399999999997,102.9984 207.31519999999998C103.056 207.22879999999998,103.3152 206.91199999999998,104.3232 205.73119999999997L104.7264 205.29919999999998L105.1296 204.86719999999997L105.7344 204.08959999999996L106.368 203.42719999999997L106.6848 203.02399999999997C106.8 202.85119999999998,106.9728 202.82239999999996,107.1168 202.82239999999996C107.28960000000001 202.82239999999996,107.4336 202.90879999999999,107.52 203.05279999999996C107.5488 203.13919999999996,107.5488 203.19679999999997,107.5488 205.32799999999997C107.5488 205.81759999999997,107.5488 206.42239999999998,107.5488 207.14239999999998L107.5488 211.14559999999997L108.2688 211.14559999999997C108.9312 211.14559999999997,108.96 211.14559999999997,109.0464 211.17439999999996C109.2768 211.26079999999996,109.392 211.49119999999996,109.392 211.75039999999998C109.392 211.89439999999996,109.3632 212.06719999999999,109.248 212.18239999999997C109.0752 212.32639999999998,109.0464 212.32639999999998,108.2688 212.32639999999998L107.5488 212.32639999999998L107.5488 212.81599999999997C107.5776 214.28479999999996,107.8656 214.86079999999998,108.9888 215.46559999999997C109.392 215.66719999999998,109.4784 215.72479999999996,109.4784 216.01279999999997C109.4784 216.21439999999998,109.4208 216.30079999999998,109.2768 216.41599999999997L109.1904 216.44479999999996L105.2448 216.44479999999996L101.328 216.44479999999996L101.2416 216.41599999999997C101.0688 216.30079999999998,101.04 216.21439999999998,101.04 216.01279999999997C101.04 215.72479999999996,101.0688 215.66719999999998,101.5008 215.46559999999997C102.624 214.86079999999998,102.912 214.28479999999996,102.912 212.81599999999997L102.912 212.32639999999998L99.6 212.32639999999998C98.9952 212.38399999999996,98.5056 212.38399999999996,98.1024 212.38399999999996C96.288 212.38399999999996,96.2592 212.32639999999998,96.2304 212.32639999999998C96.0576 212.26879999999997,96 212.09599999999998,96 211.89439999999996C96 211.89439999999996,96 211.89439999999996,96 211.89439999999996C96 211.69279999999998,96 211.69279999999998,96.576 211.0304C98.9952 208.09279999999998,100.6944 203.83039999999997,100.6944 200.43199999999996C100.6944 199.91359999999997,100.7808 199.74079999999998,101.0112 199.65439999999998M102.7392 218.02879999999996L102.768 218.02879999999996L102.6816 218.02879999999996L102.7392 218.02879999999996M102.7392 198.61759999999998L102.768 198.61759999999998L102.6816 198.61759999999998L102.7392 198.61759999999998">
</path>
<g class="vf-stavenote" id="vf-auto71756">
<g class="vf-note" pointer-events="bounding-box">
<g class="vf-notehead" pointer-events="bounding-box">
<path stroke-width="0.3" fill="#000000" stroke="none" stroke-dasharray="none" d="M147.3424768 197.99999999999997M154.69943679999997 192.77711999999997C154.81175679999998 192.77711999999997,154.9802368 192.77711999999997,155.0083168 192.77711999999997C155.0083168 192.77711999999997,155.03639679999998 192.77711999999997,155.03639679999998 192.77711999999997C155.03639679999998 192.77711999999997,155.2048768 192.77711999999997,155.3452768 192.77711999999997C157.8724768 192.91751999999997,159.36071679999998 194.57423999999997,159.36071679999998 196.65215999999998C159.36071679999998 197.66303999999997,159.0237568 198.81431999999998,158.18135679999997 199.90943999999996C156.58079679999997 202.07159999999996,153.96935679999999 203.25095999999996,151.69487679999997 203.25095999999996C149.92583679999998 203.25095999999996,148.40951679999998 202.54895999999997,147.6794368 201.11687999999998C147.4547968 200.55527999999998,147.3424768 200.02175999999997,147.3424768 199.43207999999998C147.3424768 196.37135999999998,150.76823679999998 192.97367999999997,154.69943679999997 192.77711999999997">
</path>
</g>
</g>
<g class="vf-modifiers">
<g class="vf-stavenote" id="vf-auto71766">
<g class="vf-note" pointer-events="bounding-box">
<g class="vf-stem" pointer-events="bounding-box">
<path stroke-width="1.5" fill="none" stroke="#000000" stroke-dasharray="none" d="M128.6604384 197.99999999999997L128.6604384 174.89999999999998">
</path>
</g>
<g class="vf-notehead" pointer-events="bounding-box">
<path stroke-width="0.3" fill="#000000" stroke="none" stroke-dasharray="none" d="M121.4784 197.99999999999997M126.3339936 194.55289919999998C126.4081248 194.55289919999998,126.5193216 194.55289919999998,126.5378544 194.55289919999998C126.5378544 194.55289919999998,126.55638719999999 194.55289919999998,126.55638719999999 194.55289919999998C126.55638719999999 194.55289919999998,126.66758399999999 194.55289919999998,126.76024799999999 194.55289919999998C128.4282 194.64556319999997,129.4104384 195.73899839999996,129.4104384 197.11042559999999C129.4104384 197.77760639999997,129.1880448 198.53745119999996,128.6320608 199.26023039999998C127.5756912 200.68725599999996,125.8521408 201.46563359999996,124.350984 201.46563359999996C123.1834176 201.46563359999996,122.1826464 201.00231359999998,121.7007936 200.05714079999998C121.55253119999999 199.68648479999996,121.4784 199.33436159999997,121.4784 198.94517279999997C121.4784 196.92509759999996,123.7394016 194.68262879999997,126.3339936 194.55289919999998">
</path>
</g>
<g class="vf-flag" pointer-events="bounding-box">
<path stroke-width="0.3" fill="#000000" stroke="none" stroke-dasharray="none" d="M128.6604384 172.89999999999998M128.2156512 175.88378079999998L128.2156512 172.992664L128.2897824 172.992664C128.4936432 172.992664,128.6233728 173.12239359999998,128.6604384 173.34478719999998C129.0496272 175.19806719999997,130.2171936 177.21814239999998,131.8295472 178.73783199999997C133.6272288 180.42431679999999,134.535336 182.74091679999998,134.535336 185.13164799999998C134.535336 187.39264959999997,133.7384256 189.74631519999997,132.126072 191.69225919999997C131.84808 192.06291519999996,131.8295472 192.06291519999996,131.6442192 192.06291519999996C131.4218256 192.06291519999996,131.2735632 191.89611999999997,131.2735632 191.67372639999996C131.2735632 191.50693119999997,131.29209600000002 191.4698656,131.477424 191.2660048C132.88591680000002 189.56098719999997,133.5901632 187.5038464,133.5901632 185.5393696C133.5901632 183.7972864,133.0341792 182.12933439999998,131.88514560000002 180.86910399999996C131.1808992 180.09072639999997,129.8836032 179.34941439999997,128.234184 178.77489759999997C128.234184 178.75636479999997,128.2156512 178.18184799999997,128.2156512 175.88378079999998">
</path>
</g>
</g>
<g class="vf-modifiers">
</g>
</g>
<path stroke-width="1" fill="none" stroke="#000000" stroke-dasharray="none" d="M122.4784 189.74999999999997L135.4784 180.74999999999997Z">
</path>
</g>
</g>
<g class="vf-stavenote" id="vf-auto71780">
<g class="vf-note" pointer-events="bounding-box">
<g class="vf-notehead" pointer-events="bounding-box">
<path stroke-width="0.3" fill="#000000" stroke="none" stroke-dasharray="none" d="M182.44165759999998 197.99999999999997M189.79861759999997 192.77711999999997C189.91093759999998 192.77711999999997,190.0794176 192.77711999999997,190.1074976 192.77711999999997C190.1074976 192.77711999999997,190.13557759999998 192.77711999999997,190.13557759999998 192.77711999999997C190.13557759999998 192.77711999999997,190.3040576 192.77711999999997,190.4444576 192.77711999999997C192.9716576 192.91751999999997,194.45989759999998 194.57423999999997,194.45989759999998 196.65215999999998C194.45989759999998 197.66303999999997,194.1229376 198.81431999999998,193.28053759999997 199.90943999999996C191.67997759999997 202.07159999999996,189.06853759999998 203.25095999999996,186.79405759999997 203.25095999999996C185.02501759999998 203.25095999999996,183.50869759999998 202.54895999999997,182.7786176 201.11687999999998C182.5539776 200.55527999999998,182.44165759999998 200.02175999999997,182.44165759999998 199.43207999999998C182.44165759999998 196.37135999999998,185.86741759999998 192.97367999999997,189.79861759999997 192.77711999999997">
</path>
</g>
</g>
<g class="vf-modifiers">
</g>
</g>
<g class="vf-stavenote" id="vf-auto71790">
<g class="vf-note" pointer-events="bounding-box">
<g class="vf-notehead" pointer-events="bounding-box">
<path stroke-width="0.3" fill="#000000" stroke="none" stroke-dasharray="none" d="M217.54083839999998 197.99999999999997M224.89779839999997 192.77711999999997C225.01011839999998 192.77711999999997,225.1785984 192.77711999999997,225.2066784 192.77711999999997C225.2066784 192.77711999999997,225.23475839999998 192.77711999999997,225.23475839999998 192.77711999999997C225.23475839999998 192.77711999999997,225.4032384 192.77711999999997,225.5436384 192.77711999999997C228.07083839999999 192.91751999999997,229.55907839999998 194.57423999999997,229.55907839999998 196.65215999999998C229.55907839999998 197.66303999999997,229.2221184 198.81431999999998,228.37971839999997 199.90943999999996C226.77915839999997 202.07159999999996,224.16771839999998 203.25095999999996,221.89323839999997 203.25095999999996C220.12419839999998 203.25095999999996,218.60787839999998 202.54895999999997,217.8777984 201.11687999999998C217.6531584 200.55527999999998,217.54083839999998 200.02175999999997,217.54083839999998 199.43207999999998C217.54083839999998 196.37135999999998,220.96659839999998 192.97367999999997,224.89779839999997 192.77711999999997">
</path>
</g>
</g>
<g class="vf-modifiers">
</g>
</g>
<g class="vf-stavenote" id="vf-auto71800">
<g class="vf-note" pointer-events="bounding-box">
<g class="vf-notehead" pointer-events="bounding-box">
<path stroke-width="0.3" fill="#000000" stroke="none" stroke-dasharray="none" d="M252.6400192 197.99999999999997M259.9969792 192.77711999999997C260.1092992 192.77711999999997,260.2777792 192.77711999999997,260.3058592 192.77711999999997C260.3058592 192.77711999999997,260.33393920000003 192.77711999999997,260.33393920000003 192.77711999999997C260.33393920000003 192.77711999999997,260.5024192 192.77711999999997,260.6428192 192.77711999999997C263.1700192 192.91751999999997,264.65825920000003 194.57423999999997,264.65825920000003 196.65215999999998C264.65825920000003 197.66303999999997,264.3212992 198.81431999999998,263.4788992 199.90943999999996C261.8783392 202.07159999999996,259.2668992 203.25095999999996,256.99241920000003 203.25095999999996C255.2233792 203.25095999999996,253.7070592 202.54895999999997,252.97697920000002 201.11687999999998C252.75233920000002 200.55527999999998,252.6400192 200.02175999999997,252.6400192 199.43207999999998C252.6400192 196.37135999999998,256.0657792 192.97367999999997,259.9969792 192.77711999999997">
</path>
</g>
</g>
<g class="vf-modifiers">
</g>
</g>
<g class="vf-stavenote" id="vf-auto71810">
<g class="vf-note" pointer-events="bounding-box">
<g class="vf-notehead" pointer-events="bounding-box">
<path stroke-width="0.3" fill="#000000" stroke="none" stroke-dasharray="none" d="M313.6032768 197.99999999999997M320.9602368 192.77711999999997C321.07255680000003 192.77711999999997,321.2410368 192.77711999999997,321.2691168 192.77711999999997C321.2691168 192.77711999999997,321.2971968 192.77711999999997,321.2971968 192.77711999999997C321.2971968 192.77711999999997,321.4656768 192.77711999999997,321.6060768 192.77711999999997C324.1332768 192.91751999999997,325.6215168 194.57423999999997,325.6215168 196.65215999999998C325.6215168 197.66303999999997,325.2845568 198.81431999999998,324.4421568 199.90943999999996C322.8415968 202.07159999999996,320.23015680000003 203.25095999999996,317.9556768 203.25095999999996C316.18663680000003 203.25095999999996,314.6703168 202.54895999999997,313.9402368 201.11687999999998C313.7155968 200.55527999999998,313.6032768 200.02175999999997,313.6032768 199.43207999999998C313.6032768 196.37135999999998,317.02903680000003 192.97367999999997,320.9602368 192.77711999999997">
</path>
</g>
</g>
<g class="vf-modifiers">
<g class="vf-stavenote" id="vf-auto71820">
<g class="vf-note" pointer-events="bounding-box">
<g class="vf-stem" pointer-events="bounding-box">
<path stroke-width="1.5" fill="none" stroke="#000000" stroke-dasharray="none" d="M294.9212384 197.99999999999997L294.9212384 174.89999999999998">
</path>
</g>
<g class="vf-notehead" pointer-events="bounding-box">
<path stroke-width="0.3" fill="#000000" stroke="none" stroke-dasharray="none" d="M287.7392 197.99999999999997M292.5947936 194.55289919999998C292.66892479999996 194.55289919999998,292.7801216 194.55289919999998,292.7986544 194.55289919999998C292.7986544 194.55289919999998,292.8171872 194.55289919999998,292.8171872 194.55289919999998C292.8171872 194.55289919999998,292.928384 194.55289919999998,293.021048 194.55289919999998C294.68899999999996 194.64556319999997,295.6712384 195.73899839999996,295.6712384 197.11042559999999C295.6712384 197.77760639999997,295.44884479999996 198.53745119999996,294.8928608 199.26023039999998C293.83649119999995 200.68725599999996,292.1129408 201.46563359999996,290.611784 201.46563359999996C289.4442176 201.46563359999996,288.44344639999997 201.00231359999998,287.96159359999996 200.05714079999998C287.8133312 199.68648479999996,287.7392 199.33436159999997,287.7392 198.94517279999997C287.7392 196.92509759999996,290.00020159999997 194.68262879999997,292.5947936 194.55289919999998">
</path>
</g>
<g class="vf-flag" pointer-events="bounding-box">
<path stroke-width="0.3" fill="#000000" stroke="none" stroke-dasharray="none" d="M294.9212384 172.89999999999998M294.4764512 175.88378079999998L294.4764512 172.992664L294.5505824 172.992664C294.75444319999997 172.992664,294.8841728 173.12239359999998,294.9212384 173.34478719999998C295.3104272 175.19806719999997,296.4779936 177.21814239999998,298.0903472 178.73783199999997C299.8880288 180.42431679999999,300.796136 182.74091679999998,300.796136 185.13164799999998C300.796136 187.39264959999997,299.9992256 189.74631519999997,298.386872 191.69225919999997C298.10888 192.06291519999996,298.0903472 192.06291519999996,297.90501919999997 192.06291519999996C297.6826256 192.06291519999996,297.5343632 191.89611999999997,297.5343632 191.67372639999996C297.5343632 191.50693119999997,297.552896 191.4698656,297.738224 191.2660048C299.1467168 189.56098719999997,299.85096319999997 187.5038464,299.85096319999997 185.5393696C299.85096319999997 183.7972864,299.2949792 182.12933439999998,298.1459456 180.86910399999996C297.4416992 180.09072639999997,296.1444032 179.34941439999997,294.494984 178.77489759999997C294.494984 178.75636479999997,294.4764512 178.18184799999997,294.4764512 175.88378079999998">
</path>
</g>
</g>
<g class="vf-modifiers">
</g>
</g>
<path stroke-width="1" fill="none" stroke="#000000" stroke-dasharray="none" d="M288.7392 189.74999999999997L301.7392 180.74999999999997Z">
</path>
</g>
</g>
<g class="vf-stavenote" id="vf-auto71834">
<g class="vf-note" pointer-events="bounding-box">
<g class="vf-notehead" pointer-events="bounding-box">
<path stroke-width="0.3" fill="#000000" stroke="none" stroke-dasharray="none" d="M348.7024576 197.99999999999997M356.0594176 192.77711999999997C356.17173760000003 192.77711999999997,356.3402176 192.77711999999997,356.3682976 192.77711999999997C356.3682976 192.77711999999997,356.3963776 192.77711999999997,356.3963776 192.77711999999997C356.3963776 192.77711999999997,356.5648576 192.77711999999997,356.7052576 192.77711999999997C359.2324576 192.91751999999997,360.7206976 194.57423999999997,360.7206976 196.65215999999998C360.7206976 197.66303999999997,360.3837376 198.81431999999998,359.5413376 199.90943999999996C357.9407776 202.07159999999996,355.32933760000003 203.25095999999996,353.0548576 203.25095999999996C351.28581760000003 203.25095999999996,349.7694976 202.54895999999997,349.0394176 201.11687999999998C348.8147776 200.55527999999998,348.7024576 200.02175999999997,348.7024576 199.43207999999998C348.7024576 196.37135999999998,352.1282176 192.97367999999997,356.0594176 192.77711999999997">
</path>
</g>
</g>
<g class="vf-modifiers">
</g>
</g>
<g class="vf-stavenote" id="vf-auto71844">
<g class="vf-note" pointer-events="bounding-box">
<g class="vf-notehead" pointer-events="bounding-box">
<path stroke-width="0.3" fill="#000000" stroke="none" stroke-dasharray="none" d="M383.8016384 197.99999999999997M391.1585984 192.77711999999997C391.2709184 192.77711999999997,391.4393984 192.77711999999997,391.4674784 192.77711999999997C391.4674784 192.77711999999997,391.4955584 192.77711999999997,391.4955584 192.77711999999997C391.4955584 192.77711999999997,391.6640384 192.77711999999997,391.8044384 192.77711999999997C394.3316384 192.91751999999997,395.8198784 194.57423999999997,395.8198784 196.65215999999998C395.8198784 197.66303999999997,395.4829184 198.81431999999998,394.6405184 199.90943999999996C393.0399584 202.07159999999996,390.42851840000003 203.25095999999996,388.1540384 203.25095999999996C386.38499840000003 203.25095999999996,384.8686784 202.54895999999997,384.1385984 201.11687999999998C383.9139584 200.55527999999998,383.8016384 200.02175999999997,383.8016384 199.43207999999998C383.8016384 196.37135999999998,387.2273984 192.97367999999997,391.1585984 192.77711999999997">
</path>
</g>
</g>
<g class="vf-modifiers">
</g>
</g>
<g class="vf-stavenote" id="vf-auto71854">
<g class="vf-note" pointer-events="bounding-box">
<g class="vf-notehead" pointer-events="bounding-box">
<path stroke-width="0.3" fill="#000000" stroke="none" stroke-dasharray="none" d="M418.9008192 197.99999999999997M426.2577792 192.77711999999997C426.3700992 192.77711999999997,426.5385792 192.77711999999997,426.5666592 192.77711999999997C426.5666592 192.77711999999997,426.5947392 192.77711999999997,426.5947392 192.77711999999997C426.5947392 192.77711999999997,426.7632192 192.77711999999997,426.9036192 192.77711999999997C429.4308192 192.91751999999997,430.9190592 194.57423999999997,430.9190592 196.65215999999998C430.9190592 197.66303999999997,430.5820992 198.81431999999998,429.7396992 199.90943999999996C428.1391392 202.07159999999996,425.52769920000003 203.25095999999996,423.2532192 203.25095999999996C421.4841792 203.25095999999996,419.9678592 202.54895999999997,419.2377792 201.11687999999998C419.0131392 200.55527999999998,418.9008192 200.02175999999997,418.9008192 199.43207999999998C418.9008192 196.37135999999998,422.3265792 192.97367999999997,426.2577792 192.77711999999997">
</path>
</g>
</g>
<g class="vf-modifiers">
</g>
</g>
<path stroke-width="1.5" fill="none" stroke="#000000" stroke-dasharray="none" d="M158.61071679999998 197.99999999999997L158.61071679999998 163.74999999999997">
</path>
<path stroke-width="1.5" fill="none" stroke="#000000" stroke-dasharray="none" d="M193.70989759999998 197.99999999999997L193.70989759999998 163.74999999999997">
</path>
<path stroke-width="1.5" fill="none" stroke="#000000" stroke-dasharray="none" d="M228.80907839999998 197.99999999999997L228.80907839999998 163.74999999999997">
</path>
<path stroke-width="1.5" fill="none" stroke="#000000" stroke-dasharray="none" d="M263.90825920000003 197.99999999999997L263.90825920000003 163.74999999999997">
</path>
<path stroke-width="0.3" fill="#000000" stroke="none" stroke-dasharray="none" d="M157.86071679999998 162.99999999999997L157.86071679999998 167.99999999999997L264.15825920000003 167.99999999999997L264.15825920000003 162.99999999999997Z">
</path>
<path stroke-width="0.3" fill="#000000" stroke="none" stroke-dasharray="none" d="M157.86071679999998 170.49999999999997L157.86071679999998 175.49999999999997L264.15825920000003 175.49999999999997L264.15825920000003 170.49999999999997Z">
</path>
<path stroke-width="1.5" fill="none" stroke="#000000" stroke-dasharray="none" d="M324.8715168 197.99999999999997L324.8715168 163.74999999999997">
</path>
<path stroke-width="1.5" fill="none" stroke="#000000" stroke-dasharray="none" d="M359.9706976 197.99999999999997L359.9706976 163.74999999999997">
</path>
<path stroke-width="1.5" fill="none" stroke="#000000" stroke-dasharray="none" d="M395.0698784 197.99999999999997L395.0698784 163.74999999999997">
</path>
<path stroke-width="1.5" fill="none" stroke="#000000" stroke-dasharray="none" d="M430.1690592 197.99999999999997L430.1690592 163.74999999999997">
</path>
<path stroke-width="0.3" fill="#000000" stroke="none" stroke-dasharray="none" d="M324.1215168 162.99999999999997L324.1215168 167.99999999999997L430.4190592 167.99999999999997L430.4190592 162.99999999999997Z">
</path>
<path stroke-width="0.3" fill="#000000" stroke="none" stroke-dasharray="none" d="M324.1215168 170.49999999999997L324.1215168 175.49999999999997L430.4190592 175.49999999999997L430.4190592 170.49999999999997Z">
</path>
<path stroke-width="1" fill="none" stroke="black" stroke-dasharray="none" d="M452.66854758399984 197.99999999999997L1157.5837455359997 197.99999999999997">
</path>
<rect stroke-width="0.3" fill="black" stroke="black" stroke-dasharray="none" x="1152.5837455359997" y="177.49999999999997" width="1" height="41">
</rect>
<rect stroke-width="0.3" fill="black" stroke="black" stroke-dasharray="none" x="1155.5837455359997" y="177.49999999999997" width="3" height="41">
</rect>
<path stroke-width="0.3" fill="black" stroke="none" stroke-dasharray="none" d="M1151.5837455359997 193.49999999999997 A2 2 0 0 0 1147.5837455359997 193.49999999999997M1147.5837455359997 193.49999999999997 A2 2 0 0 0 1151.5837455359997 193.49999999999997">
</path>
<path stroke-width="0.3" fill="black" stroke="none" stroke-dasharray="none" d="M1151.5837455359997 203.49999999999997 A2 2 0 0 0 1147.5837455359997 203.49999999999997M1147.5837455359997 203.49999999999997 A2 2 0 0 0 1151.5837455359997 203.49999999999997">
</path>
<path stroke-width="0.3" fill="black" stroke="none" stroke-dasharray="none" d="M457.66854758399984 197.99999999999997M462.6797475839998 179.65439999999998C462.70854758399986 179.62559999999996,463.11174758399983 179.62559999999996,464.35014758399984 179.62559999999996C464.7245475839998 179.62559999999996,465.12774758399985 179.62559999999996,465.64614758399983 179.62559999999996L468.5549475839998 179.62559999999996L468.64134758399985 179.71199999999996C468.78534758399985 179.79839999999996,468.8717475839998 179.94239999999996,468.8717475839998 180.05759999999998C468.8717475839998 180.23039999999997,468.78534758399985 180.34559999999996,468.67014758399984 180.46079999999998C468.64134758399985 180.54719999999998,468.3821475839998 180.77759999999998,468.20934758399983 181.03679999999997L466.68294758399986 182.79359999999997L464.7245475839998 185.01119999999997L463.68774758399985 186.19199999999998L462.13254758399984 187.97759999999997L460.0877475839998 190.31039999999996C459.74214758399984 190.74239999999998,459.36774758399986 191.08799999999997,459.36774758399986 191.08799999999997C459.36774758399986 191.08799999999997,459.36774758399986 191.08799999999997,459.36774758399986 191.08799999999997C459.36774758399986 191.14559999999997,459.6269475839998 191.14559999999997,462.0173475839998 191.14559999999997L464.63814758399985 191.14559999999997L464.63814758399985 189.27359999999996C464.63814758399985 187.37279999999998,464.63814758399985 187.34399999999997,464.66694758399984 187.31519999999998C464.7245475839998 187.22879999999998,464.98374758399984 186.91199999999998,465.9917475839998 185.73119999999997L466.39494758399985 185.29919999999998L466.7981475839998 184.86719999999997L467.40294758399983 184.08959999999996L468.03654758399983 183.42719999999997L468.35334758399983 183.02399999999997C468.46854758399985 182.85119999999998,468.64134758399985 182.82239999999996,468.78534758399985 182.82239999999996C468.95814758399985 182.82239999999996,469.10214758399985 182.90879999999999,469.1885475839998 183.05279999999996C469.21734758399987 183.13919999999996,469.21734758399987 183.19679999999997,469.21734758399987 185.32799999999997C469.21734758399987 185.81759999999997,469.21734758399987 186.42239999999998,469.21734758399987 187.14239999999998L469.21734758399987 191.14559999999997L469.93734758399984 191.14559999999997C470.59974758399983 191.14559999999997,470.6285475839998 191.14559999999997,470.71494758399984 191.17439999999996C470.9453475839998 191.26079999999996,471.06054758399983 191.49119999999996,471.06054758399983 191.75039999999998C471.06054758399983 191.89439999999996,471.03174758399985 192.06719999999999,470.91654758399983 192.18239999999997C470.74374758399983 192.32639999999998,470.71494758399984 192.32639999999998,469.93734758399984 192.32639999999998L469.21734758399987 192.32639999999998L469.21734758399987 192.81599999999997C469.24614758399986 194.28479999999996,469.5341475839998 194.86079999999998,470.65734758399987 195.46559999999997C471.06054758399983 195.66719999999998,471.14694758399986 195.72479999999996,471.14694758399986 196.01279999999997C471.14694758399986 196.21439999999998,471.0893475839998 196.30079999999998,470.9453475839998 196.41599999999997L470.85894758399985 196.44479999999996L466.91334758399984 196.44479999999996L462.9965475839998 196.44479999999996L462.91014758399984 196.41599999999997C462.73734758399985 196.30079999999998,462.70854758399986 196.21439999999998,462.70854758399986 196.01279999999997C462.70854758399986 195.72479999999996,462.73734758399985 195.66719999999998,463.16934758399987 195.46559999999997C464.29254758399986 194.86079999999998,464.5805475839998 194.28479999999996,464.5805475839998 192.81599999999997L464.5805475839998 192.32639999999998L461.26854758399986 192.32639999999998C460.66374758399985 192.38399999999996,460.17414758399985 192.38399999999996,459.7709475839998 192.38399999999996C457.95654758399985 192.38399999999996,457.92774758399986 192.32639999999998,457.8989475839998 192.32639999999998C457.7261475839998 192.26879999999997,457.66854758399984 192.09599999999998,457.66854758399984 191.89439999999996C457.66854758399984 191.89439999999996,457.66854758399984 191.89439999999996,457.66854758399984 191.89439999999996C457.66854758399984 191.69279999999998,457.66854758399984 191.69279999999998,458.24454758399986 191.0304C460.66374758399985 188.09279999999998,462.3629475839998 183.83039999999997,462.3629475839998 180.43199999999996C462.3629475839998 179.91359999999997,462.44934758399984 179.74079999999998,462.6797475839998 179.65439999999998M464.4077475839998 198.02879999999996L464.4365475839998 198.02879999999996L464.35014758399984 198.02879999999996L464.4077475839998 198.02879999999996M464.4077475839998 178.61759999999998L464.4365475839998 178.61759999999998L464.35014758399984 178.61759999999998L464.4077475839998 178.61759999999998">
</path>
<path stroke-width="0.3" fill="black" stroke="none" stroke-dasharray="none" d="M457.66854758399984 217.99999999999997M462.6797475839998 199.65439999999998C462.70854758399986 199.62559999999996,463.11174758399983 199.62559999999996,464.35014758399984 199.62559999999996C464.7245475839998 199.62559999999996,465.12774758399985 199.62559999999996,465.64614758399983 199.62559999999996L468.5549475839998 199.62559999999996L468.64134758399985 199.71199999999996C468.78534758399985 199.79839999999996,468.8717475839998 199.94239999999996,468.8717475839998 200.05759999999998C468.8717475839998 200.23039999999997,468.78534758399985 200.34559999999996,468.67014758399984 200.46079999999998C468.64134758399985 200.54719999999998,468.3821475839998 200.77759999999998,468.20934758399983 201.03679999999997L466.68294758399986 202.79359999999997L464.7245475839998 205.01119999999997L463.68774758399985 206.19199999999998L462.13254758399984 207.97759999999997L460.0877475839998 210.31039999999996C459.74214758399984 210.74239999999998,459.36774758399986 211.08799999999997,459.36774758399986 211.08799999999997C459.36774758399986 211.08799999999997,459.36774758399986 211.08799999999997,459.36774758399986 211.08799999999997C459.36774758399986 211.14559999999997,459.6269475839998 211.14559999999997,462.0173475839998 211.14559999999997L464.63814758399985 211.14559999999997L464.63814758399985 209.27359999999996C464.63814758399985 207.37279999999998,464.63814758399985 207.34399999999997,464.66694758399984 207.31519999999998C464.7245475839998 207.22879999999998,464.98374758399984 206.91199999999998,465.9917475839998 205.73119999999997L466.39494758399985 205.29919999999998L466.7981475839998 204.86719999999997L467.40294758399983 204.08959999999996L468.03654758399983 203.42719999999997L468.35334758399983 203.02399999999997C468.46854758399985 202.85119999999998,468.64134758399985 202.82239999999996,468.78534758399985 202.82239999999996C468.95814758399985 202.82239999999996,469.10214758399985 202.90879999999999,469.1885475839998 203.05279999999996C469.21734758399987 203.13919999999996,469.21734758399987 203.19679999999997,469.21734758399987 205.32799999999997C469.21734758399987 205.81759999999997,469.21734758399987 206.42239999999998,469.21734758399987 207.14239999999998L469.21734758399987 211.14559999999997L469.93734758399984 211.14559999999997C470.59974758399983 211.14559999999997,470.6285475839998 211.14559999999997,470.71494758399984 211.17439999999996C470.9453475839998 211.26079999999996,471.06054758399983 211.49119999999996,471.06054758399983 211.75039999999998C471.06054758399983 211.89439999999996,471.03174758399985 212.06719999999999,470.91654758399983 212.18239999999997C470.74374758399983 212.32639999999998,470.71494758399984 212.32639999999998,469.93734758399984 212.32639999999998L469.21734758399987 212.32639999999998L469.21734758399987 212.81599999999997C469.24614758399986 214.28479999999996,469.5341475839998 214.86079999999998,470.65734758399987 215.46559999999997C471.06054758399983 215.66719999999998,471.14694758399986 215.72479999999996,471.14694758399986 216.01279999999997C471.14694758399986 216.21439999999998,471.0893475839998 216.30079999999998,470.9453475839998 216.41599999999997L470.85894758399985 216.44479999999996L466.91334758399984 216.44479999999996L462.9965475839998 216.44479999999996L462.91014758399984 216.41599999999997C462.73734758399985 216.30079999999998,462.70854758399986 216.21439999999998,462.70854758399986 216.01279999999997C462.70854758399986 215.72479999999996,462.73734758399985 215.66719999999998,463.16934758399987 215.46559999999997C464.29254758399986 214.86079999999998,464.5805475839998 214.28479999999996,464.5805475839998 212.81599999999997L464.5805475839998 212.32639999999998L461.26854758399986 212.32639999999998C460.66374758399985 212.38399999999996,460.17414758399985 212.38399999999996,459.7709475839998 212.38399999999996C457.95654758399985 212.38399999999996,457.92774758399986 212.32639999999998,457.8989475839998 212.32639999999998C457.7261475839998 212.26879999999997,457.66854758399984 212.09599999999998,457.66854758399984 211.89439999999996C457.66854758399984 211.89439999999996,457.66854758399984 211.89439999999996,457.66854758399984 211.89439999999996C457.66854758399984 211.69279999999998,457.66854758399984 211.69279999999998,458.24454758399986 211.0304C460.66374758399985 208.09279999999998,462.3629475839998 203.83039999999997,462.3629475839998 200.43199999999996C462.3629475839998 199.91359999999997,462.44934758399984 199.74079999999998,462.6797475839998 199.65439999999998M464.4077475839998 218.02879999999996L464.4365475839998 218.02879999999996L464.35014758399984 218.02879999999996L464.4077475839998 218.02879999999996M464.4077475839998 198.61759999999998L464.4365475839998 198.61759999999998L464.35014758399984 198.61759999999998L464.4077475839998 198.61759999999998">
</path>
<g class="vf-stavenote" id="vf-auto71867">
<g class="vf-note" pointer-events="bounding-box">
<g class="vf-notehead" pointer-events="bounding-box">
<path stroke-width="0.3" fill="#000000" stroke="none" stroke-dasharray="none" d="M509.0110243839999 197.99999999999997M516.3679843839999 192.77711999999997C516.4803043839999 192.77711999999997,516.6487843839999 192.77711999999997,516.6768643839998 192.77711999999997C516.6768643839998 192.77711999999997,516.7049443839999 192.77711999999997,516.7049443839999 192.77711999999997C516.7049443839999 192.77711999999997,516.8734243839999 192.77711999999997,517.0138243839999 192.77711999999997C519.5410243839999 192.91751999999997,521.0292643839999 194.57423999999997,521.0292643839999 196.65215999999998C521.0292643839999 197.66303999999997,520.6923043839998 198.81431999999998,519.8499043839998 199.90943999999996C518.2493443839999 202.07159999999996,515.6379043839999 203.25095999999996,513.3634243839999 203.25095999999996C511.5943843839999 203.25095999999996,510.0780643839999 202.54895999999997,509.34798438399986 201.11687999999998C509.1233443839999 200.55527999999998,509.0110243839999 200.02175999999997,509.0110243839999 199.43207999999998C509.0110243839999 196.37135999999998,512.4367843839999 192.97367999999997,516.3679843839999 192.77711999999997">
</path>
</g>
</g>
<g class="vf-modifiers">
<g class="vf-stavenote" id="vf-auto71877">
<g class="vf-note" pointer-events="bounding-box">
<g class="vf-stem" pointer-events="bounding-box">
<path stroke-width="1.5" fill="none" stroke="#000000" stroke-dasharray="none" d="M490.32898598399987 197.99999999999997L490.32898598399987 174.89999999999998">
</path>
</g>
<g class="vf-notehead" pointer-events="bounding-box">
<path stroke-width="0.3" fill="#000000" stroke="none" stroke-dasharray="none" d="M483.14694758399986 197.99999999999997M488.0025411839999 194.55289919999998C488.07667238399983 194.55289919999998,488.18786918399985 194.55289919999998,488.20640198399985 194.55289919999998C488.20640198399985 194.55289919999998,488.22493478399986 194.55289919999998,488.22493478399986 194.55289919999998C488.22493478399986 194.55289919999998,488.3361315839999 194.55289919999998,488.4287955839999 194.55289919999998C490.09674758399984 194.64556319999997,491.07898598399987 195.73899839999996,491.07898598399987 197.11042559999999C491.07898598399987 197.77760639999997,490.85659238399984 198.53745119999996,490.3006083839999 199.26023039999998C489.2442387839999 200.68725599999996,487.52068838399987 201.46563359999996,486.0195315839999 201.46563359999996C484.8519651839999 201.46563359999996,483.85119398399985 201.00231359999998,483.36934118399984 200.05714079999998C483.22107878399987 199.68648479999996,483.14694758399986 199.33436159999997,483.14694758399986 198.94517279999997C483.14694758399986 196.92509759999996,485.40794918399985 194.68262879999997,488.0025411839999 194.55289919999998">
</path>
</g>
<g class="vf-flag" pointer-events="bounding-box">
<path stroke-width="0.3" fill="#000000" stroke="none" stroke-dasharray="none" d="M490.32898598399987 172.89999999999998M489.88419878399986 175.88378079999998L489.88419878399986 172.992664L489.9583299839999 172.992664C490.16219078399985 172.992664,490.29192038399987 173.12239359999998,490.32898598399987 173.34478719999998C490.71817478399987 175.19806719999997,491.88574118399987 177.21814239999998,493.4980947839999 178.73783199999997C495.29577638399985 180.42431679999999,496.20388358399987 182.74091679999998,496.20388358399987 185.13164799999998C496.20388358399987 187.39264959999997,495.40697318399987 189.74631519999997,493.79461958399986 191.69225919999997C493.5166275839999 192.06291519999996,493.4980947839999 192.06291519999996,493.31276678399985 192.06291519999996C493.0903731839999 192.06291519999996,492.94211078399985 191.89611999999997,492.94211078399985 191.67372639999996C492.94211078399985 191.50693119999997,492.96064358399985 191.4698656,493.1459715839999 191.2660048C494.55446438399986 189.56098719999997,495.25871078399985 187.5038464,495.25871078399985 185.5393696C495.25871078399985 183.7972864,494.7027267839999 182.12933439999998,493.5536931839999 180.86910399999996C492.8494467839999 180.09072639999997,491.5521507839999 179.34941439999997,489.90273158399987 178.77489759999997C489.90273158399987 178.75636479999997,489.88419878399986 178.18184799999997,489.88419878399986 175.88378079999998">
</path>
</g>
</g>
<g class="vf-modifiers">
</g>
</g>
<path stroke-width="1" fill="none" stroke="#000000" stroke-dasharray="none" d="M484.14694758399986 189.74999999999997L497.14694758399986 180.74999999999997Z">
</path>
</g>
</g>
<g class="vf-stavenote" id="vf-auto71891">
<g class="vf-note" pointer-events="bounding-box">
<g class="vf-notehead" pointer-events="bounding-box">
<path stroke-width="0.3" fill="#000000" stroke="none" stroke-dasharray="none" d="M541.5320955839999 197.99999999999997M548.8890555839998 192.77711999999997C549.0013755839999 192.77711999999997,549.1698555839998 192.77711999999997,549.1979355839999 192.77711999999997C549.1979355839999 192.77711999999997,549.2260155839999 192.77711999999997,549.2260155839999 192.77711999999997C549.2260155839999 192.77711999999997,549.3944955839999 192.77711999999997,549.5348955839999 192.77711999999997C552.0620955839998 192.91751999999997,553.5503355839999 194.57423999999997,553.5503355839999 196.65215999999998C553.5503355839999 197.66303999999997,553.2133755839999 198.81431999999998,552.3709755839999 199.90943999999996C550.7704155839999 202.07159999999996,548.1589755839999 203.25095999999996,545.8844955839999 203.25095999999996C544.1154555839998 203.25095999999996,542.5991355839999 202.54895999999997,541.8690555839999 201.11687999999998C541.6444155839998 200.55527999999998,541.5320955839999 200.02175999999997,541.5320955839999 199.43207999999998C541.5320955839999 196.37135999999998,544.9578555839998 192.97367999999997,548.8890555839998 192.77711999999997">
</path>
</g>
</g>
<g class="vf-modifiers">
</g>
</g>
<g class="vf-stavenote" id="vf-auto71901">
<g class="vf-note" pointer-events="bounding-box">
<g class="vf-notehead" pointer-events="bounding-box">
<path stroke-width="0.3" fill="#000000" stroke="none" stroke-dasharray="none" d="M574.0531667839998 197.99999999999997M581.4101267839998 192.77711999999997C581.5224467839998 192.77711999999997,581.6909267839998 192.77711999999997,581.7190067839998 192.77711999999997C581.7190067839998 192.77711999999997,581.7470867839999 192.77711999999997,581.7470867839999 192.77711999999997C581.7470867839999 192.77711999999997,581.9155667839998 192.77711999999997,582.0559667839998 192.77711999999997C584.5831667839998 192.91751999999997,586.0714067839998 194.57423999999997,586.0714067839998 196.65215999999998C586.0714067839998 197.66303999999997,585.7344467839998 198.81431999999998,584.8920467839998 199.90943999999996C583.2914867839999 202.07159999999996,580.6800467839998 203.25095999999996,578.4055667839998 203.25095999999996C576.6365267839998 203.25095999999996,575.1202067839998 202.54895999999997,574.3901267839998 201.11687999999998C574.1654867839998 200.55527999999998,574.0531667839998 200.02175999999997,574.0531667839998 199.43207999999998C574.0531667839998 196.37135999999998,577.4789267839998 192.97367999999997,581.4101267839998 192.77711999999997">
</path>
</g>
</g>
<g class="vf-modifiers">
</g>
</g>
<g class="vf-stavenote" id="vf-auto71911">
<g class="vf-note" pointer-events="bounding-box">
<g class="vf-notehead" pointer-events="bounding-box">
<path stroke-width="0.3" fill="#000000" stroke="none" stroke-dasharray="none" d="M606.5742379839999 197.99999999999997M613.9311979839998 192.77711999999997C614.0435179839999 192.77711999999997,614.2119979839998 192.77711999999997,614.2400779839999 192.77711999999997C614.2400779839999 192.77711999999997,614.2681579839999 192.77711999999997,614.2681579839999 192.77711999999997C614.2681579839999 192.77711999999997,614.4366379839998 192.77711999999997,614.5770379839998 192.77711999999997C617.1042379839998 192.91751999999997,618.5924779839999 194.57423999999997,618.5924779839999 196.65215999999998C618.5924779839999 197.66303999999997,618.2555179839999 198.81431999999998,617.4131179839999 199.90943999999996C615.8125579839999 202.07159999999996,613.2011179839999 203.25095999999996,610.9266379839999 203.25095999999996C609.1575979839998 203.25095999999996,607.6412779839999 202.54895999999997,606.9111979839998 201.11687999999998C606.6865579839998 200.55527999999998,606.5742379839999 200.02175999999997,606.5742379839999 199.43207999999998C606.5742379839999 196.37135999999998,609.9999979839998 192.97367999999997,613.9311979839998 192.77711999999997">
</path>
</g>
</g>
<g class="vf-modifiers">
</g>
</g>
<g class="vf-stavenote" id="vf-auto71921">
<g class="vf-note" pointer-events="bounding-box">
<g class="vf-notehead" pointer-events="bounding-box">
<path stroke-width="0.3" fill="#000000" stroke="none" stroke-dasharray="none" d="M664.9593859839999 197.99999999999997M672.3163459839999 192.77711999999997C672.428665984 192.77711999999997,672.5971459839999 192.77711999999997,672.6252259839999 192.77711999999997C672.6252259839999 192.77711999999997,672.653305984 192.77711999999997,672.653305984 192.77711999999997C672.653305984 192.77711999999997,672.8217859839999 192.77711999999997,672.9621859839999 192.77711999999997C675.4893859839999 192.91751999999997,676.9776259839999 194.57423999999997,676.9776259839999 196.65215999999998C676.9776259839999 197.66303999999997,676.640665984 198.81431999999998,675.798265984 199.90943999999996C674.197705984 202.07159999999996,671.586265984 203.25095999999996,669.3117859839999 203.25095999999996C667.5427459839999 203.25095999999996,666.026425984 202.54895999999997,665.2963459839999 201.11687999999998C665.0717059839999 200.55527999999998,664.9593859839999 200.02175999999997,664.9593859839999 199.43207999999998C664.9593859839999 196.37135999999998,668.3851459839999 192.97367999999997,672.3163459839999 192.77711999999997">
</path>
</g>
</g>
<g class="vf-modifiers">
<g class="vf-stavenote" id="vf-auto71931">
<g class="vf-note" pointer-events="bounding-box">
<g class="vf-stem" pointer-events="bounding-box">
<path stroke-width="1.5" fill="none" stroke="#000000" stroke-dasharray="none" d="M646.2773475839999 197.99999999999997L646.2773475839999 174.89999999999998">
</path>
</g>
<g class="vf-notehead" pointer-events="bounding-box">
<path stroke-width="0.3" fill="#000000" stroke="none" stroke-dasharray="none" d="M639.0953091839999 197.99999999999997M643.9509027839999 194.55289919999998C644.025033984 194.55289919999998,644.136230784 194.55289919999998,644.154763584 194.55289919999998C644.154763584 194.55289919999998,644.173296384 194.55289919999998,644.173296384 194.55289919999998C644.173296384 194.55289919999998,644.2844931839999 194.55289919999998,644.3771571839999 194.55289919999998C646.0451091839999 194.64556319999997,647.0273475839999 195.73899839999996,647.0273475839999 197.11042559999999C647.0273475839999 197.77760639999997,646.8049539839999 198.53745119999996,646.2489699839999 199.26023039999998C645.1926003839999 200.68725599999996,643.4690499839999 201.46563359999996,641.9678931839999 201.46563359999996C640.8003267839999 201.46563359999996,639.7995555839999 201.00231359999998,639.317702784 200.05714079999998C639.1694403839999 199.68648479999996,639.0953091839999 199.33436159999997,639.0953091839999 198.94517279999997C639.0953091839999 196.92509759999996,641.3563107839999 194.68262879999997,643.9509027839999 194.55289919999998">
</path>
</g>
<g class="vf-flag" pointer-events="bounding-box">
<path stroke-width="0.3" fill="#000000" stroke="none" stroke-dasharray="none" d="M646.2773475839999 172.89999999999998M645.832560384 175.88378079999998L645.832560384 172.992664L645.9066915839999 172.992664C646.1105523839999 172.992664,646.2402819839999 173.12239359999998,646.2773475839999 173.34478719999998C646.666536384 175.19806719999997,647.8341027839999 177.21814239999998,649.4464563839999 178.73783199999997C651.244137984 180.42431679999999,652.152245184 182.74091679999998,652.152245184 185.13164799999998C652.152245184 187.39264959999997,651.355334784 189.74631519999997,649.742981184 191.69225919999997C649.4649891839999 192.06291519999996,649.4464563839999 192.06291519999996,649.2611283839999 192.06291519999996C649.0387347839999 192.06291519999996,648.890472384 191.89611999999997,648.890472384 191.67372639999996C648.890472384 191.50693119999997,648.909005184 191.4698656,649.0943331839999 191.2660048C650.502825984 189.56098719999997,651.207072384 187.5038464,651.207072384 185.5393696C651.207072384 183.7972864,650.6510883839999 182.12933439999998,649.5020547839999 180.86910399999996C648.797808384 180.09072639999997,647.5005123839999 179.34941439999997,645.851093184 178.77489759999997C645.851093184 178.75636479999997,645.832560384 178.18184799999997,645.832560384 175.88378079999998">
</path>
</g>
</g>
<g class="vf-modifiers">
</g>
</g>
<path stroke-width="1" fill="none" stroke="#000000" stroke-dasharray="none" d="M640.0953091839999 189.74999999999997L653.0953091839999 180.74999999999997Z">
</path>
</g>
</g>
<g class="vf-stavenote" id="vf-auto71945">
<g class="vf-note" pointer-events="bounding-box">
<g class="vf-notehead" pointer-events="bounding-box">
<path stroke-width="0.3" fill="#000000" stroke="none" stroke-dasharray="none" d="M697.4804571839999 197.99999999999997M704.8374171839998 192.77711999999997C704.9497371839999 192.77711999999997,705.1182171839998 192.77711999999997,705.1462971839999 192.77711999999997C705.1462971839999 192.77711999999997,705.1743771839999 192.77711999999997,705.1743771839999 192.77711999999997C705.1743771839999 192.77711999999997,705.3428571839999 192.77711999999997,705.4832571839999 192.77711999999997C708.0104571839998 192.91751999999997,709.4986971839999 194.57423999999997,709.4986971839999 196.65215999999998C709.4986971839999 197.66303999999997,709.1617371839999 198.81431999999998,708.3193371839999 199.90943999999996C706.7187771839999 202.07159999999996,704.1073371839999 203.25095999999996,701.8328571839999 203.25095999999996C700.0638171839998 203.25095999999996,698.5474971839999 202.54895999999997,697.8174171839999 201.11687999999998C697.5927771839998 200.55527999999998,697.4804571839999 200.02175999999997,697.4804571839999 199.43207999999998C697.4804571839999 196.37135999999998,700.9062171839998 192.97367999999997,704.8374171839998 192.77711999999997">
</path>
</g>
</g>
<g class="vf-modifiers">
</g>
</g>
<g class="vf-stavenote" id="vf-auto71955">
<g class="vf-note" pointer-events="bounding-box">
<g class="vf-notehead" pointer-events="bounding-box">
<path stroke-width="0.3" fill="#000000" stroke="none" stroke-dasharray="none" d="M730.0015283839998 197.99999999999997M737.3584883839998 192.77711999999997C737.4708083839998 192.77711999999997,737.6392883839998 192.77711999999997,737.6673683839998 192.77711999999997C737.6673683839998 192.77711999999997,737.6954483839999 192.77711999999997,737.6954483839999 192.77711999999997C737.6954483839999 192.77711999999997,737.8639283839998 192.77711999999997,738.0043283839998 192.77711999999997C740.5315283839998 192.91751999999997,742.0197683839998 194.57423999999997,742.0197683839998 196.65215999999998C742.0197683839998 197.66303999999997,741.6828083839998 198.81431999999998,740.8404083839998 199.90943999999996C739.2398483839999 202.07159999999996,736.6284083839998 203.25095999999996,734.3539283839998 203.25095999999996C732.5848883839998 203.25095999999996,731.0685683839998 202.54895999999997,730.3384883839998 201.11687999999998C730.1138483839998 200.55527999999998,730.0015283839998 200.02175999999997,730.0015283839998 199.43207999999998C730.0015283839998 196.37135999999998,733.4272883839998 192.97367999999997,737.3584883839998 192.77711999999997">
</path>
</g>
</g>
<g class="vf-modifiers">
</g>
</g>
<g class="vf-stavenote" id="vf-auto71965">
<g class="vf-note" pointer-events="bounding-box">
<g class="vf-notehead" pointer-events="bounding-box">
<path stroke-width="0.3" fill="#000000" stroke="none" stroke-dasharray="none" d="M762.5225995839999 197.99999999999997M769.8795595839998 192.77711999999997C769.9918795839999 192.77711999999997,770.1603595839998 192.77711999999997,770.1884395839999 192.77711999999997C770.1884395839999 192.77711999999997,770.2165195839999 192.77711999999997,770.2165195839999 192.77711999999997C770.2165195839999 192.77711999999997,770.3849995839998 192.77711999999997,770.5253995839998 192.77711999999997C773.0525995839998 192.91751999999997,774.5408395839999 194.57423999999997,774.5408395839999 196.65215999999998C774.5408395839999 197.66303999999997,774.2038795839999 198.81431999999998,773.3614795839999 199.90943999999996C771.7609195839999 202.07159999999996,769.1494795839999 203.25095999999996,766.8749995839999 203.25095999999996C765.1059595839998 203.25095999999996,763.5896395839999 202.54895999999997,762.8595595839998 201.11687999999998C762.6349195839998 200.55527999999998,762.5225995839999 200.02175999999997,762.5225995839999 199.43207999999998C762.5225995839999 196.37135999999998,765.9483595839998 192.97367999999997,769.8795595839998 192.77711999999997">
</path>
</g>
</g>
<g class="vf-modifiers">
</g>
</g>
<g class="vf-stavenote" id="vf-auto71975">
<g class="vf-note" pointer-events="bounding-box">
<g class="vf-notehead" pointer-events="bounding-box">
<path stroke-width="0.3" fill="#000000" stroke="none" stroke-dasharray="none" d="M820.9077475839998 197.99999999999997M828.2647075839998 192.77711999999997C828.3770275839998 192.77711999999997,828.5455075839998 192.77711999999997,828.5735875839998 192.77711999999997C828.5735875839998 192.77711999999997,828.6016675839999 192.77711999999997,828.6016675839999 192.77711999999997C828.6016675839999 192.77711999999997,828.7701475839998 192.77711999999997,828.9105475839998 192.77711999999997C831.4377475839998 192.91751999999997,832.9259875839998 194.57423999999997,832.9259875839998 196.65215999999998C832.9259875839998 197.66303999999997,832.5890275839998 198.81431999999998,831.7466275839998 199.90943999999996C830.1460675839999 202.07159999999996,827.5346275839998 203.25095999999996,825.2601475839998 203.25095999999996C823.4911075839998 203.25095999999996,821.9747875839998 202.54895999999997,821.2447075839998 201.11687999999998C821.0200675839998 200.55527999999998,820.9077475839998 200.02175999999997,820.9077475839998 199.43207999999998C820.9077475839998 196.37135999999998,824.3335075839998 192.97367999999997,828.2647075839998 192.77711999999997">
</path>
</g>
</g>
<g class="vf-modifiers">
<g class="vf-stavenote" id="vf-auto71985">
<g class="vf-note" pointer-events="bounding-box">
<g class="vf-stem" pointer-events="bounding-box">
<path stroke-width="1.5" fill="none" stroke="#000000" stroke-dasharray="none" d="M802.2257091839998 197.99999999999997L802.2257091839998 174.89999999999998">
</path>
</g>
<g class="vf-notehead" pointer-events="bounding-box">
<path stroke-width="0.3" fill="#000000" stroke="none" stroke-dasharray="none" d="M795.0436707839998 197.99999999999997M799.8992643839998 194.55289919999998C799.9733955839998 194.55289919999998,800.0845923839998 194.55289919999998,800.1031251839999 194.55289919999998C800.1031251839999 194.55289919999998,800.1216579839999 194.55289919999998,800.1216579839999 194.55289919999998C800.1216579839999 194.55289919999998,800.2328547839998 194.55289919999998,800.3255187839998 194.55289919999998C801.9934707839998 194.64556319999997,802.9757091839998 195.73899839999996,802.9757091839998 197.11042559999999C802.9757091839998 197.77760639999997,802.7533155839998 198.53745119999996,802.1973315839998 199.26023039999998C801.1409619839998 200.68725599999996,799.4174115839998 201.46563359999996,797.9162547839998 201.46563359999996C796.7486883839998 201.46563359999996,795.7479171839998 201.00231359999998,795.2660643839998 200.05714079999998C795.1178019839998 199.68648479999996,795.0436707839998 199.33436159999997,795.0436707839998 198.94517279999997C795.0436707839998 196.92509759999996,797.3046723839998 194.68262879999997,799.8992643839998 194.55289919999998">
</path>
</g>
<g class="vf-flag" pointer-events="bounding-box">
<path stroke-width="0.3" fill="#000000" stroke="none" stroke-dasharray="none" d="M802.2257091839998 172.89999999999998M801.7809219839999 175.88378079999998L801.7809219839999 172.992664L801.8550531839998 172.992664C802.0589139839998 172.992664,802.1886435839998 173.12239359999998,802.2257091839998 173.34478719999998C802.6148979839999 175.19806719999997,803.7824643839998 177.21814239999998,805.3948179839998 178.73783199999997C807.1924995839998 180.42431679999999,808.1006067839999 182.74091679999998,808.1006067839999 185.13164799999998C808.1006067839999 187.39264959999997,807.3036963839999 189.74631519999997,805.6913427839999 191.69225919999997C805.4133507839998 192.06291519999996,805.3948179839998 192.06291519999996,805.2094899839998 192.06291519999996C804.9870963839998 192.06291519999996,804.8388339839998 191.89611999999997,804.8388339839998 191.67372639999996C804.8388339839998 191.50693119999997,804.8573667839999 191.4698656,805.0426947839998 191.2660048C806.4511875839999 189.56098719999997,807.1554339839998 187.5038464,807.1554339839998 185.5393696C807.1554339839998 183.7972864,806.5994499839998 182.12933439999998,805.4504163839998 180.86910399999996C804.7461699839998 180.09072639999997,803.4488739839998 179.34941439999997,801.7994547839999 178.77489759999997C801.7994547839999 178.75636479999997,801.7809219839999 178.18184799999997,801.7809219839999 175.88378079999998">
</path>
</g>
</g>
<g class="vf-modifiers">
</g>
</g>
<path stroke-width="1" fill="none" stroke="#000000" stroke-dasharray="none" d="M796.0436707839998 189.74999999999997L809.0436707839998 180.74999999999997Z">
</path>
</g>
</g>
<g class="vf-stavenote" id="vf-auto71999">
<g class="vf-note" pointer-events="bounding-box">
<g class="vf-notehead" pointer-events="bounding-box">
<path stroke-width="0.3" fill="#000000" stroke="none" stroke-dasharray="none" d="M853.4288187839998 197.99999999999997M860.7857787839997 192.77711999999997C860.8980987839998 192.77711999999997,861.0665787839997 192.77711999999997,861.0946587839998 192.77711999999997C861.0946587839998 192.77711999999997,861.1227387839998 192.77711999999997,861.1227387839998 192.77711999999997C861.1227387839998 192.77711999999997,861.2912187839997 192.77711999999997,861.4316187839997 192.77711999999997C863.9588187839997 192.91751999999997,865.4470587839998 194.57423999999997,865.4470587839998 196.65215999999998C865.4470587839998 197.66303999999997,865.1100987839998 198.81431999999998,864.2676987839998 199.90943999999996C862.6671387839998 202.07159999999996,860.0556987839998 203.25095999999996,857.7812187839997 203.25095999999996C856.0121787839997 203.25095999999996,854.4958587839998 202.54895999999997,853.7657787839997 201.11687999999998C853.5411387839997 200.55527999999998,853.4288187839998 200.02175999999997,853.4288187839998 199.43207999999998C853.4288187839998 196.37135999999998,856.8545787839997 192.97367999999997,860.7857787839997 192.77711999999997">
</path>
</g>
</g>
<g class="vf-modifiers">
</g>
</g>
<g class="vf-stavenote" id="vf-auto72009">
<g class="vf-note" pointer-events="bounding-box">
<g class="vf-notehead" pointer-events="bounding-box">
<path stroke-width="0.3" fill="#000000" stroke="none" stroke-dasharray="none" d="M911.8139667839998 197.99999999999997M919.1709267839998 192.77711999999997C919.2832467839999 192.77711999999997,919.4517267839998 192.77711999999997,919.4798067839998 192.77711999999997C919.4798067839998 192.77711999999997,919.5078867839999 192.77711999999997,919.5078867839999 192.77711999999997C919.5078867839999 192.77711999999997,919.6763667839998 192.77711999999997,919.8167667839998 192.77711999999997C922.3439667839998 192.91751999999997,923.8322067839998 194.57423999999997,923.8322067839998 196.65215999999998C923.8322067839998 197.66303999999997,923.4952467839998 198.81431999999998,922.6528467839998 199.90943999999996C921.0522867839999 202.07159999999996,918.4408467839999 203.25095999999996,916.1663667839998 203.25095999999996C914.3973267839998 203.25095999999996,912.8810067839999 202.54895999999997,912.1509267839998 201.11687999999998C911.9262867839998 200.55527999999998,911.8139667839998 200.02175999999997,911.8139667839998 199.43207999999998C911.8139667839998 196.37135999999998,915.2397267839998 192.97367999999997,919.1709267839998 192.77711999999997">
</path>
</g>
</g>
<g class="vf-modifiers">
<g class="vf-stavenote" id="vf-auto72019">
<g class="vf-note" pointer-events="bounding-box">
<g class="vf-stem" pointer-events="bounding-box">
<path stroke-width="1.5" fill="none" stroke="#000000" stroke-dasharray="none" d="M893.1319283839998 197.99999999999997L893.1319283839998 174.89999999999998">
</path>
</g>
<g class="vf-notehead" pointer-events="bounding-box">
<path stroke-width="0.3" fill="#000000" stroke="none" stroke-dasharray="none" d="M885.9498899839998 197.99999999999997M890.8054835839998 194.55289919999998C890.8796147839998 194.55289919999998,890.9908115839999 194.55289919999998,891.0093443839999 194.55289919999998C891.0093443839999 194.55289919999998,891.0278771839999 194.55289919999998,891.0278771839999 194.55289919999998C891.0278771839999 194.55289919999998,891.1390739839998 194.55289919999998,891.2317379839998 194.55289919999998C892.8996899839998 194.64556319999997,893.8819283839998 195.73899839999996,893.8819283839998 197.11042559999999C893.8819283839998 197.77760639999997,893.6595347839998 198.53745119999996,893.1035507839998 199.26023039999998C892.0471811839998 200.68725599999996,890.3236307839998 201.46563359999996,888.8224739839998 201.46563359999996C887.6549075839998 201.46563359999996,886.6541363839998 201.00231359999998,886.1722835839998 200.05714079999998C886.0240211839998 199.68648479999996,885.9498899839998 199.33436159999997,885.9498899839998 198.94517279999997C885.9498899839998 196.92509759999996,888.2108915839998 194.68262879999997,890.8054835839998 194.55289919999998">
</path>
</g>
<g class="vf-flag" pointer-events="bounding-box">
<path stroke-width="0.3" fill="#000000" stroke="none" stroke-dasharray="none" d="M893.1319283839998 172.89999999999998M892.6871411839999 175.88378079999998L892.6871411839999 172.992664L892.7612723839998 172.992664C892.9651331839998 172.992664,893.0948627839998 173.12239359999998,893.1319283839998 173.34478719999998C893.5211171839999 175.19806719999997,894.6886835839998 177.21814239999998,896.3010371839998 178.73783199999997C898.0987187839999 180.42431679999999,899.0068259839999 182.74091679999998,899.0068259839999 185.13164799999998C899.0068259839999 187.39264959999997,898.2099155839999 189.74631519999997,896.5975619839999 191.69225919999997C896.3195699839998 192.06291519999996,896.3010371839998 192.06291519999996,896.1157091839998 192.06291519999996C895.8933155839998 192.06291519999996,895.7450531839999 191.89611999999997,895.7450531839999 191.67372639999996C895.7450531839999 191.50693119999997,895.7635859839999 191.4698656,895.9489139839998 191.2660048C897.3574067839999 189.56098719999997,898.0616531839999 187.5038464,898.0616531839999 185.5393696C898.0616531839999 183.7972864,897.5056691839998 182.12933439999998,896.3566355839998 180.86910399999996C895.6523891839998 180.09072639999997,894.3550931839998 179.34941439999997,892.7056739839999 178.77489759999997C892.7056739839999 178.75636479999997,892.6871411839999 178.18184799999997,892.6871411839999 175.88378079999998">
</path>
</g>
</g>
<g class="vf-modifiers">
</g>
</g>
<path stroke-width="1" fill="none" stroke="#000000" stroke-dasharray="none" d="M886.9498899839998 189.74999999999997L899.9498899839998 180.74999999999997Z">
</path>
</g>
</g>
<g class="vf-stavenote" id="vf-auto72033">
<g class="vf-note" pointer-events="bounding-box">
<g class="vf-notehead" pointer-events="bounding-box">
<path stroke-width="0.3" fill="#000000" stroke="none" stroke-dasharray="none" d="M944.3350379839999 197.99999999999997M951.6919979839998 192.77711999999997C951.8043179839999 192.77711999999997,951.9727979839998 192.77711999999997,952.0008779839999 192.77711999999997C952.0008779839999 192.77711999999997,952.0289579839999 192.77711999999997,952.0289579839999 192.77711999999997C952.0289579839999 192.77711999999997,952.1974379839999 192.77711999999997,952.3378379839999 192.77711999999997C954.8650379839999 192.91751999999997,956.3532779839999 194.57423999999997,956.3532779839999 196.65215999999998C956.3532779839999 197.66303999999997,956.0163179839999 198.81431999999998,955.1739179839999 199.90943999999996C953.5733579839999 202.07159999999996,950.9619179839999 203.25095999999996,948.6874379839999 203.25095999999996C946.9183979839999 203.25095999999996,945.4020779839999 202.54895999999997,944.6719979839999 201.11687999999998C944.4473579839998 200.55527999999998,944.3350379839999 200.02175999999997,944.3350379839999 199.43207999999998C944.3350379839999 196.37135999999998,947.7607979839999 192.97367999999997,951.6919979839998 192.77711999999997">
</path>
</g>
</g>
<g class="vf-modifiers">
</g>
</g>
<g class="vf-stavenote" id="vf-auto72043">
<g class="vf-note" pointer-events="bounding-box">
<g class="vf-notehead" pointer-events="bounding-box">
<path stroke-width="0.3" fill="#000000" stroke="none" stroke-dasharray="none" d="M1002.720185984 197.99999999999997M1010.0771459839999 192.77711999999997C1010.189465984 192.77711999999997,1010.3579459839999 192.77711999999997,1010.386025984 192.77711999999997C1010.386025984 192.77711999999997,1010.414105984 192.77711999999997,1010.414105984 192.77711999999997C1010.414105984 192.77711999999997,1010.5825859839999 192.77711999999997,1010.7229859839999 192.77711999999997C1013.2501859839999 192.91751999999997,1014.738425984 194.57423999999997,1014.738425984 196.65215999999998C1014.738425984 197.66303999999997,1014.401465984 198.81431999999998,1013.559065984 199.90943999999996C1011.958505984 202.07159999999996,1009.347065984 203.25095999999996,1007.0725859839999 203.25095999999996C1005.3035459839999 203.25095999999996,1003.787225984 202.54895999999997,1003.0571459839999 201.11687999999998C1002.8325059839999 200.55527999999998,1002.720185984 200.02175999999997,1002.720185984 199.43207999999998C1002.720185984 196.37135999999998,1006.1459459839999 192.97367999999997,1010.0771459839999 192.77711999999997">
</path>
</g>
</g>
<g class="vf-modifiers">
<g class="vf-stavenote" id="vf-auto72053">
<g class="vf-note" pointer-events="bounding-box">
<g class="vf-stem" pointer-events="bounding-box">
<path stroke-width="1.5" fill="none" stroke="#000000" stroke-dasharray="none" d="M984.038147584 197.99999999999997L984.038147584 174.89999999999998">
</path>
</g>
<g class="vf-notehead" pointer-events="bounding-box">
<path stroke-width="0.3" fill="#000000" stroke="none" stroke-dasharray="none" d="M976.8561091839999 197.99999999999997M981.711702784 194.55289919999998C981.785833984 194.55289919999998,981.897030784 194.55289919999998,981.915563584 194.55289919999998C981.915563584 194.55289919999998,981.934096384 194.55289919999998,981.934096384 194.55289919999998C981.934096384 194.55289919999998,982.0452931839999 194.55289919999998,982.1379571839999 194.55289919999998C983.8059091839999 194.64556319999997,984.788147584 195.73899839999996,984.788147584 197.11042559999999C984.788147584 197.77760639999997,984.5657539839999 198.53745119999996,984.009769984 199.26023039999998C982.9534003839999 200.68725599999996,981.2298499839999 201.46563359999996,979.7286931839999 201.46563359999996C978.561126784 201.46563359999996,977.5603555839999 201.00231359999998,977.078502784 200.05714079999998C976.930240384 199.68648479999996,976.8561091839999 199.33436159999997,976.8561091839999 198.94517279999997C976.8561091839999 196.92509759999996,979.1171107839999 194.68262879999997,981.711702784 194.55289919999998">
</path>
</g>
<g class="vf-flag" pointer-events="bounding-box">
<path stroke-width="0.3" fill="#000000" stroke="none" stroke-dasharray="none" d="M984.038147584 172.89999999999998M983.593360384 175.88378079999998L983.593360384 172.992664L983.6674915839999 172.992664C983.8713523839999 172.992664,984.0010819839999 173.12239359999998,984.038147584 173.34478719999998C984.427336384 175.19806719999997,985.5949027839999 177.21814239999998,987.207256384 178.73783199999997C989.004937984 180.42431679999999,989.913045184 182.74091679999998,989.913045184 185.13164799999998C989.913045184 187.39264959999997,989.116134784 189.74631519999997,987.503781184 191.69225919999997C987.225789184 192.06291519999996,987.207256384 192.06291519999996,987.0219283839999 192.06291519999996C986.7995347839999 192.06291519999996,986.651272384 191.89611999999997,986.651272384 191.67372639999996C986.651272384 191.50693119999997,986.669805184 191.4698656,986.8551331839999 191.2660048C988.263625984 189.56098719999997,988.967872384 187.5038464,988.967872384 185.5393696C988.967872384 183.7972864,988.4118883839999 182.12933439999998,987.262854784 180.86910399999996C986.558608384 180.09072639999997,985.2613123839999 179.34941439999997,983.611893184 178.77489759999997C983.611893184 178.75636479999997,983.593360384 178.18184799999997,983.593360384 175.88378079999998">
</path>
</g>
</g>
<g class="vf-modifiers">
</g>
</g>
<path stroke-width="1" fill="none" stroke="#000000" stroke-dasharray="none" d="M977.8561091839999 189.74999999999997L990.8561091839999 180.74999999999997Z">
</path>
</g>
</g>
<g class="vf-stavenote" id="vf-auto72067">
<g class="vf-note" pointer-events="bounding-box">
<g class="vf-notehead" pointer-events="bounding-box">
<path stroke-width="0.3" fill="#000000" stroke="none" stroke-dasharray="none" d="M1035.2412571839998 197.99999999999997M1042.5982171839999 192.77711999999997C1042.7105371839998 192.77711999999997,1042.8790171839998 192.77711999999997,1042.9070971839997 192.77711999999997C1042.9070971839997 192.77711999999997,1042.9351771839997 192.77711999999997,1042.9351771839997 192.77711999999997C1042.9351771839997 192.77711999999997,1043.1036571839998 192.77711999999997,1043.2440571839998 192.77711999999997C1045.7712571839998 192.91751999999997,1047.2594971839999 194.57423999999997,1047.2594971839999 196.65215999999998C1047.2594971839999 197.66303999999997,1046.9225371839998 198.81431999999998,1046.0801371839998 199.90943999999996C1044.4795771839997 202.07159999999996,1041.8681371839998 203.25095999999996,1039.5936571839998 203.25095999999996C1037.8246171839999 203.25095999999996,1036.3082971839997 202.54895999999997,1035.5782171839999 201.11687999999998C1035.3535771839997 200.55527999999998,1035.2412571839998 200.02175999999997,1035.2412571839998 199.43207999999998C1035.2412571839998 196.37135999999998,1038.6670171839999 192.97367999999997,1042.5982171839999 192.77711999999997">
</path>
</g>
</g>
<g class="vf-modifiers">
</g>
</g>
<g class="vf-stavenote" id="vf-auto72077">
<g class="vf-note" pointer-events="bounding-box">
<g class="vf-notehead" pointer-events="bounding-box">
<path stroke-width="0.3" fill="#000000" stroke="none" stroke-dasharray="none" d="M1093.6264051839999 197.99999999999997M1100.983365184 192.77711999999997C1101.0956851839999 192.77711999999997,1101.264165184 192.77711999999997,1101.2922451839997 192.77711999999997C1101.2922451839997 192.77711999999997,1101.3203251839998 192.77711999999997,1101.3203251839998 192.77711999999997C1101.3203251839998 192.77711999999997,1101.4888051839998 192.77711999999997,1101.6292051839998 192.77711999999997C1104.1564051839998 192.91751999999997,1105.644645184 194.57423999999997,1105.644645184 196.65215999999998C1105.644645184 197.66303999999997,1105.3076851839999 198.81431999999998,1104.4652851839999 199.90943999999996C1102.8647251839998 202.07159999999996,1100.2532851839999 203.25095999999996,1097.9788051839998 203.25095999999996C1096.209765184 203.25095999999996,1094.6934451839998 202.54895999999997,1093.963365184 201.11687999999998C1093.7387251839998 200.55527999999998,1093.6264051839999 200.02175999999997,1093.6264051839999 199.43207999999998C1093.6264051839999 196.37135999999998,1097.052165184 192.97367999999997,1100.983365184 192.77711999999997">
</path>
</g>
</g>
<g class="vf-modifiers">
<g class="vf-stavenote" id="vf-auto72087">
<g class="vf-note" pointer-events="bounding-box">
<g class="vf-stem" pointer-events="bounding-box">
<path stroke-width="1.5" fill="none" stroke="#000000" stroke-dasharray="none" d="M1074.9443667839998 197.99999999999997L1074.9443667839998 174.89999999999998">
</path>
</g>
<g class="vf-notehead" pointer-events="bounding-box">
<path stroke-width="0.3" fill="#000000" stroke="none" stroke-dasharray="none" d="M1067.7623283839998 197.99999999999997M1072.6179219839998 194.55289919999998C1072.6920531839999 194.55289919999998,1072.8032499839999 194.55289919999998,1072.8217827839999 194.55289919999998C1072.8217827839999 194.55289919999998,1072.8403155839999 194.55289919999998,1072.8403155839999 194.55289919999998C1072.8403155839999 194.55289919999998,1072.951512384 194.55289919999998,1073.044176384 194.55289919999998C1074.712128384 194.64556319999997,1075.6943667839998 195.73899839999996,1075.6943667839998 197.11042559999999C1075.6943667839998 197.77760639999997,1075.4719731839998 198.53745119999996,1074.9159891839997 199.26023039999998C1073.8596195839998 200.68725599999996,1072.1360691839998 201.46563359999996,1070.6349123839998 201.46563359999996C1069.4673459839998 201.46563359999996,1068.466574784 201.00231359999998,1067.9847219839999 200.05714079999998C1067.8364595839998 199.68648479999996,1067.7623283839998 199.33436159999997,1067.7623283839998 198.94517279999997C1067.7623283839998 196.92509759999996,1070.023329984 194.68262879999997,1072.6179219839998 194.55289919999998">
</path>
</g>
<g class="vf-flag" pointer-events="bounding-box">
<path stroke-width="0.3" fill="#000000" stroke="none" stroke-dasharray="none" d="M1074.9443667839998 172.89999999999998M1074.4995795839998 175.88378079999998L1074.4995795839998 172.992664L1074.5737107839998 172.992664C1074.7775715839998 172.992664,1074.9073011839998 173.12239359999998,1074.9443667839998 173.34478719999998C1075.333555584 175.19806719999997,1076.5011219839998 177.21814239999998,1078.1134755839998 178.73783199999997C1079.9111571839999 180.42431679999999,1080.8192643839998 182.74091679999998,1080.8192643839998 185.13164799999998C1080.8192643839998 187.39264959999997,1080.022353984 189.74631519999997,1078.4100003839999 191.69225919999997C1078.1320083839998 192.06291519999996,1078.1134755839998 192.06291519999996,1077.9281475839998 192.06291519999996C1077.7057539839998 192.06291519999996,1077.5574915839998 191.89611999999997,1077.5574915839998 191.67372639999996C1077.5574915839998 191.50693119999997,1077.5760243839998 191.4698656,1077.7613523839998 191.2660048C1079.1698451839998 189.56098719999997,1079.8740915839999 187.5038464,1079.8740915839999 185.5393696C1079.8740915839999 183.7972864,1079.3181075839998 182.12933439999998,1078.1690739839999 180.86910399999996C1077.4648275839997 180.09072639999997,1076.1675315839998 179.34941439999997,1074.5181123839998 178.77489759999997C1074.5181123839998 178.75636479999997,1074.4995795839998 178.18184799999997,1074.4995795839998 175.88378079999998">
</path>
</g>
</g>
<g class="vf-modifiers">
</g>
</g>
<path stroke-width="1" fill="none" stroke="#000000" stroke-dasharray="none" d="M1068.7623283839998 189.74999999999997L1081.7623283839998 180.74999999999997Z">
</path>
</g>
</g>
<g class="vf-stavenote" id="vf-auto72101">
<g class="vf-note" pointer-events="bounding-box">
<g class="vf-notehead" pointer-events="bounding-box">
<path stroke-width="0.3" fill="#000000" stroke="none" stroke-dasharray="none" d="M1126.147476384 197.99999999999997M1133.504436384 192.77711999999997C1133.616756384 192.77711999999997,1133.785236384 192.77711999999997,1133.8133163839998 192.77711999999997C1133.8133163839998 192.77711999999997,1133.8413963839998 192.77711999999997,1133.8413963839998 192.77711999999997C1133.8413963839998 192.77711999999997,1134.0098763839999 192.77711999999997,1134.1502763839999 192.77711999999997C1136.6774763839999 192.91751999999997,1138.165716384 194.57423999999997,1138.165716384 196.65215999999998C1138.165716384 197.66303999999997,1137.828756384 198.81431999999998,1136.986356384 199.90943999999996C1135.3857963839998 202.07159999999996,1132.774356384 203.25095999999996,1130.499876384 203.25095999999996C1128.730836384 203.25095999999996,1127.2145163839998 202.54895999999997,1126.484436384 201.11687999999998C1126.2597963839999 200.55527999999998,1126.147476384 200.02175999999997,1126.147476384 199.43207999999998C1126.147476384 196.37135999999998,1129.573236384 192.97367999999997,1133.504436384 192.77711999999997">
</path>
</g>
</g>
<g class="vf-modifiers">
</g>
</g>
<path stroke-width="1.5" fill="none" stroke="#000000" stroke-dasharray="none" d="M520.2792643839999 197.99999999999997L520.2792643839999 163.74999999999997">
</path>
<path stroke-width="1.5" fill="none" stroke="#000000" stroke-dasharray="none" d="M552.8003355839999 197.99999999999997L552.8003355839999 163.74999999999997">
</path>
<path stroke-width="1.5" fill="none" stroke="#000000" stroke-dasharray="none" d="M585.3214067839998 197.99999999999997L585.3214067839998 163.74999999999997">
</path>
<path stroke-width="1.5" fill="none" stroke="#000000" stroke-dasharray="none" d="M617.8424779839999 197.99999999999997L617.8424779839999 163.74999999999997">
</path>
<path stroke-width="0.3" fill="#000000" stroke="none" stroke-dasharray="none" d="M519.5292643839999 162.99999999999997L519.5292643839999 167.99999999999997L618.0924779839999 167.99999999999997L618.0924779839999 162.99999999999997Z">
</path>
<path stroke-width="0.3" fill="#000000" stroke="none" stroke-dasharray="none" d="M519.5292643839999 170.49999999999997L519.5292643839999 175.49999999999997L618.0924779839999 175.49999999999997L618.0924779839999 170.49999999999997Z">
</path>
<path stroke-width="1.5" fill="none" stroke="#000000" stroke-dasharray="none" d="M676.2276259839999 197.99999999999997L676.2276259839999 163.74999999999997">
</path>
<path stroke-width="1.5" fill="none" stroke="#000000" stroke-dasharray="none" d="M708.7486971839999 197.99999999999997L708.7486971839999 163.74999999999997">
</path>
<path stroke-width="1.5" fill="none" stroke="#000000" stroke-dasharray="none" d="M741.2697683839998 197.99999999999997L741.2697683839998 163.74999999999997">
</path>
<path stroke-width="1.5" fill="none" stroke="#000000" stroke-dasharray="none" d="M773.7908395839999 197.99999999999997L773.7908395839999 163.74999999999997">
</path>
<path stroke-width="0.3" fill="#000000" stroke="none" stroke-dasharray="none" d="M675.4776259839999 162.99999999999997L675.4776259839999 167.99999999999997L774.0408395839999 167.99999999999997L774.0408395839999 162.99999999999997Z">
</path>
<path stroke-width="0.3" fill="#000000" stroke="none" stroke-dasharray="none" d="M675.4776259839999 170.49999999999997L675.4776259839999 175.49999999999997L774.0408395839999 175.49999999999997L774.0408395839999 170.49999999999997Z">
</path>
<path stroke-width="1.5" fill="none" stroke="#000000" stroke-dasharray="none" d="M832.1759875839998 197.99999999999997L832.1759875839998 163.74999999999997">
</path>
<path stroke-width="1.5" fill="none" stroke="#000000" stroke-dasharray="none" d="M864.6970587839998 197.99999999999997L864.6970587839998 163.74999999999997">
</path>
<path stroke-width="1.5" fill="none" stroke="#000000" stroke-dasharray="none" d="M923.0822067839998 197.99999999999997L923.0822067839998 163.74999999999997">
</path>
<path stroke-width="1.5" fill="none" stroke="#000000" stroke-dasharray="none" d="M955.6032779839999 197.99999999999997L955.6032779839999 163.74999999999997">
</path>
<path stroke-width="0.3" fill="#000000" stroke="none" stroke-dasharray="none" d="M831.4259875839998 162.99999999999997L831.4259875839998 167.99999999999997L955.8532779839999 167.99999999999997L955.8532779839999 162.99999999999997Z">
</path>
<path stroke-width="0.3" fill="#000000" stroke="none" stroke-dasharray="none" d="M831.4259875839998 170.49999999999997L831.4259875839998 175.49999999999997L955.8532779839999 175.49999999999997L955.8532779839999 170.49999999999997Z">
</path>
<path stroke-width="1.5" fill="none" stroke="#000000" stroke-dasharray="none" d="M1013.988425984 197.99999999999997L1013.988425984 163.74999999999997">
</path>
<path stroke-width="1.5" fill="none" stroke="#000000" stroke-dasharray="none" d="M1046.5094971839999 197.99999999999997L1046.5094971839999 163.74999999999997">
</path>
<path stroke-width="1.5" fill="none" stroke="#000000" stroke-dasharray="none" d="M1104.894645184 197.99999999999997L1104.894645184 163.74999999999997">
</path>
<path stroke-width="1.5" fill="none" stroke="#000000" stroke-dasharray="none" d="M1137.415716384 197.99999999999997L1137.415716384 163.74999999999997">
</path>
<path stroke-width="0.3" fill="#000000" stroke="none" stroke-dasharray="none" d="M1013.238425984 162.99999999999997L1013.238425984 167.99999999999997L1137.665716384 167.99999999999997L1137.665716384 162.99999999999997Z">
</path>
<path stroke-width="0.3" fill="#000000" stroke="none" stroke-dasharray="none" d="M1013.238425984 170.49999999999997L1013.238425984 175.49999999999997L1137.665716384 175.49999999999997L1137.665716384 170.49999999999997Z">
</path>
</svg>