<svg width="1536" height="331.99999999999994" viewBox="0 0 1536 331.99999999999994">
<path stroke-width="1" fill="none" stroke="black" stroke-dasharray="none" d="M50 197.99999999999997L452.66854758399984 197.99999999999997">
</path>
<rect stroke-width="0.3" fill="black" stroke="black" stroke-dasharray="none" x="452.66854758399984" y="177.49999999999997" width="1" height="41">
</rect>
<path stroke-width="0.3" fill="black" stroke="none" stroke-dasharray="none" d="M55 197.99999999999997M55 197.99999999999997L55 188.00639999999999L57.1888 188.00639999999999L59.4064 188.00639999999999L59.4064 197.99999999999997L59.4064 208.02239999999998L57.1888 208.02239999999998L55 208.02239999999998L55 197.99999999999997M63.870400000000004 198.02879999999996L63.870400000000004 188.00639999999999L66.1168 188.00639999999999L68.3632 188.00639999999999L68.3632 198.02879999999996L68.3632 208.02239999999998L66.1168 208.02239999999998L63.870400000000004 208.02239999999998L63.870400000000004 198.02879999999996">
</path>
<path stroke-width="0.3" fill="black" stroke="none" stroke-dasharray="none" d="M96.1296 197.99999999999997M101.80319999999999 179.33759999999998C101.91839999999999 179.33759999999998,102.11999999999999 179.33759999999998,102.3504 179.33759999999998C102.8112 179.33759999999998,103.416 179.33759999999998,103.56 179.39519999999996C105.72 179.65439999999998,107.448 180.74879999999996,108.1968 182.27519999999998C108.45599999999999 182.79359999999997,108.57119999999999 183.34079999999997,108.57119999999999 183.91679999999997C108.57119999999999 185.32799999999997,107.7936 186.94079999999997,106.38239999999999 188.15039999999996C105.4032 188.98559999999998,104.42399999999999 189.50399999999996,102.8976 189.99359999999996C100.9104 190.62719999999996,99.21119999999999 191.75039999999998,98.1168 193.10399999999998C98.1168 193.10399999999998,98.1168 193.13279999999997,98.1168 193.13279999999997C98.1168 193.13279999999997,98.1168 193.13279999999997,98.1168 193.13279999999997C98.1168 193.13279999999997,98.2032 193.10399999999998,98.26079999999999 193.01759999999996C99.3552 192.12479999999996,100.824 191.60639999999998,102.1488 191.60639999999998C103.2432 191.60639999999998,104.0208 191.80799999999996,105.0576 192.38399999999996C105.6912 192.70079999999996,106.2672 192.84479999999996,106.81439999999999 192.84479999999996C107.0448 192.84479999999996,107.2752 192.84479999999996,107.53439999999999 192.78719999999998C107.9088 192.70079999999996,108.312 192.41279999999998,108.45599999999999 192.18239999999997C108.5424 191.98079999999996,108.68639999999999 191.89439999999996,108.8592 191.89439999999996C109.08959999999999 191.89439999999996,109.32 192.06719999999999,109.32 192.32639999999998C109.32 192.52799999999996,109.0608 193.24799999999996,108.8304 193.7376C107.9088 195.58079999999998,106.29599999999999 196.73279999999997,104.7408 196.73279999999997C104.62559999999999 196.73279999999997,104.5392 196.73279999999997,104.42399999999999 196.70399999999998C104.0208 196.70399999999998,103.848 196.58879999999996,103.3296 196.24319999999997C102.23519999999999 195.52319999999997,100.8528 195.14879999999997,99.6432 195.14879999999997C99.1248 195.14879999999997,98.664 195.20639999999997,98.232 195.37919999999997C97.65599999999999 195.58079999999998,97.1088 195.92639999999997,96.93599999999999 196.18559999999997C96.8496 196.38719999999998,96.70559999999999 196.44479999999996,96.5328 196.44479999999996C96.3888 196.44479999999996,96.2448 196.38719999999998,96.1584 196.21439999999998L96.10079999999999 196.128L96.10079999999999 195.72479999999996C96.10079999999999 195.37919999999997,96.1296 195.26399999999998,96.1296 195.14879999999997C96.1584 195.06239999999997,96.18719999999999 194.88959999999997,96.18719999999999 194.74559999999997C96.70559999999999 192.32639999999998,98.4624 190.16639999999998,100.8528 189.10079999999996C102.8112 188.17919999999998,104.10719999999999 186.53759999999997,104.3376 184.46399999999997C104.39519999999999 184.29119999999998,104.39519999999999 184.14719999999997,104.39519999999999 183.97439999999997C104.39519999999999 182.13119999999998,103.0128 180.86399999999998,101.0544 180.86399999999998C100.9104 180.86399999999998,100.7376 180.86399999999998,100.5936 180.86399999999998C100.3056 180.89279999999997,100.2192 180.89279999999997,100.2192 180.95039999999997C100.2192 180.95039999999997,100.2192 180.97919999999996,100.3056 181.03679999999997C100.96799999999999 181.41119999999998,101.28479999999999 182.13119999999998,101.28479999999999 182.82239999999996C101.28479999999999 183.71519999999998,100.824 184.55039999999997,99.93119999999999 184.89599999999996C99.6432 184.98239999999998,99.3552 185.01119999999997,99.1248 185.01119999999997C97.9152 185.01119999999997,96.9072 183.97439999999997,96.9072 182.73599999999996C96.9072 182.50559999999996,96.9072 182.27519999999998,96.9648 182.01599999999996C97.3968 180.69119999999998,99.4416 179.59679999999997,101.80319999999999 179.33759999999998M102.696 198.02879999999996L102.75359999999999 198.02879999999996L102.6672 198.02879999999996L102.696 198.02879999999996M102.696 178.61759999999998L102.75359999999999 178.61759999999998L102.6672 178.61759999999998L102.696 178.61759999999998">
</path>
<path stroke-width="0.3" fill="black" stroke="none" stroke-dasharray="none" d="M96 217.99999999999997M101.0112 199.65439999999998C101.04 199.62559999999996,101.4432 199.62559999999996,102.6816 199.62559999999996C103.056 199.62559999999996,103.4592 199.62559999999996,103.9776 199.62559999999996L106.8864 199.62559999999996L106.9728 199.71199999999996C107.1168 199.79839999999996,107.2032 199.94239999999996,107.2032 200.05759999999998C107.2032 200.23039999999997,107.1168 200.34559999999996,107.0016 200.46079999999998C106.9728 200.54719999999998,106.7136 200.77759999999998,106.5408 201.03679999999997L105.0144 202.79359999999997L103.056 205.01119999999997L102.0192 206.19199999999998L100.464 207.97759999999997L98.4192 210.31039999999996C98.0736 210.74239999999998,97.6992 211.08799999999997,97.6992 211.08799999999997C97.6992 211.08799999999997,97.6992 211.08799999999997,97.6992 211.08799999999997C97.6992 211.14559999999997,97.9584 211.14559999999997,100.3488 211.14559999999997L102.9696 211.14559999999997L102.9696 209.27359999999996C102.9696 207.37279999999998,102.9696 207.34399999999997,102.9984 207.31519999999998C103.056 207.22879999999998,103.3152 206.91199999999998,104.3232 205.73119999999997L104.7264 205.29919999999998L105.1296 204.86719999999997L105.7344 204.08959999999996L106.368 203.42719999999997L106.6848 203.02399999999997C106.8 202.85119999999998,106.9728 202.82239999999996,107.1168 202.82239999999996C107.28960000000001 202.82239999999996,107.4336 202.90879999999999,107.52 203.05279999999996C107.5488 203.13919999999996,107.5488 203.19679999999997,107.5488 205.32799999999997C107.5488 205.81759999999997,107.5488 206.42239999999998,107.5488 207.14239999999998L107.5488 211.14559999999997L108.2688 211.14559999999997C108.9312 211.14559999999997,108.96 211.14559999999997,109.0464 211.17439999999996C109.2768 211.26079999999996,109.392 211.49119999999996,109.392 211.75039999999998C109.392 211.89439999999996,109.3632 212.06719999999999,109.248 212.18239999999997C109.0752 212.32639999999998,109.0464 212.32639999999998,108.2688 212.32639999999998L107.5488 212.32639999999998L107.5488 212.81599999999997C107.5776 214.28479999999996,107.8656 214.86079999999998,108.9888 215.46559999999997C109.392 215.66719999999998,109.4784 215.72479999999996,109.4784 216.01279999999997C109.4784 216.21439999999998,109.4208 216.30079999999998,109.2768 216.41599999999997L109.1904 216.44479999999996L105.2448 216.44479999999996L101.328 216.44479999999996L101.2416 216.41599999999997C101.0688 216.30079999999998,101.04 216.21439999999998,101.04 216.01279999999997C101.04 215.72479999999996,101.0688 215.66719999999998,101.5008 215.46559999999997C102.624 214.86079999999998,102.912 214.28479999999996,102.912 212.81599999999997L102.912 212.32639999999998L99.6 212.32639999999998C98.9952 212.38399999999996,98.5056 212.38399999999996,98.1024 212.38399999999996C96.288 212.38399999999996,96.2592 212.32639999999998,96.2304 212.32639999999998C96.0576 212.26879999999997,96 212.09599999999998,96 211.89439999999996C96 211.89439999999996,96 211.89439999999996,96 211.89439999999996C96 211.69279999999998,96 211.69279999999998,96.576 211.0304C98.9952 208.09279999999998,100.6944 203.83039999999997,100.6944 200.43199999999996C100.6944 199.91359999999997,100.7808 199.74079999999998,101.0112 199.65439999999998M102.7392 218.02879999999996L102.768 218.02879999999996L102.6816 218.02879999999996L102.7392 218.02879999999996M102.7392 198.61759999999998L102.768 198.61759999999998L102.6816 198.61759999999998L102.7392 198.61759999999998">
</path>
<g class="vf-stavenote" id="vf-auto69933">
<g class="vf-note" pointer-events="bounding-box">
<g class="vf-notehead" pointer-events="bounding-box">
<path stroke-width="0.3" fill="#000000" stroke="none" stroke-dasharray="none" d="M147.3424768 197.99999999999997M154.69943679999997 192.77711999999997C154.81175679999998 192.77711999999997,154.9802368 192.77711999999997,155.0083168 192.77711999999997C155.0083168 192.77711999999997,155.03639679999998 192.77711999999997,155.03639679999998 192.77711999999997C155.03639679999998 192.77711999999997,155.2048768 192.77711999999997,155.3452768 192.77711999999997C157.8724768 192.91751999999997,159.36071679999998 194.57423999999997,159.36071679999998 196.65215999999998C159.36071679999998 197.66303999999997,159.0237568 198.81431999999998,158.18135679999997 199.90943999999996C156.58079679999997 202.07159999999996,153.96935679999999 203.25095999999996,151.69487679999997 203.25095999999996C149.92583679999998 203.25095999999996,148.40951679999998 202.54895999999997,147.6794368 201.11687999999998C147.4547968 200.55527999999998,147.3424768 200.02175999999997,147.3424768 199.43207999999998C147.3424768 196.37135999999998,150.76823679999998 192.97367999999997,154.69943679999997 192.77711999999997">
</path>
</g>
</g>
<g class="vf-modifiers">
<g class="vf-stavenote" id="vf-auto69943">
<g class="vf-note" pointer-events="bounding-box">
<g class="vf-stem" pointer-events="bounding-box">
<path stroke-width="1.5" fill="none" stroke="#000000" stroke-dasharray="none" d="M128.6604384 197.99999999999997L128.6604384 174.89999999999998">
</path>
</g>
<g class="vf-notehead" pointer-events="bounding-box">
<path stroke-width="0.3" fill="#000000" stroke="none" stroke-dasharray="none" d="M121.4784 197.99999999999997M126.3339936 194.55289919999998C126.4081248 194.55289919999998,126.5193216 194.55289919999998,126.5378544 194.55289919999998C126.5378544 194.55289919999998,126.55638719999999 194.55289919999998,126.55638719999999 194.55289919999998C126.55638719999999 194.55289919999998,126.66758399999999 194.55289919999998,126.76024799999999 194.55289919999998C128.4282 194.64556319999997,129.4104384 195.73899839999996,129.4104384 197.11042559999999C129.4104384 197.77760639999997,129.1880448 198.53745119999996,128.6320608 199.26023039999998C127.5756912 200.68725599999996,125.8521408 201.46563359999996,124.350984 201.46563359999996C123.1834176 201.46563359999996,122.1826464 201.00231359999998,121.7007936 200.05714079999998C121.55253119999999 199.68648479999996,121.4784 199.33436159999997,121.4784 198.94517279999997C121.4784 196.92509759999996,123.7394016 194.68262879999997,126.3339936 194.55289919999998">
</path>
</g>
<g class="vf-flag" pointer-events="bounding-box">
<path stroke-width="0.3" fill="#000000" stroke="none" stroke-dasharray="none" d="M128.6604384 172.89999999999998M128.2156512 175.88378079999998L128.2156512 172.992664L128.2897824 172.992664C128.4936432 172.992664,128.6233728 173.12239359999998,128.6604384 173.34478719999998C129.0496272 175.19806719999997,130.2171936 177.21814239999998,131.8295472 178.73783199999997C133.6272288 180.42431679999999,134.535336 182.74091679999998,134.535336 185.13164799999998C134.535336 187.39264959999997,133.7384256 189.74631519999997,132.126072 191.69225919999997C131.84808 192.06291519999996,131.8295472 192.06291519999996,131.6442192 192.06291519999996C131.4218256 192.06291519999996,131.2735632 191.89611999999997,131.2735632 191.67372639999996C131.2735632 191.50693119999997,131.29209600000002 191.4698656,131.477424 191.2660048C132.88591680000002 189.56098719999997,133.5901632 187.5038464,133.5901632 185.5393696C133.5901632 183.7972864,133.0341792 182.12933439999998,131.88514560000002 180.86910399999996C131.1808992 180.09072639999997,129.8836032 179.34941439999997,128.234184 178.77489759999997C128.234184 178.75636479999997,128.2156512 178.18184799999997,128.2156512 175.88378079999998">
</path>
</g>
</g>
<g class="vf-modifiers">
</g>
</g>
<path stroke-width="1" fill="none" stroke="#000000" stroke-dasharray="none" d="M122.4784 189.74999999999997L135.4784 180.74999999999997Z">
</path>
</g>
</g>
<g class="vf-stavenote" id="vf-auto69957">
<g class="vf-note" pointer-events="bounding-box">
<g class="vf-notehead" pointer-events="bounding-box">
<path stroke-width="0.3" fill="#000000" stroke="none" stroke-dasharray="none" d="M182.44165759999998 197.99999999999997M189.79861759999997 192.77711999999997C189.91093759999998 192.77711999999997,190.0794176 192.77711999999997,190.1074976 192.77711999999997C190.1074976 192.77711999999997,190.13557759999998 192.77711999999997,190.13557759999998 192.77711999999997C190.13557759999998 192.77711999999997,190.3040576 192.77711999999997,190.4444576 192.77711999999997C192.9716576 192.91751999999997,194.45989759999998 194.57423999999997,194.45989759999998 196.65215999999998C194.45989759999998 197.66303999999997,194.1229376 198.81431999999998,193.28053759999997 199.90943999999996C191.67997759999997 202.07159999999996,189.06853759999998 203.25095999999996,186.79405759999997 203.25095999999996C185.02501759999998 203.25095999999996,183.50869759999998 202.54895999999997,182.7786176 201.11687999999998C182.5539776 200.55527999999998,182.44165759999998 200.02175999999997,182.44165759999998 199.43207999999998C182.44165759999998 196.37135999999998,185.86741759999998 192.97367999999997,189.79861759999997 192.77711999999997">
</path>
</g>
</g>
<g class="vf-modifiers">
</g>
</g>
<g class="vf-stavenote" id="vf-auto69967">
<g class="vf-note" pointer-events="bounding-box">
<g class="vf-notehead" pointer-events="bounding-box">
<path stroke-width="0.3" fill="#000000" stroke="none" stroke-dasharray="none" d="M217.54083839999998 197.99999999999997M224.89779839999997 192.77711999999997C225.01011839999998 192.77711999999997,225.1785984 192.77711999999997,225.2066784 192.77711999999997C225.2066784 192.77711999999997,225.23475839999998 192.77711999999997,225.23475839999998 192.77711999999997C225.23475839999998 192.77711999999997,225.4032384 192.77711999999997,225.5436384 192.77711999999997C228.07083839999999 192.91751999999997,229.55907839999998 194.57423999999997,229.55907839999998 196.65215999999998C229.55907839999998 197.66303999999997,229.2221184 198.81431999999998,228.37971839999997 199.90943999999996C226.77915839999997 202.07159999999996,224.16771839999998 203.25095999999996,221.89323839999997 203.25095999999996C220.12419839999998 203.25095999999996,218.60787839999998 202.54895999999997,217.8777984 201.11687999999998C217.6531584 200.55527999999998,217.54083839999998 200.02175999999997,217.54083839999998 199.43207999999998C217.54083839999998 196.37135999999998,220.96659839999998 192.97367999999997,224.89779839999997 192.77711999999997">
</path>
</g>
</g>
<g class="vf-modifiers">
</g>
</g>
<g class="vf-stavenote" id="vf-auto69977">
<g class="vf-note" pointer-events="bounding-box">
<g class="vf-notehead" pointer-events="bounding-box">
<path stroke-width="0.3" fill="#000000" stroke="none" stroke-dasharray="none" d="M252.6400192 197.99999999999997M259.9969792 192.77711999999997C260.1092992 192.77711999999997,260.2777792 192.77711999999997,260.3058592 192.77711999999997C260.3058592 192.77711999999997,260.33393920000003 192.77711999999997,260.33393920000003 192.77711999999997C260.33393920000003 192.77711999999997,260.5024192 192.77711999999997,260.6428192 192.77711999999997C263.1700192 192.91751999999997,264.65825920000003 194.57423999999997,264.65825920000003 196.65215999999998C264.65825920000003 197.66303999999997,264.3212992 198.81431999999998,263.4788992 199.90943999999996C261.8783392 202.07159999999996,259.2668992 203.25095999999996,256.99241920000003 203.25095999999996C255.2233792 203.25095999999996,253.7070592 202.54895999999997,252.97697920000002 201.11687999999998C252.75233920000002 200.55527999999998,252.6400192 200.02175999999997,252.6400192 199.43207999999998C252.6400192 196.37135999999998,256.0657792 192.97367999999997,259.9969792 192.77711999999997">
</path>
</g>
</g>
<g class="vf-modifiers">
</g>
</g>
<g class="vf-stavenote" id="vf-auto69987">
<g class="vf-note" pointer-events="bounding-box">
<g class="vf-notehead" pointer-events="bounding-box">
<path stroke-width="0.3" fill="#000000" stroke="none" stroke-dasharray="none" d="M313.6032768 197.99999999999997M320.9602368 192.77711999999997C321.07255680000003 192.77711999999997,321.2410368 192.77711999999997,321.2691168 192.77711999999997C321.2691168 192.77711999999997,321.2971968 192.77711999999997,321.2971968 192.77711999999997C321.2971968 192.77711999999997,321.4656768 192.77711999999997,321.6060768 192.77711999999997C324.1332768 192.91751999999997,325.6215168 194.57423999999997,325.6215168 196.65215999999998C325.6215168 197.66303999999997,325.2845568 198.81431999999998,324.4421568 199.90943999999996C322.8415968 202.07159999999996,320.23015680000003 203.25095999999996,317.9556768 203.25095999999996C316.18663680000003 203.25095999999996,314.6703168 202.54895999999997,313.9402368 201.11687999999998C313.7155968 200.55527999999998,313.6032768 200.02175999999997,313.6032768 199.43207999999998C313.6032768 196.37135999999998,317.02903680000003 192.97367999999997,320.9602368 192.77711999999997">
</path>
</g>
</g>
<g class="vf-modifiers">
<g class="vf-stavenote" id="vf-auto69997">
<g class="vf-note" pointer-events="bounding-box">
<g class="vf-stem" pointer-events="bounding-box">
<path stroke-width="1.5" fill="none" stroke="#000000" stroke-dasharray="none" d="M294.9212384 197.99999999999997L294.9212384 174.89999999999998">
</path>
</g>
<g class="vf-notehead" pointer-events="bounding-box">
<path stroke-width="0.3" fill="#000000" stroke="none" stroke-dasharray="none" d="M287.7392 197.99999999999997M292.5947936 194.55289919999998C292.66892479999996 194.55289919999998,292.7801216 194.55289919999998,292.7986544 194.55289919999998C292.7986544 194.55289919999998,292.8171872 194.55289919999998,292.8171872 194.55289919999998C292.8171872 194.55289919999998,292.928384 194.55289919999998,293.021048 194.55289919999998C294.68899999999996 194.64556319999997,295.6712384 195.73899839999996,295.6712384 197.11042559999999C295.6712384 197.77760639999997,295.44884479999996 198.53745119999996,294.8928608 199.26023039999998C293.83649119999995 200.68725599999996,292.1129408 201.46563359999996,290.611784 201.46563359999996C289.4442176 201.46563359999996,288.44344639999997 201.00231359999998,287.96159359999996 200.05714079999998C287.8133312 199.68648479999996,287.7392 199.33436159999997,287.7392 198.94517279999997C287.7392 196.92509759999996,290.00020159999997 194.68262879999997,292.5947936 194.55289919999998">
</path>
</g>
<g class="vf-flag" pointer-events="bounding-box">
<path stroke-width="0.3" fill="#000000" stroke="none" stroke-dasharray="none" d="M294.9212384 172.89999999999998M294.4764512 175.88378079999998L294.4764512 172.992664L294.5505824 172.992664C294.75444319999997 172.992664,294.8841728 173.12239359999998,294.9212384 173.34478719999998C295.3104272 175.19806719999997,296.4779936 177.21814239999998,298.0903472 178.73783199999997C299.8880288 180.42431679999999,300.796136 182.74091679999998,300.796136 185.13164799999998C300.796136 187.39264959999997,299.9992256 189.74631519999997,298.386872 191.69225919999997C298.10888 192.06291519999996,298.0903472 192.06291519999996,297.90501919999997 192.06291519999996C297.6826256 192.06291519999996,297.5343632 191.89611999999997,297.5343632 191.67372639999996C297.5343632 191.50693119999997,297.552896 191.4698656,297.738224 191.2660048C299.1467168 189.56098719999997,299.85096319999997 187.5038464,299.85096319999997 185.5393696C299.85096319999997 183.7972864,299.2949792 182.12933439999998,298.1459456 180.86910399999996C297.4416992 180.09072639999997,296.1444032 179.34941439999997,294.494984 178.77489759999997C294.494984 178.75636479999997,294.4764512 178.18184799999997,294.4764512 175.88378079999998">
</path>
</g>
</g>
<g class="vf-modifiers">
</g>
</g>
<path stroke-width="1" fill="none" stroke="#000000" stroke-dasharray="none" d="M288.7392 189.74999999999997L301.7392 180.74999999999997Z">
</path>
</g>
</g>
<g class="vf-stavenote" id="vf-auto70011">
<g class="vf-note" pointer-events="bounding-box">
<g class="vf-notehead" pointer-events="bounding-box">
<path stroke-width="0.3" fill="#000000" stroke="none" stroke-dasharray="none" d="M348.7024576 197.99999999999997M356.0594176 192.77711999999997C356.17173760000003 192.77711999999997,356.3402176 192.77711999999997,356.3682976 192.77711999999997C356.3682976 192.77711999999997,356.3963776 192.77711999999997,356.3963776 192.77711999999997C356.3963776 192.77711999999997,356.5648576 192.77711999999997,356.7052576 192.77711999999997C359.2324576 192.91751999999997,360.7206976 194.57423999999997,360.7206976 196.65215999999998C360.7206976 197.66303999999997,360.3837376 198.81431999999998,359.5413376 199.90943999999996C357.9407776 202.07159999999996,355.32933760000003 203.25095999999996,353.0548576 203.25095999999996C351.28581760000003 203.25095999999996,349.7694976 202.54895999999997,349.0394176 201.11687999999998C348.8147776 200.55527999999998,348.7024576 200.02175999999997,348.7024576 199.43207999999998C348.7024576 196.37135999999998,352.1282176 192.97367999999997,356.0594176 192.77711999999997">
</path>
</g>
</g>
<g class="vf-modifiers">
</g>
</g>
<g class="vf-stavenote" id="vf-auto70021">
<g class="vf-note" pointer-events="bounding-box">
<g class="vf-notehead" pointer-events="bounding-box">
<path stroke-width="0.3" fill="#000000" stroke="none" stroke-dasharray="none" d="M383.8016384 197.99999999999997M391.1585984 192.77711999999997C391.2709184 192.77711999999997,391.4393984 192.77711999999997,391.4674784 192.77711999999997C391.4674784 192.77711999999997,391.4955584 192.77711999999997,391.4955584 192.77711999999997C391.4955584 192.77711999999997,391.6640384 192.77711999999997,391.8044384 192.77711999999997C394.3316384 192.91751999999997,395.8198784 194.57423999999997,395.8198784 196.65215999999998C395.8198784 197.66303999999997,395.4829184 198.81431999999998,394.6405184 199.90943999999996C393.0399584 202.07159999999996,390.42851840000003 203.25095999999996,388.1540384 203.25095999999996C386.38499840000003 203.25095999999996,384.8686784 202.54895999999997,384.1385984 201.11687999999998C383.9139584 200.55527999999998,383.8016384 200.02175999999997,383.8016384 199.43207999999998C383.8016384 196.37135999999998,387.2273984 192.97367999999997,391.1585984 192.77711999999997">
</path>
</g>
</g>
<g class="vf-modifiers">
</g>
</g>
<g class="vf-stavenote" id="vf-auto70031">
<g class="vf-note" pointer-events="bounding-box">
<g class="vf-notehead" pointer-events="bounding-box">
<path stroke-width="0.3" fill="#000000" stroke="none" stroke-dasharray="none" d="M418.9008192 197.99999999999997M426.2577792 192.77711999999997C426.3700992 192.77711999999997,426.5385792 192.77711999999997,426.5666592 192.77711999999997C426.5666592 192.77711999999997,426.5947392 192.77711999999997,426.5947392 192.77711999999997C426.5947392 192.77711999999997,426.7632192 192.77711999999997,426.9036192 192.77711999999997C429.4308192 192.91751999999997,430.9190592 194.57423999999997,430.9190592 196.65215999999998C430.9190592 197.66303999999997,430.5820992 198.81431999999998,429.7396992 199.90943999999996C428.1391392 202.07159999999996,425.52769920000003 203.25095999999996,423.2532192 203.25095999999996C421.4841792 203.25095999999996,419.9678592 202.54895999999997,419.2377792 201.11687999999998C419.0131392 200.55527999999998,418.9008192 200.02175999999997,418.9008192 199.43207999999998C418.9008192 196.37135999999998,422.3265792 192.97367999999997,426.2577792 192.77711999999997">
</path>
</g>
</g>
<g class="vf-modifiers">
</g>
</g>
<path stroke-width="1.5" fill="none" stroke="#000000" stroke-dasharray="none" d="M158.61071679999998 197.99999999999997L158.61071679999998 163.74999999999997">
</path>
<path stroke-width="1.5" fill="none" stroke="#000000" stroke-dasharray="none" d="M193.70989759999998 197.99999999999997L193.70989759999998 163.74999999999997">
</path>
<path stroke-width="1.5" fill="none" stroke="#000000" stroke-dasharray="none" d="M228.80907839999998 197.99999999999997L228.80907839999998 163.74999999999997">
</path>
<path stroke-width="1.5" fill="none" stroke="#000000" stroke-dasharray="none" d="M263.90825920000003 197.99999999999997L263.90825920000003 163.74999999999997">
</path>
<path stroke-width="0.3" fill="#000000" stroke="none" stroke-dasharray="none" d="M157.86071679999998 162.99999999999997L157.86071679999998 167.99999999999997L264.15825920000003 167.99999999999997L264.15825920000003 162.99999999999997Z">
</path>
<path stroke-width="0.3" fill="#000000" stroke="none" stroke-dasharray="none" d="M157.86071679999998 170.49999999999997L157.86071679999998 175.49999999999997L264.15825920000003 175.49999999999997L264.15825920000003 170.49999999999997Z">
</path>
<path stroke-width="1.5" fill="none" stroke="#000000" stroke-dasharray="none" d="M324.8715168 197.99999999999997L324.8715168 163.74999999999997">
</path>
<path stroke-width="1.5" fill="none" stroke="#000000" stroke-dasharray="none" d="M359.9706976 197.99999999999997L359.9706976 163.74999999999997">
</path>
<path stroke-width="1.5" fill="none" stroke="#000000" stroke-dasharray="none" d="M395.0698784 197.99999999999997L395.0698784 163.74999999999997">
</path>
<path stroke-width="1.5" fill="none" stroke="#000000" stroke-dasharray="none" d="M430.1690592 197.99999999999997L430.1690592 163.74999999999997">
</path>
<path stroke-width="0.3" fill="#000000" stroke="none" stroke-dasharray="none" d="M324.1215168 162.99999999999997L324.1215168 167.99999999999997L430.4190592 167.99999999999997L430.4190592 162.99999999999997Z">
</path>
<path stroke-width="0.3" fill="#000000" stroke="none" stroke-dasharray="none" d="M324.1215168 170.49999999999997L324.1215168 175.49999999999997L430.4190592 175.49999999999997L430.4190592 170.49999999999997Z">
</path>
<path stroke-width="1" fill="none" stroke="black" stroke-dasharray="none" d="M452.66854758399984 197.99999999999997L1096.027242752 197.99999999999997">
</path>
<rect stroke-width="0.3" fill="black" stroke="black" stroke-dasharray="none" x="1091.027242752" y="177.49999999999997" width="1" height="41">
</rect>
<rect stroke-width="0.3" fill="black" stroke="black" stroke-dasharray="none" x="1094.027242752" y="177.49999999999997" width="3" height="41">
</rect>
<path stroke-width="0.3" fill="black" stroke="none" stroke-dasharray="none" d="M1090.027242752 193.49999999999997 A2 2 0 0 0 1086.027242752 193.49999999999997M1086.027242752 193.49999999999997 A2 2 0 0 0 1090.027242752 193.49999999999997">
</path>
<path stroke-width="0.3" fill="black" stroke="none" stroke-dasharray="none" d="M1090.027242752 203.49999999999997 A2 2 0 0 0 1086.027242752 203.49999999999997M1086.027242752 203.49999999999997 A2 2 0 0 0 1090.027242752 203.49999999999997">
</path>
<path stroke-width="0.3" fill="black" stroke="none" stroke-dasharray="none" d="M457.66854758399984 197.99999999999997M462.6797475839998 179.65439999999998C462.70854758399986 179.62559999999996,463.11174758399983 179.62559999999996,464.35014758399984 179.62559999999996C464.7245475839998 179.62559999999996,465.12774758399985 179.62559999999996,465.64614758399983 179.62559999999996L468.5549475839998 179.62559999999996L468.64134758399985 179.71199999999996C468.78534758399985 179.79839999999996,468.8717475839998 179.94239999999996,468.8717475839998 180.05759999999998C468.8717475839998 180.23039999999997,468.78534758399985 180.34559999999996,468.67014758399984 180.46079999999998C468.64134758399985 180.54719999999998,468.3821475839998 180.77759999999998,468.20934758399983 181.03679999999997L466.68294758399986 182.79359999999997L464.7245475839998 185.01119999999997L463.68774758399985 186.19199999999998L462.13254758399984 187.97759999999997L460.0877475839998 190.31039999999996C459.74214758399984 190.74239999999998,459.36774758399986 191.08799999999997,459.36774758399986 191.08799999999997C459.36774758399986 191.08799999999997,459.36774758399986 191.08799999999997,459.36774758399986 191.08799999999997C459.36774758399986 191.14559999999997,459.6269475839998 191.14559999999997,462.0173475839998 191.14559999999997L464.63814758399985 191.14559999999997L464.63814758399985 189.27359999999996C464.63814758399985 187.37279999999998,464.63814758399985 187.34399999999997,464.66694758399984 187.31519999999998C464.7245475839998 187.22879999999998,464.98374758399984 186.91199999999998,465.9917475839998 185.73119999999997L466.39494758399985 185.29919999999998L466.7981475839998 184.86719999999997L467.40294758399983 184.08959999999996L468.03654758399983 183.42719999999997L468.35334758399983 183.02399999999997C468.46854758399985 182.85119999999998,468.64134758399985 182.82239999999996,468.78534758399985 182.82239999999996C468.95814758399985 182.82239999999996,469.10214758399985 182.90879999999999,469.1885475839998 183.05279999999996C469.21734758399987 183.13919999999996,469.21734758399987 183.19679999999997,469.21734758399987 185.32799999999997C469.21734758399987 185.81759999999997,469.21734758399987 186.42239999999998,469.21734758399987 187.14239999999998L469.21734758399987 191.14559999999997L469.93734758399984 191.14559999999997C470.59974758399983 191.14559999999997,470.6285475839998 191.14559999999997,470.71494758399984 191.17439999999996C470.9453475839998 191.26079999999996,471.06054758399983 191.49119999999996,471.06054758399983 191.75039999999998C471.06054758399983 191.89439999999996,471.03174758399985 192.06719999999999,470.91654758399983 192.18239999999997C470.74374758399983 192.32639999999998,470.71494758399984 192.32639999999998,469.93734758399984 192.32639999999998L469.21734758399987 192.32639999999998L469.21734758399987 192.81599999999997C469.24614758399986 194.28479999999996,469.5341475839998 194.86079999999998,470.65734758399987 195.46559999999997C471.06054758399983 195.66719999999998,471.14694758399986 195.72479999999996,471.14694758399986 196.01279999999997C471.14694758399986 196.21439999999998,471.0893475839998 196.30079999999998,470.9453475839998 196.41599999999997L470.85894758399985 196.44479999999996L466.91334758399984 196.44479999999996L462.9965475839998 196.44479999999996L462.91014758399984 196.41599999999997C462.73734758399985 196.30079999999998,462.70854758399986 196.21439999999998,462.70854758399986 196.01279999999997C462.70854758399986 195.72479999999996,462.73734758399985 195.66719999999998,463.16934758399987 195.46559999999997C464.29254758399986 194.86079999999998,464.5805475839998 194.28479999999996,464.5805475839998 192.81599999999997L464.5805475839998 192.32639999999998L461.26854758399986 192.32639999999998C460.66374758399985 192.38399999999996,460.17414758399985 192.38399999999996,459.7709475839998 192.38399999999996C457.95654758399985 192.38399999999996,457.92774758399986 192.32639999999998,457.8989475839998 192.32639999999998C457.7261475839998 192.26879999999997,457.66854758399984 192.09599999999998,457.66854758399984 191.89439999999996C457.66854758399984 191.89439999999996,457.66854758399984 191.89439999999996,457.66854758399984 191.89439999999996C457.66854758399984 191.69279999999998,457.66854758399984 191.69279999999998,458.24454758399986 191.0304C460.66374758399985 188.09279999999998,462.3629475839998 183.83039999999997,462.3629475839998 180.43199999999996C462.3629475839998 179.91359999999997,462.44934758399984 179.74079999999998,462.6797475839998 179.65439999999998M464.4077475839998 198.02879999999996L464.4365475839998 198.02879999999996L464.35014758399984 198.02879999999996L464.4077475839998 198.02879999999996M464.4077475839998 178.61759999999998L464.4365475839998 178.61759999999998L464.35014758399984 178.61759999999998L464.4077475839998 178.61759999999998">
</path>
<path stroke-width="0.3" fill="black" stroke="none" stroke-dasharray="none" d="M457.66854758399984 217.99999999999997M462.6797475839998 199.65439999999998C462.70854758399986 199.62559999999996,463.11174758399983 199.62559999999996,464.35014758399984 199.62559999999996C464.7245475839998 199.62559999999996,465.12774758399985 199.62559999999996,465.64614758399983 199.62559999999996L468.5549475839998 199.62559999999996L468.64134758399985 199.71199999999996C468.78534758399985 199.79839999999996,468.8717475839998 199.94239999999996,468.8717475839998 200.05759999999998C468.8717475839998 200.23039999999997,468.78534758399985 200.34559999999996,468.67014758399984 200.46079999999998C468.64134758399985 200.54719999999998,468.3821475839998 200.77759999999998,468.20934758399983 201.03679999999997L466.68294758399986 202.79359999999997L464.7245475839998 205.01119999999997L463.68774758399985 206.19199999999998L462.13254758399984 207.97759999999997L460.0877475839998 210.31039999999996C459.74214758399984 210.74239999999998,459.36774758399986 211.08799999999997,459.36774758399986 211.08799999999997C459.36774758399986 211.08799999999997,459.36774758399986 211.08799999999997,459.36774758399986 211.08799999999997C459.36774758399986 211.14559999999997,459.6269475839998 211.14559999999997,462.0173475839998 211.14559999999997L464.63814758399985 211.14559999999997L464.63814758399985 209.27359999999996C464.63814758399985 207.37279999999998,464.63814758399985 207.34399999999997,464.66694758399984 207.31519999999998C464.7245475839998 207.22879999999998,464.98374758399984 206.91199999999998,465.9917475839998 205.73119999999997L466.39494758399985 205.29919999999998L466.7981475839998 204.86719999999997L467.40294758399983 204.08959999999996L468.03654758399983 203.42719999999997L468.35334758399983 203.02399999999997C468.46854758399985 202.85119999999998,468.64134758399985 202.82239999999996,468.78534758399985 202.82239999999996C468.95814758399985 202.82239999999996,469.10214758399985 202.90879999999999,469.1885475839998 203.05279999999996C469.21734758399987 203.13919999999996,469.21734758399987 203.19679999999997,469.21734758399987 205.32799999999997C469.21734758399987 205.81759999999997,469.21734758399987 206.42239999999998,469.21734758399987 207.14239999999998L469.21734758399987 211.14559999999997L469.93734758399984 211.14559999999997C470.59974758399983 211.14559999999997,470.6285475839998 211.14559999999997,470.71494758399984 211.17439999999996C470.9453475839998 211.26079999999996,471.06054758399983 211.49119999999996,471.06054758399983 211.75039999999998C471.06054758399983 211.89439999999996,471.03174758399985 212.06719999999999,470.91654758399983 212.18239999999997C470.74374758399983 212.32639999999998,470.71494758399984 212.32639999999998,469.93734758399984 212.32639999999998L469.21734758399987 212.32639999999998L469.21734758399987 212.81599999999997C469.24614758399986 214.28479999999996,469.5341475839998 214.86079999999998,470.65734758399987 215.46559999999997C471.06054758399983 215.66719999999998,471.14694758399986 215.72479999999996,471.14694758399986 216.01279999999997C471.14694758399986 216.21439999999998,471.0893475839998 216.30079999999998,470.9453475839998 216.41599999999997L470.85894758399985 216.44479999999996L466.91334758399984 216.44479999999996L462.9965475839998 216.44479999999996L462.91014758399984 216.41599999999997C462.73734758399985 216.30079999999998,462.70854758399986 216.21439999999998,462.70854758399986 216.01279999999997C462.70854758399986 215.72479999999996,462.73734758399985 215.66719999999998,463.16934758399987 215.46559999999997C464.29254758399986 214.86079999999998,464.5805475839998 214.28479999999996,464.5805475839998 212.81599999999997L464.5805475839998 212.32639999999998L461.26854758399986 212.32639999999998C460.66374758399985 212.38399999999996,460.17414758399985 212.38399999999996,459.7709475839998 212.38399999999996C457.95654758399985 212.38399999999996,457.92774758399986 212.32639999999998,457.8989475839998 212.32639999999998C457.7261475839998 212.26879999999997,457.66854758399984 212.09599999999998,457.66854758399984 211.89439999999996C457.66854758399984 211.89439999999996,457.66854758399984 211.89439999999996,457.66854758399984 211.89439999999996C457.66854758399984 211.69279999999998,457.66854758399984 211.69279999999998,458.24454758399986 211.0304C460.66374758399985 208.09279999999998,462.3629475839998 203.83039999999997,462.3629475839998 200.43199999999996C462.3629475839998 199.91359999999997,462.44934758399984 199.74079999999998,462.6797475839998 199.65439999999998M464.4077475839998 218.02879999999996L464.4365475839998 218.02879999999996L464.35014758399984 218.02879999999996L464.4077475839998 218.02879999999996M464.4077475839998 198.61759999999998L464.4365475839998 198.61759999999998L464.35014758399984 198.61759999999998L464.4077475839998 198.61759999999998">
</path>
<g class="vf-stavenote" id="vf-auto70044">
<g class="vf-note" pointer-events="bounding-box">
<g class="vf-notehead" pointer-events="bounding-box">
<path stroke-width="0.3" fill="#000000" stroke="none" stroke-dasharray="none" d="M509.0110243839999 197.99999999999997M516.3679843839999 192.77711999999997C516.4803043839999 192.77711999999997,516.6487843839999 192.77711999999997,516.6768643839998 192.77711999999997C516.6768643839998 192.77711999999997,516.7049443839999 192.77711999999997,516.7049443839999 192.77711999999997C516.7049443839999 192.77711999999997,516.8734243839999 192.77711999999997,517.0138243839999 192.77711999999997C519.5410243839999 192.91751999999997,521.0292643839999 194.57423999999997,521.0292643839999 196.65215999999998C521.0292643839999 197.66303999999997,520.6923043839998 198.81431999999998,519.8499043839998 199.90943999999996C518.2493443839999 202.07159999999996,515.6379043839999 203.25095999999996,513.3634243839999 203.25095999999996C511.5943843839999 203.25095999999996,510.0780643839999 202.54895999999997,509.34798438399986 201.11687999999998C509.1233443839999 200.55527999999998,509.0110243839999 200.02175999999997,509.0110243839999 199.43207999999998C509.0110243839999 196.37135999999998,512.4367843839999 192.97367999999997,516.3679843839999 192.77711999999997">
</path>
</g>
</g>
<g class="vf-modifiers">
<g class="vf-stavenote" id="vf-auto70054">
<g class="vf-note" pointer-events="bounding-box">
<g class="vf-stem" pointer-events="bounding-box">
<path stroke-width="1.5" fill="none" stroke="#000000" stroke-dasharray="none" d="M490.32898598399987 197.99999999999997L490.32898598399987 174.89999999999998">
</path>
</g>
<g class="vf-notehead" pointer-events="bounding-box">
<path stroke-width="0.3" fill="#000000" stroke="none" stroke-dasharray="none" d="M483.14694758399986 197.99999999999997M488.0025411839999 194.55289919999998C488.07667238399983 194.55289919999998,488.18786918399985 194.55289919999998,488.20640198399985 194.55289919999998C488.20640198399985 194.55289919999998,488.22493478399986 194.55289919999998,488.22493478399986 194.55289919999998C488.22493478399986 194.55289919999998,488.3361315839999 194.55289919999998,488.4287955839999 194.55289919999998C490.09674758399984 194.64556319999997,491.07898598399987 195.73899839999996,491.07898598399987 197.11042559999999C491.07898598399987 197.77760639999997,490.85659238399984 198.53745119999996,490.3006083839999 199.26023039999998C489.2442387839999 200.68725599999996,487.52068838399987 201.46563359999996,486.0195315839999 201.46563359999996C484.8519651839999 201.46563359999996,483.85119398399985 201.00231359999998,483.36934118399984 200.05714079999998C483.22107878399987 199.68648479999996,483.14694758399986 199.33436159999997,483.14694758399986 198.94517279999997C483.14694758399986 196.92509759999996,485.40794918399985 194.68262879999997,488.0025411839999 194.55289919999998">
</path>
</g>
<g class="vf-flag" pointer-events="bounding-box">
<path stroke-width="0.3" fill="#000000" stroke="none" stroke-dasharray="none" d="M490.32898598399987 172.89999999999998M489.88419878399986 175.88378079999998L489.88419878399986 172.992664L489.9583299839999 172.992664C490.16219078399985 172.992664,490.29192038399987 173.12239359999998,490.32898598399987 173.34478719999998C490.71817478399987 175.19806719999997,491.88574118399987 177.21814239999998,493.4980947839999 178.73783199999997C495.29577638399985 180.42431679999999,496.20388358399987 182.74091679999998,496.20388358399987 185.13164799999998C496.20388358399987 187.39264959999997,495.40697318399987 189.74631519999997,493.79461958399986 191.69225919999997C493.5166275839999 192.06291519999996,493.4980947839999 192.06291519999996,493.31276678399985 192.06291519999996C493.0903731839999 192.06291519999996,492.94211078399985 191.89611999999997,492.94211078399985 191.67372639999996C492.94211078399985 191.50693119999997,492.96064358399985 191.4698656,493.1459715839999 191.2660048C494.55446438399986 189.56098719999997,495.25871078399985 187.5038464,495.25871078399985 185.5393696C495.25871078399985 183.7972864,494.7027267839999 182.12933439999998,493.5536931839999 180.86910399999996C492.8494467839999 180.09072639999997,491.5521507839999 179.34941439999997,489.90273158399987 178.77489759999997C489.90273158399987 178.75636479999997,489.88419878399986 178.18184799999997,489.88419878399986 175.88378079999998">
</path>
</g>
</g>
<g class="vf-modifiers">
</g>
</g>
<path stroke-width="1" fill="none" stroke="#000000" stroke-dasharray="none" d="M484.14694758399986 189.74999999999997L497.14694758399986 180.74999999999997Z">
</path>
</g>
</g>
<g class="vf-stavenote" id="vf-auto70068">
<g class="vf-note" pointer-events="bounding-box">
<g class="vf-notehead" pointer-events="bounding-box">
<path stroke-width="0.3" fill="#000000" stroke="none" stroke-dasharray="none" d="M540.9526051839998 197.99999999999997M548.3095651839998 192.77711999999997C548.4218851839998 192.77711999999997,548.5903651839998 192.77711999999997,548.6184451839998 192.77711999999997C548.6184451839998 192.77711999999997,548.6465251839999 192.77711999999997,548.6465251839999 192.77711999999997C548.6465251839999 192.77711999999997,548.8150051839998 192.77711999999997,548.9554051839998 192.77711999999997C551.4826051839998 192.91751999999997,552.9708451839998 194.57423999999997,552.9708451839998 196.65215999999998C552.9708451839998 197.66303999999997,552.6338851839998 198.81431999999998,551.7914851839998 199.90943999999996C550.1909251839999 202.07159999999996,547.5794851839999 203.25095999999996,545.3050051839998 203.25095999999996C543.5359651839998 203.25095999999996,542.0196451839998 202.54895999999997,541.2895651839998 201.11687999999998C541.0649251839998 200.55527999999998,540.9526051839998 200.02175999999997,540.9526051839998 199.43207999999998C540.9526051839998 196.37135999999998,544.3783651839998 192.97367999999997,548.3095651839998 192.77711999999997">
</path>
</g>
</g>
<g class="vf-modifiers">
</g>
</g>
<g class="vf-stavenote" id="vf-auto70078">
<g class="vf-note" pointer-events="bounding-box">
<g class="vf-notehead" pointer-events="bounding-box">
<path stroke-width="0.3" fill="#000000" stroke="none" stroke-dasharray="none" d="M572.8941859839999 197.99999999999997M580.2511459839999 192.77711999999997C580.363465984 192.77711999999997,580.5319459839999 192.77711999999997,580.5600259839999 192.77711999999997C580.5600259839999 192.77711999999997,580.588105984 192.77711999999997,580.588105984 192.77711999999997C580.588105984 192.77711999999997,580.7565859839999 192.77711999999997,580.8969859839999 192.77711999999997C583.4241859839999 192.91751999999997,584.9124259839999 194.57423999999997,584.9124259839999 196.65215999999998C584.9124259839999 197.66303999999997,584.575465984 198.81431999999998,583.733065984 199.90943999999996C582.132505984 202.07159999999996,579.521065984 203.25095999999996,577.2465859839999 203.25095999999996C575.4775459839999 203.25095999999996,573.961225984 202.54895999999997,573.2311459839999 201.11687999999998C573.0065059839999 200.55527999999998,572.8941859839999 200.02175999999997,572.8941859839999 199.43207999999998C572.8941859839999 196.37135999999998,576.3199459839999 192.97367999999997,580.2511459839999 192.77711999999997">
</path>
</g>
</g>
<g class="vf-modifiers">
</g>
</g>
<g class="vf-stavenote" id="vf-auto70088">
<g class="vf-note" pointer-events="bounding-box">
<g class="vf-notehead" pointer-events="bounding-box">
<path stroke-width="0.3" fill="#000000" stroke="none" stroke-dasharray="none" d="M604.8357667839999 197.99999999999997M612.1927267839999 192.77711999999997C612.305046784 192.77711999999997,612.4735267839999 192.77711999999997,612.5016067839999 192.77711999999997C612.5016067839999 192.77711999999997,612.529686784 192.77711999999997,612.529686784 192.77711999999997C612.529686784 192.77711999999997,612.6981667839999 192.77711999999997,612.8385667839999 192.77711999999997C615.3657667839999 192.91751999999997,616.8540067839999 194.57423999999997,616.8540067839999 196.65215999999998C616.8540067839999 197.66303999999997,616.517046784 198.81431999999998,615.674646784 199.90943999999996C614.074086784 202.07159999999996,611.462646784 203.25095999999996,609.1881667839999 203.25095999999996C607.4191267839999 203.25095999999996,605.902806784 202.54895999999997,605.1727267839999 201.11687999999998C604.9480867839999 200.55527999999998,604.8357667839999 200.02175999999997,604.8357667839999 199.43207999999998C604.8357667839999 196.37135999999998,608.2615267839999 192.97367999999997,612.1927267839999 192.77711999999997">
</path>
</g>
</g>
<g class="vf-modifiers">
</g>
</g>
<g class="vf-stavenote" id="vf-auto70098">
<g class="vf-note" pointer-events="bounding-box">
<g class="vf-notehead" pointer-events="bounding-box">
<path stroke-width="0.3" fill="#000000" stroke="none" stroke-dasharray="none" d="M662.641424384 197.99999999999997M669.9983843839999 192.77711999999997C670.110704384 192.77711999999997,670.2791843839999 192.77711999999997,670.307264384 192.77711999999997C670.307264384 192.77711999999997,670.335344384 192.77711999999997,670.335344384 192.77711999999997C670.335344384 192.77711999999997,670.5038243839999 192.77711999999997,670.6442243839999 192.77711999999997C673.1714243839999 192.91751999999997,674.6596643839999 194.57423999999997,674.6596643839999 196.65215999999998C674.6596643839999 197.66303999999997,674.322704384 198.81431999999998,673.480304384 199.90943999999996C671.879744384 202.07159999999996,669.268304384 203.25095999999996,666.9938243839999 203.25095999999996C665.2247843839999 203.25095999999996,663.708464384 202.54895999999997,662.9783843839999 201.11687999999998C662.7537443839999 200.55527999999998,662.641424384 200.02175999999997,662.641424384 199.43207999999998C662.641424384 196.37135999999998,666.0671843839999 192.97367999999997,669.9983843839999 192.77711999999997">
</path>
</g>
</g>
<g class="vf-modifiers">
<g class="vf-stavenote" id="vf-auto70108">
<g class="vf-note" pointer-events="bounding-box">
<g class="vf-stem" pointer-events="bounding-box">
<path stroke-width="1.5" fill="none" stroke="#000000" stroke-dasharray="none" d="M643.9593859839999 197.99999999999997L643.9593859839999 174.89999999999998">
</path>
</g>
<g class="vf-notehead" pointer-events="bounding-box">
<path stroke-width="0.3" fill="#000000" stroke="none" stroke-dasharray="none" d="M636.7773475839999 197.99999999999997M641.632941184 194.55289919999998C641.707072384 194.55289919999998,641.818269184 194.55289919999998,641.836801984 194.55289919999998C641.836801984 194.55289919999998,641.855334784 194.55289919999998,641.855334784 194.55289919999998C641.855334784 194.55289919999998,641.9665315839999 194.55289919999998,642.0591955839999 194.55289919999998C643.7271475839999 194.64556319999997,644.7093859839999 195.73899839999996,644.7093859839999 197.11042559999999C644.7093859839999 197.77760639999997,644.4869923839999 198.53745119999996,643.9310083839999 199.26023039999998C642.8746387839999 200.68725599999996,641.1510883839999 201.46563359999996,639.6499315839999 201.46563359999996C638.482365184 201.46563359999996,637.4815939839999 201.00231359999998,636.999741184 200.05714079999998C636.8514787839999 199.68648479999996,636.7773475839999 199.33436159999997,636.7773475839999 198.94517279999997C636.7773475839999 196.92509759999996,639.0383491839999 194.68262879999997,641.632941184 194.55289919999998">
</path>
</g>
<g class="vf-flag" pointer-events="bounding-box">
<path stroke-width="0.3" fill="#000000" stroke="none" stroke-dasharray="none" d="M643.9593859839999 172.89999999999998M643.514598784 175.88378079999998L643.514598784 172.992664L643.5887299839999 172.992664C643.7925907839999 172.992664,643.9223203839999 173.12239359999998,643.9593859839999 173.34478719999998C644.348574784 175.19806719999997,645.5161411839999 177.21814239999998,647.1284947839999 178.73783199999997C648.926176384 180.42431679999999,649.834283584 182.74091679999998,649.834283584 185.13164799999998C649.834283584 187.39264959999997,649.037373184 189.74631519999997,647.425019584 191.69225919999997C647.1470275839999 192.06291519999996,647.1284947839999 192.06291519999996,646.9431667839999 192.06291519999996C646.7207731839999 192.06291519999996,646.572510784 191.89611999999997,646.572510784 191.67372639999996C646.572510784 191.50693119999997,646.591043584 191.4698656,646.7763715839999 191.2660048C648.184864384 189.56098719999997,648.889110784 187.5038464,648.889110784 185.5393696C648.889110784 183.7972864,648.3331267839999 182.12933439999998,647.184093184 180.86910399999996C646.479846784 180.09072639999997,645.1825507839999 179.34941439999997,643.533131584 178.77489759999997C643.533131584 178.75636479999997,643.514598784 178.18184799999997,643.514598784 175.88378079999998">
</path>
</g>
</g>
<g class="vf-modifiers">
</g>
</g>
<path stroke-width="1" fill="none" stroke="#000000" stroke-dasharray="none" d="M637.7773475839999 189.74999999999997L650.7773475839999 180.74999999999997Z">
</path>
</g>
</g>
<g class="vf-stavenote" id="vf-auto70122">
<g class="vf-note" pointer-events="bounding-box">
<g class="vf-notehead" pointer-events="bounding-box">
<path stroke-width="0.3" fill="#000000" stroke="none" stroke-dasharray="none" d="M694.5830051839998 197.99999999999997M701.9399651839998 192.77711999999997C702.0522851839999 192.77711999999997,702.2207651839998 192.77711999999997,702.2488451839998 192.77711999999997C702.2488451839998 192.77711999999997,702.2769251839999 192.77711999999997,702.2769251839999 192.77711999999997C702.2769251839999 192.77711999999997,702.4454051839998 192.77711999999997,702.5858051839998 192.77711999999997C705.1130051839998 192.91751999999997,706.6012451839998 194.57423999999997,706.6012451839998 196.65215999999998C706.6012451839998 197.66303999999997,706.2642851839998 198.81431999999998,705.4218851839998 199.90943999999996C703.8213251839999 202.07159999999996,701.2098851839999 203.25095999999996,698.9354051839998 203.25095999999996C697.1663651839998 203.25095999999996,695.6500451839999 202.54895999999997,694.9199651839998 201.11687999999998C694.6953251839998 200.55527999999998,694.5830051839998 200.02175999999997,694.5830051839998 199.43207999999998C694.5830051839998 196.37135999999998,698.0087651839998 192.97367999999997,701.9399651839998 192.77711999999997">
</path>
</g>
</g>
<g class="vf-modifiers">
</g>
</g>
<g class="vf-stavenote" id="vf-auto70132">
<g class="vf-note" pointer-events="bounding-box">
<g class="vf-notehead" pointer-events="bounding-box">
<path stroke-width="0.3" fill="#000000" stroke="none" stroke-dasharray="none" d="M726.5245859839999 197.99999999999997M733.8815459839999 192.77711999999997C733.993865984 192.77711999999997,734.1623459839999 192.77711999999997,734.190425984 192.77711999999997C734.190425984 192.77711999999997,734.218505984 192.77711999999997,734.218505984 192.77711999999997C734.218505984 192.77711999999997,734.3869859839999 192.77711999999997,734.5273859839999 192.77711999999997C737.0545859839999 192.91751999999997,738.5428259839999 194.57423999999997,738.5428259839999 196.65215999999998C738.5428259839999 197.66303999999997,738.205865984 198.81431999999998,737.363465984 199.90943999999996C735.762905984 202.07159999999996,733.151465984 203.25095999999996,730.8769859839999 203.25095999999996C729.1079459839999 203.25095999999996,727.591625984 202.54895999999997,726.8615459839999 201.11687999999998C726.6369059839999 200.55527999999998,726.5245859839999 200.02175999999997,726.5245859839999 199.43207999999998C726.5245859839999 196.37135999999998,729.9503459839999 192.97367999999997,733.8815459839999 192.77711999999997">
</path>
</g>
</g>
<g class="vf-modifiers">
</g>
</g>
<g class="vf-stavenote" id="vf-auto70142">
<g class="vf-note" pointer-events="bounding-box">
<g class="vf-notehead" pointer-events="bounding-box">
<path stroke-width="0.3" fill="#000000" stroke="none" stroke-dasharray="none" d="M758.4661667839998 197.99999999999997M765.8231267839998 192.77711999999997C765.9354467839999 192.77711999999997,766.1039267839998 192.77711999999997,766.1320067839998 192.77711999999997C766.1320067839998 192.77711999999997,766.1600867839999 192.77711999999997,766.1600867839999 192.77711999999997C766.1600867839999 192.77711999999997,766.3285667839998 192.77711999999997,766.4689667839998 192.77711999999997C768.9961667839998 192.91751999999997,770.4844067839998 194.57423999999997,770.4844067839998 196.65215999999998C770.4844067839998 197.66303999999997,770.1474467839998 198.81431999999998,769.3050467839998 199.90943999999996C767.7044867839999 202.07159999999996,765.0930467839999 203.25095999999996,762.8185667839998 203.25095999999996C761.0495267839998 203.25095999999996,759.5332067839998 202.54895999999997,758.8031267839998 201.11687999999998C758.5784867839998 200.55527999999998,758.4661667839998 200.02175999999997,758.4661667839998 199.43207999999998C758.4661667839998 196.37135999999998,761.8919267839998 192.97367999999997,765.8231267839998 192.77711999999997">
</path>
</g>
</g>
<g class="vf-modifiers">
</g>
</g>
<g class="vf-stavenote" id="vf-auto70152">
<g class="vf-note" pointer-events="bounding-box">
<g class="vf-notehead" pointer-events="bounding-box">
<path stroke-width="0.3" fill="#000000" stroke="none" stroke-dasharray="none" d="M816.2718243839998 197.99999999999997M823.6287843839998 192.77711999999997C823.7411043839999 192.77711999999997,823.9095843839998 192.77711999999997,823.9376643839998 192.77711999999997C823.9376643839998 192.77711999999997,823.9657443839999 192.77711999999997,823.9657443839999 192.77711999999997C823.9657443839999 192.77711999999997,824.1342243839998 192.77711999999997,824.2746243839998 192.77711999999997C826.8018243839998 192.91751999999997,828.2900643839998 194.57423999999997,828.2900643839998 196.65215999999998C828.2900643839998 197.66303999999997,827.9531043839999 198.81431999999998,827.1107043839999 199.90943999999996C825.5101443839999 202.07159999999996,822.8987043839999 203.25095999999996,820.6242243839998 203.25095999999996C818.8551843839998 203.25095999999996,817.3388643839999 202.54895999999997,816.6087843839998 201.11687999999998C816.3841443839998 200.55527999999998,816.2718243839998 200.02175999999997,816.2718243839998 199.43207999999998C816.2718243839998 196.37135999999998,819.6975843839998 192.97367999999997,823.6287843839998 192.77711999999997">
</path>
</g>
</g>
<g class="vf-modifiers">
<g class="vf-stavenote" id="vf-auto70162">
<g class="vf-note" pointer-events="bounding-box">
<g class="vf-stem" pointer-events="bounding-box">
<path stroke-width="1.5" fill="none" stroke="#000000" stroke-dasharray="none" d="M797.5897859839998 197.99999999999997L797.5897859839998 174.89999999999998">
</path>
</g>
<g class="vf-notehead" pointer-events="bounding-box">
<path stroke-width="0.3" fill="#000000" stroke="none" stroke-dasharray="none" d="M790.4077475839998 197.99999999999997M795.2633411839998 194.55289919999998C795.3374723839999 194.55289919999998,795.4486691839999 194.55289919999998,795.4672019839999 194.55289919999998C795.4672019839999 194.55289919999998,795.4857347839999 194.55289919999998,795.4857347839999 194.55289919999998C795.4857347839999 194.55289919999998,795.5969315839998 194.55289919999998,795.6895955839998 194.55289919999998C797.3575475839998 194.64556319999997,798.3397859839998 195.73899839999996,798.3397859839998 197.11042559999999C798.3397859839998 197.77760639999997,798.1173923839998 198.53745119999996,797.5614083839998 199.26023039999998C796.5050387839998 200.68725599999996,794.7814883839998 201.46563359999996,793.2803315839998 201.46563359999996C792.1127651839998 201.46563359999996,791.1119939839998 201.00231359999998,790.6301411839999 200.05714079999998C790.4818787839998 199.68648479999996,790.4077475839998 199.33436159999997,790.4077475839998 198.94517279999997C790.4077475839998 196.92509759999996,792.6687491839998 194.68262879999997,795.2633411839998 194.55289919999998">
</path>
</g>
<g class="vf-flag" pointer-events="bounding-box">
<path stroke-width="0.3" fill="#000000" stroke="none" stroke-dasharray="none" d="M797.5897859839998 172.89999999999998M797.1449987839999 175.88378079999998L797.1449987839999 172.992664L797.2191299839998 172.992664C797.4229907839998 172.992664,797.5527203839998 173.12239359999998,797.5897859839998 173.34478719999998C797.9789747839999 175.19806719999997,799.1465411839998 177.21814239999998,800.7588947839998 178.73783199999997C802.5565763839999 180.42431679999999,803.4646835839999 182.74091679999998,803.4646835839999 185.13164799999998C803.4646835839999 187.39264959999997,802.6677731839999 189.74631519999997,801.0554195839999 191.69225919999997C800.7774275839998 192.06291519999996,800.7588947839998 192.06291519999996,800.5735667839998 192.06291519999996C800.3511731839998 192.06291519999996,800.2029107839999 191.89611999999997,800.2029107839999 191.67372639999996C800.2029107839999 191.50693119999997,800.2214435839999 191.4698656,800.4067715839998 191.2660048C801.8152643839999 189.56098719999997,802.5195107839999 187.5038464,802.5195107839999 185.5393696C802.5195107839999 183.7972864,801.9635267839998 182.12933439999998,800.8144931839998 180.86910399999996C800.1102467839999 180.09072639999997,798.8129507839998 179.34941439999997,797.1635315839999 178.77489759999997C797.1635315839999 178.75636479999997,797.1449987839999 178.18184799999997,797.1449987839999 175.88378079999998">
</path>
</g>
</g>
<g class="vf-modifiers">
</g>
</g>
<path stroke-width="1" fill="none" stroke="#000000" stroke-dasharray="none" d="M791.4077475839998 189.74999999999997L804.4077475839998 180.74999999999997Z">
</path>
</g>
</g>
<g class="vf-stavenote" id="vf-auto70176">
<g class="vf-note" pointer-events="bounding-box">
<g class="vf-notehead" pointer-events="bounding-box">
<path stroke-width="0.3" fill="#000000" stroke="none" stroke-dasharray="none" d="M848.2134051839998 197.99999999999997M855.5703651839998 192.77711999999997C855.6826851839999 192.77711999999997,855.8511651839998 192.77711999999997,855.8792451839998 192.77711999999997C855.8792451839998 192.77711999999997,855.9073251839999 192.77711999999997,855.9073251839999 192.77711999999997C855.9073251839999 192.77711999999997,856.0758051839998 192.77711999999997,856.2162051839998 192.77711999999997C858.7434051839998 192.91751999999997,860.2316451839998 194.57423999999997,860.2316451839998 196.65215999999998C860.2316451839998 197.66303999999997,859.8946851839999 198.81431999999998,859.0522851839999 199.90943999999996C857.4517251839999 202.07159999999996,854.8402851839999 203.25095999999996,852.5658051839998 203.25095999999996C850.7967651839998 203.25095999999996,849.2804451839999 202.54895999999997,848.5503651839998 201.11687999999998C848.3257251839998 200.55527999999998,848.2134051839998 200.02175999999997,848.2134051839998 199.43207999999998C848.2134051839998 196.37135999999998,851.6391651839998 192.97367999999997,855.5703651839998 192.77711999999997">
</path>
</g>
</g>
<g class="vf-modifiers">
</g>
</g>
<g class="vf-stavenote" id="vf-auto70186">
<g class="vf-note" pointer-events="bounding-box">
<g class="vf-notehead" pointer-events="bounding-box">
<path stroke-width="0.3" fill="#000000" stroke="none" stroke-dasharray="none" d="M880.154985984 197.99999999999997M887.5119459839999 192.77711999999997C887.624265984 192.77711999999997,887.7927459839999 192.77711999999997,887.820825984 192.77711999999997C887.820825984 192.77711999999997,887.848905984 192.77711999999997,887.848905984 192.77711999999997C887.848905984 192.77711999999997,888.0173859839999 192.77711999999997,888.1577859839999 192.77711999999997C890.6849859839999 192.91751999999997,892.1732259839999 194.57423999999997,892.1732259839999 196.65215999999998C892.1732259839999 197.66303999999997,891.836265984 198.81431999999998,890.993865984 199.90943999999996C889.393305984 202.07159999999996,886.781865984 203.25095999999996,884.5073859839999 203.25095999999996C882.7383459839999 203.25095999999996,881.222025984 202.54895999999997,880.4919459839999 201.11687999999998C880.2673059839999 200.55527999999998,880.154985984 200.02175999999997,880.154985984 199.43207999999998C880.154985984 196.37135999999998,883.5807459839999 192.97367999999997,887.5119459839999 192.77711999999997">
</path>
</g>
</g>
<g class="vf-modifiers">
</g>
</g>
<g class="vf-stavenote" id="vf-auto70196">
<g class="vf-note" pointer-events="bounding-box">
<g class="vf-notehead" pointer-events="bounding-box">
<path stroke-width="0.3" fill="#000000" stroke="none" stroke-dasharray="none" d="M912.0965667839998 197.99999999999997M919.4535267839998 192.77711999999997C919.5658467839999 192.77711999999997,919.7343267839998 192.77711999999997,919.7624067839998 192.77711999999997C919.7624067839998 192.77711999999997,919.7904867839999 192.77711999999997,919.7904867839999 192.77711999999997C919.7904867839999 192.77711999999997,919.9589667839998 192.77711999999997,920.0993667839998 192.77711999999997C922.6265667839998 192.91751999999997,924.1148067839998 194.57423999999997,924.1148067839998 196.65215999999998C924.1148067839998 197.66303999999997,923.7778467839998 198.81431999999998,922.9354467839999 199.90943999999996C921.3348867839999 202.07159999999996,918.7234467839999 203.25095999999996,916.4489667839998 203.25095999999996C914.6799267839998 203.25095999999996,913.1636067839999 202.54895999999997,912.4335267839998 201.11687999999998C912.2088867839998 200.55527999999998,912.0965667839998 200.02175999999997,912.0965667839998 199.43207999999998C912.0965667839998 196.37135999999998,915.5223267839998 192.97367999999997,919.4535267839998 192.77711999999997">
</path>
</g>
</g>
<g class="vf-modifiers">
</g>
</g>
<g class="vf-stavenote" id="vf-auto70206">
<g class="vf-note" pointer-events="bounding-box">
<g class="vf-notehead" pointer-events="bounding-box">
<path stroke-width="0.3" fill="#000000" stroke="none" stroke-dasharray="none" d="M969.902224384 197.99999999999997M977.2591843839999 192.77711999999997C977.371504384 192.77711999999997,977.5399843839999 192.77711999999997,977.568064384 192.77711999999997C977.568064384 192.77711999999997,977.596144384 192.77711999999997,977.596144384 192.77711999999997C977.596144384 192.77711999999997,977.764624384 192.77711999999997,977.905024384 192.77711999999997C980.4322243839999 192.91751999999997,981.920464384 194.57423999999997,981.920464384 196.65215999999998C981.920464384 197.66303999999997,981.583504384 198.81431999999998,980.741104384 199.90943999999996C979.140544384 202.07159999999996,976.529104384 203.25095999999996,974.254624384 203.25095999999996C972.4855843839999 203.25095999999996,970.969264384 202.54895999999997,970.2391843839999 201.11687999999998C970.0145443839999 200.55527999999998,969.902224384 200.02175999999997,969.902224384 199.43207999999998C969.902224384 196.37135999999998,973.3279843839999 192.97367999999997,977.2591843839999 192.77711999999997">
</path>
</g>
</g>
<g class="vf-modifiers">
<g class="vf-stavenote" id="vf-auto70216">
<g class="vf-note" pointer-events="bounding-box">
<g class="vf-stem" pointer-events="bounding-box">
<path stroke-width="1.5" fill="none" stroke="#000000" stroke-dasharray="none" d="M951.220185984 197.99999999999997L951.220185984 174.89999999999998">
</path>
</g>
<g class="vf-notehead" pointer-events="bounding-box">
<path stroke-width="0.3" fill="#000000" stroke="none" stroke-dasharray="none" d="M944.038147584 197.99999999999997M948.893741184 194.55289919999998C948.967872384 194.55289919999998,949.079069184 194.55289919999998,949.097601984 194.55289919999998C949.097601984 194.55289919999998,949.116134784 194.55289919999998,949.116134784 194.55289919999998C949.116134784 194.55289919999998,949.2273315839999 194.55289919999998,949.3199955839999 194.55289919999998C950.9879475839999 194.64556319999997,951.970185984 195.73899839999996,951.970185984 197.11042559999999C951.970185984 197.77760639999997,951.7477923839999 198.53745119999996,951.191808384 199.26023039999998C950.1354387839999 200.68725599999996,948.4118883839999 201.46563359999996,946.9107315839999 201.46563359999996C945.743165184 201.46563359999996,944.7423939839999 201.00231359999998,944.260541184 200.05714079999998C944.112278784 199.68648479999996,944.038147584 199.33436159999997,944.038147584 198.94517279999997C944.038147584 196.92509759999996,946.2991491839999 194.68262879999997,948.893741184 194.55289919999998">
</path>
</g>
<g class="vf-flag" pointer-events="bounding-box">
<path stroke-width="0.3" fill="#000000" stroke="none" stroke-dasharray="none" d="M951.220185984 172.89999999999998M950.775398784 175.88378079999998L950.775398784 172.992664L950.8495299839999 172.992664C951.0533907839999 172.992664,951.183120384 173.12239359999998,951.220185984 173.34478719999998C951.609374784 175.19806719999997,952.776941184 177.21814239999998,954.389294784 178.73783199999997C956.186976384 180.42431679999999,957.095083584 182.74091679999998,957.095083584 185.13164799999998C957.095083584 187.39264959999997,956.298173184 189.74631519999997,954.685819584 191.69225919999997C954.407827584 192.06291519999996,954.389294784 192.06291519999996,954.2039667839999 192.06291519999996C953.9815731839999 192.06291519999996,953.833310784 191.89611999999997,953.833310784 191.67372639999996C953.833310784 191.50693119999997,953.851843584 191.4698656,954.0371715839999 191.2660048C955.445664384 189.56098719999997,956.149910784 187.5038464,956.149910784 185.5393696C956.149910784 183.7972864,955.5939267839999 182.12933439999998,954.444893184 180.86910399999996C953.740646784 180.09072639999997,952.4433507839999 179.34941439999997,950.793931584 178.77489759999997C950.793931584 178.75636479999997,950.775398784 178.18184799999997,950.775398784 175.88378079999998">
</path>
</g>
</g>
<g class="vf-modifiers">
</g>
</g>
<path stroke-width="1" fill="none" stroke="#000000" stroke-dasharray="none" d="M945.038147584 189.74999999999997L958.038147584 180.74999999999997Z">
</path>
</g>
</g>
<g class="vf-stavenote" id="vf-auto70230">
<g class="vf-note" pointer-events="bounding-box">
<g class="vf-notehead" pointer-events="bounding-box">
<path stroke-width="0.3" fill="#000000" stroke="none" stroke-dasharray="none" d="M1001.8438051839998 197.99999999999997M1009.2007651839998 192.77711999999997C1009.3130851839999 192.77711999999997,1009.4815651839998 192.77711999999997,1009.5096451839999 192.77711999999997C1009.5096451839999 192.77711999999997,1009.5377251839999 192.77711999999997,1009.5377251839999 192.77711999999997C1009.5377251839999 192.77711999999997,1009.7062051839998 192.77711999999997,1009.8466051839998 192.77711999999997C1012.3738051839998 192.91751999999997,1013.8620451839998 194.57423999999997,1013.8620451839998 196.65215999999998C1013.8620451839998 197.66303999999997,1013.5250851839999 198.81431999999998,1012.6826851839999 199.90943999999996C1011.0821251839999 202.07159999999996,1008.4706851839999 203.25095999999996,1006.1962051839998 203.25095999999996C1004.4271651839998 203.25095999999996,1002.9108451839999 202.54895999999997,1002.1807651839998 201.11687999999998C1001.9561251839998 200.55527999999998,1001.8438051839998 200.02175999999997,1001.8438051839998 199.43207999999998C1001.8438051839998 196.37135999999998,1005.2695651839998 192.97367999999997,1009.2007651839998 192.77711999999997">
</path>
</g>
</g>
<g class="vf-modifiers">
</g>
</g>
<g class="vf-stavenote" id="vf-auto70240">
<g class="vf-note" pointer-events="bounding-box">
<g class="vf-notehead" pointer-events="bounding-box">
<path stroke-width="0.3" fill="#000000" stroke="none" stroke-dasharray="none" d="M1033.785385984 197.99999999999997M1041.142345984 192.77711999999997C1041.254665984 192.77711999999997,1041.423145984 192.77711999999997,1041.4512259839998 192.77711999999997C1041.4512259839998 192.77711999999997,1041.479305984 192.77711999999997,1041.479305984 192.77711999999997C1041.479305984 192.77711999999997,1041.647785984 192.77711999999997,1041.788185984 192.77711999999997C1044.315385984 192.91751999999997,1045.803625984 194.57423999999997,1045.803625984 196.65215999999998C1045.803625984 197.66303999999997,1045.466665984 198.81431999999998,1044.624265984 199.90943999999996C1043.023705984 202.07159999999996,1040.412265984 203.25095999999996,1038.137785984 203.25095999999996C1036.368745984 203.25095999999996,1034.8524259839999 202.54895999999997,1034.122345984 201.11687999999998C1033.897705984 200.55527999999998,1033.785385984 200.02175999999997,1033.785385984 199.43207999999998C1033.785385984 196.37135999999998,1037.211145984 192.97367999999997,1041.142345984 192.77711999999997">
</path>
</g>
</g>
<g class="vf-modifiers">
</g>
</g>
<g class="vf-stavenote" id="vf-auto70250">
<g class="vf-note" pointer-events="bounding-box">
<g class="vf-notehead" pointer-events="bounding-box">
<path stroke-width="0.3" fill="#000000" stroke="none" stroke-dasharray="none" d="M1065.7269667839998 197.99999999999997M1073.083926784 192.77711999999997C1073.1962467839999 192.77711999999997,1073.364726784 192.77711999999997,1073.3928067839997 192.77711999999997C1073.3928067839997 192.77711999999997,1073.4208867839998 192.77711999999997,1073.4208867839998 192.77711999999997C1073.4208867839998 192.77711999999997,1073.5893667839998 192.77711999999997,1073.7297667839998 192.77711999999997C1076.2569667839998 192.91751999999997,1077.745206784 194.57423999999997,1077.745206784 196.65215999999998C1077.745206784 197.66303999999997,1077.4082467839999 198.81431999999998,1076.5658467839999 199.90943999999996C1074.9652867839998 202.07159999999996,1072.3538467839999 203.25095999999996,1070.0793667839998 203.25095999999996C1068.310326784 203.25095999999996,1066.7940067839997 202.54895999999997,1066.063926784 201.11687999999998C1065.8392867839998 200.55527999999998,1065.7269667839998 200.02175999999997,1065.7269667839998 199.43207999999998C1065.7269667839998 196.37135999999998,1069.152726784 192.97367999999997,1073.083926784 192.77711999999997">
</path>
</g>
</g>
<g class="vf-modifiers">
</g>
</g>
<path stroke-width="1.5" fill="none" stroke="#000000" stroke-dasharray="none" d="M520.2792643839999 197.99999999999997L520.2792643839999 163.74999999999997">
</path>
<path stroke-width="1.5" fill="none" stroke="#000000" stroke-dasharray="none" d="M552.2208451839998 197.99999999999997L552.2208451839998 163.74999999999997">
</path>
<path stroke-width="1.5" fill="none" stroke="#000000" stroke-dasharray="none" d="M584.1624259839999 197.99999999999997L584.1624259839999 163.74999999999997">
</path>
<path stroke-width="1.5" fill="none" stroke="#000000" stroke-dasharray="none" d="M616.1040067839999 197.99999999999997L616.1040067839999 163.74999999999997">
</path>
<path stroke-width="0.3" fill="#000000" stroke="none" stroke-dasharray="none" d="M519.5292643839999 162.99999999999997L519.5292643839999 167.99999999999997L616.3540067839999 167.99999999999997L616.3540067839999 162.99999999999997Z">
</path>
<path stroke-width="0.3" fill="#000000" stroke="none" stroke-dasharray="none" d="M519.5292643839999 170.49999999999997L519.5292643839999 175.49999999999997L616.3540067839999 175.49999999999997L616.3540067839999 170.49999999999997Z">
</path>
<path stroke-width="1.5" fill="none" stroke="#000000" stroke-dasharray="none" d="M673.9096643839999 197.99999999999997L673.9096643839999 163.74999999999997">
</path>
<path stroke-width="1.5" fill="none" stroke="#000000" stroke-dasharray="none" d="M705.8512451839998 197.99999999999997L705.8512451839998 163.74999999999997">
</path>
<path stroke-width="1.5" fill="none" stroke="#000000" stroke-dasharray="none" d="M737.7928259839999 197.99999999999997L737.7928259839999 163.74999999999997">
</path>
<path stroke-width="1.5" fill="none" stroke="#000000" stroke-dasharray="none" d="M769.7344067839998 197.99999999999997L769.7344067839998 163.74999999999997">
</path>
<path stroke-width="0.3" fill="#000000" stroke="none" stroke-dasharray="none" d="M673.1596643839999 162.99999999999997L673.1596643839999 167.99999999999997L769.9844067839998 167.99999999999997L769.9844067839998 162.99999999999997Z">
</path>
<path stroke-width="0.3" fill="#000000" stroke="none" stroke-dasharray="none" d="M673.1596643839999 170.49999999999997L673.1596643839999 175.49999999999997L769.9844067839998 175.49999999999997L769.9844067839998 170.49999999999997Z">
</path>
<path stroke-width="1.5" fill="none" stroke="#000000" stroke-dasharray="none" d="M827.5400643839998 197.99999999999997L827.5400643839998 163.74999999999997">
</path>
<path stroke-width="1.5" fill="none" stroke="#000000" stroke-dasharray="none" d="M859.4816451839998 197.99999999999997L859.4816451839998 163.74999999999997">
</path>
<path stroke-width="1.5" fill="none" stroke="#000000" stroke-dasharray="none" d="M891.4232259839999 197.99999999999997L891.4232259839999 163.74999999999997">
</path>
<path stroke-width="1.5" fill="none" stroke="#000000" stroke-dasharray="none" d="M923.3648067839998 197.99999999999997L923.3648067839998 163.74999999999997">
</path>
<path stroke-width="0.3" fill="#000000" stroke="none" stroke-dasharray="none" d="M826.7900643839998 162.99999999999997L826.7900643839998 167.99999999999997L923.6148067839998 167.99999999999997L923.6148067839998 162.99999999999997Z">
</path>
<path stroke-width="0.3" fill="#000000" stroke="none" stroke-dasharray="none" d="M826.7900643839998 170.49999999999997L826.7900643839998 175.49999999999997L923.6148067839998 175.49999999999997L923.6148067839998 170.49999999999997Z">
</path>
<path stroke-width="1.5" fill="none" stroke="#000000" stroke-dasharray="none" d="M981.170464384 197.99999999999997L981.170464384 163.74999999999997">
</path>
<path stroke-width="1.5" fill="none" stroke="#000000" stroke-dasharray="none" d="M1013.1120451839998 197.99999999999997L1013.1120451839998 163.74999999999997">
</path>
<path stroke-width="1.5" fill="none" stroke="#000000" stroke-dasharray="none" d="M1045.053625984 197.99999999999997L1045.053625984 163.74999999999997">
</path>
<path stroke-width="1.5" fill="none" stroke="#000000" stroke-dasharray="none" d="M1076.995206784 197.99999999999997L1076.995206784 163.74999999999997">
</path>
<path stroke-width="0.3" fill="#000000" stroke="none" stroke-dasharray="none" d="M980.420464384 162.99999999999997L980.420464384 167.99999999999997L1077.245206784 167.99999999999997L1077.245206784 162.99999999999997Z">
</path>
<path stroke-width="0.3" fill="#000000" stroke="none" stroke-dasharray="none" d="M980.420464384 170.49999999999997L980.420464384 175.49999999999997L1077.245206784 175.49999999999997L1077.245206784 170.49999999999997Z">
</path>
</svg>