<svg width="661" height="100" viewBox="0 0 661 100">
<path stroke-width="1" fill="none" stroke="#999999" stroke-dasharray="none" d="M0 40L360 40"></path>
<path stroke-width="1" fill="none" stroke="#999999" stroke-dasharray="none" d="M0 50L360 50"></path>
<path stroke-width="1" fill="none" stroke="#999999" stroke-dasharray="none" d="M0 60L360 60"></path>
<path stroke-width="1" fill="none" stroke="#999999" stroke-dasharray="none" d="M0 70L360 70"></path>
<path stroke-width="1" fill="none" stroke="#999999" stroke-dasharray="none" d="M0 80L360 80"></path>
<rect stroke-width="0.3" fill="black" stroke="black" stroke-dasharray="none" x="64.8416" y="39.5" width="1" height="41"></rect>
<rect stroke-width="0.3" fill="black" stroke="black" stroke-dasharray="none" x="59.8416" y="39.5" width="3" height="41"></rect>
<path stroke-width="0.3" fill="black" stroke="none" stroke-dasharray="none" d="M71.8416 55.5 A2 2 0 0 0 67.8416 55.5M67.8416 55.5 A2 2 0 0 0 71.8416 55.5"></path>
<path stroke-width="0.3" fill="black" stroke="none" stroke-dasharray="none" d="M71.8416 65.5 A2 2 0 0 0 67.8416 65.5M67.8416 65.5 A2 2 0 0 0 71.8416 65.5"></path>
<rect stroke-width="0.3" fill="black" stroke="black" stroke-dasharray="none" x="0" y="39.5" width="1" height="41"></rect>
<rect stroke-width="0.3" fill="black" stroke="black" stroke-dasharray="none" x="360" y="39.5" width="1" height="41"></rect>
<path stroke-width="0.3" fill="black" stroke="none" stroke-dasharray="none" d="M5 60M5 60L5 50.0064L7.1888000000000005 50.0064L9.4064 50.0064L9.4064 60L9.4064 70.0224L7.1888000000000005 70.0224L5 70.0224L5 60M13.8704 60.0288L13.8704 50.0064L16.116799999999998 50.0064L18.3632 50.0064L18.3632 60.0288L18.3632 70.0224L16.116799999999998 70.0224L13.8704 70.0224L13.8704 60.0288"></path>
<path stroke-width="0.3" fill="black" stroke="none" stroke-dasharray="none" d="M33.3632 61M38.3744 42.654399999999995C38.4032 42.625600000000006,38.8064 42.625600000000006,40.044799999999995 42.625600000000006C40.4192 42.625600000000006,40.8224 42.625600000000006,41.3408 42.625600000000006L44.2496 42.625600000000006L44.336 42.712C44.48 42.7984,44.5664 42.9424,44.5664 43.0576C44.5664 43.2304,44.48 43.345600000000005,44.3648 43.4608C44.336 43.547200000000004,44.0768 43.7776,43.903999999999996 44.0368L42.3776 45.7936L40.4192 48.0112L39.3824 49.192L37.8272 50.9776L35.782399999999996 53.3104C35.4368 53.7424,35.0624 54.088,35.0624 54.088C35.0624 54.088,35.0624 54.088,35.0624 54.088C35.0624 54.1456,35.3216 54.1456,37.711999999999996 54.1456L40.3328 54.1456L40.3328 52.2736C40.3328 50.3728,40.3328 50.344,40.361599999999996 50.315200000000004C40.4192 50.2288,40.678399999999996 49.912,41.6864 48.7312L42.0896 48.2992L42.4928 47.8672L43.0976 47.089600000000004L43.7312 46.4272L44.048 46.024C44.163199999999996 45.8512,44.336 45.8224,44.48 45.8224C44.6528 45.8224,44.7968 45.9088,44.8832 46.052800000000005C44.912 46.1392,44.912 46.196799999999996,44.912 48.328C44.912 48.8176,44.912 49.422399999999996,44.912 50.1424L44.912 54.1456L45.632 54.1456C46.294399999999996 54.1456,46.3232 54.1456,46.4096 54.1744C46.64 54.2608,46.7552 54.4912,46.7552 54.7504C46.7552 54.8944,46.7264 55.0672,46.6112 55.1824C46.4384 55.3264,46.4096 55.3264,45.632 55.3264L44.912 55.3264L44.912 55.816C44.940799999999996 57.2848,45.2288 57.8608,46.352 58.4656C46.7552 58.6672,46.8416 58.7248,46.8416 59.0128C46.8416 59.2144,46.784 59.3008,46.64 59.416L46.5536 59.4448L42.608 59.4448L38.6912 59.4448L38.6048 59.416C38.432 59.3008,38.4032 59.2144,38.4032 59.0128C38.4032 58.7248,38.432 58.6672,38.864 58.4656C39.9872 57.8608,40.2752 57.2848,40.2752 55.816L40.2752 55.3264L36.9632 55.3264C36.358399999999996 55.384,35.8688 55.384,35.4656 55.384C33.651199999999996 55.384,33.6224 55.3264,33.5936 55.3264C33.4208 55.2688,33.3632 55.096000000000004,33.3632 54.8944C33.3632 54.8944,33.3632 54.8944,33.3632 54.8944C33.3632 54.6928,33.3632 54.6928,33.9392 54.0304C36.358399999999996 51.0928,38.0576 46.8304,38.0576 43.432C38.0576 42.9136,38.144 42.7408,38.3744 42.654399999999995M40.102399999999996 61.0288L40.1312 61.0288L40.044799999999995 61.0288L40.102399999999996 61.0288M40.102399999999996 41.617599999999996L40.1312 41.617599999999996L40.044799999999995 41.617599999999996L40.102399999999996 41.617599999999996"></path>
<path stroke-width="0.3" fill="black" stroke="none" stroke-dasharray="none" d="M33.3632 81M38.3744 62.654399999999995C38.4032 62.625600000000006,38.8064 62.625600000000006,40.044799999999995 62.625600000000006C40.4192 62.625600000000006,40.8224 62.625600000000006,41.3408 62.625600000000006L44.2496 62.625600000000006L44.336 62.712C44.48 62.7984,44.5664 62.9424,44.5664 63.0576C44.5664 63.2304,44.48 63.345600000000005,44.3648 63.4608C44.336 63.547200000000004,44.0768 63.7776,43.903999999999996 64.0368L42.3776 65.7936L40.4192 68.0112L39.3824 69.19200000000001L37.8272 70.9776L35.782399999999996 73.3104C35.4368 73.7424,35.0624 74.088,35.0624 74.088C35.0624 74.088,35.0624 74.088,35.0624 74.088C35.0624 74.1456,35.3216 74.1456,37.711999999999996 74.1456L40.3328 74.1456L40.3328 72.2736C40.3328 70.3728,40.3328 70.344,40.361599999999996 70.3152C40.4192 70.2288,40.678399999999996 69.912,41.6864 68.7312L42.0896 68.2992L42.4928 67.8672L43.0976 67.0896L43.7312 66.4272L44.048 66.024C44.163199999999996 65.8512,44.336 65.8224,44.48 65.8224C44.6528 65.8224,44.7968 65.9088,44.8832 66.0528C44.912 66.1392,44.912 66.1968,44.912 68.328C44.912 68.8176,44.912 69.4224,44.912 70.1424L44.912 74.1456L45.632 74.1456C46.294399999999996 74.1456,46.3232 74.1456,46.4096 74.1744C46.64 74.2608,46.7552 74.4912,46.7552 74.7504C46.7552 74.8944,46.7264 75.0672,46.6112 75.1824C46.4384 75.3264,46.4096 75.3264,45.632 75.3264L44.912 75.3264L44.912 75.816C44.940799999999996 77.2848,45.2288 77.8608,46.352 78.4656C46.7552 78.6672,46.8416 78.7248,46.8416 79.0128C46.8416 79.2144,46.784 79.3008,46.64 79.416L46.5536 79.4448L42.608 79.4448L38.6912 79.4448L38.6048 79.416C38.432 79.3008,38.4032 79.2144,38.4032 79.0128C38.4032 78.7248,38.432 78.6672,38.864 78.4656C39.9872 77.8608,40.2752 77.2848,40.2752 75.816L40.2752 75.3264L36.9632 75.3264C36.358399999999996 75.384,35.8688 75.384,35.4656 75.384C33.651199999999996 75.384,33.6224 75.3264,33.5936 75.3264C33.4208 75.2688,33.3632 75.096,33.3632 74.8944C33.3632 74.8944,33.3632 74.8944,33.3632 74.8944C33.3632 74.6928,33.3632 74.6928,33.9392 74.0304C36.358399999999996 71.0928,38.0576 66.8304,38.0576 63.432C38.0576 62.9136,38.144 62.7408,38.3744 62.654399999999995M40.102399999999996 81.0288L40.1312 81.0288L40.044799999999995 81.0288L40.102399999999996 81.0288M40.102399999999996 61.617599999999996L40.1312 61.617599999999996L40.044799999999995 61.617599999999996L40.102399999999996 61.617599999999996"></path>
<path stroke-width="1" fill="none" stroke="#999999" stroke-dasharray="none" d="M360 40L660 40"></path>
<path stroke-width="1" fill="none" stroke="#999999" stroke-dasharray="none" d="M360 50L660 50"></path>
<path stroke-width="1" fill="none" stroke="#999999" stroke-dasharray="none" d="M360 60L660 60"></path>
<path stroke-width="1" fill="none" stroke="#999999" stroke-dasharray="none" d="M360 70L660 70"></path>
<path stroke-width="1" fill="none" stroke="#999999" stroke-dasharray="none" d="M360 80L660 80"></path>
<rect stroke-width="0.3" fill="black" stroke="black" stroke-dasharray="none" x="360" y="39.5" width="1" height="41"></rect>
<rect stroke-width="0.3" fill="black" stroke="black" stroke-dasharray="none" x="655" y="39.5" width="1" height="41"></rect>
<rect stroke-width="0.3" fill="black" stroke="black" stroke-dasharray="none" x="658" y="39.5" width="3" height="41"></rect>
<path stroke-width="0.3" fill="black" stroke="none" stroke-dasharray="none" d="M654 55.5 A2 2 0 0 0 650 55.5M650 55.5 A2 2 0 0 0 654 55.5"></path>
<path stroke-width="0.3" fill="black" stroke="none" stroke-dasharray="none" d="M654 65.5 A2 2 0 0 0 650 65.5M650 65.5 A2 2 0 0 0 654 65.5"></path>
<g class="vf-stavenote" id="vf-auto1013"><g class="vf-note" pointer-events="bounding-box"><g class="vf-notehead" pointer-events="bounding-box">
<path stroke-width="0.3" fill="black" stroke="none" stroke-dasharray="none" d="M78.8416 60M86.19856 54.77712C86.31088 54.77712,86.47936 54.77712,86.50744 54.77712C86.50744 54.77712,86.53552 54.77712,86.53552 54.77712C86.53552 54.77712,86.704 54.77712,86.84440000000001 54.77712C89.3716 54.917519999999996,90.85984 56.57424,90.85984 58.65216C90.85984 59.66304,90.52288 60.81432,89.68048 61.909440000000004C88.07992 64.0716,85.46848 65.25096,83.194 65.25096C81.42496 65.25096,79.90864 64.54896,79.17856 63.11688C78.95392 62.55528,78.8416 62.02176,78.8416 61.43208C78.8416 58.37136,82.26736 54.97368,86.19856 54.77712"></path></g></g>
<g class="vf-modifiers"></g></g><g class="vf-stavenote" id="vf-auto1020"><g class="vf-note" pointer-events="bounding-box"><g class="vf-notehead" pointer-events="bounding-box">
<path stroke-width="0.3" fill="black" stroke="none" stroke-dasharray="none" d="M114.2364 60M121.59336 54.77712C121.70568 54.77712,121.87416 54.77712,121.90224 54.77712C121.90224 54.77712,121.93032000000001 54.77712,121.93032000000001 54.77712C121.93032000000001 54.77712,122.0988 54.77712,122.23920000000001 54.77712C124.7664 54.917519999999996,126.25464000000001 56.57424,126.25464000000001 58.65216C126.25464000000001 59.66304,125.91768 60.81432,125.07528 61.909440000000004C123.47472 64.0716,120.86328 65.25096,118.5888 65.25096C116.81976 65.25096,115.30344000000001 64.54896,114.57336000000001 63.11688C114.34872 62.55528,114.2364 62.02176,114.2364 61.43208C114.2364 58.37136,117.66216 54.97368,121.59336 54.77712"></path></g></g><g class="vf-modifiers"></g></g><g class="vf-stavenote" id="vf-auto1027"><g class="vf-note" pointer-events="bounding-box"><g class="vf-notehead" pointer-events="bounding-box">
<path stroke-width="0.3" fill="black" stroke="none" stroke-dasharray="none" d="M149.6312 60M156.98816 54.77712C157.10048 54.77712,157.26896 54.77712,157.29704 54.77712C157.29704 54.77712,157.32512 54.77712,157.32512 54.77712C157.32512 54.77712,157.49360000000001 54.77712,157.63400000000001 54.77712C160.1612 54.917519999999996,161.64944 56.57424,161.64944 58.65216C161.64944 59.66304,161.31248 60.81432,160.47008 61.909440000000004C158.86952 64.0716,156.25808 65.25096,153.9836 65.25096C152.21456 65.25096,150.69824 64.54896,149.96816 63.11688C149.74352000000002 62.55528,149.6312 62.02176,149.6312 61.43208C149.6312 58.37136,153.05696 54.97368,156.98816 54.77712"></path></g></g>
<g class="vf-modifiers"></g></g><g class="vf-stavenote" id="vf-auto1034"><g class="vf-note" pointer-events="bounding-box"><g class="vf-notehead" pointer-events="bounding-box">
<path stroke-width="0.3" fill="black" stroke="none" stroke-dasharray="none" d="M185.026 60M192.38296 54.77712C192.49528 54.77712,192.66376000000002 54.77712,192.69184 54.77712C192.69184 54.77712,192.71992 54.77712,192.71992 54.77712C192.71992 54.77712,192.88840000000002 54.77712,193.02880000000002 54.77712C195.556 54.917519999999996,197.04424 56.57424,197.04424 58.65216C197.04424 59.66304,196.70728000000003 60.81432,195.86488 61.909440000000004C194.26432 64.0716,191.65288 65.25096,189.3784 65.25096C187.60936 65.25096,186.09304 64.54896,185.36296000000002 63.11688C185.13832000000002 62.55528,185.026 62.02176,185.026 61.43208C185.026 58.37136,188.45176 54.97368,192.38296 54.77712"></path></g></g>
<g class="vf-modifiers"></g></g><g class="vf-stavenote" id="vf-auto1041"><g class="vf-note" pointer-events="bounding-box"><g class="vf-notehead" pointer-events="bounding-box">
<path stroke-width="0.3" fill="black" stroke="none" stroke-dasharray="none" d="M220.4208 60M227.77776 54.77712C227.89008 54.77712,228.05856 54.77712,228.08664000000002 54.77712C228.08664000000002 54.77712,228.11472 54.77712,228.11472 54.77712C228.11472 54.77712,228.28320000000002 54.77712,228.42360000000002 54.77712C230.95080000000002 54.917519999999996,232.43904 56.57424,232.43904 58.65216C232.43904 59.66304,232.10208 60.81432,231.25968 61.909440000000004C229.65912 64.0716,227.04768 65.25096,224.7732 65.25096C223.00416 65.25096,221.48784 64.54896,220.75776000000002 63.11688C220.53312000000003 62.55528,220.4208 62.02176,220.4208 61.43208C220.4208 58.37136,223.84656 54.97368,227.77776 54.77712"></path></g></g>
<g class="vf-modifiers"></g></g><g class="vf-stavenote" id="vf-auto1048"><g class="vf-note" pointer-events="bounding-box"><g class="vf-notehead" pointer-events="bounding-box">
<path stroke-width="0.3" fill="black" stroke="none" stroke-dasharray="none" d="M255.81560000000005 60M263.17256000000003 54.77712C263.28488000000004 54.77712,263.45336000000003 54.77712,263.48144 54.77712C263.48144 54.77712,263.50952000000007 54.77712,263.50952000000007 54.77712C263.50952000000007 54.77712,263.67800000000005 54.77712,263.81840000000005 54.77712C266.34560000000005 54.917519999999996,267.83384000000007 56.57424,267.83384000000007 58.65216C267.83384000000007 59.66304,267.49688000000003 60.81432,266.65448000000004 61.909440000000004C265.05392000000006 64.0716,262.44248000000005 65.25096,260.16800000000006 65.25096C258.39896000000005 65.25096,256.88264000000004 64.54896,256.15256000000005 63.11688C255.92792000000006 62.55528,255.81560000000005 62.02176,255.81560000000005 61.43208C255.81560000000005 58.37136,259.24136000000004 54.97368,263.17256000000003 54.77712"></path></g></g>
<g class="vf-modifiers"></g></g><g class="vf-stavenote" id="vf-auto1055"><g class="vf-note" pointer-events="bounding-box"><g class="vf-notehead" pointer-events="bounding-box">
<path stroke-width="0.3" fill="black" stroke="none" stroke-dasharray="none" d="M291.21040000000005 60M298.56736000000006 54.77712C298.6796800000001 54.77712,298.84816000000006 54.77712,298.87624000000005 54.77712C298.87624000000005 54.77712,298.90432000000004 54.77712,298.90432000000004 54.77712C298.90432000000004 54.77712,299.07280000000003 54.77712,299.21320000000003 54.77712C301.7404 54.917519999999996,303.22864000000004 56.57424,303.22864000000004 58.65216C303.22864000000004 59.66304,302.89168000000006 60.81432,302.04928000000007 61.909440000000004C300.44872000000004 64.0716,297.8372800000001 65.25096,295.56280000000004 65.25096C293.7937600000001 65.25096,292.27744000000007 64.54896,291.54736 63.11688C291.32272000000006 62.55528,291.21040000000005 62.02176,291.21040000000005 61.43208C291.21040000000005 58.37136,294.6361600000001 54.97368,298.56736000000006 54.77712"></path></g></g>
<g class="vf-modifiers"></g></g><g class="vf-stavenote" id="vf-auto1062"><g class="vf-note" pointer-events="bounding-box"><g class="vf-notehead" pointer-events="bounding-box">
<path stroke-width="0.3" fill="black" stroke="none" stroke-dasharray="none" d="M326.6052000000001 60M333.9621600000001 54.77712C334.0744800000001 54.77712,334.2429600000001 54.77712,334.2710400000001 54.77712C334.2710400000001 54.77712,334.2991200000001 54.77712,334.2991200000001 54.77712C334.2991200000001 54.77712,334.46760000000006 54.77712,334.60800000000006 54.77712C337.13520000000005 54.917519999999996,338.6234400000001 56.57424,338.6234400000001 58.65216C338.6234400000001 59.66304,338.2864800000001 60.81432,337.4440800000001 61.909440000000004C335.84352000000007 64.0716,333.2320800000001 65.25096,330.95760000000007 65.25096C329.1885600000001 65.25096,327.6722400000001 64.54896,326.94216000000006 63.11688C326.7175200000001 62.55528,326.6052000000001 62.02176,326.6052000000001 61.43208C326.6052000000001 58.37136,330.0309600000001 54.97368,333.9621600000001 54.77712"></path></g></g>
<g class="vf-modifiers"></g></g><g class="vf-stavenote" id="vf-auto1069"><g class="vf-note" pointer-events="bounding-box"><g class="vf-notehead" pointer-events="bounding-box">
<path stroke-width="0.3" fill="black" stroke="none" stroke-dasharray="none" d="M377 60M384.35696 54.77712C384.46928 54.77712,384.63776 54.77712,384.66584 54.77712C384.66584 54.77712,384.69392 54.77712,384.69392 54.77712C384.69392 54.77712,384.8624 54.77712,385.0028 54.77712C387.53 54.917519999999996,389.01824 56.57424,389.01824 58.65216C389.01824 59.66304,388.68128 60.81432,387.83888 61.909440000000004C386.23832 64.0716,383.62688 65.25096,381.3524 65.25096C379.58336 65.25096,378.06704 64.54896,377.33696 63.11688C377.11232 62.55528,377 62.02176,377 61.43208C377 58.37136,380.42576 54.97368,384.35696 54.77712"></path></g></g>
<g class="vf-modifiers"></g></g><g class="vf-stavenote" id="vf-auto1076"><g class="vf-note" pointer-events="bounding-box"><g class="vf-notehead" pointer-events="bounding-box">
<path stroke-width="0.3" fill="black" stroke="none" stroke-dasharray="none" d="M412.625 60M419.98196 54.77712C420.09428 54.77712,420.26276 54.77712,420.29084 54.77712C420.29084 54.77712,420.31892 54.77712,420.31892 54.77712C420.31892 54.77712,420.4874 54.77712,420.6278 54.77712C423.155 54.917519999999996,424.64324 56.57424,424.64324 58.65216C424.64324 59.66304,424.30628 60.81432,423.46388 61.909440000000004C421.86332 64.0716,419.25188 65.25096,416.9774 65.25096C415.20836 65.25096,413.69204 64.54896,412.96196 63.11688C412.73732 62.55528,412.625 62.02176,412.625 61.43208C412.625 58.37136,416.05076 54.97368,419.98196 54.77712"></path></g></g><g class="vf-modifiers"></g></g>
<g class="vf-stavenote" id="vf-auto1083"><g class="vf-note" pointer-events="bounding-box"><g class="vf-notehead" pointer-events="bounding-box">
<path stroke-width="0.3" fill="black" stroke="none" stroke-dasharray="none" d="M448.25 60M455.60696 54.77712C455.71928 54.77712,455.88776 54.77712,455.91584 54.77712C455.91584 54.77712,455.94392 54.77712,455.94392 54.77712C455.94392 54.77712,456.1124 54.77712,456.2528 54.77712C458.78 54.917519999999996,460.26824 56.57424,460.26824 58.65216C460.26824 59.66304,459.93128 60.81432,459.08888 61.909440000000004C457.48832 64.0716,454.87688 65.25096,452.6024 65.25096C450.83336 65.25096,449.31704 64.54896,448.58696 63.11688C448.36232 62.55528,448.25 62.02176,448.25 61.43208C448.25 58.37136,451.67576 54.97368,455.60696 54.77712"></path></g></g>
<g class="vf-modifiers"></g></g><g class="vf-stavenote" id="vf-auto1090"><g class="vf-note" pointer-events="bounding-box"><g class="vf-notehead" pointer-events="bounding-box">
<path stroke-width="0.3" fill="black" stroke="none" stroke-dasharray="none" d="M483.875 60M491.23196 54.77712C491.34428 54.77712,491.51276 54.77712,491.54084 54.77712C491.54084 54.77712,491.56892 54.77712,491.56892 54.77712C491.56892 54.77712,491.7374 54.77712,491.8778 54.77712C494.405 54.917519999999996,495.89324 56.57424,495.89324 58.65216C495.89324 59.66304,495.55628 60.81432,494.71388 61.909440000000004C493.11332 64.0716,490.50188 65.25096,488.2274 65.25096C486.45836 65.25096,484.94204 64.54896,484.21196 63.11688C483.98732 62.55528,483.875 62.02176,483.875 61.43208C483.875 58.37136,487.30076 54.97368,491.23196 54.77712"></path></g></g>
<g class="vf-modifiers"></g></g><g class="vf-stavenote" id="vf-auto1097"><g class="vf-note" pointer-events="bounding-box"><g class="vf-notehead" pointer-events="bounding-box">
<path stroke-width="0.3" fill="black" stroke="none" stroke-dasharray="none" d="M519.5 60M526.85696 54.77712C526.96928 54.77712,527.13776 54.77712,527.16584 54.77712C527.16584 54.77712,527.19392 54.77712,527.19392 54.77712C527.19392 54.77712,527.3624 54.77712,527.5028 54.77712C530.03 54.917519999999996,531.51824 56.57424,531.51824 58.65216C531.51824 59.66304,531.18128 60.81432,530.33888 61.909440000000004C528.73832 64.0716,526.12688 65.25096,523.8524 65.25096C522.08336 65.25096,520.56704 64.54896,519.83696 63.11688C519.61232 62.55528,519.5 62.02176,519.5 61.43208C519.5 58.37136,522.92576 54.97368,526.85696 54.77712"></path></g></g>
<g class="vf-modifiers"></g></g><g class="vf-stavenote" id="vf-auto1104"><g class="vf-note" pointer-events="bounding-box"><g class="vf-notehead" pointer-events="bounding-box">
<path stroke-width="0.3" fill="black" stroke="none" stroke-dasharray="none" d="M555.125 60M562.48196 54.77712C562.59428 54.77712,562.76276 54.77712,562.79084 54.77712C562.79084 54.77712,562.81892 54.77712,562.81892 54.77712C562.81892 54.77712,562.9874 54.77712,563.1278 54.77712C565.655 54.917519999999996,567.14324 56.57424,567.14324 58.65216C567.14324 59.66304,566.80628 60.81432,565.96388 61.909440000000004C564.36332 64.0716,561.75188 65.25096,559.4774 65.25096C557.70836 65.25096,556.19204 64.54896,555.46196 63.11688C555.23732 62.55528,555.125 62.02176,555.125 61.43208C555.125 58.37136,558.55076 54.97368,562.48196 54.77712"></path></g></g>
<g class="vf-modifiers"></g></g><g class="vf-stavenote" id="vf-auto1111"><g class="vf-note" pointer-events="bounding-box"><g class="vf-notehead" pointer-events="bounding-box">
<path stroke-width="0.3" fill="black" stroke="none" stroke-dasharray="none" d="M590.75 60M598.10696 54.77712C598.21928 54.77712,598.38776 54.77712,598.41584 54.77712C598.41584 54.77712,598.44392 54.77712,598.44392 54.77712C598.44392 54.77712,598.6124 54.77712,598.7528 54.77712C601.28 54.917519999999996,602.76824 56.57424,602.76824 58.65216C602.76824 59.66304,602.43128 60.81432,601.58888 61.909440000000004C599.98832 64.0716,597.37688 65.25096,595.1024 65.25096C593.33336 65.25096,591.81704 64.54896,591.08696 63.11688C590.86232 62.55528,590.75 62.02176,590.75 61.43208C590.75 58.37136,594.17576 54.97368,598.10696 54.77712"></path></g></g>
<g class="vf-modifiers"></g></g><g class="vf-stavenote" id="vf-auto1118"><g class="vf-note" pointer-events="bounding-box"><g class="vf-notehead" pointer-events="bounding-box"><path stroke-width="0.3" fill="black" stroke="none" stroke-dasharray="none" d="M626.375 60M633.73196 54.77712C633.84428 54.77712,634.01276 54.77712,634.04084 54.77712C634.04084 54.77712,634.06892 54.77712,634.06892 54.77712C634.06892 54.77712,634.2374 54.77712,634.3778 54.77712C636.905 54.917519999999996,638.39324 56.57424,638.39324 58.65216C638.39324 59.66304,638.05628 60.81432,637.21388 61.909440000000004C635.61332 64.0716,633.00188 65.25096,630.7274 65.25096C628.95836 65.25096,627.44204 64.54896,626.71196 63.11688C626.48732 62.55528,626.375 62.02176,626.375 61.43208C626.375 58.37136,629.80076 54.97368,633.73196 54.77712"></path></g></g><g class="vf-modifiers"></g></g><path stroke-width="1.5" fill="none" stroke="black" stroke-dasharray="none" d="M90.10984 60L90.10984 25.75"></path><path stroke-width="1.5" fill="none" stroke="black" stroke-dasharray="none" d="M125.50464000000001 60L125.50464000000001 25.75"></path><path stroke-width="1.5" fill="none" stroke="black" stroke-dasharray="none" d="M160.89944 60L160.89944 25.75"></path><path stroke-width="1.5" fill="none" stroke="black" stroke-dasharray="none" d="M196.29424 60L196.29424 25.75"></path><path stroke-width="0.3" fill="black" stroke="none" stroke-dasharray="none" d="M89.35984 25L89.35984 30L196.54424 29.999999999999996L196.54424 24.999999999999996Z"></path><path stroke-width="1.5" fill="none" stroke="black" stroke-dasharray="none" d="M231.68904 60L231.68904 25.75"></path><path stroke-width="1.5" fill="none" stroke="black" stroke-dasharray="none" d="M267.08384000000007 60L267.08384000000007 25.75"></path><path stroke-width="1.5" fill="none" stroke="black" stroke-dasharray="none" d="M302.47864000000004 60L302.47864000000004 25.75"></path><path stroke-width="1.5" fill="none" stroke="black" stroke-dasharray="none" d="M337.8734400000001 60L337.8734400000001 25.75"></path><path stroke-width="0.3" fill="black" stroke="none" stroke-dasharray="none" d="M230.93904 25L230.93904 30L338.1234400000001 29.999999999999996L338.1234400000001 24.999999999999996Z"></path><path stroke-width="1.5" fill="none" stroke="black" stroke-dasharray="none" d="M388.26824 60L388.26824 25.75"></path><path stroke-width="1.5" fill="none" stroke="black" stroke-dasharray="none" d="M423.89324 60L423.89324 25.75"></path><path stroke-width="1.5" fill="none" stroke="black" stroke-dasharray="none" d="M459.51824 60L459.51824 25.75"></path><path stroke-width="1.5" fill="none" stroke="black" stroke-dasharray="none" d="M495.14324 60L495.14324 25.75"></path><path stroke-width="0.3" fill="black" stroke="none" stroke-dasharray="none" d="M387.51824 25L387.51824 30L495.39324 29.999999999999996L495.39324 24.999999999999996Z"></path><path stroke-width="1.5" fill="none" stroke="black" stroke-dasharray="none" d="M530.76824 60L530.76824 25.75"></path><path stroke-width="1.5" fill="none" stroke="black" stroke-dasharray="none" d="M566.39324 60L566.39324 25.75"></path><path stroke-width="1.5" fill="none" stroke="black" stroke-dasharray="none" d="M602.01824 60L602.01824 25.75"></path><path stroke-width="1.5" fill="none" stroke="black" stroke-dasharray="none" d="M637.64324 60L637.64324 25.75"></path><path stroke-width="0.3" fill="black" stroke="none" stroke-dasharray="none" d="M530.01824 25L530.01824 30L637.89324 29.999999999999996L637.89324 24.999999999999996Z"></path></svg>